<svg xmlns="http://www.w3.org/2000/svg" fill="none" viewBox="0 0 240 88"><path fill="#4f46e5" fill-rule="evenodd" d="M29.167 34.286c-.328-.053-.592-.292-.775-.577a2.35 2.35 0 0 0-3.317-.69c-1.104.753-1.407 2.282-.678 3.416a2.35 2.35 0 0 0 3.439.6c.209-.162.466-.263.724-.22.413.066.7.453.697.883a8.42 8.42 0 0 0 1.336 4.611c.715 1.111.948 2.588.211 3.684l-4.235 6.3c-1.697 2.524-2.215 5.506-1.564 7.863.668 2.423 2.564 4.092 5.35 3.814.277-.028.555-.06.833-.097 2.866-.377 5.193-2.373 6.603-4.963.726-1.333 2.642-1.857 3.839-.954.677.51 1.367.95 2.06 1.31 2.469 1.285 5.318 1.718 7.592.167 2.274-1.552 2.999-4.424 2.814-7.267a15.75 15.75 0 0 0-.386-2.542c-.327-1.404.798-2.91 2.19-3.069 2.866-.327 5.558-1.755 7.013-4.327.141-.25.279-.5.411-.752 1.336-2.534.584-4.983-1.32-6.563-1.853-1.536-4.72-2.21-7.639-1.585l-7.002 1.499c-1.308.28-2.574-.552-3.312-1.7a8.045 8.045 0 0 0-3.869-3.176.714.714 0 0 1-.44-.827.785.785 0 0 1 .396-.489 2.4 2.4 0 0 0 .193-.118c1.103-.753 1.406-2.282.678-3.416a2.35 2.35 0 0 0-3.318-.69c-1.103.753-1.407 2.282-.678 3.416l.015.022c.177.27.282.596.205.912a.952.952 0 0 1-.82.711 7.908 7.908 0 0 0-3.536 1.332 8.208 8.208 0 0 0-2.614 2.915c-.213.397-.634.642-1.07.571l-.026-.004Zm6.457 16.499a1.982 1.982 0 0 0-.163-.46c-.666-1.345-2.593-1.622-3.427-.38l-2.938 4.37c-.988 1.47-1.206 3.075-.894 4.204.293 1.062 1.056 1.777 2.374 1.645.246-.024.493-.053.74-.085 1.605-.211 2.888-1.287 3.718-2.811.849-1.558 1.207-3.58.803-5.48l-.213-1.003Zm.656-14.687c1.435-.98 3.1-1.168 4.753-.85.062.011.109-.058.074-.112-1.38-2.148-4.195-2.733-6.285-1.307-2.09 1.426-2.666 4.324-1.285 6.472.035.054.115.037.128-.027.362-1.692 1.18-3.197 2.615-4.176Zm14.642 1.329c-1.656.354-2.251 2.59-1.203 3.957.126.164.28.32.445.441l.133.097c1.541 1.125 3.488 1.574 5.212 1.377 1.685-.192 3.148-.99 3.962-2.43.126-.222.248-.445.366-.668.632-1.199.29-2.202-.544-2.895-.888-.736-2.407-1.155-4.106-.792l-4.265.913ZM46.9 42.408c.656.53.77 1.508.253 2.185-1.064 1.394-2.059 2.438-3.273 3.26-1.207.817-2.548 1.357-4.22 1.864-.802.243-1.641-.229-1.875-1.053-.234-.825.226-1.69 1.027-1.933 1.546-.468 2.562-.903 3.41-1.477.842-.57 1.603-1.334 2.555-2.58a1.484 1.484 0 0 1 2.123-.266Zm3.267 6.475c.626.55.789 1.495.362 2.11-.878 1.267-1.715 2.203-2.764 2.913-1.043.705-2.223 1.135-3.706 1.513-.71.18-1.5-.325-1.761-1.13-.263-.806.101-1.605.812-1.786 1.37-.349 2.264-.7 2.997-1.196.727-.491 1.37-1.174 2.154-2.307.426-.615 1.28-.667 1.906-.117Z" clip-rule="evenodd"/><path fill="#4f46e5" d="M79.12 52.642a.5.5 0 0 1-.5-.5v-1.898a.5.5 0 0 1 .5-.5h4.292c.856 0 1.52-.261 1.99-.783.49-.522.734-1.14.734-1.854 0-.487-.105-.931-.314-1.331a2.23 2.23 0 0 0-.943-.94c-.402-.244-.89-.366-1.467-.366h-4.293a.5.5 0 0 1-.5-.5v-1.872a.5.5 0 0 1 .5-.5h3.9c.733 0 1.318-.183 1.755-.548.454-.366.68-.914.68-1.645 0-.749-.226-1.306-.68-1.671-.437-.366-1.022-.549-1.755-.549h-3.9a.5.5 0 0 1-.5-.5v-1.898a.5.5 0 0 1 .5-.5h4.32c1.221 0 2.243.227 3.064.68.838.434 1.466 1.017 1.885 1.748.42.714.629 1.497.629 2.35 0 1.045-.323 1.95-.97 2.716-.515.614-1.23 1.099-2.145 1.455-.29.113-.582-.135-.54-.445a.411.411 0 0 1 .537-.341c1.135.39 2.026.976 2.673 1.759.75.87 1.126 1.923 1.126 3.16a5.01 5.01 0 0 1-.733 2.662c-.472.784-1.17 1.419-2.096 1.906-.908.47-2.016.705-3.326.705h-4.424Zm-2.62 0a.5.5 0 0 1-.5-.5V34.787a.5.5 0 0 1 .5-.5h2.536a.5.5 0 0 1 .5.5v17.355a.5.5 0 0 1-.5.5H76.5ZM98.206 52.903c-1.327 0-2.505-.278-3.536-.835a6.638 6.638 0 0 1-2.462-2.35c-.593-.992-.89-2.124-.89-3.394 0-1.253.288-2.367.864-3.342a6.494 6.494 0 0 1 2.41-2.35c1.013-.592 2.139-.888 3.378-.888 1.223 0 2.296.279 3.222.836a5.678 5.678 0 0 1 2.2 2.245c.541.94.812 2.01.812 3.212 0 .226-.018.46-.053.705a4.012 4.012 0 0 1-.051.396.476.476 0 0 1-.474.388l-9.738.024a.5.5 0 0 1-.501-.5v-1.56a.5.5 0 0 1 .499-.5l7.475-.02a.36.36 0 0 1 .221.644c-.23.178-.57.023-.614-.265a4.177 4.177 0 0 0-.352-1.192 2.44 2.44 0 0 0-1.022-1.15c-.436-.278-.977-.417-1.624-.417-.68 0-1.274.157-1.78.47-.507.296-.9.722-1.18 1.28-.261.539-.392 1.183-.392 1.931 0 .766.14 1.437.419 2.011.297.557.716.992 1.257 1.306.541.295 1.17.443 1.886.443a4.7 4.7 0 0 0 1.755-.313c.361-.156.69-.362.985-.618.218-.189.549-.202.753 0l1.312 1.309a.47.47 0 0 1 .013.667 5.855 5.855 0 0 1-1.937 1.28c-.873.365-1.825.547-2.855.547ZM112.376 52.903c-1.327 0-2.506-.278-3.536-.835a6.638 6.638 0 0 1-2.462-2.35c-.594-.992-.89-2.124-.89-3.394 0-1.253.288-2.367.864-3.342a6.5 6.5 0 0 1 2.409-2.35c1.013-.592 2.139-.888 3.379-.888 1.222 0 2.296.279 3.222.836a5.685 5.685 0 0 1 2.2 2.245c.541.94.811 2.01.811 3.212 0 .226-.017.46-.052.705a4.012 4.012 0 0 1-.051.396.477.477 0 0 1-.475.388l-9.737.024a.5.5 0 0 1-.501-.5v-1.56a.5.5 0 0 1 .498-.5l7.476-.02a.36.36 0 0 1 .221.644c-.231.178-.57.023-.614-.265a4.177 4.177 0 0 0-.353-1.192 2.437 2.437 0 0 0-1.021-1.15c-.437-.278-.978-.417-1.624-.417-.681 0-1.275.157-1.781.47a2.995 2.995 0 0 0-1.178 1.28c-.262.539-.393 1.183-.393 1.931 0 .766.139 1.437.419 2.011a3.24 3.24 0 0 0 1.257 1.306c.541.295 1.17.443 1.886.443.646 0 1.231-.104 1.754-.313.362-.156.69-.362.986-.618.217-.189.549-.202.753 0l1.312 1.309a.47.47 0 0 1 .013.667 5.855 5.855 0 0 1-1.937 1.28c-.873.365-1.825.547-2.855.547ZM121.507 47.525a.5.5 0 0 1-.5-.5v-2.107a.5.5 0 0 1 .5-.5h8.062a.5.5 0 0 1 .5.5v2.107a.5.5 0 0 1-.5.5h-8.062ZM142.524 52.93c-1.345 0-2.602-.244-3.772-.732a9.726 9.726 0 0 1-3.038-2.01 9.473 9.473 0 0 1-2.043-3.029 9.876 9.876 0 0 1-.707-3.733c0-1.323.236-2.55.707-3.682a9.374 9.374 0 0 1 2.017-3.002 9.159 9.159 0 0 1 3.038-2.01c1.152-.488 2.401-.732 3.745-.732 1.345 0 2.593.244 3.746.731a9.159 9.159 0 0 1 3.038 2.01 8.836 8.836 0 0 1 2.016 3.003 9.368 9.368 0 0 1 .734 3.708 9.368 9.368 0 0 1-.734 3.707 9.116 9.116 0 0 1-2.016 3.029 9.42 9.42 0 0 1-3.012 2.01c-1.153.488-2.392.731-3.719.731Zm-.053-3.316c1.17 0 2.192-.261 3.065-.784a5.389 5.389 0 0 0 2.069-2.167c.506-.922.759-2.002.759-3.237 0-.906-.148-1.732-.445-2.48a5.486 5.486 0 0 0-1.205-1.933 5.3 5.3 0 0 0-1.859-1.28c-.716-.295-1.511-.443-2.384-.443-1.152 0-2.174.26-3.064.783a5.435 5.435 0 0 0-2.069 2.141c-.489.923-.733 1.993-.733 3.212 0 .922.139 1.766.419 2.532a5.973 5.973 0 0 0 1.204 1.958c.524.54 1.144.958 1.86 1.254a6.309 6.309 0 0 0 2.383.444Zm8.708 4.038a.5.5 0 0 1-.704-.002l-7.729-7.705a.5.5 0 0 1-.002-.706l1.443-1.457a.501.501 0 0 1 .709-.002l7.747 7.723a.5.5 0 0 1-.003.71l-1.461 1.44Z"/></svg>
