<svg width="505" height="288" viewBox="0 0 505 288" fill="none" xmlns="http://www.w3.org/2000/svg">
<path d="M2 16C2 8.45753 2 4.68629 4.34315 2.34315C6.68629 0 10.4575 0 18 0H48C55.5425 0 59.3137 0 61.6569 2.34315C64 4.68629 64 8.45753 64 16V16C64 23.5425 64 27.3137 61.6569 29.6569C59.3137 32 55.5425 32 48 32H18C10.4575 32 6.68629 32 4.34315 29.6569C2 27.3137 2 23.5425 2 16V16Z" fill="#F1F2F4"/>
<path d="M17.7164 22L14.2124 14.32H16.1644L18.8364 20.576H17.6844L20.3724 14.32H22.2444L18.7404 22H17.7164ZM26.2311 22.16C25.5377 22.16 24.9084 21.984 24.3431 21.632C23.7884 21.28 23.3457 20.8053 23.0151 20.208C22.6951 19.6 22.5351 18.9227 22.5351 18.176C22.5351 17.4187 22.6951 16.7413 23.0151 16.144C23.3457 15.536 23.7884 15.056 24.3431 14.704C24.9084 14.3413 25.5377 14.16 26.2311 14.16C26.8177 14.16 27.3351 14.288 27.7831 14.544C28.2417 14.7893 28.6044 15.1307 28.8711 15.568C29.1377 16.0053 29.2711 16.5013 29.2711 17.056V19.264C29.2711 19.8187 29.1377 20.3147 28.8711 20.752C28.6151 21.1893 28.2577 21.536 27.7991 21.792C27.3404 22.0373 26.8177 22.16 26.2311 22.16ZM26.5191 20.496C27.1697 20.496 27.6924 20.2773 28.0871 19.84C28.4924 19.4027 28.6951 18.8427 28.6951 18.16C28.6951 17.7013 28.6044 17.296 28.4231 16.944C28.2417 16.592 27.9857 16.32 27.6551 16.128C27.3351 15.9253 26.9564 15.824 26.5191 15.824C26.0924 15.824 25.7137 15.9253 25.3831 16.128C25.0631 16.32 24.8071 16.592 24.6151 16.944C24.4337 17.296 24.3431 17.7013 24.3431 18.16C24.3431 18.6187 24.4337 19.024 24.6151 19.376C24.8071 19.728 25.0631 20.0053 25.3831 20.208C25.7137 20.4 26.0924 20.496 26.5191 20.496ZM28.5831 22V19.936L28.8871 18.064L28.5831 16.208V14.32H30.3431V22H28.5831ZM32.2963 22V10.48H34.0563V22H32.2963ZM39.1671 22.16C38.5164 22.16 37.9351 22.016 37.4231 21.728C36.9217 21.44 36.5271 21.0453 36.2391 20.544C35.9617 20.032 35.8231 19.4453 35.8231 18.784V14.32H37.5831V18.704C37.5831 19.0773 37.6417 19.3973 37.7591 19.664C37.8871 19.92 38.0684 20.1173 38.3031 20.256C38.5484 20.3947 38.8364 20.464 39.1671 20.464C39.6791 20.464 40.0684 20.3147 40.3351 20.016C40.6124 19.7067 40.7511 19.2693 40.7511 18.704V14.32H42.5111V18.784C42.5111 19.456 42.3671 20.048 42.0791 20.56C41.8017 21.0613 41.4124 21.456 40.9111 21.744C40.4097 22.0213 39.8284 22.16 39.1671 22.16ZM47.8487 22.16C47.0807 22.16 46.3874 21.9893 45.7687 21.648C45.1607 21.296 44.6754 20.816 44.3127 20.208C43.9607 19.6 43.7847 18.9173 43.7847 18.16C43.7847 17.4027 43.9607 16.7253 44.3127 16.128C44.6647 15.52 45.1394 15.04 45.7367 14.688C46.3447 14.336 47.0167 14.16 47.7527 14.16C48.4674 14.16 49.0967 14.3253 49.6407 14.656C50.1954 14.9867 50.6274 15.44 50.9367 16.016C51.2567 16.592 51.4167 17.248 51.4167 17.984C51.4167 18.112 51.406 18.2453 51.3847 18.384C51.374 18.512 51.3527 18.656 51.3207 18.816H45.0167V17.376H50.4087L49.7527 17.952C49.7314 17.4827 49.6407 17.088 49.4807 16.768C49.3207 16.448 49.0914 16.2027 48.7927 16.032C48.5047 15.8613 48.1474 15.776 47.7207 15.776C47.2727 15.776 46.8834 15.872 46.5527 16.064C46.222 16.256 45.966 16.528 45.7847 16.88C45.6034 17.2213 45.5127 17.632 45.5127 18.112C45.5127 18.592 45.6087 19.0133 45.8007 19.376C45.9927 19.7387 46.2647 20.0213 46.6167 20.224C46.9687 20.416 47.374 20.512 47.8327 20.512C48.2274 20.512 48.59 20.4427 48.9207 20.304C49.262 20.1653 49.55 19.9627 49.7847 19.696L50.9047 20.832C50.5314 21.2693 50.078 21.6 49.5447 21.824C49.0114 22.048 48.446 22.16 47.8487 22.16Z" fill="#2A2C35"/>
<path d="M2 80C2 72.4575 2 68.6863 4.34315 66.3431C6.68629 64 10.4575 64 18 64H48C55.5425 64 59.3137 64 61.6569 66.3431C64 68.6863 64 72.4575 64 80V80C64 87.5425 64 91.3137 61.6569 93.6569C59.3137 96 55.5425 96 48 96H18C10.4575 96 6.68629 96 4.34315 93.6569C2 91.3137 2 87.5425 2 80V80Z" fill="#F1F2F4"/>
<path d="M2 80C2 72.4575 2 68.6863 4.34315 66.3431C6.68629 64 10.4575 64 18 64H48C55.5425 64 59.3137 64 61.6569 66.3431C64 68.6863 64 72.4575 64 80V80C64 87.5425 64 91.3137 61.6569 93.6569C59.3137 96 55.5425 96 48 96H18C10.4575 96 6.68629 96 4.34315 93.6569C2 91.3137 2 87.5425 2 80V80Z" fill="#BCBFC5" fill-opacity="0.2"/>
<path d="M17.7164 86L14.2124 78.32H16.1644L18.8364 84.576H17.6844L20.3724 78.32H22.2444L18.7404 86H17.7164ZM26.2311 86.16C25.5377 86.16 24.9084 85.984 24.3431 85.632C23.7884 85.28 23.3457 84.8053 23.0151 84.208C22.6951 83.6 22.5351 82.9227 22.5351 82.176C22.5351 81.4187 22.6951 80.7413 23.0151 80.144C23.3457 79.536 23.7884 79.056 24.3431 78.704C24.9084 78.3413 25.5377 78.16 26.2311 78.16C26.8177 78.16 27.3351 78.288 27.7831 78.544C28.2417 78.7893 28.6044 79.1307 28.8711 79.568C29.1377 80.0053 29.2711 80.5013 29.2711 81.056V83.264C29.2711 83.8187 29.1377 84.3147 28.8711 84.752C28.6151 85.1893 28.2577 85.536 27.7991 85.792C27.3404 86.0373 26.8177 86.16 26.2311 86.16ZM26.5191 84.496C27.1697 84.496 27.6924 84.2773 28.0871 83.84C28.4924 83.4027 28.6951 82.8427 28.6951 82.16C28.6951 81.7013 28.6044 81.296 28.4231 80.944C28.2417 80.592 27.9857 80.32 27.6551 80.128C27.3351 79.9253 26.9564 79.824 26.5191 79.824C26.0924 79.824 25.7137 79.9253 25.3831 80.128C25.0631 80.32 24.8071 80.592 24.6151 80.944C24.4337 81.296 24.3431 81.7013 24.3431 82.16C24.3431 82.6187 24.4337 83.024 24.6151 83.376C24.8071 83.728 25.0631 84.0053 25.3831 84.208C25.7137 84.4 26.0924 84.496 26.5191 84.496ZM28.5831 86V83.936L28.8871 82.064L28.5831 80.208V78.32H30.3431V86H28.5831ZM32.2963 86V74.48H34.0563V86H32.2963ZM39.1671 86.16C38.5164 86.16 37.9351 86.016 37.4231 85.728C36.9217 85.44 36.5271 85.0453 36.2391 84.544C35.9617 84.032 35.8231 83.4453 35.8231 82.784V78.32H37.5831V82.704C37.5831 83.0773 37.6417 83.3973 37.7591 83.664C37.8871 83.92 38.0684 84.1173 38.3031 84.256C38.5484 84.3947 38.8364 84.464 39.1671 84.464C39.6791 84.464 40.0684 84.3147 40.3351 84.016C40.6124 83.7067 40.7511 83.2693 40.7511 82.704V78.32H42.5111V82.784C42.5111 83.456 42.3671 84.048 42.0791 84.56C41.8017 85.0613 41.4124 85.456 40.9111 85.744C40.4097 86.0213 39.8284 86.16 39.1671 86.16ZM47.8487 86.16C47.0807 86.16 46.3874 85.9893 45.7687 85.648C45.1607 85.296 44.6754 84.816 44.3127 84.208C43.9607 83.6 43.7847 82.9173 43.7847 82.16C43.7847 81.4027 43.9607 80.7253 44.3127 80.128C44.6647 79.52 45.1394 79.04 45.7367 78.688C46.3447 78.336 47.0167 78.16 47.7527 78.16C48.4674 78.16 49.0967 78.3253 49.6407 78.656C50.1954 78.9867 50.6274 79.44 50.9367 80.016C51.2567 80.592 51.4167 81.248 51.4167 81.984C51.4167 82.112 51.406 82.2453 51.3847 82.384C51.374 82.512 51.3527 82.656 51.3207 82.816H45.0167V81.376H50.4087L49.7527 81.952C49.7314 81.4827 49.6407 81.088 49.4807 80.768C49.3207 80.448 49.0914 80.2027 48.7927 80.032C48.5047 79.8613 48.1474 79.776 47.7207 79.776C47.2727 79.776 46.8834 79.872 46.5527 80.064C46.222 80.256 45.966 80.528 45.7847 80.88C45.6034 81.2213 45.5127 81.632 45.5127 82.112C45.5127 82.592 45.6087 83.0133 45.8007 83.376C45.9927 83.7387 46.2647 84.0213 46.6167 84.224C46.9687 84.416 47.374 84.512 47.8327 84.512C48.2274 84.512 48.59 84.4427 48.9207 84.304C49.262 84.1653 49.55 83.9627 49.7847 83.696L50.9047 84.832C50.5314 85.2693 50.078 85.6 49.5447 85.824C49.0114 86.048 48.446 86.16 47.8487 86.16Z" fill="#2A2C35"/>
<path d="M50 127C53.7428 127 56.6505 126.998 58.9111 127.302C61.2005 127.61 62.9759 128.247 64.3643 129.636C65.7526 131.024 66.3904 132.799 66.6982 135.089C67.0021 137.349 67 140.257 67 144C67 147.743 67.0021 150.651 66.6982 152.911C66.3904 155.201 65.7526 156.976 64.3643 158.364C62.9759 159.753 61.2005 160.39 58.9111 160.698C56.6505 161.002 53.7428 161 50 161H18C14.2572 161 11.3495 161.002 9.08887 160.698C6.79947 160.39 5.02408 159.753 3.63574 158.364C2.2474 156.976 1.60956 155.201 1.30176 152.911C0.997863 150.651 1 147.743 1 144C1 140.257 0.997863 137.349 1.30176 135.089C1.60956 132.799 2.2474 131.024 3.63574 129.636C5.02408 128.247 6.79947 127.61 9.08887 127.302C11.3495 126.998 14.2572 127 18 127H50Z" stroke="#4F46E5" stroke-width="2"/>
<path d="M3 144C3 136.458 3 132.686 5.34315 130.343C7.68629 128 11.4575 128 19 128H49C56.5425 128 60.3137 128 62.6569 130.343C65 132.686 65 136.458 65 144V144C65 151.542 65 155.314 62.6569 157.657C60.3137 160 56.5425 160 49 160H19C11.4575 160 7.68629 160 5.34315 157.657C3 155.314 3 151.542 3 144V144Z" fill="#F1F2F4"/>
<path d="M18.7164 150L15.2124 142.32H17.1644L19.8364 148.576H18.6844L21.3724 142.32H23.2444L19.7404 150H18.7164ZM27.2311 150.16C26.5377 150.16 25.9084 149.984 25.3431 149.632C24.7884 149.28 24.3457 148.805 24.0151 148.208C23.6951 147.6 23.5351 146.923 23.5351 146.176C23.5351 145.419 23.6951 144.741 24.0151 144.144C24.3457 143.536 24.7884 143.056 25.3431 142.704C25.9084 142.341 26.5377 142.16 27.2311 142.16C27.8177 142.16 28.3351 142.288 28.7831 142.544C29.2417 142.789 29.6044 143.131 29.8711 143.568C30.1377 144.005 30.2711 144.501 30.2711 145.056V147.264C30.2711 147.819 30.1377 148.315 29.8711 148.752C29.6151 149.189 29.2577 149.536 28.7991 149.792C28.3404 150.037 27.8177 150.16 27.2311 150.16ZM27.5191 148.496C28.1697 148.496 28.6924 148.277 29.0871 147.84C29.4924 147.403 29.6951 146.843 29.6951 146.16C29.6951 145.701 29.6044 145.296 29.4231 144.944C29.2417 144.592 28.9857 144.32 28.6551 144.128C28.3351 143.925 27.9564 143.824 27.5191 143.824C27.0924 143.824 26.7137 143.925 26.3831 144.128C26.0631 144.32 25.8071 144.592 25.6151 144.944C25.4337 145.296 25.3431 145.701 25.3431 146.16C25.3431 146.619 25.4337 147.024 25.6151 147.376C25.8071 147.728 26.0631 148.005 26.3831 148.208C26.7137 148.4 27.0924 148.496 27.5191 148.496ZM29.5831 150V147.936L29.8871 146.064L29.5831 144.208V142.32H31.3431V150H29.5831ZM33.2963 150V138.48H35.0563V150H33.2963ZM40.1671 150.16C39.5164 150.16 38.9351 150.016 38.4231 149.728C37.9217 149.44 37.5271 149.045 37.2391 148.544C36.9617 148.032 36.8231 147.445 36.8231 146.784V142.32H38.5831V146.704C38.5831 147.077 38.6417 147.397 38.7591 147.664C38.8871 147.92 39.0684 148.117 39.3031 148.256C39.5484 148.395 39.8364 148.464 40.1671 148.464C40.6791 148.464 41.0684 148.315 41.3351 148.016C41.6124 147.707 41.7511 147.269 41.7511 146.704V142.32H43.5111V146.784C43.5111 147.456 43.3671 148.048 43.0791 148.56C42.8017 149.061 42.4124 149.456 41.9111 149.744C41.4097 150.021 40.8284 150.16 40.1671 150.16ZM48.8487 150.16C48.0807 150.16 47.3874 149.989 46.7687 149.648C46.1607 149.296 45.6754 148.816 45.3127 148.208C44.9607 147.6 44.7847 146.917 44.7847 146.16C44.7847 145.403 44.9607 144.725 45.3127 144.128C45.6647 143.52 46.1394 143.04 46.7367 142.688C47.3447 142.336 48.0167 142.16 48.7527 142.16C49.4674 142.16 50.0967 142.325 50.6407 142.656C51.1954 142.987 51.6274 143.44 51.9367 144.016C52.2567 144.592 52.4167 145.248 52.4167 145.984C52.4167 146.112 52.406 146.245 52.3847 146.384C52.374 146.512 52.3527 146.656 52.3207 146.816H46.0167V145.376H51.4087L50.7527 145.952C50.7314 145.483 50.6407 145.088 50.4807 144.768C50.3207 144.448 50.0914 144.203 49.7927 144.032C49.5047 143.861 49.1474 143.776 48.7207 143.776C48.2727 143.776 47.8834 143.872 47.5527 144.064C47.222 144.256 46.966 144.528 46.7847 144.88C46.6034 145.221 46.5127 145.632 46.5127 146.112C46.5127 146.592 46.6087 147.013 46.8007 147.376C46.9927 147.739 47.2647 148.021 47.6167 148.224C47.9687 148.416 48.374 148.512 48.8327 148.512C49.2274 148.512 49.59 148.443 49.9207 148.304C50.262 148.165 50.55 147.963 50.7847 147.696L51.9047 148.832C51.5314 149.269 51.078 149.6 50.5447 149.824C50.0114 150.048 49.446 150.16 48.8487 150.16Z" fill="#2A2C35"/>
<path d="M2 208C2 200.458 2 196.686 4.34315 194.343C6.68629 192 10.4575 192 18 192H48C55.5425 192 59.3137 192 61.6569 194.343C64 196.686 64 200.458 64 208V208C64 215.542 64 219.314 61.6569 221.657C59.3137 224 55.5425 224 48 224H18C10.4575 224 6.68629 224 4.34315 221.657C2 219.314 2 215.542 2 208V208Z" fill="#4F46E5"/>
<path d="M17.7164 214L14.2124 206.32H16.1644L18.8364 212.576H17.6844L20.3724 206.32H22.2444L18.7404 214H17.7164ZM26.2311 214.16C25.5377 214.16 24.9084 213.984 24.3431 213.632C23.7884 213.28 23.3457 212.805 23.0151 212.208C22.6951 211.6 22.5351 210.923 22.5351 210.176C22.5351 209.419 22.6951 208.741 23.0151 208.144C23.3457 207.536 23.7884 207.056 24.3431 206.704C24.9084 206.341 25.5377 206.16 26.2311 206.16C26.8177 206.16 27.3351 206.288 27.7831 206.544C28.2417 206.789 28.6044 207.131 28.8711 207.568C29.1377 208.005 29.2711 208.501 29.2711 209.056V211.264C29.2711 211.819 29.1377 212.315 28.8711 212.752C28.6151 213.189 28.2577 213.536 27.7991 213.792C27.3404 214.037 26.8177 214.16 26.2311 214.16ZM26.5191 212.496C27.1697 212.496 27.6924 212.277 28.0871 211.84C28.4924 211.403 28.6951 210.843 28.6951 210.16C28.6951 209.701 28.6044 209.296 28.4231 208.944C28.2417 208.592 27.9857 208.32 27.6551 208.128C27.3351 207.925 26.9564 207.824 26.5191 207.824C26.0924 207.824 25.7137 207.925 25.3831 208.128C25.0631 208.32 24.8071 208.592 24.6151 208.944C24.4337 209.296 24.3431 209.701 24.3431 210.16C24.3431 210.619 24.4337 211.024 24.6151 211.376C24.8071 211.728 25.0631 212.005 25.3831 212.208C25.7137 212.4 26.0924 212.496 26.5191 212.496ZM28.5831 214V211.936L28.8871 210.064L28.5831 208.208V206.32H30.3431V214H28.5831ZM32.2963 214V202.48H34.0563V214H32.2963ZM39.1671 214.16C38.5164 214.16 37.9351 214.016 37.4231 213.728C36.9217 213.44 36.5271 213.045 36.2391 212.544C35.9617 212.032 35.8231 211.445 35.8231 210.784V206.32H37.5831V210.704C37.5831 211.077 37.6417 211.397 37.7591 211.664C37.8871 211.92 38.0684 212.117 38.3031 212.256C38.5484 212.395 38.8364 212.464 39.1671 212.464C39.6791 212.464 40.0684 212.315 40.3351 212.016C40.6124 211.707 40.7511 211.269 40.7511 210.704V206.32H42.5111V210.784C42.5111 211.456 42.3671 212.048 42.0791 212.56C41.8017 213.061 41.4124 213.456 40.9111 213.744C40.4097 214.021 39.8284 214.16 39.1671 214.16ZM47.8487 214.16C47.0807 214.16 46.3874 213.989 45.7687 213.648C45.1607 213.296 44.6754 212.816 44.3127 212.208C43.9607 211.6 43.7847 210.917 43.7847 210.16C43.7847 209.403 43.9607 208.725 44.3127 208.128C44.6647 207.52 45.1394 207.04 45.7367 206.688C46.3447 206.336 47.0167 206.16 47.7527 206.16C48.4674 206.16 49.0967 206.325 49.6407 206.656C50.1954 206.987 50.6274 207.44 50.9367 208.016C51.2567 208.592 51.4167 209.248 51.4167 209.984C51.4167 210.112 51.406 210.245 51.3847 210.384C51.374 210.512 51.3527 210.656 51.3207 210.816H45.0167V209.376H50.4087L49.7527 209.952C49.7314 209.483 49.6407 209.088 49.4807 208.768C49.3207 208.448 49.0914 208.203 48.7927 208.032C48.5047 207.861 48.1474 207.776 47.7207 207.776C47.2727 207.776 46.8834 207.872 46.5527 208.064C46.222 208.256 45.966 208.528 45.7847 208.88C45.6034 209.221 45.5127 209.632 45.5127 210.112C45.5127 210.592 45.6087 211.013 45.8007 211.376C45.9927 211.739 46.2647 212.021 46.6167 212.224C46.9687 212.416 47.374 212.512 47.8327 212.512C48.2274 212.512 48.59 212.443 48.9207 212.304C49.262 212.165 49.55 211.963 49.7847 211.696L50.9047 212.832C50.5314 213.269 50.078 213.6 49.5447 213.824C49.0114 214.048 48.446 214.16 47.8487 214.16Z" fill="#F6F6F8"/>
<g opacity="0.6">
<path d="M2 272C2 264.458 2 260.686 4.34315 258.343C6.68629 256 10.4575 256 18 256H48C55.5425 256 59.3137 256 61.6569 258.343C64 260.686 64 264.458 64 272V272C64 279.542 64 283.314 61.6569 285.657C59.3137 288 55.5425 288 48 288H18C10.4575 288 6.68629 288 4.34315 285.657C2 283.314 2 279.542 2 272V272Z" fill="#F1F2F4"/>
<path d="M17.7164 278L14.2124 270.32H16.1644L18.8364 276.576H17.6844L20.3724 270.32H22.2444L18.7404 278H17.7164ZM26.2311 278.16C25.5377 278.16 24.9084 277.984 24.3431 277.632C23.7884 277.28 23.3457 276.805 23.0151 276.208C22.6951 275.6 22.5351 274.923 22.5351 274.176C22.5351 273.419 22.6951 272.741 23.0151 272.144C23.3457 271.536 23.7884 271.056 24.3431 270.704C24.9084 270.341 25.5377 270.16 26.2311 270.16C26.8177 270.16 27.3351 270.288 27.7831 270.544C28.2417 270.789 28.6044 271.131 28.8711 271.568C29.1377 272.005 29.2711 272.501 29.2711 273.056V275.264C29.2711 275.819 29.1377 276.315 28.8711 276.752C28.6151 277.189 28.2577 277.536 27.7991 277.792C27.3404 278.037 26.8177 278.16 26.2311 278.16ZM26.5191 276.496C27.1697 276.496 27.6924 276.277 28.0871 275.84C28.4924 275.403 28.6951 274.843 28.6951 274.16C28.6951 273.701 28.6044 273.296 28.4231 272.944C28.2417 272.592 27.9857 272.32 27.6551 272.128C27.3351 271.925 26.9564 271.824 26.5191 271.824C26.0924 271.824 25.7137 271.925 25.3831 272.128C25.0631 272.32 24.8071 272.592 24.6151 272.944C24.4337 273.296 24.3431 273.701 24.3431 274.16C24.3431 274.619 24.4337 275.024 24.6151 275.376C24.8071 275.728 25.0631 276.005 25.3831 276.208C25.7137 276.4 26.0924 276.496 26.5191 276.496ZM28.5831 278V275.936L28.8871 274.064L28.5831 272.208V270.32H30.3431V278H28.5831ZM32.2963 278V266.48H34.0563V278H32.2963ZM39.1671 278.16C38.5164 278.16 37.9351 278.016 37.4231 277.728C36.9217 277.44 36.5271 277.045 36.2391 276.544C35.9617 276.032 35.8231 275.445 35.8231 274.784V270.32H37.5831V274.704C37.5831 275.077 37.6417 275.397 37.7591 275.664C37.8871 275.92 38.0684 276.117 38.3031 276.256C38.5484 276.395 38.8364 276.464 39.1671 276.464C39.6791 276.464 40.0684 276.315 40.3351 276.016C40.6124 275.707 40.7511 275.269 40.7511 274.704V270.32H42.5111V274.784C42.5111 275.456 42.3671 276.048 42.0791 276.56C41.8017 277.061 41.4124 277.456 40.9111 277.744C40.4097 278.021 39.8284 278.16 39.1671 278.16ZM47.8487 278.16C47.0807 278.16 46.3874 277.989 45.7687 277.648C45.1607 277.296 44.6754 276.816 44.3127 276.208C43.9607 275.6 43.7847 274.917 43.7847 274.16C43.7847 273.403 43.9607 272.725 44.3127 272.128C44.6647 271.52 45.1394 271.04 45.7367 270.688C46.3447 270.336 47.0167 270.16 47.7527 270.16C48.4674 270.16 49.0967 270.325 49.6407 270.656C50.1954 270.987 50.6274 271.44 50.9367 272.016C51.2567 272.592 51.4167 273.248 51.4167 273.984C51.4167 274.112 51.406 274.245 51.3847 274.384C51.374 274.512 51.3527 274.656 51.3207 274.816H45.0167V273.376H50.4087L49.7527 273.952C49.7314 273.483 49.6407 273.088 49.4807 272.768C49.3207 272.448 49.0914 272.203 48.7927 272.032C48.5047 271.861 48.1474 271.776 47.7207 271.776C47.2727 271.776 46.8834 271.872 46.5527 272.064C46.222 272.256 45.966 272.528 45.7847 272.88C45.6034 273.221 45.5127 273.632 45.5127 274.112C45.5127 274.592 45.6087 275.013 45.8007 275.376C45.9927 275.739 46.2647 276.021 46.6167 276.224C46.9687 276.416 47.374 276.512 47.8327 276.512C48.2274 276.512 48.59 276.443 48.9207 276.304C49.262 276.165 49.55 275.963 49.7847 275.696L50.9047 276.832C50.5314 277.269 50.078 277.6 49.5447 277.824C49.0114 278.048 48.446 278.16 47.8487 278.16Z" fill="#2A2C35"/>
</g>
<path d="M98 16C98 8.45753 98 4.68629 100.343 2.34315C102.686 0 106.458 0 114 0H176C183.542 0 187.314 0 189.657 2.34315C192 4.68629 192 8.45753 192 16V16C192 23.5425 192 27.3137 189.657 29.6569C187.314 32 183.542 32 176 32H114C106.458 32 102.686 32 100.343 29.6569C98 27.3137 98 23.5425 98 16V16Z" fill="#F1F2F4"/>
<path d="M132.781 13.0047C132.667 12.6553 132.453 12.3471 132.166 12.1184C131.878 11.8898 131.529 11.7507 131.163 11.7184L125.82 11.2563L123.729 6.27438C123.585 5.93559 123.345 5.64661 123.038 5.44348C122.731 5.24034 122.371 5.13202 122.003 5.13202C121.635 5.13202 121.275 5.24034 120.968 5.44348C120.661 5.64661 120.421 5.93559 120.277 6.27438L118.184 11.2563L112.84 11.7184C112.472 11.7489 112.121 11.8874 111.831 12.1166C111.542 12.3457 111.326 12.6553 111.212 13.0065C111.097 13.3577 111.089 13.7348 111.189 14.0906C111.288 14.4463 111.49 14.7649 111.769 15.0063L115.831 18.55L114.612 23.8225C114.528 24.1815 114.552 24.5572 114.681 24.9026C114.81 25.248 115.038 25.5478 115.336 25.7645C115.634 25.9812 115.989 26.1052 116.358 26.1209C116.726 26.1367 117.091 26.0435 117.406 25.8531L122 23.0631L126.594 25.8531C126.91 26.0432 127.274 26.1361 127.642 26.1202C128.01 26.1043 128.366 25.9803 128.664 25.7637C128.962 25.547 129.189 25.2474 129.318 24.9021C129.447 24.5569 129.471 24.1814 129.388 23.8225L128.169 18.55L132.23 15.0063C132.509 14.764 132.71 14.4448 132.808 14.0887C132.906 13.7326 132.897 13.3555 132.781 13.0047ZM126.524 17.0003C126.267 17.224 126.075 17.5135 125.97 17.8378C125.865 18.162 125.851 18.5087 125.928 18.8406L126.996 23.4644L122.971 21.0194C122.678 20.8414 122.343 20.7472 122 20.7472C121.658 20.7472 121.322 20.8414 121.03 21.0194L117.004 23.4644L118.072 18.8406C118.149 18.5087 118.135 18.162 118.03 17.8378C117.925 17.5135 117.734 17.224 117.477 17.0003L113.906 13.885L118.606 13.4781C118.947 13.449 119.273 13.327 119.549 13.1255C119.825 12.924 120.04 12.6507 120.171 12.3353L122 7.97688L123.829 12.3353C123.961 12.6507 124.176 12.924 124.452 13.1255C124.728 13.327 125.054 13.449 125.394 13.4781L130.095 13.885L126.524 17.0003Z" fill="#2A2C35"/>
<path d="M145.716 22L142.212 14.32H144.164L146.836 20.576H145.684L148.372 14.32H150.244L146.74 22H145.716ZM154.231 22.16C153.538 22.16 152.908 21.984 152.343 21.632C151.788 21.28 151.346 20.8053 151.015 20.208C150.695 19.6 150.535 18.9227 150.535 18.176C150.535 17.4187 150.695 16.7413 151.015 16.144C151.346 15.536 151.788 15.056 152.343 14.704C152.908 14.3413 153.538 14.16 154.231 14.16C154.818 14.16 155.335 14.288 155.783 14.544C156.242 14.7893 156.604 15.1307 156.871 15.568C157.138 16.0053 157.271 16.5013 157.271 17.056V19.264C157.271 19.8187 157.138 20.3147 156.871 20.752C156.615 21.1893 156.258 21.536 155.799 21.792C155.34 22.0373 154.818 22.16 154.231 22.16ZM154.519 20.496C155.17 20.496 155.692 20.2773 156.087 19.84C156.492 19.4027 156.695 18.8427 156.695 18.16C156.695 17.7013 156.604 17.296 156.423 16.944C156.242 16.592 155.986 16.32 155.655 16.128C155.335 15.9253 154.956 15.824 154.519 15.824C154.092 15.824 153.714 15.9253 153.383 16.128C153.063 16.32 152.807 16.592 152.615 16.944C152.434 17.296 152.343 17.7013 152.343 18.16C152.343 18.6187 152.434 19.024 152.615 19.376C152.807 19.728 153.063 20.0053 153.383 20.208C153.714 20.4 154.092 20.496 154.519 20.496ZM156.583 22V19.936L156.887 18.064L156.583 16.208V14.32H158.343V22H156.583ZM160.296 22V10.48H162.056V22H160.296ZM167.167 22.16C166.516 22.16 165.935 22.016 165.423 21.728C164.922 21.44 164.527 21.0453 164.239 20.544C163.962 20.032 163.823 19.4453 163.823 18.784V14.32H165.583V18.704C165.583 19.0773 165.642 19.3973 165.759 19.664C165.887 19.92 166.068 20.1173 166.303 20.256C166.548 20.3947 166.836 20.464 167.167 20.464C167.679 20.464 168.068 20.3147 168.335 20.016C168.612 19.7067 168.751 19.2693 168.751 18.704V14.32H170.511V18.784C170.511 19.456 170.367 20.048 170.079 20.56C169.802 21.0613 169.412 21.456 168.911 21.744C168.41 22.0213 167.828 22.16 167.167 22.16ZM175.849 22.16C175.081 22.16 174.387 21.9893 173.769 21.648C173.161 21.296 172.675 20.816 172.313 20.208C171.961 19.6 171.785 18.9173 171.785 18.16C171.785 17.4027 171.961 16.7253 172.313 16.128C172.665 15.52 173.139 15.04 173.737 14.688C174.345 14.336 175.017 14.16 175.753 14.16C176.467 14.16 177.097 14.3253 177.641 14.656C178.195 14.9867 178.627 15.44 178.937 16.016C179.257 16.592 179.417 17.248 179.417 17.984C179.417 18.112 179.406 18.2453 179.385 18.384C179.374 18.512 179.353 18.656 179.321 18.816H173.017V17.376H178.409L177.753 17.952C177.731 17.4827 177.641 17.088 177.481 16.768C177.321 16.448 177.091 16.2027 176.793 16.032C176.505 15.8613 176.147 15.776 175.721 15.776C175.273 15.776 174.883 15.872 174.553 16.064C174.222 16.256 173.966 16.528 173.785 16.88C173.603 17.2213 173.513 17.632 173.513 18.112C173.513 18.592 173.609 19.0133 173.801 19.376C173.993 19.7387 174.265 20.0213 174.617 20.224C174.969 20.416 175.374 20.512 175.833 20.512C176.227 20.512 176.59 20.4427 176.921 20.304C177.262 20.1653 177.55 19.9627 177.785 19.696L178.905 20.832C178.531 21.2693 178.078 21.6 177.545 21.824C177.011 22.048 176.446 22.16 175.849 22.16Z" fill="#2A2C35"/>
<path d="M98 80C98 72.4575 98 68.6863 100.343 66.3431C102.686 64 106.458 64 114 64H176C183.542 64 187.314 64 189.657 66.3431C192 68.6863 192 72.4575 192 80V80C192 87.5425 192 91.3137 189.657 93.6569C187.314 96 183.542 96 176 96H114C106.458 96 102.686 96 100.343 93.6569C98 91.3137 98 87.5425 98 80V80Z" fill="#F1F2F4"/>
<path d="M98 80C98 72.4575 98 68.6863 100.343 66.3431C102.686 64 106.458 64 114 64H176C183.542 64 187.314 64 189.657 66.3431C192 68.6863 192 72.4575 192 80V80C192 87.5425 192 91.3137 189.657 93.6569C187.314 96 183.542 96 176 96H114C106.458 96 102.686 96 100.343 93.6569C98 91.3137 98 87.5425 98 80V80Z" fill="#BCBFC5" fill-opacity="0.2"/>
<path d="M132.781 77.0047C132.667 76.6553 132.453 76.3471 132.166 76.1184C131.878 75.8898 131.529 75.7507 131.163 75.7184L125.82 75.2563L123.729 70.2744C123.585 69.9356 123.345 69.6466 123.038 69.4435C122.731 69.2403 122.371 69.132 122.003 69.132C121.635 69.132 121.275 69.2403 120.968 69.4435C120.661 69.6466 120.421 69.9356 120.277 70.2744L118.184 75.2563L112.84 75.7184C112.472 75.7489 112.121 75.8874 111.831 76.1166C111.542 76.3457 111.326 76.6553 111.212 77.0065C111.097 77.3577 111.089 77.7348 111.189 78.0906C111.288 78.4463 111.49 78.7649 111.769 79.0063L115.831 82.55L114.612 87.8225C114.528 88.1815 114.552 88.5572 114.681 88.9026C114.81 89.248 115.038 89.5478 115.336 89.7645C115.634 89.9812 115.989 90.1052 116.358 90.1209C116.726 90.1367 117.091 90.0435 117.406 89.8531L122 87.0631L126.594 89.8531C126.91 90.0432 127.274 90.1361 127.642 90.1202C128.01 90.1043 128.366 89.9803 128.664 89.7637C128.962 89.547 129.189 89.2474 129.318 88.9021C129.447 88.5569 129.471 88.1814 129.388 87.8225L128.169 82.55L132.23 79.0063C132.509 78.764 132.71 78.4448 132.808 78.0887C132.906 77.7326 132.897 77.3555 132.781 77.0047ZM126.524 81.0003C126.267 81.224 126.075 81.5135 125.97 81.8378C125.865 82.162 125.851 82.5087 125.928 82.8406L126.996 87.4644L122.971 85.0194C122.678 84.8414 122.343 84.7472 122 84.7472C121.658 84.7472 121.322 84.8414 121.03 85.0194L117.004 87.4644L118.072 82.8406C118.149 82.5087 118.135 82.162 118.03 81.8378C117.925 81.5135 117.734 81.224 117.477 81.0003L113.906 77.885L118.606 77.4781C118.947 77.449 119.273 77.327 119.549 77.1255C119.825 76.924 120.04 76.6507 120.171 76.3353L122 71.9769L123.829 76.3353C123.961 76.6507 124.176 76.924 124.452 77.1255C124.728 77.327 125.054 77.449 125.394 77.4781L130.095 77.885L126.524 81.0003Z" fill="#2A2C35"/>
<path d="M145.716 86L142.212 78.32H144.164L146.836 84.576H145.684L148.372 78.32H150.244L146.74 86H145.716ZM154.231 86.16C153.538 86.16 152.908 85.984 152.343 85.632C151.788 85.28 151.346 84.8053 151.015 84.208C150.695 83.6 150.535 82.9227 150.535 82.176C150.535 81.4187 150.695 80.7413 151.015 80.144C151.346 79.536 151.788 79.056 152.343 78.704C152.908 78.3413 153.538 78.16 154.231 78.16C154.818 78.16 155.335 78.288 155.783 78.544C156.242 78.7893 156.604 79.1307 156.871 79.568C157.138 80.0053 157.271 80.5013 157.271 81.056V83.264C157.271 83.8187 157.138 84.3147 156.871 84.752C156.615 85.1893 156.258 85.536 155.799 85.792C155.34 86.0373 154.818 86.16 154.231 86.16ZM154.519 84.496C155.17 84.496 155.692 84.2773 156.087 83.84C156.492 83.4027 156.695 82.8427 156.695 82.16C156.695 81.7013 156.604 81.296 156.423 80.944C156.242 80.592 155.986 80.32 155.655 80.128C155.335 79.9253 154.956 79.824 154.519 79.824C154.092 79.824 153.714 79.9253 153.383 80.128C153.063 80.32 152.807 80.592 152.615 80.944C152.434 81.296 152.343 81.7013 152.343 82.16C152.343 82.6187 152.434 83.024 152.615 83.376C152.807 83.728 153.063 84.0053 153.383 84.208C153.714 84.4 154.092 84.496 154.519 84.496ZM156.583 86V83.936L156.887 82.064L156.583 80.208V78.32H158.343V86H156.583ZM160.296 86V74.48H162.056V86H160.296ZM167.167 86.16C166.516 86.16 165.935 86.016 165.423 85.728C164.922 85.44 164.527 85.0453 164.239 84.544C163.962 84.032 163.823 83.4453 163.823 82.784V78.32H165.583V82.704C165.583 83.0773 165.642 83.3973 165.759 83.664C165.887 83.92 166.068 84.1173 166.303 84.256C166.548 84.3947 166.836 84.464 167.167 84.464C167.679 84.464 168.068 84.3147 168.335 84.016C168.612 83.7067 168.751 83.2693 168.751 82.704V78.32H170.511V82.784C170.511 83.456 170.367 84.048 170.079 84.56C169.802 85.0613 169.412 85.456 168.911 85.744C168.41 86.0213 167.828 86.16 167.167 86.16ZM175.849 86.16C175.081 86.16 174.387 85.9893 173.769 85.648C173.161 85.296 172.675 84.816 172.313 84.208C171.961 83.6 171.785 82.9173 171.785 82.16C171.785 81.4027 171.961 80.7253 172.313 80.128C172.665 79.52 173.139 79.04 173.737 78.688C174.345 78.336 175.017 78.16 175.753 78.16C176.467 78.16 177.097 78.3253 177.641 78.656C178.195 78.9867 178.627 79.44 178.937 80.016C179.257 80.592 179.417 81.248 179.417 81.984C179.417 82.112 179.406 82.2453 179.385 82.384C179.374 82.512 179.353 82.656 179.321 82.816H173.017V81.376H178.409L177.753 81.952C177.731 81.4827 177.641 81.088 177.481 80.768C177.321 80.448 177.091 80.2027 176.793 80.032C176.505 79.8613 176.147 79.776 175.721 79.776C175.273 79.776 174.883 79.872 174.553 80.064C174.222 80.256 173.966 80.528 173.785 80.88C173.603 81.2213 173.513 81.632 173.513 82.112C173.513 82.592 173.609 83.0133 173.801 83.376C173.993 83.7387 174.265 84.0213 174.617 84.224C174.969 84.416 175.374 84.512 175.833 84.512C176.227 84.512 176.59 84.4427 176.921 84.304C177.262 84.1653 177.55 83.9627 177.785 83.696L178.905 84.832C178.531 85.2693 178.078 85.6 177.545 85.824C177.011 86.048 176.446 86.16 175.849 86.16Z" fill="#2A2C35"/>
<path d="M178 127L180.653 127.005C183.156 127.019 185.216 127.074 186.911 127.302C189.201 127.61 190.976 128.247 192.364 129.636C193.753 131.024 194.39 132.799 194.698 135.089C195.002 137.349 195 140.257 195 144C195 147.743 195.002 150.651 194.698 152.911C194.39 155.201 193.753 156.976 192.364 158.364C190.976 159.753 189.201 160.39 186.911 160.698C184.651 161.002 181.743 161 178 161H114C110.257 161 107.349 161.002 105.089 160.698C102.799 160.39 101.024 159.753 99.6357 158.364C98.2474 156.976 97.6096 155.201 97.3018 152.911C96.9979 150.651 97 147.743 97 144C97 140.257 96.9979 137.349 97.3018 135.089C97.6096 132.799 98.2474 131.024 99.6357 129.636C101.024 128.247 102.799 127.61 105.089 127.302C107.349 126.998 110.257 127 114 127H178Z" stroke="#4F46E5" stroke-width="2"/>
<path d="M99 144C99 136.458 99 132.686 101.343 130.343C103.686 128 107.458 128 115 128H177C184.542 128 188.314 128 190.657 130.343C193 132.686 193 136.458 193 144V144C193 151.542 193 155.314 190.657 157.657C188.314 160 184.542 160 177 160H115C107.458 160 103.686 160 101.343 157.657C99 155.314 99 151.542 99 144V144Z" fill="#F1F2F4"/>
<path d="M133.781 141.005C133.667 140.655 133.453 140.347 133.166 140.118C132.878 139.89 132.529 139.751 132.163 139.718L126.82 139.256L124.729 134.274C124.585 133.936 124.345 133.647 124.038 133.443C123.731 133.24 123.371 133.132 123.003 133.132C122.635 133.132 122.275 133.24 121.968 133.443C121.661 133.647 121.421 133.936 121.277 134.274L119.184 139.256L113.84 139.718C113.472 139.749 113.121 139.887 112.831 140.117C112.542 140.346 112.326 140.655 112.212 141.006C112.097 141.358 112.089 141.735 112.189 142.091C112.288 142.446 112.49 142.765 112.769 143.006L116.831 146.55L115.612 151.823C115.528 152.182 115.552 152.557 115.681 152.903C115.81 153.248 116.038 153.548 116.336 153.765C116.634 153.981 116.989 154.105 117.358 154.121C117.726 154.137 118.091 154.044 118.406 153.853L123 151.063L127.594 153.853C127.91 154.043 128.274 154.136 128.642 154.12C129.01 154.104 129.366 153.98 129.664 153.764C129.962 153.547 130.189 153.247 130.318 152.902C130.447 152.557 130.471 152.181 130.388 151.823L129.169 146.55L133.23 143.006C133.509 142.764 133.71 142.445 133.808 142.089C133.906 141.733 133.897 141.356 133.781 141.005ZM127.524 145C127.267 145.224 127.075 145.514 126.97 145.838C126.865 146.162 126.851 146.509 126.928 146.841L127.996 151.464L123.971 149.019C123.678 148.841 123.343 148.747 123 148.747C122.658 148.747 122.322 148.841 122.03 149.019L118.004 151.464L119.072 146.841C119.149 146.509 119.135 146.162 119.03 145.838C118.925 145.514 118.734 145.224 118.477 145L114.906 141.885L119.606 141.478C119.947 141.449 120.273 141.327 120.549 141.126C120.825 140.924 121.04 140.651 121.171 140.335L123 135.977L124.829 140.335C124.961 140.651 125.176 140.924 125.452 141.126C125.728 141.327 126.054 141.449 126.394 141.478L131.095 141.885L127.524 145Z" fill="#2A2C35"/>
<path d="M146.716 150L143.212 142.32H145.164L147.836 148.576H146.684L149.372 142.32H151.244L147.74 150H146.716ZM155.231 150.16C154.538 150.16 153.908 149.984 153.343 149.632C152.788 149.28 152.346 148.805 152.015 148.208C151.695 147.6 151.535 146.923 151.535 146.176C151.535 145.419 151.695 144.741 152.015 144.144C152.346 143.536 152.788 143.056 153.343 142.704C153.908 142.341 154.538 142.16 155.231 142.16C155.818 142.16 156.335 142.288 156.783 142.544C157.242 142.789 157.604 143.131 157.871 143.568C158.138 144.005 158.271 144.501 158.271 145.056V147.264C158.271 147.819 158.138 148.315 157.871 148.752C157.615 149.189 157.258 149.536 156.799 149.792C156.34 150.037 155.818 150.16 155.231 150.16ZM155.519 148.496C156.17 148.496 156.692 148.277 157.087 147.84C157.492 147.403 157.695 146.843 157.695 146.16C157.695 145.701 157.604 145.296 157.423 144.944C157.242 144.592 156.986 144.32 156.655 144.128C156.335 143.925 155.956 143.824 155.519 143.824C155.092 143.824 154.714 143.925 154.383 144.128C154.063 144.32 153.807 144.592 153.615 144.944C153.434 145.296 153.343 145.701 153.343 146.16C153.343 146.619 153.434 147.024 153.615 147.376C153.807 147.728 154.063 148.005 154.383 148.208C154.714 148.4 155.092 148.496 155.519 148.496ZM157.583 150V147.936L157.887 146.064L157.583 144.208V142.32H159.343V150H157.583ZM161.296 150V138.48H163.056V150H161.296ZM168.167 150.16C167.516 150.16 166.935 150.016 166.423 149.728C165.922 149.44 165.527 149.045 165.239 148.544C164.962 148.032 164.823 147.445 164.823 146.784V142.32H166.583V146.704C166.583 147.077 166.642 147.397 166.759 147.664C166.887 147.92 167.068 148.117 167.303 148.256C167.548 148.395 167.836 148.464 168.167 148.464C168.679 148.464 169.068 148.315 169.335 148.016C169.612 147.707 169.751 147.269 169.751 146.704V142.32H171.511V146.784C171.511 147.456 171.367 148.048 171.079 148.56C170.802 149.061 170.412 149.456 169.911 149.744C169.41 150.021 168.828 150.16 168.167 150.16ZM176.849 150.16C176.081 150.16 175.387 149.989 174.769 149.648C174.161 149.296 173.675 148.816 173.313 148.208C172.961 147.6 172.785 146.917 172.785 146.16C172.785 145.403 172.961 144.725 173.313 144.128C173.665 143.52 174.139 143.04 174.737 142.688C175.345 142.336 176.017 142.16 176.753 142.16C177.467 142.16 178.097 142.325 178.641 142.656C179.195 142.987 179.627 143.44 179.937 144.016C180.257 144.592 180.417 145.248 180.417 145.984C180.417 146.112 180.406 146.245 180.385 146.384C180.374 146.512 180.353 146.656 180.321 146.816H174.017V145.376H179.409L178.753 145.952C178.731 145.483 178.641 145.088 178.481 144.768C178.321 144.448 178.091 144.203 177.793 144.032C177.505 143.861 177.147 143.776 176.721 143.776C176.273 143.776 175.883 143.872 175.553 144.064C175.222 144.256 174.966 144.528 174.785 144.88C174.603 145.221 174.513 145.632 174.513 146.112C174.513 146.592 174.609 147.013 174.801 147.376C174.993 147.739 175.265 148.021 175.617 148.224C175.969 148.416 176.374 148.512 176.833 148.512C177.227 148.512 177.59 148.443 177.921 148.304C178.262 148.165 178.55 147.963 178.785 147.696L179.905 148.832C179.531 149.269 179.078 149.6 178.545 149.824C178.011 150.048 177.446 150.16 176.849 150.16Z" fill="#2A2C35"/>
<path d="M98 208C98 200.458 98 196.686 100.343 194.343C102.686 192 106.458 192 114 192H176C183.542 192 187.314 192 189.657 194.343C192 196.686 192 200.458 192 208V208C192 215.542 192 219.314 189.657 221.657C187.314 224 183.542 224 176 224H114C106.458 224 102.686 224 100.343 221.657C98 219.314 98 215.542 98 208V208Z" fill="#4F46E5"/>
<path d="M132.781 205.005C132.667 204.655 132.453 204.347 132.166 204.118C131.878 203.89 131.529 203.751 131.163 203.718L125.82 203.256L123.729 198.274C123.585 197.936 123.345 197.647 123.038 197.443C122.731 197.24 122.371 197.132 122.003 197.132C121.635 197.132 121.275 197.24 120.968 197.443C120.661 197.647 120.421 197.936 120.277 198.274L118.184 203.256L112.84 203.718C112.472 203.749 112.121 203.887 111.831 204.117C111.542 204.346 111.326 204.655 111.212 205.006C111.097 205.358 111.089 205.735 111.189 206.091C111.288 206.446 111.49 206.765 111.769 207.006L115.831 210.55L114.612 215.823C114.528 216.182 114.552 216.557 114.681 216.903C114.81 217.248 115.038 217.548 115.336 217.765C115.634 217.981 115.989 218.105 116.358 218.121C116.726 218.137 117.091 218.044 117.406 217.853L122 215.063L126.594 217.853C126.91 218.043 127.274 218.136 127.642 218.12C128.01 218.104 128.366 217.98 128.664 217.764C128.962 217.547 129.189 217.247 129.318 216.902C129.447 216.557 129.471 216.181 129.388 215.823L128.169 210.55L132.23 207.006C132.509 206.764 132.71 206.445 132.808 206.089C132.906 205.733 132.897 205.356 132.781 205.005ZM126.524 209C126.267 209.224 126.075 209.514 125.97 209.838C125.865 210.162 125.851 210.509 125.928 210.841L126.996 215.464L122.971 213.019C122.678 212.841 122.343 212.747 122 212.747C121.658 212.747 121.322 212.841 121.03 213.019L117.004 215.464L118.072 210.841C118.149 210.509 118.135 210.162 118.03 209.838C117.925 209.514 117.734 209.224 117.477 209L113.906 205.885L118.606 205.478C118.947 205.449 119.273 205.327 119.549 205.126C119.825 204.924 120.04 204.651 120.171 204.335L122 199.977L123.829 204.335C123.961 204.651 124.176 204.924 124.452 205.126C124.728 205.327 125.054 205.449 125.394 205.478L130.095 205.885L126.524 209Z" fill="white"/>
<path d="M145.716 214L142.212 206.32H144.164L146.836 212.576H145.684L148.372 206.32H150.244L146.74 214H145.716ZM154.231 214.16C153.538 214.16 152.908 213.984 152.343 213.632C151.788 213.28 151.346 212.805 151.015 212.208C150.695 211.6 150.535 210.923 150.535 210.176C150.535 209.419 150.695 208.741 151.015 208.144C151.346 207.536 151.788 207.056 152.343 206.704C152.908 206.341 153.538 206.16 154.231 206.16C154.818 206.16 155.335 206.288 155.783 206.544C156.242 206.789 156.604 207.131 156.871 207.568C157.138 208.005 157.271 208.501 157.271 209.056V211.264C157.271 211.819 157.138 212.315 156.871 212.752C156.615 213.189 156.258 213.536 155.799 213.792C155.34 214.037 154.818 214.16 154.231 214.16ZM154.519 212.496C155.17 212.496 155.692 212.277 156.087 211.84C156.492 211.403 156.695 210.843 156.695 210.16C156.695 209.701 156.604 209.296 156.423 208.944C156.242 208.592 155.986 208.32 155.655 208.128C155.335 207.925 154.956 207.824 154.519 207.824C154.092 207.824 153.714 207.925 153.383 208.128C153.063 208.32 152.807 208.592 152.615 208.944C152.434 209.296 152.343 209.701 152.343 210.16C152.343 210.619 152.434 211.024 152.615 211.376C152.807 211.728 153.063 212.005 153.383 212.208C153.714 212.4 154.092 212.496 154.519 212.496ZM156.583 214V211.936L156.887 210.064L156.583 208.208V206.32H158.343V214H156.583ZM160.296 214V202.48H162.056V214H160.296ZM167.167 214.16C166.516 214.16 165.935 214.016 165.423 213.728C164.922 213.44 164.527 213.045 164.239 212.544C163.962 212.032 163.823 211.445 163.823 210.784V206.32H165.583V210.704C165.583 211.077 165.642 211.397 165.759 211.664C165.887 211.92 166.068 212.117 166.303 212.256C166.548 212.395 166.836 212.464 167.167 212.464C167.679 212.464 168.068 212.315 168.335 212.016C168.612 211.707 168.751 211.269 168.751 210.704V206.32H170.511V210.784C170.511 211.456 170.367 212.048 170.079 212.56C169.802 213.061 169.412 213.456 168.911 213.744C168.41 214.021 167.828 214.16 167.167 214.16ZM175.849 214.16C175.081 214.16 174.387 213.989 173.769 213.648C173.161 213.296 172.675 212.816 172.313 212.208C171.961 211.6 171.785 210.917 171.785 210.16C171.785 209.403 171.961 208.725 172.313 208.128C172.665 207.52 173.139 207.04 173.737 206.688C174.345 206.336 175.017 206.16 175.753 206.16C176.467 206.16 177.097 206.325 177.641 206.656C178.195 206.987 178.627 207.44 178.937 208.016C179.257 208.592 179.417 209.248 179.417 209.984C179.417 210.112 179.406 210.245 179.385 210.384C179.374 210.512 179.353 210.656 179.321 210.816H173.017V209.376H178.409L177.753 209.952C177.731 209.483 177.641 209.088 177.481 208.768C177.321 208.448 177.091 208.203 176.793 208.032C176.505 207.861 176.147 207.776 175.721 207.776C175.273 207.776 174.883 207.872 174.553 208.064C174.222 208.256 173.966 208.528 173.785 208.88C173.603 209.221 173.513 209.632 173.513 210.112C173.513 210.592 173.609 211.013 173.801 211.376C173.993 211.739 174.265 212.021 174.617 212.224C174.969 212.416 175.374 212.512 175.833 212.512C176.227 212.512 176.59 212.443 176.921 212.304C177.262 212.165 177.55 211.963 177.785 211.696L178.905 212.832C178.531 213.269 178.078 213.6 177.545 213.824C177.011 214.048 176.446 214.16 175.849 214.16Z" fill="#F6F6F8"/>
<g opacity="0.6">
<path d="M98 272C98 264.458 98 260.686 100.343 258.343C102.686 256 106.458 256 114 256H176C183.542 256 187.314 256 189.657 258.343C192 260.686 192 264.458 192 272V272C192 279.542 192 283.314 189.657 285.657C187.314 288 183.542 288 176 288H114C106.458 288 102.686 288 100.343 285.657C98 283.314 98 279.542 98 272V272Z" fill="#F1F2F4"/>
<path d="M132.781 269.005C132.667 268.655 132.453 268.347 132.166 268.118C131.878 267.89 131.529 267.751 131.163 267.718L125.82 267.256L123.729 262.274C123.585 261.936 123.345 261.647 123.038 261.443C122.731 261.24 122.371 261.132 122.003 261.132C121.635 261.132 121.275 261.24 120.968 261.443C120.661 261.647 120.421 261.936 120.277 262.274L118.184 267.256L112.84 267.718C112.472 267.749 112.121 267.887 111.831 268.117C111.542 268.346 111.326 268.655 111.212 269.006C111.097 269.358 111.089 269.735 111.189 270.091C111.288 270.446 111.49 270.765 111.769 271.006L115.831 274.55L114.612 279.823C114.528 280.182 114.552 280.557 114.681 280.903C114.81 281.248 115.038 281.548 115.336 281.765C115.634 281.981 115.989 282.105 116.358 282.121C116.726 282.137 117.091 282.044 117.406 281.853L122 279.063L126.594 281.853C126.91 282.043 127.274 282.136 127.642 282.12C128.01 282.104 128.366 281.98 128.664 281.764C128.962 281.547 129.189 281.247 129.318 280.902C129.447 280.557 129.471 280.181 129.388 279.823L128.169 274.55L132.23 271.006C132.509 270.764 132.71 270.445 132.808 270.089C132.906 269.733 132.897 269.356 132.781 269.005ZM126.524 273C126.267 273.224 126.075 273.514 125.97 273.838C125.865 274.162 125.851 274.509 125.928 274.841L126.996 279.464L122.971 277.019C122.678 276.841 122.343 276.747 122 276.747C121.658 276.747 121.322 276.841 121.03 277.019L117.004 279.464L118.072 274.841C118.149 274.509 118.135 274.162 118.03 273.838C117.925 273.514 117.734 273.224 117.477 273L113.906 269.885L118.606 269.478C118.947 269.449 119.273 269.327 119.549 269.126C119.825 268.924 120.04 268.651 120.171 268.335L122 263.977L123.829 268.335C123.961 268.651 124.176 268.924 124.452 269.126C124.728 269.327 125.054 269.449 125.394 269.478L130.095 269.885L126.524 273Z" fill="#2A2C35"/>
<path d="M145.716 278L142.212 270.32H144.164L146.836 276.576H145.684L148.372 270.32H150.244L146.74 278H145.716ZM154.231 278.16C153.538 278.16 152.908 277.984 152.343 277.632C151.788 277.28 151.346 276.805 151.015 276.208C150.695 275.6 150.535 274.923 150.535 274.176C150.535 273.419 150.695 272.741 151.015 272.144C151.346 271.536 151.788 271.056 152.343 270.704C152.908 270.341 153.538 270.16 154.231 270.16C154.818 270.16 155.335 270.288 155.783 270.544C156.242 270.789 156.604 271.131 156.871 271.568C157.138 272.005 157.271 272.501 157.271 273.056V275.264C157.271 275.819 157.138 276.315 156.871 276.752C156.615 277.189 156.258 277.536 155.799 277.792C155.34 278.037 154.818 278.16 154.231 278.16ZM154.519 276.496C155.17 276.496 155.692 276.277 156.087 275.84C156.492 275.403 156.695 274.843 156.695 274.16C156.695 273.701 156.604 273.296 156.423 272.944C156.242 272.592 155.986 272.32 155.655 272.128C155.335 271.925 154.956 271.824 154.519 271.824C154.092 271.824 153.714 271.925 153.383 272.128C153.063 272.32 152.807 272.592 152.615 272.944C152.434 273.296 152.343 273.701 152.343 274.16C152.343 274.619 152.434 275.024 152.615 275.376C152.807 275.728 153.063 276.005 153.383 276.208C153.714 276.4 154.092 276.496 154.519 276.496ZM156.583 278V275.936L156.887 274.064L156.583 272.208V270.32H158.343V278H156.583ZM160.296 278V266.48H162.056V278H160.296ZM167.167 278.16C166.516 278.16 165.935 278.016 165.423 277.728C164.922 277.44 164.527 277.045 164.239 276.544C163.962 276.032 163.823 275.445 163.823 274.784V270.32H165.583V274.704C165.583 275.077 165.642 275.397 165.759 275.664C165.887 275.92 166.068 276.117 166.303 276.256C166.548 276.395 166.836 276.464 167.167 276.464C167.679 276.464 168.068 276.315 168.335 276.016C168.612 275.707 168.751 275.269 168.751 274.704V270.32H170.511V274.784C170.511 275.456 170.367 276.048 170.079 276.56C169.802 277.061 169.412 277.456 168.911 277.744C168.41 278.021 167.828 278.16 167.167 278.16ZM175.849 278.16C175.081 278.16 174.387 277.989 173.769 277.648C173.161 277.296 172.675 276.816 172.313 276.208C171.961 275.6 171.785 274.917 171.785 274.16C171.785 273.403 171.961 272.725 172.313 272.128C172.665 271.52 173.139 271.04 173.737 270.688C174.345 270.336 175.017 270.16 175.753 270.16C176.467 270.16 177.097 270.325 177.641 270.656C178.195 270.987 178.627 271.44 178.937 272.016C179.257 272.592 179.417 273.248 179.417 273.984C179.417 274.112 179.406 274.245 179.385 274.384C179.374 274.512 179.353 274.656 179.321 274.816H173.017V273.376H178.409L177.753 273.952C177.731 273.483 177.641 273.088 177.481 272.768C177.321 272.448 177.091 272.203 176.793 272.032C176.505 271.861 176.147 271.776 175.721 271.776C175.273 271.776 174.883 271.872 174.553 272.064C174.222 272.256 173.966 272.528 173.785 272.88C173.603 273.221 173.513 273.632 173.513 274.112C173.513 274.592 173.609 275.013 173.801 275.376C173.993 275.739 174.265 276.021 174.617 276.224C174.969 276.416 175.374 276.512 175.833 276.512C176.227 276.512 176.59 276.443 176.921 276.304C177.262 276.165 177.55 275.963 177.785 275.696L178.905 276.832C178.531 277.269 178.078 277.6 177.545 277.824C177.011 278.048 176.446 278.16 175.849 278.16Z" fill="#2A2C35"/>
</g>
<path d="M226 16C226 8.45753 226 4.68629 228.343 2.34315C230.686 0 234.458 0 242 0H312C319.542 0 323.314 0 325.657 2.34315C328 4.68629 328 8.45753 328 16V16C328 23.5425 328 27.3137 325.657 29.6569C323.314 32 319.542 32 312 32H242C234.458 32 230.686 32 228.343 29.6569C226 27.3137 226 23.5425 226 16V16Z" fill="#F1F2F4"/>
<path d="M241.716 22L238.212 14.32H240.164L242.836 20.576H241.684L244.372 14.32H246.244L242.74 22H241.716ZM250.231 22.16C249.538 22.16 248.908 21.984 248.343 21.632C247.788 21.28 247.346 20.8053 247.015 20.208C246.695 19.6 246.535 18.9227 246.535 18.176C246.535 17.4187 246.695 16.7413 247.015 16.144C247.346 15.536 247.788 15.056 248.343 14.704C248.908 14.3413 249.538 14.16 250.231 14.16C250.818 14.16 251.335 14.288 251.783 14.544C252.242 14.7893 252.604 15.1307 252.871 15.568C253.138 16.0053 253.271 16.5013 253.271 17.056V19.264C253.271 19.8187 253.138 20.3147 252.871 20.752C252.615 21.1893 252.258 21.536 251.799 21.792C251.34 22.0373 250.818 22.16 250.231 22.16ZM250.519 20.496C251.17 20.496 251.692 20.2773 252.087 19.84C252.492 19.4027 252.695 18.8427 252.695 18.16C252.695 17.7013 252.604 17.296 252.423 16.944C252.242 16.592 251.986 16.32 251.655 16.128C251.335 15.9253 250.956 15.824 250.519 15.824C250.092 15.824 249.714 15.9253 249.383 16.128C249.063 16.32 248.807 16.592 248.615 16.944C248.434 17.296 248.343 17.7013 248.343 18.16C248.343 18.6187 248.434 19.024 248.615 19.376C248.807 19.728 249.063 20.0053 249.383 20.208C249.714 20.4 250.092 20.496 250.519 20.496ZM252.583 22V19.936L252.887 18.064L252.583 16.208V14.32H254.343V22H252.583ZM256.296 22V10.48H258.056V22H256.296ZM263.167 22.16C262.516 22.16 261.935 22.016 261.423 21.728C260.922 21.44 260.527 21.0453 260.239 20.544C259.962 20.032 259.823 19.4453 259.823 18.784V14.32H261.583V18.704C261.583 19.0773 261.642 19.3973 261.759 19.664C261.887 19.92 262.068 20.1173 262.303 20.256C262.548 20.3947 262.836 20.464 263.167 20.464C263.679 20.464 264.068 20.3147 264.335 20.016C264.612 19.7067 264.751 19.2693 264.751 18.704V14.32H266.511V18.784C266.511 19.456 266.367 20.048 266.079 20.56C265.802 21.0613 265.412 21.456 264.911 21.744C264.41 22.0213 263.828 22.16 263.167 22.16ZM271.849 22.16C271.081 22.16 270.387 21.9893 269.769 21.648C269.161 21.296 268.675 20.816 268.313 20.208C267.961 19.6 267.785 18.9173 267.785 18.16C267.785 17.4027 267.961 16.7253 268.313 16.128C268.665 15.52 269.139 15.04 269.737 14.688C270.345 14.336 271.017 14.16 271.753 14.16C272.467 14.16 273.097 14.3253 273.641 14.656C274.195 14.9867 274.627 15.44 274.937 16.016C275.257 16.592 275.417 17.248 275.417 17.984C275.417 18.112 275.406 18.2453 275.385 18.384C275.374 18.512 275.353 18.656 275.321 18.816H269.017V17.376H274.409L273.753 17.952C273.731 17.4827 273.641 17.088 273.481 16.768C273.321 16.448 273.091 16.2027 272.793 16.032C272.505 15.8613 272.147 15.776 271.721 15.776C271.273 15.776 270.883 15.872 270.553 16.064C270.222 16.256 269.966 16.528 269.785 16.88C269.603 17.2213 269.513 17.632 269.513 18.112C269.513 18.592 269.609 19.0133 269.801 19.376C269.993 19.7387 270.265 20.0213 270.617 20.224C270.969 20.416 271.374 20.512 271.833 20.512C272.227 20.512 272.59 20.4427 272.921 20.304C273.262 20.1653 273.55 19.9627 273.785 19.696L274.905 20.832C274.531 21.2693 274.078 21.6 273.545 21.824C273.011 22.048 272.446 22.16 271.849 22.16Z" fill="#2A2C35"/>
<path d="M303.796 13.7959L301.594 16L303.799 18.2041C304.01 18.4154 304.129 18.7021 304.129 19.0009C304.129 19.2998 304.01 19.5865 303.799 19.7978C303.587 20.0092 303.301 20.1279 303.002 20.1279C302.703 20.1279 302.416 20.0092 302.205 19.7978L300 17.5938L297.796 19.7988C297.585 20.0101 297.298 20.1288 296.999 20.1288C296.7 20.1288 296.414 20.0101 296.202 19.7988C295.991 19.5874 295.872 19.3008 295.872 19.0019C295.872 18.703 295.991 18.4163 296.202 18.205L298.406 16L296.204 13.7959C296.099 13.6913 296.016 13.5671 295.96 13.4303C295.903 13.2936 295.874 13.1471 295.874 12.9991C295.874 12.7002 295.993 12.4135 296.204 12.2022C296.415 11.9908 296.702 11.8721 297.001 11.8721C297.3 11.8721 297.586 11.9908 297.798 12.2022L300 14.4062L302.204 12.2013C302.415 11.9899 302.702 11.8712 303.001 11.8712C303.3 11.8712 303.586 11.9899 303.798 12.2013C304.009 12.4126 304.128 12.6992 304.128 12.9981C304.128 13.297 304.009 13.5837 303.798 13.795L303.796 13.7959ZM310.125 16C310.125 18.0025 309.531 19.9601 308.419 21.6251C307.306 23.2902 305.725 24.5879 303.875 25.3543C302.025 26.1206 299.989 26.3211 298.025 25.9305C296.061 25.5398 294.257 24.5755 292.841 23.1595C291.425 21.7435 290.46 19.9393 290.07 17.9753C289.679 16.0112 289.879 13.9754 290.646 12.1253C291.412 10.2752 292.71 8.69392 294.375 7.58137C296.04 6.46882 297.997 5.875 300 5.875C302.684 5.87798 305.258 6.94567 307.156 8.84383C309.054 10.742 310.122 13.3156 310.125 16ZM307.875 16C307.875 14.4425 307.413 12.9199 306.548 11.6249C305.683 10.3298 304.453 9.32049 303.014 8.72445C301.575 8.12841 299.991 7.97246 298.464 8.27632C296.936 8.58017 295.533 9.3302 294.432 10.4315C293.33 11.5329 292.58 12.9361 292.276 14.4637C291.972 15.9913 292.128 17.5747 292.724 19.0136C293.32 20.4526 294.33 21.6825 295.625 22.5478C296.92 23.4131 298.442 23.875 300 23.875C302.088 23.8728 304.09 23.0424 305.566 21.566C307.042 20.0896 307.873 18.0879 307.875 16Z" fill="#2A2C35"/>
<path d="M226 80C226 72.4575 226 68.6863 228.343 66.3431C230.686 64 234.458 64 242 64H308C315.542 64 319.314 64 321.657 66.3431C324 68.6863 324 72.4575 324 80V80C324 87.5425 324 91.3137 321.657 93.6569C319.314 96 315.542 96 308 96H242C234.458 96 230.686 96 228.343 93.6569C226 91.3137 226 87.5425 226 80V80Z" fill="#F1F2F4"/>
<path d="M226 80C226 72.4575 226 68.6863 228.343 66.3431C230.686 64 234.458 64 242 64H308C315.542 64 319.314 64 321.657 66.3431C324 68.6863 324 72.4575 324 80V80C324 87.5425 324 91.3137 321.657 93.6569C319.314 96 315.542 96 308 96H242C234.458 96 230.686 96 228.343 93.6569C226 91.3137 226 87.5425 226 80V80Z" fill="#BCBFC5" fill-opacity="0.2"/>
<path d="M241.716 86L238.212 78.32H240.164L242.836 84.576H241.684L244.372 78.32H246.244L242.74 86H241.716ZM250.231 86.16C249.538 86.16 248.908 85.984 248.343 85.632C247.788 85.28 247.346 84.8053 247.015 84.208C246.695 83.6 246.535 82.9227 246.535 82.176C246.535 81.4187 246.695 80.7413 247.015 80.144C247.346 79.536 247.788 79.056 248.343 78.704C248.908 78.3413 249.538 78.16 250.231 78.16C250.818 78.16 251.335 78.288 251.783 78.544C252.242 78.7893 252.604 79.1307 252.871 79.568C253.138 80.0053 253.271 80.5013 253.271 81.056V83.264C253.271 83.8187 253.138 84.3147 252.871 84.752C252.615 85.1893 252.258 85.536 251.799 85.792C251.34 86.0373 250.818 86.16 250.231 86.16ZM250.519 84.496C251.17 84.496 251.692 84.2773 252.087 83.84C252.492 83.4027 252.695 82.8427 252.695 82.16C252.695 81.7013 252.604 81.296 252.423 80.944C252.242 80.592 251.986 80.32 251.655 80.128C251.335 79.9253 250.956 79.824 250.519 79.824C250.092 79.824 249.714 79.9253 249.383 80.128C249.063 80.32 248.807 80.592 248.615 80.944C248.434 81.296 248.343 81.7013 248.343 82.16C248.343 82.6187 248.434 83.024 248.615 83.376C248.807 83.728 249.063 84.0053 249.383 84.208C249.714 84.4 250.092 84.496 250.519 84.496ZM252.583 86V83.936L252.887 82.064L252.583 80.208V78.32H254.343V86H252.583ZM256.296 86V74.48H258.056V86H256.296ZM263.167 86.16C262.516 86.16 261.935 86.016 261.423 85.728C260.922 85.44 260.527 85.0453 260.239 84.544C259.962 84.032 259.823 83.4453 259.823 82.784V78.32H261.583V82.704C261.583 83.0773 261.642 83.3973 261.759 83.664C261.887 83.92 262.068 84.1173 262.303 84.256C262.548 84.3947 262.836 84.464 263.167 84.464C263.679 84.464 264.068 84.3147 264.335 84.016C264.612 83.7067 264.751 83.2693 264.751 82.704V78.32H266.511V82.784C266.511 83.456 266.367 84.048 266.079 84.56C265.802 85.0613 265.412 85.456 264.911 85.744C264.41 86.0213 263.828 86.16 263.167 86.16ZM271.849 86.16C271.081 86.16 270.387 85.9893 269.769 85.648C269.161 85.296 268.675 84.816 268.313 84.208C267.961 83.6 267.785 82.9173 267.785 82.16C267.785 81.4027 267.961 80.7253 268.313 80.128C268.665 79.52 269.139 79.04 269.737 78.688C270.345 78.336 271.017 78.16 271.753 78.16C272.467 78.16 273.097 78.3253 273.641 78.656C274.195 78.9867 274.627 79.44 274.937 80.016C275.257 80.592 275.417 81.248 275.417 81.984C275.417 82.112 275.406 82.2453 275.385 82.384C275.374 82.512 275.353 82.656 275.321 82.816H269.017V81.376H274.409L273.753 81.952C273.731 81.4827 273.641 81.088 273.481 80.768C273.321 80.448 273.091 80.2027 272.793 80.032C272.505 79.8613 272.147 79.776 271.721 79.776C271.273 79.776 270.883 79.872 270.553 80.064C270.222 80.256 269.966 80.528 269.785 80.88C269.603 81.2213 269.513 81.632 269.513 82.112C269.513 82.592 269.609 83.0133 269.801 83.376C269.993 83.7387 270.265 84.0213 270.617 84.224C270.969 84.416 271.374 84.512 271.833 84.512C272.227 84.512 272.59 84.4427 272.921 84.304C273.262 84.1653 273.55 83.9627 273.785 83.696L274.905 84.832C274.531 85.2693 274.078 85.6 273.545 85.824C273.011 86.048 272.446 86.16 271.849 86.16Z" fill="#2A2C35"/>
<path d="M303.796 77.7959L301.594 80L303.799 82.2041C304.01 82.4154 304.129 82.7021 304.129 83.0009C304.129 83.2998 304.01 83.5865 303.799 83.7978C303.587 84.0092 303.301 84.1279 303.002 84.1279C302.703 84.1279 302.416 84.0092 302.205 83.7978L300 81.5938L297.796 83.7988C297.585 84.0101 297.298 84.1288 296.999 84.1288C296.7 84.1288 296.414 84.0101 296.202 83.7988C295.991 83.5874 295.872 83.3008 295.872 83.0019C295.872 82.703 295.991 82.4163 296.202 82.205L298.406 80L296.204 77.7959C296.099 77.6913 296.016 77.5671 295.96 77.4303C295.903 77.2936 295.874 77.1471 295.874 76.9991C295.874 76.7002 295.993 76.4135 296.204 76.2022C296.415 75.9908 296.702 75.8721 297.001 75.8721C297.3 75.8721 297.586 75.9908 297.798 76.2022L300 78.4062L302.204 76.2013C302.415 75.9899 302.702 75.8712 303.001 75.8712C303.3 75.8712 303.586 75.9899 303.798 76.2013C304.009 76.4126 304.128 76.6992 304.128 76.9981C304.128 77.297 304.009 77.5837 303.798 77.795L303.796 77.7959ZM310.125 80C310.125 82.0025 309.531 83.9601 308.419 85.6251C307.306 87.2902 305.725 88.5879 303.875 89.3543C302.025 90.1206 299.989 90.3211 298.025 89.9305C296.061 89.5398 294.257 88.5755 292.841 87.1595C291.425 85.7435 290.46 83.9393 290.07 81.9753C289.679 80.0112 289.879 77.9754 290.646 76.1253C291.412 74.2752 292.71 72.6939 294.375 71.5814C296.04 70.4688 297.997 69.875 300 69.875C302.684 69.878 305.258 70.9457 307.156 72.8438C309.054 74.742 310.122 77.3156 310.125 80ZM307.875 80C307.875 78.4425 307.413 76.9199 306.548 75.6249C305.683 74.3298 304.453 73.3205 303.014 72.7244C301.575 72.1284 299.991 71.9725 298.464 72.2763C296.936 72.5802 295.533 73.3302 294.432 74.4315C293.33 75.5329 292.58 76.9361 292.276 78.4637C291.972 79.9913 292.128 81.5747 292.724 83.0136C293.32 84.4526 294.33 85.6825 295.625 86.5478C296.92 87.4131 298.442 87.875 300 87.875C302.088 87.8728 304.09 87.0424 305.566 85.566C307.042 84.0896 307.873 82.0879 307.875 80Z" fill="#2A2C35"/>
<path d="M306 127L308.653 127.005C311.156 127.019 313.216 127.074 314.911 127.302C317.201 127.61 318.976 128.247 320.364 129.636C321.753 131.024 322.39 132.799 322.698 135.089C323.002 137.349 323 140.257 323 144C323 147.743 323.002 150.651 322.698 152.911C322.39 155.201 321.753 156.976 320.364 158.364C318.976 159.753 317.201 160.39 314.911 160.698C312.651 161.002 309.743 161 306 161H242C238.257 161 235.349 161.002 233.089 160.698C230.799 160.39 229.024 159.753 227.636 158.364C226.247 156.976 225.61 155.201 225.302 152.911C224.998 150.651 225 147.743 225 144C225 140.257 224.998 137.349 225.302 135.089C225.61 132.799 226.247 131.024 227.636 129.636C229.024 128.247 230.799 127.61 233.089 127.302C235.349 126.998 238.257 127 242 127H306Z" stroke="#4F46E5" stroke-width="2"/>
<path d="M227 144C227 136.458 227 132.686 229.343 130.343C231.686 128 235.458 128 243 128H305C312.542 128 316.314 128 318.657 130.343C321 132.686 321 136.458 321 144V144C321 151.542 321 155.314 318.657 157.657C316.314 160 312.542 160 305 160H243C235.458 160 231.686 160 229.343 157.657C227 155.314 227 151.542 227 144V144Z" fill="#F1F2F4"/>
<path d="M242.716 150L239.212 142.32H241.164L243.836 148.576H242.684L245.372 142.32H247.244L243.74 150H242.716ZM251.231 150.16C250.538 150.16 249.908 149.984 249.343 149.632C248.788 149.28 248.346 148.805 248.015 148.208C247.695 147.6 247.535 146.923 247.535 146.176C247.535 145.419 247.695 144.741 248.015 144.144C248.346 143.536 248.788 143.056 249.343 142.704C249.908 142.341 250.538 142.16 251.231 142.16C251.818 142.16 252.335 142.288 252.783 142.544C253.242 142.789 253.604 143.131 253.871 143.568C254.138 144.005 254.271 144.501 254.271 145.056V147.264C254.271 147.819 254.138 148.315 253.871 148.752C253.615 149.189 253.258 149.536 252.799 149.792C252.34 150.037 251.818 150.16 251.231 150.16ZM251.519 148.496C252.17 148.496 252.692 148.277 253.087 147.84C253.492 147.403 253.695 146.843 253.695 146.16C253.695 145.701 253.604 145.296 253.423 144.944C253.242 144.592 252.986 144.32 252.655 144.128C252.335 143.925 251.956 143.824 251.519 143.824C251.092 143.824 250.714 143.925 250.383 144.128C250.063 144.32 249.807 144.592 249.615 144.944C249.434 145.296 249.343 145.701 249.343 146.16C249.343 146.619 249.434 147.024 249.615 147.376C249.807 147.728 250.063 148.005 250.383 148.208C250.714 148.4 251.092 148.496 251.519 148.496ZM253.583 150V147.936L253.887 146.064L253.583 144.208V142.32H255.343V150H253.583ZM257.296 150V138.48H259.056V150H257.296ZM264.167 150.16C263.516 150.16 262.935 150.016 262.423 149.728C261.922 149.44 261.527 149.045 261.239 148.544C260.962 148.032 260.823 147.445 260.823 146.784V142.32H262.583V146.704C262.583 147.077 262.642 147.397 262.759 147.664C262.887 147.92 263.068 148.117 263.303 148.256C263.548 148.395 263.836 148.464 264.167 148.464C264.679 148.464 265.068 148.315 265.335 148.016C265.612 147.707 265.751 147.269 265.751 146.704V142.32H267.511V146.784C267.511 147.456 267.367 148.048 267.079 148.56C266.802 149.061 266.412 149.456 265.911 149.744C265.41 150.021 264.828 150.16 264.167 150.16ZM272.849 150.16C272.081 150.16 271.387 149.989 270.769 149.648C270.161 149.296 269.675 148.816 269.313 148.208C268.961 147.6 268.785 146.917 268.785 146.16C268.785 145.403 268.961 144.725 269.313 144.128C269.665 143.52 270.139 143.04 270.737 142.688C271.345 142.336 272.017 142.16 272.753 142.16C273.467 142.16 274.097 142.325 274.641 142.656C275.195 142.987 275.627 143.44 275.937 144.016C276.257 144.592 276.417 145.248 276.417 145.984C276.417 146.112 276.406 146.245 276.385 146.384C276.374 146.512 276.353 146.656 276.321 146.816H270.017V145.376H275.409L274.753 145.952C274.731 145.483 274.641 145.088 274.481 144.768C274.321 144.448 274.091 144.203 273.793 144.032C273.505 143.861 273.147 143.776 272.721 143.776C272.273 143.776 271.883 143.872 271.553 144.064C271.222 144.256 270.966 144.528 270.785 144.88C270.603 145.221 270.513 145.632 270.513 146.112C270.513 146.592 270.609 147.013 270.801 147.376C270.993 147.739 271.265 148.021 271.617 148.224C271.969 148.416 272.374 148.512 272.833 148.512C273.227 148.512 273.59 148.443 273.921 148.304C274.262 148.165 274.55 147.963 274.785 147.696L275.905 148.832C275.531 149.269 275.078 149.6 274.545 149.824C274.011 150.048 273.446 150.16 272.849 150.16Z" fill="#2A2C35"/>
<path d="M304.796 141.796L302.594 144L304.799 146.204C305.01 146.415 305.129 146.702 305.129 147.001C305.129 147.3 305.01 147.586 304.799 147.798C304.587 148.009 304.301 148.128 304.002 148.128C303.703 148.128 303.416 148.009 303.205 147.798L301 145.594L298.796 147.799C298.585 148.01 298.298 148.129 297.999 148.129C297.7 148.129 297.414 148.01 297.202 147.799C296.991 147.587 296.872 147.301 296.872 147.002C296.872 146.703 296.991 146.416 297.202 146.205L299.406 144L297.204 141.796C297.099 141.691 297.016 141.567 296.96 141.43C296.903 141.294 296.874 141.147 296.874 140.999C296.874 140.7 296.993 140.414 297.204 140.202C297.415 139.991 297.702 139.872 298.001 139.872C298.3 139.872 298.586 139.991 298.798 140.202L301 142.406L303.204 140.201C303.415 139.99 303.702 139.871 304.001 139.871C304.3 139.871 304.586 139.99 304.798 140.201C305.009 140.413 305.128 140.699 305.128 140.998C305.128 141.297 305.009 141.584 304.798 141.795L304.796 141.796ZM311.125 144C311.125 146.003 310.531 147.96 309.419 149.625C308.306 151.29 306.725 152.588 304.875 153.354C303.025 154.121 300.989 154.321 299.025 153.93C297.061 153.54 295.257 152.575 293.841 151.159C292.425 149.743 291.46 147.939 291.07 145.975C290.679 144.011 290.879 141.975 291.646 140.125C292.412 138.275 293.71 136.694 295.375 135.581C297.04 134.469 298.997 133.875 301 133.875C303.684 133.878 306.258 134.946 308.156 136.844C310.054 138.742 311.122 141.316 311.125 144ZM308.875 144C308.875 142.442 308.413 140.92 307.548 139.625C306.683 138.33 305.453 137.32 304.014 136.724C302.575 136.128 300.991 135.972 299.464 136.276C297.936 136.58 296.533 137.33 295.432 138.432C294.33 139.533 293.58 140.936 293.276 142.464C292.972 143.991 293.128 145.575 293.724 147.014C294.32 148.453 295.33 149.683 296.625 150.548C297.92 151.413 299.442 151.875 301 151.875C303.088 151.873 305.09 151.042 306.566 149.566C308.042 148.09 308.873 146.088 308.875 144Z" fill="#2A2C35"/>
<path d="M360 16C360 8.45753 360 4.68629 362.343 2.34315C364.686 0 368.458 0 376 0H478C485.542 0 489.314 0 491.657 2.34315C494 4.68629 494 8.45753 494 16V16C494 23.5425 494 27.3137 491.657 29.6569C489.314 32 485.542 32 478 32H376C368.458 32 364.686 32 362.343 29.6569C360 27.3137 360 23.5425 360 16V16Z" fill="#F1F2F4"/>
<path d="M394.781 13.0047C394.667 12.6553 394.453 12.3471 394.166 12.1184C393.878 11.8898 393.529 11.7507 393.163 11.7184L387.82 11.2563L385.729 6.27438C385.585 5.93559 385.345 5.64661 385.038 5.44348C384.731 5.24034 384.371 5.13202 384.003 5.13202C383.635 5.13202 383.275 5.24034 382.968 5.44348C382.661 5.64661 382.421 5.93559 382.277 6.27438L380.184 11.2563L374.84 11.7184C374.472 11.7489 374.121 11.8874 373.831 12.1166C373.542 12.3457 373.326 12.6553 373.212 13.0065C373.097 13.3577 373.089 13.7348 373.189 14.0906C373.288 14.4463 373.49 14.7649 373.769 15.0063L377.831 18.55L376.612 23.8225C376.528 24.1815 376.552 24.5572 376.681 24.9026C376.81 25.248 377.038 25.5478 377.336 25.7645C377.634 25.9812 377.989 26.1052 378.358 26.1209C378.726 26.1367 379.091 26.0435 379.406 25.8531L384 23.0631L388.594 25.8531C388.91 26.0432 389.274 26.1361 389.642 26.1202C390.01 26.1043 390.366 25.9803 390.664 25.7637C390.962 25.547 391.189 25.2474 391.318 24.9021C391.447 24.5569 391.471 24.1814 391.388 23.8225L390.169 18.55L394.23 15.0063C394.509 14.764 394.71 14.4448 394.808 14.0887C394.906 13.7326 394.897 13.3555 394.781 13.0047ZM388.524 17.0003C388.267 17.224 388.075 17.5135 387.97 17.8378C387.865 18.162 387.851 18.5087 387.928 18.8406L388.996 23.4644L384.971 21.0194C384.678 20.8414 384.343 20.7472 384 20.7472C383.658 20.7472 383.322 20.8414 383.03 21.0194L379.004 23.4644L380.072 18.8406C380.149 18.5087 380.135 18.162 380.03 17.8378C379.925 17.5135 379.734 17.224 379.477 17.0003L375.906 13.885L380.606 13.4781C380.947 13.449 381.273 13.327 381.549 13.1255C381.825 12.924 382.04 12.6507 382.171 12.3353L384 7.97688L385.829 12.3353C385.961 12.6507 386.176 12.924 386.452 13.1255C386.728 13.327 387.054 13.449 387.394 13.4781L392.095 13.885L388.524 17.0003Z" fill="#2A2C35"/>
<path d="M407.716 22L404.212 14.32H406.164L408.836 20.576H407.684L410.372 14.32H412.244L408.74 22H407.716ZM416.231 22.16C415.538 22.16 414.908 21.984 414.343 21.632C413.788 21.28 413.346 20.8053 413.015 20.208C412.695 19.6 412.535 18.9227 412.535 18.176C412.535 17.4187 412.695 16.7413 413.015 16.144C413.346 15.536 413.788 15.056 414.343 14.704C414.908 14.3413 415.538 14.16 416.231 14.16C416.818 14.16 417.335 14.288 417.783 14.544C418.242 14.7893 418.604 15.1307 418.871 15.568C419.138 16.0053 419.271 16.5013 419.271 17.056V19.264C419.271 19.8187 419.138 20.3147 418.871 20.752C418.615 21.1893 418.258 21.536 417.799 21.792C417.34 22.0373 416.818 22.16 416.231 22.16ZM416.519 20.496C417.17 20.496 417.692 20.2773 418.087 19.84C418.492 19.4027 418.695 18.8427 418.695 18.16C418.695 17.7013 418.604 17.296 418.423 16.944C418.242 16.592 417.986 16.32 417.655 16.128C417.335 15.9253 416.956 15.824 416.519 15.824C416.092 15.824 415.714 15.9253 415.383 16.128C415.063 16.32 414.807 16.592 414.615 16.944C414.434 17.296 414.343 17.7013 414.343 18.16C414.343 18.6187 414.434 19.024 414.615 19.376C414.807 19.728 415.063 20.0053 415.383 20.208C415.714 20.4 416.092 20.496 416.519 20.496ZM418.583 22V19.936L418.887 18.064L418.583 16.208V14.32H420.343V22H418.583ZM422.296 22V10.48H424.056V22H422.296ZM429.167 22.16C428.516 22.16 427.935 22.016 427.423 21.728C426.922 21.44 426.527 21.0453 426.239 20.544C425.962 20.032 425.823 19.4453 425.823 18.784V14.32H427.583V18.704C427.583 19.0773 427.642 19.3973 427.759 19.664C427.887 19.92 428.068 20.1173 428.303 20.256C428.548 20.3947 428.836 20.464 429.167 20.464C429.679 20.464 430.068 20.3147 430.335 20.016C430.612 19.7067 430.751 19.2693 430.751 18.704V14.32H432.511V18.784C432.511 19.456 432.367 20.048 432.079 20.56C431.802 21.0613 431.412 21.456 430.911 21.744C430.41 22.0213 429.828 22.16 429.167 22.16ZM437.849 22.16C437.081 22.16 436.387 21.9893 435.769 21.648C435.161 21.296 434.675 20.816 434.313 20.208C433.961 19.6 433.785 18.9173 433.785 18.16C433.785 17.4027 433.961 16.7253 434.313 16.128C434.665 15.52 435.139 15.04 435.737 14.688C436.345 14.336 437.017 14.16 437.753 14.16C438.467 14.16 439.097 14.3253 439.641 14.656C440.195 14.9867 440.627 15.44 440.937 16.016C441.257 16.592 441.417 17.248 441.417 17.984C441.417 18.112 441.406 18.2453 441.385 18.384C441.374 18.512 441.353 18.656 441.321 18.816H435.017V17.376H440.409L439.753 17.952C439.731 17.4827 439.641 17.088 439.481 16.768C439.321 16.448 439.091 16.2027 438.793 16.032C438.505 15.8613 438.147 15.776 437.721 15.776C437.273 15.776 436.883 15.872 436.553 16.064C436.222 16.256 435.966 16.528 435.785 16.88C435.603 17.2213 435.513 17.632 435.513 18.112C435.513 18.592 435.609 19.0133 435.801 19.376C435.993 19.7387 436.265 20.0213 436.617 20.224C436.969 20.416 437.374 20.512 437.833 20.512C438.227 20.512 438.59 20.4427 438.921 20.304C439.262 20.1653 439.55 19.9627 439.785 19.696L440.905 20.832C440.531 21.2693 440.078 21.6 439.545 21.824C439.011 22.048 438.446 22.16 437.849 22.16Z" fill="#2A2C35"/>
<path d="M469.796 13.7959L467.594 16L469.799 18.2041C470.01 18.4154 470.129 18.7021 470.129 19.0009C470.129 19.2998 470.01 19.5865 469.799 19.7978C469.587 20.0092 469.301 20.1279 469.002 20.1279C468.703 20.1279 468.416 20.0092 468.205 19.7978L466 17.5938L463.796 19.7988C463.585 20.0101 463.298 20.1288 462.999 20.1288C462.7 20.1288 462.414 20.0101 462.202 19.7988C461.991 19.5874 461.872 19.3008 461.872 19.0019C461.872 18.703 461.991 18.4163 462.202 18.205L464.406 16L462.204 13.7959C462.099 13.6913 462.016 13.5671 461.96 13.4303C461.903 13.2936 461.874 13.1471 461.874 12.9991C461.874 12.7002 461.993 12.4135 462.204 12.2022C462.415 11.9908 462.702 11.8721 463.001 11.8721C463.3 11.8721 463.586 11.9908 463.798 12.2022L466 14.4062L468.204 12.2013C468.415 11.9899 468.702 11.8712 469.001 11.8712C469.3 11.8712 469.586 11.9899 469.798 12.2013C470.009 12.4126 470.128 12.6992 470.128 12.9981C470.128 13.297 470.009 13.5837 469.798 13.795L469.796 13.7959ZM476.125 16C476.125 18.0025 475.531 19.9601 474.419 21.6251C473.306 23.2902 471.725 24.5879 469.875 25.3543C468.025 26.1206 465.989 26.3211 464.025 25.9305C462.061 25.5398 460.257 24.5755 458.841 23.1595C457.425 21.7435 456.46 19.9393 456.07 17.9753C455.679 16.0112 455.879 13.9754 456.646 12.1253C457.412 10.2752 458.71 8.69392 460.375 7.58137C462.04 6.46882 463.997 5.875 466 5.875C468.684 5.87798 471.258 6.94567 473.156 8.84383C475.054 10.742 476.122 13.3156 476.125 16ZM473.875 16C473.875 14.4425 473.413 12.9199 472.548 11.6249C471.683 10.3298 470.453 9.32049 469.014 8.72445C467.575 8.12841 465.991 7.97246 464.464 8.27632C462.936 8.58017 461.533 9.3302 460.432 10.4315C459.33 11.5329 458.58 12.9361 458.276 14.4637C457.972 15.9913 458.128 17.5747 458.724 19.0136C459.32 20.4526 460.33 21.6825 461.625 22.5478C462.92 23.4131 464.442 23.875 466 23.875C468.088 23.8728 470.09 23.0424 471.566 21.566C473.042 20.0896 473.873 18.0879 473.875 16Z" fill="#2A2C35"/>
<path d="M360 80C360 72.4575 360 68.6863 362.343 66.3431C364.686 64 368.458 64 376 64H474C481.542 64 485.314 64 487.657 66.3431C490 68.6863 490 72.4575 490 80V80C490 87.5425 490 91.3137 487.657 93.6569C485.314 96 481.542 96 474 96H376C368.458 96 364.686 96 362.343 93.6569C360 91.3137 360 87.5425 360 80V80Z" fill="#F1F2F4"/>
<path d="M360 80C360 72.4575 360 68.6863 362.343 66.3431C364.686 64 368.458 64 376 64H474C481.542 64 485.314 64 487.657 66.3431C490 68.6863 490 72.4575 490 80V80C490 87.5425 490 91.3137 487.657 93.6569C485.314 96 481.542 96 474 96H376C368.458 96 364.686 96 362.343 93.6569C360 91.3137 360 87.5425 360 80V80Z" fill="#BCBFC5" fill-opacity="0.2"/>
<path d="M394.781 77.0047C394.667 76.6553 394.453 76.3471 394.166 76.1184C393.878 75.8898 393.529 75.7507 393.163 75.7184L387.82 75.2563L385.729 70.2744C385.585 69.9356 385.345 69.6466 385.038 69.4435C384.731 69.2403 384.371 69.132 384.003 69.132C383.635 69.132 383.275 69.2403 382.968 69.4435C382.661 69.6466 382.421 69.9356 382.277 70.2744L380.184 75.2563L374.84 75.7184C374.472 75.7489 374.121 75.8874 373.831 76.1166C373.542 76.3457 373.326 76.6553 373.212 77.0065C373.097 77.3577 373.089 77.7348 373.189 78.0906C373.288 78.4463 373.49 78.7649 373.769 79.0063L377.831 82.55L376.612 87.8225C376.528 88.1815 376.552 88.5572 376.681 88.9026C376.81 89.248 377.038 89.5478 377.336 89.7645C377.634 89.9812 377.989 90.1052 378.358 90.1209C378.726 90.1367 379.091 90.0435 379.406 89.8531L384 87.0631L388.594 89.8531C388.91 90.0432 389.274 90.1361 389.642 90.1202C390.01 90.1043 390.366 89.9803 390.664 89.7637C390.962 89.547 391.189 89.2474 391.318 88.9021C391.447 88.5569 391.471 88.1814 391.388 87.8225L390.169 82.55L394.23 79.0063C394.509 78.764 394.71 78.4448 394.808 78.0887C394.906 77.7326 394.897 77.3555 394.781 77.0047ZM388.524 81.0003C388.267 81.224 388.075 81.5135 387.97 81.8378C387.865 82.162 387.851 82.5087 387.928 82.8406L388.996 87.4644L384.971 85.0194C384.678 84.8414 384.343 84.7472 384 84.7472C383.658 84.7472 383.322 84.8414 383.03 85.0194L379.004 87.4644L380.072 82.8406C380.149 82.5087 380.135 82.162 380.03 81.8378C379.925 81.5135 379.734 81.224 379.477 81.0003L375.906 77.885L380.606 77.4781C380.947 77.449 381.273 77.327 381.549 77.1255C381.825 76.924 382.04 76.6507 382.171 76.3353L384 71.9769L385.829 76.3353C385.961 76.6507 386.176 76.924 386.452 77.1255C386.728 77.327 387.054 77.449 387.394 77.4781L392.095 77.885L388.524 81.0003Z" fill="#2A2C35"/>
<path d="M407.716 86L404.212 78.32H406.164L408.836 84.576H407.684L410.372 78.32H412.244L408.74 86H407.716ZM416.231 86.16C415.538 86.16 414.908 85.984 414.343 85.632C413.788 85.28 413.346 84.8053 413.015 84.208C412.695 83.6 412.535 82.9227 412.535 82.176C412.535 81.4187 412.695 80.7413 413.015 80.144C413.346 79.536 413.788 79.056 414.343 78.704C414.908 78.3413 415.538 78.16 416.231 78.16C416.818 78.16 417.335 78.288 417.783 78.544C418.242 78.7893 418.604 79.1307 418.871 79.568C419.138 80.0053 419.271 80.5013 419.271 81.056V83.264C419.271 83.8187 419.138 84.3147 418.871 84.752C418.615 85.1893 418.258 85.536 417.799 85.792C417.34 86.0373 416.818 86.16 416.231 86.16ZM416.519 84.496C417.17 84.496 417.692 84.2773 418.087 83.84C418.492 83.4027 418.695 82.8427 418.695 82.16C418.695 81.7013 418.604 81.296 418.423 80.944C418.242 80.592 417.986 80.32 417.655 80.128C417.335 79.9253 416.956 79.824 416.519 79.824C416.092 79.824 415.714 79.9253 415.383 80.128C415.063 80.32 414.807 80.592 414.615 80.944C414.434 81.296 414.343 81.7013 414.343 82.16C414.343 82.6187 414.434 83.024 414.615 83.376C414.807 83.728 415.063 84.0053 415.383 84.208C415.714 84.4 416.092 84.496 416.519 84.496ZM418.583 86V83.936L418.887 82.064L418.583 80.208V78.32H420.343V86H418.583ZM422.296 86V74.48H424.056V86H422.296ZM429.167 86.16C428.516 86.16 427.935 86.016 427.423 85.728C426.922 85.44 426.527 85.0453 426.239 84.544C425.962 84.032 425.823 83.4453 425.823 82.784V78.32H427.583V82.704C427.583 83.0773 427.642 83.3973 427.759 83.664C427.887 83.92 428.068 84.1173 428.303 84.256C428.548 84.3947 428.836 84.464 429.167 84.464C429.679 84.464 430.068 84.3147 430.335 84.016C430.612 83.7067 430.751 83.2693 430.751 82.704V78.32H432.511V82.784C432.511 83.456 432.367 84.048 432.079 84.56C431.802 85.0613 431.412 85.456 430.911 85.744C430.41 86.0213 429.828 86.16 429.167 86.16ZM437.849 86.16C437.081 86.16 436.387 85.9893 435.769 85.648C435.161 85.296 434.675 84.816 434.313 84.208C433.961 83.6 433.785 82.9173 433.785 82.16C433.785 81.4027 433.961 80.7253 434.313 80.128C434.665 79.52 435.139 79.04 435.737 78.688C436.345 78.336 437.017 78.16 437.753 78.16C438.467 78.16 439.097 78.3253 439.641 78.656C440.195 78.9867 440.627 79.44 440.937 80.016C441.257 80.592 441.417 81.248 441.417 81.984C441.417 82.112 441.406 82.2453 441.385 82.384C441.374 82.512 441.353 82.656 441.321 82.816H435.017V81.376H440.409L439.753 81.952C439.731 81.4827 439.641 81.088 439.481 80.768C439.321 80.448 439.091 80.2027 438.793 80.032C438.505 79.8613 438.147 79.776 437.721 79.776C437.273 79.776 436.883 79.872 436.553 80.064C436.222 80.256 435.966 80.528 435.785 80.88C435.603 81.2213 435.513 81.632 435.513 82.112C435.513 82.592 435.609 83.0133 435.801 83.376C435.993 83.7387 436.265 84.0213 436.617 84.224C436.969 84.416 437.374 84.512 437.833 84.512C438.227 84.512 438.59 84.4427 438.921 84.304C439.262 84.1653 439.55 83.9627 439.785 83.696L440.905 84.832C440.531 85.2693 440.078 85.6 439.545 85.824C439.011 86.048 438.446 86.16 437.849 86.16Z" fill="#2A2C35"/>
<path d="M469.796 77.7959L467.594 80L469.799 82.2041C470.01 82.4154 470.129 82.7021 470.129 83.0009C470.129 83.2998 470.01 83.5865 469.799 83.7978C469.587 84.0092 469.301 84.1279 469.002 84.1279C468.703 84.1279 468.416 84.0092 468.205 83.7978L466 81.5938L463.796 83.7988C463.585 84.0101 463.298 84.1288 462.999 84.1288C462.7 84.1288 462.414 84.0101 462.202 83.7988C461.991 83.5874 461.872 83.3008 461.872 83.0019C461.872 82.703 461.991 82.4163 462.202 82.205L464.406 80L462.204 77.7959C462.099 77.6913 462.016 77.5671 461.96 77.4303C461.903 77.2936 461.874 77.1471 461.874 76.9991C461.874 76.7002 461.993 76.4135 462.204 76.2022C462.415 75.9908 462.702 75.8721 463.001 75.8721C463.3 75.8721 463.586 75.9908 463.798 76.2022L466 78.4062L468.204 76.2013C468.415 75.9899 468.702 75.8712 469.001 75.8712C469.3 75.8712 469.586 75.9899 469.798 76.2013C470.009 76.4126 470.128 76.6992 470.128 76.9981C470.128 77.297 470.009 77.5837 469.798 77.795L469.796 77.7959ZM476.125 80C476.125 82.0025 475.531 83.9601 474.419 85.6251C473.306 87.2902 471.725 88.5879 469.875 89.3543C468.025 90.1206 465.989 90.3211 464.025 89.9305C462.061 89.5398 460.257 88.5755 458.841 87.1595C457.425 85.7435 456.46 83.9393 456.07 81.9753C455.679 80.0112 455.879 77.9754 456.646 76.1253C457.412 74.2752 458.71 72.6939 460.375 71.5814C462.04 70.4688 463.997 69.875 466 69.875C468.684 69.878 471.258 70.9457 473.156 72.8438C475.054 74.742 476.122 77.3156 476.125 80ZM473.875 80C473.875 78.4425 473.413 76.9199 472.548 75.6249C471.683 74.3298 470.453 73.3205 469.014 72.7244C467.575 72.1284 465.991 71.9725 464.464 72.2763C462.936 72.5802 461.533 73.3302 460.432 74.4315C459.33 75.5329 458.58 76.9361 458.276 78.4637C457.972 79.9913 458.128 81.5747 458.724 83.0136C459.32 84.4526 460.33 85.6825 461.625 86.5478C462.92 87.4131 464.442 87.875 466 87.875C468.088 87.8728 470.09 87.0424 471.566 85.566C473.042 84.0896 473.873 82.0879 473.875 80Z" fill="#2A2C35"/>
<path d="M472 127C475.743 127 478.651 126.998 480.911 127.302C483.201 127.61 484.976 128.247 486.364 129.636C487.753 131.024 488.39 132.799 488.698 135.089C489.002 137.349 489 140.257 489 144C489 147.743 489.002 150.651 488.698 152.911C488.39 155.201 487.753 156.976 486.364 158.364C484.976 159.753 483.201 160.39 480.911 160.698C478.651 161.002 475.743 161 472 161H376C372.257 161 369.349 161.002 367.089 160.698C364.799 160.39 363.024 159.753 361.636 158.364C360.247 156.976 359.61 155.201 359.302 152.911C358.998 150.651 359 147.743 359 144C359 140.257 358.998 137.349 359.302 135.089C359.61 132.799 360.247 131.024 361.636 129.636C363.024 128.247 364.799 127.61 367.089 127.302C369.349 126.998 372.257 127 376 127H472Z" stroke="#4F46E5" stroke-width="2"/>
<path d="M361 144C361 136.458 361 132.686 363.343 130.343C365.686 128 369.458 128 377 128H471C478.542 128 482.314 128 484.657 130.343C487 132.686 487 136.458 487 144V144C487 151.542 487 155.314 484.657 157.657C482.314 160 478.542 160 471 160H377C369.458 160 365.686 160 363.343 157.657C361 155.314 361 151.542 361 144V144Z" fill="#F1F2F4"/>
<path d="M395.781 141.005C395.667 140.655 395.453 140.347 395.166 140.118C394.878 139.89 394.529 139.751 394.163 139.718L388.82 139.256L386.729 134.274C386.585 133.936 386.345 133.647 386.038 133.443C385.731 133.24 385.371 133.132 385.003 133.132C384.635 133.132 384.275 133.24 383.968 133.443C383.661 133.647 383.421 133.936 383.277 134.274L381.184 139.256L375.84 139.718C375.472 139.749 375.121 139.887 374.831 140.117C374.542 140.346 374.326 140.655 374.212 141.006C374.097 141.358 374.089 141.735 374.189 142.091C374.288 142.446 374.49 142.765 374.769 143.006L378.831 146.55L377.612 151.823C377.528 152.182 377.552 152.557 377.681 152.903C377.81 153.248 378.038 153.548 378.336 153.765C378.634 153.981 378.989 154.105 379.358 154.121C379.726 154.137 380.091 154.044 380.406 153.853L385 151.063L389.594 153.853C389.91 154.043 390.274 154.136 390.642 154.12C391.01 154.104 391.366 153.98 391.664 153.764C391.962 153.547 392.189 153.247 392.318 152.902C392.447 152.557 392.471 152.181 392.388 151.823L391.169 146.55L395.23 143.006C395.509 142.764 395.71 142.445 395.808 142.089C395.906 141.733 395.897 141.356 395.781 141.005ZM389.524 145C389.267 145.224 389.075 145.514 388.97 145.838C388.865 146.162 388.851 146.509 388.928 146.841L389.996 151.464L385.971 149.019C385.678 148.841 385.343 148.747 385 148.747C384.658 148.747 384.322 148.841 384.03 149.019L380.004 151.464L381.072 146.841C381.149 146.509 381.135 146.162 381.03 145.838C380.925 145.514 380.734 145.224 380.477 145L376.906 141.885L381.606 141.478C381.947 141.449 382.273 141.327 382.549 141.126C382.825 140.924 383.04 140.651 383.171 140.335L385 135.977L386.829 140.335C386.961 140.651 387.176 140.924 387.452 141.126C387.728 141.327 388.054 141.449 388.394 141.478L393.095 141.885L389.524 145Z" fill="#2A2C35"/>
<path d="M408.716 150L405.212 142.32H407.164L409.836 148.576H408.684L411.372 142.32H413.244L409.74 150H408.716ZM417.231 150.16C416.538 150.16 415.908 149.984 415.343 149.632C414.788 149.28 414.346 148.805 414.015 148.208C413.695 147.6 413.535 146.923 413.535 146.176C413.535 145.419 413.695 144.741 414.015 144.144C414.346 143.536 414.788 143.056 415.343 142.704C415.908 142.341 416.538 142.16 417.231 142.16C417.818 142.16 418.335 142.288 418.783 142.544C419.242 142.789 419.604 143.131 419.871 143.568C420.138 144.005 420.271 144.501 420.271 145.056V147.264C420.271 147.819 420.138 148.315 419.871 148.752C419.615 149.189 419.258 149.536 418.799 149.792C418.34 150.037 417.818 150.16 417.231 150.16ZM417.519 148.496C418.17 148.496 418.692 148.277 419.087 147.84C419.492 147.403 419.695 146.843 419.695 146.16C419.695 145.701 419.604 145.296 419.423 144.944C419.242 144.592 418.986 144.32 418.655 144.128C418.335 143.925 417.956 143.824 417.519 143.824C417.092 143.824 416.714 143.925 416.383 144.128C416.063 144.32 415.807 144.592 415.615 144.944C415.434 145.296 415.343 145.701 415.343 146.16C415.343 146.619 415.434 147.024 415.615 147.376C415.807 147.728 416.063 148.005 416.383 148.208C416.714 148.4 417.092 148.496 417.519 148.496ZM419.583 150V147.936L419.887 146.064L419.583 144.208V142.32H421.343V150H419.583ZM423.296 150V138.48H425.056V150H423.296ZM430.167 150.16C429.516 150.16 428.935 150.016 428.423 149.728C427.922 149.44 427.527 149.045 427.239 148.544C426.962 148.032 426.823 147.445 426.823 146.784V142.32H428.583V146.704C428.583 147.077 428.642 147.397 428.759 147.664C428.887 147.92 429.068 148.117 429.303 148.256C429.548 148.395 429.836 148.464 430.167 148.464C430.679 148.464 431.068 148.315 431.335 148.016C431.612 147.707 431.751 147.269 431.751 146.704V142.32H433.511V146.784C433.511 147.456 433.367 148.048 433.079 148.56C432.802 149.061 432.412 149.456 431.911 149.744C431.41 150.021 430.828 150.16 430.167 150.16ZM438.849 150.16C438.081 150.16 437.387 149.989 436.769 149.648C436.161 149.296 435.675 148.816 435.313 148.208C434.961 147.6 434.785 146.917 434.785 146.16C434.785 145.403 434.961 144.725 435.313 144.128C435.665 143.52 436.139 143.04 436.737 142.688C437.345 142.336 438.017 142.16 438.753 142.16C439.467 142.16 440.097 142.325 440.641 142.656C441.195 142.987 441.627 143.44 441.937 144.016C442.257 144.592 442.417 145.248 442.417 145.984C442.417 146.112 442.406 146.245 442.385 146.384C442.374 146.512 442.353 146.656 442.321 146.816H436.017V145.376H441.409L440.753 145.952C440.731 145.483 440.641 145.088 440.481 144.768C440.321 144.448 440.091 144.203 439.793 144.032C439.505 143.861 439.147 143.776 438.721 143.776C438.273 143.776 437.883 143.872 437.553 144.064C437.222 144.256 436.966 144.528 436.785 144.88C436.603 145.221 436.513 145.632 436.513 146.112C436.513 146.592 436.609 147.013 436.801 147.376C436.993 147.739 437.265 148.021 437.617 148.224C437.969 148.416 438.374 148.512 438.833 148.512C439.227 148.512 439.59 148.443 439.921 148.304C440.262 148.165 440.55 147.963 440.785 147.696L441.905 148.832C441.531 149.269 441.078 149.6 440.545 149.824C440.011 150.048 439.446 150.16 438.849 150.16Z" fill="#2A2C35"/>
<path d="M470.796 141.796L468.594 144L470.799 146.204C471.01 146.415 471.129 146.702 471.129 147.001C471.129 147.3 471.01 147.586 470.799 147.798C470.587 148.009 470.301 148.128 470.002 148.128C469.703 148.128 469.416 148.009 469.205 147.798L467 145.594L464.796 147.799C464.585 148.01 464.298 148.129 463.999 148.129C463.7 148.129 463.414 148.01 463.202 147.799C462.991 147.587 462.872 147.301 462.872 147.002C462.872 146.703 462.991 146.416 463.202 146.205L465.406 144L463.204 141.796C463.099 141.691 463.016 141.567 462.96 141.43C462.903 141.294 462.874 141.147 462.874 140.999C462.874 140.7 462.993 140.414 463.204 140.202C463.415 139.991 463.702 139.872 464.001 139.872C464.3 139.872 464.586 139.991 464.798 140.202L467 142.406L469.204 140.201C469.415 139.99 469.702 139.871 470.001 139.871C470.3 139.871 470.586 139.99 470.798 140.201C471.009 140.413 471.128 140.699 471.128 140.998C471.128 141.297 471.009 141.584 470.798 141.795L470.796 141.796ZM477.125 144C477.125 146.003 476.531 147.96 475.419 149.625C474.306 151.29 472.725 152.588 470.875 153.354C469.025 154.121 466.989 154.321 465.025 153.93C463.061 153.54 461.257 152.575 459.841 151.159C458.425 149.743 457.46 147.939 457.07 145.975C456.679 144.011 456.879 141.975 457.646 140.125C458.412 138.275 459.71 136.694 461.375 135.581C463.04 134.469 464.997 133.875 467 133.875C469.684 133.878 472.258 134.946 474.156 136.844C476.054 138.742 477.122 141.316 477.125 144ZM474.875 144C474.875 142.442 474.413 140.92 473.548 139.625C472.683 138.33 471.453 137.32 470.014 136.724C468.575 136.128 466.991 135.972 465.464 136.276C463.936 136.58 462.533 137.33 461.432 138.432C460.33 139.533 459.58 140.936 459.276 142.464C458.972 143.991 459.128 145.575 459.724 147.014C460.32 148.453 461.33 149.683 462.625 150.548C463.92 151.413 465.442 151.875 467 151.875C469.088 151.873 471.09 151.042 472.566 149.566C474.042 148.09 474.873 146.088 474.875 144Z" fill="#2A2C35"/>
</svg>
