<svg width="221" height="119" viewBox="0 0 221 119" fill="none" xmlns="http://www.w3.org/2000/svg">
<path d="M75 87C75 79.4575 75 75.6863 77.3431 73.3431C79.6863 71 83.4575 71 91 71H189C196.542 71 200.314 71 202.657 73.3431C205 75.6863 205 79.4575 205 87V87C205 94.5425 205 98.3137 202.657 100.657C200.314 103 196.542 103 189 103H91C83.4575 103 79.6863 103 77.3431 100.657C75 98.3137 75 94.5425 75 87V87Z" fill="#15161A"/>
<path d="M75 87C75 79.4575 75 75.6863 77.3431 73.3431C79.6863 71 83.4575 71 91 71H189C196.542 71 200.314 71 202.657 73.3431C205 75.6863 205 79.4575 205 87V87C205 94.5425 205 98.3137 202.657 100.657C200.314 103 196.542 103 189 103H91C83.4575 103 79.6863 103 77.3431 100.657C75 98.3137 75 94.5425 75 87V87Z" fill="#444546" fill-opacity="0.2"/>
<path d="M109.781 84.0047C109.667 83.6553 109.453 83.3471 109.166 83.1184C108.878 82.8898 108.529 82.7507 108.163 82.7184L102.82 82.2562L100.729 77.2744C100.585 76.9356 100.345 76.6466 100.038 76.4435C99.731 76.2403 99.3711 76.132 99.003 76.132C98.635 76.132 98.2751 76.2403 97.9682 76.4435C97.6612 76.6466 97.4209 76.9356 97.2771 77.2744L95.1837 82.2562L89.8399 82.7184C89.4718 82.7489 89.121 82.8874 88.8313 83.1166C88.5417 83.3457 88.3261 83.6553 88.2118 84.0065C88.0974 84.3577 88.0893 84.7348 88.1885 85.0906C88.2877 85.4463 88.4897 85.7649 88.7693 86.0062L92.8305 89.55L91.6118 94.8225C91.5282 95.1815 91.5523 95.5572 91.6811 95.9026C91.8098 96.248 92.0376 96.5478 92.3358 96.7645C92.634 96.9812 92.9895 97.1052 93.3578 97.1209C93.7261 97.1367 94.0908 97.0435 94.4065 96.8531L99.0002 94.0631L103.594 96.8531C103.91 97.0432 104.274 97.1361 104.642 97.1202C105.01 97.1043 105.366 96.9803 105.664 96.7637C105.962 96.547 106.189 96.2474 106.318 95.9021C106.447 95.5569 106.471 95.1814 106.388 94.8225L105.169 89.55L109.23 86.0062C109.509 85.764 109.71 85.4448 109.808 85.0887C109.906 84.7326 109.897 84.3555 109.781 84.0047ZM103.524 88.0003C103.267 88.224 103.075 88.5135 102.97 88.8378C102.865 89.162 102.851 89.5087 102.928 89.8406L103.996 94.4644L99.9705 92.0194C99.6782 91.8414 99.3425 91.7472 99.0002 91.7472C98.6579 91.7472 98.3223 91.8414 98.0299 92.0194L94.0043 94.4644L95.0721 89.8406C95.1495 89.5087 95.1349 89.162 95.0301 88.8378C94.9252 88.5135 94.7339 88.224 94.4768 88.0003L90.9058 84.885L95.6065 84.4781C95.9469 84.449 96.2727 84.327 96.5486 84.1255C96.8245 83.924 97.0398 83.6507 97.1712 83.3353L99.0002 78.9769L100.829 83.3353C100.961 83.6507 101.176 83.924 101.452 84.1255C101.728 84.327 102.054 84.449 102.394 84.4781L107.095 84.885L103.524 88.0003Z" fill="#F1F2F4"/>
<path d="M122.716 93L119.212 85.32H121.164L123.836 91.576H122.684L125.372 85.32H127.244L123.74 93H122.716ZM131.231 93.16C130.538 93.16 129.908 92.984 129.343 92.632C128.788 92.28 128.346 91.8053 128.015 91.208C127.695 90.6 127.535 89.9227 127.535 89.176C127.535 88.4187 127.695 87.7413 128.015 87.144C128.346 86.536 128.788 86.056 129.343 85.704C129.908 85.3413 130.538 85.16 131.231 85.16C131.818 85.16 132.335 85.288 132.783 85.544C133.242 85.7893 133.604 86.1307 133.871 86.568C134.138 87.0053 134.271 87.5013 134.271 88.056V90.264C134.271 90.8187 134.138 91.3147 133.871 91.752C133.615 92.1893 133.258 92.536 132.799 92.792C132.34 93.0373 131.818 93.16 131.231 93.16ZM131.519 91.496C132.17 91.496 132.692 91.2773 133.087 90.84C133.492 90.4027 133.695 89.8427 133.695 89.16C133.695 88.7013 133.604 88.296 133.423 87.944C133.242 87.592 132.986 87.32 132.655 87.128C132.335 86.9253 131.956 86.824 131.519 86.824C131.092 86.824 130.714 86.9253 130.383 87.128C130.063 87.32 129.807 87.592 129.615 87.944C129.434 88.296 129.343 88.7013 129.343 89.16C129.343 89.6187 129.434 90.024 129.615 90.376C129.807 90.728 130.063 91.0053 130.383 91.208C130.714 91.4 131.092 91.496 131.519 91.496ZM133.583 93V90.936L133.887 89.064L133.583 87.208V85.32H135.343V93H133.583ZM137.296 93V81.48H139.056V93H137.296ZM144.167 93.16C143.516 93.16 142.935 93.016 142.423 92.728C141.922 92.44 141.527 92.0453 141.239 91.544C140.962 91.032 140.823 90.4453 140.823 89.784V85.32H142.583V89.704C142.583 90.0773 142.642 90.3973 142.759 90.664C142.887 90.92 143.068 91.1173 143.303 91.256C143.548 91.3947 143.836 91.464 144.167 91.464C144.679 91.464 145.068 91.3147 145.335 91.016C145.612 90.7067 145.751 90.2693 145.751 89.704V85.32H147.511V89.784C147.511 90.456 147.367 91.048 147.079 91.56C146.802 92.0613 146.412 92.456 145.911 92.744C145.41 93.0213 144.828 93.16 144.167 93.16ZM152.849 93.16C152.081 93.16 151.387 92.9893 150.769 92.648C150.161 92.296 149.675 91.816 149.313 91.208C148.961 90.6 148.785 89.9173 148.785 89.16C148.785 88.4027 148.961 87.7253 149.313 87.128C149.665 86.52 150.139 86.04 150.737 85.688C151.345 85.336 152.017 85.16 152.753 85.16C153.467 85.16 154.097 85.3253 154.641 85.656C155.195 85.9867 155.627 86.44 155.937 87.016C156.257 87.592 156.417 88.248 156.417 88.984C156.417 89.112 156.406 89.2453 156.385 89.384C156.374 89.512 156.353 89.656 156.321 89.816H150.017V88.376H155.409L154.753 88.952C154.731 88.4827 154.641 88.088 154.481 87.768C154.321 87.448 154.091 87.2027 153.793 87.032C153.505 86.8613 153.147 86.776 152.721 86.776C152.273 86.776 151.883 86.872 151.553 87.064C151.222 87.256 150.966 87.528 150.785 87.88C150.603 88.2213 150.513 88.632 150.513 89.112C150.513 89.592 150.609 90.0133 150.801 90.376C150.993 90.7387 151.265 91.0213 151.617 91.224C151.969 91.416 152.374 91.512 152.833 91.512C153.227 91.512 153.59 91.4427 153.921 91.304C154.262 91.1653 154.55 90.9627 154.785 90.696L155.905 91.832C155.531 92.2693 155.078 92.6 154.545 92.824C154.011 93.048 153.446 93.16 152.849 93.16Z" fill="#F1F2F4"/>
<path d="M184.796 84.7959L182.594 87L184.799 89.2041C185.01 89.4154 185.129 89.7021 185.129 90.0009C185.129 90.2998 185.01 90.5865 184.799 90.7978C184.587 91.0092 184.301 91.1279 184.002 91.1279C183.703 91.1279 183.416 91.0092 183.205 90.7978L181 88.5938L178.796 90.7988C178.585 91.0101 178.298 91.1288 177.999 91.1288C177.7 91.1288 177.414 91.0101 177.202 90.7988C176.991 90.5874 176.872 90.3008 176.872 90.0019C176.872 89.703 176.991 89.4163 177.202 89.205L179.406 87L177.204 84.7959C177.099 84.6913 177.016 84.5671 176.96 84.4303C176.903 84.2936 176.874 84.1471 176.874 83.9991C176.874 83.7002 176.993 83.4135 177.204 83.2022C177.415 82.9908 177.702 82.8721 178.001 82.8721C178.3 82.8721 178.586 82.9908 178.798 83.2022L181 85.4062L183.204 83.2013C183.415 82.9899 183.702 82.8712 184.001 82.8712C184.3 82.8712 184.586 82.9899 184.798 83.2013C185.009 83.4126 185.128 83.6992 185.128 83.9981C185.128 84.297 185.009 84.5837 184.798 84.795L184.796 84.7959ZM191.125 87C191.125 89.0025 190.531 90.9601 189.419 92.6251C188.306 94.2902 186.725 95.5879 184.875 96.3543C183.025 97.1206 180.989 97.3211 179.025 96.9305C177.061 96.5398 175.257 95.5755 173.841 94.1595C172.425 92.7435 171.46 90.9393 171.07 88.9753C170.679 87.0112 170.879 84.9754 171.646 83.1253C172.412 81.2752 173.71 79.6939 175.375 78.5814C177.04 77.4688 178.997 76.875 181 76.875C183.684 76.878 186.258 77.9457 188.156 79.8438C190.054 81.742 191.122 84.3156 191.125 87ZM188.875 87C188.875 85.4425 188.413 83.9199 187.548 82.6249C186.683 81.3298 185.453 80.3205 184.014 79.7244C182.575 79.1284 180.991 78.9725 179.464 79.2763C177.936 79.5802 176.533 80.3302 175.432 81.4315C174.33 82.5329 173.58 83.9361 173.276 85.4637C172.972 86.9913 173.128 88.5747 173.724 90.0136C174.32 91.4526 175.33 92.6825 176.625 93.5478C177.92 94.4131 179.442 94.875 181 94.875C183.088 94.8728 185.09 94.0424 186.566 92.566C188.042 91.0896 188.873 89.0879 188.875 87Z" fill="#F1F2F4"/>
<g clip-path="url(#clip0_14098_34229)">
<rect x="104" y="16" width="1" height="60" fill="#E1172F"/>
<g clip-path="url(#clip1_14098_34229)">
<rect x="92" y="16" width="24" height="24" rx="12" fill="#E1172F"/>
<path d="M100.416 33V31.4489L104.04 28.093C104.349 27.7947 104.607 27.5263 104.816 27.2876C105.028 27.049 105.189 26.8153 105.298 26.5866C105.408 26.3546 105.462 26.1044 105.462 25.8359C105.462 25.5376 105.394 25.2808 105.258 25.0653C105.123 24.8466 104.937 24.6792 104.702 24.5632C104.466 24.4439 104.199 24.3842 103.901 24.3842C103.59 24.3842 103.318 24.4472 103.086 24.5732C102.854 24.6991 102.675 24.8797 102.549 25.1151C102.423 25.3504 102.36 25.6304 102.36 25.9553H100.317C100.317 25.2891 100.467 24.7107 100.769 24.2202C101.071 23.7296 101.493 23.3501 102.037 23.0817C102.58 22.8132 103.207 22.679 103.916 22.679C104.645 22.679 105.28 22.8082 105.82 23.0668C106.364 23.322 106.786 23.6766 107.088 24.1307C107.39 24.5848 107.54 25.1051 107.54 25.6918C107.54 26.0762 107.464 26.4557 107.312 26.8303C107.163 27.2048 106.896 27.6207 106.511 28.0781C106.127 28.5322 105.585 29.0774 104.886 29.7138L103.399 31.1705V31.2401H107.675V33H100.416Z" fill="white"/>
</g>
</g>
<g clip-path="url(#clip2_14098_34229)">
<rect x="175" y="16" width="1" height="60" fill="#E1172F"/>
<g clip-path="url(#clip3_14098_34229)">
<rect x="163" y="16" width="24" height="24" rx="12" fill="#E1172F"/>
<path d="M170.927 31.2102V29.5149L175.178 22.8182H176.639V25.1648H175.774L173.095 29.4055V29.4851H179.135V31.2102H170.927ZM175.814 33V30.6932L175.854 29.9425V22.8182H177.872V33H175.814Z" fill="white"/>
</g>
</g>
<g clip-path="url(#clip4_14098_34229)">
<rect x="139" y="16" width="1" height="68" fill="#E1172F"/>
<g clip-path="url(#clip5_14098_34229)">
<rect x="127" y="16" width="24" height="24" rx="12" fill="#E1172F"/>
<path d="M138.975 33.1392C138.232 33.1392 137.571 33.0116 136.991 32.7564C136.414 32.4979 135.958 32.1432 135.624 31.6925C135.292 31.2384 135.122 30.7147 135.112 30.1214H137.279C137.292 30.37 137.374 30.5888 137.523 30.7777C137.675 30.9633 137.877 31.1075 138.129 31.2102C138.381 31.313 138.665 31.3643 138.979 31.3643C139.308 31.3643 139.598 31.3063 139.85 31.1903C140.101 31.0743 140.299 30.9136 140.441 30.7081C140.584 30.5026 140.655 30.2656 140.655 29.9972C140.655 29.7254 140.579 29.4851 140.426 29.2763C140.277 29.0642 140.062 28.8984 139.78 28.7791C139.502 28.6598 139.17 28.6001 138.786 28.6001H137.836V27.0192H138.786C139.11 27.0192 139.397 26.9628 139.646 26.8501C139.898 26.7375 140.093 26.5817 140.232 26.3828C140.372 26.1806 140.441 25.9453 140.441 25.6768C140.441 25.4216 140.38 25.1979 140.257 25.0057C140.138 24.8101 139.969 24.6577 139.75 24.5483C139.535 24.4389 139.283 24.3842 138.994 24.3842C138.703 24.3842 138.436 24.4373 138.194 24.5433C137.952 24.6461 137.758 24.7936 137.612 24.9858C137.466 25.178 137.389 25.4034 137.379 25.6619H135.315C135.325 25.0753 135.493 24.5582 135.818 24.1108C136.142 23.6634 136.58 23.3137 137.13 23.0618C137.684 22.8066 138.308 22.679 139.004 22.679C139.707 22.679 140.322 22.8066 140.849 23.0618C141.376 23.317 141.785 23.6617 142.077 24.0959C142.372 24.5268 142.518 25.0107 142.514 25.5476C142.518 26.1177 142.34 26.5933 141.982 26.9744C141.628 27.3556 141.165 27.5975 140.595 27.7003V27.7798C141.344 27.8759 141.914 28.1361 142.305 28.5604C142.7 28.9813 142.895 29.5083 142.892 30.1413C142.895 30.7214 142.728 31.2367 142.39 31.6875C142.055 32.1383 141.593 32.4929 141.003 32.7514C140.413 33.0099 139.737 33.1392 138.975 33.1392Z" fill="white"/>
</g>
</g>
<g clip-path="url(#clip6_14098_34229)">
<rect x="16" y="86" width="64" height="1" fill="#E1172F"/>
<g clip-path="url(#clip7_14098_34229)">
<rect x="16" y="73" width="24" height="24" rx="12" fill="#E1172F"/>
<path d="M29.8302 79.8182V90H27.6775V81.8615H27.6178L25.2861 83.3232V81.4141L27.8067 79.8182H29.8302Z" fill="white"/>
</g>
</g>
<defs>
<clipPath id="clip0_14098_34229">
<rect width="24" height="60" fill="white" transform="translate(92 16)"/>
</clipPath>
<clipPath id="clip1_14098_34229">
<rect x="92" y="16" width="24" height="24" rx="12" fill="white"/>
</clipPath>
<clipPath id="clip2_14098_34229">
<rect width="24" height="60" fill="white" transform="translate(163 16)"/>
</clipPath>
<clipPath id="clip3_14098_34229">
<rect x="163" y="16" width="24" height="24" rx="12" fill="white"/>
</clipPath>
<clipPath id="clip4_14098_34229">
<rect width="24" height="68" fill="white" transform="translate(127 16)"/>
</clipPath>
<clipPath id="clip5_14098_34229">
<rect x="127" y="16" width="24" height="24" rx="12" fill="white"/>
</clipPath>
<clipPath id="clip6_14098_34229">
<rect width="64" height="24" fill="white" transform="translate(16 73)"/>
</clipPath>
<clipPath id="clip7_14098_34229">
<rect x="16" y="73" width="24" height="24" rx="12" fill="white"/>
</clipPath>
</defs>
</svg>
