<svg width="543" height="248" viewBox="0 0 543 248" fill="none" xmlns="http://www.w3.org/2000/svg">
<path d="M216 124C216 112.686 216 107.029 219.515 103.515C223.029 100 228.686 100 240 100H303C314.314 100 319.971 100 323.485 103.515C327 107.029 327 112.686 327 124C327 135.314 327 140.971 323.485 144.485C319.971 148 314.314 148 303 148H240C228.686 148 223.029 148 219.515 144.485C216 140.971 216 135.314 216 124Z" fill="#4F46E5"/>
<path d="M254.781 121.005C254.667 120.656 254.453 120.348 254.165 120.119C253.877 119.891 253.529 119.751 253.163 119.719L247.819 119.257L245.728 114.275C245.585 113.936 245.344 113.647 245.037 113.444C244.731 113.241 244.371 113.133 244.003 113.133C243.634 113.133 243.275 113.241 242.968 113.444C242.661 113.647 242.42 113.936 242.277 114.275L240.183 119.257L234.839 119.719C234.471 119.75 234.12 119.888 233.831 120.117C233.541 120.347 233.326 120.656 233.211 121.007C233.097 121.358 233.089 121.736 233.188 122.091C233.287 122.447 233.489 122.766 233.769 123.007L237.83 126.551L236.611 131.823C236.528 132.182 236.552 132.558 236.681 132.903C236.809 133.249 237.037 133.549 237.335 133.765C237.634 133.982 237.989 134.106 238.357 134.122C238.726 134.137 239.09 134.044 239.406 133.854L244 131.064L248.593 133.854C248.909 134.044 249.274 134.137 249.642 134.121C250.01 134.105 250.365 133.981 250.663 133.764C250.961 133.548 251.189 133.248 251.318 132.903C251.446 132.558 251.471 132.182 251.387 131.823L250.168 126.551L254.23 123.007C254.509 122.765 254.71 122.446 254.808 122.09C254.906 121.733 254.896 121.356 254.781 121.005ZM248.523 125.001C248.266 125.225 248.075 125.514 247.97 125.839C247.865 126.163 247.85 126.51 247.928 126.841L248.996 131.465L244.97 129.02C244.678 128.842 244.342 128.748 244 128.748C243.657 128.748 243.322 128.842 243.029 129.02L239.004 131.465L240.072 126.841C240.149 126.51 240.134 126.163 240.03 125.839C239.925 125.514 239.733 125.225 239.476 125.001L235.905 121.886L240.606 121.479C240.946 121.45 241.272 121.328 241.548 121.126C241.824 120.925 242.039 120.651 242.171 120.336L244 115.978L245.829 120.336C245.96 120.651 246.175 120.925 246.451 121.126C246.727 121.328 247.053 121.45 247.393 121.479L252.094 121.886L248.523 125.001Z" fill="white"/>
<path d="M266.722 130V128.4H269.938C270.504 128.4 270.941 128.224 271.25 127.872C271.56 127.52 271.714 127.115 271.714 126.656C271.714 126.347 271.645 126.059 271.506 125.792C271.368 125.525 271.165 125.312 270.898 125.152C270.632 124.992 270.312 124.912 269.938 124.912H266.722V123.312H269.666C270.146 123.312 270.53 123.189 270.818 122.944C271.106 122.699 271.25 122.336 271.25 121.856C271.25 121.376 271.106 121.013 270.818 120.768C270.53 120.523 270.146 120.4 269.666 120.4H266.722V118.8H269.714C270.472 118.8 271.101 118.939 271.602 119.216C272.104 119.493 272.477 119.851 272.722 120.288C272.968 120.725 273.09 121.195 273.09 121.696C273.09 122.283 272.925 122.8 272.594 123.248C272.274 123.696 271.8 124.059 271.17 124.336L271.314 123.76C272.018 124.048 272.568 124.453 272.962 124.976C273.357 125.499 273.554 126.112 273.554 126.816C273.554 127.392 273.41 127.92 273.122 128.4C272.845 128.88 272.429 129.269 271.874 129.568C271.33 129.856 270.658 130 269.858 130H266.722ZM265.458 130V118.8H267.298V130H265.458ZM278.323 130.16C277.673 130.16 277.091 130.016 276.579 129.728C276.078 129.44 275.683 129.045 275.395 128.544C275.118 128.032 274.979 127.445 274.979 126.784V122.32H276.739V126.704C276.739 127.077 276.798 127.397 276.915 127.664C277.043 127.92 277.225 128.117 277.459 128.256C277.705 128.395 277.993 128.464 278.323 128.464C278.835 128.464 279.225 128.315 279.491 128.016C279.769 127.707 279.907 127.269 279.907 126.704V122.32H281.667V126.784C281.667 127.456 281.523 128.048 281.235 128.56C280.958 129.061 280.569 129.456 280.067 129.744C279.566 130.021 278.985 130.16 278.323 130.16ZM284.605 130V119.12H286.365V130H284.605ZM282.765 123.92V122.32H292.845V123.92H282.765ZM289.245 130V119.12H291.005V130H289.245ZM297.426 130.16C296.679 130.16 296.002 129.984 295.394 129.632C294.786 129.269 294.3 128.784 293.938 128.176C293.586 127.568 293.41 126.891 293.41 126.144C293.41 125.397 293.586 124.725 293.938 124.128C294.3 123.531 294.786 123.056 295.394 122.704C296.002 122.341 296.679 122.16 297.426 122.16C298.183 122.16 298.866 122.336 299.474 122.688C300.082 123.04 300.562 123.52 300.914 124.128C301.276 124.725 301.458 125.397 301.458 126.144C301.458 126.891 301.276 127.568 300.914 128.176C300.562 128.784 300.082 129.269 299.474 129.632C298.866 129.984 298.183 130.16 297.426 130.16ZM297.426 128.464C297.863 128.464 298.247 128.368 298.578 128.176C298.919 127.973 299.18 127.696 299.362 127.344C299.554 126.992 299.65 126.592 299.65 126.144C299.65 125.696 299.554 125.301 299.362 124.96C299.17 124.619 298.908 124.352 298.578 124.16C298.247 123.957 297.863 123.856 297.426 123.856C296.999 123.856 296.615 123.957 296.274 124.16C295.943 124.352 295.682 124.619 295.49 124.96C295.308 125.301 295.218 125.696 295.218 126.144C295.218 126.592 295.308 126.992 295.49 127.344C295.682 127.696 295.943 127.973 296.274 128.176C296.615 128.368 296.999 128.464 297.426 128.464ZM308.185 130V125.568C308.185 125.056 308.02 124.635 307.689 124.304C307.369 123.973 306.953 123.808 306.441 123.808C306.1 123.808 305.796 123.883 305.529 124.032C305.263 124.181 305.055 124.389 304.905 124.656C304.756 124.923 304.681 125.227 304.681 125.568L303.993 125.184C303.993 124.597 304.121 124.08 304.377 123.632C304.633 123.173 304.985 122.816 305.433 122.56C305.892 122.293 306.404 122.16 306.969 122.16C307.545 122.16 308.057 122.309 308.505 122.608C308.953 122.896 309.305 123.275 309.561 123.744C309.817 124.203 309.945 124.683 309.945 125.184V130H308.185ZM302.921 130V122.32H304.681V130H302.921Z" fill="white"/>
<g clip-path="url(#clip0_1561_46611)">
<rect x="161" y="125" width="64" height="1" fill="#E1172F"/>
<g clip-path="url(#clip1_1561_46611)">
<rect x="161" y="112" width="24" height="24" rx="12" fill="#E1172F"/>
<path d="M174.83 118.818V129H172.677V120.862H172.618L170.286 122.323V120.414L172.807 118.818H174.83Z" fill="white"/>
</g>
</g>
<g clip-path="url(#clip2_1561_46611)">
<rect x="244" y="52" width="1" height="60" fill="#E1172F"/>
<g clip-path="url(#clip3_1561_46611)">
<rect x="231" y="52" width="24" height="24" rx="12" fill="#E1172F"/>
<path d="M239.416 69V67.4489L243.04 64.093C243.349 63.7947 243.607 63.5263 243.816 63.2876C244.028 63.049 244.189 62.8153 244.298 62.5866C244.408 62.3546 244.462 62.1044 244.462 61.8359C244.462 61.5376 244.394 61.2808 244.258 61.0653C244.123 60.8466 243.937 60.6792 243.702 60.5632C243.466 60.4439 243.199 60.3842 242.901 60.3842C242.59 60.3842 242.318 60.4472 242.086 60.5732C241.854 60.6991 241.675 60.8797 241.549 61.1151C241.423 61.3504 241.36 61.6304 241.36 61.9553H239.317C239.317 61.2891 239.467 60.7107 239.769 60.2202C240.071 59.7296 240.493 59.3501 241.037 59.0817C241.58 58.8132 242.207 58.679 242.916 58.679C243.645 58.679 244.28 58.8082 244.82 59.0668C245.364 59.322 245.786 59.6766 246.088 60.1307C246.39 60.5848 246.54 61.1051 246.54 61.6918C246.54 62.0762 246.464 62.4557 246.312 62.8303C246.163 63.2048 245.896 63.6207 245.511 64.0781C245.127 64.5322 244.585 65.0774 243.886 65.7138L242.399 67.1705V67.2401H246.675V69H239.416Z" fill="white"/>
</g>
</g>
<g clip-path="url(#clip4_1561_46611)">
<rect x="285" y="52" width="1" height="60" fill="#E1172F"/>
<g clip-path="url(#clip5_1561_46611)">
<rect x="272" y="52" width="24" height="24" rx="12" fill="#E1172F"/>
<path d="M283.975 69.1392C283.232 69.1392 282.571 69.0116 281.991 68.7564C281.414 68.4979 280.958 68.1432 280.624 67.6925C280.292 67.2384 280.122 66.7147 280.112 66.1214H282.279C282.292 66.37 282.374 66.5888 282.523 66.7777C282.675 66.9633 282.877 67.1075 283.129 67.2102C283.381 67.313 283.665 67.3643 283.979 67.3643C284.308 67.3643 284.598 67.3063 284.85 67.1903C285.101 67.0743 285.299 66.9136 285.441 66.7081C285.584 66.5026 285.655 66.2656 285.655 65.9972C285.655 65.7254 285.579 65.4851 285.426 65.2763C285.277 65.0642 285.062 64.8984 284.78 64.7791C284.502 64.6598 284.17 64.6001 283.786 64.6001H282.836V63.0192H283.786C284.11 63.0192 284.397 62.9628 284.646 62.8501C284.898 62.7375 285.093 62.5817 285.232 62.3828C285.372 62.1806 285.441 61.9453 285.441 61.6768C285.441 61.4216 285.38 61.1979 285.257 61.0057C285.138 60.8101 284.969 60.6577 284.75 60.5483C284.535 60.4389 284.283 60.3842 283.994 60.3842C283.703 60.3842 283.436 60.4373 283.194 60.5433C282.952 60.6461 282.758 60.7936 282.612 60.9858C282.466 61.178 282.389 61.4034 282.379 61.6619H280.315C280.325 61.0753 280.493 60.5582 280.818 60.1108C281.142 59.6634 281.58 59.3137 282.13 59.0618C282.684 58.8066 283.308 58.679 284.004 58.679C284.707 58.679 285.322 58.8066 285.849 59.0618C286.376 59.317 286.785 59.6617 287.077 60.0959C287.372 60.5268 287.518 61.0107 287.514 61.5476C287.518 62.1177 287.34 62.5933 286.982 62.9744C286.628 63.3556 286.165 63.5975 285.595 63.7003V63.7798C286.344 63.8759 286.914 64.1361 287.305 64.5604C287.7 64.9813 287.895 65.5083 287.892 66.1413C287.895 66.7214 287.728 67.2367 287.39 67.6875C287.055 68.1383 286.593 68.4929 286.003 68.7514C285.413 69.0099 284.737 69.1392 283.975 69.1392Z" fill="white"/>
</g>
</g>
<defs>
<clipPath id="clip0_1561_46611">
<rect width="64" height="24" fill="white" transform="translate(161 112)"/>
</clipPath>
<clipPath id="clip1_1561_46611">
<rect x="161" y="112" width="24" height="24" rx="12" fill="white"/>
</clipPath>
<clipPath id="clip2_1561_46611">
<rect width="24" height="60" fill="white" transform="translate(231 52)"/>
</clipPath>
<clipPath id="clip3_1561_46611">
<rect x="231" y="52" width="24" height="24" rx="12" fill="white"/>
</clipPath>
<clipPath id="clip4_1561_46611">
<rect width="24" height="60" fill="white" transform="translate(272 52)"/>
</clipPath>
<clipPath id="clip5_1561_46611">
<rect x="272" y="52" width="24" height="24" rx="12" fill="white"/>
</clipPath>
</defs>
</svg>
