<svg width="796" height="248" viewBox="0 0 796 248" fill="none" xmlns="http://www.w3.org/2000/svg">
<path d="M43 124C43 112.686 43 107.029 46.5147 103.515C50.0294 100 55.6863 100 67 100H105C116.314 100 121.971 100 125.485 103.515C129 107.029 129 112.686 129 124V124C129 135.314 129 140.971 125.485 144.485C121.971 148 116.314 148 105 148H67C55.6863 148 50.0294 148 46.5147 144.485C43 140.971 43 135.314 43 124V124Z" fill="#4F46E5"/>
<path d="M61.6988 130V128.32H64.6428C65.4108 128.32 66.0828 128.155 66.6588 127.824C67.2454 127.493 67.6988 127.035 68.0188 126.448C68.3494 125.851 68.5148 125.163 68.5148 124.384C68.5148 123.616 68.3494 122.939 68.0188 122.352C67.6881 121.765 67.2294 121.307 66.6428 120.976C66.0668 120.645 65.4001 120.48 64.6428 120.48H61.6988V118.8H64.6908C65.5014 118.8 66.2534 118.944 66.9468 119.232C67.6401 119.509 68.2428 119.904 68.7548 120.416C69.2774 120.917 69.6828 121.509 69.9708 122.192C70.2588 122.864 70.4028 123.6 70.4028 124.4C70.4028 125.189 70.2588 125.925 69.9708 126.608C69.6828 127.291 69.2828 127.888 68.7708 128.4C68.2588 128.901 67.6561 129.296 66.9628 129.584C66.2694 129.861 65.5228 130 64.7228 130H61.6988ZM60.4348 130V118.8H62.2748V130H60.4348ZM75.6065 130.16C74.8385 130.16 74.1452 129.989 73.5265 129.648C72.9185 129.296 72.4332 128.816 72.0705 128.208C71.7185 127.6 71.5425 126.917 71.5425 126.16C71.5425 125.403 71.7185 124.725 72.0705 124.128C72.4225 123.52 72.8972 123.04 73.4945 122.688C74.1025 122.336 74.7745 122.16 75.5105 122.16C76.2252 122.16 76.8545 122.325 77.3985 122.656C77.9532 122.987 78.3852 123.44 78.6945 124.016C79.0145 124.592 79.1745 125.248 79.1745 125.984C79.1745 126.112 79.1638 126.245 79.1425 126.384C79.1318 126.512 79.1105 126.656 79.0785 126.816H72.7745V125.376H78.1665L77.5105 125.952C77.4892 125.483 77.3985 125.088 77.2385 124.768C77.0785 124.448 76.8492 124.203 76.5505 124.032C76.2625 123.861 75.9052 123.776 75.4785 123.776C75.0305 123.776 74.6412 123.872 74.3105 124.064C73.9798 124.256 73.7238 124.528 73.5425 124.88C73.3612 125.221 73.2705 125.632 73.2705 126.112C73.2705 126.592 73.3665 127.013 73.5585 127.376C73.7505 127.739 74.0225 128.021 74.3745 128.224C74.7265 128.416 75.1318 128.512 75.5905 128.512C75.9852 128.512 76.3478 128.443 76.6785 128.304C77.0198 128.165 77.3078 127.963 77.5425 127.696L78.6625 128.832C78.2892 129.269 77.8358 129.6 77.3025 129.824C76.7692 130.048 76.2038 130.16 75.6065 130.16ZM81.4383 130V121.312C81.4383 120.725 81.5663 120.208 81.8223 119.76C82.0889 119.312 82.4516 118.96 82.9103 118.704C83.3796 118.448 83.9183 118.32 84.5263 118.32C84.9956 118.32 85.3956 118.4 85.7263 118.56C86.0569 118.72 86.3663 118.949 86.6543 119.248L85.5183 120.384C85.3903 120.256 85.2516 120.155 85.1023 120.08C84.9529 120.005 84.7609 119.968 84.5263 119.968C84.0996 119.968 83.7689 120.085 83.5343 120.32C83.3103 120.544 83.1983 120.869 83.1983 121.296V130H81.4383ZM79.5983 123.92V122.32H85.5183V123.92H79.5983ZM89.6608 130.16C88.9674 130.16 88.3381 129.984 87.7728 129.632C87.2181 129.28 86.7754 128.805 86.4448 128.208C86.1248 127.6 85.9648 126.923 85.9648 126.176C85.9648 125.419 86.1248 124.741 86.4448 124.144C86.7754 123.536 87.2181 123.056 87.7728 122.704C88.3381 122.341 88.9674 122.16 89.6608 122.16C90.2474 122.16 90.7648 122.288 91.2128 122.544C91.6714 122.789 92.0341 123.131 92.3008 123.568C92.5674 124.005 92.7008 124.501 92.7008 125.056V127.264C92.7008 127.819 92.5674 128.315 92.3008 128.752C92.0448 129.189 91.6874 129.536 91.2288 129.792C90.7701 130.037 90.2474 130.16 89.6608 130.16ZM89.9488 128.496C90.5994 128.496 91.1221 128.277 91.5168 127.84C91.9221 127.403 92.1248 126.843 92.1248 126.16C92.1248 125.701 92.0341 125.296 91.8528 124.944C91.6714 124.592 91.4154 124.32 91.0848 124.128C90.7648 123.925 90.3861 123.824 89.9488 123.824C89.5221 123.824 89.1434 123.925 88.8128 124.128C88.4928 124.32 88.2368 124.592 88.0448 124.944C87.8634 125.296 87.7728 125.701 87.7728 126.16C87.7728 126.619 87.8634 127.024 88.0448 127.376C88.2368 127.728 88.4928 128.005 88.8128 128.208C89.1434 128.4 89.5221 128.496 89.9488 128.496ZM92.0128 130V127.936L92.3168 126.064L92.0128 124.208V122.32H93.7728V130H92.0128ZM98.878 130.16C98.2273 130.16 97.646 130.016 97.134 129.728C96.6327 129.44 96.238 129.045 95.95 128.544C95.6727 128.032 95.534 127.445 95.534 126.784V122.32H97.294V126.704C97.294 127.077 97.3527 127.397 97.47 127.664C97.598 127.92 97.7793 128.117 98.014 128.256C98.2593 128.395 98.5473 128.464 98.878 128.464C99.39 128.464 99.7793 128.315 100.046 128.016C100.323 127.707 100.462 127.269 100.462 126.704V122.32H102.222V126.784C102.222 127.456 102.078 128.048 101.79 128.56C101.513 129.061 101.123 129.456 100.622 129.744C100.121 130.021 99.5393 130.16 98.878 130.16ZM103.992 130V118.48H105.752V130H103.992ZM108.878 130V119.12H110.638V130H108.878ZM107.038 123.92V122.32H112.478V123.92H107.038Z" fill="#FBFBFC"/>
<path d="M153 124C153 112.686 153 107.029 156.515 103.515C160.029 100 165.686 100 177 100H205C216.314 100 221.971 100 225.485 103.515C229 107.029 229 112.686 229 124V124C229 135.314 229 140.971 225.485 144.485C221.971 148 216.314 148 205 148H177C165.686 148 160.029 148 156.515 144.485C153 140.971 153 135.314 153 124V124Z" fill="#6061EE"/>
<path d="M170.529 130V118.8H172.369V130H170.529ZM177.649 130V118.8H179.489V130H177.649ZM171.793 125.04V123.36H178.049V125.04H171.793ZM185.199 130.16C184.452 130.16 183.775 129.984 183.167 129.632C182.559 129.269 182.074 128.784 181.711 128.176C181.359 127.568 181.183 126.891 181.183 126.144C181.183 125.397 181.359 124.725 181.711 124.128C182.074 123.531 182.559 123.056 183.167 122.704C183.775 122.341 184.452 122.16 185.199 122.16C185.956 122.16 186.639 122.336 187.247 122.688C187.855 123.04 188.335 123.52 188.687 124.128C189.05 124.725 189.231 125.397 189.231 126.144C189.231 126.891 189.05 127.568 188.687 128.176C188.335 128.784 187.855 129.269 187.247 129.632C186.639 129.984 185.956 130.16 185.199 130.16ZM185.199 128.464C185.636 128.464 186.02 128.368 186.351 128.176C186.692 127.973 186.954 127.696 187.135 127.344C187.327 126.992 187.423 126.592 187.423 126.144C187.423 125.696 187.327 125.301 187.135 124.96C186.943 124.619 186.682 124.352 186.351 124.16C186.02 123.957 185.636 123.856 185.199 123.856C184.772 123.856 184.388 123.957 184.047 124.16C183.716 124.352 183.455 124.619 183.263 124.96C183.082 125.301 182.991 125.696 182.991 126.144C182.991 126.592 183.082 126.992 183.263 127.344C183.455 127.696 183.716 127.973 184.047 128.176C184.388 128.368 184.772 128.464 185.199 128.464ZM193.021 130L189.517 122.32H191.469L194.141 128.576H192.989L195.677 122.32H197.549L194.045 130H193.021ZM201.888 130.16C201.12 130.16 200.426 129.989 199.808 129.648C199.2 129.296 198.714 128.816 198.352 128.208C198 127.6 197.824 126.917 197.824 126.16C197.824 125.403 198 124.725 198.352 124.128C198.704 123.52 199.178 123.04 199.776 122.688C200.384 122.336 201.056 122.16 201.792 122.16C202.506 122.16 203.136 122.325 203.68 122.656C204.234 122.987 204.666 123.44 204.976 124.016C205.296 124.592 205.456 125.248 205.456 125.984C205.456 126.112 205.445 126.245 205.424 126.384C205.413 126.512 205.392 126.656 205.36 126.816H199.056V125.376H204.448L203.792 125.952C203.77 125.483 203.68 125.088 203.52 124.768C203.36 124.448 203.13 124.203 202.832 124.032C202.544 123.861 202.186 123.776 201.76 123.776C201.312 123.776 200.922 123.872 200.592 124.064C200.261 124.256 200.005 124.528 199.824 124.88C199.642 125.221 199.552 125.632 199.552 126.112C199.552 126.592 199.648 127.013 199.84 127.376C200.032 127.739 200.304 128.021 200.656 128.224C201.008 128.416 201.413 128.512 201.872 128.512C202.266 128.512 202.629 128.443 202.96 128.304C203.301 128.165 203.589 127.963 203.824 127.696L204.944 128.832C204.57 129.269 204.117 129.6 203.584 129.824C203.05 130.048 202.485 130.16 201.888 130.16ZM206.867 130V122.32H208.627V130H206.867ZM208.627 125.728L208.019 125.424C208.019 124.453 208.232 123.669 208.659 123.072C209.096 122.464 209.752 122.16 210.627 122.16C211.011 122.16 211.357 122.229 211.667 122.368C211.976 122.507 212.264 122.731 212.531 123.04L211.379 124.224C211.24 124.075 211.085 123.968 210.915 123.904C210.744 123.84 210.547 123.808 210.323 123.808C209.832 123.808 209.427 123.963 209.107 124.272C208.787 124.581 208.627 125.067 208.627 125.728Z" fill="#FBFBFC"/>
<path d="M304 98L307.981 98.0068C311.729 98.0273 314.788 98.1104 317.301 98.4482C320.679 98.9025 323.218 99.8335 325.192 101.808C327.166 103.782 328.097 106.321 328.552 109.699C329.002 113.049 329 117.371 329 123V125C329 130.629 329.002 134.951 328.552 138.301C328.097 141.679 327.166 144.218 325.192 146.192C323.218 148.166 320.679 149.097 317.301 149.552C313.951 150.002 309.629 150 304 150H277C271.371 150 267.049 150.002 263.699 149.552C260.321 149.097 257.782 148.166 255.808 146.192C253.834 144.218 252.903 141.679 252.448 138.301C251.998 134.951 252 130.629 252 125V123C252 117.371 251.998 113.049 252.448 109.699C252.903 106.321 253.834 103.782 255.808 101.808C257.782 99.8335 260.321 98.9025 263.699 98.4482C267.049 97.9979 271.371 98 277 98H304Z" stroke="#6061EE" stroke-width="2"/>
<path d="M254 124C254 112.686 254 107.029 257.515 103.515C261.029 100 266.686 100 278 100H303C314.314 100 319.971 100 323.485 103.515C327 107.029 327 112.686 327 124V124C327 135.314 327 140.971 323.485 144.485C319.971 148 314.314 148 303 148H278C266.686 148 261.029 148 257.515 144.485C254 140.971 254 135.314 254 124V124Z" fill="#6061EE"/>
<path d="M271.357 130V118.8H273.197V130H271.357ZM272.621 125.2V123.52H278.317V125.2H272.621ZM272.621 120.48V118.8H278.589V120.48H272.621ZM283.402 130.16C282.656 130.16 281.978 129.984 281.37 129.632C280.762 129.269 280.277 128.784 279.914 128.176C279.562 127.568 279.386 126.891 279.386 126.144C279.386 125.397 279.562 124.725 279.914 124.128C280.277 123.531 280.762 123.056 281.37 122.704C281.978 122.341 282.656 122.16 283.402 122.16C284.16 122.16 284.842 122.336 285.45 122.688C286.058 123.04 286.538 123.52 286.89 124.128C287.253 124.725 287.434 125.397 287.434 126.144C287.434 126.891 287.253 127.568 286.89 128.176C286.538 128.784 286.058 129.269 285.45 129.632C284.842 129.984 284.16 130.16 283.402 130.16ZM283.402 128.464C283.84 128.464 284.224 128.368 284.554 128.176C284.896 127.973 285.157 127.696 285.338 127.344C285.53 126.992 285.626 126.592 285.626 126.144C285.626 125.696 285.53 125.301 285.338 124.96C285.146 124.619 284.885 124.352 284.554 124.16C284.224 123.957 283.84 123.856 283.402 123.856C282.976 123.856 282.592 123.957 282.25 124.16C281.92 124.352 281.658 124.619 281.466 124.96C281.285 125.301 281.194 125.696 281.194 126.144C281.194 126.592 281.285 126.992 281.466 127.344C281.658 127.696 281.92 127.973 282.25 128.176C282.592 128.368 282.976 128.464 283.402 128.464ZM292.434 130.16C291.677 130.16 290.989 129.984 290.37 129.632C289.762 129.28 289.282 128.8 288.93 128.192C288.578 127.584 288.402 126.907 288.402 126.16C288.402 125.403 288.578 124.725 288.93 124.128C289.282 123.52 289.762 123.04 290.37 122.688C290.989 122.336 291.677 122.16 292.434 122.16C293.031 122.16 293.586 122.277 294.098 122.512C294.621 122.736 295.063 123.061 295.426 123.488L294.274 124.656C294.05 124.389 293.778 124.192 293.458 124.064C293.149 123.925 292.807 123.856 292.434 123.856C291.997 123.856 291.607 123.957 291.266 124.16C290.935 124.352 290.674 124.619 290.482 124.96C290.301 125.301 290.21 125.701 290.21 126.16C290.21 126.608 290.301 127.008 290.482 127.36C290.674 127.701 290.935 127.973 291.266 128.176C291.607 128.368 291.997 128.464 292.434 128.464C292.807 128.464 293.149 128.4 293.458 128.272C293.778 128.133 294.05 127.931 294.274 127.664L295.426 128.832C295.063 129.259 294.621 129.589 294.098 129.824C293.586 130.048 293.031 130.16 292.434 130.16ZM299.847 130.16C299.196 130.16 298.615 130.016 298.103 129.728C297.601 129.44 297.207 129.045 296.919 128.544C296.641 128.032 296.503 127.445 296.503 126.784V122.32H298.263V126.704C298.263 127.077 298.321 127.397 298.439 127.664C298.567 127.92 298.748 128.117 298.983 128.256C299.228 128.395 299.516 128.464 299.847 128.464C300.359 128.464 300.748 128.315 301.015 128.016C301.292 127.707 301.431 127.269 301.431 126.704V122.32H303.191V126.784C303.191 127.456 303.047 128.048 302.759 128.56C302.481 129.061 302.092 129.456 301.591 129.744C301.089 130.021 300.508 130.16 299.847 130.16ZM307.472 130.16C307.046 130.16 306.635 130.107 306.24 130C305.846 129.883 305.483 129.723 305.152 129.52C304.822 129.307 304.534 129.051 304.288 128.752L305.408 127.632C305.675 127.941 305.979 128.176 306.32 128.336C306.672 128.485 307.067 128.56 307.504 128.56C307.899 128.56 308.198 128.501 308.4 128.384C308.603 128.267 308.704 128.096 308.704 127.872C308.704 127.637 308.608 127.456 308.416 127.328C308.224 127.2 307.974 127.093 307.664 127.008C307.366 126.912 307.046 126.816 306.704 126.72C306.374 126.624 306.054 126.496 305.744 126.336C305.446 126.165 305.2 125.936 305.008 125.648C304.816 125.36 304.72 124.987 304.72 124.528C304.72 124.037 304.832 123.616 305.056 123.264C305.291 122.912 305.616 122.64 306.032 122.448C306.459 122.256 306.966 122.16 307.552 122.16C308.171 122.16 308.715 122.272 309.184 122.496C309.664 122.709 310.064 123.035 310.384 123.472L309.264 124.592C309.04 124.315 308.784 124.107 308.496 123.968C308.208 123.829 307.878 123.76 307.504 123.76C307.152 123.76 306.88 123.813 306.688 123.92C306.496 124.027 306.4 124.181 306.4 124.384C306.4 124.597 306.496 124.763 306.688 124.88C306.88 124.997 307.126 125.099 307.424 125.184C307.734 125.269 308.054 125.365 308.384 125.472C308.726 125.568 309.046 125.707 309.344 125.888C309.654 126.059 309.904 126.293 310.096 126.592C310.288 126.88 310.384 127.259 310.384 127.728C310.384 128.475 310.123 129.067 309.6 129.504C309.078 129.941 308.368 130.16 307.472 130.16Z" fill="#FBFBFC"/>
<path d="M352 124C352 112.686 352 107.029 355.515 103.515C359.029 100 364.686 100 376 100H446C457.314 100 462.971 100 466.485 103.515C470 107.029 470 112.686 470 124V124C470 135.314 470 140.971 466.485 144.485C462.971 148 457.314 148 446 148H376C364.686 148 359.029 148 355.515 144.485C352 140.971 352 135.314 352 124V124Z" fill="#413ABD"/>
<path d="M368.845 130L373.453 118.8H374.733L379.309 130H377.325L373.741 120.928H374.413L370.797 130H368.845ZM371.117 127.84V126.24H377.053V127.84H371.117ZM383.754 130.16C382.997 130.16 382.309 129.984 381.69 129.632C381.082 129.28 380.602 128.8 380.25 128.192C379.898 127.584 379.722 126.907 379.722 126.16C379.722 125.403 379.898 124.725 380.25 124.128C380.602 123.52 381.082 123.04 381.69 122.688C382.309 122.336 382.997 122.16 383.754 122.16C384.352 122.16 384.906 122.277 385.418 122.512C385.941 122.736 386.384 123.061 386.746 123.488L385.594 124.656C385.37 124.389 385.098 124.192 384.778 124.064C384.469 123.925 384.128 123.856 383.754 123.856C383.317 123.856 382.928 123.957 382.586 124.16C382.256 124.352 381.994 124.619 381.802 124.96C381.621 125.301 381.53 125.701 381.53 126.16C381.53 126.608 381.621 127.008 381.802 127.36C381.994 127.701 382.256 127.973 382.586 128.176C382.928 128.368 383.317 128.464 383.754 128.464C384.128 128.464 384.469 128.4 384.778 128.272C385.098 128.133 385.37 127.931 385.594 127.664L386.746 128.832C386.384 129.259 385.941 129.589 385.418 129.824C384.906 130.048 384.352 130.16 383.754 130.16ZM389.058 130V119.12H390.818V130H389.058ZM387.218 123.92V122.32H392.658V123.92H387.218ZM393.953 130V122.32H395.713V130H393.953ZM394.833 120.912C394.534 120.912 394.284 120.811 394.081 120.608C393.889 120.405 393.793 120.155 393.793 119.856C393.793 119.557 393.889 119.307 394.081 119.104C394.284 118.901 394.534 118.8 394.833 118.8C395.142 118.8 395.393 118.901 395.585 119.104C395.777 119.307 395.873 119.557 395.873 119.856C395.873 120.155 395.777 120.405 395.585 120.608C395.393 120.811 395.142 120.912 394.833 120.912ZM400.279 130L396.775 122.32H398.727L401.399 128.576H400.247L402.935 122.32H404.807L401.303 130H400.279ZM409.146 130.16C408.378 130.16 407.684 129.989 407.066 129.648C406.458 129.296 405.972 128.816 405.61 128.208C405.258 127.6 405.082 126.917 405.082 126.16C405.082 125.403 405.258 124.725 405.61 124.128C405.962 123.52 406.436 123.04 407.034 122.688C407.642 122.336 408.314 122.16 409.05 122.16C409.764 122.16 410.394 122.325 410.938 122.656C411.492 122.987 411.924 123.44 412.234 124.016C412.554 124.592 412.714 125.248 412.714 125.984C412.714 126.112 412.703 126.245 412.682 126.384C412.671 126.512 412.65 126.656 412.618 126.816H406.314V125.376H411.706L411.05 125.952C411.028 125.483 410.938 125.088 410.778 124.768C410.618 124.448 410.388 124.203 410.09 124.032C409.802 123.861 409.444 123.776 409.018 123.776C408.57 123.776 408.18 123.872 407.85 124.064C407.519 124.256 407.263 124.528 407.082 124.88C406.9 125.221 406.81 125.632 406.81 126.112C406.81 126.592 406.906 127.013 407.098 127.376C407.29 127.739 407.562 128.021 407.914 128.224C408.266 128.416 408.671 128.512 409.13 128.512C409.524 128.512 409.887 128.443 410.218 128.304C410.559 128.165 410.847 127.963 411.082 127.696L412.202 128.832C411.828 129.269 411.375 129.6 410.842 129.824C410.308 130.048 409.743 130.16 409.146 130.16ZM413.292 130.64L417.772 118.16H419.42L414.94 130.64H413.292ZM425.484 130.16C424.673 130.16 423.921 130.016 423.228 129.728C422.545 129.429 421.948 129.019 421.436 128.496C420.924 127.963 420.529 127.349 420.252 126.656C419.974 125.952 419.836 125.2 419.836 124.4C419.836 123.6 419.974 122.853 420.252 122.16C420.529 121.456 420.924 120.843 421.436 120.32C421.948 119.797 422.545 119.387 423.228 119.088C423.921 118.789 424.673 118.64 425.484 118.64C426.39 118.64 427.174 118.789 427.836 119.088C428.497 119.387 429.084 119.792 429.596 120.304L428.348 121.552C428.017 121.189 427.612 120.907 427.132 120.704C426.662 120.501 426.113 120.4 425.484 120.4C424.929 120.4 424.422 120.496 423.964 120.688C423.505 120.88 423.105 121.157 422.764 121.52C422.433 121.872 422.177 122.293 421.996 122.784C421.814 123.275 421.724 123.813 421.724 124.4C421.724 124.987 421.814 125.525 421.996 126.016C422.177 126.507 422.433 126.933 422.764 127.296C423.105 127.648 423.505 127.92 423.964 128.112C424.422 128.304 424.929 128.4 425.484 128.4C426.166 128.4 426.742 128.299 427.212 128.096C427.692 127.883 428.097 127.595 428.428 127.232L429.676 128.48C429.164 129.003 428.561 129.413 427.868 129.712C427.174 130.011 426.38 130.16 425.484 130.16ZM431.078 130V118.48H432.838V130H431.078ZM434.812 130V122.32H436.572V130H434.812ZM435.692 120.912C435.394 120.912 435.143 120.811 434.94 120.608C434.748 120.405 434.652 120.155 434.652 119.856C434.652 119.557 434.748 119.307 434.94 119.104C435.143 118.901 435.394 118.8 435.692 118.8C436.002 118.8 436.252 118.901 436.444 119.104C436.636 119.307 436.732 119.557 436.732 119.856C436.732 120.155 436.636 120.405 436.444 120.608C436.252 120.811 436.002 120.912 435.692 120.912ZM442.082 130.16C441.325 130.16 440.637 129.984 440.018 129.632C439.41 129.28 438.93 128.8 438.578 128.192C438.226 127.584 438.05 126.907 438.05 126.16C438.05 125.403 438.226 124.725 438.578 124.128C438.93 123.52 439.41 123.04 440.018 122.688C440.637 122.336 441.325 122.16 442.082 122.16C442.68 122.16 443.234 122.277 443.746 122.512C444.269 122.736 444.712 123.061 445.074 123.488L443.922 124.656C443.698 124.389 443.426 124.192 443.106 124.064C442.797 123.925 442.456 123.856 442.082 123.856C441.645 123.856 441.256 123.957 440.914 124.16C440.584 124.352 440.322 124.619 440.13 124.96C439.949 125.301 439.858 125.701 439.858 126.16C439.858 126.608 439.949 127.008 440.13 127.36C440.322 127.701 440.584 127.973 440.914 128.176C441.256 128.368 441.645 128.464 442.082 128.464C442.456 128.464 442.797 128.4 443.106 128.272C443.426 128.133 443.698 127.931 443.922 127.664L445.074 128.832C444.712 129.259 444.269 129.589 443.746 129.824C443.234 130.048 442.68 130.16 442.082 130.16ZM451.223 130L447.975 126.08L451.207 122.32H453.303L449.591 126.544L449.671 125.536L453.463 130H451.223ZM446.343 130V118.48H448.103V130H446.343Z" fill="#FBFBFC"/>
<path d="M494 124C494 112.686 494 107.029 497.515 103.515C501.029 100 506.686 100 518 100H611C622.314 100 627.971 100 631.485 103.515C635 107.029 635 112.686 635 124V124C635 135.314 635 140.971 631.485 144.485C627.971 148 622.314 148 611 148H518C506.686 148 501.029 148 497.515 144.485C494 140.971 494 135.314 494 124V124Z" fill="#413ABD"/>
<path d="M523.125 115V118C523.125 118.298 523.006 118.585 522.795 118.795C522.585 119.006 522.298 119.125 522 119.125C521.702 119.125 521.415 119.006 521.205 118.795C520.994 118.585 520.875 118.298 520.875 118V115C520.875 114.702 520.994 114.415 521.205 114.205C521.415 113.994 521.702 113.875 522 113.875C522.298 113.875 522.585 113.994 522.795 114.205C523.006 114.415 523.125 114.702 523.125 115ZM531 122.875H528C527.702 122.875 527.415 122.994 527.205 123.205C526.994 123.415 526.875 123.702 526.875 124C526.875 124.298 526.994 124.585 527.205 124.795C527.415 125.006 527.702 125.125 528 125.125H531C531.298 125.125 531.585 125.006 531.795 124.795C532.006 124.585 532.125 124.298 532.125 124C532.125 123.702 532.006 123.415 531.795 123.205C531.585 122.994 531.298 122.875 531 122.875ZM527.038 127.447C526.933 127.343 526.809 127.26 526.673 127.203C526.536 127.146 526.389 127.117 526.241 127.117C526.093 127.117 525.947 127.146 525.81 127.203C525.673 127.26 525.549 127.343 525.444 127.447C525.34 127.552 525.257 127.676 525.2 127.813C525.143 127.95 525.114 128.096 525.114 128.244C525.114 128.392 525.143 128.539 525.2 128.675C525.257 128.812 525.34 128.936 525.444 129.041L527.566 131.162C527.777 131.374 528.064 131.493 528.363 131.493C528.662 131.493 528.948 131.374 529.16 131.162C529.371 130.951 529.49 130.665 529.49 130.366C529.49 130.067 529.371 129.78 529.16 129.569L527.038 127.447ZM522 128.875C521.702 128.875 521.415 128.994 521.205 129.205C520.994 129.415 520.875 129.702 520.875 130V133C520.875 133.298 520.994 133.585 521.205 133.795C521.415 134.006 521.702 134.125 522 134.125C522.298 134.125 522.585 134.006 522.795 133.795C523.006 133.585 523.125 133.298 523.125 133V130C523.125 129.702 523.006 129.415 522.795 129.205C522.585 128.994 522.298 128.875 522 128.875ZM516.962 127.447L514.84 129.569C514.629 129.78 514.51 130.067 514.51 130.366C514.51 130.665 514.629 130.951 514.84 131.162C515.052 131.374 515.338 131.493 515.637 131.493C515.936 131.493 516.223 131.374 516.434 131.162L518.556 129.041C518.767 128.83 518.886 128.543 518.886 128.244C518.886 127.945 518.767 127.659 518.556 127.447C518.344 127.236 518.058 127.117 517.759 127.117C517.46 127.117 517.173 127.236 516.962 127.447ZM517.125 124C517.125 123.702 517.006 123.415 516.795 123.205C516.585 122.994 516.298 122.875 516 122.875H513C512.702 122.875 512.415 122.994 512.205 123.205C511.994 123.415 511.875 123.702 511.875 124C511.875 124.298 511.994 124.585 512.205 124.795C512.415 125.006 512.702 125.125 513 125.125H516C516.298 125.125 516.585 125.006 516.795 124.795C517.006 124.585 517.125 124.298 517.125 124ZM516.431 116.84C516.22 116.629 515.933 116.51 515.634 116.51C515.335 116.51 515.049 116.629 514.837 116.84C514.626 117.052 514.507 117.338 514.507 117.637C514.507 117.936 514.626 118.223 514.837 118.434L516.962 120.553C517.173 120.764 517.46 120.883 517.759 120.883C518.058 120.883 518.344 120.764 518.556 120.553C518.767 120.341 518.886 120.055 518.886 119.756C518.886 119.457 518.767 119.17 518.556 118.959L516.431 116.84Z" fill="#FBFBFC"/>
<path d="M544.652 125.776V124.176H547.452C547.836 124.176 548.172 124.101 548.46 123.952C548.759 123.792 548.993 123.573 549.164 123.296C549.335 123.008 549.42 122.672 549.42 122.288C549.42 121.904 549.335 121.573 549.164 121.296C548.993 121.008 548.759 120.789 548.46 120.64C548.172 120.48 547.836 120.4 547.452 120.4H544.652V118.8H547.548C548.252 118.8 548.881 118.944 549.436 119.232C550.001 119.52 550.444 119.925 550.764 120.448C551.095 120.971 551.26 121.584 551.26 122.288C551.26 122.992 551.095 123.605 550.764 124.128C550.444 124.651 550.001 125.056 549.436 125.344C548.881 125.632 548.252 125.776 547.548 125.776H544.652ZM543.388 130V118.8H545.228V130H543.388ZM552.804 130V122.32H554.564V130H552.804ZM554.564 125.728L553.956 125.424C553.956 124.453 554.169 123.669 554.596 123.072C555.033 122.464 555.689 122.16 556.564 122.16C556.948 122.16 557.295 122.229 557.604 122.368C557.913 122.507 558.201 122.731 558.468 123.04L557.316 124.224C557.177 124.075 557.023 123.968 556.852 123.904C556.681 123.84 556.484 123.808 556.26 123.808C555.769 123.808 555.364 123.963 555.044 124.272C554.724 124.581 554.564 125.067 554.564 125.728ZM562.605 130.16C561.859 130.16 561.181 129.984 560.573 129.632C559.965 129.269 559.48 128.784 559.117 128.176C558.765 127.568 558.589 126.891 558.589 126.144C558.589 125.397 558.765 124.725 559.117 124.128C559.48 123.531 559.965 123.056 560.573 122.704C561.181 122.341 561.859 122.16 562.605 122.16C563.363 122.16 564.045 122.336 564.653 122.688C565.261 123.04 565.741 123.52 566.093 124.128C566.456 124.725 566.637 125.397 566.637 126.144C566.637 126.891 566.456 127.568 566.093 128.176C565.741 128.784 565.261 129.269 564.653 129.632C564.045 129.984 563.363 130.16 562.605 130.16ZM562.605 128.464C563.043 128.464 563.427 128.368 563.757 128.176C564.099 127.973 564.36 127.696 564.541 127.344C564.733 126.992 564.829 126.592 564.829 126.144C564.829 125.696 564.733 125.301 564.541 124.96C564.349 124.619 564.088 124.352 563.757 124.16C563.427 123.957 563.043 123.856 562.605 123.856C562.179 123.856 561.795 123.957 561.453 124.16C561.123 124.352 560.861 124.619 560.669 124.96C560.488 125.301 560.397 125.696 560.397 126.144C560.397 126.592 560.488 126.992 560.669 127.344C560.861 127.696 561.123 127.973 561.453 128.176C561.795 128.368 562.179 128.464 562.605 128.464ZM571.637 130.16C570.88 130.16 570.192 129.984 569.573 129.632C568.965 129.28 568.485 128.8 568.133 128.192C567.781 127.584 567.605 126.907 567.605 126.16C567.605 125.403 567.781 124.725 568.133 124.128C568.485 123.52 568.965 123.04 569.573 122.688C570.192 122.336 570.88 122.16 571.637 122.16C572.234 122.16 572.789 122.277 573.301 122.512C573.824 122.736 574.266 123.061 574.629 123.488L573.477 124.656C573.253 124.389 572.981 124.192 572.661 124.064C572.352 123.925 572.01 123.856 571.637 123.856C571.2 123.856 570.81 123.957 570.469 124.16C570.138 124.352 569.877 124.619 569.685 124.96C569.504 125.301 569.413 125.701 569.413 126.16C569.413 126.608 569.504 127.008 569.685 127.36C569.877 127.701 570.138 127.973 570.469 128.176C570.81 128.368 571.2 128.464 571.637 128.464C572.01 128.464 572.352 128.4 572.661 128.272C572.981 128.133 573.253 127.931 573.477 127.664L574.629 128.832C574.266 129.259 573.824 129.589 573.301 129.824C572.789 130.048 572.234 130.16 571.637 130.16ZM579.31 130.16C578.542 130.16 577.848 129.989 577.23 129.648C576.622 129.296 576.136 128.816 575.774 128.208C575.422 127.6 575.246 126.917 575.246 126.16C575.246 125.403 575.422 124.725 575.774 124.128C576.126 123.52 576.6 123.04 577.198 122.688C577.806 122.336 578.478 122.16 579.214 122.16C579.928 122.16 580.558 122.325 581.102 122.656C581.656 122.987 582.088 123.44 582.398 124.016C582.718 124.592 582.878 125.248 582.878 125.984C582.878 126.112 582.867 126.245 582.846 126.384C582.835 126.512 582.814 126.656 582.782 126.816H576.478V125.376H581.87L581.214 125.952C581.192 125.483 581.102 125.088 580.942 124.768C580.782 124.448 580.552 124.203 580.254 124.032C579.966 123.861 579.608 123.776 579.182 123.776C578.734 123.776 578.344 123.872 578.014 124.064C577.683 124.256 577.427 124.528 577.246 124.88C577.064 125.221 576.974 125.632 576.974 126.112C576.974 126.592 577.07 127.013 577.262 127.376C577.454 127.739 577.726 128.021 578.078 128.224C578.43 128.416 578.835 128.512 579.294 128.512C579.688 128.512 580.051 128.443 580.382 128.304C580.723 128.165 581.011 127.963 581.246 127.696L582.366 128.832C581.992 129.269 581.539 129.6 581.006 129.824C580.472 130.048 579.907 130.16 579.31 130.16ZM586.801 130.16C586.374 130.16 585.963 130.107 585.569 130C585.174 129.883 584.811 129.723 584.481 129.52C584.15 129.307 583.862 129.051 583.617 128.752L584.737 127.632C585.003 127.941 585.307 128.176 585.649 128.336C586.001 128.485 586.395 128.56 586.833 128.56C587.227 128.56 587.526 128.501 587.729 128.384C587.931 128.267 588.033 128.096 588.033 127.872C588.033 127.637 587.937 127.456 587.745 127.328C587.553 127.2 587.302 127.093 586.993 127.008C586.694 126.912 586.374 126.816 586.033 126.72C585.702 126.624 585.382 126.496 585.073 126.336C584.774 126.165 584.529 125.936 584.337 125.648C584.145 125.36 584.049 124.987 584.049 124.528C584.049 124.037 584.161 123.616 584.385 123.264C584.619 122.912 584.945 122.64 585.361 122.448C585.787 122.256 586.294 122.16 586.881 122.16C587.499 122.16 588.043 122.272 588.513 122.496C588.993 122.709 589.393 123.035 589.713 123.472L588.593 124.592C588.369 124.315 588.113 124.107 587.825 123.968C587.537 123.829 587.206 123.76 586.833 123.76C586.481 123.76 586.209 123.813 586.017 123.92C585.825 124.027 585.729 124.181 585.729 124.384C585.729 124.597 585.825 124.763 586.017 124.88C586.209 124.997 586.454 125.099 586.753 125.184C587.062 125.269 587.382 125.365 587.713 125.472C588.054 125.568 588.374 125.707 588.673 125.888C588.982 126.059 589.233 126.293 589.425 126.592C589.617 126.88 589.713 127.259 589.713 127.728C589.713 128.475 589.451 129.067 588.929 129.504C588.406 129.941 587.697 130.16 586.801 130.16ZM593.676 130.16C593.249 130.16 592.838 130.107 592.444 130C592.049 129.883 591.686 129.723 591.356 129.52C591.025 129.307 590.737 129.051 590.492 128.752L591.612 127.632C591.878 127.941 592.182 128.176 592.524 128.336C592.876 128.485 593.27 128.56 593.708 128.56C594.102 128.56 594.401 128.501 594.604 128.384C594.806 128.267 594.908 128.096 594.908 127.872C594.908 127.637 594.812 127.456 594.62 127.328C594.428 127.2 594.177 127.093 593.868 127.008C593.569 126.912 593.249 126.816 592.908 126.72C592.577 126.624 592.257 126.496 591.948 126.336C591.649 126.165 591.404 125.936 591.212 125.648C591.02 125.36 590.924 124.987 590.924 124.528C590.924 124.037 591.036 123.616 591.26 123.264C591.494 122.912 591.82 122.64 592.236 122.448C592.662 122.256 593.169 122.16 593.756 122.16C594.374 122.16 594.918 122.272 595.388 122.496C595.868 122.709 596.268 123.035 596.588 123.472L595.468 124.592C595.244 124.315 594.988 124.107 594.7 123.968C594.412 123.829 594.081 123.76 593.708 123.76C593.356 123.76 593.084 123.813 592.892 123.92C592.7 124.027 592.604 124.181 592.604 124.384C592.604 124.597 592.7 124.763 592.892 124.88C593.084 124.997 593.329 125.099 593.628 125.184C593.937 125.269 594.257 125.365 594.588 125.472C594.929 125.568 595.249 125.707 595.548 125.888C595.857 126.059 596.108 126.293 596.3 126.592C596.492 126.88 596.588 127.259 596.588 127.728C596.588 128.475 596.326 129.067 595.804 129.504C595.281 129.941 594.572 130.16 593.676 130.16ZM598.055 130V122.32H599.815V130H598.055ZM598.935 120.912C598.636 120.912 598.385 120.811 598.183 120.608C597.991 120.405 597.895 120.155 597.895 119.856C597.895 119.557 597.991 119.307 598.183 119.104C598.385 118.901 598.636 118.8 598.935 118.8C599.244 118.8 599.495 118.901 599.687 119.104C599.879 119.307 599.975 119.557 599.975 119.856C599.975 120.155 599.879 120.405 599.687 120.608C599.495 120.811 599.244 120.912 598.935 120.912ZM607.053 130V125.568C607.053 125.056 606.887 124.635 606.557 124.304C606.237 123.973 605.821 123.808 605.309 123.808C604.967 123.808 604.663 123.883 604.397 124.032C604.13 124.181 603.922 124.389 603.773 124.656C603.623 124.923 603.549 125.227 603.549 125.568L602.861 125.184C602.861 124.597 602.989 124.08 603.245 123.632C603.501 123.173 603.853 122.816 604.301 122.56C604.759 122.293 605.271 122.16 605.837 122.16C606.413 122.16 606.925 122.309 607.373 122.608C607.821 122.896 608.173 123.275 608.429 123.744C608.685 124.203 608.812 124.683 608.812 125.184V130H607.053ZM601.789 130V122.32H603.549V130H601.789ZM613.801 133.36C612.99 133.36 612.281 133.211 611.673 132.912C611.065 132.624 610.574 132.213 610.201 131.68L611.353 130.528C611.662 130.912 612.014 131.2 612.409 131.392C612.804 131.584 613.278 131.68 613.833 131.68C614.526 131.68 615.076 131.499 615.481 131.136C615.886 130.784 616.089 130.299 616.089 129.68V127.792L616.393 126.096L616.089 124.384V122.32H617.849V129.68C617.849 130.416 617.678 131.056 617.337 131.6C616.996 132.155 616.521 132.587 615.913 132.896C615.305 133.205 614.601 133.36 613.801 133.36ZM613.721 129.84C613.038 129.84 612.42 129.675 611.865 129.344C611.321 129.003 610.889 128.539 610.569 127.952C610.26 127.365 610.105 126.709 610.105 125.984C610.105 125.259 610.26 124.608 610.569 124.032C610.889 123.456 611.321 123.003 611.865 122.672C612.42 122.331 613.038 122.16 613.721 122.16C614.329 122.16 614.862 122.283 615.321 122.528C615.78 122.773 616.137 123.115 616.393 123.552C616.649 123.979 616.777 124.48 616.777 125.056V126.944C616.777 127.509 616.644 128.011 616.377 128.448C616.121 128.885 615.764 129.227 615.305 129.472C614.846 129.717 614.318 129.84 613.721 129.84ZM614.073 128.176C614.5 128.176 614.873 128.085 615.193 127.904C615.513 127.723 615.758 127.472 615.929 127.152C616.11 126.821 616.201 126.437 616.201 126C616.201 125.563 616.11 125.184 615.929 124.864C615.758 124.533 615.513 124.277 615.193 124.096C614.873 123.915 614.5 123.824 614.073 123.824C613.646 123.824 613.268 123.915 612.937 124.096C612.617 124.277 612.366 124.533 612.185 124.864C612.004 125.184 611.913 125.563 611.913 126C611.913 126.427 612.004 126.805 612.185 127.136C612.366 127.467 612.617 127.723 612.937 127.904C613.268 128.085 613.646 128.176 614.073 128.176Z" fill="#FBFBFC"/>
<path d="M659 124C659 112.686 659 107.029 662.515 103.515C666.029 100 671.686 100 683 100H730C741.314 100 746.971 100 750.485 103.515C754 107.029 754 112.686 754 124V124C754 135.314 754 140.971 750.485 144.485C746.971 148 741.314 148 730 148H683C671.686 148 666.029 148 662.515 144.485C659 140.971 659 135.314 659 124V124Z" fill="#8691F8"/>
<path d="M677.691 130V128.32H680.635C681.403 128.32 682.075 128.155 682.651 127.824C683.238 127.493 683.691 127.035 684.011 126.448C684.342 125.851 684.507 125.163 684.507 124.384C684.507 123.616 684.342 122.939 684.011 122.352C683.68 121.765 683.222 121.307 682.635 120.976C682.059 120.645 681.392 120.48 680.635 120.48H677.691V118.8H680.683C681.494 118.8 682.246 118.944 682.939 119.232C683.632 119.509 684.235 119.904 684.747 120.416C685.27 120.917 685.675 121.509 685.963 122.192C686.251 122.864 686.395 123.6 686.395 124.4C686.395 125.189 686.251 125.925 685.963 126.608C685.675 127.291 685.275 127.888 684.763 128.4C684.251 128.901 683.648 129.296 682.955 129.584C682.262 129.861 681.515 130 680.715 130H677.691ZM676.427 130V118.8H678.267V130H676.427ZM688.047 130V122.32H689.807V130H688.047ZM688.927 120.912C688.628 120.912 688.377 120.811 688.175 120.608C687.983 120.405 687.887 120.155 687.887 119.856C687.887 119.557 687.983 119.307 688.175 119.104C688.377 118.901 688.628 118.8 688.927 118.8C689.236 118.8 689.487 118.901 689.679 119.104C689.871 119.307 689.967 119.557 689.967 119.856C689.967 120.155 689.871 120.405 689.679 120.608C689.487 120.811 689.236 120.912 688.927 120.912ZM694.293 130.16C693.866 130.16 693.455 130.107 693.061 130C692.666 129.883 692.303 129.723 691.973 129.52C691.642 129.307 691.354 129.051 691.109 128.752L692.229 127.632C692.495 127.941 692.799 128.176 693.141 128.336C693.493 128.485 693.887 128.56 694.325 128.56C694.719 128.56 695.018 128.501 695.221 128.384C695.423 128.267 695.525 128.096 695.525 127.872C695.525 127.637 695.429 127.456 695.237 127.328C695.045 127.2 694.794 127.093 694.485 127.008C694.186 126.912 693.866 126.816 693.525 126.72C693.194 126.624 692.874 126.496 692.565 126.336C692.266 126.165 692.021 125.936 691.829 125.648C691.637 125.36 691.541 124.987 691.541 124.528C691.541 124.037 691.653 123.616 691.877 123.264C692.111 122.912 692.437 122.64 692.853 122.448C693.279 122.256 693.786 122.16 694.373 122.16C694.991 122.16 695.535 122.272 696.005 122.496C696.485 122.709 696.885 123.035 697.205 123.472L696.085 124.592C695.861 124.315 695.605 124.107 695.317 123.968C695.029 123.829 694.698 123.76 694.325 123.76C693.973 123.76 693.701 123.813 693.509 123.92C693.317 124.027 693.221 124.181 693.221 124.384C693.221 124.597 693.317 124.763 693.509 124.88C693.701 124.997 693.946 125.099 694.245 125.184C694.554 125.269 694.874 125.365 695.205 125.472C695.546 125.568 695.866 125.707 696.165 125.888C696.474 126.059 696.725 126.293 696.917 126.592C697.109 126.88 697.205 127.259 697.205 127.728C697.205 128.475 696.943 129.067 696.421 129.504C695.898 129.941 695.189 130.16 694.293 130.16ZM701.872 130.16C701.178 130.16 700.549 129.984 699.984 129.632C699.429 129.28 698.986 128.805 698.656 128.208C698.336 127.6 698.176 126.923 698.176 126.176C698.176 125.419 698.336 124.741 698.656 124.144C698.986 123.536 699.429 123.056 699.984 122.704C700.549 122.341 701.178 122.16 701.872 122.16C702.458 122.16 702.976 122.288 703.424 122.544C703.882 122.789 704.245 123.131 704.512 123.568C704.778 124.005 704.912 124.501 704.912 125.056V127.264C704.912 127.819 704.778 128.315 704.512 128.752C704.256 129.189 703.898 129.536 703.44 129.792C702.981 130.037 702.458 130.16 701.872 130.16ZM702.16 128.496C702.81 128.496 703.333 128.277 703.728 127.84C704.133 127.403 704.336 126.843 704.336 126.16C704.336 125.701 704.245 125.296 704.064 124.944C703.882 124.592 703.626 124.32 703.296 124.128C702.976 123.925 702.597 123.824 702.16 123.824C701.733 123.824 701.354 123.925 701.024 124.128C700.704 124.32 700.448 124.592 700.256 124.944C700.074 125.296 699.984 125.701 699.984 126.16C699.984 126.619 700.074 127.024 700.256 127.376C700.448 127.728 700.704 128.005 701.024 128.208C701.354 128.4 701.733 128.496 702.16 128.496ZM704.224 130V127.936L704.528 126.064L704.224 124.208V122.32H705.984V130H704.224ZM712.049 130.16C711.462 130.16 710.94 130.037 710.481 129.792C710.022 129.536 709.66 129.189 709.393 128.752C709.137 128.315 709.009 127.819 709.009 127.264V125.056C709.009 124.501 709.142 124.005 709.409 123.568C709.676 123.131 710.038 122.789 710.497 122.544C710.956 122.288 711.473 122.16 712.049 122.16C712.742 122.16 713.366 122.341 713.921 122.704C714.486 123.056 714.929 123.536 715.249 124.144C715.58 124.741 715.745 125.419 715.745 126.176C715.745 126.923 715.58 127.6 715.249 128.208C714.929 128.805 714.486 129.28 713.921 129.632C713.366 129.984 712.742 130.16 712.049 130.16ZM707.937 130V118.48H709.697V124.208L709.393 126.064L709.697 127.936V130H707.937ZM711.761 128.496C712.188 128.496 712.561 128.4 712.881 128.208C713.212 128.005 713.468 127.728 713.649 127.376C713.841 127.024 713.937 126.619 713.937 126.16C713.937 125.701 713.841 125.296 713.649 124.944C713.468 124.592 713.212 124.32 712.881 124.128C712.561 123.925 712.188 123.824 711.761 123.824C711.334 123.824 710.956 123.925 710.625 124.128C710.294 124.32 710.038 124.592 709.857 124.944C709.676 125.296 709.585 125.701 709.585 126.16C709.585 126.619 709.676 127.024 709.857 127.376C710.038 127.728 710.294 128.005 710.625 128.208C710.956 128.4 711.334 128.496 711.761 128.496ZM717.218 130V118.48H718.978V130H717.218ZM724.505 130.16C723.737 130.16 723.044 129.989 722.425 129.648C721.817 129.296 721.332 128.816 720.969 128.208C720.617 127.6 720.441 126.917 720.441 126.16C720.441 125.403 720.617 124.725 720.969 124.128C721.321 123.52 721.796 123.04 722.393 122.688C723.001 122.336 723.673 122.16 724.409 122.16C725.124 122.16 725.753 122.325 726.297 122.656C726.852 122.987 727.284 123.44 727.593 124.016C727.913 124.592 728.073 125.248 728.073 125.984C728.073 126.112 728.062 126.245 728.041 126.384C728.03 126.512 728.009 126.656 727.977 126.816H721.673V125.376H727.065L726.409 125.952C726.388 125.483 726.297 125.088 726.137 124.768C725.977 124.448 725.748 124.203 725.449 124.032C725.161 123.861 724.804 123.776 724.377 123.776C723.929 123.776 723.54 123.872 723.209 124.064C722.878 124.256 722.622 124.528 722.441 124.88C722.26 125.221 722.169 125.632 722.169 126.112C722.169 126.592 722.265 127.013 722.457 127.376C722.649 127.739 722.921 128.021 723.273 128.224C723.625 128.416 724.03 128.512 724.489 128.512C724.884 128.512 725.246 128.443 725.577 128.304C725.918 128.165 726.206 127.963 726.441 127.696L727.561 128.832C727.188 129.269 726.734 129.6 726.201 129.824C725.668 130.048 725.102 130.16 724.505 130.16ZM732.7 130.16C732.006 130.16 731.377 129.984 730.812 129.632C730.257 129.28 729.814 128.805 729.484 128.208C729.164 127.6 729.004 126.923 729.004 126.176C729.004 125.419 729.164 124.741 729.484 124.144C729.814 123.536 730.257 123.056 730.812 122.704C731.377 122.341 732.006 122.16 732.7 122.16C733.286 122.16 733.804 122.288 734.252 122.544C734.71 122.789 735.073 123.131 735.34 123.568C735.606 124.005 735.74 124.501 735.74 125.056V127.264C735.74 127.819 735.606 128.315 735.34 128.752C735.084 129.189 734.726 129.536 734.268 129.792C733.809 130.037 733.286 130.16 732.7 130.16ZM732.988 128.496C733.425 128.496 733.804 128.4 734.124 128.208C734.454 128.005 734.71 127.728 734.892 127.376C735.073 127.024 735.164 126.619 735.164 126.16C735.164 125.701 735.073 125.296 734.892 124.944C734.71 124.592 734.454 124.32 734.124 124.128C733.804 123.925 733.425 123.824 732.988 123.824C732.561 123.824 732.182 123.925 731.852 124.128C731.532 124.32 731.276 124.592 731.084 124.944C730.902 125.296 730.812 125.701 730.812 126.16C730.812 126.619 730.902 127.024 731.084 127.376C731.276 127.728 731.532 128.005 731.852 128.208C732.182 128.4 732.561 128.496 732.988 128.496ZM736.812 130H735.052V127.936L735.356 126.064L735.052 124.208V118.48H736.812V130Z" fill="#E7E8EB"/>
</svg>
