<svg width="1246" height="442" viewBox="0 0 1246 442" fill="none" xmlns="http://www.w3.org/2000/svg">
<g clip-path="url(#clip0_14318_819)">
<line x1="0.778938" y1="-64.1816" x2="0.778913" y2="498.508" stroke="#E7E8EB" stroke-width="0.682875"/>
<line x1="48.5758" y1="-62.8164" x2="48.5758" y2="499.873" stroke="#E7E8EB" stroke-width="0.682875"/>
<line x1="96.3805" y1="-61.4492" x2="96.3805" y2="501.24" stroke="#E7E8EB" stroke-width="0.682875"/>
<line x1="144.185" y1="-64.1816" x2="144.185" y2="498.508" stroke="#E7E8EB" stroke-width="0.682875"/>
<line x1="191.982" y1="-62.8164" x2="191.982" y2="499.873" stroke="#E7E8EB" stroke-width="0.682875"/>
<line x1="239.779" y1="-61.4492" x2="239.779" y2="501.24" stroke="#E7E8EB" stroke-width="0.682875"/>
<line x1="287.584" y1="-64.1816" x2="287.584" y2="498.508" stroke="#E7E8EB" stroke-width="0.682875"/>
<line x1="335.388" y1="-62.8164" x2="335.388" y2="499.873" stroke="#E7E8EB" stroke-width="0.682875"/>
<line x1="383.185" y1="-61.4492" x2="383.185" y2="501.24" stroke="#E7E8EB" stroke-width="0.682875"/>
<line x1="430.99" y1="-64.1816" x2="430.99" y2="498.508" stroke="#E7E8EB" stroke-width="0.682875"/>
<line x1="478.795" y1="-62.8164" x2="478.795" y2="499.873" stroke="#E7E8EB" stroke-width="0.682875"/>
<line x1="526.591" y1="-61.4492" x2="526.591" y2="501.24" stroke="#E7E8EB" stroke-width="0.682875"/>
<line x1="574.388" y1="-64.1816" x2="574.388" y2="498.508" stroke="#E7E8EB" stroke-width="0.682875"/>
<line x1="622.193" y1="-62.8164" x2="622.193" y2="499.873" stroke="#E7E8EB" stroke-width="0.682875"/>
<line x1="669.998" y1="-61.4492" x2="669.998" y2="501.24" stroke="#E7E8EB" stroke-width="0.682875"/>
<line x1="717.795" y1="-64.1816" x2="717.795" y2="498.508" stroke="#E7E8EB" stroke-width="0.682875"/>
<line x1="765.591" y1="-62.8164" x2="765.591" y2="499.873" stroke="#E7E8EB" stroke-width="0.682875"/>
<line x1="813.404" y1="-61.4492" x2="813.404" y2="501.24" stroke="#E7E8EB" stroke-width="0.682875"/>
<line x1="862.56" y1="-64.1816" x2="862.56" y2="498.508" stroke="#E7E8EB" stroke-width="0.682875"/>
<line x1="910.373" y1="-62.8164" x2="910.373" y2="499.873" stroke="#E7E8EB" stroke-width="0.682875"/>
<line x1="958.17" y1="-61.4492" x2="958.17" y2="501.24" stroke="#E7E8EB" stroke-width="0.682875"/>
<line x1="1005.97" y1="-64.1816" x2="1005.97" y2="498.508" stroke="#E7E8EB" stroke-width="0.682875"/>
<line x1="1053.77" y1="-62.8164" x2="1053.77" y2="499.873" stroke="#E7E8EB" stroke-width="0.682875"/>
<line x1="1101.58" y1="-61.4492" x2="1101.58" y2="501.24" stroke="#E7E8EB" stroke-width="0.682875"/>
<line x1="1149.37" y1="-64.1816" x2="1149.37" y2="498.508" stroke="#E7E8EB" stroke-width="0.682875"/>
<line x1="1197.17" y1="-62.8164" x2="1197.17" y2="499.873" stroke="#E7E8EB" stroke-width="0.682875"/>
<line x1="1244.98" y1="-61.4492" x2="1244.98" y2="501.24" stroke="#E7E8EB" stroke-width="0.682875"/>
<line x1="1246" y1="29.3414" x2="-43" y2="29.3413" stroke="#E7E8EB" stroke-width="0.682875"/>
<line x1="1245" y1="76.3414" x2="-43" y2="76.3414" stroke="#E7E8EB" stroke-width="0.682875"/>
<line x1="1246" y1="124.341" x2="-43" y2="124.341" stroke="#E7E8EB" stroke-width="0.682875"/>
<line x1="1246" y1="171.341" x2="-43" y2="171.341" stroke="#E7E8EB" stroke-width="0.682875"/>
<line x1="1246" y1="219.341" x2="-43" y2="219.341" stroke="#E7E8EB" stroke-width="0.682875"/>
<line x1="1245" y1="266.341" x2="-43" y2="266.341" stroke="#E7E8EB" stroke-width="0.682875"/>
<line x1="1246" y1="314.341" x2="-43" y2="314.341" stroke="#E7E8EB" stroke-width="0.682875"/>
<line x1="1246" y1="359.341" x2="-43" y2="359.341" stroke="#E7E8EB" stroke-width="0.682875"/>
<line x1="1246" y1="406.341" x2="-43" y2="406.341" stroke="#E7E8EB" stroke-width="0.682875"/>
<path d="M-96 29H429" stroke="#9747FF" stroke-opacity="0.1" stroke-width="3.41438" stroke-dasharray="12.29 12.29"/>
<path d="M718 499.791L718 312" stroke="#9747FF" stroke-opacity="0.1" stroke-width="3.41438" stroke-dasharray="12.29 12.29"/>
<line x1="812.319" y1="110" x2="812.319" y2="140.729" stroke="#9747FF" stroke-width="2.7315"/>
<line x1="430" y1="124.339" x2="813" y2="124.339" stroke="#9747FF" stroke-width="2.7315"/>
<line x1="431.42" y1="110" x2="431.421" y2="140.729" stroke="#9747FF" stroke-width="2.7315"/>
<line x1="574" y1="339.042" x2="622" y2="339.042" stroke="#9747FF" stroke-width="2.7315"/>
<line x1="575.366" y1="328" x2="575.366" y2="352" stroke="#9747FF" stroke-width="2.7315"/>
<line x1="621.366" y1="328" x2="621.366" y2="352" stroke="#9747FF" stroke-width="2.7315"/>
<line x1="877.734" y1="316.038" x2="847.005" y2="316.038" stroke="#9747FF" stroke-width="2.7315"/>
<line x1="863.389" y1="171" x2="863.389" y2="316.205" stroke="#9747FF" stroke-width="2.7315"/>
<line x1="877.734" y1="172.387" x2="847.005" y2="172.387" stroke="#9747FF" stroke-width="2.7315"/>
<path d="M398.679 11L402.459 2.054L403.761 2.096L400.051 11H398.679ZM396.957 2.46V1.284H403.761V2.096L403.187 2.46H396.957ZM405.215 10.202L408.925 6.422C409.298 6.04867 409.592 5.72667 409.807 5.456C410.022 5.176 410.176 4.91933 410.269 4.686C410.362 4.45267 410.409 4.21 410.409 3.958C410.409 3.46333 410.241 3.076 409.905 2.796C409.578 2.516 409.149 2.376 408.617 2.376C408.122 2.376 407.674 2.49267 407.273 2.726C406.881 2.95 406.531 3.31867 406.223 3.832L405.285 3.062C405.677 2.42733 406.153 1.95133 406.713 1.634C407.273 1.30733 407.922 1.144 408.659 1.144C409.275 1.144 409.807 1.26067 410.255 1.494C410.712 1.72733 411.067 2.054 411.319 2.474C411.571 2.894 411.697 3.384 411.697 3.944C411.697 4.35467 411.646 4.71867 411.543 5.036C411.44 5.35333 411.263 5.67533 411.011 6.002C410.759 6.32867 410.404 6.72067 409.947 7.178L406.937 10.16L405.215 10.202ZM405.215 11V10.202L406.321 9.824H411.935V11H405.215ZM417.183 11.14C416.679 11.14 416.221 11.0373 415.811 10.832C415.409 10.6173 415.087 10.3233 414.845 9.95C414.602 9.57667 414.467 9.152 414.439 8.676V6.674C414.467 6.18867 414.602 5.764 414.845 5.4C415.097 5.02667 415.423 4.73733 415.825 4.532C416.235 4.31733 416.688 4.21 417.183 4.21C417.789 4.21 418.335 4.364 418.821 4.672C419.315 4.98 419.703 5.39533 419.983 5.918C420.263 6.44067 420.403 7.02867 420.403 7.682C420.403 8.33533 420.263 8.92333 419.983 9.446C419.703 9.96867 419.315 10.384 418.821 10.692C418.335 10.9907 417.789 11.14 417.183 11.14ZM413.683 13.786V4.35H414.943V6.1L414.705 7.71L414.943 9.334V13.786H413.683ZM416.973 9.95C417.393 9.95 417.761 9.852 418.079 9.656C418.396 9.46 418.648 9.194 418.835 8.858C419.021 8.51267 419.115 8.116 419.115 7.668C419.115 7.22933 419.021 6.83733 418.835 6.492C418.648 6.14667 418.396 5.88067 418.079 5.694C417.761 5.498 417.397 5.4 416.987 5.4C416.567 5.4 416.198 5.498 415.881 5.694C415.563 5.88067 415.316 6.14667 415.139 6.492C414.961 6.83733 414.873 7.234 414.873 7.682C414.873 8.12067 414.957 8.51267 415.125 8.858C415.302 9.194 415.549 9.46 415.867 9.656C416.193 9.852 416.562 9.95 416.973 9.95ZM425.994 11L423.922 8.088L423.684 7.864L421.066 4.35H422.592L424.482 6.94L424.72 7.136L427.52 11H425.994ZM420.94 11L423.684 7.304L424.398 8.228L422.424 11H420.94ZM424.818 7.85L424.09 6.954L425.924 4.35H427.394L424.818 7.85Z" fill="#9747FF"/>
<path d="M734.957 368.202L738.667 364.422C739.04 364.049 739.334 363.727 739.549 363.456C739.764 363.176 739.918 362.919 740.011 362.686C740.104 362.453 740.151 362.21 740.151 361.958C740.151 361.463 739.983 361.076 739.647 360.796C739.32 360.516 738.891 360.376 738.359 360.376C737.864 360.376 737.416 360.493 737.015 360.726C736.623 360.95 736.273 361.319 735.965 361.832L735.027 361.062C735.419 360.427 735.895 359.951 736.455 359.634C737.015 359.307 737.664 359.144 738.401 359.144C739.017 359.144 739.549 359.261 739.997 359.494C740.454 359.727 740.809 360.054 741.061 360.474C741.313 360.894 741.439 361.384 741.439 361.944C741.439 362.355 741.388 362.719 741.285 363.036C741.182 363.353 741.005 363.675 740.753 364.002C740.501 364.329 740.146 364.721 739.689 365.178L736.679 368.16L734.957 368.202ZM734.957 369V368.202L736.063 367.824H741.677V369H734.957ZM742.935 365.654L746.449 359.284H747.933L744.349 365.654H742.935ZM742.935 366.466V365.654L743.495 365.29H750.341V366.466H742.935ZM747.653 369V362.574H748.941V369H747.653ZM755.183 369.14C754.679 369.14 754.221 369.037 753.811 368.832C753.409 368.617 753.087 368.323 752.845 367.95C752.602 367.577 752.467 367.152 752.439 366.676V364.674C752.467 364.189 752.602 363.764 752.845 363.4C753.097 363.027 753.423 362.737 753.825 362.532C754.235 362.317 754.688 362.21 755.183 362.21C755.789 362.21 756.335 362.364 756.821 362.672C757.315 362.98 757.703 363.395 757.983 363.918C758.263 364.441 758.403 365.029 758.403 365.682C758.403 366.335 758.263 366.923 757.983 367.446C757.703 367.969 757.315 368.384 756.821 368.692C756.335 368.991 755.789 369.14 755.183 369.14ZM751.683 371.786V362.35H752.943V364.1L752.705 365.71L752.943 367.334V371.786H751.683ZM754.973 367.95C755.393 367.95 755.761 367.852 756.079 367.656C756.396 367.46 756.648 367.194 756.835 366.858C757.021 366.513 757.115 366.116 757.115 365.668C757.115 365.229 757.021 364.837 756.835 364.492C756.648 364.147 756.396 363.881 756.079 363.694C755.761 363.498 755.397 363.4 754.987 363.4C754.567 363.4 754.198 363.498 753.881 363.694C753.563 363.881 753.316 364.147 753.139 364.492C752.961 364.837 752.873 365.234 752.873 365.682C752.873 366.121 752.957 366.513 753.125 366.858C753.302 367.194 753.549 367.46 753.867 367.656C754.193 367.852 754.562 367.95 754.973 367.95ZM763.994 369L761.922 366.088L761.684 365.864L759.066 362.35H760.592L762.482 364.94L762.72 365.136L765.52 369H763.994ZM758.94 369L761.684 365.304L762.398 366.228L760.424 369H758.94ZM762.818 365.85L762.09 364.954L763.924 362.35H765.394L762.818 365.85Z" fill="#9747FF"/>
<path d="M614.373 97.14C613.729 97.14 613.146 96.9907 612.623 96.692C612.1 96.3933 611.69 95.992 611.391 95.488C611.092 94.984 610.943 94.424 610.943 93.808C610.943 92.94 611.242 92.086 611.839 91.246L614.765 87.284H616.291L613.323 91.274L612.847 91.526C612.959 91.33 613.094 91.1667 613.253 91.036C613.412 90.896 613.608 90.7887 613.841 90.714C614.084 90.6393 614.364 90.602 614.681 90.602C615.26 90.602 615.782 90.7373 616.249 91.008C616.725 91.2787 617.103 91.652 617.383 92.128C617.672 92.5947 617.817 93.1407 617.817 93.766C617.817 94.382 617.663 94.9467 617.355 95.46C617.047 95.9733 616.632 96.384 616.109 96.692C615.586 96.9907 615.008 97.14 614.373 97.14ZM614.373 95.908C614.774 95.908 615.134 95.8147 615.451 95.628C615.778 95.432 616.034 95.1753 616.221 94.858C616.408 94.5313 616.501 94.1673 616.501 93.766C616.501 93.3647 616.408 93.0053 616.221 92.688C616.034 92.3613 615.778 92.1047 615.451 91.918C615.134 91.7313 614.774 91.638 614.373 91.638C613.972 91.638 613.608 91.7313 613.281 91.918C612.964 92.1047 612.712 92.3613 612.525 92.688C612.348 93.0053 612.259 93.3647 612.259 93.766C612.259 94.1673 612.348 94.5313 612.525 94.858C612.712 95.1847 612.964 95.4413 613.281 95.628C613.608 95.8147 613.972 95.908 614.373 95.908ZM618.935 93.654L622.449 87.284H623.933L620.349 93.654H618.935ZM618.935 94.466V93.654L619.495 93.29H626.341V94.466H618.935ZM623.653 97V90.574H624.941V97H623.653ZM631.183 97.14C630.679 97.14 630.221 97.0373 629.811 96.832C629.409 96.6173 629.087 96.3233 628.845 95.95C628.602 95.5767 628.467 95.152 628.439 94.676V92.674C628.467 92.1887 628.602 91.764 628.845 91.4C629.097 91.0267 629.423 90.7373 629.825 90.532C630.235 90.3173 630.688 90.21 631.183 90.21C631.789 90.21 632.335 90.364 632.821 90.672C633.315 90.98 633.703 91.3953 633.983 91.918C634.263 92.4407 634.403 93.0287 634.403 93.682C634.403 94.3353 634.263 94.9233 633.983 95.446C633.703 95.9687 633.315 96.384 632.821 96.692C632.335 96.9907 631.789 97.14 631.183 97.14ZM627.683 99.786V90.35H628.943V92.1L628.705 93.71L628.943 95.334V99.786H627.683ZM630.973 95.95C631.393 95.95 631.761 95.852 632.079 95.656C632.396 95.46 632.648 95.194 632.835 94.858C633.021 94.5127 633.115 94.116 633.115 93.668C633.115 93.2293 633.021 92.8373 632.835 92.492C632.648 92.1467 632.396 91.8807 632.079 91.694C631.761 91.498 631.397 91.4 630.987 91.4C630.567 91.4 630.198 91.498 629.881 91.694C629.563 91.8807 629.316 92.1467 629.139 92.492C628.961 92.8373 628.873 93.234 628.873 93.682C628.873 94.1207 628.957 94.5127 629.125 94.858C629.302 95.194 629.549 95.46 629.867 95.656C630.193 95.852 630.562 95.95 630.973 95.95ZM639.994 97L637.922 94.088L637.684 93.864L635.066 90.35H636.592L638.482 92.94L638.72 93.136L641.52 97H639.994ZM634.94 97L637.684 93.304L638.398 94.228L636.424 97H634.94ZM638.818 93.85L638.09 92.954L639.924 90.35H641.394L638.818 93.85Z" fill="#9747FF"/>
<path d="M591.488 369.14C590.835 369.14 590.256 369.019 589.752 368.776C589.248 368.533 588.856 368.197 588.576 367.768C588.296 367.339 588.156 366.853 588.156 366.312C588.156 365.873 588.245 365.472 588.422 365.108C588.599 364.744 588.851 364.436 589.178 364.184C589.514 363.923 589.911 363.736 590.368 363.624L590.41 364.002C590.027 363.899 589.701 363.736 589.43 363.512C589.169 363.279 588.968 363.008 588.828 362.7C588.688 362.383 588.618 362.047 588.618 361.692C588.618 361.188 588.739 360.745 588.982 360.362C589.234 359.979 589.579 359.681 590.018 359.466C590.457 359.242 590.947 359.13 591.488 359.13C592.048 359.13 592.543 359.242 592.972 359.466C593.411 359.681 593.756 359.979 594.008 360.362C594.26 360.745 594.386 361.188 594.386 361.692C594.386 362.047 594.316 362.383 594.176 362.7C594.036 363.008 593.831 363.279 593.56 363.512C593.299 363.736 592.977 363.899 592.594 364.002L592.636 363.624C593.093 363.736 593.485 363.923 593.812 364.184C594.139 364.436 594.391 364.744 594.568 365.108C594.745 365.472 594.834 365.873 594.834 366.312C594.834 366.853 594.694 367.339 594.414 367.768C594.134 368.197 593.742 368.533 593.238 368.776C592.743 369.019 592.16 369.14 591.488 369.14ZM591.488 367.95C591.899 367.95 592.258 367.875 592.566 367.726C592.883 367.567 593.131 367.353 593.308 367.082C593.485 366.811 593.574 366.499 593.574 366.144C593.574 365.799 593.485 365.491 593.308 365.22C593.131 364.949 592.883 364.739 592.566 364.59C592.258 364.431 591.899 364.352 591.488 364.352C591.087 364.352 590.732 364.431 590.424 364.59C590.116 364.739 589.873 364.949 589.696 365.22C589.519 365.491 589.43 365.799 589.43 366.144C589.43 366.499 589.519 366.811 589.696 367.082C589.873 367.353 590.116 367.567 590.424 367.726C590.732 367.875 591.087 367.95 591.488 367.95ZM591.488 363.33C591.973 363.33 592.37 363.185 592.678 362.896C592.995 362.607 593.154 362.233 593.154 361.776C593.154 361.328 592.995 360.964 592.678 360.684C592.37 360.395 591.973 360.25 591.488 360.25C591.012 360.25 590.615 360.395 590.298 360.684C589.99 360.964 589.836 361.328 589.836 361.776C589.836 362.233 589.99 362.607 590.298 362.896C590.615 363.185 591.012 363.33 591.488 363.33ZM600.054 369.14C599.55 369.14 599.093 369.037 598.682 368.832C598.281 368.617 597.959 368.323 597.716 367.95C597.473 367.577 597.338 367.152 597.31 366.676V364.674C597.338 364.189 597.473 363.764 597.716 363.4C597.968 363.027 598.295 362.737 598.696 362.532C599.107 362.317 599.559 362.21 600.054 362.21C600.661 362.21 601.207 362.364 601.692 362.672C602.187 362.98 602.574 363.395 602.854 363.918C603.134 364.441 603.274 365.029 603.274 365.682C603.274 366.335 603.134 366.923 602.854 367.446C602.574 367.969 602.187 368.384 601.692 368.692C601.207 368.991 600.661 369.14 600.054 369.14ZM596.554 371.786V362.35H597.814V364.1L597.576 365.71L597.814 367.334V371.786H596.554ZM599.844 367.95C600.264 367.95 600.633 367.852 600.95 367.656C601.267 367.46 601.519 367.194 601.706 366.858C601.893 366.513 601.986 366.116 601.986 365.668C601.986 365.229 601.893 364.837 601.706 364.492C601.519 364.147 601.267 363.881 600.95 363.694C600.633 363.498 600.269 363.4 599.858 363.4C599.438 363.4 599.069 363.498 598.752 363.694C598.435 363.881 598.187 364.147 598.01 364.492C597.833 364.837 597.744 365.234 597.744 365.682C597.744 366.121 597.828 366.513 597.996 366.858C598.173 367.194 598.421 367.46 598.738 367.656C599.065 367.852 599.433 367.95 599.844 367.95ZM608.865 369L606.793 366.088L606.555 365.864L603.937 362.35H605.463L607.353 364.94L607.591 365.136L610.391 369H608.865ZM603.811 369L606.555 365.304L607.269 366.228L605.295 369H603.811ZM607.689 365.85L606.961 364.954L608.795 362.35H610.265L607.689 365.85Z" fill="#9747FF"/>
<path d="M888.957 247.202L892.667 243.422C893.04 243.049 893.334 242.727 893.549 242.456C893.764 242.176 893.918 241.919 894.011 241.686C894.104 241.453 894.151 241.21 894.151 240.958C894.151 240.463 893.983 240.076 893.647 239.796C893.32 239.516 892.891 239.376 892.359 239.376C891.864 239.376 891.416 239.493 891.015 239.726C890.623 239.95 890.273 240.319 889.965 240.832L889.027 240.062C889.419 239.427 889.895 238.951 890.455 238.634C891.015 238.307 891.664 238.144 892.401 238.144C893.017 238.144 893.549 238.261 893.997 238.494C894.454 238.727 894.809 239.054 895.061 239.474C895.313 239.894 895.439 240.384 895.439 240.944C895.439 241.355 895.388 241.719 895.285 242.036C895.182 242.353 895.005 242.675 894.753 243.002C894.501 243.329 894.146 243.721 893.689 244.178L890.679 247.16L888.957 247.202ZM888.957 248V247.202L890.063 246.824H895.677V248H888.957ZM896.935 244.654L900.449 238.284H901.933L898.349 244.654H896.935ZM896.935 245.466V244.654L897.495 244.29H904.341V245.466H896.935ZM901.653 248V241.574H902.941V248H901.653ZM909.183 248.14C908.679 248.14 908.221 248.037 907.811 247.832C907.409 247.617 907.087 247.323 906.845 246.95C906.602 246.577 906.467 246.152 906.439 245.676V243.674C906.467 243.189 906.602 242.764 906.845 242.4C907.097 242.027 907.423 241.737 907.825 241.532C908.235 241.317 908.688 241.21 909.183 241.21C909.789 241.21 910.335 241.364 910.821 241.672C911.315 241.98 911.703 242.395 911.983 242.918C912.263 243.441 912.403 244.029 912.403 244.682C912.403 245.335 912.263 245.923 911.983 246.446C911.703 246.969 911.315 247.384 910.821 247.692C910.335 247.991 909.789 248.14 909.183 248.14ZM905.683 250.786V241.35H906.943V243.1L906.705 244.71L906.943 246.334V250.786H905.683ZM908.973 246.95C909.393 246.95 909.761 246.852 910.079 246.656C910.396 246.46 910.648 246.194 910.835 245.858C911.021 245.513 911.115 245.116 911.115 244.668C911.115 244.229 911.021 243.837 910.835 243.492C910.648 243.147 910.396 242.881 910.079 242.694C909.761 242.498 909.397 242.4 908.987 242.4C908.567 242.4 908.198 242.498 907.881 242.694C907.563 242.881 907.316 243.147 907.139 243.492C906.961 243.837 906.873 244.234 906.873 244.682C906.873 245.121 906.957 245.513 907.125 245.858C907.302 246.194 907.549 246.46 907.867 246.656C908.193 246.852 908.562 246.95 908.973 246.95ZM917.994 248L915.922 245.088L915.684 244.864L913.066 241.35H914.592L916.482 243.94L916.72 244.136L919.52 248H917.994ZM912.94 248L915.684 244.304L916.398 245.228L914.424 248H912.94ZM916.818 244.85L916.09 243.954L917.924 241.35H919.394L916.818 244.85Z" fill="#9747FF"/>
</g>
<path fill-rule="evenodd" clip-rule="evenodd" d="M464.342 294.409C461.757 292.443 457.989 291.714 455.256 293.462C451.266 296.084 450.158 301.473 453.852 304.532C459.245 309.12 466.559 312.615 473.725 312.615C488.278 312.615 499.803 302.711 503.349 290.549C513.544 297.322 527.285 297.686 538.44 290.913L543.981 296.667C546.788 299.507 551.295 299.507 554.324 296.667C557.279 293.899 557.5 289.238 554.767 286.325L549.226 280.572C556.614 269.721 556.836 255.957 550.556 245.47C562.893 242.775 573.384 231.56 573.975 216.704C574.861 194.055 552.107 180.072 533.047 191.506L508.816 206.071C508.077 205.052 507.265 204.105 506.378 203.158C499.877 196.313 490.568 193.545 481.703 194.783C481.703 193.909 481.777 192.963 481.925 192.016C482.442 188.375 483.846 185.025 486.579 182.33C489.608 179.49 489.756 174.902 487.022 171.989C484.215 169.149 479.709 169.149 476.68 171.989C470.77 177.669 468.258 184.588 467.371 190.559C466.854 194.346 466.928 197.988 467.371 200.973C466.559 201.556 465.746 202.284 464.933 203.085C464.121 203.814 463.382 204.615 462.717 205.416C459.762 204.833 456.142 204.542 452.301 204.906C446.317 205.489 439.298 207.601 433.388 213.281C430.359 216.121 430.212 220.709 432.945 223.622C435.752 226.462 440.259 226.462 443.288 223.622C446.095 221.001 449.567 219.763 453.113 219.398C454.074 219.398 455.034 219.253 455.92 219.398C454.147 228.283 456.585 237.75 463.086 244.596C463.825 245.324 464.49 245.98 465.303 246.635L462.348 250.859C461.166 252.607 460.796 254.573 461.166 256.394L461.978 260.472C462.2 261.564 461.904 262.73 461.313 263.604C460.353 265.06 459.467 265.351 458.063 265.643L453.187 266.662C450.971 267.099 448.976 268.483 447.646 270.522C444.913 274.6 445.947 279.989 449.936 282.538C453.926 285.087 459.319 283.849 462.052 279.771C463.382 277.732 463.825 275.401 463.382 273.217L462.422 268.41C462.126 267.026 462.126 266.007 463.013 264.623C463.604 263.676 464.49 263.021 465.598 262.73L469.661 261.783C471.508 261.346 473.134 260.181 474.242 258.433L476.236 255.374L487.909 276.785C493.08 286.398 485.471 298.414 474.094 298.414C470.844 298.414 467.297 296.667 464.342 294.409ZM496.405 252.534L501.502 262.875C507.708 261.637 517.755 256.685 522.409 242.266L512.805 236.877L504.605 244.742L496.479 252.534H496.405ZM534.303 275.984C526.62 283.339 514.948 282.757 508.52 275.62C517.903 272.27 528.763 264.623 534.747 249.694C541.913 256.467 542.208 268.483 534.303 275.984ZM494.632 234.328C500.616 228.574 501.059 219.326 495.518 213.572C490.125 207.819 480.817 207.746 474.833 213.499C468.849 219.253 468.406 228.502 473.946 234.255C479.339 240.008 488.648 240.081 494.632 234.328ZM518.05 216.849L539.401 204.105C549.005 198.279 560.382 205.27 559.938 216.704C559.495 228.137 547.379 235.202 538.293 229.521L518.05 216.849Z" fill="#4F46E5"/>
<path d="M662.524 240.704C664.637 243.32 665.693 246.42 665.693 249.811C665.693 252.911 664.925 255.624 663.388 257.949C661.852 260.274 659.739 262.115 656.858 263.471C653.977 264.828 650.616 265.506 646.775 265.506H622V207.571H645.719C649.656 207.571 653.017 208.249 655.802 209.508C658.587 210.768 660.795 212.512 662.236 214.837C663.676 217.065 664.444 219.681 664.444 222.587C664.444 225.978 663.58 228.788 661.756 231.016C659.931 233.244 657.626 234.891 654.65 235.86C657.819 236.345 660.507 237.992 662.524 240.704ZM633.523 231.404H644.086C646.871 231.404 648.984 230.822 650.424 229.563C651.865 228.303 652.633 226.56 652.633 224.234C652.633 221.909 651.865 220.069 650.424 218.809C648.984 217.55 646.871 216.871 644.086 216.871H633.523V231.404ZM651.673 254.074C653.209 252.718 653.977 250.877 653.977 248.455C653.977 245.936 653.113 243.998 651.481 242.642C649.848 241.189 647.64 240.51 644.855 240.51H633.523V256.108H645.143C647.928 256.011 650.136 255.333 651.673 254.074Z" fill="#4F46E5"/>
<path d="M684.898 216.871V231.403H704.2V240.607H684.898V256.011H706.697V265.506H673.375V207.474H706.697V216.968H684.898V216.871Z" fill="#4F46E5"/>
<path d="M726.767 216.871V231.403H746.068V240.607H726.767V256.011H748.565V265.506H715.243V207.474H748.565V216.968H726.767V216.871Z" fill="#4F46E5"/>
<path d="M798.596 275.678L789.857 265.118C787.456 265.7 784.96 265.99 782.463 265.99C777.085 265.99 772.188 264.731 767.675 262.212C763.161 259.693 759.608 256.108 757.016 251.652C754.423 247.098 753.078 242.061 753.078 236.345C753.078 230.725 754.423 225.591 757.016 221.134C759.608 216.581 763.257 213.093 767.675 210.574C772.188 208.055 777.085 206.796 782.463 206.796C787.937 206.796 792.834 208.055 797.347 210.574C801.861 213.093 805.318 216.678 808.007 221.134C810.695 225.591 811.944 230.725 811.944 236.345C811.944 241.479 810.887 246.226 808.679 250.392C806.47 254.655 803.589 258.046 799.844 260.759L813 275.678H798.596ZM767.003 246.517C768.443 249.424 770.556 251.749 773.244 253.299C775.933 254.849 779.006 255.624 782.463 255.624C785.92 255.624 788.993 254.849 791.586 253.299C794.178 251.749 796.291 249.424 797.732 246.517C799.172 243.611 799.94 240.22 799.94 236.345C799.94 232.469 799.172 229.078 797.732 226.172C796.291 223.266 794.178 221.037 791.586 219.487C788.993 217.937 785.92 217.162 782.463 217.162C779.006 217.162 775.933 217.937 773.244 219.487C770.556 221.037 768.539 223.266 767.003 226.172C765.562 229.078 764.794 232.469 764.794 236.345C764.794 240.22 765.562 243.611 767.003 246.517Z" fill="#4F46E5"/>
<rect x="574" y="312.615" width="142.757" height="48" transform="rotate(-90 574 312.615)" fill="#9747FF" fill-opacity="0.1"/>
<defs>
<clipPath id="clip0_14318_819">
<rect width="1246" height="442" fill="white"/>
</clipPath>
</defs>
</svg>
