<svg width="380" height="256" viewBox="0 0 380 256" fill="none" xmlns="http://www.w3.org/2000/svg">
<path d="M0 16C0 7.16344 7.16344 0 16 0H364C372.837 0 380 7.16344 380 16V240C380 248.837 372.837 256 364 256H16C7.16344 256 0 248.837 0 240V16Z" fill="#181545"/>
<path d="M163 104.5H217C222.671 104.5 226.874 104.501 230.101 104.935C233.313 105.366 235.483 106.219 237.132 107.868C238.781 109.517 239.634 111.687 240.065 114.899C240.499 118.126 240.5 122.329 240.5 128C240.5 133.671 240.499 137.874 240.065 141.101C239.634 144.313 238.781 146.483 237.132 148.132C235.483 149.781 233.313 150.634 230.101 151.065C226.874 151.499 222.671 151.5 217 151.5H163C157.329 151.5 153.126 151.499 149.899 151.065C146.687 150.634 144.517 149.781 142.868 148.132C141.219 146.483 140.366 144.313 139.935 141.101C139.501 137.874 139.5 133.671 139.5 128C139.5 122.329 139.501 118.126 139.935 114.899C140.366 111.687 141.219 109.517 142.868 107.868C144.517 106.219 146.687 105.366 149.899 104.935C153.126 104.501 157.329 104.5 163 104.5Z" fill="#4F46E5"/>
<path d="M163 104.5H217C222.671 104.5 226.874 104.501 230.101 104.935C233.313 105.366 235.483 106.219 237.132 107.868C238.781 109.517 239.634 111.687 240.065 114.899C240.499 118.126 240.5 122.329 240.5 128C240.5 133.671 240.499 137.874 240.065 141.101C239.634 144.313 238.781 146.483 237.132 148.132C235.483 149.781 233.313 150.634 230.101 151.065C226.874 151.499 222.671 151.5 217 151.5H163C157.329 151.5 153.126 151.499 149.899 151.065C146.687 150.634 144.517 149.781 142.868 148.132C141.219 146.483 140.366 144.313 139.935 141.101C139.501 137.874 139.5 133.671 139.5 128C139.5 122.329 139.501 118.126 139.935 114.899C140.366 111.687 141.219 109.517 142.868 107.868C144.517 106.219 146.687 105.366 149.899 104.935C153.126 104.501 157.329 104.5 163 104.5Z" stroke="#1C1D23"/>
<path d="M159.594 134.16C158.708 134.16 157.956 134 157.338 133.68C156.719 133.36 156.164 132.891 155.674 132.272L156.922 131.024C157.231 131.472 157.599 131.824 158.026 132.08C158.452 132.325 158.996 132.448 159.658 132.448C160.276 132.448 160.767 132.32 161.13 132.064C161.503 131.808 161.69 131.456 161.69 131.008C161.69 130.635 161.594 130.331 161.402 130.096C161.21 129.861 160.954 129.669 160.634 129.52C160.324 129.36 159.978 129.221 159.594 129.104C159.22 128.976 158.842 128.837 158.458 128.688C158.084 128.528 157.738 128.331 157.418 128.096C157.108 127.861 156.858 127.557 156.666 127.184C156.474 126.811 156.378 126.336 156.378 125.76C156.378 125.099 156.538 124.539 156.858 124.08C157.188 123.611 157.631 123.253 158.186 123.008C158.74 122.763 159.359 122.64 160.042 122.64C160.778 122.64 161.434 122.784 162.01 123.072C162.596 123.36 163.071 123.728 163.434 124.176L162.186 125.424C161.866 125.061 161.53 124.795 161.178 124.624C160.836 124.443 160.442 124.352 159.994 124.352C159.439 124.352 159.002 124.464 158.682 124.688C158.372 124.912 158.218 125.227 158.218 125.632C158.218 125.973 158.314 126.251 158.506 126.464C158.698 126.667 158.948 126.843 159.258 126.992C159.578 127.131 159.924 127.264 160.298 127.392C160.682 127.52 161.06 127.664 161.434 127.824C161.818 127.984 162.164 128.192 162.474 128.448C162.794 128.693 163.05 129.013 163.242 129.408C163.434 129.803 163.53 130.299 163.53 130.896C163.53 131.899 163.172 132.693 162.458 133.28C161.754 133.867 160.799 134.16 159.594 134.16ZM166.292 134V123.12H168.052V134H166.292ZM164.452 127.92V126.32H169.892V127.92H164.452ZM174.169 134.16C173.475 134.16 172.846 133.984 172.281 133.632C171.726 133.28 171.283 132.805 170.953 132.208C170.633 131.6 170.473 130.923 170.473 130.176C170.473 129.419 170.633 128.741 170.953 128.144C171.283 127.536 171.726 127.056 172.281 126.704C172.846 126.341 173.475 126.16 174.169 126.16C174.755 126.16 175.273 126.288 175.721 126.544C176.179 126.789 176.542 127.131 176.809 127.568C177.075 128.005 177.209 128.501 177.209 129.056V131.264C177.209 131.819 177.075 132.315 176.809 132.752C176.553 133.189 176.195 133.536 175.737 133.792C175.278 134.037 174.755 134.16 174.169 134.16ZM174.457 132.496C175.107 132.496 175.63 132.277 176.025 131.84C176.43 131.403 176.633 130.843 176.633 130.16C176.633 129.701 176.542 129.296 176.361 128.944C176.179 128.592 175.923 128.32 175.593 128.128C175.273 127.925 174.894 127.824 174.457 127.824C174.03 127.824 173.651 127.925 173.321 128.128C173.001 128.32 172.745 128.592 172.553 128.944C172.371 129.296 172.281 129.701 172.281 130.16C172.281 130.619 172.371 131.024 172.553 131.376C172.745 131.728 173.001 132.005 173.321 132.208C173.651 132.4 174.03 132.496 174.457 132.496ZM176.521 134V131.936L176.825 130.064L176.521 128.208V126.32H178.281V134H176.521ZM180.234 134V126.32H181.994V134H180.234ZM181.994 129.728L181.386 129.424C181.386 128.453 181.599 127.669 182.026 127.072C182.463 126.464 183.119 126.16 183.994 126.16C184.378 126.16 184.724 126.229 185.034 126.368C185.343 126.507 185.631 126.731 185.898 127.04L184.746 128.224C184.607 128.075 184.452 127.968 184.282 127.904C184.111 127.84 183.914 127.808 183.69 127.808C183.199 127.808 182.794 127.963 182.474 128.272C182.154 128.581 181.994 129.067 181.994 129.728ZM187.933 134V123.12H189.693V134H187.933ZM186.093 127.92V126.32H191.533V127.92H186.093ZM201.279 134V129.568C201.279 129.056 201.114 128.635 200.783 128.304C200.463 127.973 200.047 127.808 199.535 127.808C199.194 127.808 198.89 127.883 198.623 128.032C198.356 128.181 198.148 128.389 197.999 128.656C197.85 128.923 197.775 129.227 197.775 129.568L197.087 129.184C197.087 128.597 197.215 128.08 197.471 127.632C197.727 127.173 198.079 126.816 198.527 126.56C198.986 126.293 199.498 126.16 200.063 126.16C200.639 126.16 201.151 126.309 201.599 126.608C202.047 126.896 202.399 127.275 202.655 127.744C202.911 128.203 203.039 128.683 203.039 129.184V134H201.279ZM196.015 134V126.32H197.775V134H196.015ZM208.348 134.16C207.601 134.16 206.924 133.984 206.316 133.632C205.708 133.269 205.222 132.784 204.86 132.176C204.508 131.568 204.332 130.891 204.332 130.144C204.332 129.397 204.508 128.725 204.86 128.128C205.222 127.531 205.708 127.056 206.316 126.704C206.924 126.341 207.601 126.16 208.348 126.16C209.105 126.16 209.788 126.336 210.396 126.688C211.004 127.04 211.484 127.52 211.836 128.128C212.198 128.725 212.38 129.397 212.38 130.144C212.38 130.891 212.198 131.568 211.836 132.176C211.484 132.784 211.004 133.269 210.396 133.632C209.788 133.984 209.105 134.16 208.348 134.16ZM208.348 132.464C208.785 132.464 209.169 132.368 209.5 132.176C209.841 131.973 210.102 131.696 210.284 131.344C210.476 130.992 210.572 130.592 210.572 130.144C210.572 129.696 210.476 129.301 210.284 128.96C210.092 128.619 209.83 128.352 209.5 128.16C209.169 127.957 208.785 127.856 208.348 127.856C207.921 127.856 207.537 127.957 207.196 128.16C206.865 128.352 206.604 128.619 206.412 128.96C206.23 129.301 206.14 129.696 206.14 130.144C206.14 130.592 206.23 130.992 206.412 131.344C206.604 131.696 206.865 131.973 207.196 132.176C207.537 132.368 207.921 132.464 208.348 132.464ZM215.896 134L212.808 126.32H214.632L216.712 131.904L216.168 131.92L218.2 126.32H219.224L221.256 131.92L220.712 131.904L222.792 126.32H224.616L221.528 134H220.504L218.424 128.688H219L216.92 134H215.896Z" fill="#FBFBFC"/>
</svg>
