<svg width="683" height="420" viewBox="0 0 683 420" fill="none" xmlns="http://www.w3.org/2000/svg">
<rect width="683" height="420" fill="#F6F6F8"/>
<g filter="url(#filter0_d_5212_36620)">
<path d="M45 126.5C45 119.873 50.3726 114.5 57 114.5H626C632.627 114.5 638 119.873 638 126.5V293.5C638 300.127 632.627 305.5 626 305.5H57C50.3726 305.5 45 300.127 45 293.5V126.5Z" fill="white"/>
<mask id="path-3-inside-1_5212_36620" fill="white">
<path d="M73.2383 114.5H638V145.876H73.2383V114.5Z"/>
</mask>
<path d="M638 145.483H73.2383V146.268H638V145.483Z" fill="#E7E8EB" mask="url(#path-3-inside-1_5212_36620)"/>
<path d="M557.128 133.405L555.382 131.659C555.905 130.976 556.15 130.121 556.066 129.265C555.981 128.409 555.575 127.617 554.928 127.05C554.281 126.483 553.443 126.183 552.584 126.211C551.724 126.239 550.908 126.593 550.3 127.202C549.692 127.81 549.338 128.626 549.309 129.486C549.281 130.345 549.581 131.183 550.148 131.83C550.715 132.476 551.507 132.883 552.363 132.967C553.219 133.052 554.075 132.807 554.757 132.284L556.504 134.032C556.545 134.073 556.594 134.105 556.648 134.127C556.701 134.15 556.759 134.161 556.817 134.161C556.875 134.161 556.932 134.15 556.986 134.127C557.04 134.105 557.088 134.073 557.129 134.032C557.17 133.991 557.203 133.942 557.225 133.888C557.247 133.835 557.259 133.777 557.259 133.719C557.259 133.661 557.247 133.604 557.225 133.55C557.203 133.496 557.17 133.448 557.129 133.407L557.128 133.405ZM550.197 129.6C550.197 129.105 550.344 128.622 550.619 128.211C550.894 127.799 551.284 127.479 551.741 127.29C552.198 127.1 552.7 127.051 553.185 127.147C553.67 127.244 554.116 127.482 554.466 127.832C554.815 128.181 555.053 128.627 555.15 129.112C555.246 129.597 555.197 130.1 555.008 130.556C554.818 131.013 554.498 131.404 554.087 131.678C553.676 131.953 553.192 132.1 552.698 132.1C552.035 132.099 551.399 131.836 550.931 131.367C550.462 130.898 550.198 130.262 550.197 129.6Z" fill="#2A2C35"/>
<path d="M575.689 131.583C575.369 131.034 575.2 130.246 575.2 129.305C575.2 128.486 574.875 127.701 574.295 127.122C573.716 126.542 572.931 126.217 572.111 126.217C571.292 126.217 570.507 126.542 569.927 127.122C569.348 127.701 569.023 128.486 569.023 129.305C569.023 130.246 568.854 131.034 568.535 131.583C568.47 131.694 568.435 131.822 568.435 131.951C568.434 132.081 568.468 132.208 568.532 132.32C568.596 132.433 568.689 132.526 568.801 132.591C568.913 132.656 569.041 132.689 569.17 132.688H570.5C570.537 133.09 570.722 133.464 571.02 133.736C571.318 134.009 571.708 134.16 572.111 134.16C572.515 134.16 572.904 134.009 573.202 133.736C573.501 133.464 573.686 133.09 573.723 132.688H575.053C575.182 132.689 575.309 132.655 575.421 132.591C575.533 132.526 575.625 132.433 575.689 132.32C575.754 132.208 575.788 132.081 575.788 131.951C575.788 131.822 575.753 131.695 575.689 131.583ZM572.111 133.276C571.942 133.276 571.778 133.218 571.646 133.111C571.515 133.004 571.425 132.854 571.391 132.688H572.832C572.798 132.854 572.708 133.004 572.577 133.111C572.445 133.218 572.281 133.276 572.111 133.276ZM569.415 131.806C569.74 131.144 569.905 130.303 569.905 129.305C569.905 128.72 570.138 128.159 570.551 127.746C570.965 127.332 571.526 127.099 572.111 127.099C572.696 127.099 573.258 127.332 573.671 127.746C574.085 128.159 574.317 128.72 574.317 129.305C574.317 130.303 574.482 131.144 574.808 131.806H569.415Z" fill="#2A2C35"/>
<path fill-rule="evenodd" clip-rule="evenodd" d="M590.937 126.266C588.771 126.266 587.015 128.022 587.015 130.188C587.015 131.173 587.378 132.073 587.977 132.762C588.26 132.364 588.62 132.025 589.039 131.768C589.199 131.67 589.366 131.585 589.538 131.513C589.055 131.111 588.747 130.506 588.747 129.828C588.747 128.619 589.727 127.639 590.937 127.639C592.146 127.639 593.127 128.619 593.127 129.828C593.127 130.506 592.819 131.111 592.336 131.513C592.508 131.585 592.675 131.67 592.835 131.768C593.253 132.025 593.614 132.364 593.896 132.762C594.496 132.073 594.859 131.173 594.859 130.188C594.859 128.022 593.103 126.266 590.937 126.266ZM593.317 133.305C593.088 132.954 592.784 132.657 592.424 132.437C591.995 132.173 591.503 132.028 591.001 132.017C590.979 132.018 590.958 132.018 590.937 132.018C590.916 132.018 590.894 132.018 590.873 132.017C590.37 132.028 589.879 132.173 589.449 132.437C589.09 132.657 588.785 132.954 588.556 133.305C589.216 133.81 590.042 134.11 590.937 134.11C591.832 134.11 592.657 133.81 593.317 133.305ZM590.995 131.232C591.744 131.202 592.342 130.585 592.342 129.828C592.342 129.052 591.713 128.423 590.937 128.423C590.161 128.423 589.531 129.052 589.531 129.828C589.531 130.585 590.13 131.202 590.879 131.232C590.898 131.232 590.918 131.232 590.937 131.232C590.956 131.232 590.975 131.232 590.995 131.232ZM586.23 130.188C586.23 127.589 588.338 125.481 590.937 125.481C593.536 125.481 595.643 127.589 595.643 130.188C595.643 132.787 593.536 134.894 590.937 134.894C588.338 134.894 586.23 132.787 586.23 130.188Z" fill="#1C1D23"/>
<path d="M114.206 159.344V155.5H114.837V159.344H114.206ZM114.639 159.344V158.767H116.649V159.344H114.639ZM118.155 159.399C117.917 159.399 117.701 159.338 117.507 159.218C117.316 159.097 117.164 158.934 117.051 158.729C116.941 158.52 116.886 158.288 116.886 158.032C116.886 157.772 116.941 157.539 117.051 157.334C117.164 157.126 117.316 156.961 117.507 156.84C117.701 156.716 117.917 156.653 118.155 156.653C118.356 156.653 118.533 156.697 118.687 156.785C118.845 156.869 118.969 156.987 119.061 157.137C119.152 157.287 119.198 157.457 119.198 157.647V158.405C119.198 158.595 119.152 158.766 119.061 158.916C118.973 159.066 118.85 159.185 118.693 159.272C118.535 159.357 118.356 159.399 118.155 159.399ZM118.253 158.828C118.477 158.828 118.656 158.753 118.792 158.603C118.931 158.453 119 158.26 119 158.026C119 157.869 118.969 157.73 118.907 157.609C118.845 157.488 118.757 157.395 118.643 157.329C118.533 157.259 118.403 157.224 118.253 157.224C118.107 157.224 117.977 157.259 117.864 157.329C117.754 157.395 117.666 157.488 117.6 157.609C117.538 157.73 117.507 157.869 117.507 158.026C117.507 158.183 117.538 158.323 117.6 158.443C117.666 158.564 117.754 158.659 117.864 158.729C117.977 158.795 118.107 158.828 118.253 158.828ZM118.962 159.344V158.636L119.066 157.993L118.962 157.356V156.708H119.566V159.344H118.962ZM121.647 159.399C121.446 159.399 121.266 159.357 121.109 159.272C120.952 159.185 120.827 159.066 120.736 158.916C120.648 158.766 120.604 158.595 120.604 158.405V157.647C120.604 157.457 120.65 157.287 120.741 157.137C120.833 156.987 120.957 156.869 121.115 156.785C121.272 156.697 121.449 156.653 121.647 156.653C121.885 156.653 122.099 156.716 122.29 156.84C122.484 156.961 122.635 157.126 122.745 157.334C122.859 157.539 122.915 157.772 122.915 158.032C122.915 158.288 122.859 158.52 122.745 158.729C122.635 158.934 122.484 159.097 122.29 159.218C122.099 159.338 121.885 159.399 121.647 159.399ZM120.236 159.344V155.391H120.84V157.356L120.736 157.993L120.84 158.636V159.344H120.236ZM121.548 158.828C121.695 158.828 121.823 158.795 121.933 158.729C122.046 158.659 122.134 158.564 122.196 158.443C122.262 158.323 122.295 158.183 122.295 158.026C122.295 157.869 122.262 157.73 122.196 157.609C122.134 157.488 122.046 157.395 121.933 157.329C121.823 157.259 121.695 157.224 121.548 157.224C121.402 157.224 121.272 157.259 121.158 157.329C121.045 157.395 120.957 157.488 120.895 157.609C120.833 157.73 120.802 157.869 120.802 158.026C120.802 158.183 120.833 158.323 120.895 158.443C120.957 158.564 121.045 158.659 121.158 158.729C121.272 158.795 121.402 158.828 121.548 158.828ZM124.645 159.399C124.382 159.399 124.144 159.34 123.932 159.223C123.723 159.102 123.557 158.938 123.432 158.729C123.311 158.52 123.251 158.286 123.251 158.026C123.251 157.766 123.311 157.534 123.432 157.329C123.553 157.12 123.716 156.955 123.921 156.835C124.129 156.714 124.36 156.653 124.613 156.653C124.858 156.653 125.074 156.71 125.26 156.824C125.451 156.937 125.599 157.093 125.705 157.29C125.815 157.488 125.87 157.713 125.87 157.966C125.87 158.01 125.866 158.055 125.859 158.103C125.855 158.147 125.848 158.196 125.837 158.251H123.674V157.757H125.524L125.299 157.955C125.292 157.794 125.26 157.658 125.206 157.548C125.151 157.439 125.072 157.354 124.969 157.296C124.871 157.237 124.748 157.208 124.602 157.208C124.448 157.208 124.314 157.241 124.201 157.307C124.087 157.373 123.999 157.466 123.937 157.587C123.875 157.704 123.844 157.845 123.844 158.01C123.844 158.174 123.877 158.319 123.943 158.443C124.009 158.568 124.102 158.665 124.223 158.734C124.344 158.8 124.483 158.833 124.64 158.833C124.775 158.833 124.9 158.809 125.013 158.762C125.131 158.714 125.229 158.645 125.31 158.553L125.694 158.943C125.566 159.093 125.411 159.207 125.228 159.283C125.044 159.36 124.85 159.399 124.645 159.399ZM126.354 159.344V155.391H126.958V159.344H126.354Z" fill="#4F46E5"/>
<path d="M132.495 159.163L133.803 155.525H134.199L132.895 159.163H132.495Z" fill="#A6AAB3"/>
<path d="M139.322 159.344V155.5H139.954V159.344H139.322ZM139.756 159.344V158.767H141.765V159.344H139.756ZM143.271 159.399C143.033 159.399 142.817 159.338 142.623 159.218C142.433 159.097 142.281 158.934 142.167 158.729C142.058 158.52 142.003 158.288 142.003 158.032C142.003 157.772 142.058 157.539 142.167 157.334C142.281 157.126 142.433 156.961 142.623 156.84C142.817 156.716 143.033 156.653 143.271 156.653C143.472 156.653 143.65 156.697 143.804 156.785C143.961 156.869 144.085 156.987 144.177 157.137C144.269 157.287 144.314 157.457 144.314 157.647V158.405C144.314 158.595 144.269 158.766 144.177 158.916C144.089 159.066 143.967 159.185 143.809 159.272C143.652 159.357 143.472 159.399 143.271 159.399ZM143.37 158.828C143.593 158.828 143.773 158.753 143.908 158.603C144.047 158.453 144.117 158.26 144.117 158.026C144.117 157.869 144.085 157.73 144.023 157.609C143.961 157.488 143.873 157.395 143.76 157.329C143.65 157.259 143.52 157.224 143.37 157.224C143.223 157.224 143.094 157.259 142.98 157.329C142.87 157.395 142.782 157.488 142.716 157.609C142.654 157.73 142.623 157.869 142.623 158.026C142.623 158.183 142.654 158.323 142.716 158.443C142.782 158.564 142.87 158.659 142.98 158.729C143.094 158.795 143.223 158.828 143.37 158.828ZM144.078 159.344V158.636L144.183 157.993L144.078 157.356V156.708H144.682V159.344H144.078ZM146.764 159.399C146.562 159.399 146.383 159.357 146.225 159.272C146.068 159.185 145.944 159.066 145.852 158.916C145.764 158.766 145.72 158.595 145.72 158.405V157.647C145.72 157.457 145.766 157.287 145.858 157.137C145.949 156.987 146.074 156.869 146.231 156.785C146.388 156.697 146.566 156.653 146.764 156.653C147.002 156.653 147.216 156.716 147.406 156.84C147.6 156.961 147.752 157.126 147.862 157.334C147.975 157.539 148.032 157.772 148.032 158.032C148.032 158.288 147.975 158.52 147.862 158.729C147.752 158.934 147.6 159.097 147.406 159.218C147.216 159.338 147.002 159.399 146.764 159.399ZM145.352 159.344V155.391H145.956V157.356L145.852 157.993L145.956 158.636V159.344H145.352ZM146.665 158.828C146.811 158.828 146.939 158.795 147.049 158.729C147.163 158.659 147.25 158.564 147.313 158.443C147.379 158.323 147.411 158.183 147.411 158.026C147.411 157.869 147.379 157.73 147.313 157.609C147.25 157.488 147.163 157.395 147.049 157.329C146.939 157.259 146.811 157.224 146.665 157.224C146.518 157.224 146.388 157.259 146.275 157.329C146.161 157.395 146.074 157.488 146.011 157.609C145.949 157.73 145.918 157.869 145.918 158.026C145.918 158.183 145.949 158.323 146.011 158.443C146.074 158.564 146.161 158.659 146.275 158.729C146.388 158.795 146.518 158.828 146.665 158.828ZM149.762 159.399C149.498 159.399 149.26 159.34 149.048 159.223C148.84 159.102 148.673 158.938 148.549 158.729C148.428 158.52 148.367 158.286 148.367 158.026C148.367 157.766 148.428 157.534 148.549 157.329C148.669 157.12 148.832 156.955 149.037 156.835C149.246 156.714 149.476 156.653 149.729 156.653C149.974 156.653 150.19 156.71 150.377 156.824C150.567 156.937 150.716 157.093 150.822 157.29C150.931 157.488 150.986 157.713 150.986 157.966C150.986 158.01 150.983 158.055 150.975 158.103C150.972 158.147 150.964 158.196 150.953 158.251H148.79V157.757H150.64L150.415 157.955C150.408 157.794 150.377 157.658 150.322 157.548C150.267 157.439 150.188 157.354 150.086 157.296C149.987 157.237 149.864 157.208 149.718 157.208C149.564 157.208 149.431 157.241 149.317 157.307C149.204 157.373 149.116 157.466 149.054 157.587C148.991 157.704 148.96 157.845 148.96 158.01C148.96 158.174 148.993 158.319 149.059 158.443C149.125 158.568 149.218 158.665 149.339 158.734C149.46 158.8 149.599 158.833 149.756 158.833C149.892 158.833 150.016 158.809 150.13 158.762C150.247 158.714 150.346 158.645 150.426 158.553L150.811 158.943C150.683 159.093 150.527 159.207 150.344 159.283C150.161 159.36 149.967 159.399 149.762 159.399ZM151.471 159.344V155.391H152.075V159.344H151.471Z" fill="#4F46E5"/>
<path d="M157.611 159.163L158.92 155.525H159.315L158.011 159.163H157.611Z" fill="#A6AAB3"/>
<path d="M164.471 159.344V155.533H164.988V159.344H164.471ZM164.823 159.344V158.872H166.865V159.344H164.823ZM168.41 159.399C168.172 159.399 167.956 159.34 167.762 159.223C167.568 159.102 167.414 158.939 167.301 158.734C167.191 158.529 167.136 158.299 167.136 158.043C167.136 157.786 167.191 157.556 167.301 157.351C167.414 157.146 167.566 156.983 167.756 156.862C167.95 156.741 168.168 156.681 168.41 156.681C168.607 156.681 168.783 156.723 168.937 156.807C169.094 156.888 169.221 157.001 169.316 157.148C169.411 157.29 169.464 157.457 169.475 157.647V158.432C169.464 158.619 169.411 158.786 169.316 158.932C169.224 159.078 169.1 159.194 168.942 159.278C168.789 159.359 168.611 159.399 168.41 159.399ZM168.492 158.932C168.737 158.932 168.935 158.85 169.085 158.685C169.235 158.517 169.31 158.302 169.31 158.043C169.31 157.863 169.275 157.708 169.206 157.576C169.14 157.44 169.045 157.336 168.92 157.263C168.796 157.186 168.651 157.148 168.487 157.148C168.322 157.148 168.175 157.186 168.047 157.263C167.923 157.34 167.824 157.446 167.751 157.581C167.681 157.713 167.647 157.865 167.647 158.037C167.647 158.213 167.681 158.368 167.751 158.504C167.824 158.636 167.925 158.74 168.053 158.817C168.181 158.894 168.327 158.932 168.492 158.932ZM169.277 159.344V158.641L169.371 158.004L169.277 157.373V156.736H169.777V159.344H169.277ZM171.869 159.399C171.671 159.399 171.492 159.359 171.331 159.278C171.174 159.194 171.047 159.078 170.952 158.932C170.857 158.786 170.804 158.619 170.793 158.432V157.647C170.804 157.457 170.857 157.29 170.952 157.148C171.051 157.001 171.179 156.888 171.336 156.807C171.498 156.723 171.675 156.681 171.869 156.681C172.107 156.681 172.321 156.741 172.511 156.862C172.705 156.983 172.857 157.146 172.967 157.351C173.077 157.556 173.132 157.786 173.132 158.043C173.132 158.299 173.077 158.529 172.967 158.734C172.857 158.939 172.705 159.102 172.511 159.223C172.321 159.34 172.107 159.399 171.869 159.399ZM170.496 159.344V155.423H170.991V157.373L170.897 158.004L170.991 158.641V159.344H170.496ZM171.787 158.932C171.951 158.932 172.096 158.894 172.22 158.817C172.345 158.74 172.444 158.636 172.517 158.504C172.59 158.368 172.627 158.213 172.627 158.037C172.627 157.865 172.59 157.711 172.517 157.576C172.444 157.44 172.345 157.336 172.22 157.263C172.096 157.186 171.953 157.148 171.792 157.148C171.627 157.148 171.483 157.186 171.358 157.263C171.234 157.336 171.137 157.44 171.067 157.576C170.998 157.711 170.963 157.867 170.963 158.043C170.963 158.215 170.996 158.368 171.062 158.504C171.131 158.636 171.228 158.74 171.353 158.817C171.481 158.894 171.626 158.932 171.787 158.932ZM174.9 159.399C174.64 159.399 174.406 159.34 174.197 159.223C173.989 159.102 173.824 158.939 173.703 158.734C173.582 158.529 173.522 158.297 173.522 158.037C173.522 157.781 173.581 157.55 173.698 157.345C173.818 157.14 173.98 156.979 174.181 156.862C174.386 156.741 174.615 156.681 174.867 156.681C175.109 156.681 175.321 156.736 175.504 156.846C175.691 156.955 175.835 157.107 175.938 157.301C176.044 157.495 176.097 157.715 176.097 157.96C176.097 157.997 176.095 158.037 176.092 158.081C176.088 158.121 176.081 158.169 176.07 158.224H173.868V157.812H175.806L175.625 157.971C175.625 157.795 175.594 157.647 175.532 157.526C175.469 157.402 175.381 157.307 175.268 157.241C175.155 157.171 175.017 157.137 174.856 157.137C174.688 157.137 174.54 157.173 174.411 157.246C174.283 157.32 174.184 157.422 174.115 157.554C174.045 157.686 174.011 157.841 174.011 158.021C174.011 158.204 174.047 158.365 174.12 158.504C174.194 158.639 174.298 158.745 174.433 158.822C174.569 158.895 174.724 158.932 174.9 158.932C175.047 158.932 175.18 158.906 175.301 158.855C175.425 158.804 175.532 158.727 175.619 158.625L175.938 158.949C175.813 159.095 175.66 159.207 175.477 159.283C175.297 159.36 175.105 159.399 174.9 159.399ZM176.636 159.344V155.423H177.13V159.344H176.636Z" fill="#646A77"/>
<path d="M113.249 190.152V188.62H115.156C115.399 188.62 115.621 188.57 115.821 188.47C116.022 188.369 116.181 188.223 116.298 188.031C116.415 187.838 116.474 187.604 116.474 187.328C116.474 187.06 116.415 186.83 116.298 186.637C116.181 186.445 116.022 186.299 115.821 186.198C115.621 186.098 115.399 186.048 115.156 186.048H113.249V184.516H115.445C116.005 184.516 116.512 184.629 116.963 184.855C117.415 185.081 117.771 185.408 118.03 185.834C118.298 186.253 118.432 186.75 118.432 187.328C118.432 187.905 118.298 188.407 118.03 188.834C117.771 189.252 117.415 189.578 116.963 189.813C116.512 190.039 116.005 190.152 115.445 190.152H113.249ZM111.743 193.377V184.516H113.713V193.377H111.743ZM121.738 193.502C121.177 193.502 120.675 193.364 120.232 193.088C119.797 192.812 119.45 192.436 119.19 191.959C118.939 191.482 118.814 190.938 118.814 190.327C118.814 189.716 118.939 189.173 119.19 188.696C119.45 188.219 119.797 187.842 120.232 187.566C120.675 187.29 121.177 187.152 121.738 187.152C122.148 187.152 122.516 187.232 122.842 187.39C123.177 187.549 123.449 187.771 123.658 188.056C123.867 188.332 123.984 188.65 124.009 189.009V191.645C123.984 192.005 123.867 192.327 123.658 192.611C123.457 192.887 123.19 193.105 122.855 193.264C122.52 193.423 122.148 193.502 121.738 193.502ZM122.127 191.771C122.537 191.771 122.867 191.637 123.118 191.369C123.369 191.093 123.495 190.746 123.495 190.327C123.495 190.043 123.436 189.792 123.319 189.574C123.21 189.357 123.051 189.189 122.842 189.072C122.642 188.947 122.407 188.884 122.139 188.884C121.872 188.884 121.633 188.947 121.424 189.072C121.223 189.189 121.06 189.357 120.935 189.574C120.818 189.792 120.759 190.043 120.759 190.327C120.759 190.603 120.818 190.85 120.935 191.068C121.052 191.285 121.215 191.457 121.424 191.582C121.633 191.708 121.868 191.771 122.127 191.771ZM123.42 193.377V191.733L123.708 190.252L123.42 188.771V187.278H125.302V193.377H123.42ZM129.24 196.113C128.57 196.113 127.98 195.996 127.47 195.762C126.968 195.536 126.57 195.213 126.278 194.795L127.457 193.615C127.675 193.875 127.918 194.071 128.185 194.205C128.461 194.339 128.792 194.406 129.177 194.406C129.654 194.406 130.026 194.289 130.294 194.055C130.57 193.82 130.708 193.49 130.708 193.063V191.507L131.034 190.177L130.746 188.846V187.278H132.628V193.013C132.628 193.641 132.482 194.184 132.189 194.645C131.896 195.105 131.494 195.464 130.984 195.724C130.474 195.983 129.892 196.113 129.24 196.113ZM129.152 193.189C128.591 193.189 128.093 193.055 127.658 192.787C127.223 192.519 126.88 192.155 126.629 191.695C126.378 191.235 126.253 190.725 126.253 190.164C126.253 189.595 126.378 189.085 126.629 188.633C126.88 188.173 127.223 187.813 127.658 187.554C128.093 187.286 128.591 187.152 129.152 187.152C129.57 187.152 129.942 187.232 130.269 187.39C130.603 187.541 130.871 187.759 131.072 188.043C131.281 188.319 131.398 188.641 131.423 189.009V191.331C131.398 191.691 131.281 192.013 131.072 192.298C130.871 192.574 130.603 192.791 130.269 192.95C129.934 193.109 129.562 193.189 129.152 193.189ZM129.516 191.482C129.783 191.482 130.013 191.423 130.206 191.306C130.407 191.189 130.557 191.034 130.658 190.842C130.766 190.641 130.821 190.415 130.821 190.164C130.821 189.913 130.766 189.687 130.658 189.486C130.557 189.286 130.407 189.127 130.206 189.009C130.013 188.892 129.783 188.834 129.516 188.834C129.256 188.834 129.026 188.892 128.825 189.009C128.625 189.127 128.47 189.286 128.361 189.486C128.252 189.687 128.198 189.913 128.198 190.164C128.198 190.398 128.252 190.62 128.361 190.829C128.47 191.03 128.62 191.189 128.813 191.306C129.014 191.423 129.248 191.482 129.516 191.482ZM136.995 193.515C136.334 193.515 135.745 193.381 135.226 193.113C134.715 192.837 134.314 192.457 134.021 191.971C133.728 191.486 133.582 190.938 133.582 190.327C133.582 189.716 133.724 189.173 134.008 188.696C134.301 188.21 134.694 187.83 135.188 187.554C135.682 187.278 136.238 187.139 136.857 187.139C137.46 187.139 137.991 187.269 138.451 187.529C138.911 187.788 139.271 188.148 139.531 188.608C139.798 189.068 139.932 189.595 139.932 190.189C139.932 190.298 139.924 190.415 139.907 190.541C139.899 190.658 139.878 190.796 139.844 190.955L134.586 190.967V189.65L139.029 189.637L138.2 190.189C138.192 189.838 138.137 189.549 138.037 189.323C137.937 189.089 137.786 188.913 137.585 188.796C137.393 188.671 137.154 188.608 136.87 188.608C136.569 188.608 136.305 188.679 136.079 188.821C135.862 188.955 135.69 189.148 135.565 189.399C135.448 189.65 135.389 189.955 135.389 190.315C135.389 190.674 135.452 190.984 135.577 191.243C135.711 191.494 135.895 191.691 136.129 191.833C136.372 191.967 136.657 192.034 136.983 192.034C137.284 192.034 137.556 191.984 137.799 191.883C138.041 191.775 138.255 191.616 138.439 191.407L139.493 192.461C139.192 192.812 138.828 193.076 138.401 193.251C137.974 193.427 137.506 193.515 136.995 193.515ZM144.115 193.377V184.755H146.035V193.377H144.115ZM142.734 188.909V187.278H147.416V188.909H142.734ZM148.262 193.377V187.278H150.182V193.377H148.262ZM149.228 186.437C148.927 186.437 148.676 186.336 148.475 186.135C148.283 185.926 148.186 185.675 148.186 185.382C148.186 185.081 148.283 184.83 148.475 184.629C148.676 184.429 148.927 184.328 149.228 184.328C149.529 184.328 149.776 184.429 149.969 184.629C150.161 184.83 150.257 185.081 150.257 185.382C150.257 185.675 150.161 185.926 149.969 186.135C149.776 186.336 149.529 186.437 149.228 186.437ZM152.4 193.377V184.755H154.32V193.377H152.4ZM151.02 188.909V187.278H155.701V188.909H151.02ZM156.547 193.377V184.265H158.467V193.377H156.547ZM162.831 193.515C162.17 193.515 161.58 193.381 161.062 193.113C160.551 192.837 160.15 192.457 159.857 191.971C159.564 191.486 159.418 190.938 159.418 190.327C159.418 189.716 159.56 189.173 159.844 188.696C160.137 188.21 160.53 187.83 161.024 187.554C161.518 187.278 162.074 187.139 162.693 187.139C163.296 187.139 163.827 187.269 164.287 187.529C164.747 187.788 165.107 188.148 165.366 188.608C165.634 189.068 165.768 189.595 165.768 190.189C165.768 190.298 165.76 190.415 165.743 190.541C165.735 190.658 165.714 190.796 165.68 190.955L160.422 190.967V189.65L164.864 189.637L164.036 190.189C164.028 189.838 163.973 189.549 163.873 189.323C163.773 189.089 163.622 188.913 163.421 188.796C163.229 188.671 162.99 188.608 162.706 188.608C162.405 188.608 162.141 188.679 161.915 188.821C161.698 188.955 161.526 189.148 161.401 189.399C161.283 189.65 161.225 189.955 161.225 190.315C161.225 190.674 161.288 190.984 161.413 191.243C161.547 191.494 161.731 191.691 161.965 191.833C162.208 191.967 162.492 192.034 162.819 192.034C163.12 192.034 163.392 191.984 163.634 191.883C163.877 191.775 164.09 191.616 164.275 191.407L165.329 192.461C165.028 192.812 164.664 193.076 164.237 193.251C163.81 193.427 163.342 193.515 162.831 193.515Z" fill="#2A2C35"/>
<path d="M111 211.775C111 208.309 113.809 205.5 117.275 205.5H362.725C366.191 205.5 369 208.309 369 211.775V305.5H111V211.775Z" fill="#F1F2F4"/>
<path d="M382 211.775C382 208.309 384.809 205.5 388.275 205.5H593.725C597.191 205.5 600 208.309 600 211.775V305.5H382V211.775Z" fill="#F1F2F4"/>
<path d="M45 126C45 119.373 50.3726 114 57 114H73V306H57C50.3726 306 45 300.627 45 294V126Z" fill="#4F46E5"/>
<path fill-rule="evenodd" clip-rule="evenodd" d="M54.8492 136.905C54.5679 136.691 54.158 136.611 53.8607 136.802C53.4267 137.088 53.3062 137.675 53.708 138.008C54.2947 138.508 55.0902 138.889 55.8698 138.889C57.4529 138.889 58.7066 137.81 59.0923 136.484C60.2013 137.222 61.6961 137.262 62.9095 136.524L63.5123 137.151C63.8176 137.461 64.3079 137.461 64.6373 137.151C64.9588 136.85 64.9829 136.342 64.6856 136.024L64.0828 135.397C64.8865 134.215 64.9106 132.715 64.2275 131.572C65.5695 131.279 66.7107 130.057 66.775 128.438C66.8714 125.97 64.3963 124.446 62.3229 125.692L59.687 127.279C59.6066 127.168 59.5182 127.065 59.4218 126.962C58.7146 126.216 57.702 125.914 56.7377 126.049C56.7377 125.954 56.7457 125.851 56.7618 125.748C56.818 125.351 56.9707 124.986 57.2681 124.692C57.5976 124.383 57.6136 123.883 57.3163 123.565C57.0109 123.256 56.5207 123.256 56.1912 123.565C55.5483 124.184 55.2751 124.938 55.1786 125.589C55.1224 126.002 55.1304 126.398 55.1786 126.724C55.0902 126.787 55.0018 126.867 54.9134 126.954C54.825 127.033 54.7447 127.121 54.6724 127.208C54.3509 127.144 53.9571 127.113 53.5392 127.152C52.8883 127.216 52.1249 127.446 51.482 128.065C51.1525 128.374 51.1364 128.874 51.4337 129.192C51.7391 129.501 52.2293 129.501 52.5588 129.192C52.8642 128.906 53.2419 128.771 53.6276 128.731C53.7321 128.731 53.8366 128.716 53.933 128.731C53.7401 129.7 54.0053 130.731 54.7125 131.477C54.7929 131.557 54.8652 131.628 54.9536 131.699L54.6322 132.16C54.5036 132.35 54.4634 132.564 54.5036 132.763L54.592 133.207C54.6161 133.326 54.584 133.453 54.5197 133.548C54.4152 133.707 54.3188 133.739 54.1661 133.771L53.6357 133.882C53.3946 133.929 53.1776 134.08 53.033 134.302C52.7356 134.747 52.8481 135.334 53.2821 135.612C53.716 135.889 54.3027 135.754 54.6 135.31C54.7447 135.088 54.7929 134.834 54.7447 134.596L54.6402 134.072C54.6081 133.921 54.6081 133.81 54.7045 133.659C54.7688 133.556 54.8652 133.485 54.9858 133.453L55.4278 133.35C55.6287 133.302 55.8055 133.175 55.926 132.985L56.143 132.652L57.4127 134.985C57.9753 136.032 57.1475 137.342 55.9099 137.342C55.5563 137.342 55.1706 137.151 54.8492 136.905ZM58.3369 132.342L58.8914 133.469C59.5665 133.334 60.6594 132.794 61.1657 131.223L60.121 130.636L59.2289 131.493L58.3449 132.342H58.3369ZM62.4595 134.897C61.6237 135.699 60.354 135.635 59.6548 134.858C60.6755 134.493 61.8568 133.659 62.5077 132.033C63.2872 132.771 63.3194 134.08 62.4595 134.897ZM58.144 130.358C58.795 129.731 58.8432 128.724 58.2405 128.097C57.6538 127.47 56.6412 127.462 55.9903 128.089C55.3394 128.716 55.2912 129.723 55.8939 130.35C56.4805 130.977 57.4931 130.985 58.144 130.358ZM60.6915 128.454L63.014 127.065C64.0587 126.43 65.2963 127.192 65.2481 128.438C65.1999 129.684 63.8819 130.453 62.8935 129.835L60.6915 128.454Z" fill="white"/>
<path d="M57.177 161.979C56.8742 161.979 56.5781 162.069 56.3263 162.237C56.0745 162.405 55.8782 162.645 55.7623 162.924C55.6464 163.204 55.6161 163.512 55.6752 163.809C55.7343 164.106 55.8801 164.379 56.0942 164.593C56.3084 164.807 56.5812 164.953 56.8783 165.012C57.1753 165.071 57.4832 165.041 57.763 164.925C58.0428 164.809 58.2819 164.613 58.4502 164.361C58.6184 164.109 58.7083 163.813 58.7083 163.51C58.7083 163.104 58.5469 162.715 58.2598 162.428C57.9726 162.14 57.5831 161.979 57.177 161.979ZM57.177 164.167C57.0472 164.167 56.9203 164.128 56.8124 164.056C56.7045 163.984 56.6204 163.881 56.5707 163.762C56.521 163.642 56.508 163.51 56.5334 163.382C56.5587 163.255 56.6212 163.138 56.713 163.046C56.8047 162.955 56.9217 162.892 57.049 162.867C57.1763 162.841 57.3082 162.854 57.4281 162.904C57.5481 162.954 57.6505 163.038 57.7227 163.146C57.7948 163.254 57.8333 163.381 57.8333 163.51C57.8333 163.684 57.7641 163.851 57.641 163.974C57.518 164.097 57.3511 164.167 57.177 164.167ZM60.8228 165.042C61.1257 165.042 61.4217 164.952 61.6736 164.784C61.9254 164.615 62.1216 164.376 62.2375 164.096C62.3534 163.817 62.3837 163.509 62.3247 163.212C62.2656 162.915 62.1197 162.642 61.9056 162.428C61.6914 162.213 61.4186 162.068 61.1216 162.009C60.8245 161.949 60.5167 161.98 60.2369 162.096C59.9571 162.212 59.7179 162.408 59.5496 162.66C59.3814 162.911 59.2916 163.208 59.2916 163.51C59.2916 163.916 59.4529 164.306 59.7401 164.593C60.0272 164.88 60.4167 165.042 60.8228 165.042ZM60.8228 162.854C60.9526 162.854 61.0795 162.893 61.1874 162.965C61.2953 163.037 61.3795 163.139 61.4291 163.259C61.4788 163.379 61.4918 163.511 61.4665 163.638C61.4412 163.766 61.3787 163.883 61.2869 163.974C61.1951 164.066 61.0782 164.129 60.9509 164.154C60.8236 164.179 60.6916 164.166 60.5717 164.117C60.4518 164.067 60.3493 163.983 60.2772 163.875C60.2051 163.767 60.1666 163.64 60.1666 163.51C60.1666 163.336 60.2357 163.169 60.3588 163.046C60.4819 162.923 60.6488 162.854 60.8228 162.854ZM57.177 165.625C56.8742 165.625 56.5781 165.715 56.3263 165.883C56.0745 166.051 55.8782 166.29 55.7623 166.57C55.6464 166.85 55.6161 167.158 55.6752 167.455C55.7343 167.752 55.8801 168.025 56.0942 168.239C56.3084 168.453 56.5812 168.599 56.8783 168.658C57.1753 168.717 57.4832 168.687 57.763 168.571C58.0428 168.455 58.2819 168.259 58.4502 168.007C58.6184 167.755 58.7083 167.459 58.7083 167.156C58.7083 166.75 58.5469 166.361 58.2598 166.073C57.9726 165.786 57.5831 165.625 57.177 165.625ZM57.177 167.812C57.0472 167.812 56.9203 167.774 56.8124 167.702C56.7045 167.63 56.6204 167.527 56.5707 167.407C56.521 167.287 56.508 167.155 56.5334 167.028C56.5587 166.901 56.6212 166.784 56.713 166.692C56.8047 166.6 56.9217 166.538 57.049 166.513C57.1763 166.487 57.3082 166.5 57.4281 166.55C57.5481 166.6 57.6505 166.684 57.7227 166.792C57.7948 166.9 57.8333 167.026 57.8333 167.156C57.8333 167.33 57.7641 167.497 57.641 167.62C57.518 167.743 57.3511 167.812 57.177 167.812ZM60.8228 165.625C60.52 165.625 60.2239 165.715 59.9721 165.883C59.7203 166.051 59.524 166.29 59.4081 166.57C59.2922 166.85 59.2619 167.158 59.321 167.455C59.3801 167.752 59.5259 168.025 59.7401 168.239C59.9542 168.453 60.2271 168.599 60.5241 168.658C60.8211 168.717 61.129 168.687 61.4088 168.571C61.6886 168.455 61.9278 168.259 62.096 168.007C62.2643 167.755 62.3541 167.459 62.3541 167.156C62.3541 166.75 62.1928 166.361 61.9056 166.073C61.6184 165.786 61.2289 165.625 60.8228 165.625ZM60.8228 167.812C60.693 167.812 60.5662 167.774 60.4582 167.702C60.3503 167.63 60.2662 167.527 60.2165 167.407C60.1669 167.287 60.1539 167.155 60.1792 167.028C60.2045 166.901 60.267 166.784 60.3588 166.692C60.4506 166.6 60.5675 166.538 60.6948 166.513C60.8221 166.487 60.9541 166.5 61.074 166.55C61.1939 166.6 61.2964 166.684 61.3685 166.792C61.4406 166.9 61.4791 167.026 61.4791 167.156C61.4791 167.33 61.4099 167.497 61.2869 167.62C61.1638 167.743 60.9969 167.812 60.8228 167.812Z" fill="white"/>
<path d="M62.4999 187.16H55.4999C55.3065 187.16 55.1211 187.236 54.9843 187.373C54.8476 187.51 54.7708 187.695 54.7708 187.889V192.556C54.7708 192.749 54.8476 192.934 54.9843 193.071C55.1211 193.208 55.3065 193.285 55.4999 193.285H62.4999C62.6933 193.285 62.8788 193.208 63.0155 193.071C63.1523 192.934 63.2291 192.749 63.2291 192.556V187.889C63.2291 187.695 63.1523 187.51 63.0155 187.373C62.8788 187.236 62.6933 187.16 62.4999 187.16ZM62.3541 188.035V188.764H55.6458V188.035H62.3541ZM55.6458 192.41V189.639H62.3541V192.41H55.6458ZM61.9166 191.535C61.9166 191.651 61.8705 191.762 61.7884 191.844C61.7064 191.926 61.5951 191.972 61.4791 191.972H60.3124C60.1964 191.972 60.0851 191.926 60.0031 191.844C59.921 191.762 59.8749 191.651 59.8749 191.535C59.8749 191.419 59.921 191.307 60.0031 191.225C60.0851 191.143 60.1964 191.097 60.3124 191.097H61.4791C61.5951 191.097 61.7064 191.143 61.7884 191.225C61.8705 191.307 61.9166 191.419 61.9166 191.535ZM59.4374 191.535C59.4374 191.651 59.3913 191.762 59.3093 191.844C59.2272 191.926 59.116 191.972 58.9999 191.972H58.5624C58.4464 191.972 58.3351 191.926 58.2531 191.844C58.171 191.762 58.1249 191.651 58.1249 191.535C58.1249 191.419 58.171 191.307 58.2531 191.225C58.3351 191.143 58.4464 191.097 58.5624 191.097H58.9999C59.116 191.097 59.2272 191.143 59.3093 191.225C59.3913 191.307 59.4374 191.419 59.4374 191.535Z" fill="white"/>
<path d="M48.1111 210.444C48.1111 207.511 48.1111 206.045 49.0223 205.133C49.9335 204.222 51.4001 204.222 54.3333 204.222H63.6666C66.5998 204.222 68.0664 204.222 68.9776 205.133C69.8889 206.045 69.8889 207.511 69.8889 210.444V219.778C69.8889 222.711 69.8889 224.177 68.9776 225.089C68.0664 226 66.5998 226 63.6666 226H54.3333C51.4001 226 49.9335 226 49.0223 225.089C48.1111 224.177 48.1111 222.711 48.1111 219.778V210.444Z" fill="#E9F0FF"/>
<path d="M63.0832 217.882H62.6457V213.944C62.6457 213.751 62.5688 213.565 62.4321 213.429C62.2954 213.292 62.1099 213.215 61.9165 213.215H60.604V211.611C60.604 211.488 60.573 211.368 60.514 211.26C60.4551 211.153 60.3699 211.062 60.2665 210.996C60.1632 210.93 60.0448 210.892 59.9225 210.884C59.8002 210.876 59.6779 210.899 59.5668 210.95L55.7751 212.72C55.6494 212.779 55.5431 212.872 55.4685 212.989C55.394 213.106 55.3542 213.242 55.354 213.381V217.882H54.9165C54.8005 217.882 54.6892 217.928 54.6071 218.01C54.5251 218.092 54.479 218.203 54.479 218.319C54.479 218.435 54.5251 218.547 54.6071 218.629C54.6892 218.711 54.8005 218.757 54.9165 218.757H63.0832C63.1992 218.757 63.3105 218.711 63.3925 218.629C63.4746 218.547 63.5207 218.435 63.5207 218.319C63.5207 218.203 63.4746 218.092 63.3925 218.01C63.3105 217.928 63.1992 217.882 63.0832 217.882ZM61.7707 214.09V217.882H60.604V214.09H61.7707ZM56.229 213.474L59.729 211.841V217.882H56.229V213.474ZM59.1457 214.528V214.965C59.1457 215.081 59.0996 215.192 59.0175 215.275C58.9355 215.357 58.8242 215.403 58.7082 215.403C58.5921 215.403 58.4809 215.357 58.3988 215.275C58.3168 215.192 58.2707 215.081 58.2707 214.965V214.528C58.2707 214.412 58.3168 214.3 58.3988 214.218C58.4809 214.136 58.5921 214.09 58.7082 214.09C58.8242 214.09 58.9355 214.136 59.0175 214.218C59.0996 214.3 59.1457 214.412 59.1457 214.528ZM57.6873 214.528V214.965C57.6873 215.081 57.6412 215.192 57.5592 215.275C57.4771 215.357 57.3659 215.403 57.2498 215.403C57.1338 215.403 57.0225 215.357 56.9405 215.275C56.8584 215.192 56.8123 215.081 56.8123 214.965V214.528C56.8123 214.412 56.8584 214.3 56.9405 214.218C57.0225 214.136 57.1338 214.09 57.2498 214.09C57.3659 214.09 57.4771 214.136 57.5592 214.218C57.6412 214.3 57.6873 214.412 57.6873 214.528ZM57.6873 216.423V216.861C57.6873 216.977 57.6412 217.088 57.5592 217.17C57.4771 217.252 57.3659 217.298 57.2498 217.298C57.1338 217.298 57.0225 217.252 56.9405 217.17C56.8584 217.088 56.8123 216.977 56.8123 216.861V216.423C56.8123 216.307 56.8584 216.196 56.9405 216.114C57.0225 216.032 57.1338 215.986 57.2498 215.986C57.3659 215.986 57.4771 216.032 57.5592 216.114C57.6412 216.196 57.6873 216.307 57.6873 216.423ZM59.1457 216.423V216.861C59.1457 216.977 59.0996 217.088 59.0175 217.17C58.9355 217.252 58.8242 217.298 58.7082 217.298C58.5921 217.298 58.4809 217.252 58.3988 217.17C58.3168 217.088 58.2707 216.977 58.2707 216.861V216.423C58.2707 216.307 58.3168 216.196 58.3988 216.114C58.4809 216.032 58.5921 215.986 58.7082 215.986C58.8242 215.986 58.9355 216.032 59.0175 216.114C59.0996 216.196 59.1457 216.307 59.1457 216.423Z" fill="#4F46E5"/>
<path d="M63.1926 238.835C63.1483 238.699 63.065 238.579 62.9531 238.491C62.8412 238.402 62.7057 238.347 62.5633 238.335L60.4852 238.155L59.6722 236.218C59.6163 236.086 59.5228 235.974 59.4034 235.895C59.2841 235.816 59.1441 235.774 59.001 235.774C58.8579 235.774 58.7179 235.816 58.5985 235.895C58.4792 235.974 58.3857 236.086 58.3298 236.218L57.5157 238.155L55.4376 238.335C55.2944 238.347 55.158 238.401 55.0453 238.49C54.9327 238.579 54.8489 238.699 54.8044 238.836C54.7599 238.972 54.7568 239.119 54.7953 239.257C54.8339 239.396 54.9125 239.52 55.0212 239.614L56.6006 240.992L56.1266 243.042C56.0941 243.182 56.1035 243.328 56.1536 243.462C56.2036 243.596 56.2922 243.713 56.4082 243.797C56.5241 243.882 56.6624 243.93 56.8056 243.936C56.9488 243.942 57.0907 243.906 57.2134 243.832L58.9999 242.747L60.7864 243.832C60.9091 243.906 61.0509 243.942 61.1941 243.936C61.3372 243.929 61.4754 243.881 61.5913 243.797C61.7072 243.713 61.7957 243.596 61.8458 243.462C61.8959 243.328 61.9053 243.182 61.8728 243.042L61.3989 240.992L62.9782 239.614C63.0867 239.519 63.1648 239.395 63.203 239.257C63.2411 239.118 63.2375 238.972 63.1926 238.835ZM60.759 240.389C60.659 240.476 60.5846 240.589 60.5438 240.715C60.5031 240.841 60.4974 240.976 60.5275 241.105L60.9428 242.903L59.3772 241.952C59.2635 241.883 59.133 241.846 58.9999 241.846C58.8668 241.846 58.7362 241.883 58.6226 241.952L57.057 242.903L57.4723 241.105C57.5024 240.976 57.4967 240.841 57.4559 240.715C57.4152 240.589 57.3408 240.476 57.2408 240.389L55.8521 239.177L57.6801 239.019C57.8125 239.008 57.9392 238.961 58.0465 238.882C58.1538 238.804 58.2375 238.697 58.2886 238.575L58.9999 236.88L59.7112 238.575C59.7623 238.697 59.846 238.804 59.9533 238.882C60.0606 238.961 60.1873 239.008 60.3197 239.019L62.1477 239.177L60.759 240.389Z" fill="white"/>
</g>
<defs>
<filter id="filter0_d_5212_36620" x="13" y="92" width="657" height="256" filterUnits="userSpaceOnUse" color-interpolation-filters="sRGB">
<feFlood flood-opacity="0" result="BackgroundImageFix"/>
<feColorMatrix in="SourceAlpha" type="matrix" values="0 0 0 0 0 0 0 0 0 0 0 0 0 0 0 0 0 0 127 0" result="hardAlpha"/>
<feMorphology radius="16" operator="erode" in="SourceAlpha" result="effect1_dropShadow_5212_36620"/>
<feOffset dy="10"/>
<feGaussianBlur stdDeviation="24"/>
<feColorMatrix type="matrix" values="0 0 0 0 0 0 0 0 0 0 0 0 0 0 0 0 0 0 0.12 0"/>
<feBlend mode="normal" in2="BackgroundImageFix" result="effect1_dropShadow_5212_36620"/>
<feBlend mode="normal" in="SourceGraphic" in2="effect1_dropShadow_5212_36620" result="shape"/>
</filter>
</defs>
</svg>
