<svg width="683" height="420" viewBox="0 0 683 420" fill="none" xmlns="http://www.w3.org/2000/svg">
<rect width="683" height="420" fill="#F6F6F8"/>
<path d="M214.781 214.156H214.125V209.319C214.125 209.168 214.093 209.019 214.033 208.881C213.972 208.742 213.883 208.618 213.773 208.515L209.4 204.388L209.392 204.38C209.191 204.196 208.928 204.094 208.656 204.094C208.383 204.094 208.121 204.196 207.92 204.38L207.911 204.388L203.539 208.515C203.429 208.618 203.34 208.742 203.279 208.881C203.219 209.019 203.187 209.168 203.187 209.319V214.156H202.531C202.357 214.156 202.19 214.225 202.067 214.349C201.944 214.472 201.875 214.639 201.875 214.813C201.875 214.987 201.944 215.154 202.067 215.277C202.19 215.4 202.357 215.469 202.531 215.469H214.781C214.955 215.469 215.122 215.4 215.245 215.277C215.368 215.154 215.437 214.987 215.437 214.813C215.437 214.639 215.368 214.472 215.245 214.349C215.122 214.225 214.955 214.156 214.781 214.156ZM204.5 209.414L208.656 205.49L212.812 209.414V214.156H210.625V211.75C210.625 211.606 210.596 211.464 210.541 211.332C210.487 211.199 210.406 211.078 210.304 210.977C210.203 210.875 210.082 210.795 209.95 210.74C209.817 210.685 209.675 210.656 209.531 210.656H207.781C207.491 210.656 207.213 210.772 207.008 210.977C206.802 211.182 206.687 211.46 206.687 211.75V214.156H204.5V209.414ZM209.312 214.156H208V211.969H209.312V214.156Z" fill="#4F46E5"/>
<path d="M220.72 215.5V205.7H222.33V215.5H220.72ZM226.95 215.5V205.7H228.56V215.5H226.95ZM221.826 211.16V209.69H227.3V211.16H221.826ZM233.557 215.64C232.903 215.64 232.311 215.486 231.779 215.178C231.247 214.861 230.822 214.436 230.505 213.904C230.197 213.372 230.043 212.779 230.043 212.126C230.043 211.473 230.197 210.885 230.505 210.362C230.822 209.839 231.247 209.424 231.779 209.116C232.311 208.799 232.903 208.64 233.557 208.64C234.219 208.64 234.817 208.794 235.349 209.102C235.881 209.41 236.301 209.83 236.609 210.362C236.926 210.885 237.085 211.473 237.085 212.126C237.085 212.779 236.926 213.372 236.609 213.904C236.301 214.436 235.881 214.861 235.349 215.178C234.817 215.486 234.219 215.64 233.557 215.64ZM233.557 214.156C233.939 214.156 234.275 214.072 234.565 213.904C234.863 213.727 235.092 213.484 235.251 213.176C235.419 212.868 235.503 212.518 235.503 212.126C235.503 211.734 235.419 211.389 235.251 211.09C235.083 210.791 234.854 210.558 234.565 210.39C234.275 210.213 233.939 210.124 233.557 210.124C233.183 210.124 232.847 210.213 232.549 210.39C232.259 210.558 232.031 210.791 231.863 211.09C231.704 211.389 231.625 211.734 231.625 212.126C231.625 212.518 231.704 212.868 231.863 213.176C232.031 213.484 232.259 213.727 232.549 213.904C232.847 214.072 233.183 214.156 233.557 214.156ZM238.365 215.5V208.78H239.905V215.5H238.365ZM242.831 215.5V211.496C242.831 211.048 242.691 210.703 242.411 210.46C242.131 210.208 241.786 210.082 241.375 210.082C241.095 210.082 240.843 210.138 240.619 210.25C240.405 210.362 240.232 210.525 240.101 210.74C239.971 210.945 239.905 211.197 239.905 211.496L239.303 211.16C239.303 210.647 239.415 210.203 239.639 209.83C239.863 209.457 240.167 209.167 240.549 208.962C240.932 208.747 241.361 208.64 241.837 208.64C242.313 208.64 242.743 208.743 243.125 208.948C243.508 209.153 243.811 209.443 244.035 209.816C244.259 210.189 244.371 210.637 244.371 211.16V215.5H242.831ZM247.297 215.5V211.496C247.297 211.048 247.157 210.703 246.877 210.46C246.597 210.208 246.252 210.082 245.841 210.082C245.571 210.082 245.323 210.138 245.099 210.25C244.875 210.362 244.698 210.525 244.567 210.74C244.437 210.945 244.371 211.197 244.371 211.496L243.503 211.16C243.55 210.647 243.699 210.203 243.951 209.83C244.203 209.457 244.525 209.167 244.917 208.962C245.319 208.747 245.757 208.64 246.233 208.64C246.719 208.64 247.157 208.743 247.549 208.948C247.941 209.153 248.254 209.443 248.487 209.816C248.721 210.189 248.837 210.637 248.837 211.16V215.5H247.297ZM253.546 215.64C252.874 215.64 252.267 215.491 251.726 215.192C251.194 214.884 250.769 214.464 250.452 213.932C250.144 213.4 249.99 212.803 249.99 212.14C249.99 211.477 250.144 210.885 250.452 210.362C250.76 209.83 251.175 209.41 251.698 209.102C252.23 208.794 252.818 208.64 253.462 208.64C254.087 208.64 254.638 208.785 255.114 209.074C255.599 209.363 255.977 209.76 256.248 210.264C256.528 210.768 256.668 211.342 256.668 211.986C256.668 212.098 256.659 212.215 256.64 212.336C256.631 212.448 256.612 212.574 256.584 212.714H251.068V211.454H255.786L255.212 211.958C255.193 211.547 255.114 211.202 254.974 210.922C254.834 210.642 254.633 210.427 254.372 210.278C254.12 210.129 253.807 210.054 253.434 210.054C253.042 210.054 252.701 210.138 252.412 210.306C252.123 210.474 251.899 210.712 251.74 211.02C251.581 211.319 251.502 211.678 251.502 212.098C251.502 212.518 251.586 212.887 251.754 213.204C251.922 213.521 252.16 213.769 252.468 213.946C252.776 214.114 253.131 214.198 253.532 214.198C253.877 214.198 254.195 214.137 254.484 214.016C254.783 213.895 255.035 213.717 255.24 213.484L256.22 214.478C255.893 214.861 255.497 215.15 255.03 215.346C254.563 215.542 254.069 215.64 253.546 215.64Z" fill="#4F46E5"/>
<path d="M269.656 214.638L272.992 205.362H274L270.676 214.638H269.656Z" fill="#A6AAB3"/>
<path d="M299.125 214.156H298.469V209.319C298.469 209.168 298.437 209.019 298.377 208.881C298.316 208.742 298.227 208.618 298.117 208.515L293.744 204.388L293.736 204.38C293.535 204.196 293.272 204.094 293 204.094C292.727 204.094 292.465 204.196 292.264 204.38L292.255 204.388L287.883 208.515C287.773 208.618 287.684 208.742 287.623 208.881C287.563 209.019 287.531 209.168 287.531 209.319V214.156H286.875C286.701 214.156 286.534 214.225 286.411 214.349C286.288 214.472 286.219 214.639 286.219 214.813C286.219 214.987 286.288 215.154 286.411 215.277C286.534 215.4 286.701 215.469 286.875 215.469H299.125C299.299 215.469 299.466 215.4 299.589 215.277C299.712 215.154 299.781 214.987 299.781 214.813C299.781 214.639 299.712 214.472 299.589 214.349C299.466 214.225 299.299 214.156 299.125 214.156ZM288.844 209.414L293 205.49L297.156 209.414V214.156H294.969V211.75C294.969 211.606 294.94 211.464 294.885 211.332C294.831 211.199 294.75 211.078 294.648 210.977C294.547 210.875 294.426 210.795 294.294 210.74C294.161 210.685 294.019 210.656 293.875 210.656H292.125C291.835 210.656 291.557 210.772 291.352 210.977C291.146 211.182 291.031 211.46 291.031 211.75V214.156H288.844V209.414ZM293.656 214.156H292.344V211.969H293.656V214.156Z" fill="#4F46E5"/>
<path d="M304.336 215.5L308.368 205.7H309.488L313.492 215.5H311.756L308.62 207.562H309.208L306.044 215.5H304.336ZM306.324 213.61V212.21H311.518V213.61H306.324ZM317.382 215.64C316.719 215.64 316.117 215.486 315.576 215.178C315.044 214.87 314.624 214.45 314.316 213.918C314.008 213.386 313.854 212.793 313.854 212.14C313.854 211.477 314.008 210.885 314.316 210.362C314.624 209.83 315.044 209.41 315.576 209.102C316.117 208.794 316.719 208.64 317.382 208.64C317.904 208.64 318.39 208.743 318.838 208.948C319.295 209.144 319.682 209.429 320 209.802L318.992 210.824C318.796 210.591 318.558 210.418 318.278 210.306C318.007 210.185 317.708 210.124 317.382 210.124C316.999 210.124 316.658 210.213 316.36 210.39C316.07 210.558 315.842 210.791 315.674 211.09C315.515 211.389 315.436 211.739 315.436 212.14C315.436 212.532 315.515 212.882 315.674 213.19C315.842 213.489 316.07 213.727 316.36 213.904C316.658 214.072 316.999 214.156 317.382 214.156C317.708 214.156 318.007 214.1 318.278 213.988C318.558 213.867 318.796 213.689 318.992 213.456L320 214.478C319.682 214.851 319.295 215.141 318.838 215.346C318.39 215.542 317.904 215.64 317.382 215.64ZM322.022 215.5V205.98H323.562V215.5H322.022ZM320.412 210.18V208.78H325.172V210.18H320.412ZM326.306 215.5V208.78H327.846V215.5H326.306ZM327.076 207.548C326.814 207.548 326.595 207.459 326.418 207.282C326.25 207.105 326.166 206.885 326.166 206.624C326.166 206.363 326.25 206.143 326.418 205.966C326.595 205.789 326.814 205.7 327.076 205.7C327.346 205.7 327.566 205.789 327.734 205.966C327.902 206.143 327.986 206.363 327.986 206.624C327.986 206.885 327.902 207.105 327.734 207.282C327.566 207.459 327.346 207.548 327.076 207.548ZM332.653 215.64C331.999 215.64 331.407 215.486 330.875 215.178C330.343 214.861 329.918 214.436 329.601 213.904C329.293 213.372 329.139 212.779 329.139 212.126C329.139 211.473 329.293 210.885 329.601 210.362C329.918 209.839 330.343 209.424 330.875 209.116C331.407 208.799 331.999 208.64 332.653 208.64C333.315 208.64 333.913 208.794 334.445 209.102C334.977 209.41 335.397 209.83 335.705 210.362C336.022 210.885 336.181 211.473 336.181 212.126C336.181 212.779 336.022 213.372 335.705 213.904C335.397 214.436 334.977 214.861 334.445 215.178C333.913 215.486 333.315 215.64 332.653 215.64ZM332.653 214.156C333.035 214.156 333.371 214.072 333.661 213.904C333.959 213.727 334.188 213.484 334.347 213.176C334.515 212.868 334.599 212.518 334.599 212.126C334.599 211.734 334.515 211.389 334.347 211.09C334.179 210.791 333.95 210.558 333.661 210.39C333.371 210.213 333.035 210.124 332.653 210.124C332.279 210.124 331.943 210.213 331.645 210.39C331.355 210.558 331.127 210.791 330.959 211.09C330.8 211.389 330.721 211.734 330.721 212.126C330.721 212.518 330.8 212.868 330.959 213.176C331.127 213.484 331.355 213.727 331.645 213.904C331.943 214.072 332.279 214.156 332.653 214.156ZM342.067 215.5V211.622C342.067 211.174 341.923 210.805 341.633 210.516C341.353 210.227 340.989 210.082 340.541 210.082C340.243 210.082 339.977 210.147 339.743 210.278C339.51 210.409 339.328 210.591 339.197 210.824C339.067 211.057 339.001 211.323 339.001 211.622L338.399 211.286C338.399 210.773 338.511 210.32 338.735 209.928C338.959 209.527 339.267 209.214 339.659 208.99C340.061 208.757 340.509 208.64 341.003 208.64C341.507 208.64 341.955 208.771 342.347 209.032C342.739 209.284 343.047 209.615 343.271 210.026C343.495 210.427 343.607 210.847 343.607 211.286V215.5H342.067ZM337.461 215.5V208.78H339.001V215.5H337.461ZM347.37 215.64C346.997 215.64 346.638 215.593 346.292 215.5C345.947 215.397 345.63 215.257 345.34 215.08C345.051 214.893 344.799 214.669 344.584 214.408L345.564 213.428C345.798 213.699 346.064 213.904 346.362 214.044C346.67 214.175 347.016 214.24 347.398 214.24C347.744 214.24 348.005 214.189 348.182 214.086C348.36 213.983 348.448 213.834 348.448 213.638C348.448 213.433 348.364 213.274 348.196 213.162C348.028 213.05 347.809 212.957 347.538 212.882C347.277 212.798 346.997 212.714 346.698 212.63C346.409 212.546 346.129 212.434 345.858 212.294C345.597 212.145 345.382 211.944 345.214 211.692C345.046 211.44 344.962 211.113 344.962 210.712C344.962 210.283 345.06 209.914 345.256 209.606C345.462 209.298 345.746 209.06 346.11 208.892C346.484 208.724 346.927 208.64 347.44 208.64C347.982 208.64 348.458 208.738 348.868 208.934C349.288 209.121 349.638 209.405 349.918 209.788L348.938 210.768C348.742 210.525 348.518 210.343 348.266 210.222C348.014 210.101 347.725 210.04 347.398 210.04C347.09 210.04 346.852 210.087 346.684 210.18C346.516 210.273 346.432 210.409 346.432 210.586C346.432 210.773 346.516 210.917 346.684 211.02C346.852 211.123 347.067 211.211 347.328 211.286C347.599 211.361 347.879 211.445 348.168 211.538C348.467 211.622 348.747 211.743 349.008 211.902C349.279 212.051 349.498 212.257 349.666 212.518C349.834 212.77 349.918 213.101 349.918 213.512C349.918 214.165 349.69 214.683 349.232 215.066C348.775 215.449 348.154 215.64 347.37 215.64Z" fill="#4F46E5"/>
<path d="M363 214.638L366.336 205.362H367.344L364.02 214.638H363Z" fill="#A6AAB3"/>
<path d="M392.469 214.156H391.813V209.319C391.813 209.168 391.781 209.019 391.721 208.881C391.66 208.742 391.571 208.618 391.461 208.515L387.088 204.388L387.08 204.38C386.879 204.196 386.616 204.094 386.344 204.094C386.071 204.094 385.809 204.196 385.608 204.38L385.599 204.388L381.227 208.515C381.117 208.618 381.028 208.742 380.967 208.881C380.907 209.019 380.875 209.168 380.875 209.319V214.156H380.219C380.045 214.156 379.878 214.225 379.755 214.349C379.632 214.472 379.563 214.639 379.563 214.813C379.563 214.987 379.632 215.154 379.755 215.277C379.878 215.4 380.045 215.469 380.219 215.469H392.469C392.643 215.469 392.81 215.4 392.933 215.277C393.056 215.154 393.125 214.987 393.125 214.813C393.125 214.639 393.056 214.472 392.933 214.349C392.81 214.225 392.643 214.156 392.469 214.156ZM382.188 209.414L386.344 205.49L390.5 209.414V214.156H388.313V211.75C388.313 211.606 388.284 211.464 388.229 211.332C388.175 211.199 388.094 211.078 387.992 210.977C387.891 210.875 387.77 210.795 387.638 210.74C387.505 210.685 387.363 210.656 387.219 210.656H385.469C385.179 210.656 384.901 210.772 384.696 210.977C384.49 211.182 384.375 211.46 384.375 211.75V214.156H382.188V209.414ZM387 214.156H385.688V211.969H387V214.156Z" fill="#646A77"/>
<path d="M398.492 215.5V205.784H399.808V215.5H398.492ZM399.388 215.5V214.296H404.96V215.5H399.388ZM399.388 211.104V209.956H404.498V211.104H399.388ZM399.388 206.988V205.784H404.89V206.988H399.388ZM409.217 215.64C408.601 215.64 408.05 215.491 407.565 215.192C407.079 214.884 406.692 214.469 406.403 213.946C406.123 213.423 405.983 212.835 405.983 212.182C405.983 211.529 406.123 210.941 406.403 210.418C406.692 209.895 407.079 209.48 407.565 209.172C408.05 208.864 408.601 208.71 409.217 208.71C409.711 208.71 410.159 208.817 410.561 209.032C410.962 209.237 411.284 209.527 411.527 209.9C411.779 210.264 411.919 210.689 411.947 211.174V213.176C411.919 213.652 411.783 214.077 411.541 214.45C411.298 214.823 410.976 215.117 410.575 215.332C410.173 215.537 409.721 215.64 409.217 215.64ZM409.427 214.45C409.847 214.45 410.211 214.352 410.519 214.156C410.836 213.96 411.083 213.694 411.261 213.358C411.438 213.013 411.527 212.621 411.527 212.182C411.527 211.725 411.433 211.328 411.247 210.992C411.069 210.656 410.822 210.39 410.505 210.194C410.197 209.998 409.833 209.9 409.413 209.9C408.993 209.9 408.624 209.998 408.307 210.194C407.989 210.39 407.737 210.661 407.551 211.006C407.373 211.342 407.285 211.729 407.285 212.168C407.285 212.616 407.373 213.013 407.551 213.358C407.737 213.694 407.989 213.96 408.307 214.156C408.633 214.352 409.007 214.45 409.427 214.45ZM412.717 215.5H411.443V213.708L411.681 212.084L411.443 210.474V205.504H412.717V215.5ZM414.565 215.5V208.85H415.825V215.5H414.565ZM415.195 207.52C414.962 207.52 414.771 207.445 414.621 207.296C414.472 207.137 414.397 206.941 414.397 206.708C414.397 206.484 414.472 206.297 414.621 206.148C414.771 205.989 414.962 205.91 415.195 205.91C415.429 205.91 415.62 205.989 415.769 206.148C415.919 206.297 415.993 206.484 415.993 206.708C415.993 206.941 415.919 207.137 415.769 207.296C415.62 207.445 415.429 207.52 415.195 207.52ZM418.704 215.5V206.064H419.964V215.5H418.704ZM417.066 209.998V208.85H421.602V209.998H417.066ZM430.382 215.64C429.682 215.64 429.034 215.514 428.436 215.262C427.839 215.001 427.316 214.641 426.868 214.184C426.43 213.727 426.089 213.195 425.846 212.588C425.604 211.981 425.482 211.333 425.482 210.642C425.482 209.942 425.604 209.289 425.846 208.682C426.089 208.075 426.43 207.548 426.868 207.1C427.316 206.643 427.834 206.288 428.422 206.036C429.02 205.775 429.668 205.644 430.368 205.644C431.134 205.644 431.806 205.775 432.384 206.036C432.963 206.297 433.476 206.652 433.924 207.1L433.014 208.01C432.706 207.665 432.328 207.394 431.88 207.198C431.442 207.002 430.938 206.904 430.368 206.904C429.855 206.904 429.384 206.997 428.954 207.184C428.525 207.361 428.152 207.618 427.834 207.954C427.517 208.29 427.27 208.687 427.092 209.144C426.924 209.601 426.84 210.101 426.84 210.642C426.84 211.183 426.924 211.683 427.092 212.14C427.27 212.597 427.517 212.994 427.834 213.33C428.152 213.666 428.525 213.927 428.954 214.114C429.384 214.291 429.855 214.38 430.368 214.38C430.975 214.38 431.502 214.282 431.95 214.086C432.398 213.881 432.776 213.605 433.084 213.26L433.994 214.156C433.546 214.623 433.019 214.987 432.412 215.248C431.815 215.509 431.138 215.64 430.382 215.64ZM438.193 215.64C437.539 215.64 436.951 215.486 436.429 215.178C435.906 214.87 435.491 214.455 435.183 213.932C434.875 213.4 434.721 212.807 434.721 212.154C434.721 211.51 434.875 210.931 435.183 210.418C435.491 209.895 435.906 209.48 436.429 209.172C436.951 208.864 437.539 208.71 438.193 208.71C438.837 208.71 439.42 208.864 439.943 209.172C440.475 209.471 440.895 209.881 441.203 210.404C441.511 210.927 441.665 211.51 441.665 212.154C441.665 212.807 441.511 213.4 441.203 213.932C440.895 214.455 440.475 214.87 439.943 215.178C439.42 215.486 438.837 215.64 438.193 215.64ZM438.193 214.422C438.613 214.422 438.986 214.324 439.313 214.128C439.639 213.932 439.896 213.666 440.083 213.33C440.269 212.985 440.363 212.593 440.363 212.154C440.363 211.725 440.265 211.342 440.069 211.006C439.882 210.67 439.625 210.409 439.299 210.222C438.981 210.026 438.613 209.928 438.193 209.928C437.773 209.928 437.399 210.026 437.073 210.222C436.746 210.409 436.489 210.67 436.303 211.006C436.116 211.342 436.023 211.725 436.023 212.154C436.023 212.593 436.116 212.985 436.303 213.33C436.489 213.666 436.746 213.932 437.073 214.128C437.399 214.324 437.773 214.422 438.193 214.422ZM447.788 215.5V211.622C447.788 211.118 447.63 210.703 447.312 210.376C446.995 210.049 446.584 209.886 446.08 209.886C445.744 209.886 445.446 209.961 445.184 210.11C444.923 210.259 444.718 210.465 444.568 210.726C444.419 210.987 444.344 211.286 444.344 211.622L443.826 211.328C443.826 210.824 443.938 210.376 444.162 209.984C444.386 209.592 444.699 209.284 445.1 209.06C445.502 208.827 445.954 208.71 446.458 208.71C446.962 208.71 447.406 208.836 447.788 209.088C448.18 209.34 448.488 209.671 448.712 210.082C448.936 210.483 449.048 210.913 449.048 211.37V215.5H447.788ZM443.084 215.5V208.85H444.344V215.5H443.084ZM451.694 215.5V206.064H452.954V215.5H451.694ZM450.056 209.998V208.85H454.592V209.998H450.056ZM455.827 215.5V208.85H457.087V215.5H455.827ZM457.087 211.706L456.611 211.496C456.611 210.647 456.807 209.97 457.199 209.466C457.591 208.962 458.155 208.71 458.893 208.71C459.229 208.71 459.532 208.771 459.803 208.892C460.073 209.004 460.325 209.195 460.559 209.466L459.733 210.32C459.593 210.171 459.439 210.063 459.271 209.998C459.103 209.933 458.907 209.9 458.683 209.9C458.216 209.9 457.833 210.049 457.535 210.348C457.236 210.647 457.087 211.099 457.087 211.706ZM464.055 215.64C463.448 215.64 462.898 215.491 462.403 215.192C461.908 214.884 461.516 214.469 461.227 213.946C460.947 213.423 460.807 212.835 460.807 212.182C460.807 211.529 460.947 210.941 461.227 210.418C461.516 209.895 461.904 209.48 462.389 209.172C462.884 208.864 463.439 208.71 464.055 208.71C464.559 208.71 465.007 208.817 465.399 209.032C465.8 209.237 466.122 209.527 466.365 209.9C466.608 210.264 466.743 210.689 466.771 211.174V213.176C466.743 213.652 466.608 214.077 466.365 214.45C466.132 214.823 465.814 215.117 465.413 215.332C465.021 215.537 464.568 215.64 464.055 215.64ZM464.265 214.45C464.89 214.45 465.394 214.24 465.777 213.82C466.16 213.391 466.351 212.845 466.351 212.182C466.351 211.725 466.262 211.328 466.085 210.992C465.917 210.647 465.674 210.381 465.357 210.194C465.04 209.998 464.671 209.9 464.251 209.9C463.831 209.9 463.458 209.998 463.131 210.194C462.814 210.39 462.562 210.661 462.375 211.006C462.198 211.342 462.109 211.729 462.109 212.168C462.109 212.616 462.198 213.013 462.375 213.358C462.562 213.694 462.818 213.96 463.145 214.156C463.472 214.352 463.845 214.45 464.265 214.45ZM466.267 215.5V213.708L466.505 212.084L466.267 210.474V208.85H467.541V215.5H466.267ZM472.413 215.64C471.76 215.64 471.167 215.486 470.635 215.178C470.113 214.87 469.697 214.455 469.389 213.932C469.091 213.4 468.941 212.812 468.941 212.168C468.941 211.515 469.091 210.927 469.389 210.404C469.697 209.881 470.113 209.471 470.635 209.172C471.167 208.864 471.76 208.71 472.413 208.71C472.927 208.71 473.403 208.808 473.841 209.004C474.28 209.191 474.658 209.466 474.975 209.83L474.135 210.67C473.93 210.427 473.678 210.245 473.379 210.124C473.09 209.993 472.768 209.928 472.413 209.928C471.993 209.928 471.62 210.026 471.293 210.222C470.967 210.409 470.71 210.67 470.523 211.006C470.337 211.342 470.243 211.729 470.243 212.168C470.243 212.607 470.337 212.994 470.523 213.33C470.71 213.666 470.967 213.932 471.293 214.128C471.62 214.324 471.993 214.422 472.413 214.422C472.768 214.422 473.09 214.361 473.379 214.24C473.678 214.109 473.935 213.923 474.149 213.68L474.975 214.52C474.667 214.875 474.289 215.15 473.841 215.346C473.403 215.542 472.927 215.64 472.413 215.64ZM477.165 215.5V206.064H478.425V215.5H477.165ZM475.527 209.998V208.85H480.063V209.998H475.527Z" fill="#646A77"/>
</svg>
