<svg width="452" height="138" viewBox="0 0 452 138" fill="none" xmlns="http://www.w3.org/2000/svg">
<g clip-path="url(#clip0_14120_35837)">
<rect x="24" y="96" width="64" height="1" fill="#E1172F"/>
<g clip-path="url(#clip1_14120_35837)">
<rect x="24" y="84" width="24" height="24" rx="12" fill="#E1172F"/>
<path d="M37.8302 90.8182V101H35.6775V92.8615H35.6178L33.2861 94.3232V92.4141L35.8067 90.8182H37.8302Z" fill="white"/>
</g>
</g>
<g clip-path="url(#clip2_14120_35837)">
<rect x="364" y="96" width="64" height="1" fill="#E1172F"/>
<g clip-path="url(#clip3_14120_35837)">
<rect x="404" y="84" width="24" height="24" rx="12" fill="#E1172F"/>
<path d="M416.112 101.139C415.588 101.136 415.083 101.048 414.596 100.876C414.112 100.703 413.677 100.423 413.293 100.036C412.908 99.6477 412.604 99.134 412.378 98.4943C412.156 97.8546 412.045 97.0691 412.045 96.1378C412.048 95.2827 412.146 94.5187 412.338 93.8459C412.534 93.1697 412.812 92.5964 413.174 92.1257C413.538 91.6551 413.974 91.2971 414.481 91.0518C414.988 90.8033 415.557 90.679 416.186 90.679C416.866 90.679 417.466 90.8116 417.986 91.0767C418.507 91.3385 418.924 91.6948 419.239 92.1456C419.557 92.5964 419.749 93.1018 419.816 93.6619H417.693C417.61 93.3073 417.436 93.0289 417.171 92.8267C416.906 92.6245 416.578 92.5234 416.186 92.5234C415.524 92.5234 415.02 92.8118 414.675 93.3885C414.334 93.9652 414.16 94.7491 414.153 95.7401H414.223C414.375 95.4384 414.581 95.1816 414.839 94.9695C415.101 94.754 415.398 94.59 415.729 94.4773C416.064 94.3613 416.417 94.3033 416.788 94.3033C417.391 94.3033 417.928 94.4458 418.399 94.7308C418.869 95.0125 419.241 95.4003 419.512 95.8942C419.784 96.388 419.92 96.9531 419.92 97.5895C419.92 98.2789 419.759 98.892 419.438 99.429C419.12 99.9659 418.674 100.387 418.1 100.692C417.53 100.993 416.868 101.143 416.112 101.139ZM416.102 99.4489C416.433 99.4489 416.73 99.3693 416.992 99.2102C417.254 99.0511 417.459 98.8357 417.608 98.5639C417.757 98.2921 417.832 97.9872 417.832 97.6491C417.832 97.3111 417.757 97.0078 417.608 96.7393C417.462 96.4709 417.26 96.2571 417.002 96.098C416.743 95.9389 416.448 95.8594 416.117 95.8594C415.868 95.8594 415.638 95.9058 415.426 95.9986C415.217 96.0914 415.033 96.2206 414.874 96.3864C414.718 96.5521 414.596 96.7443 414.506 96.9631C414.417 97.1785 414.372 97.4089 414.372 97.6541C414.372 97.9822 414.446 98.2822 414.596 98.554C414.748 98.8258 414.953 99.0429 415.212 99.2053C415.474 99.3677 415.77 99.4489 416.102 99.4489Z" fill="white"/>
</g>
</g>
<rect x="126" y="24" width="1" height="60" fill="#E1172F"/>
<g clip-path="url(#clip4_14120_35837)">
<rect x="115" y="24" width="24" height="24" rx="12" fill="#E1172F"/>
<path d="M123.416 41V39.4489L127.04 36.093C127.349 35.7947 127.607 35.5263 127.816 35.2876C128.028 35.049 128.189 34.8153 128.298 34.5866C128.408 34.3546 128.462 34.1044 128.462 33.8359C128.462 33.5376 128.394 33.2808 128.258 33.0653C128.123 32.8466 127.937 32.6792 127.702 32.5632C127.466 32.4439 127.199 32.3842 126.901 32.3842C126.59 32.3842 126.318 32.4472 126.086 32.5732C125.854 32.6991 125.675 32.8797 125.549 33.1151C125.423 33.3504 125.36 33.6304 125.36 33.9553H123.317C123.317 33.2891 123.467 32.7107 123.769 32.2202C124.071 31.7296 124.493 31.3501 125.037 31.0817C125.58 30.8132 126.207 30.679 126.916 30.679C127.645 30.679 128.28 30.8082 128.82 31.0668C129.364 31.322 129.786 31.6766 130.088 32.1307C130.39 32.5848 130.54 33.1051 130.54 33.6918C130.54 34.0762 130.464 34.4557 130.312 34.8303C130.163 35.2048 129.896 35.6207 129.511 36.0781C129.127 36.5322 128.585 37.0774 127.886 37.7138L126.399 39.1705V39.2401H130.675V41H123.416Z" fill="white"/>
</g>
<rect x="157" y="24" width="1" height="60" fill="#E1172F"/>
<g clip-path="url(#clip5_14120_35837)">
<rect x="146" y="24" width="24" height="24" rx="12" fill="#E1172F"/>
<path d="M157.975 41.1392C157.232 41.1392 156.571 41.0116 155.991 40.7564C155.414 40.4979 154.958 40.1432 154.624 39.6925C154.292 39.2384 154.122 38.7147 154.112 38.1214H156.279C156.292 38.37 156.374 38.5888 156.523 38.7777C156.675 38.9633 156.877 39.1075 157.129 39.2102C157.381 39.313 157.665 39.3643 157.979 39.3643C158.308 39.3643 158.598 39.3063 158.85 39.1903C159.101 39.0743 159.299 38.9136 159.441 38.7081C159.584 38.5026 159.655 38.2656 159.655 37.9972C159.655 37.7254 159.579 37.4851 159.426 37.2763C159.277 37.0642 159.062 36.8984 158.78 36.7791C158.502 36.6598 158.17 36.6001 157.786 36.6001H156.836V35.0192H157.786C158.11 35.0192 158.397 34.9628 158.646 34.8501C158.898 34.7375 159.093 34.5817 159.232 34.3828C159.372 34.1806 159.441 33.9453 159.441 33.6768C159.441 33.4216 159.38 33.1979 159.257 33.0057C159.138 32.8101 158.969 32.6577 158.75 32.5483C158.535 32.4389 158.283 32.3842 157.994 32.3842C157.703 32.3842 157.436 32.4373 157.194 32.5433C156.952 32.6461 156.758 32.7936 156.612 32.9858C156.466 33.178 156.389 33.4034 156.379 33.6619H154.315C154.325 33.0753 154.493 32.5582 154.818 32.1108C155.142 31.6634 155.58 31.3137 156.13 31.0618C156.684 30.8066 157.308 30.679 158.004 30.679C158.707 30.679 159.322 30.8066 159.849 31.0618C160.376 31.317 160.785 31.6617 161.077 32.0959C161.372 32.5268 161.518 33.0107 161.514 33.5476C161.518 34.1177 161.34 34.5933 160.982 34.9744C160.628 35.3556 160.165 35.5975 159.595 35.7003V35.7798C160.344 35.8759 160.914 36.1361 161.305 36.5604C161.7 36.9813 161.895 37.5083 161.892 38.1413C161.895 38.7214 161.728 39.2367 161.39 39.6875C161.055 40.1383 160.593 40.4929 160.003 40.7514C159.413 41.0099 158.737 41.1392 157.975 41.1392Z" fill="white"/>
</g>
<rect x="208" y="24" width="1" height="60" fill="#E1172F"/>
<g clip-path="url(#clip6_14120_35837)">
<rect x="197" y="24" width="24" height="24" rx="12" fill="#E1172F"/>
<path d="M204.927 39.2102V37.5149L209.178 30.8182H210.639V33.1648H209.774L207.095 37.4055V37.4851H213.135V39.2102H204.927ZM209.814 41V38.6932L209.854 37.9425V30.8182H211.872V41H209.814Z" fill="white"/>
</g>
<rect x="323" y="24" width="1" height="60" fill="#E1172F"/>
<g clip-path="url(#clip7_14120_35837)">
<rect x="312" y="24" width="24" height="24" rx="12" fill="#E1172F"/>
<path d="M324.032 41.1392C323.33 41.1392 322.703 41.0099 322.153 40.7514C321.606 40.4929 321.172 40.1366 320.85 39.6825C320.529 39.2285 320.362 38.7081 320.348 38.1214H322.436C322.46 38.5159 322.625 38.8357 322.934 39.081C323.242 39.3262 323.608 39.4489 324.032 39.4489C324.37 39.4489 324.669 39.3743 324.927 39.2251C325.189 39.0727 325.393 38.8622 325.539 38.5938C325.688 38.322 325.762 38.0104 325.762 37.6591C325.762 37.3011 325.686 36.9863 325.534 36.7145C325.385 36.4427 325.177 36.2306 324.912 36.0781C324.647 35.9257 324.344 35.8478 324.002 35.8445C323.704 35.8445 323.414 35.9058 323.132 36.0284C322.854 36.151 322.637 36.3184 322.481 36.5305L320.567 36.1875L321.049 30.8182H327.274V32.5781H322.824L322.561 35.1286H322.62C322.799 34.8767 323.069 34.6679 323.431 34.5021C323.792 34.3364 324.196 34.2536 324.644 34.2536C325.257 34.2536 325.804 34.3977 326.284 34.6861C326.765 34.9744 327.145 35.3705 327.423 35.8743C327.701 36.3748 327.839 36.9515 327.836 37.6044C327.839 38.2905 327.68 38.9003 327.358 39.4339C327.04 39.9643 326.594 40.3819 326.021 40.6868C325.451 40.9884 324.788 41.1392 324.032 41.1392Z" fill="white"/>
</g>
<path d="M116.437 103.156H115.781V98.3191C115.781 98.1681 115.749 98.0188 115.689 97.8805C115.628 97.7421 115.539 97.6178 115.429 97.5152L111.056 93.388L111.048 93.3798C110.847 93.1959 110.584 93.0939 110.312 93.0939C110.039 93.0939 109.777 93.1959 109.576 93.3798L109.567 93.388L105.195 97.5152C105.085 97.6178 104.996 97.7421 104.936 97.8805C104.875 98.0188 104.844 98.1681 104.843 98.3191V103.156H104.187C104.013 103.156 103.846 103.225 103.723 103.348C103.6 103.472 103.531 103.638 103.531 103.812C103.531 103.987 103.6 104.153 103.723 104.277C103.846 104.4 104.013 104.469 104.187 104.469H116.437C116.611 104.469 116.778 104.4 116.901 104.277C117.024 104.153 117.093 103.987 117.093 103.812C117.093 103.638 117.024 103.472 116.901 103.348C116.778 103.225 116.611 103.156 116.437 103.156ZM106.156 98.4138L110.312 94.4899L114.468 98.4138V103.156H112.281V100.75C112.281 100.606 112.252 100.464 112.198 100.331C112.143 100.199 112.062 100.078 111.96 99.9766C111.859 99.875 111.738 99.7945 111.606 99.7395C111.473 99.6845 111.331 99.6563 111.187 99.6563H109.437C109.147 99.6563 108.869 99.7715 108.664 99.9766C108.458 100.182 108.343 100.46 108.343 100.75V103.156H106.156V98.4138ZM110.968 103.156H109.656V100.969H110.968V103.156Z" fill="#6061EE"/>
<path d="M129.312 103.638L132.648 94.362H133.656L130.332 103.638H129.312Z" fill="#3F4350"/>
<path d="M146.72 104.5V94.7H148.33V104.5H146.72ZM147.826 104.5V103.03H152.95V104.5H147.826ZM156.789 104.64C156.182 104.64 155.632 104.486 155.137 104.178C154.652 103.87 154.264 103.455 153.975 102.932C153.695 102.4 153.555 101.807 153.555 101.154C153.555 100.491 153.695 99.8987 153.975 99.376C154.264 98.844 154.652 98.424 155.137 98.116C155.632 97.7987 156.182 97.64 156.789 97.64C157.302 97.64 157.755 97.752 158.147 97.976C158.548 98.1907 158.866 98.4893 159.099 98.872C159.332 99.2547 159.449 99.6887 159.449 100.174V102.106C159.449 102.591 159.332 103.025 159.099 103.408C158.875 103.791 158.562 104.094 158.161 104.318C157.76 104.533 157.302 104.64 156.789 104.64ZM157.041 103.184C157.61 103.184 158.068 102.993 158.413 102.61C158.768 102.227 158.945 101.737 158.945 101.14C158.945 100.739 158.866 100.384 158.707 100.076C158.548 99.768 158.324 99.53 158.035 99.362C157.755 99.1847 157.424 99.096 157.041 99.096C156.668 99.096 156.336 99.1847 156.047 99.362C155.767 99.53 155.543 99.768 155.375 100.076C155.216 100.384 155.137 100.739 155.137 101.14C155.137 101.541 155.216 101.896 155.375 102.204C155.543 102.512 155.767 102.755 156.047 102.932C156.336 103.1 156.668 103.184 157.041 103.184ZM158.847 104.5V102.694L159.113 101.056L158.847 99.432V97.78H160.387V104.5H158.847ZM165.694 104.64C165.181 104.64 164.724 104.533 164.322 104.318C163.921 104.094 163.604 103.791 163.37 103.408C163.146 103.025 163.034 102.591 163.034 102.106V100.174C163.034 99.6887 163.151 99.2547 163.384 98.872C163.618 98.4893 163.935 98.1907 164.336 97.976C164.738 97.752 165.19 97.64 165.694 97.64C166.301 97.64 166.847 97.7987 167.332 98.116C167.827 98.424 168.214 98.844 168.494 99.376C168.784 99.8987 168.928 100.491 168.928 101.154C168.928 101.807 168.784 102.4 168.494 102.932C168.214 103.455 167.827 103.87 167.332 104.178C166.847 104.486 166.301 104.64 165.694 104.64ZM162.096 104.5V94.42H163.636V99.432L163.37 101.056L163.636 102.694V104.5H162.096ZM165.442 103.184C165.816 103.184 166.142 103.1 166.422 102.932C166.712 102.755 166.936 102.512 167.094 102.204C167.262 101.896 167.346 101.541 167.346 101.14C167.346 100.739 167.262 100.384 167.094 100.076C166.936 99.768 166.712 99.53 166.422 99.362C166.142 99.1847 165.816 99.096 165.442 99.096C165.069 99.096 164.738 99.1847 164.448 99.362C164.159 99.53 163.935 99.768 163.776 100.076C163.618 100.384 163.538 100.739 163.538 101.14C163.538 101.541 163.618 101.896 163.776 102.204C163.935 102.512 164.159 102.755 164.448 102.932C164.738 103.1 165.069 103.184 165.442 103.184ZM173.339 104.64C172.667 104.64 172.061 104.491 171.519 104.192C170.987 103.884 170.563 103.464 170.245 102.932C169.937 102.4 169.783 101.803 169.783 101.14C169.783 100.477 169.937 99.8847 170.245 99.362C170.553 98.83 170.969 98.41 171.491 98.102C172.023 97.794 172.611 97.64 173.255 97.64C173.881 97.64 174.431 97.7847 174.907 98.074C175.393 98.3633 175.771 98.76 176.041 99.264C176.321 99.768 176.461 100.342 176.461 100.986C176.461 101.098 176.452 101.215 176.433 101.336C176.424 101.448 176.405 101.574 176.377 101.714H170.861V100.454H175.579L175.005 100.958C174.987 100.547 174.907 100.202 174.767 99.922C174.627 99.642 174.427 99.4273 174.165 99.278C173.913 99.1287 173.601 99.054 173.227 99.054C172.835 99.054 172.495 99.138 172.205 99.306C171.916 99.474 171.692 99.712 171.533 100.02C171.375 100.319 171.295 100.678 171.295 101.098C171.295 101.518 171.379 101.887 171.547 102.204C171.715 102.521 171.953 102.769 172.261 102.946C172.569 103.114 172.924 103.198 173.325 103.198C173.671 103.198 173.988 103.137 174.277 103.016C174.576 102.895 174.828 102.717 175.033 102.484L176.013 103.478C175.687 103.861 175.29 104.15 174.823 104.346C174.357 104.542 173.862 104.64 173.339 104.64ZM177.696 104.5V94.42H179.236V104.5H177.696Z" fill="#6061EE"/>
<path d="M192.656 103.638L195.992 94.362H197L193.676 103.638H192.656Z" fill="#3F4350"/>
<path d="M211.03 104.64C210.769 104.64 210.549 104.551 210.372 104.374C210.204 104.187 210.12 103.968 210.12 103.716C210.12 103.455 210.204 103.24 210.372 103.072C210.549 102.895 210.769 102.806 211.03 102.806C211.291 102.806 211.506 102.895 211.674 103.072C211.851 103.24 211.94 103.455 211.94 103.716C211.94 103.968 211.851 104.187 211.674 104.374C211.506 104.551 211.291 104.64 211.03 104.64ZM215.091 104.64C214.829 104.64 214.61 104.551 214.433 104.374C214.265 104.187 214.181 103.968 214.181 103.716C214.181 103.455 214.265 103.24 214.433 103.072C214.61 102.895 214.829 102.806 215.091 102.806C215.352 102.806 215.567 102.895 215.735 103.072C215.912 103.24 216.001 103.455 216.001 103.716C216.001 103.968 215.912 104.187 215.735 104.374C215.567 104.551 215.352 104.64 215.091 104.64ZM219.151 104.64C218.89 104.64 218.67 104.551 218.493 104.374C218.325 104.187 218.241 103.968 218.241 103.716C218.241 103.455 218.325 103.24 218.493 103.072C218.67 102.895 218.89 102.806 219.151 102.806C219.412 102.806 219.627 102.895 219.795 103.072C219.972 103.24 220.061 103.455 220.061 103.716C220.061 103.968 219.972 104.187 219.795 104.374C219.627 104.551 219.412 104.64 219.151 104.64Z" fill="#A6AAB3"/>
<path d="M234 103.638L237.336 94.362H238.344L235.02 103.638H234Z" fill="#3F4350"/>
<path d="M251.408 104.5V94.7H253.018V104.5H251.408ZM252.514 104.5V103.03H257.638V104.5H252.514ZM261.477 104.64C260.87 104.64 260.32 104.486 259.825 104.178C259.34 103.87 258.952 103.455 258.663 102.932C258.383 102.4 258.243 101.807 258.243 101.154C258.243 100.491 258.383 99.8987 258.663 99.376C258.952 98.844 259.34 98.424 259.825 98.116C260.32 97.7987 260.87 97.64 261.477 97.64C261.99 97.64 262.443 97.752 262.835 97.976C263.236 98.1907 263.554 98.4893 263.787 98.872C264.02 99.2547 264.137 99.6887 264.137 100.174V102.106C264.137 102.591 264.02 103.025 263.787 103.408C263.563 103.791 263.25 104.094 262.849 104.318C262.448 104.533 261.99 104.64 261.477 104.64ZM261.729 103.184C262.298 103.184 262.756 102.993 263.101 102.61C263.456 102.227 263.633 101.737 263.633 101.14C263.633 100.739 263.554 100.384 263.395 100.076C263.236 99.768 263.012 99.53 262.723 99.362C262.443 99.1847 262.112 99.096 261.729 99.096C261.356 99.096 261.024 99.1847 260.735 99.362C260.455 99.53 260.231 99.768 260.063 100.076C259.904 100.384 259.825 100.739 259.825 101.14C259.825 101.541 259.904 101.896 260.063 102.204C260.231 102.512 260.455 102.755 260.735 102.932C261.024 103.1 261.356 103.184 261.729 103.184ZM263.535 104.5V102.694L263.801 101.056L263.535 99.432V97.78H265.075V104.5H263.535ZM270.382 104.64C269.869 104.64 269.412 104.533 269.01 104.318C268.609 104.094 268.292 103.791 268.058 103.408C267.834 103.025 267.722 102.591 267.722 102.106V100.174C267.722 99.6887 267.839 99.2547 268.072 98.872C268.306 98.4893 268.623 98.1907 269.024 97.976C269.426 97.752 269.878 97.64 270.382 97.64C270.989 97.64 271.535 97.7987 272.02 98.116C272.515 98.424 272.902 98.844 273.182 99.376C273.472 99.8987 273.616 100.491 273.616 101.154C273.616 101.807 273.472 102.4 273.182 102.932C272.902 103.455 272.515 103.87 272.02 104.178C271.535 104.486 270.989 104.64 270.382 104.64ZM266.784 104.5V94.42H268.324V99.432L268.058 101.056L268.324 102.694V104.5H266.784ZM270.13 103.184C270.504 103.184 270.83 103.1 271.11 102.932C271.4 102.755 271.624 102.512 271.782 102.204C271.95 101.896 272.034 101.541 272.034 101.14C272.034 100.739 271.95 100.384 271.782 100.076C271.624 99.768 271.4 99.53 271.11 99.362C270.83 99.1847 270.504 99.096 270.13 99.096C269.757 99.096 269.426 99.1847 269.136 99.362C268.847 99.53 268.623 99.768 268.464 100.076C268.306 100.384 268.226 100.739 268.226 101.14C268.226 101.541 268.306 101.896 268.464 102.204C268.623 102.512 268.847 102.755 269.136 102.932C269.426 103.1 269.757 103.184 270.13 103.184ZM278.027 104.64C277.355 104.64 276.749 104.491 276.207 104.192C275.675 103.884 275.251 103.464 274.933 102.932C274.625 102.4 274.471 101.803 274.471 101.14C274.471 100.477 274.625 99.8847 274.933 99.362C275.241 98.83 275.657 98.41 276.179 98.102C276.711 97.794 277.299 97.64 277.943 97.64C278.569 97.64 279.119 97.7847 279.595 98.074C280.081 98.3633 280.459 98.76 280.729 99.264C281.009 99.768 281.149 100.342 281.149 100.986C281.149 101.098 281.14 101.215 281.121 101.336C281.112 101.448 281.093 101.574 281.065 101.714H275.549V100.454H280.267L279.693 100.958C279.675 100.547 279.595 100.202 279.455 99.922C279.315 99.642 279.115 99.4273 278.853 99.278C278.601 99.1287 278.289 99.054 277.915 99.054C277.523 99.054 277.183 99.138 276.893 99.306C276.604 99.474 276.38 99.712 276.221 100.02C276.063 100.319 275.983 100.678 275.983 101.098C275.983 101.518 276.067 101.887 276.235 102.204C276.403 102.521 276.641 102.769 276.949 102.946C277.257 103.114 277.612 103.198 278.013 103.198C278.359 103.198 278.676 103.137 278.965 103.016C279.264 102.895 279.516 102.717 279.721 102.484L280.701 103.478C280.375 103.861 279.978 104.15 279.511 104.346C279.045 104.542 278.55 104.64 278.027 104.64ZM282.384 104.5V94.42H283.924V104.5H282.384Z" fill="#6061EE"/>
<path d="M297.344 103.638L300.68 94.362H301.688L298.364 103.638H297.344Z" fill="#3F4350"/>
<path d="M314.836 104.5V94.784H316.152V104.5H314.836ZM315.732 104.5V103.296H320.94V104.5H315.732ZM324.877 104.64C324.271 104.64 323.72 104.491 323.225 104.192C322.731 103.884 322.339 103.469 322.049 102.946C321.769 102.423 321.629 101.835 321.629 101.182C321.629 100.529 321.769 99.9407 322.049 99.418C322.339 98.8953 322.726 98.48 323.211 98.172C323.706 97.864 324.261 97.71 324.877 97.71C325.381 97.71 325.829 97.8173 326.221 98.032C326.623 98.2373 326.945 98.5267 327.187 98.9C327.43 99.264 327.565 99.6887 327.593 100.174V102.176C327.565 102.652 327.43 103.077 327.187 103.45C326.954 103.823 326.637 104.117 326.235 104.332C325.843 104.537 325.391 104.64 324.877 104.64ZM325.087 103.45C325.713 103.45 326.217 103.24 326.599 102.82C326.982 102.391 327.173 101.845 327.173 101.182C327.173 100.725 327.085 100.328 326.907 99.992C326.739 99.6467 326.497 99.3807 326.179 99.194C325.862 98.998 325.493 98.9 325.073 98.9C324.653 98.9 324.28 98.998 323.953 99.194C323.636 99.39 323.384 99.6607 323.197 100.006C323.02 100.342 322.931 100.729 322.931 101.168C322.931 101.616 323.02 102.013 323.197 102.358C323.384 102.694 323.641 102.96 323.967 103.156C324.294 103.352 324.667 103.45 325.087 103.45ZM327.089 104.5V102.708L327.327 101.084L327.089 99.474V97.85H328.363V104.5H327.089ZM333.698 104.64C333.194 104.64 332.737 104.537 332.326 104.332C331.925 104.117 331.603 103.823 331.36 103.45C331.117 103.077 330.982 102.652 330.954 102.176V100.174C330.982 99.6887 331.117 99.264 331.36 98.9C331.612 98.5267 331.939 98.2373 332.34 98.032C332.751 97.8173 333.203 97.71 333.698 97.71C334.305 97.71 334.851 97.864 335.336 98.172C335.831 98.48 336.218 98.8953 336.498 99.418C336.778 99.9407 336.918 100.529 336.918 101.182C336.918 101.835 336.778 102.423 336.498 102.946C336.218 103.469 335.831 103.884 335.336 104.192C334.851 104.491 334.305 104.64 333.698 104.64ZM330.198 104.5V94.504H331.458V99.474L331.22 101.084L331.458 102.708V104.5H330.198ZM333.488 103.45C333.908 103.45 334.277 103.352 334.594 103.156C334.911 102.96 335.163 102.694 335.35 102.358C335.537 102.013 335.63 101.616 335.63 101.168C335.63 100.729 335.537 100.337 335.35 99.992C335.163 99.6467 334.911 99.3807 334.594 99.194C334.277 98.998 333.913 98.9 333.502 98.9C333.082 98.9 332.713 98.998 332.396 99.194C332.079 99.3807 331.831 99.6467 331.654 99.992C331.477 100.337 331.388 100.734 331.388 101.182C331.388 101.621 331.472 102.013 331.64 102.358C331.817 102.694 332.065 102.96 332.382 103.156C332.709 103.352 333.077 103.45 333.488 103.45ZM341.426 104.64C340.764 104.64 340.166 104.491 339.634 104.192C339.102 103.884 338.682 103.469 338.374 102.946C338.066 102.423 337.912 101.831 337.912 101.168C337.912 100.515 338.062 99.9267 338.36 99.404C338.668 98.8813 339.079 98.4707 339.592 98.172C340.115 97.864 340.698 97.71 341.342 97.71C341.958 97.71 342.5 97.85 342.966 98.13C343.442 98.41 343.811 98.7973 344.072 99.292C344.343 99.7867 344.478 100.347 344.478 100.972C344.478 101.065 344.474 101.168 344.464 101.28C344.455 101.383 344.436 101.504 344.408 101.644H338.794V100.594H343.736L343.274 101C343.274 100.552 343.195 100.174 343.036 99.866C342.878 99.5487 342.654 99.306 342.364 99.138C342.075 98.9607 341.725 98.872 341.314 98.872C340.885 98.872 340.507 98.9653 340.18 99.152C339.854 99.3387 339.602 99.6 339.424 99.936C339.247 100.272 339.158 100.669 339.158 101.126C339.158 101.593 339.252 102.003 339.438 102.358C339.625 102.703 339.891 102.974 340.236 103.17C340.582 103.357 340.978 103.45 341.426 103.45C341.8 103.45 342.14 103.385 342.448 103.254C342.766 103.123 343.036 102.927 343.26 102.666L344.072 103.492C343.755 103.865 343.363 104.15 342.896 104.346C342.439 104.542 341.949 104.64 341.426 104.64ZM345.852 104.5V94.504H347.112V104.5H345.852Z" fill="#A6AAB3"/>
<defs>
<clipPath id="clip0_14120_35837">
<rect width="64" height="24" fill="white" transform="translate(24 84)"/>
</clipPath>
<clipPath id="clip1_14120_35837">
<rect x="24" y="84" width="24" height="24" rx="12" fill="white"/>
</clipPath>
<clipPath id="clip2_14120_35837">
<rect width="64" height="24" fill="white" transform="translate(364 84)"/>
</clipPath>
<clipPath id="clip3_14120_35837">
<rect x="404" y="84" width="24" height="24" rx="12" fill="white"/>
</clipPath>
<clipPath id="clip4_14120_35837">
<rect x="115" y="24" width="24" height="24" rx="12" fill="white"/>
</clipPath>
<clipPath id="clip5_14120_35837">
<rect x="146" y="24" width="24" height="24" rx="12" fill="white"/>
</clipPath>
<clipPath id="clip6_14120_35837">
<rect x="197" y="24" width="24" height="24" rx="12" fill="white"/>
</clipPath>
<clipPath id="clip7_14120_35837">
<rect x="312" y="24" width="24" height="24" rx="12" fill="white"/>
</clipPath>
</defs>
</svg>
