<svg width="683" height="420" viewBox="0 0 683 420" fill="none" xmlns="http://www.w3.org/2000/svg">
<rect width="683" height="420" fill="#2A2C35"/>
<path d="M229.72 215.5V205.7H231.33V215.5H229.72ZM235.95 215.5V205.7H237.56V215.5H235.95ZM230.826 211.16V209.69H236.3V211.16H230.826ZM242.557 215.64C241.903 215.64 241.311 215.486 240.779 215.178C240.247 214.861 239.822 214.436 239.505 213.904C239.197 213.372 239.043 212.779 239.043 212.126C239.043 211.473 239.197 210.885 239.505 210.362C239.822 209.839 240.247 209.424 240.779 209.116C241.311 208.799 241.903 208.64 242.557 208.64C243.219 208.64 243.817 208.794 244.349 209.102C244.881 209.41 245.301 209.83 245.609 210.362C245.926 210.885 246.085 211.473 246.085 212.126C246.085 212.779 245.926 213.372 245.609 213.904C245.301 214.436 244.881 214.861 244.349 215.178C243.817 215.486 243.219 215.64 242.557 215.64ZM242.557 214.156C242.939 214.156 243.275 214.072 243.565 213.904C243.863 213.727 244.092 213.484 244.251 213.176C244.419 212.868 244.503 212.518 244.503 212.126C244.503 211.734 244.419 211.389 244.251 211.09C244.083 210.791 243.854 210.558 243.565 210.39C243.275 210.213 242.939 210.124 242.557 210.124C242.183 210.124 241.847 210.213 241.549 210.39C241.259 210.558 241.031 210.791 240.863 211.09C240.704 211.389 240.625 211.734 240.625 212.126C240.625 212.518 240.704 212.868 240.863 213.176C241.031 213.484 241.259 213.727 241.549 213.904C241.847 214.072 242.183 214.156 242.557 214.156ZM247.365 215.5V208.78H248.905V215.5H247.365ZM251.831 215.5V211.496C251.831 211.048 251.691 210.703 251.411 210.46C251.131 210.208 250.786 210.082 250.375 210.082C250.095 210.082 249.843 210.138 249.619 210.25C249.405 210.362 249.232 210.525 249.101 210.74C248.971 210.945 248.905 211.197 248.905 211.496L248.303 211.16C248.303 210.647 248.415 210.203 248.639 209.83C248.863 209.457 249.167 209.167 249.549 208.962C249.932 208.747 250.361 208.64 250.837 208.64C251.313 208.64 251.743 208.743 252.125 208.948C252.508 209.153 252.811 209.443 253.035 209.816C253.259 210.189 253.371 210.637 253.371 211.16V215.5H251.831ZM256.297 215.5V211.496C256.297 211.048 256.157 210.703 255.877 210.46C255.597 210.208 255.252 210.082 254.841 210.082C254.571 210.082 254.323 210.138 254.099 210.25C253.875 210.362 253.698 210.525 253.567 210.74C253.437 210.945 253.371 211.197 253.371 211.496L252.503 211.16C252.55 210.647 252.699 210.203 252.951 209.83C253.203 209.457 253.525 209.167 253.917 208.962C254.319 208.747 254.757 208.64 255.233 208.64C255.719 208.64 256.157 208.743 256.549 208.948C256.941 209.153 257.254 209.443 257.487 209.816C257.721 210.189 257.837 210.637 257.837 211.16V215.5H256.297ZM262.546 215.64C261.874 215.64 261.267 215.491 260.726 215.192C260.194 214.884 259.769 214.464 259.452 213.932C259.144 213.4 258.99 212.803 258.99 212.14C258.99 211.477 259.144 210.885 259.452 210.362C259.76 209.83 260.175 209.41 260.698 209.102C261.23 208.794 261.818 208.64 262.462 208.64C263.087 208.64 263.638 208.785 264.114 209.074C264.599 209.363 264.977 209.76 265.248 210.264C265.528 210.768 265.668 211.342 265.668 211.986C265.668 212.098 265.659 212.215 265.64 212.336C265.631 212.448 265.612 212.574 265.584 212.714H260.068V211.454H264.786L264.212 211.958C264.193 211.547 264.114 211.202 263.974 210.922C263.834 210.642 263.633 210.427 263.372 210.278C263.12 210.129 262.807 210.054 262.434 210.054C262.042 210.054 261.701 210.138 261.412 210.306C261.123 210.474 260.899 210.712 260.74 211.02C260.581 211.319 260.502 211.678 260.502 212.098C260.502 212.518 260.586 212.887 260.754 213.204C260.922 213.521 261.16 213.769 261.468 213.946C261.776 214.114 262.131 214.198 262.532 214.198C262.877 214.198 263.195 214.137 263.484 214.016C263.783 213.895 264.035 213.717 264.24 213.484L265.22 214.478C264.893 214.861 264.497 215.15 264.03 215.346C263.563 215.542 263.069 215.64 262.546 215.64Z" fill="#6061EE"/>
<path d="M278.656 214.638L281.992 205.362H283L279.676 214.638H278.656Z" fill="#3F4350"/>
<path d="M295.336 215.5L299.368 205.7H300.488L304.492 215.5H302.756L299.62 207.562H300.208L297.044 215.5H295.336ZM297.324 213.61V212.21H302.518V213.61H297.324ZM308.382 215.64C307.719 215.64 307.117 215.486 306.576 215.178C306.044 214.87 305.624 214.45 305.316 213.918C305.008 213.386 304.854 212.793 304.854 212.14C304.854 211.477 305.008 210.885 305.316 210.362C305.624 209.83 306.044 209.41 306.576 209.102C307.117 208.794 307.719 208.64 308.382 208.64C308.904 208.64 309.39 208.743 309.838 208.948C310.295 209.144 310.682 209.429 311 209.802L309.992 210.824C309.796 210.591 309.558 210.418 309.278 210.306C309.007 210.185 308.708 210.124 308.382 210.124C307.999 210.124 307.658 210.213 307.36 210.39C307.07 210.558 306.842 210.791 306.674 211.09C306.515 211.389 306.436 211.739 306.436 212.14C306.436 212.532 306.515 212.882 306.674 213.19C306.842 213.489 307.07 213.727 307.36 213.904C307.658 214.072 307.999 214.156 308.382 214.156C308.708 214.156 309.007 214.1 309.278 213.988C309.558 213.867 309.796 213.689 309.992 213.456L311 214.478C310.682 214.851 310.295 215.141 309.838 215.346C309.39 215.542 308.904 215.64 308.382 215.64ZM313.022 215.5V205.98H314.562V215.5H313.022ZM311.412 210.18V208.78H316.172V210.18H311.412ZM317.306 215.5V208.78H318.846V215.5H317.306ZM318.076 207.548C317.814 207.548 317.595 207.459 317.418 207.282C317.25 207.105 317.166 206.885 317.166 206.624C317.166 206.363 317.25 206.143 317.418 205.966C317.595 205.789 317.814 205.7 318.076 205.7C318.346 205.7 318.566 205.789 318.734 205.966C318.902 206.143 318.986 206.363 318.986 206.624C318.986 206.885 318.902 207.105 318.734 207.282C318.566 207.459 318.346 207.548 318.076 207.548ZM323.653 215.64C322.999 215.64 322.407 215.486 321.875 215.178C321.343 214.861 320.918 214.436 320.601 213.904C320.293 213.372 320.139 212.779 320.139 212.126C320.139 211.473 320.293 210.885 320.601 210.362C320.918 209.839 321.343 209.424 321.875 209.116C322.407 208.799 322.999 208.64 323.653 208.64C324.315 208.64 324.913 208.794 325.445 209.102C325.977 209.41 326.397 209.83 326.705 210.362C327.022 210.885 327.181 211.473 327.181 212.126C327.181 212.779 327.022 213.372 326.705 213.904C326.397 214.436 325.977 214.861 325.445 215.178C324.913 215.486 324.315 215.64 323.653 215.64ZM323.653 214.156C324.035 214.156 324.371 214.072 324.661 213.904C324.959 213.727 325.188 213.484 325.347 213.176C325.515 212.868 325.599 212.518 325.599 212.126C325.599 211.734 325.515 211.389 325.347 211.09C325.179 210.791 324.95 210.558 324.661 210.39C324.371 210.213 324.035 210.124 323.653 210.124C323.279 210.124 322.943 210.213 322.645 210.39C322.355 210.558 322.127 210.791 321.959 211.09C321.8 211.389 321.721 211.734 321.721 212.126C321.721 212.518 321.8 212.868 321.959 213.176C322.127 213.484 322.355 213.727 322.645 213.904C322.943 214.072 323.279 214.156 323.653 214.156ZM333.067 215.5V211.622C333.067 211.174 332.923 210.805 332.633 210.516C332.353 210.227 331.989 210.082 331.541 210.082C331.243 210.082 330.977 210.147 330.743 210.278C330.51 210.409 330.328 210.591 330.197 210.824C330.067 211.057 330.001 211.323 330.001 211.622L329.399 211.286C329.399 210.773 329.511 210.32 329.735 209.928C329.959 209.527 330.267 209.214 330.659 208.99C331.061 208.757 331.509 208.64 332.003 208.64C332.507 208.64 332.955 208.771 333.347 209.032C333.739 209.284 334.047 209.615 334.271 210.026C334.495 210.427 334.607 210.847 334.607 211.286V215.5H333.067ZM328.461 215.5V208.78H330.001V215.5H328.461ZM338.37 215.64C337.997 215.64 337.638 215.593 337.292 215.5C336.947 215.397 336.63 215.257 336.34 215.08C336.051 214.893 335.799 214.669 335.584 214.408L336.564 213.428C336.798 213.699 337.064 213.904 337.362 214.044C337.67 214.175 338.016 214.24 338.398 214.24C338.744 214.24 339.005 214.189 339.182 214.086C339.36 213.983 339.448 213.834 339.448 213.638C339.448 213.433 339.364 213.274 339.196 213.162C339.028 213.05 338.809 212.957 338.538 212.882C338.277 212.798 337.997 212.714 337.698 212.63C337.409 212.546 337.129 212.434 336.858 212.294C336.597 212.145 336.382 211.944 336.214 211.692C336.046 211.44 335.962 211.113 335.962 210.712C335.962 210.283 336.06 209.914 336.256 209.606C336.462 209.298 336.746 209.06 337.11 208.892C337.484 208.724 337.927 208.64 338.44 208.64C338.982 208.64 339.458 208.738 339.868 208.934C340.288 209.121 340.638 209.405 340.918 209.788L339.938 210.768C339.742 210.525 339.518 210.343 339.266 210.222C339.014 210.101 338.725 210.04 338.398 210.04C338.09 210.04 337.852 210.087 337.684 210.18C337.516 210.273 337.432 210.409 337.432 210.586C337.432 210.773 337.516 210.917 337.684 211.02C337.852 211.123 338.067 211.211 338.328 211.286C338.599 211.361 338.879 211.445 339.168 211.538C339.467 211.622 339.747 211.743 340.008 211.902C340.279 212.051 340.498 212.257 340.666 212.518C340.834 212.77 340.918 213.101 340.918 213.512C340.918 214.165 340.69 214.683 340.232 215.066C339.775 215.449 339.154 215.64 338.37 215.64Z" fill="#6061EE"/>
<path d="M354 214.638L357.336 205.362H358.344L355.02 214.638H354Z" fill="#3F4350"/>
<path d="M371.492 215.5V205.784H372.808V215.5H371.492ZM372.388 215.5V214.296H377.96V215.5H372.388ZM372.388 211.104V209.956H377.498V211.104H372.388ZM372.388 206.988V205.784H377.89V206.988H372.388ZM382.217 215.64C381.601 215.64 381.05 215.491 380.565 215.192C380.079 214.884 379.692 214.469 379.403 213.946C379.123 213.423 378.983 212.835 378.983 212.182C378.983 211.529 379.123 210.941 379.403 210.418C379.692 209.895 380.079 209.48 380.565 209.172C381.05 208.864 381.601 208.71 382.217 208.71C382.711 208.71 383.159 208.817 383.561 209.032C383.962 209.237 384.284 209.527 384.527 209.9C384.779 210.264 384.919 210.689 384.947 211.174V213.176C384.919 213.652 384.783 214.077 384.541 214.45C384.298 214.823 383.976 215.117 383.575 215.332C383.173 215.537 382.721 215.64 382.217 215.64ZM382.427 214.45C382.847 214.45 383.211 214.352 383.519 214.156C383.836 213.96 384.083 213.694 384.261 213.358C384.438 213.013 384.527 212.621 384.527 212.182C384.527 211.725 384.433 211.328 384.247 210.992C384.069 210.656 383.822 210.39 383.505 210.194C383.197 209.998 382.833 209.9 382.413 209.9C381.993 209.9 381.624 209.998 381.307 210.194C380.989 210.39 380.737 210.661 380.551 211.006C380.373 211.342 380.285 211.729 380.285 212.168C380.285 212.616 380.373 213.013 380.551 213.358C380.737 213.694 380.989 213.96 381.307 214.156C381.633 214.352 382.007 214.45 382.427 214.45ZM385.717 215.5H384.443V213.708L384.681 212.084L384.443 210.474V205.504H385.717V215.5ZM387.565 215.5V208.85H388.825V215.5H387.565ZM388.195 207.52C387.962 207.52 387.771 207.445 387.621 207.296C387.472 207.137 387.397 206.941 387.397 206.708C387.397 206.484 387.472 206.297 387.621 206.148C387.771 205.989 387.962 205.91 388.195 205.91C388.429 205.91 388.62 205.989 388.769 206.148C388.919 206.297 388.993 206.484 388.993 206.708C388.993 206.941 388.919 207.137 388.769 207.296C388.62 207.445 388.429 207.52 388.195 207.52ZM391.704 215.5V206.064H392.964V215.5H391.704ZM390.066 209.998V208.85H394.602V209.998H390.066ZM403.382 215.64C402.682 215.64 402.034 215.514 401.436 215.262C400.839 215.001 400.316 214.641 399.868 214.184C399.43 213.727 399.089 213.195 398.846 212.588C398.604 211.981 398.482 211.333 398.482 210.642C398.482 209.942 398.604 209.289 398.846 208.682C399.089 208.075 399.43 207.548 399.868 207.1C400.316 206.643 400.834 206.288 401.422 206.036C402.02 205.775 402.668 205.644 403.368 205.644C404.134 205.644 404.806 205.775 405.384 206.036C405.963 206.297 406.476 206.652 406.924 207.1L406.014 208.01C405.706 207.665 405.328 207.394 404.88 207.198C404.442 207.002 403.938 206.904 403.368 206.904C402.855 206.904 402.384 206.997 401.954 207.184C401.525 207.361 401.152 207.618 400.834 207.954C400.517 208.29 400.27 208.687 400.092 209.144C399.924 209.601 399.84 210.101 399.84 210.642C399.84 211.183 399.924 211.683 400.092 212.14C400.27 212.597 400.517 212.994 400.834 213.33C401.152 213.666 401.525 213.927 401.954 214.114C402.384 214.291 402.855 214.38 403.368 214.38C403.975 214.38 404.502 214.282 404.95 214.086C405.398 213.881 405.776 213.605 406.084 213.26L406.994 214.156C406.546 214.623 406.019 214.987 405.412 215.248C404.815 215.509 404.138 215.64 403.382 215.64ZM411.193 215.64C410.539 215.64 409.951 215.486 409.429 215.178C408.906 214.87 408.491 214.455 408.183 213.932C407.875 213.4 407.721 212.807 407.721 212.154C407.721 211.51 407.875 210.931 408.183 210.418C408.491 209.895 408.906 209.48 409.429 209.172C409.951 208.864 410.539 208.71 411.193 208.71C411.837 208.71 412.42 208.864 412.943 209.172C413.475 209.471 413.895 209.881 414.203 210.404C414.511 210.927 414.665 211.51 414.665 212.154C414.665 212.807 414.511 213.4 414.203 213.932C413.895 214.455 413.475 214.87 412.943 215.178C412.42 215.486 411.837 215.64 411.193 215.64ZM411.193 214.422C411.613 214.422 411.986 214.324 412.313 214.128C412.639 213.932 412.896 213.666 413.083 213.33C413.269 212.985 413.363 212.593 413.363 212.154C413.363 211.725 413.265 211.342 413.069 211.006C412.882 210.67 412.625 210.409 412.299 210.222C411.981 210.026 411.613 209.928 411.193 209.928C410.773 209.928 410.399 210.026 410.073 210.222C409.746 210.409 409.489 210.67 409.303 211.006C409.116 211.342 409.023 211.725 409.023 212.154C409.023 212.593 409.116 212.985 409.303 213.33C409.489 213.666 409.746 213.932 410.073 214.128C410.399 214.324 410.773 214.422 411.193 214.422ZM420.788 215.5V211.622C420.788 211.118 420.63 210.703 420.312 210.376C419.995 210.049 419.584 209.886 419.08 209.886C418.744 209.886 418.446 209.961 418.184 210.11C417.923 210.259 417.718 210.465 417.568 210.726C417.419 210.987 417.344 211.286 417.344 211.622L416.826 211.328C416.826 210.824 416.938 210.376 417.162 209.984C417.386 209.592 417.699 209.284 418.1 209.06C418.502 208.827 418.954 208.71 419.458 208.71C419.962 208.71 420.406 208.836 420.788 209.088C421.18 209.34 421.488 209.671 421.712 210.082C421.936 210.483 422.048 210.913 422.048 211.37V215.5H420.788ZM416.084 215.5V208.85H417.344V215.5H416.084ZM424.694 215.5V206.064H425.954V215.5H424.694ZM423.056 209.998V208.85H427.592V209.998H423.056ZM428.827 215.5V208.85H430.087V215.5H428.827ZM430.087 211.706L429.611 211.496C429.611 210.647 429.807 209.97 430.199 209.466C430.591 208.962 431.155 208.71 431.893 208.71C432.229 208.71 432.532 208.771 432.803 208.892C433.073 209.004 433.325 209.195 433.559 209.466L432.733 210.32C432.593 210.171 432.439 210.063 432.271 209.998C432.103 209.933 431.907 209.9 431.683 209.9C431.216 209.9 430.833 210.049 430.535 210.348C430.236 210.647 430.087 211.099 430.087 211.706ZM437.055 215.64C436.448 215.64 435.898 215.491 435.403 215.192C434.908 214.884 434.516 214.469 434.227 213.946C433.947 213.423 433.807 212.835 433.807 212.182C433.807 211.529 433.947 210.941 434.227 210.418C434.516 209.895 434.904 209.48 435.389 209.172C435.884 208.864 436.439 208.71 437.055 208.71C437.559 208.71 438.007 208.817 438.399 209.032C438.8 209.237 439.122 209.527 439.365 209.9C439.608 210.264 439.743 210.689 439.771 211.174V213.176C439.743 213.652 439.608 214.077 439.365 214.45C439.132 214.823 438.814 215.117 438.413 215.332C438.021 215.537 437.568 215.64 437.055 215.64ZM437.265 214.45C437.89 214.45 438.394 214.24 438.777 213.82C439.16 213.391 439.351 212.845 439.351 212.182C439.351 211.725 439.262 211.328 439.085 210.992C438.917 210.647 438.674 210.381 438.357 210.194C438.04 209.998 437.671 209.9 437.251 209.9C436.831 209.9 436.458 209.998 436.131 210.194C435.814 210.39 435.562 210.661 435.375 211.006C435.198 211.342 435.109 211.729 435.109 212.168C435.109 212.616 435.198 213.013 435.375 213.358C435.562 213.694 435.818 213.96 436.145 214.156C436.472 214.352 436.845 214.45 437.265 214.45ZM439.267 215.5V213.708L439.505 212.084L439.267 210.474V208.85H440.541V215.5H439.267ZM445.413 215.64C444.76 215.64 444.167 215.486 443.635 215.178C443.113 214.87 442.697 214.455 442.389 213.932C442.091 213.4 441.941 212.812 441.941 212.168C441.941 211.515 442.091 210.927 442.389 210.404C442.697 209.881 443.113 209.471 443.635 209.172C444.167 208.864 444.76 208.71 445.413 208.71C445.927 208.71 446.403 208.808 446.841 209.004C447.28 209.191 447.658 209.466 447.975 209.83L447.135 210.67C446.93 210.427 446.678 210.245 446.379 210.124C446.09 209.993 445.768 209.928 445.413 209.928C444.993 209.928 444.62 210.026 444.293 210.222C443.967 210.409 443.71 210.67 443.523 211.006C443.337 211.342 443.243 211.729 443.243 212.168C443.243 212.607 443.337 212.994 443.523 213.33C443.71 213.666 443.967 213.932 444.293 214.128C444.62 214.324 444.993 214.422 445.413 214.422C445.768 214.422 446.09 214.361 446.379 214.24C446.678 214.109 446.935 213.923 447.149 213.68L447.975 214.52C447.667 214.875 447.289 215.15 446.841 215.346C446.403 215.542 445.927 215.64 445.413 215.64ZM450.165 215.5V206.064H451.425V215.5H450.165ZM448.527 209.998V208.85H453.063V209.998H448.527Z" fill="#A6AAB3"/>
</svg>
