<svg width="683" height="420" viewBox="0 0 683 420" fill="none" xmlns="http://www.w3.org/2000/svg">
<rect width="683" height="420" fill="#2A2C35"/>
<g filter="url(#filter0_d_5212_36605)">
<path d="M45 126.5C45 119.873 50.3726 114.5 57 114.5H626C632.627 114.5 638 119.873 638 126.5V293.5C638 300.127 632.627 305.5 626 305.5H57C50.3726 305.5 45 300.127 45 293.5V126.5Z" fill="#1C1D23"/>
<path d="M45 126C45 119.373 50.3726 114 57 114H73V306H57C50.3726 306 45 300.627 45 294V126Z" fill="#6061EE"/>
<path fill-rule="evenodd" clip-rule="evenodd" d="M54.8492 136.905C54.5679 136.691 54.158 136.611 53.8607 136.802C53.4267 137.088 53.3062 137.675 53.708 138.008C54.2947 138.508 55.0902 138.889 55.8698 138.889C57.4529 138.889 58.7066 137.81 59.0923 136.484C60.2013 137.222 61.6961 137.262 62.9095 136.524L63.5123 137.151C63.8176 137.461 64.3079 137.461 64.6373 137.151C64.9588 136.85 64.9829 136.342 64.6856 136.024L64.0828 135.397C64.8865 134.215 64.9106 132.715 64.2275 131.572C65.5695 131.279 66.7107 130.057 66.775 128.438C66.8714 125.97 64.3963 124.446 62.3229 125.692L59.687 127.279C59.6066 127.168 59.5182 127.065 59.4218 126.962C58.7146 126.216 57.702 125.914 56.7377 126.049C56.7377 125.954 56.7457 125.851 56.7618 125.748C56.818 125.351 56.9707 124.986 57.2681 124.692C57.5976 124.383 57.6136 123.883 57.3163 123.565C57.0109 123.256 56.5207 123.256 56.1912 123.565C55.5483 124.184 55.2751 124.938 55.1786 125.589C55.1224 126.002 55.1304 126.398 55.1786 126.724C55.0902 126.787 55.0018 126.867 54.9134 126.954C54.825 127.033 54.7447 127.121 54.6724 127.208C54.3509 127.144 53.9571 127.113 53.5392 127.152C52.8883 127.216 52.1249 127.446 51.482 128.065C51.1525 128.374 51.1364 128.874 51.4337 129.192C51.7391 129.501 52.2293 129.501 52.5588 129.192C52.8642 128.906 53.2419 128.771 53.6276 128.731C53.7321 128.731 53.8366 128.716 53.933 128.731C53.7401 129.7 54.0053 130.731 54.7125 131.477C54.7929 131.557 54.8652 131.628 54.9536 131.699L54.6322 132.16C54.5036 132.35 54.4634 132.564 54.5036 132.763L54.592 133.207C54.6161 133.326 54.584 133.453 54.5197 133.548C54.4152 133.707 54.3188 133.739 54.1661 133.771L53.6357 133.882C53.3946 133.929 53.1776 134.08 53.033 134.302C52.7356 134.747 52.8481 135.334 53.2821 135.612C53.716 135.889 54.3027 135.754 54.6 135.31C54.7447 135.088 54.7929 134.834 54.7447 134.596L54.6402 134.072C54.6081 133.921 54.6081 133.81 54.7045 133.659C54.7688 133.556 54.8652 133.485 54.9858 133.453L55.4278 133.35C55.6287 133.302 55.8055 133.175 55.926 132.985L56.143 132.652L57.4127 134.985C57.9753 136.032 57.1475 137.342 55.9099 137.342C55.5563 137.342 55.1706 137.151 54.8492 136.905ZM58.3369 132.342L58.8914 133.469C59.5665 133.334 60.6594 132.794 61.1657 131.223L60.121 130.636L59.2289 131.493L58.3449 132.342H58.3369ZM62.4595 134.897C61.6237 135.699 60.354 135.635 59.6548 134.858C60.6755 134.493 61.8568 133.659 62.5077 132.033C63.2872 132.771 63.3194 134.08 62.4595 134.897ZM58.144 130.358C58.795 129.731 58.8432 128.724 58.2405 128.097C57.6538 127.47 56.6412 127.462 55.9903 128.089C55.3394 128.716 55.2912 129.723 55.8939 130.35C56.4805 130.977 57.4931 130.985 58.144 130.358ZM60.6915 128.454L63.014 127.065C64.0587 126.43 65.2963 127.192 65.2481 128.438C65.1999 129.684 63.8819 130.453 62.8935 129.835L60.6915 128.454Z" fill="white"/>
<path d="M57.177 161.979C56.8742 161.979 56.5781 162.069 56.3263 162.237C56.0745 162.405 55.8782 162.645 55.7623 162.924C55.6464 163.204 55.6161 163.512 55.6752 163.809C55.7343 164.106 55.8801 164.379 56.0942 164.593C56.3084 164.807 56.5812 164.953 56.8783 165.012C57.1753 165.071 57.4832 165.041 57.763 164.925C58.0428 164.809 58.2819 164.613 58.4502 164.361C58.6184 164.109 58.7083 163.813 58.7083 163.51C58.7083 163.104 58.5469 162.715 58.2598 162.428C57.9726 162.14 57.5831 161.979 57.177 161.979ZM57.177 164.167C57.0472 164.167 56.9203 164.128 56.8124 164.056C56.7045 163.984 56.6204 163.881 56.5707 163.762C56.521 163.642 56.508 163.51 56.5334 163.382C56.5587 163.255 56.6212 163.138 56.713 163.046C56.8047 162.955 56.9217 162.892 57.049 162.867C57.1763 162.841 57.3082 162.854 57.4281 162.904C57.5481 162.954 57.6505 163.038 57.7227 163.146C57.7948 163.254 57.8333 163.381 57.8333 163.51C57.8333 163.684 57.7641 163.851 57.641 163.974C57.518 164.097 57.3511 164.167 57.177 164.167ZM60.8228 165.042C61.1257 165.042 61.4217 164.952 61.6736 164.784C61.9254 164.615 62.1216 164.376 62.2375 164.096C62.3534 163.817 62.3837 163.509 62.3247 163.212C62.2656 162.915 62.1197 162.642 61.9056 162.428C61.6914 162.213 61.4186 162.068 61.1216 162.009C60.8245 161.949 60.5167 161.98 60.2369 162.096C59.9571 162.212 59.7179 162.408 59.5496 162.66C59.3814 162.911 59.2916 163.208 59.2916 163.51C59.2916 163.916 59.4529 164.306 59.7401 164.593C60.0272 164.88 60.4167 165.042 60.8228 165.042ZM60.8228 162.854C60.9526 162.854 61.0795 162.893 61.1874 162.965C61.2953 163.037 61.3795 163.139 61.4291 163.259C61.4788 163.379 61.4918 163.511 61.4665 163.638C61.4412 163.766 61.3787 163.883 61.2869 163.974C61.1951 164.066 61.0782 164.129 60.9509 164.154C60.8236 164.179 60.6916 164.166 60.5717 164.117C60.4518 164.067 60.3493 163.983 60.2772 163.875C60.2051 163.767 60.1666 163.64 60.1666 163.51C60.1666 163.336 60.2357 163.169 60.3588 163.046C60.4819 162.923 60.6488 162.854 60.8228 162.854ZM57.177 165.625C56.8742 165.625 56.5781 165.715 56.3263 165.883C56.0745 166.051 55.8782 166.29 55.7623 166.57C55.6464 166.85 55.6161 167.158 55.6752 167.455C55.7343 167.752 55.8801 168.025 56.0942 168.239C56.3084 168.453 56.5812 168.599 56.8783 168.658C57.1753 168.717 57.4832 168.687 57.763 168.571C58.0428 168.455 58.2819 168.259 58.4502 168.007C58.6184 167.755 58.7083 167.459 58.7083 167.156C58.7083 166.75 58.5469 166.361 58.2598 166.073C57.9726 165.786 57.5831 165.625 57.177 165.625ZM57.177 167.812C57.0472 167.812 56.9203 167.774 56.8124 167.702C56.7045 167.63 56.6204 167.527 56.5707 167.407C56.521 167.287 56.508 167.155 56.5334 167.028C56.5587 166.901 56.6212 166.784 56.713 166.692C56.8047 166.6 56.9217 166.538 57.049 166.513C57.1763 166.487 57.3082 166.5 57.4281 166.55C57.5481 166.6 57.6505 166.684 57.7227 166.792C57.7948 166.9 57.8333 167.026 57.8333 167.156C57.8333 167.33 57.7641 167.497 57.641 167.62C57.518 167.743 57.3511 167.812 57.177 167.812ZM60.8228 165.625C60.52 165.625 60.2239 165.715 59.9721 165.883C59.7203 166.051 59.524 166.29 59.4081 166.57C59.2922 166.85 59.2619 167.158 59.321 167.455C59.3801 167.752 59.5259 168.025 59.7401 168.239C59.9542 168.453 60.2271 168.599 60.5241 168.658C60.8211 168.717 61.129 168.687 61.4088 168.571C61.6886 168.455 61.9278 168.259 62.096 168.007C62.2643 167.755 62.3541 167.459 62.3541 167.156C62.3541 166.75 62.1928 166.361 61.9056 166.073C61.6184 165.786 61.2289 165.625 60.8228 165.625ZM60.8228 167.812C60.693 167.812 60.5662 167.774 60.4582 167.702C60.3503 167.63 60.2662 167.527 60.2165 167.407C60.1669 167.287 60.1539 167.155 60.1792 167.028C60.2045 166.901 60.267 166.784 60.3588 166.692C60.4506 166.6 60.5675 166.538 60.6948 166.513C60.8221 166.487 60.9541 166.5 61.074 166.55C61.1939 166.6 61.2964 166.684 61.3685 166.792C61.4406 166.9 61.4791 167.026 61.4791 167.156C61.4791 167.33 61.4099 167.497 61.2869 167.62C61.1638 167.743 60.9969 167.812 60.8228 167.812Z" fill="white"/>
<path d="M62.4999 187.16H55.4999C55.3065 187.16 55.1211 187.236 54.9843 187.373C54.8476 187.51 54.7708 187.695 54.7708 187.889V192.556C54.7708 192.749 54.8476 192.934 54.9843 193.071C55.1211 193.208 55.3065 193.285 55.4999 193.285H62.4999C62.6933 193.285 62.8788 193.208 63.0155 193.071C63.1523 192.934 63.2291 192.749 63.2291 192.556V187.889C63.2291 187.695 63.1523 187.51 63.0155 187.373C62.8788 187.236 62.6933 187.16 62.4999 187.16ZM62.3541 188.035V188.764H55.6458V188.035H62.3541ZM55.6458 192.41V189.639H62.3541V192.41H55.6458ZM61.9166 191.535C61.9166 191.651 61.8705 191.762 61.7884 191.844C61.7064 191.926 61.5951 191.972 61.4791 191.972H60.3124C60.1964 191.972 60.0851 191.926 60.0031 191.844C59.921 191.762 59.8749 191.651 59.8749 191.535C59.8749 191.419 59.921 191.307 60.0031 191.225C60.0851 191.143 60.1964 191.097 60.3124 191.097H61.4791C61.5951 191.097 61.7064 191.143 61.7884 191.225C61.8705 191.307 61.9166 191.419 61.9166 191.535ZM59.4374 191.535C59.4374 191.651 59.3913 191.762 59.3093 191.844C59.2272 191.926 59.116 191.972 58.9999 191.972H58.5624C58.4464 191.972 58.3351 191.926 58.2531 191.844C58.171 191.762 58.1249 191.651 58.1249 191.535C58.1249 191.419 58.171 191.307 58.2531 191.225C58.3351 191.143 58.4464 191.097 58.5624 191.097H58.9999C59.116 191.097 59.2272 191.143 59.3093 191.225C59.3913 191.307 59.4374 191.419 59.4374 191.535Z" fill="white"/>
<path d="M48.1111 210.444C48.1111 207.511 48.1111 206.045 49.0223 205.133C49.9335 204.222 51.4001 204.222 54.3333 204.222H63.6666C66.5998 204.222 68.0664 204.222 68.9776 205.133C69.8889 206.045 69.8889 207.511 69.8889 210.444V219.778C69.8889 222.711 69.8889 224.177 68.9776 225.089C68.0664 226 66.5998 226 63.6666 226H54.3333C51.4001 226 49.9335 226 49.0223 225.089C48.1111 224.177 48.1111 222.711 48.1111 219.778V210.444Z" fill="#181545"/>
<path d="M63.0832 217.882H62.6457V213.944C62.6457 213.751 62.5688 213.565 62.4321 213.429C62.2954 213.292 62.1099 213.215 61.9165 213.215H60.604V211.611C60.604 211.488 60.573 211.368 60.514 211.26C60.4551 211.153 60.3699 211.062 60.2665 210.996C60.1632 210.93 60.0448 210.892 59.9225 210.884C59.8002 210.876 59.6779 210.899 59.5668 210.95L55.7751 212.72C55.6494 212.779 55.5431 212.872 55.4685 212.989C55.394 213.106 55.3542 213.242 55.354 213.381V217.882H54.9165C54.8005 217.882 54.6892 217.928 54.6071 218.01C54.5251 218.092 54.479 218.203 54.479 218.319C54.479 218.435 54.5251 218.547 54.6071 218.629C54.6892 218.711 54.8005 218.757 54.9165 218.757H63.0832C63.1992 218.757 63.3105 218.711 63.3925 218.629C63.4746 218.547 63.5207 218.435 63.5207 218.319C63.5207 218.203 63.4746 218.092 63.3925 218.01C63.3105 217.928 63.1992 217.882 63.0832 217.882ZM61.7707 214.09V217.882H60.604V214.09H61.7707ZM56.229 213.474L59.729 211.841V217.882H56.229V213.474ZM59.1457 214.528V214.965C59.1457 215.081 59.0996 215.192 59.0175 215.275C58.9355 215.357 58.8242 215.403 58.7082 215.403C58.5921 215.403 58.4809 215.357 58.3988 215.275C58.3168 215.192 58.2707 215.081 58.2707 214.965V214.528C58.2707 214.412 58.3168 214.3 58.3988 214.218C58.4809 214.136 58.5921 214.09 58.7082 214.09C58.8242 214.09 58.9355 214.136 59.0175 214.218C59.0996 214.3 59.1457 214.412 59.1457 214.528ZM57.6873 214.528V214.965C57.6873 215.081 57.6412 215.192 57.5592 215.275C57.4771 215.357 57.3659 215.403 57.2498 215.403C57.1338 215.403 57.0225 215.357 56.9405 215.275C56.8584 215.192 56.8123 215.081 56.8123 214.965V214.528C56.8123 214.412 56.8584 214.3 56.9405 214.218C57.0225 214.136 57.1338 214.09 57.2498 214.09C57.3659 214.09 57.4771 214.136 57.5592 214.218C57.6412 214.3 57.6873 214.412 57.6873 214.528ZM57.6873 216.423V216.861C57.6873 216.977 57.6412 217.088 57.5592 217.17C57.4771 217.252 57.3659 217.298 57.2498 217.298C57.1338 217.298 57.0225 217.252 56.9405 217.17C56.8584 217.088 56.8123 216.977 56.8123 216.861V216.423C56.8123 216.307 56.8584 216.196 56.9405 216.114C57.0225 216.032 57.1338 215.986 57.2498 215.986C57.3659 215.986 57.4771 216.032 57.5592 216.114C57.6412 216.196 57.6873 216.307 57.6873 216.423ZM59.1457 216.423V216.861C59.1457 216.977 59.0996 217.088 59.0175 217.17C58.9355 217.252 58.8242 217.298 58.7082 217.298C58.5921 217.298 58.4809 217.252 58.3988 217.17C58.3168 217.088 58.2707 216.977 58.2707 216.861V216.423C58.2707 216.307 58.3168 216.196 58.3988 216.114C58.4809 216.032 58.5921 215.986 58.7082 215.986C58.8242 215.986 58.9355 216.032 59.0175 216.114C59.0996 216.196 59.1457 216.307 59.1457 216.423Z" fill="#6061EE"/>
<path d="M63.1926 238.835C63.1483 238.699 63.065 238.579 62.9531 238.491C62.8412 238.402 62.7057 238.347 62.5633 238.335L60.4852 238.155L59.6722 236.218C59.6163 236.086 59.5228 235.974 59.4034 235.895C59.2841 235.816 59.1441 235.774 59.001 235.774C58.8579 235.774 58.7179 235.816 58.5985 235.895C58.4792 235.974 58.3857 236.086 58.3298 236.218L57.5157 238.155L55.4376 238.335C55.2944 238.347 55.158 238.401 55.0453 238.49C54.9327 238.579 54.8489 238.699 54.8044 238.836C54.7599 238.972 54.7568 239.119 54.7953 239.257C54.8339 239.396 54.9125 239.52 55.0212 239.614L56.6006 240.992L56.1266 243.042C56.0941 243.182 56.1035 243.328 56.1536 243.462C56.2036 243.596 56.2922 243.713 56.4082 243.797C56.5241 243.882 56.6624 243.93 56.8056 243.936C56.9488 243.942 57.0907 243.906 57.2134 243.832L58.9999 242.747L60.7864 243.832C60.9091 243.906 61.0509 243.942 61.1941 243.936C61.3372 243.929 61.4754 243.881 61.5913 243.797C61.7072 243.713 61.7957 243.596 61.8458 243.462C61.8959 243.328 61.9053 243.182 61.8728 243.042L61.3989 240.992L62.9782 239.614C63.0867 239.519 63.1648 239.395 63.203 239.257C63.2411 239.118 63.2375 238.972 63.1926 238.835ZM60.759 240.389C60.659 240.476 60.5846 240.589 60.5438 240.715C60.5031 240.841 60.4974 240.976 60.5275 241.105L60.9428 242.903L59.3772 241.952C59.2635 241.883 59.133 241.846 58.9999 241.846C58.8668 241.846 58.7362 241.883 58.6226 241.952L57.057 242.903L57.4723 241.105C57.5024 240.976 57.4967 240.841 57.4559 240.715C57.4152 240.589 57.3408 240.476 57.2408 240.389L55.8521 239.177L57.6801 239.019C57.8125 239.008 57.9392 238.961 58.0465 238.882C58.1538 238.804 58.2375 238.697 58.2886 238.575L58.9999 236.88L59.7112 238.575C59.7623 238.697 59.846 238.804 59.9533 238.882C60.0606 238.961 60.1873 239.008 60.3197 239.019L62.1477 239.177L60.759 240.389Z" fill="white"/>
<mask id="path-13-inside-1_5212_36605" fill="white">
<path d="M73.2383 114.5H638V145.876H73.2383V114.5Z"/>
</mask>
<path d="M638 145.483H73.2383V146.268H638V145.483Z" fill="#1C1D23" mask="url(#path-13-inside-1_5212_36605)"/>
<path d="M114.444 132.188V128.344H115.075V132.188H114.444ZM114.878 132.188V131.611H116.887V132.188H114.878ZM118.393 132.243C118.155 132.243 117.939 132.182 117.745 132.061C117.555 131.941 117.403 131.778 117.289 131.573C117.179 131.364 117.125 131.132 117.125 130.875C117.125 130.616 117.179 130.383 117.289 130.178C117.403 129.969 117.555 129.805 117.745 129.684C117.939 129.56 118.155 129.497 118.393 129.497C118.594 129.497 118.772 129.541 118.925 129.629C119.083 129.713 119.207 129.83 119.299 129.98C119.39 130.131 119.436 130.301 119.436 130.491V131.249C119.436 131.439 119.39 131.609 119.299 131.759C119.211 131.91 119.088 132.029 118.931 132.116C118.774 132.201 118.594 132.243 118.393 132.243ZM118.492 131.672C118.715 131.672 118.894 131.597 119.03 131.446C119.169 131.296 119.238 131.104 119.238 130.87C119.238 130.713 119.207 130.573 119.145 130.453C119.083 130.332 118.995 130.239 118.882 130.173C118.772 130.103 118.642 130.068 118.492 130.068C118.345 130.068 118.215 130.103 118.102 130.173C117.992 130.239 117.904 130.332 117.838 130.453C117.776 130.573 117.745 130.713 117.745 130.87C117.745 131.027 117.776 131.166 117.838 131.287C117.904 131.408 117.992 131.503 118.102 131.573C118.215 131.639 118.345 131.672 118.492 131.672ZM119.2 132.188V131.479L119.304 130.837L119.2 130.2V129.552H119.804V132.188H119.2ZM121.885 132.243C121.684 132.243 121.505 132.201 121.347 132.116C121.19 132.029 121.065 131.91 120.974 131.759C120.886 131.609 120.842 131.439 120.842 131.249V130.491C120.842 130.301 120.888 130.131 120.979 129.98C121.071 129.83 121.195 129.713 121.353 129.629C121.51 129.541 121.688 129.497 121.885 129.497C122.123 129.497 122.337 129.56 122.528 129.684C122.722 129.805 122.874 129.969 122.984 130.178C123.097 130.383 123.154 130.616 123.154 130.875C123.154 131.132 123.097 131.364 122.984 131.573C122.874 131.778 122.722 131.941 122.528 132.061C122.337 132.182 122.123 132.243 121.885 132.243ZM120.474 132.188V128.234H121.078V130.2L120.974 130.837L121.078 131.479V132.188H120.474ZM121.787 131.672C121.933 131.672 122.061 131.639 122.171 131.573C122.284 131.503 122.372 131.408 122.434 131.287C122.5 131.166 122.533 131.027 122.533 130.87C122.533 130.713 122.5 130.573 122.434 130.453C122.372 130.332 122.284 130.239 122.171 130.173C122.061 130.103 121.933 130.068 121.787 130.068C121.64 130.068 121.51 130.103 121.397 130.173C121.283 130.239 121.195 130.332 121.133 130.453C121.071 130.573 121.04 130.713 121.04 130.87C121.04 131.027 121.071 131.166 121.133 131.287C121.195 131.408 121.283 131.503 121.397 131.573C121.51 131.639 121.64 131.672 121.787 131.672ZM124.884 132.243C124.62 132.243 124.382 132.184 124.17 132.067C123.961 131.946 123.795 131.781 123.67 131.573C123.55 131.364 123.489 131.13 123.489 130.87C123.489 130.61 123.55 130.378 123.67 130.173C123.791 129.964 123.954 129.799 124.159 129.678C124.368 129.558 124.598 129.497 124.851 129.497C125.096 129.497 125.312 129.554 125.499 129.667C125.689 129.781 125.837 129.937 125.943 130.134C126.053 130.332 126.108 130.557 126.108 130.81C126.108 130.853 126.105 130.899 126.097 130.947C126.094 130.991 126.086 131.04 126.075 131.095H123.912V130.601H125.762L125.537 130.799C125.53 130.638 125.499 130.502 125.444 130.392C125.389 130.282 125.31 130.198 125.208 130.14C125.109 130.081 124.986 130.052 124.84 130.052C124.686 130.052 124.553 130.085 124.439 130.151C124.326 130.217 124.238 130.31 124.175 130.431C124.113 130.548 124.082 130.689 124.082 130.853C124.082 131.018 124.115 131.163 124.181 131.287C124.247 131.412 124.34 131.509 124.461 131.578C124.582 131.644 124.721 131.677 124.878 131.677C125.014 131.677 125.138 131.653 125.252 131.606C125.369 131.558 125.468 131.489 125.548 131.397L125.933 131.787C125.804 131.937 125.649 132.05 125.466 132.127C125.283 132.204 125.089 132.243 124.884 132.243ZM126.592 132.188V128.234H127.196V132.188H126.592Z" fill="#6061EE"/>
<path d="M132.733 132.007L134.042 128.369H134.437L133.133 132.007H132.733Z" fill="#3F4350"/>
<path d="M139.56 132.188V128.344H140.192V132.188H139.56ZM139.994 132.188V131.611H142.004V132.188H139.994ZM143.509 132.243C143.271 132.243 143.055 132.182 142.861 132.061C142.671 131.941 142.519 131.778 142.406 131.573C142.296 131.364 142.241 131.132 142.241 130.875C142.241 130.616 142.296 130.383 142.406 130.178C142.519 129.969 142.671 129.805 142.861 129.684C143.055 129.56 143.271 129.497 143.509 129.497C143.711 129.497 143.888 129.541 144.042 129.629C144.199 129.713 144.324 129.83 144.415 129.98C144.507 130.131 144.553 130.301 144.553 130.491V131.249C144.553 131.439 144.507 131.609 144.415 131.759C144.327 131.91 144.205 132.029 144.047 132.116C143.89 132.201 143.711 132.243 143.509 132.243ZM143.608 131.672C143.831 131.672 144.011 131.597 144.146 131.446C144.285 131.296 144.355 131.104 144.355 130.87C144.355 130.713 144.324 130.573 144.262 130.453C144.199 130.332 144.111 130.239 143.998 130.173C143.888 130.103 143.758 130.068 143.608 130.068C143.462 130.068 143.332 130.103 143.218 130.173C143.108 130.239 143.021 130.332 142.955 130.453C142.893 130.573 142.861 130.713 142.861 130.87C142.861 131.027 142.893 131.166 142.955 131.287C143.021 131.408 143.108 131.503 143.218 131.573C143.332 131.639 143.462 131.672 143.608 131.672ZM144.316 132.188V131.479L144.421 130.837L144.316 130.2V129.552H144.92V132.188H144.316ZM147.002 132.243C146.801 132.243 146.621 132.201 146.464 132.116C146.306 132.029 146.182 131.91 146.09 131.759C146.003 131.609 145.959 131.439 145.959 131.249V130.491C145.959 130.301 146.004 130.131 146.096 129.98C146.187 129.83 146.312 129.713 146.469 129.629C146.627 129.541 146.804 129.497 147.002 129.497C147.24 129.497 147.454 129.56 147.644 129.684C147.838 129.805 147.99 129.969 148.1 130.178C148.213 130.383 148.27 130.616 148.27 130.875C148.27 131.132 148.213 131.364 148.1 131.573C147.99 131.778 147.838 131.941 147.644 132.061C147.454 132.182 147.24 132.243 147.002 132.243ZM145.591 132.188V128.234H146.195V130.2L146.09 130.837L146.195 131.479V132.188H145.591ZM146.903 131.672C147.049 131.672 147.178 131.639 147.287 131.573C147.401 131.503 147.489 131.408 147.551 131.287C147.617 131.166 147.65 131.027 147.65 130.87C147.65 130.713 147.617 130.573 147.551 130.453C147.489 130.332 147.401 130.239 147.287 130.173C147.178 130.103 147.049 130.068 146.903 130.068C146.757 130.068 146.627 130.103 146.513 130.173C146.4 130.239 146.312 130.332 146.25 130.453C146.187 130.573 146.156 130.713 146.156 130.87C146.156 131.027 146.187 131.166 146.25 131.287C146.312 131.408 146.4 131.503 146.513 131.573C146.627 131.639 146.757 131.672 146.903 131.672ZM150 132.243C149.737 132.243 149.499 132.184 149.286 132.067C149.078 131.946 148.911 131.781 148.787 131.573C148.666 131.364 148.606 131.13 148.606 130.87C148.606 130.61 148.666 130.378 148.787 130.173C148.908 129.964 149.07 129.799 149.275 129.678C149.484 129.558 149.715 129.497 149.967 129.497C150.213 129.497 150.429 129.554 150.615 129.667C150.806 129.781 150.954 129.937 151.06 130.134C151.17 130.332 151.225 130.557 151.225 130.81C151.225 130.853 151.221 130.899 151.214 130.947C151.21 130.991 151.203 131.04 151.192 131.095H149.028V130.601H150.879L150.654 130.799C150.646 130.638 150.615 130.502 150.56 130.392C150.505 130.282 150.427 130.198 150.324 130.14C150.225 130.081 150.103 130.052 149.956 130.052C149.803 130.052 149.669 130.085 149.555 130.151C149.442 130.217 149.354 130.31 149.292 130.431C149.23 130.548 149.199 130.689 149.199 130.853C149.199 131.018 149.232 131.163 149.297 131.287C149.363 131.412 149.457 131.509 149.577 131.578C149.698 131.644 149.837 131.677 149.995 131.677C150.13 131.677 150.255 131.653 150.368 131.606C150.485 131.558 150.584 131.489 150.665 131.397L151.049 131.787C150.921 131.937 150.765 132.05 150.582 132.127C150.399 132.204 150.205 132.243 150 132.243ZM151.709 132.188V128.234H152.313V132.188H151.709Z" fill="#6061EE"/>
<path d="M157.85 132.007L159.158 128.369H159.553L158.25 132.007H157.85Z" fill="#3F4350"/>
<path d="M164.71 132.188V128.377H165.226V132.188H164.71ZM165.061 132.188V131.716H167.104V132.188H165.061ZM168.648 132.243C168.41 132.243 168.194 132.184 168 132.067C167.806 131.946 167.652 131.783 167.539 131.578C167.429 131.373 167.374 131.143 167.374 130.886C167.374 130.63 167.429 130.4 167.539 130.195C167.652 129.99 167.804 129.827 167.995 129.706C168.189 129.585 168.406 129.525 168.648 129.525C168.846 129.525 169.021 129.567 169.175 129.651C169.333 129.732 169.459 129.845 169.554 129.991C169.649 130.134 169.702 130.301 169.713 130.491V131.276C169.702 131.463 169.649 131.63 169.554 131.776C169.462 131.922 169.338 132.038 169.181 132.122C169.027 132.202 168.849 132.243 168.648 132.243ZM168.73 131.776C168.976 131.776 169.173 131.694 169.323 131.529C169.473 131.36 169.548 131.146 169.548 130.886C169.548 130.707 169.514 130.552 169.444 130.42C169.378 130.284 169.283 130.18 169.159 130.107C169.034 130.03 168.89 129.991 168.725 129.991C168.56 129.991 168.414 130.03 168.286 130.107C168.161 130.184 168.062 130.29 167.989 130.425C167.92 130.557 167.885 130.709 167.885 130.881C167.885 131.057 167.92 131.212 167.989 131.348C168.062 131.479 168.163 131.584 168.291 131.661C168.419 131.738 168.566 131.776 168.73 131.776ZM169.516 132.188V131.485L169.609 130.848L169.516 130.217V129.58H170.015V132.188H169.516ZM172.107 132.243C171.91 132.243 171.73 132.202 171.569 132.122C171.412 132.038 171.286 131.922 171.19 131.776C171.095 131.63 171.042 131.463 171.031 131.276V130.491C171.042 130.301 171.095 130.134 171.19 129.991C171.289 129.845 171.417 129.732 171.575 129.651C171.736 129.567 171.913 129.525 172.107 129.525C172.345 129.525 172.559 129.585 172.75 129.706C172.944 129.827 173.096 129.99 173.205 130.195C173.315 130.4 173.37 130.63 173.37 130.886C173.37 131.143 173.315 131.373 173.205 131.578C173.096 131.783 172.944 131.946 172.75 132.067C172.559 132.184 172.345 132.243 172.107 132.243ZM170.735 132.188V128.267H171.229V130.217L171.135 130.848L171.229 131.485V132.188H170.735ZM172.025 131.776C172.19 131.776 172.334 131.738 172.459 131.661C172.583 131.584 172.682 131.479 172.755 131.348C172.828 131.212 172.865 131.057 172.865 130.881C172.865 130.709 172.828 130.555 172.755 130.42C172.682 130.284 172.583 130.18 172.459 130.107C172.334 130.03 172.192 129.991 172.03 129.991C171.866 129.991 171.721 130.03 171.597 130.107C171.472 130.18 171.375 130.284 171.306 130.42C171.236 130.555 171.201 130.711 171.201 130.886C171.201 131.058 171.234 131.212 171.3 131.348C171.37 131.479 171.467 131.584 171.591 131.661C171.719 131.738 171.864 131.776 172.025 131.776ZM175.138 132.243C174.879 132.243 174.644 132.184 174.436 132.067C174.227 131.946 174.062 131.783 173.941 131.578C173.821 131.373 173.76 131.141 173.76 130.881C173.76 130.625 173.819 130.394 173.936 130.189C174.057 129.984 174.218 129.823 174.419 129.706C174.624 129.585 174.853 129.525 175.105 129.525C175.347 129.525 175.559 129.58 175.742 129.689C175.929 129.799 176.074 129.951 176.176 130.145C176.282 130.339 176.335 130.559 176.335 130.804C176.335 130.841 176.334 130.881 176.33 130.925C176.326 130.965 176.319 131.013 176.308 131.068H174.106V130.656H176.044L175.863 130.815C175.863 130.639 175.832 130.491 175.77 130.37C175.708 130.246 175.62 130.151 175.506 130.085C175.393 130.015 175.256 129.98 175.094 129.98C174.926 129.98 174.778 130.017 174.65 130.09C174.522 130.163 174.423 130.266 174.353 130.398C174.284 130.53 174.249 130.685 174.249 130.864C174.249 131.048 174.286 131.209 174.359 131.348C174.432 131.483 174.536 131.589 174.672 131.666C174.807 131.739 174.963 131.776 175.138 131.776C175.285 131.776 175.418 131.75 175.539 131.699C175.664 131.648 175.77 131.571 175.858 131.468L176.176 131.792C176.052 131.939 175.898 132.05 175.715 132.127C175.536 132.204 175.343 132.243 175.138 132.243ZM176.874 132.188V128.267H177.368V132.188H176.874Z" fill="#A6AAB3"/>
<path d="M557.128 133.405L555.382 131.659C555.905 130.976 556.15 130.121 556.066 129.265C555.981 128.409 555.575 127.617 554.928 127.05C554.281 126.483 553.443 126.183 552.584 126.211C551.724 126.239 550.908 126.593 550.3 127.202C549.692 127.81 549.338 128.626 549.309 129.486C549.281 130.345 549.581 131.183 550.148 131.83C550.715 132.476 551.507 132.883 552.363 132.967C553.219 133.052 554.075 132.807 554.757 132.284L556.504 134.032C556.545 134.073 556.594 134.105 556.648 134.127C556.701 134.15 556.759 134.161 556.817 134.161C556.875 134.161 556.932 134.15 556.986 134.127C557.04 134.105 557.088 134.073 557.129 134.032C557.17 133.991 557.203 133.942 557.225 133.888C557.247 133.835 557.259 133.777 557.259 133.719C557.259 133.661 557.247 133.604 557.225 133.55C557.203 133.496 557.17 133.448 557.129 133.407L557.128 133.405ZM550.197 129.6C550.197 129.105 550.344 128.622 550.619 128.211C550.894 127.799 551.284 127.479 551.741 127.29C552.198 127.1 552.7 127.051 553.185 127.147C553.67 127.244 554.116 127.482 554.466 127.832C554.815 128.181 555.053 128.627 555.15 129.112C555.246 129.597 555.197 130.1 555.008 130.556C554.818 131.013 554.498 131.404 554.087 131.678C553.676 131.953 553.192 132.1 552.698 132.1C552.035 132.099 551.399 131.836 550.931 131.367C550.462 130.898 550.198 130.262 550.197 129.6Z" fill="#F1F2F4"/>
<path d="M575.689 131.583C575.369 131.034 575.2 130.246 575.2 129.305C575.2 128.486 574.875 127.701 574.295 127.122C573.716 126.542 572.931 126.217 572.111 126.217C571.292 126.217 570.507 126.542 569.927 127.122C569.348 127.701 569.023 128.486 569.023 129.305C569.023 130.246 568.854 131.034 568.535 131.583C568.47 131.694 568.435 131.822 568.435 131.951C568.434 132.081 568.468 132.208 568.532 132.32C568.596 132.433 568.689 132.526 568.801 132.591C568.913 132.656 569.041 132.689 569.17 132.688H570.5C570.537 133.09 570.722 133.464 571.02 133.736C571.318 134.009 571.708 134.16 572.111 134.16C572.515 134.16 572.904 134.009 573.202 133.736C573.501 133.464 573.686 133.09 573.723 132.688H575.053C575.182 132.689 575.309 132.655 575.421 132.591C575.533 132.526 575.625 132.433 575.689 132.32C575.754 132.208 575.788 132.081 575.788 131.951C575.788 131.822 575.753 131.695 575.689 131.583ZM572.111 133.276C571.942 133.276 571.778 133.218 571.646 133.111C571.515 133.004 571.425 132.854 571.391 132.688H572.832C572.798 132.854 572.708 133.004 572.577 133.111C572.445 133.218 572.281 133.276 572.111 133.276ZM569.415 131.806C569.74 131.144 569.905 130.303 569.905 129.305C569.905 128.72 570.138 128.159 570.551 127.746C570.965 127.332 571.526 127.099 572.111 127.099C572.696 127.099 573.258 127.332 573.671 127.746C574.085 128.159 574.317 128.72 574.317 129.305C574.317 130.303 574.482 131.144 574.808 131.806H569.415Z" fill="#F1F2F4"/>
<path fill-rule="evenodd" clip-rule="evenodd" d="M590.937 126.266C588.771 126.266 587.015 128.022 587.015 130.188C587.015 131.173 587.378 132.073 587.977 132.762C588.26 132.364 588.62 132.025 589.039 131.768C589.199 131.67 589.366 131.585 589.538 131.513C589.055 131.111 588.747 130.506 588.747 129.828C588.747 128.619 589.727 127.639 590.937 127.639C592.146 127.639 593.127 128.619 593.127 129.828C593.127 130.506 592.819 131.111 592.336 131.513C592.508 131.585 592.675 131.67 592.835 131.768C593.253 132.025 593.614 132.364 593.896 132.762C594.496 132.073 594.859 131.173 594.859 130.188C594.859 128.022 593.103 126.266 590.937 126.266ZM593.317 133.305C593.088 132.954 592.784 132.657 592.424 132.437C591.995 132.173 591.503 132.028 591.001 132.017C590.979 132.018 590.958 132.018 590.937 132.018C590.916 132.018 590.894 132.018 590.873 132.017C590.37 132.028 589.879 132.173 589.449 132.437C589.09 132.657 588.785 132.954 588.556 133.305C589.216 133.81 590.042 134.11 590.937 134.11C591.832 134.11 592.657 133.81 593.317 133.305ZM590.995 131.232C591.744 131.202 592.342 130.585 592.342 129.828C592.342 129.052 591.713 128.423 590.937 128.423C590.161 128.423 589.531 129.052 589.531 129.828C589.531 130.585 590.13 131.202 590.879 131.232C590.898 131.232 590.918 131.232 590.937 131.232C590.956 131.232 590.975 131.232 590.995 131.232ZM586.23 130.188C586.23 127.589 588.338 125.481 590.937 125.481C593.536 125.481 595.643 127.589 595.643 130.188C595.643 132.787 593.536 134.894 590.937 134.894C588.338 134.894 586.23 132.787 586.23 130.188Z" fill="#A6AAB3"/>
<path d="M113.249 167.152V165.62H115.156C115.399 165.62 115.621 165.57 115.821 165.47C116.022 165.369 116.181 165.223 116.298 165.031C116.415 164.838 116.474 164.604 116.474 164.328C116.474 164.06 116.415 163.83 116.298 163.637C116.181 163.445 116.022 163.299 115.821 163.198C115.621 163.098 115.399 163.048 115.156 163.048H113.249V161.516H115.445C116.005 161.516 116.512 161.629 116.963 161.855C117.415 162.081 117.771 162.408 118.03 162.834C118.298 163.253 118.432 163.75 118.432 164.328C118.432 164.905 118.298 165.407 118.03 165.834C117.771 166.252 117.415 166.578 116.963 166.813C116.512 167.039 116.005 167.152 115.445 167.152H113.249ZM111.743 170.377V161.516H113.713V170.377H111.743ZM121.738 170.502C121.177 170.502 120.675 170.364 120.232 170.088C119.797 169.812 119.45 169.436 119.19 168.959C118.939 168.482 118.814 167.938 118.814 167.327C118.814 166.716 118.939 166.173 119.19 165.696C119.45 165.219 119.797 164.842 120.232 164.566C120.675 164.29 121.177 164.152 121.738 164.152C122.148 164.152 122.516 164.232 122.842 164.39C123.177 164.549 123.449 164.771 123.658 165.056C123.867 165.332 123.984 165.65 124.009 166.009V168.645C123.984 169.005 123.867 169.327 123.658 169.611C123.457 169.887 123.19 170.105 122.855 170.264C122.52 170.423 122.148 170.502 121.738 170.502ZM122.127 168.771C122.537 168.771 122.867 168.637 123.118 168.369C123.369 168.093 123.495 167.746 123.495 167.327C123.495 167.043 123.436 166.792 123.319 166.574C123.21 166.357 123.051 166.189 122.842 166.072C122.642 165.947 122.407 165.884 122.139 165.884C121.872 165.884 121.633 165.947 121.424 166.072C121.223 166.189 121.06 166.357 120.935 166.574C120.818 166.792 120.759 167.043 120.759 167.327C120.759 167.603 120.818 167.85 120.935 168.068C121.052 168.285 121.215 168.457 121.424 168.582C121.633 168.708 121.868 168.771 122.127 168.771ZM123.42 170.377V168.733L123.708 167.252L123.42 165.771V164.278H125.302V170.377H123.42ZM129.24 173.113C128.57 173.113 127.98 172.996 127.47 172.762C126.968 172.536 126.57 172.213 126.278 171.795L127.457 170.615C127.675 170.875 127.918 171.071 128.185 171.205C128.461 171.339 128.792 171.406 129.177 171.406C129.654 171.406 130.026 171.289 130.294 171.055C130.57 170.82 130.708 170.49 130.708 170.063V168.507L131.034 167.177L130.746 165.846V164.278H132.628V170.013C132.628 170.641 132.482 171.184 132.189 171.645C131.896 172.105 131.494 172.464 130.984 172.724C130.474 172.983 129.892 173.113 129.24 173.113ZM129.152 170.189C128.591 170.189 128.093 170.055 127.658 169.787C127.223 169.519 126.88 169.155 126.629 168.695C126.378 168.235 126.253 167.725 126.253 167.164C126.253 166.595 126.378 166.085 126.629 165.633C126.88 165.173 127.223 164.813 127.658 164.554C128.093 164.286 128.591 164.152 129.152 164.152C129.57 164.152 129.942 164.232 130.269 164.39C130.603 164.541 130.871 164.759 131.072 165.043C131.281 165.319 131.398 165.641 131.423 166.009V168.331C131.398 168.691 131.281 169.013 131.072 169.298C130.871 169.574 130.603 169.791 130.269 169.95C129.934 170.109 129.562 170.189 129.152 170.189ZM129.516 168.482C129.783 168.482 130.013 168.423 130.206 168.306C130.407 168.189 130.557 168.034 130.658 167.842C130.766 167.641 130.821 167.415 130.821 167.164C130.821 166.913 130.766 166.687 130.658 166.486C130.557 166.286 130.407 166.127 130.206 166.009C130.013 165.892 129.783 165.834 129.516 165.834C129.256 165.834 129.026 165.892 128.825 166.009C128.625 166.127 128.47 166.286 128.361 166.486C128.252 166.687 128.198 166.913 128.198 167.164C128.198 167.398 128.252 167.62 128.361 167.829C128.47 168.03 128.62 168.189 128.813 168.306C129.014 168.423 129.248 168.482 129.516 168.482ZM136.995 170.515C136.334 170.515 135.745 170.381 135.226 170.113C134.715 169.837 134.314 169.457 134.021 168.971C133.728 168.486 133.582 167.938 133.582 167.327C133.582 166.716 133.724 166.173 134.008 165.696C134.301 165.21 134.694 164.83 135.188 164.554C135.682 164.278 136.238 164.139 136.857 164.139C137.46 164.139 137.991 164.269 138.451 164.529C138.911 164.788 139.271 165.148 139.531 165.608C139.798 166.068 139.932 166.595 139.932 167.189C139.932 167.298 139.924 167.415 139.907 167.541C139.899 167.658 139.878 167.796 139.844 167.955L134.586 167.967V166.65L139.029 166.637L138.2 167.189C138.192 166.838 138.137 166.549 138.037 166.323C137.937 166.089 137.786 165.913 137.585 165.796C137.393 165.671 137.154 165.608 136.87 165.608C136.569 165.608 136.305 165.679 136.079 165.821C135.862 165.955 135.69 166.148 135.565 166.399C135.448 166.65 135.389 166.955 135.389 167.315C135.389 167.674 135.452 167.984 135.577 168.243C135.711 168.494 135.895 168.691 136.129 168.833C136.372 168.967 136.657 169.034 136.983 169.034C137.284 169.034 137.556 168.984 137.799 168.883C138.041 168.775 138.255 168.616 138.439 168.407L139.493 169.461C139.192 169.812 138.828 170.076 138.401 170.251C137.974 170.427 137.506 170.515 136.995 170.515ZM144.115 170.377V161.755H146.035V170.377H144.115ZM142.734 165.909V164.278H147.416V165.909H142.734ZM148.262 170.377V164.278H150.182V170.377H148.262ZM149.228 163.437C148.927 163.437 148.676 163.336 148.475 163.135C148.283 162.926 148.186 162.675 148.186 162.382C148.186 162.081 148.283 161.83 148.475 161.629C148.676 161.429 148.927 161.328 149.228 161.328C149.529 161.328 149.776 161.429 149.969 161.629C150.161 161.83 150.257 162.081 150.257 162.382C150.257 162.675 150.161 162.926 149.969 163.135C149.776 163.336 149.529 163.437 149.228 163.437ZM152.4 170.377V161.755H154.32V170.377H152.4ZM151.02 165.909V164.278H155.701V165.909H151.02ZM156.547 170.377V161.265H158.467V170.377H156.547ZM162.831 170.515C162.17 170.515 161.58 170.381 161.062 170.113C160.551 169.837 160.15 169.457 159.857 168.971C159.564 168.486 159.418 167.938 159.418 167.327C159.418 166.716 159.56 166.173 159.844 165.696C160.137 165.21 160.53 164.83 161.024 164.554C161.518 164.278 162.074 164.139 162.693 164.139C163.296 164.139 163.827 164.269 164.287 164.529C164.747 164.788 165.107 165.148 165.366 165.608C165.634 166.068 165.768 166.595 165.768 167.189C165.768 167.298 165.76 167.415 165.743 167.541C165.735 167.658 165.714 167.796 165.68 167.955L160.422 167.967V166.65L164.864 166.637L164.036 167.189C164.028 166.838 163.973 166.549 163.873 166.323C163.773 166.089 163.622 165.913 163.421 165.796C163.229 165.671 162.99 165.608 162.706 165.608C162.405 165.608 162.141 165.679 161.915 165.821C161.698 165.955 161.526 166.148 161.401 166.399C161.283 166.65 161.225 166.955 161.225 167.315C161.225 167.674 161.288 167.984 161.413 168.243C161.547 168.494 161.731 168.691 161.965 168.833C162.208 168.967 162.492 169.034 162.819 169.034C163.12 169.034 163.392 168.984 163.634 168.883C163.877 168.775 164.09 168.616 164.275 168.407L165.329 169.461C165.028 169.812 164.664 170.076 164.237 170.251C163.81 170.427 163.342 170.515 162.831 170.515Z" fill="#F1F2F4"/>
<path d="M111 188.775C111 185.309 113.809 182.5 117.275 182.5H362.725C366.191 182.5 369 185.309 369 188.775V305.5H111V188.775Z" fill="#15161A"/>
<path d="M382 188.775C382 185.309 384.809 182.5 388.275 182.5H593.725C597.191 182.5 600 185.309 600 188.775V305.5H382V188.775Z" fill="#15161A"/>
</g>
<defs>
<filter id="filter0_d_5212_36605" x="13" y="92" width="657" height="256" filterUnits="userSpaceOnUse" color-interpolation-filters="sRGB">
<feFlood flood-opacity="0" result="BackgroundImageFix"/>
<feColorMatrix in="SourceAlpha" type="matrix" values="0 0 0 0 0 0 0 0 0 0 0 0 0 0 0 0 0 0 127 0" result="hardAlpha"/>
<feMorphology radius="16" operator="erode" in="SourceAlpha" result="effect1_dropShadow_5212_36605"/>
<feOffset dy="10"/>
<feGaussianBlur stdDeviation="24"/>
<feColorMatrix type="matrix" values="0 0 0 0 0 0 0 0 0 0 0 0 0 0 0 0 0 0 0.12 0"/>
<feBlend mode="normal" in2="BackgroundImageFix" result="effect1_dropShadow_5212_36605"/>
<feBlend mode="normal" in="SourceGraphic" in2="effect1_dropShadow_5212_36605" result="shape"/>
</filter>
</defs>
</svg>
