<svg width="242" height="93" viewBox="0 0 242 93" fill="none" xmlns="http://www.w3.org/2000/svg">
<path d="M41.064 52V42.2H42.674V52H41.064ZM42.17 52V50.53H47.294V52H42.17ZM51.1328 52.14C50.5262 52.14 49.9755 51.986 49.4808 51.678C48.9955 51.37 48.6082 50.9547 48.3188 50.432C48.0388 49.9 47.8988 49.3073 47.8988 48.654C47.8988 47.9913 48.0388 47.3987 48.3188 46.876C48.6082 46.344 48.9955 45.924 49.4808 45.616C49.9755 45.2987 50.5262 45.14 51.1328 45.14C51.6462 45.14 52.0988 45.252 52.4908 45.476C52.8922 45.6907 53.2095 45.9893 53.4428 46.372C53.6762 46.7547 53.7928 47.1887 53.7928 47.674V49.606C53.7928 50.0913 53.6762 50.5253 53.4428 50.908C53.2188 51.2907 52.9062 51.594 52.5048 51.818C52.1035 52.0327 51.6462 52.14 51.1328 52.14ZM51.3848 50.684C51.9542 50.684 52.4115 50.4927 52.7568 50.11C53.1115 49.7273 53.2888 49.2373 53.2888 48.64C53.2888 48.2387 53.2095 47.884 53.0508 47.576C52.8922 47.268 52.6682 47.03 52.3788 46.862C52.0988 46.6847 51.7675 46.596 51.3848 46.596C51.0115 46.596 50.6802 46.6847 50.3908 46.862C50.1108 47.03 49.8868 47.268 49.7188 47.576C49.5602 47.884 49.4808 48.2387 49.4808 48.64C49.4808 49.0413 49.5602 49.396 49.7188 49.704C49.8868 50.012 50.1108 50.2547 50.3908 50.432C50.6802 50.6 51.0115 50.684 51.3848 50.684ZM53.1908 52V50.194L53.4568 48.556L53.1908 46.932V45.28H54.7308V52H53.1908ZM60.0379 52.14C59.5246 52.14 59.0673 52.0327 58.6659 51.818C58.2646 51.594 57.9473 51.2907 57.7139 50.908C57.4899 50.5253 57.3779 50.0913 57.3779 49.606V47.674C57.3779 47.1887 57.4946 46.7547 57.7279 46.372C57.9613 45.9893 58.2786 45.6907 58.6799 45.476C59.0813 45.252 59.5339 45.14 60.0379 45.14C60.6446 45.14 61.1906 45.2987 61.6759 45.616C62.1706 45.924 62.5579 46.344 62.8379 46.876C63.1273 47.3987 63.2719 47.9913 63.2719 48.654C63.2719 49.3073 63.1273 49.9 62.8379 50.432C62.5579 50.9547 62.1706 51.37 61.6759 51.678C61.1906 51.986 60.6446 52.14 60.0379 52.14ZM56.4399 52V41.92H57.9799V46.932L57.7139 48.556L57.9799 50.194V52H56.4399ZM59.7859 50.684C60.1593 50.684 60.4859 50.6 60.7659 50.432C61.0553 50.2547 61.2793 50.012 61.4379 49.704C61.6059 49.396 61.6899 49.0413 61.6899 48.64C61.6899 48.2387 61.6059 47.884 61.4379 47.576C61.2793 47.268 61.0553 47.03 60.7659 46.862C60.4859 46.6847 60.1593 46.596 59.7859 46.596C59.4126 46.596 59.0813 46.6847 58.7919 46.862C58.5026 47.03 58.2786 47.268 58.1199 47.576C57.9613 47.884 57.8819 48.2387 57.8819 48.64C57.8819 49.0413 57.9613 49.396 58.1199 49.704C58.2786 50.012 58.5026 50.2547 58.7919 50.432C59.0813 50.6 59.4126 50.684 59.7859 50.684ZM67.683 52.14C67.011 52.14 66.4044 51.9907 65.863 51.692C65.331 51.384 64.9064 50.964 64.589 50.432C64.281 49.9 64.127 49.3027 64.127 48.64C64.127 47.9773 64.281 47.3847 64.589 46.862C64.897 46.33 65.3124 45.91 65.835 45.602C66.367 45.294 66.955 45.14 67.599 45.14C68.2244 45.14 68.775 45.2847 69.251 45.574C69.7364 45.8633 70.1144 46.26 70.385 46.764C70.665 47.268 70.805 47.842 70.805 48.486C70.805 48.598 70.7957 48.7147 70.777 48.836C70.7677 48.948 70.749 49.074 70.721 49.214H65.205V47.954H69.923L69.349 48.458C69.3304 48.0473 69.251 47.702 69.111 47.422C68.971 47.142 68.7704 46.9273 68.509 46.778C68.257 46.6287 67.9444 46.554 67.571 46.554C67.179 46.554 66.8384 46.638 66.549 46.806C66.2597 46.974 66.0357 47.212 65.877 47.52C65.7184 47.8187 65.639 48.178 65.639 48.598C65.639 49.018 65.723 49.3867 65.891 49.704C66.059 50.0213 66.297 50.2687 66.605 50.446C66.913 50.614 67.2677 50.698 67.669 50.698C68.0144 50.698 68.3317 50.6373 68.621 50.516C68.9197 50.3947 69.1717 50.2173 69.377 49.984L70.357 50.978C70.0304 51.3607 69.6337 51.65 69.167 51.846C68.7004 52.042 68.2057 52.14 67.683 52.14ZM72.0395 52V41.92H73.5795V52H72.0395Z" fill="#6061EE"/>
<path d="M87 51.138L90.336 41.862H91.344L88.02 51.138H87Z" fill="#3F4350"/>
<path d="M104.408 52V42.2H106.018V52H104.408ZM105.514 52V50.53H110.638V52H105.514ZM114.477 52.14C113.87 52.14 113.32 51.986 112.825 51.678C112.34 51.37 111.952 50.9547 111.663 50.432C111.383 49.9 111.243 49.3073 111.243 48.654C111.243 47.9913 111.383 47.3987 111.663 46.876C111.952 46.344 112.34 45.924 112.825 45.616C113.32 45.2987 113.87 45.14 114.477 45.14C114.99 45.14 115.443 45.252 115.835 45.476C116.236 45.6907 116.554 45.9893 116.787 46.372C117.02 46.7547 117.137 47.1887 117.137 47.674V49.606C117.137 50.0913 117.02 50.5253 116.787 50.908C116.563 51.2907 116.25 51.594 115.849 51.818C115.448 52.0327 114.99 52.14 114.477 52.14ZM114.729 50.684C115.298 50.684 115.756 50.4927 116.101 50.11C116.456 49.7273 116.633 49.2373 116.633 48.64C116.633 48.2387 116.554 47.884 116.395 47.576C116.236 47.268 116.012 47.03 115.723 46.862C115.443 46.6847 115.112 46.596 114.729 46.596C114.356 46.596 114.024 46.6847 113.735 46.862C113.455 47.03 113.231 47.268 113.063 47.576C112.904 47.884 112.825 48.2387 112.825 48.64C112.825 49.0413 112.904 49.396 113.063 49.704C113.231 50.012 113.455 50.2547 113.735 50.432C114.024 50.6 114.356 50.684 114.729 50.684ZM116.535 52V50.194L116.801 48.556L116.535 46.932V45.28H118.075V52H116.535ZM123.382 52.14C122.869 52.14 122.412 52.0327 122.01 51.818C121.609 51.594 121.292 51.2907 121.058 50.908C120.834 50.5253 120.722 50.0913 120.722 49.606V47.674C120.722 47.1887 120.839 46.7547 121.072 46.372C121.306 45.9893 121.623 45.6907 122.024 45.476C122.426 45.252 122.878 45.14 123.382 45.14C123.989 45.14 124.535 45.2987 125.02 45.616C125.515 45.924 125.902 46.344 126.182 46.876C126.472 47.3987 126.616 47.9913 126.616 48.654C126.616 49.3073 126.472 49.9 126.182 50.432C125.902 50.9547 125.515 51.37 125.02 51.678C124.535 51.986 123.989 52.14 123.382 52.14ZM119.784 52V41.92H121.324V46.932L121.058 48.556L121.324 50.194V52H119.784ZM123.13 50.684C123.504 50.684 123.83 50.6 124.11 50.432C124.4 50.2547 124.624 50.012 124.782 49.704C124.95 49.396 125.034 49.0413 125.034 48.64C125.034 48.2387 124.95 47.884 124.782 47.576C124.624 47.268 124.4 47.03 124.11 46.862C123.83 46.6847 123.504 46.596 123.13 46.596C122.757 46.596 122.426 46.6847 122.136 46.862C121.847 47.03 121.623 47.268 121.464 47.576C121.306 47.884 121.226 48.2387 121.226 48.64C121.226 49.0413 121.306 49.396 121.464 49.704C121.623 50.012 121.847 50.2547 122.136 50.432C122.426 50.6 122.757 50.684 123.13 50.684ZM131.027 52.14C130.355 52.14 129.749 51.9907 129.207 51.692C128.675 51.384 128.251 50.964 127.933 50.432C127.625 49.9 127.471 49.3027 127.471 48.64C127.471 47.9773 127.625 47.3847 127.933 46.862C128.241 46.33 128.657 45.91 129.179 45.602C129.711 45.294 130.299 45.14 130.943 45.14C131.569 45.14 132.119 45.2847 132.595 45.574C133.081 45.8633 133.459 46.26 133.729 46.764C134.009 47.268 134.149 47.842 134.149 48.486C134.149 48.598 134.14 48.7147 134.121 48.836C134.112 48.948 134.093 49.074 134.065 49.214H128.549V47.954H133.267L132.693 48.458C132.675 48.0473 132.595 47.702 132.455 47.422C132.315 47.142 132.115 46.9273 131.853 46.778C131.601 46.6287 131.289 46.554 130.915 46.554C130.523 46.554 130.183 46.638 129.893 46.806C129.604 46.974 129.38 47.212 129.221 47.52C129.063 47.8187 128.983 48.178 128.983 48.598C128.983 49.018 129.067 49.3867 129.235 49.704C129.403 50.0213 129.641 50.2687 129.949 50.446C130.257 50.614 130.612 50.698 131.013 50.698C131.359 50.698 131.676 50.6373 131.965 50.516C132.264 50.3947 132.516 50.2173 132.721 49.984L133.701 50.978C133.375 51.3607 132.978 51.65 132.511 51.846C132.045 52.042 131.55 52.14 131.027 52.14ZM135.384 52V41.92H136.924V52H135.384Z" fill="#6061EE"/>
<path d="M150.344 51.138L153.68 41.862H154.688L151.364 51.138H150.344Z" fill="#3F4350"/>
<path d="M167.836 52V42.284H169.152V52H167.836ZM168.732 52V50.796H173.94V52H168.732ZM177.877 52.14C177.271 52.14 176.72 51.9907 176.225 51.692C175.731 51.384 175.339 50.9687 175.049 50.446C174.769 49.9233 174.629 49.3353 174.629 48.682C174.629 48.0287 174.769 47.4407 175.049 46.918C175.339 46.3953 175.726 45.98 176.211 45.672C176.706 45.364 177.261 45.21 177.877 45.21C178.381 45.21 178.829 45.3173 179.221 45.532C179.623 45.7373 179.945 46.0267 180.187 46.4C180.43 46.764 180.565 47.1887 180.593 47.674V49.676C180.565 50.152 180.43 50.5767 180.187 50.95C179.954 51.3233 179.637 51.6173 179.235 51.832C178.843 52.0373 178.391 52.14 177.877 52.14ZM178.087 50.95C178.713 50.95 179.217 50.74 179.599 50.32C179.982 49.8907 180.173 49.3447 180.173 48.682C180.173 48.2247 180.085 47.828 179.907 47.492C179.739 47.1467 179.497 46.8807 179.179 46.694C178.862 46.498 178.493 46.4 178.073 46.4C177.653 46.4 177.28 46.498 176.953 46.694C176.636 46.89 176.384 47.1607 176.197 47.506C176.02 47.842 175.931 48.2293 175.931 48.668C175.931 49.116 176.02 49.5127 176.197 49.858C176.384 50.194 176.641 50.46 176.967 50.656C177.294 50.852 177.667 50.95 178.087 50.95ZM180.089 52V50.208L180.327 48.584L180.089 46.974V45.35H181.363V52H180.089ZM186.698 52.14C186.194 52.14 185.737 52.0373 185.326 51.832C184.925 51.6173 184.603 51.3233 184.36 50.95C184.117 50.5767 183.982 50.152 183.954 49.676V47.674C183.982 47.1887 184.117 46.764 184.36 46.4C184.612 46.0267 184.939 45.7373 185.34 45.532C185.751 45.3173 186.203 45.21 186.698 45.21C187.305 45.21 187.851 45.364 188.336 45.672C188.831 45.98 189.218 46.3953 189.498 46.918C189.778 47.4407 189.918 48.0287 189.918 48.682C189.918 49.3353 189.778 49.9233 189.498 50.446C189.218 50.9687 188.831 51.384 188.336 51.692C187.851 51.9907 187.305 52.14 186.698 52.14ZM183.198 52V42.004H184.458V46.974L184.22 48.584L184.458 50.208V52H183.198ZM186.488 50.95C186.908 50.95 187.277 50.852 187.594 50.656C187.911 50.46 188.163 50.194 188.35 49.858C188.537 49.5127 188.63 49.116 188.63 48.668C188.63 48.2293 188.537 47.8373 188.35 47.492C188.163 47.1467 187.911 46.8807 187.594 46.694C187.277 46.498 186.913 46.4 186.502 46.4C186.082 46.4 185.713 46.498 185.396 46.694C185.079 46.8807 184.831 47.1467 184.654 47.492C184.477 47.8373 184.388 48.234 184.388 48.682C184.388 49.1207 184.472 49.5127 184.64 49.858C184.817 50.194 185.065 50.46 185.382 50.656C185.709 50.852 186.077 50.95 186.488 50.95ZM194.426 52.14C193.764 52.14 193.166 51.9907 192.634 51.692C192.102 51.384 191.682 50.9687 191.374 50.446C191.066 49.9233 190.912 49.3307 190.912 48.668C190.912 48.0147 191.062 47.4267 191.36 46.904C191.668 46.3813 192.079 45.9707 192.592 45.672C193.115 45.364 193.698 45.21 194.342 45.21C194.958 45.21 195.5 45.35 195.966 45.63C196.442 45.91 196.811 46.2973 197.072 46.792C197.343 47.2867 197.478 47.8467 197.478 48.472C197.478 48.5653 197.474 48.668 197.464 48.78C197.455 48.8827 197.436 49.004 197.408 49.144H191.794V48.094H196.736L196.274 48.5C196.274 48.052 196.195 47.674 196.036 47.366C195.878 47.0487 195.654 46.806 195.364 46.638C195.075 46.4607 194.725 46.372 194.314 46.372C193.885 46.372 193.507 46.4653 193.18 46.652C192.854 46.8387 192.602 47.1 192.424 47.436C192.247 47.772 192.158 48.1687 192.158 48.626C192.158 49.0927 192.252 49.5033 192.438 49.858C192.625 50.2033 192.891 50.474 193.236 50.67C193.582 50.8567 193.978 50.95 194.426 50.95C194.8 50.95 195.14 50.8847 195.448 50.754C195.766 50.6233 196.036 50.4273 196.26 50.166L197.072 50.992C196.755 51.3653 196.363 51.65 195.896 51.846C195.439 52.042 194.949 52.14 194.426 52.14ZM198.852 52V42.004H200.112V52H198.852Z" fill="#A6AAB3"/>
</svg>
