<svg xmlns="http://www.w3.org/2000/svg" fill="none" viewBox="0 0 774 201"><path fill="#000" fill-rule="evenodd" d="M52.937 20.982c.12-.526.183-1.074.183-1.636 0-4.057-3.297-7.346-7.364-7.346-4.068 0-7.365 3.289-7.365 7.346 0 4.056 3.297 7.345 7.365 7.345.596 0 1.175-.07 1.73-.204l2.638 2.412a24.6 24.6 0 0 0-5.531 15.576c0 2.401.343 4.723.983 6.918L17.833 62.48c-8.51 3.4-14.748 9.94-16.964 16.906-2.278 7.162-.17 14.532 7.428 18.567.755.4 1.52.792 2.293 1.173 7.966 3.928 17.218 2.911 25.1-1.138a37.404 37.404 0 0 0 8.683-6.195c1.093 6.427 3.102 12.277 5.846 17.09 4.209 7.386 10.798 13.3 19.18 13.3s14.972-5.914 19.18-13.3c2.668-4.68 4.642-10.341 5.754-16.56a37.342 37.342 0 0 0 8.116 5.665c7.881 4.049 17.133 5.066 25.099 1.138a85.346 85.346 0 0 0 2.293-1.173c7.598-4.035 9.707-11.405 7.428-18.567-2.215-6.967-8.454-13.506-16.964-16.906l-27.152-10.85a24.684 24.684 0 0 0 1.053-7.154c0-6.091-2.207-11.668-5.866-15.979l2.198-2.009a7.403 7.403 0 0 0 1.73.204c4.067 0 7.364-3.289 7.364-7.345 0-4.057-3.297-7.346-7.364-7.346-4.068 0-7.365 3.289-7.365 7.346 0 .562.064 1.11.184 1.636l-2.66 2.432a24.738 24.738 0 0 0-13.028-3.682c-4.972 0-9.603 1.46-13.485 3.972l-2.977-2.722Zm-9.154 52.44C44.2 69.32 44.98 65.4 46.08 61.766l-25.104 10.03c-4.953 1.98-8.155 5.603-9.216 8.94-1 3.14-.221 6.216 3.372 8.124.67.356 1.35.704 2.039 1.043 4.46 2.2 9.521 1.7 14.158-.682 4.741-2.436 8.99-6.857 11.087-12.27l1.367-3.53Zm25.616-34.746c5.464 0 10.167 2.513 13.945 6.308.006-.169.009-.339.009-.51 0-7.686-6.247-13.917-13.954-13.917-7.706 0-13.953 6.231-13.953 13.918 0 .17.003.34.009.51 3.778-3.796 8.48-6.31 13.944-6.31Zm23.409 23.39c1.244 4.193 2.063 8.761 2.395 13.543l.52 1.343c2.095 5.413 6.345 9.834 11.087 12.27 4.636 2.383 9.698 2.881 14.157.682.689-.339 1.368-.687 2.039-1.043 3.594-1.908 4.372-4.983 3.373-8.124-1.062-3.337-4.263-6.96-9.216-8.94l-24.355-9.73Zm-6.591 10.33a4.637 4.637 0 0 1-2.95 5.864c-5.026 1.663-9.293 2.572-13.759 2.555-4.44-.016-8.765-.948-13.885-2.526a4.637 4.637 0 0 1-3.07-5.802 4.653 4.653 0 0 1 5.816-3.063c4.733 1.458 8.054 2.101 11.174 2.113 3.095.011 6.305-.598 10.795-2.084a4.654 4.654 0 0 1 5.879 2.943Zm-2.294 21.65c.698 2.432-.442 5.057-2.548 5.864-4.34 1.663-8.025 2.571-11.882 2.555-3.835-.017-7.569-.948-11.99-2.526-2.12-.756-3.307-3.354-2.653-5.801.655-2.448 2.904-3.82 5.024-3.063 4.087 1.458 6.955 2.1 9.65 2.112 2.672.012 5.444-.597 9.322-2.083 2.105-.806 4.378.51 5.077 2.942Z" clip-rule="evenodd"/><path fill="#000" d="M176.133 179h-20.205v-65.474h21.101c6.351 0 11.786 1.311 16.304 3.932 4.518 2.6 7.982 6.341 10.39 11.222 2.409 4.859 3.613 10.678 3.613 17.455 0 6.82-1.215 12.692-3.645 17.615-2.429 4.902-5.967 8.675-10.614 11.318-4.646 2.621-10.294 3.932-16.944 3.932Zm-12.276-7.033h11.765c5.413 0 9.9-1.045 13.459-3.133 3.559-2.089 6.213-5.062 7.961-8.92 1.747-3.858 2.621-8.451 2.621-13.779 0-5.286-.863-9.836-2.589-13.651-1.727-3.836-4.306-6.778-7.737-8.824-3.432-2.067-7.705-3.101-12.82-3.101h-12.66v51.408Zm76.344 8.056c-4.732 0-8.813-1.044-12.245-3.133-3.41-2.11-6.042-5.051-7.896-8.824-1.833-3.793-2.75-8.205-2.75-13.235 0-5.03.917-9.463 2.75-13.3 1.854-3.857 4.433-6.862 7.736-9.015 3.325-2.174 7.204-3.261 11.637-3.261 2.558 0 5.084.426 7.577 1.279 2.494.852 4.764 2.238 6.81 4.156 2.046 1.897 3.676 4.412 4.891 7.545 1.215 3.133 1.822 6.991 1.822 11.573v3.197h-37.852v-6.522h30.18c0-2.771-.554-5.243-1.663-7.417-1.087-2.174-2.643-3.89-4.667-5.147-2.004-1.258-4.369-1.886-7.098-1.886-3.005 0-5.605.746-7.8 2.238a14.71 14.71 0 0 0-5.019 5.754c-1.173 2.366-1.759 4.902-1.759 7.609v4.348c0 3.708.64 6.852 1.918 9.431 1.301 2.557 3.101 4.508 5.403 5.85 2.302 1.322 4.977 1.982 8.025 1.982 1.982 0 3.772-.277 5.371-.831 1.619-.575 3.015-1.428 4.188-2.557 1.172-1.151 2.078-2.579 2.717-4.284l7.289 2.046a16.17 16.17 0 0 1-3.868 6.522c-1.812 1.854-4.05 3.303-6.714 4.347-2.664 1.024-5.658 1.535-8.983 1.535Zm66.593-39.131-6.778 1.918c-.426-1.129-1.055-2.227-1.886-3.293-.81-1.087-1.918-1.982-3.325-2.685-1.407-.703-3.208-1.055-5.403-1.055-3.005 0-5.509.693-7.513 2.078-1.982 1.364-2.973 3.101-2.973 5.211 0 1.876.682 3.357 2.046 4.444 1.364 1.087 3.495 1.993 6.394 2.717l7.289 1.791c4.391 1.065 7.662 2.696 9.815 4.891 2.152 2.174 3.229 4.977 3.229 8.408 0 2.813-.81 5.328-2.43 7.545-1.598 2.216-3.836 3.964-6.714 5.243-2.877 1.279-6.223 1.918-10.038 1.918-5.009 0-9.154-1.087-12.436-3.261-3.282-2.174-5.361-5.349-6.234-9.527l7.161-1.79c.682 2.643 1.971 4.625 3.868 5.946 1.918 1.322 4.423 1.982 7.513 1.982 3.517 0 6.309-.746 8.376-2.238 2.089-1.513 3.133-3.324 3.133-5.434 0-1.705-.597-3.133-1.79-4.284-1.194-1.173-3.027-2.046-5.499-2.622l-8.184-1.918c-4.497-1.066-7.801-2.717-9.911-4.955-2.088-2.26-3.133-5.084-3.133-8.472 0-2.771.778-5.222 2.334-7.353 1.577-2.132 3.719-3.805 6.426-5.02 2.728-1.214 5.818-1.822 9.271-1.822 4.86 0 8.675 1.066 11.445 3.197 2.792 2.131 4.774 4.945 5.947 8.44ZM319.046 179v-49.106h7.545V179h-7.545Zm3.836-57.29c-1.47 0-2.738-.501-3.804-1.502-1.044-1.002-1.567-2.206-1.567-3.613s.523-2.611 1.567-3.612c1.066-1.002 2.334-1.503 3.804-1.503 1.471 0 2.728.501 3.773 1.503 1.065 1.001 1.598 2.205 1.598 3.612s-.533 2.611-1.598 3.613c-1.045 1.001-2.302 1.502-3.773 1.502Zm37.349 76.728c-3.645 0-6.778-.469-9.399-1.407-2.622-.917-4.806-2.131-6.554-3.645-1.726-1.492-3.101-3.09-4.124-4.795l6.01-4.22c.682.895 1.546 1.918 2.59 3.069 1.044 1.172 2.472 2.185 4.284 3.037 1.833.874 4.231 1.311 7.193 1.311 3.964 0 7.236-.959 9.815-2.877 2.579-1.919 3.868-4.924 3.868-9.016v-9.974h-.639c-.554.895-1.343 2.003-2.366 3.324-1.002 1.301-2.451 2.462-4.348 3.485-1.876 1.002-4.412 1.503-7.609 1.503-3.964 0-7.523-.938-10.678-2.814-3.133-1.875-5.616-4.603-7.449-8.184-1.811-3.58-2.717-7.928-2.717-13.044 0-5.029.884-9.409 2.653-13.139 1.769-3.751 4.231-6.65 7.385-8.696 3.155-2.067 6.799-3.101 10.934-3.101 3.197 0 5.733.533 7.609 1.599 1.897 1.044 3.346 2.237 4.348 3.58 1.023 1.322 1.811 2.409 2.366 3.261h.767v-7.801h7.289v50.513c0 4.22-.959 7.651-2.877 10.294-1.897 2.664-4.455 4.614-7.673 5.85-3.197 1.258-6.756 1.887-10.678 1.887Zm-.256-26.983c3.027 0 5.584-.693 7.673-2.078 2.089-1.385 3.677-3.378 4.764-5.978 1.086-2.6 1.63-5.712 1.63-9.335 0-3.538-.533-6.661-1.599-9.368-1.065-2.706-2.642-4.827-4.731-6.361-2.089-1.535-4.668-2.302-7.737-2.302-3.197 0-5.861.81-7.992 2.429-2.11 1.62-3.698 3.794-4.764 6.522-1.044 2.728-1.566 5.755-1.566 9.08 0 3.41.533 6.426 1.598 9.047 1.087 2.6 2.686 4.646 4.796 6.138 2.131 1.471 4.774 2.206 7.928 2.206Zm42.84-21.995V179h-7.545v-49.106h7.289v7.673h.639c1.151-2.493 2.899-4.497 5.243-6.01 2.345-1.535 5.371-2.302 9.08-2.302 3.325 0 6.234.682 8.728 2.046 2.493 1.343 4.433 3.389 5.818 6.138 1.385 2.728 2.078 6.181 2.078 10.359V179H426.6v-30.691c0-3.858-1.002-6.863-3.005-9.015-2.003-2.174-4.753-3.261-8.248-3.261-2.409 0-4.561.522-6.458 1.566-1.876 1.045-3.357 2.568-4.444 4.572-1.087 2.003-1.63 4.433-1.63 7.289Zm105.22-8.568-6.777 1.918c-.427-1.129-1.055-2.227-1.887-3.293-.81-1.087-1.918-1.982-3.325-2.685-1.406-.703-3.207-1.055-5.402-1.055-3.006 0-5.51.693-7.513 2.078-1.982 1.364-2.974 3.101-2.974 5.211 0 1.876.683 3.357 2.047 4.444 1.364 1.087 3.495 1.993 6.393 2.717l7.29 1.791c4.39 1.065 7.662 2.696 9.814 4.891 2.153 2.174 3.229 4.977 3.229 8.408 0 2.813-.81 5.328-2.429 7.545-1.599 2.216-3.837 3.964-6.714 5.243-2.877 1.279-6.224 1.918-10.039 1.918-5.008 0-9.154-1.087-12.436-3.261-3.282-2.174-5.36-5.349-6.234-9.527l7.161-1.79c.682 2.643 1.972 4.625 3.869 5.946 1.918 1.322 4.422 1.982 7.513 1.982 3.516 0 6.308-.746 8.376-2.238 2.088-1.513 3.133-3.324 3.133-5.434 0-1.705-.597-3.133-1.791-4.284-1.193-1.173-3.026-2.046-5.498-2.622l-8.185-1.918c-4.497-1.066-7.8-2.717-9.91-4.955-2.089-2.26-3.133-5.084-3.133-8.472 0-2.771.778-5.222 2.333-7.353 1.578-2.132 3.72-3.805 6.426-5.02 2.728-1.214 5.819-1.822 9.272-1.822 4.859 0 8.674 1.066 11.445 3.197 2.792 2.131 4.774 4.945 5.946 8.44Zm17.112 56.523c-1.279 0-2.419-.107-3.421-.32-1.002-.192-1.694-.384-2.078-.576l1.918-6.649c1.833.469 3.453.639 4.86.511 1.406-.128 2.653-.756 3.74-1.886 1.108-1.108 2.121-2.909 3.037-5.403l1.407-3.836-18.159-49.362h8.184l13.556 39.131h.511l13.555-39.131h8.184l-20.844 56.267c-.938 2.536-2.099 4.636-3.485 6.298-1.385 1.684-2.994 2.931-4.827 3.741-1.812.81-3.858 1.215-6.138 1.215Zm80.036-56.523-6.777 1.918c-.427-1.129-1.055-2.227-1.887-3.293-.81-1.087-1.918-1.982-3.325-2.685-1.406-.703-3.207-1.055-5.402-1.055-3.006 0-5.51.693-7.513 2.078-1.982 1.364-2.974 3.101-2.974 5.211 0 1.876.683 3.357 2.047 4.444 1.364 1.087 3.495 1.993 6.393 2.717l7.29 1.791c4.39 1.065 7.662 2.696 9.814 4.891 2.153 2.174 3.229 4.977 3.229 8.408 0 2.813-.81 5.328-2.429 7.545-1.599 2.216-3.837 3.964-6.714 5.243-2.877 1.279-6.224 1.918-10.039 1.918-5.008 0-9.154-1.087-12.436-3.261-3.282-2.174-5.36-5.349-6.234-9.527l7.161-1.79c.682 2.643 1.972 4.625 3.869 5.946 1.918 1.322 4.422 1.982 7.513 1.982 3.516 0 6.308-.746 8.376-2.238 2.088-1.513 3.133-3.324 3.133-5.434 0-1.705-.597-3.133-1.791-4.284-1.193-1.173-3.026-2.046-5.498-2.622l-8.185-1.918c-4.497-1.066-7.8-2.717-9.91-4.955-2.089-2.26-3.133-5.084-3.133-8.472 0-2.771.778-5.222 2.333-7.353 1.578-2.132 3.72-3.805 6.426-5.02 2.728-1.214 5.819-1.822 9.272-1.822 4.859 0 8.674 1.066 11.445 3.197 2.792 2.131 4.774 4.945 5.946 8.44Zm33.608-10.998v6.394h-25.448v-6.394h25.448ZM620.76 118.13h7.545v46.803c0 2.132.309 3.73.927 4.796.64 1.044 1.45 1.747 2.43 2.11a9.756 9.756 0 0 0 3.165.511c.831 0 1.513-.042 2.046-.128l1.279-.255 1.534 6.777c-.511.192-1.225.384-2.142.576-.916.213-2.078.319-3.484.319-2.132 0-4.22-.458-6.266-1.374-2.025-.917-3.709-2.313-5.052-4.188-1.321-1.876-1.982-4.242-1.982-7.098V118.13Zm49.442 61.893c-4.732 0-8.813-1.044-12.245-3.133-3.41-2.11-6.042-5.051-7.896-8.824-1.833-3.793-2.75-8.205-2.75-13.235 0-5.03.917-9.463 2.75-13.3 1.854-3.857 4.433-6.862 7.736-9.015 3.325-2.174 7.204-3.261 11.637-3.261 2.558 0 5.083.426 7.577 1.279 2.494.852 4.764 2.238 6.81 4.156 2.046 1.897 3.676 4.412 4.891 7.545 1.215 3.133 1.822 6.991 1.822 11.573v3.197h-37.852v-6.522h30.18c0-2.771-.555-5.243-1.663-7.417-1.087-2.174-2.643-3.89-4.667-5.147-2.004-1.258-4.37-1.886-7.098-1.886-3.005 0-5.605.746-7.8 2.238a14.72 14.72 0 0 0-5.02 5.754c-1.172 2.366-1.758 4.902-1.758 7.609v4.348c0 3.708.639 6.852 1.918 9.431 1.3 2.557 3.101 4.508 5.403 5.85 2.302 1.322 4.977 1.982 8.025 1.982 1.982 0 3.772-.277 5.37-.831 1.62-.575 3.016-1.428 4.188-2.557 1.173-1.151 2.079-2.579 2.718-4.284l7.289 2.046a16.17 16.17 0 0 1-3.868 6.522c-1.812 1.854-4.05 3.303-6.714 4.347-2.664 1.024-5.659 1.535-8.983 1.535ZM702.011 179v-49.106h7.29v7.673h.639c1.023-2.621 2.675-4.657 4.955-6.106 2.281-1.471 5.019-2.206 8.216-2.206 3.24 0 5.936.735 8.089 2.206 2.174 1.449 3.868 3.485 5.083 6.106h.511c1.258-2.536 3.144-4.55 5.659-6.042 2.515-1.513 5.531-2.27 9.048-2.27 4.39 0 7.981 1.375 10.773 4.124 2.792 2.728 4.188 6.98 4.188 12.756V179h-7.544v-32.865c0-3.623-.992-6.213-2.974-7.769-1.982-1.555-4.316-2.333-7.001-2.333-3.453 0-6.128 1.044-8.024 3.133-1.897 2.067-2.846 4.689-2.846 7.864V179h-7.672v-33.632c0-2.792-.906-5.041-2.718-6.746-1.812-1.726-4.145-2.589-7.001-2.589-1.961 0-3.794.522-5.499 1.566-1.684 1.045-3.048 2.494-4.092 4.348-1.023 1.833-1.535 3.954-1.535 6.362V179h-7.545ZM156.691 87V21.526h13.619v24.617h.415c.597-1.322 1.46-2.665 2.59-4.029 1.151-1.385 2.643-2.536 4.476-3.452 1.854-.938 4.156-1.407 6.905-1.407 3.581 0 6.884.938 9.911 2.813 3.026 1.855 5.445 4.657 7.257 8.409 1.811 3.73 2.717 8.408 2.717 14.034 0 5.478-.884 10.103-2.653 13.875-1.748 3.751-4.135 6.597-7.161 8.536-3.006 1.918-6.373 2.877-10.103 2.877-2.643 0-4.891-.437-6.745-1.31-1.833-.874-3.336-1.972-4.508-3.293-1.172-1.343-2.068-2.697-2.686-4.06h-.607V87h-13.427Zm13.331-24.553c0 2.92.405 5.467 1.215 7.641.81 2.174 1.982 3.868 3.517 5.083 1.534 1.194 3.399 1.79 5.594 1.79 2.217 0 4.092-.607 5.627-1.822 1.534-1.236 2.696-2.941 3.485-5.115.809-2.195 1.214-4.72 1.214-7.577 0-2.834-.394-5.328-1.182-7.48-.789-2.153-1.951-3.837-3.485-5.052-1.535-1.215-3.421-1.822-5.659-1.822-2.216 0-4.092.586-5.626 1.758-1.514 1.172-2.675 2.835-3.485 4.988-.81 2.152-1.215 4.688-1.215 7.608Zm66.025 25.512c-5.051 0-9.399-1.023-13.043-3.069-3.623-2.067-6.415-4.987-8.376-8.76-1.961-3.793-2.941-8.28-2.941-13.459 0-5.051.98-9.484 2.941-13.3 1.961-3.814 4.721-6.788 8.28-8.919 3.581-2.131 7.779-3.197 12.596-3.197 3.24 0 6.255.522 9.047 1.567 2.814 1.023 5.265 2.568 7.353 4.635 2.11 2.068 3.752 4.668 4.924 7.8 1.172 3.113 1.758 6.757 1.758 10.934v3.74h-41.465v-8.44h28.645c0-1.96-.426-3.697-1.279-5.21a9.157 9.157 0 0 0-3.548-3.549c-1.492-.874-3.229-1.31-5.211-1.31-2.068 0-3.901.479-5.499 1.438a10.095 10.095 0 0 0-3.709 3.804c-.895 1.578-1.353 3.336-1.374 5.276v8.024c0 2.43.447 4.529 1.343 6.298.916 1.769 2.205 3.133 3.868 4.092 1.662.96 3.634 1.439 5.914 1.439 1.513 0 2.899-.213 4.156-.64 1.258-.426 2.334-1.065 3.229-1.918.895-.852 1.577-1.897 2.046-3.133l12.596.831c-.639 3.027-1.95 5.67-3.932 7.929-1.961 2.238-4.497 3.985-7.609 5.243-3.09 1.236-6.66 1.854-10.71 1.854Zm53.806 0c-5.052 0-9.4-1.023-13.044-3.069-3.623-2.067-6.415-4.987-8.376-8.76-1.961-3.793-2.941-8.28-2.941-13.459 0-5.051.98-9.484 2.941-13.3 1.961-3.814 4.721-6.788 8.28-8.919 3.581-2.131 7.779-3.197 12.596-3.197 3.24 0 6.255.522 9.047 1.567 2.814 1.023 5.265 2.568 7.354 4.635 2.11 2.068 3.751 4.668 4.923 7.8 1.172 3.113 1.758 6.757 1.758 10.934v3.74h-41.465v-8.44h28.645c0-1.96-.426-3.697-1.278-5.21a9.166 9.166 0 0 0-3.549-3.549c-1.492-.874-3.229-1.31-5.211-1.31-2.068 0-3.9.479-5.499 1.438a10.085 10.085 0 0 0-3.708 3.804c-.896 1.578-1.354 3.336-1.375 5.276v8.024c0 2.43.447 4.529 1.343 6.298.916 1.769 2.205 3.133 3.868 4.092 1.662.96 3.634 1.439 5.914 1.439 1.514 0 2.899-.213 4.156-.64 1.258-.426 2.334-1.065 3.229-1.918.895-.852 1.577-1.897 2.046-3.133l12.596.831c-.639 3.027-1.95 5.67-3.932 7.929-1.961 2.238-4.497 3.985-7.609 5.243-3.09 1.236-6.66 1.854-10.709 1.854Zm62.021-33.248v10.805h-29.86V54.711h29.86Zm44.054 50.704v-26.28h-.416c-.639 1.364-1.545 2.718-2.717 4.06-1.151 1.322-2.653 2.42-4.508 3.294-1.833.873-4.07 1.31-6.713 1.31-3.73 0-7.108-.959-10.135-2.877-3.005-1.94-5.392-4.785-7.161-8.536-1.748-3.772-2.621-8.397-2.621-13.875 0-5.627.905-10.305 2.717-14.035 1.812-3.75 4.22-6.553 7.225-8.408 3.027-1.875 6.341-2.813 9.943-2.813 2.749 0 5.04.469 6.873 1.407 1.854.916 3.346 2.067 4.476 3.453 1.151 1.363 2.025 2.706 2.621 4.028h.576v-8.248h13.427v67.52h-13.587ZM385.89 76.961c2.195 0 4.049-.596 5.562-1.79 1.535-1.215 2.707-2.909 3.517-5.083.831-2.174 1.247-4.72 1.247-7.64s-.405-5.457-1.215-7.61c-.81-2.152-1.982-3.815-3.517-4.987-1.534-1.172-3.399-1.758-5.594-1.758-2.238 0-4.124.607-5.659 1.822-1.535 1.215-2.696 2.899-3.485 5.051-.788 2.153-1.183 4.647-1.183 7.481 0 2.856.395 5.382 1.183 7.577.81 2.174 1.972 3.88 3.485 5.115 1.535 1.215 3.421 1.823 5.659 1.823Z"/></svg>