<svg width="668" height="312" viewBox="0 0 668 312" fill="none" xmlns="http://www.w3.org/2000/svg">
<g filter="url(#filter0_d_5240_237363)">
<path d="M42 46C42 34.6863 42 29.0294 45.5147 25.5147C49.0294 22 54.6863 22 66 22H602C613.314 22 618.971 22 622.485 25.5147C626 29.0294 626 34.6863 626 46V226C626 237.314 626 242.971 622.485 246.485C618.971 250 613.314 250 602 250H66C54.6863 250 49.0294 250 45.5147 246.485C42 242.971 42 237.314 42 226V46Z" fill="white"/>
<path d="M78.6563 58.8437C78.6563 58.4729 78.7662 58.1104 78.9722 57.8021C79.1783 57.4937 79.4711 57.2534 79.8137 57.1115C80.1563 56.9696 80.5333 56.9324 80.897 57.0048C81.2608 57.0771 81.5949 57.2557 81.8571 57.5179C82.1193 57.7801 82.2979 58.1142 82.3702 58.478C82.4426 58.8417 82.4054 59.2187 82.2635 59.5613C82.1216 59.9039 81.8813 60.1967 81.5729 60.4028C81.2646 60.6088 80.9021 60.7187 80.5313 60.7187C80.034 60.7187 79.5571 60.5212 79.2054 60.1696C78.8538 59.8179 78.6563 59.341 78.6563 58.8437ZM93.6563 64C93.6563 66.5032 92.914 68.9501 91.5233 71.0314C90.1326 73.1127 88.156 74.7349 85.8433 75.6928C83.5307 76.6508 80.986 76.9014 78.5309 76.4131C76.0758 75.9247 73.8207 74.7193 72.0507 72.9493C70.2807 71.1793 69.0753 68.9242 68.5869 66.4691C68.0986 64.014 68.3492 61.4693 69.3072 59.1567C70.2651 56.844 71.8873 54.8674 73.9686 53.4767C76.0499 52.086 78.4968 51.3438 81 51.3438C84.3555 51.3475 87.5725 52.6821 89.9452 55.0548C92.3179 57.4275 93.6525 60.6445 93.6563 64ZM90.8438 64C90.8438 62.0531 90.2664 60.1499 89.1848 58.5311C88.1031 56.9123 86.5658 55.6506 84.767 54.9056C82.9683 54.1605 80.9891 53.9656 79.0796 54.3454C77.1701 54.7252 75.4161 55.6627 74.0394 57.0394C72.6627 58.4161 71.7252 60.1701 71.3454 62.0796C70.9656 63.9891 71.1605 65.9683 71.9056 67.767C72.6506 69.5657 73.9123 71.1031 75.5311 72.1848C77.1499 73.2664 79.0531 73.8437 81 73.8437C83.6099 73.841 86.112 72.803 87.9575 70.9575C89.803 69.112 90.841 66.6099 90.8438 64ZM82.4063 68.2984V64.4687C82.4063 63.8471 82.1593 63.251 81.7198 62.8115C81.2802 62.3719 80.6841 62.125 80.0625 62.125C79.7304 62.1245 79.4088 62.2416 79.1548 62.4554C78.9007 62.6693 78.7305 62.9662 78.6744 63.2935C78.6183 63.6208 78.6798 63.9575 78.848 64.2438C79.0163 64.5301 79.2805 64.7476 79.5938 64.8578V68.6875C79.5938 69.3091 79.8407 69.9052 80.2802 70.3448C80.7198 70.7843 81.3159 71.0312 81.9375 71.0312C82.2696 71.0317 82.5912 70.9147 82.8452 70.7008C83.0993 70.4869 83.2695 70.1901 83.3256 69.8627C83.3818 69.5354 83.3202 69.1988 83.152 68.9125C82.9837 68.6262 82.7195 68.4086 82.4063 68.2984Z" fill="#2A2C35"/>
<path d="M109.784 73V56.296H113.552V73H109.784ZM104.48 59.344V56.056H118.856V59.344H104.48ZM120.624 73V61.336H124.296V73H120.624ZM122.472 59.728C121.896 59.728 121.416 59.536 121.032 59.152C120.664 58.752 120.48 58.272 120.48 57.712C120.48 57.136 120.664 56.656 121.032 56.272C121.416 55.888 121.896 55.696 122.472 55.696C123.048 55.696 123.52 55.888 123.888 56.272C124.256 56.656 124.44 57.136 124.44 57.712C124.44 58.272 124.256 58.752 123.888 59.152C123.52 59.536 123.048 59.728 122.472 59.728ZM128.538 73V56.512H132.21V73H128.538ZM125.898 64.456V61.336H134.85V64.456H125.898ZM136.468 73V55.576H140.14V73H136.468ZM148.486 73.264C147.222 73.264 146.094 73.008 145.102 72.496C144.126 71.968 143.358 71.24 142.798 70.312C142.238 69.384 141.958 68.336 141.958 67.168C141.958 66 142.23 64.96 142.774 64.048C143.334 63.12 144.086 62.392 145.03 61.864C145.974 61.336 147.038 61.072 148.222 61.072C149.374 61.072 150.39 61.32 151.27 61.816C152.15 62.312 152.838 63 153.334 63.88C153.846 64.76 154.102 65.768 154.102 66.904C154.102 67.112 154.086 67.336 154.054 67.576C154.038 67.8 153.998 68.064 153.934 68.368L143.878 68.392V65.872L152.374 65.848L150.79 66.904C150.774 66.232 150.67 65.68 150.478 65.248C150.286 64.8 149.998 64.464 149.614 64.24C149.246 64 148.79 63.88 148.246 63.88C147.67 63.88 147.166 64.016 146.734 64.288C146.318 64.544 145.99 64.912 145.75 65.392C145.526 65.872 145.414 66.456 145.414 67.144C145.414 67.832 145.534 68.424 145.774 68.92C146.03 69.4 146.382 69.776 146.83 70.048C147.294 70.304 147.838 70.432 148.462 70.432C149.038 70.432 149.558 70.336 150.022 70.144C150.486 69.936 150.894 69.632 151.246 69.232L153.262 71.248C152.686 71.92 151.99 72.424 151.174 72.76C150.358 73.096 149.462 73.264 148.486 73.264Z" fill="#2A2C35"/>
<path d="M593.546 69.954C593.757 70.1654 593.876 70.452 593.876 70.7509C593.876 71.0498 593.757 71.3364 593.546 71.5478C593.335 71.7591 593.048 71.8779 592.749 71.8779C592.45 71.8779 592.163 71.7591 591.952 71.5478L586 65.5937L580.046 71.5459C579.835 71.7573 579.548 71.876 579.249 71.876C578.95 71.876 578.663 71.7573 578.452 71.5459C578.241 71.3346 578.122 71.0479 578.122 70.749C578.122 70.4502 578.241 70.1635 578.452 69.9522L584.406 64L578.454 58.0459C578.243 57.8346 578.124 57.5479 578.124 57.249C578.124 56.9502 578.243 56.6635 578.454 56.4522C578.665 56.2408 578.952 56.1221 579.251 56.1221C579.55 56.1221 579.836 56.2408 580.048 56.4522L586 62.4062L591.954 56.4512C592.165 56.2399 592.452 56.1212 592.751 56.1212C593.05 56.1212 593.336 56.2399 593.548 56.4512C593.759 56.6626 593.878 56.9492 593.878 57.2481C593.878 57.547 593.759 57.8336 593.548 58.045L587.594 64L593.546 69.954Z" fill="#2A2C35"/>
<path d="M70.256 124V113.216H71.76V124H70.256ZM66.48 114.272V112.896H75.52V114.272H66.48ZM82.432 124V119.568C82.432 118.992 82.2507 118.517 81.888 118.144C81.5253 117.771 81.056 117.584 80.48 117.584C80.096 117.584 79.7547 117.669 79.456 117.84C79.1573 118.011 78.9227 118.245 78.752 118.544C78.5813 118.843 78.496 119.184 78.496 119.568L77.904 119.232C77.904 118.656 78.032 118.144 78.288 117.696C78.544 117.248 78.9013 116.896 79.36 116.64C79.8187 116.373 80.336 116.24 80.912 116.24C81.488 116.24 81.9947 116.368 82.432 116.624C82.88 116.88 83.232 117.237 83.488 117.696C83.744 118.155 83.872 118.683 83.872 119.28V124H82.432ZM77.056 124V112.576H78.496V124H77.056ZM85.8376 124V116.4H87.2776V124H85.8376ZM86.5576 114.88C86.291 114.88 86.0723 114.795 85.9016 114.624C85.731 114.443 85.6456 114.219 85.6456 113.952C85.6456 113.696 85.731 113.483 85.9016 113.312C86.0723 113.131 86.291 113.04 86.5576 113.04C86.8243 113.04 87.043 113.131 87.2136 113.312C87.3843 113.483 87.4696 113.696 87.4696 113.952C87.4696 114.219 87.3843 114.443 87.2136 114.624C87.043 114.795 86.8243 114.88 86.5576 114.88ZM91.8158 124.16C91.3891 124.16 90.9838 124.107 90.5998 124C90.2264 123.883 89.8798 123.723 89.5598 123.52C89.2398 123.307 88.9624 123.056 88.7278 122.768L89.6558 121.84C89.9331 122.181 90.2531 122.437 90.6158 122.608C90.9784 122.768 91.3838 122.848 91.8318 122.848C92.2798 122.848 92.6264 122.773 92.8718 122.624C93.1171 122.464 93.2398 122.245 93.2398 121.968C93.2398 121.691 93.1384 121.477 92.9358 121.328C92.7438 121.168 92.4931 121.04 92.1838 120.944C91.8744 120.837 91.5438 120.736 91.1918 120.64C90.8504 120.533 90.5251 120.4 90.2158 120.24C89.9064 120.08 89.6504 119.861 89.4478 119.584C89.2558 119.307 89.1598 118.939 89.1598 118.48C89.1598 118.021 89.2718 117.627 89.4958 117.296C89.7198 116.955 90.0291 116.693 90.4238 116.512C90.8291 116.331 91.3144 116.24 91.8798 116.24C92.4771 116.24 93.0051 116.347 93.4638 116.56C93.9331 116.763 94.3171 117.072 94.6158 117.488L93.6878 118.416C93.4744 118.139 93.2078 117.925 92.8878 117.776C92.5784 117.627 92.2264 117.552 91.8318 117.552C91.4158 117.552 91.0958 117.627 90.8718 117.776C90.6584 117.915 90.5518 118.112 90.5518 118.368C90.5518 118.624 90.6478 118.821 90.8398 118.96C91.0318 119.099 91.2824 119.216 91.5918 119.312C91.9118 119.408 92.2424 119.509 92.5838 119.616C92.9251 119.712 93.2504 119.845 93.5598 120.016C93.8691 120.187 94.1198 120.416 94.3118 120.704C94.5144 120.992 94.6158 121.371 94.6158 121.84C94.6158 122.555 94.3598 123.12 93.8478 123.536C93.3464 123.952 92.6691 124.16 91.8158 124.16ZM100.724 124V113.216H102.164V124H100.724ZM98.852 117.712V116.4H104.036V117.712H98.852ZM108.732 124.16C107.975 124.16 107.292 123.989 106.684 123.648C106.076 123.296 105.596 122.821 105.244 122.224C104.892 121.627 104.716 120.949 104.716 120.192C104.716 119.445 104.887 118.773 105.228 118.176C105.58 117.579 106.05 117.109 106.636 116.768C107.234 116.416 107.9 116.24 108.636 116.24C109.34 116.24 109.959 116.4 110.492 116.72C111.036 117.04 111.458 117.483 111.756 118.048C112.066 118.613 112.22 119.253 112.22 119.968C112.22 120.075 112.215 120.192 112.204 120.32C112.194 120.437 112.172 120.576 112.14 120.736H105.724V119.536H111.372L110.844 120C110.844 119.488 110.754 119.056 110.572 118.704C110.391 118.341 110.135 118.064 109.804 117.872C109.474 117.669 109.074 117.568 108.604 117.568C108.114 117.568 107.682 117.675 107.308 117.888C106.935 118.101 106.647 118.4 106.444 118.784C106.242 119.168 106.14 119.621 106.14 120.144C106.14 120.677 106.247 121.147 106.46 121.552C106.674 121.947 106.978 122.256 107.372 122.48C107.767 122.693 108.22 122.8 108.732 122.8C109.159 122.8 109.548 122.725 109.9 122.576C110.263 122.427 110.572 122.203 110.828 121.904L111.756 122.848C111.394 123.275 110.946 123.6 110.412 123.824C109.89 124.048 109.33 124.16 108.732 124.16ZM118.548 124L116.18 120.672L115.908 120.416L112.916 116.4H114.66L116.82 119.36L117.092 119.584L120.292 124H118.548ZM112.772 124L115.908 119.776L116.724 120.832L114.468 124H112.772ZM117.204 120.4L116.372 119.376L118.468 116.4H120.148L117.204 120.4ZM122.458 124V113.216H123.898V124H122.458ZM120.586 117.712V116.4H125.77V117.712H120.586ZM130.525 124V116.4H131.965V124H130.525ZM131.245 114.88C130.978 114.88 130.76 114.795 130.589 114.624C130.418 114.443 130.333 114.219 130.333 113.952C130.333 113.696 130.418 113.483 130.589 113.312C130.76 113.131 130.978 113.04 131.245 113.04C131.512 113.04 131.73 113.131 131.901 113.312C132.072 113.483 132.157 113.696 132.157 113.952C132.157 114.219 132.072 114.443 131.901 114.624C131.73 114.795 131.512 114.88 131.245 114.88ZM136.503 124.16C136.077 124.16 135.671 124.107 135.287 124C134.914 123.883 134.567 123.723 134.247 123.52C133.927 123.307 133.65 123.056 133.415 122.768L134.343 121.84C134.621 122.181 134.941 122.437 135.303 122.608C135.666 122.768 136.071 122.848 136.519 122.848C136.967 122.848 137.314 122.773 137.559 122.624C137.805 122.464 137.927 122.245 137.927 121.968C137.927 121.691 137.826 121.477 137.623 121.328C137.431 121.168 137.181 121.04 136.871 120.944C136.562 120.837 136.231 120.736 135.879 120.64C135.538 120.533 135.213 120.4 134.903 120.24C134.594 120.08 134.338 119.861 134.135 119.584C133.943 119.307 133.847 118.939 133.847 118.48C133.847 118.021 133.959 117.627 134.183 117.296C134.407 116.955 134.717 116.693 135.111 116.512C135.517 116.331 136.002 116.24 136.567 116.24C137.165 116.24 137.693 116.347 138.151 116.56C138.621 116.763 139.005 117.072 139.303 117.488L138.375 118.416C138.162 118.139 137.895 117.925 137.575 117.776C137.266 117.627 136.914 117.552 136.519 117.552C136.103 117.552 135.783 117.627 135.559 117.776C135.346 117.915 135.239 118.112 135.239 118.368C135.239 118.624 135.335 118.821 135.527 118.96C135.719 119.099 135.97 119.216 136.279 119.312C136.599 119.408 136.93 119.509 137.271 119.616C137.613 119.712 137.938 119.845 138.247 120.016C138.557 120.187 138.807 120.416 138.999 120.704C139.202 120.992 139.303 121.371 139.303 121.84C139.303 122.555 139.047 123.12 138.535 123.536C138.034 123.952 137.357 124.16 136.503 124.16ZM147.476 124.16C146.782 124.16 146.153 123.989 145.588 123.648C145.022 123.296 144.574 122.821 144.243 122.224C143.924 121.627 143.764 120.955 143.764 120.208C143.764 119.461 143.924 118.789 144.243 118.192C144.574 117.595 145.017 117.12 145.572 116.768C146.137 116.416 146.772 116.24 147.476 116.24C148.052 116.24 148.564 116.363 149.012 116.608C149.47 116.843 149.838 117.173 150.116 117.6C150.393 118.016 150.548 118.501 150.58 119.056V121.344C150.548 121.888 150.393 122.373 150.116 122.8C149.849 123.227 149.486 123.563 149.028 123.808C148.58 124.043 148.062 124.16 147.476 124.16ZM147.716 122.8C148.43 122.8 149.006 122.56 149.444 122.08C149.881 121.589 150.1 120.965 150.1 120.208C150.1 119.685 149.998 119.232 149.796 118.848C149.604 118.453 149.326 118.149 148.964 117.936C148.601 117.712 148.18 117.6 147.7 117.6C147.22 117.6 146.793 117.712 146.42 117.936C146.057 118.16 145.769 118.469 145.556 118.864C145.353 119.248 145.252 119.691 145.252 120.192C145.252 120.704 145.353 121.157 145.556 121.552C145.769 121.936 146.062 122.24 146.436 122.464C146.809 122.688 147.236 122.8 147.716 122.8ZM150.004 124V121.952L150.276 120.096L150.004 118.256V116.4H151.46V124H150.004ZM160.1 124.16C159.396 124.16 158.767 123.989 158.212 123.648C157.657 123.296 157.215 122.821 156.884 122.224C156.564 121.627 156.404 120.955 156.404 120.208C156.404 119.461 156.564 118.789 156.884 118.192C157.215 117.595 157.657 117.12 158.212 116.768C158.767 116.416 159.396 116.24 160.1 116.24C160.665 116.24 161.177 116.363 161.636 116.608C162.095 116.843 162.463 117.173 162.74 117.6C163.028 118.016 163.188 118.501 163.22 119.056V121.344C163.188 121.888 163.033 122.373 162.756 122.8C162.479 123.227 162.111 123.563 161.652 123.808C161.193 124.043 160.676 124.16 160.1 124.16ZM160.34 122.8C160.82 122.8 161.236 122.688 161.588 122.464C161.951 122.24 162.233 121.936 162.436 121.552C162.639 121.157 162.74 120.709 162.74 120.208C162.74 119.685 162.633 119.232 162.42 118.848C162.217 118.464 161.935 118.16 161.572 117.936C161.22 117.712 160.804 117.6 160.324 117.6C159.844 117.6 159.423 117.712 159.06 117.936C158.697 118.16 158.409 118.469 158.196 118.864C157.993 119.248 157.892 119.691 157.892 120.192C157.892 120.704 157.993 121.157 158.196 121.552C158.409 121.936 158.697 122.24 159.06 122.464C159.433 122.688 159.86 122.8 160.34 122.8ZM164.1 124H162.644V121.952L162.916 120.096L162.644 118.256V112.576H164.1V124ZM169.717 124.16C168.959 124.16 168.277 123.989 167.669 123.648C167.061 123.296 166.581 122.821 166.229 122.224C165.877 121.627 165.701 120.949 165.701 120.192C165.701 119.445 165.871 118.773 166.213 118.176C166.565 117.579 167.034 117.109 167.621 116.768C168.218 116.416 168.885 116.24 169.621 116.24C170.325 116.24 170.943 116.4 171.477 116.72C172.021 117.04 172.442 117.483 172.741 118.048C173.05 118.613 173.205 119.253 173.205 119.968C173.205 120.075 173.199 120.192 173.189 120.32C173.178 120.437 173.157 120.576 173.125 120.736H166.709V119.536H172.357L171.829 120C171.829 119.488 171.738 119.056 171.557 118.704C171.375 118.341 171.119 118.064 170.789 117.872C170.458 117.669 170.058 117.568 169.589 117.568C169.098 117.568 168.666 117.675 168.293 117.888C167.919 118.101 167.631 118.4 167.429 118.784C167.226 119.168 167.125 119.621 167.125 120.144C167.125 120.677 167.231 121.147 167.445 121.552C167.658 121.947 167.962 122.256 168.357 122.48C168.751 122.693 169.205 122.8 169.717 122.8C170.143 122.8 170.533 122.725 170.885 122.576C171.247 122.427 171.557 122.203 171.813 121.904L172.741 122.848C172.378 123.275 171.93 123.6 171.397 123.824C170.874 124.048 170.314 124.16 169.717 124.16ZM177.191 124.16C176.764 124.16 176.359 124.107 175.975 124C175.601 123.883 175.255 123.723 174.935 123.52C174.615 123.307 174.337 123.056 174.103 122.768L175.031 121.84C175.308 122.181 175.628 122.437 175.991 122.608C176.353 122.768 176.759 122.848 177.207 122.848C177.655 122.848 178.001 122.773 178.247 122.624C178.492 122.464 178.615 122.245 178.615 121.968C178.615 121.691 178.513 121.477 178.311 121.328C178.119 121.168 177.868 121.04 177.559 120.944C177.249 120.837 176.919 120.736 176.567 120.64C176.225 120.533 175.9 120.4 175.591 120.24C175.281 120.08 175.025 119.861 174.823 119.584C174.631 119.307 174.535 118.939 174.535 118.48C174.535 118.021 174.647 117.627 174.871 117.296C175.095 116.955 175.404 116.693 175.799 116.512C176.204 116.331 176.689 116.24 177.255 116.24C177.852 116.24 178.38 116.347 178.839 116.56C179.308 116.763 179.692 117.072 179.991 117.488L179.063 118.416C178.849 118.139 178.583 117.925 178.263 117.776C177.953 117.627 177.601 117.552 177.207 117.552C176.791 117.552 176.471 117.627 176.247 117.776C176.033 117.915 175.927 118.112 175.927 118.368C175.927 118.624 176.023 118.821 176.215 118.96C176.407 119.099 176.657 119.216 176.967 119.312C177.287 119.408 177.617 119.509 177.959 119.616C178.3 119.712 178.625 119.845 178.935 120.016C179.244 120.187 179.495 120.416 179.687 120.704C179.889 120.992 179.991 121.371 179.991 121.84C179.991 122.555 179.735 123.12 179.223 123.536C178.721 123.952 178.044 124.16 177.191 124.16ZM185.075 124.16C184.328 124.16 183.651 123.984 183.043 123.632C182.446 123.28 181.971 122.805 181.619 122.208C181.278 121.6 181.107 120.928 181.107 120.192C181.107 119.445 181.278 118.773 181.619 118.176C181.971 117.579 182.446 117.109 183.043 116.768C183.651 116.416 184.328 116.24 185.075 116.24C185.662 116.24 186.206 116.352 186.707 116.576C187.208 116.789 187.64 117.104 188.003 117.52L187.043 118.48C186.808 118.203 186.52 117.995 186.179 117.856C185.848 117.707 185.48 117.632 185.075 117.632C184.595 117.632 184.168 117.744 183.795 117.968C183.422 118.181 183.128 118.48 182.915 118.864C182.702 119.248 182.595 119.691 182.595 120.192C182.595 120.693 182.702 121.136 182.915 121.52C183.128 121.904 183.422 122.208 183.795 122.432C184.168 122.656 184.595 122.768 185.075 122.768C185.48 122.768 185.848 122.699 186.179 122.56C186.52 122.411 186.814 122.197 187.059 121.92L188.003 122.88C187.651 123.285 187.219 123.6 186.707 123.824C186.206 124.048 185.662 124.16 185.075 124.16ZM189.431 124V116.4H190.871V124H189.431ZM190.871 119.664L190.327 119.424C190.327 118.453 190.551 117.68 190.999 117.104C191.447 116.528 192.092 116.24 192.935 116.24C193.319 116.24 193.666 116.309 193.975 116.448C194.284 116.576 194.572 116.795 194.839 117.104L193.895 118.08C193.735 117.909 193.559 117.787 193.367 117.712C193.175 117.637 192.951 117.6 192.695 117.6C192.162 117.6 191.724 117.771 191.383 118.112C191.042 118.453 190.871 118.971 190.871 119.664ZM195.869 124V116.4H197.309V124H195.869ZM196.589 114.88C196.322 114.88 196.104 114.795 195.933 114.624C195.762 114.443 195.677 114.219 195.677 113.952C195.677 113.696 195.762 113.483 195.933 113.312C196.104 113.131 196.322 113.04 196.589 113.04C196.856 113.04 197.074 113.131 197.245 113.312C197.416 113.483 197.501 113.696 197.501 113.952C197.501 114.219 197.416 114.443 197.245 114.624C197.074 114.795 196.856 114.88 196.589 114.88ZM203.431 124.16C202.855 124.16 202.332 124.043 201.863 123.808C201.404 123.563 201.036 123.227 200.759 122.8C200.482 122.373 200.327 121.888 200.295 121.344V119.056C200.327 118.501 200.482 118.016 200.759 117.6C201.047 117.173 201.42 116.843 201.879 116.608C202.348 116.363 202.866 116.24 203.431 116.24C204.124 116.24 204.748 116.416 205.303 116.768C205.868 117.12 206.311 117.595 206.631 118.192C206.951 118.789 207.111 119.461 207.111 120.208C207.111 120.955 206.951 121.627 206.631 122.224C206.311 122.821 205.868 123.296 205.303 123.648C204.748 123.989 204.124 124.16 203.431 124.16ZM199.431 127.184V116.4H200.871V118.4L200.599 120.24L200.871 122.096V127.184H199.431ZM203.191 122.8C203.671 122.8 204.092 122.688 204.455 122.464C204.818 122.24 205.106 121.936 205.319 121.552C205.532 121.157 205.639 120.704 205.639 120.192C205.639 119.691 205.532 119.243 205.319 118.848C205.106 118.453 204.818 118.149 204.455 117.936C204.092 117.712 203.676 117.6 203.207 117.6C202.727 117.6 202.306 117.712 201.943 117.936C201.58 118.149 201.298 118.453 201.095 118.848C200.892 119.243 200.791 119.696 200.791 120.208C200.791 120.709 200.887 121.157 201.079 121.552C201.282 121.936 201.564 122.24 201.927 122.464C202.3 122.688 202.722 122.8 203.191 122.8ZM209.677 124V113.216H211.117V124H209.677ZM207.805 117.712V116.4H212.989V117.712H207.805ZM214.416 124V116.4H215.856V124H214.416ZM215.136 114.88C214.869 114.88 214.65 114.795 214.48 114.624C214.309 114.443 214.224 114.219 214.224 113.952C214.224 113.696 214.309 113.483 214.48 113.312C214.65 113.131 214.869 113.04 215.136 113.04C215.402 113.04 215.621 113.131 215.792 113.312C215.962 113.483 216.048 113.696 216.048 113.952C216.048 114.219 215.962 114.443 215.792 114.624C215.621 114.795 215.402 114.88 215.136 114.88ZM221.45 124.16C220.703 124.16 220.031 123.984 219.434 123.632C218.837 123.28 218.362 122.805 218.01 122.208C217.658 121.6 217.482 120.923 217.482 120.176C217.482 119.44 217.658 118.779 218.01 118.192C218.362 117.595 218.837 117.12 219.434 116.768C220.031 116.416 220.703 116.24 221.45 116.24C222.186 116.24 222.853 116.416 223.45 116.768C224.058 117.109 224.538 117.579 224.89 118.176C225.242 118.773 225.418 119.44 225.418 120.176C225.418 120.923 225.242 121.6 224.89 122.208C224.538 122.805 224.058 123.28 223.45 123.632C222.853 123.984 222.186 124.16 221.45 124.16ZM221.45 122.768C221.93 122.768 222.357 122.656 222.73 122.432C223.103 122.208 223.397 121.904 223.61 121.52C223.823 121.125 223.93 120.677 223.93 120.176C223.93 119.685 223.818 119.248 223.594 118.864C223.381 118.48 223.087 118.181 222.714 117.968C222.351 117.744 221.93 117.632 221.45 117.632C220.97 117.632 220.543 117.744 220.17 117.968C219.797 118.181 219.503 118.48 219.29 118.864C219.077 119.248 218.97 119.685 218.97 120.176C218.97 120.677 219.077 121.125 219.29 121.52C219.503 121.904 219.797 122.208 220.17 122.432C220.543 122.656 220.97 122.768 221.45 122.768ZM232.416 124V119.568C232.416 118.992 232.235 118.517 231.872 118.144C231.51 117.771 231.04 117.584 230.464 117.584C230.08 117.584 229.739 117.669 229.44 117.84C229.142 118.011 228.907 118.245 228.736 118.544C228.566 118.843 228.48 119.184 228.48 119.568L227.888 119.232C227.888 118.656 228.016 118.144 228.272 117.696C228.528 117.248 228.886 116.896 229.344 116.64C229.803 116.373 230.32 116.24 230.896 116.24C231.472 116.24 231.979 116.384 232.416 116.672C232.864 116.96 233.216 117.339 233.472 117.808C233.728 118.267 233.856 118.757 233.856 119.28V124H232.416ZM227.04 124V116.4H228.48V124H227.04ZM240.222 124V115.264C240.222 114.699 240.345 114.208 240.59 113.792C240.835 113.365 241.171 113.029 241.598 112.784C242.035 112.539 242.542 112.416 243.118 112.416C243.555 112.416 243.934 112.491 244.254 112.64C244.574 112.789 244.867 113.008 245.134 113.296L244.19 114.224C244.051 114.075 243.897 113.963 243.726 113.888C243.555 113.803 243.347 113.76 243.102 113.76C242.643 113.76 242.286 113.893 242.03 114.16C241.785 114.427 241.662 114.795 241.662 115.264V124H240.222ZM238.35 117.712V116.4H244.078V117.712H238.35ZM248.559 124.16C247.813 124.16 247.141 123.984 246.543 123.632C245.946 123.28 245.471 122.805 245.119 122.208C244.767 121.6 244.591 120.923 244.591 120.176C244.591 119.44 244.767 118.779 245.119 118.192C245.471 117.595 245.946 117.12 246.543 116.768C247.141 116.416 247.813 116.24 248.559 116.24C249.295 116.24 249.962 116.416 250.559 116.768C251.167 117.109 251.647 117.579 251.999 118.176C252.351 118.773 252.527 119.44 252.527 120.176C252.527 120.923 252.351 121.6 251.999 122.208C251.647 122.805 251.167 123.28 250.559 123.632C249.962 123.984 249.295 124.16 248.559 124.16ZM248.559 122.768C249.039 122.768 249.466 122.656 249.839 122.432C250.213 122.208 250.506 121.904 250.719 121.52C250.933 121.125 251.039 120.677 251.039 120.176C251.039 119.685 250.927 119.248 250.703 118.864C250.49 118.48 250.197 118.181 249.823 117.968C249.461 117.744 249.039 117.632 248.559 117.632C248.079 117.632 247.653 117.744 247.279 117.968C246.906 118.181 246.613 118.48 246.399 118.864C246.186 119.248 246.079 119.685 246.079 120.176C246.079 120.677 246.186 121.125 246.399 121.52C246.613 121.904 246.906 122.208 247.279 122.432C247.653 122.656 248.079 122.768 248.559 122.768ZM254.15 124V116.4H255.59V124H254.15ZM255.59 119.664L255.046 119.424C255.046 118.453 255.27 117.68 255.718 117.104C256.166 116.528 256.811 116.24 257.654 116.24C258.038 116.24 258.384 116.309 258.694 116.448C259.003 116.576 259.291 116.795 259.558 117.104L258.614 118.08C258.454 117.909 258.278 117.787 258.086 117.712C257.894 117.637 257.67 117.6 257.414 117.6C256.88 117.6 256.443 117.771 256.102 118.112C255.76 118.453 255.59 118.971 255.59 119.664ZM265.349 124V113.216H266.789V124H265.349ZM263.477 117.712V116.4H268.661V117.712H263.477ZM275.448 124V119.568C275.448 118.992 275.266 118.517 274.904 118.144C274.541 117.771 274.072 117.584 273.496 117.584C273.112 117.584 272.77 117.669 272.472 117.84C272.173 118.011 271.938 118.245 271.768 118.544C271.597 118.843 271.512 119.184 271.512 119.568L270.92 119.232C270.92 118.656 271.048 118.144 271.304 117.696C271.56 117.248 271.917 116.896 272.376 116.64C272.834 116.373 273.352 116.24 273.928 116.24C274.504 116.24 275.01 116.368 275.448 116.624C275.896 116.88 276.248 117.237 276.504 117.696C276.76 118.155 276.888 118.683 276.888 119.28V124H275.448ZM270.072 124V112.576H271.512V124H270.072ZM282.357 124.16C281.6 124.16 280.917 123.989 280.309 123.648C279.701 123.296 279.221 122.821 278.869 122.224C278.517 121.627 278.341 120.949 278.341 120.192C278.341 119.445 278.512 118.773 278.853 118.176C279.205 117.579 279.675 117.109 280.261 116.768C280.859 116.416 281.525 116.24 282.261 116.24C282.965 116.24 283.584 116.4 284.117 116.72C284.661 117.04 285.083 117.483 285.381 118.048C285.691 118.613 285.845 119.253 285.845 119.968C285.845 120.075 285.84 120.192 285.829 120.32C285.819 120.437 285.797 120.576 285.765 120.736H279.349V119.536H284.997L284.469 120C284.469 119.488 284.379 119.056 284.197 118.704C284.016 118.341 283.76 118.064 283.429 117.872C283.099 117.669 282.699 117.568 282.229 117.568C281.739 117.568 281.307 117.675 280.933 117.888C280.56 118.101 280.272 118.4 280.069 118.784C279.867 119.168 279.765 119.621 279.765 120.144C279.765 120.677 279.872 121.147 280.085 121.552C280.299 121.947 280.603 122.256 280.997 122.48C281.392 122.693 281.845 122.8 282.357 122.8C282.784 122.8 283.173 122.725 283.525 122.576C283.888 122.427 284.197 122.203 284.453 121.904L285.381 122.848C285.019 123.275 284.571 123.6 284.037 123.824C283.515 124.048 282.955 124.16 282.357 124.16ZM293.96 124.16C293.256 124.16 292.626 123.989 292.072 123.648C291.517 123.296 291.074 122.821 290.743 122.224C290.424 121.627 290.264 120.955 290.264 120.208C290.264 119.461 290.424 118.789 290.743 118.192C291.074 117.595 291.517 117.12 292.072 116.768C292.626 116.416 293.256 116.24 293.96 116.24C294.525 116.24 295.037 116.363 295.496 116.608C295.954 116.843 296.322 117.173 296.6 117.6C296.888 118.016 297.048 118.501 297.08 119.056V121.344C297.048 121.888 296.893 122.373 296.616 122.8C296.338 123.227 295.97 123.563 295.512 123.808C295.053 124.043 294.536 124.16 293.96 124.16ZM294.2 122.8C294.68 122.8 295.096 122.688 295.448 122.464C295.81 122.24 296.093 121.936 296.296 121.552C296.498 121.157 296.6 120.709 296.6 120.208C296.6 119.685 296.493 119.232 296.28 118.848C296.077 118.464 295.794 118.16 295.432 117.936C295.08 117.712 294.664 117.6 294.184 117.6C293.704 117.6 293.282 117.712 292.92 117.936C292.557 118.16 292.269 118.469 292.056 118.864C291.853 119.248 291.752 119.691 291.752 120.192C291.752 120.704 291.853 121.157 292.056 121.552C292.269 121.936 292.557 122.24 292.92 122.464C293.293 122.688 293.72 122.8 294.2 122.8ZM297.96 124H296.504V121.952L296.776 120.096L296.504 118.256V112.576H297.96V124ZM300.072 124V116.4H301.512V124H300.072ZM300.792 114.88C300.525 114.88 300.307 114.795 300.136 114.624C299.965 114.443 299.88 114.219 299.88 113.952C299.88 113.696 299.965 113.483 300.136 113.312C300.307 113.131 300.525 113.04 300.792 113.04C301.059 113.04 301.277 113.131 301.448 113.312C301.619 113.483 301.704 113.696 301.704 113.952C301.704 114.219 301.619 114.443 301.448 114.624C301.277 114.795 301.059 114.88 300.792 114.88ZM306.866 124.16C306.173 124.16 305.543 123.989 304.978 123.648C304.413 123.296 303.965 122.821 303.634 122.224C303.314 121.627 303.154 120.955 303.154 120.208C303.154 119.461 303.314 118.789 303.634 118.192C303.965 117.595 304.407 117.12 304.962 116.768C305.527 116.416 306.162 116.24 306.866 116.24C307.442 116.24 307.954 116.363 308.402 116.608C308.861 116.843 309.229 117.173 309.506 117.6C309.783 118.016 309.938 118.501 309.97 119.056V121.344C309.938 121.888 309.783 122.373 309.506 122.8C309.239 123.227 308.877 123.563 308.418 123.808C307.97 124.043 307.453 124.16 306.866 124.16ZM307.106 122.8C307.821 122.8 308.397 122.56 308.834 122.08C309.271 121.589 309.49 120.965 309.49 120.208C309.49 119.685 309.389 119.232 309.186 118.848C308.994 118.453 308.717 118.149 308.354 117.936C307.991 117.712 307.57 117.6 307.09 117.6C306.61 117.6 306.183 117.712 305.81 117.936C305.447 118.16 305.159 118.469 304.946 118.864C304.743 119.248 304.642 119.691 304.642 120.192C304.642 120.704 304.743 121.157 304.946 121.552C305.159 121.936 305.453 122.24 305.826 122.464C306.199 122.688 306.626 122.8 307.106 122.8ZM309.394 124V121.952L309.666 120.096L309.394 118.256V116.4H310.85V124H309.394ZM312.947 124V112.576H314.387V124H312.947ZM319.966 124.16C319.219 124.16 318.547 123.984 317.95 123.632C317.352 123.28 316.878 122.805 316.526 122.208C316.174 121.6 315.998 120.923 315.998 120.176C315.998 119.44 316.174 118.779 316.526 118.192C316.878 117.595 317.352 117.12 317.95 116.768C318.547 116.416 319.219 116.24 319.966 116.24C320.702 116.24 321.368 116.416 321.966 116.768C322.574 117.109 323.054 117.579 323.406 118.176C323.758 118.773 323.934 119.44 323.934 120.176C323.934 120.923 323.758 121.6 323.406 122.208C323.054 122.805 322.574 123.28 321.966 123.632C321.368 123.984 320.702 124.16 319.966 124.16ZM319.966 122.768C320.446 122.768 320.872 122.656 321.246 122.432C321.619 122.208 321.912 121.904 322.126 121.52C322.339 121.125 322.446 120.677 322.446 120.176C322.446 119.685 322.334 119.248 322.11 118.864C321.896 118.48 321.603 118.181 321.23 117.968C320.867 117.744 320.446 117.632 319.966 117.632C319.486 117.632 319.059 117.744 318.686 117.968C318.312 118.181 318.019 118.48 317.806 118.864C317.592 119.248 317.486 119.685 317.486 120.176C317.486 120.677 317.592 121.125 317.806 121.52C318.019 121.904 318.312 122.208 318.686 122.432C319.059 122.656 319.486 122.768 319.966 122.768ZM328.708 127.344C327.929 127.344 327.236 127.2 326.628 126.912C326.031 126.624 325.551 126.219 325.188 125.696L326.116 124.752C326.425 125.147 326.793 125.445 327.22 125.648C327.647 125.861 328.153 125.968 328.74 125.968C329.519 125.968 330.132 125.76 330.58 125.344C331.039 124.939 331.268 124.389 331.268 123.696V121.808L331.524 120.096L331.268 118.4V116.4H332.708V123.696C332.708 124.421 332.537 125.056 332.196 125.6C331.865 126.144 331.396 126.571 330.788 126.88C330.191 127.189 329.497 127.344 328.708 127.344ZM328.708 123.872C328.015 123.872 327.391 123.707 326.836 123.376C326.292 123.045 325.86 122.592 325.54 122.016C325.22 121.429 325.06 120.773 325.06 120.048C325.06 119.323 325.22 118.677 325.54 118.112C325.86 117.536 326.292 117.083 326.836 116.752C327.391 116.411 328.015 116.24 328.708 116.24C329.305 116.24 329.833 116.357 330.292 116.592C330.751 116.827 331.113 117.157 331.38 117.584C331.657 118 331.807 118.491 331.828 119.056V121.072C331.796 121.627 331.641 122.117 331.364 122.544C331.097 122.96 330.735 123.285 330.276 123.52C329.817 123.755 329.295 123.872 328.708 123.872ZM328.996 122.512C329.465 122.512 329.876 122.411 330.228 122.208C330.591 122.005 330.868 121.723 331.06 121.36C331.252 120.987 331.348 120.555 331.348 120.064C331.348 119.573 331.247 119.147 331.044 118.784C330.852 118.411 330.58 118.123 330.228 117.92C329.876 117.707 329.46 117.6 328.98 117.6C328.5 117.6 328.079 117.707 327.716 117.92C327.353 118.123 327.065 118.411 326.852 118.784C326.649 119.147 326.548 119.568 326.548 120.048C326.548 120.528 326.649 120.955 326.852 121.328C327.065 121.701 327.353 121.995 327.716 122.208C328.089 122.411 328.516 122.512 328.996 122.512ZM341.622 124.16C340.875 124.16 340.198 123.984 339.59 123.632C338.992 123.28 338.518 122.805 338.166 122.208C337.824 121.6 337.654 120.928 337.654 120.192C337.654 119.445 337.824 118.773 338.166 118.176C338.518 117.579 338.992 117.109 339.59 116.768C340.198 116.416 340.875 116.24 341.622 116.24C342.208 116.24 342.752 116.352 343.254 116.576C343.755 116.789 344.187 117.104 344.55 117.52L343.59 118.48C343.355 118.203 343.067 117.995 342.726 117.856C342.395 117.707 342.027 117.632 341.622 117.632C341.142 117.632 340.715 117.744 340.342 117.968C339.968 118.181 339.675 118.48 339.462 118.864C339.248 119.248 339.142 119.691 339.142 120.192C339.142 120.693 339.248 121.136 339.462 121.52C339.675 121.904 339.968 122.208 340.342 122.432C340.715 122.656 341.142 122.768 341.622 122.768C342.027 122.768 342.395 122.699 342.726 122.56C343.067 122.411 343.36 122.197 343.606 121.92L344.55 122.88C344.198 123.285 343.766 123.6 343.254 123.824C342.752 124.048 342.208 124.16 341.622 124.16ZM349.294 124.16C348.547 124.16 347.875 123.984 347.278 123.632C346.68 123.28 346.206 122.805 345.854 122.208C345.502 121.6 345.326 120.923 345.326 120.176C345.326 119.44 345.502 118.779 345.854 118.192C346.206 117.595 346.68 117.12 347.278 116.768C347.875 116.416 348.547 116.24 349.294 116.24C350.03 116.24 350.696 116.416 351.294 116.768C351.902 117.109 352.382 117.579 352.734 118.176C353.086 118.773 353.262 119.44 353.262 120.176C353.262 120.923 353.086 121.6 352.734 122.208C352.382 122.805 351.902 123.28 351.294 123.632C350.696 123.984 350.03 124.16 349.294 124.16ZM349.294 122.768C349.774 122.768 350.2 122.656 350.574 122.432C350.947 122.208 351.24 121.904 351.454 121.52C351.667 121.125 351.774 120.677 351.774 120.176C351.774 119.685 351.662 119.248 351.438 118.864C351.224 118.48 350.931 118.181 350.558 117.968C350.195 117.744 349.774 117.632 349.294 117.632C348.814 117.632 348.387 117.744 348.014 117.968C347.64 118.181 347.347 118.48 347.134 118.864C346.92 119.248 346.814 119.685 346.814 120.176C346.814 120.677 346.92 121.125 347.134 121.52C347.347 121.904 347.64 122.208 348.014 122.432C348.387 122.656 348.814 122.768 349.294 122.768ZM354.884 124V116.4H356.324V124H354.884ZM360.02 124V119.408C360.02 118.843 359.844 118.4 359.492 118.08C359.151 117.749 358.719 117.584 358.196 117.584C357.844 117.584 357.529 117.659 357.252 117.808C356.975 117.957 356.751 118.165 356.58 118.432C356.409 118.699 356.324 119.019 356.324 119.392L355.732 119.104C355.732 118.528 355.855 118.027 356.1 117.6C356.356 117.173 356.703 116.843 357.14 116.608C357.577 116.363 358.068 116.24 358.612 116.24C359.145 116.24 359.625 116.357 360.052 116.592C360.489 116.827 360.831 117.157 361.076 117.584C361.332 118.011 361.46 118.517 361.46 119.104V124H360.02ZM365.156 124V119.408C365.156 118.843 364.98 118.4 364.628 118.08C364.287 117.749 363.86 117.584 363.348 117.584C362.996 117.584 362.676 117.659 362.388 117.808C362.111 117.957 361.887 118.165 361.716 118.432C361.545 118.699 361.46 119.019 361.46 119.392L360.644 119.104C360.676 118.517 360.831 118.016 361.108 117.6C361.396 117.173 361.764 116.843 362.212 116.608C362.66 116.363 363.151 116.24 363.684 116.24C364.239 116.24 364.735 116.357 365.172 116.592C365.609 116.827 365.956 117.157 366.212 117.584C366.479 118.011 366.612 118.523 366.612 119.12V124H365.156ZM372.572 124.16C371.996 124.16 371.473 124.043 371.004 123.808C370.545 123.563 370.177 123.227 369.9 122.8C369.622 122.373 369.468 121.888 369.436 121.344V119.056C369.468 118.501 369.622 118.016 369.9 117.6C370.188 117.173 370.561 116.843 371.02 116.608C371.489 116.363 372.006 116.24 372.572 116.24C373.265 116.24 373.889 116.416 374.444 116.768C375.009 117.12 375.452 117.595 375.772 118.192C376.092 118.789 376.252 119.461 376.252 120.208C376.252 120.955 376.092 121.627 375.772 122.224C375.452 122.821 375.009 123.296 374.444 123.648C373.889 123.989 373.265 124.16 372.572 124.16ZM368.572 127.184V116.4H370.012V118.4L369.74 120.24L370.012 122.096V127.184H368.572ZM372.332 122.8C372.812 122.8 373.233 122.688 373.596 122.464C373.958 122.24 374.246 121.936 374.46 121.552C374.673 121.157 374.78 120.704 374.78 120.192C374.78 119.691 374.673 119.243 374.46 118.848C374.246 118.453 373.958 118.149 373.596 117.936C373.233 117.712 372.817 117.6 372.348 117.6C371.868 117.6 371.446 117.712 371.084 117.936C370.721 118.149 370.438 118.453 370.236 118.848C370.033 119.243 369.932 119.696 369.932 120.208C369.932 120.709 370.028 121.157 370.22 121.552C370.422 121.936 370.705 122.24 371.068 122.464C371.441 122.688 371.862 122.8 372.332 122.8ZM381.356 124.16C380.609 124.16 379.937 123.984 379.34 123.632C378.743 123.28 378.268 122.805 377.916 122.208C377.564 121.6 377.388 120.923 377.388 120.176C377.388 119.44 377.564 118.779 377.916 118.192C378.268 117.595 378.743 117.12 379.34 116.768C379.937 116.416 380.609 116.24 381.356 116.24C382.092 116.24 382.759 116.416 383.356 116.768C383.964 117.109 384.444 117.579 384.796 118.176C385.148 118.773 385.324 119.44 385.324 120.176C385.324 120.923 385.148 121.6 384.796 122.208C384.444 122.805 383.964 123.28 383.356 123.632C382.759 123.984 382.092 124.16 381.356 124.16ZM381.356 122.768C381.836 122.768 382.263 122.656 382.636 122.432C383.009 122.208 383.303 121.904 383.516 121.52C383.729 121.125 383.836 120.677 383.836 120.176C383.836 119.685 383.724 119.248 383.5 118.864C383.287 118.48 382.993 118.181 382.62 117.968C382.257 117.744 381.836 117.632 381.356 117.632C380.876 117.632 380.449 117.744 380.076 117.968C379.703 118.181 379.409 118.48 379.196 118.864C378.983 119.248 378.876 119.685 378.876 120.176C378.876 120.677 378.983 121.125 379.196 121.52C379.409 121.904 379.703 122.208 380.076 122.432C380.449 122.656 380.876 122.768 381.356 122.768ZM392.323 124V119.568C392.323 118.992 392.141 118.517 391.779 118.144C391.416 117.771 390.947 117.584 390.371 117.584C389.987 117.584 389.645 117.669 389.347 117.84C389.048 118.011 388.813 118.245 388.643 118.544C388.472 118.843 388.387 119.184 388.387 119.568L387.795 119.232C387.795 118.656 387.923 118.144 388.179 117.696C388.435 117.248 388.792 116.896 389.251 116.64C389.709 116.373 390.227 116.24 390.803 116.24C391.379 116.24 391.885 116.384 392.323 116.672C392.771 116.96 393.123 117.339 393.379 117.808C393.635 118.267 393.763 118.757 393.763 119.28V124H392.323ZM386.947 124V116.4H388.387V124H386.947ZM399.232 124.16C398.475 124.16 397.792 123.989 397.184 123.648C396.576 123.296 396.096 122.821 395.744 122.224C395.392 121.627 395.216 120.949 395.216 120.192C395.216 119.445 395.387 118.773 395.728 118.176C396.08 117.579 396.55 117.109 397.136 116.768C397.734 116.416 398.4 116.24 399.136 116.24C399.84 116.24 400.459 116.4 400.992 116.72C401.536 117.04 401.958 117.483 402.256 118.048C402.566 118.613 402.72 119.253 402.72 119.968C402.72 120.075 402.715 120.192 402.704 120.32C402.694 120.437 402.672 120.576 402.64 120.736H396.224V119.536H401.872L401.344 120C401.344 119.488 401.254 119.056 401.072 118.704C400.891 118.341 400.635 118.064 400.304 117.872C399.974 117.669 399.574 117.568 399.104 117.568C398.614 117.568 398.182 117.675 397.808 117.888C397.435 118.101 397.147 118.4 396.944 118.784C396.742 119.168 396.64 119.621 396.64 120.144C396.64 120.677 396.747 121.147 396.96 121.552C397.174 121.947 397.478 122.256 397.872 122.48C398.267 122.693 398.72 122.8 399.232 122.8C399.659 122.8 400.048 122.725 400.4 122.576C400.763 122.427 401.072 122.203 401.328 121.904L402.256 122.848C401.894 123.275 401.446 123.6 400.912 123.824C400.39 124.048 399.83 124.16 399.232 124.16ZM409.666 124V119.568C409.666 118.992 409.485 118.517 409.122 118.144C408.76 117.771 408.29 117.584 407.714 117.584C407.33 117.584 406.989 117.669 406.69 117.84C406.392 118.011 406.157 118.245 405.986 118.544C405.816 118.843 405.73 119.184 405.73 119.568L405.138 119.232C405.138 118.656 405.266 118.144 405.522 117.696C405.778 117.248 406.136 116.896 406.594 116.64C407.053 116.373 407.57 116.24 408.146 116.24C408.722 116.24 409.229 116.384 409.666 116.672C410.114 116.96 410.466 117.339 410.722 117.808C410.978 118.267 411.106 118.757 411.106 119.28V124H409.666ZM404.29 124V116.4H405.73V124H404.29ZM414.13 124V113.216H415.57V124H414.13ZM412.258 117.712V116.4H417.442V117.712H412.258ZM419.57 124.16C419.271 124.16 419.021 124.059 418.818 123.856C418.626 123.643 418.53 123.392 418.53 123.104C418.53 122.805 418.626 122.56 418.818 122.368C419.021 122.165 419.271 122.064 419.57 122.064C419.869 122.064 420.114 122.165 420.306 122.368C420.509 122.56 420.61 122.805 420.61 123.104C420.61 123.392 420.509 123.643 420.306 123.856C420.114 124.059 419.869 124.16 419.57 124.16Z" fill="#2A2C35"/>
<path d="M42 154H626V234C626 241.542 626 245.314 623.657 247.657C621.314 250 617.542 250 610 250H58C50.4575 250 46.6863 250 44.3431 247.657C42 245.314 42 241.542 42 234V154Z" fill="#F1F2F4"/>
<mask id="path-8-inside-1_5240_237363" fill="white">
<path d="M436 202C436 190.686 436 185.029 439.515 181.515C443.029 178 448.686 178 460 178H491C502.314 178 507.971 178 511.485 181.515C515 185.029 515 190.686 515 202C515 213.314 515 218.971 511.485 222.485C507.971 226 502.314 226 491 226H460C448.686 226 443.029 226 439.515 222.485C436 218.971 436 213.314 436 202Z"/>
</mask>
<path d="M439.515 222.485L438.101 223.899L439.515 222.485ZM511.485 222.485L512.899 223.899L511.485 222.485ZM511.485 181.515L510.071 182.929L511.485 181.515ZM439.515 181.515L438.101 180.101L439.515 181.515ZM460 178V180H491V178V176H460V178ZM491 226V224H460V226V228H491V226ZM460 226V224C454.287 224 450.203 223.996 447.099 223.578C444.053 223.169 442.253 222.395 440.929 221.071L439.515 222.485L438.101 223.899C440.291 226.09 443.077 227.074 446.566 227.543C449.998 228.004 454.4 228 460 228V226ZM436 202H434C434 207.6 433.996 212.002 434.457 215.434C434.926 218.923 435.91 221.709 438.101 223.899L439.515 222.485L440.929 221.071C439.605 219.747 438.831 217.947 438.422 214.901C438.004 211.797 438 207.713 438 202H436ZM515 202H513C513 207.713 512.996 211.797 512.578 214.901C512.169 217.947 511.395 219.747 510.071 221.071L511.485 222.485L512.899 223.899C515.09 221.709 516.074 218.923 516.543 215.434C517.004 212.002 517 207.6 517 202H515ZM491 226V228C496.6 228 501.002 228.004 504.434 227.543C507.923 227.074 510.709 226.09 512.899 223.899L511.485 222.485L510.071 221.071C508.747 222.395 506.947 223.169 503.901 223.578C500.797 223.996 496.713 224 491 224V226ZM491 178V180C496.713 180 500.797 180.004 503.901 180.422C506.947 180.831 508.747 181.605 510.071 182.929L511.485 181.515L512.899 180.101C510.709 177.91 507.923 176.926 504.434 176.457C501.002 175.996 496.6 176 491 176V178ZM515 202H517C517 196.4 517.004 191.998 516.543 188.566C516.074 185.077 515.09 182.291 512.899 180.101L511.485 181.515L510.071 182.929C511.395 184.253 512.169 186.053 512.578 189.099C512.996 192.203 513 196.287 513 202H515ZM460 178V176C454.4 176 449.998 175.996 446.566 176.457C443.077 176.926 440.291 177.91 438.101 180.101L439.515 181.515L440.929 182.929C442.253 181.605 444.053 180.831 447.099 180.422C450.203 180.004 454.287 180 460 180V178ZM436 202H438C438 196.287 438.004 192.203 438.422 189.099C438.831 186.053 439.605 184.253 440.929 182.929L439.515 181.515L438.101 180.101C435.91 182.291 434.926 185.077 434.457 188.566C433.996 191.998 434 196.4 434 202H436Z" fill="#4F46E5" mask="url(#path-8-inside-1_5240_237363)"/>
<path d="M454.722 208V206.4H457.938C458.504 206.4 458.941 206.224 459.25 205.872C459.56 205.52 459.714 205.115 459.714 204.656C459.714 204.347 459.645 204.059 459.506 203.792C459.368 203.525 459.165 203.312 458.898 203.152C458.632 202.992 458.312 202.912 457.938 202.912H454.722V201.312H457.666C458.146 201.312 458.53 201.189 458.818 200.944C459.106 200.699 459.25 200.336 459.25 199.856C459.25 199.376 459.106 199.013 458.818 198.768C458.53 198.523 458.146 198.4 457.666 198.4H454.722V196.8H457.714C458.472 196.8 459.101 196.939 459.602 197.216C460.104 197.493 460.477 197.851 460.722 198.288C460.968 198.725 461.09 199.195 461.09 199.696C461.09 200.283 460.925 200.8 460.594 201.248C460.274 201.696 459.8 202.059 459.17 202.336L459.314 201.76C460.018 202.048 460.568 202.453 460.962 202.976C461.357 203.499 461.554 204.112 461.554 204.816C461.554 205.392 461.41 205.92 461.122 206.4C460.845 206.88 460.429 207.269 459.874 207.568C459.33 207.856 458.658 208 457.858 208H454.722ZM453.458 208V196.8H455.298V208H453.458ZM466.323 208.16C465.673 208.16 465.091 208.016 464.579 207.728C464.078 207.44 463.683 207.045 463.395 206.544C463.118 206.032 462.979 205.445 462.979 204.784V200.32H464.739V204.704C464.739 205.077 464.798 205.397 464.915 205.664C465.043 205.92 465.225 206.117 465.459 206.256C465.705 206.395 465.993 206.464 466.323 206.464C466.835 206.464 467.225 206.315 467.491 206.016C467.769 205.707 467.907 205.269 467.907 204.704V200.32H469.667V204.784C469.667 205.456 469.523 206.048 469.235 206.56C468.958 207.061 468.569 207.456 468.067 207.744C467.566 208.021 466.985 208.16 466.323 208.16ZM472.605 208V197.12H474.365V208H472.605ZM470.765 201.92V200.32H480.845V201.92H470.765ZM477.245 208V197.12H479.005V208H477.245ZM485.426 208.16C484.679 208.16 484.002 207.984 483.394 207.632C482.786 207.269 482.3 206.784 481.938 206.176C481.586 205.568 481.41 204.891 481.41 204.144C481.41 203.397 481.586 202.725 481.938 202.128C482.3 201.531 482.786 201.056 483.394 200.704C484.002 200.341 484.679 200.16 485.426 200.16C486.183 200.16 486.866 200.336 487.474 200.688C488.082 201.04 488.562 201.52 488.914 202.128C489.276 202.725 489.458 203.397 489.458 204.144C489.458 204.891 489.276 205.568 488.914 206.176C488.562 206.784 488.082 207.269 487.474 207.632C486.866 207.984 486.183 208.16 485.426 208.16ZM485.426 206.464C485.863 206.464 486.247 206.368 486.578 206.176C486.919 205.973 487.18 205.696 487.362 205.344C487.554 204.992 487.65 204.592 487.65 204.144C487.65 203.696 487.554 203.301 487.362 202.96C487.17 202.619 486.908 202.352 486.578 202.16C486.247 201.957 485.863 201.856 485.426 201.856C484.999 201.856 484.615 201.957 484.274 202.16C483.943 202.352 483.682 202.619 483.49 202.96C483.308 203.301 483.218 203.696 483.218 204.144C483.218 204.592 483.308 204.992 483.49 205.344C483.682 205.696 483.943 205.973 484.274 206.176C484.615 206.368 484.999 206.464 485.426 206.464ZM496.185 208V203.568C496.185 203.056 496.02 202.635 495.689 202.304C495.369 201.973 494.953 201.808 494.441 201.808C494.1 201.808 493.796 201.883 493.529 202.032C493.263 202.181 493.055 202.389 492.905 202.656C492.756 202.923 492.681 203.227 492.681 203.568L491.993 203.184C491.993 202.597 492.121 202.08 492.377 201.632C492.633 201.173 492.985 200.816 493.433 200.56C493.892 200.293 494.404 200.16 494.969 200.16C495.545 200.16 496.057 200.309 496.505 200.608C496.953 200.896 497.305 201.275 497.561 201.744C497.817 202.203 497.945 202.683 497.945 203.184V208H496.185ZM490.921 208V200.32H492.681V208H490.921Z" fill="#4F46E5"/>
<path d="M523 202C523 190.686 523 185.029 526.515 181.515C530.029 178 535.686 178 547 178H578C589.314 178 594.971 178 598.485 181.515C602 185.029 602 190.686 602 202C602 213.314 602 218.971 598.485 222.485C594.971 226 589.314 226 578 226H547C535.686 226 530.029 226 526.515 222.485C523 218.971 523 213.314 523 202Z" fill="#4F46E5"/>
<path d="M541.722 208V206.4H544.938C545.504 206.4 545.941 206.224 546.25 205.872C546.56 205.52 546.714 205.115 546.714 204.656C546.714 204.347 546.645 204.059 546.506 203.792C546.368 203.525 546.165 203.312 545.898 203.152C545.632 202.992 545.312 202.912 544.938 202.912H541.722V201.312H544.666C545.146 201.312 545.53 201.189 545.818 200.944C546.106 200.699 546.25 200.336 546.25 199.856C546.25 199.376 546.106 199.013 545.818 198.768C545.53 198.523 545.146 198.4 544.666 198.4H541.722V196.8H544.714C545.472 196.8 546.101 196.939 546.602 197.216C547.104 197.493 547.477 197.851 547.722 198.288C547.968 198.725 548.09 199.195 548.09 199.696C548.09 200.283 547.925 200.8 547.594 201.248C547.274 201.696 546.8 202.059 546.17 202.336L546.314 201.76C547.018 202.048 547.568 202.453 547.962 202.976C548.357 203.499 548.554 204.112 548.554 204.816C548.554 205.392 548.41 205.92 548.122 206.4C547.845 206.88 547.429 207.269 546.874 207.568C546.33 207.856 545.658 208 544.858 208H541.722ZM540.458 208V196.8H542.298V208H540.458ZM553.323 208.16C552.673 208.16 552.091 208.016 551.579 207.728C551.078 207.44 550.683 207.045 550.395 206.544C550.118 206.032 549.979 205.445 549.979 204.784V200.32H551.739V204.704C551.739 205.077 551.798 205.397 551.915 205.664C552.043 205.92 552.225 206.117 552.459 206.256C552.705 206.395 552.993 206.464 553.323 206.464C553.835 206.464 554.225 206.315 554.491 206.016C554.769 205.707 554.907 205.269 554.907 204.704V200.32H556.667V204.784C556.667 205.456 556.523 206.048 556.235 206.56C555.958 207.061 555.569 207.456 555.067 207.744C554.566 208.021 553.985 208.16 553.323 208.16ZM559.605 208V197.12H561.365V208H559.605ZM557.765 201.92V200.32H567.845V201.92H557.765ZM564.245 208V197.12H566.005V208H564.245ZM572.426 208.16C571.679 208.16 571.002 207.984 570.394 207.632C569.786 207.269 569.3 206.784 568.938 206.176C568.586 205.568 568.41 204.891 568.41 204.144C568.41 203.397 568.586 202.725 568.938 202.128C569.3 201.531 569.786 201.056 570.394 200.704C571.002 200.341 571.679 200.16 572.426 200.16C573.183 200.16 573.866 200.336 574.474 200.688C575.082 201.04 575.562 201.52 575.914 202.128C576.276 202.725 576.458 203.397 576.458 204.144C576.458 204.891 576.276 205.568 575.914 206.176C575.562 206.784 575.082 207.269 574.474 207.632C573.866 207.984 573.183 208.16 572.426 208.16ZM572.426 206.464C572.863 206.464 573.247 206.368 573.578 206.176C573.919 205.973 574.18 205.696 574.362 205.344C574.554 204.992 574.65 204.592 574.65 204.144C574.65 203.696 574.554 203.301 574.362 202.96C574.17 202.619 573.908 202.352 573.578 202.16C573.247 201.957 572.863 201.856 572.426 201.856C571.999 201.856 571.615 201.957 571.274 202.16C570.943 202.352 570.682 202.619 570.49 202.96C570.308 203.301 570.218 203.696 570.218 204.144C570.218 204.592 570.308 204.992 570.49 205.344C570.682 205.696 570.943 205.973 571.274 206.176C571.615 206.368 571.999 206.464 572.426 206.464ZM583.185 208V203.568C583.185 203.056 583.02 202.635 582.689 202.304C582.369 201.973 581.953 201.808 581.441 201.808C581.1 201.808 580.796 201.883 580.529 202.032C580.263 202.181 580.055 202.389 579.905 202.656C579.756 202.923 579.681 203.227 579.681 203.568L578.993 203.184C578.993 202.597 579.121 202.08 579.377 201.632C579.633 201.173 579.985 200.816 580.433 200.56C580.892 200.293 581.404 200.16 581.969 200.16C582.545 200.16 583.057 200.309 583.505 200.608C583.953 200.896 584.305 201.275 584.561 201.744C584.817 202.203 584.945 202.683 584.945 203.184V208H583.185ZM577.921 208V200.32H579.681V208H577.921Z" fill="white"/>
</g>
<defs>
<filter id="filter0_d_5240_237363" x="0" y="0" width="668" height="312" filterUnits="userSpaceOnUse" color-interpolation-filters="sRGB">
<feFlood flood-opacity="0" result="BackgroundImageFix"/>
<feColorMatrix in="SourceAlpha" type="matrix" values="0 0 0 0 0 0 0 0 0 0 0 0 0 0 0 0 0 0 127 0" result="hardAlpha"/>
<feMorphology radius="16" operator="erode" in="SourceAlpha" result="effect1_dropShadow_5240_237363"/>
<feOffset dy="20"/>
<feGaussianBlur stdDeviation="29"/>
<feColorMatrix type="matrix" values="0 0 0 0 0 0 0 0 0 0 0 0 0 0 0 0 0 0 0.16 0"/>
<feBlend mode="normal" in2="BackgroundImageFix" result="effect1_dropShadow_5240_237363"/>
<feBlend mode="normal" in="SourceGraphic" in2="effect1_dropShadow_5240_237363" result="shape"/>
</filter>
</defs>
</svg>
