<svg width="683" height="420" viewBox="0 0 683 420" fill="none" xmlns="http://www.w3.org/2000/svg">
<rect width="683" height="420" fill="#3F4350"/>
<g filter="url(#filter0_d_5240_237567)">
<path d="M101.5 120C101.5 108.686 101.5 103.029 105.015 99.5147C108.529 96 114.186 96 125.5 96H557.5C568.814 96 574.471 96 577.985 99.5147C581.5 103.029 581.5 108.686 581.5 120V300C581.5 311.314 581.5 316.971 577.985 320.485C574.471 324 568.814 324 557.5 324H125.5C114.186 324 108.529 324 105.015 320.485C101.5 316.971 101.5 311.314 101.5 300V120Z" fill="#1C1D23"/>
<path d="M140.5 125.344C137.997 125.344 135.55 126.086 133.469 127.477C131.387 128.867 129.765 130.844 128.807 133.157C127.849 135.469 127.599 138.014 128.087 140.469C128.575 142.924 129.781 145.179 131.551 146.949C133.321 148.719 135.576 149.925 138.031 150.413C140.486 150.901 143.031 150.651 145.343 149.693C147.656 148.735 149.633 147.113 151.023 145.031C152.414 142.95 153.156 140.503 153.156 138C153.153 134.644 151.818 131.427 149.445 129.055C147.073 126.682 143.856 125.347 140.5 125.344ZM140.5 147.844C138.553 147.844 136.65 147.266 135.031 146.185C133.412 145.103 132.151 143.566 131.406 141.767C130.661 139.968 130.466 137.989 130.845 136.08C131.225 134.17 132.163 132.416 133.539 131.039C134.916 129.663 136.67 128.725 138.58 128.345C140.489 127.966 142.468 128.161 144.267 128.906C146.066 129.651 147.603 130.912 148.685 132.531C149.766 134.15 150.344 136.053 150.344 138C150.341 140.61 149.303 143.112 147.458 144.957C145.612 146.803 143.11 147.841 140.5 147.844ZM139.094 138.469V132.375C139.094 132.002 139.242 131.644 139.506 131.381C139.769 131.117 140.127 130.969 140.5 130.969C140.873 130.969 141.231 131.117 141.494 131.381C141.758 131.644 141.906 132.002 141.906 132.375V138.469C141.906 138.842 141.758 139.199 141.494 139.463C141.231 139.727 140.873 139.875 140.5 139.875C140.127 139.875 139.769 139.727 139.506 139.463C139.242 139.199 139.094 138.842 139.094 138.469ZM142.375 143.156C142.375 143.527 142.265 143.89 142.059 144.198C141.853 144.506 141.56 144.747 141.218 144.889C140.875 145.03 140.498 145.068 140.134 144.995C139.77 144.923 139.436 144.744 139.174 144.482C138.912 144.22 138.733 143.886 138.661 143.522C138.589 143.158 138.626 142.781 138.768 142.439C138.91 142.096 139.15 141.803 139.458 141.597C139.767 141.391 140.129 141.281 140.5 141.281C140.997 141.281 141.474 141.479 141.826 141.83C142.177 142.182 142.375 142.659 142.375 143.156Z" fill="#F1F2F4"/>
<path d="M168.012 140.832V137.904H171.66C172.124 137.904 172.548 137.808 172.932 137.616C173.316 137.424 173.62 137.144 173.844 136.776C174.068 136.408 174.18 135.96 174.18 135.432C174.18 134.92 174.068 134.48 173.844 134.112C173.62 133.744 173.316 133.464 172.932 133.272C172.548 133.08 172.124 132.984 171.66 132.984H168.012V130.056H172.212C173.284 130.056 174.252 130.272 175.116 130.704C175.98 131.136 176.66 131.76 177.156 132.576C177.668 133.376 177.924 134.328 177.924 135.432C177.924 136.536 177.668 137.496 177.156 138.312C176.66 139.112 175.98 139.736 175.116 140.184C174.252 140.616 173.284 140.832 172.212 140.832H168.012ZM165.132 147V130.056H168.9V147H165.132ZM185.134 147.264C183.87 147.264 182.742 147.008 181.75 146.496C180.774 145.968 180.006 145.24 179.446 144.312C178.886 143.384 178.606 142.336 178.606 141.168C178.606 140 178.878 138.96 179.422 138.048C179.982 137.12 180.734 136.392 181.678 135.864C182.622 135.336 183.686 135.072 184.87 135.072C186.022 135.072 187.038 135.32 187.918 135.816C188.798 136.312 189.486 137 189.982 137.88C190.494 138.76 190.75 139.768 190.75 140.904C190.75 141.112 190.734 141.336 190.702 141.576C190.686 141.8 190.646 142.064 190.582 142.368L180.526 142.392V139.872L189.022 139.848L187.438 140.904C187.422 140.232 187.318 139.68 187.126 139.248C186.934 138.8 186.646 138.464 186.262 138.24C185.894 138 185.438 137.88 184.894 137.88C184.318 137.88 183.814 138.016 183.382 138.288C182.966 138.544 182.638 138.912 182.398 139.392C182.174 139.872 182.062 140.456 182.062 141.144C182.062 141.832 182.182 142.424 182.422 142.92C182.678 143.4 183.03 143.776 183.478 144.048C183.942 144.304 184.486 144.432 185.11 144.432C185.686 144.432 186.206 144.336 186.67 144.144C187.134 143.936 187.542 143.632 187.894 143.232L189.91 145.248C189.334 145.92 188.638 146.424 187.822 146.76C187.006 147.096 186.11 147.264 185.134 147.264ZM192.523 147V135.336H196.195V147H192.523ZM196.195 140.592L194.659 139.392C194.963 138.032 195.475 136.976 196.195 136.224C196.915 135.472 197.915 135.096 199.195 135.096C199.755 135.096 200.243 135.184 200.659 135.36C201.091 135.52 201.467 135.776 201.787 136.128L199.603 138.888C199.443 138.712 199.243 138.576 199.003 138.48C198.763 138.384 198.491 138.336 198.187 138.336C197.579 138.336 197.091 138.528 196.723 138.912C196.371 139.28 196.195 139.84 196.195 140.592ZM202.694 147V135.336H206.366V147H202.694ZM210.158 147V140.184C210.158 139.592 209.974 139.136 209.606 138.816C209.254 138.48 208.814 138.312 208.286 138.312C207.918 138.312 207.59 138.392 207.302 138.552C207.014 138.696 206.782 138.904 206.606 139.176C206.446 139.448 206.366 139.784 206.366 140.184L204.95 139.56C204.95 138.632 205.15 137.84 205.55 137.184C205.95 136.512 206.494 136 207.182 135.648C207.87 135.28 208.646 135.096 209.51 135.096C210.326 135.096 211.054 135.28 211.694 135.648C212.35 136.016 212.87 136.528 213.254 137.184C213.638 137.84 213.83 138.624 213.83 139.536V147H210.158ZM217.622 147V140.184C217.622 139.592 217.438 139.136 217.07 138.816C216.718 138.48 216.278 138.312 215.75 138.312C215.382 138.312 215.054 138.392 214.766 138.552C214.478 138.696 214.246 138.904 214.07 139.176C213.91 139.448 213.83 139.784 213.83 140.184L211.718 139.896C211.75 138.904 211.982 138.056 212.414 137.352C212.862 136.632 213.446 136.08 214.166 135.696C214.902 135.296 215.726 135.096 216.638 135.096C217.534 135.096 218.326 135.288 219.014 135.672C219.718 136.04 220.27 136.576 220.67 137.28C221.086 137.968 221.294 138.8 221.294 139.776V147H217.622ZM228.52 147.24C227.448 147.24 226.488 146.976 225.64 146.448C224.808 145.92 224.144 145.2 223.648 144.288C223.168 143.376 222.928 142.336 222.928 141.168C222.928 140 223.168 138.96 223.648 138.048C224.144 137.136 224.808 136.416 225.64 135.888C226.488 135.36 227.448 135.096 228.52 135.096C229.304 135.096 230.008 135.248 230.632 135.552C231.272 135.856 231.792 136.28 232.192 136.824C232.592 137.352 232.816 137.96 232.864 138.648V143.688C232.816 144.376 232.592 144.992 232.192 145.536C231.808 146.064 231.296 146.48 230.656 146.784C230.016 147.088 229.304 147.24 228.52 147.24ZM229.264 143.928C230.048 143.928 230.68 143.672 231.16 143.16C231.64 142.632 231.88 141.968 231.88 141.168C231.88 140.624 231.768 140.144 231.544 139.728C231.336 139.312 231.032 138.992 230.632 138.768C230.248 138.528 229.8 138.408 229.288 138.408C228.776 138.408 228.32 138.528 227.92 138.768C227.536 138.992 227.224 139.312 226.984 139.728C226.76 140.144 226.648 140.624 226.648 141.168C226.648 141.696 226.76 142.168 226.984 142.584C227.208 143 227.52 143.328 227.92 143.568C228.32 143.808 228.768 143.928 229.264 143.928ZM231.736 147V143.856L232.288 141.024L231.736 138.192V135.336H235.336V147H231.736ZM245.625 147V140.352C245.625 139.744 245.433 139.256 245.049 138.888C244.681 138.504 244.209 138.312 243.633 138.312C243.233 138.312 242.881 138.4 242.577 138.576C242.273 138.736 242.033 138.976 241.857 139.296C241.681 139.6 241.593 139.952 241.593 140.352L240.177 139.656C240.177 138.744 240.377 137.944 240.777 137.256C241.177 136.568 241.729 136.04 242.433 135.672C243.153 135.288 243.961 135.096 244.857 135.096C245.721 135.096 246.481 135.304 247.137 135.72C247.809 136.12 248.337 136.656 248.721 137.328C249.105 138 249.297 138.736 249.297 139.536V147H245.625ZM237.921 147V135.336H241.593V147H237.921ZM257.415 147.264C256.151 147.264 255.023 147.008 254.031 146.496C253.055 145.968 252.287 145.24 251.727 144.312C251.167 143.384 250.887 142.336 250.887 141.168C250.887 140 251.159 138.96 251.703 138.048C252.263 137.12 253.015 136.392 253.959 135.864C254.903 135.336 255.967 135.072 257.151 135.072C258.303 135.072 259.319 135.32 260.199 135.816C261.079 136.312 261.767 137 262.263 137.88C262.775 138.76 263.031 139.768 263.031 140.904C263.031 141.112 263.015 141.336 262.983 141.576C262.967 141.8 262.927 142.064 262.863 142.368L252.807 142.392V139.872L261.303 139.848L259.719 140.904C259.703 140.232 259.599 139.68 259.407 139.248C259.215 138.8 258.927 138.464 258.543 138.24C258.175 138 257.719 137.88 257.175 137.88C256.599 137.88 256.095 138.016 255.663 138.288C255.247 138.544 254.919 138.912 254.679 139.392C254.455 139.872 254.343 140.456 254.343 141.144C254.343 141.832 254.463 142.424 254.703 142.92C254.959 143.4 255.311 143.776 255.759 144.048C256.223 144.304 256.767 144.432 257.391 144.432C257.967 144.432 258.487 144.336 258.951 144.144C259.415 143.936 259.823 143.632 260.175 143.232L262.191 145.248C261.615 145.92 260.919 146.424 260.103 146.76C259.287 147.096 258.391 147.264 257.415 147.264ZM272.508 147V140.352C272.508 139.744 272.316 139.256 271.932 138.888C271.564 138.504 271.092 138.312 270.516 138.312C270.116 138.312 269.764 138.4 269.46 138.576C269.156 138.736 268.916 138.976 268.74 139.296C268.564 139.6 268.476 139.952 268.476 140.352L267.06 139.656C267.06 138.744 267.26 137.944 267.66 137.256C268.06 136.568 268.612 136.04 269.316 135.672C270.036 135.288 270.844 135.096 271.74 135.096C272.604 135.096 273.364 135.304 274.02 135.72C274.692 136.12 275.22 136.656 275.604 137.328C275.988 138 276.18 138.736 276.18 139.536V147H272.508ZM264.804 147V135.336H268.476V147H264.804ZM280.054 147V130.512H283.726V147H280.054ZM277.414 138.456V135.336H286.366V138.456H277.414ZM287.984 147V129.576H291.656V147H287.984ZM297.841 147.048L293.041 135.336H297.001L300.049 144.624H298.585L301.705 135.336H305.665L300.673 147.048H297.841ZM294.841 151.92L298.345 144.36L300.673 147.048L298.609 151.92H294.841ZM316.6 147.24C315.496 147.24 314.512 146.976 313.648 146.448C312.8 145.92 312.128 145.2 311.632 144.288C311.152 143.376 310.912 142.336 310.912 141.168C310.912 140 311.152 138.96 311.632 138.048C312.128 137.136 312.8 136.416 313.648 135.888C314.512 135.36 315.496 135.096 316.6 135.096C317.4 135.096 318.12 135.248 318.76 135.552C319.416 135.856 319.952 136.28 320.368 136.824C320.8 137.352 321.04 137.96 321.088 138.648V143.568C321.04 144.256 320.808 144.88 320.392 145.44C319.976 145.984 319.44 146.424 318.784 146.76C318.128 147.08 317.4 147.24 316.6 147.24ZM317.248 143.928C317.776 143.928 318.232 143.816 318.616 143.592C319 143.352 319.304 143.024 319.528 142.608C319.752 142.192 319.864 141.712 319.864 141.168C319.864 140.624 319.752 140.152 319.528 139.752C319.32 139.336 319.016 139.008 318.616 138.768C318.232 138.528 317.784 138.408 317.272 138.408C316.76 138.408 316.304 138.528 315.904 138.768C315.52 139.008 315.208 139.336 314.968 139.752C314.744 140.168 314.632 140.64 314.632 141.168C314.632 141.696 314.744 142.168 314.968 142.584C315.192 143 315.504 143.328 315.904 143.568C316.304 143.808 316.752 143.928 317.248 143.928ZM323.32 147H319.72V143.856L320.272 141.024L319.648 138.192V129.576H323.32V147ZM331.665 147.264C330.401 147.264 329.273 147.008 328.281 146.496C327.305 145.968 326.537 145.24 325.977 144.312C325.417 143.384 325.137 142.336 325.137 141.168C325.137 140 325.409 138.96 325.953 138.048C326.513 137.12 327.265 136.392 328.209 135.864C329.153 135.336 330.217 135.072 331.401 135.072C332.553 135.072 333.569 135.32 334.449 135.816C335.329 136.312 336.017 137 336.513 137.88C337.025 138.76 337.281 139.768 337.281 140.904C337.281 141.112 337.265 141.336 337.233 141.576C337.217 141.8 337.177 142.064 337.113 142.368L327.057 142.392V139.872L335.553 139.848L333.969 140.904C333.953 140.232 333.849 139.68 333.657 139.248C333.465 138.8 333.177 138.464 332.793 138.24C332.425 138 331.969 137.88 331.425 137.88C330.849 137.88 330.345 138.016 329.913 138.288C329.497 138.544 329.169 138.912 328.929 139.392C328.705 139.872 328.593 140.456 328.593 141.144C328.593 141.832 328.713 142.424 328.953 142.92C329.209 143.4 329.561 143.776 330.009 144.048C330.473 144.304 331.017 144.432 331.641 144.432C332.217 144.432 332.737 144.336 333.201 144.144C333.665 143.936 334.073 143.632 334.425 143.232L336.441 145.248C335.865 145.92 335.169 146.424 334.353 146.76C333.537 147.096 332.641 147.264 331.665 147.264ZM339.054 147V129.576H342.726V147H339.054ZM351.072 147.264C349.808 147.264 348.68 147.008 347.688 146.496C346.712 145.968 345.944 145.24 345.384 144.312C344.824 143.384 344.544 142.336 344.544 141.168C344.544 140 344.816 138.96 345.36 138.048C345.92 137.12 346.672 136.392 347.616 135.864C348.56 135.336 349.624 135.072 350.808 135.072C351.96 135.072 352.976 135.32 353.856 135.816C354.736 136.312 355.424 137 355.92 137.88C356.432 138.76 356.688 139.768 356.688 140.904C356.688 141.112 356.672 141.336 356.64 141.576C356.624 141.8 356.584 142.064 356.52 142.368L346.464 142.392V139.872L354.96 139.848L353.376 140.904C353.36 140.232 353.256 139.68 353.064 139.248C352.872 138.8 352.584 138.464 352.2 138.24C351.832 138 351.376 137.88 350.832 137.88C350.256 137.88 349.752 138.016 349.32 138.288C348.904 138.544 348.576 138.912 348.336 139.392C348.112 139.872 348 140.456 348 141.144C348 141.832 348.12 142.424 348.36 142.92C348.616 143.4 348.968 143.776 349.416 144.048C349.88 144.304 350.424 144.432 351.048 144.432C351.624 144.432 352.144 144.336 352.608 144.144C353.072 143.936 353.48 143.632 353.832 143.232L355.848 145.248C355.272 145.92 354.576 146.424 353.76 146.76C352.944 147.096 352.048 147.264 351.072 147.264ZM359.858 147V130.512H363.53V147H359.858ZM357.218 138.456V135.336H366.17V138.456H357.218ZM373.314 147.264C372.05 147.264 370.922 147.008 369.93 146.496C368.954 145.968 368.186 145.24 367.626 144.312C367.066 143.384 366.786 142.336 366.786 141.168C366.786 140 367.058 138.96 367.602 138.048C368.162 137.12 368.914 136.392 369.858 135.864C370.802 135.336 371.866 135.072 373.05 135.072C374.202 135.072 375.218 135.32 376.098 135.816C376.978 136.312 377.666 137 378.162 137.88C378.674 138.76 378.93 139.768 378.93 140.904C378.93 141.112 378.914 141.336 378.882 141.576C378.866 141.8 378.826 142.064 378.762 142.368L368.706 142.392V139.872L377.202 139.848L375.618 140.904C375.602 140.232 375.498 139.68 375.306 139.248C375.114 138.8 374.826 138.464 374.442 138.24C374.074 138 373.618 137.88 373.074 137.88C372.498 137.88 371.994 138.016 371.562 138.288C371.146 138.544 370.818 138.912 370.578 139.392C370.354 139.872 370.242 140.456 370.242 141.144C370.242 141.832 370.362 142.424 370.602 142.92C370.858 143.4 371.21 143.776 371.658 144.048C372.122 144.304 372.666 144.432 373.29 144.432C373.866 144.432 374.386 144.336 374.85 144.144C375.314 143.936 375.722 143.632 376.074 143.232L378.09 145.248C377.514 145.92 376.818 146.424 376.002 146.76C375.186 147.096 374.29 147.264 373.314 147.264ZM385.273 147V135.336H388.945V147H385.273ZM388.945 140.592L387.409 139.392C387.713 138.032 388.225 136.976 388.945 136.224C389.665 135.472 390.665 135.096 391.945 135.096C392.505 135.096 392.993 135.184 393.409 135.36C393.841 135.52 394.217 135.776 394.537 136.128L392.353 138.888C392.193 138.712 391.993 138.576 391.753 138.48C391.513 138.384 391.241 138.336 390.937 138.336C390.329 138.336 389.841 138.528 389.473 138.912C389.121 139.28 388.945 139.84 388.945 140.592ZM400.947 147.264C399.683 147.264 398.555 147.008 397.563 146.496C396.587 145.968 395.819 145.24 395.259 144.312C394.699 143.384 394.419 142.336 394.419 141.168C394.419 140 394.691 138.96 395.235 138.048C395.795 137.12 396.547 136.392 397.491 135.864C398.435 135.336 399.499 135.072 400.683 135.072C401.835 135.072 402.851 135.32 403.731 135.816C404.611 136.312 405.299 137 405.795 137.88C406.307 138.76 406.563 139.768 406.563 140.904C406.563 141.112 406.547 141.336 406.515 141.576C406.499 141.8 406.459 142.064 406.395 142.368L396.339 142.392V139.872L404.835 139.848L403.251 140.904C403.235 140.232 403.131 139.68 402.939 139.248C402.747 138.8 402.459 138.464 402.075 138.24C401.707 138 401.251 137.88 400.707 137.88C400.131 137.88 399.627 138.016 399.195 138.288C398.779 138.544 398.451 138.912 398.211 139.392C397.987 139.872 397.875 140.456 397.875 141.144C397.875 141.832 397.995 142.424 398.235 142.92C398.491 143.4 398.843 143.776 399.291 144.048C399.755 144.304 400.299 144.432 400.923 144.432C401.499 144.432 402.019 144.336 402.483 144.144C402.947 143.936 403.355 143.632 403.707 143.232L405.723 145.248C405.147 145.92 404.451 146.424 403.635 146.76C402.819 147.096 401.923 147.264 400.947 147.264ZM413.975 147.264C412.775 147.264 411.687 147 410.711 146.472C409.735 145.944 408.967 145.216 408.407 144.288C407.847 143.36 407.567 142.32 407.567 141.168C407.567 140 407.847 138.96 408.407 138.048C408.983 137.12 409.759 136.392 410.735 135.864C411.711 135.336 412.807 135.072 414.023 135.072C414.935 135.072 415.767 135.232 416.519 135.552C417.287 135.856 417.967 136.32 418.559 136.944L416.207 139.296C415.935 138.992 415.615 138.768 415.247 138.624C414.895 138.48 414.487 138.408 414.023 138.408C413.495 138.408 413.023 138.528 412.607 138.768C412.207 138.992 411.887 139.312 411.647 139.728C411.423 140.128 411.311 140.6 411.311 141.144C411.311 141.688 411.423 142.168 411.647 142.584C411.887 143 412.215 143.328 412.631 143.568C413.047 143.808 413.511 143.928 414.023 143.928C414.503 143.928 414.927 143.848 415.295 143.688C415.679 143.512 416.007 143.272 416.279 142.968L418.607 145.32C417.999 145.96 417.311 146.448 416.543 146.784C415.775 147.104 414.919 147.264 413.975 147.264ZM425.576 147.264C424.376 147.264 423.288 147 422.312 146.472C421.352 145.928 420.592 145.192 420.032 144.264C419.472 143.336 419.192 142.296 419.192 141.144C419.192 139.992 419.472 138.96 420.032 138.048C420.592 137.136 421.352 136.416 422.312 135.888C423.272 135.344 424.36 135.072 425.576 135.072C426.792 135.072 427.88 135.336 428.84 135.864C429.8 136.392 430.56 137.12 431.12 138.048C431.68 138.96 431.96 139.992 431.96 141.144C431.96 142.296 431.68 143.336 431.12 144.264C430.56 145.192 429.8 145.928 428.84 146.472C427.88 147 426.792 147.264 425.576 147.264ZM425.576 143.928C426.104 143.928 426.568 143.816 426.968 143.592C427.368 143.352 427.672 143.024 427.88 142.608C428.104 142.176 428.216 141.688 428.216 141.144C428.216 140.6 428.104 140.128 427.88 139.728C427.656 139.312 427.344 138.992 426.944 138.768C426.56 138.528 426.104 138.408 425.576 138.408C425.064 138.408 424.608 138.528 424.208 138.768C423.808 138.992 423.496 139.312 423.272 139.728C423.048 140.144 422.936 140.624 422.936 141.168C422.936 141.696 423.048 142.176 423.272 142.608C423.496 143.024 423.808 143.352 424.208 143.592C424.608 143.816 425.064 143.928 425.576 143.928ZM433.788 147V135.336H437.46V147H433.788ZM437.46 140.592L435.924 139.392C436.228 138.032 436.74 136.976 437.46 136.224C438.18 135.472 439.18 135.096 440.46 135.096C441.02 135.096 441.508 135.184 441.924 135.36C442.356 135.52 442.732 135.776 443.052 136.128L440.868 138.888C440.708 138.712 440.508 138.576 440.268 138.48C440.028 138.384 439.756 138.336 439.452 138.336C438.844 138.336 438.356 138.528 437.988 138.912C437.636 139.28 437.46 139.84 437.46 140.592ZM448.67 147.24C447.566 147.24 446.582 146.976 445.718 146.448C444.87 145.92 444.198 145.2 443.702 144.288C443.222 143.376 442.982 142.336 442.982 141.168C442.982 140 443.222 138.96 443.702 138.048C444.198 137.136 444.87 136.416 445.718 135.888C446.582 135.36 447.566 135.096 448.67 135.096C449.47 135.096 450.19 135.248 450.83 135.552C451.486 135.856 452.022 136.28 452.438 136.824C452.87 137.352 453.11 137.96 453.158 138.648V143.568C453.11 144.256 452.878 144.88 452.462 145.44C452.046 145.984 451.51 146.424 450.854 146.76C450.198 147.08 449.47 147.24 448.67 147.24ZM449.318 143.928C449.846 143.928 450.302 143.816 450.686 143.592C451.07 143.352 451.374 143.024 451.598 142.608C451.822 142.192 451.934 141.712 451.934 141.168C451.934 140.624 451.822 140.152 451.598 139.752C451.39 139.336 451.086 139.008 450.686 138.768C450.302 138.528 449.854 138.408 449.342 138.408C448.83 138.408 448.374 138.528 447.974 138.768C447.59 139.008 447.278 139.336 447.038 139.752C446.814 140.168 446.702 140.64 446.702 141.168C446.702 141.696 446.814 142.168 447.038 142.584C447.262 143 447.574 143.328 447.974 143.568C448.374 143.808 448.822 143.928 449.318 143.928ZM455.39 147H451.79V143.856L452.342 141.024L451.718 138.192V129.576H455.39V147ZM461.48 140.88L461.288 136.272H462.32C462.72 136.272 463.064 136.2 463.352 136.056C463.656 135.912 463.888 135.712 464.048 135.456C464.224 135.184 464.312 134.864 464.312 134.496C464.312 134.144 464.232 133.84 464.072 133.584C463.912 133.312 463.688 133.112 463.4 132.984C463.112 132.84 462.776 132.768 462.392 132.768C461.8 132.768 461.256 132.944 460.76 133.296C460.28 133.632 459.888 134.096 459.584 134.688L457.232 132.48C457.712 131.536 458.408 130.776 459.32 130.2C460.232 129.608 461.312 129.312 462.56 129.312C463.6 129.312 464.52 129.528 465.32 129.96C466.12 130.392 466.744 130.984 467.192 131.736C467.64 132.472 467.864 133.304 467.864 134.232C467.864 135.176 467.672 135.984 467.288 136.656C466.904 137.328 466.384 137.88 465.728 138.312C465.072 138.728 464.328 139.024 463.496 139.2L464.576 137.784L464.36 140.88H461.48ZM462.92 147.264C462.28 147.264 461.752 147.048 461.336 146.616C460.936 146.184 460.736 145.664 460.736 145.056C460.736 144.416 460.936 143.888 461.336 143.472C461.752 143.04 462.28 142.824 462.92 142.824C463.544 142.824 464.056 143.04 464.456 143.472C464.872 143.888 465.08 144.416 465.08 145.056C465.08 145.664 464.872 146.184 464.456 146.616C464.056 147.048 463.544 147.264 462.92 147.264Z" fill="#F1F2F4"/>
<path d="M549.046 143.954C549.257 144.165 549.376 144.452 549.376 144.751C549.376 145.05 549.257 145.336 549.046 145.548C548.835 145.759 548.548 145.878 548.249 145.878C547.95 145.878 547.663 145.759 547.452 145.548L541.5 139.594L535.546 145.546C535.335 145.757 535.048 145.876 534.749 145.876C534.45 145.876 534.163 145.757 533.952 145.546C533.741 145.335 533.622 145.048 533.622 144.749C533.622 144.45 533.741 144.163 533.952 143.952L539.906 138L533.954 132.046C533.743 131.835 533.624 131.548 533.624 131.249C533.624 130.95 533.743 130.663 533.954 130.452C534.165 130.241 534.452 130.122 534.751 130.122C535.05 130.122 535.336 130.241 535.548 130.452L541.5 136.406L547.454 130.451C547.665 130.24 547.952 130.121 548.251 130.121C548.55 130.121 548.836 130.24 549.048 130.451C549.259 130.663 549.378 130.949 549.378 131.248C549.378 131.547 549.259 131.834 549.048 132.045L543.094 138L549.046 143.954Z" fill="#F1F2F4"/>
<path d="M125.996 198L130.54 186.896H131.628L136.156 198H134.524L130.796 188.608H131.356L127.596 198H125.996ZM128.156 195.488V194.176H133.996V195.488H128.156ZM137.697 198V186.576H139.137V198H137.697ZM141.243 198V186.576H142.684V198H141.243ZM153.495 198V193.568C153.495 192.992 153.313 192.517 152.951 192.144C152.588 191.771 152.119 191.584 151.543 191.584C151.159 191.584 150.817 191.669 150.519 191.84C150.22 192.011 149.985 192.245 149.815 192.544C149.644 192.843 149.559 193.184 149.559 193.568L148.967 193.232C148.967 192.656 149.095 192.144 149.351 191.696C149.607 191.248 149.964 190.896 150.423 190.64C150.881 190.373 151.399 190.24 151.975 190.24C152.551 190.24 153.057 190.384 153.495 190.672C153.943 190.96 154.295 191.339 154.551 191.808C154.807 192.267 154.935 192.757 154.935 193.28V198H153.495ZM148.118 198V190.4H149.559V198H148.118ZM160.404 198.16C159.647 198.16 158.964 197.989 158.356 197.648C157.748 197.296 157.268 196.821 156.916 196.224C156.564 195.627 156.388 194.949 156.388 194.192C156.388 193.445 156.559 192.773 156.9 192.176C157.252 191.579 157.721 191.109 158.308 190.768C158.905 190.416 159.572 190.24 160.308 190.24C161.012 190.24 161.631 190.4 162.164 190.72C162.708 191.04 163.129 191.483 163.428 192.048C163.737 192.613 163.892 193.253 163.892 193.968C163.892 194.075 163.887 194.192 163.876 194.32C163.865 194.437 163.844 194.576 163.812 194.736H157.396V193.536H163.044L162.516 194C162.516 193.488 162.425 193.056 162.244 192.704C162.063 192.341 161.807 192.064 161.476 191.872C161.145 191.669 160.745 191.568 160.276 191.568C159.785 191.568 159.353 191.675 158.98 191.888C158.607 192.101 158.319 192.4 158.116 192.784C157.913 193.168 157.812 193.621 157.812 194.144C157.812 194.677 157.919 195.147 158.132 195.552C158.345 195.947 158.649 196.256 159.044 196.48C159.439 196.693 159.892 196.8 160.404 196.8C160.831 196.8 161.22 196.725 161.572 196.576C161.935 196.427 162.244 196.203 162.5 195.904L163.428 196.848C163.065 197.275 162.617 197.6 162.084 197.824C161.561 198.048 161.001 198.16 160.404 198.16ZM167.545 198L164.537 190.4H166.041L168.217 196.32H167.737L169.897 190.4H170.729L172.889 196.32H172.409L174.585 190.4H176.089L173.097 198H172.249L170.057 192.256H170.585L168.377 198H167.545ZM183.753 198.16C183.134 198.16 182.574 198.021 182.073 197.744C181.582 197.456 181.198 197.061 180.921 196.56C180.643 196.059 180.505 195.477 180.505 194.816V190.4H181.945V194.752C181.945 195.168 182.014 195.531 182.153 195.84C182.302 196.139 182.515 196.368 182.793 196.528C183.07 196.688 183.395 196.768 183.769 196.768C184.334 196.768 184.777 196.592 185.097 196.24C185.417 195.877 185.577 195.381 185.577 194.752V190.4H187.017V194.816C187.017 195.477 186.878 196.059 186.601 196.56C186.323 197.061 185.939 197.456 185.449 197.744C184.969 198.021 184.403 198.16 183.753 198.16ZM191.363 198.16C190.936 198.16 190.531 198.107 190.147 198C189.773 197.883 189.427 197.723 189.107 197.52C188.787 197.307 188.509 197.056 188.275 196.768L189.203 195.84C189.48 196.181 189.8 196.437 190.163 196.608C190.525 196.768 190.931 196.848 191.379 196.848C191.827 196.848 192.173 196.773 192.419 196.624C192.664 196.464 192.787 196.245 192.787 195.968C192.787 195.691 192.685 195.477 192.483 195.328C192.291 195.168 192.04 195.04 191.731 194.944C191.421 194.837 191.091 194.736 190.739 194.64C190.397 194.533 190.072 194.4 189.763 194.24C189.453 194.08 189.197 193.861 188.995 193.584C188.803 193.307 188.707 192.939 188.707 192.48C188.707 192.021 188.819 191.627 189.043 191.296C189.267 190.955 189.576 190.693 189.971 190.512C190.376 190.331 190.861 190.24 191.427 190.24C192.024 190.24 192.552 190.347 193.011 190.56C193.48 190.763 193.864 191.072 194.163 191.488L193.235 192.416C193.021 192.139 192.755 191.925 192.435 191.776C192.125 191.627 191.773 191.552 191.379 191.552C190.963 191.552 190.643 191.627 190.419 191.776C190.205 191.915 190.099 192.112 190.099 192.368C190.099 192.624 190.195 192.821 190.387 192.96C190.579 193.099 190.829 193.216 191.139 193.312C191.459 193.408 191.789 193.509 192.131 193.616C192.472 193.712 192.797 193.845 193.107 194.016C193.416 194.187 193.667 194.416 193.859 194.704C194.061 194.992 194.163 195.371 194.163 195.84C194.163 196.555 193.907 197.12 193.395 197.536C192.893 197.952 192.216 198.16 191.363 198.16ZM199.295 198.16C198.537 198.16 197.855 197.989 197.247 197.648C196.639 197.296 196.159 196.821 195.807 196.224C195.455 195.627 195.279 194.949 195.279 194.192C195.279 193.445 195.449 192.773 195.791 192.176C196.143 191.579 196.612 191.109 197.199 190.768C197.796 190.416 198.463 190.24 199.199 190.24C199.903 190.24 200.521 190.4 201.055 190.72C201.599 191.04 202.02 191.483 202.319 192.048C202.628 192.613 202.783 193.253 202.783 193.968C202.783 194.075 202.777 194.192 202.767 194.32C202.756 194.437 202.735 194.576 202.703 194.736H196.287V193.536H201.935L201.407 194C201.407 193.488 201.316 193.056 201.135 192.704C200.953 192.341 200.697 192.064 200.367 191.872C200.036 191.669 199.636 191.568 199.167 191.568C198.676 191.568 198.244 191.675 197.871 191.888C197.497 192.101 197.209 192.4 197.007 192.784C196.804 193.168 196.703 193.621 196.703 194.144C196.703 194.677 196.809 195.147 197.023 195.552C197.236 195.947 197.54 196.256 197.935 196.48C198.329 196.693 198.783 196.8 199.295 196.8C199.721 196.8 200.111 196.725 200.463 196.576C200.825 196.427 201.135 196.203 201.391 195.904L202.319 196.848C201.956 197.275 201.508 197.6 200.975 197.824C200.452 198.048 199.892 198.16 199.295 198.16ZM204.353 198V190.4H205.793V198H204.353ZM205.793 193.664L205.249 193.424C205.249 192.453 205.473 191.68 205.921 191.104C206.369 190.528 207.014 190.24 207.857 190.24C208.241 190.24 208.588 190.309 208.897 190.448C209.206 190.576 209.494 190.795 209.761 191.104L208.817 192.08C208.657 191.909 208.481 191.787 208.289 191.712C208.097 191.637 207.873 191.6 207.617 191.6C207.084 191.6 206.646 191.771 206.305 192.112C205.964 192.453 205.793 192.971 205.793 193.664ZM211.209 190.432L212.201 188.528L212.713 188.4C212.66 188.517 212.591 188.613 212.505 188.688C212.431 188.763 212.335 188.8 212.217 188.8C211.993 188.8 211.785 188.709 211.593 188.528C211.412 188.336 211.321 188.101 211.321 187.824C211.321 187.525 211.423 187.269 211.625 187.056C211.839 186.843 212.095 186.736 212.393 186.736C212.671 186.736 212.916 186.843 213.129 187.056C213.343 187.269 213.449 187.525 213.449 187.824C213.449 187.941 213.423 188.085 213.369 188.256C213.327 188.416 213.236 188.629 213.097 188.896L212.041 190.88L211.209 190.432ZM216.597 198.16C216.17 198.16 215.765 198.107 215.381 198C215.008 197.883 214.661 197.723 214.341 197.52C214.021 197.307 213.744 197.056 213.509 196.768L214.437 195.84C214.714 196.181 215.034 196.437 215.397 196.608C215.76 196.768 216.165 196.848 216.613 196.848C217.061 196.848 217.408 196.773 217.653 196.624C217.898 196.464 218.021 196.245 218.021 195.968C218.021 195.691 217.92 195.477 217.717 195.328C217.525 195.168 217.274 195.04 216.965 194.944C216.656 194.837 216.325 194.736 215.973 194.64C215.632 194.533 215.306 194.4 214.997 194.24C214.688 194.08 214.432 193.861 214.229 193.584C214.037 193.307 213.941 192.939 213.941 192.48C213.941 192.021 214.053 191.627 214.277 191.296C214.501 190.955 214.81 190.693 215.205 190.512C215.61 190.331 216.096 190.24 216.661 190.24C217.258 190.24 217.786 190.347 218.245 190.56C218.714 190.763 219.098 191.072 219.397 191.488L218.469 192.416C218.256 192.139 217.989 191.925 217.669 191.776C217.36 191.627 217.008 191.552 216.613 191.552C216.197 191.552 215.877 191.627 215.653 191.776C215.44 191.915 215.333 192.112 215.333 192.368C215.333 192.624 215.429 192.821 215.621 192.96C215.813 193.099 216.064 193.216 216.373 193.312C216.693 193.408 217.024 193.509 217.365 193.616C217.706 193.712 218.032 193.845 218.341 194.016C218.65 194.187 218.901 194.416 219.093 194.704C219.296 194.992 219.397 195.371 219.397 195.84C219.397 196.555 219.141 197.12 218.629 197.536C218.128 197.952 217.45 198.16 216.597 198.16ZM227.553 198.16C226.849 198.16 226.22 197.989 225.665 197.648C225.111 197.296 224.668 196.821 224.337 196.224C224.017 195.627 223.857 194.955 223.857 194.208C223.857 193.461 224.017 192.789 224.337 192.192C224.668 191.595 225.111 191.12 225.665 190.768C226.22 190.416 226.849 190.24 227.553 190.24C228.119 190.24 228.631 190.363 229.089 190.608C229.548 190.843 229.916 191.173 230.193 191.6C230.481 192.016 230.641 192.501 230.673 193.056V195.344C230.641 195.888 230.487 196.373 230.209 196.8C229.932 197.227 229.564 197.563 229.105 197.808C228.647 198.043 228.129 198.16 227.553 198.16ZM227.793 196.8C228.273 196.8 228.689 196.688 229.041 196.464C229.404 196.24 229.687 195.936 229.889 195.552C230.092 195.157 230.193 194.709 230.193 194.208C230.193 193.685 230.087 193.232 229.873 192.848C229.671 192.464 229.388 192.16 229.025 191.936C228.673 191.712 228.257 191.6 227.777 191.6C227.297 191.6 226.876 191.712 226.513 191.936C226.151 192.16 225.863 192.469 225.649 192.864C225.447 193.248 225.345 193.691 225.345 194.192C225.345 194.704 225.447 195.157 225.649 195.552C225.863 195.936 226.151 196.24 226.513 196.464C226.887 196.688 227.313 196.8 227.793 196.8ZM231.553 198H230.097V195.952L230.369 194.096L230.097 192.256V186.576H231.553V198ZM236.882 198.16C236.188 198.16 235.559 197.989 234.994 197.648C234.428 197.296 233.98 196.821 233.65 196.224C233.33 195.627 233.17 194.955 233.17 194.208C233.17 193.461 233.33 192.789 233.65 192.192C233.98 191.595 234.423 191.12 234.978 190.768C235.543 190.416 236.178 190.24 236.882 190.24C237.458 190.24 237.97 190.363 238.418 190.608C238.876 190.843 239.244 191.173 239.522 191.6C239.799 192.016 239.954 192.501 239.986 193.056V195.344C239.954 195.888 239.799 196.373 239.522 196.8C239.255 197.227 238.892 197.563 238.434 197.808C237.986 198.043 237.468 198.16 236.882 198.16ZM237.122 196.8C237.836 196.8 238.412 196.56 238.85 196.08C239.287 195.589 239.506 194.965 239.506 194.208C239.506 193.685 239.404 193.232 239.202 192.848C239.01 192.453 238.732 192.149 238.37 191.936C238.007 191.712 237.586 191.6 237.106 191.6C236.626 191.6 236.199 191.712 235.826 191.936C235.463 192.16 235.175 192.469 234.962 192.864C234.759 193.248 234.658 193.691 234.658 194.192C234.658 194.704 234.759 195.157 234.962 195.552C235.175 195.936 235.468 196.24 235.842 196.464C236.215 196.688 236.642 196.8 237.122 196.8ZM239.41 198V195.952L239.682 194.096L239.41 192.256V190.4H240.866V198H239.41ZM244.099 198V187.216H245.539V198H244.099ZM242.227 191.712V190.4H247.411V191.712H242.227ZM251.819 198.16C251.126 198.16 250.497 197.989 249.931 197.648C249.366 197.296 248.918 196.821 248.587 196.224C248.267 195.627 248.107 194.955 248.107 194.208C248.107 193.461 248.267 192.789 248.587 192.192C248.918 191.595 249.361 191.12 249.915 190.768C250.481 190.416 251.115 190.24 251.819 190.24C252.395 190.24 252.907 190.363 253.355 190.608C253.814 190.843 254.182 191.173 254.459 191.6C254.737 192.016 254.891 192.501 254.923 193.056V195.344C254.891 195.888 254.737 196.373 254.459 196.8C254.193 197.227 253.83 197.563 253.371 197.808C252.923 198.043 252.406 198.16 251.819 198.16ZM252.059 196.8C252.774 196.8 253.35 196.56 253.787 196.08C254.225 195.589 254.443 194.965 254.443 194.208C254.443 193.685 254.342 193.232 254.139 192.848C253.947 192.453 253.67 192.149 253.307 191.936C252.945 191.712 252.523 191.6 252.043 191.6C251.563 191.6 251.137 191.712 250.763 191.936C250.401 192.16 250.113 192.469 249.899 192.864C249.697 193.248 249.595 193.691 249.595 194.192C249.595 194.704 249.697 195.157 249.899 195.552C250.113 195.936 250.406 196.24 250.779 196.464C251.153 196.688 251.579 196.8 252.059 196.8ZM254.347 198V195.952L254.619 194.096L254.347 192.256V190.4H255.803V198H254.347ZM263.404 198L260.396 190.4H261.9L264.076 196.32H263.596L265.756 190.4H266.588L268.748 196.32H268.268L270.444 190.4H271.948L268.956 198H268.108L265.916 192.256H266.444L264.236 198H263.404ZM273.119 198V190.4H274.559V198H273.119ZM273.839 188.88C273.572 188.88 273.354 188.795 273.183 188.624C273.012 188.443 272.927 188.219 272.927 187.952C272.927 187.696 273.012 187.483 273.183 187.312C273.354 187.131 273.572 187.04 273.839 187.04C274.106 187.04 274.324 187.131 274.495 187.312C274.666 187.483 274.751 187.696 274.751 187.952C274.751 188.219 274.666 188.443 274.495 188.624C274.324 188.795 274.106 188.88 273.839 188.88ZM276.681 198V186.576H278.121V198H276.681ZM280.228 198V186.576H281.668V198H280.228ZM291.103 198.16C290.527 198.16 290.004 198.043 289.535 197.808C289.076 197.563 288.708 197.227 288.431 196.8C288.154 196.373 287.999 195.888 287.967 195.344V193.056C287.999 192.501 288.154 192.016 288.431 191.6C288.719 191.173 289.092 190.843 289.551 190.608C290.02 190.363 290.538 190.24 291.103 190.24C291.796 190.24 292.42 190.416 292.975 190.768C293.54 191.12 293.983 191.595 294.303 192.192C294.623 192.789 294.783 193.461 294.783 194.208C294.783 194.955 294.623 195.627 294.303 196.224C293.983 196.821 293.54 197.296 292.975 197.648C292.42 197.989 291.796 198.16 291.103 198.16ZM287.103 198V186.576H288.543V192.256L288.271 194.096L288.543 195.952V198H287.103ZM290.863 196.8C291.343 196.8 291.764 196.688 292.127 196.464C292.49 196.24 292.778 195.936 292.991 195.552C293.204 195.157 293.311 194.704 293.311 194.192C293.311 193.691 293.204 193.243 292.991 192.848C292.778 192.453 292.49 192.149 292.127 191.936C291.764 191.712 291.348 191.6 290.879 191.6C290.399 191.6 289.978 191.712 289.615 191.936C289.252 192.149 288.97 192.453 288.767 192.848C288.564 193.243 288.463 193.696 288.463 194.208C288.463 194.709 288.559 195.157 288.751 195.552C288.954 195.936 289.236 196.24 289.599 196.464C289.972 196.688 290.394 196.8 290.863 196.8ZM299.935 198.16C299.178 198.16 298.495 197.989 297.887 197.648C297.279 197.296 296.799 196.821 296.447 196.224C296.095 195.627 295.919 194.949 295.919 194.192C295.919 193.445 296.09 192.773 296.431 192.176C296.783 191.579 297.253 191.109 297.839 190.768C298.437 190.416 299.103 190.24 299.839 190.24C300.543 190.24 301.162 190.4 301.695 190.72C302.239 191.04 302.661 191.483 302.959 192.048C303.269 192.613 303.423 193.253 303.423 193.968C303.423 194.075 303.418 194.192 303.407 194.32C303.397 194.437 303.375 194.576 303.343 194.736H296.927V193.536H302.575L302.047 194C302.047 193.488 301.957 193.056 301.775 192.704C301.594 192.341 301.338 192.064 301.007 191.872C300.677 191.669 300.277 191.568 299.807 191.568C299.317 191.568 298.885 191.675 298.511 191.888C298.138 192.101 297.85 192.4 297.647 192.784C297.445 193.168 297.343 193.621 297.343 194.144C297.343 194.677 297.45 195.147 297.663 195.552C297.877 195.947 298.181 196.256 298.575 196.48C298.97 196.693 299.423 196.8 299.935 196.8C300.362 196.8 300.751 196.725 301.103 196.576C301.466 196.427 301.775 196.203 302.031 195.904L302.959 196.848C302.597 197.275 302.149 197.6 301.615 197.824C301.093 198.048 300.533 198.16 299.935 198.16ZM308.322 198V186.576H309.762V198H308.322ZM315.341 198.16C314.594 198.16 313.922 197.984 313.325 197.632C312.727 197.28 312.253 196.805 311.901 196.208C311.549 195.6 311.373 194.923 311.373 194.176C311.373 193.44 311.549 192.779 311.901 192.192C312.253 191.595 312.727 191.12 313.325 190.768C313.922 190.416 314.594 190.24 315.341 190.24C316.077 190.24 316.743 190.416 317.341 190.768C317.949 191.109 318.429 191.579 318.781 192.176C319.133 192.773 319.309 193.44 319.309 194.176C319.309 194.923 319.133 195.6 318.781 196.208C318.429 196.805 317.949 197.28 317.341 197.632C316.743 197.984 316.077 198.16 315.341 198.16ZM315.341 196.768C315.821 196.768 316.247 196.656 316.621 196.432C316.994 196.208 317.287 195.904 317.501 195.52C317.714 195.125 317.821 194.677 317.821 194.176C317.821 193.685 317.709 193.248 317.485 192.864C317.271 192.48 316.978 192.181 316.605 191.968C316.242 191.744 315.821 191.632 315.341 191.632C314.861 191.632 314.434 191.744 314.061 191.968C313.687 192.181 313.394 192.48 313.181 192.864C312.967 193.248 312.861 193.685 312.861 194.176C312.861 194.677 312.967 195.125 313.181 195.52C313.394 195.904 313.687 196.208 314.061 196.432C314.434 196.656 314.861 196.768 315.341 196.768ZM323.347 198.16C322.92 198.16 322.515 198.107 322.131 198C321.758 197.883 321.411 197.723 321.091 197.52C320.771 197.307 320.494 197.056 320.259 196.768L321.187 195.84C321.464 196.181 321.784 196.437 322.147 196.608C322.51 196.768 322.915 196.848 323.363 196.848C323.811 196.848 324.158 196.773 324.403 196.624C324.648 196.464 324.771 196.245 324.771 195.968C324.771 195.691 324.67 195.477 324.467 195.328C324.275 195.168 324.024 195.04 323.715 194.944C323.406 194.837 323.075 194.736 322.723 194.64C322.382 194.533 322.056 194.4 321.747 194.24C321.438 194.08 321.182 193.861 320.979 193.584C320.787 193.307 320.691 192.939 320.691 192.48C320.691 192.021 320.803 191.627 321.027 191.296C321.251 190.955 321.56 190.693 321.955 190.512C322.36 190.331 322.846 190.24 323.411 190.24C324.008 190.24 324.536 190.347 324.995 190.56C325.464 190.763 325.848 191.072 326.147 191.488L325.219 192.416C325.006 192.139 324.739 191.925 324.419 191.776C324.11 191.627 323.758 191.552 323.363 191.552C322.947 191.552 322.627 191.627 322.403 191.776C322.19 191.915 322.083 192.112 322.083 192.368C322.083 192.624 322.179 192.821 322.371 192.96C322.563 193.099 322.814 193.216 323.123 193.312C323.443 193.408 323.774 193.509 324.115 193.616C324.456 193.712 324.782 193.845 325.091 194.016C325.4 194.187 325.651 194.416 325.843 194.704C326.046 194.992 326.147 195.371 326.147 195.84C326.147 196.555 325.891 197.12 325.379 197.536C324.878 197.952 324.2 198.16 323.347 198.16ZM328.927 198V187.216H330.367V198H328.927ZM327.055 191.712V190.4H332.239V191.712H327.055ZM334.367 198.16C334.068 198.16 333.818 198.059 333.615 197.856C333.423 197.643 333.327 197.392 333.327 197.104C333.327 196.805 333.423 196.56 333.615 196.368C333.818 196.165 334.068 196.064 334.367 196.064C334.666 196.064 334.911 196.165 335.103 196.368C335.306 196.56 335.407 196.805 335.407 197.104C335.407 197.392 335.306 197.643 335.103 197.856C334.911 198.059 334.666 198.16 334.367 198.16Z" fill="#F1F2F4"/>
<path d="M101.5 228H581.5V308C581.5 315.542 581.5 319.314 579.157 321.657C576.814 324 573.042 324 565.5 324H117.5C109.958 324 106.186 324 103.843 321.657C101.5 319.314 101.5 315.542 101.5 308V228Z" fill="#15161A"/>
<mask id="path-8-inside-1_5240_237567" fill="white">
<path d="M389.5 276C389.5 264.686 389.5 259.029 393.015 255.515C396.529 252 402.186 252 413.5 252H446.5C457.814 252 463.471 252 466.985 255.515C470.5 259.029 470.5 264.686 470.5 276V276C470.5 287.314 470.5 292.971 466.985 296.485C463.471 300 457.814 300 446.5 300H413.5C402.186 300 396.529 300 393.015 296.485C389.5 292.971 389.5 287.314 389.5 276V276Z"/>
</mask>
<path d="M389.5 276M393.015 296.485L391.601 297.899L393.015 296.485ZM470.5 276M466.985 296.485L465.571 295.071L466.985 296.485ZM470.5 276M466.985 255.515L468.399 254.101L466.985 255.515ZM389.5 276M393.015 255.515L391.601 254.101L393.015 255.515ZM413.5 252V254H446.5V252V250H413.5V252ZM470.5 276M446.5 300V298H413.5V300V302H446.5V300ZM389.5 276M413.5 300V298C407.787 298 403.703 297.996 400.599 297.578C397.553 297.169 395.753 296.395 394.429 295.071L393.015 296.485L391.601 297.899C393.791 300.09 396.577 301.074 400.066 301.543C403.498 302.004 407.9 302 413.5 302V300ZM389.5 276H387.5C387.5 281.6 387.496 286.002 387.957 289.434C388.426 292.923 389.41 295.709 391.601 297.899L393.015 296.485L394.429 295.071C393.105 293.747 392.331 291.947 391.922 288.901C391.504 285.797 391.5 281.713 391.5 276H389.5ZM470.5 276H468.5C468.5 281.713 468.496 285.797 468.078 288.901C467.669 291.947 466.895 293.747 465.571 295.071L466.985 296.485L468.399 297.899C470.59 295.709 471.574 292.923 472.043 289.434C472.504 286.002 472.5 281.6 472.5 276H470.5ZM446.5 300V302C452.1 302 456.502 302.004 459.934 301.543C463.423 301.074 466.209 300.09 468.399 297.899L466.985 296.485L465.571 295.071C464.247 296.395 462.447 297.169 459.401 297.578C456.297 297.996 452.213 298 446.5 298V300ZM446.5 252V254C452.213 254 456.297 254.004 459.401 254.422C462.447 254.831 464.247 255.605 465.571 256.929L466.985 255.515L468.399 254.101C466.209 251.91 463.423 250.926 459.934 250.457C456.502 249.996 452.1 250 446.5 250V252ZM470.5 276H472.5C472.5 270.4 472.504 265.998 472.043 262.566C471.574 259.077 470.59 256.291 468.399 254.101L466.985 255.515L465.571 256.929C466.895 258.253 467.669 260.053 468.078 263.099C468.496 266.203 468.5 270.287 468.5 276H470.5ZM413.5 252V250C407.9 250 403.498 249.996 400.066 250.457C396.577 250.926 393.791 251.91 391.601 254.101L393.015 255.515L394.429 256.929C395.753 255.605 397.553 254.831 400.599 254.422C403.703 254.004 407.787 254 413.5 254V252ZM389.5 276H391.5C391.5 270.287 391.504 266.203 391.922 263.099C392.331 260.053 393.105 258.253 394.429 256.929L393.015 255.515L391.601 254.101C389.41 256.291 388.426 259.077 387.957 262.566C387.496 265.998 387.5 270.4 387.5 276H389.5Z" fill="#6061EE" mask="url(#path-8-inside-1_5240_237567)"/>
<path d="M411.96 282.16C411.15 282.16 410.398 282.016 409.704 281.728C409.022 281.429 408.424 281.019 407.912 280.496C407.4 279.963 407.006 279.349 406.728 278.656C406.451 277.952 406.312 277.2 406.312 276.4C406.312 275.6 406.451 274.853 406.728 274.16C407.006 273.456 407.4 272.843 407.912 272.32C408.424 271.797 409.022 271.387 409.704 271.088C410.398 270.789 411.15 270.64 411.96 270.64C412.867 270.64 413.651 270.789 414.312 271.088C414.974 271.387 415.56 271.792 416.072 272.304L414.824 273.552C414.494 273.189 414.088 272.907 413.608 272.704C413.139 272.501 412.59 272.4 411.96 272.4C411.406 272.4 410.899 272.496 410.44 272.688C409.982 272.88 409.582 273.157 409.24 273.52C408.91 273.872 408.654 274.293 408.472 274.784C408.291 275.275 408.2 275.813 408.2 276.4C408.2 276.987 408.291 277.525 408.472 278.016C408.654 278.507 408.91 278.933 409.24 279.296C409.582 279.648 409.982 279.92 410.44 280.112C410.899 280.304 411.406 280.4 411.96 280.4C412.643 280.4 413.219 280.299 413.688 280.096C414.168 279.883 414.574 279.595 414.904 279.232L416.152 280.48C415.64 281.003 415.038 281.413 414.344 281.712C413.651 282.011 412.856 282.16 411.96 282.16ZM420.536 282.16C419.842 282.16 419.213 281.984 418.648 281.632C418.093 281.28 417.65 280.805 417.32 280.208C417 279.6 416.84 278.923 416.84 278.176C416.84 277.419 417 276.741 417.32 276.144C417.65 275.536 418.093 275.056 418.648 274.704C419.213 274.341 419.842 274.16 420.536 274.16C421.122 274.16 421.64 274.288 422.088 274.544C422.546 274.789 422.909 275.131 423.176 275.568C423.442 276.005 423.576 276.501 423.576 277.056V279.264C423.576 279.819 423.442 280.315 423.176 280.752C422.92 281.189 422.562 281.536 422.104 281.792C421.645 282.037 421.122 282.16 420.536 282.16ZM420.824 280.496C421.474 280.496 421.997 280.277 422.392 279.84C422.797 279.403 423 278.843 423 278.16C423 277.701 422.909 277.296 422.728 276.944C422.546 276.592 422.29 276.32 421.96 276.128C421.64 275.925 421.261 275.824 420.824 275.824C420.397 275.824 420.018 275.925 419.688 276.128C419.368 276.32 419.112 276.592 418.92 276.944C418.738 277.296 418.648 277.701 418.648 278.16C418.648 278.619 418.738 279.024 418.92 279.376C419.112 279.728 419.368 280.005 419.688 280.208C420.018 280.4 420.397 280.496 420.824 280.496ZM422.888 282V279.936L423.192 278.064L422.888 276.208V274.32H424.648V282H422.888ZM431.865 282V277.568C431.865 277.056 431.7 276.635 431.369 276.304C431.049 275.973 430.633 275.808 430.121 275.808C429.78 275.808 429.476 275.883 429.209 276.032C428.942 276.181 428.734 276.389 428.585 276.656C428.436 276.923 428.361 277.227 428.361 277.568L427.673 277.184C427.673 276.597 427.801 276.08 428.057 275.632C428.313 275.173 428.665 274.816 429.113 274.56C429.572 274.293 430.084 274.16 430.649 274.16C431.225 274.16 431.737 274.309 432.185 274.608C432.633 274.896 432.985 275.275 433.241 275.744C433.497 276.203 433.625 276.683 433.625 277.184V282H431.865ZM426.601 282V274.32H428.361V282H426.601ZM438.95 282.16C438.192 282.16 437.504 281.984 436.886 281.632C436.278 281.28 435.798 280.8 435.446 280.192C435.094 279.584 434.918 278.907 434.918 278.16C434.918 277.403 435.094 276.725 435.446 276.128C435.798 275.52 436.278 275.04 436.886 274.688C437.504 274.336 438.192 274.16 438.95 274.16C439.547 274.16 440.102 274.277 440.614 274.512C441.136 274.736 441.579 275.061 441.942 275.488L440.79 276.656C440.566 276.389 440.294 276.192 439.974 276.064C439.664 275.925 439.323 275.856 438.95 275.856C438.512 275.856 438.123 275.957 437.782 276.16C437.451 276.352 437.19 276.619 436.998 276.96C436.816 277.301 436.726 277.701 436.726 278.16C436.726 278.608 436.816 279.008 436.998 279.36C437.19 279.701 437.451 279.973 437.782 280.176C438.123 280.368 438.512 280.464 438.95 280.464C439.323 280.464 439.664 280.4 439.974 280.272C440.294 280.133 440.566 279.931 440.79 279.664L441.942 280.832C441.579 281.259 441.136 281.589 440.614 281.824C440.102 282.048 439.547 282.16 438.95 282.16ZM446.622 282.16C445.854 282.16 445.161 281.989 444.542 281.648C443.934 281.296 443.449 280.816 443.086 280.208C442.734 279.6 442.558 278.917 442.558 278.16C442.558 277.403 442.734 276.725 443.086 276.128C443.438 275.52 443.913 275.04 444.51 274.688C445.118 274.336 445.79 274.16 446.526 274.16C447.241 274.16 447.87 274.325 448.414 274.656C448.969 274.987 449.401 275.44 449.71 276.016C450.03 276.592 450.19 277.248 450.19 277.984C450.19 278.112 450.179 278.245 450.158 278.384C450.147 278.512 450.126 278.656 450.094 278.816H443.79V277.376H449.182L448.526 277.952C448.505 277.483 448.414 277.088 448.254 276.768C448.094 276.448 447.865 276.203 447.566 276.032C447.278 275.861 446.921 275.776 446.494 275.776C446.046 275.776 445.657 275.872 445.326 276.064C444.995 276.256 444.739 276.528 444.558 276.88C444.377 277.221 444.286 277.632 444.286 278.112C444.286 278.592 444.382 279.013 444.574 279.376C444.766 279.739 445.038 280.021 445.39 280.224C445.742 280.416 446.147 280.512 446.606 280.512C447.001 280.512 447.363 280.443 447.694 280.304C448.035 280.165 448.323 279.963 448.558 279.696L449.678 280.832C449.305 281.269 448.851 281.6 448.318 281.824C447.785 282.048 447.219 282.16 446.622 282.16ZM451.601 282V270.48H453.361V282H451.601Z" fill="#6061EE"/>
<path d="M478.5 276C478.5 264.686 478.5 259.029 482.015 255.515C485.529 252 491.186 252 502.5 252H533.5C544.814 252 550.471 252 553.985 255.515C557.5 259.029 557.5 264.686 557.5 276C557.5 287.314 557.5 292.971 553.985 296.485C550.471 300 544.814 300 533.5 300H502.5C491.186 300 485.529 300 482.015 296.485C478.5 292.971 478.5 287.314 478.5 276Z" fill="#E1172F"/>
<path d="M497.066 282V280.32H500.01C500.778 280.32 501.45 280.155 502.026 279.824C502.613 279.493 503.066 279.035 503.386 278.448C503.717 277.851 503.882 277.163 503.882 276.384C503.882 275.616 503.717 274.939 503.386 274.352C503.055 273.765 502.597 273.307 502.01 272.976C501.434 272.645 500.767 272.48 500.01 272.48H497.066V270.8H500.058C500.869 270.8 501.621 270.944 502.314 271.232C503.007 271.509 503.61 271.904 504.122 272.416C504.645 272.917 505.05 273.509 505.338 274.192C505.626 274.864 505.77 275.6 505.77 276.4C505.77 277.189 505.626 277.925 505.338 278.608C505.05 279.291 504.65 279.888 504.138 280.4C503.626 280.901 503.023 281.296 502.33 281.584C501.637 281.861 500.89 282 500.09 282H497.066ZM495.802 282V270.8H497.642V282H495.802ZM510.974 282.16C510.206 282.16 509.512 281.989 508.894 281.648C508.286 281.296 507.8 280.816 507.438 280.208C507.086 279.6 506.91 278.917 506.91 278.16C506.91 277.403 507.086 276.725 507.438 276.128C507.79 275.52 508.264 275.04 508.862 274.688C509.47 274.336 510.142 274.16 510.878 274.16C511.592 274.16 512.222 274.325 512.766 274.656C513.32 274.987 513.752 275.44 514.062 276.016C514.382 276.592 514.542 277.248 514.542 277.984C514.542 278.112 514.531 278.245 514.51 278.384C514.499 278.512 514.478 278.656 514.446 278.816H508.142V277.376H513.534L512.878 277.952C512.856 277.483 512.766 277.088 512.606 276.768C512.446 276.448 512.216 276.203 511.918 276.032C511.63 275.861 511.272 275.776 510.846 275.776C510.398 275.776 510.008 275.872 509.678 276.064C509.347 276.256 509.091 276.528 508.91 276.88C508.728 277.221 508.638 277.632 508.638 278.112C508.638 278.592 508.734 279.013 508.926 279.376C509.118 279.739 509.39 280.021 509.742 280.224C510.094 280.416 510.499 280.512 510.958 280.512C511.352 280.512 511.715 280.443 512.046 280.304C512.387 280.165 512.675 279.963 512.91 279.696L514.03 280.832C513.656 281.269 513.203 281.6 512.67 281.824C512.136 282.048 511.571 282.16 510.974 282.16ZM515.953 282V270.48H517.713V282H515.953ZM523.239 282.16C522.471 282.16 521.778 281.989 521.159 281.648C520.551 281.296 520.066 280.816 519.703 280.208C519.351 279.6 519.175 278.917 519.175 278.16C519.175 277.403 519.351 276.725 519.703 276.128C520.055 275.52 520.53 275.04 521.127 274.688C521.735 274.336 522.407 274.16 523.143 274.16C523.858 274.16 524.487 274.325 525.031 274.656C525.586 274.987 526.018 275.44 526.327 276.016C526.647 276.592 526.807 277.248 526.807 277.984C526.807 278.112 526.797 278.245 526.775 278.384C526.765 278.512 526.743 278.656 526.711 278.816H520.407V277.376H525.799L525.143 277.952C525.122 277.483 525.031 277.088 524.871 276.768C524.711 276.448 524.482 276.203 524.183 276.032C523.895 275.861 523.538 275.776 523.111 275.776C522.663 275.776 522.274 275.872 521.943 276.064C521.613 276.256 521.357 276.528 521.175 276.88C520.994 277.221 520.903 277.632 520.903 278.112C520.903 278.592 520.999 279.013 521.191 279.376C521.383 279.739 521.655 280.021 522.007 280.224C522.359 280.416 522.765 280.512 523.223 280.512C523.618 280.512 523.981 280.443 524.311 280.304C524.653 280.165 524.941 279.963 525.175 279.696L526.295 280.832C525.922 281.269 525.469 281.6 524.935 281.824C524.402 282.048 523.837 282.16 523.239 282.16ZM529.183 282V271.12H530.943V282H529.183ZM527.343 275.92V274.32H532.783V275.92H527.343ZM537.411 282.16C536.643 282.16 535.95 281.989 535.331 281.648C534.723 281.296 534.238 280.816 533.875 280.208C533.523 279.6 533.347 278.917 533.347 278.16C533.347 277.403 533.523 276.725 533.875 276.128C534.227 275.52 534.702 275.04 535.299 274.688C535.907 274.336 536.579 274.16 537.315 274.16C538.03 274.16 538.659 274.325 539.203 274.656C539.758 274.987 540.19 275.44 540.499 276.016C540.819 276.592 540.979 277.248 540.979 277.984C540.979 278.112 540.969 278.245 540.947 278.384C540.937 278.512 540.915 278.656 540.883 278.816H534.579V277.376H539.971L539.315 277.952C539.294 277.483 539.203 277.088 539.043 276.768C538.883 276.448 538.654 276.203 538.355 276.032C538.067 275.861 537.71 275.776 537.283 275.776C536.835 275.776 536.446 275.872 536.115 276.064C535.785 276.256 535.529 276.528 535.347 276.88C535.166 277.221 535.075 277.632 535.075 278.112C535.075 278.592 535.171 279.013 535.363 279.376C535.555 279.739 535.827 280.021 536.179 280.224C536.531 280.416 536.937 280.512 537.395 280.512C537.79 280.512 538.153 280.443 538.483 280.304C538.825 280.165 539.113 279.963 539.347 279.696L540.467 280.832C540.094 281.269 539.641 281.6 539.107 281.824C538.574 282.048 538.009 282.16 537.411 282.16Z" fill="white"/>
</g>
<defs>
<filter id="filter0_d_5240_237567" x="59.5" y="74" width="564" height="312" filterUnits="userSpaceOnUse" color-interpolation-filters="sRGB">
<feFlood flood-opacity="0" result="BackgroundImageFix"/>
<feColorMatrix in="SourceAlpha" type="matrix" values="0 0 0 0 0 0 0 0 0 0 0 0 0 0 0 0 0 0 127 0" result="hardAlpha"/>
<feMorphology radius="16" operator="erode" in="SourceAlpha" result="effect1_dropShadow_5240_237567"/>
<feOffset dy="20"/>
<feGaussianBlur stdDeviation="29"/>
<feColorMatrix type="matrix" values="0 0 0 0 0 0 0 0 0 0 0 0 0 0 0 0 0 0 0.16 0"/>
<feBlend mode="normal" in2="BackgroundImageFix" result="effect1_dropShadow_5240_237567"/>
<feBlend mode="normal" in="SourceGraphic" in2="effect1_dropShadow_5240_237567" result="shape"/>
</filter>
</defs>
</svg>
