<svg width="679" height="320" viewBox="0 0 679 320" fill="none" xmlns="http://www.w3.org/2000/svg">
<g clip-path="url(#clip0_14202_14032)">
<g filter="url(#filter0_d_14202_14032)">
<path d="M96 92C96 80.6863 96 75.0294 99.5147 71.5147C103.029 68 108.686 68 120 68H552C563.314 68 568.971 68 572.485 71.5147C576 75.0294 576 80.6863 576 92V272C576 283.314 576 288.971 572.485 292.485C568.971 296 563.314 296 552 296H120C108.686 296 103.029 296 99.5147 292.485C96 288.971 96 283.314 96 272V92Z" fill="white"/>
<path d="M132.656 104.844C132.656 104.473 132.766 104.11 132.972 103.802C133.178 103.494 133.471 103.253 133.814 103.111C134.156 102.97 134.533 102.932 134.897 103.005C135.261 103.077 135.595 103.256 135.857 103.518C136.119 103.78 136.298 104.114 136.37 104.478C136.443 104.842 136.405 105.219 136.264 105.561C136.122 105.904 135.881 106.197 135.573 106.403C135.265 106.609 134.902 106.719 134.531 106.719C134.034 106.719 133.557 106.521 133.205 106.17C132.854 105.818 132.656 105.341 132.656 104.844ZM147.656 110C147.656 112.503 146.914 114.95 145.523 117.031C144.133 119.113 142.156 120.735 139.843 121.693C137.531 122.651 134.986 122.901 132.531 122.413C130.076 121.925 127.821 120.719 126.051 118.949C124.281 117.179 123.075 114.924 122.587 112.469C122.099 110.014 122.349 107.469 123.307 105.157C124.265 102.844 125.887 100.867 127.969 99.4767C130.05 98.086 132.497 97.3438 135 97.3438C138.356 97.3475 141.573 98.6821 143.945 101.055C146.318 103.427 147.653 106.644 147.656 110ZM144.844 110C144.844 108.053 144.266 106.15 143.185 104.531C142.103 102.912 140.566 101.651 138.767 100.906C136.968 100.161 134.989 99.9656 133.08 100.345C131.17 100.725 129.416 101.663 128.039 103.039C126.663 104.416 125.725 106.17 125.345 108.08C124.966 109.989 125.161 111.968 125.906 113.767C126.651 115.566 127.912 117.103 129.531 118.185C131.15 119.266 133.053 119.844 135 119.844C137.61 119.841 140.112 118.803 141.958 116.957C143.803 115.112 144.841 112.61 144.844 110ZM136.406 114.298V110.469C136.406 109.847 136.159 109.251 135.72 108.811C135.28 108.372 134.684 108.125 134.063 108.125C133.73 108.125 133.409 108.242 133.155 108.455C132.901 108.669 132.731 108.966 132.674 109.294C132.618 109.621 132.68 109.957 132.848 110.244C133.016 110.53 133.28 110.748 133.594 110.858V114.687C133.594 115.309 133.841 115.905 134.28 116.345C134.72 116.784 135.316 117.031 135.938 117.031C136.27 117.032 136.591 116.915 136.845 116.701C137.099 116.487 137.269 116.19 137.326 115.863C137.382 115.535 137.32 115.199 137.152 114.912C136.984 114.626 136.72 114.409 136.406 114.298Z" fill="#2A2C35"/>
<path d="M163.784 119V102.296H167.552V119H163.784ZM158.48 105.344V102.056H172.856V105.344H158.48ZM174.624 119V107.336H178.296V119H174.624ZM176.472 105.728C175.896 105.728 175.416 105.536 175.032 105.152C174.664 104.752 174.48 104.272 174.48 103.712C174.48 103.136 174.664 102.656 175.032 102.272C175.416 101.888 175.896 101.696 176.472 101.696C177.048 101.696 177.52 101.888 177.888 102.272C178.256 102.656 178.44 103.136 178.44 103.712C178.44 104.272 178.256 104.752 177.888 105.152C177.52 105.536 177.048 105.728 176.472 105.728ZM182.538 119V102.512H186.21V119H182.538ZM179.898 110.456V107.336H188.85V110.456H179.898ZM190.468 119V101.576H194.14V119H190.468ZM202.486 119.264C201.222 119.264 200.094 119.008 199.102 118.496C198.126 117.968 197.358 117.24 196.798 116.312C196.238 115.384 195.958 114.336 195.958 113.168C195.958 112 196.23 110.96 196.774 110.048C197.334 109.12 198.086 108.392 199.03 107.864C199.974 107.336 201.038 107.072 202.222 107.072C203.374 107.072 204.39 107.32 205.27 107.816C206.15 108.312 206.838 109 207.334 109.88C207.846 110.76 208.102 111.768 208.102 112.904C208.102 113.112 208.086 113.336 208.054 113.576C208.038 113.8 207.998 114.064 207.934 114.368L197.878 114.392V111.872L206.374 111.848L204.79 112.904C204.774 112.232 204.67 111.68 204.478 111.248C204.286 110.8 203.998 110.464 203.614 110.24C203.246 110 202.79 109.88 202.246 109.88C201.67 109.88 201.166 110.016 200.734 110.288C200.318 110.544 199.99 110.912 199.75 111.392C199.526 111.872 199.414 112.456 199.414 113.144C199.414 113.832 199.534 114.424 199.774 114.92C200.03 115.4 200.382 115.776 200.83 116.048C201.294 116.304 201.838 116.432 202.462 116.432C203.038 116.432 203.558 116.336 204.022 116.144C204.486 115.936 204.894 115.632 205.246 115.232L207.262 117.248C206.686 117.92 205.99 118.424 205.174 118.76C204.358 119.096 203.462 119.264 202.486 119.264Z" fill="#2A2C35"/>
<path d="M543.546 115.954C543.757 116.165 543.876 116.452 543.876 116.751C543.876 117.05 543.757 117.336 543.546 117.548C543.335 117.759 543.048 117.878 542.749 117.878C542.45 117.878 542.163 117.759 541.952 117.548L536 111.594L530.046 117.546C529.835 117.757 529.548 117.876 529.249 117.876C528.95 117.876 528.663 117.757 528.452 117.546C528.241 117.335 528.122 117.048 528.122 116.749C528.122 116.45 528.241 116.164 528.452 115.952L534.406 110L528.454 104.046C528.243 103.835 528.124 103.548 528.124 103.249C528.124 102.95 528.243 102.664 528.454 102.452C528.665 102.241 528.952 102.122 529.251 102.122C529.55 102.122 529.836 102.241 530.048 102.452L536 108.406L541.954 102.451C542.165 102.24 542.452 102.121 542.751 102.121C543.05 102.121 543.336 102.24 543.548 102.451C543.759 102.663 543.878 102.949 543.878 103.248C543.878 103.547 543.759 103.834 543.548 104.045L537.594 110L543.546 115.954Z" fill="#2A2C35"/>
<path d="M124.256 170V159.216H125.76V170H124.256ZM120.48 160.272V158.896H129.52V160.272H120.48ZM136.432 170V165.568C136.432 164.992 136.251 164.517 135.888 164.144C135.525 163.771 135.056 163.584 134.48 163.584C134.096 163.584 133.755 163.669 133.456 163.84C133.157 164.011 132.923 164.245 132.752 164.544C132.581 164.843 132.496 165.184 132.496 165.568L131.904 165.232C131.904 164.656 132.032 164.144 132.288 163.696C132.544 163.248 132.901 162.896 133.36 162.64C133.819 162.373 134.336 162.24 134.912 162.24C135.488 162.24 135.995 162.368 136.432 162.624C136.88 162.88 137.232 163.237 137.488 163.696C137.744 164.155 137.872 164.683 137.872 165.28V170H136.432ZM131.056 170V158.576H132.496V170H131.056ZM139.838 170V162.4H141.278V170H139.838ZM140.558 160.88C140.291 160.88 140.072 160.795 139.902 160.624C139.731 160.443 139.646 160.219 139.646 159.952C139.646 159.696 139.731 159.483 139.902 159.312C140.072 159.131 140.291 159.04 140.558 159.04C140.824 159.04 141.043 159.131 141.214 159.312C141.384 159.483 141.47 159.696 141.47 159.952C141.47 160.219 141.384 160.443 141.214 160.624C141.043 160.795 140.824 160.88 140.558 160.88ZM145.816 170.16C145.389 170.16 144.984 170.107 144.6 170C144.226 169.883 143.88 169.723 143.56 169.52C143.24 169.307 142.962 169.056 142.728 168.768L143.656 167.84C143.933 168.181 144.253 168.437 144.616 168.608C144.978 168.768 145.384 168.848 145.832 168.848C146.28 168.848 146.626 168.773 146.872 168.624C147.117 168.464 147.24 168.245 147.24 167.968C147.24 167.691 147.138 167.477 146.936 167.328C146.744 167.168 146.493 167.04 146.184 166.944C145.874 166.837 145.544 166.736 145.192 166.64C144.85 166.533 144.525 166.4 144.216 166.24C143.906 166.08 143.65 165.861 143.448 165.584C143.256 165.307 143.16 164.939 143.16 164.48C143.16 164.021 143.272 163.627 143.496 163.296C143.72 162.955 144.029 162.693 144.424 162.512C144.829 162.331 145.314 162.24 145.88 162.24C146.477 162.24 147.005 162.347 147.464 162.56C147.933 162.763 148.317 163.072 148.616 163.488L147.688 164.416C147.474 164.139 147.208 163.925 146.888 163.776C146.578 163.627 146.226 163.552 145.832 163.552C145.416 163.552 145.096 163.627 144.872 163.776C144.658 163.915 144.552 164.112 144.552 164.368C144.552 164.624 144.648 164.821 144.84 164.96C145.032 165.099 145.282 165.216 145.592 165.312C145.912 165.408 146.242 165.509 146.584 165.616C146.925 165.712 147.25 165.845 147.56 166.016C147.869 166.187 148.12 166.416 148.312 166.704C148.514 166.992 148.616 167.371 148.616 167.84C148.616 168.555 148.36 169.12 147.848 169.536C147.346 169.952 146.669 170.16 145.816 170.16ZM154.724 170V159.216H156.164V170H154.724ZM152.852 163.712V162.4H158.036V163.712H152.852ZM162.732 170.16C161.975 170.16 161.292 169.989 160.684 169.648C160.076 169.296 159.596 168.821 159.244 168.224C158.892 167.627 158.716 166.949 158.716 166.192C158.716 165.445 158.887 164.773 159.228 164.176C159.58 163.579 160.05 163.109 160.636 162.768C161.234 162.416 161.9 162.24 162.636 162.24C163.34 162.24 163.959 162.4 164.492 162.72C165.036 163.04 165.458 163.483 165.756 164.048C166.066 164.613 166.22 165.253 166.22 165.968C166.22 166.075 166.215 166.192 166.204 166.32C166.194 166.437 166.172 166.576 166.14 166.736H159.724V165.536H165.372L164.844 166C164.844 165.488 164.754 165.056 164.572 164.704C164.391 164.341 164.135 164.064 163.804 163.872C163.474 163.669 163.074 163.568 162.604 163.568C162.114 163.568 161.682 163.675 161.308 163.888C160.935 164.101 160.647 164.4 160.444 164.784C160.242 165.168 160.14 165.621 160.14 166.144C160.14 166.677 160.247 167.147 160.46 167.552C160.674 167.947 160.978 168.256 161.372 168.48C161.767 168.693 162.22 168.8 162.732 168.8C163.159 168.8 163.548 168.725 163.9 168.576C164.263 168.427 164.572 168.203 164.828 167.904L165.756 168.848C165.394 169.275 164.946 169.6 164.412 169.824C163.89 170.048 163.33 170.16 162.732 170.16ZM172.548 170L170.18 166.672L169.908 166.416L166.916 162.4H168.66L170.82 165.36L171.092 165.584L174.292 170H172.548ZM166.772 170L169.908 165.776L170.724 166.832L168.468 170H166.772ZM171.204 166.4L170.372 165.376L172.468 162.4H174.148L171.204 166.4ZM176.458 170V159.216H177.898V170H176.458ZM174.586 163.712V162.4H179.77V163.712H174.586ZM184.525 170V162.4H185.965V170H184.525ZM185.245 160.88C184.978 160.88 184.76 160.795 184.589 160.624C184.418 160.443 184.333 160.219 184.333 159.952C184.333 159.696 184.418 159.483 184.589 159.312C184.76 159.131 184.978 159.04 185.245 159.04C185.512 159.04 185.73 159.131 185.901 159.312C186.072 159.483 186.157 159.696 186.157 159.952C186.157 160.219 186.072 160.443 185.901 160.624C185.73 160.795 185.512 160.88 185.245 160.88ZM190.503 170.16C190.077 170.16 189.671 170.107 189.287 170C188.914 169.883 188.567 169.723 188.247 169.52C187.927 169.307 187.65 169.056 187.415 168.768L188.343 167.84C188.621 168.181 188.941 168.437 189.303 168.608C189.666 168.768 190.071 168.848 190.519 168.848C190.967 168.848 191.314 168.773 191.559 168.624C191.805 168.464 191.927 168.245 191.927 167.968C191.927 167.691 191.826 167.477 191.623 167.328C191.431 167.168 191.181 167.04 190.871 166.944C190.562 166.837 190.231 166.736 189.879 166.64C189.538 166.533 189.213 166.4 188.903 166.24C188.594 166.08 188.338 165.861 188.135 165.584C187.943 165.307 187.847 164.939 187.847 164.48C187.847 164.021 187.959 163.627 188.183 163.296C188.407 162.955 188.717 162.693 189.111 162.512C189.517 162.331 190.002 162.24 190.567 162.24C191.165 162.24 191.693 162.347 192.151 162.56C192.621 162.763 193.005 163.072 193.303 163.488L192.375 164.416C192.162 164.139 191.895 163.925 191.575 163.776C191.266 163.627 190.914 163.552 190.519 163.552C190.103 163.552 189.783 163.627 189.559 163.776C189.346 163.915 189.239 164.112 189.239 164.368C189.239 164.624 189.335 164.821 189.527 164.96C189.719 165.099 189.97 165.216 190.279 165.312C190.599 165.408 190.93 165.509 191.271 165.616C191.613 165.712 191.938 165.845 192.247 166.016C192.557 166.187 192.807 166.416 192.999 166.704C193.202 166.992 193.303 167.371 193.303 167.84C193.303 168.555 193.047 169.12 192.535 169.536C192.034 169.952 191.357 170.16 190.503 170.16ZM201.476 170.16C200.782 170.16 200.153 169.989 199.588 169.648C199.022 169.296 198.574 168.821 198.243 168.224C197.924 167.627 197.764 166.955 197.764 166.208C197.764 165.461 197.924 164.789 198.243 164.192C198.574 163.595 199.017 163.12 199.572 162.768C200.137 162.416 200.772 162.24 201.476 162.24C202.052 162.24 202.564 162.363 203.012 162.608C203.47 162.843 203.838 163.173 204.116 163.6C204.393 164.016 204.548 164.501 204.58 165.056V167.344C204.548 167.888 204.393 168.373 204.116 168.8C203.849 169.227 203.486 169.563 203.028 169.808C202.58 170.043 202.062 170.16 201.476 170.16ZM201.716 168.8C202.43 168.8 203.006 168.56 203.444 168.08C203.881 167.589 204.1 166.965 204.1 166.208C204.1 165.685 203.998 165.232 203.796 164.848C203.604 164.453 203.326 164.149 202.964 163.936C202.601 163.712 202.18 163.6 201.7 163.6C201.22 163.6 200.793 163.712 200.42 163.936C200.057 164.16 199.769 164.469 199.556 164.864C199.353 165.248 199.252 165.691 199.252 166.192C199.252 166.704 199.353 167.157 199.556 167.552C199.769 167.936 200.062 168.24 200.436 168.464C200.809 168.688 201.236 168.8 201.716 168.8ZM204.004 170V167.952L204.276 166.096L204.004 164.256V162.4H205.46V170H204.004ZM214.1 170.16C213.396 170.16 212.767 169.989 212.212 169.648C211.657 169.296 211.215 168.821 210.884 168.224C210.564 167.627 210.404 166.955 210.404 166.208C210.404 165.461 210.564 164.789 210.884 164.192C211.215 163.595 211.657 163.12 212.212 162.768C212.767 162.416 213.396 162.24 214.1 162.24C214.665 162.24 215.177 162.363 215.636 162.608C216.095 162.843 216.463 163.173 216.74 163.6C217.028 164.016 217.188 164.501 217.22 165.056V167.344C217.188 167.888 217.033 168.373 216.756 168.8C216.479 169.227 216.111 169.563 215.652 169.808C215.193 170.043 214.676 170.16 214.1 170.16ZM214.34 168.8C214.82 168.8 215.236 168.688 215.588 168.464C215.951 168.24 216.233 167.936 216.436 167.552C216.639 167.157 216.74 166.709 216.74 166.208C216.74 165.685 216.633 165.232 216.42 164.848C216.217 164.464 215.935 164.16 215.572 163.936C215.22 163.712 214.804 163.6 214.324 163.6C213.844 163.6 213.423 163.712 213.06 163.936C212.697 164.16 212.409 164.469 212.196 164.864C211.993 165.248 211.892 165.691 211.892 166.192C211.892 166.704 211.993 167.157 212.196 167.552C212.409 167.936 212.697 168.24 213.06 168.464C213.433 168.688 213.86 168.8 214.34 168.8ZM218.1 170H216.644V167.952L216.916 166.096L216.644 164.256V158.576H218.1V170ZM223.717 170.16C222.959 170.16 222.277 169.989 221.669 169.648C221.061 169.296 220.581 168.821 220.229 168.224C219.877 167.627 219.701 166.949 219.701 166.192C219.701 165.445 219.871 164.773 220.213 164.176C220.565 163.579 221.034 163.109 221.621 162.768C222.218 162.416 222.885 162.24 223.621 162.24C224.325 162.24 224.943 162.4 225.477 162.72C226.021 163.04 226.442 163.483 226.741 164.048C227.05 164.613 227.205 165.253 227.205 165.968C227.205 166.075 227.199 166.192 227.189 166.32C227.178 166.437 227.157 166.576 227.125 166.736H220.709V165.536H226.357L225.829 166C225.829 165.488 225.738 165.056 225.557 164.704C225.375 164.341 225.119 164.064 224.789 163.872C224.458 163.669 224.058 163.568 223.589 163.568C223.098 163.568 222.666 163.675 222.293 163.888C221.919 164.101 221.631 164.4 221.429 164.784C221.226 165.168 221.125 165.621 221.125 166.144C221.125 166.677 221.231 167.147 221.445 167.552C221.658 167.947 221.962 168.256 222.357 168.48C222.751 168.693 223.205 168.8 223.717 168.8C224.143 168.8 224.533 168.725 224.885 168.576C225.247 168.427 225.557 168.203 225.813 167.904L226.741 168.848C226.378 169.275 225.93 169.6 225.397 169.824C224.874 170.048 224.314 170.16 223.717 170.16ZM231.191 170.16C230.764 170.16 230.359 170.107 229.975 170C229.601 169.883 229.255 169.723 228.935 169.52C228.615 169.307 228.337 169.056 228.103 168.768L229.031 167.84C229.308 168.181 229.628 168.437 229.991 168.608C230.353 168.768 230.759 168.848 231.207 168.848C231.655 168.848 232.001 168.773 232.247 168.624C232.492 168.464 232.615 168.245 232.615 167.968C232.615 167.691 232.513 167.477 232.311 167.328C232.119 167.168 231.868 167.04 231.559 166.944C231.249 166.837 230.919 166.736 230.567 166.64C230.225 166.533 229.9 166.4 229.591 166.24C229.281 166.08 229.025 165.861 228.823 165.584C228.631 165.307 228.535 164.939 228.535 164.48C228.535 164.021 228.647 163.627 228.871 163.296C229.095 162.955 229.404 162.693 229.799 162.512C230.204 162.331 230.689 162.24 231.255 162.24C231.852 162.24 232.38 162.347 232.839 162.56C233.308 162.763 233.692 163.072 233.991 163.488L233.063 164.416C232.849 164.139 232.583 163.925 232.263 163.776C231.953 163.627 231.601 163.552 231.207 163.552C230.791 163.552 230.471 163.627 230.247 163.776C230.033 163.915 229.927 164.112 229.927 164.368C229.927 164.624 230.023 164.821 230.215 164.96C230.407 165.099 230.657 165.216 230.967 165.312C231.287 165.408 231.617 165.509 231.959 165.616C232.3 165.712 232.625 165.845 232.935 166.016C233.244 166.187 233.495 166.416 233.687 166.704C233.889 166.992 233.991 167.371 233.991 167.84C233.991 168.555 233.735 169.12 233.223 169.536C232.721 169.952 232.044 170.16 231.191 170.16ZM239.075 170.16C238.328 170.16 237.651 169.984 237.043 169.632C236.446 169.28 235.971 168.805 235.619 168.208C235.278 167.6 235.107 166.928 235.107 166.192C235.107 165.445 235.278 164.773 235.619 164.176C235.971 163.579 236.446 163.109 237.043 162.768C237.651 162.416 238.328 162.24 239.075 162.24C239.662 162.24 240.206 162.352 240.707 162.576C241.208 162.789 241.64 163.104 242.003 163.52L241.043 164.48C240.808 164.203 240.52 163.995 240.179 163.856C239.848 163.707 239.48 163.632 239.075 163.632C238.595 163.632 238.168 163.744 237.795 163.968C237.422 164.181 237.128 164.48 236.915 164.864C236.702 165.248 236.595 165.691 236.595 166.192C236.595 166.693 236.702 167.136 236.915 167.52C237.128 167.904 237.422 168.208 237.795 168.432C238.168 168.656 238.595 168.768 239.075 168.768C239.48 168.768 239.848 168.699 240.179 168.56C240.52 168.411 240.814 168.197 241.059 167.92L242.003 168.88C241.651 169.285 241.219 169.6 240.707 169.824C240.206 170.048 239.662 170.16 239.075 170.16ZM243.431 170V162.4H244.871V170H243.431ZM244.871 165.664L244.327 165.424C244.327 164.453 244.551 163.68 244.999 163.104C245.447 162.528 246.092 162.24 246.935 162.24C247.319 162.24 247.666 162.309 247.975 162.448C248.284 162.576 248.572 162.795 248.839 163.104L247.895 164.08C247.735 163.909 247.559 163.787 247.367 163.712C247.175 163.637 246.951 163.6 246.695 163.6C246.162 163.6 245.724 163.771 245.383 164.112C245.042 164.453 244.871 164.971 244.871 165.664ZM249.869 170V162.4H251.309V170H249.869ZM250.589 160.88C250.322 160.88 250.104 160.795 249.933 160.624C249.762 160.443 249.677 160.219 249.677 159.952C249.677 159.696 249.762 159.483 249.933 159.312C250.104 159.131 250.322 159.04 250.589 159.04C250.856 159.04 251.074 159.131 251.245 159.312C251.416 159.483 251.501 159.696 251.501 159.952C251.501 160.219 251.416 160.443 251.245 160.624C251.074 160.795 250.856 160.88 250.589 160.88ZM257.431 170.16C256.855 170.16 256.332 170.043 255.863 169.808C255.404 169.563 255.036 169.227 254.759 168.8C254.482 168.373 254.327 167.888 254.295 167.344V165.056C254.327 164.501 254.482 164.016 254.759 163.6C255.047 163.173 255.42 162.843 255.879 162.608C256.348 162.363 256.866 162.24 257.431 162.24C258.124 162.24 258.748 162.416 259.303 162.768C259.868 163.12 260.311 163.595 260.631 164.192C260.951 164.789 261.111 165.461 261.111 166.208C261.111 166.955 260.951 167.627 260.631 168.224C260.311 168.821 259.868 169.296 259.303 169.648C258.748 169.989 258.124 170.16 257.431 170.16ZM253.431 173.184V162.4H254.871V164.4L254.599 166.24L254.871 168.096V173.184H253.431ZM257.191 168.8C257.671 168.8 258.092 168.688 258.455 168.464C258.818 168.24 259.106 167.936 259.319 167.552C259.532 167.157 259.639 166.704 259.639 166.192C259.639 165.691 259.532 165.243 259.319 164.848C259.106 164.453 258.818 164.149 258.455 163.936C258.092 163.712 257.676 163.6 257.207 163.6C256.727 163.6 256.306 163.712 255.943 163.936C255.58 164.149 255.298 164.453 255.095 164.848C254.892 165.243 254.791 165.696 254.791 166.208C254.791 166.709 254.887 167.157 255.079 167.552C255.282 167.936 255.564 168.24 255.927 168.464C256.3 168.688 256.722 168.8 257.191 168.8ZM263.677 170V159.216H265.117V170H263.677ZM261.805 163.712V162.4H266.989V163.712H261.805ZM268.416 170V162.4H269.856V170H268.416ZM269.136 160.88C268.869 160.88 268.65 160.795 268.48 160.624C268.309 160.443 268.224 160.219 268.224 159.952C268.224 159.696 268.309 159.483 268.48 159.312C268.65 159.131 268.869 159.04 269.136 159.04C269.402 159.04 269.621 159.131 269.792 159.312C269.962 159.483 270.048 159.696 270.048 159.952C270.048 160.219 269.962 160.443 269.792 160.624C269.621 160.795 269.402 160.88 269.136 160.88ZM275.45 170.16C274.703 170.16 274.031 169.984 273.434 169.632C272.837 169.28 272.362 168.805 272.01 168.208C271.658 167.6 271.482 166.923 271.482 166.176C271.482 165.44 271.658 164.779 272.01 164.192C272.362 163.595 272.837 163.12 273.434 162.768C274.031 162.416 274.703 162.24 275.45 162.24C276.186 162.24 276.853 162.416 277.45 162.768C278.058 163.109 278.538 163.579 278.89 164.176C279.242 164.773 279.418 165.44 279.418 166.176C279.418 166.923 279.242 167.6 278.89 168.208C278.538 168.805 278.058 169.28 277.45 169.632C276.853 169.984 276.186 170.16 275.45 170.16ZM275.45 168.768C275.93 168.768 276.357 168.656 276.73 168.432C277.103 168.208 277.397 167.904 277.61 167.52C277.823 167.125 277.93 166.677 277.93 166.176C277.93 165.685 277.818 165.248 277.594 164.864C277.381 164.48 277.087 164.181 276.714 163.968C276.351 163.744 275.93 163.632 275.45 163.632C274.97 163.632 274.543 163.744 274.17 163.968C273.797 164.181 273.503 164.48 273.29 164.864C273.077 165.248 272.97 165.685 272.97 166.176C272.97 166.677 273.077 167.125 273.29 167.52C273.503 167.904 273.797 168.208 274.17 168.432C274.543 168.656 274.97 168.768 275.45 168.768ZM286.416 170V165.568C286.416 164.992 286.235 164.517 285.872 164.144C285.51 163.771 285.04 163.584 284.464 163.584C284.08 163.584 283.739 163.669 283.44 163.84C283.142 164.011 282.907 164.245 282.736 164.544C282.566 164.843 282.48 165.184 282.48 165.568L281.888 165.232C281.888 164.656 282.016 164.144 282.272 163.696C282.528 163.248 282.886 162.896 283.344 162.64C283.803 162.373 284.32 162.24 284.896 162.24C285.472 162.24 285.979 162.384 286.416 162.672C286.864 162.96 287.216 163.339 287.472 163.808C287.728 164.267 287.856 164.757 287.856 165.28V170H286.416ZM281.04 170V162.4H282.48V170H281.04ZM294.222 170V161.264C294.222 160.699 294.345 160.208 294.59 159.792C294.835 159.365 295.171 159.029 295.598 158.784C296.035 158.539 296.542 158.416 297.118 158.416C297.555 158.416 297.934 158.491 298.254 158.64C298.574 158.789 298.867 159.008 299.134 159.296L298.19 160.224C298.051 160.075 297.897 159.963 297.726 159.888C297.555 159.803 297.347 159.76 297.102 159.76C296.643 159.76 296.286 159.893 296.03 160.16C295.785 160.427 295.662 160.795 295.662 161.264V170H294.222ZM292.35 163.712V162.4H298.078V163.712H292.35ZM302.559 170.16C301.813 170.16 301.141 169.984 300.543 169.632C299.946 169.28 299.471 168.805 299.119 168.208C298.767 167.6 298.591 166.923 298.591 166.176C298.591 165.44 298.767 164.779 299.119 164.192C299.471 163.595 299.946 163.12 300.543 162.768C301.141 162.416 301.813 162.24 302.559 162.24C303.295 162.24 303.962 162.416 304.559 162.768C305.167 163.109 305.647 163.579 305.999 164.176C306.351 164.773 306.527 165.44 306.527 166.176C306.527 166.923 306.351 167.6 305.999 168.208C305.647 168.805 305.167 169.28 304.559 169.632C303.962 169.984 303.295 170.16 302.559 170.16ZM302.559 168.768C303.039 168.768 303.466 168.656 303.839 168.432C304.213 168.208 304.506 167.904 304.719 167.52C304.933 167.125 305.039 166.677 305.039 166.176C305.039 165.685 304.927 165.248 304.703 164.864C304.49 164.48 304.197 164.181 303.823 163.968C303.461 163.744 303.039 163.632 302.559 163.632C302.079 163.632 301.653 163.744 301.279 163.968C300.906 164.181 300.613 164.48 300.399 164.864C300.186 165.248 300.079 165.685 300.079 166.176C300.079 166.677 300.186 167.125 300.399 167.52C300.613 167.904 300.906 168.208 301.279 168.432C301.653 168.656 302.079 168.768 302.559 168.768ZM308.15 170V162.4H309.59V170H308.15ZM309.59 165.664L309.046 165.424C309.046 164.453 309.27 163.68 309.718 163.104C310.166 162.528 310.811 162.24 311.654 162.24C312.038 162.24 312.384 162.309 312.694 162.448C313.003 162.576 313.291 162.795 313.558 163.104L312.614 164.08C312.454 163.909 312.278 163.787 312.086 163.712C311.894 163.637 311.67 163.6 311.414 163.6C310.88 163.6 310.443 163.771 310.102 164.112C309.76 164.453 309.59 164.971 309.59 165.664ZM319.349 170V159.216H320.789V170H319.349ZM317.477 163.712V162.4H322.661V163.712H317.477ZM329.448 170V165.568C329.448 164.992 329.266 164.517 328.904 164.144C328.541 163.771 328.072 163.584 327.496 163.584C327.112 163.584 326.77 163.669 326.472 163.84C326.173 164.011 325.938 164.245 325.768 164.544C325.597 164.843 325.512 165.184 325.512 165.568L324.92 165.232C324.92 164.656 325.048 164.144 325.304 163.696C325.56 163.248 325.917 162.896 326.376 162.64C326.834 162.373 327.352 162.24 327.928 162.24C328.504 162.24 329.01 162.368 329.448 162.624C329.896 162.88 330.248 163.237 330.504 163.696C330.76 164.155 330.888 164.683 330.888 165.28V170H329.448ZM324.072 170V158.576H325.512V170H324.072ZM336.357 170.16C335.6 170.16 334.917 169.989 334.309 169.648C333.701 169.296 333.221 168.821 332.869 168.224C332.517 167.627 332.341 166.949 332.341 166.192C332.341 165.445 332.512 164.773 332.853 164.176C333.205 163.579 333.675 163.109 334.261 162.768C334.859 162.416 335.525 162.24 336.261 162.24C336.965 162.24 337.584 162.4 338.117 162.72C338.661 163.04 339.083 163.483 339.381 164.048C339.691 164.613 339.845 165.253 339.845 165.968C339.845 166.075 339.84 166.192 339.829 166.32C339.819 166.437 339.797 166.576 339.765 166.736H333.349V165.536H338.997L338.469 166C338.469 165.488 338.379 165.056 338.197 164.704C338.016 164.341 337.76 164.064 337.429 163.872C337.099 163.669 336.699 163.568 336.229 163.568C335.739 163.568 335.307 163.675 334.933 163.888C334.56 164.101 334.272 164.4 334.069 164.784C333.867 165.168 333.765 165.621 333.765 166.144C333.765 166.677 333.872 167.147 334.085 167.552C334.299 167.947 334.603 168.256 334.997 168.48C335.392 168.693 335.845 168.8 336.357 168.8C336.784 168.8 337.173 168.725 337.525 168.576C337.888 168.427 338.197 168.203 338.453 167.904L339.381 168.848C339.019 169.275 338.571 169.6 338.037 169.824C337.515 170.048 336.955 170.16 336.357 170.16ZM347.96 170.16C347.256 170.16 346.626 169.989 346.072 169.648C345.517 169.296 345.074 168.821 344.743 168.224C344.424 167.627 344.264 166.955 344.264 166.208C344.264 165.461 344.424 164.789 344.743 164.192C345.074 163.595 345.517 163.12 346.072 162.768C346.626 162.416 347.256 162.24 347.96 162.24C348.525 162.24 349.037 162.363 349.496 162.608C349.954 162.843 350.322 163.173 350.6 163.6C350.888 164.016 351.048 164.501 351.08 165.056V167.344C351.048 167.888 350.893 168.373 350.616 168.8C350.338 169.227 349.97 169.563 349.512 169.808C349.053 170.043 348.536 170.16 347.96 170.16ZM348.2 168.8C348.68 168.8 349.096 168.688 349.448 168.464C349.81 168.24 350.093 167.936 350.296 167.552C350.498 167.157 350.6 166.709 350.6 166.208C350.6 165.685 350.493 165.232 350.28 164.848C350.077 164.464 349.794 164.16 349.432 163.936C349.08 163.712 348.664 163.6 348.184 163.6C347.704 163.6 347.282 163.712 346.92 163.936C346.557 164.16 346.269 164.469 346.056 164.864C345.853 165.248 345.752 165.691 345.752 166.192C345.752 166.704 345.853 167.157 346.056 167.552C346.269 167.936 346.557 168.24 346.92 168.464C347.293 168.688 347.72 168.8 348.2 168.8ZM351.96 170H350.504V167.952L350.776 166.096L350.504 164.256V158.576H351.96V170ZM354.072 170V162.4H355.512V170H354.072ZM354.792 160.88C354.525 160.88 354.307 160.795 354.136 160.624C353.965 160.443 353.88 160.219 353.88 159.952C353.88 159.696 353.965 159.483 354.136 159.312C354.307 159.131 354.525 159.04 354.792 159.04C355.059 159.04 355.277 159.131 355.448 159.312C355.619 159.483 355.704 159.696 355.704 159.952C355.704 160.219 355.619 160.443 355.448 160.624C355.277 160.795 355.059 160.88 354.792 160.88ZM360.866 170.16C360.173 170.16 359.543 169.989 358.978 169.648C358.413 169.296 357.965 168.821 357.634 168.224C357.314 167.627 357.154 166.955 357.154 166.208C357.154 165.461 357.314 164.789 357.634 164.192C357.965 163.595 358.407 163.12 358.962 162.768C359.527 162.416 360.162 162.24 360.866 162.24C361.442 162.24 361.954 162.363 362.402 162.608C362.861 162.843 363.229 163.173 363.506 163.6C363.783 164.016 363.938 164.501 363.97 165.056V167.344C363.938 167.888 363.783 168.373 363.506 168.8C363.239 169.227 362.877 169.563 362.418 169.808C361.97 170.043 361.453 170.16 360.866 170.16ZM361.106 168.8C361.821 168.8 362.397 168.56 362.834 168.08C363.271 167.589 363.49 166.965 363.49 166.208C363.49 165.685 363.389 165.232 363.186 164.848C362.994 164.453 362.717 164.149 362.354 163.936C361.991 163.712 361.57 163.6 361.09 163.6C360.61 163.6 360.183 163.712 359.81 163.936C359.447 164.16 359.159 164.469 358.946 164.864C358.743 165.248 358.642 165.691 358.642 166.192C358.642 166.704 358.743 167.157 358.946 167.552C359.159 167.936 359.453 168.24 359.826 168.464C360.199 168.688 360.626 168.8 361.106 168.8ZM363.394 170V167.952L363.666 166.096L363.394 164.256V162.4H364.85V170H363.394ZM366.947 170V158.576H368.387V170H366.947ZM373.966 170.16C373.219 170.16 372.547 169.984 371.95 169.632C371.352 169.28 370.878 168.805 370.526 168.208C370.174 167.6 369.998 166.923 369.998 166.176C369.998 165.44 370.174 164.779 370.526 164.192C370.878 163.595 371.352 163.12 371.95 162.768C372.547 162.416 373.219 162.24 373.966 162.24C374.702 162.24 375.368 162.416 375.966 162.768C376.574 163.109 377.054 163.579 377.406 164.176C377.758 164.773 377.934 165.44 377.934 166.176C377.934 166.923 377.758 167.6 377.406 168.208C377.054 168.805 376.574 169.28 375.966 169.632C375.368 169.984 374.702 170.16 373.966 170.16ZM373.966 168.768C374.446 168.768 374.872 168.656 375.246 168.432C375.619 168.208 375.912 167.904 376.126 167.52C376.339 167.125 376.446 166.677 376.446 166.176C376.446 165.685 376.334 165.248 376.11 164.864C375.896 164.48 375.603 164.181 375.23 163.968C374.867 163.744 374.446 163.632 373.966 163.632C373.486 163.632 373.059 163.744 372.686 163.968C372.312 164.181 372.019 164.48 371.806 164.864C371.592 165.248 371.486 165.685 371.486 166.176C371.486 166.677 371.592 167.125 371.806 167.52C372.019 167.904 372.312 168.208 372.686 168.432C373.059 168.656 373.486 168.768 373.966 168.768ZM382.708 173.344C381.929 173.344 381.236 173.2 380.628 172.912C380.031 172.624 379.551 172.219 379.188 171.696L380.116 170.752C380.425 171.147 380.793 171.445 381.22 171.648C381.647 171.861 382.153 171.968 382.74 171.968C383.519 171.968 384.132 171.76 384.58 171.344C385.039 170.939 385.268 170.389 385.268 169.696V167.808L385.524 166.096L385.268 164.4V162.4H386.708V169.696C386.708 170.421 386.537 171.056 386.196 171.6C385.865 172.144 385.396 172.571 384.788 172.88C384.191 173.189 383.497 173.344 382.708 173.344ZM382.708 169.872C382.015 169.872 381.391 169.707 380.836 169.376C380.292 169.045 379.86 168.592 379.54 168.016C379.22 167.429 379.06 166.773 379.06 166.048C379.06 165.323 379.22 164.677 379.54 164.112C379.86 163.536 380.292 163.083 380.836 162.752C381.391 162.411 382.015 162.24 382.708 162.24C383.305 162.24 383.833 162.357 384.292 162.592C384.751 162.827 385.113 163.157 385.38 163.584C385.657 164 385.807 164.491 385.828 165.056V167.072C385.796 167.627 385.641 168.117 385.364 168.544C385.097 168.96 384.735 169.285 384.276 169.52C383.817 169.755 383.295 169.872 382.708 169.872ZM382.996 168.512C383.465 168.512 383.876 168.411 384.228 168.208C384.591 168.005 384.868 167.723 385.06 167.36C385.252 166.987 385.348 166.555 385.348 166.064C385.348 165.573 385.247 165.147 385.044 164.784C384.852 164.411 384.58 164.123 384.228 163.92C383.876 163.707 383.46 163.6 382.98 163.6C382.5 163.6 382.079 163.707 381.716 163.92C381.353 164.123 381.065 164.411 380.852 164.784C380.649 165.147 380.548 165.568 380.548 166.048C380.548 166.528 380.649 166.955 380.852 167.328C381.065 167.701 381.353 167.995 381.716 168.208C382.089 168.411 382.516 168.512 382.996 168.512ZM395.622 170.16C394.875 170.16 394.198 169.984 393.59 169.632C392.992 169.28 392.518 168.805 392.166 168.208C391.824 167.6 391.654 166.928 391.654 166.192C391.654 165.445 391.824 164.773 392.166 164.176C392.518 163.579 392.992 163.109 393.59 162.768C394.198 162.416 394.875 162.24 395.622 162.24C396.208 162.24 396.752 162.352 397.254 162.576C397.755 162.789 398.187 163.104 398.55 163.52L397.59 164.48C397.355 164.203 397.067 163.995 396.726 163.856C396.395 163.707 396.027 163.632 395.622 163.632C395.142 163.632 394.715 163.744 394.342 163.968C393.968 164.181 393.675 164.48 393.462 164.864C393.248 165.248 393.142 165.691 393.142 166.192C393.142 166.693 393.248 167.136 393.462 167.52C393.675 167.904 393.968 168.208 394.342 168.432C394.715 168.656 395.142 168.768 395.622 168.768C396.027 168.768 396.395 168.699 396.726 168.56C397.067 168.411 397.36 168.197 397.606 167.92L398.55 168.88C398.198 169.285 397.766 169.6 397.254 169.824C396.752 170.048 396.208 170.16 395.622 170.16ZM403.294 170.16C402.547 170.16 401.875 169.984 401.278 169.632C400.68 169.28 400.206 168.805 399.854 168.208C399.502 167.6 399.326 166.923 399.326 166.176C399.326 165.44 399.502 164.779 399.854 164.192C400.206 163.595 400.68 163.12 401.278 162.768C401.875 162.416 402.547 162.24 403.294 162.24C404.03 162.24 404.696 162.416 405.294 162.768C405.902 163.109 406.382 163.579 406.734 164.176C407.086 164.773 407.262 165.44 407.262 166.176C407.262 166.923 407.086 167.6 406.734 168.208C406.382 168.805 405.902 169.28 405.294 169.632C404.696 169.984 404.03 170.16 403.294 170.16ZM403.294 168.768C403.774 168.768 404.2 168.656 404.574 168.432C404.947 168.208 405.24 167.904 405.454 167.52C405.667 167.125 405.774 166.677 405.774 166.176C405.774 165.685 405.662 165.248 405.438 164.864C405.224 164.48 404.931 164.181 404.558 163.968C404.195 163.744 403.774 163.632 403.294 163.632C402.814 163.632 402.387 163.744 402.014 163.968C401.64 164.181 401.347 164.48 401.134 164.864C400.92 165.248 400.814 165.685 400.814 166.176C400.814 166.677 400.92 167.125 401.134 167.52C401.347 167.904 401.64 168.208 402.014 168.432C402.387 168.656 402.814 168.768 403.294 168.768ZM408.884 170V162.4H410.324V170H408.884ZM414.02 170V165.408C414.02 164.843 413.844 164.4 413.492 164.08C413.151 163.749 412.719 163.584 412.196 163.584C411.844 163.584 411.529 163.659 411.252 163.808C410.975 163.957 410.751 164.165 410.58 164.432C410.409 164.699 410.324 165.019 410.324 165.392L409.732 165.104C409.732 164.528 409.855 164.027 410.1 163.6C410.356 163.173 410.703 162.843 411.14 162.608C411.577 162.363 412.068 162.24 412.612 162.24C413.145 162.24 413.625 162.357 414.052 162.592C414.489 162.827 414.831 163.157 415.076 163.584C415.332 164.011 415.46 164.517 415.46 165.104V170H414.02ZM419.156 170V165.408C419.156 164.843 418.98 164.4 418.628 164.08C418.287 163.749 417.86 163.584 417.348 163.584C416.996 163.584 416.676 163.659 416.388 163.808C416.111 163.957 415.887 164.165 415.716 164.432C415.545 164.699 415.46 165.019 415.46 165.392L414.644 165.104C414.676 164.517 414.831 164.016 415.108 163.6C415.396 163.173 415.764 162.843 416.212 162.608C416.66 162.363 417.151 162.24 417.684 162.24C418.239 162.24 418.735 162.357 419.172 162.592C419.609 162.827 419.956 163.157 420.212 163.584C420.479 164.011 420.612 164.523 420.612 165.12V170H419.156ZM426.572 170.16C425.996 170.16 425.473 170.043 425.004 169.808C424.545 169.563 424.177 169.227 423.9 168.8C423.622 168.373 423.468 167.888 423.436 167.344V165.056C423.468 164.501 423.622 164.016 423.9 163.6C424.188 163.173 424.561 162.843 425.02 162.608C425.489 162.363 426.006 162.24 426.572 162.24C427.265 162.24 427.889 162.416 428.444 162.768C429.009 163.12 429.452 163.595 429.772 164.192C430.092 164.789 430.252 165.461 430.252 166.208C430.252 166.955 430.092 167.627 429.772 168.224C429.452 168.821 429.009 169.296 428.444 169.648C427.889 169.989 427.265 170.16 426.572 170.16ZM422.572 173.184V162.4H424.012V164.4L423.74 166.24L424.012 168.096V173.184H422.572ZM426.332 168.8C426.812 168.8 427.233 168.688 427.596 168.464C427.958 168.24 428.246 167.936 428.46 167.552C428.673 167.157 428.78 166.704 428.78 166.192C428.78 165.691 428.673 165.243 428.46 164.848C428.246 164.453 427.958 164.149 427.596 163.936C427.233 163.712 426.817 163.6 426.348 163.6C425.868 163.6 425.446 163.712 425.084 163.936C424.721 164.149 424.438 164.453 424.236 164.848C424.033 165.243 423.932 165.696 423.932 166.208C423.932 166.709 424.028 167.157 424.22 167.552C424.422 167.936 424.705 168.24 425.068 168.464C425.441 168.688 425.862 168.8 426.332 168.8ZM435.356 170.16C434.609 170.16 433.937 169.984 433.34 169.632C432.743 169.28 432.268 168.805 431.916 168.208C431.564 167.6 431.388 166.923 431.388 166.176C431.388 165.44 431.564 164.779 431.916 164.192C432.268 163.595 432.743 163.12 433.34 162.768C433.937 162.416 434.609 162.24 435.356 162.24C436.092 162.24 436.759 162.416 437.356 162.768C437.964 163.109 438.444 163.579 438.796 164.176C439.148 164.773 439.324 165.44 439.324 166.176C439.324 166.923 439.148 167.6 438.796 168.208C438.444 168.805 437.964 169.28 437.356 169.632C436.759 169.984 436.092 170.16 435.356 170.16ZM435.356 168.768C435.836 168.768 436.263 168.656 436.636 168.432C437.009 168.208 437.303 167.904 437.516 167.52C437.729 167.125 437.836 166.677 437.836 166.176C437.836 165.685 437.724 165.248 437.5 164.864C437.287 164.48 436.993 164.181 436.62 163.968C436.257 163.744 435.836 163.632 435.356 163.632C434.876 163.632 434.449 163.744 434.076 163.968C433.703 164.181 433.409 164.48 433.196 164.864C432.983 165.248 432.876 165.685 432.876 166.176C432.876 166.677 432.983 167.125 433.196 167.52C433.409 167.904 433.703 168.208 434.076 168.432C434.449 168.656 434.876 168.768 435.356 168.768ZM446.323 170V165.568C446.323 164.992 446.141 164.517 445.779 164.144C445.416 163.771 444.947 163.584 444.371 163.584C443.987 163.584 443.645 163.669 443.347 163.84C443.048 164.011 442.813 164.245 442.643 164.544C442.472 164.843 442.387 165.184 442.387 165.568L441.795 165.232C441.795 164.656 441.923 164.144 442.179 163.696C442.435 163.248 442.792 162.896 443.251 162.64C443.709 162.373 444.227 162.24 444.803 162.24C445.379 162.24 445.885 162.384 446.323 162.672C446.771 162.96 447.123 163.339 447.379 163.808C447.635 164.267 447.763 164.757 447.763 165.28V170H446.323ZM440.947 170V162.4H442.387V170H440.947ZM453.232 170.16C452.475 170.16 451.792 169.989 451.184 169.648C450.576 169.296 450.096 168.821 449.744 168.224C449.392 167.627 449.216 166.949 449.216 166.192C449.216 165.445 449.387 164.773 449.728 164.176C450.08 163.579 450.55 163.109 451.136 162.768C451.734 162.416 452.4 162.24 453.136 162.24C453.84 162.24 454.459 162.4 454.992 162.72C455.536 163.04 455.958 163.483 456.256 164.048C456.566 164.613 456.72 165.253 456.72 165.968C456.72 166.075 456.715 166.192 456.704 166.32C456.694 166.437 456.672 166.576 456.64 166.736H450.224V165.536H455.872L455.344 166C455.344 165.488 455.254 165.056 455.072 164.704C454.891 164.341 454.635 164.064 454.304 163.872C453.974 163.669 453.574 163.568 453.104 163.568C452.614 163.568 452.182 163.675 451.808 163.888C451.435 164.101 451.147 164.4 450.944 164.784C450.742 165.168 450.64 165.621 450.64 166.144C450.64 166.677 450.747 167.147 450.96 167.552C451.174 167.947 451.478 168.256 451.872 168.48C452.267 168.693 452.72 168.8 453.232 168.8C453.659 168.8 454.048 168.725 454.4 168.576C454.763 168.427 455.072 168.203 455.328 167.904L456.256 168.848C455.894 169.275 455.446 169.6 454.912 169.824C454.39 170.048 453.83 170.16 453.232 170.16ZM463.666 170V165.568C463.666 164.992 463.485 164.517 463.122 164.144C462.76 163.771 462.29 163.584 461.714 163.584C461.33 163.584 460.989 163.669 460.69 163.84C460.392 164.011 460.157 164.245 459.986 164.544C459.816 164.843 459.73 165.184 459.73 165.568L459.138 165.232C459.138 164.656 459.266 164.144 459.522 163.696C459.778 163.248 460.136 162.896 460.594 162.64C461.053 162.373 461.57 162.24 462.146 162.24C462.722 162.24 463.229 162.384 463.666 162.672C464.114 162.96 464.466 163.339 464.722 163.808C464.978 164.267 465.106 164.757 465.106 165.28V170H463.666ZM458.29 170V162.4H459.73V170H458.29ZM468.13 170V159.216H469.57V170H468.13ZM466.258 163.712V162.4H471.442V163.712H466.258ZM473.57 170.16C473.271 170.16 473.021 170.059 472.818 169.856C472.626 169.643 472.53 169.392 472.53 169.104C472.53 168.805 472.626 168.56 472.818 168.368C473.021 168.165 473.271 168.064 473.57 168.064C473.869 168.064 474.114 168.165 474.306 168.368C474.509 168.56 474.61 168.805 474.61 169.104C474.61 169.392 474.509 169.643 474.306 169.856C474.114 170.059 473.869 170.16 473.57 170.16Z" fill="#2A2C35"/>
<path d="M96 200H576V280C576 287.542 576 291.314 573.657 293.657C571.314 296 567.542 296 560 296H112C104.458 296 100.686 296 98.3431 293.657C96 291.314 96 287.542 96 280V200Z" fill="#F1F2F4"/>
<mask id="path-8-inside-1_14202_14032" fill="white">
<path d="M386 248C386 236.686 386 231.029 389.515 227.515C393.029 224 398.686 224 410 224H441C452.314 224 457.971 224 461.485 227.515C465 231.029 465 236.686 465 248C465 259.314 465 264.971 461.485 268.485C457.971 272 452.314 272 441 272H410C398.686 272 393.029 272 389.515 268.485C386 264.971 386 259.314 386 248Z"/>
</mask>
<path d="M389.515 268.485L388.101 269.899L389.515 268.485ZM461.485 268.485L462.899 269.899L461.485 268.485ZM461.485 227.515L460.071 228.929L461.485 227.515ZM389.515 227.515L388.101 226.101L389.515 227.515ZM410 224V226H441V224V222H410V224ZM441 272V270H410V272V274H441V272ZM410 272V270C404.287 270 400.203 269.996 397.099 269.578C394.053 269.169 392.253 268.395 390.929 267.071L389.515 268.485L388.101 269.899C390.291 272.09 393.077 273.074 396.566 273.543C399.998 274.004 404.4 274 410 274V272ZM386 248H384C384 253.6 383.996 258.002 384.457 261.434C384.926 264.923 385.91 267.709 388.101 269.899L389.515 268.485L390.929 267.071C389.605 265.747 388.831 263.947 388.422 260.901C388.004 257.797 388 253.713 388 248H386ZM465 248H463C463 253.713 462.996 257.797 462.578 260.901C462.169 263.947 461.395 265.747 460.071 267.071L461.485 268.485L462.899 269.899C465.09 267.709 466.074 264.923 466.543 261.434C467.004 258.002 467 253.6 467 248H465ZM441 272V274C446.6 274 451.002 274.004 454.434 273.543C457.923 273.074 460.709 272.09 462.899 269.899L461.485 268.485L460.071 267.071C458.747 268.395 456.947 269.169 453.901 269.578C450.797 269.996 446.713 270 441 270V272ZM441 224V226C446.713 226 450.797 226.004 453.901 226.422C456.947 226.831 458.747 227.605 460.071 228.929L461.485 227.515L462.899 226.101C460.709 223.91 457.923 222.926 454.434 222.457C451.002 221.996 446.6 222 441 222V224ZM465 248H467C467 242.4 467.004 237.998 466.543 234.566C466.074 231.077 465.09 228.291 462.899 226.101L461.485 227.515L460.071 228.929C461.395 230.253 462.169 232.053 462.578 235.099C462.996 238.203 463 242.287 463 248H465ZM410 224V222C404.4 222 399.998 221.996 396.566 222.457C393.077 222.926 390.291 223.91 388.101 226.101L389.515 227.515L390.929 228.929C392.253 227.605 394.053 226.831 397.099 226.422C400.203 226.004 404.287 226 410 226V224ZM386 248H388C388 242.287 388.004 238.203 388.422 235.099C388.831 232.053 389.605 230.253 390.929 228.929L389.515 227.515L388.101 226.101C385.91 228.291 384.926 231.077 384.457 234.566C383.996 237.998 384 242.4 384 248H386Z" fill="#4F46E5" mask="url(#path-8-inside-1_14202_14032)"/>
<path d="M404.722 254V252.4H407.938C408.504 252.4 408.941 252.224 409.25 251.872C409.56 251.52 409.714 251.115 409.714 250.656C409.714 250.347 409.645 250.059 409.506 249.792C409.368 249.525 409.165 249.312 408.898 249.152C408.632 248.992 408.312 248.912 407.938 248.912H404.722V247.312H407.666C408.146 247.312 408.53 247.189 408.818 246.944C409.106 246.699 409.25 246.336 409.25 245.856C409.25 245.376 409.106 245.013 408.818 244.768C408.53 244.523 408.146 244.4 407.666 244.4H404.722V242.8H407.714C408.472 242.8 409.101 242.939 409.602 243.216C410.104 243.493 410.477 243.851 410.722 244.288C410.968 244.725 411.09 245.195 411.09 245.696C411.09 246.283 410.925 246.8 410.594 247.248C410.274 247.696 409.8 248.059 409.17 248.336L409.314 247.76C410.018 248.048 410.568 248.453 410.962 248.976C411.357 249.499 411.554 250.112 411.554 250.816C411.554 251.392 411.41 251.92 411.122 252.4C410.845 252.88 410.429 253.269 409.874 253.568C409.33 253.856 408.658 254 407.858 254H404.722ZM403.458 254V242.8H405.298V254H403.458ZM416.323 254.16C415.673 254.16 415.091 254.016 414.579 253.728C414.078 253.44 413.683 253.045 413.395 252.544C413.118 252.032 412.979 251.445 412.979 250.784V246.32H414.739V250.704C414.739 251.077 414.798 251.397 414.915 251.664C415.043 251.92 415.225 252.117 415.459 252.256C415.705 252.395 415.993 252.464 416.323 252.464C416.835 252.464 417.225 252.315 417.491 252.016C417.769 251.707 417.907 251.269 417.907 250.704V246.32H419.667V250.784C419.667 251.456 419.523 252.048 419.235 252.56C418.958 253.061 418.569 253.456 418.067 253.744C417.566 254.021 416.985 254.16 416.323 254.16ZM422.605 254V243.12H424.365V254H422.605ZM420.765 247.92V246.32H430.845V247.92H420.765ZM427.245 254V243.12H429.005V254H427.245ZM435.426 254.16C434.679 254.16 434.002 253.984 433.394 253.632C432.786 253.269 432.3 252.784 431.938 252.176C431.586 251.568 431.41 250.891 431.41 250.144C431.41 249.397 431.586 248.725 431.938 248.128C432.3 247.531 432.786 247.056 433.394 246.704C434.002 246.341 434.679 246.16 435.426 246.16C436.183 246.16 436.866 246.336 437.474 246.688C438.082 247.04 438.562 247.52 438.914 248.128C439.276 248.725 439.458 249.397 439.458 250.144C439.458 250.891 439.276 251.568 438.914 252.176C438.562 252.784 438.082 253.269 437.474 253.632C436.866 253.984 436.183 254.16 435.426 254.16ZM435.426 252.464C435.863 252.464 436.247 252.368 436.578 252.176C436.919 251.973 437.18 251.696 437.362 251.344C437.554 250.992 437.65 250.592 437.65 250.144C437.65 249.696 437.554 249.301 437.362 248.96C437.17 248.619 436.908 248.352 436.578 248.16C436.247 247.957 435.863 247.856 435.426 247.856C434.999 247.856 434.615 247.957 434.274 248.16C433.943 248.352 433.682 248.619 433.49 248.96C433.308 249.301 433.218 249.696 433.218 250.144C433.218 250.592 433.308 250.992 433.49 251.344C433.682 251.696 433.943 251.973 434.274 252.176C434.615 252.368 434.999 252.464 435.426 252.464ZM446.185 254V249.568C446.185 249.056 446.02 248.635 445.689 248.304C445.369 247.973 444.953 247.808 444.441 247.808C444.1 247.808 443.796 247.883 443.529 248.032C443.263 248.181 443.055 248.389 442.905 248.656C442.756 248.923 442.681 249.227 442.681 249.568L441.993 249.184C441.993 248.597 442.121 248.08 442.377 247.632C442.633 247.173 442.985 246.816 443.433 246.56C443.892 246.293 444.404 246.16 444.969 246.16C445.545 246.16 446.057 246.309 446.505 246.608C446.953 246.896 447.305 247.275 447.561 247.744C447.817 248.203 447.945 248.683 447.945 249.184V254H446.185ZM440.921 254V246.32H442.681V254H440.921Z" fill="#4F46E5"/>
<path d="M473 248C473 236.686 473 231.029 476.515 227.515C480.029 224 485.686 224 497 224H528C539.314 224 544.971 224 548.485 227.515C552 231.029 552 236.686 552 248C552 259.314 552 264.971 548.485 268.485C544.971 272 539.314 272 528 272H497C485.686 272 480.029 272 476.515 268.485C473 264.971 473 259.314 473 248Z" fill="#4F46E5"/>
<path d="M491.722 254V252.4H494.938C495.504 252.4 495.941 252.224 496.25 251.872C496.56 251.52 496.714 251.115 496.714 250.656C496.714 250.347 496.645 250.059 496.506 249.792C496.368 249.525 496.165 249.312 495.898 249.152C495.632 248.992 495.312 248.912 494.938 248.912H491.722V247.312H494.666C495.146 247.312 495.53 247.189 495.818 246.944C496.106 246.699 496.25 246.336 496.25 245.856C496.25 245.376 496.106 245.013 495.818 244.768C495.53 244.523 495.146 244.4 494.666 244.4H491.722V242.8H494.714C495.472 242.8 496.101 242.939 496.602 243.216C497.104 243.493 497.477 243.851 497.722 244.288C497.968 244.725 498.09 245.195 498.09 245.696C498.09 246.283 497.925 246.8 497.594 247.248C497.274 247.696 496.8 248.059 496.17 248.336L496.314 247.76C497.018 248.048 497.568 248.453 497.962 248.976C498.357 249.499 498.554 250.112 498.554 250.816C498.554 251.392 498.41 251.92 498.122 252.4C497.845 252.88 497.429 253.269 496.874 253.568C496.33 253.856 495.658 254 494.858 254H491.722ZM490.458 254V242.8H492.298V254H490.458ZM503.323 254.16C502.673 254.16 502.091 254.016 501.579 253.728C501.078 253.44 500.683 253.045 500.395 252.544C500.118 252.032 499.979 251.445 499.979 250.784V246.32H501.739V250.704C501.739 251.077 501.798 251.397 501.915 251.664C502.043 251.92 502.225 252.117 502.459 252.256C502.705 252.395 502.993 252.464 503.323 252.464C503.835 252.464 504.225 252.315 504.491 252.016C504.769 251.707 504.907 251.269 504.907 250.704V246.32H506.667V250.784C506.667 251.456 506.523 252.048 506.235 252.56C505.958 253.061 505.569 253.456 505.067 253.744C504.566 254.021 503.985 254.16 503.323 254.16ZM509.605 254V243.12H511.365V254H509.605ZM507.765 247.92V246.32H517.845V247.92H507.765ZM514.245 254V243.12H516.005V254H514.245ZM522.426 254.16C521.679 254.16 521.002 253.984 520.394 253.632C519.786 253.269 519.3 252.784 518.938 252.176C518.586 251.568 518.41 250.891 518.41 250.144C518.41 249.397 518.586 248.725 518.938 248.128C519.3 247.531 519.786 247.056 520.394 246.704C521.002 246.341 521.679 246.16 522.426 246.16C523.183 246.16 523.866 246.336 524.474 246.688C525.082 247.04 525.562 247.52 525.914 248.128C526.276 248.725 526.458 249.397 526.458 250.144C526.458 250.891 526.276 251.568 525.914 252.176C525.562 252.784 525.082 253.269 524.474 253.632C523.866 253.984 523.183 254.16 522.426 254.16ZM522.426 252.464C522.863 252.464 523.247 252.368 523.578 252.176C523.919 251.973 524.18 251.696 524.362 251.344C524.554 250.992 524.65 250.592 524.65 250.144C524.65 249.696 524.554 249.301 524.362 248.96C524.17 248.619 523.908 248.352 523.578 248.16C523.247 247.957 522.863 247.856 522.426 247.856C521.999 247.856 521.615 247.957 521.274 248.16C520.943 248.352 520.682 248.619 520.49 248.96C520.308 249.301 520.218 249.696 520.218 250.144C520.218 250.592 520.308 250.992 520.49 251.344C520.682 251.696 520.943 251.973 521.274 252.176C521.615 252.368 521.999 252.464 522.426 252.464ZM533.185 254V249.568C533.185 249.056 533.02 248.635 532.689 248.304C532.369 247.973 531.953 247.808 531.441 247.808C531.1 247.808 530.796 247.883 530.529 248.032C530.263 248.181 530.055 248.389 529.905 248.656C529.756 248.923 529.681 249.227 529.681 249.568L528.993 249.184C528.993 248.597 529.121 248.08 529.377 247.632C529.633 247.173 529.985 246.816 530.433 246.56C530.892 246.293 531.404 246.16 531.969 246.16C532.545 246.16 533.057 246.309 533.505 246.608C533.953 246.896 534.305 247.275 534.561 247.744C534.817 248.203 534.945 248.683 534.945 249.184V254H533.185ZM527.921 254V246.32H529.681V254H527.921Z" fill="white"/>
</g>
<rect x="24" y="106" width="89" height="1" fill="#E1172F"/>
<g clip-path="url(#clip1_14202_14032)">
<rect x="24" y="95" width="24" height="24" rx="12" fill="#E1172F"/>
<path d="M37.8302 101.818V112H35.6775V103.862H35.6178L33.2861 105.323V103.414L35.8067 101.818H37.8302Z" fill="white"/>
</g>
<rect x="566" y="247" width="89" height="1" fill="#E1172F"/>
<g clip-path="url(#clip2_14202_14032)">
<rect x="631" y="236" width="24" height="24" rx="12" fill="#E1172F"/>
<path d="M643.112 253.139C642.588 253.136 642.083 253.048 641.596 252.876C641.112 252.703 640.677 252.423 640.293 252.036C639.908 251.648 639.604 251.134 639.378 250.494C639.156 249.855 639.045 249.069 639.045 248.138C639.048 247.283 639.146 246.519 639.338 245.846C639.534 245.17 639.812 244.596 640.174 244.126C640.538 243.655 640.974 243.297 641.481 243.052C641.988 242.803 642.557 242.679 643.186 242.679C643.866 242.679 644.466 242.812 644.986 243.077C645.507 243.339 645.924 243.695 646.239 244.146C646.557 244.596 646.749 245.102 646.816 245.662H644.693C644.61 245.307 644.436 245.029 644.171 244.827C643.906 244.625 643.578 244.523 643.186 244.523C642.524 244.523 642.02 244.812 641.675 245.388C641.334 245.965 641.16 246.749 641.153 247.74H641.223C641.375 247.438 641.581 247.182 641.839 246.969C642.101 246.754 642.398 246.59 642.729 246.477C643.064 246.361 643.417 246.303 643.788 246.303C644.391 246.303 644.928 246.446 645.399 246.731C645.869 247.013 646.241 247.4 646.512 247.894C646.784 248.388 646.92 248.953 646.92 249.589C646.92 250.279 646.759 250.892 646.438 251.429C646.12 251.966 645.674 252.387 645.1 252.692C644.53 252.993 643.868 253.143 643.112 253.139ZM643.102 251.449C643.433 251.449 643.73 251.369 643.992 251.21C644.254 251.051 644.459 250.836 644.608 250.564C644.757 250.292 644.832 249.987 644.832 249.649C644.832 249.311 644.757 249.008 644.608 248.739C644.462 248.471 644.26 248.257 644.002 248.098C643.743 247.939 643.448 247.859 643.117 247.859C642.868 247.859 642.638 247.906 642.426 247.999C642.217 248.091 642.033 248.221 641.874 248.386C641.718 248.552 641.596 248.744 641.506 248.963C641.417 249.179 641.372 249.409 641.372 249.654C641.372 249.982 641.446 250.282 641.596 250.554C641.748 250.826 641.953 251.043 642.212 251.205C642.474 251.368 642.77 251.449 643.102 251.449Z" fill="white"/>
</g>
<rect x="24" y="139" width="80" height="1" fill="#E1172F"/>
<g clip-path="url(#clip3_14202_14032)">
<rect x="24" y="128" width="24" height="24" rx="12" fill="#E1172F"/>
<path d="M36.0323 145.139C35.3297 145.139 34.7032 145.01 34.1531 144.751C33.6062 144.493 33.172 144.137 32.8505 143.683C32.529 143.228 32.3616 142.708 32.3484 142.121H34.4364C34.4596 142.516 34.6254 142.836 34.9336 143.081C35.2418 143.326 35.6081 143.449 36.0323 143.449C36.3704 143.449 36.6687 143.374 36.9272 143.225C37.189 143.073 37.3929 142.862 37.5387 142.594C37.6879 142.322 37.7624 142.01 37.7624 141.659C37.7624 141.301 37.6862 140.986 37.5337 140.714C37.3846 140.443 37.1774 140.231 36.9123 140.078C36.6471 139.926 36.3439 139.848 36.0025 139.844C35.7042 139.844 35.4142 139.906 35.1325 140.028C34.854 140.151 34.637 140.318 34.4812 140.531L32.5671 140.188L33.0494 134.818H39.2738V136.578H34.8242L34.5607 139.129H34.6204C34.7994 138.877 35.0695 138.668 35.4308 138.502C35.792 138.336 36.1964 138.254 36.6438 138.254C37.257 138.254 37.8039 138.398 38.2844 138.686C38.765 138.974 39.1445 139.371 39.4229 139.874C39.7013 140.375 39.8389 140.951 39.8356 141.604C39.8389 142.29 39.6798 142.9 39.3583 143.434C39.0401 143.964 38.5943 144.382 38.021 144.687C37.4509 144.988 36.788 145.139 36.0323 145.139Z" fill="white"/>
</g>
<rect x="134.5" y="24" width="1" height="60" fill="#E1172F"/>
<g clip-path="url(#clip4_14202_14032)">
<rect x="123.5" y="24" width="24" height="24" rx="12" fill="#E1172F"/>
<path d="M131.916 41V39.4489L135.54 36.093C135.849 35.7947 136.107 35.5263 136.316 35.2876C136.528 35.049 136.689 34.8153 136.798 34.5866C136.908 34.3546 136.962 34.1044 136.962 33.8359C136.962 33.5376 136.894 33.2808 136.758 33.0653C136.623 32.8466 136.437 32.6792 136.202 32.5632C135.966 32.4439 135.699 32.3842 135.401 32.3842C135.09 32.3842 134.818 32.4472 134.586 32.5732C134.354 32.6991 134.175 32.8797 134.049 33.1151C133.923 33.3504 133.86 33.6304 133.86 33.9553H131.817C131.817 33.2891 131.967 32.7107 132.269 32.2202C132.571 31.7296 132.993 31.3501 133.537 31.0817C134.08 30.8132 134.707 30.679 135.416 30.679C136.145 30.679 136.78 30.8082 137.32 31.0668C137.864 31.322 138.286 31.6766 138.588 32.1307C138.89 32.5848 139.04 33.1051 139.04 33.6918C139.04 34.0762 138.964 34.4557 138.812 34.8303C138.663 35.2048 138.396 35.6207 138.011 36.0781C137.627 36.5322 137.085 37.0774 136.386 37.7138L134.899 39.1705V39.2401H139.175V41H131.916Z" fill="white"/>
</g>
<rect x="181.5" y="24" width="1" height="68" fill="#E1172F"/>
<g clip-path="url(#clip5_14202_14032)">
<rect x="170.5" y="24" width="24" height="24" rx="12" fill="#E1172F"/>
<path d="M182.475 41.1392C181.732 41.1392 181.071 41.0116 180.491 40.7564C179.914 40.4979 179.458 40.1432 179.124 39.6925C178.792 39.2384 178.622 38.7147 178.612 38.1214H180.779C180.792 38.37 180.874 38.5888 181.023 38.7777C181.175 38.9633 181.377 39.1075 181.629 39.2102C181.881 39.313 182.165 39.3643 182.479 39.3643C182.808 39.3643 183.098 39.3063 183.35 39.1903C183.601 39.0743 183.799 38.9136 183.941 38.7081C184.084 38.5026 184.155 38.2656 184.155 37.9972C184.155 37.7254 184.079 37.4851 183.926 37.2763C183.777 37.0642 183.562 36.8984 183.28 36.7791C183.002 36.6598 182.67 36.6001 182.286 36.6001H181.336V35.0192H182.286C182.61 35.0192 182.897 34.9628 183.146 34.8501C183.398 34.7375 183.593 34.5817 183.732 34.3828C183.872 34.1806 183.941 33.9453 183.941 33.6768C183.941 33.4216 183.88 33.1979 183.757 33.0057C183.638 32.8101 183.469 32.6577 183.25 32.5483C183.035 32.4389 182.783 32.3842 182.494 32.3842C182.203 32.3842 181.936 32.4373 181.694 32.5433C181.452 32.6461 181.258 32.7936 181.112 32.9858C180.966 33.178 180.889 33.4034 180.879 33.6619H178.815C178.825 33.0753 178.993 32.5582 179.318 32.1108C179.642 31.6634 180.08 31.3137 180.63 31.0618C181.184 30.8066 181.808 30.679 182.504 30.679C183.207 30.679 183.822 30.8066 184.349 31.0618C184.876 31.317 185.285 31.6617 185.577 32.0959C185.872 32.5268 186.018 33.0107 186.014 33.5476C186.018 34.1177 185.84 34.5933 185.482 34.9744C185.128 35.3556 184.665 35.5975 184.095 35.7003V35.7798C184.844 35.8759 185.414 36.1361 185.805 36.5604C186.2 36.9813 186.395 37.5083 186.392 38.1413C186.395 38.7214 186.228 39.2367 185.89 39.6875C185.555 40.1383 185.093 40.4929 184.503 40.7514C183.913 41.0099 183.237 41.1392 182.475 41.1392Z" fill="white"/>
</g>
<rect x="536" y="24" width="1" height="68" fill="#E1172F"/>
<g clip-path="url(#clip6_14202_14032)">
<rect x="524" y="24" width="24" height="24" rx="12" fill="#E1172F"/>
<path d="M531.927 39.2102V37.5149L536.178 30.8182H537.639V33.1648H536.774L534.095 37.4055V37.4851H540.135V39.2102H531.927ZM536.814 41V38.6932L536.854 37.9425V30.8182H538.872V41H536.814Z" fill="white"/>
</g>
</g>
<defs>
<filter id="filter0_d_14202_14032" x="54" y="46" width="564" height="312" filterUnits="userSpaceOnUse" color-interpolation-filters="sRGB">
<feFlood flood-opacity="0" result="BackgroundImageFix"/>
<feColorMatrix in="SourceAlpha" type="matrix" values="0 0 0 0 0 0 0 0 0 0 0 0 0 0 0 0 0 0 127 0" result="hardAlpha"/>
<feMorphology radius="16" operator="erode" in="SourceAlpha" result="effect1_dropShadow_14202_14032"/>
<feOffset dy="20"/>
<feGaussianBlur stdDeviation="29"/>
<feColorMatrix type="matrix" values="0 0 0 0 0 0 0 0 0 0 0 0 0 0 0 0 0 0 0.16 0"/>
<feBlend mode="normal" in2="BackgroundImageFix" result="effect1_dropShadow_14202_14032"/>
<feBlend mode="normal" in="SourceGraphic" in2="effect1_dropShadow_14202_14032" result="shape"/>
</filter>
<clipPath id="clip0_14202_14032">
<rect width="679" height="320" fill="white"/>
</clipPath>
<clipPath id="clip1_14202_14032">
<rect x="24" y="95" width="24" height="24" rx="12" fill="white"/>
</clipPath>
<clipPath id="clip2_14202_14032">
<rect x="631" y="236" width="24" height="24" rx="12" fill="white"/>
</clipPath>
<clipPath id="clip3_14202_14032">
<rect x="24" y="128" width="24" height="24" rx="12" fill="white"/>
</clipPath>
<clipPath id="clip4_14202_14032">
<rect x="123.5" y="24" width="24" height="24" rx="12" fill="white"/>
</clipPath>
<clipPath id="clip5_14202_14032">
<rect x="170.5" y="24" width="24" height="24" rx="12" fill="white"/>
</clipPath>
<clipPath id="clip6_14202_14032">
<rect x="524" y="24" width="24" height="24" rx="12" fill="white"/>
</clipPath>
</defs>
</svg>
