<svg width="683" height="420" viewBox="0 0 683 420" fill="none" xmlns="http://www.w3.org/2000/svg">
<rect width="683" height="420" fill="#F6F6F8"/>
<g filter="url(#filter0_d_5240_237539)">
<path d="M101.5 120C101.5 108.686 101.5 103.029 105.015 99.5147C108.529 96 114.186 96 125.5 96H557.5C568.814 96 574.471 96 577.985 99.5147C581.5 103.029 581.5 108.686 581.5 120V300C581.5 311.314 581.5 316.971 577.985 320.485C574.471 324 568.814 324 557.5 324H125.5C114.186 324 108.529 324 105.015 320.485C101.5 316.971 101.5 311.314 101.5 300V120Z" fill="white"/>
<path d="M140.5 125.344C137.997 125.344 135.55 126.086 133.469 127.477C131.387 128.867 129.765 130.844 128.807 133.157C127.849 135.469 127.599 138.014 128.087 140.469C128.575 142.924 129.781 145.179 131.551 146.949C133.321 148.719 135.576 149.925 138.031 150.413C140.486 150.901 143.031 150.651 145.343 149.693C147.656 148.735 149.633 147.113 151.023 145.031C152.414 142.95 153.156 140.503 153.156 138C153.153 134.644 151.818 131.427 149.445 129.055C147.073 126.682 143.856 125.347 140.5 125.344ZM140.5 147.844C138.553 147.844 136.65 147.266 135.031 146.185C133.412 145.103 132.151 143.566 131.406 141.767C130.661 139.968 130.466 137.989 130.845 136.08C131.225 134.17 132.163 132.416 133.539 131.039C134.916 129.663 136.67 128.725 138.58 128.345C140.489 127.966 142.468 128.161 144.267 128.906C146.066 129.651 147.603 130.912 148.685 132.531C149.766 134.15 150.344 136.053 150.344 138C150.341 140.61 149.303 143.112 147.458 144.957C145.612 146.803 143.11 147.841 140.5 147.844ZM139.094 138.469V132.375C139.094 132.002 139.242 131.644 139.506 131.381C139.769 131.117 140.127 130.969 140.5 130.969C140.873 130.969 141.231 131.117 141.494 131.381C141.758 131.644 141.906 132.002 141.906 132.375V138.469C141.906 138.842 141.758 139.199 141.494 139.463C141.231 139.727 140.873 139.875 140.5 139.875C140.127 139.875 139.769 139.727 139.506 139.463C139.242 139.199 139.094 138.842 139.094 138.469ZM142.375 143.156C142.375 143.527 142.265 143.89 142.059 144.198C141.853 144.506 141.56 144.747 141.218 144.889C140.875 145.03 140.498 145.068 140.134 144.995C139.77 144.923 139.436 144.744 139.174 144.482C138.912 144.22 138.733 143.886 138.661 143.522C138.589 143.158 138.626 142.781 138.768 142.439C138.91 142.096 139.15 141.803 139.458 141.597C139.767 141.391 140.129 141.281 140.5 141.281C140.997 141.281 141.474 141.479 141.826 141.83C142.177 142.182 142.375 142.659 142.375 143.156Z" fill="#2A2C35"/>
<path d="M165.132 147V130.056H168.9V147H165.132ZM168.036 147V143.688H176.412V147H168.036ZM183.822 147.264C182.558 147.264 181.43 147.008 180.438 146.496C179.462 145.968 178.694 145.24 178.134 144.312C177.574 143.384 177.294 142.336 177.294 141.168C177.294 140 177.566 138.96 178.11 138.048C178.67 137.12 179.422 136.392 180.366 135.864C181.31 135.336 182.374 135.072 183.558 135.072C184.71 135.072 185.726 135.32 186.606 135.816C187.486 136.312 188.174 137 188.67 137.88C189.182 138.76 189.438 139.768 189.438 140.904C189.438 141.112 189.422 141.336 189.39 141.576C189.374 141.8 189.334 142.064 189.27 142.368L179.214 142.392V139.872L187.71 139.848L186.126 140.904C186.11 140.232 186.006 139.68 185.814 139.248C185.622 138.8 185.334 138.464 184.95 138.24C184.582 138 184.126 137.88 183.582 137.88C183.006 137.88 182.502 138.016 182.07 138.288C181.654 138.544 181.326 138.912 181.086 139.392C180.862 139.872 180.75 140.456 180.75 141.144C180.75 141.832 180.87 142.424 181.11 142.92C181.366 143.4 181.718 143.776 182.166 144.048C182.63 144.304 183.174 144.432 183.798 144.432C184.374 144.432 184.894 144.336 185.358 144.144C185.822 143.936 186.23 143.632 186.582 143.232L188.598 145.248C188.022 145.92 187.326 146.424 186.51 146.76C185.694 147.096 184.798 147.264 183.822 147.264ZM196.082 147.24C195.01 147.24 194.05 146.976 193.202 146.448C192.37 145.92 191.706 145.2 191.21 144.288C190.73 143.376 190.49 142.336 190.49 141.168C190.49 140 190.73 138.96 191.21 138.048C191.706 137.136 192.37 136.416 193.202 135.888C194.05 135.36 195.01 135.096 196.082 135.096C196.866 135.096 197.57 135.248 198.194 135.552C198.834 135.856 199.354 136.28 199.754 136.824C200.154 137.352 200.378 137.96 200.426 138.648V143.688C200.378 144.376 200.154 144.992 199.754 145.536C199.37 146.064 198.858 146.48 198.218 146.784C197.578 147.088 196.866 147.24 196.082 147.24ZM196.826 143.928C197.61 143.928 198.242 143.672 198.722 143.16C199.202 142.632 199.442 141.968 199.442 141.168C199.442 140.624 199.33 140.144 199.106 139.728C198.898 139.312 198.594 138.992 198.194 138.768C197.81 138.528 197.362 138.408 196.85 138.408C196.338 138.408 195.882 138.528 195.482 138.768C195.098 138.992 194.786 139.312 194.546 139.728C194.322 140.144 194.21 140.624 194.21 141.168C194.21 141.696 194.322 142.168 194.546 142.584C194.77 143 195.082 143.328 195.482 143.568C195.882 143.808 196.33 143.928 196.826 143.928ZM199.298 147V143.856L199.85 141.024L199.298 138.192V135.336H202.898V147H199.298ZM209.156 147L204.212 135.336H208.172L211.532 145.056H209.804L213.164 135.336H217.052L212.108 147H209.156ZM223.806 147.264C222.542 147.264 221.414 147.008 220.422 146.496C219.446 145.968 218.678 145.24 218.118 144.312C217.558 143.384 217.278 142.336 217.278 141.168C217.278 140 217.55 138.96 218.094 138.048C218.654 137.12 219.406 136.392 220.35 135.864C221.294 135.336 222.358 135.072 223.542 135.072C224.694 135.072 225.71 135.32 226.59 135.816C227.47 136.312 228.158 137 228.654 137.88C229.166 138.76 229.422 139.768 229.422 140.904C229.422 141.112 229.406 141.336 229.374 141.576C229.358 141.8 229.318 142.064 229.254 142.368L219.198 142.392V139.872L227.694 139.848L226.11 140.904C226.094 140.232 225.99 139.68 225.798 139.248C225.606 138.8 225.318 138.464 224.934 138.24C224.566 138 224.11 137.88 223.566 137.88C222.99 137.88 222.486 138.016 222.054 138.288C221.638 138.544 221.31 138.912 221.07 139.392C220.846 139.872 220.734 140.456 220.734 141.144C220.734 141.832 220.854 142.424 221.094 142.92C221.35 143.4 221.702 143.776 222.15 144.048C222.614 144.304 223.158 144.432 223.782 144.432C224.358 144.432 224.878 144.336 225.342 144.144C225.806 143.936 226.214 143.632 226.566 143.232L228.582 145.248C228.006 145.92 227.31 146.424 226.494 146.76C225.678 147.096 224.782 147.264 223.806 147.264ZM242.485 147.24C241.701 147.24 240.981 147.088 240.325 146.784C239.669 146.48 239.133 146.064 238.717 145.536C238.301 144.992 238.061 144.376 237.997 143.688V138.768C238.061 138.08 238.301 137.456 238.717 136.896C239.133 136.336 239.669 135.896 240.325 135.576C240.981 135.256 241.701 135.096 242.485 135.096C243.589 135.096 244.565 135.36 245.413 135.888C246.277 136.416 246.949 137.136 247.429 138.048C247.925 138.96 248.173 140 248.173 141.168C248.173 142.336 247.925 143.376 247.429 144.288C246.949 145.2 246.277 145.92 245.413 146.448C244.565 146.976 243.589 147.24 242.485 147.24ZM235.765 151.92V135.336H239.437V138.336L238.837 141.168L239.389 144V151.92H235.765ZM241.813 143.928C242.341 143.928 242.797 143.808 243.181 143.568C243.581 143.328 243.893 143 244.117 142.584C244.341 142.168 244.453 141.696 244.453 141.168C244.453 140.624 244.341 140.144 244.117 139.728C243.893 139.312 243.581 138.992 243.181 138.768C242.797 138.528 242.349 138.408 241.837 138.408C241.325 138.408 240.869 138.528 240.469 138.768C240.085 138.992 239.781 139.312 239.557 139.728C239.333 140.144 239.221 140.624 239.221 141.168C239.221 141.696 239.325 142.168 239.533 142.584C239.757 143 240.069 143.328 240.469 143.568C240.869 143.808 241.317 143.928 241.813 143.928ZM254.91 147.24C253.838 147.24 252.878 146.976 252.03 146.448C251.198 145.92 250.534 145.2 250.038 144.288C249.558 143.376 249.318 142.336 249.318 141.168C249.318 140 249.558 138.96 250.038 138.048C250.534 137.136 251.198 136.416 252.03 135.888C252.878 135.36 253.838 135.096 254.91 135.096C255.694 135.096 256.398 135.248 257.022 135.552C257.662 135.856 258.182 136.28 258.582 136.824C258.982 137.352 259.206 137.96 259.254 138.648V143.688C259.206 144.376 258.982 144.992 258.582 145.536C258.198 146.064 257.686 146.48 257.046 146.784C256.406 147.088 255.694 147.24 254.91 147.24ZM255.654 143.928C256.438 143.928 257.07 143.672 257.55 143.16C258.03 142.632 258.27 141.968 258.27 141.168C258.27 140.624 258.158 140.144 257.934 139.728C257.726 139.312 257.422 138.992 257.022 138.768C256.638 138.528 256.19 138.408 255.678 138.408C255.166 138.408 254.71 138.528 254.31 138.768C253.926 138.992 253.614 139.312 253.374 139.728C253.15 140.144 253.038 140.624 253.038 141.168C253.038 141.696 253.15 142.168 253.374 142.584C253.598 143 253.91 143.328 254.31 143.568C254.71 143.808 255.158 143.928 255.654 143.928ZM258.126 147V143.856L258.678 141.024L258.126 138.192V135.336H261.726V147H258.126ZM269.256 152.232C267.976 152.232 266.848 152.008 265.872 151.56C264.912 151.128 264.152 150.512 263.592 149.712L265.848 147.456C266.264 147.952 266.728 148.328 267.24 148.584C267.768 148.84 268.4 148.968 269.136 148.968C270.048 148.968 270.76 148.744 271.272 148.296C271.8 147.848 272.064 147.216 272.064 146.4V143.424L272.688 140.88L272.136 138.336V135.336H275.736V146.304C275.736 147.504 275.456 148.544 274.896 149.424C274.336 150.304 273.568 150.992 272.592 151.488C271.616 151.984 270.504 152.232 269.256 152.232ZM269.088 146.64C268.016 146.64 267.064 146.384 266.232 145.872C265.4 145.36 264.744 144.664 264.264 143.784C263.784 142.904 263.544 141.928 263.544 140.856C263.544 139.768 263.784 138.792 264.264 137.928C264.744 137.048 265.4 136.36 266.232 135.864C267.064 135.352 268.016 135.096 269.088 135.096C269.888 135.096 270.6 135.248 271.224 135.552C271.864 135.84 272.376 136.256 272.76 136.8C273.16 137.328 273.384 137.944 273.432 138.648V143.088C273.384 143.776 273.16 144.392 272.76 144.936C272.376 145.464 271.864 145.88 271.224 146.184C270.584 146.488 269.872 146.64 269.088 146.64ZM269.784 143.376C270.296 143.376 270.736 143.264 271.104 143.04C271.488 142.816 271.776 142.52 271.968 142.152C272.176 141.768 272.28 141.336 272.28 140.856C272.28 140.376 272.176 139.944 271.968 139.56C271.776 139.176 271.488 138.872 271.104 138.648C270.736 138.424 270.296 138.312 269.784 138.312C269.288 138.312 268.848 138.424 268.464 138.648C268.08 138.872 267.784 139.176 267.576 139.56C267.368 139.944 267.264 140.376 267.264 140.856C267.264 141.304 267.368 141.728 267.576 142.128C267.784 142.512 268.072 142.816 268.44 143.04C268.824 143.264 269.272 143.376 269.784 143.376ZM284.087 147.264C282.823 147.264 281.695 147.008 280.703 146.496C279.727 145.968 278.959 145.24 278.399 144.312C277.839 143.384 277.559 142.336 277.559 141.168C277.559 140 277.831 138.96 278.375 138.048C278.935 137.12 279.687 136.392 280.631 135.864C281.575 135.336 282.639 135.072 283.823 135.072C284.975 135.072 285.991 135.32 286.871 135.816C287.751 136.312 288.439 137 288.935 137.88C289.447 138.76 289.703 139.768 289.703 140.904C289.703 141.112 289.687 141.336 289.655 141.576C289.639 141.8 289.599 142.064 289.535 142.368L279.479 142.392V139.872L287.975 139.848L286.391 140.904C286.375 140.232 286.271 139.68 286.079 139.248C285.887 138.8 285.599 138.464 285.215 138.24C284.847 138 284.391 137.88 283.847 137.88C283.271 137.88 282.767 138.016 282.335 138.288C281.919 138.544 281.591 138.912 281.351 139.392C281.127 139.872 281.015 140.456 281.015 141.144C281.015 141.832 281.135 142.424 281.375 142.92C281.631 143.4 281.983 143.776 282.431 144.048C282.895 144.304 283.439 144.432 284.063 144.432C284.639 144.432 285.159 144.336 285.623 144.144C286.087 143.936 286.495 143.632 286.847 143.232L288.863 145.248C288.287 145.92 287.591 146.424 286.775 146.76C285.959 147.096 285.063 147.264 284.087 147.264ZM298.902 147L294.87 135.336H298.47L300.966 143.808L299.91 143.832L302.67 135.336H305.646L308.43 143.832L307.35 143.808L309.87 135.336H313.47L309.438 147H306.438L303.726 138.936H304.638L301.878 147H298.902ZM314.702 147V135.336H318.374V147H314.702ZM316.55 133.728C315.974 133.728 315.494 133.536 315.11 133.152C314.742 132.752 314.558 132.272 314.558 131.712C314.558 131.136 314.742 130.656 315.11 130.272C315.494 129.888 315.974 129.696 316.55 129.696C317.126 129.696 317.598 129.888 317.966 130.272C318.334 130.656 318.518 131.136 318.518 131.712C318.518 132.272 318.334 132.752 317.966 133.152C317.598 133.536 317.126 133.728 316.55 133.728ZM322.616 147V130.512H326.288V147H322.616ZM319.976 138.456V135.336H328.928V138.456H319.976ZM338.25 147V140.352C338.25 139.744 338.058 139.256 337.674 138.888C337.306 138.504 336.834 138.312 336.258 138.312C335.858 138.312 335.506 138.4 335.202 138.576C334.898 138.736 334.658 138.976 334.482 139.296C334.306 139.6 334.218 139.952 334.218 140.352L332.802 139.656C332.802 138.744 332.994 137.944 333.378 137.256C333.762 136.568 334.298 136.04 334.986 135.672C335.674 135.288 336.466 135.096 337.362 135.096C338.274 135.096 339.074 135.288 339.762 135.672C340.45 136.04 340.978 136.56 341.346 137.232C341.73 137.888 341.922 138.656 341.922 139.536V147H338.25ZM330.546 147V129.576H334.218V147H330.546ZM349.896 147.264C348.696 147.264 347.608 147 346.632 146.472C345.672 145.928 344.912 145.192 344.352 144.264C343.792 143.336 343.512 142.296 343.512 141.144C343.512 139.992 343.792 138.96 344.352 138.048C344.912 137.136 345.672 136.416 346.632 135.888C347.592 135.344 348.68 135.072 349.896 135.072C351.112 135.072 352.2 135.336 353.16 135.864C354.12 136.392 354.88 137.12 355.44 138.048C356 138.96 356.28 139.992 356.28 141.144C356.28 142.296 356 143.336 355.44 144.264C354.88 145.192 354.12 145.928 353.16 146.472C352.2 147 351.112 147.264 349.896 147.264ZM349.896 143.928C350.424 143.928 350.888 143.816 351.288 143.592C351.688 143.352 351.992 143.024 352.2 142.608C352.424 142.176 352.536 141.688 352.536 141.144C352.536 140.6 352.424 140.128 352.2 139.728C351.976 139.312 351.664 138.992 351.264 138.768C350.88 138.528 350.424 138.408 349.896 138.408C349.384 138.408 348.928 138.528 348.528 138.768C348.128 138.992 347.816 139.312 347.592 139.728C347.368 140.144 347.256 140.624 347.256 141.168C347.256 141.696 347.368 142.176 347.592 142.608C347.816 143.024 348.128 143.352 348.528 143.592C348.928 143.816 349.384 143.928 349.896 143.928ZM363.293 147.264C362.221 147.264 361.269 147.048 360.437 146.616C359.621 146.168 358.981 145.56 358.517 144.792C358.053 144.008 357.821 143.112 357.821 142.104V135.336H361.493V142.056C361.493 142.456 361.557 142.8 361.685 143.088C361.829 143.376 362.037 143.6 362.309 143.76C362.581 143.92 362.909 144 363.293 144C363.837 144 364.269 143.832 364.589 143.496C364.909 143.144 365.069 142.664 365.069 142.056V135.336H368.741V142.08C368.741 143.104 368.509 144.008 368.045 144.792C367.581 145.56 366.941 146.168 366.125 146.616C365.309 147.048 364.365 147.264 363.293 147.264ZM372.702 147V130.512H376.374V147H372.702ZM370.062 138.456V135.336H379.014V138.456H370.062ZM389.45 147.288C388.762 147.288 388.082 147.2 387.41 147.024C386.754 146.848 386.138 146.6 385.562 146.28C385.002 145.944 384.522 145.56 384.122 145.128L386.21 143.016C386.594 143.432 387.05 143.76 387.578 144C388.106 144.224 388.682 144.336 389.306 144.336C389.738 144.336 390.066 144.272 390.29 144.144C390.53 144.016 390.65 143.84 390.65 143.616C390.65 143.328 390.506 143.112 390.218 142.968C389.946 142.808 389.594 142.672 389.162 142.56C388.73 142.432 388.274 142.296 387.794 142.152C387.314 142.008 386.858 141.808 386.426 141.552C385.994 141.296 385.642 140.944 385.37 140.496C385.098 140.032 384.962 139.448 384.962 138.744C384.962 137.992 385.154 137.344 385.538 136.8C385.922 136.24 386.466 135.8 387.17 135.48C387.874 135.16 388.698 135 389.642 135C390.634 135 391.546 135.176 392.378 135.528C393.226 135.864 393.914 136.368 394.442 137.04L392.354 139.152C391.986 138.72 391.57 138.416 391.106 138.24C390.658 138.064 390.218 137.976 389.786 137.976C389.37 137.976 389.058 138.04 388.85 138.168C388.642 138.28 388.538 138.448 388.538 138.672C388.538 138.912 388.674 139.104 388.946 139.248C389.218 139.392 389.57 139.52 390.002 139.632C390.434 139.744 390.89 139.88 391.37 140.04C391.85 140.2 392.306 140.416 392.738 140.688C393.17 140.96 393.522 141.328 393.794 141.792C394.066 142.24 394.202 142.832 394.202 143.568C394.202 144.704 393.77 145.608 392.906 146.28C392.058 146.952 390.906 147.288 389.45 147.288ZM401.066 147.24C399.994 147.24 399.034 146.976 398.186 146.448C397.354 145.92 396.69 145.2 396.194 144.288C395.714 143.376 395.474 142.336 395.474 141.168C395.474 140 395.714 138.96 396.194 138.048C396.69 137.136 397.354 136.416 398.186 135.888C399.034 135.36 399.994 135.096 401.066 135.096C401.85 135.096 402.554 135.248 403.178 135.552C403.818 135.856 404.338 136.28 404.738 136.824C405.138 137.352 405.362 137.96 405.41 138.648V143.688C405.362 144.376 405.138 144.992 404.738 145.536C404.354 146.064 403.842 146.48 403.202 146.784C402.562 147.088 401.85 147.24 401.066 147.24ZM401.81 143.928C402.594 143.928 403.226 143.672 403.706 143.16C404.186 142.632 404.426 141.968 404.426 141.168C404.426 140.624 404.314 140.144 404.09 139.728C403.882 139.312 403.578 138.992 403.178 138.768C402.794 138.528 402.346 138.408 401.834 138.408C401.322 138.408 400.866 138.528 400.466 138.768C400.082 138.992 399.77 139.312 399.53 139.728C399.306 140.144 399.194 140.624 399.194 141.168C399.194 141.696 399.306 142.168 399.53 142.584C399.754 143 400.066 143.328 400.466 143.568C400.866 143.808 401.314 143.928 401.81 143.928ZM404.282 147V143.856L404.834 141.024L404.282 138.192V135.336H407.882V147H404.282ZM414.14 147L409.196 135.336H413.156L416.516 145.056H414.788L418.148 135.336H422.036L417.092 147H414.14ZM423.359 147V135.336H427.031V147H423.359ZM425.207 133.728C424.631 133.728 424.151 133.536 423.767 133.152C423.399 132.752 423.215 132.272 423.215 131.712C423.215 131.136 423.399 130.656 423.767 130.272C424.151 129.888 424.631 129.696 425.207 129.696C425.783 129.696 426.255 129.888 426.623 130.272C426.991 130.656 427.175 131.136 427.175 131.712C427.175 132.272 426.991 132.752 426.623 133.152C426.255 133.536 425.783 133.728 425.207 133.728ZM437.32 147V140.352C437.32 139.744 437.128 139.256 436.744 138.888C436.376 138.504 435.904 138.312 435.328 138.312C434.928 138.312 434.576 138.4 434.272 138.576C433.968 138.736 433.728 138.976 433.552 139.296C433.376 139.6 433.288 139.952 433.288 140.352L431.872 139.656C431.872 138.744 432.072 137.944 432.472 137.256C432.872 136.568 433.424 136.04 434.128 135.672C434.848 135.288 435.656 135.096 436.552 135.096C437.416 135.096 438.176 135.304 438.832 135.72C439.504 136.12 440.032 136.656 440.416 137.328C440.8 138 440.992 138.736 440.992 139.536V147H437.32ZM429.616 147V135.336H433.288V147H429.616ZM448.295 152.232C447.015 152.232 445.887 152.008 444.911 151.56C443.951 151.128 443.191 150.512 442.631 149.712L444.887 147.456C445.303 147.952 445.767 148.328 446.279 148.584C446.807 148.84 447.439 148.968 448.175 148.968C449.087 148.968 449.799 148.744 450.311 148.296C450.839 147.848 451.103 147.216 451.103 146.4V143.424L451.727 140.88L451.175 138.336V135.336H454.775V146.304C454.775 147.504 454.495 148.544 453.935 149.424C453.375 150.304 452.607 150.992 451.631 151.488C450.655 151.984 449.543 152.232 448.295 152.232ZM448.127 146.64C447.055 146.64 446.103 146.384 445.271 145.872C444.439 145.36 443.783 144.664 443.303 143.784C442.823 142.904 442.583 141.928 442.583 140.856C442.583 139.768 442.823 138.792 443.303 137.928C443.783 137.048 444.439 136.36 445.271 135.864C446.103 135.352 447.055 135.096 448.127 135.096C448.927 135.096 449.639 135.248 450.263 135.552C450.903 135.84 451.415 136.256 451.799 136.8C452.199 137.328 452.423 137.944 452.471 138.648V143.088C452.423 143.776 452.199 144.392 451.799 144.936C451.415 145.464 450.903 145.88 450.263 146.184C449.623 146.488 448.911 146.64 448.127 146.64ZM448.823 143.376C449.335 143.376 449.775 143.264 450.143 143.04C450.527 142.816 450.815 142.52 451.007 142.152C451.215 141.768 451.319 141.336 451.319 140.856C451.319 140.376 451.215 139.944 451.007 139.56C450.815 139.176 450.527 138.872 450.143 138.648C449.775 138.424 449.335 138.312 448.823 138.312C448.327 138.312 447.887 138.424 447.503 138.648C447.119 138.872 446.823 139.176 446.615 139.56C446.407 139.944 446.303 140.376 446.303 140.856C446.303 141.304 446.407 141.728 446.615 142.128C446.823 142.512 447.111 142.816 447.479 143.04C447.863 143.264 448.311 143.376 448.823 143.376ZM460.87 140.88L460.678 136.272H461.71C462.11 136.272 462.454 136.2 462.742 136.056C463.046 135.912 463.278 135.712 463.438 135.456C463.614 135.184 463.702 134.864 463.702 134.496C463.702 134.144 463.622 133.84 463.462 133.584C463.302 133.312 463.078 133.112 462.79 132.984C462.502 132.84 462.166 132.768 461.782 132.768C461.19 132.768 460.646 132.944 460.15 133.296C459.67 133.632 459.278 134.096 458.974 134.688L456.622 132.48C457.102 131.536 457.798 130.776 458.71 130.2C459.622 129.608 460.702 129.312 461.95 129.312C462.99 129.312 463.91 129.528 464.71 129.96C465.51 130.392 466.134 130.984 466.582 131.736C467.03 132.472 467.254 133.304 467.254 134.232C467.254 135.176 467.062 135.984 466.678 136.656C466.294 137.328 465.774 137.88 465.118 138.312C464.462 138.728 463.718 139.024 462.886 139.2L463.966 137.784L463.75 140.88H460.87ZM462.31 147.264C461.67 147.264 461.142 147.048 460.726 146.616C460.326 146.184 460.126 145.664 460.126 145.056C460.126 144.416 460.326 143.888 460.726 143.472C461.142 143.04 461.67 142.824 462.31 142.824C462.934 142.824 463.446 143.04 463.846 143.472C464.262 143.888 464.47 144.416 464.47 145.056C464.47 145.664 464.262 146.184 463.846 146.616C463.446 147.048 462.934 147.264 462.31 147.264Z" fill="#2A2C35"/>
<path d="M549.046 143.954C549.257 144.165 549.376 144.452 549.376 144.751C549.376 145.05 549.257 145.336 549.046 145.548C548.835 145.759 548.548 145.878 548.249 145.878C547.95 145.878 547.663 145.759 547.452 145.548L541.5 139.594L535.546 145.546C535.335 145.757 535.048 145.876 534.749 145.876C534.45 145.876 534.163 145.757 533.952 145.546C533.741 145.335 533.622 145.048 533.622 144.749C533.622 144.45 533.741 144.163 533.952 143.952L539.906 138L533.954 132.046C533.743 131.835 533.624 131.548 533.624 131.249C533.624 130.95 533.743 130.663 533.954 130.452C534.165 130.241 534.452 130.122 534.751 130.122C535.05 130.122 535.336 130.241 535.548 130.452L541.5 136.406L547.454 130.451C547.665 130.24 547.952 130.121 548.251 130.121C548.55 130.121 548.836 130.24 549.048 130.451C549.259 130.663 549.378 130.949 549.378 131.248C549.378 131.547 549.259 131.834 549.048 132.045L543.094 138L549.046 143.954Z" fill="#2A2C35"/>
<path d="M125.996 198L130.54 186.896H131.628L136.156 198H134.524L130.796 188.608H131.356L127.596 198H125.996ZM128.156 195.488V194.176H133.996V195.488H128.156ZM137.697 198V186.576H139.137V198H137.697ZM141.243 198V186.576H142.684V198H141.243ZM151.174 198.16C150.556 198.16 149.996 198.021 149.495 197.744C149.004 197.456 148.62 197.061 148.343 196.56C148.065 196.059 147.927 195.477 147.927 194.816V190.4H149.367V194.752C149.367 195.168 149.436 195.531 149.575 195.84C149.724 196.139 149.937 196.368 150.215 196.528C150.492 196.688 150.817 196.768 151.191 196.768C151.756 196.768 152.199 196.592 152.519 196.24C152.839 195.877 152.999 195.381 152.999 194.752V190.4H154.439V194.816C154.439 195.477 154.3 196.059 154.023 196.56C153.745 197.061 153.361 197.456 152.871 197.744C152.391 198.021 151.825 198.16 151.174 198.16ZM161.745 198V193.568C161.745 192.992 161.563 192.517 161.201 192.144C160.838 191.771 160.369 191.584 159.793 191.584C159.409 191.584 159.067 191.669 158.769 191.84C158.47 192.011 158.235 192.245 158.065 192.544C157.894 192.843 157.809 193.184 157.809 193.568L157.217 193.232C157.217 192.656 157.345 192.144 157.601 191.696C157.857 191.248 158.214 190.896 158.673 190.64C159.131 190.373 159.649 190.24 160.225 190.24C160.801 190.24 161.307 190.384 161.745 190.672C162.193 190.96 162.545 191.339 162.801 191.808C163.057 192.267 163.185 192.757 163.185 193.28V198H161.745ZM156.368 198V190.4H157.809V198H156.368ZM167.55 198.16C167.123 198.16 166.718 198.107 166.334 198C165.961 197.883 165.614 197.723 165.294 197.52C164.974 197.307 164.697 197.056 164.462 196.768L165.39 195.84C165.667 196.181 165.987 196.437 166.35 196.608C166.713 196.768 167.118 196.848 167.566 196.848C168.014 196.848 168.361 196.773 168.606 196.624C168.851 196.464 168.974 196.245 168.974 195.968C168.974 195.691 168.873 195.477 168.67 195.328C168.478 195.168 168.227 195.04 167.918 194.944C167.609 194.837 167.278 194.736 166.926 194.64C166.585 194.533 166.259 194.4 165.95 194.24C165.641 194.08 165.385 193.861 165.182 193.584C164.99 193.307 164.894 192.939 164.894 192.48C164.894 192.021 165.006 191.627 165.23 191.296C165.454 190.955 165.763 190.693 166.158 190.512C166.563 190.331 167.049 190.24 167.614 190.24C168.211 190.24 168.739 190.347 169.198 190.56C169.667 190.763 170.051 191.072 170.35 191.488L169.422 192.416C169.209 192.139 168.942 191.925 168.622 191.776C168.313 191.627 167.961 191.552 167.566 191.552C167.15 191.552 166.83 191.627 166.606 191.776C166.393 191.915 166.286 192.112 166.286 192.368C166.286 192.624 166.382 192.821 166.574 192.96C166.766 193.099 167.017 193.216 167.326 193.312C167.646 193.408 167.977 193.509 168.318 193.616C168.659 193.712 168.985 193.845 169.294 194.016C169.603 194.187 169.854 194.416 170.046 194.704C170.249 194.992 170.35 195.371 170.35 195.84C170.35 196.555 170.094 197.12 169.582 197.536C169.081 197.952 168.403 198.16 167.55 198.16ZM175.194 198.16C174.501 198.16 173.872 197.989 173.306 197.648C172.741 197.296 172.293 196.821 171.962 196.224C171.642 195.627 171.482 194.955 171.482 194.208C171.482 193.461 171.642 192.789 171.962 192.192C172.293 191.595 172.736 191.12 173.29 190.768C173.856 190.416 174.49 190.24 175.194 190.24C175.77 190.24 176.282 190.363 176.73 190.608C177.189 190.843 177.557 191.173 177.834 191.6C178.112 192.016 178.266 192.501 178.298 193.056V195.344C178.266 195.888 178.112 196.373 177.834 196.8C177.568 197.227 177.205 197.563 176.746 197.808C176.298 198.043 175.781 198.16 175.194 198.16ZM175.434 196.8C176.149 196.8 176.725 196.56 177.162 196.08C177.6 195.589 177.818 194.965 177.818 194.208C177.818 193.685 177.717 193.232 177.514 192.848C177.322 192.453 177.045 192.149 176.682 191.936C176.32 191.712 175.898 191.6 175.418 191.6C174.938 191.6 174.512 191.712 174.138 191.936C173.776 192.16 173.488 192.469 173.274 192.864C173.072 193.248 172.97 193.691 172.97 194.192C172.97 194.704 173.072 195.157 173.274 195.552C173.488 195.936 173.781 196.24 174.154 196.464C174.528 196.688 174.954 196.8 175.434 196.8ZM177.722 198V195.952L177.994 194.096L177.722 192.256V190.4H179.178V198H177.722ZM183.883 198L180.395 190.4H181.995L184.795 196.816H183.867L186.683 190.4H188.219L184.731 198H183.883ZM192.67 198.16C191.912 198.16 191.23 197.989 190.622 197.648C190.014 197.296 189.534 196.821 189.182 196.224C188.83 195.627 188.654 194.949 188.654 194.192C188.654 193.445 188.824 192.773 189.166 192.176C189.518 191.579 189.987 191.109 190.574 190.768C191.171 190.416 191.838 190.24 192.574 190.24C193.278 190.24 193.896 190.4 194.43 190.72C194.974 191.04 195.395 191.483 195.694 192.048C196.003 192.613 196.158 193.253 196.158 193.968C196.158 194.075 196.152 194.192 196.142 194.32C196.131 194.437 196.11 194.576 196.078 194.736H189.662V193.536H195.31L194.782 194C194.782 193.488 194.691 193.056 194.51 192.704C194.328 192.341 194.072 192.064 193.742 191.872C193.411 191.669 193.011 191.568 192.542 191.568C192.051 191.568 191.619 191.675 191.246 191.888C190.872 192.101 190.584 192.4 190.382 192.784C190.179 193.168 190.078 193.621 190.078 194.144C190.078 194.677 190.184 195.147 190.398 195.552C190.611 195.947 190.915 196.256 191.31 196.48C191.704 196.693 192.158 196.8 192.67 196.8C193.096 196.8 193.486 196.725 193.838 196.576C194.2 196.427 194.51 196.203 194.766 195.904L195.694 196.848C195.331 197.275 194.883 197.6 194.35 197.824C193.827 198.048 193.267 198.16 192.67 198.16ZM200.944 198.16C200.24 198.16 199.611 197.989 199.056 197.648C198.501 197.296 198.059 196.821 197.728 196.224C197.408 195.627 197.248 194.955 197.248 194.208C197.248 193.461 197.408 192.789 197.728 192.192C198.059 191.595 198.501 191.12 199.056 190.768C199.611 190.416 200.24 190.24 200.944 190.24C201.509 190.24 202.021 190.363 202.48 190.608C202.939 190.843 203.307 191.173 203.584 191.6C203.872 192.016 204.032 192.501 204.064 193.056V195.344C204.032 195.888 203.877 196.373 203.6 196.8C203.323 197.227 202.955 197.563 202.496 197.808C202.037 198.043 201.52 198.16 200.944 198.16ZM201.184 196.8C201.664 196.8 202.08 196.688 202.432 196.464C202.795 196.24 203.077 195.936 203.28 195.552C203.483 195.157 203.584 194.709 203.584 194.208C203.584 193.685 203.477 193.232 203.264 192.848C203.061 192.464 202.779 192.16 202.416 191.936C202.064 191.712 201.648 191.6 201.168 191.6C200.688 191.6 200.267 191.712 199.904 191.936C199.541 192.16 199.253 192.469 199.04 192.864C198.837 193.248 198.736 193.691 198.736 194.192C198.736 194.704 198.837 195.157 199.04 195.552C199.253 195.936 199.541 196.24 199.904 196.464C200.277 196.688 200.704 196.8 201.184 196.8ZM204.944 198H203.488V195.952L203.76 194.096L203.488 192.256V186.576H204.944V198ZM210.385 198V190.4H211.825V198H210.385ZM211.105 188.88C210.838 188.88 210.619 188.795 210.449 188.624C210.278 188.443 210.193 188.219 210.193 187.952C210.193 187.696 210.278 187.483 210.449 187.312C210.619 187.131 210.838 187.04 211.105 187.04C211.371 187.04 211.59 187.131 211.761 187.312C211.931 187.483 212.017 187.696 212.017 187.952C212.017 188.219 211.931 188.443 211.761 188.624C211.59 188.795 211.371 188.88 211.105 188.88ZM219.323 198V193.568C219.323 192.992 219.141 192.517 218.779 192.144C218.416 191.771 217.947 191.584 217.371 191.584C216.987 191.584 216.645 191.669 216.347 191.84C216.048 192.011 215.813 192.245 215.643 192.544C215.472 192.843 215.387 193.184 215.387 193.568L214.795 193.232C214.795 192.656 214.923 192.144 215.179 191.696C215.435 191.248 215.792 190.896 216.251 190.64C216.709 190.373 217.227 190.24 217.803 190.24C218.379 190.24 218.885 190.384 219.323 190.672C219.771 190.96 220.123 191.339 220.379 191.808C220.635 192.267 220.763 192.757 220.763 193.28V198H219.323ZM213.947 198V190.4H215.387V198H213.947ZM223.707 198V189.264C223.707 188.699 223.829 188.208 224.075 187.792C224.32 187.365 224.656 187.029 225.083 186.784C225.52 186.539 226.027 186.416 226.603 186.416C227.04 186.416 227.419 186.491 227.739 186.64C228.059 186.789 228.352 187.008 228.619 187.296L227.675 188.224C227.536 188.075 227.381 187.963 227.211 187.888C227.04 187.803 226.832 187.76 226.587 187.76C226.128 187.76 225.771 187.893 225.515 188.16C225.269 188.427 225.147 188.795 225.147 189.264V198H223.707ZM221.835 191.712V190.4H227.563V191.712H221.835ZM232.044 198.16C231.297 198.16 230.625 197.984 230.028 197.632C229.43 197.28 228.956 196.805 228.604 196.208C228.252 195.6 228.076 194.923 228.076 194.176C228.076 193.44 228.252 192.779 228.604 192.192C228.956 191.595 229.43 191.12 230.028 190.768C230.625 190.416 231.297 190.24 232.044 190.24C232.78 190.24 233.446 190.416 234.044 190.768C234.652 191.109 235.132 191.579 235.484 192.176C235.836 192.773 236.012 193.44 236.012 194.176C236.012 194.923 235.836 195.6 235.484 196.208C235.132 196.805 234.652 197.28 234.044 197.632C233.446 197.984 232.78 198.16 232.044 198.16ZM232.044 196.768C232.524 196.768 232.95 196.656 233.324 196.432C233.697 196.208 233.99 195.904 234.204 195.52C234.417 195.125 234.524 194.677 234.524 194.176C234.524 193.685 234.412 193.248 234.188 192.864C233.974 192.48 233.681 192.181 233.308 191.968C232.945 191.744 232.524 191.632 232.044 191.632C231.564 191.632 231.137 191.744 230.764 191.968C230.39 192.181 230.097 192.48 229.884 192.864C229.67 193.248 229.564 193.685 229.564 194.176C229.564 194.677 229.67 195.125 229.884 195.52C230.097 195.904 230.39 196.208 230.764 196.432C231.137 196.656 231.564 196.768 232.044 196.768ZM237.634 198V190.4H239.074V198H237.634ZM239.074 193.664L238.53 193.424C238.53 192.453 238.754 191.68 239.202 191.104C239.65 190.528 240.295 190.24 241.138 190.24C241.522 190.24 241.869 190.309 242.178 190.448C242.487 190.576 242.775 190.795 243.042 191.104L242.098 192.08C241.938 191.909 241.762 191.787 241.57 191.712C241.378 191.637 241.154 191.6 240.898 191.6C240.365 191.6 239.927 191.771 239.586 192.112C239.245 192.453 239.074 192.971 239.074 193.664ZM244.087 198V190.4H245.527V198H244.087ZM249.223 198V193.408C249.223 192.843 249.047 192.4 248.695 192.08C248.354 191.749 247.922 191.584 247.399 191.584C247.047 191.584 246.733 191.659 246.455 191.808C246.178 191.957 245.954 192.165 245.783 192.432C245.613 192.699 245.527 193.019 245.527 193.392L244.935 193.104C244.935 192.528 245.058 192.027 245.303 191.6C245.559 191.173 245.906 190.843 246.343 190.608C246.781 190.363 247.271 190.24 247.815 190.24C248.349 190.24 248.829 190.357 249.255 190.592C249.693 190.827 250.034 191.157 250.279 191.584C250.535 192.011 250.663 192.517 250.663 193.104V198H249.223ZM254.359 198V193.408C254.359 192.843 254.183 192.4 253.831 192.08C253.49 191.749 253.063 191.584 252.551 191.584C252.199 191.584 251.879 191.659 251.591 191.808C251.314 191.957 251.09 192.165 250.919 192.432C250.749 192.699 250.663 193.019 250.663 193.392L249.847 193.104C249.879 192.517 250.034 192.016 250.311 191.6C250.599 191.173 250.967 190.843 251.415 190.608C251.863 190.363 252.354 190.24 252.887 190.24C253.442 190.24 253.938 190.357 254.375 190.592C254.813 190.827 255.159 191.157 255.415 191.584C255.682 192.011 255.815 192.523 255.815 193.12V198H254.359ZM261.007 198.16C260.313 198.16 259.684 197.989 259.119 197.648C258.553 197.296 258.105 196.821 257.775 196.224C257.455 195.627 257.295 194.955 257.295 194.208C257.295 193.461 257.455 192.789 257.775 192.192C258.105 191.595 258.548 191.12 259.103 190.768C259.668 190.416 260.303 190.24 261.007 190.24C261.583 190.24 262.095 190.363 262.543 190.608C263.001 190.843 263.369 191.173 263.647 191.6C263.924 192.016 264.079 192.501 264.111 193.056V195.344C264.079 195.888 263.924 196.373 263.647 196.8C263.38 197.227 263.017 197.563 262.559 197.808C262.111 198.043 261.593 198.16 261.007 198.16ZM261.247 196.8C261.961 196.8 262.537 196.56 262.975 196.08C263.412 195.589 263.631 194.965 263.631 194.208C263.631 193.685 263.529 193.232 263.327 192.848C263.135 192.453 262.857 192.149 262.495 191.936C262.132 191.712 261.711 191.6 261.231 191.6C260.751 191.6 260.324 191.712 259.951 191.936C259.588 192.16 259.3 192.469 259.087 192.864C258.884 193.248 258.783 193.691 258.783 194.192C258.783 194.704 258.884 195.157 259.087 195.552C259.3 195.936 259.593 196.24 259.967 196.464C260.34 196.688 260.767 196.8 261.247 196.8ZM263.535 198V195.952L263.807 194.096L263.535 192.256V190.4H264.991V198H263.535ZM268.224 198V187.216H269.664V198H268.224ZM266.352 191.712V190.4H271.536V191.712H266.352ZM272.963 198V190.4H274.403V198H272.963ZM273.683 188.88C273.416 188.88 273.197 188.795 273.027 188.624C272.856 188.443 272.771 188.219 272.771 187.952C272.771 187.696 272.856 187.483 273.027 187.312C273.197 187.131 273.416 187.04 273.683 187.04C273.949 187.04 274.168 187.131 274.339 187.312C274.509 187.483 274.595 187.696 274.595 187.952C274.595 188.219 274.509 188.443 274.339 188.624C274.168 188.795 273.949 188.88 273.683 188.88ZM279.997 198.16C279.25 198.16 278.578 197.984 277.981 197.632C277.383 197.28 276.909 196.805 276.557 196.208C276.205 195.6 276.029 194.923 276.029 194.176C276.029 193.44 276.205 192.779 276.557 192.192C276.909 191.595 277.383 191.12 277.981 190.768C278.578 190.416 279.25 190.24 279.997 190.24C280.733 190.24 281.399 190.416 281.997 190.768C282.605 191.109 283.085 191.579 283.437 192.176C283.789 192.773 283.965 193.44 283.965 194.176C283.965 194.923 283.789 195.6 283.437 196.208C283.085 196.805 282.605 197.28 281.997 197.632C281.399 197.984 280.733 198.16 279.997 198.16ZM279.997 196.768C280.477 196.768 280.903 196.656 281.277 196.432C281.65 196.208 281.943 195.904 282.157 195.52C282.37 195.125 282.477 194.677 282.477 194.176C282.477 193.685 282.365 193.248 282.141 192.864C281.927 192.48 281.634 192.181 281.261 191.968C280.898 191.744 280.477 191.632 279.997 191.632C279.517 191.632 279.09 191.744 278.717 191.968C278.343 192.181 278.05 192.48 277.837 192.864C277.623 193.248 277.517 193.685 277.517 194.176C277.517 194.677 277.623 195.125 277.837 195.52C278.05 195.904 278.343 196.208 278.717 196.432C279.09 196.656 279.517 196.768 279.997 196.768ZM290.963 198V193.568C290.963 192.992 290.782 192.517 290.419 192.144C290.057 191.771 289.587 191.584 289.011 191.584C288.627 191.584 288.286 191.669 287.987 191.84C287.689 192.011 287.454 192.245 287.283 192.544C287.113 192.843 287.027 193.184 287.027 193.568L286.435 193.232C286.435 192.656 286.563 192.144 286.819 191.696C287.075 191.248 287.433 190.896 287.891 190.64C288.35 190.373 288.867 190.24 289.443 190.24C290.019 190.24 290.526 190.384 290.963 190.672C291.411 190.96 291.763 191.339 292.019 191.808C292.275 192.267 292.403 192.757 292.403 193.28V198H290.963ZM285.587 198V190.4H287.027V198H285.587ZM299.857 198L296.849 190.4H298.353L300.529 196.32H300.049L302.209 190.4H303.041L305.201 196.32H304.721L306.897 190.4H308.401L305.409 198H304.561L302.369 192.256H302.897L300.689 198H299.857ZM309.572 198V190.4H311.012V198H309.572ZM310.292 188.88C310.025 188.88 309.807 188.795 309.636 188.624C309.465 188.443 309.38 188.219 309.38 187.952C309.38 187.696 309.465 187.483 309.636 187.312C309.807 187.131 310.025 187.04 310.292 187.04C310.559 187.04 310.777 187.131 310.948 187.312C311.119 187.483 311.204 187.696 311.204 187.952C311.204 188.219 311.119 188.443 310.948 188.624C310.777 188.795 310.559 188.88 310.292 188.88ZM313.134 198V186.576H314.574V198H313.134ZM316.681 198V186.576H318.121V198H316.681ZM327.556 198.16C326.98 198.16 326.457 198.043 325.988 197.808C325.529 197.563 325.161 197.227 324.884 196.8C324.607 196.373 324.452 195.888 324.42 195.344V193.056C324.452 192.501 324.607 192.016 324.884 191.6C325.172 191.173 325.545 190.843 326.004 190.608C326.473 190.363 326.991 190.24 327.556 190.24C328.249 190.24 328.873 190.416 329.428 190.768C329.993 191.12 330.436 191.595 330.756 192.192C331.076 192.789 331.236 193.461 331.236 194.208C331.236 194.955 331.076 195.627 330.756 196.224C330.436 196.821 329.993 197.296 329.428 197.648C328.873 197.989 328.249 198.16 327.556 198.16ZM323.556 198V186.576H324.996V192.256L324.724 194.096L324.996 195.952V198H323.556ZM327.316 196.8C327.796 196.8 328.217 196.688 328.58 196.464C328.943 196.24 329.231 195.936 329.444 195.552C329.657 195.157 329.764 194.704 329.764 194.192C329.764 193.691 329.657 193.243 329.444 192.848C329.231 192.453 328.943 192.149 328.58 191.936C328.217 191.712 327.801 191.6 327.332 191.6C326.852 191.6 326.431 191.712 326.068 191.936C325.705 192.149 325.423 192.453 325.22 192.848C325.017 193.243 324.916 193.696 324.916 194.208C324.916 194.709 325.012 195.157 325.204 195.552C325.407 195.936 325.689 196.24 326.052 196.464C326.425 196.688 326.847 196.8 327.316 196.8ZM336.389 198.16C335.631 198.16 334.949 197.989 334.341 197.648C333.733 197.296 333.253 196.821 332.901 196.224C332.549 195.627 332.373 194.949 332.373 194.192C332.373 193.445 332.543 192.773 332.885 192.176C333.237 191.579 333.706 191.109 334.293 190.768C334.89 190.416 335.557 190.24 336.293 190.24C336.997 190.24 337.615 190.4 338.149 190.72C338.693 191.04 339.114 191.483 339.413 192.048C339.722 192.613 339.877 193.253 339.877 193.968C339.877 194.075 339.871 194.192 339.861 194.32C339.85 194.437 339.829 194.576 339.797 194.736H333.381V193.536H339.029L338.501 194C338.501 193.488 338.41 193.056 338.229 192.704C338.047 192.341 337.791 192.064 337.461 191.872C337.13 191.669 336.73 191.568 336.261 191.568C335.77 191.568 335.338 191.675 334.965 191.888C334.591 192.101 334.303 192.4 334.101 192.784C333.898 193.168 333.797 193.621 333.797 194.144C333.797 194.677 333.903 195.147 334.117 195.552C334.33 195.947 334.634 196.256 335.029 196.48C335.423 196.693 335.877 196.8 336.389 196.8C336.815 196.8 337.205 196.725 337.557 196.576C337.919 196.427 338.229 196.203 338.485 195.904L339.413 196.848C339.05 197.275 338.602 197.6 338.069 197.824C337.546 198.048 336.986 198.16 336.389 198.16ZM344.775 198V186.576H346.215V198H344.775ZM351.794 198.16C351.047 198.16 350.375 197.984 349.778 197.632C349.18 197.28 348.706 196.805 348.354 196.208C348.002 195.6 347.826 194.923 347.826 194.176C347.826 193.44 348.002 192.779 348.354 192.192C348.706 191.595 349.18 191.12 349.778 190.768C350.375 190.416 351.047 190.24 351.794 190.24C352.53 190.24 353.196 190.416 353.794 190.768C354.402 191.109 354.882 191.579 355.234 192.176C355.586 192.773 355.762 193.44 355.762 194.176C355.762 194.923 355.586 195.6 355.234 196.208C354.882 196.805 354.402 197.28 353.794 197.632C353.196 197.984 352.53 198.16 351.794 198.16ZM351.794 196.768C352.274 196.768 352.7 196.656 353.074 196.432C353.447 196.208 353.74 195.904 353.954 195.52C354.167 195.125 354.274 194.677 354.274 194.176C354.274 193.685 354.162 193.248 353.938 192.864C353.724 192.48 353.431 192.181 353.058 191.968C352.695 191.744 352.274 191.632 351.794 191.632C351.314 191.632 350.887 191.744 350.514 191.968C350.14 192.181 349.847 192.48 349.634 192.864C349.42 193.248 349.314 193.685 349.314 194.176C349.314 194.677 349.42 195.125 349.634 195.52C349.847 195.904 350.14 196.208 350.514 196.432C350.887 196.656 351.314 196.768 351.794 196.768ZM359.8 198.16C359.373 198.16 358.968 198.107 358.584 198C358.211 197.883 357.864 197.723 357.544 197.52C357.224 197.307 356.947 197.056 356.712 196.768L357.64 195.84C357.917 196.181 358.237 196.437 358.6 196.608C358.963 196.768 359.368 196.848 359.816 196.848C360.264 196.848 360.611 196.773 360.856 196.624C361.101 196.464 361.224 196.245 361.224 195.968C361.224 195.691 361.123 195.477 360.92 195.328C360.728 195.168 360.477 195.04 360.168 194.944C359.859 194.837 359.528 194.736 359.176 194.64C358.835 194.533 358.509 194.4 358.2 194.24C357.891 194.08 357.635 193.861 357.432 193.584C357.24 193.307 357.144 192.939 357.144 192.48C357.144 192.021 357.256 191.627 357.48 191.296C357.704 190.955 358.013 190.693 358.408 190.512C358.813 190.331 359.299 190.24 359.864 190.24C360.461 190.24 360.989 190.347 361.448 190.56C361.917 190.763 362.301 191.072 362.6 191.488L361.672 192.416C361.459 192.139 361.192 191.925 360.872 191.776C360.563 191.627 360.211 191.552 359.816 191.552C359.4 191.552 359.08 191.627 358.856 191.776C358.643 191.915 358.536 192.112 358.536 192.368C358.536 192.624 358.632 192.821 358.824 192.96C359.016 193.099 359.267 193.216 359.576 193.312C359.896 193.408 360.227 193.509 360.568 193.616C360.909 193.712 361.235 193.845 361.544 194.016C361.853 194.187 362.104 194.416 362.296 194.704C362.499 194.992 362.6 195.371 362.6 195.84C362.6 196.555 362.344 197.12 361.832 197.536C361.331 197.952 360.653 198.16 359.8 198.16ZM365.38 198V187.216H366.82V198H365.38ZM363.508 191.712V190.4H368.692V191.712H363.508ZM370.82 198.16C370.521 198.16 370.271 198.059 370.068 197.856C369.876 197.643 369.78 197.392 369.78 197.104C369.78 196.805 369.876 196.56 370.068 196.368C370.271 196.165 370.521 196.064 370.82 196.064C371.119 196.064 371.364 196.165 371.556 196.368C371.759 196.56 371.86 196.805 371.86 197.104C371.86 197.392 371.759 197.643 371.556 197.856C371.364 198.059 371.119 198.16 370.82 198.16Z" fill="#2A2C35"/>
<path d="M101.5 228H581.5V308C581.5 315.542 581.5 319.314 579.157 321.657C576.814 324 573.042 324 565.5 324H117.5C109.958 324 106.186 324 103.843 321.657C101.5 319.314 101.5 315.542 101.5 308V228Z" fill="#F1F2F4"/>
<mask id="path-8-inside-1_5240_237539" fill="white">
<path d="M338.5 276C338.5 264.686 338.5 259.029 342.015 255.515C345.529 252 351.186 252 362.5 252H395.5C406.814 252 412.471 252 415.985 255.515C419.5 259.029 419.5 264.686 419.5 276C419.5 287.314 419.5 292.971 415.985 296.485C412.471 300 406.814 300 395.5 300H362.5C351.186 300 345.529 300 342.015 296.485C338.5 292.971 338.5 287.314 338.5 276Z"/>
</mask>
<path d="M342.015 296.485L340.601 297.899L342.015 296.485ZM415.985 296.485L414.571 295.071L415.985 296.485ZM415.985 255.515L417.399 254.101L415.985 255.515ZM342.015 255.515L340.601 254.101L342.015 255.515ZM362.5 252V254H395.5V252V250H362.5V252ZM395.5 300V298H362.5V300V302H395.5V300ZM362.5 300V298C356.787 298 352.703 297.996 349.599 297.578C346.553 297.169 344.753 296.395 343.429 295.071L342.015 296.485L340.601 297.899C342.791 300.09 345.577 301.074 349.066 301.543C352.498 302.004 356.9 302 362.5 302V300ZM338.5 276H336.5C336.5 281.6 336.496 286.002 336.957 289.434C337.426 292.923 338.41 295.709 340.601 297.899L342.015 296.485L343.429 295.071C342.105 293.747 341.331 291.947 340.922 288.901C340.504 285.797 340.5 281.713 340.5 276H338.5ZM419.5 276H417.5C417.5 281.713 417.496 285.797 417.078 288.901C416.669 291.947 415.895 293.747 414.571 295.071L415.985 296.485L417.399 297.899C419.59 295.709 420.574 292.923 421.043 289.434C421.504 286.002 421.5 281.6 421.5 276H419.5ZM395.5 300V302C401.1 302 405.502 302.004 408.934 301.543C412.423 301.074 415.209 300.09 417.399 297.899L415.985 296.485L414.571 295.071C413.247 296.395 411.447 297.169 408.401 297.578C405.297 297.996 401.213 298 395.5 298V300ZM395.5 252V254C401.213 254 405.297 254.004 408.401 254.422C411.447 254.831 413.247 255.605 414.571 256.929L415.985 255.515L417.399 254.101C415.209 251.91 412.423 250.926 408.934 250.457C405.502 249.996 401.1 250 395.5 250V252ZM419.5 276H421.5C421.5 270.4 421.504 265.998 421.043 262.566C420.574 259.077 419.59 256.291 417.399 254.101L415.985 255.515L414.571 256.929C415.895 258.253 416.669 260.053 417.078 263.099C417.496 266.203 417.5 270.287 417.5 276H419.5ZM362.5 252V250C356.9 250 352.498 249.996 349.066 250.457C345.577 250.926 342.791 251.91 340.601 254.101L342.015 255.515L343.429 256.929C344.753 255.605 346.553 254.831 349.599 254.422C352.703 254.004 356.787 254 362.5 254V252ZM338.5 276H340.5C340.5 270.287 340.504 266.203 340.922 263.099C341.331 260.053 342.105 258.253 343.429 256.929L342.015 255.515L340.601 254.101C338.41 256.291 337.426 259.077 336.957 262.566C336.496 265.998 336.5 270.4 336.5 276H338.5Z" fill="#4F46E5" mask="url(#path-8-inside-1_5240_237539)"/>
<path d="M360.96 282.16C360.15 282.16 359.398 282.016 358.704 281.728C358.022 281.429 357.424 281.019 356.912 280.496C356.4 279.963 356.006 279.349 355.728 278.656C355.451 277.952 355.312 277.2 355.312 276.4C355.312 275.6 355.451 274.853 355.728 274.16C356.006 273.456 356.4 272.843 356.912 272.32C357.424 271.797 358.022 271.387 358.704 271.088C359.398 270.789 360.15 270.64 360.96 270.64C361.867 270.64 362.651 270.789 363.312 271.088C363.974 271.387 364.56 271.792 365.072 272.304L363.824 273.552C363.494 273.189 363.088 272.907 362.608 272.704C362.139 272.501 361.59 272.4 360.96 272.4C360.406 272.4 359.899 272.496 359.44 272.688C358.982 272.88 358.582 273.157 358.24 273.52C357.91 273.872 357.654 274.293 357.472 274.784C357.291 275.275 357.2 275.813 357.2 276.4C357.2 276.987 357.291 277.525 357.472 278.016C357.654 278.507 357.91 278.933 358.24 279.296C358.582 279.648 358.982 279.92 359.44 280.112C359.899 280.304 360.406 280.4 360.96 280.4C361.643 280.4 362.219 280.299 362.688 280.096C363.168 279.883 363.574 279.595 363.904 279.232L365.152 280.48C364.64 281.003 364.038 281.413 363.344 281.712C362.651 282.011 361.856 282.16 360.96 282.16ZM369.536 282.16C368.842 282.16 368.213 281.984 367.648 281.632C367.093 281.28 366.65 280.805 366.32 280.208C366 279.6 365.84 278.923 365.84 278.176C365.84 277.419 366 276.741 366.32 276.144C366.65 275.536 367.093 275.056 367.648 274.704C368.213 274.341 368.842 274.16 369.536 274.16C370.122 274.16 370.64 274.288 371.088 274.544C371.546 274.789 371.909 275.131 372.176 275.568C372.442 276.005 372.576 276.501 372.576 277.056V279.264C372.576 279.819 372.442 280.315 372.176 280.752C371.92 281.189 371.562 281.536 371.104 281.792C370.645 282.037 370.122 282.16 369.536 282.16ZM369.824 280.496C370.474 280.496 370.997 280.277 371.392 279.84C371.797 279.403 372 278.843 372 278.16C372 277.701 371.909 277.296 371.728 276.944C371.546 276.592 371.29 276.32 370.96 276.128C370.64 275.925 370.261 275.824 369.824 275.824C369.397 275.824 369.018 275.925 368.688 276.128C368.368 276.32 368.112 276.592 367.92 276.944C367.738 277.296 367.648 277.701 367.648 278.16C367.648 278.619 367.738 279.024 367.92 279.376C368.112 279.728 368.368 280.005 368.688 280.208C369.018 280.4 369.397 280.496 369.824 280.496ZM371.888 282V279.936L372.192 278.064L371.888 276.208V274.32H373.648V282H371.888ZM380.865 282V277.568C380.865 277.056 380.7 276.635 380.369 276.304C380.049 275.973 379.633 275.808 379.121 275.808C378.78 275.808 378.476 275.883 378.209 276.032C377.942 276.181 377.734 276.389 377.585 276.656C377.436 276.923 377.361 277.227 377.361 277.568L376.673 277.184C376.673 276.597 376.801 276.08 377.057 275.632C377.313 275.173 377.665 274.816 378.113 274.56C378.572 274.293 379.084 274.16 379.649 274.16C380.225 274.16 380.737 274.309 381.185 274.608C381.633 274.896 381.985 275.275 382.241 275.744C382.497 276.203 382.625 276.683 382.625 277.184V282H380.865ZM375.601 282V274.32H377.361V282H375.601ZM387.95 282.16C387.192 282.16 386.504 281.984 385.886 281.632C385.278 281.28 384.798 280.8 384.446 280.192C384.094 279.584 383.918 278.907 383.918 278.16C383.918 277.403 384.094 276.725 384.446 276.128C384.798 275.52 385.278 275.04 385.886 274.688C386.504 274.336 387.192 274.16 387.95 274.16C388.547 274.16 389.102 274.277 389.614 274.512C390.136 274.736 390.579 275.061 390.942 275.488L389.79 276.656C389.566 276.389 389.294 276.192 388.974 276.064C388.664 275.925 388.323 275.856 387.95 275.856C387.512 275.856 387.123 275.957 386.782 276.16C386.451 276.352 386.19 276.619 385.998 276.96C385.816 277.301 385.726 277.701 385.726 278.16C385.726 278.608 385.816 279.008 385.998 279.36C386.19 279.701 386.451 279.973 386.782 280.176C387.123 280.368 387.512 280.464 387.95 280.464C388.323 280.464 388.664 280.4 388.974 280.272C389.294 280.133 389.566 279.931 389.79 279.664L390.942 280.832C390.579 281.259 390.136 281.589 389.614 281.824C389.102 282.048 388.547 282.16 387.95 282.16ZM395.622 282.16C394.854 282.16 394.161 281.989 393.542 281.648C392.934 281.296 392.449 280.816 392.086 280.208C391.734 279.6 391.558 278.917 391.558 278.16C391.558 277.403 391.734 276.725 392.086 276.128C392.438 275.52 392.913 275.04 393.51 274.688C394.118 274.336 394.79 274.16 395.526 274.16C396.241 274.16 396.87 274.325 397.414 274.656C397.969 274.987 398.401 275.44 398.71 276.016C399.03 276.592 399.19 277.248 399.19 277.984C399.19 278.112 399.179 278.245 399.158 278.384C399.147 278.512 399.126 278.656 399.094 278.816H392.79V277.376H398.182L397.526 277.952C397.505 277.483 397.414 277.088 397.254 276.768C397.094 276.448 396.865 276.203 396.566 276.032C396.278 275.861 395.921 275.776 395.494 275.776C395.046 275.776 394.657 275.872 394.326 276.064C393.995 276.256 393.739 276.528 393.558 276.88C393.377 277.221 393.286 277.632 393.286 278.112C393.286 278.592 393.382 279.013 393.574 279.376C393.766 279.739 394.038 280.021 394.39 280.224C394.742 280.416 395.147 280.512 395.606 280.512C396.001 280.512 396.363 280.443 396.694 280.304C397.035 280.165 397.323 279.963 397.558 279.696L398.678 280.832C398.305 281.269 397.851 281.6 397.318 281.824C396.785 282.048 396.219 282.16 395.622 282.16ZM400.601 282V270.48H402.361V282H400.601Z" fill="#4F46E5"/>
<path d="M427.5 276C427.5 264.686 427.5 259.029 431.015 255.515C434.529 252 440.186 252 451.5 252H533.5C544.814 252 550.471 252 553.985 255.515C557.5 259.029 557.5 264.686 557.5 276C557.5 287.314 557.5 292.971 553.985 296.485C550.471 300 544.814 300 533.5 300H451.5C440.186 300 434.529 300 431.015 296.485C427.5 292.971 427.5 287.314 427.5 276Z" fill="#4F46E5"/>
<path d="M448.313 282.16C447.427 282.16 446.675 282 446.057 281.68C445.438 281.36 444.883 280.891 444.393 280.272L445.641 279.024C445.95 279.472 446.318 279.824 446.745 280.08C447.171 280.325 447.715 280.448 448.377 280.448C448.995 280.448 449.486 280.32 449.849 280.064C450.222 279.808 450.409 279.456 450.409 279.008C450.409 278.635 450.313 278.331 450.121 278.096C449.929 277.861 449.673 277.669 449.353 277.52C449.043 277.36 448.697 277.221 448.313 277.104C447.939 276.976 447.561 276.837 447.177 276.688C446.803 276.528 446.457 276.331 446.137 276.096C445.827 275.861 445.577 275.557 445.385 275.184C445.193 274.811 445.097 274.336 445.097 273.76C445.097 273.099 445.257 272.539 445.577 272.08C445.907 271.611 446.35 271.253 446.905 271.008C447.459 270.763 448.078 270.64 448.761 270.64C449.497 270.64 450.153 270.784 450.729 271.072C451.315 271.36 451.79 271.728 452.153 272.176L450.905 273.424C450.585 273.061 450.249 272.795 449.897 272.624C449.555 272.443 449.161 272.352 448.713 272.352C448.158 272.352 447.721 272.464 447.401 272.688C447.091 272.912 446.937 273.227 446.937 273.632C446.937 273.973 447.033 274.251 447.225 274.464C447.417 274.667 447.667 274.843 447.977 274.992C448.297 275.131 448.643 275.264 449.017 275.392C449.401 275.52 449.779 275.664 450.153 275.824C450.537 275.984 450.883 276.192 451.193 276.448C451.513 276.693 451.769 277.013 451.961 277.408C452.153 277.803 452.249 278.299 452.249 278.896C452.249 279.899 451.891 280.693 451.177 281.28C450.473 281.867 449.518 282.16 448.313 282.16ZM456.965 282.16C456.272 282.16 455.643 281.984 455.077 281.632C454.523 281.28 454.08 280.805 453.749 280.208C453.429 279.6 453.269 278.923 453.269 278.176C453.269 277.419 453.429 276.741 453.749 276.144C454.08 275.536 454.523 275.056 455.077 274.704C455.643 274.341 456.272 274.16 456.965 274.16C457.552 274.16 458.069 274.288 458.517 274.544C458.976 274.789 459.339 275.131 459.605 275.568C459.872 276.005 460.005 276.501 460.005 277.056V279.264C460.005 279.819 459.872 280.315 459.605 280.752C459.349 281.189 458.992 281.536 458.533 281.792C458.075 282.037 457.552 282.16 456.965 282.16ZM457.253 280.496C457.904 280.496 458.427 280.277 458.821 279.84C459.227 279.403 459.429 278.843 459.429 278.16C459.429 277.701 459.339 277.296 459.157 276.944C458.976 276.592 458.72 276.32 458.389 276.128C458.069 275.925 457.691 275.824 457.253 275.824C456.827 275.824 456.448 275.925 456.117 276.128C455.797 276.32 455.541 276.592 455.349 276.944C455.168 277.296 455.077 277.701 455.077 278.16C455.077 278.619 455.168 279.024 455.349 279.376C455.541 279.728 455.797 280.005 456.117 280.208C456.448 280.4 456.827 280.496 457.253 280.496ZM459.317 282V279.936L459.621 278.064L459.317 276.208V274.32H461.077V282H459.317ZM465.623 282L462.119 274.32H464.071L466.743 280.576H465.591L468.279 274.32H470.151L466.647 282H465.623ZM474.489 282.16C473.721 282.16 473.028 281.989 472.409 281.648C471.801 281.296 471.316 280.816 470.953 280.208C470.601 279.6 470.425 278.917 470.425 278.16C470.425 277.403 470.601 276.725 470.953 276.128C471.305 275.52 471.78 275.04 472.377 274.688C472.985 274.336 473.657 274.16 474.393 274.16C475.108 274.16 475.737 274.325 476.281 274.656C476.836 274.987 477.268 275.44 477.577 276.016C477.897 276.592 478.057 277.248 478.057 277.984C478.057 278.112 478.047 278.245 478.025 278.384C478.015 278.512 477.993 278.656 477.961 278.816H471.657V277.376H477.049L476.393 277.952C476.372 277.483 476.281 277.088 476.121 276.768C475.961 276.448 475.732 276.203 475.433 276.032C475.145 275.861 474.788 275.776 474.361 275.776C473.913 275.776 473.524 275.872 473.193 276.064C472.863 276.256 472.607 276.528 472.425 276.88C472.244 277.221 472.153 277.632 472.153 278.112C472.153 278.592 472.249 279.013 472.441 279.376C472.633 279.739 472.905 280.021 473.257 280.224C473.609 280.416 474.015 280.512 474.473 280.512C474.868 280.512 475.231 280.443 475.561 280.304C475.903 280.165 476.191 279.963 476.425 279.696L477.545 280.832C477.172 281.269 476.719 281.6 476.185 281.824C475.652 282.048 475.087 282.16 474.489 282.16ZM486.207 282.16C485.45 282.16 484.762 281.984 484.143 281.632C483.535 281.28 483.055 280.8 482.703 280.192C482.351 279.584 482.175 278.907 482.175 278.16C482.175 277.403 482.351 276.725 482.703 276.128C483.055 275.52 483.535 275.04 484.143 274.688C484.762 274.336 485.45 274.16 486.207 274.16C486.805 274.16 487.359 274.277 487.871 274.512C488.394 274.736 488.837 275.061 489.199 275.488L488.047 276.656C487.823 276.389 487.551 276.192 487.231 276.064C486.922 275.925 486.581 275.856 486.207 275.856C485.77 275.856 485.381 275.957 485.039 276.16C484.709 276.352 484.447 276.619 484.255 276.96C484.074 277.301 483.983 277.701 483.983 278.16C483.983 278.608 484.074 279.008 484.255 279.36C484.447 279.701 484.709 279.973 485.039 280.176C485.381 280.368 485.77 280.464 486.207 280.464C486.581 280.464 486.922 280.4 487.231 280.272C487.551 280.133 487.823 279.931 488.047 279.664L489.199 280.832C488.837 281.259 488.394 281.589 487.871 281.824C487.359 282.048 486.805 282.16 486.207 282.16ZM495.732 282V277.568C495.732 277.056 495.567 276.635 495.236 276.304C494.916 275.973 494.5 275.808 493.988 275.808C493.647 275.808 493.343 275.883 493.076 276.032C492.81 276.181 492.602 276.389 492.452 276.656C492.303 276.923 492.228 277.227 492.228 277.568L491.54 277.184C491.54 276.597 491.668 276.08 491.924 275.632C492.18 275.173 492.532 274.816 492.98 274.56C493.439 274.293 493.951 274.16 494.516 274.16C495.092 274.16 495.604 274.288 496.052 274.544C496.5 274.8 496.852 275.157 497.108 275.616C497.364 276.064 497.492 276.587 497.492 277.184V282H495.732ZM490.468 282V270.48H492.228V282H490.468ZM502.497 282.16C501.803 282.16 501.174 281.984 500.609 281.632C500.054 281.28 499.611 280.805 499.281 280.208C498.961 279.6 498.801 278.923 498.801 278.176C498.801 277.419 498.961 276.741 499.281 276.144C499.611 275.536 500.054 275.056 500.609 274.704C501.174 274.341 501.803 274.16 502.497 274.16C503.083 274.16 503.601 274.288 504.049 274.544C504.507 274.789 504.87 275.131 505.137 275.568C505.403 276.005 505.537 276.501 505.537 277.056V279.264C505.537 279.819 505.403 280.315 505.137 280.752C504.881 281.189 504.523 281.536 504.065 281.792C503.606 282.037 503.083 282.16 502.497 282.16ZM502.785 280.496C503.435 280.496 503.958 280.277 504.353 279.84C504.758 279.403 504.961 278.843 504.961 278.16C504.961 277.701 504.87 277.296 504.689 276.944C504.507 276.592 504.251 276.32 503.921 276.128C503.601 275.925 503.222 275.824 502.785 275.824C502.358 275.824 501.979 275.925 501.649 276.128C501.329 276.32 501.073 276.592 500.881 276.944C500.699 277.296 500.609 277.701 500.609 278.16C500.609 278.619 500.699 279.024 500.881 279.376C501.073 279.728 501.329 280.005 501.649 280.208C501.979 280.4 502.358 280.496 502.785 280.496ZM504.849 282V279.936L505.153 278.064L504.849 276.208V274.32H506.609V282H504.849ZM513.826 282V277.568C513.826 277.056 513.661 276.635 513.33 276.304C513.01 275.973 512.594 275.808 512.082 275.808C511.741 275.808 511.437 275.883 511.17 276.032C510.903 276.181 510.695 276.389 510.546 276.656C510.397 276.923 510.322 277.227 510.322 277.568L509.634 277.184C509.634 276.597 509.762 276.08 510.018 275.632C510.274 275.173 510.626 274.816 511.074 274.56C511.533 274.293 512.045 274.16 512.61 274.16C513.186 274.16 513.698 274.309 514.146 274.608C514.594 274.896 514.946 275.275 515.202 275.744C515.458 276.203 515.586 276.683 515.586 277.184V282H513.826ZM508.562 282V274.32H510.322V282H508.562ZM520.574 285.36C519.764 285.36 519.054 285.211 518.446 284.912C517.838 284.624 517.348 284.213 516.974 283.68L518.126 282.528C518.436 282.912 518.788 283.2 519.182 283.392C519.577 283.584 520.052 283.68 520.606 283.68C521.3 283.68 521.849 283.499 522.254 283.136C522.66 282.784 522.862 282.299 522.862 281.68V279.792L523.166 278.096L522.862 276.384V274.32H524.622V281.68C524.622 282.416 524.452 283.056 524.11 283.6C523.769 284.155 523.294 284.587 522.686 284.896C522.078 285.205 521.374 285.36 520.574 285.36ZM520.494 281.84C519.812 281.84 519.193 281.675 518.638 281.344C518.094 281.003 517.662 280.539 517.342 279.952C517.033 279.365 516.878 278.709 516.878 277.984C516.878 277.259 517.033 276.608 517.342 276.032C517.662 275.456 518.094 275.003 518.638 274.672C519.193 274.331 519.812 274.16 520.494 274.16C521.102 274.16 521.636 274.283 522.094 274.528C522.553 274.773 522.91 275.115 523.166 275.552C523.422 275.979 523.55 276.48 523.55 277.056V278.944C523.55 279.509 523.417 280.011 523.15 280.448C522.894 280.885 522.537 281.227 522.078 281.472C521.62 281.717 521.092 281.84 520.494 281.84ZM520.846 280.176C521.273 280.176 521.646 280.085 521.966 279.904C522.286 279.723 522.532 279.472 522.702 279.152C522.884 278.821 522.974 278.437 522.974 278C522.974 277.563 522.884 277.184 522.702 276.864C522.532 276.533 522.286 276.277 521.966 276.096C521.646 275.915 521.273 275.824 520.846 275.824C520.42 275.824 520.041 275.915 519.71 276.096C519.39 276.277 519.14 276.533 518.958 276.864C518.777 277.184 518.686 277.563 518.686 278C518.686 278.427 518.777 278.805 518.958 279.136C519.14 279.467 519.39 279.723 519.71 279.904C520.041 280.085 520.42 280.176 520.846 280.176ZM530.146 282.16C529.378 282.16 528.684 281.989 528.066 281.648C527.458 281.296 526.972 280.816 526.61 280.208C526.258 279.6 526.082 278.917 526.082 278.16C526.082 277.403 526.258 276.725 526.61 276.128C526.962 275.52 527.436 275.04 528.034 274.688C528.642 274.336 529.314 274.16 530.05 274.16C530.764 274.16 531.394 274.325 531.938 274.656C532.492 274.987 532.924 275.44 533.234 276.016C533.554 276.592 533.714 277.248 533.714 277.984C533.714 278.112 533.703 278.245 533.682 278.384C533.671 278.512 533.65 278.656 533.618 278.816H527.314V277.376H532.706L532.05 277.952C532.028 277.483 531.938 277.088 531.778 276.768C531.618 276.448 531.388 276.203 531.09 276.032C530.802 275.861 530.444 275.776 530.018 275.776C529.57 275.776 529.18 275.872 528.85 276.064C528.519 276.256 528.263 276.528 528.082 276.88C527.9 277.221 527.81 277.632 527.81 278.112C527.81 278.592 527.906 279.013 528.098 279.376C528.29 279.739 528.562 280.021 528.914 280.224C529.266 280.416 529.671 280.512 530.13 280.512C530.524 280.512 530.887 280.443 531.218 280.304C531.559 280.165 531.847 279.963 532.082 279.696L533.202 280.832C532.828 281.269 532.375 281.6 531.842 281.824C531.308 282.048 530.743 282.16 530.146 282.16ZM537.636 282.16C537.21 282.16 536.799 282.107 536.404 282C536.01 281.883 535.647 281.723 535.316 281.52C534.986 281.307 534.698 281.051 534.452 280.752L535.572 279.632C535.839 279.941 536.143 280.176 536.484 280.336C536.836 280.485 537.231 280.56 537.668 280.56C538.063 280.56 538.362 280.501 538.564 280.384C538.767 280.267 538.868 280.096 538.868 279.872C538.868 279.637 538.772 279.456 538.58 279.328C538.388 279.2 538.138 279.093 537.828 279.008C537.53 278.912 537.21 278.816 536.868 278.72C536.538 278.624 536.218 278.496 535.908 278.336C535.61 278.165 535.364 277.936 535.172 277.648C534.98 277.36 534.884 276.987 534.884 276.528C534.884 276.037 534.996 275.616 535.22 275.264C535.455 274.912 535.78 274.64 536.196 274.448C536.623 274.256 537.13 274.16 537.716 274.16C538.335 274.16 538.879 274.272 539.348 274.496C539.828 274.709 540.228 275.035 540.548 275.472L539.428 276.592C539.204 276.315 538.948 276.107 538.66 275.968C538.372 275.829 538.042 275.76 537.668 275.76C537.316 275.76 537.044 275.813 536.852 275.92C536.66 276.027 536.564 276.181 536.564 276.384C536.564 276.597 536.66 276.763 536.852 276.88C537.044 276.997 537.29 277.099 537.588 277.184C537.898 277.269 538.218 277.365 538.548 277.472C538.89 277.568 539.21 277.707 539.508 277.888C539.818 278.059 540.068 278.293 540.26 278.592C540.452 278.88 540.548 279.259 540.548 279.728C540.548 280.475 540.287 281.067 539.764 281.504C539.242 281.941 538.532 282.16 537.636 282.16Z" fill="white"/>
</g>
<defs>
<filter id="filter0_d_5240_237539" x="59.5" y="74" width="564" height="312" filterUnits="userSpaceOnUse" color-interpolation-filters="sRGB">
<feFlood flood-opacity="0" result="BackgroundImageFix"/>
<feColorMatrix in="SourceAlpha" type="matrix" values="0 0 0 0 0 0 0 0 0 0 0 0 0 0 0 0 0 0 127 0" result="hardAlpha"/>
<feMorphology radius="16" operator="erode" in="SourceAlpha" result="effect1_dropShadow_5240_237539"/>
<feOffset dy="20"/>
<feGaussianBlur stdDeviation="29"/>
<feColorMatrix type="matrix" values="0 0 0 0 0 0 0 0 0 0 0 0 0 0 0 0 0 0 0.16 0"/>
<feBlend mode="normal" in2="BackgroundImageFix" result="effect1_dropShadow_5240_237539"/>
<feBlend mode="normal" in="SourceGraphic" in2="effect1_dropShadow_5240_237539" result="shape"/>
</filter>
</defs>
</svg>
