<svg width="683" height="420" viewBox="0 0 683 420" fill="none" xmlns="http://www.w3.org/2000/svg">
<path d="M165.5 196C165.5 184.686 165.5 179.029 169.015 175.515C172.529 172 178.186 172 189.5 172H221.5V248H189.5C178.186 248 172.529 248 169.015 244.485C165.5 240.971 165.5 235.314 165.5 224V196Z" fill="#4F46E5"/>
<path d="M204.919 206.015L194.044 200.015C193.877 199.923 193.69 199.875 193.5 199.875C193.31 199.875 193.123 199.923 192.956 200.015L182.081 206.015C181.905 206.112 181.759 206.255 181.657 206.428C181.555 206.601 181.501 206.798 181.501 206.999C181.501 207.2 181.555 207.397 181.657 207.57C181.759 207.743 181.905 207.886 182.081 207.983L184.125 209.108V213.586C184.124 214.047 184.294 214.492 184.602 214.835C185.872 216.253 188.719 218.625 193.5 218.625C194.77 218.632 196.034 218.45 197.25 218.086V220.5C197.25 220.798 197.369 221.084 197.58 221.295C197.791 221.506 198.077 221.625 198.375 221.625C198.673 221.625 198.96 221.506 199.171 221.295C199.382 221.084 199.5 220.798 199.5 220.5V217.136C200.587 216.536 201.566 215.76 202.398 214.838C202.706 214.495 202.876 214.051 202.875 213.59V209.112L204.919 207.987C205.095 207.89 205.241 207.747 205.343 207.574C205.445 207.401 205.499 207.204 205.499 207.003C205.499 206.802 205.445 206.605 205.343 206.431C205.241 206.258 205.095 206.116 204.919 206.018V206.015ZM193.5 202.285L202.046 207L198.938 208.716C198.932 208.712 198.926 208.708 198.921 208.704L194.046 206.015C193.785 205.88 193.483 205.852 193.203 205.938C192.922 206.023 192.686 206.214 192.544 206.47C192.403 206.727 192.367 207.028 192.444 207.311C192.521 207.593 192.706 207.835 192.958 207.983L196.614 209.998L193.5 211.716L184.954 207L193.5 202.285ZM193.5 216.375C189.711 216.375 187.439 214.587 186.375 213.443V210.35L192.956 213.982C193.123 214.073 193.31 214.122 193.5 214.122C193.69 214.122 193.877 214.073 194.044 213.982L197.25 212.216V215.707C196.052 216.159 194.781 216.386 193.5 216.375ZM200.625 213.443C200.28 213.813 199.904 214.152 199.5 214.457V210.974L200.625 210.353V213.443Z" fill="#F6F6F8"/>
<path d="M221.5 172H493.5C504.814 172 510.471 172 513.985 175.515C517.5 179.029 517.5 184.686 517.5 196V224C517.5 235.314 517.5 240.971 513.985 244.485C510.471 248 504.814 248 493.5 248H221.5V172Z" fill="white"/>
<path d="M239.98 198V196.32H242.924C243.692 196.32 244.364 196.155 244.94 195.824C245.527 195.493 245.98 195.035 246.3 194.448C246.631 193.851 246.796 193.163 246.796 192.384C246.796 191.616 246.631 190.939 246.3 190.352C245.969 189.765 245.511 189.307 244.924 188.976C244.348 188.645 243.681 188.48 242.924 188.48H239.98V186.8H242.972C243.783 186.8 244.535 186.944 245.228 187.232C245.921 187.509 246.524 187.904 247.036 188.416C247.559 188.917 247.964 189.509 248.252 190.192C248.54 190.864 248.684 191.6 248.684 192.4C248.684 193.189 248.54 193.925 248.252 194.608C247.964 195.291 247.564 195.888 247.052 196.4C246.54 196.901 245.937 197.296 245.244 197.584C244.551 197.861 243.804 198 243.004 198H239.98ZM238.716 198V186.8H240.556V198H238.716ZM250.336 198V190.32H252.096V198H250.336ZM251.216 188.912C250.917 188.912 250.666 188.811 250.464 188.608C250.272 188.405 250.176 188.155 250.176 187.856C250.176 187.557 250.272 187.307 250.464 187.104C250.666 186.901 250.917 186.8 251.216 186.8C251.525 186.8 251.776 186.901 251.968 187.104C252.16 187.307 252.256 187.557 252.256 187.856C252.256 188.155 252.16 188.405 251.968 188.608C251.776 188.811 251.525 188.912 251.216 188.912ZM256.582 198.16C256.155 198.16 255.744 198.107 255.35 198C254.955 197.883 254.592 197.723 254.262 197.52C253.931 197.307 253.643 197.051 253.398 196.752L254.518 195.632C254.784 195.941 255.088 196.176 255.43 196.336C255.782 196.485 256.176 196.56 256.614 196.56C257.008 196.56 257.307 196.501 257.51 196.384C257.712 196.267 257.814 196.096 257.814 195.872C257.814 195.637 257.718 195.456 257.526 195.328C257.334 195.2 257.083 195.093 256.774 195.008C256.475 194.912 256.155 194.816 255.814 194.72C255.483 194.624 255.163 194.496 254.854 194.336C254.555 194.165 254.31 193.936 254.118 193.648C253.926 193.36 253.83 192.987 253.83 192.528C253.83 192.037 253.942 191.616 254.166 191.264C254.4 190.912 254.726 190.64 255.142 190.448C255.568 190.256 256.075 190.16 256.662 190.16C257.28 190.16 257.824 190.272 258.294 190.496C258.774 190.709 259.174 191.035 259.494 191.472L258.374 192.592C258.15 192.315 257.894 192.107 257.606 191.968C257.318 191.829 256.987 191.76 256.614 191.76C256.262 191.76 255.99 191.813 255.798 191.92C255.606 192.027 255.51 192.181 255.51 192.384C255.51 192.597 255.606 192.763 255.798 192.88C255.99 192.997 256.235 193.099 256.534 193.184C256.843 193.269 257.163 193.365 257.494 193.472C257.835 193.568 258.155 193.707 258.454 193.888C258.763 194.059 259.014 194.293 259.206 194.592C259.398 194.88 259.494 195.259 259.494 195.728C259.494 196.475 259.232 197.067 258.71 197.504C258.187 197.941 257.478 198.16 256.582 198.16ZM264.481 198.16C263.723 198.16 263.035 197.984 262.417 197.632C261.809 197.28 261.329 196.8 260.977 196.192C260.625 195.584 260.449 194.907 260.449 194.16C260.449 193.403 260.625 192.725 260.977 192.128C261.329 191.52 261.809 191.04 262.417 190.688C263.035 190.336 263.723 190.16 264.481 190.16C265.078 190.16 265.633 190.277 266.145 190.512C266.667 190.736 267.11 191.061 267.473 191.488L266.321 192.656C266.097 192.389 265.825 192.192 265.505 192.064C265.195 191.925 264.854 191.856 264.481 191.856C264.043 191.856 263.654 191.957 263.313 192.16C262.982 192.352 262.721 192.619 262.529 192.96C262.347 193.301 262.257 193.701 262.257 194.16C262.257 194.608 262.347 195.008 262.529 195.36C262.721 195.701 262.982 195.973 263.313 196.176C263.654 196.368 264.043 196.464 264.481 196.464C264.854 196.464 265.195 196.4 265.505 196.272C265.825 196.133 266.097 195.931 266.321 195.664L267.473 196.832C267.11 197.259 266.667 197.589 266.145 197.824C265.633 198.048 265.078 198.16 264.481 198.16ZM268.758 198V190.32H270.518V198H268.758ZM269.638 188.912C269.339 188.912 269.088 188.811 268.886 188.608C268.694 188.405 268.598 188.155 268.598 187.856C268.598 187.557 268.694 187.307 268.886 187.104C269.088 186.901 269.339 186.8 269.638 186.8C269.947 186.8 270.198 186.901 270.39 187.104C270.582 187.307 270.678 187.557 270.678 187.856C270.678 188.155 270.582 188.405 270.39 188.608C270.198 188.811 269.947 188.912 269.638 188.912ZM276.604 198.16C276.017 198.16 275.494 198.037 275.036 197.792C274.577 197.536 274.214 197.189 273.948 196.752C273.692 196.315 273.564 195.819 273.564 195.264V193.056C273.564 192.501 273.697 192.005 273.964 191.568C274.23 191.131 274.593 190.789 275.052 190.544C275.51 190.288 276.028 190.16 276.604 190.16C277.297 190.16 277.921 190.341 278.476 190.704C279.041 191.056 279.484 191.536 279.804 192.144C280.134 192.741 280.3 193.419 280.3 194.176C280.3 194.923 280.134 195.6 279.804 196.208C279.484 196.805 279.041 197.28 278.476 197.632C277.921 197.984 277.297 198.16 276.604 198.16ZM272.492 201.2V190.32H274.252V192.384L273.948 194.256L274.252 196.112V201.2H272.492ZM276.316 196.496C276.742 196.496 277.116 196.4 277.436 196.208C277.766 196.005 278.022 195.728 278.204 195.376C278.396 195.024 278.492 194.619 278.492 194.16C278.492 193.701 278.396 193.296 278.204 192.944C278.022 192.592 277.766 192.32 277.436 192.128C277.116 191.925 276.742 191.824 276.316 191.824C275.889 191.824 275.51 191.925 275.18 192.128C274.849 192.32 274.593 192.592 274.412 192.944C274.23 193.296 274.14 193.701 274.14 194.16C274.14 194.619 274.23 195.024 274.412 195.376C274.593 195.728 274.849 196.005 275.18 196.208C275.51 196.4 275.889 196.496 276.316 196.496ZM281.773 198V186.48H283.533V198H281.773ZM285.508 198V190.32H287.268V198H285.508ZM286.388 188.912C286.089 188.912 285.838 188.811 285.636 188.608C285.444 188.405 285.348 188.155 285.348 187.856C285.348 187.557 285.444 187.307 285.636 187.104C285.838 186.901 286.089 186.8 286.388 186.8C286.697 186.8 286.948 186.901 287.14 187.104C287.332 187.307 287.428 187.557 287.428 187.856C287.428 188.155 287.332 188.405 287.14 188.608C286.948 188.811 286.697 188.912 286.388 188.912ZM294.506 198V193.568C294.506 193.056 294.34 192.635 294.01 192.304C293.69 191.973 293.274 191.808 292.762 191.808C292.42 191.808 292.116 191.883 291.85 192.032C291.583 192.181 291.375 192.389 291.226 192.656C291.076 192.923 291.002 193.227 291.002 193.568L290.314 193.184C290.314 192.597 290.442 192.08 290.698 191.632C290.954 191.173 291.306 190.816 291.754 190.56C292.212 190.293 292.724 190.16 293.29 190.16C293.866 190.16 294.378 190.309 294.826 190.608C295.274 190.896 295.626 191.275 295.882 191.744C296.138 192.203 296.266 192.683 296.266 193.184V198H294.506ZM289.242 198V190.32H291.002V198H289.242ZM301.622 198.16C300.854 198.16 300.161 197.989 299.542 197.648C298.934 197.296 298.449 196.816 298.086 196.208C297.734 195.6 297.558 194.917 297.558 194.16C297.558 193.403 297.734 192.725 298.086 192.128C298.438 191.52 298.913 191.04 299.51 190.688C300.118 190.336 300.79 190.16 301.526 190.16C302.241 190.16 302.87 190.325 303.414 190.656C303.969 190.987 304.401 191.44 304.71 192.016C305.03 192.592 305.19 193.248 305.19 193.984C305.19 194.112 305.179 194.245 305.158 194.384C305.147 194.512 305.126 194.656 305.094 194.816H298.79V193.376H304.182L303.526 193.952C303.505 193.483 303.414 193.088 303.254 192.768C303.094 192.448 302.865 192.203 302.566 192.032C302.278 191.861 301.921 191.776 301.494 191.776C301.046 191.776 300.657 191.872 300.326 192.064C299.995 192.256 299.739 192.528 299.558 192.88C299.377 193.221 299.286 193.632 299.286 194.112C299.286 194.592 299.382 195.013 299.574 195.376C299.766 195.739 300.038 196.021 300.39 196.224C300.742 196.416 301.147 196.512 301.606 196.512C302.001 196.512 302.363 196.443 302.694 196.304C303.035 196.165 303.323 195.963 303.558 195.696L304.678 196.832C304.305 197.269 303.851 197.6 303.318 197.824C302.785 198.048 302.219 198.16 301.622 198.16ZM309.113 198.16C308.686 198.16 308.276 198.107 307.881 198C307.486 197.883 307.124 197.723 306.793 197.52C306.462 197.307 306.174 197.051 305.929 196.752L307.049 195.632C307.316 195.941 307.62 196.176 307.961 196.336C308.313 196.485 308.708 196.56 309.145 196.56C309.54 196.56 309.838 196.501 310.041 196.384C310.244 196.267 310.345 196.096 310.345 195.872C310.345 195.637 310.249 195.456 310.057 195.328C309.865 195.2 309.614 195.093 309.305 195.008C309.006 194.912 308.686 194.816 308.345 194.72C308.014 194.624 307.694 194.496 307.385 194.336C307.086 194.165 306.841 193.936 306.649 193.648C306.457 193.36 306.361 192.987 306.361 192.528C306.361 192.037 306.473 191.616 306.697 191.264C306.932 190.912 307.257 190.64 307.673 190.448C308.1 190.256 308.606 190.16 309.193 190.16C309.812 190.16 310.356 190.272 310.825 190.496C311.305 190.709 311.705 191.035 312.025 191.472L310.905 192.592C310.681 192.315 310.425 192.107 310.137 191.968C309.849 191.829 309.518 191.76 309.145 191.76C308.793 191.76 308.521 191.813 308.329 191.92C308.137 192.027 308.041 192.181 308.041 192.384C308.041 192.597 308.137 192.763 308.329 192.88C308.521 192.997 308.766 193.099 309.065 193.184C309.374 193.269 309.694 193.365 310.025 193.472C310.366 193.568 310.686 193.707 310.985 193.888C311.294 194.059 311.545 194.293 311.737 194.592C311.929 194.88 312.025 195.259 312.025 195.728C312.025 196.475 311.764 197.067 311.241 197.504C310.718 197.941 310.009 198.16 309.113 198.16Z" fill="#2A2C35"/>
<path d="M238.484 217V208.672H239.612V217H238.484ZM239.252 217V215.968H244.028V217H239.252ZM239.252 213.232V212.248H243.632V213.232H239.252ZM239.252 209.704V208.672H243.968V209.704H239.252ZM249.114 217L247.338 214.504L247.134 214.312L244.89 211.3H246.198L247.818 213.52L248.022 213.688L250.422 217H249.114ZM244.782 217L247.134 213.832L247.746 214.624L246.054 217H244.782ZM248.106 214.3L247.482 213.532L249.054 211.3H250.314L248.106 214.3ZM254.417 217.12C253.985 217.12 253.593 217.032 253.241 216.856C252.897 216.672 252.621 216.42 252.413 216.1C252.205 215.78 252.089 215.416 252.065 215.008V213.292C252.089 212.876 252.205 212.512 252.413 212.2C252.629 211.88 252.909 211.632 253.253 211.456C253.605 211.272 253.993 211.18 254.417 211.18C254.937 211.18 255.405 211.312 255.821 211.576C256.245 211.84 256.577 212.196 256.817 212.644C257.057 213.092 257.177 213.596 257.177 214.156C257.177 214.716 257.057 215.22 256.817 215.668C256.577 216.116 256.245 216.472 255.821 216.736C255.405 216.992 254.937 217.12 254.417 217.12ZM251.417 219.388V211.3H252.497V212.8L252.293 214.18L252.497 215.572V219.388H251.417ZM254.237 216.1C254.597 216.1 254.913 216.016 255.185 215.848C255.457 215.68 255.673 215.452 255.833 215.164C255.993 214.868 256.073 214.528 256.073 214.144C256.073 213.768 255.993 213.432 255.833 213.136C255.673 212.84 255.457 212.612 255.185 212.452C254.913 212.284 254.601 212.2 254.249 212.2C253.889 212.2 253.573 212.284 253.301 212.452C253.029 212.612 252.817 212.84 252.665 213.136C252.513 213.432 252.437 213.772 252.437 214.156C252.437 214.532 252.509 214.868 252.653 215.164C252.805 215.452 253.017 215.68 253.289 215.848C253.569 216.016 253.885 216.1 254.237 216.1ZM258.401 217V208.432H259.481V217H258.401ZM263.666 217.12C263.106 217.12 262.602 216.988 262.154 216.724C261.706 216.46 261.35 216.104 261.086 215.656C260.822 215.2 260.69 214.692 260.69 214.132C260.69 213.58 260.822 213.084 261.086 212.644C261.35 212.196 261.706 211.84 262.154 211.576C262.602 211.312 263.106 211.18 263.666 211.18C264.218 211.18 264.718 211.312 265.166 211.576C265.622 211.832 265.982 212.184 266.246 212.632C266.51 213.08 266.642 213.58 266.642 214.132C266.642 214.692 266.51 215.2 266.246 215.656C265.982 216.104 265.622 216.46 265.166 216.724C264.718 216.988 264.218 217.12 263.666 217.12ZM263.666 216.076C264.026 216.076 264.346 215.992 264.626 215.824C264.906 215.656 265.126 215.428 265.286 215.14C265.446 214.844 265.526 214.508 265.526 214.132C265.526 213.764 265.442 213.436 265.274 213.148C265.114 212.86 264.894 212.636 264.614 212.476C264.342 212.308 264.026 212.224 263.666 212.224C263.306 212.224 262.986 212.308 262.706 212.476C262.426 212.636 262.206 212.86 262.046 213.148C261.886 213.436 261.806 213.764 261.806 214.132C261.806 214.508 261.886 214.844 262.046 215.14C262.206 215.428 262.426 215.656 262.706 215.824C262.986 215.992 263.306 216.076 263.666 216.076ZM267.858 217V211.3H268.938V217H267.858ZM268.938 213.748L268.53 213.568C268.53 212.84 268.698 212.26 269.034 211.828C269.37 211.396 269.854 211.18 270.486 211.18C270.774 211.18 271.034 211.232 271.266 211.336C271.498 211.432 271.714 211.596 271.914 211.828L271.206 212.56C271.086 212.432 270.954 212.34 270.81 212.284C270.666 212.228 270.498 212.2 270.306 212.2C269.906 212.2 269.578 212.328 269.322 212.584C269.066 212.84 268.938 213.228 268.938 213.748ZM275.127 217.12C274.559 217.12 274.047 216.992 273.591 216.736C273.135 216.472 272.775 216.116 272.511 215.668C272.247 215.22 272.115 214.712 272.115 214.144C272.115 213.584 272.243 213.08 272.499 212.632C272.763 212.184 273.115 211.832 273.555 211.576C274.003 211.312 274.503 211.18 275.055 211.18C275.583 211.18 276.047 211.3 276.447 211.54C276.855 211.78 277.171 212.112 277.395 212.536C277.627 212.96 277.743 213.44 277.743 213.976C277.743 214.056 277.739 214.144 277.731 214.24C277.723 214.328 277.707 214.432 277.683 214.552H272.871V213.652H277.107L276.711 214C276.711 213.616 276.643 213.292 276.507 213.028C276.371 212.756 276.179 212.548 275.931 212.404C275.683 212.252 275.383 212.176 275.031 212.176C274.663 212.176 274.339 212.256 274.059 212.416C273.779 212.576 273.563 212.8 273.411 213.088C273.259 213.376 273.183 213.716 273.183 214.108C273.183 214.508 273.263 214.86 273.423 215.164C273.583 215.46 273.811 215.692 274.107 215.86C274.403 216.02 274.743 216.1 275.127 216.1C275.447 216.1 275.739 216.044 276.003 215.932C276.275 215.82 276.507 215.652 276.699 215.428L277.395 216.136C277.123 216.456 276.787 216.7 276.387 216.868C275.995 217.036 275.575 217.12 275.127 217.12ZM282.293 217V208.912H283.373V217H282.293ZM280.889 212.284V211.3H284.777V212.284H280.889ZM289.867 217V213.676C289.867 213.244 289.731 212.888 289.459 212.608C289.187 212.328 288.835 212.188 288.403 212.188C288.115 212.188 287.859 212.252 287.635 212.38C287.411 212.508 287.235 212.684 287.107 212.908C286.979 213.132 286.915 213.388 286.915 213.676L286.471 213.424C286.471 212.992 286.567 212.608 286.759 212.272C286.951 211.936 287.219 211.672 287.563 211.48C287.907 211.28 288.295 211.18 288.727 211.18C289.159 211.18 289.539 211.276 289.867 211.468C290.203 211.66 290.467 211.928 290.659 212.272C290.851 212.616 290.947 213.012 290.947 213.46V217H289.867ZM285.835 217V208.432H286.915V217H285.835ZM295.049 217.12C294.481 217.12 293.969 216.992 293.513 216.736C293.057 216.472 292.697 216.116 292.433 215.668C292.169 215.22 292.037 214.712 292.037 214.144C292.037 213.584 292.165 213.08 292.421 212.632C292.685 212.184 293.037 211.832 293.477 211.576C293.925 211.312 294.425 211.18 294.977 211.18C295.505 211.18 295.969 211.3 296.369 211.54C296.777 211.78 297.093 212.112 297.317 212.536C297.549 212.96 297.665 213.44 297.665 213.976C297.665 214.056 297.661 214.144 297.653 214.24C297.645 214.328 297.629 214.432 297.605 214.552H292.793V213.652H297.029L296.633 214C296.633 213.616 296.565 213.292 296.429 213.028C296.293 212.756 296.101 212.548 295.853 212.404C295.605 212.252 295.305 212.176 294.953 212.176C294.585 212.176 294.261 212.256 293.981 212.416C293.701 212.576 293.485 212.8 293.333 213.088C293.181 213.376 293.105 213.716 293.105 214.108C293.105 214.508 293.185 214.86 293.345 215.164C293.505 215.46 293.733 215.692 294.029 215.86C294.325 216.02 294.665 216.1 295.049 216.1C295.369 216.1 295.661 216.044 295.925 215.932C296.197 215.82 296.429 215.652 296.621 215.428L297.317 216.136C297.045 216.456 296.709 216.7 296.309 216.868C295.917 217.036 295.497 217.12 295.049 217.12ZM303.979 217.12C303.411 217.12 302.899 216.992 302.443 216.736C301.987 216.472 301.627 216.116 301.363 215.668C301.099 215.22 300.967 214.712 300.967 214.144C300.967 213.584 301.095 213.08 301.351 212.632C301.615 212.184 301.967 211.832 302.407 211.576C302.855 211.312 303.355 211.18 303.907 211.18C304.435 211.18 304.899 211.3 305.299 211.54C305.707 211.78 306.023 212.112 306.247 212.536C306.479 212.96 306.595 213.44 306.595 213.976C306.595 214.056 306.591 214.144 306.583 214.24C306.575 214.328 306.559 214.432 306.535 214.552H301.723V213.652H305.959L305.563 214C305.563 213.616 305.495 213.292 305.359 213.028C305.223 212.756 305.031 212.548 304.783 212.404C304.535 212.252 304.235 212.176 303.883 212.176C303.515 212.176 303.191 212.256 302.911 212.416C302.631 212.576 302.415 212.8 302.263 213.088C302.111 213.376 302.035 213.716 302.035 214.108C302.035 214.508 302.115 214.86 302.275 215.164C302.435 215.46 302.663 215.692 302.959 215.86C303.255 216.02 303.595 216.1 303.979 216.1C304.299 216.1 304.591 216.044 304.855 215.932C305.127 215.82 305.359 215.652 305.551 215.428L306.247 216.136C305.975 216.456 305.639 216.7 305.239 216.868C304.847 217.036 304.427 217.12 303.979 217.12ZM311.341 217L309.565 214.504L309.361 214.312L307.117 211.3H308.425L310.045 213.52L310.249 213.688L312.649 217H311.341ZM307.009 217L309.361 213.832L309.973 214.624L308.281 217H307.009ZM310.333 214.3L309.709 213.532L311.281 211.3H312.541L310.333 214.3ZM314.273 217V208.912H315.353V217H314.273ZM312.869 212.284V211.3H316.757V212.284H312.869ZM320.28 217.12C319.712 217.12 319.2 216.992 318.744 216.736C318.288 216.472 317.928 216.116 317.664 215.668C317.4 215.22 317.268 214.712 317.268 214.144C317.268 213.584 317.396 213.08 317.652 212.632C317.916 212.184 318.268 211.832 318.708 211.576C319.156 211.312 319.656 211.18 320.208 211.18C320.736 211.18 321.2 211.3 321.6 211.54C322.008 211.78 322.324 212.112 322.548 212.536C322.78 212.96 322.896 213.44 322.896 213.976C322.896 214.056 322.892 214.144 322.884 214.24C322.876 214.328 322.86 214.432 322.836 214.552H318.024V213.652H322.26L321.864 214C321.864 213.616 321.796 213.292 321.66 213.028C321.524 212.756 321.332 212.548 321.084 212.404C320.836 212.252 320.536 212.176 320.184 212.176C319.816 212.176 319.492 212.256 319.212 212.416C318.932 212.576 318.716 212.8 318.564 213.088C318.412 213.376 318.336 213.716 318.336 214.108C318.336 214.508 318.416 214.86 318.576 215.164C318.736 215.46 318.964 215.692 319.26 215.86C319.556 216.02 319.896 216.1 320.28 216.1C320.6 216.1 320.892 216.044 321.156 215.932C321.428 215.82 321.66 215.652 321.852 215.428L322.548 216.136C322.276 216.456 321.94 216.7 321.54 216.868C321.148 217.036 320.728 217.12 320.28 217.12ZM328.105 217V213.676C328.105 213.244 327.969 212.888 327.697 212.608C327.425 212.328 327.073 212.188 326.641 212.188C326.353 212.188 326.097 212.252 325.873 212.38C325.649 212.508 325.473 212.684 325.345 212.908C325.217 213.132 325.153 213.388 325.153 213.676L324.709 213.424C324.709 212.992 324.805 212.608 324.997 212.272C325.189 211.936 325.457 211.672 325.801 211.48C326.145 211.28 326.533 211.18 326.965 211.18C327.397 211.18 327.777 211.288 328.105 211.504C328.441 211.72 328.705 212.004 328.897 212.356C329.089 212.7 329.185 213.068 329.185 213.46V217H328.105ZM324.073 217V211.3H325.153V217H324.073ZM332.459 217.12C332.139 217.12 331.835 217.08 331.547 217C331.267 216.912 331.007 216.792 330.767 216.64C330.527 216.48 330.319 216.292 330.143 216.076L330.839 215.38C331.047 215.636 331.287 215.828 331.559 215.956C331.831 216.076 332.135 216.136 332.471 216.136C332.807 216.136 333.067 216.08 333.251 215.968C333.435 215.848 333.527 215.684 333.527 215.476C333.527 215.268 333.451 215.108 333.299 214.996C333.155 214.876 332.967 214.78 332.735 214.708C332.503 214.628 332.255 214.552 331.991 214.48C331.735 214.4 331.491 214.3 331.259 214.18C331.027 214.06 330.835 213.896 330.683 213.688C330.539 213.48 330.467 213.204 330.467 212.86C330.467 212.516 330.551 212.22 330.719 211.972C330.887 211.716 331.119 211.52 331.415 211.384C331.719 211.248 332.083 211.18 332.507 211.18C332.955 211.18 333.351 211.26 333.695 211.42C334.047 211.572 334.335 211.804 334.559 212.116L333.863 212.812C333.703 212.604 333.503 212.444 333.263 212.332C333.031 212.22 332.767 212.164 332.471 212.164C332.159 212.164 331.919 212.22 331.751 212.332C331.591 212.436 331.511 212.584 331.511 212.776C331.511 212.968 331.583 213.116 331.727 213.22C331.871 213.324 332.059 213.412 332.291 213.484C332.531 213.556 332.779 213.632 333.035 213.712C333.291 213.784 333.535 213.884 333.767 214.012C333.999 214.14 334.187 214.312 334.331 214.528C334.483 214.744 334.559 215.028 334.559 215.38C334.559 215.916 334.367 216.34 333.983 216.652C333.607 216.964 333.099 217.12 332.459 217.12ZM335.781 217V211.3H336.861V217H335.781ZM336.321 210.16C336.121 210.16 335.957 210.096 335.829 209.968C335.701 209.832 335.637 209.664 335.637 209.464C335.637 209.272 335.701 209.112 335.829 208.984C335.957 208.848 336.121 208.78 336.321 208.78C336.521 208.78 336.685 208.848 336.813 208.984C336.941 209.112 337.005 209.272 337.005 209.464C337.005 209.664 336.941 209.832 336.813 209.968C336.685 210.096 336.521 210.16 336.321 210.16ZM340.408 217L337.792 211.3H338.992L341.092 216.112H340.396L342.508 211.3H343.66L341.044 217H340.408ZM346.998 217.12C346.43 217.12 345.918 216.992 345.462 216.736C345.006 216.472 344.646 216.116 344.382 215.668C344.118 215.22 343.986 214.712 343.986 214.144C343.986 213.584 344.114 213.08 344.37 212.632C344.634 212.184 344.986 211.832 345.426 211.576C345.874 211.312 346.374 211.18 346.926 211.18C347.454 211.18 347.918 211.3 348.318 211.54C348.726 211.78 349.042 212.112 349.266 212.536C349.498 212.96 349.614 213.44 349.614 213.976C349.614 214.056 349.61 214.144 349.602 214.24C349.594 214.328 349.578 214.432 349.554 214.552H344.742V213.652H348.978L348.582 214C348.582 213.616 348.514 213.292 348.378 213.028C348.242 212.756 348.05 212.548 347.802 212.404C347.554 212.252 347.254 212.176 346.902 212.176C346.534 212.176 346.21 212.256 345.93 212.416C345.65 212.576 345.434 212.8 345.282 213.088C345.13 213.376 345.054 213.716 345.054 214.108C345.054 214.508 345.134 214.86 345.294 215.164C345.454 215.46 345.682 215.692 345.978 215.86C346.274 216.02 346.614 216.1 346.998 216.1C347.318 216.1 347.61 216.044 347.874 215.932C348.146 215.82 348.378 215.652 348.57 215.428L349.266 216.136C348.994 216.456 348.658 216.7 348.258 216.868C347.866 217.036 347.446 217.12 346.998 217.12ZM353.288 217V211.3H354.368V217H353.288ZM354.368 213.748L353.96 213.568C353.96 212.84 354.128 212.26 354.464 211.828C354.8 211.396 355.284 211.18 355.916 211.18C356.204 211.18 356.464 211.232 356.696 211.336C356.928 211.432 357.144 211.596 357.344 211.828L356.636 212.56C356.516 212.432 356.384 212.34 356.24 212.284C356.096 212.228 355.928 212.2 355.736 212.2C355.336 212.2 355.008 212.328 354.752 212.584C354.496 212.84 354.368 213.228 354.368 213.748ZM360.341 217.12C359.821 217.12 359.349 216.992 358.925 216.736C358.501 216.472 358.165 216.116 357.917 215.668C357.677 215.22 357.557 214.716 357.557 214.156C357.557 213.596 357.677 213.092 357.917 212.644C358.165 212.196 358.497 211.84 358.913 211.576C359.337 211.312 359.813 211.18 360.341 211.18C360.773 211.18 361.157 211.272 361.493 211.456C361.837 211.632 362.113 211.88 362.321 212.2C362.529 212.512 362.645 212.876 362.669 213.292V215.008C362.645 215.416 362.529 215.78 362.321 216.1C362.121 216.42 361.849 216.672 361.505 216.856C361.169 217.032 360.781 217.12 360.341 217.12ZM360.521 216.1C361.057 216.1 361.489 215.92 361.817 215.56C362.145 215.192 362.309 214.724 362.309 214.156C362.309 213.764 362.233 213.424 362.081 213.136C361.937 212.84 361.729 212.612 361.457 212.452C361.185 212.284 360.869 212.2 360.509 212.2C360.149 212.2 359.829 212.284 359.549 212.452C359.277 212.62 359.061 212.852 358.901 213.148C358.749 213.436 358.673 213.768 358.673 214.144C358.673 214.528 358.749 214.868 358.901 215.164C359.061 215.452 359.281 215.68 359.561 215.848C359.841 216.016 360.161 216.1 360.521 216.1ZM362.237 217V215.464L362.441 214.072L362.237 212.692V211.3H363.329V217H362.237ZM368.933 217V213.676C368.933 213.244 368.797 212.888 368.525 212.608C368.253 212.328 367.901 212.188 367.469 212.188C367.181 212.188 366.925 212.252 366.701 212.38C366.477 212.508 366.301 212.684 366.173 212.908C366.045 213.132 365.981 213.388 365.981 213.676L365.537 213.424C365.537 212.992 365.633 212.608 365.825 212.272C366.017 211.936 366.285 211.672 366.629 211.48C366.973 211.28 367.361 211.18 367.793 211.18C368.225 211.18 368.605 211.288 368.933 211.504C369.269 211.72 369.533 212.004 369.725 212.356C369.917 212.7 370.013 213.068 370.013 213.46V217H368.933ZM364.901 217V211.3H365.981V217H364.901ZM373.84 219.508C373.256 219.508 372.736 219.4 372.28 219.184C371.832 218.968 371.472 218.664 371.2 218.272L371.896 217.564C372.128 217.86 372.404 218.084 372.724 218.236C373.044 218.396 373.424 218.476 373.864 218.476C374.448 218.476 374.908 218.32 375.244 218.008C375.588 217.704 375.76 217.292 375.76 216.772V215.356L375.952 214.072L375.76 212.8V211.3H376.84V216.772C376.84 217.316 376.712 217.792 376.456 218.2C376.208 218.608 375.856 218.928 375.4 219.16C374.952 219.392 374.432 219.508 373.84 219.508ZM373.84 216.904C373.32 216.904 372.852 216.78 372.436 216.532C372.028 216.284 371.704 215.944 371.464 215.512C371.224 215.072 371.104 214.58 371.104 214.036C371.104 213.492 371.224 213.008 371.464 212.584C371.704 212.152 372.028 211.812 372.436 211.564C372.852 211.308 373.32 211.18 373.84 211.18C374.288 211.18 374.684 211.268 375.028 211.444C375.372 211.62 375.644 211.868 375.844 212.188C376.052 212.5 376.164 212.868 376.18 213.292V214.804C376.156 215.22 376.04 215.588 375.832 215.908C375.632 216.22 375.36 216.464 375.016 216.64C374.672 216.816 374.28 216.904 373.84 216.904ZM374.056 215.884C374.408 215.884 374.716 215.808 374.98 215.656C375.252 215.504 375.46 215.292 375.604 215.02C375.748 214.74 375.82 214.416 375.82 214.048C375.82 213.68 375.744 213.36 375.592 213.088C375.448 212.808 375.244 212.592 374.98 212.44C374.716 212.28 374.404 212.2 374.044 212.2C373.684 212.2 373.368 212.28 373.096 212.44C372.824 212.592 372.608 212.808 372.448 213.088C372.296 213.36 372.22 213.676 372.22 214.036C372.22 214.396 372.296 214.716 372.448 214.996C372.608 215.276 372.824 215.496 373.096 215.656C373.376 215.808 373.696 215.884 374.056 215.884ZM381.065 217.12C380.497 217.12 379.985 216.992 379.529 216.736C379.073 216.472 378.713 216.116 378.449 215.668C378.185 215.22 378.053 214.712 378.053 214.144C378.053 213.584 378.181 213.08 378.437 212.632C378.701 212.184 379.053 211.832 379.493 211.576C379.941 211.312 380.441 211.18 380.993 211.18C381.521 211.18 381.985 211.3 382.385 211.54C382.793 211.78 383.109 212.112 383.333 212.536C383.565 212.96 383.681 213.44 383.681 213.976C383.681 214.056 383.677 214.144 383.669 214.24C383.661 214.328 383.645 214.432 383.621 214.552H378.809V213.652H383.045L382.649 214C382.649 213.616 382.581 213.292 382.445 213.028C382.309 212.756 382.117 212.548 381.869 212.404C381.621 212.252 381.321 212.176 380.969 212.176C380.601 212.176 380.277 212.256 379.997 212.416C379.717 212.576 379.501 212.8 379.349 213.088C379.197 213.376 379.121 213.716 379.121 214.108C379.121 214.508 379.201 214.86 379.361 215.164C379.521 215.46 379.749 215.692 380.045 215.86C380.341 216.02 380.681 216.1 381.065 216.1C381.385 216.1 381.677 216.044 381.941 215.932C382.213 215.82 382.445 215.652 382.637 215.428L383.333 216.136C383.061 216.456 382.725 216.7 382.325 216.868C381.933 217.036 381.513 217.12 381.065 217.12ZM389.959 217.12C389.399 217.12 388.895 216.988 388.447 216.724C387.999 216.46 387.643 216.104 387.379 215.656C387.115 215.2 386.983 214.692 386.983 214.132C386.983 213.58 387.115 213.084 387.379 212.644C387.643 212.196 387.999 211.84 388.447 211.576C388.895 211.312 389.399 211.18 389.959 211.18C390.511 211.18 391.011 211.312 391.459 211.576C391.915 211.832 392.275 212.184 392.539 212.632C392.803 213.08 392.935 213.58 392.935 214.132C392.935 214.692 392.803 215.2 392.539 215.656C392.275 216.104 391.915 216.46 391.459 216.724C391.011 216.988 390.511 217.12 389.959 217.12ZM389.959 216.076C390.319 216.076 390.639 215.992 390.919 215.824C391.199 215.656 391.419 215.428 391.579 215.14C391.739 214.844 391.819 214.508 391.819 214.132C391.819 213.764 391.735 213.436 391.567 213.148C391.407 212.86 391.187 212.636 390.907 212.476C390.635 212.308 390.319 212.224 389.959 212.224C389.599 212.224 389.279 212.308 388.999 212.476C388.719 212.636 388.499 212.86 388.339 213.148C388.179 213.436 388.099 213.764 388.099 214.132C388.099 214.508 388.179 214.844 388.339 215.14C388.499 215.428 388.719 215.656 388.999 215.824C389.279 215.992 389.599 216.076 389.959 216.076ZM394.792 217V210.448C394.792 210.024 394.884 209.656 395.068 209.344C395.252 209.024 395.504 208.772 395.824 208.588C396.152 208.404 396.532 208.312 396.964 208.312C397.292 208.312 397.576 208.368 397.816 208.48C398.056 208.592 398.276 208.756 398.476 208.972L397.768 209.668C397.664 209.556 397.548 209.472 397.42 209.416C397.292 209.352 397.136 209.32 396.952 209.32C396.608 209.32 396.34 209.42 396.148 209.62C395.964 209.82 395.872 210.096 395.872 210.448V217H394.792ZM393.388 212.284V211.3H397.684V212.284H393.388ZM403.677 217.12C403.149 217.12 402.677 216.992 402.261 216.736C401.845 216.472 401.513 216.116 401.265 215.668C401.025 215.22 400.905 214.716 400.905 214.156C400.905 213.596 401.025 213.092 401.265 212.644C401.513 212.196 401.845 211.84 402.261 211.576C402.677 211.312 403.149 211.18 403.677 211.18C404.101 211.18 404.485 211.272 404.829 211.456C405.173 211.632 405.449 211.88 405.657 212.2C405.873 212.512 405.993 212.876 406.017 213.292V215.008C405.993 215.416 405.877 215.78 405.669 216.1C405.461 216.42 405.185 216.672 404.841 216.856C404.497 217.032 404.109 217.12 403.677 217.12ZM403.857 216.1C404.217 216.1 404.529 216.016 404.793 215.848C405.065 215.68 405.277 215.452 405.429 215.164C405.581 214.868 405.657 214.532 405.657 214.156C405.657 213.764 405.577 213.424 405.417 213.136C405.265 212.848 405.053 212.62 404.781 212.452C404.517 212.284 404.205 212.2 403.845 212.2C403.485 212.2 403.169 212.284 402.897 212.452C402.625 212.62 402.409 212.852 402.249 213.148C402.097 213.436 402.021 213.768 402.021 214.144C402.021 214.528 402.097 214.868 402.249 215.164C402.409 215.452 402.625 215.68 402.897 215.848C403.177 216.016 403.497 216.1 403.857 216.1ZM406.677 217H405.585V215.464L405.789 214.072L405.585 212.692V208.432H406.677V217ZM408.261 217V211.3H409.341V217H408.261ZM408.801 210.16C408.601 210.16 408.437 210.096 408.309 209.968C408.181 209.832 408.117 209.664 408.117 209.464C408.117 209.272 408.181 209.112 408.309 208.984C408.437 208.848 408.601 208.78 408.801 208.78C409.001 208.78 409.165 208.848 409.293 208.984C409.421 209.112 409.485 209.272 409.485 209.464C409.485 209.664 409.421 209.832 409.293 209.968C409.165 210.096 409.001 210.16 408.801 210.16ZM412.745 217.12C412.425 217.12 412.121 217.08 411.833 217C411.553 216.912 411.293 216.792 411.053 216.64C410.813 216.48 410.605 216.292 410.429 216.076L411.125 215.38C411.333 215.636 411.573 215.828 411.845 215.956C412.117 216.076 412.421 216.136 412.757 216.136C413.093 216.136 413.353 216.08 413.537 215.968C413.721 215.848 413.813 215.684 413.813 215.476C413.813 215.268 413.737 215.108 413.585 214.996C413.441 214.876 413.253 214.78 413.021 214.708C412.789 214.628 412.541 214.552 412.277 214.48C412.021 214.4 411.777 214.3 411.545 214.18C411.313 214.06 411.121 213.896 410.969 213.688C410.825 213.48 410.753 213.204 410.753 212.86C410.753 212.516 410.837 212.22 411.005 211.972C411.173 211.716 411.405 211.52 411.701 211.384C412.005 211.248 412.369 211.18 412.793 211.18C413.241 211.18 413.637 211.26 413.981 211.42C414.333 211.572 414.621 211.804 414.845 212.116L414.149 212.812C413.989 212.604 413.789 212.444 413.549 212.332C413.317 212.22 413.053 212.164 412.757 212.164C412.445 212.164 412.205 212.22 412.037 212.332C411.877 212.436 411.797 212.584 411.797 212.776C411.797 212.968 411.869 213.116 412.013 213.22C412.157 213.324 412.345 213.412 412.577 213.484C412.817 213.556 413.065 213.632 413.321 213.712C413.577 213.784 413.821 213.884 414.053 214.012C414.285 214.14 414.473 214.312 414.617 214.528C414.769 214.744 414.845 215.028 414.845 215.38C414.845 215.916 414.653 216.34 414.269 216.652C413.893 216.964 413.385 217.12 412.745 217.12ZM418.658 217.12C418.098 217.12 417.59 216.988 417.134 216.724C416.686 216.46 416.33 216.104 416.066 215.656C415.81 215.2 415.682 214.696 415.682 214.144C415.682 213.584 415.81 213.08 416.066 212.632C416.33 212.184 416.686 211.832 417.134 211.576C417.59 211.312 418.098 211.18 418.658 211.18C419.098 211.18 419.506 211.264 419.882 211.432C420.258 211.592 420.582 211.828 420.854 212.14L420.134 212.86C419.958 212.652 419.742 212.496 419.486 212.392C419.238 212.28 418.962 212.224 418.658 212.224C418.298 212.224 417.978 212.308 417.698 212.476C417.418 212.636 417.198 212.86 417.038 213.148C416.878 213.436 416.798 213.768 416.798 214.144C416.798 214.52 416.878 214.852 417.038 215.14C417.198 215.428 417.418 215.656 417.698 215.824C417.978 215.992 418.298 216.076 418.658 216.076C418.962 216.076 419.238 216.024 419.486 215.92C419.742 215.808 419.962 215.648 420.146 215.44L420.854 216.16C420.59 216.464 420.266 216.7 419.882 216.868C419.506 217.036 419.098 217.12 418.658 217.12ZM421.937 217V211.3H423.017V217H421.937ZM422.477 210.16C422.277 210.16 422.113 210.096 421.985 209.968C421.857 209.832 421.793 209.664 421.793 209.464C421.793 209.272 421.857 209.112 421.985 208.984C422.113 208.848 422.277 208.78 422.477 208.78C422.677 208.78 422.841 208.848 422.969 208.984C423.097 209.112 423.161 209.272 423.161 209.464C423.161 209.664 423.097 209.832 422.969 209.968C422.841 210.096 422.677 210.16 422.477 210.16ZM427.608 217.12C427.176 217.12 426.784 217.032 426.432 216.856C426.088 216.672 425.812 216.42 425.604 216.1C425.396 215.78 425.28 215.416 425.256 215.008V213.292C425.28 212.876 425.396 212.512 425.604 212.2C425.82 211.88 426.1 211.632 426.444 211.456C426.796 211.272 427.184 211.18 427.608 211.18C428.128 211.18 428.596 211.312 429.012 211.576C429.436 211.84 429.768 212.196 430.008 212.644C430.248 213.092 430.368 213.596 430.368 214.156C430.368 214.716 430.248 215.22 430.008 215.668C429.768 216.116 429.436 216.472 429.012 216.736C428.596 216.992 428.128 217.12 427.608 217.12ZM424.608 219.388V211.3H425.688V212.8L425.484 214.18L425.688 215.572V219.388H424.608ZM427.428 216.1C427.788 216.1 428.104 216.016 428.376 215.848C428.648 215.68 428.864 215.452 429.024 215.164C429.184 214.868 429.264 214.528 429.264 214.144C429.264 213.768 429.184 213.432 429.024 213.136C428.864 212.84 428.648 212.612 428.376 212.452C428.104 212.284 427.792 212.2 427.44 212.2C427.08 212.2 426.764 212.284 426.492 212.452C426.22 212.612 426.008 212.84 425.856 213.136C425.704 213.432 425.628 213.772 425.628 214.156C425.628 214.532 425.7 214.868 425.844 215.164C425.996 215.452 426.208 215.68 426.48 215.848C426.76 216.016 427.076 216.1 427.428 216.1ZM431.593 217V208.432H432.673V217H431.593ZM434.265 217V211.3H435.345V217H434.265ZM434.805 210.16C434.605 210.16 434.441 210.096 434.313 209.968C434.185 209.832 434.121 209.664 434.121 209.464C434.121 209.272 434.185 209.112 434.313 208.984C434.441 208.848 434.605 208.78 434.805 208.78C435.005 208.78 435.169 208.848 435.297 208.984C435.425 209.112 435.489 209.272 435.489 209.464C435.489 209.664 435.425 209.832 435.297 209.968C435.169 210.096 435.005 210.16 434.805 210.16ZM440.969 217V213.676C440.969 213.244 440.833 212.888 440.561 212.608C440.289 212.328 439.937 212.188 439.505 212.188C439.217 212.188 438.961 212.252 438.737 212.38C438.513 212.508 438.337 212.684 438.209 212.908C438.081 213.132 438.017 213.388 438.017 213.676L437.573 213.424C437.573 212.992 437.669 212.608 437.861 212.272C438.053 211.936 438.321 211.672 438.665 211.48C439.009 211.28 439.397 211.18 439.829 211.18C440.261 211.18 440.641 211.288 440.969 211.504C441.305 211.72 441.569 212.004 441.761 212.356C441.953 212.7 442.049 213.068 442.049 213.46V217H440.969ZM436.937 217V211.3H438.017V217H436.937ZM446.151 217.12C445.583 217.12 445.071 216.992 444.615 216.736C444.159 216.472 443.799 216.116 443.535 215.668C443.271 215.22 443.139 214.712 443.139 214.144C443.139 213.584 443.267 213.08 443.523 212.632C443.787 212.184 444.139 211.832 444.579 211.576C445.027 211.312 445.527 211.18 446.079 211.18C446.607 211.18 447.071 211.3 447.471 211.54C447.879 211.78 448.195 212.112 448.419 212.536C448.651 212.96 448.767 213.44 448.767 213.976C448.767 214.056 448.763 214.144 448.755 214.24C448.747 214.328 448.731 214.432 448.707 214.552H443.895V213.652H448.131L447.735 214C447.735 213.616 447.667 213.292 447.531 213.028C447.395 212.756 447.203 212.548 446.955 212.404C446.707 212.252 446.407 212.176 446.055 212.176C445.687 212.176 445.363 212.256 445.083 212.416C444.803 212.576 444.587 212.8 444.435 213.088C444.283 213.376 444.207 213.716 444.207 214.108C444.207 214.508 444.287 214.86 444.447 215.164C444.607 215.46 444.835 215.692 445.131 215.86C445.427 216.02 445.767 216.1 446.151 216.1C446.471 216.1 446.763 216.044 447.027 215.932C447.299 215.82 447.531 215.652 447.723 215.428L448.419 216.136C448.147 216.456 447.811 216.7 447.411 216.868C447.019 217.036 446.599 217.12 446.151 217.12ZM451.756 217.12C451.436 217.12 451.132 217.08 450.844 217C450.564 216.912 450.304 216.792 450.064 216.64C449.824 216.48 449.616 216.292 449.44 216.076L450.136 215.38C450.344 215.636 450.584 215.828 450.856 215.956C451.128 216.076 451.432 216.136 451.768 216.136C452.104 216.136 452.364 216.08 452.548 215.968C452.732 215.848 452.824 215.684 452.824 215.476C452.824 215.268 452.748 215.108 452.596 214.996C452.452 214.876 452.264 214.78 452.032 214.708C451.8 214.628 451.552 214.552 451.288 214.48C451.032 214.4 450.788 214.3 450.556 214.18C450.324 214.06 450.132 213.896 449.98 213.688C449.836 213.48 449.764 213.204 449.764 212.86C449.764 212.516 449.848 212.22 450.016 211.972C450.184 211.716 450.416 211.52 450.712 211.384C451.016 211.248 451.38 211.18 451.804 211.18C452.252 211.18 452.648 211.26 452.992 211.42C453.344 211.572 453.632 211.804 453.856 212.116L453.16 212.812C453 212.604 452.8 212.444 452.56 212.332C452.328 212.22 452.064 212.164 451.768 212.164C451.456 212.164 451.216 212.22 451.048 212.332C450.888 212.436 450.808 212.584 450.808 212.776C450.808 212.968 450.88 213.116 451.024 213.22C451.168 213.324 451.356 213.412 451.588 213.484C451.828 213.556 452.076 213.632 452.332 213.712C452.588 213.784 452.832 213.884 453.064 214.012C453.296 214.14 453.484 214.312 453.628 214.528C453.78 214.744 453.856 215.028 453.856 215.38C453.856 215.916 453.664 216.34 453.28 216.652C452.904 216.964 452.396 217.12 451.756 217.12ZM240.716 235.12C240.196 235.12 239.724 234.992 239.3 234.736C238.876 234.472 238.54 234.116 238.292 233.668C238.052 233.22 237.932 232.716 237.932 232.156C237.932 231.596 238.052 231.092 238.292 230.644C238.54 230.196 238.872 229.84 239.288 229.576C239.712 229.312 240.188 229.18 240.716 229.18C241.148 229.18 241.532 229.272 241.868 229.456C242.212 229.632 242.488 229.88 242.696 230.2C242.904 230.512 243.02 230.876 243.044 231.292V233.008C243.02 233.416 242.904 233.78 242.696 234.1C242.496 234.42 242.224 234.672 241.88 234.856C241.544 235.032 241.156 235.12 240.716 235.12ZM240.896 234.1C241.432 234.1 241.864 233.92 242.192 233.56C242.52 233.192 242.684 232.724 242.684 232.156C242.684 231.764 242.608 231.424 242.456 231.136C242.312 230.84 242.104 230.612 241.832 230.452C241.56 230.284 241.244 230.2 240.884 230.2C240.524 230.2 240.204 230.284 239.924 230.452C239.652 230.62 239.436 230.852 239.276 231.148C239.124 231.436 239.048 231.768 239.048 232.144C239.048 232.528 239.124 232.868 239.276 233.164C239.436 233.452 239.656 233.68 239.936 233.848C240.216 234.016 240.536 234.1 240.896 234.1ZM242.612 235V233.464L242.816 232.072L242.612 230.692V229.3H243.704V235H242.612ZM247.232 235L244.616 229.3H245.816L247.916 234.112H247.22L249.332 229.3H250.484L247.868 235H247.232ZM253.607 235.12C253.087 235.12 252.615 234.992 252.191 234.736C251.767 234.472 251.431 234.116 251.183 233.668C250.943 233.22 250.823 232.716 250.823 232.156C250.823 231.596 250.943 231.092 251.183 230.644C251.431 230.196 251.763 229.84 252.179 229.576C252.603 229.312 253.079 229.18 253.607 229.18C254.039 229.18 254.423 229.272 254.759 229.456C255.103 229.632 255.379 229.88 255.587 230.2C255.795 230.512 255.911 230.876 255.935 231.292V233.008C255.911 233.416 255.795 233.78 255.587 234.1C255.387 234.42 255.115 234.672 254.771 234.856C254.435 235.032 254.047 235.12 253.607 235.12ZM253.787 234.1C254.323 234.1 254.755 233.92 255.083 233.56C255.411 233.192 255.575 232.724 255.575 232.156C255.575 231.764 255.499 231.424 255.347 231.136C255.203 230.84 254.995 230.612 254.723 230.452C254.451 230.284 254.135 230.2 253.775 230.2C253.415 230.2 253.095 230.284 252.815 230.452C252.543 230.62 252.327 230.852 252.167 231.148C252.015 231.436 251.939 231.768 251.939 232.144C251.939 232.528 252.015 232.868 252.167 233.164C252.327 233.452 252.547 233.68 252.827 233.848C253.107 234.016 253.427 234.1 253.787 234.1ZM255.503 235V233.464L255.707 232.072L255.503 230.692V229.3H256.595V235H255.503ZM258.179 235V229.3H259.259V235H258.179ZM258.719 228.16C258.519 228.16 258.355 228.096 258.227 227.968C258.099 227.832 258.035 227.664 258.035 227.464C258.035 227.272 258.099 227.112 258.227 226.984C258.355 226.848 258.519 226.78 258.719 226.78C258.919 226.78 259.083 226.848 259.211 226.984C259.339 227.112 259.403 227.272 259.403 227.464C259.403 227.664 259.339 227.832 259.211 227.968C259.083 228.096 258.919 228.16 258.719 228.16ZM260.851 235V226.432H261.931V235H260.851ZM265.935 235.12C265.415 235.12 264.943 234.992 264.519 234.736C264.095 234.472 263.759 234.116 263.511 233.668C263.271 233.22 263.151 232.716 263.151 232.156C263.151 231.596 263.271 231.092 263.511 230.644C263.759 230.196 264.091 229.84 264.507 229.576C264.931 229.312 265.407 229.18 265.935 229.18C266.367 229.18 266.751 229.272 267.087 229.456C267.431 229.632 267.707 229.88 267.915 230.2C268.123 230.512 268.239 230.876 268.263 231.292V233.008C268.239 233.416 268.123 233.78 267.915 234.1C267.715 234.42 267.443 234.672 267.099 234.856C266.763 235.032 266.375 235.12 265.935 235.12ZM266.115 234.1C266.651 234.1 267.083 233.92 267.411 233.56C267.739 233.192 267.903 232.724 267.903 232.156C267.903 231.764 267.827 231.424 267.675 231.136C267.531 230.84 267.323 230.612 267.051 230.452C266.779 230.284 266.463 230.2 266.103 230.2C265.743 230.2 265.423 230.284 265.143 230.452C264.871 230.62 264.655 230.852 264.495 231.148C264.343 231.436 264.267 231.768 264.267 232.144C264.267 232.528 264.343 232.868 264.495 233.164C264.655 233.452 264.875 233.68 265.155 233.848C265.435 234.016 265.755 234.1 266.115 234.1ZM267.831 235V233.464L268.035 232.072L267.831 230.692V229.3H268.923V235H267.831ZM273.495 235.12C273.063 235.12 272.671 235.032 272.319 234.856C271.975 234.672 271.699 234.42 271.491 234.1C271.283 233.78 271.167 233.416 271.143 233.008V231.292C271.167 230.876 271.283 230.512 271.491 230.2C271.707 229.88 271.987 229.632 272.331 229.456C272.683 229.272 273.071 229.18 273.495 229.18C274.015 229.18 274.483 229.312 274.899 229.576C275.323 229.84 275.655 230.196 275.895 230.644C276.135 231.092 276.255 231.596 276.255 232.156C276.255 232.716 276.135 233.22 275.895 233.668C275.655 234.116 275.323 234.472 274.899 234.736C274.483 234.992 274.015 235.12 273.495 235.12ZM270.495 235V226.432H271.575V230.692L271.371 232.072L271.575 233.464V235H270.495ZM273.315 234.1C273.675 234.1 273.991 234.016 274.263 233.848C274.535 233.68 274.751 233.452 274.911 233.164C275.071 232.868 275.151 232.528 275.151 232.144C275.151 231.768 275.071 231.432 274.911 231.136C274.751 230.84 274.535 230.612 274.263 230.452C273.991 230.284 273.679 230.2 273.327 230.2C272.967 230.2 272.651 230.284 272.379 230.452C272.107 230.612 271.895 230.84 271.743 231.136C271.591 231.432 271.515 231.772 271.515 232.156C271.515 232.532 271.587 232.868 271.731 233.164C271.883 233.452 272.095 233.68 272.367 233.848C272.647 234.016 272.963 234.1 273.315 234.1ZM277.479 235V226.432H278.56V235H277.479ZM282.78 235.12C282.212 235.12 281.7 234.992 281.244 234.736C280.788 234.472 280.428 234.116 280.164 233.668C279.9 233.22 279.768 232.712 279.768 232.144C279.768 231.584 279.896 231.08 280.152 230.632C280.416 230.184 280.768 229.832 281.208 229.576C281.656 229.312 282.156 229.18 282.708 229.18C283.236 229.18 283.7 229.3 284.1 229.54C284.508 229.78 284.824 230.112 285.048 230.536C285.28 230.96 285.396 231.44 285.396 231.976C285.396 232.056 285.392 232.144 285.384 232.24C285.376 232.328 285.36 232.432 285.336 232.552H280.524V231.652H284.76L284.364 232C284.364 231.616 284.296 231.292 284.16 231.028C284.024 230.756 283.832 230.548 283.584 230.404C283.336 230.252 283.036 230.176 282.684 230.176C282.316 230.176 281.992 230.256 281.712 230.416C281.432 230.576 281.216 230.8 281.064 231.088C280.912 231.376 280.836 231.716 280.836 232.108C280.836 232.508 280.916 232.86 281.076 233.164C281.236 233.46 281.464 233.692 281.76 233.86C282.056 234.02 282.396 234.1 282.78 234.1C283.1 234.1 283.392 234.044 283.656 233.932C283.928 233.82 284.16 233.652 284.352 233.428L285.048 234.136C284.776 234.456 284.44 234.7 284.04 234.868C283.648 235.036 283.228 235.12 282.78 235.12ZM291.493 235.12C290.973 235.12 290.501 234.992 290.077 234.736C289.653 234.472 289.317 234.116 289.069 233.668C288.829 233.22 288.709 232.716 288.709 232.156C288.709 231.596 288.829 231.092 289.069 230.644C289.317 230.196 289.649 229.84 290.065 229.576C290.489 229.312 290.965 229.18 291.493 229.18C291.925 229.18 292.309 229.272 292.645 229.456C292.989 229.632 293.265 229.88 293.473 230.2C293.681 230.512 293.797 230.876 293.821 231.292V233.008C293.797 233.416 293.681 233.78 293.473 234.1C293.273 234.42 293.001 234.672 292.657 234.856C292.321 235.032 291.933 235.12 291.493 235.12ZM291.673 234.1C292.209 234.1 292.641 233.92 292.969 233.56C293.297 233.192 293.461 232.724 293.461 232.156C293.461 231.764 293.385 231.424 293.233 231.136C293.089 230.84 292.881 230.612 292.609 230.452C292.337 230.284 292.021 230.2 291.661 230.2C291.301 230.2 290.981 230.284 290.701 230.452C290.429 230.62 290.213 230.852 290.053 231.148C289.901 231.436 289.825 231.768 289.825 232.144C289.825 232.528 289.901 232.868 290.053 233.164C290.213 233.452 290.433 233.68 290.713 233.848C290.993 234.016 291.313 234.1 291.673 234.1ZM293.389 235V233.464L293.593 232.072L293.389 230.692V229.3H294.481V235H293.389ZM296.906 235V226.912H297.986V235H296.906ZM295.502 230.284V229.3H299.39V230.284H295.502ZM305.548 235.12C304.988 235.12 304.484 234.988 304.036 234.724C303.588 234.46 303.232 234.104 302.968 233.656C302.704 233.2 302.572 232.692 302.572 232.132C302.572 231.58 302.704 231.084 302.968 230.644C303.232 230.196 303.588 229.84 304.036 229.576C304.484 229.312 304.988 229.18 305.548 229.18C306.1 229.18 306.6 229.312 307.048 229.576C307.504 229.832 307.864 230.184 308.128 230.632C308.392 231.08 308.524 231.58 308.524 232.132C308.524 232.692 308.392 233.2 308.128 233.656C307.864 234.104 307.504 234.46 307.048 234.724C306.6 234.988 306.1 235.12 305.548 235.12ZM305.548 234.076C305.908 234.076 306.228 233.992 306.508 233.824C306.788 233.656 307.008 233.428 307.168 233.14C307.328 232.844 307.408 232.508 307.408 232.132C307.408 231.764 307.324 231.436 307.156 231.148C306.996 230.86 306.776 230.636 306.496 230.476C306.224 230.308 305.908 230.224 305.548 230.224C305.188 230.224 304.868 230.308 304.588 230.476C304.308 230.636 304.088 230.86 303.928 231.148C303.768 231.436 303.688 231.764 303.688 232.132C303.688 232.508 303.768 232.844 303.928 233.14C304.088 233.428 304.308 233.656 304.588 233.824C304.868 233.992 305.188 234.076 305.548 234.076ZM312.033 235.12C311.569 235.12 311.149 235.016 310.773 234.808C310.405 234.592 310.117 234.296 309.909 233.92C309.701 233.544 309.597 233.108 309.597 232.612V229.3H310.677V232.564C310.677 232.876 310.729 233.148 310.833 233.38C310.945 233.604 311.105 233.776 311.313 233.896C311.521 234.016 311.765 234.076 312.045 234.076C312.469 234.076 312.801 233.944 313.041 233.68C313.281 233.408 313.401 233.036 313.401 232.564V229.3H314.481V232.612C314.481 233.108 314.377 233.544 314.169 233.92C313.961 234.296 313.673 234.592 313.305 234.808C312.945 235.016 312.521 235.12 312.033 235.12ZM315.929 235V229.3H317.009V235H315.929ZM317.009 231.748L316.601 231.568C316.601 230.84 316.769 230.26 317.105 229.828C317.441 229.396 317.925 229.18 318.557 229.18C318.845 229.18 319.105 229.232 319.337 229.336C319.569 229.432 319.785 229.596 319.985 229.828L319.277 230.56C319.157 230.432 319.025 230.34 318.881 230.284C318.737 230.228 318.569 230.2 318.377 230.2C317.977 230.2 317.649 230.328 317.393 230.584C317.137 230.84 317.009 231.228 317.009 231.748ZM325.744 235.12C325.28 235.12 324.86 235.016 324.484 234.808C324.116 234.592 323.828 234.296 323.62 233.92C323.412 233.544 323.308 233.108 323.308 232.612V229.3H324.388V232.564C324.388 232.876 324.44 233.148 324.544 233.38C324.656 233.604 324.816 233.776 325.024 233.896C325.232 234.016 325.476 234.076 325.756 234.076C326.18 234.076 326.512 233.944 326.752 233.68C326.992 233.408 327.112 233.036 327.112 232.564V229.3H328.192V232.612C328.192 233.108 328.088 233.544 327.88 233.92C327.672 234.296 327.384 234.592 327.016 234.808C326.656 235.016 326.232 235.12 325.744 235.12ZM333.672 235V231.676C333.672 231.244 333.536 230.888 333.264 230.608C332.992 230.328 332.64 230.188 332.208 230.188C331.92 230.188 331.664 230.252 331.44 230.38C331.216 230.508 331.04 230.684 330.912 230.908C330.784 231.132 330.72 231.388 330.72 231.676L330.276 231.424C330.276 230.992 330.372 230.608 330.564 230.272C330.756 229.936 331.024 229.672 331.368 229.48C331.712 229.28 332.1 229.18 332.532 229.18C332.964 229.18 333.344 229.288 333.672 229.504C334.008 229.72 334.272 230.004 334.464 230.356C334.656 230.7 334.752 231.068 334.752 231.46V235H333.672ZM329.64 235V229.3H330.72V235H329.64ZM336.226 235V229.3H337.306V235H336.226ZM336.766 228.16C336.566 228.16 336.402 228.096 336.274 227.968C336.146 227.832 336.082 227.664 336.082 227.464C336.082 227.272 336.146 227.112 336.274 226.984C336.402 226.848 336.566 226.78 336.766 226.78C336.966 226.78 337.13 226.848 337.258 226.984C337.386 227.112 337.45 227.272 337.45 227.464C337.45 227.664 337.386 227.832 337.258 227.968C337.13 228.096 336.966 228.16 336.766 228.16ZM340.853 235L338.237 229.3H339.437L341.537 234.112H340.841L342.953 229.3H344.105L341.489 235H340.853ZM347.444 235.12C346.876 235.12 346.364 234.992 345.908 234.736C345.452 234.472 345.092 234.116 344.828 233.668C344.564 233.22 344.432 232.712 344.432 232.144C344.432 231.584 344.56 231.08 344.816 230.632C345.08 230.184 345.432 229.832 345.872 229.576C346.32 229.312 346.82 229.18 347.372 229.18C347.9 229.18 348.364 229.3 348.764 229.54C349.172 229.78 349.488 230.112 349.712 230.536C349.944 230.96 350.06 231.44 350.06 231.976C350.06 232.056 350.056 232.144 350.048 232.24C350.04 232.328 350.024 232.432 350 232.552H345.188V231.652H349.424L349.028 232C349.028 231.616 348.96 231.292 348.824 231.028C348.688 230.756 348.496 230.548 348.248 230.404C348 230.252 347.7 230.176 347.348 230.176C346.98 230.176 346.656 230.256 346.376 230.416C346.096 230.576 345.88 230.8 345.728 231.088C345.576 231.376 345.5 231.716 345.5 232.108C345.5 232.508 345.58 232.86 345.74 233.164C345.9 233.46 346.128 233.692 346.424 233.86C346.72 234.02 347.06 234.1 347.444 234.1C347.764 234.1 348.056 234.044 348.32 233.932C348.592 233.82 348.824 233.652 349.016 233.428L349.712 234.136C349.44 234.456 349.104 234.7 348.704 234.868C348.312 235.036 347.892 235.12 347.444 235.12ZM351.237 235V229.3H352.317V235H351.237ZM352.317 231.748L351.909 231.568C351.909 230.84 352.077 230.26 352.413 229.828C352.749 229.396 353.233 229.18 353.865 229.18C354.153 229.18 354.413 229.232 354.645 229.336C354.877 229.432 355.093 229.596 355.293 229.828L354.585 230.56C354.465 230.432 354.333 230.34 354.189 230.284C354.045 230.228 353.877 230.2 353.685 230.2C353.285 230.2 352.957 230.328 352.701 230.584C352.445 230.84 352.317 231.228 352.317 231.748ZM357.737 235.12C357.417 235.12 357.113 235.08 356.825 235C356.545 234.912 356.285 234.792 356.045 234.64C355.805 234.48 355.597 234.292 355.421 234.076L356.117 233.38C356.325 233.636 356.565 233.828 356.837 233.956C357.109 234.076 357.413 234.136 357.749 234.136C358.085 234.136 358.345 234.08 358.529 233.968C358.713 233.848 358.805 233.684 358.805 233.476C358.805 233.268 358.729 233.108 358.577 232.996C358.433 232.876 358.245 232.78 358.013 232.708C357.781 232.628 357.533 232.552 357.269 232.48C357.013 232.4 356.769 232.3 356.537 232.18C356.305 232.06 356.113 231.896 355.961 231.688C355.817 231.48 355.745 231.204 355.745 230.86C355.745 230.516 355.829 230.22 355.997 229.972C356.165 229.716 356.397 229.52 356.693 229.384C356.997 229.248 357.361 229.18 357.785 229.18C358.233 229.18 358.629 229.26 358.973 229.42C359.325 229.572 359.613 229.804 359.837 230.116L359.141 230.812C358.981 230.604 358.781 230.444 358.541 230.332C358.309 230.22 358.045 230.164 357.749 230.164C357.437 230.164 357.197 230.22 357.029 230.332C356.869 230.436 356.789 230.584 356.789 230.776C356.789 230.968 356.861 231.116 357.005 231.22C357.149 231.324 357.337 231.412 357.569 231.484C357.809 231.556 358.057 231.632 358.313 231.712C358.569 231.784 358.813 231.884 359.045 232.012C359.277 232.14 359.465 232.312 359.609 232.528C359.761 232.744 359.837 233.028 359.837 233.38C359.837 233.916 359.645 234.34 359.261 234.652C358.885 234.964 358.377 235.12 357.737 235.12ZM361.058 235V229.3H362.138V235H361.058ZM361.598 228.16C361.398 228.16 361.234 228.096 361.106 227.968C360.978 227.832 360.914 227.664 360.914 227.464C360.914 227.272 360.978 227.112 361.106 226.984C361.234 226.848 361.398 226.78 361.598 226.78C361.798 226.78 361.962 226.848 362.09 226.984C362.218 227.112 362.282 227.272 362.282 227.464C362.282 227.664 362.218 227.832 362.09 227.968C361.962 228.096 361.798 228.16 361.598 228.16ZM364.606 235V226.912H365.686V235H364.606ZM363.202 230.284V229.3H367.09V230.284H363.202ZM370.019 235.048L367.547 229.3H368.747L370.583 233.8H370.199L372.131 229.3H373.331L370.667 235.048H370.019ZM368.387 237.388L370.067 233.944L370.667 235.048L369.587 237.388H368.387ZM374.439 235.12C374.215 235.12 374.027 235.044 373.875 234.892C373.731 234.732 373.659 234.544 373.659 234.328C373.659 234.104 373.731 233.92 373.875 233.776C374.027 233.624 374.215 233.548 374.439 233.548C374.663 233.548 374.847 233.624 374.991 233.776C375.143 233.92 375.219 234.104 375.219 234.328C375.219 234.544 375.143 234.732 374.991 234.892C374.847 235.044 374.663 235.12 374.439 235.12Z" fill="#646A77"/>
<path d="M502.875 207.75C502.875 208.048 502.756 208.335 502.545 208.545C502.335 208.756 502.048 208.875 501.75 208.875C501.452 208.875 501.165 208.756 500.955 208.545C500.744 208.335 500.625 208.048 500.625 207.75V204.469L495.046 210.048C494.835 210.259 494.548 210.378 494.249 210.378C493.95 210.378 493.664 210.259 493.452 210.048C493.241 209.836 493.122 209.55 493.122 209.251C493.122 208.952 493.241 208.665 493.452 208.454L499.031 202.875H495.75C495.452 202.875 495.165 202.756 494.955 202.545C494.744 202.335 494.625 202.048 494.625 201.75C494.625 201.452 494.744 201.165 494.955 200.955C495.165 200.744 495.452 200.625 495.75 200.625H501.75C502.048 200.625 502.335 200.744 502.545 200.955C502.756 201.165 502.875 201.452 502.875 201.75V207.75ZM498.75 210C498.452 210 498.165 210.119 497.955 210.33C497.744 210.54 497.625 210.827 497.625 211.125V217.125H486.375V205.875H492.375C492.673 205.875 492.96 205.756 493.17 205.545C493.381 205.335 493.5 205.048 493.5 204.75C493.5 204.452 493.381 204.165 493.17 203.955C492.96 203.744 492.673 203.625 492.375 203.625H486C485.503 203.625 485.026 203.823 484.674 204.174C484.323 204.526 484.125 205.003 484.125 205.5V217.5C484.125 217.997 484.323 218.474 484.674 218.826C485.026 219.177 485.503 219.375 486 219.375H498C498.497 219.375 498.974 219.177 499.326 218.826C499.677 218.474 499.875 217.997 499.875 217.5V211.125C499.875 210.827 499.756 210.54 499.545 210.33C499.335 210.119 499.048 210 498.75 210Z" fill="#4F46E5"/>
</svg>
