<svg width="683" height="420" viewBox="0 0 683 420" fill="none" xmlns="http://www.w3.org/2000/svg">
<rect width="683" height="420" fill="#E7E8EB"/>
<path d="M165.5 99C165.5 87.6863 165.5 82.0294 169.015 78.5147C172.529 75 178.186 75 189.5 75H221.5V133H189.5C178.186 133 172.529 133 169.015 129.485C165.5 125.971 165.5 120.314 165.5 109V99Z" fill="#4F46E5"/>
<path d="M204 111.125H202.875V101C202.875 100.503 202.677 100.026 202.326 99.6742C201.974 99.3226 201.497 99.1251 201 99.1251H197.625V95.0001C197.625 94.6849 197.545 94.3748 197.394 94.0985C197.242 93.8222 197.023 93.5886 196.757 93.4193C196.491 93.2499 196.187 93.1504 195.873 93.1297C195.558 93.1091 195.243 93.1681 194.958 93.3013L185.208 97.8519C184.885 98.0033 184.611 98.2435 184.42 98.5445C184.228 98.8455 184.126 99.1948 184.125 99.5516V111.125H183C182.702 111.125 182.415 111.244 182.205 111.455C181.994 111.666 181.875 111.952 181.875 112.25C181.875 112.548 181.994 112.835 182.205 113.046C182.415 113.257 182.702 113.375 183 113.375H204C204.298 113.375 204.585 113.257 204.795 113.046C205.006 112.835 205.125 112.548 205.125 112.25C205.125 111.952 205.006 111.666 204.795 111.455C204.585 111.244 204.298 111.125 204 111.125ZM200.625 101.375V111.125H197.625V101.375H200.625ZM186.375 99.7897L195.375 95.5907V111.125H186.375V99.7897ZM193.875 102.5V103.625C193.875 103.923 193.756 104.21 193.545 104.421C193.335 104.632 193.048 104.75 192.75 104.75C192.452 104.75 192.165 104.632 191.955 104.421C191.744 104.21 191.625 103.923 191.625 103.625V102.5C191.625 102.202 191.744 101.916 191.955 101.705C192.165 101.494 192.452 101.375 192.75 101.375C193.048 101.375 193.335 101.494 193.545 101.705C193.756 101.916 193.875 102.202 193.875 102.5ZM190.125 102.5V103.625C190.125 103.923 190.006 104.21 189.795 104.421C189.585 104.632 189.298 104.75 189 104.75C188.702 104.75 188.415 104.632 188.205 104.421C187.994 104.21 187.875 103.923 187.875 103.625V102.5C187.875 102.202 187.994 101.916 188.205 101.705C188.415 101.494 188.702 101.375 189 101.375C189.298 101.375 189.585 101.494 189.795 101.705C190.006 101.916 190.125 102.202 190.125 102.5ZM190.125 107.375V108.5C190.125 108.798 190.006 109.085 189.795 109.296C189.585 109.507 189.298 109.625 189 109.625C188.702 109.625 188.415 109.507 188.205 109.296C187.994 109.085 187.875 108.798 187.875 108.5V107.375C187.875 107.077 187.994 106.791 188.205 106.58C188.415 106.369 188.702 106.25 189 106.25C189.298 106.25 189.585 106.369 189.795 106.58C190.006 106.791 190.125 107.077 190.125 107.375ZM193.875 107.375V108.5C193.875 108.798 193.756 109.085 193.545 109.296C193.335 109.507 193.048 109.625 192.75 109.625C192.452 109.625 192.165 109.507 191.955 109.296C191.744 109.085 191.625 108.798 191.625 108.5V107.375C191.625 107.077 191.744 106.791 191.955 106.58C192.165 106.369 192.452 106.25 192.75 106.25C193.048 106.25 193.335 106.369 193.545 106.58C193.756 106.791 193.875 107.077 193.875 107.375Z" fill="#F6F6F8"/>
<path d="M221.5 75H493.5C504.814 75 510.471 75 513.985 78.5147C517.5 82.0294 517.5 87.6863 517.5 99V109C517.5 120.314 517.5 125.971 513.985 129.485C510.471 133 504.814 133 493.5 133H221.5V75Z" fill="white"/>
<path d="M241.532 101V90.12H243.372V101H241.532ZM237.884 91.48V89.8H247.02V91.48H237.884ZM248.398 101V93.32H250.158V101H248.398ZM249.278 91.912C248.98 91.912 248.729 91.8107 248.526 91.608C248.334 91.4053 248.238 91.1547 248.238 90.856C248.238 90.5573 248.334 90.3067 248.526 90.104C248.729 89.9013 248.98 89.8 249.278 89.8C249.588 89.8 249.838 89.9013 250.03 90.104C250.222 90.3067 250.318 90.5573 250.318 90.856C250.318 91.1547 250.222 91.4053 250.03 91.608C249.838 91.8107 249.588 91.912 249.278 91.912ZM253.3 101V90.12H255.06V101H253.3ZM251.46 94.92V93.32H256.9V94.92H251.46ZM258.179 101V89.48H259.939V101H258.179ZM265.466 101.16C264.698 101.16 264.005 100.989 263.386 100.648C262.778 100.296 262.293 99.816 261.93 99.208C261.578 98.6 261.402 97.9173 261.402 97.16C261.402 96.4027 261.578 95.7253 261.93 95.128C262.282 94.52 262.757 94.04 263.354 93.688C263.962 93.336 264.634 93.16 265.37 93.16C266.085 93.16 266.714 93.3253 267.258 93.656C267.813 93.9867 268.245 94.44 268.554 95.016C268.874 95.592 269.034 96.248 269.034 96.984C269.034 97.112 269.023 97.2453 269.002 97.384C268.991 97.512 268.97 97.656 268.938 97.816H262.634V96.376H268.026L267.37 96.952C267.349 96.4827 267.258 96.088 267.098 95.768C266.938 95.448 266.709 95.2027 266.41 95.032C266.122 94.8613 265.765 94.776 265.338 94.776C264.89 94.776 264.501 94.872 264.17 95.064C263.839 95.256 263.583 95.528 263.402 95.88C263.221 96.2213 263.13 96.632 263.13 97.112C263.13 97.592 263.226 98.0133 263.418 98.376C263.61 98.7387 263.882 99.0213 264.234 99.224C264.586 99.416 264.991 99.512 265.45 99.512C265.845 99.512 266.207 99.4427 266.538 99.304C266.879 99.1653 267.167 98.9627 267.402 98.696L268.522 99.832C268.149 100.269 267.695 100.6 267.162 100.824C266.629 101.048 266.063 101.16 265.466 101.16Z" fill="#2A2C35"/>
<path d="M239.228 120V118.968H241.544C242.16 118.968 242.7 118.836 243.164 118.572C243.628 118.3 243.988 117.928 244.244 117.456C244.508 116.984 244.64 116.44 244.64 115.824C244.64 115.216 244.508 114.676 244.244 114.204C243.98 113.732 243.616 113.364 243.152 113.1C242.688 112.836 242.152 112.704 241.544 112.704H239.24V111.672H241.568C242.176 111.672 242.736 111.776 243.248 111.984C243.768 112.192 244.216 112.484 244.592 112.86C244.976 113.236 245.272 113.676 245.48 114.18C245.696 114.684 245.804 115.236 245.804 115.836C245.804 116.428 245.696 116.98 245.48 117.492C245.272 117.996 244.98 118.436 244.604 118.812C244.228 119.188 243.78 119.48 243.26 119.688C242.748 119.896 242.192 120 241.592 120H239.228ZM238.484 120V111.672H239.612V120H238.484ZM249.815 120.12C249.247 120.12 248.735 119.992 248.279 119.736C247.823 119.472 247.463 119.116 247.199 118.668C246.935 118.22 246.803 117.712 246.803 117.144C246.803 116.584 246.931 116.08 247.187 115.632C247.451 115.184 247.803 114.832 248.243 114.576C248.691 114.312 249.191 114.18 249.743 114.18C250.271 114.18 250.735 114.3 251.135 114.54C251.543 114.78 251.859 115.112 252.083 115.536C252.315 115.96 252.431 116.44 252.431 116.976C252.431 117.056 252.427 117.144 252.419 117.24C252.411 117.328 252.395 117.432 252.371 117.552H247.559V116.652H251.795L251.399 117C251.399 116.616 251.331 116.292 251.195 116.028C251.059 115.756 250.867 115.548 250.619 115.404C250.371 115.252 250.071 115.176 249.719 115.176C249.351 115.176 249.027 115.256 248.747 115.416C248.467 115.576 248.251 115.8 248.099 116.088C247.947 116.376 247.871 116.716 247.871 117.108C247.871 117.508 247.951 117.86 248.111 118.164C248.271 118.46 248.499 118.692 248.795 118.86C249.091 119.02 249.431 119.1 249.815 119.1C250.135 119.1 250.427 119.044 250.691 118.932C250.963 118.82 251.195 118.652 251.387 118.428L252.083 119.136C251.811 119.456 251.475 119.7 251.075 119.868C250.683 120.036 250.263 120.12 249.815 120.12ZM255.42 120.12C255.1 120.12 254.796 120.08 254.508 120C254.228 119.912 253.968 119.792 253.728 119.64C253.488 119.48 253.28 119.292 253.104 119.076L253.8 118.38C254.008 118.636 254.248 118.828 254.52 118.956C254.792 119.076 255.096 119.136 255.432 119.136C255.768 119.136 256.028 119.08 256.212 118.968C256.396 118.848 256.488 118.684 256.488 118.476C256.488 118.268 256.412 118.108 256.26 117.996C256.116 117.876 255.928 117.78 255.696 117.708C255.464 117.628 255.216 117.552 254.952 117.48C254.696 117.4 254.452 117.3 254.22 117.18C253.988 117.06 253.796 116.896 253.644 116.688C253.5 116.48 253.428 116.204 253.428 115.86C253.428 115.516 253.512 115.22 253.68 114.972C253.848 114.716 254.08 114.52 254.376 114.384C254.68 114.248 255.044 114.18 255.468 114.18C255.916 114.18 256.312 114.26 256.656 114.42C257.008 114.572 257.296 114.804 257.52 115.116L256.824 115.812C256.664 115.604 256.464 115.444 256.224 115.332C255.992 115.22 255.728 115.164 255.432 115.164C255.12 115.164 254.88 115.22 254.712 115.332C254.552 115.436 254.472 115.584 254.472 115.776C254.472 115.968 254.544 116.116 254.688 116.22C254.832 116.324 255.02 116.412 255.252 116.484C255.492 116.556 255.74 116.632 255.996 116.712C256.252 116.784 256.496 116.884 256.728 117.012C256.96 117.14 257.148 117.312 257.292 117.528C257.444 117.744 257.52 118.028 257.52 118.38C257.52 118.916 257.328 119.34 256.944 119.652C256.568 119.964 256.06 120.12 255.42 120.12ZM261.334 120.12C260.774 120.12 260.266 119.988 259.81 119.724C259.362 119.46 259.006 119.104 258.742 118.656C258.486 118.2 258.358 117.696 258.358 117.144C258.358 116.584 258.486 116.08 258.742 115.632C259.006 115.184 259.362 114.832 259.81 114.576C260.266 114.312 260.774 114.18 261.334 114.18C261.774 114.18 262.182 114.264 262.558 114.432C262.934 114.592 263.258 114.828 263.53 115.14L262.81 115.86C262.634 115.652 262.418 115.496 262.162 115.392C261.914 115.28 261.638 115.224 261.334 115.224C260.974 115.224 260.654 115.308 260.374 115.476C260.094 115.636 259.874 115.86 259.714 116.148C259.554 116.436 259.474 116.768 259.474 117.144C259.474 117.52 259.554 117.852 259.714 118.14C259.874 118.428 260.094 118.656 260.374 118.824C260.654 118.992 260.974 119.076 261.334 119.076C261.638 119.076 261.914 119.024 262.162 118.92C262.418 118.808 262.638 118.648 262.822 118.44L263.53 119.16C263.266 119.464 262.942 119.7 262.558 119.868C262.182 120.036 261.774 120.12 261.334 120.12ZM264.601 120V114.3H265.681V120H264.601ZM265.681 116.748L265.273 116.568C265.273 115.84 265.441 115.26 265.777 114.828C266.113 114.396 266.597 114.18 267.229 114.18C267.517 114.18 267.777 114.232 268.009 114.336C268.241 114.432 268.457 114.596 268.657 114.828L267.949 115.56C267.829 115.432 267.697 115.34 267.553 115.284C267.409 115.228 267.241 115.2 267.049 115.2C266.649 115.2 266.321 115.328 266.065 115.584C265.809 115.84 265.681 116.228 265.681 116.748ZM269.429 120V114.3H270.509V120H269.429ZM269.969 113.16C269.769 113.16 269.605 113.096 269.477 112.968C269.349 112.832 269.285 112.664 269.285 112.464C269.285 112.272 269.349 112.112 269.477 111.984C269.605 111.848 269.769 111.78 269.969 111.78C270.169 111.78 270.333 111.848 270.461 111.984C270.589 112.112 270.653 112.272 270.653 112.464C270.653 112.664 270.589 112.832 270.461 112.968C270.333 113.096 270.169 113.16 269.969 113.16ZM275.101 120.12C274.669 120.12 274.277 120.032 273.925 119.856C273.581 119.672 273.305 119.42 273.097 119.1C272.889 118.78 272.773 118.416 272.749 118.008V116.292C272.773 115.876 272.889 115.512 273.097 115.2C273.313 114.88 273.593 114.632 273.937 114.456C274.289 114.272 274.677 114.18 275.101 114.18C275.621 114.18 276.089 114.312 276.505 114.576C276.929 114.84 277.261 115.196 277.501 115.644C277.741 116.092 277.861 116.596 277.861 117.156C277.861 117.716 277.741 118.22 277.501 118.668C277.261 119.116 276.929 119.472 276.505 119.736C276.089 119.992 275.621 120.12 275.101 120.12ZM272.101 122.388V114.3H273.181V115.8L272.977 117.18L273.181 118.572V122.388H272.101ZM274.921 119.1C275.281 119.1 275.597 119.016 275.869 118.848C276.141 118.68 276.357 118.452 276.517 118.164C276.677 117.868 276.757 117.528 276.757 117.144C276.757 116.768 276.677 116.432 276.517 116.136C276.357 115.84 276.141 115.612 275.869 115.452C275.597 115.284 275.285 115.2 274.933 115.2C274.573 115.2 274.257 115.284 273.985 115.452C273.713 115.612 273.501 115.84 273.349 116.136C273.197 116.432 273.121 116.772 273.121 117.156C273.121 117.532 273.193 117.868 273.337 118.164C273.489 118.452 273.701 118.68 273.973 118.848C274.253 119.016 274.569 119.1 274.921 119.1ZM279.785 120V111.912H280.865V120H279.785ZM278.381 115.284V114.3H282.269V115.284H278.381ZM283.339 120V114.3H284.419V120H283.339ZM283.879 113.16C283.679 113.16 283.515 113.096 283.387 112.968C283.259 112.832 283.195 112.664 283.195 112.464C283.195 112.272 283.259 112.112 283.387 111.984C283.515 111.848 283.679 111.78 283.879 111.78C284.079 111.78 284.243 111.848 284.371 111.984C284.499 112.112 284.563 112.272 284.563 112.464C284.563 112.664 284.499 112.832 284.371 112.968C284.243 113.096 284.079 113.16 283.879 113.16ZM288.615 120.12C288.055 120.12 287.551 119.988 287.103 119.724C286.655 119.46 286.299 119.104 286.035 118.656C285.771 118.2 285.639 117.692 285.639 117.132C285.639 116.58 285.771 116.084 286.035 115.644C286.299 115.196 286.655 114.84 287.103 114.576C287.551 114.312 288.055 114.18 288.615 114.18C289.167 114.18 289.667 114.312 290.115 114.576C290.571 114.832 290.931 115.184 291.195 115.632C291.459 116.08 291.591 116.58 291.591 117.132C291.591 117.692 291.459 118.2 291.195 118.656C290.931 119.104 290.571 119.46 290.115 119.724C289.667 119.988 289.167 120.12 288.615 120.12ZM288.615 119.076C288.975 119.076 289.295 118.992 289.575 118.824C289.855 118.656 290.075 118.428 290.235 118.14C290.395 117.844 290.475 117.508 290.475 117.132C290.475 116.764 290.391 116.436 290.223 116.148C290.063 115.86 289.843 115.636 289.563 115.476C289.291 115.308 288.975 115.224 288.615 115.224C288.255 115.224 287.935 115.308 287.655 115.476C287.375 115.636 287.155 115.86 286.995 116.148C286.835 116.436 286.755 116.764 286.755 117.132C286.755 117.508 286.835 117.844 286.995 118.14C287.155 118.428 287.375 118.656 287.655 118.824C287.935 118.992 288.255 119.076 288.615 119.076ZM296.84 120V116.676C296.84 116.244 296.704 115.888 296.432 115.608C296.16 115.328 295.808 115.188 295.376 115.188C295.088 115.188 294.832 115.252 294.608 115.38C294.384 115.508 294.208 115.684 294.08 115.908C293.952 116.132 293.888 116.388 293.888 116.676L293.444 116.424C293.444 115.992 293.54 115.608 293.732 115.272C293.924 114.936 294.192 114.672 294.536 114.48C294.88 114.28 295.268 114.18 295.7 114.18C296.132 114.18 296.512 114.288 296.84 114.504C297.176 114.72 297.44 115.004 297.632 115.356C297.824 115.7 297.92 116.068 297.92 116.46V120H296.84ZM292.808 120V114.3H293.888V120H292.808Z" fill="#646A77"/>
<path d="M502.875 101.75C502.875 102.048 502.756 102.335 502.545 102.545C502.335 102.756 502.048 102.875 501.75 102.875C501.452 102.875 501.165 102.756 500.955 102.545C500.744 102.335 500.625 102.048 500.625 101.75V98.4688L495.046 104.048C494.835 104.259 494.548 104.378 494.249 104.378C493.95 104.378 493.664 104.259 493.452 104.048C493.241 103.836 493.122 103.55 493.122 103.251C493.122 102.952 493.241 102.665 493.452 102.454L499.031 96.875H495.75C495.452 96.875 495.165 96.7565 494.955 96.5455C494.744 96.3345 494.625 96.0484 494.625 95.75C494.625 95.4516 494.744 95.1655 494.955 94.9545C495.165 94.7435 495.452 94.625 495.75 94.625H501.75C502.048 94.625 502.335 94.7435 502.545 94.9545C502.756 95.1655 502.875 95.4516 502.875 95.75V101.75ZM498.75 104C498.452 104 498.165 104.119 497.955 104.33C497.744 104.54 497.625 104.827 497.625 105.125V111.125H486.375V99.875H492.375C492.673 99.875 492.96 99.7565 493.17 99.5455C493.381 99.3345 493.5 99.0484 493.5 98.75C493.5 98.4516 493.381 98.1655 493.17 97.9545C492.96 97.7435 492.673 97.625 492.375 97.625H486C485.503 97.625 485.026 97.8225 484.674 98.1742C484.323 98.5258 484.125 99.0027 484.125 99.5V111.5C484.125 111.997 484.323 112.474 484.674 112.826C485.026 113.177 485.503 113.375 486 113.375H498C498.497 113.375 498.974 113.177 499.326 112.826C499.677 112.474 499.875 111.997 499.875 111.5V105.125C499.875 104.827 499.756 104.54 499.545 104.33C499.335 104.119 499.048 104 498.75 104Z" fill="#4F46E5"/>
<path d="M165.5 205C165.5 193.686 165.5 188.029 169.015 184.515C172.529 181 178.186 181 189.5 181H221.5V239H189.5C178.186 239 172.529 239 169.015 235.485C165.5 231.971 165.5 226.314 165.5 215V205Z" fill="#4F46E5"/>
<path d="M204.281 207.005C204.167 206.655 203.953 206.347 203.665 206.119C203.378 205.89 203.029 205.751 202.663 205.719L197.319 205.256L195.229 200.274C195.085 199.936 194.845 199.647 194.538 199.444C194.231 199.24 193.871 199.132 193.503 199.132C193.135 199.132 192.775 199.24 192.468 199.444C192.161 199.647 191.921 199.936 191.777 200.274L189.683 205.256L184.34 205.719C183.972 205.749 183.621 205.887 183.331 206.117C183.041 206.346 182.826 206.655 182.712 207.007C182.597 207.358 182.589 207.735 182.688 208.091C182.787 208.446 182.989 208.765 183.269 209.006L187.33 212.55L186.112 217.823C186.028 218.182 186.052 218.557 186.181 218.903C186.31 219.248 186.537 219.548 186.836 219.765C187.134 219.981 187.489 220.105 187.858 220.121C188.226 220.137 188.591 220.044 188.906 219.853L193.5 217.063L198.094 219.853C198.409 220.043 198.774 220.136 199.142 220.12C199.51 220.104 199.866 219.98 200.164 219.764C200.462 219.547 200.689 219.247 200.818 218.902C200.947 218.557 200.971 218.181 200.887 217.823L199.669 212.55L203.73 209.006C204.009 208.764 204.21 208.445 204.308 208.089C204.406 207.733 204.397 207.356 204.281 207.005ZM198.023 211C197.766 211.224 197.575 211.514 197.47 211.838C197.365 212.162 197.351 212.509 197.428 212.841L198.496 217.464L194.47 215.019C194.178 214.841 193.842 214.747 193.5 214.747C193.158 214.747 192.822 214.841 192.53 215.019L188.504 217.464L189.572 212.841C189.649 212.509 189.635 212.162 189.53 211.838C189.425 211.514 189.234 211.224 188.977 211L185.406 207.885L190.106 207.478C190.447 207.449 190.772 207.327 191.048 207.126C191.324 206.924 191.54 206.651 191.671 206.335L193.5 201.977L195.329 206.335C195.46 206.651 195.676 206.924 195.952 207.126C196.227 207.327 196.553 207.449 196.894 207.478L201.594 207.885L198.023 211Z" fill="#F6F6F8"/>
<path d="M221.5 181H493.5C504.814 181 510.471 181 513.985 184.515C517.5 188.029 517.5 193.686 517.5 205V215C517.5 226.314 517.5 231.971 513.985 235.485C510.471 239 504.814 239 493.5 239H221.5V181Z" fill="white"/>
<path d="M241.532 207V196.12H243.372V207H241.532ZM237.884 197.48V195.8H247.02V197.48H237.884ZM248.398 207V199.32H250.158V207H248.398ZM249.278 197.912C248.98 197.912 248.729 197.811 248.526 197.608C248.334 197.405 248.238 197.155 248.238 196.856C248.238 196.557 248.334 196.307 248.526 196.104C248.729 195.901 248.98 195.8 249.278 195.8C249.588 195.8 249.838 195.901 250.03 196.104C250.222 196.307 250.318 196.557 250.318 196.856C250.318 197.155 250.222 197.405 250.03 197.608C249.838 197.811 249.588 197.912 249.278 197.912ZM253.3 207V196.12H255.06V207H253.3ZM251.46 200.92V199.32H256.9V200.92H251.46ZM258.179 207V195.48H259.939V207H258.179ZM265.466 207.16C264.698 207.16 264.005 206.989 263.386 206.648C262.778 206.296 262.293 205.816 261.93 205.208C261.578 204.6 261.402 203.917 261.402 203.16C261.402 202.403 261.578 201.725 261.93 201.128C262.282 200.52 262.757 200.04 263.354 199.688C263.962 199.336 264.634 199.16 265.37 199.16C266.085 199.16 266.714 199.325 267.258 199.656C267.813 199.987 268.245 200.44 268.554 201.016C268.874 201.592 269.034 202.248 269.034 202.984C269.034 203.112 269.023 203.245 269.002 203.384C268.991 203.512 268.97 203.656 268.938 203.816H262.634V202.376H268.026L267.37 202.952C267.349 202.483 267.258 202.088 267.098 201.768C266.938 201.448 266.709 201.203 266.41 201.032C266.122 200.861 265.765 200.776 265.338 200.776C264.89 200.776 264.501 200.872 264.17 201.064C263.839 201.256 263.583 201.528 263.402 201.88C263.221 202.221 263.13 202.632 263.13 203.112C263.13 203.592 263.226 204.013 263.418 204.376C263.61 204.739 263.882 205.021 264.234 205.224C264.586 205.416 264.991 205.512 265.45 205.512C265.845 205.512 266.207 205.443 266.538 205.304C266.879 205.165 267.167 204.963 267.402 204.696L268.522 205.832C268.149 206.269 267.695 206.6 267.162 206.824C266.629 207.048 266.063 207.16 265.466 207.16Z" fill="#2A2C35"/>
<path d="M240.704 226.12C240.176 226.12 239.704 225.992 239.288 225.736C238.872 225.472 238.54 225.116 238.292 224.668C238.052 224.22 237.932 223.716 237.932 223.156C237.932 222.596 238.052 222.092 238.292 221.644C238.54 221.196 238.872 220.84 239.288 220.576C239.704 220.312 240.176 220.18 240.704 220.18C241.128 220.18 241.512 220.272 241.856 220.456C242.2 220.632 242.476 220.88 242.684 221.2C242.9 221.512 243.02 221.876 243.044 222.292V224.008C243.02 224.416 242.904 224.78 242.696 225.1C242.488 225.42 242.212 225.672 241.868 225.856C241.524 226.032 241.136 226.12 240.704 226.12ZM240.884 225.1C241.244 225.1 241.556 225.016 241.82 224.848C242.092 224.68 242.304 224.452 242.456 224.164C242.608 223.868 242.684 223.532 242.684 223.156C242.684 222.764 242.604 222.424 242.444 222.136C242.292 221.848 242.08 221.62 241.808 221.452C241.544 221.284 241.232 221.2 240.872 221.2C240.512 221.2 240.196 221.284 239.924 221.452C239.652 221.62 239.436 221.852 239.276 222.148C239.124 222.436 239.048 222.768 239.048 223.144C239.048 223.528 239.124 223.868 239.276 224.164C239.436 224.452 239.652 224.68 239.924 224.848C240.204 225.016 240.524 225.1 240.884 225.1ZM243.704 226H242.612V224.464L242.816 223.072L242.612 221.692V217.432H243.704V226ZM247.916 226.12C247.348 226.12 246.836 225.992 246.38 225.736C245.924 225.472 245.564 225.116 245.3 224.668C245.036 224.22 244.904 223.712 244.904 223.144C244.904 222.584 245.032 222.08 245.288 221.632C245.552 221.184 245.904 220.832 246.344 220.576C246.792 220.312 247.292 220.18 247.844 220.18C248.372 220.18 248.836 220.3 249.236 220.54C249.644 220.78 249.96 221.112 250.184 221.536C250.416 221.96 250.532 222.44 250.532 222.976C250.532 223.056 250.528 223.144 250.52 223.24C250.512 223.328 250.496 223.432 250.472 223.552H245.66V222.652H249.896L249.5 223C249.5 222.616 249.432 222.292 249.296 222.028C249.16 221.756 248.968 221.548 248.72 221.404C248.472 221.252 248.172 221.176 247.82 221.176C247.452 221.176 247.128 221.256 246.848 221.416C246.568 221.576 246.352 221.8 246.2 222.088C246.048 222.376 245.972 222.716 245.972 223.108C245.972 223.508 246.052 223.86 246.212 224.164C246.372 224.46 246.6 224.692 246.896 224.86C247.192 225.02 247.532 225.1 247.916 225.1C248.236 225.1 248.528 225.044 248.792 224.932C249.064 224.82 249.296 224.652 249.488 224.428L250.184 225.136C249.912 225.456 249.576 225.7 249.176 225.868C248.784 226.036 248.364 226.12 247.916 226.12ZM253.522 226.12C253.202 226.12 252.898 226.08 252.61 226C252.33 225.912 252.07 225.792 251.83 225.64C251.59 225.48 251.382 225.292 251.206 225.076L251.902 224.38C252.11 224.636 252.35 224.828 252.622 224.956C252.894 225.076 253.198 225.136 253.534 225.136C253.87 225.136 254.13 225.08 254.314 224.968C254.498 224.848 254.59 224.684 254.59 224.476C254.59 224.268 254.514 224.108 254.362 223.996C254.218 223.876 254.03 223.78 253.798 223.708C253.566 223.628 253.318 223.552 253.054 223.48C252.798 223.4 252.554 223.3 252.322 223.18C252.09 223.06 251.898 222.896 251.746 222.688C251.602 222.48 251.53 222.204 251.53 221.86C251.53 221.516 251.614 221.22 251.782 220.972C251.95 220.716 252.182 220.52 252.478 220.384C252.782 220.248 253.146 220.18 253.57 220.18C254.018 220.18 254.414 220.26 254.758 220.42C255.11 220.572 255.398 220.804 255.622 221.116L254.926 221.812C254.766 221.604 254.566 221.444 254.326 221.332C254.094 221.22 253.83 221.164 253.534 221.164C253.222 221.164 252.982 221.22 252.814 221.332C252.654 221.436 252.574 221.584 252.574 221.776C252.574 221.968 252.646 222.116 252.79 222.22C252.934 222.324 253.122 222.412 253.354 222.484C253.594 222.556 253.842 222.632 254.098 222.712C254.354 222.784 254.598 222.884 254.83 223.012C255.062 223.14 255.25 223.312 255.394 223.528C255.546 223.744 255.622 224.028 255.622 224.38C255.622 224.916 255.43 225.34 255.046 225.652C254.67 225.964 254.162 226.12 253.522 226.12ZM259.435 226.12C258.875 226.12 258.367 225.988 257.911 225.724C257.463 225.46 257.107 225.104 256.843 224.656C256.587 224.2 256.459 223.696 256.459 223.144C256.459 222.584 256.587 222.08 256.843 221.632C257.107 221.184 257.463 220.832 257.911 220.576C258.367 220.312 258.875 220.18 259.435 220.18C259.875 220.18 260.283 220.264 260.659 220.432C261.035 220.592 261.359 220.828 261.631 221.14L260.911 221.86C260.735 221.652 260.519 221.496 260.263 221.392C260.015 221.28 259.739 221.224 259.435 221.224C259.075 221.224 258.755 221.308 258.475 221.476C258.195 221.636 257.975 221.86 257.815 222.148C257.655 222.436 257.575 222.768 257.575 223.144C257.575 223.52 257.655 223.852 257.815 224.14C257.975 224.428 258.195 224.656 258.475 224.824C258.755 224.992 259.075 225.076 259.435 225.076C259.739 225.076 260.015 225.024 260.263 224.92C260.519 224.808 260.739 224.648 260.923 224.44L261.631 225.16C261.367 225.464 261.043 225.7 260.659 225.868C260.283 226.036 259.875 226.12 259.435 226.12ZM262.702 226V220.3H263.782V226H262.702ZM263.782 222.748L263.374 222.568C263.374 221.84 263.542 221.26 263.878 220.828C264.214 220.396 264.698 220.18 265.33 220.18C265.618 220.18 265.878 220.232 266.11 220.336C266.342 220.432 266.558 220.596 266.758 220.828L266.05 221.56C265.93 221.432 265.798 221.34 265.654 221.284C265.51 221.228 265.342 221.2 265.15 221.2C264.75 221.2 264.422 221.328 264.166 221.584C263.91 221.84 263.782 222.228 263.782 222.748ZM267.531 226V220.3H268.611V226H267.531ZM268.071 219.16C267.871 219.16 267.707 219.096 267.579 218.968C267.451 218.832 267.387 218.664 267.387 218.464C267.387 218.272 267.451 218.112 267.579 217.984C267.707 217.848 267.871 217.78 268.071 217.78C268.271 217.78 268.435 217.848 268.563 217.984C268.691 218.112 268.755 218.272 268.755 218.464C268.755 218.664 268.691 218.832 268.563 218.968C268.435 219.096 268.271 219.16 268.071 219.16ZM273.202 226.12C272.77 226.12 272.378 226.032 272.026 225.856C271.682 225.672 271.406 225.42 271.198 225.1C270.99 224.78 270.874 224.416 270.85 224.008V222.292C270.874 221.876 270.99 221.512 271.198 221.2C271.414 220.88 271.694 220.632 272.038 220.456C272.39 220.272 272.778 220.18 273.202 220.18C273.722 220.18 274.19 220.312 274.606 220.576C275.03 220.84 275.362 221.196 275.602 221.644C275.842 222.092 275.962 222.596 275.962 223.156C275.962 223.716 275.842 224.22 275.602 224.668C275.362 225.116 275.03 225.472 274.606 225.736C274.19 225.992 273.722 226.12 273.202 226.12ZM270.202 228.388V220.3H271.282V221.8L271.078 223.18L271.282 224.572V228.388H270.202ZM273.022 225.1C273.382 225.1 273.698 225.016 273.97 224.848C274.242 224.68 274.458 224.452 274.618 224.164C274.778 223.868 274.858 223.528 274.858 223.144C274.858 222.768 274.778 222.432 274.618 222.136C274.458 221.84 274.242 221.612 273.97 221.452C273.698 221.284 273.386 221.2 273.034 221.2C272.674 221.2 272.358 221.284 272.086 221.452C271.814 221.612 271.602 221.84 271.45 222.136C271.298 222.432 271.222 222.772 271.222 223.156C271.222 223.532 271.294 223.868 271.438 224.164C271.59 224.452 271.802 224.68 272.074 224.848C272.354 225.016 272.67 225.1 273.022 225.1ZM277.887 226V217.912H278.967V226H277.887ZM276.483 221.284V220.3H280.371V221.284H276.483ZM281.441 226V220.3H282.521V226H281.441ZM281.981 219.16C281.781 219.16 281.617 219.096 281.489 218.968C281.361 218.832 281.297 218.664 281.297 218.464C281.297 218.272 281.361 218.112 281.489 217.984C281.617 217.848 281.781 217.78 281.981 217.78C282.181 217.78 282.345 217.848 282.473 217.984C282.601 218.112 282.665 218.272 282.665 218.464C282.665 218.664 282.601 218.832 282.473 218.968C282.345 219.096 282.181 219.16 281.981 219.16ZM286.716 226.12C286.156 226.12 285.652 225.988 285.204 225.724C284.756 225.46 284.4 225.104 284.136 224.656C283.872 224.2 283.74 223.692 283.74 223.132C283.74 222.58 283.872 222.084 284.136 221.644C284.4 221.196 284.756 220.84 285.204 220.576C285.652 220.312 286.156 220.18 286.716 220.18C287.268 220.18 287.768 220.312 288.216 220.576C288.672 220.832 289.032 221.184 289.296 221.632C289.56 222.08 289.692 222.58 289.692 223.132C289.692 223.692 289.56 224.2 289.296 224.656C289.032 225.104 288.672 225.46 288.216 225.724C287.768 225.988 287.268 226.12 286.716 226.12ZM286.716 225.076C287.076 225.076 287.396 224.992 287.676 224.824C287.956 224.656 288.176 224.428 288.336 224.14C288.496 223.844 288.576 223.508 288.576 223.132C288.576 222.764 288.492 222.436 288.324 222.148C288.164 221.86 287.944 221.636 287.664 221.476C287.392 221.308 287.076 221.224 286.716 221.224C286.356 221.224 286.036 221.308 285.756 221.476C285.476 221.636 285.256 221.86 285.096 222.148C284.936 222.436 284.856 222.764 284.856 223.132C284.856 223.508 284.936 223.844 285.096 224.14C285.256 224.428 285.476 224.656 285.756 224.824C286.036 224.992 286.356 225.076 286.716 225.076ZM294.941 226V222.676C294.941 222.244 294.805 221.888 294.533 221.608C294.261 221.328 293.909 221.188 293.477 221.188C293.189 221.188 292.933 221.252 292.709 221.38C292.485 221.508 292.309 221.684 292.181 221.908C292.053 222.132 291.989 222.388 291.989 222.676L291.545 222.424C291.545 221.992 291.641 221.608 291.833 221.272C292.025 220.936 292.293 220.672 292.637 220.48C292.981 220.28 293.369 220.18 293.801 220.18C294.233 220.18 294.613 220.288 294.941 220.504C295.277 220.72 295.541 221.004 295.733 221.356C295.925 221.7 296.021 222.068 296.021 222.46V226H294.941ZM290.909 226V220.3H291.989V226H290.909Z" fill="#646A77"/>
<path d="M502.875 207.75C502.875 208.048 502.756 208.335 502.545 208.545C502.335 208.756 502.048 208.875 501.75 208.875C501.452 208.875 501.165 208.756 500.955 208.545C500.744 208.335 500.625 208.048 500.625 207.75V204.469L495.046 210.048C494.835 210.259 494.548 210.378 494.249 210.378C493.95 210.378 493.664 210.259 493.452 210.048C493.241 209.836 493.122 209.55 493.122 209.251C493.122 208.952 493.241 208.665 493.452 208.454L499.031 202.875H495.75C495.452 202.875 495.165 202.756 494.955 202.545C494.744 202.335 494.625 202.048 494.625 201.75C494.625 201.452 494.744 201.165 494.955 200.955C495.165 200.744 495.452 200.625 495.75 200.625H501.75C502.048 200.625 502.335 200.744 502.545 200.955C502.756 201.165 502.875 201.452 502.875 201.75V207.75ZM498.75 210C498.452 210 498.165 210.119 497.955 210.33C497.744 210.54 497.625 210.827 497.625 211.125V217.125H486.375V205.875H492.375C492.673 205.875 492.96 205.756 493.17 205.545C493.381 205.335 493.5 205.048 493.5 204.75C493.5 204.452 493.381 204.165 493.17 203.955C492.96 203.744 492.673 203.625 492.375 203.625H486C485.503 203.625 485.026 203.823 484.674 204.174C484.323 204.526 484.125 205.003 484.125 205.5V217.5C484.125 217.997 484.323 218.474 484.674 218.826C485.026 219.177 485.503 219.375 486 219.375H498C498.497 219.375 498.974 219.177 499.326 218.826C499.677 218.474 499.875 217.997 499.875 217.5V211.125C499.875 210.827 499.756 210.54 499.545 210.33C499.335 210.119 499.048 210 498.75 210Z" fill="#4F46E5"/>
<path d="M165.5 311C165.5 299.686 165.5 294.029 169.015 290.515C172.529 287 178.186 287 189.5 287H221.5V345H189.5C178.186 345 172.529 345 169.015 341.485C165.5 337.971 165.5 332.314 165.5 321V311Z" fill="#4F46E5"/>
<path d="M204.919 312.015L194.044 306.015C193.877 305.923 193.69 305.875 193.5 305.875C193.31 305.875 193.123 305.923 192.956 306.015L182.081 312.015C181.905 312.112 181.759 312.255 181.657 312.428C181.555 312.601 181.501 312.798 181.501 312.999C181.501 313.2 181.555 313.397 181.657 313.57C181.759 313.743 181.905 313.886 182.081 313.983L184.125 315.108V319.586C184.124 320.047 184.294 320.492 184.602 320.835C185.872 322.253 188.719 324.625 193.5 324.625C194.77 324.632 196.034 324.45 197.25 324.086V326.5C197.25 326.798 197.369 327.084 197.58 327.295C197.791 327.506 198.077 327.625 198.375 327.625C198.673 327.625 198.96 327.506 199.171 327.295C199.382 327.084 199.5 326.798 199.5 326.5V323.136C200.587 322.536 201.566 321.76 202.398 320.838C202.706 320.495 202.876 320.051 202.875 319.59V315.112L204.919 313.987C205.095 313.89 205.241 313.747 205.343 313.574C205.445 313.401 205.499 313.204 205.499 313.003C205.499 312.802 205.445 312.605 205.343 312.431C205.241 312.258 205.095 312.116 204.919 312.018V312.015ZM193.5 308.285L202.046 313L198.938 314.716C198.932 314.712 198.926 314.708 198.921 314.704L194.046 312.015C193.785 311.88 193.483 311.852 193.203 311.938C192.922 312.023 192.686 312.214 192.544 312.47C192.403 312.727 192.367 313.028 192.444 313.311C192.521 313.593 192.706 313.835 192.958 313.983L196.614 315.998L193.5 317.716L184.954 313L193.5 308.285ZM193.5 322.375C189.711 322.375 187.439 320.587 186.375 319.443V316.35L192.956 319.982C193.123 320.073 193.31 320.122 193.5 320.122C193.69 320.122 193.877 320.073 194.044 319.982L197.25 318.216V321.707C196.052 322.159 194.781 322.386 193.5 322.375ZM200.625 319.443C200.28 319.813 199.904 320.152 199.5 320.457V316.974L200.625 316.353V319.443Z" fill="#F6F6F8"/>
<path d="M221.5 287H493.5C504.814 287 510.471 287 513.985 290.515C517.5 294.029 517.5 299.686 517.5 311V321C517.5 332.314 517.5 337.971 513.985 341.485C510.471 345 504.814 345 493.5 345H221.5V287Z" fill="white"/>
<path d="M241.532 313V302.12H243.372V313H241.532ZM237.884 303.48V301.8H247.02V303.48H237.884ZM248.398 313V305.32H250.158V313H248.398ZM249.278 303.912C248.98 303.912 248.729 303.811 248.526 303.608C248.334 303.405 248.238 303.155 248.238 302.856C248.238 302.557 248.334 302.307 248.526 302.104C248.729 301.901 248.98 301.8 249.278 301.8C249.588 301.8 249.838 301.901 250.03 302.104C250.222 302.307 250.318 302.557 250.318 302.856C250.318 303.155 250.222 303.405 250.03 303.608C249.838 303.811 249.588 303.912 249.278 303.912ZM253.3 313V302.12H255.06V313H253.3ZM251.46 306.92V305.32H256.9V306.92H251.46ZM258.179 313V301.48H259.939V313H258.179ZM265.466 313.16C264.698 313.16 264.005 312.989 263.386 312.648C262.778 312.296 262.293 311.816 261.93 311.208C261.578 310.6 261.402 309.917 261.402 309.16C261.402 308.403 261.578 307.725 261.93 307.128C262.282 306.52 262.757 306.04 263.354 305.688C263.962 305.336 264.634 305.16 265.37 305.16C266.085 305.16 266.714 305.325 267.258 305.656C267.813 305.987 268.245 306.44 268.554 307.016C268.874 307.592 269.034 308.248 269.034 308.984C269.034 309.112 269.023 309.245 269.002 309.384C268.991 309.512 268.97 309.656 268.938 309.816H262.634V308.376H268.026L267.37 308.952C267.349 308.483 267.258 308.088 267.098 307.768C266.938 307.448 266.709 307.203 266.41 307.032C266.122 306.861 265.765 306.776 265.338 306.776C264.89 306.776 264.501 306.872 264.17 307.064C263.839 307.256 263.583 307.528 263.402 307.88C263.221 308.221 263.13 308.632 263.13 309.112C263.13 309.592 263.226 310.013 263.418 310.376C263.61 310.739 263.882 311.021 264.234 311.224C264.586 311.416 264.991 311.512 265.45 311.512C265.845 311.512 266.207 311.443 266.538 311.304C266.879 311.165 267.167 310.963 267.402 310.696L268.522 311.832C268.149 312.269 267.695 312.6 267.162 312.824C266.629 313.048 266.063 313.16 265.466 313.16Z" fill="#2A2C35"/>
<path d="M240.704 332.12C240.176 332.12 239.704 331.992 239.288 331.736C238.872 331.472 238.54 331.116 238.292 330.668C238.052 330.22 237.932 329.716 237.932 329.156C237.932 328.596 238.052 328.092 238.292 327.644C238.54 327.196 238.872 326.84 239.288 326.576C239.704 326.312 240.176 326.18 240.704 326.18C241.128 326.18 241.512 326.272 241.856 326.456C242.2 326.632 242.476 326.88 242.684 327.2C242.9 327.512 243.02 327.876 243.044 328.292V330.008C243.02 330.416 242.904 330.78 242.696 331.1C242.488 331.42 242.212 331.672 241.868 331.856C241.524 332.032 241.136 332.12 240.704 332.12ZM240.884 331.1C241.244 331.1 241.556 331.016 241.82 330.848C242.092 330.68 242.304 330.452 242.456 330.164C242.608 329.868 242.684 329.532 242.684 329.156C242.684 328.764 242.604 328.424 242.444 328.136C242.292 327.848 242.08 327.62 241.808 327.452C241.544 327.284 241.232 327.2 240.872 327.2C240.512 327.2 240.196 327.284 239.924 327.452C239.652 327.62 239.436 327.852 239.276 328.148C239.124 328.436 239.048 328.768 239.048 329.144C239.048 329.528 239.124 329.868 239.276 330.164C239.436 330.452 239.652 330.68 239.924 330.848C240.204 331.016 240.524 331.1 240.884 331.1ZM243.704 332H242.612V330.464L242.816 329.072L242.612 327.692V323.432H243.704V332ZM247.916 332.12C247.348 332.12 246.836 331.992 246.38 331.736C245.924 331.472 245.564 331.116 245.3 330.668C245.036 330.22 244.904 329.712 244.904 329.144C244.904 328.584 245.032 328.08 245.288 327.632C245.552 327.184 245.904 326.832 246.344 326.576C246.792 326.312 247.292 326.18 247.844 326.18C248.372 326.18 248.836 326.3 249.236 326.54C249.644 326.78 249.96 327.112 250.184 327.536C250.416 327.96 250.532 328.44 250.532 328.976C250.532 329.056 250.528 329.144 250.52 329.24C250.512 329.328 250.496 329.432 250.472 329.552H245.66V328.652H249.896L249.5 329C249.5 328.616 249.432 328.292 249.296 328.028C249.16 327.756 248.968 327.548 248.72 327.404C248.472 327.252 248.172 327.176 247.82 327.176C247.452 327.176 247.128 327.256 246.848 327.416C246.568 327.576 246.352 327.8 246.2 328.088C246.048 328.376 245.972 328.716 245.972 329.108C245.972 329.508 246.052 329.86 246.212 330.164C246.372 330.46 246.6 330.692 246.896 330.86C247.192 331.02 247.532 331.1 247.916 331.1C248.236 331.1 248.528 331.044 248.792 330.932C249.064 330.82 249.296 330.652 249.488 330.428L250.184 331.136C249.912 331.456 249.576 331.7 249.176 331.868C248.784 332.036 248.364 332.12 247.916 332.12ZM253.522 332.12C253.202 332.12 252.898 332.08 252.61 332C252.33 331.912 252.07 331.792 251.83 331.64C251.59 331.48 251.382 331.292 251.206 331.076L251.902 330.38C252.11 330.636 252.35 330.828 252.622 330.956C252.894 331.076 253.198 331.136 253.534 331.136C253.87 331.136 254.13 331.08 254.314 330.968C254.498 330.848 254.59 330.684 254.59 330.476C254.59 330.268 254.514 330.108 254.362 329.996C254.218 329.876 254.03 329.78 253.798 329.708C253.566 329.628 253.318 329.552 253.054 329.48C252.798 329.4 252.554 329.3 252.322 329.18C252.09 329.06 251.898 328.896 251.746 328.688C251.602 328.48 251.53 328.204 251.53 327.86C251.53 327.516 251.614 327.22 251.782 326.972C251.95 326.716 252.182 326.52 252.478 326.384C252.782 326.248 253.146 326.18 253.57 326.18C254.018 326.18 254.414 326.26 254.758 326.42C255.11 326.572 255.398 326.804 255.622 327.116L254.926 327.812C254.766 327.604 254.566 327.444 254.326 327.332C254.094 327.22 253.83 327.164 253.534 327.164C253.222 327.164 252.982 327.22 252.814 327.332C252.654 327.436 252.574 327.584 252.574 327.776C252.574 327.968 252.646 328.116 252.79 328.22C252.934 328.324 253.122 328.412 253.354 328.484C253.594 328.556 253.842 328.632 254.098 328.712C254.354 328.784 254.598 328.884 254.83 329.012C255.062 329.14 255.25 329.312 255.394 329.528C255.546 329.744 255.622 330.028 255.622 330.38C255.622 330.916 255.43 331.34 255.046 331.652C254.67 331.964 254.162 332.12 253.522 332.12ZM259.435 332.12C258.875 332.12 258.367 331.988 257.911 331.724C257.463 331.46 257.107 331.104 256.843 330.656C256.587 330.2 256.459 329.696 256.459 329.144C256.459 328.584 256.587 328.08 256.843 327.632C257.107 327.184 257.463 326.832 257.911 326.576C258.367 326.312 258.875 326.18 259.435 326.18C259.875 326.18 260.283 326.264 260.659 326.432C261.035 326.592 261.359 326.828 261.631 327.14L260.911 327.86C260.735 327.652 260.519 327.496 260.263 327.392C260.015 327.28 259.739 327.224 259.435 327.224C259.075 327.224 258.755 327.308 258.475 327.476C258.195 327.636 257.975 327.86 257.815 328.148C257.655 328.436 257.575 328.768 257.575 329.144C257.575 329.52 257.655 329.852 257.815 330.14C257.975 330.428 258.195 330.656 258.475 330.824C258.755 330.992 259.075 331.076 259.435 331.076C259.739 331.076 260.015 331.024 260.263 330.92C260.519 330.808 260.739 330.648 260.923 330.44L261.631 331.16C261.367 331.464 261.043 331.7 260.659 331.868C260.283 332.036 259.875 332.12 259.435 332.12ZM262.702 332V326.3H263.782V332H262.702ZM263.782 328.748L263.374 328.568C263.374 327.84 263.542 327.26 263.878 326.828C264.214 326.396 264.698 326.18 265.33 326.18C265.618 326.18 265.878 326.232 266.11 326.336C266.342 326.432 266.558 326.596 266.758 326.828L266.05 327.56C265.93 327.432 265.798 327.34 265.654 327.284C265.51 327.228 265.342 327.2 265.15 327.2C264.75 327.2 264.422 327.328 264.166 327.584C263.91 327.84 263.782 328.228 263.782 328.748ZM267.531 332V326.3H268.611V332H267.531ZM268.071 325.16C267.871 325.16 267.707 325.096 267.579 324.968C267.451 324.832 267.387 324.664 267.387 324.464C267.387 324.272 267.451 324.112 267.579 323.984C267.707 323.848 267.871 323.78 268.071 323.78C268.271 323.78 268.435 323.848 268.563 323.984C268.691 324.112 268.755 324.272 268.755 324.464C268.755 324.664 268.691 324.832 268.563 324.968C268.435 325.096 268.271 325.16 268.071 325.16ZM273.202 332.12C272.77 332.12 272.378 332.032 272.026 331.856C271.682 331.672 271.406 331.42 271.198 331.1C270.99 330.78 270.874 330.416 270.85 330.008V328.292C270.874 327.876 270.99 327.512 271.198 327.2C271.414 326.88 271.694 326.632 272.038 326.456C272.39 326.272 272.778 326.18 273.202 326.18C273.722 326.18 274.19 326.312 274.606 326.576C275.03 326.84 275.362 327.196 275.602 327.644C275.842 328.092 275.962 328.596 275.962 329.156C275.962 329.716 275.842 330.22 275.602 330.668C275.362 331.116 275.03 331.472 274.606 331.736C274.19 331.992 273.722 332.12 273.202 332.12ZM270.202 334.388V326.3H271.282V327.8L271.078 329.18L271.282 330.572V334.388H270.202ZM273.022 331.1C273.382 331.1 273.698 331.016 273.97 330.848C274.242 330.68 274.458 330.452 274.618 330.164C274.778 329.868 274.858 329.528 274.858 329.144C274.858 328.768 274.778 328.432 274.618 328.136C274.458 327.84 274.242 327.612 273.97 327.452C273.698 327.284 273.386 327.2 273.034 327.2C272.674 327.2 272.358 327.284 272.086 327.452C271.814 327.612 271.602 327.84 271.45 328.136C271.298 328.432 271.222 328.772 271.222 329.156C271.222 329.532 271.294 329.868 271.438 330.164C271.59 330.452 271.802 330.68 272.074 330.848C272.354 331.016 272.67 331.1 273.022 331.1ZM277.887 332V323.912H278.967V332H277.887ZM276.483 327.284V326.3H280.371V327.284H276.483ZM281.441 332V326.3H282.521V332H281.441ZM281.981 325.16C281.781 325.16 281.617 325.096 281.489 324.968C281.361 324.832 281.297 324.664 281.297 324.464C281.297 324.272 281.361 324.112 281.489 323.984C281.617 323.848 281.781 323.78 281.981 323.78C282.181 323.78 282.345 323.848 282.473 323.984C282.601 324.112 282.665 324.272 282.665 324.464C282.665 324.664 282.601 324.832 282.473 324.968C282.345 325.096 282.181 325.16 281.981 325.16ZM286.716 332.12C286.156 332.12 285.652 331.988 285.204 331.724C284.756 331.46 284.4 331.104 284.136 330.656C283.872 330.2 283.74 329.692 283.74 329.132C283.74 328.58 283.872 328.084 284.136 327.644C284.4 327.196 284.756 326.84 285.204 326.576C285.652 326.312 286.156 326.18 286.716 326.18C287.268 326.18 287.768 326.312 288.216 326.576C288.672 326.832 289.032 327.184 289.296 327.632C289.56 328.08 289.692 328.58 289.692 329.132C289.692 329.692 289.56 330.2 289.296 330.656C289.032 331.104 288.672 331.46 288.216 331.724C287.768 331.988 287.268 332.12 286.716 332.12ZM286.716 331.076C287.076 331.076 287.396 330.992 287.676 330.824C287.956 330.656 288.176 330.428 288.336 330.14C288.496 329.844 288.576 329.508 288.576 329.132C288.576 328.764 288.492 328.436 288.324 328.148C288.164 327.86 287.944 327.636 287.664 327.476C287.392 327.308 287.076 327.224 286.716 327.224C286.356 327.224 286.036 327.308 285.756 327.476C285.476 327.636 285.256 327.86 285.096 328.148C284.936 328.436 284.856 328.764 284.856 329.132C284.856 329.508 284.936 329.844 285.096 330.14C285.256 330.428 285.476 330.656 285.756 330.824C286.036 330.992 286.356 331.076 286.716 331.076ZM294.941 332V328.676C294.941 328.244 294.805 327.888 294.533 327.608C294.261 327.328 293.909 327.188 293.477 327.188C293.189 327.188 292.933 327.252 292.709 327.38C292.485 327.508 292.309 327.684 292.181 327.908C292.053 328.132 291.989 328.388 291.989 328.676L291.545 328.424C291.545 327.992 291.641 327.608 291.833 327.272C292.025 326.936 292.293 326.672 292.637 326.48C292.981 326.28 293.369 326.18 293.801 326.18C294.233 326.18 294.613 326.288 294.941 326.504C295.277 326.72 295.541 327.004 295.733 327.356C295.925 327.7 296.021 328.068 296.021 328.46V332H294.941ZM290.909 332V326.3H291.989V332H290.909Z" fill="#646A77"/>
<path d="M502.875 313.75C502.875 314.048 502.756 314.335 502.545 314.545C502.335 314.756 502.048 314.875 501.75 314.875C501.452 314.875 501.165 314.756 500.955 314.545C500.744 314.335 500.625 314.048 500.625 313.75V310.469L495.046 316.048C494.835 316.259 494.548 316.378 494.249 316.378C493.95 316.378 493.664 316.259 493.452 316.048C493.241 315.836 493.122 315.55 493.122 315.251C493.122 314.952 493.241 314.665 493.452 314.454L499.031 308.875H495.75C495.452 308.875 495.165 308.756 494.955 308.545C494.744 308.335 494.625 308.048 494.625 307.75C494.625 307.452 494.744 307.165 494.955 306.955C495.165 306.744 495.452 306.625 495.75 306.625H501.75C502.048 306.625 502.335 306.744 502.545 306.955C502.756 307.165 502.875 307.452 502.875 307.75V313.75ZM498.75 316C498.452 316 498.165 316.119 497.955 316.33C497.744 316.54 497.625 316.827 497.625 317.125V323.125H486.375V311.875H492.375C492.673 311.875 492.96 311.756 493.17 311.545C493.381 311.335 493.5 311.048 493.5 310.75C493.5 310.452 493.381 310.165 493.17 309.955C492.96 309.744 492.673 309.625 492.375 309.625H486C485.503 309.625 485.026 309.823 484.674 310.174C484.323 310.526 484.125 311.003 484.125 311.5V323.5C484.125 323.997 484.323 324.474 484.674 324.826C485.026 325.177 485.503 325.375 486 325.375H498C498.497 325.375 498.974 325.177 499.326 324.826C499.677 324.474 499.875 323.997 499.875 323.5V317.125C499.875 316.827 499.756 316.54 499.545 316.33C499.335 316.119 499.048 316 498.75 316Z" fill="#4F46E5"/>
</svg>
