<svg width="684" height="419" viewBox="0 0 684 419" fill="none" xmlns="http://www.w3.org/2000/svg">
<rect width="684" height="419" rx="24" fill="#F6F6F8"/>
<rect width="620" height="355" transform="translate(32 32)" fill="white"/>
<path opacity="0.1" d="M32 34C32 32.8954 32.8954 32 34 32H650C651.105 32 652 32.8954 652 34V46C652 47.1046 651.105 48 650 48H34C32.8954 48 32 47.1046 32 46V34Z" fill="#E1172F"/>
<path opacity="0.1" d="M32 58.2144C32 57.1098 32.8954 56.2144 34 56.2144H650C651.105 56.2144 652 57.1098 652 58.2144V70.2144C652 71.3189 651.105 72.2144 650 72.2144H34C32.8954 72.2144 32 71.3189 32 70.2144V58.2144Z" fill="#E1172F"/>
<path opacity="0.1" d="M32 82.4285C32 81.3239 32.8954 80.4285 34 80.4285H650C651.105 80.4285 652 81.3239 652 82.4285V94.4285C652 95.533 651.105 96.4285 650 96.4285H34C32.8954 96.4285 32 95.533 32 94.4285V82.4285Z" fill="#E1172F"/>
<path opacity="0.1" d="M32 106.643C32 105.538 32.8954 104.643 34 104.643H650C651.105 104.643 652 105.538 652 106.643V118.643C652 119.747 651.105 120.643 650 120.643H34C32.8954 120.643 32 119.747 32 118.643V106.643Z" fill="#E1172F"/>
<path opacity="0.1" d="M32 130.857C32 129.753 32.8954 128.857 34 128.857H650C651.105 128.857 652 129.753 652 130.857V142.857C652 143.962 651.105 144.857 650 144.857H34C32.8954 144.857 32 143.962 32 142.857V130.857Z" fill="#E1172F"/>
<path opacity="0.1" d="M32 155.072C32 153.967 32.8954 153.072 34 153.072H650C651.105 153.072 652 153.967 652 155.072V167.072C652 168.176 651.105 169.072 650 169.072H34C32.8954 169.072 32 168.176 32 167.072V155.072Z" fill="#E1172F"/>
<path opacity="0.1" d="M32 179.286C32 178.181 32.8954 177.286 34 177.286H650C651.105 177.286 652 178.181 652 179.286V191.286C652 192.39 651.105 193.286 650 193.286H34C32.8954 193.286 32 192.39 32 191.286V179.286Z" fill="#E1172F"/>
<path opacity="0.1" d="M32 203.5C32 202.395 32.8954 201.5 34 201.5H650C651.105 201.5 652 202.395 652 203.5V215.5C652 216.605 651.105 217.5 650 217.5H34C32.8954 217.5 32 216.605 32 215.5V203.5Z" fill="#E1172F"/>
<path opacity="0.1" d="M32 227.714C32 226.61 32.8954 225.714 34 225.714H650C651.105 225.714 652 226.61 652 227.714V239.714C652 240.819 651.105 241.714 650 241.714H34C32.8954 241.714 32 240.819 32 239.714V227.714Z" fill="#E1172F"/>
<path opacity="0.1" d="M32 251.929C32 250.824 32.8954 249.929 34 249.929H650C651.105 249.929 652 250.824 652 251.929V263.929C652 265.033 651.105 265.929 650 265.929H34C32.8954 265.929 32 265.033 32 263.929V251.929Z" fill="#E1172F"/>
<path opacity="0.1" d="M32 276.143C32 275.038 32.8954 274.143 34 274.143H650C651.105 274.143 652 275.038 652 276.143V288.143C652 289.247 651.105 290.143 650 290.143H34C32.8954 290.143 32 289.247 32 288.143V276.143Z" fill="#E1172F"/>
<path opacity="0.1" d="M32 300.357C32 299.253 32.8954 298.357 34 298.357H650C651.105 298.357 652 299.253 652 300.357V312.357C652 313.462 651.105 314.357 650 314.357H34C32.8954 314.357 32 313.462 32 312.357V300.357Z" fill="#E1172F"/>
<path opacity="0.1" d="M32 324.572C32 323.467 32.8954 322.572 34 322.572H650C651.105 322.572 652 323.467 652 324.572V336.572C652 337.676 651.105 338.572 650 338.572H34C32.8954 338.572 32 337.676 32 336.572V324.572Z" fill="#E1172F"/>
<path opacity="0.1" d="M32 348.786C32 347.681 32.8954 346.786 34 346.786H650C651.105 346.786 652 347.681 652 348.786V360.786C652 361.89 651.105 362.786 650 362.786H34C32.8954 362.786 32 361.89 32 360.786V348.786Z" fill="#E1172F"/>
<path opacity="0.1" d="M32 373C32 371.895 32.8954 371 34 371H650C651.105 371 652 371.895 652 373V385C652 386.105 651.105 387 650 387H34C32.8954 387 32 386.105 32 385V373Z" fill="#E1172F"/>
</svg>
