<svg width="1282" height="353" viewBox="0 0 1282 353" fill="none" xmlns="http://www.w3.org/2000/svg">
<path d="M575.128 279.047C575.088 277.883 575.068 277.3 575.278 276.861C575.466 276.47 575.765 276.16 576.149 275.96C576.581 275.734 577.165 275.734 578.335 275.734H636.736C637.846 275.734 638.401 275.734 638.822 275.946C639.195 276.134 639.494 276.428 639.688 276.798C639.906 277.216 639.915 277.764 639.933 278.862C640.129 291.085 641.315 335.148 648.231 339.246C651.433 341.144 655.99 343.546 660.314 345.749C664.015 347.634 665.866 348.577 666.113 349.38C666.328 350.079 666.15 350.82 665.641 351.345C665.056 351.949 662.992 351.949 658.862 351.949H558.971C553.955 351.949 551.447 351.949 550.863 351.351C550.34 350.816 550.167 350.117 550.38 349.399C550.618 348.598 552.884 347.403 557.416 345.012C560.691 343.284 564.119 341.326 567.253 339.246C576.313 333.234 575.548 291.242 575.128 279.047Z" fill="#F1F2F4" stroke="#646A77" stroke-width="0.5"/>
<line x1="567.701" y1="339.204" x2="647.981" y2="339.204" stroke="#646A77" stroke-width="0.5" stroke-linecap="round"/>
<path fill-rule="evenodd" clip-rule="evenodd" d="M393.189 0.25C388.805 0.25 385.25 3.86998 385.25 8.33544V265.25H385.258V297.566C385.258 301.951 388.812 305.506 393.197 305.506H822.301C826.686 305.506 830.24 301.951 830.24 297.566V265.25H830.25V8.33543C830.25 3.86997 826.695 0.25 822.311 0.25H393.189Z" fill="#F1F2F4"/>
<path d="M385.25 265.25H385V265.5H385.25V265.25ZM385.258 265.25H385.508V265H385.258V265.25ZM830.24 265.25V265H829.99V265.25H830.24ZM830.25 265.25V265.5H830.5V265.25H830.25ZM385.5 8.33544C385.5 4.00373 388.947 0.5 393.189 0.5V0C388.662 0 385 3.73622 385 8.33544H385.5ZM385.5 265.25V8.33544H385V265.25H385.5ZM385.258 265H385.25V265.5H385.258V265ZM385.508 297.566V265.25H385.008V297.566H385.508ZM393.197 305.256C388.95 305.256 385.508 301.813 385.508 297.566H385.008C385.008 302.089 388.674 305.756 393.197 305.756V305.256ZM822.301 305.256H393.197V305.756H822.301V305.256ZM829.99 297.566C829.99 301.813 826.548 305.256 822.301 305.256V305.756C826.824 305.756 830.49 302.089 830.49 297.566H829.99ZM829.99 265.25V297.566H830.49V265.25H829.99ZM830.25 265H830.24V265.5H830.25V265ZM830 8.33543V265.25H830.5V8.33543H830ZM822.311 0.5C826.553 0.5 830 4.00373 830 8.33543H830.5C830.5 3.73622 826.838 0 822.311 0V0.5ZM393.189 0.5H822.311V0H393.189V0.5Z" fill="#646A77"/>
<circle cx="607.748" cy="6.80045" r="1.5878" fill="#646A77"/>
<line x1="385.25" y1="265.312" x2="830.25" y2="265.312" stroke="#646A77" stroke-width="0.5"/>
<mask id="mask0_5443_1961" style="mask-type:alpha" maskUnits="userSpaceOnUse" x="394" y="13" width="427" height="241">
<rect x="394.783" y="13.7472" width="425.929" height="239.56" fill="#C4C4C4" stroke="#646A77" stroke-width="0.5"/>
</mask>
<g mask="url(#mask0_5443_1961)">
<rect x="394.777" y="13.7472" width="425.929" height="239.56" rx="1" fill="#4F46E5"/>
<path d="M580.095 140.25V126.37H581.955V140.25H580.095ZM577.255 128.05V126.37H581.755V128.05H577.255ZM588.528 140.45C587.582 140.45 586.735 140.283 585.988 139.95C585.255 139.603 584.635 139.103 584.128 138.45L585.408 137.17C585.715 137.637 586.135 138.01 586.668 138.29C587.215 138.557 587.822 138.69 588.488 138.69C589.115 138.69 589.662 138.57 590.128 138.33C590.608 138.09 590.982 137.757 591.248 137.33C591.528 136.89 591.668 136.37 591.668 135.77C591.668 135.157 591.535 134.637 591.268 134.21C591.002 133.783 590.642 133.463 590.188 133.25C589.748 133.023 589.262 132.91 588.728 132.91C588.182 132.91 587.682 132.977 587.228 133.11C586.788 133.243 586.368 133.47 585.968 133.79L585.988 132.59C586.215 132.31 586.475 132.083 586.768 131.91C587.062 131.737 587.395 131.603 587.768 131.51C588.142 131.417 588.575 131.37 589.068 131.37C590.028 131.37 590.842 131.57 591.508 131.97C592.175 132.37 592.682 132.91 593.028 133.59C593.388 134.27 593.568 135.03 593.568 135.87C593.568 136.75 593.348 137.537 592.908 138.23C592.482 138.923 591.888 139.47 591.128 139.87C590.368 140.257 589.502 140.45 588.528 140.45ZM585.968 133.79L584.948 132.77L585.568 126.37H587.288L586.588 132.95L585.968 133.79ZM585.948 128.05L585.568 126.37H592.868V128.05H585.948ZM599.329 140.45C598.422 140.45 597.595 140.283 596.849 139.95C596.115 139.603 595.495 139.103 594.989 138.45L596.269 137.17C596.575 137.637 596.995 138.01 597.529 138.29C598.062 138.557 598.655 138.69 599.309 138.69C599.922 138.69 600.449 138.577 600.889 138.35C601.342 138.11 601.695 137.777 601.949 137.35C602.215 136.923 602.349 136.43 602.349 135.87C602.349 135.297 602.215 134.803 601.949 134.39C601.695 133.963 601.335 133.637 600.869 133.41C600.402 133.183 599.849 133.07 599.209 133.07C598.969 133.07 598.729 133.09 598.489 133.13C598.249 133.157 598.015 133.203 597.789 133.27L598.589 132.19C598.842 132.07 599.115 131.977 599.409 131.91C599.702 131.843 599.995 131.81 600.289 131.81C601.035 131.81 601.702 131.983 602.289 132.33C602.889 132.677 603.362 133.163 603.709 133.79C604.069 134.417 604.249 135.143 604.249 135.97C604.249 136.85 604.035 137.63 603.609 138.31C603.195 138.977 602.622 139.503 601.889 139.89C601.155 140.263 600.302 140.45 599.329 140.45ZM597.789 133.27V132.13L601.849 127.51L604.089 127.49L599.909 132.23L597.789 133.27ZM595.649 128.05V126.37H604.089V127.49L602.449 128.05H595.649ZM610.79 140.45C609.87 140.45 609.044 140.237 608.31 139.81C607.59 139.383 607.017 138.81 606.59 138.09C606.164 137.37 605.95 136.57 605.95 135.69C605.95 134.463 606.377 133.243 607.23 132.03L611.31 126.37H613.49L609.31 132.07L608.63 132.43C608.79 132.15 608.984 131.917 609.21 131.73C609.437 131.53 609.717 131.377 610.05 131.27C610.384 131.163 610.777 131.11 611.23 131.11C612.044 131.11 612.777 131.303 613.43 131.69C614.097 132.077 614.63 132.61 615.03 133.29C615.444 133.957 615.65 134.737 615.65 135.63C615.65 136.51 615.43 137.317 614.99 138.05C614.564 138.783 613.977 139.37 613.23 139.81C612.497 140.237 611.684 140.45 610.79 140.45ZM610.79 138.69C611.35 138.69 611.85 138.557 612.29 138.29C612.744 138.01 613.097 137.643 613.35 137.19C613.617 136.723 613.75 136.203 613.75 135.63C613.75 135.057 613.617 134.543 613.35 134.09C613.097 133.623 612.744 133.257 612.29 132.99C611.85 132.723 611.35 132.59 610.79 132.59C610.23 132.59 609.724 132.723 609.27 132.99C608.83 133.257 608.477 133.623 608.21 134.09C607.957 134.543 607.83 135.057 607.83 135.63C607.83 136.203 607.957 136.723 608.21 137.19C608.477 137.657 608.83 138.023 609.27 138.29C609.724 138.557 610.23 138.69 610.79 138.69ZM622.759 140.45C622.039 140.45 621.386 140.303 620.799 140.01C620.226 139.703 619.766 139.283 619.419 138.75C619.073 138.217 618.879 137.61 618.839 136.93V134.07C618.879 133.377 619.073 132.77 619.419 132.25C619.779 131.717 620.246 131.303 620.819 131.01C621.406 130.703 622.053 130.55 622.759 130.55C623.626 130.55 624.406 130.77 625.099 131.21C625.806 131.65 626.359 132.243 626.759 132.99C627.159 133.737 627.359 134.577 627.359 135.51C627.359 136.443 627.159 137.283 626.759 138.03C626.359 138.777 625.806 139.37 625.099 139.81C624.406 140.237 623.626 140.45 622.759 140.45ZM617.759 144.23V130.75H619.559V133.25L619.219 135.55L619.559 137.87V144.23H617.759ZM622.459 138.75C623.059 138.75 623.586 138.61 624.039 138.33C624.493 138.05 624.853 137.67 625.119 137.19C625.386 136.697 625.519 136.13 625.519 135.49C625.519 134.863 625.386 134.303 625.119 133.81C624.853 133.317 624.493 132.937 624.039 132.67C623.586 132.39 623.066 132.25 622.479 132.25C621.879 132.25 621.353 132.39 620.899 132.67C620.446 132.937 620.093 133.317 619.839 133.81C619.586 134.303 619.459 134.87 619.459 135.51C619.459 136.137 619.579 136.697 619.819 137.19C620.073 137.67 620.426 138.05 620.879 138.33C621.346 138.61 621.873 138.75 622.459 138.75ZM635.347 140.25L632.387 136.09L632.047 135.77L628.307 130.75H630.487L633.187 134.45L633.527 134.73L637.527 140.25H635.347ZM628.127 140.25L632.047 134.97L633.067 136.29L630.247 140.25H628.127ZM633.667 135.75L632.627 134.47L635.247 130.75H637.347L633.667 135.75Z" fill="#F6F6F8"/>
</g>
<path d="M881.705 121.25C881.705 112.966 888.421 106.25 896.705 106.25H1226.56C1234.85 106.25 1241.56 112.966 1241.56 121.25V349.917H881.705V121.25Z" fill="#F1F2F4" stroke="#646A77" stroke-width="0.5"/>
<circle cx="1063.75" cy="113.776" r="1.8816" fill="#646A77"/>
<path d="M842.191 348.271H1281.07L1274.36 350.343C1272.5 350.918 1270.56 351.211 1268.6 351.211H852.937C850.194 351.211 847.483 350.633 844.979 349.515L842.191 348.271Z" fill="#F1F2F4" stroke="#646A77" stroke-width="0.5"/>
<path d="M842.25 343.341C842.25 342.738 842.671 342.25 843.191 342.25H1280.31C1280.83 342.25 1281.25 342.738 1281.25 343.341V348.25H842.25V343.341Z" fill="#F1F2F4" stroke="#646A77" stroke-width="0.5"/>
<path d="M1030.12 342.215H1093.38V342.45C1093.38 345.048 1091.28 347.154 1088.68 347.154H1034.82C1032.22 347.154 1030.12 345.048 1030.12 342.45V342.215Z" fill="#646A77"/>
<mask id="mask1_5443_1961" style="mask-type:alpha" maskUnits="userSpaceOnUse" x="892" y="119" width="339" height="213">
<rect x="892.289" y="119.892" width="338.688" height="211.68" fill="#C4C4C4"/>
</mask>
<g mask="url(#mask1_5443_1961)">
<rect x="892.289" y="119.892" width="338.688" height="211.68" fill="#4F46E5"/>
<path d="M1033.06 232.25V218.37H1034.92V232.25H1033.06ZM1030.22 220.05V218.37H1034.72V220.05H1030.22ZM1037.2 231.11L1042.32 225.71C1042.84 225.177 1043.24 224.717 1043.54 224.33C1043.83 223.93 1044.04 223.563 1044.16 223.23C1044.29 222.897 1044.36 222.55 1044.36 222.19C1044.36 221.483 1044.13 220.93 1043.68 220.53C1043.22 220.13 1042.64 219.93 1041.92 219.93C1041.21 219.93 1040.59 220.103 1040.06 220.45C1039.52 220.783 1039.05 221.303 1038.64 222.01L1037.32 220.91C1037.86 220.003 1038.52 219.323 1039.3 218.87C1040.07 218.403 1040.96 218.17 1041.98 218.17C1042.83 218.17 1043.57 218.337 1044.2 218.67C1044.84 219.003 1045.33 219.47 1045.68 220.07C1046.02 220.67 1046.2 221.37 1046.2 222.17C1046.2 222.743 1046.12 223.257 1045.98 223.71C1045.84 224.163 1045.6 224.63 1045.24 225.11C1044.89 225.577 1044.4 226.137 1043.78 226.79L1039.64 231.05L1037.2 231.11ZM1037.2 232.25V231.11L1038.8 230.57H1046.52V232.25H1037.2ZM1052.86 232.45C1051.94 232.45 1051.12 232.277 1050.42 231.93C1049.72 231.583 1049.18 231.103 1048.8 230.49C1048.41 229.877 1048.22 229.183 1048.22 228.41C1048.22 227.783 1048.34 227.21 1048.58 226.69C1048.82 226.17 1049.17 225.73 1049.64 225.37C1050.1 224.997 1050.65 224.73 1051.28 224.57L1051.34 225.11C1050.8 224.963 1050.35 224.73 1049.98 224.41C1049.6 224.077 1049.32 223.69 1049.12 223.25C1048.93 222.797 1048.84 222.317 1048.84 221.81C1048.84 221.09 1049.01 220.457 1049.36 219.91C1049.7 219.363 1050.18 218.937 1050.78 218.63C1051.39 218.31 1052.08 218.15 1052.86 218.15C1053.64 218.15 1054.34 218.31 1054.94 218.63C1055.54 218.937 1056.01 219.363 1056.36 219.91C1056.7 220.457 1056.88 221.09 1056.88 221.81C1056.88 222.317 1056.78 222.797 1056.58 223.25C1056.39 223.69 1056.11 224.077 1055.74 224.41C1055.38 224.73 1054.93 224.963 1054.4 225.11L1054.44 224.57C1055.08 224.73 1055.62 224.997 1056.08 225.37C1056.54 225.73 1056.9 226.17 1057.14 226.69C1057.39 227.21 1057.52 227.783 1057.52 228.41C1057.52 229.183 1057.32 229.877 1056.94 230.49C1056.55 231.103 1056 231.583 1055.3 231.93C1054.6 232.277 1053.79 232.45 1052.86 232.45ZM1052.86 230.75C1053.42 230.75 1053.9 230.643 1054.32 230.43C1054.74 230.203 1055.08 229.897 1055.32 229.51C1055.57 229.123 1055.7 228.677 1055.7 228.17C1055.7 227.677 1055.57 227.237 1055.32 226.85C1055.08 226.463 1054.74 226.163 1054.32 225.95C1053.9 225.723 1053.42 225.61 1052.86 225.61C1052.31 225.61 1051.82 225.723 1051.4 225.95C1050.97 226.163 1050.63 226.463 1050.38 226.85C1050.14 227.237 1050.02 227.677 1050.02 228.17C1050.02 228.677 1050.14 229.123 1050.38 229.51C1050.63 229.897 1050.97 230.203 1051.4 230.43C1051.82 230.643 1052.31 230.75 1052.86 230.75ZM1052.86 224.15C1053.52 224.15 1054.07 223.943 1054.5 223.53C1054.92 223.117 1055.14 222.583 1055.14 221.93C1055.14 221.29 1054.92 220.77 1054.5 220.37C1054.07 219.957 1053.52 219.75 1052.86 219.75C1052.2 219.75 1051.66 219.957 1051.24 220.37C1050.81 220.77 1050.6 221.29 1050.6 221.93C1050.6 222.583 1050.81 223.117 1051.24 223.53C1051.66 223.943 1052.2 224.15 1052.86 224.15ZM1064.95 232.45C1063.91 232.45 1062.96 232.157 1062.09 231.57C1061.24 230.983 1060.56 230.157 1060.05 229.09C1059.54 228.01 1059.29 226.743 1059.29 225.29C1059.29 223.837 1059.54 222.577 1060.03 221.51C1060.54 220.443 1061.22 219.623 1062.07 219.05C1062.92 218.463 1063.86 218.17 1064.89 218.17C1065.94 218.17 1066.9 218.463 1067.75 219.05C1068.6 219.623 1069.28 220.443 1069.77 221.51C1070.28 222.577 1070.53 223.843 1070.53 225.31C1070.53 226.763 1070.28 228.03 1069.77 229.11C1069.28 230.177 1068.6 231.003 1067.75 231.59C1066.91 232.163 1065.98 232.45 1064.95 232.45ZM1064.91 230.67C1065.64 230.67 1066.28 230.47 1066.83 230.07C1067.39 229.657 1067.83 229.05 1068.15 228.25C1068.47 227.45 1068.63 226.463 1068.63 225.29C1068.63 224.117 1068.47 223.137 1068.15 222.35C1067.83 221.55 1067.39 220.95 1066.83 220.55C1066.27 220.137 1065.62 219.93 1064.89 219.93C1064.17 219.93 1063.53 220.137 1062.97 220.55C1062.41 220.95 1061.97 221.55 1061.65 222.35C1061.34 223.137 1061.19 224.117 1061.19 225.29C1061.19 226.463 1061.34 227.45 1061.65 228.25C1061.97 229.05 1062.41 229.657 1062.97 230.07C1063.53 230.47 1064.18 230.67 1064.91 230.67ZM1077.8 232.45C1077.08 232.45 1076.42 232.303 1075.84 232.01C1075.26 231.703 1074.8 231.283 1074.46 230.75C1074.11 230.217 1073.92 229.61 1073.88 228.93V226.07C1073.92 225.377 1074.11 224.77 1074.46 224.25C1074.82 223.717 1075.28 223.303 1075.86 223.01C1076.44 222.703 1077.09 222.55 1077.8 222.55C1078.66 222.55 1079.44 222.77 1080.14 223.21C1080.84 223.65 1081.4 224.243 1081.8 224.99C1082.2 225.737 1082.4 226.577 1082.4 227.51C1082.4 228.443 1082.2 229.283 1081.8 230.03C1081.4 230.777 1080.84 231.37 1080.14 231.81C1079.44 232.237 1078.66 232.45 1077.8 232.45ZM1072.8 236.23V222.75H1074.6V225.25L1074.26 227.55L1074.6 229.87V236.23H1072.8ZM1077.5 230.75C1078.1 230.75 1078.62 230.61 1079.08 230.33C1079.53 230.05 1079.89 229.67 1080.16 229.19C1080.42 228.697 1080.56 228.13 1080.56 227.49C1080.56 226.863 1080.42 226.303 1080.16 225.81C1079.89 225.317 1079.53 224.937 1079.08 224.67C1078.62 224.39 1078.1 224.25 1077.52 224.25C1076.92 224.25 1076.39 224.39 1075.94 224.67C1075.48 224.937 1075.13 225.317 1074.88 225.81C1074.62 226.303 1074.5 226.87 1074.5 227.51C1074.5 228.137 1074.62 228.697 1074.86 229.19C1075.11 229.67 1075.46 230.05 1075.92 230.33C1076.38 230.61 1076.91 230.75 1077.5 230.75ZM1090.38 232.25L1087.42 228.09L1087.08 227.77L1083.34 222.75H1085.52L1088.22 226.45L1088.56 226.73L1092.56 232.25H1090.38ZM1083.16 232.25L1087.08 226.97L1088.1 228.29L1085.28 232.25H1083.16ZM1088.7 227.75L1087.66 226.47L1090.28 222.75H1092.38L1088.7 227.75Z" fill="#F6F6F8"/>
</g>
<path d="M336.246 120.623C336.246 120.785 336.115 120.916 335.953 120.916H335.66V110.361H335.953C336.115 110.361 336.246 110.492 336.246 110.654V120.623Z" fill="#F1F2F4"/>
<path d="M322.026 89.25C322.188 89.25 322.319 89.3813 322.319 89.5432V89.8433L309.565 89.8364V89.5432C309.565 89.3813 309.696 89.25 309.858 89.25L322.026 89.25Z" fill="#F1F2F4"/>
<path d="M335.953 133.817C336.115 133.817 336.246 133.686 336.246 133.524V123.555C336.246 123.393 336.115 123.262 335.953 123.262H335.66V133.817H335.953Z" fill="#F1F2F4"/>
<path fill-rule="evenodd" clip-rule="evenodd" d="M321.879 89.8364C329.49 89.8364 335.66 96.0063 335.66 103.617L335.66 338.769C335.66 346.38 329.49 352.55 321.879 352.55H160.031C152.42 352.55 146.25 346.38 146.25 338.769L146.25 103.617C146.25 96.0063 152.42 89.8364 160.031 89.8364L321.879 89.8364ZM334.927 103.617L334.927 338.769C334.927 345.975 329.085 351.817 321.879 351.817H160.031C152.825 351.817 146.983 345.975 146.983 338.769L146.983 103.617C146.983 96.4111 152.825 90.5694 160.031 90.5694L321.879 90.5694C329.085 90.5694 334.927 96.4111 334.927 103.617Z" fill="#F1F2F4"/>
<path d="M336.246 120.623C336.246 120.785 336.115 120.916 335.953 120.916H335.66V110.361H335.953C336.115 110.361 336.246 110.492 336.246 110.654V120.623Z" stroke="#646A77" stroke-width="0.5"/>
<path d="M322.026 89.25C322.188 89.25 322.319 89.3813 322.319 89.5432V89.8433L309.565 89.8364V89.5432C309.565 89.3813 309.696 89.25 309.858 89.25L322.026 89.25Z" stroke="#646A77" stroke-width="0.5"/>
<path d="M335.953 133.817C336.115 133.817 336.246 133.686 336.246 133.524V123.555C336.246 123.393 336.115 123.262 335.953 123.262H335.66V133.817H335.953Z" stroke="#646A77" stroke-width="0.5"/>
<path fill-rule="evenodd" clip-rule="evenodd" d="M321.879 89.8364C329.49 89.8364 335.66 96.0063 335.66 103.617L335.66 338.769C335.66 346.38 329.49 352.55 321.879 352.55H160.031C152.42 352.55 146.25 346.38 146.25 338.769L146.25 103.617C146.25 96.0063 152.42 89.8364 160.031 89.8364L321.879 89.8364ZM334.927 103.617L334.927 338.769C334.927 345.975 329.085 351.817 321.879 351.817H160.031C152.825 351.817 146.983 345.975 146.983 338.769L146.983 103.617C146.983 96.4111 152.825 90.5694 160.031 90.5694L321.879 90.5694C329.085 90.5694 334.927 96.4111 334.927 103.617Z" stroke="#646A77" stroke-width="0.5"/>
<path d="M255.862 97.471C254.98 97.471 254.264 96.7553 254.264 95.8725C254.264 94.9896 254.98 94.2739 255.862 94.2739C256.745 94.2739 257.461 94.9896 257.461 95.8725C257.461 96.7553 256.745 97.471 255.862 97.471Z" fill="#646A77"/>
<path fill-rule="evenodd" clip-rule="evenodd" d="M245.129 95.8725C245.129 96.5662 245.692 97.1285 246.385 97.1285C247.079 97.1285 247.641 96.5662 247.641 95.8725C247.641 95.1788 247.079 94.6165 246.385 94.6165C245.692 94.6165 245.129 95.1788 245.129 95.8725ZM245.586 95.8725C245.586 96.3139 245.944 96.6718 246.385 96.6718C246.827 96.6718 247.184 96.3139 247.184 95.8725C247.184 95.4311 246.827 95.0732 246.385 95.0732C245.944 95.0732 245.586 95.4311 245.586 95.8725Z" fill="#646A77"/>
<path d="M238.507 95.8725C238.507 96.7553 239.222 97.471 240.105 97.471C240.988 97.471 241.704 96.7553 241.704 95.8725C241.704 94.9896 240.988 94.2739 240.105 94.2739C239.222 94.2739 238.507 94.9896 238.507 95.8725Z" fill="#646A77"/>
<path d="M234.853 97.0143C234.222 97.0143 233.711 96.5031 233.711 95.8725C233.711 95.2419 234.222 94.7307 234.853 94.7307C235.483 94.7307 235.995 95.2419 235.995 95.8725C235.995 96.5031 235.483 97.0143 234.853 97.0143Z" fill="#646A77"/>
<path d="M250.382 95.8725C250.382 95.9986 250.484 96.1008 250.61 96.1008C250.736 96.1008 250.838 95.9986 250.838 95.8725C250.838 95.7464 250.736 95.6441 250.61 95.6441C250.484 95.6441 250.382 95.7464 250.382 95.8725Z" fill="#646A77"/>
<path d="M246.956 95.8724C246.956 96.1877 246.701 96.4433 246.385 96.4433C246.07 96.4433 245.814 96.1877 245.814 95.8724C245.814 95.5571 246.07 95.3015 246.385 95.3015C246.701 95.3015 246.956 95.5571 246.956 95.8724Z" fill="#F1F2F4"/>
<mask id="mask2_5443_1961" style="mask-type:alpha" maskUnits="userSpaceOnUse" x="156" y="99" width="171" height="245">
<path d="M159.494 343.187C157.602 343.187 156.068 341.653 156.068 339.762V102.723C156.068 100.831 157.602 99.2979 159.494 99.2979H323C324.892 99.2979 326.425 100.831 326.425 102.723V339.762C326.425 341.653 324.892 343.187 323 343.187H159.494Z" fill="#C4C4C4"/>
</mask>
<g mask="url(#mask2_5443_1961)">
<path d="M322.682 99.2979C324.623 99.2979 326.197 100.874 326.197 102.818L326.197 339.667C326.197 341.611 324.623 343.187 322.682 343.187L159.356 343.187C157.414 343.187 155.84 341.611 155.84 339.667L155.84 102.818C155.84 100.874 157.414 99.2978 159.356 99.2978L322.682 99.2979Z" fill="#4F46E5"/>
<path d="M217.292 228.25L222.492 215.47L224.352 215.53L219.272 228.25H217.292ZM215.112 216.05V214.37H224.352V215.53L223.532 216.05H215.112ZM229.937 228.45C229.017 228.45 228.19 228.237 227.457 227.81C226.737 227.383 226.164 226.81 225.737 226.09C225.31 225.37 225.097 224.57 225.097 223.69C225.097 222.463 225.524 221.243 226.377 220.03L230.457 214.37H232.637L228.457 220.07L227.777 220.43C227.937 220.15 228.13 219.917 228.357 219.73C228.584 219.53 228.864 219.377 229.197 219.27C229.53 219.163 229.924 219.11 230.377 219.11C231.19 219.11 231.924 219.303 232.577 219.69C233.244 220.077 233.777 220.61 234.177 221.29C234.59 221.957 234.797 222.737 234.797 223.63C234.797 224.51 234.577 225.317 234.137 226.05C233.71 226.783 233.124 227.37 232.377 227.81C231.644 228.237 230.83 228.45 229.937 228.45ZM229.937 226.69C230.497 226.69 230.997 226.557 231.437 226.29C231.89 226.01 232.244 225.643 232.497 225.19C232.764 224.723 232.897 224.203 232.897 223.63C232.897 223.057 232.764 222.543 232.497 222.09C232.244 221.623 231.89 221.257 231.437 220.99C230.997 220.723 230.497 220.59 229.937 220.59C229.377 220.59 228.87 220.723 228.417 220.99C227.977 221.257 227.624 221.623 227.357 222.09C227.104 222.543 226.977 223.057 226.977 223.63C226.977 224.203 227.104 224.723 227.357 225.19C227.624 225.657 227.977 226.023 228.417 226.29C228.87 226.557 229.377 226.69 229.937 226.69ZM241.086 228.45C240.166 228.45 239.353 228.277 238.646 227.93C237.953 227.583 237.413 227.103 237.026 226.49C236.639 225.877 236.446 225.183 236.446 224.41C236.446 223.783 236.566 223.21 236.806 222.69C237.046 222.17 237.399 221.73 237.866 221.37C238.333 220.997 238.879 220.73 239.506 220.57L239.566 221.11C239.033 220.963 238.579 220.73 238.206 220.41C237.833 220.077 237.546 219.69 237.346 219.25C237.159 218.797 237.066 218.317 237.066 217.81C237.066 217.09 237.239 216.457 237.586 215.91C237.933 215.363 238.406 214.937 239.006 214.63C239.619 214.31 240.313 214.15 241.086 214.15C241.873 214.15 242.566 214.31 243.166 214.63C243.766 214.937 244.239 215.363 244.586 215.91C244.933 216.457 245.106 217.09 245.106 217.81C245.106 218.317 245.006 218.797 244.806 219.25C244.619 219.69 244.339 220.077 243.966 220.41C243.606 220.73 243.159 220.963 242.626 221.11L242.666 220.57C243.306 220.73 243.853 220.997 244.306 221.37C244.773 221.73 245.126 222.17 245.366 222.69C245.619 223.21 245.746 223.783 245.746 224.41C245.746 225.183 245.553 225.877 245.166 226.49C244.779 227.103 244.233 227.583 243.526 227.93C242.833 228.277 242.019 228.45 241.086 228.45ZM241.086 226.75C241.646 226.75 242.133 226.643 242.546 226.43C242.973 226.203 243.306 225.897 243.546 225.51C243.799 225.123 243.926 224.677 243.926 224.17C243.926 223.677 243.799 223.237 243.546 222.85C243.306 222.463 242.973 222.163 242.546 221.95C242.133 221.723 241.646 221.61 241.086 221.61C240.539 221.61 240.053 221.723 239.626 221.95C239.199 222.163 238.859 222.463 238.606 222.85C238.366 223.237 238.246 223.677 238.246 224.17C238.246 224.677 238.366 225.123 238.606 225.51C238.859 225.897 239.199 226.203 239.626 226.43C240.053 226.643 240.539 226.75 241.086 226.75ZM241.086 220.15C241.753 220.15 242.299 219.943 242.726 219.53C243.153 219.117 243.366 218.583 243.366 217.93C243.366 217.29 243.153 216.77 242.726 216.37C242.299 215.957 241.753 215.75 241.086 215.75C240.433 215.75 239.893 215.957 239.466 216.37C239.039 216.77 238.826 217.29 238.826 217.93C238.826 218.583 239.039 219.117 239.466 219.53C239.893 219.943 240.433 220.15 241.086 220.15ZM252.902 228.45C252.182 228.45 251.529 228.303 250.942 228.01C250.369 227.703 249.909 227.283 249.562 226.75C249.215 226.217 249.022 225.61 248.982 224.93V222.07C249.022 221.377 249.215 220.77 249.562 220.25C249.922 219.717 250.389 219.303 250.962 219.01C251.549 218.703 252.195 218.55 252.902 218.55C253.769 218.55 254.549 218.77 255.242 219.21C255.949 219.65 256.502 220.243 256.902 220.99C257.302 221.737 257.502 222.577 257.502 223.51C257.502 224.443 257.302 225.283 256.902 226.03C256.502 226.777 255.949 227.37 255.242 227.81C254.549 228.237 253.769 228.45 252.902 228.45ZM247.902 232.23V218.75H249.702V221.25L249.362 223.55L249.702 225.87V232.23H247.902ZM252.602 226.75C253.202 226.75 253.729 226.61 254.182 226.33C254.635 226.05 254.995 225.67 255.262 225.19C255.529 224.697 255.662 224.13 255.662 223.49C255.662 222.863 255.529 222.303 255.262 221.81C254.995 221.317 254.635 220.937 254.182 220.67C253.729 220.39 253.209 220.25 252.622 220.25C252.022 220.25 251.495 220.39 251.042 220.67C250.589 220.937 250.235 221.317 249.982 221.81C249.729 222.303 249.602 222.87 249.602 223.51C249.602 224.137 249.722 224.697 249.962 225.19C250.215 225.67 250.569 226.05 251.022 226.33C251.489 226.61 252.015 226.75 252.602 226.75ZM265.49 228.25L262.53 224.09L262.19 223.77L258.45 218.75H260.63L263.33 222.45L263.67 222.73L267.67 228.25H265.49ZM258.27 228.25L262.19 222.97L263.21 224.29L260.39 228.25H258.27ZM263.81 223.75L262.77 222.47L265.39 218.75H267.49L263.81 223.75Z" fill="white"/>
</g>
<path d="M104.25 211.341C104.25 210.816 103.824 210.39 103.299 210.39H102.822C102.297 210.39 101.871 210.816 101.871 211.341V233.69C101.871 234.215 102.297 234.641 102.822 234.641H103.299C103.824 234.641 104.25 234.215 104.25 233.69V211.341Z" stroke="#646A77" stroke-width="0.5"/>
<path d="M103.774 211.341C103.774 211.079 103.561 210.866 103.298 210.866H101.871C101.608 210.866 101.395 211.079 101.395 211.341V233.69C101.395 233.953 101.608 234.165 101.871 234.165H103.298C103.561 234.165 103.774 233.953 103.774 233.69V211.341Z" stroke="#646A77" stroke-width="0.5"/>
<path d="M0.250877 247.773C0.250877 248.298 0.676656 248.724 1.20188 248.724H1.71261C2.23783 248.724 2.66361 248.298 2.66361 247.773L2.66361 233.549C2.66361 233.024 2.23783 232.598 1.71261 232.598H1.20188C0.676655 232.598 0.250875 233.024 0.250876 233.549L0.250877 247.773Z" stroke="#646A77" stroke-width="0.5"/>
<path d="M0.70353 247.796C0.70353 248.059 0.916419 248.272 1.17903 248.272H2.64076C2.90338 248.272 3.11627 248.059 3.11627 247.796L3.11626 233.526C3.11626 233.263 2.90337 233.05 2.64076 233.05L1.17903 233.05C0.916418 233.05 0.703528 233.263 0.703528 233.526L0.70353 247.796Z" stroke="#646A77" stroke-width="0.5"/>
<path d="M0.250002 225.317C0.250002 225.843 0.675781 226.268 1.20101 226.268H1.71173C2.23696 226.268 2.66274 225.843 2.66274 225.317L2.66274 211.395C2.66274 210.87 2.23696 210.444 1.71173 210.444H1.201C0.67578 210.444 0.25 210.87 0.25 211.395L0.250002 225.317Z" stroke="#646A77" stroke-width="0.5"/>
<path d="M0.702216 225.491C0.702216 225.754 0.915106 225.967 1.17772 225.967H2.63945C2.90206 225.967 3.11495 225.754 3.11495 225.491L3.11495 211.221C3.11495 210.958 2.90206 210.745 2.63945 210.745H1.17772C0.915104 210.745 0.702214 210.958 0.702214 211.221L0.702216 225.491Z" stroke="#646A77" stroke-width="0.5"/>
<path d="M0.401031 203.766C0.401031 204.291 0.82681 204.717 1.35203 204.717H1.86276C2.38799 204.717 2.81377 204.291 2.81377 203.766L2.81377 198.735C2.81377 198.21 2.38799 197.784 1.86276 197.784L1.35203 197.784C0.82681 197.784 0.40103 198.21 0.40103 198.735L0.401031 203.766Z" stroke="#646A77" stroke-width="0.5"/>
<path d="M0.853683 203.789C0.853683 204.052 1.06657 204.265 1.32918 204.265H2.79092C3.05353 204.265 3.26642 204.052 3.26642 203.789L3.26642 198.712C3.26642 198.449 3.05353 198.236 2.79092 198.236L1.32918 198.236C1.06657 198.236 0.853682 198.449 0.853682 198.712L0.853683 203.789Z" stroke="#646A77" stroke-width="0.5"/>
<path d="M1.37109 166.082C1.37109 156.234 9.35492 148.25 19.2035 148.25H85.2971C95.1456 148.25 103.129 156.234 103.129 166.082V334.407C103.129 344.256 95.1456 352.24 85.2971 352.24H19.2035C9.35492 352.24 1.37109 344.256 1.37109 334.407V166.082Z" fill="#646A77"/>
<path d="M1.81836 166.291C1.81836 156.575 9.69481 148.698 19.4109 148.698H85.0316C94.7477 148.698 102.624 156.575 102.624 166.291V334.145C102.624 343.861 94.7477 351.738 85.0316 351.738H19.4109C9.69481 351.738 1.81836 343.861 1.81836 334.145V166.291Z" fill="#F1F2F4"/>
<path d="M2.26758 166.264C2.26758 156.81 9.93129 149.146 19.3849 149.146H85.0056C94.4593 149.146 102.123 156.81 102.123 166.264V334.118C102.123 343.572 94.4593 351.235 85.0056 351.235H19.385C9.93129 351.235 2.26758 343.572 2.26758 334.118V166.264Z" fill="#F1F2F4"/>
<path fill-rule="evenodd" clip-rule="evenodd" d="M20.0029 151.612C11.5692 151.612 4.73242 158.449 4.73242 166.883V333.39C4.73242 341.823 11.5693 348.66 20.0029 348.66H84.2765C92.7102 348.66 99.547 341.823 99.547 333.39V166.883C99.547 158.449 92.7102 151.612 84.2765 151.612H70.1805C69.837 151.731 69.15 152.135 69.15 152.801V154.302C69.15 157.025 66.9423 159.233 64.219 159.233H40.2801C37.5568 159.233 35.3491 157.025 35.3491 154.302V152.801C35.3491 152.135 34.6621 151.731 34.3186 151.612H20.0029Z" fill="#4F46E5"/>
<path d="M31.3526 255.45C30.4059 255.45 29.5592 255.283 28.8126 254.95C28.0792 254.603 27.4592 254.103 26.9526 253.45L28.2326 252.17C28.5392 252.637 28.9592 253.01 29.4926 253.29C30.0392 253.557 30.6459 253.69 31.3126 253.69C31.9392 253.69 32.4859 253.57 32.9526 253.33C33.4326 253.09 33.8059 252.757 34.0726 252.33C34.3526 251.89 34.4926 251.37 34.4926 250.77C34.4926 250.157 34.3592 249.637 34.0926 249.21C33.8259 248.783 33.4659 248.463 33.0126 248.25C32.5726 248.023 32.0859 247.91 31.5526 247.91C31.0059 247.91 30.5059 247.977 30.0526 248.11C29.6126 248.243 29.1926 248.47 28.7926 248.79L28.8126 247.59C29.0392 247.31 29.2992 247.083 29.5926 246.91C29.8859 246.737 30.2192 246.603 30.5926 246.51C30.9659 246.417 31.3992 246.37 31.8926 246.37C32.8526 246.37 33.6659 246.57 34.3326 246.97C34.9992 247.37 35.5059 247.91 35.8526 248.59C36.2126 249.27 36.3926 250.03 36.3926 250.87C36.3926 251.75 36.1726 252.537 35.7326 253.23C35.3059 253.923 34.7126 254.47 33.9526 254.87C33.1926 255.257 32.3259 255.45 31.3526 255.45ZM28.7926 248.79L27.7726 247.77L28.3926 241.37H30.1126L29.4126 247.95L28.7926 248.79ZM28.7726 243.05L28.3926 241.37H35.6926V243.05H28.7726ZM39.3879 255.25L44.5879 242.47L46.4479 242.53L41.3679 255.25H39.3879ZM37.2079 243.05V241.37H46.4479V242.53L45.6279 243.05H37.2079ZM52.0326 255.45C51.1126 255.45 50.2859 255.237 49.5526 254.81C48.8326 254.383 48.2592 253.81 47.8326 253.09C47.4059 252.37 47.1926 251.57 47.1926 250.69C47.1926 249.463 47.6192 248.243 48.4726 247.03L52.5526 241.37H54.7326L50.5526 247.07L49.8726 247.43C50.0326 247.15 50.2259 246.917 50.4526 246.73C50.6792 246.53 50.9592 246.377 51.2926 246.27C51.6259 246.163 52.0192 246.11 52.4726 246.11C53.2859 246.11 54.0192 246.303 54.6726 246.69C55.3392 247.077 55.8726 247.61 56.2726 248.29C56.6859 248.957 56.8926 249.737 56.8926 250.63C56.8926 251.51 56.6726 252.317 56.2326 253.05C55.8059 253.783 55.2192 254.37 54.4726 254.81C53.7392 255.237 52.9259 255.45 52.0326 255.45ZM52.0326 253.69C52.5926 253.69 53.0926 253.557 53.5326 253.29C53.9859 253.01 54.3392 252.643 54.5926 252.19C54.8592 251.723 54.9926 251.203 54.9926 250.63C54.9926 250.057 54.8592 249.543 54.5926 249.09C54.3392 248.623 53.9859 248.257 53.5326 247.99C53.0926 247.723 52.5926 247.59 52.0326 247.59C51.4726 247.59 50.9659 247.723 50.5126 247.99C50.0726 248.257 49.7192 248.623 49.4526 249.09C49.1992 249.543 49.0726 250.057 49.0726 250.63C49.0726 251.203 49.1992 251.723 49.4526 252.19C49.7192 252.657 50.0726 253.023 50.5126 253.29C50.9659 253.557 51.4726 253.69 52.0326 253.69ZM64.0016 255.45C63.2816 255.45 62.6283 255.303 62.0416 255.01C61.4683 254.703 61.0083 254.283 60.6616 253.75C60.315 253.217 60.1216 252.61 60.0816 251.93V249.07C60.1216 248.377 60.315 247.77 60.6616 247.25C61.0216 246.717 61.4883 246.303 62.0616 246.01C62.6483 245.703 63.295 245.55 64.0016 245.55C64.8683 245.55 65.6483 245.77 66.3416 246.21C67.0483 246.65 67.6016 247.243 68.0016 247.99C68.4016 248.737 68.6016 249.577 68.6016 250.51C68.6016 251.443 68.4016 252.283 68.0016 253.03C67.6016 253.777 67.0483 254.37 66.3416 254.81C65.6483 255.237 64.8683 255.45 64.0016 255.45ZM59.0016 259.23V245.75H60.8016V248.25L60.4616 250.55L60.8016 252.87V259.23H59.0016ZM63.7016 253.75C64.3016 253.75 64.8283 253.61 65.2816 253.33C65.735 253.05 66.095 252.67 66.3616 252.19C66.6283 251.697 66.7616 251.13 66.7616 250.49C66.7616 249.863 66.6283 249.303 66.3616 248.81C66.095 248.317 65.735 247.937 65.2816 247.67C64.8283 247.39 64.3083 247.25 63.7216 247.25C63.1216 247.25 62.595 247.39 62.1416 247.67C61.6883 247.937 61.335 248.317 61.0816 248.81C60.8283 249.303 60.7016 249.87 60.7016 250.51C60.7016 251.137 60.8216 251.697 61.0616 252.19C61.315 252.67 61.6683 253.05 62.1216 253.33C62.5883 253.61 63.115 253.75 63.7016 253.75ZM76.5893 255.25L73.6293 251.09L73.2893 250.77L69.5493 245.75H71.7293L74.4293 249.45L74.7693 249.73L78.7693 255.25H76.5893ZM69.3693 255.25L73.2893 249.97L74.3093 251.29L71.4893 255.25H69.3693ZM74.9093 250.75L73.8693 249.47L76.4893 245.75H78.5893L74.9093 250.75Z" fill="#F6F6F8"/>
<circle cx="40.1466" cy="154.526" r="1.7931" fill="#646A77"/>
</svg>
