<svg width="1392" height="419" viewBox="0 0 1392 419" fill="none" xmlns="http://www.w3.org/2000/svg">
<rect width="1392" height="419" rx="24" fill="#3F4350"/>
<path d="M32 40C32 35.5817 35.5817 32 40 32H1352C1356.42 32 1360 35.5817 1360 40V379C1360 383.418 1356.42 387 1352 387H40C35.5818 387 32 383.418 32 379V40Z" fill="#0D0E11"/>
<path opacity="0.1" d="M150 36C150 33.7909 151.791 32 154 32H314.667C316.876 32 318.667 33.7909 318.667 36V383C318.667 385.209 316.876 387 314.667 387H154C151.791 387 150 385.209 150 383V36Z" fill="#F6F6F8"/>
<path opacity="0.1" d="M334.666 36C334.666 33.7909 336.457 32 338.666 32H499.333C501.542 32 503.333 33.7909 503.333 36V383C503.333 385.209 501.542 387 499.333 387H338.666C336.457 387 334.666 385.209 334.666 383V36Z" fill="#F6F6F8"/>
<path opacity="0.1" d="M519.334 36C519.334 33.7909 521.125 32 523.334 32H684.001C686.21 32 688.001 33.7909 688.001 36V383C688.001 385.209 686.21 387 684.001 387H523.334C521.125 387 519.334 385.209 519.334 383V36Z" fill="#F6F6F8"/>
<path opacity="0.1" d="M704 36C704 33.7909 705.791 32 708 32H868.667C870.876 32 872.667 33.7909 872.667 36V383C872.667 385.209 870.876 387 868.667 387H708C705.791 387 704 385.209 704 383V36Z" fill="#F6F6F8"/>
<path opacity="0.1" d="M888.666 36C888.666 33.7909 890.457 32 892.666 32H1053.33C1055.54 32 1057.33 33.7909 1057.33 36V383C1057.33 385.209 1055.54 387 1053.33 387H892.666C890.457 387 888.666 385.209 888.666 383V36Z" fill="#F6F6F8"/>
<path opacity="0.1" d="M1073.33 36C1073.33 33.7909 1075.12 32 1077.33 32H1238C1240.21 32 1242 33.7909 1242 36V383C1242 385.209 1240.21 387 1238 387H1077.33C1075.12 387 1073.33 385.209 1073.33 383V36Z" fill="#F6F6F8"/>
<g clip-path="url(#clip0_3890_15508)">
<rect x="704" y="166" width="1" height="9" rx="0.5" fill="#9747FF"/>
<rect x="872" y="166" width="1" height="9" rx="0.5" fill="#9747FF"/>
<rect x="705" y="170" width="167" height="1" fill="#9747FF"/>
</g>
<g clip-path="url(#clip1_3890_15508)">
<rect x="32" y="166" width="1" height="9" rx="0.5" fill="#9747FF"/>
<rect x="149" y="166" width="1" height="9" rx="0.5" fill="#9747FF"/>
<rect x="33" y="170" width="116" height="1" fill="#9747FF"/>
</g>
<g clip-path="url(#clip2_3890_15508)">
<rect x="1057" y="166" width="1" height="9" rx="0.5" fill="#9747FF"/>
<rect x="1072" y="166" width="1" height="9" rx="0.5" fill="#9747FF"/>
<rect x="1058" y="170" width="14" height="1" fill="#9747FF"/>
</g>
<g clip-path="url(#clip3_3890_15508)">
<rect x="1242" y="166" width="1" height="9" rx="0.5" fill="#9747FF"/>
<rect x="1359" y="166" width="1" height="9" rx="0.5" fill="#9747FF"/>
<rect x="1243" y="170" width="116" height="1" fill="#9747FF"/>
</g>
<path d="M1269.64 217V203.12H1270.96L1276.84 212.78H1275.94L1281.82 203.12H1283.14V217H1281.26V206.42L1281.7 206.54L1277.06 214.16H1275.74L1271.1 206.54L1271.52 206.42V217H1269.64ZM1290.14 217.2C1289.27 217.2 1288.48 216.987 1287.78 216.56C1287.07 216.12 1286.51 215.527 1286.1 214.78C1285.7 214.033 1285.5 213.193 1285.5 212.26C1285.5 211.327 1285.7 210.487 1286.1 209.74C1286.51 208.993 1287.06 208.4 1287.76 207.96C1288.46 207.52 1289.26 207.3 1290.14 207.3C1290.86 207.3 1291.5 207.453 1292.06 207.76C1292.63 208.053 1293.09 208.467 1293.44 209C1293.78 209.52 1293.98 210.127 1294.02 210.82V213.68C1293.98 214.36 1293.78 214.967 1293.44 215.5C1293.1 216.033 1292.65 216.453 1292.08 216.76C1291.52 217.053 1290.87 217.2 1290.14 217.2ZM1290.44 215.5C1291.33 215.5 1292.05 215.2 1292.6 214.6C1293.14 213.987 1293.42 213.207 1293.42 212.26C1293.42 211.607 1293.29 211.04 1293.04 210.56C1292.8 210.067 1292.45 209.687 1292 209.42C1291.54 209.14 1291.02 209 1290.42 209C1289.82 209 1289.28 209.14 1288.82 209.42C1288.36 209.7 1288 210.087 1287.74 210.58C1287.48 211.06 1287.36 211.613 1287.36 212.24C1287.36 212.88 1287.48 213.447 1287.74 213.94C1288 214.42 1288.37 214.8 1288.84 215.08C1289.3 215.36 1289.84 215.5 1290.44 215.5ZM1293.3 217V214.44L1293.64 212.12L1293.3 209.82V207.5H1295.12V217H1293.3ZM1297.74 217V207.5H1299.54V217H1297.74ZM1299.54 211.58L1298.86 211.28C1298.86 210.067 1299.14 209.1 1299.7 208.38C1300.26 207.66 1301.06 207.3 1302.12 207.3C1302.6 207.3 1303.03 207.387 1303.42 207.56C1303.8 207.72 1304.16 207.993 1304.5 208.38L1303.32 209.6C1303.12 209.387 1302.9 209.233 1302.66 209.14C1302.42 209.047 1302.14 209 1301.82 209C1301.15 209 1300.6 209.213 1300.18 209.64C1299.75 210.067 1299.54 210.713 1299.54 211.58ZM1309.39 221.18C1308.42 221.18 1307.55 221 1306.79 220.64C1306.05 220.28 1305.45 219.773 1304.99 219.12L1306.15 217.94C1306.54 218.433 1307 218.807 1307.53 219.06C1308.07 219.327 1308.7 219.46 1309.43 219.46C1310.41 219.46 1311.17 219.2 1311.73 218.68C1312.31 218.173 1312.59 217.487 1312.59 216.62V214.26L1312.91 212.12L1312.59 210V207.5H1314.39V216.62C1314.39 217.527 1314.18 218.32 1313.75 219C1313.34 219.68 1312.75 220.213 1311.99 220.6C1311.25 220.987 1310.38 221.18 1309.39 221.18ZM1309.39 216.84C1308.53 216.84 1307.75 216.633 1307.05 216.22C1306.37 215.807 1305.83 215.24 1305.43 214.52C1305.03 213.787 1304.83 212.967 1304.83 212.06C1304.83 211.153 1305.03 210.347 1305.43 209.64C1305.83 208.92 1306.37 208.353 1307.05 207.94C1307.75 207.513 1308.53 207.3 1309.39 207.3C1310.14 207.3 1310.8 207.447 1311.37 207.74C1311.95 208.033 1312.4 208.447 1312.73 208.98C1313.08 209.5 1313.27 210.113 1313.29 210.82V213.34C1313.25 214.033 1313.06 214.647 1312.71 215.18C1312.38 215.7 1311.93 216.107 1311.35 216.4C1310.78 216.693 1310.13 216.84 1309.39 216.84ZM1309.75 215.14C1310.34 215.14 1310.85 215.013 1311.29 214.76C1311.75 214.507 1312.09 214.153 1312.33 213.7C1312.57 213.233 1312.69 212.693 1312.69 212.08C1312.69 211.467 1312.57 210.933 1312.31 210.48C1312.07 210.013 1311.73 209.653 1311.29 209.4C1310.85 209.133 1310.33 209 1309.73 209C1309.13 209 1308.61 209.133 1308.15 209.4C1307.7 209.653 1307.34 210.013 1307.07 210.48C1306.82 210.933 1306.69 211.46 1306.69 212.06C1306.69 212.66 1306.82 213.193 1307.07 213.66C1307.34 214.127 1307.7 214.493 1308.15 214.76C1308.62 215.013 1309.15 215.14 1309.75 215.14ZM1317.05 217V207.5H1318.85V217H1317.05ZM1317.95 205.6C1317.62 205.6 1317.35 205.493 1317.13 205.28C1316.92 205.053 1316.81 204.773 1316.81 204.44C1316.81 204.12 1316.92 203.853 1317.13 203.64C1317.35 203.413 1317.62 203.3 1317.95 203.3C1318.29 203.3 1318.56 203.413 1318.77 203.64C1318.99 203.853 1319.09 204.12 1319.09 204.44C1319.09 204.773 1318.99 205.053 1318.77 205.28C1318.56 205.493 1318.29 205.6 1317.95 205.6ZM1328.23 217V211.46C1328.23 210.74 1328 210.147 1327.55 209.68C1327.09 209.213 1326.51 208.98 1325.79 208.98C1325.31 208.98 1324.88 209.087 1324.51 209.3C1324.13 209.513 1323.84 209.807 1323.63 210.18C1323.41 210.553 1323.31 210.98 1323.31 211.46L1322.57 211.04C1322.57 210.32 1322.73 209.68 1323.05 209.12C1323.37 208.56 1323.81 208.12 1324.39 207.8C1324.96 207.467 1325.61 207.3 1326.33 207.3C1327.05 207.3 1327.68 207.48 1328.23 207.84C1328.79 208.2 1329.23 208.673 1329.55 209.26C1329.87 209.833 1330.03 210.447 1330.03 211.1V217H1328.23ZM1321.51 217V207.5H1323.31V217H1321.51Z" fill="#F1F2F4"/>
<path d="M55.64 217V203.12H56.96L62.84 212.78H61.94L67.82 203.12H69.14V217H67.26V206.42L67.7 206.54L63.06 214.16H61.74L57.1 206.54L57.52 206.42V217H55.64ZM76.1373 217.2C75.2707 217.2 74.484 216.987 73.7773 216.56C73.0707 216.12 72.5107 215.527 72.0973 214.78C71.6973 214.033 71.4973 213.193 71.4973 212.26C71.4973 211.327 71.6973 210.487 72.0973 209.74C72.5107 208.993 73.064 208.4 73.7573 207.96C74.464 207.52 75.2573 207.3 76.1373 207.3C76.8573 207.3 77.4973 207.453 78.0573 207.76C78.6307 208.053 79.0907 208.467 79.4373 209C79.784 209.52 79.9773 210.127 80.0173 210.82V213.68C79.9773 214.36 79.784 214.967 79.4373 215.5C79.104 216.033 78.6507 216.453 78.0773 216.76C77.5173 217.053 76.8707 217.2 76.1373 217.2ZM76.4373 215.5C77.3307 215.5 78.0507 215.2 78.5973 214.6C79.144 213.987 79.4173 213.207 79.4173 212.26C79.4173 211.607 79.2907 211.04 79.0373 210.56C78.7973 210.067 78.4507 209.687 77.9973 209.42C77.544 209.14 77.0173 209 76.4173 209C75.8173 209 75.284 209.14 74.8173 209.42C74.364 209.7 74.004 210.087 73.7373 210.58C73.484 211.06 73.3573 211.613 73.3573 212.24C73.3573 212.88 73.484 213.447 73.7373 213.94C74.004 214.42 74.3707 214.8 74.8373 215.08C75.304 215.36 75.8373 215.5 76.4373 215.5ZM79.2973 217V214.44L79.6373 212.12L79.2973 209.82V207.5H81.1173V217H79.2973ZM83.738 217V207.5H85.538V217H83.738ZM85.538 211.58L84.858 211.28C84.858 210.067 85.138 209.1 85.698 208.38C86.258 207.66 87.0646 207.3 88.118 207.3C88.598 207.3 89.0313 207.387 89.418 207.56C89.8046 207.72 90.1646 207.993 90.498 208.38L89.318 209.6C89.118 209.387 88.898 209.233 88.658 209.14C88.418 209.047 88.138 209 87.818 209C87.1513 209 86.6046 209.213 86.178 209.64C85.7513 210.067 85.538 210.713 85.538 211.58ZM95.3928 221.18C94.4195 221.18 93.5528 221 92.7928 220.64C92.0461 220.28 91.4461 219.773 90.9928 219.12L92.1528 217.94C92.5395 218.433 92.9995 218.807 93.5328 219.06C94.0661 219.327 94.6995 219.46 95.4328 219.46C96.4061 219.46 97.1728 219.2 97.7328 218.68C98.3061 218.173 98.5928 217.487 98.5928 216.62V214.26L98.9128 212.12L98.5928 210V207.5H100.393V216.62C100.393 217.527 100.179 218.32 99.7528 219C99.3395 219.68 98.7528 220.213 97.9928 220.6C97.2461 220.987 96.3795 221.18 95.3928 221.18ZM95.3928 216.84C94.5261 216.84 93.7461 216.633 93.0528 216.22C92.3728 215.807 91.8328 215.24 91.4328 214.52C91.0328 213.787 90.8328 212.967 90.8328 212.06C90.8328 211.153 91.0328 210.347 91.4328 209.64C91.8328 208.92 92.3728 208.353 93.0528 207.94C93.7461 207.513 94.5261 207.3 95.3928 207.3C96.1395 207.3 96.7995 207.447 97.3728 207.74C97.9461 208.033 98.3995 208.447 98.7328 208.98C99.0795 209.5 99.2661 210.113 99.2928 210.82V213.34C99.2528 214.033 99.0595 214.647 98.7128 215.18C98.3795 215.7 97.9261 216.107 97.3528 216.4C96.7795 216.693 96.1261 216.84 95.3928 216.84ZM95.7528 215.14C96.3395 215.14 96.8528 215.013 97.2928 214.76C97.7461 214.507 98.0928 214.153 98.3328 213.7C98.5728 213.233 98.6928 212.693 98.6928 212.08C98.6928 211.467 98.5661 210.933 98.3128 210.48C98.0728 210.013 97.7328 209.653 97.2928 209.4C96.8528 209.133 96.3328 209 95.7328 209C95.1328 209 94.6061 209.133 94.1528 209.4C93.6995 209.653 93.3395 210.013 93.0728 210.48C92.8195 210.933 92.6928 211.46 92.6928 212.06C92.6928 212.66 92.8195 213.193 93.0728 213.66C93.3395 214.127 93.6995 214.493 94.1528 214.76C94.6195 215.013 95.1528 215.14 95.7528 215.14ZM103.055 217V207.5H104.855V217H103.055ZM103.955 205.6C103.622 205.6 103.348 205.493 103.135 205.28C102.922 205.053 102.815 204.773 102.815 204.44C102.815 204.12 102.922 203.853 103.135 203.64C103.348 203.413 103.622 203.3 103.955 203.3C104.288 203.3 104.562 203.413 104.775 203.64C104.988 203.853 105.095 204.12 105.095 204.44C105.095 204.773 104.988 205.053 104.775 205.28C104.562 205.493 104.288 205.6 103.955 205.6ZM114.228 217V211.46C114.228 210.74 114.001 210.147 113.548 209.68C113.094 209.213 112.508 208.98 111.788 208.98C111.308 208.98 110.881 209.087 110.508 209.3C110.134 209.513 109.841 209.807 109.628 210.18C109.414 210.553 109.308 210.98 109.308 211.46L108.568 211.04C108.568 210.32 108.728 209.68 109.048 209.12C109.368 208.56 109.814 208.12 110.388 207.8C110.961 207.467 111.608 207.3 112.328 207.3C113.048 207.3 113.681 207.48 114.228 207.84C114.788 208.2 115.228 208.673 115.548 209.26C115.868 209.833 116.028 210.447 116.028 211.1V217H114.228ZM107.507 217V207.5H109.308V217H107.507Z" fill="#F1F2F4"/>
<path d="M765.94 217.2C764.94 217.2 764.013 217.02 763.16 216.66C762.307 216.287 761.56 215.773 760.92 215.12C760.293 214.467 759.807 213.707 759.46 212.84C759.113 211.973 758.94 211.047 758.94 210.06C758.94 209.06 759.113 208.127 759.46 207.26C759.807 206.393 760.293 205.64 760.92 205C761.56 204.347 762.3 203.84 763.14 203.48C763.993 203.107 764.92 202.92 765.92 202.92C767.013 202.92 767.973 203.107 768.8 203.48C769.627 203.853 770.36 204.36 771 205L769.7 206.3C769.26 205.807 768.72 205.42 768.08 205.14C767.453 204.86 766.733 204.72 765.92 204.72C765.187 204.72 764.513 204.853 763.9 205.12C763.287 205.373 762.753 205.74 762.3 206.22C761.847 206.7 761.493 207.267 761.24 207.92C761 208.573 760.88 209.287 760.88 210.06C760.88 210.833 761 211.547 761.24 212.2C761.493 212.853 761.847 213.42 762.3 213.9C762.753 214.38 763.287 214.753 763.9 215.02C764.513 215.273 765.187 215.4 765.92 215.4C766.787 215.4 767.54 215.26 768.18 214.98C768.82 214.687 769.36 214.293 769.8 213.8L771.1 215.08C770.46 215.747 769.707 216.267 768.84 216.64C767.987 217.013 767.02 217.2 765.94 217.2ZM777.098 217.2C776.164 217.2 775.324 216.98 774.578 216.54C773.831 216.1 773.238 215.507 772.798 214.76C772.358 214 772.138 213.153 772.138 212.22C772.138 211.3 772.358 210.473 772.798 209.74C773.238 208.993 773.831 208.4 774.578 207.96C775.324 207.52 776.164 207.3 777.098 207.3C778.018 207.3 778.851 207.52 779.598 207.96C780.358 208.387 780.958 208.973 781.398 209.72C781.838 210.467 782.058 211.3 782.058 212.22C782.058 213.153 781.838 214 781.398 214.76C780.958 215.507 780.358 216.1 779.598 216.54C778.851 216.98 778.018 217.2 777.098 217.2ZM777.098 215.46C777.698 215.46 778.231 215.32 778.698 215.04C779.164 214.76 779.531 214.38 779.798 213.9C780.064 213.407 780.198 212.847 780.198 212.22C780.198 211.607 780.058 211.06 779.778 210.58C779.511 210.1 779.144 209.727 778.678 209.46C778.224 209.18 777.698 209.04 777.098 209.04C776.498 209.04 775.964 209.18 775.498 209.46C775.031 209.727 774.664 210.1 774.398 210.58C774.131 211.06 773.998 211.607 773.998 212.22C773.998 212.847 774.131 213.407 774.398 213.9C774.664 214.38 775.031 214.76 775.498 215.04C775.964 215.32 776.498 215.46 777.098 215.46ZM784.086 217V202.72H785.886V217H784.086ZM792.339 217.2C791.566 217.2 790.866 217.027 790.239 216.68C789.626 216.32 789.146 215.827 788.799 215.2C788.453 214.573 788.279 213.847 788.279 213.02V207.5H790.079V212.94C790.079 213.46 790.166 213.913 790.339 214.3C790.526 214.673 790.793 214.96 791.139 215.16C791.486 215.36 791.893 215.46 792.359 215.46C793.066 215.46 793.619 215.24 794.019 214.8C794.419 214.347 794.619 213.727 794.619 212.94V207.5H796.419V213.02C796.419 213.847 796.246 214.573 795.899 215.2C795.553 215.827 795.073 216.32 794.459 216.68C793.859 217.027 793.153 217.2 792.339 217.2ZM798.832 217V207.5H800.632V217H798.832ZM805.252 217V211.26C805.252 210.553 805.032 210 804.592 209.6C804.165 209.187 803.625 208.98 802.972 208.98C802.532 208.98 802.138 209.073 801.792 209.26C801.445 209.447 801.165 209.707 800.952 210.04C800.738 210.373 800.632 210.773 800.632 211.24L799.892 210.88C799.892 210.16 800.045 209.533 800.352 209C800.672 208.467 801.105 208.053 801.652 207.76C802.198 207.453 802.812 207.3 803.492 207.3C804.158 207.3 804.758 207.447 805.292 207.74C805.838 208.033 806.265 208.447 806.572 208.98C806.892 209.513 807.052 210.147 807.052 210.88V217H805.252ZM811.672 217V211.26C811.672 210.553 811.452 210 811.012 209.6C810.585 209.187 810.052 208.98 809.412 208.98C808.972 208.98 808.572 209.073 808.212 209.26C807.865 209.447 807.585 209.707 807.372 210.04C807.158 210.373 807.052 210.773 807.052 211.24L806.032 210.88C806.072 210.147 806.265 209.52 806.612 209C806.972 208.467 807.432 208.053 807.992 207.76C808.552 207.453 809.165 207.3 809.832 207.3C810.525 207.3 811.145 207.447 811.692 207.74C812.238 208.033 812.672 208.447 812.992 208.98C813.325 209.513 813.492 210.153 813.492 210.9V217H811.672ZM822.661 217V211.46C822.661 210.74 822.434 210.147 821.981 209.68C821.528 209.213 820.941 208.98 820.221 208.98C819.741 208.98 819.314 209.087 818.941 209.3C818.568 209.513 818.274 209.807 818.061 210.18C817.848 210.553 817.741 210.98 817.741 211.46L817.001 211.04C817.001 210.32 817.161 209.68 817.481 209.12C817.801 208.56 818.248 208.12 818.821 207.8C819.394 207.467 820.041 207.3 820.761 207.3C821.481 207.3 822.114 207.48 822.661 207.84C823.221 208.2 823.661 208.673 823.981 209.26C824.301 209.833 824.461 210.447 824.461 211.1V217H822.661ZM815.941 217V207.5H817.741V217H815.941Z" fill="#F1F2F4"/>
<path d="M1044.92 217.2C1043.95 217.2 1043.03 217.02 1042.18 216.66C1041.34 216.287 1040.6 215.773 1039.96 215.12C1039.33 214.467 1038.84 213.707 1038.48 212.84C1038.12 211.973 1037.94 211.04 1037.94 210.04C1037.94 209.04 1038.12 208.113 1038.48 207.26C1038.84 206.393 1039.34 205.633 1039.98 204.98C1040.62 204.327 1041.37 203.82 1042.22 203.46C1043.09 203.1 1044.03 202.92 1045.04 202.92C1046.15 202.92 1047.17 203.133 1048.1 203.56C1049.03 203.987 1049.81 204.6 1050.44 205.4L1049.14 206.7C1048.7 206.06 1048.12 205.573 1047.4 205.24C1046.68 204.893 1045.89 204.72 1045.04 204.72C1044.03 204.72 1043.13 204.947 1042.34 205.4C1041.57 205.853 1040.96 206.48 1040.52 207.28C1040.09 208.08 1039.88 209 1039.88 210.04C1039.88 211.093 1040.1 212.02 1040.54 212.82C1040.98 213.62 1041.57 214.247 1042.32 214.7C1043.07 215.153 1043.92 215.38 1044.88 215.38C1045.85 215.38 1046.69 215.193 1047.4 214.82C1048.12 214.447 1048.67 213.9 1049.06 213.18C1049.45 212.447 1049.64 211.553 1049.64 210.5L1050.78 211.32H1044.78V209.6H1051.58V209.88C1051.58 211.493 1051.29 212.847 1050.72 213.94C1050.16 215.02 1049.37 215.833 1048.36 216.38C1047.36 216.927 1046.21 217.2 1044.92 217.2ZM1057.61 217.2C1056.84 217.2 1056.14 217.027 1055.51 216.68C1054.9 216.32 1054.42 215.827 1054.07 215.2C1053.72 214.573 1053.55 213.847 1053.55 213.02V207.5H1055.35V212.94C1055.35 213.46 1055.44 213.913 1055.61 214.3C1055.8 214.673 1056.06 214.96 1056.41 215.16C1056.76 215.36 1057.16 215.46 1057.63 215.46C1058.34 215.46 1058.89 215.24 1059.29 214.8C1059.69 214.347 1059.89 213.727 1059.89 212.94V207.5H1061.69V213.02C1061.69 213.847 1061.52 214.573 1061.17 215.2C1060.82 215.827 1060.34 216.32 1059.73 216.68C1059.13 217.027 1058.42 217.2 1057.61 217.2ZM1065.56 217V203.52H1067.36V217H1065.56ZM1063.22 209.14V207.5H1075.36V209.14H1063.22ZM1071.22 217V203.52H1073.02V217H1071.22ZM1081.24 217.2C1080.29 217.2 1079.44 216.987 1078.68 216.56C1077.92 216.12 1077.32 215.527 1076.88 214.78C1076.44 214.033 1076.22 213.187 1076.22 212.24C1076.22 211.307 1076.43 210.467 1076.86 209.72C1077.3 208.973 1077.88 208.387 1078.62 207.96C1079.36 207.52 1080.2 207.3 1081.12 207.3C1082 207.3 1082.77 207.5 1083.44 207.9C1084.12 208.3 1084.64 208.853 1085.02 209.56C1085.4 210.267 1085.6 211.067 1085.6 211.96C1085.6 212.093 1085.59 212.24 1085.58 212.4C1085.56 212.547 1085.54 212.72 1085.5 212.92H1077.48V211.42H1084.54L1083.88 212C1083.88 211.36 1083.76 210.82 1083.54 210.38C1083.31 209.927 1082.99 209.58 1082.58 209.34C1082.16 209.087 1081.66 208.96 1081.08 208.96C1080.46 208.96 1079.92 209.093 1079.46 209.36C1078.99 209.627 1078.63 210 1078.38 210.48C1078.12 210.96 1078 211.527 1078 212.18C1078 212.847 1078.13 213.433 1078.4 213.94C1078.66 214.433 1079.04 214.82 1079.54 215.1C1080.03 215.367 1080.6 215.5 1081.24 215.5C1081.77 215.5 1082.26 215.407 1082.7 215.22C1083.15 215.033 1083.54 214.753 1083.86 214.38L1085.02 215.56C1084.56 216.093 1084 216.5 1083.34 216.78C1082.68 217.06 1081.98 217.2 1081.24 217.2ZM1087.56 217V207.5H1089.36V217H1087.56ZM1089.36 211.58L1088.68 211.28C1088.68 210.067 1088.96 209.1 1089.52 208.38C1090.08 207.66 1090.88 207.3 1091.94 207.3C1092.42 207.3 1092.85 207.387 1093.24 207.56C1093.62 207.72 1093.98 207.993 1094.32 208.38L1093.14 209.6C1092.94 209.387 1092.72 209.233 1092.48 209.14C1092.24 209.047 1091.96 209 1091.64 209C1090.97 209 1090.42 209.213 1090 209.64C1089.57 210.067 1089.36 210.713 1089.36 211.58Z" fill="#F1F2F4"/>
<defs>
<clipPath id="clip0_3890_15508">
<rect width="169" height="9" fill="white" transform="translate(704 166)"/>
</clipPath>
<clipPath id="clip1_3890_15508">
<rect width="118" height="9" fill="white" transform="translate(32 166)"/>
</clipPath>
<clipPath id="clip2_3890_15508">
<rect width="16" height="9" fill="white" transform="translate(1057 166)"/>
</clipPath>
<clipPath id="clip3_3890_15508">
<rect width="118" height="9" fill="white" transform="translate(1242 166)"/>
</clipPath>
</defs>
</svg>
