<svg width="1392" height="551" viewBox="0 0 1392 551" fill="none" xmlns="http://www.w3.org/2000/svg">
<rect width="1392" height="551" rx="24" fill="#F6F6F8"/>
<path d="M32 40C32 35.5817 35.5817 32 40 32H1352C1356.42 32 1360 35.5817 1360 40V181C1360 185.418 1356.42 189 1352 189H40C35.5818 189 32 185.418 32 181V40Z" fill="white"/>
<path d="M32 219C32 214.582 35.5817 211 40 211H678C682.418 211 686 214.582 686 219V359C686 363.418 682.418 367 678 367H40C35.5817 367 32 363.418 32 359V219Z" fill="white"/>
<rect opacity="0.7" x="204" y="246" width="99" height="8" rx="4" fill="#F1F2F4"/>
<rect opacity="0.7" x="204" y="266" width="173" height="14" rx="4" fill="#F1F2F4"/>
<rect opacity="0.7" x="204" y="288" width="448" height="12" rx="4" fill="#F1F2F4"/>
<rect opacity="0.7" x="204" y="304" width="448" height="12" rx="4" fill="#F1F2F4"/>
<rect opacity="0.7" x="204" y="320" width="448" height="12" rx="4" fill="#F1F2F4"/>
<path d="M48 231C48 228.791 49.7909 227 52 227H168C170.209 227 172 228.791 172 231V347C172 349.209 170.209 351 168 351H52C49.7909 351 48 349.209 48 347V231Z" fill="#F1F2F4"/>
<path d="M706 219C706 214.582 709.582 211 714 211H1352C1356.42 211 1360 214.582 1360 219V359C1360 363.418 1356.42 367 1352 367H714C709.582 367 706 363.418 706 359V219Z" fill="white"/>
<rect opacity="0.7" x="878" y="246" width="99" height="8" rx="4" fill="#F1F2F4"/>
<rect opacity="0.7" x="878" y="266" width="173" height="14" rx="4" fill="#F1F2F4"/>
<rect opacity="0.7" x="878" y="288" width="448" height="12" rx="4" fill="#F1F2F4"/>
<rect opacity="0.7" x="878" y="304" width="448" height="12" rx="4" fill="#F1F2F4"/>
<rect opacity="0.7" x="878" y="320" width="448" height="12" rx="4" fill="#F1F2F4"/>
<path d="M722 231C722 228.791 723.791 227 726 227H842C844.209 227 846 228.791 846 231V347C846 349.209 844.209 351 842 351H726C723.791 351 722 349.209 722 347V231Z" fill="#F1F2F4"/>
<path d="M32 391C32 388.791 33.7909 387 36 387H345C347.209 387 349 388.791 349 391V443C349 445.209 347.209 447 345 447H36C33.7909 447 32 445.209 32 443V391Z" fill="white"/>
<rect x="48" y="401" width="32" height="32" rx="4" fill="#F1F2F4"/>
<rect x="90" y="403" width="160" height="14" rx="4" fill="#F1F2F4"/>
<rect x="90" y="421" width="120" height="10" rx="4" fill="#F1F2F4"/>
<path d="M32 459C32 456.791 33.7909 455 36 455H345C347.209 455 349 456.791 349 459V511C349 513.209 347.209 515 345 515H36C33.7909 515 32 513.209 32 511V459Z" fill="white"/>
<rect x="48" y="469" width="32" height="32" rx="4" fill="#F1F2F4"/>
<rect x="90" y="471" width="160" height="14" rx="4" fill="#F1F2F4"/>
<rect x="90" y="489" width="120" height="10" rx="4" fill="#F1F2F4"/>
<path d="M369 391C369 388.791 370.791 387 373 387H682C684.209 387 686 388.791 686 391V443C686 445.209 684.209 447 682 447H373C370.791 447 369 445.209 369 443V391Z" fill="white"/>
<rect x="385" y="401" width="32" height="32" rx="4" fill="#F1F2F4"/>
<rect x="427" y="403" width="160" height="14" rx="4" fill="#F1F2F4"/>
<rect x="427" y="421" width="120" height="10" rx="4" fill="#F1F2F4"/>
<path d="M369 459C369 456.791 370.791 455 373 455H682C684.209 455 686 456.791 686 459V511C686 513.209 684.209 515 682 515H373C370.791 515 369 513.209 369 511V459Z" fill="white"/>
<rect x="385" y="469" width="32" height="32" rx="4" fill="#F1F2F4"/>
<rect x="427" y="471" width="160" height="14" rx="4" fill="#F1F2F4"/>
<rect x="427" y="489" width="120" height="10" rx="4" fill="#F1F2F4"/>
<path d="M706 391C706 388.791 707.791 387 710 387H1019C1021.21 387 1023 388.791 1023 391V443C1023 445.209 1021.21 447 1019 447H710C707.791 447 706 445.209 706 443V391Z" fill="white"/>
<rect x="722" y="401" width="32" height="32" rx="4" fill="#F1F2F4"/>
<rect x="764" y="403" width="160" height="14" rx="4" fill="#F1F2F4"/>
<rect x="764" y="421" width="120" height="10" rx="4" fill="#F1F2F4"/>
<path d="M706 459C706 456.791 707.791 455 710 455H1019C1021.21 455 1023 456.791 1023 459V511C1023 513.209 1021.21 515 1019 515H710C707.791 515 706 513.209 706 511V459Z" fill="white"/>
<rect x="722" y="469" width="32" height="32" rx="4" fill="#F1F2F4"/>
<rect x="764" y="471" width="160" height="14" rx="4" fill="#F1F2F4"/>
<rect x="764" y="489" width="120" height="10" rx="4" fill="#F1F2F4"/>
<path d="M1043 391C1043 388.791 1044.79 387 1047 387H1356C1358.21 387 1360 388.791 1360 391V443C1360 445.209 1358.21 447 1356 447H1047C1044.79 447 1043 445.209 1043 443V391Z" fill="white"/>
<rect x="1059" y="401" width="32" height="32" rx="4" fill="#F1F2F4"/>
<rect x="1101" y="403" width="160" height="14" rx="4" fill="#F1F2F4"/>
<rect x="1101" y="421" width="120" height="10" rx="4" fill="#F1F2F4"/>
<path d="M1043 459C1043 456.791 1044.79 455 1047 455H1356C1358.21 455 1360 456.791 1360 459V511C1360 513.209 1358.21 515 1356 515H1047C1044.79 515 1043 513.209 1043 511V459Z" fill="white"/>
<rect x="1059" y="469" width="32" height="32" rx="4" fill="#F1F2F4"/>
<rect x="1101" y="471" width="160" height="14" rx="4" fill="#F1F2F4"/>
<rect x="1101" y="489" width="120" height="10" rx="4" fill="#F1F2F4"/>
<line y1="-0.679878" x2="1364" y2="-0.679878" transform="matrix(-1 -0.000733137 0.000773424 -1 1378 387)" stroke="#9747FF" stroke-width="1.35976" stroke-dasharray="5.44 6.8"/>
<line y1="-0.679878" x2="1364" y2="-0.679878" transform="matrix(-1 -0.000733137 0.000773424 -1 1378 211)" stroke="#9747FF" stroke-width="1.35976" stroke-dasharray="5.44 6.8"/>
<line y1="-0.679878" x2="1364" y2="-0.679878" transform="matrix(-1 -0.000733137 0.000773424 -1 1378 367)" stroke="#9747FF" stroke-width="1.35976" stroke-dasharray="5.44 6.8"/>
<line y1="-0.679878" x2="1364" y2="-0.679878" transform="matrix(-1 -0.000733137 0.000773424 -1 1378 191)" stroke="#9747FF" stroke-width="1.35976" stroke-dasharray="5.44 6.8"/>
</svg>
