<svg width="1279" height="312" viewBox="0 0 1279 312" fill="none" xmlns="http://www.w3.org/2000/svg">
<rect width="213" height="274" fill="#1C1D23"/>
<rect width="213" height="15" fill="#181545"/>
<path opacity="0.5" d="M9 7.5C9 6.39543 9.89543 5.5 11 5.5H28C29.1046 5.5 30 6.39543 30 7.5C30 8.60457 29.1046 9.5 28 9.5H11C9.89543 9.5 9 8.60457 9 7.5Z" fill="#3F4350"/>
<path opacity="0.5" d="M41 5C41 3.89543 41.8954 3 43 3H183C184.105 3 185 3.89543 185 5V10C185 11.1046 184.105 12 183 12H43C41.8954 12 41 11.1046 41 10V5Z" fill="#3F4350"/>
<circle opacity="0.5" cx="200" cy="7.5" r="4" fill="#3F4350"/>
<rect x="9.5" y="19" width="194" height="74" rx="1.77431" fill="#15161A"/>
<g opacity="0.5">
<path d="M4.5 104C4.5 102.895 5.39543 102 6.5 102H206.5C207.605 102 208.5 102.895 208.5 104V112C208.5 113.105 207.605 114 206.5 114H6.49999C5.39542 114 4.5 113.105 4.5 112V104Z" fill="#15161A"/>
<path d="M15 105.5C15 104.672 15.6716 104 16.5 104H36.5C37.3284 104 38 104.672 38 105.5C38 106.328 37.3284 107 36.5 107H16.5C15.6716 107 15 106.328 15 105.5Z" fill="#3F4350"/>
<path d="M15 110C15 109.448 15.4477 109 16 109H48C48.5523 109 49 109.448 49 110C49 110.552 48.5523 111 48 111H16C15.4477 111 15 110.552 15 110Z" fill="#3F4350"/>
</g>
<g opacity="0.5">
<path d="M4.5 120C4.5 118.895 5.39543 118 6.5 118H206.5C207.605 118 208.5 118.895 208.5 120V130C208.5 131.105 207.605 132 206.5 132H6.49999C5.39542 132 4.5 131.105 4.5 130V120Z" fill="#15161A"/>
<rect x="9.5" y="120.5" width="9" height="9" rx="2" fill="#3F4350"/>
<path d="M20.5 122C20.5 120.895 21.3954 120 22.5 120H52.5C53.6046 120 54.5 120.895 54.5 122C54.5 123.105 53.6046 124 52.5 124H22.5C21.3954 124 20.5 123.105 20.5 122Z" fill="#3F4350"/>
<path d="M20.5 128C20.5 126.895 21.3954 126 22.5 126H41.5C42.6046 126 43.5 126.895 43.5 128C43.5 129.105 42.6046 130 41.5 130H22.5C21.3954 130 20.5 129.105 20.5 128Z" fill="#3F4350"/>
</g>
<g opacity="0.5">
<path d="M4.5 142C4.5 140.895 5.39543 140 6.5 140H206.5C207.605 140 208.5 140.895 208.5 142V152C208.5 153.105 207.605 154 206.5 154H6.49999C5.39542 154 4.5 153.105 4.5 152V142Z" fill="#15161A"/>
<rect x="9.5" y="142.5" width="9" height="9" rx="2" fill="#3F4350"/>
<rect x="20.5" y="142" width="34" height="4" rx="2" fill="#3F4350"/>
<rect x="20.5" y="148" width="23" height="4" rx="2" fill="#3F4350"/>
</g>
<path d="M5.5 165C5.5 163.895 6.39543 163 7.5 163H205.5C206.605 163 207.5 163.895 207.5 165V206C207.5 207.105 206.605 208 205.5 208H7.5C6.39543 208 5.5 207.105 5.5 206V165Z" fill="#15161A"/>
<path opacity="0.5" d="M17 169C17 167.895 17.8954 167 19 167H52C53.1046 167 54 167.895 54 169V202C54 203.105 53.1046 204 52 204H19C17.8954 204 17 203.105 17 202V169Z" fill="#3F4350"/>
<g opacity="0.5">
<path d="M62 174C62 173.172 62.6716 172.5 63.5 172.5H88.5C89.3284 172.5 90 173.172 90 174C90 174.828 89.3284 175.5 88.5 175.5H63.5C62.6716 175.5 62 174.828 62 174Z" fill="#3F4350"/>
<path d="M62 180.5C62 179.395 62.8954 178.5 64 178.5H110C111.105 178.5 112 179.395 112 180.5V181.5C112 182.605 111.105 183.5 110 183.5H64C62.8954 183.5 62 182.605 62 181.5V180.5Z" fill="#3F4350"/>
<path d="M62 187C62 186.172 62.6716 185.5 63.5 185.5H194.5C195.328 185.5 196 186.172 196 187C196 187.828 195.328 188.5 194.5 188.5H63.5C62.6716 188.5 62 187.828 62 187Z" fill="#3F4350"/>
<path d="M62 192C62 191.172 62.6716 190.5 63.5 190.5H194.5C195.328 190.5 196 191.172 196 192C196 192.828 195.328 193.5 194.5 193.5H63.5C62.6716 193.5 62 192.828 62 192Z" fill="#3F4350"/>
<path d="M62 197C62 196.172 62.6716 195.5 63.5 195.5H194.5C195.328 195.5 196 196.172 196 197C196 197.828 195.328 198.5 194.5 198.5H63.5C62.6716 198.5 62 197.828 62 197Z" fill="#3F4350"/>
</g>
<g opacity="0.5">
<path d="M4.5 219C4.5 217.895 5.39543 217 6.5 217H206.5C207.605 217 208.5 217.895 208.5 219V227C208.5 228.105 207.605 229 206.5 229H6.49999C5.39542 229 4.5 228.105 4.5 227V219Z" fill="#15161A"/>
<path d="M15 220.5C15 219.672 15.6716 219 16.5 219H36.5C37.3284 219 38 219.672 38 220.5C38 221.328 37.3284 222 36.5 222H16.5C15.6716 222 15 221.328 15 220.5Z" fill="#3F4350"/>
<path d="M15 225C15 224.448 15.4477 224 16 224H48C48.5523 224 49 224.448 49 225C49 225.552 48.5523 226 48 226H16C15.4477 226 15 225.552 15 225Z" fill="#3F4350"/>
</g>
<g opacity="0.5">
<path d="M4.5 235C4.5 233.895 5.39543 233 6.5 233H206.5C207.605 233 208.5 233.895 208.5 235V245C208.5 246.105 207.605 247 206.5 247H6.49999C5.39542 247 4.5 246.105 4.5 245V235Z" fill="#15161A"/>
<rect x="9.5" y="235.5" width="9" height="9" rx="2" fill="#3F4350"/>
<path d="M20.5 237C20.5 235.895 21.3954 235 22.5 235H52.5C53.6046 235 54.5 235.895 54.5 237C54.5 238.105 53.6046 239 52.5 239H22.5C21.3954 239 20.5 238.105 20.5 237Z" fill="#3F4350"/>
<path d="M20.5 243C20.5 241.895 21.3954 241 22.5 241H41.5C42.6046 241 43.5 241.895 43.5 243C43.5 244.105 42.6046 245 41.5 245H22.5C21.3954 245 20.5 244.105 20.5 243Z" fill="#3F4350"/>
</g>
<g opacity="0.5">
<path d="M4.5 257C4.5 255.895 5.39543 255 6.5 255H206.5C207.605 255 208.5 255.895 208.5 257V267C208.5 268.105 207.605 269 206.5 269H6.49999C5.39542 269 4.5 268.105 4.5 267V257Z" fill="#15161A"/>
<rect x="9.5" y="257.5" width="9" height="9" rx="2" fill="#3F4350"/>
<rect x="20.5" y="257" width="34" height="4" rx="2" fill="#3F4350"/>
<rect x="20.5" y="263" width="23" height="4" rx="2" fill="#3F4350"/>
</g>
<rect width="415" height="15" transform="translate(265)" fill="#181545"/>
<path opacity="0.5" d="M270 7.5C270 6.39543 270.895 5.5 272 5.5H289C290.105 5.5 291 6.39543 291 7.5C291 8.60457 290.105 9.5 289 9.5H272C270.895 9.5 270 8.60457 270 7.5Z" fill="#3F4350"/>
<path opacity="0.5" d="M407 5C407 3.89543 407.895 3 409 3H549C550.105 3 551 3.89543 551 5V10C551 11.1046 550.105 12 549 12H409C407.895 12 407 11.1046 407 10V5Z" fill="#3F4350"/>
<circle opacity="0.5" cx="671" cy="7.5" r="4" fill="#3F4350"/>
<rect width="92" height="296" transform="translate(265 15)" fill="#15161A"/>
<path d="M267.5 26.5C267.5 25.6716 268.172 25 269 25H289C289.828 25 290.5 25.6716 290.5 26.5C290.5 27.3284 289.828 28 289 28H269C268.172 28 267.5 27.3284 267.5 26.5Z" fill="#3F4350"/>
<rect width="87" height="12" transform="translate(267.5 36)" fill="#1C1D23"/>
<path d="M269.5 40C269.5 38.8954 270.395 38 271.5 38H275.5C276.605 38 277.5 38.8954 277.5 40V44C277.5 45.1046 276.605 46 275.5 46H271.5C270.395 46 269.5 45.1046 269.5 44V40Z" fill="#3F4350"/>
<path d="M280.5 42C280.5 41.1716 281.172 40.5 282 40.5H317C317.828 40.5 318.5 41.1716 318.5 42C318.5 42.8284 317.828 43.5 317 43.5H282C281.172 43.5 280.5 42.8284 280.5 42Z" fill="#3F4350"/>
<path d="M280.5 51.5C280.5 50.6716 281.172 50 282 50H317C317.828 50 318.5 50.6716 318.5 51.5C318.5 52.3284 317.828 53 317 53H282C281.172 53 280.5 52.3284 280.5 51.5Z" fill="#3F4350"/>
<path d="M280.5 59.5C280.5 58.6716 281.172 58 282 58H325C325.828 58 326.5 58.6716 326.5 59.5C326.5 60.3284 325.828 61 325 61H282C281.172 61 280.5 60.3284 280.5 59.5Z" fill="#3F4350"/>
<path d="M280.5 67.5C280.5 66.6716 281.172 66 282 66H317C317.828 66 318.5 66.6716 318.5 67.5C318.5 68.3284 317.828 69 317 69H282C281.172 69 280.5 68.3284 280.5 67.5Z" fill="#3F4350"/>
<path d="M280.5 75.5C280.5 74.6716 281.172 74 282 74H322C322.828 74 323.5 74.6716 323.5 75.5C323.5 76.3284 322.828 77 322 77H282C281.172 77 280.5 76.3284 280.5 75.5Z" fill="#3F4350"/>
<path d="M280.5 83.5C280.5 82.6716 281.172 82 282 82H327C327.828 82 328.5 82.6716 328.5 83.5C328.5 84.3284 327.828 85 327 85H282C281.172 85 280.5 84.3284 280.5 83.5Z" fill="#3F4350"/>
<path d="M267.5 95C267.5 93.8954 268.395 93 269.5 93H273.5C274.605 93 275.5 93.8954 275.5 95V99C275.5 100.105 274.605 101 273.5 101H269.5C268.395 101 267.5 100.105 267.5 99V95Z" fill="#3F4350"/>
<path d="M278.5 97C278.5 96.1716 279.172 95.5 280 95.5H315C315.828 95.5 316.5 96.1716 316.5 97C316.5 97.8284 315.828 98.5 315 98.5H280C279.172 98.5 278.5 97.8284 278.5 97Z" fill="#3F4350"/>
<path d="M278.5 107.5C278.5 106.672 279.172 106 280 106H311C311.828 106 312.5 106.672 312.5 107.5C312.5 108.328 311.828 109 311 109H280C279.172 109 278.5 108.328 278.5 107.5Z" fill="#3F4350"/>
<path d="M278.5 115.5C278.5 114.672 279.172 114 280 114H323C323.828 114 324.5 114.672 324.5 115.5C324.5 116.328 323.828 117 323 117H280C279.172 117 278.5 116.328 278.5 115.5Z" fill="#3F4350"/>
<path d="M278.5 123.5C278.5 122.672 279.172 122 280 122H314C314.828 122 315.5 122.672 315.5 123.5C315.5 124.328 314.828 125 314 125H280C279.172 125 278.5 124.328 278.5 123.5Z" fill="#3F4350"/>
<path d="M278.5 131.5C278.5 130.672 279.172 130 280 130H319C319.828 130 320.5 130.672 320.5 131.5C320.5 132.328 319.828 133 319 133H280C279.172 133 278.5 132.328 278.5 131.5Z" fill="#3F4350"/>
<path d="M278.5 139.5C278.5 138.672 279.172 138 280 138H326C326.828 138 327.5 138.672 327.5 139.5C327.5 140.328 326.828 141 326 141H280C279.172 141 278.5 140.328 278.5 139.5Z" fill="#3F4350"/>
<rect width="92" height="12" transform="translate(265 299)" fill="#1C1D23"/>
<path d="M267 303C267 301.895 267.895 301 269 301H273C274.105 301 275 301.895 275 303V307C275 308.105 274.105 309 273 309H269C267.895 309 267 308.105 267 307V303Z" fill="#3F4350"/>
<path d="M278 305C278 304.172 278.672 303.5 279.5 303.5H314.5C315.328 303.5 316 304.172 316 305C316 305.828 315.328 306.5 314.5 306.5H279.5C278.672 306.5 278 305.828 278 305Z" fill="#3F4350"/>
<rect width="323" height="296" transform="translate(357 15)" fill="#1C1D23"/>
<rect x="363" y="35" width="310" height="74" rx="1.77431" fill="#15161A"/>
<g opacity="0.5">
<path d="M363 122C363 120.895 363.895 120 365 120H651C652.105 120 653 120.895 653 122V130C653 131.105 652.105 132 651 132H365C363.895 132 363 131.105 363 130V122Z" fill="#15161A"/>
<path d="M368 123.5C368 122.672 368.672 122 369.5 122H389.5C390.328 122 391 122.672 391 123.5C391 124.328 390.328 125 389.5 125H369.5C368.672 125 368 124.328 368 123.5Z" fill="#3F4350"/>
<path d="M368 128C368 127.448 368.448 127 369 127H401C401.552 127 402 127.448 402 128C402 128.552 401.552 129 401 129H369C368.448 129 368 128.552 368 128Z" fill="#3F4350"/>
</g>
<g opacity="0.5">
<path d="M363 138C363 136.895 363.895 136 365 136H452C453.105 136 454 136.895 454 138V148C454 149.105 453.105 150 452 150H365C363.895 150 363 149.105 363 148V138Z" fill="#15161A"/>
<rect x="368" y="138.5" width="9" height="9" rx="2" fill="#3F4350"/>
<path d="M379 140C379 138.895 379.895 138 381 138H411C412.105 138 413 138.895 413 140C413 141.105 412.105 142 411 142H381C379.895 142 379 141.105 379 140Z" fill="#3F4350"/>
<path d="M379 146C379 144.895 379.895 144 381 144H400C401.105 144 402 144.895 402 146C402 147.105 401.105 148 400 148H381C379.895 148 379 147.105 379 146Z" fill="#3F4350"/>
</g>
<g opacity="0.5">
<path d="M363 160C363 158.895 363.895 158 365 158H452C453.105 158 454 158.895 454 160V170C454 171.105 453.105 172 452 172H365C363.895 172 363 171.105 363 170V160Z" fill="#15161A"/>
<rect x="368" y="160.5" width="9" height="9" rx="2" fill="#3F4350"/>
<rect x="379" y="160" width="34" height="4" rx="2" fill="#3F4350"/>
<rect x="379" y="166" width="23" height="4" rx="2" fill="#3F4350"/>
</g>
<g opacity="0.5">
<path d="M467 138C467 136.895 467.895 136 469 136H559C560.105 136 561 136.895 561 138V148C561 149.105 560.105 150 559 150H469C467.895 150 467 149.105 467 148V138Z" fill="#15161A"/>
<rect x="472" y="138.5" width="9" height="9" rx="2" fill="#3F4350"/>
<path d="M483 140C483 138.895 483.895 138 485 138H515C516.105 138 517 138.895 517 140C517 141.105 516.105 142 515 142H485C483.895 142 483 141.105 483 140Z" fill="#3F4350"/>
<path d="M483 146C483 144.895 483.895 144 485 144H504C505.105 144 506 144.895 506 146C506 147.105 505.105 148 504 148H485C483.895 148 483 147.105 483 146Z" fill="#3F4350"/>
</g>
<g opacity="0.5">
<path d="M467 160C467 158.895 467.895 158 469 158H559C560.105 158 561 158.895 561 160V170C561 171.105 560.105 172 559 172H469C467.895 172 467 171.105 467 170V160Z" fill="#15161A"/>
<rect x="472" y="160.5" width="9" height="9" rx="2" fill="#3F4350"/>
<rect x="483" y="160" width="34" height="4" rx="2" fill="#3F4350"/>
<rect x="483" y="166" width="23" height="4" rx="2" fill="#3F4350"/>
</g>
<g opacity="0.5">
<path d="M574 138C574 136.895 574.895 136 576 136H666C667.105 136 668 136.895 668 138V148C668 149.105 667.105 150 666 150H576C574.895 150 574 149.105 574 148V138Z" fill="#15161A"/>
<rect x="579" y="138.5" width="9" height="9" rx="2" fill="#3F4350"/>
<path d="M590 140C590 138.895 590.895 138 592 138H622C623.105 138 624 138.895 624 140C624 141.105 623.105 142 622 142H592C590.895 142 590 141.105 590 140Z" fill="#3F4350"/>
<path d="M590 146C590 144.895 590.895 144 592 144H611C612.105 144 613 144.895 613 146C613 147.105 612.105 148 611 148H592C590.895 148 590 147.105 590 146Z" fill="#3F4350"/>
</g>
<g opacity="0.5">
<path d="M574 160C574 158.895 574.895 158 576 158H666C667.105 158 668 158.895 668 160V170C668 171.105 667.105 172 666 172H576C574.895 172 574 171.105 574 170V160Z" fill="#15161A"/>
<rect x="579" y="160.5" width="9" height="9" rx="2" fill="#3F4350"/>
<rect x="590" y="160" width="34" height="4" rx="2" fill="#3F4350"/>
<rect x="590" y="166" width="23" height="4" rx="2" fill="#3F4350"/>
</g>
<path d="M363 185C363 183.895 363.895 183 365 183H503C504.105 183 505 183.895 505 185V226C505 227.105 504.105 228 503 228H365C363.895 228 363 227.105 363 226V185Z" fill="#15161A"/>
<path opacity="0.5" d="M369.5 189C369.5 187.895 370.395 187 371.5 187H404.5C405.605 187 406.5 187.895 406.5 189V222C406.5 223.105 405.605 224 404.5 224H371.5C370.395 224 369.5 223.105 369.5 222V189Z" fill="#3F4350"/>
<g opacity="0.5">
<path d="M414.5 194C414.5 193.172 415.172 192.5 416 192.5H441C441.828 192.5 442.5 193.172 442.5 194C442.5 194.828 441.828 195.5 441 195.5H416C415.172 195.5 414.5 194.828 414.5 194Z" fill="#3F4350"/>
<path d="M414.5 200.5C414.5 199.395 415.395 198.5 416.5 198.5H462.5C463.605 198.5 464.5 199.395 464.5 200.5V201.5C464.5 202.605 463.605 203.5 462.5 203.5H416.5C415.395 203.5 414.5 202.605 414.5 201.5V200.5Z" fill="#3F4350"/>
<path d="M414.5 207C414.5 206.172 415.172 205.5 416 205.5H494C494.828 205.5 495.5 206.172 495.5 207C495.5 207.828 494.828 208.5 494 208.5H416C415.172 208.5 414.5 207.828 414.5 207Z" fill="#3F4350"/>
<path d="M414.5 212C414.5 211.172 415.172 210.5 416 210.5H494C494.828 210.5 495.5 211.172 495.5 212C495.5 212.828 494.828 213.5 494 213.5H416C415.172 213.5 414.5 212.828 414.5 212Z" fill="#3F4350"/>
<path d="M414.5 217C414.5 216.172 415.172 215.5 416 215.5H494C494.828 215.5 495.5 216.172 495.5 217C495.5 217.828 494.828 218.5 494 218.5H416C415.172 218.5 414.5 217.828 414.5 217Z" fill="#3F4350"/>
</g>
<path d="M524 185C524 183.895 524.895 183 526 183H664C665.105 183 666 183.895 666 185V226C666 227.105 665.105 228 664 228H526C524.895 228 524 227.105 524 226V185Z" fill="#15161A"/>
<path opacity="0.5" d="M530.5 189C530.5 187.895 531.395 187 532.5 187H565.5C566.605 187 567.5 187.895 567.5 189V222C567.5 223.105 566.605 224 565.5 224H532.5C531.395 224 530.5 223.105 530.5 222V189Z" fill="#3F4350"/>
<g opacity="0.5">
<path d="M575.5 194C575.5 193.172 576.172 192.5 577 192.5H602C602.828 192.5 603.5 193.172 603.5 194C603.5 194.828 602.828 195.5 602 195.5H577C576.172 195.5 575.5 194.828 575.5 194Z" fill="#3F4350"/>
<path d="M575.5 200.5C575.5 199.395 576.395 198.5 577.5 198.5H623.5C624.605 198.5 625.5 199.395 625.5 200.5V201.5C625.5 202.605 624.605 203.5 623.5 203.5H577.5C576.395 203.5 575.5 202.605 575.5 201.5V200.5Z" fill="#3F4350"/>
<path d="M575.5 207C575.5 206.172 576.172 205.5 577 205.5H655C655.828 205.5 656.5 206.172 656.5 207C656.5 207.828 655.828 208.5 655 208.5H577C576.172 208.5 575.5 207.828 575.5 207Z" fill="#3F4350"/>
<path d="M575.5 212C575.5 211.172 576.172 210.5 577 210.5H655C655.828 210.5 656.5 211.172 656.5 212C656.5 212.828 655.828 213.5 655 213.5H577C576.172 213.5 575.5 212.828 575.5 212Z" fill="#3F4350"/>
<path d="M575.5 217C575.5 216.172 576.172 215.5 577 215.5H655C655.828 215.5 656.5 216.172 656.5 217C656.5 217.828 655.828 218.5 655 218.5H577C576.172 218.5 575.5 217.828 575.5 217Z" fill="#3F4350"/>
</g>
<g opacity="0.5">
<path d="M363 241C363 239.895 363.895 239 365 239H651C652.105 239 653 239.895 653 241V249C653 250.105 652.105 251 651 251H365C363.895 251 363 250.105 363 249V241Z" fill="#15161A"/>
<path d="M368 242.5C368 241.672 368.672 241 369.5 241H389.5C390.328 241 391 241.672 391 242.5C391 243.328 390.328 244 389.5 244H369.5C368.672 244 368 243.328 368 242.5Z" fill="#3F4350"/>
<path d="M368 247C368 246.448 368.448 246 369 246H401C401.552 246 402 246.448 402 247C402 247.552 401.552 248 401 248H369C368.448 248 368 247.552 368 247Z" fill="#3F4350"/>
</g>
<g opacity="0.5">
<path d="M363 257C363 255.895 363.895 255 365 255H452C453.105 255 454 255.895 454 257V267C454 268.105 453.105 269 452 269H365C363.895 269 363 268.105 363 267V257Z" fill="#15161A"/>
<rect x="368" y="257.5" width="9" height="9" rx="2" fill="#3F4350"/>
<path d="M379 259C379 257.895 379.895 257 381 257H411C412.105 257 413 257.895 413 259C413 260.105 412.105 261 411 261H381C379.895 261 379 260.105 379 259Z" fill="#3F4350"/>
<path d="M379 265C379 263.895 379.895 263 381 263H400C401.105 263 402 263.895 402 265C402 266.105 401.105 267 400 267H381C379.895 267 379 266.105 379 265Z" fill="#3F4350"/>
</g>
<g opacity="0.5">
<path d="M363 279C363 277.895 363.895 277 365 277H452C453.105 277 454 277.895 454 279V289C454 290.105 453.105 291 452 291H365C363.895 291 363 290.105 363 289V279Z" fill="#15161A"/>
<rect x="368" y="279.5" width="9" height="9" rx="2" fill="#3F4350"/>
<rect x="379" y="279" width="34" height="4" rx="2" fill="#3F4350"/>
<rect x="379" y="285" width="23" height="4" rx="2" fill="#3F4350"/>
</g>
<g opacity="0.5">
<path d="M467 257C467 255.895 467.895 255 469 255H559C560.105 255 561 255.895 561 257V267C561 268.105 560.105 269 559 269H469C467.895 269 467 268.105 467 267V257Z" fill="#15161A"/>
<rect x="472" y="257.5" width="9" height="9" rx="2" fill="#3F4350"/>
<path d="M483 259C483 257.895 483.895 257 485 257H515C516.105 257 517 257.895 517 259C517 260.105 516.105 261 515 261H485C483.895 261 483 260.105 483 259Z" fill="#3F4350"/>
<path d="M483 265C483 263.895 483.895 263 485 263H504C505.105 263 506 263.895 506 265C506 266.105 505.105 267 504 267H485C483.895 267 483 266.105 483 265Z" fill="#3F4350"/>
</g>
<g opacity="0.5">
<path d="M467 279C467 277.895 467.895 277 469 277H559C560.105 277 561 277.895 561 279V289C561 290.105 560.105 291 559 291H469C467.895 291 467 290.105 467 289V279Z" fill="#15161A"/>
<rect x="472" y="279.5" width="9" height="9" rx="2" fill="#3F4350"/>
<rect x="483" y="279" width="34" height="4" rx="2" fill="#3F4350"/>
<rect x="483" y="285" width="23" height="4" rx="2" fill="#3F4350"/>
</g>
<g opacity="0.5">
<path d="M574 257C574 255.895 574.895 255 576 255H666C667.105 255 668 255.895 668 257V267C668 268.105 667.105 269 666 269H576C574.895 269 574 268.105 574 267V257Z" fill="#15161A"/>
<rect x="579" y="257.5" width="9" height="9" rx="2" fill="#3F4350"/>
<path d="M590 259C590 257.895 590.895 257 592 257H622C623.105 257 624 257.895 624 259C624 260.105 623.105 261 622 261H592C590.895 261 590 260.105 590 259Z" fill="#3F4350"/>
<path d="M590 265C590 263.895 590.895 263 592 263H611C612.105 263 613 263.895 613 265C613 266.105 612.105 267 611 267H592C590.895 267 590 266.105 590 265Z" fill="#3F4350"/>
</g>
<g opacity="0.5">
<path d="M574 279C574 277.895 574.895 277 576 277H666C667.105 277 668 277.895 668 279V289C668 290.105 667.105 291 666 291H576C574.895 291 574 290.105 574 289V279Z" fill="#15161A"/>
<rect x="579" y="279.5" width="9" height="9" rx="2" fill="#3F4350"/>
<rect x="590" y="279" width="34" height="4" rx="2" fill="#3F4350"/>
<rect x="590" y="285" width="23" height="4" rx="2" fill="#3F4350"/>
</g>
<rect width="547" height="15" transform="translate(732)" fill="#181545"/>
<path opacity="0.5" d="M737 7.5C737 6.39543 737.895 5.5 739 5.5H756C757.105 5.5 758 6.39543 758 7.5C758 8.60457 757.105 9.5 756 9.5H739C737.895 9.5 737 8.60457 737 7.5Z" fill="#3F4350"/>
<path opacity="0.5" d="M940 5C940 3.89543 940.895 3 942 3H1082C1083.1 3 1084 3.89543 1084 5V10C1084 11.1046 1083.1 12 1082 12H942C940.895 12 940 11.1046 940 10V5Z" fill="#3F4350"/>
<circle opacity="0.5" cx="1270" cy="7.5" r="4" fill="#3F4350"/>
<rect width="20" height="297" transform="translate(732 15)" fill="#181545"/>
<path d="M736 21C736 19.8954 736.895 19 738 19H746C747.105 19 748 19.8954 748 21V29C748 30.1046 747.105 31 746 31H738C736.895 31 736 30.1046 736 29V21Z" fill="#3F4350"/>
<path d="M736 39C736 37.8954 736.895 37 738 37H746C747.105 37 748 37.8954 748 39V47C748 48.1046 747.105 49 746 49H738C736.895 49 736 48.1046 736 47V39Z" fill="#3F4350"/>
<path d="M736 57C736 55.8954 736.895 55 738 55H746C747.105 55 748 55.8954 748 57V65C748 66.1046 747.105 67 746 67H738C736.895 67 736 66.1046 736 65V57Z" fill="#3F4350"/>
<path d="M736 75C736 73.8954 736.895 73 738 73H746C747.105 73 748 73.8954 748 75V83C748 84.1046 747.105 85 746 85H738C736.895 85 736 84.1046 736 83V75Z" fill="#3F4350"/>
<path d="M736 93C736 91.8954 736.895 91 738 91H746C747.105 91 748 91.8954 748 93V101C748 102.105 747.105 103 746 103H738C736.895 103 736 102.105 736 101V93Z" fill="#3F4350"/>
<rect width="428" height="296" transform="translate(851 15)" fill="#1C1D23"/>
<rect x="857" y="35" width="415" height="74" rx="1.77431" fill="#15161A"/>
<g opacity="0.5">
<path d="M857 122C857 120.895 857.895 120 859 120H1267C1268.1 120 1269 120.895 1269 122V130C1269 131.105 1268.1 132 1267 132H859C857.895 132 857 131.105 857 130V122Z" fill="#15161A"/>
<path d="M862 123.5C862 122.672 862.672 122 863.5 122H883.5C884.328 122 885 122.672 885 123.5C885 124.328 884.328 125 883.5 125H863.5C862.672 125 862 124.328 862 123.5Z" fill="#3F4350"/>
<path d="M862 128C862 127.448 862.448 127 863 127H895C895.552 127 896 127.448 896 128C896 128.552 895.552 129 895 129H863C862.448 129 862 128.552 862 128Z" fill="#3F4350"/>
</g>
<g opacity="0.5">
<path d="M857 138C857 136.895 857.895 136 859 136H946C947.105 136 948 136.895 948 138V148C948 149.105 947.105 150 946 150H859C857.895 150 857 149.105 857 148V138Z" fill="#15161A"/>
<rect x="862" y="138.5" width="9" height="9" rx="2" fill="#3F4350"/>
<path d="M873 140C873 138.895 873.895 138 875 138H905C906.105 138 907 138.895 907 140C907 141.105 906.105 142 905 142H875C873.895 142 873 141.105 873 140Z" fill="#3F4350"/>
<path d="M873 146C873 144.895 873.895 144 875 144H894C895.105 144 896 144.895 896 146C896 147.105 895.105 148 894 148H875C873.895 148 873 147.105 873 146Z" fill="#3F4350"/>
</g>
<g opacity="0.5">
<path d="M857 160C857 158.895 857.895 158 859 158H946C947.105 158 948 158.895 948 160V170C948 171.105 947.105 172 946 172H859C857.895 172 857 171.105 857 170V160Z" fill="#15161A"/>
<rect x="862" y="160.5" width="9" height="9" rx="2" fill="#3F4350"/>
<rect x="873" y="160" width="34" height="4" rx="2" fill="#3F4350"/>
<rect x="873" y="166" width="23" height="4" rx="2" fill="#3F4350"/>
</g>
<g opacity="0.5">
<path d="M961 138C961 136.895 961.895 136 963 136H1053C1054.1 136 1055 136.895 1055 138V148C1055 149.105 1054.1 150 1053 150H963C961.895 150 961 149.105 961 148V138Z" fill="#15161A"/>
<rect x="966" y="138.5" width="9" height="9" rx="2" fill="#3F4350"/>
<path d="M977 140C977 138.895 977.895 138 979 138H1009C1010.1 138 1011 138.895 1011 140C1011 141.105 1010.1 142 1009 142H979C977.895 142 977 141.105 977 140Z" fill="#3F4350"/>
<path d="M977 146C977 144.895 977.895 144 979 144H998C999.105 144 1000 144.895 1000 146C1000 147.105 999.105 148 998 148H979C977.895 148 977 147.105 977 146Z" fill="#3F4350"/>
</g>
<g opacity="0.5">
<path d="M961 160C961 158.895 961.895 158 963 158H1053C1054.1 158 1055 158.895 1055 160V170C1055 171.105 1054.1 172 1053 172H963C961.895 172 961 171.105 961 170V160Z" fill="#15161A"/>
<rect x="966" y="160.5" width="9" height="9" rx="2" fill="#3F4350"/>
<rect x="977" y="160" width="34" height="4" rx="2" fill="#3F4350"/>
<rect x="977" y="166" width="23" height="4" rx="2" fill="#3F4350"/>
</g>
<g opacity="0.5">
<path d="M1068 138C1068 136.895 1068.9 136 1070 136H1160C1161.1 136 1162 136.895 1162 138V148C1162 149.105 1161.1 150 1160 150H1070C1068.9 150 1068 149.105 1068 148V138Z" fill="#15161A"/>
<rect x="1073" y="138.5" width="9" height="9" rx="2" fill="#3F4350"/>
<path d="M1084 140C1084 138.895 1084.9 138 1086 138H1116C1117.1 138 1118 138.895 1118 140C1118 141.105 1117.1 142 1116 142H1086C1084.9 142 1084 141.105 1084 140Z" fill="#3F4350"/>
<path d="M1084 146C1084 144.895 1084.9 144 1086 144H1105C1106.1 144 1107 144.895 1107 146C1107 147.105 1106.1 148 1105 148H1086C1084.9 148 1084 147.105 1084 146Z" fill="#3F4350"/>
</g>
<g opacity="0.5">
<path d="M1068 160C1068 158.895 1068.9 158 1070 158H1160C1161.1 158 1162 158.895 1162 160V170C1162 171.105 1161.1 172 1160 172H1070C1068.9 172 1068 171.105 1068 170V160Z" fill="#15161A"/>
<rect x="1073" y="160.5" width="9" height="9" rx="2" fill="#3F4350"/>
<rect x="1084" y="160" width="34" height="4" rx="2" fill="#3F4350"/>
<rect x="1084" y="166" width="23" height="4" rx="2" fill="#3F4350"/>
</g>
<g opacity="0.5">
<path d="M1175 138C1175 136.895 1175.9 136 1177 136H1267C1268.1 136 1269 136.895 1269 138V148C1269 149.105 1268.1 150 1267 150H1177C1175.9 150 1175 149.105 1175 148V138Z" fill="#15161A"/>
<rect x="1180" y="138.5" width="9" height="9" rx="2" fill="#3F4350"/>
<path d="M1191 140C1191 138.895 1191.9 138 1193 138H1223C1224.1 138 1225 138.895 1225 140C1225 141.105 1224.1 142 1223 142H1193C1191.9 142 1191 141.105 1191 140Z" fill="#3F4350"/>
<path d="M1191 146C1191 144.895 1191.9 144 1193 144H1212C1213.1 144 1214 144.895 1214 146C1214 147.105 1213.1 148 1212 148H1193C1191.9 148 1191 147.105 1191 146Z" fill="#3F4350"/>
</g>
<g opacity="0.5">
<path d="M1175 160C1175 158.895 1175.9 158 1177 158H1267C1268.1 158 1269 158.895 1269 160V170C1269 171.105 1268.1 172 1267 172H1177C1175.9 172 1175 171.105 1175 170V160Z" fill="#15161A"/>
<rect x="1180" y="160.5" width="9" height="9" rx="2" fill="#3F4350"/>
<rect x="1191" y="160" width="34" height="4" rx="2" fill="#3F4350"/>
<rect x="1191" y="166" width="23" height="4" rx="2" fill="#3F4350"/>
</g>
<path d="M857 185C857 183.895 857.895 183 859 183H984C985.105 183 986 183.895 986 185V226C986 227.105 985.105 228 984 228H859C857.895 228 857 227.105 857 226V185Z" fill="#15161A"/>
<path opacity="0.5" d="M864 189C864 187.895 864.895 187 866 187H899C900.105 187 901 187.895 901 189V222C901 223.105 900.105 224 899 224H866C864.895 224 864 223.105 864 222V189Z" fill="#3F4350"/>
<g opacity="0.5">
<path d="M909 194C909 193.172 909.672 192.5 910.5 192.5H935.5C936.328 192.5 937 193.172 937 194C937 194.828 936.328 195.5 935.5 195.5H910.5C909.672 195.5 909 194.828 909 194Z" fill="#3F4350"/>
<path d="M909 200.5C909 199.395 909.895 198.5 911 198.5H957C958.105 198.5 959 199.395 959 200.5V201.5C959 202.605 958.105 203.5 957 203.5H911C909.895 203.5 909 202.605 909 201.5V200.5Z" fill="#3F4350"/>
<path d="M909 207C909 206.172 909.672 205.5 910.5 205.5H977.5C978.328 205.5 979 206.172 979 207C979 207.828 978.328 208.5 977.5 208.5H910.5C909.672 208.5 909 207.828 909 207Z" fill="#3F4350"/>
<path d="M909 212C909 211.172 909.672 210.5 910.5 210.5H977.5C978.328 210.5 979 211.172 979 212C979 212.828 978.328 213.5 977.5 213.5H910.5C909.672 213.5 909 212.828 909 212Z" fill="#3F4350"/>
<path d="M909 217C909 216.172 909.672 215.5 910.5 215.5H977.5C978.328 215.5 979 216.172 979 217C979 217.828 978.328 218.5 977.5 218.5H910.5C909.672 218.5 909 217.828 909 217Z" fill="#3F4350"/>
</g>
<path d="M999 185C999 183.895 999.895 183 1001 183H1126C1127.1 183 1128 183.895 1128 185V226C1128 227.105 1127.1 228 1126 228H1001C999.895 228 999 227.105 999 226V185Z" fill="#15161A"/>
<path opacity="0.5" d="M1006 189C1006 187.895 1006.9 187 1008 187H1041C1042.1 187 1043 187.895 1043 189V222C1043 223.105 1042.1 224 1041 224H1008C1006.9 224 1006 223.105 1006 222V189Z" fill="#3F4350"/>
<g opacity="0.5">
<path d="M1051 194C1051 193.172 1051.67 192.5 1052.5 192.5H1077.5C1078.33 192.5 1079 193.172 1079 194C1079 194.828 1078.33 195.5 1077.5 195.5H1052.5C1051.67 195.5 1051 194.828 1051 194Z" fill="#3F4350"/>
<path d="M1051 200.5C1051 199.395 1051.9 198.5 1053 198.5H1099C1100.1 198.5 1101 199.395 1101 200.5V201.5C1101 202.605 1100.1 203.5 1099 203.5H1053C1051.9 203.5 1051 202.605 1051 201.5V200.5Z" fill="#3F4350"/>
<path d="M1051 207C1051 206.172 1051.67 205.5 1052.5 205.5H1119.5C1120.33 205.5 1121 206.172 1121 207C1121 207.828 1120.33 208.5 1119.5 208.5H1052.5C1051.67 208.5 1051 207.828 1051 207Z" fill="#3F4350"/>
<path d="M1051 212C1051 211.172 1051.67 210.5 1052.5 210.5H1119.5C1120.33 210.5 1121 211.172 1121 212C1121 212.828 1120.33 213.5 1119.5 213.5H1052.5C1051.67 213.5 1051 212.828 1051 212Z" fill="#3F4350"/>
<path d="M1051 217C1051 216.172 1051.67 215.5 1052.5 215.5H1119.5C1120.33 215.5 1121 216.172 1121 217C1121 217.828 1120.33 218.5 1119.5 218.5H1052.5C1051.67 218.5 1051 217.828 1051 217Z" fill="#3F4350"/>
</g>
<path d="M1141 185C1141 183.895 1141.9 183 1143 183H1268C1269.1 183 1270 183.895 1270 185V226C1270 227.105 1269.1 228 1268 228H1143C1141.9 228 1141 227.105 1141 226V185Z" fill="#15161A"/>
<path opacity="0.5" d="M1148 189C1148 187.895 1148.9 187 1150 187H1183C1184.1 187 1185 187.895 1185 189V222C1185 223.105 1184.1 224 1183 224H1150C1148.9 224 1148 223.105 1148 222V189Z" fill="#3F4350"/>
<g opacity="0.5">
<path d="M1193 194C1193 193.172 1193.67 192.5 1194.5 192.5H1219.5C1220.33 192.5 1221 193.172 1221 194C1221 194.828 1220.33 195.5 1219.5 195.5H1194.5C1193.67 195.5 1193 194.828 1193 194Z" fill="#3F4350"/>
<path d="M1193 200.5C1193 199.395 1193.9 198.5 1195 198.5H1241C1242.1 198.5 1243 199.395 1243 200.5V201.5C1243 202.605 1242.1 203.5 1241 203.5H1195C1193.9 203.5 1193 202.605 1193 201.5V200.5Z" fill="#3F4350"/>
<path d="M1193 207C1193 206.172 1193.67 205.5 1194.5 205.5H1261.5C1262.33 205.5 1263 206.172 1263 207C1263 207.828 1262.33 208.5 1261.5 208.5H1194.5C1193.67 208.5 1193 207.828 1193 207Z" fill="#3F4350"/>
<path d="M1193 212C1193 211.172 1193.67 210.5 1194.5 210.5H1261.5C1262.33 210.5 1263 211.172 1263 212C1263 212.828 1262.33 213.5 1261.5 213.5H1194.5C1193.67 213.5 1193 212.828 1193 212Z" fill="#3F4350"/>
<path d="M1193 217C1193 216.172 1193.67 215.5 1194.5 215.5H1261.5C1262.33 215.5 1263 216.172 1263 217C1263 217.828 1262.33 218.5 1261.5 218.5H1194.5C1193.67 218.5 1193 217.828 1193 217Z" fill="#3F4350"/>
</g>
<g opacity="0.5">
<path d="M857 241C857 239.895 857.895 239 859 239H1267C1268.1 239 1269 239.895 1269 241V249C1269 250.105 1268.1 251 1267 251H859C857.895 251 857 250.105 857 249V241Z" fill="#15161A"/>
<path d="M862 242.5C862 241.672 862.672 241 863.5 241H883.5C884.328 241 885 241.672 885 242.5C885 243.328 884.328 244 883.5 244H863.5C862.672 244 862 243.328 862 242.5Z" fill="#3F4350"/>
<path d="M862 247C862 246.448 862.448 246 863 246H895C895.552 246 896 246.448 896 247C896 247.552 895.552 248 895 248H863C862.448 248 862 247.552 862 247Z" fill="#3F4350"/>
</g>
<g opacity="0.5">
<path d="M857 257C857 255.895 857.895 255 859 255H946C947.105 255 948 255.895 948 257V267C948 268.105 947.105 269 946 269H859C857.895 269 857 268.105 857 267V257Z" fill="#15161A"/>
<rect x="862" y="257.5" width="9" height="9" rx="2" fill="#3F4350"/>
<path d="M873 259C873 257.895 873.895 257 875 257H905C906.105 257 907 257.895 907 259C907 260.105 906.105 261 905 261H875C873.895 261 873 260.105 873 259Z" fill="#3F4350"/>
<path d="M873 265C873 263.895 873.895 263 875 263H894C895.105 263 896 263.895 896 265C896 266.105 895.105 267 894 267H875C873.895 267 873 266.105 873 265Z" fill="#3F4350"/>
</g>
<g opacity="0.5">
<path d="M857 279C857 277.895 857.895 277 859 277H946C947.105 277 948 277.895 948 279V289C948 290.105 947.105 291 946 291H859C857.895 291 857 290.105 857 289V279Z" fill="#15161A"/>
<rect x="862" y="279.5" width="9" height="9" rx="2" fill="#3F4350"/>
<rect x="873" y="279" width="34" height="4" rx="2" fill="#3F4350"/>
<rect x="873" y="285" width="23" height="4" rx="2" fill="#3F4350"/>
</g>
<g opacity="0.5">
<path d="M961 257C961 255.895 961.895 255 963 255H1053C1054.1 255 1055 255.895 1055 257V267C1055 268.105 1054.1 269 1053 269H963C961.895 269 961 268.105 961 267V257Z" fill="#15161A"/>
<rect x="966" y="257.5" width="9" height="9" rx="2" fill="#3F4350"/>
<path d="M977 259C977 257.895 977.895 257 979 257H1009C1010.1 257 1011 257.895 1011 259C1011 260.105 1010.1 261 1009 261H979C977.895 261 977 260.105 977 259Z" fill="#3F4350"/>
<path d="M977 265C977 263.895 977.895 263 979 263H998C999.105 263 1000 263.895 1000 265C1000 266.105 999.105 267 998 267H979C977.895 267 977 266.105 977 265Z" fill="#3F4350"/>
</g>
<g opacity="0.5">
<path d="M961 279C961 277.895 961.895 277 963 277H1053C1054.1 277 1055 277.895 1055 279V289C1055 290.105 1054.1 291 1053 291H963C961.895 291 961 290.105 961 289V279Z" fill="#15161A"/>
<rect x="966" y="279.5" width="9" height="9" rx="2" fill="#3F4350"/>
<rect x="977" y="279" width="34" height="4" rx="2" fill="#3F4350"/>
<rect x="977" y="285" width="23" height="4" rx="2" fill="#3F4350"/>
</g>
<g opacity="0.5">
<path d="M1068 257C1068 255.895 1068.9 255 1070 255H1160C1161.1 255 1162 255.895 1162 257V267C1162 268.105 1161.1 269 1160 269H1070C1068.9 269 1068 268.105 1068 267V257Z" fill="#15161A"/>
<rect x="1073" y="257.5" width="9" height="9" rx="2" fill="#3F4350"/>
<path d="M1084 259C1084 257.895 1084.9 257 1086 257H1116C1117.1 257 1118 257.895 1118 259C1118 260.105 1117.1 261 1116 261H1086C1084.9 261 1084 260.105 1084 259Z" fill="#3F4350"/>
<path d="M1084 265C1084 263.895 1084.9 263 1086 263H1105C1106.1 263 1107 263.895 1107 265C1107 266.105 1106.1 267 1105 267H1086C1084.9 267 1084 266.105 1084 265Z" fill="#3F4350"/>
</g>
<g opacity="0.5">
<path d="M1068 279C1068 277.895 1068.9 277 1070 277H1160C1161.1 277 1162 277.895 1162 279V289C1162 290.105 1161.1 291 1160 291H1070C1068.9 291 1068 290.105 1068 289V279Z" fill="#15161A"/>
<rect x="1073" y="279.5" width="9" height="9" rx="2" fill="#3F4350"/>
<rect x="1084" y="279" width="34" height="4" rx="2" fill="#3F4350"/>
<rect x="1084" y="285" width="23" height="4" rx="2" fill="#3F4350"/>
</g>
<g opacity="0.5">
<path d="M1175 257C1175 255.895 1175.9 255 1177 255H1267C1268.1 255 1269 255.895 1269 257V267C1269 268.105 1268.1 269 1267 269H1177C1175.9 269 1175 268.105 1175 267V257Z" fill="#15161A"/>
<rect x="1180" y="257.5" width="9" height="9" rx="2" fill="#3F4350"/>
<path d="M1191 259C1191 257.895 1191.9 257 1193 257H1223C1224.1 257 1225 257.895 1225 259C1225 260.105 1224.1 261 1223 261H1193C1191.9 261 1191 260.105 1191 259Z" fill="#3F4350"/>
<path d="M1191 265C1191 263.895 1191.9 263 1193 263H1212C1213.1 263 1214 263.895 1214 265C1214 266.105 1213.1 267 1212 267H1193C1191.9 267 1191 266.105 1191 265Z" fill="#3F4350"/>
</g>
<g opacity="0.5">
<path d="M1175 279C1175 277.895 1175.9 277 1177 277H1267C1268.1 277 1269 277.895 1269 279V289C1269 290.105 1268.1 291 1267 291H1177C1175.9 291 1175 290.105 1175 289V279Z" fill="#15161A"/>
<rect x="1180" y="279.5" width="9" height="9" rx="2" fill="#3F4350"/>
<rect x="1191" y="279" width="34" height="4" rx="2" fill="#3F4350"/>
<rect x="1191" y="285" width="23" height="4" rx="2" fill="#3F4350"/>
</g>
<rect width="101" height="296" transform="translate(750 15)" fill="#15161A"/>
<path d="M757 26.5C757 25.6716 757.672 25 758.5 25H778.5C779.328 25 780 25.6716 780 26.5C780 27.3284 779.328 28 778.5 28H758.5C757.672 28 757 27.3284 757 26.5Z" fill="#3F4350"/>
<rect width="87" height="12" transform="translate(757 36)" fill="#1C1D23"/>
<path d="M759 40C759 38.8954 759.895 38 761 38H765C766.105 38 767 38.8954 767 40V44C767 45.1046 766.105 46 765 46H761C759.895 46 759 45.1046 759 44V40Z" fill="#3F4350"/>
<path d="M770 42C770 41.1716 770.672 40.5 771.5 40.5H806.5C807.328 40.5 808 41.1716 808 42C808 42.8284 807.328 43.5 806.5 43.5H771.5C770.672 43.5 770 42.8284 770 42Z" fill="#3F4350"/>
<path d="M770 51.5C770 50.6716 770.672 50 771.5 50H806.5C807.328 50 808 50.6716 808 51.5C808 52.3284 807.328 53 806.5 53H771.5C770.672 53 770 52.3284 770 51.5Z" fill="#3F4350"/>
<path d="M770 59.5C770 58.6716 770.672 58 771.5 58H814.5C815.328 58 816 58.6716 816 59.5C816 60.3284 815.328 61 814.5 61H771.5C770.672 61 770 60.3284 770 59.5Z" fill="#3F4350"/>
<path d="M770 67.5C770 66.6716 770.672 66 771.5 66H806.5C807.328 66 808 66.6716 808 67.5C808 68.3284 807.328 69 806.5 69H771.5C770.672 69 770 68.3284 770 67.5Z" fill="#3F4350"/>
<path d="M770 75.5C770 74.6716 770.672 74 771.5 74H811.5C812.328 74 813 74.6716 813 75.5C813 76.3284 812.328 77 811.5 77H771.5C770.672 77 770 76.3284 770 75.5Z" fill="#3F4350"/>
<path d="M770 83.5C770 82.6716 770.672 82 771.5 82H816.5C817.328 82 818 82.6716 818 83.5C818 84.3284 817.328 85 816.5 85H771.5C770.672 85 770 84.3284 770 83.5Z" fill="#3F4350"/>
<path d="M757 95C757 93.8954 757.895 93 759 93H763C764.105 93 765 93.8954 765 95V99C765 100.105 764.105 101 763 101H759C757.895 101 757 100.105 757 99V95Z" fill="#3F4350"/>
<path d="M768 97C768 96.1716 768.672 95.5 769.5 95.5H804.5C805.328 95.5 806 96.1716 806 97C806 97.8284 805.328 98.5 804.5 98.5H769.5C768.672 98.5 768 97.8284 768 97Z" fill="#3F4350"/>
<path d="M768 107.5C768 106.672 768.672 106 769.5 106H800.5C801.328 106 802 106.672 802 107.5C802 108.328 801.328 109 800.5 109H769.5C768.672 109 768 108.328 768 107.5Z" fill="#3F4350"/>
<path d="M768 115.5C768 114.672 768.672 114 769.5 114H812.5C813.328 114 814 114.672 814 115.5C814 116.328 813.328 117 812.5 117H769.5C768.672 117 768 116.328 768 115.5Z" fill="#3F4350"/>
<path d="M768 123.5C768 122.672 768.672 122 769.5 122H803.5C804.328 122 805 122.672 805 123.5C805 124.328 804.328 125 803.5 125H769.5C768.672 125 768 124.328 768 123.5Z" fill="#3F4350"/>
<path d="M768 131.5C768 130.672 768.672 130 769.5 130H808.5C809.328 130 810 130.672 810 131.5C810 132.328 809.328 133 808.5 133H769.5C768.672 133 768 132.328 768 131.5Z" fill="#3F4350"/>
<path d="M768 139.5C768 138.672 768.672 138 769.5 138H815.5C816.328 138 817 138.672 817 139.5C817 140.328 816.328 141 815.5 141H769.5C768.672 141 768 140.328 768 139.5Z" fill="#3F4350"/>
<rect width="101" height="12" transform="translate(750 299)" fill="#1C1D23"/>
<path d="M758 303C758 301.895 758.895 301 760 301H764C765.105 301 766 301.895 766 303V307C766 308.105 765.105 309 764 309H760C758.895 309 758 308.105 758 307V303Z" fill="#3F4350"/>
<path d="M769 305C769 304.172 769.672 303.5 770.5 303.5H805.5C806.328 303.5 807 304.172 807 305C807 305.828 806.328 306.5 805.5 306.5H770.5C769.672 306.5 769 305.828 769 305Z" fill="#3F4350"/>
</svg>
