<svg width="684" height="419" viewBox="0 0 684 419" fill="none" xmlns="http://www.w3.org/2000/svg">
<rect width="684" height="419" fill="#3F4350"/>
<rect x="302.969" y="109" width="346.375" height="181.228" rx="3.47679" fill="#0D0E11"/>
<rect x="375.98" y="117.692" width="200.35" height="15.6455" rx="1.73839" fill="#1C1D23"/>
<rect x="382.949" y="122.469" width="34.7679" height="6.08438" rx="1.73839" fill="#15161A"/>
<rect x="463.777" y="122.469" width="34.7679" height="6.08438" rx="1.73839" fill="#15161A"/>
<rect x="423.371" y="122.469" width="34.7679" height="6.08438" rx="1.73839" fill="#15161A"/>
<rect x="375.98" y="137.683" width="200.35" height="63.886" rx="1.73839" fill="#15161A"/>
<rect x="375.98" y="205.916" width="200.35" height="15.6455" rx="1.73839" fill="#1C1D23"/>
<rect x="382.949" y="207.656" width="34.7679" height="4.78058" rx="1.73839" fill="#15161A"/>
<rect x="382.949" y="214.175" width="52.1518" height="3.47679" rx="1.73839" fill="#15161A"/>
<g clip-path="url(#clip0_14259_778)">
<rect x="375.98" y="225.907" width="60.9887" height="26.0759" rx="1.73839" fill="#1C1D23"/>
<rect x="382.949" y="231.989" width="13.9072" height="13.9072" rx="1.73839" fill="#15161A"/>
<rect x="401.199" y="232.86" width="69.5358" height="6.08438" rx="1.73839" fill="#15161A"/>
<rect x="401.199" y="240.682" width="52.1518" height="4.34599" rx="1.73839" fill="#15161A"/>
</g>
<g clip-path="url(#clip1_14259_778)">
<rect x="375.98" y="255.46" width="60.9887" height="26.0759" rx="1.73839" fill="#1C1D23"/>
<rect x="382.949" y="261.546" width="13.9072" height="13.9072" rx="1.73839" fill="#15161A"/>
<rect x="401.199" y="262.417" width="69.5358" height="6.08438" rx="1.73839" fill="#15161A"/>
<rect x="401.199" y="270.239" width="52.1518" height="4.34599" rx="1.73839" fill="#15161A"/>
</g>
<g clip-path="url(#clip2_14259_778)">
<rect x="445.66" y="225.907" width="60.9887" height="26.0759" rx="1.73839" fill="#1C1D23"/>
<rect x="452.598" y="231.989" width="13.9072" height="13.9072" rx="1.73839" fill="#15161A"/>
<rect x="470.848" y="232.86" width="69.5358" height="6.08438" rx="1.73839" fill="#15161A"/>
<rect x="470.848" y="240.682" width="52.1518" height="4.34599" rx="1.73839" fill="#15161A"/>
</g>
<g clip-path="url(#clip3_14259_778)">
<rect x="445.66" y="255.46" width="60.9887" height="26.0759" rx="1.73839" fill="#1C1D23"/>
<rect x="452.598" y="261.546" width="13.9072" height="13.9072" rx="1.73839" fill="#15161A"/>
<rect x="470.848" y="262.417" width="69.5358" height="6.08438" rx="1.73839" fill="#15161A"/>
<rect x="470.848" y="270.239" width="52.1518" height="4.34599" rx="1.73839" fill="#15161A"/>
</g>
<g clip-path="url(#clip4_14259_778)">
<rect x="515.342" y="225.907" width="60.9887" height="26.0759" rx="1.73839" fill="#1C1D23"/>
<rect x="522.287" y="231.989" width="13.9072" height="13.9072" rx="1.73839" fill="#15161A"/>
<rect x="540.537" y="232.86" width="69.5358" height="6.08438" rx="1.73839" fill="#15161A"/>
<rect x="540.537" y="240.682" width="52.1518" height="4.34599" rx="1.73839" fill="#15161A"/>
</g>
<g clip-path="url(#clip5_14259_778)">
<rect x="515.342" y="255.46" width="60.9887" height="26.0759" rx="1.73839" fill="#1C1D23"/>
<rect x="522.287" y="261.546" width="13.9072" height="13.9072" rx="1.73839" fill="#15161A"/>
<rect x="540.537" y="262.417" width="69.5358" height="6.08438" rx="1.73839" fill="#15161A"/>
<rect x="540.537" y="270.239" width="52.1518" height="4.34599" rx="1.73839" fill="#15161A"/>
</g>
<rect x="37" y="109" width="215.995" height="181.228" rx="3.47679" fill="#0D0E11"/>
<rect x="45.6914" y="117.692" width="198.612" height="15.6455" rx="1.73839" fill="#1C1D23"/>
<rect x="52.6367" y="122.469" width="34.7679" height="6.08438" rx="1.73839" fill="#15161A"/>
<rect x="133.465" y="122.469" width="34.7679" height="6.08438" rx="1.73839" fill="#15161A"/>
<rect x="93.0586" y="122.469" width="34.7679" height="6.08438" rx="1.73839" fill="#15161A"/>
<rect x="45.6914" y="137.683" width="198.612" height="63.886" rx="1.73839" fill="#15161A"/>
<rect x="45.6914" y="205.916" width="198.612" height="15.6455" rx="1.73839" fill="#1C1D23"/>
<rect x="52.6367" y="207.656" width="34.7679" height="4.78058" rx="1.73839" fill="#15161A"/>
<rect x="52.6367" y="214.175" width="52.1518" height="3.47679" rx="1.73839" fill="#15161A"/>
<rect x="45.6914" y="225.907" width="60.4092" height="26.0759" rx="1.73839" fill="#1C1D23"/>
<rect x="52.6367" y="231.989" width="13.9072" height="13.9072" rx="1.73839" fill="#15161A"/>
<rect x="70.8867" y="232.86" width="28.6835" height="6.08438" rx="1.73839" fill="#15161A"/>
<rect x="70.8867" y="240.682" width="21.7299" height="4.34599" rx="1.73839" fill="#15161A"/>
<rect x="45.6914" y="255.46" width="60.4092" height="26.0759" rx="1.73839" fill="#1C1D23"/>
<rect x="52.6367" y="261.546" width="13.9072" height="13.9072" rx="1.73839" fill="#15161A"/>
<rect x="70.8867" y="262.417" width="29.5527" height="6.08438" rx="1.73839" fill="#15161A"/>
<rect x="70.8867" y="270.239" width="22.1645" height="4.34599" rx="1.73839" fill="#15161A"/>
<rect x="114.793" y="225.907" width="60.4092" height="26.0759" rx="1.73839" fill="#1C1D23"/>
<rect x="121.738" y="231.989" width="13.9072" height="13.9072" rx="1.73839" fill="#15161A"/>
<rect x="139.988" y="232.86" width="29.5527" height="6.08438" rx="1.73839" fill="#15161A"/>
<rect x="139.988" y="240.682" width="22.1645" height="4.34599" rx="1.73839" fill="#15161A"/>
<rect x="114.793" y="255.46" width="60.4092" height="26.0759" rx="1.73839" fill="#1C1D23"/>
<rect x="121.738" y="261.546" width="13.9072" height="13.9072" rx="1.73839" fill="#15161A"/>
<rect x="139.988" y="262.417" width="29.5527" height="6.08438" rx="1.73839" fill="#15161A"/>
<rect x="139.988" y="270.239" width="22.1645" height="4.34599" rx="1.73839" fill="#15161A"/>
<rect x="183.895" y="225.907" width="60.4092" height="26.0759" rx="1.73839" fill="#1C1D23"/>
<rect x="190.848" y="231.989" width="13.9072" height="13.9072" rx="1.73839" fill="#15161A"/>
<rect x="209.098" y="232.86" width="28.2489" height="6.08438" rx="1.73839" fill="#15161A"/>
<rect x="209.098" y="240.682" width="21.2953" height="4.34599" rx="1.73839" fill="#15161A"/>
<rect x="183.895" y="255.46" width="60.4092" height="26.0759" rx="1.73839" fill="#1C1D23"/>
<rect x="190.848" y="261.546" width="13.9072" height="13.9072" rx="1.73839" fill="#15161A"/>
<rect x="209.098" y="262.417" width="29.9873" height="6.08438" rx="1.73839" fill="#15161A"/>
<rect x="209.098" y="270.239" width="22.5991" height="4.34599" rx="1.73839" fill="#15161A"/>
<g clip-path="url(#clip6_14259_778)">
<rect x="47" y="301.965" width="0.434599" height="3.91139" rx="0.217299" fill="#9747FF"/>
<rect x="242.141" y="301.965" width="0.434599" height="3.91139" rx="0.217299" fill="#9747FF"/>
<rect x="47.4375" y="303.703" width="194.7" height="0.434599" fill="#9747FF"/>
</g>
<g clip-path="url(#clip7_14259_778)">
<rect x="378.594" y="301.965" width="0.434599" height="3.91139" rx="0.217299" fill="#9747FF"/>
<rect x="573.734" y="301.965" width="0.434599" height="3.91139" rx="0.217299" fill="#9747FF"/>
<rect x="379.031" y="303.703" width="194.7" height="0.434599" fill="#9747FF"/>
</g>
<path d="M130.784 335L135.104 324.776L136.592 324.824L132.352 335H130.784ZM128.816 325.24V323.896H136.592V324.824L135.936 325.24H128.816ZM142.158 335.16C141.422 335.16 140.755 334.989 140.158 334.648C139.56 334.307 139.091 333.848 138.75 333.272C138.408 332.696 138.238 332.056 138.238 331.352C138.238 330.36 138.579 329.384 139.262 328.424L142.606 323.896H144.35L140.958 328.456L140.414 328.744C140.542 328.52 140.696 328.333 140.878 328.184C141.059 328.024 141.283 327.901 141.549 327.816C141.827 327.731 142.147 327.688 142.51 327.688C143.171 327.688 143.768 327.843 144.302 328.152C144.846 328.461 145.278 328.888 145.598 329.432C145.928 329.965 146.094 330.589 146.094 331.304C146.094 332.008 145.918 332.653 145.566 333.24C145.214 333.827 144.739 334.296 144.142 334.648C143.544 334.989 142.883 335.16 142.158 335.16ZM142.158 333.752C142.616 333.752 143.027 333.645 143.39 333.432C143.763 333.208 144.056 332.915 144.27 332.552C144.483 332.179 144.59 331.763 144.59 331.304C144.59 330.845 144.483 330.435 144.27 330.072C144.056 329.699 143.763 329.405 143.39 329.192C143.027 328.979 142.616 328.872 142.158 328.872C141.699 328.872 141.283 328.979 140.91 329.192C140.547 329.405 140.259 329.699 140.046 330.072C139.843 330.435 139.742 330.845 139.742 331.304C139.742 331.763 139.843 332.179 140.046 332.552C140.259 332.925 140.547 333.219 140.91 333.432C141.283 333.645 141.699 333.752 142.158 333.752ZM151.579 335.16C150.832 335.16 150.171 335.021 149.595 334.744C149.019 334.467 148.571 334.083 148.251 333.592C147.931 333.101 147.771 332.547 147.771 331.928C147.771 331.427 147.872 330.968 148.075 330.552C148.278 330.136 148.566 329.784 148.939 329.496C149.323 329.197 149.776 328.984 150.299 328.856L150.347 329.288C149.91 329.171 149.536 328.984 149.227 328.728C148.928 328.461 148.699 328.152 148.539 327.8C148.379 327.437 148.299 327.053 148.299 326.648C148.299 326.072 148.438 325.565 148.715 325.128C149.003 324.691 149.398 324.349 149.899 324.104C150.4 323.848 150.96 323.72 151.579 323.72C152.219 323.72 152.784 323.848 153.275 324.104C153.776 324.349 154.171 324.691 154.459 325.128C154.747 325.565 154.891 326.072 154.891 326.648C154.891 327.053 154.811 327.437 154.651 327.8C154.491 328.152 154.256 328.461 153.947 328.728C153.648 328.984 153.28 329.171 152.843 329.288L152.891 328.856C153.414 328.984 153.862 329.197 154.235 329.496C154.608 329.784 154.896 330.136 155.099 330.552C155.302 330.968 155.403 331.427 155.403 331.928C155.403 332.547 155.243 333.101 154.923 333.592C154.603 334.083 154.155 334.467 153.579 334.744C153.014 335.021 152.347 335.16 151.579 335.16ZM151.579 333.8C152.048 333.8 152.459 333.715 152.811 333.544C153.174 333.363 153.456 333.117 153.659 332.808C153.862 332.499 153.963 332.141 153.963 331.736C153.963 331.341 153.862 330.989 153.659 330.68C153.456 330.371 153.174 330.131 152.811 329.96C152.459 329.779 152.048 329.688 151.579 329.688C151.12 329.688 150.715 329.779 150.363 329.96C150.011 330.131 149.734 330.371 149.531 330.68C149.328 330.989 149.227 331.341 149.227 331.736C149.227 332.141 149.328 332.499 149.531 332.808C149.734 333.117 150.011 333.363 150.363 333.544C150.715 333.715 151.12 333.8 151.579 333.8ZM151.579 328.52C152.134 328.52 152.587 328.355 152.939 328.024C153.302 327.693 153.483 327.267 153.483 326.744C153.483 326.232 153.302 325.816 152.939 325.496C152.587 325.165 152.134 325 151.579 325C151.035 325 150.582 325.165 150.219 325.496C149.867 325.816 149.691 326.232 149.691 326.744C149.691 327.267 149.867 327.693 150.219 328.024C150.582 328.355 151.035 328.52 151.579 328.52ZM161.369 335.16C160.793 335.16 160.27 335.043 159.801 334.808C159.342 334.563 158.974 334.227 158.697 333.8C158.419 333.373 158.265 332.888 158.233 332.344V330.056C158.265 329.501 158.419 329.016 158.697 328.6C158.985 328.173 159.358 327.843 159.817 327.608C160.286 327.363 160.803 327.24 161.369 327.24C162.062 327.24 162.686 327.416 163.241 327.768C163.806 328.12 164.249 328.595 164.569 329.192C164.889 329.789 165.049 330.461 165.049 331.208C165.049 331.955 164.889 332.627 164.569 333.224C164.249 333.821 163.806 334.296 163.241 334.648C162.686 334.989 162.062 335.16 161.369 335.16ZM157.368 338.184V327.4H158.809V329.4L158.537 331.24L158.809 333.096V338.184H157.368ZM161.129 333.8C161.609 333.8 162.03 333.688 162.393 333.464C162.755 333.24 163.043 332.936 163.257 332.552C163.47 332.157 163.577 331.704 163.577 331.192C163.577 330.691 163.47 330.243 163.257 329.848C163.043 329.453 162.755 329.149 162.393 328.936C162.03 328.712 161.614 328.6 161.145 328.6C160.665 328.6 160.243 328.712 159.881 328.936C159.518 329.149 159.235 329.453 159.033 329.848C158.83 330.243 158.729 330.696 158.729 331.208C158.729 331.709 158.825 332.157 159.017 332.552C159.219 332.936 159.502 333.24 159.865 333.464C160.238 333.688 160.659 333.8 161.129 333.8ZM171.439 335L169.071 331.672L168.799 331.416L165.807 327.4H167.551L169.711 330.36L169.983 330.584L173.183 335H171.439ZM165.663 335L168.799 330.776L169.615 331.832L167.359 335H165.663ZM170.095 331.4L169.263 330.376L171.359 327.4H173.039L170.095 331.4Z" fill="#F1F2F4"/>
<path d="M462.784 335L467.104 324.776L468.592 324.824L464.352 335H462.784ZM460.816 325.24V323.896H468.592V324.824L467.936 325.24H460.816ZM474.158 335.16C473.422 335.16 472.755 334.989 472.158 334.648C471.56 334.307 471.091 333.848 470.75 333.272C470.408 332.696 470.238 332.056 470.238 331.352C470.238 330.36 470.579 329.384 471.262 328.424L474.606 323.896H476.35L472.958 328.456L472.414 328.744C472.542 328.52 472.696 328.333 472.878 328.184C473.059 328.024 473.283 327.901 473.549 327.816C473.827 327.731 474.147 327.688 474.51 327.688C475.171 327.688 475.768 327.843 476.302 328.152C476.846 328.461 477.278 328.888 477.598 329.432C477.928 329.965 478.094 330.589 478.094 331.304C478.094 332.008 477.918 332.653 477.566 333.24C477.214 333.827 476.739 334.296 476.142 334.648C475.544 334.989 474.883 335.16 474.158 335.16ZM474.158 333.752C474.616 333.752 475.027 333.645 475.39 333.432C475.763 333.208 476.056 332.915 476.27 332.552C476.483 332.179 476.59 331.763 476.59 331.304C476.59 330.845 476.483 330.435 476.27 330.072C476.056 329.699 475.763 329.405 475.39 329.192C475.027 328.979 474.616 328.872 474.158 328.872C473.699 328.872 473.283 328.979 472.91 329.192C472.547 329.405 472.259 329.699 472.046 330.072C471.843 330.435 471.742 330.845 471.742 331.304C471.742 331.763 471.843 332.179 472.046 332.552C472.259 332.925 472.547 333.219 472.91 333.432C473.283 333.645 473.699 333.752 474.158 333.752ZM483.579 335.16C482.832 335.16 482.171 335.021 481.595 334.744C481.019 334.467 480.571 334.083 480.251 333.592C479.931 333.101 479.771 332.547 479.771 331.928C479.771 331.427 479.872 330.968 480.075 330.552C480.278 330.136 480.566 329.784 480.939 329.496C481.323 329.197 481.776 328.984 482.299 328.856L482.347 329.288C481.91 329.171 481.536 328.984 481.227 328.728C480.928 328.461 480.699 328.152 480.539 327.8C480.379 327.437 480.299 327.053 480.299 326.648C480.299 326.072 480.438 325.565 480.715 325.128C481.003 324.691 481.398 324.349 481.899 324.104C482.4 323.848 482.96 323.72 483.579 323.72C484.219 323.72 484.784 323.848 485.275 324.104C485.776 324.349 486.171 324.691 486.459 325.128C486.747 325.565 486.891 326.072 486.891 326.648C486.891 327.053 486.811 327.437 486.651 327.8C486.491 328.152 486.256 328.461 485.947 328.728C485.648 328.984 485.28 329.171 484.843 329.288L484.891 328.856C485.414 328.984 485.862 329.197 486.235 329.496C486.608 329.784 486.896 330.136 487.099 330.552C487.302 330.968 487.403 331.427 487.403 331.928C487.403 332.547 487.243 333.101 486.923 333.592C486.603 334.083 486.155 334.467 485.579 334.744C485.014 335.021 484.347 335.16 483.579 335.16ZM483.579 333.8C484.048 333.8 484.459 333.715 484.811 333.544C485.174 333.363 485.456 333.117 485.659 332.808C485.862 332.499 485.963 332.141 485.963 331.736C485.963 331.341 485.862 330.989 485.659 330.68C485.456 330.371 485.174 330.131 484.811 329.96C484.459 329.779 484.048 329.688 483.579 329.688C483.12 329.688 482.715 329.779 482.363 329.96C482.011 330.131 481.734 330.371 481.531 330.68C481.328 330.989 481.227 331.341 481.227 331.736C481.227 332.141 481.328 332.499 481.531 332.808C481.734 333.117 482.011 333.363 482.363 333.544C482.715 333.715 483.12 333.8 483.579 333.8ZM483.579 328.52C484.134 328.52 484.587 328.355 484.939 328.024C485.302 327.693 485.483 327.267 485.483 326.744C485.483 326.232 485.302 325.816 484.939 325.496C484.587 325.165 484.134 325 483.579 325C483.035 325 482.582 325.165 482.219 325.496C481.867 325.816 481.691 326.232 481.691 326.744C481.691 327.267 481.867 327.693 482.219 328.024C482.582 328.355 483.035 328.52 483.579 328.52ZM493.369 335.16C492.793 335.16 492.27 335.043 491.801 334.808C491.342 334.563 490.974 334.227 490.697 333.8C490.419 333.373 490.265 332.888 490.233 332.344V330.056C490.265 329.501 490.419 329.016 490.697 328.6C490.985 328.173 491.358 327.843 491.817 327.608C492.286 327.363 492.803 327.24 493.369 327.24C494.062 327.24 494.686 327.416 495.241 327.768C495.806 328.12 496.249 328.595 496.569 329.192C496.889 329.789 497.049 330.461 497.049 331.208C497.049 331.955 496.889 332.627 496.569 333.224C496.249 333.821 495.806 334.296 495.241 334.648C494.686 334.989 494.062 335.16 493.369 335.16ZM489.368 338.184V327.4H490.809V329.4L490.537 331.24L490.809 333.096V338.184H489.368ZM493.129 333.8C493.609 333.8 494.03 333.688 494.393 333.464C494.755 333.24 495.043 332.936 495.257 332.552C495.47 332.157 495.577 331.704 495.577 331.192C495.577 330.691 495.47 330.243 495.257 329.848C495.043 329.453 494.755 329.149 494.393 328.936C494.03 328.712 493.614 328.6 493.145 328.6C492.665 328.6 492.243 328.712 491.881 328.936C491.518 329.149 491.235 329.453 491.033 329.848C490.83 330.243 490.729 330.696 490.729 331.208C490.729 331.709 490.825 332.157 491.017 332.552C491.219 332.936 491.502 333.24 491.865 333.464C492.238 333.688 492.659 333.8 493.129 333.8ZM503.439 335L501.071 331.672L500.799 331.416L497.807 327.4H499.551L501.711 330.36L501.983 330.584L505.183 335H503.439ZM497.663 335L500.799 330.776L501.615 331.832L499.359 335H497.663ZM502.095 331.4L501.263 330.376L503.359 327.4H505.039L502.095 331.4Z" fill="#F1F2F4"/>
<defs>
<clipPath id="clip0_14259_778">
<rect x="375.98" y="225.907" width="60.9887" height="26.0759" rx="1.73839" fill="white"/>
</clipPath>
<clipPath id="clip1_14259_778">
<rect x="375.98" y="255.46" width="60.9887" height="26.0759" rx="1.73839" fill="white"/>
</clipPath>
<clipPath id="clip2_14259_778">
<rect x="445.66" y="225.907" width="60.9887" height="26.0759" rx="1.73839" fill="white"/>
</clipPath>
<clipPath id="clip3_14259_778">
<rect x="445.66" y="255.46" width="60.9887" height="26.0759" rx="1.73839" fill="white"/>
</clipPath>
<clipPath id="clip4_14259_778">
<rect x="515.342" y="225.907" width="60.9887" height="26.0759" rx="1.73839" fill="white"/>
</clipPath>
<clipPath id="clip5_14259_778">
<rect x="515.342" y="255.46" width="60.9887" height="26.0759" rx="1.73839" fill="white"/>
</clipPath>
<clipPath id="clip6_14259_778">
<rect width="195.569" height="3.91139" fill="white" transform="translate(47 301.965)"/>
</clipPath>
<clipPath id="clip7_14259_778">
<rect width="195.569" height="3.91139" fill="white" transform="translate(378.594 301.965)"/>
</clipPath>
</defs>
</svg>
