<svg width="684" height="419" viewBox="0 0 684 419" fill="none" xmlns="http://www.w3.org/2000/svg">
<rect width="684" height="419" fill="#F6F6F8"/>
<rect width="353.531" height="184.972" transform="translate(301.469 109)" fill="white"/>
<rect x="310.34" y="117.872" width="335.788" height="15.9688" rx="1.77431" fill="white"/>
<rect x="317.441" y="122.752" width="35.4862" height="6.21008" rx="1.77431" fill="#F1F2F4"/>
<rect x="399.941" y="122.752" width="35.4862" height="6.21008" rx="1.77431" fill="#F1F2F4"/>
<rect x="358.699" y="122.752" width="35.4862" height="6.21008" rx="1.77431" fill="#F1F2F4"/>
<rect x="310.34" y="138.276" width="335.788" height="65.2058" rx="1.77431" fill="#F1F2F4"/>
<rect x="310.34" y="207.918" width="335.788" height="15.9688" rx="1.77431" fill="white"/>
<rect x="317.441" y="209.691" width="35.4862" height="4.87935" rx="1.77431" fill="#F1F2F4"/>
<rect x="317.441" y="216.345" width="53.2292" height="3.54862" rx="1.77431" fill="#F1F2F4"/>
<rect x="310.34" y="228.322" width="106.015" height="26.6146" rx="1.77431" fill="white"/>
<rect x="317.438" y="234.532" width="14.1945" height="14.1945" rx="1.77431" fill="#F1F2F4"/>
<rect x="336.066" y="235.42" width="70.9723" height="6.21008" rx="1.77431" fill="#F1F2F4"/>
<rect x="336.066" y="243.404" width="53.2292" height="4.43577" rx="1.77431" fill="#F1F2F4"/>
<rect x="310.34" y="258.485" width="106.015" height="26.6146" rx="1.77431" fill="white"/>
<rect x="317.438" y="264.696" width="14.1945" height="14.1945" rx="1.77431" fill="#F1F2F4"/>
<rect x="336.066" y="265.583" width="70.9723" height="6.21008" rx="1.77431" fill="#F1F2F4"/>
<rect x="336.066" y="273.567" width="53.2292" height="4.43577" rx="1.77431" fill="#F1F2F4"/>
<rect x="425.227" y="228.322" width="106.015" height="26.6146" rx="1.77431" fill="white"/>
<rect x="432.324" y="234.532" width="14.1945" height="14.1945" rx="1.77431" fill="#F1F2F4"/>
<rect x="450.953" y="235.42" width="70.9723" height="6.21008" rx="1.77431" fill="#F1F2F4"/>
<rect x="450.953" y="243.404" width="53.2292" height="4.43577" rx="1.77431" fill="#F1F2F4"/>
<rect x="425.227" y="258.485" width="106.015" height="26.6146" rx="1.77431" fill="white"/>
<rect x="432.324" y="264.696" width="14.1945" height="14.1945" rx="1.77431" fill="#F1F2F4"/>
<rect x="450.953" y="265.583" width="70.9723" height="6.21008" rx="1.77431" fill="#F1F2F4"/>
<rect x="450.953" y="273.567" width="53.2292" height="4.43577" rx="1.77431" fill="#F1F2F4"/>
<rect x="540.113" y="228.322" width="106.015" height="26.6146" rx="1.77431" fill="white"/>
<rect x="547.211" y="234.532" width="14.1945" height="14.1945" rx="1.77431" fill="#F1F2F4"/>
<rect x="565.84" y="235.42" width="70.9723" height="6.21008" rx="1.77431" fill="#F1F2F4"/>
<rect x="565.84" y="243.404" width="53.2292" height="4.43577" rx="1.77431" fill="#F1F2F4"/>
<rect x="540.113" y="258.485" width="106.015" height="26.6146" rx="1.77431" fill="white"/>
<rect x="547.211" y="264.696" width="14.1945" height="14.1945" rx="1.77431" fill="#F1F2F4"/>
<rect x="565.84" y="265.583" width="70.9723" height="6.21008" rx="1.77431" fill="#F1F2F4"/>
<rect x="565.84" y="273.567" width="53.2292" height="4.43577" rx="1.77431" fill="#F1F2F4"/>
<rect width="220.458" height="184.972" transform="translate(30 109)" fill="white"/>
<rect x="38.8711" y="117.872" width="202.715" height="15.9688" rx="1.77431" fill="white"/>
<rect x="45.9648" y="122.752" width="35.4862" height="6.21008" rx="1.77431" fill="#F1F2F4"/>
<rect x="128.465" y="122.752" width="35.4862" height="6.21008" rx="1.77431" fill="#F1F2F4"/>
<rect x="87.2227" y="122.752" width="35.4862" height="6.21008" rx="1.77431" fill="#F1F2F4"/>
<rect x="38.8711" y="138.276" width="202.715" height="65.2058" rx="1.77431" fill="#F1F2F4"/>
<rect x="38.8711" y="207.918" width="202.715" height="15.9688" rx="1.77431" fill="white"/>
<rect x="45.9648" y="209.691" width="35.4862" height="4.87935" rx="1.77431" fill="#F1F2F4"/>
<rect x="45.9648" y="216.345" width="53.2292" height="3.54862" rx="1.77431" fill="#F1F2F4"/>
<rect x="38.8711" y="228.322" width="61.6572" height="26.6146" rx="1.77431" fill="white"/>
<rect x="45.9648" y="234.533" width="14.1945" height="14.1945" rx="1.77431" fill="#F1F2F4"/>
<rect x="64.5977" y="235.42" width="29.2761" height="6.21008" rx="1.77431" fill="#F1F2F4"/>
<rect x="64.5977" y="243.404" width="22.1789" height="4.43577" rx="1.77431" fill="#F1F2F4"/>
<rect x="38.8711" y="258.485" width="61.6572" height="26.6146" rx="1.77431" fill="white"/>
<rect x="45.9648" y="264.693" width="14.1945" height="14.1945" rx="1.77431" fill="#F1F2F4"/>
<rect x="64.5977" y="265.579" width="30.1632" height="6.21008" rx="1.77431" fill="#F1F2F4"/>
<rect x="64.5977" y="273.564" width="22.6224" height="4.43577" rx="1.77431" fill="#F1F2F4"/>
<rect x="109.4" y="228.322" width="61.6572" height="26.6146" rx="1.77431" fill="white"/>
<rect x="116.502" y="234.533" width="14.1945" height="14.1945" rx="1.77431" fill="#F1F2F4"/>
<rect x="135.135" y="235.42" width="30.1632" height="6.21008" rx="1.77431" fill="#F1F2F4"/>
<rect x="135.135" y="243.404" width="22.6224" height="4.43577" rx="1.77431" fill="#F1F2F4"/>
<rect x="109.4" y="258.485" width="61.6572" height="26.6146" rx="1.77431" fill="white"/>
<rect x="116.502" y="264.693" width="14.1945" height="14.1945" rx="1.77431" fill="#F1F2F4"/>
<rect x="135.135" y="265.579" width="30.1632" height="6.21008" rx="1.77431" fill="#F1F2F4"/>
<rect x="135.135" y="273.564" width="22.6224" height="4.43577" rx="1.77431" fill="#F1F2F4"/>
<rect x="179.928" y="228.322" width="61.6572" height="26.6146" rx="1.77431" fill="white"/>
<rect x="187.021" y="234.533" width="14.1945" height="14.1945" rx="1.77431" fill="#F1F2F4"/>
<rect x="205.654" y="235.42" width="28.8325" height="6.21008" rx="1.77431" fill="#F1F2F4"/>
<rect x="205.654" y="243.404" width="21.7353" height="4.43577" rx="1.77431" fill="#F1F2F4"/>
<rect x="179.928" y="258.485" width="61.6572" height="26.6146" rx="1.77431" fill="white"/>
<rect x="187.021" y="264.693" width="14.1945" height="14.1945" rx="1.77431" fill="#F1F2F4"/>
<rect x="205.654" y="265.579" width="30.6068" height="6.21008" rx="1.77431" fill="#F1F2F4"/>
<rect x="205.654" y="273.564" width="23.066" height="4.43577" rx="1.77431" fill="#F1F2F4"/>
<g clip-path="url(#clip0_3890_15698)">
<rect x="40.2031" y="307.279" width="0.443577" height="3.99219" rx="0.221788" fill="#9747FF"/>
<rect x="239.367" y="307.279" width="0.443577" height="3.99219" rx="0.221788" fill="#9747FF"/>
<rect x="40.6484" y="309.053" width="198.723" height="0.443577" fill="#9747FF"/>
</g>
<g clip-path="url(#clip1_3890_15698)">
<rect x="310.789" y="307.279" width="0.443577" height="3.99219" rx="0.221788" fill="#9747FF"/>
<rect x="643.906" y="307.279" width="0.443577" height="3.99219" rx="0.221788" fill="#9747FF"/>
<rect x="311.227" y="309.053" width="332.683" height="0.443577" fill="#9747FF"/>
</g>
<path d="M123.304 335V323.896H124.776V335H123.304ZM120.296 325.24V323.896H124.552V325.24H120.296ZM120.296 335V333.656H127.304V335H120.296ZM133.174 335.16C132.374 335.16 131.643 334.925 130.982 334.456C130.331 333.987 129.808 333.32 129.414 332.456C129.019 331.592 128.822 330.584 128.822 329.432C128.822 328.269 129.014 327.261 129.398 326.408C129.792 325.555 130.315 324.899 130.966 324.44C131.627 323.971 132.358 323.736 133.158 323.736C133.958 323.736 134.683 323.971 135.334 324.44C135.995 324.899 136.518 325.555 136.902 326.408C137.296 327.261 137.494 328.275 137.494 329.448C137.494 330.611 137.296 331.624 136.902 332.488C136.518 333.341 136 334.003 135.35 334.472C134.699 334.931 133.974 335.16 133.174 335.16ZM133.158 333.736C133.712 333.736 134.198 333.576 134.614 333.256C135.04 332.925 135.371 332.44 135.606 331.8C135.851 331.16 135.974 330.371 135.974 329.432C135.974 328.493 135.851 327.709 135.606 327.08C135.371 326.44 135.04 325.96 134.614 325.64C134.198 325.309 133.712 325.144 133.158 325.144C132.603 325.144 132.112 325.309 131.686 325.64C131.27 325.96 130.939 326.44 130.694 327.08C130.459 327.709 130.342 328.493 130.342 329.432C130.342 330.371 130.459 331.16 130.694 331.8C130.939 332.44 131.275 332.925 131.702 333.256C132.128 333.576 132.614 333.736 133.158 333.736ZM142.611 335.16C141.811 335.16 141.08 334.925 140.419 334.456C139.768 333.987 139.246 333.32 138.851 332.456C138.456 331.592 138.259 330.584 138.259 329.432C138.259 328.269 138.451 327.261 138.835 326.408C139.23 325.555 139.752 324.899 140.403 324.44C141.064 323.971 141.795 323.736 142.595 323.736C143.395 323.736 144.12 323.971 144.771 324.44C145.432 324.899 145.955 325.555 146.339 326.408C146.734 327.261 146.931 328.275 146.931 329.448C146.931 330.611 146.734 331.624 146.339 332.488C145.955 333.341 145.438 334.003 144.787 334.472C144.136 334.931 143.411 335.16 142.611 335.16ZM142.595 333.736C143.15 333.736 143.635 333.576 144.051 333.256C144.478 332.925 144.808 332.44 145.043 331.8C145.288 331.16 145.411 330.371 145.411 329.432C145.411 328.493 145.288 327.709 145.043 327.08C144.808 326.44 144.478 325.96 144.051 325.64C143.635 325.309 143.15 325.144 142.595 325.144C142.04 325.144 141.55 325.309 141.123 325.64C140.707 325.96 140.376 326.44 140.131 327.08C139.896 327.709 139.779 328.493 139.779 329.432C139.779 330.371 139.896 331.16 140.131 331.8C140.376 332.44 140.712 332.925 141.139 333.256C141.566 333.576 142.051 333.736 142.595 333.736ZM148.305 335L155.425 323.896H156.881L149.761 335H148.305ZM154.817 335.16C154.401 335.16 154.022 335.059 153.681 334.856C153.339 334.653 153.067 334.387 152.865 334.056C152.662 333.715 152.561 333.331 152.561 332.904C152.561 332.488 152.662 332.115 152.865 331.784C153.067 331.443 153.339 331.171 153.681 330.968C154.022 330.765 154.401 330.664 154.817 330.664C155.233 330.664 155.611 330.765 155.953 330.968C156.305 331.171 156.582 331.443 156.785 331.784C156.987 332.115 157.089 332.488 157.089 332.904C157.089 333.331 156.987 333.715 156.785 334.056C156.582 334.387 156.31 334.653 155.969 334.856C155.627 335.059 155.243 335.16 154.817 335.16ZM154.817 334.024C155.137 334.024 155.398 333.923 155.601 333.72C155.803 333.507 155.905 333.235 155.905 332.904C155.905 332.584 155.798 332.323 155.585 332.12C155.382 331.907 155.126 331.8 154.817 331.8C154.507 331.8 154.251 331.907 154.049 332.12C153.846 332.323 153.745 332.584 153.745 332.904C153.745 333.235 153.846 333.507 154.049 333.72C154.251 333.923 154.507 334.024 154.817 334.024ZM150.353 328.232C149.947 328.232 149.574 328.131 149.233 327.928C148.891 327.725 148.619 327.453 148.417 327.112C148.214 326.771 148.113 326.392 148.113 325.976C148.113 325.549 148.209 325.171 148.401 324.84C148.603 324.509 148.875 324.243 149.217 324.04C149.558 323.837 149.937 323.736 150.353 323.736C150.779 323.736 151.163 323.837 151.505 324.04C151.846 324.243 152.118 324.509 152.321 324.84C152.523 325.171 152.625 325.549 152.625 325.976C152.625 326.392 152.523 326.771 152.321 327.112C152.118 327.453 151.846 327.725 151.505 327.928C151.174 328.131 150.79 328.232 150.353 328.232ZM150.353 327.096C150.673 327.096 150.934 326.995 151.137 326.792C151.339 326.579 151.441 326.307 151.441 325.976C151.441 325.645 151.334 325.379 151.121 325.176C150.918 324.973 150.662 324.872 150.353 324.872C150.043 324.872 149.787 324.973 149.585 325.176C149.393 325.379 149.297 325.645 149.297 325.976C149.297 326.307 149.393 326.579 149.585 326.792C149.787 326.995 150.043 327.096 150.353 327.096Z" fill="#2A2C35"/>
<path d="M466.304 335V323.896H467.776V335H466.304ZM463.296 325.24V323.896H467.552V325.24H463.296ZM463.296 335V333.656H470.304V335H463.296ZM476.174 335.16C475.374 335.16 474.643 334.925 473.982 334.456C473.331 333.987 472.808 333.32 472.414 332.456C472.019 331.592 471.822 330.584 471.822 329.432C471.822 328.269 472.014 327.261 472.398 326.408C472.792 325.555 473.315 324.899 473.966 324.44C474.627 323.971 475.358 323.736 476.158 323.736C476.958 323.736 477.683 323.971 478.334 324.44C478.995 324.899 479.518 325.555 479.902 326.408C480.296 327.261 480.494 328.275 480.494 329.448C480.494 330.611 480.296 331.624 479.902 332.488C479.518 333.341 479 334.003 478.35 334.472C477.699 334.931 476.974 335.16 476.174 335.16ZM476.158 333.736C476.712 333.736 477.198 333.576 477.614 333.256C478.04 332.925 478.371 332.44 478.606 331.8C478.851 331.16 478.974 330.371 478.974 329.432C478.974 328.493 478.851 327.709 478.606 327.08C478.371 326.44 478.04 325.96 477.614 325.64C477.198 325.309 476.712 325.144 476.158 325.144C475.603 325.144 475.112 325.309 474.686 325.64C474.27 325.96 473.939 326.44 473.694 327.08C473.459 327.709 473.342 328.493 473.342 329.432C473.342 330.371 473.459 331.16 473.694 331.8C473.939 332.44 474.275 332.925 474.702 333.256C475.128 333.576 475.614 333.736 476.158 333.736ZM485.611 335.16C484.811 335.16 484.08 334.925 483.419 334.456C482.768 333.987 482.246 333.32 481.851 332.456C481.456 331.592 481.259 330.584 481.259 329.432C481.259 328.269 481.451 327.261 481.835 326.408C482.23 325.555 482.752 324.899 483.403 324.44C484.064 323.971 484.795 323.736 485.595 323.736C486.395 323.736 487.12 323.971 487.771 324.44C488.432 324.899 488.955 325.555 489.339 326.408C489.734 327.261 489.931 328.275 489.931 329.448C489.931 330.611 489.734 331.624 489.339 332.488C488.955 333.341 488.438 334.003 487.787 334.472C487.136 334.931 486.411 335.16 485.611 335.16ZM485.595 333.736C486.15 333.736 486.635 333.576 487.051 333.256C487.478 332.925 487.808 332.44 488.043 331.8C488.288 331.16 488.411 330.371 488.411 329.432C488.411 328.493 488.288 327.709 488.043 327.08C487.808 326.44 487.478 325.96 487.051 325.64C486.635 325.309 486.15 325.144 485.595 325.144C485.04 325.144 484.55 325.309 484.123 325.64C483.707 325.96 483.376 326.44 483.131 327.08C482.896 327.709 482.779 328.493 482.779 329.432C482.779 330.371 482.896 331.16 483.131 331.8C483.376 332.44 483.712 332.925 484.139 333.256C484.566 333.576 485.051 333.736 485.595 333.736ZM491.305 335L498.425 323.896H499.881L492.761 335H491.305ZM497.817 335.16C497.401 335.16 497.022 335.059 496.681 334.856C496.339 334.653 496.067 334.387 495.865 334.056C495.662 333.715 495.561 333.331 495.561 332.904C495.561 332.488 495.662 332.115 495.865 331.784C496.067 331.443 496.339 331.171 496.681 330.968C497.022 330.765 497.401 330.664 497.817 330.664C498.233 330.664 498.611 330.765 498.953 330.968C499.305 331.171 499.582 331.443 499.785 331.784C499.987 332.115 500.089 332.488 500.089 332.904C500.089 333.331 499.987 333.715 499.785 334.056C499.582 334.387 499.31 334.653 498.969 334.856C498.627 335.059 498.243 335.16 497.817 335.16ZM497.817 334.024C498.137 334.024 498.398 333.923 498.601 333.72C498.803 333.507 498.905 333.235 498.905 332.904C498.905 332.584 498.798 332.323 498.585 332.12C498.382 331.907 498.126 331.8 497.817 331.8C497.507 331.8 497.251 331.907 497.049 332.12C496.846 332.323 496.745 332.584 496.745 332.904C496.745 333.235 496.846 333.507 497.049 333.72C497.251 333.923 497.507 334.024 497.817 334.024ZM493.353 328.232C492.947 328.232 492.574 328.131 492.233 327.928C491.891 327.725 491.619 327.453 491.417 327.112C491.214 326.771 491.113 326.392 491.113 325.976C491.113 325.549 491.209 325.171 491.401 324.84C491.603 324.509 491.875 324.243 492.217 324.04C492.558 323.837 492.937 323.736 493.353 323.736C493.779 323.736 494.163 323.837 494.505 324.04C494.846 324.243 495.118 324.509 495.321 324.84C495.523 325.171 495.625 325.549 495.625 325.976C495.625 326.392 495.523 326.771 495.321 327.112C495.118 327.453 494.846 327.725 494.505 327.928C494.174 328.131 493.79 328.232 493.353 328.232ZM493.353 327.096C493.673 327.096 493.934 326.995 494.137 326.792C494.339 326.579 494.441 326.307 494.441 325.976C494.441 325.645 494.334 325.379 494.121 325.176C493.918 324.973 493.662 324.872 493.353 324.872C493.043 324.872 492.787 324.973 492.585 325.176C492.393 325.379 492.297 325.645 492.297 325.976C492.297 326.307 492.393 326.579 492.585 326.792C492.787 326.995 493.043 327.096 493.353 327.096Z" fill="#2A2C35"/>
<line x1="39.6486" y1="90.0031" x2="38.6799" y2="301.003" stroke="#9747FF" stroke-width="1.35976" stroke-dasharray="6.44 5.8"/>
<line x1="242.649" y1="90.0031" x2="241.68" y2="301.003" stroke="#9747FF" stroke-width="1.35976" stroke-dasharray="6.44 5.8"/>
<line x1="310.649" y1="90.0031" x2="309.68" y2="301.003" stroke="#9747FF" stroke-width="1.35976" stroke-dasharray="6.44 5.8"/>
<line x1="646.649" y1="90.0031" x2="645.68" y2="301.003" stroke="#9747FF" stroke-width="1.35976" stroke-dasharray="6.44 5.8"/>
<defs>
<clipPath id="clip0_3890_15698">
<rect width="199.61" height="3.99219" fill="white" transform="translate(40.2031 307.279)"/>
</clipPath>
<clipPath id="clip1_3890_15698">
<rect width="333.57" height="3.99219" fill="white" transform="translate(310.789 307.279)"/>
</clipPath>
</defs>
</svg>
