<svg width="684" height="419" viewBox="0 0 684 419" fill="none" xmlns="http://www.w3.org/2000/svg">
<rect width="684" height="419" fill="#3F4350"/>
<path d="M32 36C32 33.7909 33.7909 32 36 32H114C116.209 32 118 33.7909 118 36V103C118 105.209 116.209 107 114 107H36C33.7909 107 32 105.209 32 103V36Z" fill="#0D0E11"/>
<path d="M32 129.333C32 127.124 33.7909 125.333 36 125.333H114C116.209 125.333 118 127.124 118 129.333V196.333C118 198.542 116.209 200.333 114 200.333H36C33.7909 200.333 32 198.542 32 196.333V129.333Z" fill="#0D0E11"/>
<path d="M32 222.667C32 220.458 33.7909 218.667 36 218.667H114C116.209 218.667 118 220.458 118 222.667V289.667C118 291.876 116.209 293.667 114 293.667H36C33.7909 293.667 32 291.876 32 289.667V222.667Z" fill="#0D0E11"/>
<path d="M32 316C32 313.791 33.7909 312 36 312H114C116.209 312 118 313.791 118 316V383C118 385.209 116.209 387 114 387H36C33.7909 387 32 385.209 32 383V316Z" fill="#0D0E11"/>
<path d="M138.801 36C138.801 33.7909 140.592 32 142.801 32H220.801C223.01 32 224.801 33.7909 224.801 36V103C224.801 105.209 223.01 107 220.801 107H142.801C140.592 107 138.801 105.209 138.801 103V36Z" fill="#0D0E11"/>
<path d="M138.801 129.333C138.801 127.124 140.592 125.333 142.801 125.333H220.801C223.01 125.333 224.801 127.124 224.801 129.333V196.333C224.801 198.542 223.01 200.333 220.801 200.333H142.801C140.592 200.333 138.801 198.542 138.801 196.333V129.333Z" fill="#0D0E11"/>
<path d="M142.801 219.167H220.801C222.734 219.167 224.301 220.734 224.301 222.667V289.667C224.301 291.6 222.734 293.167 220.801 293.167H142.801C140.868 293.167 139.301 291.6 139.301 289.667V222.667C139.301 220.734 140.868 219.167 142.801 219.167Z" fill="#9747FF" fill-opacity="0.1" stroke="#9747FF"/>
<path d="M138.801 316C138.801 313.791 140.592 312 142.801 312H220.801C223.01 312 224.801 313.791 224.801 316V383C224.801 385.209 223.01 387 220.801 387H142.801C140.592 387 138.801 385.209 138.801 383V316Z" fill="#0D0E11"/>
<path d="M245.6 36C245.6 33.7909 247.39 32 249.6 32H327.6C329.809 32 331.6 33.7909 331.6 36V103C331.6 105.209 329.809 107 327.6 107H249.6C247.39 107 245.6 105.209 245.6 103V36Z" fill="#0D0E11"/>
<path d="M245.6 129.333C245.6 127.124 247.39 125.333 249.6 125.333H327.6C329.809 125.333 331.6 127.124 331.6 129.333V196.333C331.6 198.542 329.809 200.333 327.6 200.333H249.6C247.39 200.333 245.6 198.542 245.6 196.333V129.333Z" fill="#0D0E11"/>
<path d="M245.6 222.667C245.6 220.458 247.39 218.667 249.6 218.667H327.6C329.809 218.667 331.6 220.458 331.6 222.667V289.667C331.6 291.876 329.809 293.667 327.6 293.667H249.6C247.39 293.667 245.6 291.876 245.6 289.667V222.667Z" fill="#0D0E11"/>
<path d="M245.6 316C245.6 313.791 247.39 312 249.6 312H327.6C329.809 312 331.6 313.791 331.6 316V383C331.6 385.209 329.809 387 327.6 387H249.6C247.39 387 245.6 385.209 245.6 383V316Z" fill="#0D0E11"/>
<path d="M352.4 36C352.4 33.7909 354.191 32 356.4 32H434.4C436.61 32 438.4 33.7909 438.4 36V103C438.4 105.209 436.61 107 434.4 107H356.4C354.191 107 352.4 105.209 352.4 103V36Z" fill="#0D0E11"/>
<path d="M352.4 129.333C352.4 127.124 354.191 125.333 356.4 125.333H434.4C436.61 125.333 438.4 127.124 438.4 129.333V196.333C438.4 198.542 436.61 200.333 434.4 200.333H356.4C354.191 200.333 352.4 198.542 352.4 196.333V129.333Z" fill="#0D0E11"/>
<path d="M352.4 222.667C352.4 220.458 354.191 218.667 356.4 218.667H434.4C436.61 218.667 438.4 220.458 438.4 222.667V289.667C438.4 291.876 436.61 293.667 434.4 293.667H356.4C354.191 293.667 352.4 291.876 352.4 289.667V222.667Z" fill="#0D0E11"/>
<path d="M352.4 316C352.4 313.791 354.191 312 356.4 312H434.4C436.61 312 438.4 313.791 438.4 316V383C438.4 385.209 436.61 387 434.4 387H356.4C354.191 387 352.4 385.209 352.4 383V316Z" fill="#0D0E11"/>
<path d="M459.199 36C459.199 33.7909 460.99 32 463.199 32H541.199C543.408 32 545.199 33.7909 545.199 36V103C545.199 105.209 543.408 107 541.199 107H463.199C460.99 107 459.199 105.209 459.199 103V36Z" fill="#0D0E11"/>
<path d="M459.199 129.333C459.199 127.124 460.99 125.333 463.199 125.333H541.199C543.408 125.333 545.199 127.124 545.199 129.333V196.333C545.199 198.542 543.408 200.333 541.199 200.333H463.199C460.99 200.333 459.199 198.542 459.199 196.333V129.333Z" fill="#0D0E11"/>
<path d="M459.199 222.667C459.199 220.458 460.99 218.667 463.199 218.667H541.199C543.408 218.667 545.199 220.458 545.199 222.667V289.667C545.199 291.876 543.408 293.667 541.199 293.667H463.199C460.99 293.667 459.199 291.876 459.199 289.667V222.667Z" fill="#0D0E11"/>
<path d="M459.199 316C459.199 313.791 460.99 312 463.199 312H541.199C543.408 312 545.199 313.791 545.199 316V383C545.199 385.209 543.408 387 541.199 387H463.199C460.99 387 459.199 385.209 459.199 383V316Z" fill="#0D0E11"/>
<path d="M566 36C566 33.7909 567.791 32 570 32H648C650.209 32 652 33.7909 652 36V103C652 105.209 650.209 107 648 107H570C567.791 107 566 105.209 566 103V36Z" fill="#0D0E11"/>
<path d="M566 129.333C566 127.124 567.791 125.333 570 125.333H648C650.209 125.333 652 127.124 652 129.333V196.333C652 198.542 650.209 200.333 648 200.333H570C567.791 200.333 566 198.542 566 196.333V129.333Z" fill="#0D0E11"/>
<path d="M566 222.667C566 220.458 567.791 218.667 570 218.667H648C650.209 218.667 652 220.458 652 222.667V289.667C652 291.876 650.209 293.667 648 293.667H570C567.791 293.667 566 291.876 566 289.667V222.667Z" fill="#0D0E11"/>
<path d="M566 316C566 313.791 567.791 312 570 312H648C650.209 312 652 313.791 652 316V383C652 385.209 650.209 387 648 387H570C567.791 387 566 385.209 566 383V316Z" fill="#0D0E11"/>
<rect opacity="0.1" x="332" y="387" width="355" height="20" transform="rotate(-90 332 387)" fill="#D99048"/>
<rect opacity="0.1" x="225" y="387" width="355" height="20" transform="rotate(-90 225 387)" fill="#D99048"/>
<rect opacity="0.1" x="118" y="387" width="355" height="20" transform="rotate(-90 118 387)" fill="#D99048"/>
<rect opacity="0.1" x="439" y="387" width="355" height="20" transform="rotate(-90 439 387)" fill="#D99048"/>
<rect opacity="0.1" x="546" y="387" width="355" height="20" transform="rotate(-90 546 387)" fill="#D99048"/>
<rect opacity="0.1" x="32" y="201" width="620" height="18" fill="#D99048"/>
<rect opacity="0.1" x="32" y="294" width="620" height="18" fill="#D99048"/>
<rect opacity="0.1" x="32" y="107" width="620" height="18" fill="#D99048"/>
</svg>
