<svg width="1283" height="357" viewBox="0 0 1283 357" fill="none" xmlns="http://www.w3.org/2000/svg">
<path d="M766.867 7.73148C766.867 3.4615 770.329 0 774.599 0H1274.99C1279.26 0 1282.73 3.4615 1282.73 7.73147V348.391C1282.73 352.661 1279.26 356.122 1274.99 356.122H774.599C770.329 356.122 766.867 352.661 766.867 348.391V7.73148Z" fill="#0D0E11"/>
<rect x="773.781" y="6.91498" width="502.029" height="88.512" rx="4" fill="#3F4350"/>
<rect x="773.781" y="106.491" width="502.029" height="12.447" rx="1.383" fill="#3F4350"/>
<rect x="779.312" y="107.874" width="27.66" height="4.8405" rx="1.383" fill="#3F4350"/>
<rect x="779.312" y="114.098" width="41.49" height="3.4575" rx="1.383" fill="#3F4350"/>
<rect x="773.781" y="125.853" width="120.321" height="20.745" rx="1.383" fill="#3F4350"/>
<rect x="779.312" y="130.694" width="11.064" height="11.064" rx="1.383" fill="#3F4350"/>
<rect x="793.834" y="131.385" width="55.32" height="4.8405" rx="1.383" fill="#3F4350"/>
<rect x="793.834" y="137.609" width="41.49" height="3.4575" rx="1.383" fill="#3F4350"/>
<rect x="773.781" y="149.364" width="120.321" height="20.745" rx="1.383" fill="#3F4350"/>
<rect x="779.312" y="154.205" width="11.064" height="11.064" rx="1.383" fill="#3F4350"/>
<rect x="793.834" y="154.896" width="55.32" height="4.8405" rx="1.383" fill="#3F4350"/>
<rect x="793.834" y="161.12" width="41.49" height="3.4575" rx="1.383" fill="#3F4350"/>
<rect x="901.018" y="125.853" width="120.321" height="20.745" rx="1.383" fill="#3F4350"/>
<rect x="906.549" y="130.694" width="11.064" height="11.064" rx="1.383" fill="#3F4350"/>
<rect x="921.07" y="131.385" width="55.32" height="4.8405" rx="1.383" fill="#3F4350"/>
<rect x="921.07" y="137.609" width="41.49" height="3.4575" rx="1.383" fill="#3F4350"/>
<rect x="901.018" y="149.364" width="120.321" height="20.745" rx="1.383" fill="#3F4350"/>
<rect x="906.549" y="154.205" width="11.064" height="11.064" rx="1.383" fill="#3F4350"/>
<rect x="921.07" y="154.896" width="55.32" height="4.8405" rx="1.383" fill="#3F4350"/>
<rect x="921.07" y="161.12" width="41.49" height="3.4575" rx="1.383" fill="#3F4350"/>
<rect x="1028.25" y="125.853" width="120.321" height="20.745" rx="1.383" fill="#3F4350"/>
<rect x="1033.79" y="130.694" width="11.064" height="11.064" rx="1.383" fill="#3F4350"/>
<rect x="1048.31" y="131.385" width="55.32" height="4.8405" rx="1.383" fill="#3F4350"/>
<rect x="1048.31" y="137.609" width="41.49" height="3.4575" rx="1.383" fill="#3F4350"/>
<rect x="1028.25" y="149.364" width="120.321" height="20.745" rx="1.383" fill="#3F4350"/>
<rect x="1033.79" y="154.205" width="11.064" height="11.064" rx="1.383" fill="#3F4350"/>
<rect x="1048.31" y="154.896" width="55.32" height="4.8405" rx="1.383" fill="#3F4350"/>
<rect x="1048.31" y="161.12" width="41.49" height="3.4575" rx="1.383" fill="#3F4350"/>
<rect x="1155.49" y="125.853" width="120.321" height="20.745" rx="1.383" fill="#3F4350"/>
<rect x="1161.02" y="130.694" width="11.064" height="11.064" rx="1.383" fill="#3F4350"/>
<rect x="1175.54" y="131.385" width="55.32" height="4.8405" rx="1.383" fill="#3F4350"/>
<rect x="1175.54" y="137.609" width="41.49" height="3.4575" rx="1.383" fill="#3F4350"/>
<rect x="1155.49" y="149.364" width="120.321" height="20.745" rx="1.383" fill="#3F4350"/>
<rect x="1161.02" y="154.205" width="11.064" height="11.064" rx="1.383" fill="#3F4350"/>
<rect x="1175.54" y="154.896" width="55.32" height="4.8405" rx="1.383" fill="#3F4350"/>
<rect x="1175.54" y="161.12" width="41.49" height="3.4575" rx="1.383" fill="#3F4350"/>
<rect width="159.967" height="53.937" transform="translate(773.781 181.173)" fill="#3F4350"/>
<rect opacity="0.7" x="833.25" y="193.274" width="34.2293" height="2.766" rx="1.383" fill="#3F4350"/>
<rect opacity="0.7" x="833.25" y="200.189" width="59.8148" height="4.8405" rx="1.383" fill="#3F4350"/>
<rect opacity="0.7" x="833.25" y="207.796" width="88.7755" height="4.149" rx="1.383" fill="#3F4350"/>
<rect opacity="0.7" x="833.25" y="213.328" width="88.7755" height="4.149" rx="1.383" fill="#3F4350"/>
<rect opacity="0.7" x="833.25" y="218.86" width="88.7755" height="4.149" rx="1.383" fill="#3F4350"/>
<rect opacity="0.7" x="793.834" y="190.163" width="24.2025" height="3.4575" rx="1.383" fill="#3F4350"/>
<path d="M779.312 188.088C779.312 187.324 779.932 186.705 780.696 186.705H820.803C821.566 186.705 822.186 187.324 822.186 188.088V228.195C822.186 228.959 821.566 229.578 820.803 229.578H780.695C779.932 229.578 779.312 228.959 779.312 228.195V188.088Z" fill="#3F4350"/>
<rect width="159.967" height="53.937" transform="translate(944.812 181.173)" fill="#3F4350"/>
<rect opacity="0.7" x="1004.28" y="193.274" width="34.2293" height="2.766" rx="1.383" fill="#3F4350"/>
<rect opacity="0.7" x="1004.28" y="200.189" width="59.8148" height="4.8405" rx="1.383" fill="#3F4350"/>
<rect opacity="0.7" x="1004.28" y="207.796" width="88.7755" height="4.149" rx="1.383" fill="#3F4350"/>
<rect opacity="0.7" x="1004.28" y="213.328" width="88.7755" height="4.149" rx="1.383" fill="#3F4350"/>
<rect opacity="0.7" x="1004.28" y="218.86" width="88.7755" height="4.149" rx="1.383" fill="#3F4350"/>
<rect opacity="0.7" x="964.865" y="190.163" width="24.2025" height="3.4575" rx="1.383" fill="#3F4350"/>
<path d="M950.344 188.088C950.344 187.324 950.963 186.705 951.727 186.705H991.834C992.598 186.705 993.217 187.324 993.217 188.088V228.195C993.217 228.959 992.598 229.578 991.834 229.578H951.727C950.963 229.578 950.344 228.959 950.344 228.195V188.088Z" fill="#3F4350"/>
<rect width="159.967" height="53.937" transform="translate(1115.84 181.173)" fill="#3F4350"/>
<rect opacity="0.7" x="1175.31" y="193.274" width="34.2293" height="2.766" rx="1.383" fill="#3F4350"/>
<rect opacity="0.7" x="1175.31" y="200.189" width="59.8148" height="4.8405" rx="1.383" fill="#3F4350"/>
<rect opacity="0.7" x="1175.31" y="207.796" width="88.7755" height="4.149" rx="1.383" fill="#3F4350"/>
<rect opacity="0.7" x="1175.31" y="213.328" width="88.7755" height="4.149" rx="1.383" fill="#3F4350"/>
<rect opacity="0.7" x="1175.31" y="218.86" width="88.7755" height="4.149" rx="1.383" fill="#3F4350"/>
<rect opacity="0.7" x="1135.9" y="190.163" width="24.2025" height="3.4575" rx="1.383" fill="#3F4350"/>
<path d="M1121.38 188.088C1121.38 187.324 1121.99 186.705 1122.76 186.705H1162.87C1163.63 186.705 1164.25 187.324 1164.25 188.088V228.195C1164.25 228.959 1163.63 229.578 1162.87 229.578H1122.76C1121.99 229.578 1121.38 228.959 1121.38 228.195V188.088Z" fill="#3F4350"/>
<rect x="773.781" y="246.174" width="502.029" height="12.447" rx="1.383" fill="#3F4350"/>
<rect x="779.312" y="247.557" width="27.66" height="4.8405" rx="1.383" fill="#3F4350"/>
<rect x="779.312" y="253.781" width="41.49" height="3.4575" rx="1.383" fill="#3F4350"/>
<rect x="773.781" y="265.536" width="120.321" height="20.745" rx="1.383" fill="#3F4350"/>
<rect x="779.312" y="270.377" width="11.064" height="11.064" rx="1.383" fill="#3F4350"/>
<rect x="793.834" y="271.068" width="55.32" height="4.8405" rx="1.383" fill="#3F4350"/>
<rect x="793.834" y="277.292" width="41.49" height="3.4575" rx="1.383" fill="#3F4350"/>
<rect x="773.781" y="289.047" width="120.321" height="20.745" rx="1.383" fill="#3F4350"/>
<rect x="779.312" y="293.888" width="11.064" height="11.064" rx="1.383" fill="#3F4350"/>
<rect x="793.834" y="294.579" width="55.32" height="4.8405" rx="1.383" fill="#3F4350"/>
<rect x="793.834" y="300.803" width="41.49" height="3.4575" rx="1.383" fill="#3F4350"/>
<rect x="901.018" y="265.536" width="120.321" height="20.745" rx="1.383" fill="#3F4350"/>
<rect x="906.549" y="270.377" width="11.064" height="11.064" rx="1.383" fill="#3F4350"/>
<rect x="921.07" y="271.068" width="55.32" height="4.8405" rx="1.383" fill="#3F4350"/>
<rect x="921.07" y="277.292" width="41.49" height="3.4575" rx="1.383" fill="#3F4350"/>
<rect x="901.018" y="289.047" width="120.321" height="20.745" rx="1.383" fill="#3F4350"/>
<rect x="906.549" y="293.888" width="11.064" height="11.064" rx="1.383" fill="#3F4350"/>
<rect x="921.07" y="294.579" width="55.32" height="4.8405" rx="1.383" fill="#3F4350"/>
<rect x="921.07" y="300.803" width="41.49" height="3.4575" rx="1.383" fill="#3F4350"/>
<rect x="1028.25" y="265.536" width="120.321" height="20.745" rx="1.383" fill="#3F4350"/>
<rect x="1033.79" y="270.377" width="11.064" height="11.064" rx="1.383" fill="#3F4350"/>
<rect x="1048.31" y="271.068" width="55.32" height="4.8405" rx="1.383" fill="#3F4350"/>
<rect x="1048.31" y="277.292" width="41.49" height="3.4575" rx="1.383" fill="#3F4350"/>
<rect x="1028.25" y="289.047" width="120.321" height="20.745" rx="1.383" fill="#3F4350"/>
<rect x="1033.79" y="293.888" width="11.064" height="11.064" rx="1.383" fill="#3F4350"/>
<rect x="1048.31" y="294.579" width="55.32" height="4.8405" rx="1.383" fill="#3F4350"/>
<rect x="1048.31" y="300.803" width="41.49" height="3.4575" rx="1.383" fill="#3F4350"/>
<rect x="1155.49" y="265.536" width="120.321" height="20.745" rx="1.383" fill="#3F4350"/>
<rect x="1161.02" y="270.377" width="11.064" height="11.064" rx="1.383" fill="#3F4350"/>
<rect x="1175.54" y="271.068" width="55.32" height="4.8405" rx="1.383" fill="#3F4350"/>
<rect x="1175.54" y="277.292" width="41.49" height="3.4575" rx="1.383" fill="#3F4350"/>
<rect x="1155.49" y="289.047" width="120.321" height="20.745" rx="1.383" fill="#3F4350"/>
<rect x="1161.02" y="293.888" width="11.064" height="11.064" rx="1.383" fill="#3F4350"/>
<rect x="1175.54" y="294.579" width="55.32" height="4.8405" rx="1.383" fill="#3F4350"/>
<rect x="1175.54" y="300.803" width="41.49" height="3.4575" rx="1.383" fill="#3F4350"/>
<path d="M321.828 7.73148C321.828 3.4615 325.29 0 329.56 0H677.826C682.096 0 685.557 3.4615 685.557 7.73147V348.391C685.557 352.661 682.096 356.122 677.826 356.122H329.56C325.29 356.122 321.828 352.661 321.828 348.391V7.73148Z" fill="#0D0E11"/>
<rect x="328.742" y="6.91498" width="349.899" height="88.512" rx="4" fill="#3F4350"/>
<rect x="328.742" y="106.491" width="349.899" height="12.447" rx="1.383" fill="#3F4350"/>
<rect x="334.273" y="107.874" width="27.66" height="4.8405" rx="1.383" fill="#3F4350"/>
<rect x="334.273" y="114.098" width="41.49" height="3.4575" rx="1.383" fill="#3F4350"/>
<rect x="328.742" y="125.853" width="112.023" height="20.745" rx="1.383" fill="#3F4350"/>
<rect x="334.273" y="130.694" width="11.064" height="11.064" rx="1.383" fill="#3F4350"/>
<rect x="348.795" y="131.385" width="55.32" height="4.8405" rx="1.383" fill="#3F4350"/>
<rect x="348.795" y="137.609" width="41.49" height="3.4575" rx="1.383" fill="#3F4350"/>
<rect x="328.742" y="149.364" width="112.023" height="20.745" rx="1.383" fill="#3F4350"/>
<rect x="334.273" y="154.205" width="11.064" height="11.064" rx="1.383" fill="#3F4350"/>
<rect x="348.795" y="154.896" width="55.32" height="4.8405" rx="1.383" fill="#3F4350"/>
<rect x="348.795" y="161.12" width="41.49" height="3.4575" rx="1.383" fill="#3F4350"/>
<rect x="447.68" y="125.853" width="112.023" height="20.745" rx="1.383" fill="#3F4350"/>
<rect x="453.211" y="130.694" width="11.064" height="11.064" rx="1.383" fill="#3F4350"/>
<rect x="467.732" y="131.385" width="55.32" height="4.8405" rx="1.383" fill="#3F4350"/>
<rect x="467.732" y="137.609" width="41.49" height="3.4575" rx="1.383" fill="#3F4350"/>
<rect x="447.68" y="149.364" width="112.023" height="20.745" rx="1.383" fill="#3F4350"/>
<rect x="453.211" y="154.205" width="11.064" height="11.064" rx="1.383" fill="#3F4350"/>
<rect x="467.732" y="154.896" width="55.32" height="4.8405" rx="1.383" fill="#3F4350"/>
<rect x="467.732" y="161.12" width="41.49" height="3.4575" rx="1.383" fill="#3F4350"/>
<rect x="566.619" y="125.853" width="112.023" height="20.745" rx="1.383" fill="#3F4350"/>
<rect x="572.15" y="130.694" width="11.064" height="11.064" rx="1.383" fill="#3F4350"/>
<rect x="586.672" y="131.385" width="55.32" height="4.8405" rx="1.383" fill="#3F4350"/>
<rect x="586.672" y="137.609" width="41.49" height="3.4575" rx="1.383" fill="#3F4350"/>
<rect x="566.619" y="149.364" width="112.023" height="20.745" rx="1.383" fill="#3F4350"/>
<rect x="572.15" y="154.205" width="11.064" height="11.064" rx="1.383" fill="#3F4350"/>
<rect x="586.672" y="154.896" width="55.32" height="4.8405" rx="1.383" fill="#3F4350"/>
<rect x="586.672" y="161.12" width="41.49" height="3.4575" rx="1.383" fill="#3F4350"/>
<rect width="169.418" height="53.937" transform="translate(328.742 181.173)" fill="#3F4350"/>
<rect opacity="0.7" x="388.211" y="193.274" width="34.2293" height="2.766" rx="1.383" fill="#3F4350"/>
<rect opacity="0.7" x="388.211" y="200.189" width="59.8148" height="4.8405" rx="1.383" fill="#3F4350"/>
<rect opacity="0.7" x="388.211" y="207.796" width="97.7755" height="4.149" rx="1.383" fill="#3F4350"/>
<rect opacity="0.7" x="388.211" y="213.328" width="97.7755" height="4.149" rx="1.383" fill="#3F4350"/>
<rect opacity="0.7" x="388.211" y="218.86" width="97.7755" height="4.149" rx="1.383" fill="#3F4350"/>
<rect opacity="0.7" x="348.795" y="190.163" width="24.2025" height="3.4575" rx="1.383" fill="#3F4350"/>
<path d="M334.275 188.088C334.275 187.324 334.895 186.705 335.658 186.705H375.765C376.529 186.705 377.148 187.324 377.148 188.088V228.195C377.148 228.959 376.529 229.578 375.765 229.578H335.658C334.895 229.578 334.275 228.959 334.275 228.195V188.088Z" fill="#3F4350"/>
<rect width="169.418" height="53.937" transform="translate(509.225 181.173)" fill="#3F4350"/>
<rect opacity="0.7" x="568.693" y="193.274" width="34.2293" height="2.766" rx="1.383" fill="#3F4350"/>
<rect opacity="0.7" x="568.693" y="200.189" width="59.8148" height="4.8405" rx="1.383" fill="#3F4350"/>
<rect opacity="0.7" x="568.693" y="207.796" width="97.7755" height="4.149" rx="1.383" fill="#3F4350"/>
<rect opacity="0.7" x="568.693" y="213.328" width="97.7755" height="4.149" rx="1.383" fill="#3F4350"/>
<rect opacity="0.7" x="568.693" y="218.86" width="97.7755" height="4.149" rx="1.383" fill="#3F4350"/>
<rect opacity="0.7" x="529.277" y="190.163" width="24.2025" height="3.4575" rx="1.383" fill="#3F4350"/>
<path d="M514.758 188.088C514.758 187.324 515.377 186.705 516.141 186.705H556.248C557.012 186.705 557.631 187.324 557.631 188.088V228.195C557.631 228.959 557.012 229.578 556.248 229.578H516.141C515.377 229.578 514.758 228.959 514.758 228.195V188.088Z" fill="#3F4350"/>
<rect x="328.742" y="246.174" width="349.899" height="12.447" rx="1.383" fill="#3F4350"/>
<rect x="334.273" y="247.557" width="27.66" height="4.8405" rx="1.383" fill="#3F4350"/>
<rect x="334.273" y="253.781" width="41.49" height="3.4575" rx="1.383" fill="#3F4350"/>
<rect x="328.742" y="265.536" width="112.023" height="20.745" rx="1.383" fill="#3F4350"/>
<rect x="334.273" y="270.377" width="11.064" height="11.064" rx="1.383" fill="#3F4350"/>
<rect x="348.795" y="271.068" width="55.32" height="4.8405" rx="1.383" fill="#3F4350"/>
<rect x="348.795" y="277.292" width="41.49" height="3.4575" rx="1.383" fill="#3F4350"/>
<rect x="328.742" y="289.047" width="112.023" height="20.745" rx="1.383" fill="#3F4350"/>
<rect x="334.273" y="293.888" width="11.064" height="11.064" rx="1.383" fill="#3F4350"/>
<rect x="348.795" y="294.579" width="55.32" height="4.8405" rx="1.383" fill="#3F4350"/>
<rect x="348.795" y="300.803" width="41.49" height="3.4575" rx="1.383" fill="#3F4350"/>
<rect x="447.68" y="265.536" width="112.023" height="20.745" rx="1.383" fill="#3F4350"/>
<rect x="453.211" y="270.377" width="11.064" height="11.064" rx="1.383" fill="#3F4350"/>
<rect x="467.732" y="271.068" width="55.32" height="4.8405" rx="1.383" fill="#3F4350"/>
<rect x="467.732" y="277.292" width="41.49" height="3.4575" rx="1.383" fill="#3F4350"/>
<rect x="447.68" y="289.047" width="112.023" height="20.745" rx="1.383" fill="#3F4350"/>
<rect x="453.211" y="293.888" width="11.064" height="11.064" rx="1.383" fill="#3F4350"/>
<rect x="467.732" y="294.579" width="55.32" height="4.8405" rx="1.383" fill="#3F4350"/>
<rect x="467.732" y="300.803" width="41.49" height="3.4575" rx="1.383" fill="#3F4350"/>
<rect x="566.619" y="265.536" width="112.023" height="20.745" rx="1.383" fill="#3F4350"/>
<rect x="572.15" y="270.377" width="11.064" height="11.064" rx="1.383" fill="#3F4350"/>
<rect x="586.672" y="271.068" width="55.32" height="4.8405" rx="1.383" fill="#3F4350"/>
<rect x="586.672" y="277.292" width="41.49" height="3.4575" rx="1.383" fill="#3F4350"/>
<rect x="566.619" y="289.047" width="112.023" height="20.745" rx="1.383" fill="#3F4350"/>
<rect x="572.15" y="293.888" width="11.064" height="11.064" rx="1.383" fill="#3F4350"/>
<rect x="586.672" y="294.579" width="55.32" height="4.8405" rx="1.383" fill="#3F4350"/>
<rect x="586.672" y="300.803" width="41.49" height="3.4575" rx="1.383" fill="#3F4350"/>
<g clip-path="url(#clip0_14259_777)">
<path d="M0 7.73148C0 3.4615 3.4615 0 7.73147 0H237.06C241.329 0 244.791 3.4615 244.791 7.73147V348.391C244.791 352.661 241.329 356.122 237.06 356.122H7.73147C3.4615 356.122 0 352.661 0 348.391V7.73148Z" fill="#0D0E11"/>
<rect x="6.91406" y="6.91498" width="230.961" height="88.512" rx="4" fill="#3F4350"/>
<rect x="6.91406" y="106.491" width="230.961" height="12.447" rx="1.383" fill="#3F4350"/>
<rect x="12.4453" y="107.874" width="27.66" height="4.8405" rx="1.383" fill="#3F4350"/>
<rect x="12.4453" y="114.098" width="41.49" height="3.4575" rx="1.383" fill="#3F4350"/>
<rect x="6.91406" y="125.853" width="230.961" height="20.745" rx="1.383" fill="#3F4350"/>
<rect x="12.4453" y="130.694" width="11.064" height="11.064" rx="1.383" fill="#3F4350"/>
<rect x="26.9668" y="131.385" width="55.32" height="4.8405" rx="1.383" fill="#3F4350"/>
<rect x="26.9668" y="137.609" width="41.49" height="3.4575" rx="1.383" fill="#3F4350"/>
<rect x="6.91406" y="149.364" width="230.961" height="20.745" rx="1.383" fill="#3F4350"/>
<rect x="12.4453" y="154.205" width="11.064" height="11.064" rx="1.383" fill="#3F4350"/>
<rect x="26.9668" y="154.896" width="55.32" height="4.8405" rx="1.383" fill="#3F4350"/>
<rect x="26.9668" y="161.12" width="41.49" height="3.4575" rx="1.383" fill="#3F4350"/>
<rect width="230.961" height="53.937" transform="translate(6.91406 181.173)" fill="#3F4350"/>
<rect opacity="0.7" x="66.3828" y="193.274" width="34.2293" height="2.766" rx="1.383" fill="#3F4350"/>
<rect opacity="0.7" x="66.3828" y="200.189" width="59.8148" height="4.8405" rx="1.383" fill="#3F4350"/>
<rect opacity="0.7" x="66.3828" y="207.796" width="159.775" height="4.149" rx="1.383" fill="#3F4350"/>
<rect opacity="0.7" x="66.3828" y="213.328" width="159.775" height="4.149" rx="1.383" fill="#3F4350"/>
<rect opacity="0.7" x="66.3828" y="218.86" width="159.775" height="4.149" rx="1.383" fill="#3F4350"/>
<rect opacity="0.7" x="26.9668" y="190.163" width="24.2025" height="3.4575" rx="1.383" fill="#3F4350"/>
<path d="M12.4453 188.088C12.4453 187.324 13.0645 186.705 13.8283 186.705H53.9353C54.6991 186.705 55.3183 187.324 55.3183 188.088V228.195C55.3183 228.959 54.6991 229.578 53.9353 229.578H13.8283C13.0645 229.578 12.4453 228.959 12.4453 228.195V188.088Z" fill="#3F4350"/>
<rect width="230.961" height="53.937" transform="translate(6.91406 246.174)" fill="#3F4350"/>
<rect opacity="0.7" x="66.3828" y="258.275" width="34.2293" height="2.766" rx="1.383" fill="#3F4350"/>
<rect opacity="0.7" x="66.3828" y="265.19" width="59.8148" height="4.8405" rx="1.383" fill="#3F4350"/>
<rect opacity="0.7" x="66.3828" y="272.797" width="159.775" height="4.149" rx="1.383" fill="#3F4350"/>
<rect opacity="0.7" x="66.3828" y="278.329" width="159.775" height="4.149" rx="1.383" fill="#3F4350"/>
<rect opacity="0.7" x="66.3828" y="283.861" width="159.775" height="4.149" rx="1.383" fill="#3F4350"/>
<rect opacity="0.7" x="26.9668" y="255.164" width="24.2025" height="3.4575" rx="1.383" fill="#3F4350"/>
<path d="M12.4453 253.089C12.4453 252.325 13.0645 251.706 13.8283 251.706H53.9353C54.6991 251.706 55.3183 252.325 55.3183 253.089V293.196C55.3183 293.96 54.6991 294.579 53.9353 294.579H13.8283C13.0645 294.579 12.4453 293.96 12.4453 293.196V253.089Z" fill="#3F4350"/>
<rect x="6.91406" y="311.175" width="230.961" height="12.447" rx="1.383" fill="#3F4350"/>
<rect x="12.4453" y="312.558" width="27.66" height="4.8405" rx="1.383" fill="#3F4350"/>
<rect x="12.4453" y="318.782" width="41.49" height="3.4575" rx="1.383" fill="#3F4350"/>
<rect x="6.91406" y="330.537" width="230.961" height="20.745" rx="1.383" fill="#3F4350"/>
<rect x="12.4453" y="335.378" width="11.064" height="11.064" rx="1.383" fill="#3F4350"/>
<rect x="26.9668" y="336.069" width="55.32" height="4.8405" rx="1.383" fill="#3F4350"/>
<rect x="26.9668" y="342.293" width="41.49" height="3.4575" rx="1.383" fill="#3F4350"/>
<rect x="6.91406" y="354.048" width="230.961" height="20.745" rx="1.383" fill="#3F4350"/>
</g>
<defs>
<clipPath id="clip0_14259_777">
<path d="M0 7.73148C0 3.4615 3.4615 0 7.73147 0H237.06C241.329 0 244.791 3.4615 244.791 7.73147V348.391C244.791 352.661 241.329 356.122 237.06 356.122H7.73147C3.4615 356.122 0 352.661 0 348.391V7.73148Z" fill="white"/>
</clipPath>
</defs>
</svg>
