<svg width="684" height="419" viewBox="0 0 684 419" fill="none" xmlns="http://www.w3.org/2000/svg">
<rect width="684" height="419" fill="#3F4350"/>
<path d="M32 40C32 35.5817 35.5817 32 40 32H644C648.418 32 652 35.5817 652 40V379C652 383.418 648.418 387 644 387H40C35.5817 387 32 383.418 32 379V40Z" fill="#0D0E11"/>
<path opacity="0.1" d="M64 36C64 33.7909 65.7909 32 68 32H175C177.209 32 179 33.7909 179 36V383C179 385.209 177.209 387 175 387H68C65.7909 387 64 385.209 64 383V36Z" fill="#F6F6F8"/>
<path opacity="0.1" d="M211 36C211 33.7909 212.791 32 215 32H322C324.209 32 326 33.7909 326 36V383C326 385.209 324.209 387 322 387H215C212.791 387 211 385.209 211 383V36Z" fill="#F6F6F8"/>
<path opacity="0.1" d="M358 36C358 33.7909 359.791 32 362 32H469C471.209 32 473 33.7909 473 36V383C473 385.209 471.209 387 469 387H362C359.791 387 358 385.209 358 383V36Z" fill="#F6F6F8"/>
<path opacity="0.1" d="M505 36C505 33.7909 506.791 32 509 32H616C618.209 32 620 33.7909 620 36V383C620 385.209 618.209 387 616 387H509C506.791 387 505 385.209 505 383V36Z" fill="#F6F6F8"/>
</svg>
