<svg width="553" height="60" viewBox="0 0 553 60" fill="none" xmlns="http://www.w3.org/2000/svg">
<g clip-path="url(#clip0_13968_16499)">
<g filter="url(#filter0_d_13968_16499)">
<path d="M34 30C34 22.4575 34 18.6863 36.3431 16.3431C38.6863 14 42.4575 14 50 14H116C123.542 14 127.314 14 129.657 16.3431C132 18.6863 132 22.4575 132 30V30C132 37.5425 132 41.3137 129.657 43.6569C127.314 46 123.542 46 116 46H50C42.4575 46 38.6863 46 36.3431 43.6569C34 41.3137 34 37.5425 34 30V30Z" fill="#1C1D23"/>
<path d="M46.6154 36V25.216H48.1194V36H46.6154ZM42.8394 26.272V24.896H51.8794V26.272H42.8394ZM54.778 36.16C54.0313 36.16 53.3593 35.984 52.762 35.632C52.1647 35.28 51.69 34.8053 51.338 34.208C50.986 33.6 50.81 32.9227 50.81 32.176C50.81 31.44 50.986 30.7787 51.338 30.192C51.69 29.5947 52.1647 29.12 52.762 28.768C53.3593 28.416 54.0313 28.24 54.778 28.24C55.514 28.24 56.1807 28.416 56.778 28.768C57.386 29.1093 57.866 29.5787 58.218 30.176C58.57 30.7733 58.746 31.44 58.746 32.176C58.746 32.9227 58.57 33.6 58.218 34.208C57.866 34.8053 57.386 35.28 56.778 35.632C56.1807 35.984 55.514 36.16 54.778 36.16ZM54.778 34.768C55.258 34.768 55.6847 34.656 56.058 34.432C56.4313 34.208 56.7247 33.904 56.938 33.52C57.1513 33.1253 57.258 32.6773 57.258 32.176C57.258 31.6853 57.146 31.248 56.922 30.864C56.7087 30.48 56.4153 30.1813 56.042 29.968C55.6793 29.744 55.258 29.632 54.778 29.632C54.298 29.632 53.8713 29.744 53.498 29.968C53.1247 30.1813 52.8313 30.48 52.618 30.864C52.4047 31.248 52.298 31.6853 52.298 32.176C52.298 32.6773 52.4047 33.1253 52.618 33.52C52.8313 33.904 53.1247 34.208 53.498 34.432C53.8713 34.656 54.298 34.768 54.778 34.768ZM63.8405 36.16C63.0938 36.16 62.4218 35.984 61.8245 35.632C61.2272 35.28 60.7525 34.8053 60.4005 34.208C60.0485 33.6 59.8725 32.9227 59.8725 32.176C59.8725 31.44 60.0485 30.7787 60.4005 30.192C60.7525 29.5947 61.2272 29.12 61.8245 28.768C62.4218 28.416 63.0938 28.24 63.8405 28.24C64.5765 28.24 65.2432 28.416 65.8405 28.768C66.4485 29.1093 66.9285 29.5787 67.2805 30.176C67.6325 30.7733 67.8085 31.44 67.8085 32.176C67.8085 32.9227 67.6325 33.6 67.2805 34.208C66.9285 34.8053 66.4485 35.28 65.8405 35.632C65.2432 35.984 64.5765 36.16 63.8405 36.16ZM63.8405 34.768C64.3205 34.768 64.7472 34.656 65.1205 34.432C65.4938 34.208 65.7872 33.904 66.0005 33.52C66.2138 33.1253 66.3205 32.6773 66.3205 32.176C66.3205 31.6853 66.2085 31.248 65.9845 30.864C65.7712 30.48 65.4778 30.1813 65.1045 29.968C64.7418 29.744 64.3205 29.632 63.8405 29.632C63.3605 29.632 62.9338 29.744 62.5605 29.968C62.1872 30.1813 61.8938 30.48 61.6805 30.864C61.4672 31.248 61.3605 31.6853 61.3605 32.176C61.3605 32.6773 61.4672 33.1253 61.6805 33.52C61.8938 33.904 62.1872 34.208 62.5605 34.432C62.9338 34.656 63.3605 34.768 63.8405 34.768ZM69.431 36V24.576H70.871V36H69.431ZM74.1459 36V25.216H75.5859V36H74.1459ZM72.2739 29.712V28.4H77.4579V29.712H72.2739ZM78.8845 36V28.4H80.3245V36H78.8845ZM79.6045 26.88C79.3378 26.88 79.1192 26.7947 78.9485 26.624C78.7778 26.4427 78.6925 26.2187 78.6925 25.952C78.6925 25.696 78.7778 25.4827 78.9485 25.312C79.1192 25.1307 79.3378 25.04 79.6045 25.04C79.8712 25.04 80.0898 25.1307 80.2605 25.312C80.4312 25.4827 80.5165 25.696 80.5165 25.952C80.5165 26.2187 80.4312 26.4427 80.2605 26.624C80.0898 26.7947 79.8712 26.88 79.6045 26.88ZM86.4466 36.16C85.8706 36.16 85.348 36.0427 84.8786 35.808C84.42 35.5627 84.052 35.2267 83.7746 34.8C83.4973 34.3733 83.3426 33.888 83.3106 33.344V31.056C83.3426 30.5013 83.4973 30.016 83.7746 29.6C84.0626 29.1733 84.436 28.8427 84.8946 28.608C85.364 28.3627 85.8813 28.24 86.4466 28.24C87.14 28.24 87.764 28.416 88.3186 28.768C88.884 29.12 89.3266 29.5947 89.6466 30.192C89.9666 30.7893 90.1266 31.4613 90.1266 32.208C90.1266 32.9547 89.9666 33.6267 89.6466 34.224C89.3266 34.8213 88.884 35.296 88.3186 35.648C87.764 35.9893 87.14 36.16 86.4466 36.16ZM82.4466 39.184V28.4H83.8866V30.4L83.6146 32.24L83.8866 34.096V39.184H82.4466ZM86.2066 34.8C86.6866 34.8 87.108 34.688 87.4706 34.464C87.8333 34.24 88.1213 33.936 88.3346 33.552C88.548 33.1573 88.6546 32.704 88.6546 32.192C88.6546 31.6907 88.548 31.2427 88.3346 30.848C88.1213 30.4533 87.8333 30.1493 87.4706 29.936C87.108 29.712 86.692 29.6 86.2226 29.6C85.7426 29.6 85.3213 29.712 84.9586 29.936C84.596 30.1493 84.3133 30.4533 84.1106 30.848C83.908 31.2427 83.8066 31.696 83.8066 32.208C83.8066 32.7093 83.9026 33.1573 84.0946 33.552C84.2973 33.936 84.58 34.24 84.9426 34.464C85.316 34.688 85.7373 34.8 86.2066 34.8ZM98.0373 36V25.216H99.5413V36H98.0373ZM94.2613 26.272V24.896H103.301V26.272H94.2613ZM106.248 36.16C105.491 36.16 104.808 35.9893 104.2 35.648C103.592 35.296 103.112 34.8213 102.76 34.224C102.408 33.6267 102.232 32.9493 102.232 32.192C102.232 31.4453 102.403 30.7733 102.744 30.176C103.096 29.5787 103.565 29.1093 104.152 28.768C104.749 28.416 105.416 28.24 106.152 28.24C106.856 28.24 107.475 28.4 108.008 28.72C108.552 29.04 108.973 29.4827 109.272 30.048C109.581 30.6133 109.736 31.2533 109.736 31.968C109.736 32.0747 109.731 32.192 109.72 32.32C109.709 32.4373 109.688 32.576 109.656 32.736H103.24V31.536H108.888L108.36 32C108.36 31.488 108.269 31.056 108.088 30.704C107.907 30.3413 107.651 30.064 107.32 29.872C106.989 29.6693 106.589 29.568 106.12 29.568C105.629 29.568 105.197 29.6747 104.824 29.888C104.451 30.1013 104.163 30.4 103.96 30.784C103.757 31.168 103.656 31.6213 103.656 32.144C103.656 32.6773 103.763 33.1467 103.976 33.552C104.189 33.9467 104.493 34.256 104.888 34.48C105.283 34.6933 105.736 34.8 106.248 34.8C106.675 34.8 107.064 34.7253 107.416 34.576C107.779 34.4267 108.088 34.2027 108.344 33.904L109.272 34.848C108.909 35.2747 108.461 35.6 107.928 35.824C107.405 36.048 106.845 36.16 106.248 36.16ZM116.064 36L113.696 32.672L113.424 32.416L110.432 28.4H112.176L114.336 31.36L114.608 31.584L117.808 36H116.064ZM110.288 36L113.424 31.776L114.24 32.832L111.984 36H110.288ZM114.72 32.4L113.888 31.376L115.984 28.4H117.664L114.72 32.4ZM119.974 36V25.216H121.414V36H119.974ZM118.102 29.712V28.4H123.286V29.712H118.102Z" fill="#F6F6F8"/>
<path d="M87.002 46L84.414 48.588C83.6329 49.3691 82.3666 49.3691 81.5856 48.588L78.9976 46L87.002 46Z" fill="#1C1D23"/>
</g>
<g filter="url(#filter1_d_13968_16499)">
<path d="M163 30C163 22.4575 163 18.6863 165.343 16.3431C167.686 14 171.458 14 179 14H245C252.542 14 256.314 14 258.657 16.3431C261 18.6863 261 22.4575 261 30V30C261 37.5425 261 41.3137 258.657 43.6569C256.314 46 252.542 46 245 46H179C171.458 46 167.686 46 165.343 43.6569C163 41.3137 163 37.5425 163 30V30Z" fill="#1C1D23"/>
<path d="M175.615 36V25.216H177.119V36H175.615ZM171.839 26.272V24.896H180.879V26.272H171.839ZM183.778 36.16C183.031 36.16 182.359 35.984 181.762 35.632C181.165 35.28 180.69 34.8053 180.338 34.208C179.986 33.6 179.81 32.9227 179.81 32.176C179.81 31.44 179.986 30.7787 180.338 30.192C180.69 29.5947 181.165 29.12 181.762 28.768C182.359 28.416 183.031 28.24 183.778 28.24C184.514 28.24 185.181 28.416 185.778 28.768C186.386 29.1093 186.866 29.5787 187.218 30.176C187.57 30.7733 187.746 31.44 187.746 32.176C187.746 32.9227 187.57 33.6 187.218 34.208C186.866 34.8053 186.386 35.28 185.778 35.632C185.181 35.984 184.514 36.16 183.778 36.16ZM183.778 34.768C184.258 34.768 184.685 34.656 185.058 34.432C185.431 34.208 185.725 33.904 185.938 33.52C186.151 33.1253 186.258 32.6773 186.258 32.176C186.258 31.6853 186.146 31.248 185.922 30.864C185.709 30.48 185.415 30.1813 185.042 29.968C184.679 29.744 184.258 29.632 183.778 29.632C183.298 29.632 182.871 29.744 182.498 29.968C182.125 30.1813 181.831 30.48 181.618 30.864C181.405 31.248 181.298 31.6853 181.298 32.176C181.298 32.6773 181.405 33.1253 181.618 33.52C181.831 33.904 182.125 34.208 182.498 34.432C182.871 34.656 183.298 34.768 183.778 34.768ZM192.841 36.16C192.094 36.16 191.422 35.984 190.825 35.632C190.227 35.28 189.753 34.8053 189.401 34.208C189.049 33.6 188.873 32.9227 188.873 32.176C188.873 31.44 189.049 30.7787 189.401 30.192C189.753 29.5947 190.227 29.12 190.825 28.768C191.422 28.416 192.094 28.24 192.841 28.24C193.577 28.24 194.243 28.416 194.841 28.768C195.449 29.1093 195.929 29.5787 196.281 30.176C196.633 30.7733 196.809 31.44 196.809 32.176C196.809 32.9227 196.633 33.6 196.281 34.208C195.929 34.8053 195.449 35.28 194.841 35.632C194.243 35.984 193.577 36.16 192.841 36.16ZM192.841 34.768C193.321 34.768 193.747 34.656 194.121 34.432C194.494 34.208 194.787 33.904 195.001 33.52C195.214 33.1253 195.321 32.6773 195.321 32.176C195.321 31.6853 195.209 31.248 194.985 30.864C194.771 30.48 194.478 30.1813 194.105 29.968C193.742 29.744 193.321 29.632 192.841 29.632C192.361 29.632 191.934 29.744 191.561 29.968C191.187 30.1813 190.894 30.48 190.681 30.864C190.467 31.248 190.361 31.6853 190.361 32.176C190.361 32.6773 190.467 33.1253 190.681 33.52C190.894 33.904 191.187 34.208 191.561 34.432C191.934 34.656 192.361 34.768 192.841 34.768ZM198.431 36V24.576H199.871V36H198.431ZM203.146 36V25.216H204.586V36H203.146ZM201.274 29.712V28.4H206.458V29.712H201.274ZM207.885 36V28.4H209.325V36H207.885ZM208.605 26.88C208.338 26.88 208.119 26.7947 207.949 26.624C207.778 26.4427 207.693 26.2187 207.693 25.952C207.693 25.696 207.778 25.4827 207.949 25.312C208.119 25.1307 208.338 25.04 208.605 25.04C208.871 25.04 209.09 25.1307 209.261 25.312C209.431 25.4827 209.517 25.696 209.517 25.952C209.517 26.2187 209.431 26.4427 209.261 26.624C209.09 26.7947 208.871 26.88 208.605 26.88ZM215.447 36.16C214.871 36.16 214.348 36.0427 213.879 35.808C213.42 35.5627 213.052 35.2267 212.775 34.8C212.497 34.3733 212.343 33.888 212.311 33.344V31.056C212.343 30.5013 212.497 30.016 212.775 29.6C213.063 29.1733 213.436 28.8427 213.895 28.608C214.364 28.3627 214.881 28.24 215.447 28.24C216.14 28.24 216.764 28.416 217.319 28.768C217.884 29.12 218.327 29.5947 218.647 30.192C218.967 30.7893 219.127 31.4613 219.127 32.208C219.127 32.9547 218.967 33.6267 218.647 34.224C218.327 34.8213 217.884 35.296 217.319 35.648C216.764 35.9893 216.14 36.16 215.447 36.16ZM211.447 39.184V28.4H212.887V30.4L212.615 32.24L212.887 34.096V39.184H211.447ZM215.207 34.8C215.687 34.8 216.108 34.688 216.471 34.464C216.833 34.24 217.121 33.936 217.335 33.552C217.548 33.1573 217.655 32.704 217.655 32.192C217.655 31.6907 217.548 31.2427 217.335 30.848C217.121 30.4533 216.833 30.1493 216.471 29.936C216.108 29.712 215.692 29.6 215.223 29.6C214.743 29.6 214.321 29.712 213.959 29.936C213.596 30.1493 213.313 30.4533 213.111 30.848C212.908 31.2427 212.807 31.696 212.807 32.208C212.807 32.7093 212.903 33.1573 213.095 33.552C213.297 33.936 213.58 34.24 213.943 34.464C214.316 34.688 214.737 34.8 215.207 34.8ZM227.037 36V25.216H228.541V36H227.037ZM223.261 26.272V24.896H232.301V26.272H223.261ZM235.248 36.16C234.491 36.16 233.808 35.9893 233.2 35.648C232.592 35.296 232.112 34.8213 231.76 34.224C231.408 33.6267 231.232 32.9493 231.232 32.192C231.232 31.4453 231.403 30.7733 231.744 30.176C232.096 29.5787 232.565 29.1093 233.152 28.768C233.749 28.416 234.416 28.24 235.152 28.24C235.856 28.24 236.475 28.4 237.008 28.72C237.552 29.04 237.973 29.4827 238.272 30.048C238.581 30.6133 238.736 31.2533 238.736 31.968C238.736 32.0747 238.731 32.192 238.72 32.32C238.709 32.4373 238.688 32.576 238.656 32.736H232.24V31.536H237.888L237.36 32C237.36 31.488 237.269 31.056 237.088 30.704C236.907 30.3413 236.651 30.064 236.32 29.872C235.989 29.6693 235.589 29.568 235.12 29.568C234.629 29.568 234.197 29.6747 233.824 29.888C233.451 30.1013 233.163 30.4 232.96 30.784C232.757 31.168 232.656 31.6213 232.656 32.144C232.656 32.6773 232.763 33.1467 232.976 33.552C233.189 33.9467 233.493 34.256 233.888 34.48C234.283 34.6933 234.736 34.8 235.248 34.8C235.675 34.8 236.064 34.7253 236.416 34.576C236.779 34.4267 237.088 34.2027 237.344 33.904L238.272 34.848C237.909 35.2747 237.461 35.6 236.928 35.824C236.405 36.048 235.845 36.16 235.248 36.16ZM245.064 36L242.696 32.672L242.424 32.416L239.432 28.4H241.176L243.336 31.36L243.608 31.584L246.808 36H245.064ZM239.288 36L242.424 31.776L243.24 32.832L240.984 36H239.288ZM243.72 32.4L242.888 31.376L244.984 28.4H246.664L243.72 32.4ZM248.974 36V25.216H250.414V36H248.974ZM247.102 29.712V28.4H252.286V29.712H247.102Z" fill="#F6F6F8"/>
<path d="M163.002 34.0044L160.414 31.4164C159.633 30.6354 159.633 29.3691 160.414 28.588L163.002 26L163.002 34.0044Z" fill="#1C1D23"/>
</g>
<g filter="url(#filter2_d_13968_16499)">
<path d="M292 30C292 22.4575 292 18.6863 294.343 16.3431C296.686 14 300.458 14 308 14H374C381.542 14 385.314 14 387.657 16.3431C390 18.6863 390 22.4575 390 30V30C390 37.5425 390 41.3137 387.657 43.6569C385.314 46 381.542 46 374 46H308C300.458 46 296.686 46 294.343 43.6569C292 41.3137 292 37.5425 292 30V30Z" fill="#1C1D23"/>
<path d="M304.615 36V25.216H306.119V36H304.615ZM300.839 26.272V24.896H309.879V26.272H300.839ZM312.778 36.16C312.031 36.16 311.359 35.984 310.762 35.632C310.165 35.28 309.69 34.8053 309.338 34.208C308.986 33.6 308.81 32.9227 308.81 32.176C308.81 31.44 308.986 30.7787 309.338 30.192C309.69 29.5947 310.165 29.12 310.762 28.768C311.359 28.416 312.031 28.24 312.778 28.24C313.514 28.24 314.181 28.416 314.778 28.768C315.386 29.1093 315.866 29.5787 316.218 30.176C316.57 30.7733 316.746 31.44 316.746 32.176C316.746 32.9227 316.57 33.6 316.218 34.208C315.866 34.8053 315.386 35.28 314.778 35.632C314.181 35.984 313.514 36.16 312.778 36.16ZM312.778 34.768C313.258 34.768 313.685 34.656 314.058 34.432C314.431 34.208 314.725 33.904 314.938 33.52C315.151 33.1253 315.258 32.6773 315.258 32.176C315.258 31.6853 315.146 31.248 314.922 30.864C314.709 30.48 314.415 30.1813 314.042 29.968C313.679 29.744 313.258 29.632 312.778 29.632C312.298 29.632 311.871 29.744 311.498 29.968C311.125 30.1813 310.831 30.48 310.618 30.864C310.405 31.248 310.298 31.6853 310.298 32.176C310.298 32.6773 310.405 33.1253 310.618 33.52C310.831 33.904 311.125 34.208 311.498 34.432C311.871 34.656 312.298 34.768 312.778 34.768ZM321.841 36.16C321.094 36.16 320.422 35.984 319.825 35.632C319.227 35.28 318.753 34.8053 318.401 34.208C318.049 33.6 317.873 32.9227 317.873 32.176C317.873 31.44 318.049 30.7787 318.401 30.192C318.753 29.5947 319.227 29.12 319.825 28.768C320.422 28.416 321.094 28.24 321.841 28.24C322.577 28.24 323.243 28.416 323.841 28.768C324.449 29.1093 324.929 29.5787 325.281 30.176C325.633 30.7733 325.809 31.44 325.809 32.176C325.809 32.9227 325.633 33.6 325.281 34.208C324.929 34.8053 324.449 35.28 323.841 35.632C323.243 35.984 322.577 36.16 321.841 36.16ZM321.841 34.768C322.321 34.768 322.747 34.656 323.121 34.432C323.494 34.208 323.787 33.904 324.001 33.52C324.214 33.1253 324.321 32.6773 324.321 32.176C324.321 31.6853 324.209 31.248 323.985 30.864C323.771 30.48 323.478 30.1813 323.105 29.968C322.742 29.744 322.321 29.632 321.841 29.632C321.361 29.632 320.934 29.744 320.561 29.968C320.187 30.1813 319.894 30.48 319.681 30.864C319.467 31.248 319.361 31.6853 319.361 32.176C319.361 32.6773 319.467 33.1253 319.681 33.52C319.894 33.904 320.187 34.208 320.561 34.432C320.934 34.656 321.361 34.768 321.841 34.768ZM327.431 36V24.576H328.871V36H327.431ZM332.146 36V25.216H333.586V36H332.146ZM330.274 29.712V28.4H335.458V29.712H330.274ZM336.885 36V28.4H338.325V36H336.885ZM337.605 26.88C337.338 26.88 337.119 26.7947 336.949 26.624C336.778 26.4427 336.693 26.2187 336.693 25.952C336.693 25.696 336.778 25.4827 336.949 25.312C337.119 25.1307 337.338 25.04 337.605 25.04C337.871 25.04 338.09 25.1307 338.261 25.312C338.431 25.4827 338.517 25.696 338.517 25.952C338.517 26.2187 338.431 26.4427 338.261 26.624C338.09 26.7947 337.871 26.88 337.605 26.88ZM344.447 36.16C343.871 36.16 343.348 36.0427 342.879 35.808C342.42 35.5627 342.052 35.2267 341.775 34.8C341.497 34.3733 341.343 33.888 341.311 33.344V31.056C341.343 30.5013 341.497 30.016 341.775 29.6C342.063 29.1733 342.436 28.8427 342.895 28.608C343.364 28.3627 343.881 28.24 344.447 28.24C345.14 28.24 345.764 28.416 346.319 28.768C346.884 29.12 347.327 29.5947 347.647 30.192C347.967 30.7893 348.127 31.4613 348.127 32.208C348.127 32.9547 347.967 33.6267 347.647 34.224C347.327 34.8213 346.884 35.296 346.319 35.648C345.764 35.9893 345.14 36.16 344.447 36.16ZM340.447 39.184V28.4H341.887V30.4L341.615 32.24L341.887 34.096V39.184H340.447ZM344.207 34.8C344.687 34.8 345.108 34.688 345.471 34.464C345.833 34.24 346.121 33.936 346.335 33.552C346.548 33.1573 346.655 32.704 346.655 32.192C346.655 31.6907 346.548 31.2427 346.335 30.848C346.121 30.4533 345.833 30.1493 345.471 29.936C345.108 29.712 344.692 29.6 344.223 29.6C343.743 29.6 343.321 29.712 342.959 29.936C342.596 30.1493 342.313 30.4533 342.111 30.848C341.908 31.2427 341.807 31.696 341.807 32.208C341.807 32.7093 341.903 33.1573 342.095 33.552C342.297 33.936 342.58 34.24 342.943 34.464C343.316 34.688 343.737 34.8 344.207 34.8ZM356.037 36V25.216H357.541V36H356.037ZM352.261 26.272V24.896H361.301V26.272H352.261ZM364.248 36.16C363.491 36.16 362.808 35.9893 362.2 35.648C361.592 35.296 361.112 34.8213 360.76 34.224C360.408 33.6267 360.232 32.9493 360.232 32.192C360.232 31.4453 360.403 30.7733 360.744 30.176C361.096 29.5787 361.565 29.1093 362.152 28.768C362.749 28.416 363.416 28.24 364.152 28.24C364.856 28.24 365.475 28.4 366.008 28.72C366.552 29.04 366.973 29.4827 367.272 30.048C367.581 30.6133 367.736 31.2533 367.736 31.968C367.736 32.0747 367.731 32.192 367.72 32.32C367.709 32.4373 367.688 32.576 367.656 32.736H361.24V31.536H366.888L366.36 32C366.36 31.488 366.269 31.056 366.088 30.704C365.907 30.3413 365.651 30.064 365.32 29.872C364.989 29.6693 364.589 29.568 364.12 29.568C363.629 29.568 363.197 29.6747 362.824 29.888C362.451 30.1013 362.163 30.4 361.96 30.784C361.757 31.168 361.656 31.6213 361.656 32.144C361.656 32.6773 361.763 33.1467 361.976 33.552C362.189 33.9467 362.493 34.256 362.888 34.48C363.283 34.6933 363.736 34.8 364.248 34.8C364.675 34.8 365.064 34.7253 365.416 34.576C365.779 34.4267 366.088 34.2027 366.344 33.904L367.272 34.848C366.909 35.2747 366.461 35.6 365.928 35.824C365.405 36.048 364.845 36.16 364.248 36.16ZM374.064 36L371.696 32.672L371.424 32.416L368.432 28.4H370.176L372.336 31.36L372.608 31.584L375.808 36H374.064ZM368.288 36L371.424 31.776L372.24 32.832L369.984 36H368.288ZM372.72 32.4L371.888 31.376L373.984 28.4H375.664L372.72 32.4ZM377.974 36V25.216H379.414V36H377.974ZM376.102 29.712V28.4H381.286V29.712H376.102Z" fill="#F6F6F8"/>
<path d="M335.996 14.0022L338.584 11.4142C339.365 10.6332 340.631 10.6332 341.412 11.4142L344 14.0022L335.996 14.0022Z" fill="#1C1D23"/>
</g>
<g filter="url(#filter3_d_13968_16499)">
<path d="M421 30C421 22.4575 421 18.6863 423.343 16.3431C425.686 14 429.458 14 437 14H503C510.542 14 514.314 14 516.657 16.3431C519 18.6863 519 22.4575 519 30V30C519 37.5425 519 41.3137 516.657 43.6569C514.314 46 510.542 46 503 46H437C429.458 46 425.686 46 423.343 43.6569C421 41.3137 421 37.5425 421 30V30Z" fill="#1C1D23"/>
<path d="M433.615 36V25.216H435.119V36H433.615ZM429.839 26.272V24.896H438.879V26.272H429.839ZM441.778 36.16C441.031 36.16 440.359 35.984 439.762 35.632C439.165 35.28 438.69 34.8053 438.338 34.208C437.986 33.6 437.81 32.9227 437.81 32.176C437.81 31.44 437.986 30.7787 438.338 30.192C438.69 29.5947 439.165 29.12 439.762 28.768C440.359 28.416 441.031 28.24 441.778 28.24C442.514 28.24 443.181 28.416 443.778 28.768C444.386 29.1093 444.866 29.5787 445.218 30.176C445.57 30.7733 445.746 31.44 445.746 32.176C445.746 32.9227 445.57 33.6 445.218 34.208C444.866 34.8053 444.386 35.28 443.778 35.632C443.181 35.984 442.514 36.16 441.778 36.16ZM441.778 34.768C442.258 34.768 442.685 34.656 443.058 34.432C443.431 34.208 443.725 33.904 443.938 33.52C444.151 33.1253 444.258 32.6773 444.258 32.176C444.258 31.6853 444.146 31.248 443.922 30.864C443.709 30.48 443.415 30.1813 443.042 29.968C442.679 29.744 442.258 29.632 441.778 29.632C441.298 29.632 440.871 29.744 440.498 29.968C440.125 30.1813 439.831 30.48 439.618 30.864C439.405 31.248 439.298 31.6853 439.298 32.176C439.298 32.6773 439.405 33.1253 439.618 33.52C439.831 33.904 440.125 34.208 440.498 34.432C440.871 34.656 441.298 34.768 441.778 34.768ZM450.841 36.16C450.094 36.16 449.422 35.984 448.825 35.632C448.227 35.28 447.753 34.8053 447.401 34.208C447.049 33.6 446.873 32.9227 446.873 32.176C446.873 31.44 447.049 30.7787 447.401 30.192C447.753 29.5947 448.227 29.12 448.825 28.768C449.422 28.416 450.094 28.24 450.841 28.24C451.577 28.24 452.243 28.416 452.841 28.768C453.449 29.1093 453.929 29.5787 454.281 30.176C454.633 30.7733 454.809 31.44 454.809 32.176C454.809 32.9227 454.633 33.6 454.281 34.208C453.929 34.8053 453.449 35.28 452.841 35.632C452.243 35.984 451.577 36.16 450.841 36.16ZM450.841 34.768C451.321 34.768 451.747 34.656 452.121 34.432C452.494 34.208 452.787 33.904 453.001 33.52C453.214 33.1253 453.321 32.6773 453.321 32.176C453.321 31.6853 453.209 31.248 452.985 30.864C452.771 30.48 452.478 30.1813 452.105 29.968C451.742 29.744 451.321 29.632 450.841 29.632C450.361 29.632 449.934 29.744 449.561 29.968C449.187 30.1813 448.894 30.48 448.681 30.864C448.467 31.248 448.361 31.6853 448.361 32.176C448.361 32.6773 448.467 33.1253 448.681 33.52C448.894 33.904 449.187 34.208 449.561 34.432C449.934 34.656 450.361 34.768 450.841 34.768ZM456.431 36V24.576H457.871V36H456.431ZM461.146 36V25.216H462.586V36H461.146ZM459.274 29.712V28.4H464.458V29.712H459.274ZM465.885 36V28.4H467.325V36H465.885ZM466.605 26.88C466.338 26.88 466.119 26.7947 465.949 26.624C465.778 26.4427 465.693 26.2187 465.693 25.952C465.693 25.696 465.778 25.4827 465.949 25.312C466.119 25.1307 466.338 25.04 466.605 25.04C466.871 25.04 467.09 25.1307 467.261 25.312C467.431 25.4827 467.517 25.696 467.517 25.952C467.517 26.2187 467.431 26.4427 467.261 26.624C467.09 26.7947 466.871 26.88 466.605 26.88ZM473.447 36.16C472.871 36.16 472.348 36.0427 471.879 35.808C471.42 35.5627 471.052 35.2267 470.775 34.8C470.497 34.3733 470.343 33.888 470.311 33.344V31.056C470.343 30.5013 470.497 30.016 470.775 29.6C471.063 29.1733 471.436 28.8427 471.895 28.608C472.364 28.3627 472.881 28.24 473.447 28.24C474.14 28.24 474.764 28.416 475.319 28.768C475.884 29.12 476.327 29.5947 476.647 30.192C476.967 30.7893 477.127 31.4613 477.127 32.208C477.127 32.9547 476.967 33.6267 476.647 34.224C476.327 34.8213 475.884 35.296 475.319 35.648C474.764 35.9893 474.14 36.16 473.447 36.16ZM469.447 39.184V28.4H470.887V30.4L470.615 32.24L470.887 34.096V39.184H469.447ZM473.207 34.8C473.687 34.8 474.108 34.688 474.471 34.464C474.833 34.24 475.121 33.936 475.335 33.552C475.548 33.1573 475.655 32.704 475.655 32.192C475.655 31.6907 475.548 31.2427 475.335 30.848C475.121 30.4533 474.833 30.1493 474.471 29.936C474.108 29.712 473.692 29.6 473.223 29.6C472.743 29.6 472.321 29.712 471.959 29.936C471.596 30.1493 471.313 30.4533 471.111 30.848C470.908 31.2427 470.807 31.696 470.807 32.208C470.807 32.7093 470.903 33.1573 471.095 33.552C471.297 33.936 471.58 34.24 471.943 34.464C472.316 34.688 472.737 34.8 473.207 34.8ZM485.037 36V25.216H486.541V36H485.037ZM481.261 26.272V24.896H490.301V26.272H481.261ZM493.248 36.16C492.491 36.16 491.808 35.9893 491.2 35.648C490.592 35.296 490.112 34.8213 489.76 34.224C489.408 33.6267 489.232 32.9493 489.232 32.192C489.232 31.4453 489.403 30.7733 489.744 30.176C490.096 29.5787 490.565 29.1093 491.152 28.768C491.749 28.416 492.416 28.24 493.152 28.24C493.856 28.24 494.475 28.4 495.008 28.72C495.552 29.04 495.973 29.4827 496.272 30.048C496.581 30.6133 496.736 31.2533 496.736 31.968C496.736 32.0747 496.731 32.192 496.72 32.32C496.709 32.4373 496.688 32.576 496.656 32.736H490.24V31.536H495.888L495.36 32C495.36 31.488 495.269 31.056 495.088 30.704C494.907 30.3413 494.651 30.064 494.32 29.872C493.989 29.6693 493.589 29.568 493.12 29.568C492.629 29.568 492.197 29.6747 491.824 29.888C491.451 30.1013 491.163 30.4 490.96 30.784C490.757 31.168 490.656 31.6213 490.656 32.144C490.656 32.6773 490.763 33.1467 490.976 33.552C491.189 33.9467 491.493 34.256 491.888 34.48C492.283 34.6933 492.736 34.8 493.248 34.8C493.675 34.8 494.064 34.7253 494.416 34.576C494.779 34.4267 495.088 34.2027 495.344 33.904L496.272 34.848C495.909 35.2747 495.461 35.6 494.928 35.824C494.405 36.048 493.845 36.16 493.248 36.16ZM503.064 36L500.696 32.672L500.424 32.416L497.432 28.4H499.176L501.336 31.36L501.608 31.584L504.808 36H503.064ZM497.288 36L500.424 31.776L501.24 32.832L498.984 36H497.288ZM501.72 32.4L500.888 31.376L502.984 28.4H504.664L501.72 32.4ZM506.974 36V25.216H508.414V36H506.974ZM505.102 29.712V28.4H510.286V29.712H505.102Z" fill="#F6F6F8"/>
<path d="M518.998 25.9956L521.586 28.5836C522.367 29.3646 522.367 30.6309 521.586 31.412L518.998 34L518.998 25.9956Z" fill="#1C1D23"/>
</g>
</g>
<defs>
<filter id="filter0_d_13968_16499" x="2" y="-8" width="162" height="99.1738" filterUnits="userSpaceOnUse" color-interpolation-filters="sRGB">
<feFlood flood-opacity="0" result="BackgroundImageFix"/>
<feColorMatrix in="SourceAlpha" type="matrix" values="0 0 0 0 0 0 0 0 0 0 0 0 0 0 0 0 0 0 127 0" result="hardAlpha"/>
<feMorphology radius="16" operator="erode" in="SourceAlpha" result="effect1_dropShadow_13968_16499"/>
<feOffset dy="10"/>
<feGaussianBlur stdDeviation="24"/>
<feColorMatrix type="matrix" values="0 0 0 0 0 0 0 0 0 0 0 0 0 0 0 0 0 0 0.12 0"/>
<feBlend mode="normal" in2="BackgroundImageFix" result="effect1_dropShadow_13968_16499"/>
<feBlend mode="normal" in="SourceGraphic" in2="effect1_dropShadow_13968_16499" result="shape"/>
</filter>
<filter id="filter1_d_13968_16499" x="127.829" y="-8" width="165.171" height="96" filterUnits="userSpaceOnUse" color-interpolation-filters="sRGB">
<feFlood flood-opacity="0" result="BackgroundImageFix"/>
<feColorMatrix in="SourceAlpha" type="matrix" values="0 0 0 0 0 0 0 0 0 0 0 0 0 0 0 0 0 0 127 0" result="hardAlpha"/>
<feMorphology radius="16" operator="erode" in="SourceAlpha" result="effect1_dropShadow_13968_16499"/>
<feOffset dy="10"/>
<feGaussianBlur stdDeviation="24"/>
<feColorMatrix type="matrix" values="0 0 0 0 0 0 0 0 0 0 0 0 0 0 0 0 0 0 0.12 0"/>
<feBlend mode="normal" in2="BackgroundImageFix" result="effect1_dropShadow_13968_16499"/>
<feBlend mode="normal" in="SourceGraphic" in2="effect1_dropShadow_13968_16499" result="shape"/>
</filter>
<filter id="filter2_d_13968_16499" x="260" y="-11.1716" width="162" height="99.1716" filterUnits="userSpaceOnUse" color-interpolation-filters="sRGB">
<feFlood flood-opacity="0" result="BackgroundImageFix"/>
<feColorMatrix in="SourceAlpha" type="matrix" values="0 0 0 0 0 0 0 0 0 0 0 0 0 0 0 0 0 0 127 0" result="hardAlpha"/>
<feMorphology radius="16" operator="erode" in="SourceAlpha" result="effect1_dropShadow_13968_16499"/>
<feOffset dy="10"/>
<feGaussianBlur stdDeviation="24"/>
<feColorMatrix type="matrix" values="0 0 0 0 0 0 0 0 0 0 0 0 0 0 0 0 0 0 0.12 0"/>
<feBlend mode="normal" in2="BackgroundImageFix" result="effect1_dropShadow_13968_16499"/>
<feBlend mode="normal" in="SourceGraphic" in2="effect1_dropShadow_13968_16499" result="shape"/>
</filter>
<filter id="filter3_d_13968_16499" x="389" y="-8" width="165.171" height="96" filterUnits="userSpaceOnUse" color-interpolation-filters="sRGB">
<feFlood flood-opacity="0" result="BackgroundImageFix"/>
<feColorMatrix in="SourceAlpha" type="matrix" values="0 0 0 0 0 0 0 0 0 0 0 0 0 0 0 0 0 0 127 0" result="hardAlpha"/>
<feMorphology radius="16" operator="erode" in="SourceAlpha" result="effect1_dropShadow_13968_16499"/>
<feOffset dy="10"/>
<feGaussianBlur stdDeviation="24"/>
<feColorMatrix type="matrix" values="0 0 0 0 0 0 0 0 0 0 0 0 0 0 0 0 0 0 0.12 0"/>
<feBlend mode="normal" in2="BackgroundImageFix" result="effect1_dropShadow_13968_16499"/>
<feBlend mode="normal" in="SourceGraphic" in2="effect1_dropShadow_13968_16499" result="shape"/>
</filter>
<clipPath id="clip0_13968_16499">
<rect width="553" height="60" fill="white"/>
</clipPath>
</defs>
</svg>
