<svg width="720" height="180" viewBox="0 0 720 180" fill="none" xmlns="http://www.w3.org/2000/svg">
<g clip-path="url(#clip0_13968_16513)">
<g filter="url(#filter0_d_13968_16513)">
<path d="M327 86C327 78.4575 327 74.6863 329.343 72.3431C331.686 70 335.458 70 343 70H385C392.542 70 396.314 70 398.657 72.3431C401 74.6863 401 78.4575 401 86V86C401 93.5425 401 97.3137 398.657 99.6569C396.314 102 392.542 102 385 102H343C335.458 102 331.686 102 329.343 99.6569C327 97.3137 327 93.5425 327 86V86Z" fill="#1C1D23"/>
<path d="M337.773 87.168V85.904H340.781C341.432 85.904 341.933 85.7387 342.285 85.408C342.637 85.0773 342.813 84.6293 342.813 84.064C342.813 83.5307 342.637 83.088 342.285 82.736C341.944 82.384 341.448 82.208 340.797 82.208H337.773V80.896H340.845C341.549 80.896 342.162 81.0347 342.685 81.312C343.208 81.5787 343.608 81.9467 343.885 82.416C344.173 82.8853 344.317 83.424 344.317 84.032C344.317 84.6613 344.173 85.2107 343.885 85.68C343.608 86.1493 343.208 86.5173 342.685 86.784C342.162 87.04 341.549 87.168 340.845 87.168H337.773ZM336.765 92V80.896H338.269V92H336.765ZM343.165 92L339.133 87.024L340.557 86.528L345.069 92H343.165ZM349.639 92.16C348.881 92.16 348.199 91.9893 347.591 91.648C346.983 91.296 346.503 90.8213 346.151 90.224C345.799 89.6267 345.623 88.9493 345.623 88.192C345.623 87.4453 345.793 86.7733 346.135 86.176C346.487 85.5787 346.956 85.1093 347.543 84.768C348.14 84.416 348.807 84.24 349.543 84.24C350.247 84.24 350.865 84.4 351.399 84.72C351.943 85.04 352.364 85.4827 352.663 86.048C352.972 86.6133 353.127 87.2533 353.127 87.968C353.127 88.0747 353.121 88.192 353.111 88.32C353.1 88.4373 353.079 88.576 353.047 88.736H346.631V87.536H352.279L351.751 88C351.751 87.488 351.66 87.056 351.479 86.704C351.297 86.3413 351.041 86.064 350.711 85.872C350.38 85.6693 349.98 85.568 349.511 85.568C349.02 85.568 348.588 85.6747 348.215 85.888C347.841 86.1013 347.553 86.4 347.351 86.784C347.148 87.168 347.047 87.6213 347.047 88.144C347.047 88.6773 347.153 89.1467 347.367 89.552C347.58 89.9467 347.884 90.256 348.279 90.48C348.673 90.6933 349.127 90.8 349.639 90.8C350.065 90.8 350.455 90.7253 350.807 90.576C351.169 90.4267 351.479 90.2027 351.735 89.904L352.663 90.848C352.3 91.2747 351.852 91.6 351.319 91.824C350.796 92.048 350.236 92.16 349.639 92.16ZM354.697 92V84.4H356.137V92H354.697ZM359.833 92V87.408C359.833 86.8427 359.657 86.4 359.305 86.08C358.963 85.7493 358.531 85.584 358.009 85.584C357.657 85.584 357.342 85.6587 357.065 85.808C356.787 85.9573 356.563 86.1653 356.393 86.432C356.222 86.6987 356.137 87.0187 356.137 87.392L355.545 87.104C355.545 86.528 355.667 86.0267 355.913 85.6C356.169 85.1733 356.515 84.8427 356.953 84.608C357.39 84.3627 357.881 84.24 358.425 84.24C358.958 84.24 359.438 84.3573 359.865 84.592C360.302 84.8267 360.643 85.1573 360.889 85.584C361.145 86.0107 361.273 86.5173 361.273 87.104V92H359.833ZM364.969 92V87.408C364.969 86.8427 364.793 86.4 364.441 86.08C364.099 85.7493 363.673 85.584 363.161 85.584C362.809 85.584 362.489 85.6587 362.201 85.808C361.923 85.9573 361.699 86.1653 361.529 86.432C361.358 86.6987 361.273 87.0187 361.273 87.392L360.457 87.104C360.489 86.5173 360.643 86.016 360.921 85.6C361.209 85.1733 361.577 84.8427 362.025 84.608C362.473 84.3627 362.963 84.24 363.497 84.24C364.051 84.24 364.547 84.3573 364.985 84.592C365.422 84.8267 365.769 85.1573 366.025 85.584C366.291 86.0107 366.425 86.5227 366.425 87.12V92H364.969ZM371.856 92.16C371.109 92.16 370.437 91.984 369.84 91.632C369.243 91.28 368.768 90.8053 368.416 90.208C368.064 89.6 367.888 88.9227 367.888 88.176C367.888 87.44 368.064 86.7787 368.416 86.192C368.768 85.5947 369.243 85.12 369.84 84.768C370.437 84.416 371.109 84.24 371.856 84.24C372.592 84.24 373.259 84.416 373.856 84.768C374.464 85.1093 374.944 85.5787 375.296 86.176C375.648 86.7733 375.824 87.44 375.824 88.176C375.824 88.9227 375.648 89.6 375.296 90.208C374.944 90.8053 374.464 91.28 373.856 91.632C373.259 91.984 372.592 92.16 371.856 92.16ZM371.856 90.768C372.336 90.768 372.763 90.656 373.136 90.432C373.509 90.208 373.803 89.904 374.016 89.52C374.229 89.1253 374.336 88.6773 374.336 88.176C374.336 87.6853 374.224 87.248 374 86.864C373.787 86.48 373.493 86.1813 373.12 85.968C372.757 85.744 372.336 85.632 371.856 85.632C371.376 85.632 370.949 85.744 370.576 85.968C370.203 86.1813 369.909 86.48 369.696 86.864C369.483 87.248 369.376 87.6853 369.376 88.176C369.376 88.6773 369.483 89.1253 369.696 89.52C369.909 89.904 370.203 90.208 370.576 90.432C370.949 90.656 371.376 90.768 371.856 90.768ZM379.758 92L376.27 84.4H377.87L380.67 90.816H379.742L382.558 84.4H384.094L380.606 92H379.758ZM388.545 92.16C387.787 92.16 387.105 91.9893 386.497 91.648C385.889 91.296 385.409 90.8213 385.057 90.224C384.705 89.6267 384.529 88.9493 384.529 88.192C384.529 87.4453 384.699 86.7733 385.041 86.176C385.393 85.5787 385.862 85.1093 386.449 84.768C387.046 84.416 387.713 84.24 388.449 84.24C389.153 84.24 389.771 84.4 390.305 84.72C390.849 85.04 391.27 85.4827 391.569 86.048C391.878 86.6133 392.033 87.2533 392.033 87.968C392.033 88.0747 392.027 88.192 392.017 88.32C392.006 88.4373 391.985 88.576 391.953 88.736H385.537V87.536H391.185L390.657 88C390.657 87.488 390.566 87.056 390.385 86.704C390.203 86.3413 389.947 86.064 389.617 85.872C389.286 85.6693 388.886 85.568 388.417 85.568C387.926 85.568 387.494 85.6747 387.121 85.888C386.747 86.1013 386.459 86.4 386.257 86.784C386.054 87.168 385.953 87.6213 385.953 88.144C385.953 88.6773 386.059 89.1467 386.273 89.552C386.486 89.9467 386.79 90.256 387.185 90.48C387.579 90.6933 388.033 90.8 388.545 90.8C388.971 90.8 389.361 90.7253 389.713 90.576C390.075 90.4267 390.385 90.2027 390.641 89.904L391.569 90.848C391.206 91.2747 390.758 91.6 390.225 91.824C389.702 92.048 389.142 92.16 388.545 92.16Z" fill="#F6F6F8"/>
<path d="M368.002 102L365.414 104.588C364.633 105.369 363.367 105.369 362.586 104.588L359.998 102L368.002 102Z" fill="#1C1D23"/>
</g>
<g filter="url(#filter1_d_13968_16513)">
<path d="M344 134C344 126.523 344 122.785 345.608 120C346.661 118.176 348.176 116.661 350 115.608C352.785 114 356.523 114 364 114V114C371.477 114 375.215 114 378 115.608C379.824 116.661 381.339 118.176 382.392 120C384 122.785 384 126.523 384 134V134C384 141.477 384 145.215 382.392 148C381.339 149.824 379.824 151.339 378 152.392C375.215 154 371.477 154 364 154V154C356.523 154 352.785 154 350 152.392C348.176 151.339 346.661 149.824 345.608 148C344 145.215 344 141.477 344 134V134Z" fill="#4F46E5"/>
<path d="M372.25 126.5H368.875V125.375C368.875 124.679 368.598 124.011 368.106 123.519C367.614 123.027 366.946 122.75 366.25 122.75H361.75C361.054 122.75 360.386 123.027 359.894 123.519C359.402 124.011 359.125 124.679 359.125 125.375V126.5H355.75C355.452 126.5 355.165 126.619 354.955 126.83C354.744 127.04 354.625 127.327 354.625 127.625C354.625 127.923 354.744 128.21 354.955 128.42C355.165 128.631 355.452 128.75 355.75 128.75H356.125V141.5C356.125 141.997 356.323 142.474 356.674 142.826C357.026 143.177 357.503 143.375 358 143.375H370C370.497 143.375 370.974 143.177 371.326 142.826C371.677 142.474 371.875 141.997 371.875 141.5V128.75H372.25C372.548 128.75 372.835 128.631 373.045 128.42C373.256 128.21 373.375 127.923 373.375 127.625C373.375 127.327 373.256 127.04 373.045 126.83C372.835 126.619 372.548 126.5 372.25 126.5ZM361.375 125.375C361.375 125.276 361.415 125.18 361.485 125.11C361.555 125.04 361.651 125 361.75 125H366.25C366.349 125 366.445 125.04 366.515 125.11C366.585 125.18 366.625 125.276 366.625 125.375V126.5H361.375V125.375ZM369.625 141.125H358.375V128.75H369.625V141.125ZM362.875 131.75V137.75C362.875 138.048 362.756 138.335 362.545 138.545C362.335 138.756 362.048 138.875 361.75 138.875C361.452 138.875 361.165 138.756 360.955 138.545C360.744 138.335 360.625 138.048 360.625 137.75V131.75C360.625 131.452 360.744 131.165 360.955 130.955C361.165 130.744 361.452 130.625 361.75 130.625C362.048 130.625 362.335 130.744 362.545 130.955C362.756 131.165 362.875 131.452 362.875 131.75ZM367.375 131.75V137.75C367.375 138.048 367.256 138.335 367.045 138.545C366.835 138.756 366.548 138.875 366.25 138.875C365.952 138.875 365.665 138.756 365.455 138.545C365.244 138.335 365.125 138.048 365.125 137.75V131.75C365.125 131.452 365.244 131.165 365.455 130.955C365.665 130.744 365.952 130.625 366.25 130.625C366.548 130.625 366.835 130.744 367.045 130.955C367.256 131.165 367.375 131.452 367.375 131.75Z" fill="white"/>
</g>
<g clip-path="url(#clip1_13968_16513)">
<rect x="280" y="134" width="64" height="1" fill="#E1172F"/>
<g clip-path="url(#clip2_13968_16513)">
<rect x="280" y="121" width="24" height="24" rx="12" fill="#E1172F"/>
<path d="M293.83 127.818V138H291.677V129.862H291.618L289.286 131.323V129.414L291.807 127.818H293.83Z" fill="white"/>
</g>
</g>
<g clip-path="url(#clip3_13968_16513)">
<rect x="280" y="85" width="47" height="1" fill="#E1172F"/>
<g clip-path="url(#clip4_13968_16513)">
<rect x="280" y="72" width="24" height="24" rx="12" fill="#E1172F"/>
<path d="M288.416 89V87.4489L292.04 84.093C292.349 83.7947 292.607 83.5263 292.816 83.2876C293.028 83.049 293.189 82.8153 293.298 82.5866C293.408 82.3546 293.462 82.1044 293.462 81.8359C293.462 81.5376 293.394 81.2808 293.258 81.0653C293.123 80.8466 292.937 80.6792 292.702 80.5632C292.466 80.4439 292.199 80.3842 291.901 80.3842C291.59 80.3842 291.318 80.4472 291.086 80.5732C290.854 80.6991 290.675 80.8797 290.549 81.1151C290.423 81.3504 290.36 81.6304 290.36 81.9553H288.317C288.317 81.2891 288.467 80.7107 288.769 80.2202C289.071 79.7296 289.493 79.3501 290.037 79.0817C290.58 78.8132 291.207 78.679 291.916 78.679C292.645 78.679 293.28 78.8082 293.82 79.0668C294.364 79.322 294.786 79.6766 295.088 80.1307C295.39 80.5848 295.54 81.1051 295.54 81.6918C295.54 82.0762 295.464 82.4557 295.312 82.8303C295.163 83.2048 294.896 83.6207 294.511 84.0781C294.127 84.5322 293.585 85.0774 292.886 85.7138L291.399 87.1705V87.2401H295.675V89H288.416Z" fill="white"/>
</g>
</g>
<g clip-path="url(#clip5_13968_16513)">
<rect x="365" y="104" width="76" height="1" fill="#E1172F"/>
<g clip-path="url(#clip6_13968_16513)">
<rect x="417" y="92" width="24" height="24" rx="12" fill="#E1172F"/>
<path d="M424.927 107.21V105.515L429.178 98.8182H430.639V101.165H429.774L427.095 105.406V105.485H433.135V107.21H424.927ZM429.814 109V106.693L429.854 105.942V98.8182H431.872V109H429.814Z" fill="white"/>
</g>
</g>
<g clip-path="url(#clip7_13968_16513)">
<rect width="76" height="1" transform="matrix(0 1 1 0 364 17)" fill="#E1172F"/>
<g clip-path="url(#clip8_13968_16513)">
<rect x="352" y="26" width="24" height="24" rx="12" fill="#E1172F"/>
<path d="M363.975 43.1392C363.232 43.1392 362.571 43.0116 361.991 42.7564C361.414 42.4979 360.958 42.1432 360.624 41.6925C360.292 41.2384 360.122 40.7147 360.112 40.1214H362.279C362.292 40.37 362.374 40.5888 362.523 40.7777C362.675 40.9633 362.877 41.1075 363.129 41.2102C363.381 41.313 363.665 41.3643 363.979 41.3643C364.308 41.3643 364.598 41.3063 364.85 41.1903C365.101 41.0743 365.299 40.9136 365.441 40.7081C365.584 40.5026 365.655 40.2656 365.655 39.9972C365.655 39.7254 365.579 39.4851 365.426 39.2763C365.277 39.0642 365.062 38.8984 364.78 38.7791C364.502 38.6598 364.17 38.6001 363.786 38.6001H362.836V37.0192H363.786C364.11 37.0192 364.397 36.9628 364.646 36.8501C364.898 36.7375 365.093 36.5817 365.232 36.3828C365.372 36.1806 365.441 35.9453 365.441 35.6768C365.441 35.4216 365.38 35.1979 365.257 35.0057C365.138 34.8101 364.969 34.6577 364.75 34.5483C364.535 34.4389 364.283 34.3842 363.994 34.3842C363.703 34.3842 363.436 34.4373 363.194 34.5433C362.952 34.6461 362.758 34.7936 362.612 34.9858C362.466 35.178 362.389 35.4034 362.379 35.6619H360.315C360.325 35.0753 360.493 34.5582 360.818 34.1108C361.142 33.6634 361.58 33.3137 362.13 33.0618C362.684 32.8066 363.308 32.679 364.004 32.679C364.707 32.679 365.322 32.8066 365.849 33.0618C366.376 33.317 366.785 33.6617 367.077 34.0959C367.372 34.5268 367.518 35.0107 367.514 35.5476C367.518 36.1177 367.34 36.5933 366.982 36.9744C366.628 37.3556 366.165 37.5975 365.595 37.7003V37.7798C366.344 37.8759 366.914 38.1361 367.305 38.5604C367.7 38.9813 367.895 39.5083 367.892 40.1413C367.895 40.7214 367.728 41.2367 367.39 41.6875C367.055 42.1383 366.593 42.4929 366.003 42.7514C365.413 43.0099 364.737 43.1392 363.975 43.1392Z" fill="white"/>
</g>
</g>
</g>
<defs>
<filter id="filter0_d_13968_16513" x="295" y="48" width="138" height="99.1738" filterUnits="userSpaceOnUse" color-interpolation-filters="sRGB">
<feFlood flood-opacity="0" result="BackgroundImageFix"/>
<feColorMatrix in="SourceAlpha" type="matrix" values="0 0 0 0 0 0 0 0 0 0 0 0 0 0 0 0 0 0 127 0" result="hardAlpha"/>
<feMorphology radius="16" operator="erode" in="SourceAlpha" result="effect1_dropShadow_13968_16513"/>
<feOffset dy="10"/>
<feGaussianBlur stdDeviation="24"/>
<feColorMatrix type="matrix" values="0 0 0 0 0 0 0 0 0 0 0 0 0 0 0 0 0 0 0.12 0"/>
<feBlend mode="normal" in2="BackgroundImageFix" result="effect1_dropShadow_13968_16513"/>
<feBlend mode="normal" in="SourceGraphic" in2="effect1_dropShadow_13968_16513" result="shape"/>
</filter>
<filter id="filter1_d_13968_16513" x="302" y="92" width="124" height="124" filterUnits="userSpaceOnUse" color-interpolation-filters="sRGB">
<feFlood flood-opacity="0" result="BackgroundImageFix"/>
<feColorMatrix in="SourceAlpha" type="matrix" values="0 0 0 0 0 0 0 0 0 0 0 0 0 0 0 0 0 0 127 0" result="hardAlpha"/>
<feMorphology radius="16" operator="erode" in="SourceAlpha" result="effect1_dropShadow_13968_16513"/>
<feOffset dy="20"/>
<feGaussianBlur stdDeviation="29"/>
<feColorMatrix type="matrix" values="0 0 0 0 0 0 0 0 0 0 0 0 0 0 0 0 0 0 0.16 0"/>
<feBlend mode="normal" in2="BackgroundImageFix" result="effect1_dropShadow_13968_16513"/>
<feBlend mode="normal" in="SourceGraphic" in2="effect1_dropShadow_13968_16513" result="shape"/>
</filter>
<clipPath id="clip0_13968_16513">
<rect width="720" height="180" fill="white"/>
</clipPath>
<clipPath id="clip1_13968_16513">
<rect width="64" height="24" fill="white" transform="translate(280 121)"/>
</clipPath>
<clipPath id="clip2_13968_16513">
<rect x="280" y="121" width="24" height="24" rx="12" fill="white"/>
</clipPath>
<clipPath id="clip3_13968_16513">
<rect width="47" height="24" fill="white" transform="translate(280 72)"/>
</clipPath>
<clipPath id="clip4_13968_16513">
<rect x="280" y="72" width="24" height="24" rx="12" fill="white"/>
</clipPath>
<clipPath id="clip5_13968_16513">
<rect width="76" height="24" fill="white" transform="translate(365 92)"/>
</clipPath>
<clipPath id="clip6_13968_16513">
<rect x="417" y="92" width="24" height="24" rx="12" fill="white"/>
</clipPath>
<clipPath id="clip7_13968_16513">
<rect width="74" height="55" fill="white" transform="translate(327 26)"/>
</clipPath>
<clipPath id="clip8_13968_16513">
<rect x="352" y="26" width="24" height="24" rx="12" fill="white"/>
</clipPath>
</defs>
</svg>
