<svg width="640" height="636" viewBox="0 0 640 636" fill="none" xmlns="http://www.w3.org/2000/svg">
<path d="M119.745 79V56.728H124.769V79H119.745ZM112.673 60.792V56.408H131.841V60.792H112.673ZM134.199 79V63.448H139.095V79H134.199ZM136.663 61.304C135.895 61.304 135.255 61.048 134.743 60.536C134.252 60.0027 134.007 59.3627 134.007 58.616C134.007 57.848 134.252 57.208 134.743 56.696C135.255 56.184 135.895 55.928 136.663 55.928C137.431 55.928 138.06 56.184 138.551 56.696C139.042 57.208 139.287 57.848 139.287 58.616C139.287 59.3627 139.042 60.0027 138.551 60.536C138.06 61.048 137.431 61.304 136.663 61.304ZM144.751 79V57.016H149.647V79H144.751ZM141.231 67.608V63.448H153.167V67.608H141.231ZM155.324 79V55.768H160.22V79H155.324ZM171.348 79.352C169.662 79.352 168.158 79.0107 166.836 78.328C165.534 77.624 164.51 76.6533 163.764 75.416C163.017 74.1787 162.644 72.7813 162.644 71.224C162.644 69.6667 163.006 68.28 163.732 67.064C164.478 65.8267 165.481 64.856 166.74 64.152C167.998 63.448 169.417 63.096 170.996 63.096C172.532 63.096 173.886 63.4267 175.06 64.088C176.233 64.7493 177.15 65.6667 177.812 66.84C178.494 68.0133 178.836 69.3573 178.836 70.872C178.836 71.1493 178.814 71.448 178.772 71.768C178.75 72.0667 178.697 72.4187 178.612 72.824L165.204 72.856V69.496L176.532 69.464L174.42 70.872C174.398 69.976 174.26 69.24 174.004 68.664C173.748 68.0667 173.364 67.6187 172.852 67.32C172.361 67 171.753 66.84 171.028 66.84C170.26 66.84 169.588 67.0213 169.012 67.384C168.457 67.7253 168.02 68.216 167.7 68.856C167.401 69.496 167.252 70.2747 167.252 71.192C167.252 72.1093 167.412 72.8987 167.732 73.56C168.073 74.2 168.542 74.7013 169.14 75.064C169.758 75.4053 170.484 75.576 171.316 75.576C172.084 75.576 172.777 75.448 173.396 75.192C174.014 74.9147 174.558 74.5093 175.028 73.976L177.716 76.664C176.948 77.56 176.02 78.232 174.932 78.68C173.844 79.128 172.649 79.352 171.348 79.352Z" fill="#2A2C35"/>
<path d="M16.0335 118.5H623.967" stroke="#F1F2F4"/>
<path d="M119.778 220V197.728H124.802V220H119.778ZM112.706 201.792V197.408H131.874V201.792H112.706ZM134.232 220V204.448H139.128V220H134.232ZM136.696 202.304C135.928 202.304 135.288 202.048 134.776 201.536C134.285 201.003 134.04 200.363 134.04 199.616C134.04 198.848 134.285 198.208 134.776 197.696C135.288 197.184 135.928 196.928 136.696 196.928C137.464 196.928 138.093 197.184 138.584 197.696C139.075 198.208 139.32 198.848 139.32 199.616C139.32 200.363 139.075 201.003 138.584 201.536C138.093 202.048 137.464 202.304 136.696 202.304ZM144.784 220V198.016H149.68V220H144.784ZM141.264 208.608V204.448H153.2V208.608H141.264ZM155.357 220V196.768H160.253V220H155.357ZM171.381 220.352C169.695 220.352 168.191 220.011 166.869 219.328C165.567 218.624 164.543 217.653 163.797 216.416C163.05 215.179 162.677 213.781 162.677 212.224C162.677 210.667 163.039 209.28 163.765 208.064C164.511 206.827 165.514 205.856 166.773 205.152C168.031 204.448 169.45 204.096 171.029 204.096C172.565 204.096 173.919 204.427 175.093 205.088C176.266 205.749 177.183 206.667 177.845 207.84C178.527 209.013 178.869 210.357 178.869 211.872C178.869 212.149 178.847 212.448 178.805 212.768C178.783 213.067 178.73 213.419 178.645 213.824L165.237 213.856V210.496L176.565 210.464L174.453 211.872C174.431 210.976 174.293 210.24 174.037 209.664C173.781 209.067 173.397 208.619 172.885 208.32C172.394 208 171.786 207.84 171.061 207.84C170.293 207.84 169.621 208.021 169.045 208.384C168.49 208.725 168.053 209.216 167.733 209.856C167.434 210.496 167.285 211.275 167.285 212.192C167.285 213.109 167.445 213.899 167.765 214.56C168.106 215.2 168.575 215.701 169.173 216.064C169.791 216.405 170.517 216.576 171.349 216.576C172.117 216.576 172.81 216.448 173.429 216.192C174.047 215.915 174.591 215.509 175.061 214.976L177.749 217.664C176.981 218.56 176.053 219.232 174.965 219.68C173.877 220.128 172.682 220.352 171.381 220.352Z" fill="#2A2C35"/>
<path d="M89.4415 208C89.4415 208.298 89.323 208.585 89.112 208.796C88.901 209.006 88.6149 209.125 88.3165 209.125H74.5352L79.3652 213.954C79.5766 214.165 79.6953 214.452 79.6953 214.751C79.6953 215.05 79.5766 215.336 79.3652 215.548C79.1539 215.759 78.8673 215.878 78.5684 215.878C78.2695 215.878 77.9828 215.759 77.7715 215.548L71.0215 208.798C70.9166 208.693 70.8334 208.569 70.7766 208.432C70.7198 208.296 70.6906 208.149 70.6906 208.001C70.6906 207.853 70.7198 207.706 70.7766 207.57C70.8334 207.433 70.9166 207.309 71.0215 207.204L77.7715 200.454C77.8761 200.349 78.0004 200.266 78.1371 200.21C78.2738 200.153 78.4204 200.124 78.5684 200.124C78.7164 200.124 78.8629 200.153 78.9996 200.21C79.1364 200.266 79.2606 200.349 79.3652 200.454C79.4699 200.559 79.5529 200.683 79.6095 200.82C79.6662 200.956 79.6953 201.103 79.6953 201.251C79.6953 201.399 79.6662 201.545 79.6095 201.682C79.5529 201.819 79.4699 201.943 79.3652 202.048L74.5352 206.875H88.3165C88.6149 206.875 88.901 206.994 89.112 207.205C89.323 207.415 89.4415 207.702 89.4415 208Z" fill="#2A2C35"/>
<path d="M16.0665 259.5H624" stroke="#F1F2F4"/>
<path d="M119.712 362V339.728H124.736V362H119.712ZM112.64 343.792V339.408H131.808V343.792H112.64ZM134.166 362V346.448H139.062V362H134.166ZM136.63 344.304C135.862 344.304 135.222 344.048 134.71 343.536C134.219 343.003 133.974 342.363 133.974 341.616C133.974 340.848 134.219 340.208 134.71 339.696C135.222 339.184 135.862 338.928 136.63 338.928C137.398 338.928 138.027 339.184 138.518 339.696C139.008 340.208 139.254 340.848 139.254 341.616C139.254 342.363 139.008 343.003 138.518 343.536C138.027 344.048 137.398 344.304 136.63 344.304ZM144.717 362V340.016H149.613V362H144.717ZM141.197 350.608V346.448H153.133V350.608H141.197ZM155.291 362V338.768H160.187V362H155.291ZM171.314 362.352C169.629 362.352 168.125 362.011 166.802 361.328C165.501 360.624 164.477 359.653 163.73 358.416C162.984 357.179 162.61 355.781 162.61 354.224C162.61 352.667 162.973 351.28 163.698 350.064C164.445 348.827 165.448 347.856 166.706 347.152C167.965 346.448 169.384 346.096 170.962 346.096C172.498 346.096 173.853 346.427 175.026 347.088C176.2 347.749 177.117 348.667 177.778 349.84C178.461 351.013 178.802 352.357 178.802 353.872C178.802 354.149 178.781 354.448 178.738 354.768C178.717 355.067 178.664 355.419 178.578 355.824L165.17 355.856V352.496L176.498 352.464L174.386 353.872C174.365 352.976 174.226 352.24 173.97 351.664C173.714 351.067 173.33 350.619 172.818 350.32C172.328 350 171.72 349.84 170.994 349.84C170.226 349.84 169.554 350.021 168.978 350.384C168.424 350.725 167.986 351.216 167.666 351.856C167.368 352.496 167.218 353.275 167.218 354.192C167.218 355.109 167.378 355.899 167.698 356.56C168.04 357.2 168.509 357.701 169.106 358.064C169.725 358.405 170.45 358.576 171.282 358.576C172.05 358.576 172.744 358.448 173.362 358.192C173.981 357.915 174.525 357.509 174.994 356.976L177.682 359.664C176.914 360.56 175.986 361.232 174.898 361.68C173.81 362.128 172.616 362.352 171.314 362.352Z" fill="#2A2C35"/>
<path d="M89.375 350C89.375 350.298 89.2565 350.585 89.0455 350.796C88.8345 351.006 88.5484 351.125 88.25 351.125H74.4688L79.2988 355.954C79.5101 356.165 79.6288 356.452 79.6288 356.751C79.6288 357.05 79.5101 357.336 79.2988 357.548C79.0874 357.759 78.8008 357.878 78.5019 357.878C78.203 357.878 77.9163 357.759 77.705 357.548L70.955 350.798C70.8501 350.693 70.7669 350.569 70.7101 350.432C70.6533 350.296 70.6241 350.149 70.6241 350.001C70.6241 349.853 70.6533 349.706 70.7101 349.57C70.7669 349.433 70.8501 349.309 70.955 349.204L77.705 342.454C77.8096 342.349 77.9339 342.266 78.0706 342.21C78.2073 342.153 78.3539 342.124 78.5019 342.124C78.6499 342.124 78.7964 342.153 78.9331 342.21C79.0699 342.266 79.1941 342.349 79.2988 342.454C79.4034 342.559 79.4864 342.683 79.543 342.82C79.5997 342.956 79.6288 343.103 79.6288 343.251C79.6288 343.399 79.5997 343.545 79.543 343.682C79.4864 343.819 79.4034 343.943 79.2988 344.048L74.4688 348.875H88.25C88.5484 348.875 88.8345 348.994 89.0455 349.205C89.2565 349.415 89.375 349.702 89.375 350Z" fill="#2A2C35"/>
<path d="M117.42 399.2C116.313 399.2 115.373 399 114.6 398.6C113.827 398.2 113.133 397.613 112.52 396.84L114.08 395.28C114.467 395.84 114.927 396.28 115.46 396.6C115.993 396.907 116.673 397.06 117.5 397.06C118.273 397.06 118.887 396.9 119.34 396.58C119.807 396.26 120.04 395.82 120.04 395.26C120.04 394.793 119.92 394.413 119.68 394.12C119.44 393.827 119.12 393.587 118.72 393.4C118.333 393.2 117.9 393.027 117.42 392.88C116.953 392.72 116.48 392.547 116 392.36C115.533 392.16 115.1 391.913 114.7 391.62C114.313 391.327 114 390.947 113.76 390.48C113.52 390.013 113.4 389.42 113.4 388.7C113.4 387.873 113.6 387.173 114 386.6C114.413 386.013 114.967 385.567 115.66 385.26C116.353 384.953 117.127 384.8 117.98 384.8C118.9 384.8 119.72 384.98 120.44 385.34C121.173 385.7 121.767 386.16 122.22 386.72L120.66 388.28C120.26 387.827 119.84 387.493 119.4 387.28C118.973 387.053 118.48 386.94 117.92 386.94C117.227 386.94 116.68 387.08 116.28 387.36C115.893 387.64 115.7 388.033 115.7 388.54C115.7 388.967 115.82 389.313 116.06 389.58C116.3 389.833 116.613 390.053 117 390.24C117.4 390.413 117.833 390.58 118.3 390.74C118.78 390.9 119.253 391.08 119.72 391.28C120.2 391.48 120.633 391.74 121.02 392.06C121.42 392.367 121.74 392.767 121.98 393.26C122.22 393.753 122.34 394.373 122.34 395.12C122.34 396.373 121.893 397.367 121 398.1C120.12 398.833 118.927 399.2 117.42 399.2ZM128.273 399.2C127.46 399.2 126.733 399.02 126.093 398.66C125.467 398.3 124.973 397.807 124.613 397.18C124.267 396.54 124.093 395.807 124.093 394.98V389.4H126.293V394.88C126.293 395.347 126.367 395.747 126.513 396.08C126.673 396.4 126.9 396.647 127.193 396.82C127.5 396.993 127.86 397.08 128.273 397.08C128.913 397.08 129.4 396.893 129.733 396.52C130.08 396.133 130.253 395.587 130.253 394.88V389.4H132.453V394.98C132.453 395.82 132.273 396.56 131.913 397.2C131.567 397.827 131.08 398.32 130.453 398.68C129.827 399.027 129.1 399.2 128.273 399.2ZM139.805 399.2C139.072 399.2 138.419 399.047 137.845 398.74C137.272 398.42 136.819 397.987 136.485 397.44C136.165 396.893 136.005 396.273 136.005 395.58V392.82C136.005 392.127 136.172 391.507 136.505 390.96C136.839 390.413 137.292 389.987 137.865 389.68C138.439 389.36 139.085 389.2 139.805 389.2C140.672 389.2 141.452 389.427 142.145 389.88C142.852 390.32 143.405 390.92 143.805 391.68C144.219 392.427 144.425 393.273 144.425 394.22C144.425 395.153 144.219 396 143.805 396.76C143.405 397.507 142.852 398.1 142.145 398.54C141.452 398.98 140.672 399.2 139.805 399.2ZM134.665 399V384.6H136.865V391.76L136.485 394.08L136.865 396.42V399H134.665ZM139.445 397.12C139.979 397.12 140.445 397 140.845 396.76C141.259 396.507 141.579 396.16 141.805 395.72C142.045 395.28 142.165 394.773 142.165 394.2C142.165 393.627 142.045 393.12 141.805 392.68C141.579 392.24 141.259 391.9 140.845 391.66C140.445 391.407 139.979 391.28 139.445 391.28C138.912 391.28 138.439 391.407 138.025 391.66C137.612 391.9 137.292 392.24 137.065 392.68C136.839 393.12 136.725 393.627 136.725 394.2C136.725 394.773 136.839 395.28 137.065 395.72C137.292 396.16 137.612 396.507 138.025 396.76C138.439 397 138.912 397.12 139.445 397.12ZM146.618 394.94V392.86H153.398V394.94H146.618ZM156.965 399V385.4H159.165V399H156.965ZM154.665 391.4V389.4H161.465V391.4H154.665ZM163.084 399V389.4H165.284V399H163.084ZM164.184 387.64C163.81 387.64 163.497 387.513 163.244 387.26C163.004 387.007 162.884 386.693 162.884 386.32C162.884 385.947 163.004 385.633 163.244 385.38C163.497 385.127 163.81 385 164.184 385C164.57 385 164.884 385.127 165.124 385.38C165.364 385.633 165.484 385.947 165.484 386.32C165.484 386.693 165.364 387.007 165.124 387.26C164.884 387.513 164.57 387.64 164.184 387.64ZM169.211 399V385.4H171.411V399H169.211ZM166.911 391.4V389.4H173.711V391.4H166.911ZM175.31 399V384.6H177.51V399H175.31ZM184.418 399.2C183.458 399.2 182.592 398.987 181.818 398.56C181.058 398.12 180.452 397.52 179.998 396.76C179.558 396 179.338 395.147 179.338 394.2C179.338 393.253 179.558 392.407 179.998 391.66C180.438 390.9 181.032 390.3 181.778 389.86C182.538 389.42 183.378 389.2 184.298 389.2C185.192 389.2 185.978 389.407 186.658 389.82C187.352 390.233 187.892 390.8 188.278 391.52C188.678 392.24 188.878 393.06 188.878 393.98C188.878 394.14 188.865 394.307 188.838 394.48C188.825 394.64 188.798 394.82 188.758 395.02H180.878V393.22H187.618L186.798 393.94C186.772 393.353 186.658 392.86 186.458 392.46C186.258 392.06 185.972 391.753 185.598 391.54C185.238 391.327 184.792 391.22 184.258 391.22C183.698 391.22 183.212 391.34 182.798 391.58C182.385 391.82 182.065 392.16 181.838 392.6C181.612 393.027 181.498 393.54 181.498 394.14C181.498 394.74 181.618 395.267 181.858 395.72C182.098 396.173 182.438 396.527 182.878 396.78C183.318 397.02 183.825 397.14 184.398 397.14C184.892 397.14 185.345 397.053 185.758 396.88C186.185 396.707 186.545 396.453 186.838 396.12L188.238 397.54C187.772 398.087 187.205 398.5 186.538 398.78C185.872 399.06 185.165 399.2 184.418 399.2Z" fill="#646A77"/>
<path d="M16 439.5H623.933" stroke="#F1F2F4"/>
<path d="M119.712 542V519.728H124.736V542H119.712ZM112.64 523.792V519.408H131.808V523.792H112.64ZM134.166 542V526.448H139.062V542H134.166ZM136.63 524.304C135.862 524.304 135.222 524.048 134.71 523.536C134.219 523.003 133.974 522.363 133.974 521.616C133.974 520.848 134.219 520.208 134.71 519.696C135.222 519.184 135.862 518.928 136.63 518.928C137.398 518.928 138.027 519.184 138.518 519.696C139.008 520.208 139.254 520.848 139.254 521.616C139.254 522.363 139.008 523.003 138.518 523.536C138.027 524.048 137.398 524.304 136.63 524.304ZM144.717 542V520.016H149.613V542H144.717ZM141.197 530.608V526.448H153.133V530.608H141.197ZM155.291 542V518.768H160.187V542H155.291ZM171.314 542.352C169.629 542.352 168.125 542.011 166.802 541.328C165.501 540.624 164.477 539.653 163.73 538.416C162.984 537.179 162.61 535.781 162.61 534.224C162.61 532.667 162.973 531.28 163.698 530.064C164.445 528.827 165.448 527.856 166.706 527.152C167.965 526.448 169.384 526.096 170.962 526.096C172.498 526.096 173.853 526.427 175.026 527.088C176.2 527.749 177.117 528.667 177.778 529.84C178.461 531.013 178.802 532.357 178.802 533.872C178.802 534.149 178.781 534.448 178.738 534.768C178.717 535.067 178.664 535.419 178.578 535.824L165.17 535.856V532.496L176.498 532.464L174.386 533.872C174.365 532.976 174.226 532.24 173.97 531.664C173.714 531.067 173.33 530.619 172.818 530.32C172.328 530 171.72 529.84 170.994 529.84C170.226 529.84 169.554 530.021 168.978 530.384C168.424 530.725 167.986 531.216 167.666 531.856C167.368 532.496 167.218 533.275 167.218 534.192C167.218 535.109 167.378 535.899 167.698 536.56C168.04 537.2 168.509 537.701 169.106 538.064C169.725 538.405 170.45 538.576 171.282 538.576C172.05 538.576 172.744 538.448 173.362 538.192C173.981 537.915 174.525 537.509 174.994 536.976L177.682 539.664C176.914 540.56 175.986 541.232 174.898 541.68C173.81 542.128 172.616 542.352 171.314 542.352Z" fill="#2A2C35"/>
<path d="M89.375 530C89.375 530.298 89.2565 530.584 89.0455 530.795C88.8345 531.006 88.5484 531.125 88.25 531.125H74.4688L79.2988 535.954C79.5101 536.165 79.6288 536.452 79.6288 536.751C79.6288 537.05 79.5101 537.336 79.2988 537.548C79.0874 537.759 78.8008 537.878 78.5019 537.878C78.203 537.878 77.9163 537.759 77.705 537.548L70.955 530.798C70.8501 530.693 70.7669 530.569 70.7101 530.432C70.6533 530.296 70.6241 530.149 70.6241 530.001C70.6241 529.853 70.6533 529.706 70.7101 529.569C70.7669 529.433 70.8501 529.309 70.955 529.204L77.705 522.454C77.8096 522.349 77.9339 522.266 78.0706 522.21C78.2073 522.153 78.3539 522.124 78.5019 522.124C78.6499 522.124 78.7964 522.153 78.9331 522.21C79.0699 522.266 79.1941 522.349 79.2988 522.454C79.4034 522.559 79.4864 522.683 79.543 522.82C79.5997 522.956 79.6288 523.103 79.6288 523.251C79.6288 523.399 79.5997 523.545 79.543 523.682C79.4864 523.819 79.4034 523.943 79.2988 524.048L74.4688 528.875H88.25C88.5484 528.875 88.8345 528.994 89.0455 529.204C89.2565 529.415 89.375 529.702 89.375 530Z" fill="#2A2C35"/>
<path d="M553.509 524.613L549.32 520.423C549.146 520.249 548.94 520.111 548.712 520.017C548.484 519.923 548.241 519.874 547.994 519.874C547.748 519.874 547.504 519.923 547.277 520.017C547.049 520.111 546.842 520.249 546.668 520.423L535.108 531.985C534.933 532.158 534.795 532.365 534.7 532.592C534.606 532.82 534.558 533.064 534.558 533.31V537.5C534.558 537.997 534.756 538.474 535.108 538.826C535.459 539.177 535.936 539.375 536.433 539.375H540.623C540.869 539.376 541.113 539.327 541.341 539.233C541.569 539.139 541.775 539 541.949 538.826L553.509 527.264C553.861 526.913 554.058 526.436 554.058 525.939C554.058 525.442 553.861 524.965 553.509 524.613ZM540.465 537.125H536.808V533.469L544.683 525.594L548.34 529.25L540.465 537.125ZM549.933 527.656L546.277 524L547.997 522.281L551.653 525.937L549.933 527.656Z" fill="#4F46E5"/>
<path d="M593.308 532.25V537.5C593.308 537.997 593.111 538.474 592.759 538.826C592.408 539.177 591.931 539.375 591.433 539.375H576.433C575.936 539.375 575.459 539.177 575.108 538.826C574.756 538.474 574.558 537.997 574.558 537.5V532.25C574.558 531.952 574.677 531.665 574.888 531.455C575.099 531.244 575.385 531.125 575.683 531.125C575.982 531.125 576.268 531.244 576.479 531.455C576.69 531.665 576.808 531.952 576.808 532.25V537.125H591.058V532.25C591.058 531.952 591.177 531.665 591.388 531.455C591.599 531.244 591.885 531.125 592.183 531.125C592.482 531.125 592.768 531.244 592.979 531.455C593.19 531.665 593.308 531.952 593.308 532.25ZM583.138 533.046C583.242 533.151 583.366 533.234 583.503 533.291C583.64 533.348 583.786 533.377 583.934 533.377C584.082 533.377 584.229 533.348 584.366 533.291C584.503 533.234 584.627 533.151 584.731 533.046L588.481 529.296C588.693 529.085 588.811 528.798 588.811 528.499C588.811 528.2 588.693 527.914 588.481 527.702C588.27 527.491 587.983 527.372 587.684 527.372C587.386 527.372 587.099 527.491 586.888 527.702L585.058 529.531V521.75C585.058 521.452 584.94 521.165 584.729 520.955C584.518 520.744 584.232 520.625 583.933 520.625C583.635 520.625 583.349 520.744 583.138 520.955C582.927 521.165 582.808 521.452 582.808 521.75V529.531L580.979 527.704C580.768 527.493 580.481 527.374 580.183 527.374C579.884 527.374 579.597 527.493 579.386 527.704C579.174 527.915 579.056 528.202 579.056 528.501C579.056 528.8 579.174 529.086 579.386 529.298L583.138 533.046Z" fill="#4F46E5"/>
<path d="M117.42 579.2C116.313 579.2 115.373 579 114.6 578.6C113.827 578.2 113.133 577.613 112.52 576.84L114.08 575.28C114.467 575.84 114.927 576.28 115.46 576.6C115.993 576.907 116.673 577.06 117.5 577.06C118.273 577.06 118.887 576.9 119.34 576.58C119.807 576.26 120.04 575.82 120.04 575.26C120.04 574.793 119.92 574.413 119.68 574.12C119.44 573.827 119.12 573.587 118.72 573.4C118.333 573.2 117.9 573.027 117.42 572.88C116.953 572.72 116.48 572.547 116 572.36C115.533 572.16 115.1 571.913 114.7 571.62C114.313 571.327 114 570.947 113.76 570.48C113.52 570.013 113.4 569.42 113.4 568.7C113.4 567.873 113.6 567.173 114 566.6C114.413 566.013 114.967 565.567 115.66 565.26C116.353 564.953 117.127 564.8 117.98 564.8C118.9 564.8 119.72 564.98 120.44 565.34C121.173 565.7 121.767 566.16 122.22 566.72L120.66 568.28C120.26 567.827 119.84 567.493 119.4 567.28C118.973 567.053 118.48 566.94 117.92 566.94C117.227 566.94 116.68 567.08 116.28 567.36C115.893 567.64 115.7 568.033 115.7 568.54C115.7 568.967 115.82 569.313 116.06 569.58C116.3 569.833 116.613 570.053 117 570.24C117.4 570.413 117.833 570.58 118.3 570.74C118.78 570.9 119.253 571.08 119.72 571.28C120.2 571.48 120.633 571.74 121.02 572.06C121.42 572.367 121.74 572.767 121.98 573.26C122.22 573.753 122.34 574.373 122.34 575.12C122.34 576.373 121.893 577.367 121 578.1C120.12 578.833 118.927 579.2 117.42 579.2ZM128.273 579.2C127.46 579.2 126.733 579.02 126.093 578.66C125.467 578.3 124.973 577.807 124.613 577.18C124.267 576.54 124.093 575.807 124.093 574.98V569.4H126.293V574.88C126.293 575.347 126.367 575.747 126.513 576.08C126.673 576.4 126.9 576.647 127.193 576.82C127.5 576.993 127.86 577.08 128.273 577.08C128.913 577.08 129.4 576.893 129.733 576.52C130.08 576.133 130.253 575.587 130.253 574.88V569.4H132.453V574.98C132.453 575.82 132.273 576.56 131.913 577.2C131.567 577.827 131.08 578.32 130.453 578.68C129.827 579.027 129.1 579.2 128.273 579.2ZM139.805 579.2C139.072 579.2 138.419 579.047 137.845 578.74C137.272 578.42 136.819 577.987 136.485 577.44C136.165 576.893 136.005 576.273 136.005 575.58V572.82C136.005 572.127 136.172 571.507 136.505 570.96C136.839 570.413 137.292 569.987 137.865 569.68C138.439 569.36 139.085 569.2 139.805 569.2C140.672 569.2 141.452 569.427 142.145 569.88C142.852 570.32 143.405 570.92 143.805 571.68C144.219 572.427 144.425 573.273 144.425 574.22C144.425 575.153 144.219 576 143.805 576.76C143.405 577.507 142.852 578.1 142.145 578.54C141.452 578.98 140.672 579.2 139.805 579.2ZM134.665 579V564.6H136.865V571.76L136.485 574.08L136.865 576.42V579H134.665ZM139.445 577.12C139.979 577.12 140.445 577 140.845 576.76C141.259 576.507 141.579 576.16 141.805 575.72C142.045 575.28 142.165 574.773 142.165 574.2C142.165 573.627 142.045 573.12 141.805 572.68C141.579 572.24 141.259 571.9 140.845 571.66C140.445 571.407 139.979 571.28 139.445 571.28C138.912 571.28 138.439 571.407 138.025 571.66C137.612 571.9 137.292 572.24 137.065 572.68C136.839 573.12 136.725 573.627 136.725 574.2C136.725 574.773 136.839 575.28 137.065 575.72C137.292 576.16 137.612 576.507 138.025 576.76C138.439 577 138.912 577.12 139.445 577.12ZM146.618 574.94V572.86H153.398V574.94H146.618ZM156.965 579V565.4H159.165V579H156.965ZM154.665 571.4V569.4H161.465V571.4H154.665ZM163.084 579V569.4H165.284V579H163.084ZM164.184 567.64C163.81 567.64 163.497 567.513 163.244 567.26C163.004 567.007 162.884 566.693 162.884 566.32C162.884 565.947 163.004 565.633 163.244 565.38C163.497 565.127 163.81 565 164.184 565C164.57 565 164.884 565.127 165.124 565.38C165.364 565.633 165.484 565.947 165.484 566.32C165.484 566.693 165.364 567.007 165.124 567.26C164.884 567.513 164.57 567.64 164.184 567.64ZM169.211 579V565.4H171.411V579H169.211ZM166.911 571.4V569.4H173.711V571.4H166.911ZM175.31 579V564.6H177.51V579H175.31ZM184.418 579.2C183.458 579.2 182.592 578.987 181.818 578.56C181.058 578.12 180.452 577.52 179.998 576.76C179.558 576 179.338 575.147 179.338 574.2C179.338 573.253 179.558 572.407 179.998 571.66C180.438 570.9 181.032 570.3 181.778 569.86C182.538 569.42 183.378 569.2 184.298 569.2C185.192 569.2 185.978 569.407 186.658 569.82C187.352 570.233 187.892 570.8 188.278 571.52C188.678 572.24 188.878 573.06 188.878 573.98C188.878 574.14 188.865 574.307 188.838 574.48C188.825 574.64 188.798 574.82 188.758 575.02H180.878V573.22H187.618L186.798 573.94C186.772 573.353 186.658 572.86 186.458 572.46C186.258 572.06 185.972 571.753 185.598 571.54C185.238 571.327 184.792 571.22 184.258 571.22C183.698 571.22 183.212 571.34 182.798 571.58C182.385 571.82 182.065 572.16 181.838 572.6C181.612 573.027 181.498 573.54 181.498 574.14C181.498 574.74 181.618 575.267 181.858 575.72C182.098 576.173 182.438 576.527 182.878 576.78C183.318 577.02 183.825 577.14 184.398 577.14C184.892 577.14 185.345 577.053 185.758 576.88C186.185 576.707 186.545 576.453 186.838 576.12L188.238 577.54C187.772 578.087 187.205 578.5 186.538 578.78C185.872 579.06 185.165 579.2 184.418 579.2Z" fill="#646A77"/>
<path d="M16 619.5H623.933" stroke="#F1F2F4"/>
</svg>
