<svg width="277" height="156" viewBox="0 0 277 156" fill="none" xmlns="http://www.w3.org/2000/svg">
<g filter="url(#filter0_d_14342_19874)">
<path d="M63.5 62C63.5 54.4575 63.5 50.6863 65.8431 48.3431C68.1863 46 71.9575 46 79.5 46H218.5C226.042 46 229.814 46 232.157 48.3431C234.5 50.6863 234.5 54.4575 234.5 62V78C234.5 85.5425 234.5 89.3137 232.157 91.6569C229.814 94 226.042 94 218.5 94H79.5C71.9575 94 68.1863 94 65.8431 91.6569C63.5 89.3137 63.5 85.5425 63.5 78V62Z" fill="#1C1D23"/>
<path d="M89.625 65.875C89.625 65.5783 89.713 65.2883 89.8778 65.0416C90.0426 64.795 90.2769 64.6027 90.551 64.4892C90.8251 64.3756 91.1267 64.3459 91.4176 64.4038C91.7086 64.4617 91.9759 64.6046 92.1857 64.8143C92.3954 65.0241 92.5383 65.2914 92.5962 65.5824C92.6541 65.8733 92.6244 66.1749 92.5108 66.449C92.3973 66.7231 92.205 66.9574 91.9584 67.1222C91.7117 67.287 91.4217 67.375 91.125 67.375C90.7272 67.375 90.3456 67.217 90.0643 66.9357C89.783 66.6544 89.625 66.2728 89.625 65.875ZM101.625 70C101.625 72.0025 101.031 73.9601 99.9186 75.6251C98.8061 77.2902 97.2248 78.5879 95.3747 79.3543C93.5246 80.1206 91.4888 80.3211 89.5247 79.9305C87.5607 79.5398 85.7566 78.5755 84.3405 77.1595C82.9245 75.7435 81.9602 73.9393 81.5696 71.9753C81.1789 70.0112 81.3794 67.9754 82.1457 66.1253C82.9121 64.2752 84.2098 62.6939 85.8749 61.5814C87.5399 60.4688 89.4975 59.875 91.5 59.875C94.1844 59.878 96.758 60.9457 98.6562 62.8438C100.554 64.742 101.622 67.3156 101.625 70ZM99.375 70C99.375 68.4425 98.9131 66.9199 98.0478 65.6249C97.1825 64.3298 95.9526 63.3205 94.5136 62.7244C93.0747 62.1284 91.4913 61.9725 89.9637 62.2763C88.4361 62.5802 87.0329 63.3302 85.9315 64.4315C84.8302 65.5329 84.0802 66.9361 83.7763 68.4637C83.4725 69.9913 83.6284 71.5747 84.2245 73.0136C84.8205 74.4526 85.8299 75.6825 87.1249 76.5478C88.4199 77.4131 89.9425 77.875 91.5 77.875C93.5879 77.8728 95.5896 77.0424 97.066 75.566C98.5424 74.0896 99.3728 72.0879 99.375 70ZM92.625 73.4387V70.375C92.625 69.8777 92.4275 69.4008 92.0758 69.0492C91.7242 68.6975 91.2473 68.5 90.75 68.5C90.4843 68.4996 90.2271 68.5932 90.0238 68.7643C89.8206 68.9354 89.6844 69.173 89.6395 69.4348C89.5946 69.6967 89.6438 69.966 89.7784 70.195C89.913 70.4241 90.1244 70.5981 90.375 70.6863V73.75C90.375 74.2473 90.5725 74.7242 90.9242 75.0758C91.2758 75.4275 91.7527 75.625 92.25 75.625C92.5157 75.6254 92.7729 75.5318 92.9762 75.3607C93.1794 75.1896 93.3156 74.952 93.3605 74.6902C93.4054 74.4283 93.3562 74.159 93.2216 73.93C93.087 73.7009 92.8756 73.5269 92.625 73.4387Z" fill="#6061EE"/>
<path d="M115.028 75.5V65.98H116.638V75.5H115.028ZM111.836 67.17V65.7H119.83V67.17H111.836ZM125.628 75.5V71.622C125.628 71.174 125.483 70.8053 125.194 70.516C124.914 70.2267 124.55 70.082 124.102 70.082C123.803 70.082 123.537 70.1473 123.304 70.278C123.071 70.4087 122.889 70.5907 122.758 70.824C122.627 71.0573 122.562 71.3233 122.562 71.622L121.96 71.286C121.96 70.7727 122.072 70.32 122.296 69.928C122.52 69.5267 122.828 69.214 123.22 68.99C123.621 68.7567 124.069 68.64 124.564 68.64C125.068 68.64 125.516 68.752 125.908 68.976C126.3 69.2 126.608 69.5127 126.832 69.914C127.056 70.306 127.168 70.7633 127.168 71.286V75.5H125.628ZM121.022 75.5V65.42H122.562V75.5H121.022ZM128.747 75.5V68.78H130.287V75.5H128.747ZM129.517 67.548C129.256 67.548 129.036 67.4593 128.859 67.282C128.691 67.1047 128.607 66.8853 128.607 66.624C128.607 66.3627 128.691 66.1433 128.859 65.966C129.036 65.7887 129.256 65.7 129.517 65.7C129.788 65.7 130.007 65.7887 130.175 65.966C130.343 66.1433 130.427 66.3627 130.427 66.624C130.427 66.8853 130.343 67.1047 130.175 67.282C130.007 67.4593 129.788 67.548 129.517 67.548ZM134.212 75.64C133.839 75.64 133.479 75.5933 133.134 75.5C132.789 75.3973 132.471 75.2573 132.182 75.08C131.893 74.8933 131.641 74.6693 131.426 74.408L132.406 73.428C132.639 73.6987 132.905 73.904 133.204 74.044C133.512 74.1747 133.857 74.24 134.24 74.24C134.585 74.24 134.847 74.1887 135.024 74.086C135.201 73.9833 135.29 73.834 135.29 73.638C135.29 73.4327 135.206 73.274 135.038 73.162C134.87 73.05 134.651 72.9567 134.38 72.882C134.119 72.798 133.839 72.714 133.54 72.63C133.251 72.546 132.971 72.434 132.7 72.294C132.439 72.1447 132.224 71.944 132.056 71.692C131.888 71.44 131.804 71.1133 131.804 70.712C131.804 70.2827 131.902 69.914 132.098 69.606C132.303 69.298 132.588 69.06 132.952 68.892C133.325 68.724 133.769 68.64 134.282 68.64C134.823 68.64 135.299 68.738 135.71 68.934C136.13 69.1207 136.48 69.4053 136.76 69.788L135.78 70.768C135.584 70.5253 135.36 70.3433 135.108 70.222C134.856 70.1007 134.567 70.04 134.24 70.04C133.932 70.04 133.694 70.0867 133.526 70.18C133.358 70.2733 133.274 70.4087 133.274 70.586C133.274 70.7727 133.358 70.9173 133.526 71.02C133.694 71.1227 133.909 71.2113 134.17 71.286C134.441 71.3607 134.721 71.4447 135.01 71.538C135.309 71.622 135.589 71.7433 135.85 71.902C136.121 72.0513 136.34 72.2567 136.508 72.518C136.676 72.77 136.76 73.1013 136.76 73.512C136.76 74.1653 136.531 74.6833 136.074 75.066C135.617 75.4487 134.996 75.64 134.212 75.64ZM140.847 75.5V68.78H142.387V75.5H140.847ZM141.617 67.548C141.355 67.548 141.136 67.4593 140.959 67.282C140.791 67.1047 140.707 66.8853 140.707 66.624C140.707 66.3627 140.791 66.1433 140.959 65.966C141.136 65.7887 141.355 65.7 141.617 65.7C141.887 65.7 142.107 65.7887 142.275 65.966C142.443 66.1433 142.527 66.3627 142.527 66.624C142.527 66.8853 142.443 67.1047 142.275 67.282C142.107 67.4593 141.887 67.548 141.617 67.548ZM146.312 75.64C145.938 75.64 145.579 75.5933 145.234 75.5C144.888 75.3973 144.571 75.2573 144.282 75.08C143.992 74.8933 143.74 74.6693 143.526 74.408L144.506 73.428C144.739 73.6987 145.005 73.904 145.304 74.044C145.612 74.1747 145.957 74.24 146.34 74.24C146.685 74.24 146.946 74.1887 147.124 74.086C147.301 73.9833 147.39 73.834 147.39 73.638C147.39 73.4327 147.306 73.274 147.138 73.162C146.97 73.05 146.75 72.9567 146.48 72.882C146.218 72.798 145.938 72.714 145.64 72.63C145.35 72.546 145.07 72.434 144.8 72.294C144.538 72.1447 144.324 71.944 144.156 71.692C143.988 71.44 143.904 71.1133 143.904 70.712C143.904 70.2827 144.002 69.914 144.198 69.606C144.403 69.298 144.688 69.06 145.052 68.892C145.425 68.724 145.868 68.64 146.382 68.64C146.923 68.64 147.399 68.738 147.81 68.934C148.23 69.1207 148.58 69.4053 148.86 69.788L147.88 70.768C147.684 70.5253 147.46 70.3433 147.208 70.222C146.956 70.1007 146.666 70.04 146.34 70.04C146.032 70.04 145.794 70.0867 145.626 70.18C145.458 70.2733 145.374 70.4087 145.374 70.586C145.374 70.7727 145.458 70.9173 145.626 71.02C145.794 71.1227 146.008 71.2113 146.27 71.286C146.54 71.3607 146.82 71.4447 147.11 71.538C147.408 71.622 147.688 71.7433 147.95 71.902C148.22 72.0513 148.44 72.2567 148.608 72.518C148.776 72.77 148.86 73.1013 148.86 73.512C148.86 74.1653 148.631 74.6833 148.174 75.066C147.716 75.4487 147.096 75.64 146.312 75.64ZM155.746 75.64C155.139 75.64 154.589 75.486 154.094 75.178C153.609 74.87 153.221 74.4547 152.932 73.932C152.652 73.4 152.512 72.8073 152.512 72.154C152.512 71.4913 152.652 70.8987 152.932 70.376C153.221 69.844 153.609 69.424 154.094 69.116C154.589 68.7987 155.139 68.64 155.746 68.64C156.259 68.64 156.712 68.752 157.104 68.976C157.505 69.1907 157.823 69.4893 158.056 69.872C158.289 70.2547 158.406 70.6887 158.406 71.174V73.106C158.406 73.5913 158.289 74.0253 158.056 74.408C157.832 74.7907 157.519 75.094 157.118 75.318C156.717 75.5327 156.259 75.64 155.746 75.64ZM155.998 74.184C156.567 74.184 157.025 73.9927 157.37 73.61C157.725 73.2273 157.902 72.7373 157.902 72.14C157.902 71.7387 157.823 71.384 157.664 71.076C157.505 70.768 157.281 70.53 156.992 70.362C156.712 70.1847 156.381 70.096 155.998 70.096C155.625 70.096 155.293 70.1847 155.004 70.362C154.724 70.53 154.5 70.768 154.332 71.076C154.173 71.384 154.094 71.7387 154.094 72.14C154.094 72.5413 154.173 72.896 154.332 73.204C154.5 73.512 154.724 73.7547 155.004 73.932C155.293 74.1 155.625 74.184 155.998 74.184ZM157.804 75.5V73.694L158.07 72.056L157.804 70.432V68.78H159.344V75.5H157.804ZM163.856 75.5V68.78H165.396V75.5H163.856ZM168.322 75.5V71.496C168.322 71.048 168.182 70.7027 167.902 70.46C167.622 70.208 167.277 70.082 166.866 70.082C166.586 70.082 166.334 70.138 166.11 70.25C165.895 70.362 165.723 70.5253 165.592 70.74C165.461 70.9453 165.396 71.1973 165.396 71.496L164.794 71.16C164.794 70.6467 164.906 70.2033 165.13 69.83C165.354 69.4567 165.657 69.1673 166.04 68.962C166.423 68.7473 166.852 68.64 167.328 68.64C167.804 68.64 168.233 68.7427 168.616 68.948C168.999 69.1533 169.302 69.4427 169.526 69.816C169.75 70.1893 169.862 70.6373 169.862 71.16V75.5H168.322ZM172.788 75.5V71.496C172.788 71.048 172.648 70.7027 172.368 70.46C172.088 70.208 171.743 70.082 171.332 70.082C171.061 70.082 170.814 70.138 170.59 70.25C170.366 70.362 170.189 70.5253 170.058 70.74C169.927 70.9453 169.862 71.1973 169.862 71.496L168.994 71.16C169.041 70.6467 169.19 70.2033 169.442 69.83C169.694 69.4567 170.016 69.1673 170.408 68.962C170.809 68.7473 171.248 68.64 171.724 68.64C172.209 68.64 172.648 68.7427 173.04 68.948C173.432 69.1533 173.745 69.4427 173.978 69.816C174.211 70.1893 174.328 70.6373 174.328 71.16V75.5H172.788ZM179.037 75.64C178.365 75.64 177.758 75.4907 177.217 75.192C176.685 74.884 176.26 74.464 175.943 73.932C175.635 73.4 175.481 72.8027 175.481 72.14C175.481 71.4773 175.635 70.8847 175.943 70.362C176.251 69.83 176.666 69.41 177.189 69.102C177.721 68.794 178.309 68.64 178.953 68.64C179.578 68.64 180.129 68.7847 180.605 69.074C181.09 69.3633 181.468 69.76 181.739 70.264C182.019 70.768 182.159 71.342 182.159 71.986C182.159 72.098 182.149 72.2147 182.131 72.336C182.121 72.448 182.103 72.574 182.075 72.714H176.559V71.454H181.277L180.703 71.958C180.684 71.5473 180.605 71.202 180.465 70.922C180.325 70.642 180.124 70.4273 179.863 70.278C179.611 70.1287 179.298 70.054 178.925 70.054C178.533 70.054 178.192 70.138 177.903 70.306C177.613 70.474 177.389 70.712 177.231 71.02C177.072 71.3187 176.993 71.678 176.993 72.098C176.993 72.518 177.077 72.8867 177.245 73.204C177.413 73.5213 177.651 73.7687 177.959 73.946C178.267 74.114 178.621 74.198 179.023 74.198C179.368 74.198 179.685 74.1373 179.975 74.016C180.273 73.8947 180.525 73.7173 180.731 73.484L181.711 74.478C181.384 74.8607 180.987 75.15 180.521 75.346C180.054 75.542 179.559 75.64 179.037 75.64ZM185.591 75.64C185.218 75.64 184.858 75.5933 184.513 75.5C184.168 75.3973 183.85 75.2573 183.561 75.08C183.272 74.8933 183.02 74.6693 182.805 74.408L183.785 73.428C184.018 73.6987 184.284 73.904 184.583 74.044C184.891 74.1747 185.236 74.24 185.619 74.24C185.964 74.24 186.226 74.1887 186.403 74.086C186.58 73.9833 186.669 73.834 186.669 73.638C186.669 73.4327 186.585 73.274 186.417 73.162C186.249 73.05 186.03 72.9567 185.759 72.882C185.498 72.798 185.218 72.714 184.919 72.63C184.63 72.546 184.35 72.434 184.079 72.294C183.818 72.1447 183.603 71.944 183.435 71.692C183.267 71.44 183.183 71.1133 183.183 70.712C183.183 70.2827 183.281 69.914 183.477 69.606C183.682 69.298 183.967 69.06 184.331 68.892C184.704 68.724 185.148 68.64 185.661 68.64C186.202 68.64 186.678 68.738 187.089 68.934C187.509 69.1207 187.859 69.4053 188.139 69.788L187.159 70.768C186.963 70.5253 186.739 70.3433 186.487 70.222C186.235 70.1007 185.946 70.04 185.619 70.04C185.311 70.04 185.073 70.0867 184.905 70.18C184.737 70.2733 184.653 70.4087 184.653 70.586C184.653 70.7727 184.737 70.9173 184.905 71.02C185.073 71.1227 185.288 71.2113 185.549 71.286C185.82 71.3607 186.1 71.4447 186.389 71.538C186.688 71.622 186.968 71.7433 187.229 71.902C187.5 72.0513 187.719 72.2567 187.887 72.518C188.055 72.77 188.139 73.1013 188.139 73.512C188.139 74.1653 187.91 74.6833 187.453 75.066C186.996 75.4487 186.375 75.64 185.591 75.64ZM191.607 75.64C191.233 75.64 190.874 75.5933 190.529 75.5C190.183 75.3973 189.866 75.2573 189.577 75.08C189.287 74.8933 189.035 74.6693 188.821 74.408L189.801 73.428C190.034 73.6987 190.3 73.904 190.599 74.044C190.907 74.1747 191.252 74.24 191.635 74.24C191.98 74.24 192.241 74.1887 192.419 74.086C192.596 73.9833 192.685 73.834 192.685 73.638C192.685 73.4327 192.601 73.274 192.433 73.162C192.265 73.05 192.045 72.9567 191.775 72.882C191.513 72.798 191.233 72.714 190.935 72.63C190.645 72.546 190.365 72.434 190.095 72.294C189.833 72.1447 189.619 71.944 189.451 71.692C189.283 71.44 189.199 71.1133 189.199 70.712C189.199 70.2827 189.297 69.914 189.493 69.606C189.698 69.298 189.983 69.06 190.347 68.892C190.72 68.724 191.163 68.64 191.677 68.64C192.218 68.64 192.694 68.738 193.105 68.934C193.525 69.1207 193.875 69.4053 194.155 69.788L193.175 70.768C192.979 70.5253 192.755 70.3433 192.503 70.222C192.251 70.1007 191.961 70.04 191.635 70.04C191.327 70.04 191.089 70.0867 190.921 70.18C190.753 70.2733 190.669 70.4087 190.669 70.586C190.669 70.7727 190.753 70.9173 190.921 71.02C191.089 71.1227 191.303 71.2113 191.565 71.286C191.835 71.3607 192.115 71.4447 192.405 71.538C192.703 71.622 192.983 71.7433 193.245 71.902C193.515 72.0513 193.735 72.2567 193.903 72.518C194.071 72.77 194.155 73.1013 194.155 73.512C194.155 74.1653 193.926 74.6833 193.469 75.066C193.011 75.4487 192.391 75.64 191.607 75.64ZM198.238 75.64C197.632 75.64 197.081 75.486 196.586 75.178C196.101 74.87 195.714 74.4547 195.424 73.932C195.144 73.4 195.004 72.8073 195.004 72.154C195.004 71.4913 195.144 70.8987 195.424 70.376C195.714 69.844 196.101 69.424 196.586 69.116C197.081 68.7987 197.632 68.64 198.238 68.64C198.752 68.64 199.204 68.752 199.596 68.976C199.998 69.1907 200.315 69.4893 200.548 69.872C200.782 70.2547 200.898 70.6887 200.898 71.174V73.106C200.898 73.5913 200.782 74.0253 200.548 74.408C200.324 74.7907 200.012 75.094 199.61 75.318C199.209 75.5327 198.752 75.64 198.238 75.64ZM198.49 74.184C199.06 74.184 199.517 73.9927 199.862 73.61C200.217 73.2273 200.394 72.7373 200.394 72.14C200.394 71.7387 200.315 71.384 200.156 71.076C199.998 70.768 199.774 70.53 199.484 70.362C199.204 70.1847 198.873 70.096 198.49 70.096C198.117 70.096 197.786 70.1847 197.496 70.362C197.216 70.53 196.992 70.768 196.824 71.076C196.666 71.384 196.586 71.7387 196.586 72.14C196.586 72.5413 196.666 72.896 196.824 73.204C196.992 73.512 197.216 73.7547 197.496 73.932C197.786 74.1 198.117 74.184 198.49 74.184ZM200.296 75.5V73.694L200.562 72.056L200.296 70.432V68.78H201.836V75.5H200.296ZM206.345 78.44C205.636 78.44 205.015 78.3093 204.483 78.048C203.951 77.796 203.522 77.4367 203.195 76.97L204.203 75.962C204.474 76.298 204.782 76.55 205.127 76.718C205.473 76.886 205.888 76.97 206.373 76.97C206.98 76.97 207.461 76.8113 207.815 76.494C208.17 76.186 208.347 75.7613 208.347 75.22V73.568L208.613 72.084L208.347 70.586V68.78H209.887V75.22C209.887 75.864 209.738 76.424 209.439 76.9C209.141 77.3853 208.725 77.7633 208.193 78.034C207.661 78.3047 207.045 78.44 206.345 78.44ZM206.275 75.36C205.678 75.36 205.137 75.2153 204.651 74.926C204.175 74.6273 203.797 74.2213 203.517 73.708C203.247 73.1947 203.111 72.6207 203.111 71.986C203.111 71.3513 203.247 70.782 203.517 70.278C203.797 69.774 204.175 69.3773 204.651 69.088C205.137 68.7893 205.678 68.64 206.275 68.64C206.807 68.64 207.274 68.7473 207.675 68.962C208.077 69.1767 208.389 69.4753 208.613 69.858C208.837 70.2313 208.949 70.67 208.949 71.174V72.826C208.949 73.3207 208.833 73.7593 208.599 74.142C208.375 74.5247 208.063 74.8233 207.661 75.038C207.26 75.2527 206.798 75.36 206.275 75.36ZM206.583 73.904C206.957 73.904 207.283 73.8247 207.563 73.666C207.843 73.5073 208.058 73.288 208.207 73.008C208.366 72.7187 208.445 72.3827 208.445 72C208.445 71.6173 208.366 71.286 208.207 71.006C208.058 70.7167 207.843 70.4927 207.563 70.334C207.283 70.1753 206.957 70.096 206.583 70.096C206.21 70.096 205.879 70.1753 205.589 70.334C205.309 70.4927 205.09 70.7167 204.931 71.006C204.773 71.286 204.693 71.6173 204.693 72C204.693 72.3733 204.773 72.7047 204.931 72.994C205.09 73.2833 205.309 73.5073 205.589 73.666C205.879 73.8247 206.21 73.904 206.583 73.904ZM214.72 75.64C214.048 75.64 213.441 75.4907 212.9 75.192C212.368 74.884 211.943 74.464 211.626 73.932C211.318 73.4 211.164 72.8027 211.164 72.14C211.164 71.4773 211.318 70.8847 211.626 70.362C211.934 69.83 212.349 69.41 212.872 69.102C213.404 68.794 213.992 68.64 214.636 68.64C215.261 68.64 215.812 68.7847 216.288 69.074C216.773 69.3633 217.151 69.76 217.422 70.264C217.702 70.768 217.842 71.342 217.842 71.986C217.842 72.098 217.833 72.2147 217.814 72.336C217.805 72.448 217.786 72.574 217.758 72.714H212.242V71.454H216.96L216.386 71.958C216.367 71.5473 216.288 71.202 216.148 70.922C216.008 70.642 215.807 70.4273 215.546 70.278C215.294 70.1287 214.981 70.054 214.608 70.054C214.216 70.054 213.875 70.138 213.586 70.306C213.297 70.474 213.073 70.712 212.914 71.02C212.755 71.3187 212.676 71.678 212.676 72.098C212.676 72.518 212.76 72.8867 212.928 73.204C213.096 73.5213 213.334 73.7687 213.642 73.946C213.95 74.114 214.305 74.198 214.706 74.198C215.051 74.198 215.369 74.1373 215.658 74.016C215.957 73.8947 216.209 73.7173 216.414 73.484L217.394 74.478C217.067 74.8607 216.671 75.15 216.204 75.346C215.737 75.542 215.243 75.64 214.72 75.64Z" fill="#F1F2F4"/>
</g>
<g clip-path="url(#clip0_14342_19874)">
<rect y="71" width="64" height="1" fill="#E1172F"/>
<g clip-path="url(#clip1_14342_19874)">
<rect y="58" width="24" height="24" rx="12" fill="#E1172F"/>
<path d="M13.8302 64.8182V75H11.6775V66.8615H11.6178L9.28613 68.3232V66.4141L11.8067 64.8182H13.8302Z" fill="#F1F2F4"/>
</g>
</g>
<g clip-path="url(#clip2_14342_19874)">
<rect x="92" width="1" height="60" fill="#E1172F"/>
<g clip-path="url(#clip3_14342_19874)">
<rect x="80" width="24" height="24" rx="12" fill="#E1172F"/>
<path d="M88.4161 17V15.4489L92.0404 12.093C92.3486 11.7947 92.6072 11.5263 92.816 11.2876C93.0281 11.049 93.1888 10.8153 93.2982 10.5866C93.4076 10.3546 93.4623 10.1044 93.4623 9.83594C93.4623 9.53764 93.3943 9.28078 93.2584 9.06534C93.1225 8.84659 92.9369 8.67921 92.7016 8.56321C92.4663 8.44389 92.1995 8.38423 91.9012 8.38423C91.5896 8.38423 91.3179 8.44721 91.0858 8.57315C90.8538 8.6991 90.6749 8.87973 90.5489 9.11506C90.423 9.35038 90.36 9.63044 90.36 9.95526H88.3167C88.3167 9.28906 88.4675 8.7107 88.7691 8.22017C89.0707 7.72964 89.4933 7.35014 90.0368 7.08168C90.5804 6.81321 91.2068 6.67898 91.9161 6.67898C92.6453 6.67898 93.28 6.80824 93.8202 7.06676C94.3638 7.32197 94.7864 7.67661 95.088 8.13068C95.3896 8.58475 95.5404 9.10511 95.5404 9.69176C95.5404 10.0762 95.4642 10.4557 95.3117 10.8303C95.1626 11.2048 94.8957 11.6207 94.5113 12.0781C94.1268 12.5322 93.5849 13.0774 92.8856 13.7138L91.3991 15.1705V15.2401H95.6746V17H88.4161Z" fill="#F1F2F4"/>
</g>
</g>
<g clip-path="url(#clip4_14342_19874)">
<rect x="150" width="24" height="24" rx="12" fill="#E1172F"/>
<path d="M161.975 17.1392C161.232 17.1392 160.571 17.0116 159.991 16.7564C159.414 16.4979 158.958 16.1432 158.624 15.6925C158.292 15.2384 158.122 14.7147 158.112 14.1214H160.279C160.292 14.37 160.374 14.5888 160.523 14.7777C160.675 14.9633 160.877 15.1075 161.129 15.2102C161.381 15.313 161.665 15.3643 161.979 15.3643C162.308 15.3643 162.598 15.3063 162.85 15.1903C163.101 15.0743 163.299 14.9136 163.441 14.7081C163.584 14.5026 163.655 14.2656 163.655 13.9972C163.655 13.7254 163.579 13.4851 163.426 13.2763C163.277 13.0642 163.062 12.8984 162.78 12.7791C162.502 12.6598 162.17 12.6001 161.786 12.6001H160.836V11.0192H161.786C162.11 11.0192 162.397 10.9628 162.646 10.8501C162.898 10.7375 163.093 10.5817 163.232 10.3828C163.372 10.1806 163.441 9.94531 163.441 9.67685C163.441 9.42164 163.38 9.19792 163.257 9.00568C163.138 8.81013 162.969 8.65767 162.75 8.5483C162.535 8.43892 162.283 8.38423 161.994 8.38423C161.703 8.38423 161.436 8.43726 161.194 8.54332C160.952 8.64607 160.758 8.79356 160.612 8.9858C160.466 9.17803 160.389 9.40341 160.379 9.66193H158.315C158.325 9.07528 158.493 8.55824 158.818 8.1108C159.142 7.66335 159.58 7.31368 160.13 7.06179C160.684 6.80658 161.308 6.67898 162.004 6.67898C162.707 6.67898 163.322 6.80658 163.849 7.06179C164.376 7.317 164.785 7.66169 165.077 8.09588C165.372 8.52675 165.518 9.01065 165.514 9.54758C165.518 10.1177 165.34 10.5933 164.982 10.9744C164.628 11.3556 164.165 11.5975 163.595 11.7003V11.7798C164.344 11.8759 164.914 12.1361 165.305 12.5604C165.7 12.9813 165.895 13.5083 165.892 14.1413C165.895 14.7214 165.728 15.2367 165.39 15.6875C165.055 16.1383 164.593 16.4929 164.003 16.7514C163.413 17.0099 162.737 17.1392 161.975 17.1392Z" fill="#F1F2F4"/>
</g>
<rect x="162" y="21" width="1" height="46" fill="#E1172F"/>
<defs>
<filter id="filter0_d_14342_19874" x="21.5" y="24" width="255" height="132" filterUnits="userSpaceOnUse" color-interpolation-filters="sRGB">
<feFlood flood-opacity="0" result="BackgroundImageFix"/>
<feColorMatrix in="SourceAlpha" type="matrix" values="0 0 0 0 0 0 0 0 0 0 0 0 0 0 0 0 0 0 127 0" result="hardAlpha"/>
<feMorphology radius="16" operator="erode" in="SourceAlpha" result="effect1_dropShadow_14342_19874"/>
<feOffset dy="20"/>
<feGaussianBlur stdDeviation="29"/>
<feColorMatrix type="matrix" values="0 0 0 0 0 0 0 0 0 0 0 0 0 0 0 0 0 0 0.16 0"/>
<feBlend mode="normal" in2="BackgroundImageFix" result="effect1_dropShadow_14342_19874"/>
<feBlend mode="normal" in="SourceGraphic" in2="effect1_dropShadow_14342_19874" result="shape"/>
</filter>
<clipPath id="clip0_14342_19874">
<rect width="64" height="24" fill="white" transform="translate(0 58)"/>
</clipPath>
<clipPath id="clip1_14342_19874">
<rect y="58" width="24" height="24" rx="12" fill="white"/>
</clipPath>
<clipPath id="clip2_14342_19874">
<rect width="24" height="60" fill="white" transform="translate(80)"/>
</clipPath>
<clipPath id="clip3_14342_19874">
<rect x="80" width="24" height="24" rx="12" fill="white"/>
</clipPath>
<clipPath id="clip4_14342_19874">
<rect x="150" width="24" height="24" rx="12" fill="white"/>
</clipPath>
</defs>
</svg>
