<svg width="720" height="180" viewBox="0 0 720 180" fill="none" xmlns="http://www.w3.org/2000/svg">
<rect x="294" y="117" width="89" height="1" fill="#E1172F"/>
<g clip-path="url(#clip0_14089_1141)">
<rect x="294" y="106" width="24" height="24" rx="12" fill="#E1172F"/>
<path d="M307.83 112.818V123H305.677V114.862H305.618L303.286 116.323V114.414L305.807 112.818H307.83Z" fill="white"/>
</g>
<rect x="377" y="93" width="50" height="50" stroke="#6061EE" stroke-width="2"/>
<path d="M399.803 100.086C400.702 98.2647 403.298 98.2647 404.197 100.086L409.049 109.918L419.9 111.494C421.909 111.786 422.712 114.256 421.257 115.673L413.406 123.326L415.26 134.133C415.603 136.134 413.502 137.66 411.705 136.715L402 131.613L392.295 136.715C390.498 137.66 388.397 136.134 388.74 134.133L390.594 123.326L382.743 115.673C381.288 114.256 382.091 111.786 384.1 111.494L394.951 109.918L399.803 100.086ZM402 101.283L397.181 111.048C396.824 111.771 396.134 112.272 395.336 112.388L384.56 113.954L392.358 121.554C392.935 122.117 393.199 122.928 393.062 123.723L391.222 134.456L400.86 129.388C401.574 129.013 402.426 129.013 403.14 129.388L412.778 134.456L410.938 123.723C410.801 122.928 411.065 122.117 411.642 121.554L419.44 113.954L408.664 112.388C407.866 112.272 407.176 111.771 406.819 111.048L402 101.283Z" fill="#F1F2F4"/>
<g clip-path="url(#clip1_14089_1141)">
<rect x="376" y="37" width="1" height="60" fill="#E1172F"/>
<g clip-path="url(#clip2_14089_1141)">
<rect x="364" y="37" width="24" height="24" rx="12" fill="#E1172F"/>
<path d="M372.416 54V52.4489L376.04 49.093C376.349 48.7947 376.607 48.5263 376.816 48.2876C377.028 48.049 377.189 47.8153 377.298 47.5866C377.408 47.3546 377.462 47.1044 377.462 46.8359C377.462 46.5376 377.394 46.2808 377.258 46.0653C377.123 45.8466 376.937 45.6792 376.702 45.5632C376.466 45.4439 376.199 45.3842 375.901 45.3842C375.59 45.3842 375.318 45.4472 375.086 45.5732C374.854 45.6991 374.675 45.8797 374.549 46.1151C374.423 46.3504 374.36 46.6304 374.36 46.9553H372.317C372.317 46.2891 372.467 45.7107 372.769 45.2202C373.071 44.7296 373.493 44.3501 374.037 44.0817C374.58 43.8132 375.207 43.679 375.916 43.679C376.645 43.679 377.28 43.8082 377.82 44.0668C378.364 44.322 378.786 44.6766 379.088 45.1307C379.39 45.5848 379.54 46.1051 379.54 46.6918C379.54 47.0762 379.464 47.4557 379.312 47.8303C379.163 48.2048 378.896 48.6207 378.511 49.0781C378.127 49.5322 377.585 50.0774 376.886 50.7138L375.399 52.1705V52.2401H379.675V54H372.416Z" fill="white"/>
</g>
</g>
<defs>
<clipPath id="clip0_14089_1141">
<rect x="294" y="106" width="24" height="24" rx="12" fill="white"/>
</clipPath>
<clipPath id="clip1_14089_1141">
<rect width="24" height="60" fill="white" transform="translate(364 37)"/>
</clipPath>
<clipPath id="clip2_14089_1141">
<rect x="364" y="37" width="24" height="24" rx="12" fill="white"/>
</clipPath>
</defs>
</svg>
