<svg width="217" height="419" viewBox="0 0 217 419" fill="none" xmlns="http://www.w3.org/2000/svg">
<path d="M147.125 38V47.75C147.125 48.0484 147.006 48.3345 146.795 48.5455C146.584 48.7565 146.298 48.875 146 48.875C145.702 48.875 145.415 48.7565 145.204 48.5455C144.993 48.3345 144.875 48.0484 144.875 47.75V40.7188L134.796 50.7959C134.585 51.0073 134.298 51.126 133.999 51.126C133.7 51.126 133.413 51.0073 133.202 50.7959C132.991 50.5846 132.872 50.2979 132.872 49.9991C132.872 49.7002 132.991 49.4135 133.202 49.2022L143.281 39.125H136.25C135.952 39.125 135.665 39.0065 135.454 38.7955C135.243 38.5845 135.125 38.2984 135.125 38C135.125 37.7016 135.243 37.4155 135.454 37.2045C135.665 36.9935 135.952 36.875 136.25 36.875H146C146.298 36.875 146.584 36.9935 146.795 37.2045C147.006 37.4155 147.125 37.7016 147.125 38Z" fill="#2A2C35"/>
<path d="M82.7959 50.7959C82.6914 50.9008 82.5672 50.984 82.4305 51.0408C82.2937 51.0976 82.1471 51.1268 81.9991 51.1268C81.851 51.1268 81.7044 51.0976 81.5676 51.0408C81.4309 50.984 81.3067 50.9008 81.2022 50.7959L71.125 40.7188V47.75C71.125 48.0484 71.0065 48.3345 70.7955 48.5455C70.5845 48.7565 70.2984 48.875 70 48.875C69.7016 48.875 69.4155 48.7565 69.2045 48.5455C68.9935 48.3345 68.875 48.0484 68.875 47.75V38C68.875 37.7016 68.9935 37.4155 69.2045 37.2045C69.4155 36.9935 69.7016 36.875 70 36.875H79.75C80.0484 36.875 80.3345 36.9935 80.5455 37.2045C80.7565 37.4155 80.875 37.7016 80.875 38C80.875 38.2984 80.7565 38.5845 80.5455 38.7955C80.3345 39.0065 80.0484 39.125 79.75 39.125H72.7188L82.7959 49.2041C82.9005 49.3085 82.9835 49.4326 83.0401 49.5692C83.0967 49.7058 83.1259 49.8522 83.1259 50C83.1259 50.1478 83.0967 50.2942 83.0401 50.4308C82.9835 50.5674 82.9005 50.6915 82.7959 50.7959Z" fill="#2A2C35"/>
<path d="M19.5459 43.296C19.4414 43.4009 19.3172 43.4841 19.1804 43.5409C19.0437 43.5976 18.8971 43.6269 18.749 43.6269C18.601 43.6269 18.4543 43.5976 18.3176 43.5409C18.1809 43.4841 18.0567 43.4009 17.9521 43.296L13.125 38.4688V52.25C13.125 52.5484 13.0064 52.8346 12.7955 53.0455C12.5845 53.2565 12.2983 53.375 12 53.375C11.7016 53.375 11.4154 53.2565 11.2045 53.0455C10.9935 52.8346 10.875 52.5484 10.875 52.25V38.4688L6.0459 43.296C5.83455 43.5073 5.54791 43.6261 5.24902 43.6261C4.95014 43.6261 4.66349 43.5073 4.45215 43.296C4.2408 43.0846 4.12207 42.798 4.12207 42.4991C4.12207 42.2002 4.2408 41.9136 4.45215 41.7022L11.2021 34.9522C11.3067 34.8473 11.4309 34.7641 11.5676 34.7073C11.7043 34.6506 11.851 34.6213 11.999 34.6213C12.1471 34.6213 12.2937 34.6506 12.4304 34.7073C12.5672 34.7641 12.6914 34.8473 12.7959 34.9522L19.5459 41.7022C19.6508 41.8067 19.734 41.9309 19.7908 42.0677C19.8476 42.2044 19.8768 42.351 19.8768 42.4991C19.8768 42.6472 19.8476 42.7938 19.7908 42.9305C19.734 43.0673 19.6508 43.1915 19.5459 43.296Z" fill="#2A2C35"/>
<path d="M212.296 101.295L208.594 105H210.375C210.673 105 210.96 105.118 211.171 105.329C211.382 105.54 211.5 105.827 211.5 106.125C211.5 106.423 211.382 106.709 211.171 106.92C210.96 107.131 210.673 107.25 210.375 107.25H205.875C205.577 107.25 205.291 107.131 205.08 106.92C204.869 106.709 204.75 106.423 204.75 106.125V101.625C204.75 101.327 204.869 101.04 205.08 100.829C205.291 100.618 205.577 100.5 205.875 100.5C206.173 100.5 206.46 100.618 206.671 100.829C206.882 101.04 207 101.327 207 101.625V103.406L210.704 99.7012C210.915 99.4898 211.202 99.3711 211.501 99.3711C211.8 99.3711 212.087 99.4898 212.298 99.7012C212.509 99.9125 212.628 100.199 212.628 100.498C212.628 100.797 212.509 101.084 212.298 101.295H212.296ZM202.125 108.75H197.625C197.327 108.75 197.041 108.868 196.83 109.079C196.619 109.29 196.5 109.577 196.5 109.875C196.5 110.173 196.619 110.459 196.83 110.67C197.041 110.881 197.327 111 197.625 111H199.406L195.704 114.704C195.493 114.915 195.374 115.202 195.374 115.501C195.374 115.8 195.493 116.086 195.704 116.298C195.915 116.509 196.202 116.628 196.501 116.628C196.8 116.628 197.087 116.509 197.298 116.298L201 112.594V114.375C201 114.673 201.119 114.959 201.33 115.17C201.541 115.381 201.827 115.5 202.125 115.5C202.423 115.5 202.71 115.381 202.921 115.17C203.132 114.959 203.25 114.673 203.25 114.375V109.875C203.25 109.577 203.132 109.29 202.921 109.079C202.71 108.868 202.423 108.75 202.125 108.75Z" fill="#2A2C35"/>
<path d="M149.375 108C149.375 108.298 149.256 108.585 149.045 108.795C148.835 109.006 148.548 109.125 148.25 109.125H131.75C131.452 109.125 131.165 109.006 130.955 108.795C130.744 108.585 130.625 108.298 130.625 108C130.625 107.702 130.744 107.415 130.955 107.205C131.165 106.994 131.452 106.875 131.75 106.875H148.25C148.548 106.875 148.835 106.994 149.045 107.205C149.256 107.415 149.375 107.702 149.375 108ZM139.204 105.046C139.309 105.151 139.433 105.234 139.57 105.291C139.706 105.348 139.853 105.377 140.001 105.377C140.149 105.377 140.296 105.348 140.432 105.291C140.569 105.234 140.693 105.151 140.798 105.046L143.798 102.046C144.009 101.835 144.128 101.548 144.128 101.249C144.128 100.95 144.009 100.664 143.798 100.452C143.586 100.241 143.3 100.122 143.001 100.122C142.702 100.122 142.415 100.241 142.204 100.452L141.125 101.531V97.5C141.125 97.2016 141.006 96.9155 140.795 96.7045C140.585 96.4935 140.298 96.375 140 96.375C139.702 96.375 139.415 96.4935 139.205 96.7045C138.994 96.9155 138.875 97.2016 138.875 97.5V101.531L137.796 100.454C137.585 100.243 137.298 100.124 136.999 100.124C136.7 100.124 136.414 100.243 136.202 100.454C135.991 100.665 135.872 100.952 135.872 101.251C135.872 101.55 135.991 101.836 136.202 102.048L139.204 105.046ZM140.798 110.952C140.693 110.847 140.569 110.764 140.432 110.707C140.296 110.651 140.149 110.621 140.001 110.621C139.853 110.621 139.706 110.651 139.57 110.707C139.433 110.764 139.309 110.847 139.204 110.952L136.204 113.952C135.993 114.164 135.874 114.45 135.874 114.749C135.874 115.048 135.993 115.335 136.204 115.546C136.415 115.757 136.702 115.876 137.001 115.876C137.3 115.876 137.586 115.757 137.798 115.546L138.875 114.469V118.5C138.875 118.798 138.994 119.085 139.205 119.295C139.415 119.506 139.702 119.625 140 119.625C140.298 119.625 140.585 119.506 140.795 119.295C141.006 119.085 141.125 118.798 141.125 118.5V114.469L142.204 115.549C142.415 115.76 142.702 115.879 143.001 115.879C143.3 115.879 143.586 115.76 143.798 115.549C144.009 115.337 144.128 115.051 144.128 114.752C144.128 114.453 144.009 114.166 143.798 113.955L140.798 110.952Z" fill="#2A2C35"/>
<path d="M77.125 99.75V116.25C77.125 116.548 77.0065 116.835 76.7955 117.045C76.5845 117.256 76.2984 117.375 76 117.375C75.7016 117.375 75.4155 117.256 75.2045 117.045C74.9935 116.835 74.875 116.548 74.875 116.25V99.75C74.875 99.4516 74.9935 99.1655 75.2045 98.9545C75.4155 98.7435 75.7016 98.625 76 98.625C76.2984 98.625 76.5845 98.7435 76.7955 98.9545C77.0065 99.1655 77.125 99.4516 77.125 99.75ZM70.0459 104.204C69.8346 103.993 69.5479 103.874 69.2491 103.874C68.9502 103.874 68.6635 103.993 68.4522 104.204C68.2408 104.415 68.1221 104.702 68.1221 105.001C68.1221 105.3 68.2408 105.586 68.4522 105.798L69.5312 106.875H65.5C65.2016 106.875 64.9155 106.994 64.7045 107.205C64.4935 107.415 64.375 107.702 64.375 108C64.375 108.298 64.4935 108.585 64.7045 108.795C64.9155 109.006 65.2016 109.125 65.5 109.125H69.5312L68.4541 110.204C68.2427 110.415 68.124 110.702 68.124 111.001C68.124 111.3 68.2427 111.586 68.4541 111.798C68.6654 112.009 68.9521 112.128 69.2509 112.128C69.5498 112.128 69.8365 112.009 70.0478 111.798L73.0478 108.798C73.1527 108.693 73.2359 108.569 73.2927 108.432C73.3495 108.296 73.3787 108.149 73.3787 108.001C73.3787 107.853 73.3495 107.706 73.2927 107.57C73.2359 107.433 73.1527 107.309 73.0478 107.204L70.0459 104.204ZM86.5 106.875H82.4688L83.5488 105.796C83.7601 105.585 83.8788 105.298 83.8788 104.999C83.8788 104.7 83.7601 104.414 83.5488 104.202C83.3374 103.991 83.0508 103.872 82.7519 103.872C82.453 103.872 82.1663 103.991 81.955 104.202L78.955 107.202C78.8501 107.307 78.7669 107.431 78.7101 107.568C78.6533 107.704 78.6241 107.851 78.6241 107.999C78.6241 108.147 78.6533 108.294 78.7101 108.43C78.7669 108.567 78.8501 108.691 78.955 108.796L81.955 111.796C82.1663 112.007 82.453 112.126 82.7519 112.126C83.0508 112.126 83.3374 112.007 83.5488 111.796C83.7601 111.585 83.8788 111.298 83.8788 110.999C83.8788 110.7 83.7601 110.414 83.5488 110.202L82.4688 109.125H86.5C86.7984 109.125 87.0845 109.006 87.2955 108.795C87.5065 108.585 87.625 108.298 87.625 108C87.625 107.702 87.5065 107.415 87.2955 107.205C87.0845 106.994 86.7984 106.875 86.5 106.875Z" fill="#2A2C35"/>
<path d="M8.20406 102.796C7.99272 102.585 7.87399 102.298 7.87399 101.999C7.87399 101.7 7.99272 101.414 8.20406 101.202C8.41541 100.991 8.70205 100.872 9.00094 100.872C9.29982 100.872 9.58647 100.991 9.79781 101.202L10.875 102.281V98.25C10.875 97.9516 10.9935 97.6655 11.2045 97.4545C11.4155 97.2435 11.7016 97.125 12 97.125C12.2984 97.125 12.5845 97.2435 12.7955 97.4545C13.0065 97.6655 13.125 97.9516 13.125 98.25V102.281L14.2041 101.201C14.4154 100.99 14.7021 100.871 15.0009 100.871C15.2998 100.871 15.5865 100.99 15.7978 101.201C16.0092 101.413 16.1279 101.699 16.1279 101.998C16.1279 102.297 16.0092 102.584 15.7978 102.795L12.7978 105.795C12.6933 105.9 12.5691 105.983 12.4324 106.04C12.2956 106.097 12.149 106.126 12.0009 106.126C11.8529 106.126 11.7063 106.097 11.5695 106.04C11.4328 105.983 11.3086 105.9 11.2041 105.795L8.20406 102.796ZM12.7978 110.202C12.6933 110.097 12.5691 110.014 12.4324 109.957C12.2956 109.901 12.149 109.871 12.0009 109.871C11.8529 109.871 11.7063 109.901 11.5695 109.957C11.4328 110.014 11.3086 110.097 11.2041 110.202L8.20406 113.202C8.09942 113.307 8.0164 113.431 7.95977 113.568C7.90314 113.705 7.87399 113.851 7.87399 113.999C7.87399 114.298 7.99272 114.585 8.20406 114.796C8.41541 115.007 8.70205 115.126 9.00094 115.126C9.29982 115.126 9.58647 115.007 9.79781 114.796L10.875 113.719V117.75C10.875 118.048 10.9935 118.335 11.2045 118.545C11.4155 118.756 11.7016 118.875 12 118.875C12.2984 118.875 12.5845 118.756 12.7955 118.545C13.0065 118.335 13.125 118.048 13.125 117.75V113.719L14.2041 114.799C14.4154 115.01 14.7021 115.129 15.0009 115.129C15.2998 115.129 15.5865 115.01 15.7978 114.799C16.0092 114.587 16.1279 114.301 16.1279 114.002C16.1279 113.703 16.0092 113.416 15.7978 113.205L12.7978 110.202ZM21.75 106.875H17.7188L18.7988 105.796C19.0101 105.585 19.1288 105.298 19.1288 104.999C19.1288 104.7 19.0101 104.414 18.7988 104.202C18.5874 103.991 18.3008 103.872 18.0019 103.872C17.703 103.872 17.4163 103.991 17.205 104.202L14.205 107.202C14.1001 107.307 14.0169 107.431 13.9601 107.568C13.9033 107.704 13.8741 107.851 13.8741 107.999C13.8741 108.147 13.9033 108.294 13.9601 108.43C14.0169 108.567 14.1001 108.691 14.205 108.796L17.205 111.796C17.4163 112.007 17.703 112.126 18.0019 112.126C18.3008 112.126 18.5874 112.007 18.7988 111.796C19.0101 111.585 19.1288 111.298 19.1288 110.999C19.1288 110.7 19.0101 110.414 18.7988 110.202L17.7188 109.125H21.75C22.0484 109.125 22.3345 109.006 22.5455 108.795C22.7565 108.585 22.875 108.298 22.875 108C22.875 107.702 22.7565 107.415 22.5455 107.205C22.3345 106.994 22.0484 106.875 21.75 106.875ZM9.79594 107.204L6.79594 104.204C6.58459 103.993 6.29795 103.874 5.99906 103.874C5.70018 103.874 5.41353 103.993 5.20219 104.204C4.99084 104.415 4.87211 104.702 4.87211 105.001C4.87211 105.3 4.99084 105.586 5.20219 105.798L6.28125 106.875H2.25C1.95163 106.875 1.66548 106.994 1.4545 107.205C1.24353 107.415 1.125 107.702 1.125 108C1.125 108.298 1.24353 108.585 1.4545 108.795C1.66548 109.006 1.95163 109.125 2.25 109.125H6.28125L5.20406 110.204C5.09942 110.309 5.0164 110.433 4.95977 110.57C4.90314 110.706 4.87399 110.853 4.87399 111.001C4.87399 111.3 4.99272 111.586 5.20406 111.798C5.41541 112.009 5.70205 112.128 6.00094 112.128C6.29982 112.128 6.58647 112.009 6.79781 111.798L9.79781 108.798C9.90257 108.693 9.98564 108.569 10.0423 108.432C10.0989 108.295 10.1279 108.149 10.1278 108.001C10.1276 107.852 10.0982 107.706 10.0412 107.569C9.9843 107.433 9.90094 107.308 9.79594 107.204Z" fill="#2A2C35"/>
<path d="M210.796 49.2041C210.901 49.3086 210.984 49.4328 211.041 49.5695C211.098 49.7063 211.127 49.8529 211.127 50.0009C211.127 50.149 211.098 50.2956 211.041 50.4324C210.984 50.5691 210.901 50.6933 210.796 50.7978C210.69 50.9028 208.171 53.3769 204 53.3769C200.84 53.3769 198.436 51.74 196.875 50.2025V51.5C196.875 51.7984 196.756 52.0845 196.545 52.2955C196.335 52.5065 196.048 52.625 195.75 52.625C195.452 52.625 195.165 52.5065 194.955 52.2955C194.744 52.0845 194.625 51.7984 194.625 51.5V47C194.625 46.7016 194.744 46.4155 194.955 46.2045C195.165 45.9935 195.452 45.875 195.75 45.875H200.25C200.548 45.875 200.835 45.9935 201.045 46.2045C201.256 46.4155 201.375 46.7016 201.375 47C201.375 47.2984 201.256 47.5845 201.045 47.7955C200.835 48.0065 200.548 48.125 200.25 48.125H198.011C199.239 49.4675 201.3 51.125 204 51.125C207.247 51.125 209.185 49.2237 209.204 49.2041C209.309 49.0995 209.433 49.0165 209.569 48.9599C209.706 48.9033 209.852 48.8741 210 48.8741C210.148 48.8741 210.294 48.9033 210.431 48.9599C210.567 49.0165 210.691 49.0995 210.796 49.2041ZM212.25 35.375C211.952 35.375 211.665 35.4935 211.455 35.7045C211.244 35.9155 211.125 36.2016 211.125 36.5V37.7994C209.564 36.2619 207.16 34.625 204 34.625C199.832 34.625 197.31 37.0991 197.204 37.2041C196.993 37.4154 196.874 37.7021 196.874 38.0009C196.874 38.2998 196.993 38.5865 197.204 38.7978C197.415 39.0092 197.702 39.1279 198.001 39.1279C198.3 39.1279 198.586 39.0092 198.798 38.7978C198.815 38.7763 200.753 36.875 204 36.875C206.7 36.875 208.761 38.5325 209.989 39.875H207.75C207.452 39.875 207.165 39.9935 206.955 40.2045C206.744 40.4155 206.625 40.7016 206.625 41C206.625 41.2984 206.744 41.5845 206.955 41.7955C207.165 42.0065 207.452 42.125 207.75 42.125H212.25C212.548 42.125 212.835 42.0065 213.045 41.7955C213.256 41.5845 213.375 41.2984 213.375 41V36.5C213.375 36.2016 213.256 35.9155 213.045 35.7045C212.835 35.4935 212.548 35.375 212.25 35.375Z" fill="#2A2C35"/>
<path d="M215.633 172.581L215.628 172.573L206.622 156.828C206.458 156.539 206.221 156.299 205.935 156.132C205.648 155.964 205.322 155.876 204.99 155.876C204.658 155.876 204.332 155.964 204.045 156.132C203.758 156.299 203.521 156.539 203.358 156.828L194.367 172.581C194.18 172.914 194.1 173.295 194.136 173.675C194.172 174.054 194.322 174.414 194.568 174.705C194.813 174.997 195.142 175.207 195.509 175.307C195.877 175.407 196.267 175.393 196.626 175.266L204.989 172.397L213.375 175.266C213.577 175.338 213.79 175.375 214.005 175.375C214.331 175.374 214.652 175.287 214.935 175.124C215.218 174.961 215.454 174.727 215.619 174.444C215.783 174.162 215.871 173.841 215.874 173.515C215.876 173.188 215.793 172.866 215.633 172.581ZM206.125 170.406V165.25C206.125 164.952 206.006 164.665 205.795 164.454C205.585 164.243 205.298 164.125 205 164.125C204.702 164.125 204.415 164.243 204.205 164.454C203.994 164.665 203.875 164.952 203.875 165.25V170.4L196.821 172.82L204.99 158.506L213.178 172.821L206.125 170.406Z" fill="#2A2C35"/>
<path d="M149.784 161.765L133.275 156.703C132.996 156.621 132.701 156.606 132.415 156.658C132.129 156.71 131.859 156.828 131.626 157.002C131.393 157.176 131.204 157.403 131.074 157.663C130.944 157.923 130.875 158.209 130.875 158.5V172C130.875 172.496 131.072 172.972 131.422 173.324C131.773 173.675 132.248 173.874 132.744 173.875C132.924 173.875 133.103 173.849 133.275 173.799L140.625 171.544V172C140.625 172.497 140.823 172.974 141.174 173.326C141.526 173.678 142.003 173.875 142.5 173.875H145.5C145.997 173.875 146.474 173.678 146.826 173.326C147.177 172.974 147.375 172.497 147.375 172V169.474L149.784 168.735C150.171 168.618 150.509 168.381 150.751 168.057C150.992 167.734 151.123 167.341 151.125 166.938V163.563C151.123 163.159 150.992 162.767 150.751 162.443C150.509 162.12 150.171 161.882 149.784 161.765ZM140.625 169.188L133.125 171.492V159.008L140.625 161.313V169.188ZM145.125 171.625H142.875V170.854L145.125 170.164V171.625ZM148.875 166.656L142.875 168.497V162L148.875 163.844V166.656Z" fill="#2A2C35"/>
<path d="M87.875 165.25C87.8736 163.958 87.3595 162.719 86.4455 161.805C85.5316 160.891 84.2925 160.377 83 160.375H79.28C78.9575 160.355 74.3488 160 69.9557 156.316C69.6824 156.086 69.3493 155.94 68.9956 155.893C68.6418 155.846 68.2821 155.901 67.9586 156.052C67.6351 156.203 67.3613 156.442 67.1694 156.743C66.9775 157.044 66.8753 157.393 66.875 157.75V172.75C66.8728 173.107 66.9737 173.458 67.1656 173.759C67.3575 174.06 67.6322 174.3 67.9569 174.449C68.2802 174.601 68.6406 174.658 68.995 174.611C69.3495 174.564 69.683 174.417 69.9557 174.185C72.2043 172.295 74.8795 170.981 77.75 170.357V172.813C77.75 173.122 77.8261 173.425 77.9717 173.697C78.1172 173.97 78.3277 174.202 78.5844 174.373C78.626 174.401 78.6696 174.426 78.7147 174.448L80.0685 175.11C80.3187 175.26 80.6004 175.349 80.8912 175.371C81.182 175.393 81.4739 175.346 81.7437 175.235C82.0135 175.125 82.2537 174.953 82.4453 174.733C82.6368 174.513 82.7745 174.251 82.8472 173.969L83.8869 170.048C85.0072 169.84 86.0192 169.246 86.7476 168.369C87.4759 167.493 87.8748 166.39 87.875 165.25ZM69.125 171.965V158.538C72.516 161.169 75.891 162.109 77.75 162.443V168.063C75.891 168.393 72.516 169.333 69.125 171.965ZM80.7866 172.956L80 172.572V170.125H81.5375L80.7866 172.956ZM83 167.875H80V162.625H83C83.6962 162.625 84.3639 162.902 84.8562 163.394C85.3485 163.886 85.625 164.554 85.625 165.25C85.625 165.946 85.3485 166.614 84.8562 167.106C84.3639 167.599 83.6962 167.875 83 167.875Z" fill="#2A2C35"/>
<path d="M21.25 167.875H17.125V164.125H21.25C21.5484 164.125 21.8345 164.006 22.0455 163.795C22.2565 163.585 22.375 163.298 22.375 163C22.375 162.702 22.2565 162.415 22.0455 162.205C21.8345 161.994 21.5484 161.875 21.25 161.875H17.125V157.75C17.125 157.452 17.0065 157.165 16.7955 156.955C16.5845 156.744 16.2984 156.625 16 156.625C15.7016 156.625 15.4155 156.744 15.2045 156.955C14.9935 157.165 14.875 157.452 14.875 157.75V161.875H11.125V157.75C11.125 157.452 11.0065 157.165 10.7955 156.955C10.5845 156.744 10.2984 156.625 10 156.625C9.70163 156.625 9.41548 156.744 9.2045 156.955C8.99353 157.165 8.875 157.452 8.875 157.75V161.875H4.75C4.45163 161.875 4.16548 161.994 3.9545 162.205C3.74353 162.415 3.625 162.702 3.625 163C3.625 163.298 3.74353 163.585 3.9545 163.795C4.16548 164.006 4.45163 164.125 4.75 164.125H8.875V167.875H4.75C4.45163 167.875 4.16548 167.994 3.9545 168.205C3.74353 168.415 3.625 168.702 3.625 169C3.625 169.298 3.74353 169.585 3.9545 169.795C4.16548 170.006 4.45163 170.125 4.75 170.125H8.875V174.25C8.875 174.548 8.99353 174.835 9.2045 175.045C9.41548 175.256 9.70163 175.375 10 175.375C10.2984 175.375 10.5845 175.256 10.7955 175.045C11.0065 174.835 11.125 174.548 11.125 174.25V170.125H14.875V174.25C14.875 174.548 14.9935 174.835 15.2045 175.045C15.4155 175.256 15.7016 175.375 16 175.375C16.2984 175.375 16.5845 175.256 16.7955 175.045C17.0065 174.835 17.125 174.548 17.125 174.25V170.125H21.25C21.5484 170.125 21.8345 170.006 22.0455 169.795C22.2565 169.585 22.375 169.298 22.375 169C22.375 168.702 22.2565 168.415 22.0455 168.205C21.8345 167.994 21.5484 167.875 21.25 167.875ZM11.125 167.875V164.125H14.875V167.875H11.125Z" fill="#2A2C35"/>
<path fill-rule="evenodd" clip-rule="evenodd" d="M6.66327 231.449C6.30164 231.174 5.77469 231.072 5.39239 231.317C4.83444 231.684 4.67946 232.439 5.19608 232.867C5.95034 233.51 6.97324 234 7.97548 234C10.011 234 11.6228 232.612 12.1188 230.909C13.5446 231.857 15.4664 231.908 17.0266 230.96L17.8015 231.766C18.1942 232.163 18.8245 232.163 19.2481 231.766C19.6614 231.378 19.6924 230.725 19.3101 230.317L18.5351 229.511C19.5684 227.991 19.5994 226.062 18.7211 224.593C20.4466 224.216 21.9138 222.644 21.9965 220.563C22.1205 217.39 18.9381 215.431 16.2724 217.033L12.8833 219.073C12.78 218.93 12.6664 218.798 12.5424 218.665C11.6331 217.706 10.3313 217.318 9.09137 217.492C9.09137 217.369 9.10171 217.237 9.12237 217.104C9.1947 216.594 9.39101 216.125 9.77331 215.747C10.1969 215.349 10.2176 214.707 9.8353 214.298C9.44267 213.901 8.8124 213.901 8.38877 214.298C7.56219 215.094 7.21089 216.064 7.0869 216.9C7.01457 217.431 7.0249 217.941 7.0869 218.359C6.97324 218.441 6.85959 218.543 6.74593 218.655C6.63227 218.757 6.52895 218.869 6.43596 218.982C6.02266 218.9 5.51638 218.859 4.9791 218.91C4.14218 218.992 3.1606 219.288 2.33401 220.083C1.91039 220.481 1.88972 221.124 2.27202 221.532C2.66465 221.93 3.29492 221.93 3.71855 221.532C4.11118 221.165 4.5968 220.991 5.09275 220.94C5.22707 220.94 5.36139 220.92 5.48538 220.94C5.2374 222.185 5.57837 223.512 6.48762 224.471C6.59094 224.573 6.68394 224.664 6.79759 224.756L6.3843 225.348C6.21898 225.593 6.16732 225.868 6.21898 226.123L6.33263 226.695C6.36363 226.848 6.3223 227.011 6.23964 227.134C6.10532 227.338 5.98133 227.378 5.78502 227.419L5.10308 227.562C4.79311 227.623 4.51414 227.817 4.32816 228.103C3.94586 228.674 4.09051 229.429 4.64846 229.786C5.20641 230.143 5.96067 229.97 6.34297 229.399C6.52895 229.113 6.59094 228.786 6.52895 228.48L6.39463 227.807C6.3533 227.613 6.3533 227.47 6.47729 227.276C6.55995 227.144 6.68394 227.052 6.83892 227.011L7.4072 226.878C7.66551 226.817 7.89282 226.654 8.04781 226.409L8.32678 225.981L9.95929 228.98C10.6826 230.327 9.61832 232.01 8.02714 232.01C7.57252 232.01 7.07656 231.766 6.66327 231.449ZM11.1475 225.583L11.8604 227.031C12.7284 226.858 14.1336 226.164 14.7845 224.144L13.4413 223.389L12.2944 224.491L11.1578 225.583H11.1475ZM16.448 228.868C15.3734 229.898 13.7409 229.817 12.842 228.817C14.1542 228.348 15.6731 227.276 16.51 225.185C17.5122 226.134 17.5536 227.817 16.448 228.868ZM10.8995 223.032C11.7365 222.226 11.7985 220.93 11.0235 220.124C10.2693 219.318 8.96739 219.308 8.13046 220.114C7.29354 220.92 7.23155 222.216 8.00648 223.022C8.76074 223.828 10.0626 223.838 10.8995 223.032ZM14.1749 220.583L17.1609 218.798C18.5041 217.982 20.0953 218.961 20.0333 220.563C19.9713 222.165 18.2768 223.154 17.006 222.359L14.1749 220.583Z" fill="#2A2C35"/>
<path fill-rule="evenodd" clip-rule="evenodd" d="M75.9268 215H76.0732C77.8966 215 79.3664 215 80.5223 215.155C81.7225 215.317 82.733 215.662 83.5355 216.464C84.3381 217.267 84.6833 218.278 84.8446 219.478C85.0001 220.634 85 222.103 85 223.927V224.073C85 225.897 85.0001 227.366 84.8446 228.522C84.6833 229.722 84.3381 230.733 83.5355 231.536C82.733 232.338 81.7225 232.683 80.5223 232.845C79.3664 233 77.8966 233 76.0731 233H75.9269C74.1034 233 72.6336 233 71.4777 232.845C70.2775 232.683 69.267 232.338 68.4645 231.536C67.6619 230.733 67.3167 229.722 67.1554 228.522C67 227.366 67 225.897 67 224.073V223.927C67 222.103 67 220.634 67.1554 219.478C67.3167 218.278 67.6619 217.267 68.4645 216.464C69.267 215.662 70.2775 215.317 71.4777 215.155C72.6336 215 74.1034 215 75.9268 215ZM69 224C69 225.914 69.0021 227.249 69.1375 228.256C69.2691 229.234 69.5097 229.752 69.8787 230.121C70.2477 230.49 70.7658 230.731 71.7442 230.862C72.7513 230.998 74.0861 231 76 231C77.9139 231 79.2487 230.998 80.2558 230.862C81.2342 230.731 81.7523 230.49 82.1213 230.121C82.4903 229.752 82.7309 229.234 82.8625 228.256C82.9979 227.249 83 225.914 83 224C83 222.086 82.9979 220.751 82.8625 219.744C82.7309 218.766 82.4903 218.248 82.1213 217.879C81.7523 217.51 81.2342 217.269 80.2558 217.138C79.2487 217.002 77.9139 217 76 217C74.0861 217 72.7513 217.002 71.7442 217.138C70.7658 217.269 70.2477 217.51 69.8787 217.879C69.5097 218.248 69.2691 218.766 69.1375 219.744C69.0021 220.751 69 222.086 69 224Z" fill="#2A2C35"/>
<path d="M148.851 226.546C148.69 226.445 148.507 226.386 148.317 226.375C148.128 226.363 147.939 226.4 147.767 226.482C147.531 226.594 147.27 226.643 147.009 226.623C146.748 226.604 146.497 226.516 146.281 226.37C146.064 226.223 145.89 226.022 145.775 225.788C145.66 225.553 145.608 225.292 145.625 225.031C145.65 224.67 145.804 224.33 146.059 224.072C146.313 223.814 146.651 223.655 147.012 223.625C147.27 223.606 147.529 223.654 147.762 223.766C147.934 223.848 148.123 223.886 148.313 223.875C148.503 223.864 148.687 223.806 148.848 223.705C149.009 223.603 149.142 223.463 149.234 223.297C149.326 223.13 149.375 222.943 149.375 222.753V218.75C149.375 218.253 149.177 217.776 148.826 217.424C148.474 217.073 147.997 216.875 147.5 216.875H144.5C144.499 216.363 144.394 215.856 144.19 215.386C143.987 214.916 143.69 214.492 143.317 214.141C142.944 213.789 142.502 213.517 142.019 213.343C141.536 213.17 141.022 213.098 140.51 213.133C139.606 213.192 138.755 213.576 138.112 214.213C137.468 214.85 137.077 215.698 137.009 216.601C137 216.694 137 216.781 137 216.875H134C133.503 216.875 133.026 217.073 132.674 217.424C132.322 217.776 132.125 218.253 132.125 218.75V221.375C131.613 221.376 131.106 221.481 130.636 221.685C130.166 221.888 129.742 222.185 129.391 222.558C128.906 223.075 128.577 223.718 128.443 224.414C128.308 225.109 128.374 225.829 128.631 226.489C128.889 227.149 129.328 227.723 129.898 228.143C130.469 228.564 131.146 228.814 131.853 228.866C131.943 228.873 132.034 228.877 132.125 228.875V231.5C132.125 231.997 132.322 232.474 132.674 232.826C133.026 233.177 133.503 233.375 134 233.375H147.5C147.997 233.375 148.474 233.177 148.826 232.826C149.177 232.474 149.375 231.997 149.375 231.5V227.498C149.375 227.308 149.327 227.121 149.235 226.955C149.144 226.788 149.011 226.648 148.851 226.546ZM147.125 231.125H134.375V227.498C134.375 227.308 134.327 227.121 134.235 226.955C134.144 226.789 134.011 226.648 133.851 226.547C133.69 226.445 133.507 226.386 133.317 226.375C133.128 226.363 132.939 226.4 132.767 226.482C132.532 226.595 132.272 226.644 132.012 226.625C131.652 226.595 131.315 226.437 131.06 226.18C130.806 225.924 130.652 225.585 130.625 225.224C130.608 224.963 130.659 224.703 130.773 224.468C130.888 224.232 131.062 224.031 131.278 223.884C131.494 223.737 131.745 223.649 132.006 223.629C132.267 223.609 132.528 223.657 132.764 223.769C132.936 223.852 133.126 223.889 133.315 223.878C133.505 223.867 133.689 223.808 133.85 223.706C134.011 223.605 134.144 223.464 134.235 223.297C134.327 223.131 134.375 222.943 134.375 222.753V219.125H138.378C138.568 219.125 138.754 219.077 138.921 218.985C139.087 218.893 139.227 218.761 139.328 218.601C139.43 218.44 139.489 218.257 139.5 218.067C139.512 217.878 139.475 217.689 139.393 217.517C139.28 217.282 139.231 217.022 139.25 216.763C139.28 216.402 139.438 216.065 139.694 215.81C139.951 215.556 140.29 215.402 140.651 215.375C140.911 215.358 141.172 215.409 141.407 215.523C141.642 215.637 141.843 215.811 141.991 216.027C142.138 216.244 142.226 216.494 142.246 216.755C142.266 217.016 142.218 217.277 142.106 217.513C142.024 217.685 141.987 217.875 141.998 218.065C142.009 218.255 142.068 218.439 142.169 218.6C142.271 218.761 142.411 218.894 142.578 218.986C142.745 219.077 142.932 219.125 143.123 219.125H147.125V221.375C147.031 221.375 146.944 221.375 146.853 221.385C145.886 221.457 144.984 221.901 144.337 222.624C143.69 223.346 143.348 224.292 143.383 225.261C143.419 226.23 143.828 227.148 144.526 227.822C145.223 228.496 146.155 228.873 147.125 228.875V231.125Z" fill="#2A2C35"/>
<path d="M208.688 214.625C206.804 214.625 205.132 215.368 204 216.646C202.868 215.368 201.196 214.625 199.312 214.625C197.672 214.627 196.099 215.28 194.939 216.439C193.78 217.599 193.127 219.172 193.125 220.812C193.125 227.594 203.045 233.013 203.467 233.241C203.631 233.329 203.814 233.375 204 233.375C204.186 233.375 204.369 233.329 204.533 233.241C204.955 233.013 214.875 227.594 214.875 220.812C214.873 219.172 214.22 217.599 213.061 216.439C211.901 215.28 210.328 214.627 208.688 214.625ZM208.173 227.971C206.867 229.079 205.471 230.076 204 230.953C202.529 230.076 201.133 229.079 199.827 227.971C197.796 226.228 195.375 223.571 195.375 220.812C195.375 219.768 195.79 218.767 196.528 218.028C197.267 217.29 198.268 216.875 199.312 216.875C200.981 216.875 202.378 217.756 202.958 219.176C203.043 219.383 203.187 219.56 203.373 219.684C203.558 219.809 203.777 219.875 204 219.875C204.223 219.875 204.442 219.809 204.627 219.684C204.813 219.56 204.957 219.383 205.042 219.176C205.622 217.756 207.019 216.875 208.688 216.875C209.732 216.875 210.733 217.29 211.472 218.028C212.21 218.767 212.625 219.768 212.625 220.812C212.625 223.571 210.204 226.228 208.173 227.971Z" fill="#2A2C35"/>
<path fill-rule="evenodd" clip-rule="evenodd" d="M6.44234 371.966C6.20125 371.782 5.84995 371.714 5.59509 371.878C5.22312 372.123 5.1198 372.626 5.46421 372.912C5.96705 373.34 6.64899 373.667 7.31715 373.667C8.67413 373.667 9.7487 372.742 10.0793 371.606C11.0299 372.238 12.3111 372.272 13.3512 371.64L13.8679 372.177C14.1296 372.442 14.5498 372.442 14.8322 372.177C15.1077 371.919 15.1284 371.483 14.8735 371.211L14.3569 370.674C15.0458 369.66 15.0664 368.375 14.4809 367.395C15.6313 367.144 16.6094 366.096 16.6645 364.709C16.7471 362.593 14.6256 361.287 12.8484 362.355L10.5891 363.715C10.5202 363.62 10.4444 363.532 10.3617 363.443C9.75558 362.804 8.88767 362.546 8.06108 362.661C8.06108 362.58 8.06797 362.491 8.08174 362.403C8.12996 362.063 8.26084 361.75 8.5157 361.498C8.79812 361.233 8.8119 360.804 8.55703 360.532C8.29528 360.267 7.8751 360.267 7.59268 360.532C7.04162 361.063 6.80742 361.709 6.72476 362.267C6.67654 362.62 6.68343 362.96 6.72476 363.239C6.64899 363.294 6.57322 363.362 6.49745 363.437C6.42168 363.505 6.3528 363.579 6.2908 363.654C6.01527 363.6 5.67775 363.573 5.31956 363.607C4.76161 363.661 4.10723 363.858 3.55617 364.389C3.27375 364.654 3.25998 365.083 3.51484 365.355C3.7766 365.62 4.19678 365.62 4.4792 365.355C4.74095 365.11 5.0647 364.994 5.39533 364.96C5.48488 364.96 5.57443 364.947 5.65708 364.96C5.49177 365.79 5.71908 366.674 6.32524 367.314C6.39413 367.382 6.45612 367.443 6.53189 367.504L6.25636 367.899C6.14615 368.062 6.11171 368.246 6.14615 368.416L6.22192 368.796C6.24258 368.898 6.21503 369.007 6.15993 369.089C6.07038 369.225 5.98772 369.252 5.85684 369.279L5.40222 369.375C5.19557 369.415 5.00959 369.545 4.8856 369.735C4.63074 370.116 4.72717 370.619 5.09914 370.857C5.4711 371.095 5.97394 370.98 6.22881 370.599C6.3528 370.408 6.39413 370.191 6.3528 369.987L6.26325 369.538C6.2357 369.409 6.2357 369.313 6.31836 369.184C6.37346 369.096 6.45612 369.035 6.55944 369.007L6.9383 368.919C7.1105 368.878 7.26204 368.769 7.36537 368.606L7.55135 368.32L8.63969 370.32C9.12187 371.218 8.41238 372.34 7.35159 372.34C7.04851 372.34 6.71787 372.177 6.44234 371.966ZM9.43184 368.055L9.90713 369.021C10.4857 368.905 11.4225 368.443 11.8565 367.096L10.961 366.593L10.1964 367.327L9.43873 368.055H9.43184ZM12.9655 370.245C12.2491 370.932 11.1608 370.878 10.5615 370.211C11.4363 369.898 12.4489 369.184 13.0068 367.79C13.675 368.422 13.7025 369.545 12.9655 370.245ZM9.26652 366.355C9.82447 365.817 9.8658 364.953 9.34918 364.416C8.84634 363.879 7.97842 363.872 7.42047 364.409C6.86253 364.947 6.8212 365.81 7.33781 366.348C7.84066 366.885 8.70857 366.892 9.26652 366.355ZM11.4501 364.722L13.4408 363.532C14.3363 362.988 15.3971 363.641 15.3557 364.709C15.3144 365.776 14.1847 366.436 13.3375 365.906L11.4501 364.722Z" fill="#2A2C35"/>
<path fill-rule="evenodd" clip-rule="evenodd" d="M57.6633 374.449C57.3016 374.174 56.7747 374.072 56.3924 374.317C55.8344 374.684 55.6795 375.439 56.1961 375.867C56.9503 376.51 57.9732 377 58.9755 377C61.011 377 62.6228 375.612 63.1188 373.909C64.5446 374.857 66.4664 374.908 68.0266 373.96L68.8015 374.766C69.1942 375.163 69.8245 375.163 70.2481 374.766C70.6614 374.378 70.6924 373.725 70.3101 373.317L69.5351 372.511C70.5684 370.991 70.5994 369.062 69.7211 367.593C71.4466 367.216 72.9138 365.644 72.9965 363.563C73.1205 360.39 69.9381 358.431 67.2724 360.033L63.8833 362.073C63.78 361.93 63.6664 361.798 63.5424 361.665C62.6331 360.706 61.3313 360.318 60.0914 360.492C60.0914 360.369 60.1017 360.237 60.1224 360.104C60.1947 359.594 60.391 359.125 60.7733 358.747C61.1969 358.349 61.2176 357.707 60.8353 357.298C60.4427 356.901 59.8124 356.901 59.3888 357.298C58.5622 358.094 58.2109 359.064 58.0869 359.9C58.0146 360.431 58.0249 360.941 58.0869 361.359C57.9732 361.441 57.8596 361.543 57.7459 361.655C57.6323 361.757 57.529 361.869 57.436 361.982C57.0227 361.9 56.5164 361.859 55.9791 361.91C55.1422 361.992 54.1606 362.288 53.334 363.083C52.9104 363.481 52.8897 364.124 53.272 364.532C53.6646 364.93 54.2949 364.93 54.7185 364.532C55.1112 364.165 55.5968 363.991 56.0928 363.94C56.2271 363.94 56.3614 363.92 56.4854 363.94C56.2374 365.185 56.5784 366.512 57.4876 367.471C57.5909 367.573 57.6839 367.664 57.7976 367.756L57.3843 368.348C57.219 368.593 57.1673 368.868 57.219 369.123L57.3326 369.695C57.3636 369.848 57.3223 370.011 57.2396 370.134C57.1053 370.338 56.9813 370.378 56.785 370.419L56.1031 370.562C55.7931 370.623 55.5141 370.817 55.3282 371.103C54.9459 371.674 55.0905 372.429 55.6485 372.786C56.2064 373.143 56.9607 372.97 57.343 372.399C57.5289 372.113 57.5909 371.786 57.5289 371.48L57.3946 370.807C57.3533 370.613 57.3533 370.47 57.4773 370.276C57.5599 370.144 57.6839 370.052 57.8389 370.011L58.4072 369.878C58.6655 369.817 58.8928 369.654 59.0478 369.409L59.3268 368.981L60.9593 371.98C61.6826 373.327 60.6183 375.01 59.0271 375.01C58.5725 375.01 58.0766 374.766 57.6633 374.449ZM62.1475 368.583L62.8604 370.031C63.7284 369.858 65.1336 369.164 65.7845 367.144L64.4413 366.389L63.2944 367.491L62.1578 368.583H62.1475ZM67.448 371.868C66.3734 372.898 64.7409 372.817 63.842 371.817C65.1542 371.348 66.6731 370.276 67.51 368.185C68.5122 369.134 68.5536 370.817 67.448 371.868ZM61.8995 366.032C62.7365 365.226 62.7985 363.93 62.0235 363.124C61.2693 362.318 59.9674 362.308 59.1305 363.114C58.2935 363.92 58.2315 365.216 59.0065 366.022C59.7607 366.828 61.0626 366.838 61.8995 366.032ZM65.1749 363.583L68.1609 361.798C69.5041 360.982 71.0953 361.961 71.0333 363.563C70.9713 365.165 69.2768 366.154 68.006 365.359L65.1749 363.583Z" fill="#2A2C35"/>
<path fill-rule="evenodd" clip-rule="evenodd" d="M118.884 376.932C118.402 376.565 117.699 376.429 117.19 376.756C116.446 377.245 116.239 378.252 116.928 378.823C117.934 379.68 119.297 380.333 120.634 380.333C123.348 380.333 125.497 378.483 126.158 376.211C128.059 377.477 130.622 377.545 132.702 376.28L133.735 377.354C134.259 377.885 135.099 377.885 135.664 377.354C136.215 376.837 136.256 375.967 135.747 375.422L134.713 374.348C136.091 372.321 136.132 369.75 134.961 367.791C137.262 367.287 139.218 365.192 139.328 362.417C139.494 358.187 135.251 355.575 131.696 357.71L127.178 360.431C127.04 360.241 126.888 360.064 126.723 359.887C125.511 358.608 123.775 358.091 122.122 358.323C122.122 358.159 122.135 357.983 122.163 357.806C122.259 357.125 122.521 356.5 123.031 355.996C123.596 355.466 123.623 354.609 123.114 354.065C122.59 353.534 121.75 353.534 121.185 354.065C120.083 355.126 119.614 356.418 119.449 357.534C119.353 358.241 119.366 358.921 119.449 359.479C119.297 359.588 119.146 359.724 118.994 359.873C118.843 360.009 118.705 360.159 118.581 360.309C118.03 360.2 117.355 360.146 116.639 360.214C115.523 360.322 114.214 360.717 113.112 361.778C112.547 362.309 112.519 363.166 113.029 363.71C113.553 364.24 114.393 364.24 114.958 363.71C115.481 363.22 116.129 362.989 116.79 362.921C116.969 362.921 117.148 362.893 117.314 362.921C116.983 364.58 117.438 366.349 118.65 367.628C118.788 367.764 118.912 367.886 119.063 368.008L118.512 368.797C118.292 369.124 118.223 369.491 118.292 369.831L118.443 370.593C118.485 370.797 118.43 371.015 118.319 371.178C118.14 371.45 117.975 371.505 117.713 371.559L116.804 371.749C116.391 371.831 116.019 372.09 115.771 372.47C115.261 373.232 115.454 374.239 116.198 374.715C116.942 375.191 117.947 374.96 118.457 374.198C118.705 373.817 118.788 373.382 118.705 372.974L118.526 372.076C118.471 371.817 118.471 371.627 118.636 371.369C118.746 371.192 118.912 371.069 119.118 371.015L119.876 370.838C120.221 370.756 120.524 370.539 120.73 370.212L121.102 369.641L123.279 373.64C124.243 375.436 122.824 377.681 120.703 377.681C120.097 377.681 119.435 377.354 118.884 376.932ZM124.863 369.11L125.814 371.042C126.971 370.811 128.845 369.886 129.713 367.192L127.922 366.186L126.392 367.655L124.877 369.11H124.863ZM131.931 373.491C130.498 374.865 128.321 374.756 127.123 373.423C128.872 372.797 130.897 371.369 132.013 368.58C133.349 369.845 133.405 372.09 131.931 373.491ZM124.533 365.709C125.648 364.635 125.731 362.907 124.698 361.832C123.692 360.758 121.956 360.744 120.84 361.819C119.725 362.893 119.642 364.621 120.675 365.696C121.681 366.771 123.417 366.784 124.533 365.709ZM128.9 362.445L132.881 360.064C134.672 358.976 136.794 360.282 136.711 362.417C136.628 364.553 134.369 365.873 132.674 364.812L128.9 362.445Z" fill="#2A2C35"/>
<path fill-rule="evenodd" clip-rule="evenodd" d="M186.106 379.415C185.503 378.956 184.625 378.786 183.987 379.194C183.058 379.807 182.799 381.065 183.66 381.779C184.917 382.85 186.622 383.667 188.293 383.667C191.685 383.667 194.371 381.354 195.198 378.514C197.575 380.096 200.778 380.181 203.378 378.599L204.669 379.943C205.324 380.606 206.374 380.606 207.08 379.943C207.769 379.296 207.821 378.208 207.184 377.528L205.892 376.185C207.614 373.651 207.666 370.437 206.202 367.988C209.078 367.359 211.523 364.74 211.661 361.271C211.868 355.983 206.564 352.718 202.121 355.388L196.472 358.789C196.3 358.551 196.111 358.33 195.904 358.109C194.389 356.51 192.219 355.864 190.152 356.153C190.152 355.949 190.17 355.728 190.204 355.507C190.325 354.657 190.652 353.874 191.289 353.245C191.995 352.582 192.029 351.511 191.392 350.831C190.738 350.167 189.687 350.167 188.981 350.831C187.604 352.157 187.018 353.772 186.812 355.167C186.691 356.051 186.708 356.901 186.812 357.598C186.622 357.735 186.433 357.905 186.243 358.092C186.054 358.262 185.882 358.449 185.727 358.636C185.038 358.5 184.194 358.432 183.299 358.517C181.904 358.653 180.268 359.146 178.89 360.472C178.184 361.135 178.15 362.207 178.787 362.887C179.441 363.55 180.492 363.55 181.198 362.887C181.852 362.275 182.661 361.986 183.488 361.901C183.712 361.901 183.936 361.867 184.142 361.901C183.729 363.975 184.297 366.186 185.813 367.784C185.985 367.954 186.14 368.107 186.329 368.26L185.641 369.247C185.365 369.655 185.279 370.114 185.365 370.539L185.555 371.491C185.606 371.746 185.537 372.018 185.4 372.222C185.176 372.563 184.969 372.631 184.642 372.699L183.505 372.937C182.989 373.039 182.524 373.362 182.214 373.838C181.577 374.79 181.818 376.049 182.748 376.644C183.678 377.239 184.935 376.95 185.572 375.997C185.882 375.521 185.985 374.977 185.882 374.467L185.658 373.345C185.589 373.022 185.589 372.784 185.796 372.461C185.933 372.239 186.14 372.086 186.398 372.018L187.345 371.797C187.776 371.695 188.155 371.423 188.413 371.015L188.878 370.301L191.599 375.3C192.804 377.545 191.031 380.351 188.379 380.351C187.621 380.351 186.794 379.943 186.106 379.415ZM193.579 369.638L194.768 372.052C196.214 371.763 198.556 370.607 199.641 367.24L197.402 365.982L195.491 367.818L193.597 369.638H193.579ZM202.414 375.113C200.623 376.831 197.902 376.695 196.404 375.028C198.591 374.246 201.122 372.461 202.517 368.975C204.187 370.556 204.256 373.362 202.414 375.113ZM193.166 365.387C194.561 364.043 194.664 361.884 193.373 360.54C192.116 359.197 189.946 359.18 188.551 360.523C187.156 361.867 187.053 364.026 188.344 365.37C189.601 366.713 191.771 366.73 193.166 365.387ZM198.625 361.305L203.602 358.33C205.84 356.969 208.492 358.602 208.389 361.271C208.286 363.941 205.462 365.591 203.343 364.264L198.625 361.305Z" fill="#2A2C35"/>
<rect x="175" y="347" width="40" height="40" stroke="#9747FF" stroke-dasharray="1 1"/>
<path d="M175 340H215" stroke="#9747FF"/>
<path d="M175 337V343" stroke="#9747FF"/>
<path d="M215 337V343" stroke="#9747FF"/>
<rect x="110" y="351" width="32" height="32" stroke="#9747FF" stroke-dasharray="1 1"/>
<path d="M110 344H142" stroke="#9747FF"/>
<path d="M110 341V347" stroke="#9747FF"/>
<path d="M142 341V347" stroke="#9747FF"/>
<rect x="51" y="355" width="24" height="24" stroke="#9747FF" stroke-dasharray="1 1"/>
<path d="M51 348H75" stroke="#9747FF"/>
<path d="M51 345V351" stroke="#9747FF"/>
<path d="M75 345V351" stroke="#9747FF"/>
<rect x="2" y="359" width="16" height="16" stroke="#9747FF" stroke-dasharray="1 1"/>
<path d="M2 352H18" stroke="#9747FF"/>
<path d="M2 349V355" stroke="#9747FF"/>
<path d="M18 349V355" stroke="#9747FF"/>
</svg>
