<svg width="600" height="285" viewBox="0 0 600 285" fill="none" xmlns="http://www.w3.org/2000/svg">
<path d="M0 24C0 12.6863 0 7.02944 3.51472 3.51472C7.02944 0 12.6863 0 24 0H576C587.314 0 592.971 0 596.485 3.51472C600 7.02944 600 12.6863 600 24C600 35.3137 600 40.9706 596.485 44.4853C592.971 48 587.314 48 576 48H24C12.6863 48 7.02944 48 3.51472 44.4853C0 40.9706 0 35.3137 0 24Z" fill="#15161A"/>
<path d="M17.216 30V18.8H19.056V30H17.216ZM24.336 30V18.8H26.176V30H24.336ZM18.48 25.04V23.36H24.736V25.04H18.48ZM31.9346 30.16C31.1666 30.16 30.4733 29.9893 29.8546 29.648C29.2466 29.296 28.7613 28.816 28.3986 28.208C28.0466 27.6 27.8706 26.9173 27.8706 26.16C27.8706 25.4027 28.0466 24.7253 28.3986 24.128C28.7506 23.52 29.2253 23.04 29.8226 22.688C30.4306 22.336 31.1026 22.16 31.8386 22.16C32.5533 22.16 33.1826 22.3253 33.7266 22.656C34.2813 22.9867 34.7133 23.44 35.0226 24.016C35.3426 24.592 35.5026 25.248 35.5026 25.984C35.5026 26.112 35.492 26.2453 35.4706 26.384C35.46 26.512 35.4386 26.656 35.4066 26.816H29.1026V25.376H34.4946L33.8386 25.952C33.8173 25.4827 33.7266 25.088 33.5666 24.768C33.4066 24.448 33.1773 24.2027 32.8786 24.032C32.5906 23.8613 32.2333 23.776 31.8066 23.776C31.3586 23.776 30.9693 23.872 30.6386 24.064C30.308 24.256 30.052 24.528 29.8706 24.88C29.6893 25.2213 29.5986 25.632 29.5986 26.112C29.5986 26.592 29.6946 27.0133 29.8866 27.376C30.0786 27.7387 30.3506 28.0213 30.7026 28.224C31.0546 28.416 31.46 28.512 31.9186 28.512C32.3133 28.512 32.676 28.4427 33.0066 28.304C33.348 28.1653 33.636 27.9627 33.8706 27.696L34.9906 28.832C34.6173 29.2693 34.164 29.6 33.6306 29.824C33.0973 30.048 32.532 30.16 31.9346 30.16ZM40.1295 30.16C39.4362 30.16 38.8068 29.984 38.2415 29.632C37.6868 29.28 37.2442 28.8053 36.9135 28.208C36.5935 27.6 36.4335 26.9227 36.4335 26.176C36.4335 25.4187 36.5935 24.7413 36.9135 24.144C37.2442 23.536 37.6868 23.056 38.2415 22.704C38.8068 22.3413 39.4362 22.16 40.1295 22.16C40.7162 22.16 41.2335 22.288 41.6815 22.544C42.1402 22.7893 42.5028 23.1307 42.7695 23.568C43.0362 24.0053 43.1695 24.5013 43.1695 25.056V27.264C43.1695 27.8187 43.0362 28.3147 42.7695 28.752C42.5135 29.1893 42.1562 29.536 41.6975 29.792C41.2388 30.0373 40.7162 30.16 40.1295 30.16ZM40.4175 28.496C41.0682 28.496 41.5908 28.2773 41.9855 27.84C42.3908 27.4027 42.5935 26.8427 42.5935 26.16C42.5935 25.7013 42.5028 25.296 42.3215 24.944C42.1402 24.592 41.8842 24.32 41.5535 24.128C41.2335 23.9253 40.8548 23.824 40.4175 23.824C39.9908 23.824 39.6122 23.9253 39.2815 24.128C38.9615 24.32 38.7055 24.592 38.5135 24.944C38.3322 25.296 38.2415 25.7013 38.2415 26.16C38.2415 26.6187 38.3322 27.024 38.5135 27.376C38.7055 27.728 38.9615 28.0053 39.2815 28.208C39.6122 28.4 39.9908 28.496 40.4175 28.496ZM42.4815 30V27.936L42.7855 26.064L42.4815 24.208V22.32H44.2415V30H42.4815ZM49.4108 30.16C48.7174 30.16 48.0881 29.984 47.5228 29.632C46.9681 29.28 46.5254 28.8053 46.1948 28.208C45.8748 27.6 45.7148 26.9227 45.7148 26.176C45.7148 25.4187 45.8748 24.7413 46.1948 24.144C46.5254 23.536 46.9681 23.056 47.5228 22.704C48.0881 22.3413 48.7174 22.16 49.4108 22.16C49.9974 22.16 50.5148 22.288 50.9628 22.544C51.4214 22.7893 51.7841 23.1307 52.0508 23.568C52.3174 24.0053 52.4508 24.5013 52.4508 25.056V27.264C52.4508 27.8187 52.3174 28.3147 52.0508 28.752C51.7948 29.1893 51.4374 29.536 50.9788 29.792C50.5201 30.0373 49.9974 30.16 49.4108 30.16ZM49.6988 28.496C50.1361 28.496 50.5148 28.4 50.8348 28.208C51.1654 28.0053 51.4214 27.728 51.6028 27.376C51.7841 27.024 51.8748 26.6187 51.8748 26.16C51.8748 25.7013 51.7841 25.296 51.6028 24.944C51.4214 24.592 51.1654 24.32 50.8348 24.128C50.5148 23.9253 50.1361 23.824 49.6988 23.824C49.2721 23.824 48.8934 23.9253 48.5628 24.128C48.2428 24.32 47.9868 24.592 47.7948 24.944C47.6134 25.296 47.5228 25.7013 47.5228 26.16C47.5228 26.6187 47.6134 27.024 47.7948 27.376C47.9868 27.728 48.2428 28.0053 48.5628 28.208C48.8934 28.4 49.2721 28.496 49.6988 28.496ZM53.5228 30H51.7628V27.936L52.0668 26.064L51.7628 24.208V18.48H53.5228V30ZM59.044 30.16C58.276 30.16 57.5827 29.9893 56.964 29.648C56.356 29.296 55.8707 28.816 55.508 28.208C55.156 27.6 54.98 26.9173 54.98 26.16C54.98 25.4027 55.156 24.7253 55.508 24.128C55.86 23.52 56.3347 23.04 56.932 22.688C57.54 22.336 58.212 22.16 58.948 22.16C59.6627 22.16 60.292 22.3253 60.836 22.656C61.3907 22.9867 61.8227 23.44 62.132 24.016C62.452 24.592 62.612 25.248 62.612 25.984C62.612 26.112 62.6013 26.2453 62.58 26.384C62.5693 26.512 62.548 26.656 62.516 26.816H56.212V25.376H61.604L60.948 25.952C60.9267 25.4827 60.836 25.088 60.676 24.768C60.516 24.448 60.2867 24.2027 59.988 24.032C59.7 23.8613 59.3427 23.776 58.916 23.776C58.468 23.776 58.0787 23.872 57.748 24.064C57.4173 24.256 57.1613 24.528 56.98 24.88C56.7987 25.2213 56.708 25.632 56.708 26.112C56.708 26.592 56.804 27.0133 56.996 27.376C57.188 27.7387 57.46 28.0213 57.812 28.224C58.164 28.416 58.5693 28.512 59.028 28.512C59.4227 28.512 59.7853 28.4427 60.116 28.304C60.4573 28.1653 60.7453 27.9627 60.98 27.696L62.1 28.832C61.7267 29.2693 61.2733 29.6 60.74 29.824C60.2067 30.048 59.6413 30.16 59.044 30.16ZM64.0229 30V22.32H65.7829V30H64.0229ZM65.7829 25.728L65.1749 25.424C65.1749 24.4533 65.3882 23.6693 65.8149 23.072C66.2522 22.464 66.9082 22.16 67.7829 22.16C68.1669 22.16 68.5135 22.2293 68.8229 22.368C69.1322 22.5067 69.4202 22.7307 69.6869 23.04L68.5349 24.224C68.3962 24.0747 68.2415 23.968 68.0709 23.904C67.9002 23.84 67.7029 23.808 67.4789 23.808C66.9882 23.808 66.5829 23.9627 66.2629 24.272C65.9429 24.5813 65.7829 25.0667 65.7829 25.728Z" fill="#F1F2F4"/>
<path fill-rule="evenodd" clip-rule="evenodd" d="M571.75 19C572.302 19 572.75 19.4477 572.75 20V22.75H575.5C576.052 22.75 576.5 23.1977 576.5 23.75C576.5 24.3023 576.052 24.75 575.5 24.75H572.75V27.5C572.75 28.0523 572.302 28.5 571.75 28.5C571.198 28.5 570.75 28.0523 570.75 27.5V24.75H568C567.448 24.75 567 24.3023 567 23.75C567 23.1977 567.448 22.75 568 22.75H570.75V20C570.75 19.4477 571.198 19 571.75 19Z" fill="#F1F2F4"/>
<path d="M0 72C0 64.4575 0 60.6863 2.34315 58.3431C4.68629 56 8.45753 56 16 56H584C591.542 56 595.314 56 597.657 58.3431C600 60.6863 600 64.4575 600 72V104H0V72Z" fill="#181545"/>
<path d="M17.216 86V74.8H19.056V86H17.216ZM24.336 86V74.8H26.176V86H24.336ZM18.48 81.04V79.36H24.736V81.04H18.48ZM31.9346 86.16C31.1666 86.16 30.4733 85.9893 29.8546 85.648C29.2466 85.296 28.7613 84.816 28.3986 84.208C28.0466 83.6 27.8706 82.9173 27.8706 82.16C27.8706 81.4027 28.0466 80.7253 28.3986 80.128C28.7506 79.52 29.2253 79.04 29.8226 78.688C30.4306 78.336 31.1026 78.16 31.8386 78.16C32.5533 78.16 33.1826 78.3253 33.7266 78.656C34.2813 78.9867 34.7133 79.44 35.0226 80.016C35.3426 80.592 35.5026 81.248 35.5026 81.984C35.5026 82.112 35.492 82.2453 35.4706 82.384C35.46 82.512 35.4386 82.656 35.4066 82.816H29.1026V81.376H34.4946L33.8386 81.952C33.8173 81.4827 33.7266 81.088 33.5666 80.768C33.4066 80.448 33.1773 80.2027 32.8786 80.032C32.5906 79.8613 32.2333 79.776 31.8066 79.776C31.3586 79.776 30.9693 79.872 30.6386 80.064C30.308 80.256 30.052 80.528 29.8706 80.88C29.6893 81.2213 29.5986 81.632 29.5986 82.112C29.5986 82.592 29.6946 83.0133 29.8866 83.376C30.0786 83.7387 30.3506 84.0213 30.7026 84.224C31.0546 84.416 31.46 84.512 31.9186 84.512C32.3133 84.512 32.676 84.4427 33.0066 84.304C33.348 84.1653 33.636 83.9627 33.8706 83.696L34.9906 84.832C34.6173 85.2693 34.164 85.6 33.6306 85.824C33.0973 86.048 32.532 86.16 31.9346 86.16ZM40.1295 86.16C39.4362 86.16 38.8068 85.984 38.2415 85.632C37.6868 85.28 37.2442 84.8053 36.9135 84.208C36.5935 83.6 36.4335 82.9227 36.4335 82.176C36.4335 81.4187 36.5935 80.7413 36.9135 80.144C37.2442 79.536 37.6868 79.056 38.2415 78.704C38.8068 78.3413 39.4362 78.16 40.1295 78.16C40.7162 78.16 41.2335 78.288 41.6815 78.544C42.1402 78.7893 42.5028 79.1307 42.7695 79.568C43.0362 80.0053 43.1695 80.5013 43.1695 81.056V83.264C43.1695 83.8187 43.0362 84.3147 42.7695 84.752C42.5135 85.1893 42.1562 85.536 41.6975 85.792C41.2388 86.0373 40.7162 86.16 40.1295 86.16ZM40.4175 84.496C41.0682 84.496 41.5908 84.2773 41.9855 83.84C42.3908 83.4027 42.5935 82.8427 42.5935 82.16C42.5935 81.7013 42.5028 81.296 42.3215 80.944C42.1402 80.592 41.8842 80.32 41.5535 80.128C41.2335 79.9253 40.8548 79.824 40.4175 79.824C39.9908 79.824 39.6122 79.9253 39.2815 80.128C38.9615 80.32 38.7055 80.592 38.5135 80.944C38.3322 81.296 38.2415 81.7013 38.2415 82.16C38.2415 82.6187 38.3322 83.024 38.5135 83.376C38.7055 83.728 38.9615 84.0053 39.2815 84.208C39.6122 84.4 39.9908 84.496 40.4175 84.496ZM42.4815 86V83.936L42.7855 82.064L42.4815 80.208V78.32H44.2415V86H42.4815ZM49.4108 86.16C48.7174 86.16 48.0881 85.984 47.5228 85.632C46.9681 85.28 46.5254 84.8053 46.1948 84.208C45.8748 83.6 45.7148 82.9227 45.7148 82.176C45.7148 81.4187 45.8748 80.7413 46.1948 80.144C46.5254 79.536 46.9681 79.056 47.5228 78.704C48.0881 78.3413 48.7174 78.16 49.4108 78.16C49.9974 78.16 50.5148 78.288 50.9628 78.544C51.4214 78.7893 51.7841 79.1307 52.0508 79.568C52.3174 80.0053 52.4508 80.5013 52.4508 81.056V83.264C52.4508 83.8187 52.3174 84.3147 52.0508 84.752C51.7948 85.1893 51.4374 85.536 50.9788 85.792C50.5201 86.0373 49.9974 86.16 49.4108 86.16ZM49.6988 84.496C50.1361 84.496 50.5148 84.4 50.8348 84.208C51.1654 84.0053 51.4214 83.728 51.6028 83.376C51.7841 83.024 51.8748 82.6187 51.8748 82.16C51.8748 81.7013 51.7841 81.296 51.6028 80.944C51.4214 80.592 51.1654 80.32 50.8348 80.128C50.5148 79.9253 50.1361 79.824 49.6988 79.824C49.2721 79.824 48.8934 79.9253 48.5628 80.128C48.2428 80.32 47.9868 80.592 47.7948 80.944C47.6134 81.296 47.5228 81.7013 47.5228 82.16C47.5228 82.6187 47.6134 83.024 47.7948 83.376C47.9868 83.728 48.2428 84.0053 48.5628 84.208C48.8934 84.4 49.2721 84.496 49.6988 84.496ZM53.5228 86H51.7628V83.936L52.0668 82.064L51.7628 80.208V74.48H53.5228V86ZM59.044 86.16C58.276 86.16 57.5827 85.9893 56.964 85.648C56.356 85.296 55.8707 84.816 55.508 84.208C55.156 83.6 54.98 82.9173 54.98 82.16C54.98 81.4027 55.156 80.7253 55.508 80.128C55.86 79.52 56.3347 79.04 56.932 78.688C57.54 78.336 58.212 78.16 58.948 78.16C59.6627 78.16 60.292 78.3253 60.836 78.656C61.3907 78.9867 61.8227 79.44 62.132 80.016C62.452 80.592 62.612 81.248 62.612 81.984C62.612 82.112 62.6013 82.2453 62.58 82.384C62.5693 82.512 62.548 82.656 62.516 82.816H56.212V81.376H61.604L60.948 81.952C60.9267 81.4827 60.836 81.088 60.676 80.768C60.516 80.448 60.2867 80.2027 59.988 80.032C59.7 79.8613 59.3427 79.776 58.916 79.776C58.468 79.776 58.0787 79.872 57.748 80.064C57.4173 80.256 57.1613 80.528 56.98 80.88C56.7987 81.2213 56.708 81.632 56.708 82.112C56.708 82.592 56.804 83.0133 56.996 83.376C57.188 83.7387 57.46 84.0213 57.812 84.224C58.164 84.416 58.5693 84.512 59.028 84.512C59.4227 84.512 59.7853 84.4427 60.116 84.304C60.4573 84.1653 60.7453 83.9627 60.98 83.696L62.1 84.832C61.7267 85.2693 61.2733 85.6 60.74 85.824C60.2067 86.048 59.6413 86.16 59.044 86.16ZM64.0229 86V78.32H65.7829V86H64.0229ZM65.7829 81.728L65.1749 81.424C65.1749 80.4533 65.3882 79.6693 65.8149 79.072C66.2522 78.464 66.9082 78.16 67.7829 78.16C68.1669 78.16 68.5135 78.2293 68.8229 78.368C69.1322 78.5067 69.4202 78.7307 69.6869 79.04L68.5349 80.224C68.3962 80.0747 68.2415 79.968 68.0709 79.904C67.9002 79.84 67.7029 79.808 67.4789 79.808C66.9882 79.808 66.5829 79.9627 66.2629 80.272C65.9429 80.5813 65.7829 81.0667 65.7829 81.728Z" fill="#F1F2F4"/>
<path fill-rule="evenodd" clip-rule="evenodd" d="M567 79.75C567 79.1977 567.448 78.75 568 78.75H575.5C576.052 78.75 576.5 79.1977 576.5 79.75C576.5 80.3023 576.052 80.75 575.5 80.75H568C567.448 80.75 567 80.3023 567 79.75Z" fill="#F1F2F4"/>
<path d="M599.5 104.5V149C599.5 154.671 599.499 158.874 599.065 162.101C598.634 165.313 597.781 167.483 596.132 169.132C594.483 170.781 592.313 171.634 589.101 172.065C585.874 172.499 581.671 172.5 576 172.5H24C18.3291 172.5 14.1261 172.499 10.8994 172.065C7.68709 171.634 5.51714 170.781 3.86816 169.132C2.21919 167.483 1.36646 165.313 0.93457 162.101C0.500763 158.874 0.5 154.671 0.5 149V104.5H599.5Z" fill="#1C1D23"/>
<path d="M599.5 104.5V149C599.5 154.671 599.499 158.874 599.065 162.101C598.634 165.313 597.781 167.483 596.132 169.132C594.483 170.781 592.313 171.634 589.101 172.065C585.874 172.499 581.671 172.5 576 172.5H24C18.3291 172.5 14.1261 172.499 10.8994 172.065C7.68709 171.634 5.51714 170.781 3.86816 169.132C2.21919 167.483 1.36646 165.313 0.93457 162.101C0.500763 158.874 0.5 154.671 0.5 149V104.5H599.5Z" stroke="#1C1D23"/>
<path d="M573.9 120C573.9 120.055 573.945 120.1 574 120.1H576C576.644 120.1 577.233 120.1 577.772 120.105C577.827 120.106 577.871 120.063 577.873 120.009C579.288 120.026 580.359 120.087 581.197 120.3C581.184 120.352 581.216 120.406 581.269 120.421C581.886 120.591 582.364 120.849 582.758 121.242C583.151 121.636 583.409 122.114 583.579 122.731C583.593 122.784 583.647 122.815 583.699 122.802C583.913 123.64 583.973 124.711 583.99 126.126C583.936 126.128 583.894 126.173 583.895 126.228C583.9 126.767 583.9 127.356 583.9 128V129.75C583.9 129.805 583.945 129.85 584 129.85V133.15C583.945 133.15 583.9 133.195 583.9 133.25V136.75C583.9 136.805 583.945 136.85 584 136.85V140.15C583.945 140.15 583.9 140.195 583.9 140.25V143.75C583.9 143.805 583.945 143.85 584 143.85V147.15C583.945 147.15 583.9 147.195 583.9 147.25V149C583.9 149.644 583.9 150.233 583.895 150.772C583.894 150.827 583.936 150.871 583.99 150.873C583.973 152.288 583.912 153.359 583.699 154.197C583.647 154.185 583.593 154.216 583.579 154.269C583.431 154.809 583.215 155.243 582.899 155.606L582.758 155.758C582.364 156.151 581.886 156.409 581.269 156.579C581.216 156.593 581.185 156.647 581.197 156.699C580.359 156.912 579.288 156.973 577.873 156.99C577.871 156.936 577.827 156.894 577.772 156.895C577.233 156.9 576.644 156.9 576 156.9H574C573.945 156.9 573.9 156.945 573.9 157H570.1C570.1 156.945 570.055 156.9 570 156.9H566C565.945 156.9 565.9 156.945 565.9 157H562.1C562.1 156.945 562.055 156.9 562 156.9H558C557.945 156.9 557.9 156.945 557.9 157H554.1C554.1 156.945 554.055 156.9 554 156.9H550C549.945 156.9 549.9 156.945 549.9 157H546.1C546.1 156.945 546.055 156.9 546 156.9H542C541.945 156.9 541.9 156.945 541.9 157H538.1C538.1 156.945 538.055 156.9 538 156.9H534C533.945 156.9 533.9 156.945 533.9 157H530.1C530.1 156.945 530.055 156.9 530 156.9H526C525.945 156.9 525.9 156.945 525.9 157H522.1C522.1 156.945 522.055 156.9 522 156.9H518C517.945 156.9 517.9 156.945 517.9 157H514.1C514.1 156.945 514.055 156.9 514 156.9H510C509.945 156.9 509.9 156.945 509.9 157H506.1C506.1 156.945 506.055 156.9 506 156.9H502C501.945 156.9 501.9 156.945 501.9 157H498.1C498.1 156.945 498.055 156.9 498 156.9H494C493.945 156.9 493.9 156.945 493.9 157H490.1C490.1 156.945 490.055 156.9 490 156.9H486C485.945 156.9 485.9 156.945 485.9 157H482.1C482.1 156.945 482.055 156.9 482 156.9H478C477.945 156.9 477.9 156.945 477.9 157H474.1C474.1 156.945 474.055 156.9 474 156.9H470C469.945 156.9 469.9 156.945 469.9 157H466.1C466.1 156.945 466.055 156.9 466 156.9H462C461.945 156.9 461.9 156.945 461.9 157H458.1C458.1 156.945 458.055 156.9 458 156.9H454C453.945 156.9 453.9 156.945 453.9 157H450.1C450.1 156.945 450.055 156.9 450 156.9H446C445.945 156.9 445.9 156.945 445.9 157H442.1C442.1 156.945 442.055 156.9 442 156.9H438C437.945 156.9 437.9 156.945 437.9 157H434.1C434.1 156.945 434.055 156.9 434 156.9H430C429.945 156.9 429.9 156.945 429.9 157H426.1C426.1 156.945 426.055 156.9 426 156.9H422C421.945 156.9 421.9 156.945 421.9 157H418.1C418.1 156.945 418.055 156.9 418 156.9H414C413.945 156.9 413.9 156.945 413.9 157H410.1C410.1 156.945 410.055 156.9 410 156.9H406C405.945 156.9 405.9 156.945 405.9 157H402.1C402.1 156.945 402.055 156.9 402 156.9H398C397.945 156.9 397.9 156.945 397.9 157H394.1C394.1 156.945 394.055 156.9 394 156.9H390C389.945 156.9 389.9 156.945 389.9 157H386.1C386.1 156.945 386.055 156.9 386 156.9H382C381.945 156.9 381.9 156.945 381.9 157H378.1C378.1 156.945 378.055 156.9 378 156.9H374C373.945 156.9 373.9 156.945 373.9 157H370.1C370.1 156.945 370.055 156.9 370 156.9H366C365.945 156.9 365.9 156.945 365.9 157H362.1C362.1 156.945 362.055 156.9 362 156.9H358C357.945 156.9 357.9 156.945 357.9 157H354.1C354.1 156.945 354.055 156.9 354 156.9H350C349.945 156.9 349.9 156.945 349.9 157H346.1C346.1 156.945 346.055 156.9 346 156.9H342C341.945 156.9 341.9 156.945 341.9 157H338.1C338.1 156.945 338.055 156.9 338 156.9H334C333.945 156.9 333.9 156.945 333.9 157H330.1C330.1 156.945 330.055 156.9 330 156.9H326C325.945 156.9 325.9 156.945 325.9 157H322.1C322.1 156.945 322.055 156.9 322 156.9H318C317.945 156.9 317.9 156.945 317.9 157H314.1C314.1 156.945 314.055 156.9 314 156.9H310C309.945 156.9 309.9 156.945 309.9 157H306.1C306.1 156.945 306.055 156.9 306 156.9H302C301.945 156.9 301.9 156.945 301.9 157H298.1C298.1 156.945 298.055 156.9 298 156.9H294C293.945 156.9 293.9 156.945 293.9 157H290.1C290.1 156.945 290.055 156.9 290 156.9H286C285.945 156.9 285.9 156.945 285.9 157H282.1C282.1 156.945 282.055 156.9 282 156.9H278C277.945 156.9 277.9 156.945 277.9 157H274.1C274.1 156.945 274.055 156.9 274 156.9H270C269.945 156.9 269.9 156.945 269.9 157H266.1C266.1 156.945 266.055 156.9 266 156.9H262C261.945 156.9 261.9 156.945 261.9 157H258.1C258.1 156.945 258.055 156.9 258 156.9H254C253.945 156.9 253.9 156.945 253.9 157H250.1C250.1 156.945 250.055 156.9 250 156.9H246C245.945 156.9 245.9 156.945 245.9 157H242.1C242.1 156.945 242.055 156.9 242 156.9H238C237.945 156.9 237.9 156.945 237.9 157H234.1C234.1 156.945 234.055 156.9 234 156.9H230C229.945 156.9 229.9 156.945 229.9 157H226.1C226.1 156.945 226.055 156.9 226 156.9H222C221.945 156.9 221.9 156.945 221.9 157H218.1C218.1 156.945 218.055 156.9 218 156.9H214C213.945 156.9 213.9 156.945 213.9 157H210.1C210.1 156.945 210.055 156.9 210 156.9H206C205.945 156.9 205.9 156.945 205.9 157H202.1C202.1 156.945 202.055 156.9 202 156.9H198C197.945 156.9 197.9 156.945 197.9 157H194.1C194.1 156.945 194.055 156.9 194 156.9H190C189.945 156.9 189.9 156.945 189.9 157H186.1C186.1 156.945 186.055 156.9 186 156.9H182C181.945 156.9 181.9 156.945 181.9 157H178.1C178.1 156.945 178.055 156.9 178 156.9H174C173.945 156.9 173.9 156.945 173.9 157H170.1C170.1 156.945 170.055 156.9 170 156.9H166C165.945 156.9 165.9 156.945 165.9 157H162.1C162.1 156.945 162.055 156.9 162 156.9H158C157.945 156.9 157.9 156.945 157.9 157H154.1C154.1 156.945 154.055 156.9 154 156.9H150C149.945 156.9 149.9 156.945 149.9 157H146.1C146.1 156.945 146.055 156.9 146 156.9H142C141.945 156.9 141.9 156.945 141.9 157H138.1C138.1 156.945 138.055 156.9 138 156.9H134C133.945 156.9 133.9 156.945 133.9 157H130.1C130.1 156.945 130.055 156.9 130 156.9H126C125.945 156.9 125.9 156.945 125.9 157H122.1C122.1 156.945 122.055 156.9 122 156.9H118C117.945 156.9 117.9 156.945 117.9 157H114.1C114.1 156.945 114.055 156.9 114 156.9H110C109.945 156.9 109.9 156.945 109.9 157H106.1C106.1 156.945 106.055 156.9 106 156.9H102C101.945 156.9 101.9 156.945 101.9 157H98.0996C98.0996 156.945 98.0552 156.9 98 156.9H94C93.9448 156.9 93.9004 156.945 93.9004 157H90.0996C90.0996 156.945 90.0552 156.9 90 156.9H86C85.9448 156.9 85.9004 156.945 85.9004 157H82.0996C82.0996 156.945 82.0552 156.9 82 156.9H78C77.9448 156.9 77.9004 156.945 77.9004 157H74.0996C74.0996 156.945 74.0552 156.9 74 156.9H70C69.9448 156.9 69.9004 156.945 69.9004 157H66.0996C66.0996 156.945 66.0552 156.9 66 156.9H62C61.9448 156.9 61.9004 156.945 61.9004 157H58.0996C58.0996 156.945 58.0552 156.9 58 156.9H54C53.9448 156.9 53.9004 156.945 53.9004 157H50.0996C50.0996 156.945 50.0552 156.9 50 156.9H46C45.9448 156.9 45.9004 156.945 45.9004 157H42.0996C42.0996 156.945 42.0552 156.9 42 156.9H38C37.9448 156.9 37.9004 156.945 37.9004 157H34.0996C34.0996 156.945 34.0552 156.9 34 156.9H30C29.9448 156.9 29.9004 156.945 29.9004 157H26.0996C26.0996 156.945 26.0552 156.9 26 156.9H24C23.3556 156.9 22.7669 156.9 22.2275 156.895C22.1733 156.894 22.1281 156.936 22.126 156.99C20.7111 156.973 19.6396 156.913 18.8018 156.699C18.8145 156.647 18.7837 156.593 18.7314 156.579L18.5059 156.512C17.9954 156.343 17.5864 156.102 17.2422 155.758L17.1006 155.606C16.7852 155.243 16.5694 154.809 16.4209 154.269L16.4033 154.233C16.3796 154.203 16.3392 154.187 16.2998 154.197C16.0867 153.359 16.0262 152.288 16.0088 150.873C16.0631 150.871 16.1061 150.827 16.1055 150.772C16.0996 150.233 16.0996 149.644 16.0996 149V147.25C16.0996 147.195 16.0552 147.15 16 147.15V143.85C16.0413 143.85 16.0766 143.825 16.0918 143.789L16.0996 143.75V140.25C16.0996 140.195 16.0552 140.15 16 140.15V136.85C16.0413 136.85 16.0766 136.825 16.0918 136.789L16.0996 136.75V133.25C16.0996 133.195 16.0552 133.15 16 133.15V129.85C16.0413 129.85 16.0766 129.825 16.0918 129.789L16.0996 129.75V128L16.1055 126.228C16.1061 126.173 16.0631 126.128 16.0088 126.126C16.0263 124.711 16.0865 123.64 16.2998 122.802C16.3393 122.812 16.3796 122.797 16.4033 122.767L16.4209 122.731C16.5906 122.114 16.8487 121.636 17.2422 121.242C17.5864 120.898 17.9954 120.657 18.5059 120.488L18.7314 120.421C18.784 120.406 18.8151 120.352 18.8018 120.3C19.6396 120.087 20.7113 120.026 22.126 120.009C22.1276 120.063 22.1729 120.106 22.2275 120.105C22.7669 120.1 23.3556 120.1 24 120.1H26C26.0552 120.1 26.0996 120.055 26.0996 120H29.9004C29.9004 120.055 29.9448 120.1 30 120.1H34C34.0552 120.1 34.0996 120.055 34.0996 120H37.9004C37.9004 120.055 37.9448 120.1 38 120.1H42C42.0552 120.1 42.0996 120.055 42.0996 120H45.9004C45.9004 120.055 45.9448 120.1 46 120.1H50C50.0552 120.1 50.0996 120.055 50.0996 120H53.9004C53.9004 120.055 53.9448 120.1 54 120.1H58C58.0552 120.1 58.0996 120.055 58.0996 120H61.9004C61.9004 120.055 61.9448 120.1 62 120.1H66C66.0552 120.1 66.0996 120.055 66.0996 120H69.9004C69.9004 120.055 69.9448 120.1 70 120.1H74C74.0552 120.1 74.0996 120.055 74.0996 120H77.9004C77.9004 120.055 77.9448 120.1 78 120.1H82C82.0552 120.1 82.0996 120.055 82.0996 120H85.9004C85.9004 120.055 85.9448 120.1 86 120.1H90C90.0552 120.1 90.0996 120.055 90.0996 120H93.9004C93.9004 120.055 93.9448 120.1 94 120.1H98C98.0552 120.1 98.0996 120.055 98.0996 120H101.9C101.9 120.055 101.945 120.1 102 120.1H106C106.055 120.1 106.1 120.055 106.1 120H109.9C109.9 120.055 109.945 120.1 110 120.1H114C114.055 120.1 114.1 120.055 114.1 120H117.9C117.9 120.055 117.945 120.1 118 120.1H122C122.055 120.1 122.1 120.055 122.1 120H125.9C125.9 120.055 125.945 120.1 126 120.1H130C130.055 120.1 130.1 120.055 130.1 120H133.9C133.9 120.055 133.945 120.1 134 120.1H138C138.055 120.1 138.1 120.055 138.1 120H141.9C141.9 120.055 141.945 120.1 142 120.1H146C146.055 120.1 146.1 120.055 146.1 120H149.9C149.9 120.055 149.945 120.1 150 120.1H154C154.055 120.1 154.1 120.055 154.1 120H157.9C157.9 120.055 157.945 120.1 158 120.1H162C162.055 120.1 162.1 120.055 162.1 120H165.9C165.9 120.055 165.945 120.1 166 120.1H170C170.055 120.1 170.1 120.055 170.1 120H173.9C173.9 120.055 173.945 120.1 174 120.1H178C178.055 120.1 178.1 120.055 178.1 120H181.9C181.9 120.055 181.945 120.1 182 120.1H186C186.055 120.1 186.1 120.055 186.1 120H189.9C189.9 120.055 189.945 120.1 190 120.1H194C194.055 120.1 194.1 120.055 194.1 120H197.9C197.9 120.055 197.945 120.1 198 120.1H202C202.055 120.1 202.1 120.055 202.1 120H205.9C205.9 120.055 205.945 120.1 206 120.1H210C210.055 120.1 210.1 120.055 210.1 120H213.9C213.9 120.055 213.945 120.1 214 120.1H218C218.055 120.1 218.1 120.055 218.1 120H221.9C221.9 120.055 221.945 120.1 222 120.1H226C226.055 120.1 226.1 120.055 226.1 120H229.9C229.9 120.055 229.945 120.1 230 120.1H234C234.055 120.1 234.1 120.055 234.1 120H237.9C237.9 120.055 237.945 120.1 238 120.1H242C242.055 120.1 242.1 120.055 242.1 120H245.9C245.9 120.055 245.945 120.1 246 120.1H250C250.055 120.1 250.1 120.055 250.1 120H253.9C253.9 120.055 253.945 120.1 254 120.1H258C258.055 120.1 258.1 120.055 258.1 120H261.9C261.9 120.055 261.945 120.1 262 120.1H266C266.055 120.1 266.1 120.055 266.1 120H269.9C269.9 120.055 269.945 120.1 270 120.1H274C274.055 120.1 274.1 120.055 274.1 120H277.9C277.9 120.055 277.945 120.1 278 120.1H282C282.055 120.1 282.1 120.055 282.1 120H285.9C285.9 120.055 285.945 120.1 286 120.1H290C290.055 120.1 290.1 120.055 290.1 120H293.9C293.9 120.055 293.945 120.1 294 120.1H298C298.055 120.1 298.1 120.055 298.1 120H301.9C301.9 120.055 301.945 120.1 302 120.1H306C306.055 120.1 306.1 120.055 306.1 120H309.9C309.9 120.055 309.945 120.1 310 120.1H314C314.055 120.1 314.1 120.055 314.1 120H317.9C317.9 120.055 317.945 120.1 318 120.1H322C322.055 120.1 322.1 120.055 322.1 120H325.9C325.9 120.055 325.945 120.1 326 120.1H330C330.055 120.1 330.1 120.055 330.1 120H333.9C333.9 120.055 333.945 120.1 334 120.1H338C338.055 120.1 338.1 120.055 338.1 120H341.9C341.9 120.055 341.945 120.1 342 120.1H346C346.055 120.1 346.1 120.055 346.1 120H349.9C349.9 120.055 349.945 120.1 350 120.1H354C354.055 120.1 354.1 120.055 354.1 120H357.9C357.9 120.055 357.945 120.1 358 120.1H362C362.055 120.1 362.1 120.055 362.1 120H365.9C365.9 120.055 365.945 120.1 366 120.1H370C370.055 120.1 370.1 120.055 370.1 120H373.9C373.9 120.055 373.945 120.1 374 120.1H378C378.055 120.1 378.1 120.055 378.1 120H381.9C381.9 120.055 381.945 120.1 382 120.1H386C386.055 120.1 386.1 120.055 386.1 120H389.9C389.9 120.055 389.945 120.1 390 120.1H394C394.055 120.1 394.1 120.055 394.1 120H397.9C397.9 120.055 397.945 120.1 398 120.1H402C402.055 120.1 402.1 120.055 402.1 120H405.9C405.9 120.055 405.945 120.1 406 120.1H410C410.055 120.1 410.1 120.055 410.1 120H413.9C413.9 120.055 413.945 120.1 414 120.1H418C418.055 120.1 418.1 120.055 418.1 120H421.9C421.9 120.055 421.945 120.1 422 120.1H426C426.055 120.1 426.1 120.055 426.1 120H429.9C429.9 120.055 429.945 120.1 430 120.1H434C434.055 120.1 434.1 120.055 434.1 120H437.9C437.9 120.055 437.945 120.1 438 120.1H442C442.055 120.1 442.1 120.055 442.1 120H445.9C445.9 120.055 445.945 120.1 446 120.1H450C450.055 120.1 450.1 120.055 450.1 120H453.9C453.9 120.055 453.945 120.1 454 120.1H458C458.055 120.1 458.1 120.055 458.1 120H461.9C461.9 120.055 461.945 120.1 462 120.1H466C466.055 120.1 466.1 120.055 466.1 120H469.9C469.9 120.055 469.945 120.1 470 120.1H474C474.055 120.1 474.1 120.055 474.1 120H477.9C477.9 120.055 477.945 120.1 478 120.1H482C482.055 120.1 482.1 120.055 482.1 120H485.9C485.9 120.055 485.945 120.1 486 120.1H490C490.055 120.1 490.1 120.055 490.1 120H493.9C493.9 120.055 493.945 120.1 494 120.1H498C498.055 120.1 498.1 120.055 498.1 120H501.9C501.9 120.055 501.945 120.1 502 120.1H506C506.055 120.1 506.1 120.055 506.1 120H509.9C509.9 120.055 509.945 120.1 510 120.1H514C514.055 120.1 514.1 120.055 514.1 120H517.9C517.9 120.055 517.945 120.1 518 120.1H522C522.055 120.1 522.1 120.055 522.1 120H525.9C525.9 120.055 525.945 120.1 526 120.1H530C530.055 120.1 530.1 120.055 530.1 120H533.9C533.9 120.055 533.945 120.1 534 120.1H538C538.055 120.1 538.1 120.055 538.1 120H541.9C541.9 120.055 541.945 120.1 542 120.1H546C546.055 120.1 546.1 120.055 546.1 120H549.9C549.9 120.055 549.945 120.1 550 120.1H554C554.055 120.1 554.1 120.055 554.1 120H557.9C557.9 120.055 557.945 120.1 558 120.1H562C562.055 120.1 562.1 120.055 562.1 120H565.9C565.9 120.055 565.945 120.1 566 120.1H570C570.055 120.1 570.1 120.055 570.1 120H573.9Z" fill="#9747FF" fill-opacity="0.1"/>
<path d="M573.9 120C573.9 120.055 573.945 120.1 574 120.1H576C576.644 120.1 577.233 120.1 577.772 120.105C577.827 120.106 577.871 120.063 577.873 120.009C579.288 120.026 580.359 120.087 581.197 120.3C581.184 120.352 581.216 120.406 581.269 120.421C581.886 120.591 582.364 120.849 582.758 121.242C583.151 121.636 583.409 122.114 583.579 122.731C583.593 122.784 583.647 122.815 583.699 122.802C583.913 123.64 583.973 124.711 583.99 126.126C583.936 126.128 583.894 126.173 583.895 126.228C583.9 126.767 583.9 127.356 583.9 128V129.75C583.9 129.805 583.945 129.85 584 129.85V133.15C583.945 133.15 583.9 133.195 583.9 133.25V136.75C583.9 136.805 583.945 136.85 584 136.85V140.15C583.945 140.15 583.9 140.195 583.9 140.25V143.75C583.9 143.805 583.945 143.85 584 143.85V147.15C583.945 147.15 583.9 147.195 583.9 147.25V149C583.9 149.644 583.9 150.233 583.895 150.772C583.894 150.827 583.936 150.871 583.99 150.873C583.973 152.288 583.912 153.359 583.699 154.197C583.647 154.185 583.593 154.216 583.579 154.269C583.431 154.809 583.215 155.243 582.899 155.606L582.758 155.758C582.364 156.151 581.886 156.409 581.269 156.579C581.216 156.593 581.185 156.647 581.197 156.699C580.359 156.912 579.288 156.973 577.873 156.99C577.871 156.936 577.827 156.894 577.772 156.895C577.233 156.9 576.644 156.9 576 156.9H574C573.945 156.9 573.9 156.945 573.9 157H570.1C570.1 156.945 570.055 156.9 570 156.9H566C565.945 156.9 565.9 156.945 565.9 157H562.1C562.1 156.945 562.055 156.9 562 156.9H558C557.945 156.9 557.9 156.945 557.9 157H554.1C554.1 156.945 554.055 156.9 554 156.9H550C549.945 156.9 549.9 156.945 549.9 157H546.1C546.1 156.945 546.055 156.9 546 156.9H542C541.945 156.9 541.9 156.945 541.9 157H538.1C538.1 156.945 538.055 156.9 538 156.9H534C533.945 156.9 533.9 156.945 533.9 157H530.1C530.1 156.945 530.055 156.9 530 156.9H526C525.945 156.9 525.9 156.945 525.9 157H522.1C522.1 156.945 522.055 156.9 522 156.9H518C517.945 156.9 517.9 156.945 517.9 157H514.1C514.1 156.945 514.055 156.9 514 156.9H510C509.945 156.9 509.9 156.945 509.9 157H506.1C506.1 156.945 506.055 156.9 506 156.9H502C501.945 156.9 501.9 156.945 501.9 157H498.1C498.1 156.945 498.055 156.9 498 156.9H494C493.945 156.9 493.9 156.945 493.9 157H490.1C490.1 156.945 490.055 156.9 490 156.9H486C485.945 156.9 485.9 156.945 485.9 157H482.1C482.1 156.945 482.055 156.9 482 156.9H478C477.945 156.9 477.9 156.945 477.9 157H474.1C474.1 156.945 474.055 156.9 474 156.9H470C469.945 156.9 469.9 156.945 469.9 157H466.1C466.1 156.945 466.055 156.9 466 156.9H462C461.945 156.9 461.9 156.945 461.9 157H458.1C458.1 156.945 458.055 156.9 458 156.9H454C453.945 156.9 453.9 156.945 453.9 157H450.1C450.1 156.945 450.055 156.9 450 156.9H446C445.945 156.9 445.9 156.945 445.9 157H442.1C442.1 156.945 442.055 156.9 442 156.9H438C437.945 156.9 437.9 156.945 437.9 157H434.1C434.1 156.945 434.055 156.9 434 156.9H430C429.945 156.9 429.9 156.945 429.9 157H426.1C426.1 156.945 426.055 156.9 426 156.9H422C421.945 156.9 421.9 156.945 421.9 157H418.1C418.1 156.945 418.055 156.9 418 156.9H414C413.945 156.9 413.9 156.945 413.9 157H410.1C410.1 156.945 410.055 156.9 410 156.9H406C405.945 156.9 405.9 156.945 405.9 157H402.1C402.1 156.945 402.055 156.9 402 156.9H398C397.945 156.9 397.9 156.945 397.9 157H394.1C394.1 156.945 394.055 156.9 394 156.9H390C389.945 156.9 389.9 156.945 389.9 157H386.1C386.1 156.945 386.055 156.9 386 156.9H382C381.945 156.9 381.9 156.945 381.9 157H378.1C378.1 156.945 378.055 156.9 378 156.9H374C373.945 156.9 373.9 156.945 373.9 157H370.1C370.1 156.945 370.055 156.9 370 156.9H366C365.945 156.9 365.9 156.945 365.9 157H362.1C362.1 156.945 362.055 156.9 362 156.9H358C357.945 156.9 357.9 156.945 357.9 157H354.1C354.1 156.945 354.055 156.9 354 156.9H350C349.945 156.9 349.9 156.945 349.9 157H346.1C346.1 156.945 346.055 156.9 346 156.9H342C341.945 156.9 341.9 156.945 341.9 157H338.1C338.1 156.945 338.055 156.9 338 156.9H334C333.945 156.9 333.9 156.945 333.9 157H330.1C330.1 156.945 330.055 156.9 330 156.9H326C325.945 156.9 325.9 156.945 325.9 157H322.1C322.1 156.945 322.055 156.9 322 156.9H318C317.945 156.9 317.9 156.945 317.9 157H314.1C314.1 156.945 314.055 156.9 314 156.9H310C309.945 156.9 309.9 156.945 309.9 157H306.1C306.1 156.945 306.055 156.9 306 156.9H302C301.945 156.9 301.9 156.945 301.9 157H298.1C298.1 156.945 298.055 156.9 298 156.9H294C293.945 156.9 293.9 156.945 293.9 157H290.1C290.1 156.945 290.055 156.9 290 156.9H286C285.945 156.9 285.9 156.945 285.9 157H282.1C282.1 156.945 282.055 156.9 282 156.9H278C277.945 156.9 277.9 156.945 277.9 157H274.1C274.1 156.945 274.055 156.9 274 156.9H270C269.945 156.9 269.9 156.945 269.9 157H266.1C266.1 156.945 266.055 156.9 266 156.9H262C261.945 156.9 261.9 156.945 261.9 157H258.1C258.1 156.945 258.055 156.9 258 156.9H254C253.945 156.9 253.9 156.945 253.9 157H250.1C250.1 156.945 250.055 156.9 250 156.9H246C245.945 156.9 245.9 156.945 245.9 157H242.1C242.1 156.945 242.055 156.9 242 156.9H238C237.945 156.9 237.9 156.945 237.9 157H234.1C234.1 156.945 234.055 156.9 234 156.9H230C229.945 156.9 229.9 156.945 229.9 157H226.1C226.1 156.945 226.055 156.9 226 156.9H222C221.945 156.9 221.9 156.945 221.9 157H218.1C218.1 156.945 218.055 156.9 218 156.9H214C213.945 156.9 213.9 156.945 213.9 157H210.1C210.1 156.945 210.055 156.9 210 156.9H206C205.945 156.9 205.9 156.945 205.9 157H202.1C202.1 156.945 202.055 156.9 202 156.9H198C197.945 156.9 197.9 156.945 197.9 157H194.1C194.1 156.945 194.055 156.9 194 156.9H190C189.945 156.9 189.9 156.945 189.9 157H186.1C186.1 156.945 186.055 156.9 186 156.9H182C181.945 156.9 181.9 156.945 181.9 157H178.1C178.1 156.945 178.055 156.9 178 156.9H174C173.945 156.9 173.9 156.945 173.9 157H170.1C170.1 156.945 170.055 156.9 170 156.9H166C165.945 156.9 165.9 156.945 165.9 157H162.1C162.1 156.945 162.055 156.9 162 156.9H158C157.945 156.9 157.9 156.945 157.9 157H154.1C154.1 156.945 154.055 156.9 154 156.9H150C149.945 156.9 149.9 156.945 149.9 157H146.1C146.1 156.945 146.055 156.9 146 156.9H142C141.945 156.9 141.9 156.945 141.9 157H138.1C138.1 156.945 138.055 156.9 138 156.9H134C133.945 156.9 133.9 156.945 133.9 157H130.1C130.1 156.945 130.055 156.9 130 156.9H126C125.945 156.9 125.9 156.945 125.9 157H122.1C122.1 156.945 122.055 156.9 122 156.9H118C117.945 156.9 117.9 156.945 117.9 157H114.1C114.1 156.945 114.055 156.9 114 156.9H110C109.945 156.9 109.9 156.945 109.9 157H106.1C106.1 156.945 106.055 156.9 106 156.9H102C101.945 156.9 101.9 156.945 101.9 157H98.0996C98.0996 156.945 98.0552 156.9 98 156.9H94C93.9448 156.9 93.9004 156.945 93.9004 157H90.0996C90.0996 156.945 90.0552 156.9 90 156.9H86C85.9448 156.9 85.9004 156.945 85.9004 157H82.0996C82.0996 156.945 82.0552 156.9 82 156.9H78C77.9448 156.9 77.9004 156.945 77.9004 157H74.0996C74.0996 156.945 74.0552 156.9 74 156.9H70C69.9448 156.9 69.9004 156.945 69.9004 157H66.0996C66.0996 156.945 66.0552 156.9 66 156.9H62C61.9448 156.9 61.9004 156.945 61.9004 157H58.0996C58.0996 156.945 58.0552 156.9 58 156.9H54C53.9448 156.9 53.9004 156.945 53.9004 157H50.0996C50.0996 156.945 50.0552 156.9 50 156.9H46C45.9448 156.9 45.9004 156.945 45.9004 157H42.0996C42.0996 156.945 42.0552 156.9 42 156.9H38C37.9448 156.9 37.9004 156.945 37.9004 157H34.0996C34.0996 156.945 34.0552 156.9 34 156.9H30C29.9448 156.9 29.9004 156.945 29.9004 157H26.0996C26.0996 156.945 26.0552 156.9 26 156.9H24C23.3556 156.9 22.7669 156.9 22.2275 156.895C22.1733 156.894 22.1281 156.936 22.126 156.99C20.7111 156.973 19.6396 156.913 18.8018 156.699C18.8145 156.647 18.7837 156.593 18.7314 156.579L18.5059 156.512C17.9954 156.343 17.5864 156.102 17.2422 155.758L17.1006 155.606C16.7852 155.243 16.5694 154.809 16.4209 154.269L16.4033 154.233C16.3796 154.203 16.3392 154.187 16.2998 154.197C16.0867 153.359 16.0262 152.288 16.0088 150.873C16.0631 150.871 16.1061 150.827 16.1055 150.772C16.0996 150.233 16.0996 149.644 16.0996 149V147.25C16.0996 147.195 16.0552 147.15 16 147.15V143.85C16.0413 143.85 16.0766 143.825 16.0918 143.789L16.0996 143.75V140.25C16.0996 140.195 16.0552 140.15 16 140.15V136.85C16.0413 136.85 16.0766 136.825 16.0918 136.789L16.0996 136.75V133.25C16.0996 133.195 16.0552 133.15 16 133.15V129.85C16.0413 129.85 16.0766 129.825 16.0918 129.789L16.0996 129.75V128L16.1055 126.228C16.1061 126.173 16.0631 126.128 16.0088 126.126C16.0263 124.711 16.0865 123.64 16.2998 122.802C16.3393 122.812 16.3796 122.797 16.4033 122.767L16.4209 122.731C16.5906 122.114 16.8487 121.636 17.2422 121.242C17.5864 120.898 17.9954 120.657 18.5059 120.488L18.7314 120.421C18.784 120.406 18.8151 120.352 18.8018 120.3C19.6396 120.087 20.7113 120.026 22.126 120.009C22.1276 120.063 22.1729 120.106 22.2275 120.105C22.7669 120.1 23.3556 120.1 24 120.1H26C26.0552 120.1 26.0996 120.055 26.0996 120H29.9004C29.9004 120.055 29.9448 120.1 30 120.1H34C34.0552 120.1 34.0996 120.055 34.0996 120H37.9004C37.9004 120.055 37.9448 120.1 38 120.1H42C42.0552 120.1 42.0996 120.055 42.0996 120H45.9004C45.9004 120.055 45.9448 120.1 46 120.1H50C50.0552 120.1 50.0996 120.055 50.0996 120H53.9004C53.9004 120.055 53.9448 120.1 54 120.1H58C58.0552 120.1 58.0996 120.055 58.0996 120H61.9004C61.9004 120.055 61.9448 120.1 62 120.1H66C66.0552 120.1 66.0996 120.055 66.0996 120H69.9004C69.9004 120.055 69.9448 120.1 70 120.1H74C74.0552 120.1 74.0996 120.055 74.0996 120H77.9004C77.9004 120.055 77.9448 120.1 78 120.1H82C82.0552 120.1 82.0996 120.055 82.0996 120H85.9004C85.9004 120.055 85.9448 120.1 86 120.1H90C90.0552 120.1 90.0996 120.055 90.0996 120H93.9004C93.9004 120.055 93.9448 120.1 94 120.1H98C98.0552 120.1 98.0996 120.055 98.0996 120H101.9C101.9 120.055 101.945 120.1 102 120.1H106C106.055 120.1 106.1 120.055 106.1 120H109.9C109.9 120.055 109.945 120.1 110 120.1H114C114.055 120.1 114.1 120.055 114.1 120H117.9C117.9 120.055 117.945 120.1 118 120.1H122C122.055 120.1 122.1 120.055 122.1 120H125.9C125.9 120.055 125.945 120.1 126 120.1H130C130.055 120.1 130.1 120.055 130.1 120H133.9C133.9 120.055 133.945 120.1 134 120.1H138C138.055 120.1 138.1 120.055 138.1 120H141.9C141.9 120.055 141.945 120.1 142 120.1H146C146.055 120.1 146.1 120.055 146.1 120H149.9C149.9 120.055 149.945 120.1 150 120.1H154C154.055 120.1 154.1 120.055 154.1 120H157.9C157.9 120.055 157.945 120.1 158 120.1H162C162.055 120.1 162.1 120.055 162.1 120H165.9C165.9 120.055 165.945 120.1 166 120.1H170C170.055 120.1 170.1 120.055 170.1 120H173.9C173.9 120.055 173.945 120.1 174 120.1H178C178.055 120.1 178.1 120.055 178.1 120H181.9C181.9 120.055 181.945 120.1 182 120.1H186C186.055 120.1 186.1 120.055 186.1 120H189.9C189.9 120.055 189.945 120.1 190 120.1H194C194.055 120.1 194.1 120.055 194.1 120H197.9C197.9 120.055 197.945 120.1 198 120.1H202C202.055 120.1 202.1 120.055 202.1 120H205.9C205.9 120.055 205.945 120.1 206 120.1H210C210.055 120.1 210.1 120.055 210.1 120H213.9C213.9 120.055 213.945 120.1 214 120.1H218C218.055 120.1 218.1 120.055 218.1 120H221.9C221.9 120.055 221.945 120.1 222 120.1H226C226.055 120.1 226.1 120.055 226.1 120H229.9C229.9 120.055 229.945 120.1 230 120.1H234C234.055 120.1 234.1 120.055 234.1 120H237.9C237.9 120.055 237.945 120.1 238 120.1H242C242.055 120.1 242.1 120.055 242.1 120H245.9C245.9 120.055 245.945 120.1 246 120.1H250C250.055 120.1 250.1 120.055 250.1 120H253.9C253.9 120.055 253.945 120.1 254 120.1H258C258.055 120.1 258.1 120.055 258.1 120H261.9C261.9 120.055 261.945 120.1 262 120.1H266C266.055 120.1 266.1 120.055 266.1 120H269.9C269.9 120.055 269.945 120.1 270 120.1H274C274.055 120.1 274.1 120.055 274.1 120H277.9C277.9 120.055 277.945 120.1 278 120.1H282C282.055 120.1 282.1 120.055 282.1 120H285.9C285.9 120.055 285.945 120.1 286 120.1H290C290.055 120.1 290.1 120.055 290.1 120H293.9C293.9 120.055 293.945 120.1 294 120.1H298C298.055 120.1 298.1 120.055 298.1 120H301.9C301.9 120.055 301.945 120.1 302 120.1H306C306.055 120.1 306.1 120.055 306.1 120H309.9C309.9 120.055 309.945 120.1 310 120.1H314C314.055 120.1 314.1 120.055 314.1 120H317.9C317.9 120.055 317.945 120.1 318 120.1H322C322.055 120.1 322.1 120.055 322.1 120H325.9C325.9 120.055 325.945 120.1 326 120.1H330C330.055 120.1 330.1 120.055 330.1 120H333.9C333.9 120.055 333.945 120.1 334 120.1H338C338.055 120.1 338.1 120.055 338.1 120H341.9C341.9 120.055 341.945 120.1 342 120.1H346C346.055 120.1 346.1 120.055 346.1 120H349.9C349.9 120.055 349.945 120.1 350 120.1H354C354.055 120.1 354.1 120.055 354.1 120H357.9C357.9 120.055 357.945 120.1 358 120.1H362C362.055 120.1 362.1 120.055 362.1 120H365.9C365.9 120.055 365.945 120.1 366 120.1H370C370.055 120.1 370.1 120.055 370.1 120H373.9C373.9 120.055 373.945 120.1 374 120.1H378C378.055 120.1 378.1 120.055 378.1 120H381.9C381.9 120.055 381.945 120.1 382 120.1H386C386.055 120.1 386.1 120.055 386.1 120H389.9C389.9 120.055 389.945 120.1 390 120.1H394C394.055 120.1 394.1 120.055 394.1 120H397.9C397.9 120.055 397.945 120.1 398 120.1H402C402.055 120.1 402.1 120.055 402.1 120H405.9C405.9 120.055 405.945 120.1 406 120.1H410C410.055 120.1 410.1 120.055 410.1 120H413.9C413.9 120.055 413.945 120.1 414 120.1H418C418.055 120.1 418.1 120.055 418.1 120H421.9C421.9 120.055 421.945 120.1 422 120.1H426C426.055 120.1 426.1 120.055 426.1 120H429.9C429.9 120.055 429.945 120.1 430 120.1H434C434.055 120.1 434.1 120.055 434.1 120H437.9C437.9 120.055 437.945 120.1 438 120.1H442C442.055 120.1 442.1 120.055 442.1 120H445.9C445.9 120.055 445.945 120.1 446 120.1H450C450.055 120.1 450.1 120.055 450.1 120H453.9C453.9 120.055 453.945 120.1 454 120.1H458C458.055 120.1 458.1 120.055 458.1 120H461.9C461.9 120.055 461.945 120.1 462 120.1H466C466.055 120.1 466.1 120.055 466.1 120H469.9C469.9 120.055 469.945 120.1 470 120.1H474C474.055 120.1 474.1 120.055 474.1 120H477.9C477.9 120.055 477.945 120.1 478 120.1H482C482.055 120.1 482.1 120.055 482.1 120H485.9C485.9 120.055 485.945 120.1 486 120.1H490C490.055 120.1 490.1 120.055 490.1 120H493.9C493.9 120.055 493.945 120.1 494 120.1H498C498.055 120.1 498.1 120.055 498.1 120H501.9C501.9 120.055 501.945 120.1 502 120.1H506C506.055 120.1 506.1 120.055 506.1 120H509.9C509.9 120.055 509.945 120.1 510 120.1H514C514.055 120.1 514.1 120.055 514.1 120H517.9C517.9 120.055 517.945 120.1 518 120.1H522C522.055 120.1 522.1 120.055 522.1 120H525.9C525.9 120.055 525.945 120.1 526 120.1H530C530.055 120.1 530.1 120.055 530.1 120H533.9C533.9 120.055 533.945 120.1 534 120.1H538C538.055 120.1 538.1 120.055 538.1 120H541.9C541.9 120.055 541.945 120.1 542 120.1H546C546.055 120.1 546.1 120.055 546.1 120H549.9C549.9 120.055 549.945 120.1 550 120.1H554C554.055 120.1 554.1 120.055 554.1 120H557.9C557.9 120.055 557.945 120.1 558 120.1H562C562.055 120.1 562.1 120.055 562.1 120H565.9C565.9 120.055 565.945 120.1 566 120.1H570C570.055 120.1 570.1 120.055 570.1 120H573.9Z" stroke="#6061EE" stroke-width="0.2" stroke-linecap="round" stroke-linejoin="round" stroke-dasharray="4 4"/>
<path d="M291.294 144.14C290.519 144.14 289.861 144 289.32 143.72C288.779 143.44 288.293 143.029 287.864 142.488L288.956 141.396C289.227 141.788 289.549 142.096 289.922 142.32C290.295 142.535 290.771 142.642 291.35 142.642C291.891 142.642 292.321 142.53 292.638 142.306C292.965 142.082 293.128 141.774 293.128 141.382C293.128 141.055 293.044 140.789 292.876 140.584C292.708 140.379 292.484 140.211 292.204 140.08C291.933 139.94 291.63 139.819 291.294 139.716C290.967 139.604 290.636 139.483 290.3 139.352C289.973 139.212 289.67 139.039 289.39 138.834C289.119 138.629 288.9 138.363 288.732 138.036C288.564 137.709 288.48 137.294 288.48 136.79C288.48 136.211 288.62 135.721 288.9 135.32C289.189 134.909 289.577 134.597 290.062 134.382C290.547 134.167 291.089 134.06 291.686 134.06C292.33 134.06 292.904 134.186 293.408 134.438C293.921 134.69 294.337 135.012 294.654 135.404L293.562 136.496C293.282 136.179 292.988 135.945 292.68 135.796C292.381 135.637 292.036 135.558 291.644 135.558C291.159 135.558 290.776 135.656 290.496 135.852C290.225 136.048 290.09 136.323 290.09 136.678C290.09 136.977 290.174 137.219 290.342 137.406C290.51 137.583 290.729 137.737 291 137.868C291.28 137.989 291.583 138.106 291.91 138.218C292.246 138.33 292.577 138.456 292.904 138.596C293.24 138.736 293.543 138.918 293.814 139.142C294.094 139.357 294.318 139.637 294.486 139.982C294.654 140.327 294.738 140.761 294.738 141.284C294.738 142.161 294.425 142.857 293.8 143.37C293.184 143.883 292.349 144.14 291.294 144.14ZM296.133 144V133.92H297.673V144H296.133ZM302.467 144.14C301.814 144.14 301.221 143.986 300.689 143.678C300.157 143.361 299.733 142.936 299.415 142.404C299.107 141.872 298.953 141.279 298.953 140.626C298.953 139.973 299.107 139.385 299.415 138.862C299.733 138.339 300.157 137.924 300.689 137.616C301.221 137.299 301.814 137.14 302.467 137.14C303.13 137.14 303.727 137.294 304.259 137.602C304.791 137.91 305.211 138.33 305.519 138.862C305.837 139.385 305.995 139.973 305.995 140.626C305.995 141.279 305.837 141.872 305.519 142.404C305.211 142.936 304.791 143.361 304.259 143.678C303.727 143.986 303.13 144.14 302.467 144.14ZM302.467 142.656C302.85 142.656 303.186 142.572 303.475 142.404C303.774 142.227 304.003 141.984 304.161 141.676C304.329 141.368 304.413 141.018 304.413 140.626C304.413 140.234 304.329 139.889 304.161 139.59C303.993 139.291 303.765 139.058 303.475 138.89C303.186 138.713 302.85 138.624 302.467 138.624C302.094 138.624 301.758 138.713 301.459 138.89C301.17 139.058 300.941 139.291 300.773 139.59C300.615 139.889 300.535 140.234 300.535 140.626C300.535 141.018 300.615 141.368 300.773 141.676C300.941 141.984 301.17 142.227 301.459 142.404C301.758 142.572 302.094 142.656 302.467 142.656ZM308.106 144V134.48H309.646V144H308.106ZM306.496 138.68V137.28H311.256V138.68H306.496Z" fill="#F1F2F4"/>
<path d="M0 205C0 193.686 0 188.029 3.51472 184.515C7.02944 181 12.6863 181 24 181H576C587.314 181 592.971 181 596.485 184.515C600 188.029 600 193.686 600 205C600 216.314 600 221.971 596.485 225.485C592.971 229 587.314 229 576 229H24C12.6863 229 7.02944 229 3.51472 225.485C0 221.971 0 216.314 0 205Z" fill="#15161A"/>
<path d="M17.216 211V199.8H19.056V211H17.216ZM24.336 211V199.8H26.176V211H24.336ZM18.48 206.04V204.36H24.736V206.04H18.48ZM31.9346 211.16C31.1666 211.16 30.4733 210.989 29.8546 210.648C29.2466 210.296 28.7613 209.816 28.3986 209.208C28.0466 208.6 27.8706 207.917 27.8706 207.16C27.8706 206.403 28.0466 205.725 28.3986 205.128C28.7506 204.52 29.2253 204.04 29.8226 203.688C30.4306 203.336 31.1026 203.16 31.8386 203.16C32.5533 203.16 33.1826 203.325 33.7266 203.656C34.2813 203.987 34.7133 204.44 35.0226 205.016C35.3426 205.592 35.5026 206.248 35.5026 206.984C35.5026 207.112 35.492 207.245 35.4706 207.384C35.46 207.512 35.4386 207.656 35.4066 207.816H29.1026V206.376H34.4946L33.8386 206.952C33.8173 206.483 33.7266 206.088 33.5666 205.768C33.4066 205.448 33.1773 205.203 32.8786 205.032C32.5906 204.861 32.2333 204.776 31.8066 204.776C31.3586 204.776 30.9693 204.872 30.6386 205.064C30.308 205.256 30.052 205.528 29.8706 205.88C29.6893 206.221 29.5986 206.632 29.5986 207.112C29.5986 207.592 29.6946 208.013 29.8866 208.376C30.0786 208.739 30.3506 209.021 30.7026 209.224C31.0546 209.416 31.46 209.512 31.9186 209.512C32.3133 209.512 32.676 209.443 33.0066 209.304C33.348 209.165 33.636 208.963 33.8706 208.696L34.9906 209.832C34.6173 210.269 34.164 210.6 33.6306 210.824C33.0973 211.048 32.532 211.16 31.9346 211.16ZM40.1295 211.16C39.4362 211.16 38.8068 210.984 38.2415 210.632C37.6868 210.28 37.2442 209.805 36.9135 209.208C36.5935 208.6 36.4335 207.923 36.4335 207.176C36.4335 206.419 36.5935 205.741 36.9135 205.144C37.2442 204.536 37.6868 204.056 38.2415 203.704C38.8068 203.341 39.4362 203.16 40.1295 203.16C40.7162 203.16 41.2335 203.288 41.6815 203.544C42.1402 203.789 42.5028 204.131 42.7695 204.568C43.0362 205.005 43.1695 205.501 43.1695 206.056V208.264C43.1695 208.819 43.0362 209.315 42.7695 209.752C42.5135 210.189 42.1562 210.536 41.6975 210.792C41.2388 211.037 40.7162 211.16 40.1295 211.16ZM40.4175 209.496C41.0682 209.496 41.5908 209.277 41.9855 208.84C42.3908 208.403 42.5935 207.843 42.5935 207.16C42.5935 206.701 42.5028 206.296 42.3215 205.944C42.1402 205.592 41.8842 205.32 41.5535 205.128C41.2335 204.925 40.8548 204.824 40.4175 204.824C39.9908 204.824 39.6122 204.925 39.2815 205.128C38.9615 205.32 38.7055 205.592 38.5135 205.944C38.3322 206.296 38.2415 206.701 38.2415 207.16C38.2415 207.619 38.3322 208.024 38.5135 208.376C38.7055 208.728 38.9615 209.005 39.2815 209.208C39.6122 209.4 39.9908 209.496 40.4175 209.496ZM42.4815 211V208.936L42.7855 207.064L42.4815 205.208V203.32H44.2415V211H42.4815ZM49.4108 211.16C48.7174 211.16 48.0881 210.984 47.5228 210.632C46.9681 210.28 46.5254 209.805 46.1948 209.208C45.8748 208.6 45.7148 207.923 45.7148 207.176C45.7148 206.419 45.8748 205.741 46.1948 205.144C46.5254 204.536 46.9681 204.056 47.5228 203.704C48.0881 203.341 48.7174 203.16 49.4108 203.16C49.9974 203.16 50.5148 203.288 50.9628 203.544C51.4214 203.789 51.7841 204.131 52.0508 204.568C52.3174 205.005 52.4508 205.501 52.4508 206.056V208.264C52.4508 208.819 52.3174 209.315 52.0508 209.752C51.7948 210.189 51.4374 210.536 50.9788 210.792C50.5201 211.037 49.9974 211.16 49.4108 211.16ZM49.6988 209.496C50.1361 209.496 50.5148 209.4 50.8348 209.208C51.1654 209.005 51.4214 208.728 51.6028 208.376C51.7841 208.024 51.8748 207.619 51.8748 207.16C51.8748 206.701 51.7841 206.296 51.6028 205.944C51.4214 205.592 51.1654 205.32 50.8348 205.128C50.5148 204.925 50.1361 204.824 49.6988 204.824C49.2721 204.824 48.8934 204.925 48.5628 205.128C48.2428 205.32 47.9868 205.592 47.7948 205.944C47.6134 206.296 47.5228 206.701 47.5228 207.16C47.5228 207.619 47.6134 208.024 47.7948 208.376C47.9868 208.728 48.2428 209.005 48.5628 209.208C48.8934 209.4 49.2721 209.496 49.6988 209.496ZM53.5228 211H51.7628V208.936L52.0668 207.064L51.7628 205.208V199.48H53.5228V211ZM59.044 211.16C58.276 211.16 57.5827 210.989 56.964 210.648C56.356 210.296 55.8707 209.816 55.508 209.208C55.156 208.6 54.98 207.917 54.98 207.16C54.98 206.403 55.156 205.725 55.508 205.128C55.86 204.52 56.3347 204.04 56.932 203.688C57.54 203.336 58.212 203.16 58.948 203.16C59.6627 203.16 60.292 203.325 60.836 203.656C61.3907 203.987 61.8227 204.44 62.132 205.016C62.452 205.592 62.612 206.248 62.612 206.984C62.612 207.112 62.6013 207.245 62.58 207.384C62.5693 207.512 62.548 207.656 62.516 207.816H56.212V206.376H61.604L60.948 206.952C60.9267 206.483 60.836 206.088 60.676 205.768C60.516 205.448 60.2867 205.203 59.988 205.032C59.7 204.861 59.3427 204.776 58.916 204.776C58.468 204.776 58.0787 204.872 57.748 205.064C57.4173 205.256 57.1613 205.528 56.98 205.88C56.7987 206.221 56.708 206.632 56.708 207.112C56.708 207.592 56.804 208.013 56.996 208.376C57.188 208.739 57.46 209.021 57.812 209.224C58.164 209.416 58.5693 209.512 59.028 209.512C59.4227 209.512 59.7853 209.443 60.116 209.304C60.4573 209.165 60.7453 208.963 60.98 208.696L62.1 209.832C61.7267 210.269 61.2733 210.6 60.74 210.824C60.2067 211.048 59.6413 211.16 59.044 211.16ZM64.0229 211V203.32H65.7829V211H64.0229ZM65.7829 206.728L65.1749 206.424C65.1749 205.453 65.3882 204.669 65.8149 204.072C66.2522 203.464 66.9082 203.16 67.7829 203.16C68.1669 203.16 68.5135 203.229 68.8229 203.368C69.1322 203.507 69.4202 203.731 69.6869 204.04L68.5349 205.224C68.3962 205.075 68.2415 204.968 68.0709 204.904C67.9002 204.84 67.7029 204.808 67.4789 204.808C66.9882 204.808 66.5829 204.963 66.2629 205.272C65.9429 205.581 65.7829 206.067 65.7829 206.728Z" fill="#F1F2F4"/>
<path fill-rule="evenodd" clip-rule="evenodd" d="M571.75 200C572.302 200 572.75 200.448 572.75 201V203.75H575.5C576.052 203.75 576.5 204.198 576.5 204.75C576.5 205.302 576.052 205.75 575.5 205.75H572.75V208.5C572.75 209.052 572.302 209.5 571.75 209.5C571.198 209.5 570.75 209.052 570.75 208.5V205.75H568C567.448 205.75 567 205.302 567 204.75C567 204.198 567.448 203.75 568 203.75H570.75V201C570.75 200.448 571.198 200 571.75 200Z" fill="#F1F2F4"/>
<path d="M0 261C0 249.686 0 244.029 3.51472 240.515C7.02944 237 12.6863 237 24 237H576C587.314 237 592.971 237 596.485 240.515C600 244.029 600 249.686 600 261C600 272.314 600 277.971 596.485 281.485C592.971 285 587.314 285 576 285H24C12.6863 285 7.02944 285 3.51472 281.485C0 277.971 0 272.314 0 261Z" fill="#15161A"/>
<path d="M17.216 267V255.8H19.056V267H17.216ZM24.336 267V255.8H26.176V267H24.336ZM18.48 262.04V260.36H24.736V262.04H18.48ZM31.9346 267.16C31.1666 267.16 30.4733 266.989 29.8546 266.648C29.2466 266.296 28.7613 265.816 28.3986 265.208C28.0466 264.6 27.8706 263.917 27.8706 263.16C27.8706 262.403 28.0466 261.725 28.3986 261.128C28.7506 260.52 29.2253 260.04 29.8226 259.688C30.4306 259.336 31.1026 259.16 31.8386 259.16C32.5533 259.16 33.1826 259.325 33.7266 259.656C34.2813 259.987 34.7133 260.44 35.0226 261.016C35.3426 261.592 35.5026 262.248 35.5026 262.984C35.5026 263.112 35.492 263.245 35.4706 263.384C35.46 263.512 35.4386 263.656 35.4066 263.816H29.1026V262.376H34.4946L33.8386 262.952C33.8173 262.483 33.7266 262.088 33.5666 261.768C33.4066 261.448 33.1773 261.203 32.8786 261.032C32.5906 260.861 32.2333 260.776 31.8066 260.776C31.3586 260.776 30.9693 260.872 30.6386 261.064C30.308 261.256 30.052 261.528 29.8706 261.88C29.6893 262.221 29.5986 262.632 29.5986 263.112C29.5986 263.592 29.6946 264.013 29.8866 264.376C30.0786 264.739 30.3506 265.021 30.7026 265.224C31.0546 265.416 31.46 265.512 31.9186 265.512C32.3133 265.512 32.676 265.443 33.0066 265.304C33.348 265.165 33.636 264.963 33.8706 264.696L34.9906 265.832C34.6173 266.269 34.164 266.6 33.6306 266.824C33.0973 267.048 32.532 267.16 31.9346 267.16ZM40.1295 267.16C39.4362 267.16 38.8068 266.984 38.2415 266.632C37.6868 266.28 37.2442 265.805 36.9135 265.208C36.5935 264.6 36.4335 263.923 36.4335 263.176C36.4335 262.419 36.5935 261.741 36.9135 261.144C37.2442 260.536 37.6868 260.056 38.2415 259.704C38.8068 259.341 39.4362 259.16 40.1295 259.16C40.7162 259.16 41.2335 259.288 41.6815 259.544C42.1402 259.789 42.5028 260.131 42.7695 260.568C43.0362 261.005 43.1695 261.501 43.1695 262.056V264.264C43.1695 264.819 43.0362 265.315 42.7695 265.752C42.5135 266.189 42.1562 266.536 41.6975 266.792C41.2388 267.037 40.7162 267.16 40.1295 267.16ZM40.4175 265.496C41.0682 265.496 41.5908 265.277 41.9855 264.84C42.3908 264.403 42.5935 263.843 42.5935 263.16C42.5935 262.701 42.5028 262.296 42.3215 261.944C42.1402 261.592 41.8842 261.32 41.5535 261.128C41.2335 260.925 40.8548 260.824 40.4175 260.824C39.9908 260.824 39.6122 260.925 39.2815 261.128C38.9615 261.32 38.7055 261.592 38.5135 261.944C38.3322 262.296 38.2415 262.701 38.2415 263.16C38.2415 263.619 38.3322 264.024 38.5135 264.376C38.7055 264.728 38.9615 265.005 39.2815 265.208C39.6122 265.4 39.9908 265.496 40.4175 265.496ZM42.4815 267V264.936L42.7855 263.064L42.4815 261.208V259.32H44.2415V267H42.4815ZM49.4108 267.16C48.7174 267.16 48.0881 266.984 47.5228 266.632C46.9681 266.28 46.5254 265.805 46.1948 265.208C45.8748 264.6 45.7148 263.923 45.7148 263.176C45.7148 262.419 45.8748 261.741 46.1948 261.144C46.5254 260.536 46.9681 260.056 47.5228 259.704C48.0881 259.341 48.7174 259.16 49.4108 259.16C49.9974 259.16 50.5148 259.288 50.9628 259.544C51.4214 259.789 51.7841 260.131 52.0508 260.568C52.3174 261.005 52.4508 261.501 52.4508 262.056V264.264C52.4508 264.819 52.3174 265.315 52.0508 265.752C51.7948 266.189 51.4374 266.536 50.9788 266.792C50.5201 267.037 49.9974 267.16 49.4108 267.16ZM49.6988 265.496C50.1361 265.496 50.5148 265.4 50.8348 265.208C51.1654 265.005 51.4214 264.728 51.6028 264.376C51.7841 264.024 51.8748 263.619 51.8748 263.16C51.8748 262.701 51.7841 262.296 51.6028 261.944C51.4214 261.592 51.1654 261.32 50.8348 261.128C50.5148 260.925 50.1361 260.824 49.6988 260.824C49.2721 260.824 48.8934 260.925 48.5628 261.128C48.2428 261.32 47.9868 261.592 47.7948 261.944C47.6134 262.296 47.5228 262.701 47.5228 263.16C47.5228 263.619 47.6134 264.024 47.7948 264.376C47.9868 264.728 48.2428 265.005 48.5628 265.208C48.8934 265.4 49.2721 265.496 49.6988 265.496ZM53.5228 267H51.7628V264.936L52.0668 263.064L51.7628 261.208V255.48H53.5228V267ZM59.044 267.16C58.276 267.16 57.5827 266.989 56.964 266.648C56.356 266.296 55.8707 265.816 55.508 265.208C55.156 264.6 54.98 263.917 54.98 263.16C54.98 262.403 55.156 261.725 55.508 261.128C55.86 260.52 56.3347 260.04 56.932 259.688C57.54 259.336 58.212 259.16 58.948 259.16C59.6627 259.16 60.292 259.325 60.836 259.656C61.3907 259.987 61.8227 260.44 62.132 261.016C62.452 261.592 62.612 262.248 62.612 262.984C62.612 263.112 62.6013 263.245 62.58 263.384C62.5693 263.512 62.548 263.656 62.516 263.816H56.212V262.376H61.604L60.948 262.952C60.9267 262.483 60.836 262.088 60.676 261.768C60.516 261.448 60.2867 261.203 59.988 261.032C59.7 260.861 59.3427 260.776 58.916 260.776C58.468 260.776 58.0787 260.872 57.748 261.064C57.4173 261.256 57.1613 261.528 56.98 261.88C56.7987 262.221 56.708 262.632 56.708 263.112C56.708 263.592 56.804 264.013 56.996 264.376C57.188 264.739 57.46 265.021 57.812 265.224C58.164 265.416 58.5693 265.512 59.028 265.512C59.4227 265.512 59.7853 265.443 60.116 265.304C60.4573 265.165 60.7453 264.963 60.98 264.696L62.1 265.832C61.7267 266.269 61.2733 266.6 60.74 266.824C60.2067 267.048 59.6413 267.16 59.044 267.16ZM64.0229 267V259.32H65.7829V267H64.0229ZM65.7829 262.728L65.1749 262.424C65.1749 261.453 65.3882 260.669 65.8149 260.072C66.2522 259.464 66.9082 259.16 67.7829 259.16C68.1669 259.16 68.5135 259.229 68.8229 259.368C69.1322 259.507 69.4202 259.731 69.6869 260.04L68.5349 261.224C68.3962 261.075 68.2415 260.968 68.0709 260.904C67.9002 260.84 67.7029 260.808 67.4789 260.808C66.9882 260.808 66.5829 260.963 66.2629 261.272C65.9429 261.581 65.7829 262.067 65.7829 262.728Z" fill="#F1F2F4"/>
<path fill-rule="evenodd" clip-rule="evenodd" d="M571.75 256C572.302 256 572.75 256.448 572.75 257V259.75H575.5C576.052 259.75 576.5 260.198 576.5 260.75C576.5 261.302 576.052 261.75 575.5 261.75H572.75V264.5C572.75 265.052 572.302 265.5 571.75 265.5C571.198 265.5 570.75 265.052 570.75 264.5V261.75H568C567.448 261.75 567 261.302 567 260.75C567 260.198 567.448 259.75 568 259.75H570.75V257C570.75 256.448 571.198 256 571.75 256Z" fill="#F1F2F4"/>
</svg>
