<svg width="683" height="420" viewBox="0 0 683 420" fill="none" xmlns="http://www.w3.org/2000/svg">
<rect width="683" height="420" fill="#2A2C35"/>
<path d="M205.5 186.5H477.5C483.171 186.5 487.374 186.501 490.601 186.935C493.813 187.366 495.983 188.219 497.632 189.868C499.281 191.517 500.134 193.687 500.565 196.899C500.999 200.126 501 204.329 501 210C501 215.671 500.999 219.874 500.565 223.101C500.134 226.313 499.281 228.483 497.632 230.132C495.983 231.781 493.813 232.634 490.601 233.065C487.374 233.499 483.171 233.5 477.5 233.5H205.5C199.829 233.5 195.626 233.499 192.399 233.065C189.187 232.634 187.017 231.781 185.368 230.132C183.719 228.483 182.866 226.313 182.435 223.101C182.001 219.874 182 215.671 182 210C182 204.329 182.001 200.126 182.435 196.899C182.866 193.687 183.719 191.517 185.368 189.868C187.017 188.219 189.187 187.366 192.399 186.935C195.626 186.501 199.829 186.5 205.5 186.5Z" fill="#1C1D23"/>
<path d="M205.5 186.5H477.5C483.171 186.5 487.374 186.501 490.601 186.935C493.813 187.366 495.983 188.219 497.632 189.868C499.281 191.517 500.134 193.687 500.565 196.899C500.999 200.126 501 204.329 501 210C501 215.671 500.999 219.874 500.565 223.101C500.134 226.313 499.281 228.483 497.632 230.132C495.983 231.781 493.813 232.634 490.601 233.065C487.374 233.499 483.171 233.5 477.5 233.5H205.5C199.829 233.5 195.626 233.499 192.399 233.065C189.187 232.634 187.017 231.781 185.368 230.132C183.719 228.483 182.866 226.313 182.435 223.101C182.001 219.874 182 215.671 182 210C182 204.329 182.001 200.126 182.435 196.899C182.866 193.687 183.719 191.517 185.368 189.868C187.017 188.219 189.187 187.366 192.399 186.935C195.626 186.501 199.829 186.5 205.5 186.5Z" stroke="#3F4350"/>
<path d="M235.804 216.16C234.993 216.16 234.241 216.016 233.548 215.728C232.865 215.429 232.268 215.019 231.756 214.496C231.244 213.963 230.849 213.349 230.572 212.656C230.295 211.952 230.156 211.2 230.156 210.4C230.156 209.6 230.295 208.853 230.572 208.16C230.849 207.456 231.244 206.843 231.756 206.32C232.268 205.797 232.865 205.387 233.548 205.088C234.241 204.789 234.993 204.64 235.804 204.64C236.711 204.64 237.495 204.789 238.156 205.088C238.817 205.387 239.404 205.792 239.916 206.304L238.668 207.552C238.337 207.189 237.932 206.907 237.452 206.704C236.983 206.501 236.433 206.4 235.804 206.4C235.249 206.4 234.743 206.496 234.284 206.688C233.825 206.88 233.425 207.157 233.084 207.52C232.753 207.872 232.497 208.293 232.316 208.784C232.135 209.275 232.044 209.813 232.044 210.4C232.044 210.987 232.135 211.525 232.316 212.016C232.497 212.507 232.753 212.933 233.084 213.296C233.425 213.648 233.825 213.92 234.284 214.112C234.743 214.304 235.249 214.4 235.804 214.4C236.487 214.4 237.063 214.299 237.532 214.096C238.012 213.883 238.417 213.595 238.748 213.232L239.996 214.48C239.484 215.003 238.881 215.413 238.188 215.712C237.495 216.011 236.7 216.16 235.804 216.16ZM244.55 216.16C243.899 216.16 243.318 216.016 242.806 215.728C242.305 215.44 241.91 215.045 241.622 214.544C241.345 214.032 241.206 213.445 241.206 212.784V208.32H242.966V212.704C242.966 213.077 243.025 213.397 243.142 213.664C243.27 213.92 243.451 214.117 243.686 214.256C243.931 214.395 244.219 214.464 244.55 214.464C245.062 214.464 245.451 214.315 245.718 214.016C245.995 213.707 246.134 213.269 246.134 212.704V208.32H247.894V212.784C247.894 213.456 247.75 214.048 247.462 214.56C247.185 215.061 246.795 215.456 246.294 215.744C245.793 216.021 245.211 216.16 244.55 216.16ZM252.176 216.16C251.749 216.16 251.338 216.107 250.944 216C250.549 215.883 250.186 215.723 249.856 215.52C249.525 215.307 249.237 215.051 248.992 214.752L250.112 213.632C250.378 213.941 250.682 214.176 251.024 214.336C251.376 214.485 251.77 214.56 252.208 214.56C252.602 214.56 252.901 214.501 253.104 214.384C253.306 214.267 253.408 214.096 253.408 213.872C253.408 213.637 253.312 213.456 253.12 213.328C252.928 213.2 252.677 213.093 252.368 213.008C252.069 212.912 251.749 212.816 251.408 212.72C251.077 212.624 250.757 212.496 250.448 212.336C250.149 212.165 249.904 211.936 249.712 211.648C249.52 211.36 249.424 210.987 249.424 210.528C249.424 210.037 249.536 209.616 249.76 209.264C249.994 208.912 250.32 208.64 250.736 208.448C251.162 208.256 251.669 208.16 252.256 208.16C252.874 208.16 253.418 208.272 253.888 208.496C254.368 208.709 254.768 209.035 255.088 209.472L253.968 210.592C253.744 210.315 253.488 210.107 253.2 209.968C252.912 209.829 252.581 209.76 252.208 209.76C251.856 209.76 251.584 209.813 251.392 209.92C251.2 210.027 251.104 210.181 251.104 210.384C251.104 210.597 251.2 210.763 251.392 210.88C251.584 210.997 251.829 211.099 252.128 211.184C252.437 211.269 252.757 211.365 253.088 211.472C253.429 211.568 253.749 211.707 254.048 211.888C254.357 212.059 254.608 212.293 254.8 212.592C254.992 212.88 255.088 213.259 255.088 213.728C255.088 214.475 254.826 215.067 254.304 215.504C253.781 215.941 253.072 216.16 252.176 216.16ZM257.707 216V205.12H259.467V216H257.707ZM255.867 209.92V208.32H261.307V209.92H255.867ZM265.887 216.16C265.14 216.16 264.463 215.984 263.855 215.632C263.247 215.269 262.761 214.784 262.399 214.176C262.047 213.568 261.871 212.891 261.871 212.144C261.871 211.397 262.047 210.725 262.399 210.128C262.761 209.531 263.247 209.056 263.855 208.704C264.463 208.341 265.14 208.16 265.887 208.16C266.644 208.16 267.327 208.336 267.935 208.688C268.543 209.04 269.023 209.52 269.375 210.128C269.737 210.725 269.919 211.397 269.919 212.144C269.919 212.891 269.737 213.568 269.375 214.176C269.023 214.784 268.543 215.269 267.935 215.632C267.327 215.984 266.644 216.16 265.887 216.16ZM265.887 214.464C266.324 214.464 266.708 214.368 267.039 214.176C267.38 213.973 267.641 213.696 267.823 213.344C268.015 212.992 268.111 212.592 268.111 212.144C268.111 211.696 268.015 211.301 267.823 210.96C267.631 210.619 267.369 210.352 267.039 210.16C266.708 209.957 266.324 209.856 265.887 209.856C265.46 209.856 265.076 209.957 264.735 210.16C264.404 210.352 264.143 210.619 263.951 210.96C263.769 211.301 263.679 211.696 263.679 212.144C263.679 212.592 263.769 212.992 263.951 213.344C264.143 213.696 264.404 213.973 264.735 214.176C265.076 214.368 265.46 214.464 265.887 214.464ZM271.382 216V208.32H273.142V216H271.382ZM276.486 216V211.424C276.486 210.912 276.326 210.517 276.006 210.24C275.686 209.952 275.292 209.808 274.822 209.808C274.502 209.808 274.214 209.872 273.958 210C273.713 210.128 273.516 210.315 273.366 210.56C273.217 210.795 273.142 211.083 273.142 211.424L272.454 211.04C272.454 210.453 272.582 209.947 272.838 209.52C273.094 209.093 273.441 208.763 273.878 208.528C274.316 208.283 274.806 208.16 275.35 208.16C275.894 208.16 276.385 208.277 276.822 208.512C277.26 208.747 277.606 209.077 277.862 209.504C278.118 209.931 278.246 210.443 278.246 211.04V216H276.486ZM281.59 216V211.424C281.59 210.912 281.43 210.517 281.11 210.24C280.79 209.952 280.396 209.808 279.926 209.808C279.617 209.808 279.334 209.872 279.078 210C278.822 210.128 278.62 210.315 278.47 210.56C278.321 210.795 278.246 211.083 278.246 211.424L277.254 211.04C277.308 210.453 277.478 209.947 277.766 209.52C278.054 209.093 278.422 208.763 278.87 208.528C279.329 208.283 279.83 208.16 280.374 208.16C280.929 208.16 281.43 208.277 281.878 208.512C282.326 208.747 282.684 209.077 282.95 209.504C283.217 209.931 283.35 210.443 283.35 211.04V216H281.59Z" fill="#F1F2F4"/>
<path d="M482.531 213.969C482.671 214.11 482.751 214.301 482.751 214.501C482.751 214.7 482.671 214.891 482.531 215.032C482.39 215.173 482.199 215.252 481.999 215.252C481.8 215.252 481.609 215.173 481.468 215.032L477.5 211.063L473.531 215.031C473.39 215.172 473.199 215.251 472.999 215.251C472.8 215.251 472.609 215.172 472.468 215.031C472.327 214.89 472.248 214.699 472.248 214.499C472.248 214.3 472.327 214.109 472.468 213.968L476.437 210L472.469 206.031C472.328 205.89 472.249 205.699 472.249 205.499C472.249 205.3 472.328 205.109 472.469 204.968C472.61 204.827 472.801 204.748 473.001 204.748C473.2 204.748 473.391 204.827 473.532 204.968L477.5 208.938L481.469 204.968C481.61 204.827 481.801 204.748 482.001 204.748C482.2 204.748 482.391 204.827 482.532 204.968C482.673 205.109 482.752 205.3 482.752 205.499C482.752 205.698 482.673 205.889 482.532 206.03L478.562 210L482.531 213.969Z" fill="#F1F2F4"/>
<path d="M216.281 207.005C216.167 206.655 215.953 206.347 215.665 206.119C215.378 205.89 215.029 205.751 214.663 205.719L209.319 205.256L207.229 200.274C207.085 199.936 206.845 199.647 206.538 199.444C206.231 199.24 205.871 199.132 205.503 199.132C205.135 199.132 204.775 199.24 204.468 199.444C204.161 199.647 203.921 199.936 203.777 200.274L201.683 205.256L196.34 205.719C195.972 205.749 195.621 205.887 195.331 206.117C195.041 206.346 194.826 206.655 194.712 207.007C194.597 207.358 194.589 207.735 194.688 208.091C194.787 208.446 194.989 208.765 195.269 209.006L199.33 212.55L198.112 217.823C198.028 218.182 198.052 218.557 198.181 218.903C198.31 219.248 198.537 219.548 198.836 219.765C199.134 219.981 199.489 220.105 199.858 220.121C200.226 220.137 200.591 220.044 200.906 219.853L205.5 217.063L210.094 219.853C210.409 220.043 210.774 220.136 211.142 220.12C211.51 220.104 211.866 219.98 212.164 219.764C212.462 219.547 212.689 219.247 212.818 218.902C212.947 218.557 212.971 218.181 212.887 217.823L211.669 212.55L215.73 209.006C216.009 208.764 216.21 208.445 216.308 208.089C216.406 207.733 216.397 207.356 216.281 207.005ZM210.023 211C209.766 211.224 209.575 211.514 209.47 211.838C209.365 212.162 209.351 212.509 209.428 212.841L210.496 217.464L206.47 215.019C206.178 214.841 205.842 214.747 205.5 214.747C205.158 214.747 204.822 214.841 204.53 215.019L200.504 217.464L201.572 212.841C201.649 212.509 201.635 212.162 201.53 211.838C201.425 211.514 201.234 211.224 200.977 211L197.406 207.885L202.106 207.478C202.447 207.449 202.772 207.327 203.048 207.126C203.324 206.924 203.54 206.651 203.671 206.335L205.5 201.977L207.329 206.335C207.46 206.651 207.676 206.924 207.952 207.126C208.227 207.327 208.553 207.449 208.894 207.478L213.594 207.885L210.023 211Z" fill="#F1F2F4"/>
</svg>
