<svg width="683" height="420" viewBox="0 0 683 420" fill="none" xmlns="http://www.w3.org/2000/svg">
<rect width="683" height="420" fill="#F6F6F8"/>
<g clip-path="url(#clip0_5198_31350)">
<path d="M57.625 108.061C57.625 104.022 60.8996 100.747 64.939 100.747H618.061C622.1 100.747 625.375 104.022 625.375 108.061V311.939C625.375 315.979 622.1 319.253 618.061 319.253H64.939C60.8996 319.253 57.625 315.979 57.625 311.939V108.061Z" fill="white"/>
<rect x="57.625" y="94.3501" width="567.75" height="35.4844" fill="#F1F2F4"/>
<path d="M73.0015 148.822C73.0015 146.466 74.9115 144.556 77.2676 144.556H168.989C171.346 144.556 173.256 146.466 173.256 148.822V321.067C173.256 323.424 171.346 325.334 168.989 325.334H77.2676C74.9115 325.334 73.0015 323.424 73.0015 321.067V148.822Z" fill="#F1F2F4"/>
<path d="M182.412 148.822C182.412 146.466 184.322 144.556 186.678 144.556H605.025C607.382 144.556 609.292 146.466 609.292 148.822V320.801C609.292 323.157 607.382 325.067 605.025 325.067H186.678C184.322 325.067 182.412 323.157 182.412 320.801V148.822Z" fill="#F1F2F4"/>
<path d="M198.41 162.683C198.41 161.505 199.365 160.55 200.543 160.55H334.659C335.837 160.55 336.792 161.505 336.792 162.683V176.548C336.792 177.726 335.837 178.681 334.659 178.681H200.543C199.365 178.681 198.41 177.726 198.41 176.548V162.683Z" fill="white"/>
<path d="M198.365 221.229C198.365 220.051 199.32 219.096 200.498 219.096H390.946C392.124 219.096 393.079 220.051 393.079 221.229V246.15C393.079 247.328 392.124 248.283 390.946 248.283H200.498C199.32 248.283 198.365 247.328 198.365 246.15V221.229Z" fill="white"/>
<path d="M200.498 259.673H390.946C392.015 259.673 392.882 260.54 392.882 261.609V286.53C392.882 287.599 392.015 288.466 390.946 288.466H200.498C199.428 288.466 198.562 287.599 198.562 286.53V261.609C198.562 260.54 199.429 259.673 200.498 259.673Z" fill="white" stroke="#E1172F" stroke-width="0.394271"/>
<path d="M200.498 299.256H390.946C392.015 299.256 392.882 300.123 392.882 301.192V326.113C392.882 327.182 392.015 328.049 390.946 328.049H200.498C199.428 328.049 198.562 327.182 198.562 326.113V301.192C198.562 300.123 199.429 299.256 200.498 299.256Z" fill="white" stroke="#E1172F" stroke-width="0.394271"/>
<path d="M405.874 221.229C405.874 220.051 406.829 219.096 408.007 219.096H591.258C592.436 219.096 593.391 220.051 593.391 221.229V246.15C593.391 247.328 592.436 248.283 591.258 248.283H408.007C406.829 248.283 405.874 247.328 405.874 246.15V221.229Z" fill="white"/>
<path d="M405.874 261.609C405.874 260.431 406.829 259.476 408.007 259.476H591.258C592.436 259.476 593.391 260.431 593.391 261.609V286.53C593.391 287.708 592.436 288.663 591.258 288.663H408.007C406.829 288.663 405.874 287.708 405.874 286.53V261.609Z" fill="white"/>
<path d="M408.006 299.256H591.258C592.327 299.257 593.194 300.123 593.194 301.192V326.113C593.194 327.182 592.327 328.049 591.258 328.049H408.006C406.937 328.049 406.071 327.182 406.071 326.113V301.192C406.071 300.123 406.937 299.256 408.006 299.256Z" fill="white" stroke="#E1172F" stroke-width="0.394271"/>
<path d="M208.002 185.201H383.811C386.078 185.201 387.759 185.202 389.049 185.375C390.333 185.548 391.2 185.889 391.859 186.548C392.519 187.207 392.86 188.074 393.032 189.358C393.206 190.648 393.206 192.329 393.206 194.597C393.206 196.864 393.206 198.545 393.032 199.835C392.86 201.119 392.519 201.986 391.859 202.646C391.2 203.305 390.333 203.646 389.049 203.818C387.759 203.992 386.078 203.992 383.811 203.992H208.002C205.735 203.992 204.054 203.992 202.764 203.818C201.48 203.646 200.612 203.305 199.953 202.646C199.294 201.986 198.953 201.119 198.78 199.835C198.607 198.545 198.606 196.864 198.606 194.597C198.606 192.329 198.607 190.648 198.78 189.358C198.953 188.074 199.294 187.207 199.953 186.548C200.612 185.889 201.48 185.548 202.764 185.375C204.054 185.202 205.735 185.201 208.002 185.201Z" fill="#FCE7EA"/>
<path d="M208.002 185.201H383.811C386.078 185.201 387.759 185.202 389.049 185.375C390.333 185.548 391.2 185.889 391.859 186.548C392.519 187.207 392.86 188.074 393.032 189.358C393.206 190.648 393.206 192.329 393.206 194.597C393.206 196.864 393.206 198.545 393.032 199.835C392.86 201.119 392.519 201.986 391.859 202.646C391.2 203.305 390.333 203.646 389.049 203.818C387.759 203.992 386.078 203.992 383.811 203.992H208.002C205.735 203.992 204.054 203.992 202.764 203.818C201.48 203.646 200.612 203.305 199.953 202.646C199.294 201.986 198.953 201.119 198.78 199.835C198.607 198.545 198.606 196.864 198.606 194.597C198.606 192.329 198.607 190.648 198.78 189.358C198.953 188.074 199.294 187.207 199.953 186.548C200.612 185.889 201.48 185.548 202.764 185.375C204.054 185.202 205.735 185.201 208.002 185.201Z" stroke="#E1172F" stroke-width="0.399824"/>
<path d="M220.118 196.661C219.794 196.661 219.493 196.603 219.216 196.488C218.943 196.369 218.704 196.204 218.5 195.995C218.295 195.782 218.137 195.537 218.026 195.26C217.915 194.978 217.86 194.678 217.86 194.358C217.86 194.038 217.915 193.739 218.026 193.462C218.137 193.181 218.295 192.935 218.5 192.726C218.704 192.517 218.943 192.353 219.216 192.234C219.493 192.114 219.794 192.055 220.118 192.055C220.481 192.055 220.794 192.114 221.059 192.234C221.323 192.353 221.558 192.515 221.762 192.72L221.263 193.219C221.131 193.074 220.969 192.961 220.777 192.88C220.589 192.799 220.37 192.758 220.118 192.758C219.896 192.758 219.694 192.797 219.51 192.874C219.327 192.95 219.167 193.061 219.031 193.206C218.898 193.347 218.796 193.515 218.724 193.712C218.651 193.908 218.615 194.123 218.615 194.358C218.615 194.592 218.651 194.808 218.724 195.004C218.796 195.2 218.898 195.371 219.031 195.516C219.167 195.656 219.327 195.765 219.51 195.842C219.694 195.919 219.896 195.957 220.118 195.957C220.391 195.957 220.621 195.916 220.809 195.835C221.001 195.75 221.163 195.635 221.295 195.49L221.794 195.989C221.589 196.198 221.349 196.362 221.071 196.482C220.794 196.601 220.476 196.661 220.118 196.661ZM223.668 196.661C223.37 196.661 223.099 196.59 222.856 196.45C222.613 196.305 222.419 196.11 222.274 195.867C222.133 195.624 222.063 195.353 222.063 195.055C222.063 194.756 222.133 194.488 222.274 194.249C222.419 194.01 222.613 193.82 222.856 193.68C223.099 193.535 223.37 193.462 223.668 193.462C223.971 193.462 224.244 193.532 224.487 193.673C224.73 193.814 224.922 194.006 225.063 194.249C225.208 194.488 225.28 194.756 225.28 195.055C225.28 195.353 225.208 195.624 225.063 195.867C224.922 196.11 224.73 196.305 224.487 196.45C224.244 196.59 223.971 196.661 223.668 196.661ZM223.668 195.983C223.843 195.983 223.997 195.944 224.129 195.867C224.265 195.786 224.37 195.675 224.442 195.535C224.519 195.394 224.558 195.234 224.558 195.055C224.558 194.876 224.519 194.718 224.442 194.582C224.366 194.445 224.261 194.338 224.129 194.262C223.997 194.181 223.843 194.14 223.668 194.14C223.498 194.14 223.344 194.181 223.208 194.262C223.076 194.338 222.971 194.445 222.894 194.582C222.822 194.718 222.786 194.876 222.786 195.055C222.786 195.234 222.822 195.394 222.894 195.535C222.971 195.675 223.076 195.786 223.208 195.867C223.344 195.944 223.498 195.983 223.668 195.983ZM225.866 196.597V193.526H226.569V196.597H225.866ZM226.569 194.889L226.326 194.767C226.326 194.379 226.412 194.066 226.582 193.827C226.757 193.584 227.019 193.462 227.369 193.462C227.523 193.462 227.661 193.49 227.785 193.545C227.908 193.601 228.024 193.69 228.13 193.814L227.67 194.287C227.614 194.228 227.552 194.185 227.484 194.159C227.416 194.134 227.337 194.121 227.247 194.121C227.051 194.121 226.889 194.183 226.761 194.306C226.633 194.43 226.569 194.624 226.569 194.889ZM228.471 196.597V193.526H229.174V196.597H228.471ZM229.174 194.889L228.931 194.767C228.931 194.379 229.017 194.066 229.187 193.827C229.362 193.584 229.624 193.462 229.974 193.462C230.128 193.462 230.266 193.49 230.39 193.545C230.514 193.601 230.629 193.69 230.735 193.814L230.275 194.287C230.219 194.228 230.157 194.185 230.089 194.159C230.021 194.134 229.942 194.121 229.853 194.121C229.656 194.121 229.494 194.183 229.366 194.306C229.238 194.43 229.174 194.624 229.174 194.889ZM232.409 196.661C232.102 196.661 231.824 196.592 231.577 196.456C231.334 196.315 231.14 196.123 230.995 195.88C230.854 195.637 230.784 195.364 230.784 195.061C230.784 194.759 230.854 194.488 230.995 194.249C231.136 194.006 231.325 193.814 231.564 193.673C231.807 193.532 232.076 193.462 232.37 193.462C232.656 193.462 232.908 193.528 233.125 193.66C233.347 193.793 233.52 193.974 233.643 194.204C233.771 194.434 233.835 194.697 233.835 194.991C233.835 195.042 233.831 195.095 233.823 195.151C233.818 195.202 233.81 195.26 233.797 195.324H231.276V194.748H233.432L233.17 194.978C233.161 194.791 233.125 194.633 233.061 194.505C232.997 194.377 232.906 194.279 232.786 194.211C232.671 194.142 232.528 194.108 232.358 194.108C232.178 194.108 232.023 194.147 231.891 194.223C231.758 194.3 231.656 194.409 231.583 194.55C231.511 194.686 231.475 194.85 231.475 195.042C231.475 195.234 231.513 195.403 231.59 195.548C231.667 195.693 231.775 195.806 231.916 195.887C232.057 195.963 232.219 196.002 232.402 196.002C232.56 196.002 232.705 195.974 232.837 195.919C232.974 195.863 233.089 195.782 233.183 195.675L233.631 196.13C233.481 196.305 233.3 196.437 233.087 196.526C232.874 196.616 232.648 196.661 232.409 196.661ZM235.813 196.661C235.51 196.661 235.235 196.59 234.988 196.45C234.745 196.309 234.553 196.117 234.412 195.874C234.271 195.631 234.201 195.36 234.201 195.061C234.201 194.759 234.271 194.488 234.412 194.249C234.553 194.006 234.745 193.814 234.988 193.673C235.235 193.532 235.51 193.462 235.813 193.462C236.052 193.462 236.274 193.509 236.478 193.603C236.687 193.692 236.864 193.822 237.009 193.993L236.549 194.46C236.459 194.353 236.351 194.275 236.223 194.223C236.099 194.168 235.962 194.14 235.813 194.14C235.638 194.14 235.483 194.181 235.346 194.262C235.214 194.338 235.109 194.445 235.033 194.582C234.96 194.718 234.924 194.878 234.924 195.061C234.924 195.24 234.96 195.4 235.033 195.541C235.109 195.678 235.214 195.786 235.346 195.867C235.483 195.944 235.638 195.983 235.813 195.983C235.962 195.983 236.099 195.957 236.223 195.906C236.351 195.85 236.459 195.769 236.549 195.663L237.009 196.13C236.864 196.3 236.687 196.432 236.478 196.526C236.274 196.616 236.052 196.661 235.813 196.661ZM237.934 196.597V192.247H238.637V196.597H237.934ZM237.198 194.166V193.526H239.373V194.166H237.198ZM241.632 196.597V192.247H242.336V196.597H241.632ZM240.896 194.166V193.526H243.072V194.166H240.896ZM245.688 196.597V194.825C245.688 194.62 245.621 194.451 245.489 194.319C245.361 194.187 245.195 194.121 244.99 194.121C244.854 194.121 244.732 194.151 244.626 194.211C244.519 194.27 244.436 194.353 244.376 194.46C244.316 194.567 244.287 194.688 244.287 194.825L244.011 194.671C244.011 194.437 244.063 194.23 244.165 194.051C244.267 193.867 244.408 193.724 244.587 193.622C244.771 193.515 244.975 193.462 245.201 193.462C245.432 193.462 245.636 193.513 245.815 193.616C245.995 193.718 246.135 193.861 246.238 194.044C246.34 194.223 246.391 194.432 246.391 194.671V196.597H245.688ZM243.583 196.597V191.991H244.287V196.597H243.583ZM248.533 196.661C248.226 196.661 247.949 196.592 247.701 196.456C247.458 196.315 247.264 196.123 247.119 195.88C246.978 195.637 246.908 195.364 246.908 195.061C246.908 194.759 246.978 194.488 247.119 194.249C247.26 194.006 247.45 193.814 247.688 193.673C247.932 193.532 248.2 193.462 248.495 193.462C248.78 193.462 249.032 193.528 249.249 193.66C249.471 193.793 249.644 193.974 249.768 194.204C249.895 194.434 249.959 194.697 249.959 194.991C249.959 195.042 249.955 195.095 249.947 195.151C249.942 195.202 249.934 195.26 249.921 195.324H247.401V194.748H249.556L249.294 194.978C249.286 194.791 249.249 194.633 249.185 194.505C249.121 194.377 249.03 194.279 248.91 194.211C248.795 194.142 248.652 194.108 248.482 194.108C248.303 194.108 248.147 194.147 248.015 194.223C247.883 194.3 247.78 194.409 247.708 194.55C247.635 194.686 247.599 194.85 247.599 195.042C247.599 195.234 247.637 195.403 247.714 195.548C247.791 195.693 247.9 195.806 248.04 195.887C248.181 195.963 248.343 196.002 248.526 196.002C248.684 196.002 248.829 195.974 248.961 195.919C249.098 195.863 249.213 195.782 249.307 195.675L249.755 196.13C249.605 196.305 249.424 196.437 249.211 196.526C248.998 196.616 248.772 196.661 248.533 196.661ZM252.226 196.597V193.123C252.226 192.888 252.278 192.682 252.38 192.502C252.487 192.323 252.632 192.183 252.815 192.08C253.003 191.978 253.218 191.927 253.461 191.927C253.649 191.927 253.809 191.959 253.941 192.023C254.073 192.087 254.197 192.178 254.312 192.298L253.858 192.752C253.807 192.701 253.751 192.66 253.691 192.63C253.632 192.601 253.555 192.586 253.461 192.586C253.291 192.586 253.158 192.633 253.064 192.726C252.975 192.816 252.93 192.946 252.93 193.117V196.597H252.226ZM251.491 194.166V193.526H253.858V194.166H251.491ZM255.636 196.661C255.337 196.661 255.066 196.59 254.823 196.45C254.58 196.305 254.386 196.11 254.241 195.867C254.1 195.624 254.03 195.353 254.03 195.055C254.03 194.756 254.1 194.488 254.241 194.249C254.386 194.01 254.58 193.82 254.823 193.68C255.066 193.535 255.337 193.462 255.636 193.462C255.938 193.462 256.211 193.532 256.454 193.673C256.697 193.814 256.889 194.006 257.03 194.249C257.175 194.488 257.248 194.756 257.248 195.055C257.248 195.353 257.175 195.624 257.03 195.867C256.889 196.11 256.697 196.305 256.454 196.45C256.211 196.59 255.938 196.661 255.636 196.661ZM255.636 195.983C255.81 195.983 255.964 195.944 256.096 195.867C256.233 195.786 256.337 195.675 256.41 195.535C256.486 195.394 256.525 195.234 256.525 195.055C256.525 194.876 256.486 194.718 256.41 194.582C256.333 194.445 256.228 194.338 256.096 194.262C255.964 194.181 255.81 194.14 255.636 194.14C255.465 194.14 255.311 194.181 255.175 194.262C255.043 194.338 254.938 194.445 254.862 194.582C254.789 194.718 254.753 194.876 254.753 195.055C254.753 195.234 254.789 195.394 254.862 195.535C254.938 195.675 255.043 195.786 255.175 195.867C255.311 195.944 255.465 195.983 255.636 195.983ZM257.833 196.597V191.991H258.537V196.597H257.833ZM259.32 196.597V191.991H260.023V196.597H259.32ZM262.214 196.661C261.915 196.661 261.645 196.59 261.401 196.45C261.158 196.305 260.964 196.11 260.819 195.867C260.679 195.624 260.608 195.353 260.608 195.055C260.608 194.756 260.679 194.488 260.819 194.249C260.964 194.01 261.158 193.82 261.401 193.68C261.645 193.535 261.915 193.462 262.214 193.462C262.517 193.462 262.79 193.532 263.033 193.673C263.276 193.814 263.468 194.006 263.609 194.249C263.754 194.488 263.826 194.756 263.826 195.055C263.826 195.353 263.754 195.624 263.609 195.867C263.468 196.11 263.276 196.305 263.033 196.45C262.79 196.59 262.517 196.661 262.214 196.661ZM262.214 195.983C262.389 195.983 262.542 195.944 262.675 195.867C262.811 195.786 262.915 195.675 262.988 195.535C263.065 195.394 263.103 195.234 263.103 195.055C263.103 194.876 263.065 194.718 262.988 194.582C262.911 194.445 262.807 194.338 262.675 194.262C262.542 194.181 262.389 194.14 262.214 194.14C262.043 194.14 261.89 194.181 261.753 194.262C261.621 194.338 261.517 194.445 261.44 194.582C261.367 194.718 261.331 194.876 261.331 195.055C261.331 195.234 261.367 195.394 261.44 195.535C261.517 195.675 261.621 195.786 261.753 195.867C261.89 195.944 262.043 195.983 262.214 195.983ZM265.232 196.597L263.997 193.526H264.726L265.558 195.759L265.341 195.765L266.153 193.526H266.562L267.375 195.765L267.157 195.759L267.989 193.526H268.718L267.484 196.597H267.074L266.243 194.473H266.473L265.641 196.597H265.232ZM269.116 196.597V193.526H269.819V196.597H269.116ZM269.467 192.963C269.348 192.963 269.248 192.923 269.167 192.842C269.09 192.761 269.052 192.66 269.052 192.541C269.052 192.421 269.09 192.321 269.167 192.24C269.248 192.159 269.348 192.119 269.467 192.119C269.591 192.119 269.691 192.159 269.768 192.24C269.845 192.321 269.883 192.421 269.883 192.541C269.883 192.66 269.845 192.761 269.768 192.842C269.691 192.923 269.591 192.963 269.467 192.963ZM272.713 196.597V194.825C272.713 194.62 272.647 194.451 272.515 194.319C272.387 194.187 272.221 194.121 272.016 194.121C271.879 194.121 271.758 194.151 271.651 194.211C271.545 194.27 271.461 194.353 271.402 194.46C271.342 194.567 271.312 194.688 271.312 194.825L271.037 194.671C271.037 194.437 271.088 194.23 271.191 194.051C271.293 193.867 271.434 193.724 271.613 193.622C271.796 193.515 272.001 193.462 272.227 193.462C272.457 193.462 272.662 193.522 272.841 193.641C273.02 193.756 273.161 193.908 273.263 194.095C273.366 194.279 273.417 194.471 273.417 194.671V196.597H272.713ZM270.608 196.597V193.526H271.312V196.597H270.608ZM275.411 197.94C275.087 197.94 274.804 197.88 274.561 197.761C274.317 197.646 274.121 197.482 273.972 197.268L274.433 196.808C274.556 196.961 274.697 197.076 274.855 197.153C275.013 197.23 275.202 197.268 275.424 197.268C275.701 197.268 275.921 197.196 276.083 197.051C276.245 196.91 276.326 196.716 276.326 196.469V195.714L276.448 195.036L276.326 194.351V193.526H277.03V196.469C277.03 196.763 276.962 197.019 276.825 197.236C276.689 197.458 276.499 197.631 276.256 197.755C276.013 197.878 275.731 197.94 275.411 197.94ZM275.379 196.533C275.106 196.533 274.859 196.467 274.637 196.334C274.42 196.198 274.247 196.012 274.119 195.778C273.995 195.543 273.934 195.281 273.934 194.991C273.934 194.701 273.995 194.441 274.119 194.211C274.247 193.98 274.42 193.799 274.637 193.667C274.859 193.53 275.106 193.462 275.379 193.462C275.622 193.462 275.836 193.511 276.019 193.609C276.202 193.707 276.345 193.844 276.448 194.019C276.55 194.189 276.601 194.39 276.601 194.62V195.375C276.601 195.601 276.548 195.801 276.441 195.976C276.339 196.151 276.196 196.287 276.013 196.386C275.829 196.484 275.618 196.533 275.379 196.533ZM275.52 195.867C275.691 195.867 275.84 195.831 275.968 195.759C276.096 195.686 276.194 195.586 276.262 195.458C276.335 195.326 276.371 195.172 276.371 194.997C276.371 194.823 276.335 194.671 276.262 194.543C276.194 194.411 276.096 194.309 275.968 194.236C275.84 194.164 275.691 194.127 275.52 194.127C275.35 194.127 275.198 194.164 275.066 194.236C274.938 194.309 274.838 194.411 274.765 194.543C274.693 194.671 274.656 194.823 274.656 194.997C274.656 195.168 274.693 195.319 274.765 195.452C274.838 195.584 274.938 195.686 275.066 195.759C275.198 195.831 275.35 195.867 275.52 195.867ZM280.519 196.661C280.212 196.661 279.935 196.592 279.687 196.456C279.444 196.315 279.25 196.123 279.105 195.88C278.964 195.637 278.894 195.364 278.894 195.061C278.894 194.759 278.964 194.488 279.105 194.249C279.246 194.006 279.436 193.814 279.674 193.673C279.917 193.532 280.186 193.462 280.48 193.462C280.766 193.462 281.018 193.528 281.235 193.66C281.457 193.793 281.63 193.974 281.753 194.204C281.881 194.434 281.945 194.697 281.945 194.991C281.945 195.042 281.941 195.095 281.933 195.151C281.928 195.202 281.92 195.26 281.907 195.324H279.387V194.748H281.542L281.28 194.978C281.272 194.791 281.235 194.633 281.171 194.505C281.107 194.377 281.016 194.279 280.896 194.211C280.781 194.142 280.638 194.108 280.468 194.108C280.289 194.108 280.133 194.147 280.001 194.223C279.868 194.3 279.766 194.409 279.694 194.55C279.621 194.686 279.585 194.85 279.585 195.042C279.585 195.234 279.623 195.403 279.7 195.548C279.777 195.693 279.885 195.806 280.026 195.887C280.167 195.963 280.329 196.002 280.512 196.002C280.67 196.002 280.815 195.974 280.947 195.919C281.084 195.863 281.199 195.782 281.293 195.675L281.741 196.13C281.591 196.305 281.41 196.437 281.197 196.526C280.984 196.616 280.758 196.661 280.519 196.661ZM282.509 196.597V193.526H283.213V196.597H282.509ZM283.213 194.889L282.97 194.767C282.97 194.379 283.055 194.066 283.226 193.827C283.401 193.584 283.663 193.462 284.013 193.462C284.166 193.462 284.305 193.49 284.429 193.545C284.552 193.601 284.667 193.69 284.774 193.814L284.313 194.287C284.258 194.228 284.196 194.185 284.128 194.159C284.06 194.134 283.981 194.121 283.891 194.121C283.695 194.121 283.533 194.183 283.405 194.306C283.277 194.43 283.213 194.624 283.213 194.889ZM285.115 196.597V193.526H285.818V196.597H285.115ZM285.818 194.889L285.575 194.767C285.575 194.379 285.66 194.066 285.831 193.827C286.006 193.584 286.268 193.462 286.618 193.462C286.771 193.462 286.91 193.49 287.034 193.545C287.157 193.601 287.273 193.69 287.379 193.814L286.919 194.287C286.863 194.228 286.801 194.185 286.733 194.159C286.665 194.134 286.586 194.121 286.496 194.121C286.3 194.121 286.138 194.183 286.01 194.306C285.882 194.43 285.818 194.624 285.818 194.889ZM289.033 196.661C288.735 196.661 288.464 196.59 288.221 196.45C287.978 196.305 287.784 196.11 287.639 195.867C287.498 195.624 287.428 195.353 287.428 195.055C287.428 194.756 287.498 194.488 287.639 194.249C287.784 194.01 287.978 193.82 288.221 193.68C288.464 193.535 288.735 193.462 289.033 193.462C289.336 193.462 289.609 193.532 289.852 193.673C290.095 193.814 290.287 194.006 290.428 194.249C290.573 194.488 290.645 194.756 290.645 195.055C290.645 195.353 290.573 195.624 290.428 195.867C290.287 196.11 290.095 196.305 289.852 196.45C289.609 196.59 289.336 196.661 289.033 196.661ZM289.033 195.983C289.208 195.983 289.362 195.944 289.494 195.867C289.63 195.786 289.735 195.675 289.807 195.535C289.884 195.394 289.923 195.234 289.923 195.055C289.923 194.876 289.884 194.718 289.807 194.582C289.731 194.445 289.626 194.338 289.494 194.262C289.362 194.181 289.208 194.14 289.033 194.14C288.863 194.14 288.709 194.181 288.573 194.262C288.441 194.338 288.336 194.445 288.259 194.582C288.187 194.718 288.151 194.876 288.151 195.055C288.151 195.234 288.187 195.394 288.259 195.535C288.336 195.675 288.441 195.786 288.573 195.867C288.709 195.944 288.863 195.983 289.033 195.983ZM291.231 196.597V193.526H291.934V196.597H291.231ZM291.934 194.889L291.691 194.767C291.691 194.379 291.777 194.066 291.947 193.827C292.122 193.584 292.384 193.462 292.734 193.462C292.888 193.462 293.026 193.49 293.15 193.545C293.273 193.601 293.389 193.69 293.495 193.814L293.035 194.287C292.979 194.228 292.917 194.185 292.849 194.159C292.781 194.134 292.702 194.121 292.612 194.121C292.416 194.121 292.254 194.183 292.126 194.306C291.998 194.43 291.934 194.624 291.934 194.889ZM294.771 196.661C294.601 196.661 294.437 196.639 294.279 196.597C294.121 196.55 293.976 196.486 293.844 196.405C293.712 196.319 293.596 196.217 293.498 196.098L293.946 195.65C294.053 195.774 294.174 195.867 294.311 195.931C294.452 195.991 294.609 196.021 294.784 196.021C294.942 196.021 295.061 195.997 295.142 195.951C295.223 195.904 295.264 195.835 295.264 195.746C295.264 195.652 295.226 195.58 295.149 195.528C295.072 195.477 294.972 195.435 294.848 195.4C294.729 195.362 294.601 195.324 294.464 195.285C294.332 195.247 294.204 195.196 294.08 195.132C293.961 195.063 293.863 194.972 293.786 194.857C293.709 194.741 293.671 194.592 293.671 194.409C293.671 194.213 293.716 194.044 293.805 193.903C293.899 193.763 294.029 193.654 294.196 193.577C294.366 193.5 294.569 193.462 294.803 193.462C295.051 193.462 295.268 193.507 295.456 193.596C295.648 193.682 295.808 193.812 295.936 193.987L295.488 194.434C295.398 194.324 295.296 194.24 295.181 194.185C295.066 194.129 294.933 194.102 294.784 194.102C294.643 194.102 294.535 194.123 294.458 194.166C294.381 194.208 294.343 194.27 294.343 194.351C294.343 194.437 294.381 194.503 294.458 194.55C294.535 194.596 294.633 194.637 294.752 194.671C294.876 194.705 295.004 194.744 295.136 194.786C295.272 194.825 295.4 194.88 295.52 194.953C295.644 195.021 295.744 195.115 295.821 195.234C295.897 195.349 295.936 195.501 295.936 195.688C295.936 195.987 295.831 196.224 295.622 196.398C295.413 196.573 295.13 196.661 294.771 196.661ZM296.989 196.661C296.853 196.661 296.74 196.616 296.65 196.526C296.565 196.432 296.522 196.319 296.522 196.187C296.522 196.051 296.565 195.938 296.65 195.848C296.74 195.759 296.853 195.714 296.989 195.714C297.126 195.714 297.237 195.759 297.322 195.848C297.411 195.938 297.456 196.051 297.456 196.187C297.456 196.319 297.411 196.432 297.322 196.526C297.237 196.616 297.126 196.661 296.989 196.661ZM296.989 194.684C296.853 194.684 296.74 194.639 296.65 194.55C296.565 194.456 296.522 194.343 296.522 194.211C296.522 194.074 296.565 193.961 296.65 193.871C296.74 193.782 296.853 193.737 296.989 193.737C297.126 193.737 297.237 193.782 297.322 193.871C297.411 193.961 297.456 194.074 297.456 194.211C297.456 194.343 297.411 194.456 297.322 194.55C297.237 194.639 297.126 194.684 296.989 194.684ZM300.793 196.661C300.533 196.661 300.301 196.603 300.096 196.488C299.896 196.373 299.738 196.215 299.623 196.015C299.512 195.81 299.456 195.575 299.456 195.311V193.526H300.16V195.279C300.16 195.428 300.184 195.556 300.231 195.663C300.282 195.765 300.354 195.844 300.448 195.899C300.546 195.955 300.661 195.983 300.793 195.983C300.998 195.983 301.154 195.923 301.26 195.803C301.371 195.68 301.427 195.505 301.427 195.279V193.526H302.13V195.311C302.13 195.58 302.073 195.816 301.958 196.021C301.847 196.221 301.691 196.379 301.491 196.494C301.29 196.605 301.058 196.661 300.793 196.661ZM303.842 196.661C303.672 196.661 303.508 196.639 303.35 196.597C303.192 196.55 303.047 196.486 302.915 196.405C302.783 196.319 302.667 196.217 302.569 196.098L303.017 195.65C303.124 195.774 303.245 195.867 303.382 195.931C303.523 195.991 303.68 196.021 303.855 196.021C304.013 196.021 304.132 195.997 304.213 195.951C304.294 195.904 304.335 195.835 304.335 195.746C304.335 195.652 304.297 195.58 304.22 195.528C304.143 195.477 304.043 195.435 303.919 195.4C303.8 195.362 303.672 195.324 303.535 195.285C303.403 195.247 303.275 195.196 303.151 195.132C303.032 195.063 302.934 194.972 302.857 194.857C302.78 194.741 302.742 194.592 302.742 194.409C302.742 194.213 302.787 194.044 302.876 193.903C302.97 193.763 303.1 193.654 303.267 193.577C303.437 193.5 303.64 193.462 303.874 193.462C304.122 193.462 304.339 193.507 304.527 193.596C304.719 193.682 304.879 193.812 305.007 193.987L304.559 194.434C304.469 194.324 304.367 194.24 304.252 194.185C304.137 194.129 304.004 194.102 303.855 194.102C303.714 194.102 303.606 194.123 303.529 194.166C303.452 194.208 303.414 194.27 303.414 194.351C303.414 194.437 303.452 194.503 303.529 194.55C303.606 194.596 303.704 194.637 303.823 194.671C303.947 194.705 304.075 194.744 304.207 194.786C304.343 194.825 304.471 194.88 304.591 194.953C304.715 195.021 304.815 195.115 304.892 195.234C304.968 195.349 305.007 195.501 305.007 195.688C305.007 195.987 304.902 196.224 304.693 196.398C304.484 196.573 304.201 196.661 303.842 196.661ZM307.013 196.661C306.706 196.661 306.429 196.592 306.182 196.456C305.939 196.315 305.745 196.123 305.6 195.88C305.459 195.637 305.389 195.364 305.389 195.061C305.389 194.759 305.459 194.488 305.6 194.249C305.74 194.006 305.93 193.814 306.169 193.673C306.412 193.532 306.681 193.462 306.975 193.462C307.261 193.462 307.512 193.528 307.73 193.66C307.952 193.793 308.124 193.974 308.248 194.204C308.376 194.434 308.44 194.697 308.44 194.991C308.44 195.042 308.436 195.095 308.427 195.151C308.423 195.202 308.414 195.26 308.402 195.324H305.881V194.748H308.037L307.775 194.978C307.766 194.791 307.73 194.633 307.666 194.505C307.602 194.377 307.51 194.279 307.391 194.211C307.276 194.142 307.133 194.108 306.962 194.108C306.783 194.108 306.627 194.147 306.495 194.223C306.363 194.3 306.261 194.409 306.188 194.55C306.116 194.686 306.079 194.85 306.079 195.042C306.079 195.234 306.118 195.403 306.195 195.548C306.271 195.693 306.38 195.806 306.521 195.887C306.662 195.963 306.824 196.002 307.007 196.002C307.165 196.002 307.31 195.974 307.442 195.919C307.578 195.863 307.694 195.782 307.787 195.675L308.235 196.13C308.086 196.305 307.905 196.437 307.691 196.526C307.478 196.616 307.252 196.661 307.013 196.661ZM309.004 196.597V193.526H309.708V196.597H309.004ZM309.708 194.889L309.465 194.767C309.465 194.379 309.55 194.066 309.721 193.827C309.895 193.584 310.158 193.462 310.507 193.462C310.661 193.462 310.8 193.49 310.923 193.545C311.047 193.601 311.162 193.69 311.269 193.814L310.808 194.287C310.753 194.228 310.691 194.185 310.623 194.159C310.554 194.134 310.475 194.121 310.386 194.121C310.19 194.121 310.028 194.183 309.9 194.306C309.772 194.43 309.708 194.624 309.708 194.889ZM313.714 196.597V194.825C313.714 194.62 313.648 194.451 313.516 194.319C313.388 194.187 313.221 194.121 313.017 194.121C312.88 194.121 312.759 194.151 312.652 194.211C312.545 194.27 312.462 194.353 312.402 194.46C312.343 194.567 312.313 194.688 312.313 194.825L312.038 194.671C312.038 194.437 312.089 194.23 312.191 194.051C312.294 193.867 312.434 193.724 312.614 193.622C312.797 193.515 313.002 193.462 313.228 193.462C313.458 193.462 313.663 193.522 313.842 193.641C314.021 193.756 314.162 193.908 314.264 194.095C314.366 194.279 314.418 194.471 314.418 194.671V196.597H313.714ZM311.609 196.597V193.526H312.313V196.597H311.609ZM316.418 196.661C316.141 196.661 315.89 196.59 315.664 196.45C315.442 196.309 315.265 196.119 315.133 195.88C315.005 195.637 314.941 195.366 314.941 195.068C314.941 194.765 315.005 194.494 315.133 194.255C315.265 194.012 315.442 193.82 315.664 193.68C315.89 193.535 316.141 193.462 316.418 193.462C316.653 193.462 316.86 193.513 317.039 193.616C317.222 193.714 317.367 193.85 317.474 194.025C317.581 194.2 317.634 194.398 317.634 194.62V195.503C317.634 195.725 317.581 195.923 317.474 196.098C317.372 196.273 317.229 196.411 317.045 196.514C316.862 196.612 316.653 196.661 316.418 196.661ZM316.534 195.995C316.794 195.995 317.003 195.908 317.161 195.733C317.323 195.558 317.404 195.334 317.404 195.061C317.404 194.878 317.367 194.716 317.295 194.575C317.222 194.434 317.12 194.326 316.988 194.249C316.86 194.168 316.708 194.127 316.534 194.127C316.363 194.127 316.212 194.168 316.079 194.249C315.951 194.326 315.849 194.434 315.772 194.575C315.7 194.716 315.664 194.878 315.664 195.061C315.664 195.245 315.7 195.407 315.772 195.548C315.849 195.688 315.951 195.799 316.079 195.88C316.212 195.957 316.363 195.995 316.534 195.995ZM317.359 196.597V195.771L317.48 195.023L317.359 194.281V193.526H318.063V196.597H317.359ZM318.843 196.597V193.526H319.547V196.597H318.843ZM320.884 196.597V194.767C320.884 194.562 320.82 194.405 320.692 194.294C320.564 194.179 320.407 194.121 320.219 194.121C320.091 194.121 319.976 194.147 319.873 194.198C319.775 194.249 319.696 194.324 319.637 194.422C319.577 194.515 319.547 194.631 319.547 194.767L319.272 194.614C319.272 194.379 319.323 194.176 319.426 194.006C319.528 193.835 319.667 193.703 319.841 193.609C320.016 193.511 320.212 193.462 320.43 193.462C320.647 193.462 320.844 193.509 321.019 193.603C321.193 193.697 321.332 193.829 321.434 193.999C321.537 194.17 321.588 194.375 321.588 194.614V196.597H320.884ZM322.925 196.597V194.767C322.925 194.562 322.861 194.405 322.733 194.294C322.605 194.179 322.447 194.121 322.26 194.121C322.136 194.121 322.023 194.147 321.921 194.198C321.818 194.249 321.737 194.324 321.677 194.422C321.618 194.515 321.588 194.631 321.588 194.767L321.191 194.614C321.213 194.379 321.281 194.176 321.396 194.006C321.511 193.835 321.658 193.703 321.837 193.609C322.021 193.511 322.221 193.462 322.439 193.462C322.66 193.462 322.861 193.509 323.04 193.603C323.219 193.697 323.362 193.829 323.469 193.999C323.575 194.17 323.629 194.375 323.629 194.614V196.597H322.925ZM325.78 196.661C325.473 196.661 325.196 196.592 324.948 196.456C324.705 196.315 324.511 196.123 324.366 195.88C324.226 195.637 324.155 195.364 324.155 195.061C324.155 194.759 324.226 194.488 324.366 194.249C324.507 194.006 324.697 193.814 324.936 193.673C325.179 193.532 325.447 193.462 325.742 193.462C326.027 193.462 326.279 193.528 326.497 193.66C326.718 193.793 326.891 193.974 327.015 194.204C327.143 194.434 327.207 194.697 327.207 194.991C327.207 195.042 327.202 195.095 327.194 195.151C327.19 195.202 327.181 195.26 327.168 195.324H324.648V194.748H326.804L326.541 194.978C326.533 194.791 326.497 194.633 326.433 194.505C326.369 194.377 326.277 194.279 326.158 194.211C326.042 194.142 325.9 194.108 325.729 194.108C325.55 194.108 325.394 194.147 325.262 194.223C325.13 194.3 325.027 194.409 324.955 194.55C324.882 194.686 324.846 194.85 324.846 195.042C324.846 195.234 324.885 195.403 324.961 195.548C325.038 195.693 325.147 195.806 325.288 195.887C325.428 195.963 325.59 196.002 325.774 196.002C325.932 196.002 326.077 195.974 326.209 195.919C326.345 195.863 326.46 195.782 326.554 195.675L327.002 196.13C326.853 196.305 326.671 196.437 326.458 196.526C326.245 196.616 326.019 196.661 325.78 196.661ZM330.337 196.661C330.06 196.661 329.808 196.59 329.582 196.45C329.361 196.309 329.184 196.119 329.051 195.88C328.924 195.637 328.86 195.366 328.86 195.068C328.86 194.765 328.924 194.494 329.051 194.255C329.184 194.012 329.361 193.82 329.582 193.68C329.808 193.535 330.06 193.462 330.337 193.462C330.572 193.462 330.779 193.513 330.958 193.616C331.141 193.714 331.286 193.85 331.393 194.025C331.499 194.2 331.553 194.398 331.553 194.62V195.503C331.553 195.725 331.499 195.923 331.393 196.098C331.29 196.273 331.148 196.411 330.964 196.514C330.781 196.612 330.572 196.661 330.337 196.661ZM330.452 195.995C330.713 195.995 330.922 195.908 331.079 195.733C331.241 195.558 331.322 195.334 331.322 195.061C331.322 194.878 331.286 194.716 331.214 194.575C331.141 194.434 331.039 194.326 330.907 194.249C330.779 194.168 330.627 194.127 330.452 194.127C330.282 194.127 330.13 194.168 329.998 194.249C329.87 194.326 329.768 194.434 329.691 194.575C329.619 194.716 329.582 194.878 329.582 195.061C329.582 195.245 329.619 195.407 329.691 195.548C329.768 195.688 329.87 195.799 329.998 195.88C330.13 195.957 330.282 195.995 330.452 195.995ZM331.278 196.597V195.771L331.399 195.023L331.278 194.281V193.526H331.981V196.597H331.278ZM334.867 196.597V194.825C334.867 194.62 334.801 194.451 334.669 194.319C334.541 194.187 334.374 194.121 334.17 194.121C334.033 194.121 333.912 194.151 333.805 194.211C333.698 194.27 333.615 194.353 333.556 194.46C333.496 194.567 333.466 194.688 333.466 194.825L333.191 194.671C333.191 194.437 333.242 194.23 333.344 194.051C333.447 193.867 333.588 193.724 333.767 193.622C333.95 193.515 334.155 193.462 334.381 193.462C334.611 193.462 334.816 193.522 334.995 193.641C335.174 193.756 335.315 193.908 335.417 194.095C335.52 194.279 335.571 194.471 335.571 194.671V196.597H334.867ZM332.762 196.597V193.526H333.466V196.597H332.762ZM337.572 196.661C337.294 196.661 337.043 196.59 336.817 196.45C336.595 196.309 336.418 196.119 336.286 195.88C336.158 195.637 336.094 195.366 336.094 195.068C336.094 194.765 336.158 194.494 336.286 194.255C336.418 194.012 336.595 193.82 336.817 193.68C337.043 193.535 337.294 193.462 337.572 193.462C337.806 193.462 338.013 193.513 338.192 193.616C338.376 193.714 338.521 193.85 338.627 194.025C338.734 194.2 338.787 194.398 338.787 194.62V195.503C338.787 195.725 338.734 195.923 338.627 196.098C338.525 196.273 338.382 196.411 338.199 196.514C338.015 196.612 337.806 196.661 337.572 196.661ZM337.687 195.995C337.862 195.995 338.013 195.957 338.141 195.88C338.273 195.799 338.376 195.688 338.448 195.548C338.521 195.407 338.557 195.245 338.557 195.061C338.557 194.878 338.521 194.716 338.448 194.575C338.376 194.434 338.273 194.326 338.141 194.249C338.013 194.168 337.862 194.127 337.687 194.127C337.516 194.127 337.365 194.168 337.233 194.249C337.105 194.326 337.002 194.434 336.926 194.575C336.853 194.716 336.817 194.878 336.817 195.061C336.817 195.245 336.853 195.407 336.926 195.548C337.002 195.688 337.105 195.799 337.233 195.88C337.365 195.957 337.516 195.995 337.687 195.995ZM339.216 196.597H338.512V195.771L338.634 195.023L338.512 194.281V191.991H339.216V196.597ZM342.921 196.661C342.687 196.661 342.478 196.612 342.295 196.514C342.111 196.411 341.966 196.273 341.859 196.098C341.757 195.923 341.706 195.725 341.706 195.503V194.62C341.706 194.398 341.759 194.2 341.866 194.025C341.973 193.85 342.118 193.714 342.301 193.616C342.484 193.513 342.691 193.462 342.921 193.462C343.199 193.462 343.448 193.535 343.67 193.68C343.896 193.82 344.073 194.012 344.201 194.255C344.333 194.494 344.399 194.765 344.399 195.068C344.399 195.366 344.333 195.637 344.201 195.88C344.073 196.119 343.896 196.309 343.67 196.45C343.448 196.59 343.199 196.661 342.921 196.661ZM341.277 197.876V193.526H341.981V194.351L341.859 195.1L341.981 195.842V197.876H341.277ZM342.806 195.995C342.977 195.995 343.126 195.957 343.254 195.88C343.386 195.799 343.489 195.688 343.561 195.548C343.638 195.407 343.676 195.245 343.676 195.061C343.676 194.878 343.638 194.716 343.561 194.575C343.489 194.434 343.386 194.326 343.254 194.249C343.126 194.168 342.977 194.127 342.806 194.127C342.636 194.127 342.484 194.168 342.352 194.249C342.22 194.326 342.118 194.434 342.045 194.575C341.973 194.716 341.936 194.878 341.936 195.061C341.936 195.245 341.973 195.407 342.045 195.548C342.118 195.688 342.22 195.799 342.352 195.88C342.484 195.957 342.636 195.995 342.806 195.995ZM346.274 196.661C345.997 196.661 345.745 196.59 345.519 196.45C345.297 196.309 345.12 196.119 344.988 195.88C344.86 195.637 344.796 195.366 344.796 195.068C344.796 194.765 344.86 194.494 344.988 194.255C345.12 194.012 345.297 193.82 345.519 193.68C345.745 193.535 345.997 193.462 346.274 193.462C346.509 193.462 346.715 193.513 346.895 193.616C347.078 193.714 347.223 193.85 347.33 194.025C347.436 194.2 347.49 194.398 347.49 194.62V195.503C347.49 195.725 347.436 195.923 347.33 196.098C347.227 196.273 347.084 196.411 346.901 196.514C346.718 196.612 346.509 196.661 346.274 196.661ZM346.389 195.995C346.649 195.995 346.858 195.908 347.016 195.733C347.178 195.558 347.259 195.334 347.259 195.061C347.259 194.878 347.223 194.716 347.15 194.575C347.078 194.434 346.976 194.326 346.843 194.249C346.715 194.168 346.564 194.127 346.389 194.127C346.219 194.127 346.067 194.168 345.935 194.249C345.807 194.326 345.705 194.434 345.628 194.575C345.555 194.716 345.519 194.878 345.519 195.061C345.519 195.245 345.555 195.407 345.628 195.548C345.705 195.688 345.807 195.799 345.935 195.88C346.067 195.957 346.219 195.995 346.389 195.995ZM347.214 196.597V195.771L347.336 195.023L347.214 194.281V193.526H347.918V196.597H347.214ZM349.703 196.661C349.533 196.661 349.369 196.639 349.211 196.597C349.053 196.55 348.908 196.486 348.776 196.405C348.644 196.319 348.528 196.217 348.43 196.098L348.878 195.65C348.985 195.774 349.106 195.867 349.243 195.931C349.384 195.991 349.541 196.021 349.716 196.021C349.874 196.021 349.993 195.997 350.074 195.951C350.156 195.904 350.196 195.835 350.196 195.746C350.196 195.652 350.158 195.58 350.081 195.528C350.004 195.477 349.904 195.435 349.78 195.4C349.661 195.362 349.533 195.324 349.396 195.285C349.264 195.247 349.136 195.196 349.013 195.132C348.893 195.063 348.795 194.972 348.718 194.857C348.642 194.741 348.603 194.592 348.603 194.409C348.603 194.213 348.648 194.044 348.737 193.903C348.831 193.763 348.961 193.654 349.128 193.577C349.298 193.5 349.501 193.462 349.735 193.462C349.983 193.462 350.2 193.507 350.388 193.596C350.58 193.682 350.74 193.812 350.868 193.987L350.42 194.434C350.33 194.324 350.228 194.24 350.113 194.185C349.998 194.129 349.866 194.102 349.716 194.102C349.575 194.102 349.467 194.123 349.39 194.166C349.313 194.208 349.275 194.27 349.275 194.351C349.275 194.437 349.313 194.503 349.39 194.55C349.467 194.596 349.565 194.637 349.684 194.671C349.808 194.705 349.936 194.744 350.068 194.786C350.205 194.825 350.332 194.88 350.452 194.953C350.576 195.021 350.676 195.115 350.753 195.234C350.829 195.349 350.868 195.501 350.868 195.688C350.868 195.987 350.763 196.224 350.554 196.398C350.345 196.573 350.062 196.661 349.703 196.661ZM352.452 196.661C352.282 196.661 352.117 196.639 351.96 196.597C351.802 196.55 351.657 196.486 351.525 196.405C351.392 196.319 351.277 196.217 351.179 196.098L351.627 195.65C351.734 195.774 351.855 195.867 351.992 195.931C352.132 195.991 352.29 196.021 352.465 196.021C352.623 196.021 352.742 195.997 352.823 195.951C352.904 195.904 352.945 195.835 352.945 195.746C352.945 195.652 352.906 195.58 352.83 195.528C352.753 195.477 352.653 195.435 352.529 195.4C352.41 195.362 352.282 195.324 352.145 195.285C352.013 195.247 351.885 195.196 351.761 195.132C351.642 195.063 351.544 194.972 351.467 194.857C351.39 194.741 351.352 194.592 351.352 194.409C351.352 194.213 351.397 194.044 351.486 193.903C351.58 193.763 351.71 193.654 351.876 193.577C352.047 193.5 352.25 193.462 352.484 193.462C352.732 193.462 352.949 193.507 353.137 193.596C353.329 193.682 353.489 193.812 353.617 193.987L353.169 194.434C353.079 194.324 352.977 194.24 352.862 194.185C352.747 194.129 352.614 194.102 352.465 194.102C352.324 194.102 352.216 194.123 352.139 194.166C352.062 194.208 352.024 194.27 352.024 194.351C352.024 194.437 352.062 194.503 352.139 194.55C352.216 194.596 352.314 194.637 352.433 194.671C352.557 194.705 352.685 194.744 352.817 194.786C352.953 194.825 353.081 194.88 353.201 194.953C353.324 195.021 353.425 195.115 353.501 195.234C353.578 195.349 353.617 195.501 353.617 195.688C353.617 195.987 353.512 196.224 353.303 196.398C353.094 196.573 352.81 196.661 352.452 196.661ZM355.092 196.597L353.858 193.526H354.587L355.419 195.759L355.201 195.765L356.013 193.526H356.423L357.235 195.765L357.018 195.759L357.849 193.526H358.579L357.344 196.597H356.935L356.103 194.473H356.333L355.502 196.597H355.092ZM360.352 196.661C360.053 196.661 359.783 196.59 359.54 196.45C359.296 196.305 359.102 196.11 358.957 195.867C358.817 195.624 358.746 195.353 358.746 195.055C358.746 194.756 358.817 194.488 358.957 194.249C359.102 194.01 359.296 193.82 359.54 193.68C359.783 193.535 360.053 193.462 360.352 193.462C360.655 193.462 360.928 193.532 361.171 193.673C361.414 193.814 361.606 194.006 361.747 194.249C361.892 194.488 361.964 194.756 361.964 195.055C361.964 195.353 361.892 195.624 361.747 195.867C361.606 196.11 361.414 196.305 361.171 196.45C360.928 196.59 360.655 196.661 360.352 196.661ZM360.352 195.983C360.527 195.983 360.68 195.944 360.813 195.867C360.949 195.786 361.054 195.675 361.126 195.535C361.203 195.394 361.241 195.234 361.241 195.055C361.241 194.876 361.203 194.718 361.126 194.582C361.049 194.445 360.945 194.338 360.813 194.262C360.68 194.181 360.527 194.14 360.352 194.14C360.181 194.14 360.028 194.181 359.891 194.262C359.759 194.338 359.655 194.445 359.578 194.582C359.505 194.718 359.469 194.876 359.469 195.055C359.469 195.234 359.505 195.394 359.578 195.535C359.655 195.675 359.759 195.786 359.891 195.867C360.028 195.944 360.181 195.983 360.352 195.983ZM362.549 196.597V193.526H363.253V196.597H362.549ZM363.253 194.889L363.01 194.767C363.01 194.379 363.095 194.066 363.266 193.827C363.441 193.584 363.703 193.462 364.053 193.462C364.206 193.462 364.345 193.49 364.468 193.545C364.592 193.601 364.707 193.69 364.814 193.814L364.353 194.287C364.298 194.228 364.236 194.185 364.168 194.159C364.099 194.134 364.021 194.121 363.931 194.121C363.735 194.121 363.573 194.183 363.445 194.306C363.317 194.43 363.253 194.624 363.253 194.889ZM366.346 196.661C366.069 196.661 365.818 196.59 365.592 196.45C365.37 196.309 365.193 196.119 365.061 195.88C364.933 195.637 364.869 195.366 364.869 195.068C364.869 194.765 364.933 194.494 365.061 194.255C365.193 194.012 365.37 193.82 365.592 193.68C365.818 193.535 366.069 193.462 366.346 193.462C366.581 193.462 366.788 193.513 366.967 193.616C367.15 193.714 367.295 193.85 367.402 194.025C367.509 194.2 367.562 194.398 367.562 194.62V195.503C367.562 195.725 367.509 195.923 367.402 196.098C367.3 196.273 367.157 196.411 366.973 196.514C366.79 196.612 366.581 196.661 366.346 196.661ZM366.462 195.995C366.636 195.995 366.788 195.957 366.916 195.88C367.048 195.799 367.15 195.688 367.223 195.548C367.295 195.407 367.332 195.245 367.332 195.061C367.332 194.878 367.295 194.716 367.223 194.575C367.15 194.434 367.048 194.326 366.916 194.249C366.788 194.168 366.636 194.127 366.462 194.127C366.291 194.127 366.14 194.168 366.007 194.249C365.879 194.326 365.777 194.434 365.7 194.575C365.628 194.716 365.592 194.878 365.592 195.061C365.592 195.245 365.628 195.407 365.7 195.548C365.777 195.688 365.879 195.799 366.007 195.88C366.14 195.957 366.291 195.995 366.462 195.995ZM367.991 196.597H367.287V195.771L367.408 195.023L367.287 194.281V191.991H367.991V196.597Z" fill="#2A2C35"/>
<path d="M380.205 196.184C380.261 196.24 380.293 196.316 380.293 196.396C380.293 196.476 380.261 196.552 380.205 196.609C380.149 196.665 380.072 196.697 379.993 196.697C379.913 196.697 379.836 196.665 379.78 196.609L378.194 195.021L376.607 196.608C376.55 196.664 376.474 196.696 376.394 196.696C376.314 196.696 376.238 196.664 376.182 196.608C376.125 196.552 376.094 196.475 376.094 196.396C376.094 196.316 376.125 196.24 376.182 196.183L377.769 194.597L376.182 193.01C376.126 192.953 376.094 192.877 376.094 192.797C376.094 192.718 376.126 192.641 376.182 192.585C376.239 192.528 376.315 192.497 376.395 192.497C376.474 192.497 376.551 192.528 376.607 192.585L378.194 194.172L379.781 192.585C379.837 192.528 379.913 192.497 379.993 192.497C380.073 192.497 380.149 192.528 380.205 192.585C380.262 192.641 380.293 192.717 380.293 192.797C380.293 192.877 380.262 192.953 380.205 193.009L378.618 194.597L380.205 196.184Z" fill="#2A2C35"/>
<path d="M209.52 193.716L208.639 194.597L209.521 195.478C209.605 195.563 209.653 195.677 209.653 195.797C209.653 195.916 209.605 196.031 209.521 196.115C209.436 196.2 209.322 196.247 209.202 196.247C209.083 196.247 208.968 196.2 208.883 196.115L208.002 195.234L207.121 196.116C207.036 196.2 206.921 196.248 206.802 196.248C206.682 196.248 206.568 196.2 206.483 196.116C206.399 196.031 206.351 195.917 206.351 195.797C206.351 195.678 206.399 195.563 206.483 195.478L207.365 194.597L206.484 193.716C206.442 193.674 206.409 193.624 206.386 193.569C206.364 193.515 206.352 193.456 206.352 193.397C206.352 193.277 206.4 193.163 206.484 193.078C206.569 192.994 206.683 192.946 206.803 192.946C206.922 192.946 207.037 192.994 207.121 193.078L208.002 193.96L208.883 193.078C208.968 192.993 209.082 192.946 209.202 192.946C209.321 192.946 209.436 192.993 209.52 193.078C209.605 193.162 209.652 193.277 209.652 193.397C209.652 193.516 209.605 193.631 209.52 193.715L209.52 193.716ZM212.05 194.597C212.05 195.397 211.813 196.18 211.368 196.846C210.923 197.512 210.291 198.03 209.551 198.337C208.811 198.643 207.997 198.723 207.212 198.567C206.427 198.411 205.705 198.025 205.139 197.459C204.573 196.893 204.188 196.172 204.031 195.387C203.875 194.601 203.955 193.787 204.262 193.048C204.568 192.308 205.087 191.676 205.753 191.231C206.418 190.786 207.201 190.549 208.002 190.549C209.075 190.55 210.104 190.977 210.863 191.736C211.622 192.495 212.049 193.524 212.05 194.597ZM211.15 194.597C211.15 193.974 210.966 193.365 210.62 192.848C210.274 192.33 209.782 191.926 209.207 191.688C208.631 191.45 207.998 191.387 207.388 191.509C206.777 191.63 206.216 191.93 205.775 192.37C205.335 192.811 205.035 193.372 204.914 193.983C204.792 194.593 204.855 195.226 205.093 195.802C205.331 196.377 205.735 196.869 206.253 197.215C206.77 197.561 207.379 197.745 208.002 197.745C208.837 197.745 209.637 197.413 210.227 196.822C210.818 196.232 211.15 195.432 211.15 194.597Z" fill="#E1172F"/>
</g>
<defs>
<clipPath id="clip0_5198_31350">
<path d="M57.625 108.061C57.625 104.022 60.8996 100.747 64.939 100.747H618.061C622.1 100.747 625.375 104.022 625.375 108.061V311.939C625.375 315.979 622.1 319.253 618.061 319.253H64.939C60.8996 319.253 57.625 315.979 57.625 311.939V108.061Z" fill="white"/>
</clipPath>
</defs>
</svg>
