<svg width="683" height="420" viewBox="0 0 683 420" fill="none" xmlns="http://www.w3.org/2000/svg">
<rect width="683" height="420" fill="#F6F6F8"/>
<g clip-path="url(#clip0_5198_31319)">
<path d="M58.25 108.285C58.25 104.255 61.5174 100.988 65.5479 100.988H617.452C621.483 100.988 624.75 104.255 624.75 108.285V311.715C624.75 315.745 621.483 319.013 617.452 319.013H65.5479C61.5174 319.013 58.25 315.745 58.25 311.715V108.285Z" fill="white"/>
<rect x="58.25" y="94.6028" width="566.5" height="35.4062" fill="#F1F2F4"/>
<path d="M73.5938 165.711C73.5938 163.36 75.4996 161.454 77.8505 161.454H169.37C171.721 161.454 173.627 163.36 173.627 165.711V337.577C173.627 339.928 171.721 341.834 169.37 341.834H77.8505C75.4996 341.834 73.5938 339.928 73.5938 337.577V165.711Z" fill="#F1F2F4"/>
<path d="M182.764 165.711C182.764 163.36 184.67 161.454 187.021 161.454H604.448C606.799 161.454 608.704 163.36 608.704 165.711V337.311C608.704 339.662 606.798 341.567 604.448 341.567H187.021C184.67 341.567 182.764 339.662 182.764 337.311V165.711Z" fill="#F1F2F4"/>
<path d="M198.722 179.545C198.722 178.369 199.675 177.417 200.85 177.417H334.671C335.847 177.417 336.8 178.369 336.8 179.545V193.379C336.8 194.555 335.847 195.508 334.671 195.508H200.85C199.675 195.508 198.722 194.555 198.722 193.379V179.545Z" fill="white"/>
<path d="M198.722 206.154C198.722 204.979 199.675 204.026 200.85 204.026H422.999C424.174 204.026 425.127 204.979 425.127 206.154V264.152C425.127 265.328 424.174 266.28 422.999 266.28H200.85C199.675 266.28 198.722 265.328 198.722 264.152V206.154Z" fill="white"/>
<path d="M198.722 276.925C198.722 275.749 199.675 274.796 200.85 274.796H422.999C424.174 274.796 425.127 275.749 425.127 276.925V356.472C425.127 357.648 424.174 358.601 422.999 358.601H200.85C199.675 358.601 198.722 357.648 198.722 356.472V276.925Z" fill="white"/>
<path d="M432.048 206.154C432.048 204.979 433.001 204.026 434.176 204.026H590.611C591.787 204.026 592.74 204.979 592.74 206.154V337.315C592.74 338.49 591.787 339.443 590.611 339.443H434.176C433.001 339.443 432.048 338.49 432.048 337.315V206.154Z" fill="white"/>
<path d="M624.801 130.198V149.8H58.1992V130.198H624.801Z" fill="#FBF4EC"/>
<path d="M624.801 130.198V149.8H58.1992V130.198H624.801Z" stroke="#D99048" stroke-width="0.398944"/>
<path d="M67.5745 135.96C66.7756 135.96 65.9946 136.197 65.3303 136.641C64.6661 137.085 64.1484 137.715 63.8426 138.453C63.5369 139.192 63.4569 140.004 63.6128 140.787C63.7686 141.571 64.1533 142.291 64.7182 142.855C65.2831 143.42 66.0029 143.805 66.7864 143.961C67.57 144.117 68.3822 144.037 69.1202 143.731C69.8583 143.425 70.4892 142.908 70.933 142.243C71.3769 141.579 71.6138 140.798 71.6138 139.999C71.6126 138.928 71.1866 137.902 70.4294 137.144C69.6721 136.387 68.6454 135.961 67.5745 135.96ZM67.5745 143.141C66.9531 143.141 66.3457 142.957 65.829 142.611C65.3124 142.266 64.9097 141.776 64.6719 141.202C64.4341 140.627 64.3719 139.996 64.4931 139.386C64.6144 138.777 64.9136 138.217 65.353 137.778C65.7923 137.338 66.3521 137.039 66.9616 136.918C67.571 136.797 68.2027 136.859 68.7767 137.097C69.3508 137.335 69.8415 137.737 70.1867 138.254C70.5319 138.77 70.7161 139.378 70.7161 139.999C70.7153 140.832 70.384 141.631 69.795 142.22C69.206 142.809 68.4074 143.14 67.5745 143.141ZM67.1257 140.149V138.204C67.1257 138.085 67.1729 137.971 67.2571 137.887C67.3413 137.802 67.4554 137.755 67.5745 137.755C67.6935 137.755 67.8077 137.802 67.8918 137.887C67.976 137.971 68.0233 138.085 68.0233 138.204V140.149C68.0233 140.268 67.976 140.382 67.8918 140.466C67.8077 140.55 67.6935 140.598 67.5745 140.598C67.4554 140.598 67.3413 140.55 67.2571 140.466C67.1729 140.382 67.1257 140.268 67.1257 140.149ZM68.1729 141.645C68.1729 141.763 68.1378 141.879 68.072 141.977C68.0063 142.076 67.9128 142.152 67.8035 142.198C67.6941 142.243 67.5738 142.255 67.4577 142.232C67.3416 142.209 67.235 142.152 67.1513 142.068C67.0676 141.984 67.0106 141.878 66.9875 141.762C66.9645 141.646 66.9763 141.525 67.0216 141.416C67.0669 141.307 67.1436 141.213 67.242 141.147C67.3404 141.082 67.4561 141.046 67.5745 141.046C67.7332 141.046 67.8854 141.11 67.9976 141.222C68.1098 141.334 68.1729 141.486 68.1729 141.645Z" fill="#D99048"/>
<path d="M79.3575 142.063C79.0213 142.063 78.7192 141.987 78.4511 141.833C78.183 141.68 77.9702 141.472 77.8128 141.208C77.6596 140.94 77.583 140.638 77.583 140.301V137.531H78.317V140.295C78.317 140.512 78.3617 140.701 78.4511 140.863C78.5447 141.021 78.6702 141.144 78.8277 141.233C78.9851 141.318 79.1617 141.361 79.3575 141.361C79.5575 141.361 79.7341 141.318 79.8873 141.233C80.0405 141.144 80.1617 141.021 80.2511 140.863C80.3405 140.701 80.3852 140.514 80.3852 140.301V137.531H81.1192V140.308C81.1192 140.644 81.0426 140.944 80.8894 141.208C80.7362 141.472 80.5277 141.68 80.2639 141.833C80 141.987 79.6979 142.063 79.3575 142.063ZM83.5858 142.063C83.3518 142.063 83.1433 142.014 82.9603 141.916C82.7773 141.814 82.6326 141.676 82.5262 141.501C82.4241 141.327 82.373 141.129 82.373 140.908V140.027C82.373 139.806 82.4262 139.608 82.5326 139.433C82.639 139.259 82.7837 139.123 82.9667 139.025C83.1497 138.923 83.356 138.872 83.5858 138.872C83.8624 138.872 84.1114 138.944 84.3327 139.089C84.5582 139.229 84.7348 139.42 84.8625 139.663C84.9944 139.901 85.0603 140.172 85.0603 140.474C85.0603 140.772 84.9944 141.042 84.8625 141.284C84.7348 141.523 84.5582 141.712 84.3327 141.852C84.1114 141.993 83.8624 142.063 83.5858 142.063ZM81.9454 143.276V138.935H82.6475V139.759L82.5262 140.506L82.6475 141.246V143.276H81.9454ZM83.4709 141.399C83.6412 141.399 83.7901 141.361 83.9178 141.284C84.0497 141.204 84.1518 141.093 84.2241 140.952C84.3007 140.812 84.339 140.65 84.339 140.467C84.339 140.284 84.3007 140.123 84.2241 139.982C84.1518 139.842 84.0497 139.733 83.9178 139.657C83.7901 139.576 83.6412 139.535 83.4709 139.535C83.3007 139.535 83.1497 139.576 83.0177 139.657C82.8858 139.733 82.7837 139.842 82.7113 139.982C82.639 140.123 82.6028 140.284 82.6028 140.467C82.6028 140.65 82.639 140.812 82.7113 140.952C82.7837 141.093 82.8858 141.204 83.0177 141.284C83.1497 141.361 83.3007 141.399 83.4709 141.399ZM86.9311 142.063C86.6545 142.063 86.4034 141.993 86.1779 141.852C85.9566 141.712 85.78 141.523 85.6481 141.284C85.5204 141.042 85.4566 140.772 85.4566 140.474C85.4566 140.172 85.5204 139.901 85.6481 139.663C85.78 139.42 85.9566 139.229 86.1779 139.089C86.4034 138.944 86.6545 138.872 86.9311 138.872C87.1651 138.872 87.3715 138.923 87.5502 139.025C87.7332 139.123 87.8779 139.259 87.9843 139.433C88.0907 139.608 88.1439 139.806 88.1439 140.027V140.908C88.1439 141.129 88.0907 141.327 87.9843 141.501C87.8822 141.676 87.7396 141.814 87.5566 141.916C87.3736 142.014 87.1651 142.063 86.9311 142.063ZM87.046 141.399C87.2204 141.399 87.3715 141.361 87.4992 141.284C87.6311 141.204 87.7332 141.093 87.8056 140.952C87.8779 140.812 87.9141 140.65 87.9141 140.467C87.9141 140.284 87.8779 140.123 87.8056 139.982C87.7332 139.842 87.6311 139.733 87.4992 139.657C87.3715 139.576 87.2204 139.535 87.046 139.535C86.8758 139.535 86.7247 139.576 86.5928 139.657C86.4651 139.733 86.363 139.842 86.2864 139.982C86.214 140.123 86.1779 140.284 86.1779 140.467C86.1779 140.65 86.214 140.812 86.2864 140.952C86.363 141.093 86.4651 141.204 86.5928 141.284C86.7247 141.361 86.8758 141.399 87.046 141.399ZM88.5715 141.999H87.8694V141.176L87.9907 140.429L87.8694 139.689V137.403H88.5715V141.999ZM90.6338 142.063C90.3572 142.063 90.1061 141.993 89.8806 141.852C89.6593 141.712 89.4827 141.523 89.3508 141.284C89.2231 141.042 89.1593 140.772 89.1593 140.474C89.1593 140.172 89.2231 139.901 89.3508 139.663C89.4827 139.42 89.6593 139.229 89.8806 139.089C90.1061 138.944 90.3572 138.872 90.6338 138.872C90.8678 138.872 91.0742 138.923 91.2529 139.025C91.4359 139.123 91.5806 139.259 91.687 139.433C91.7934 139.608 91.8466 139.806 91.8466 140.027V140.908C91.8466 141.129 91.7934 141.327 91.687 141.501C91.5849 141.676 91.4423 141.814 91.2593 141.916C91.0763 142.014 90.8678 142.063 90.6338 142.063ZM90.7487 141.399C91.0082 141.399 91.2168 141.312 91.3742 141.138C91.5359 140.963 91.6168 140.74 91.6168 140.467C91.6168 140.284 91.5806 140.123 91.5083 139.982C91.4359 139.842 91.3338 139.733 91.2019 139.657C91.0742 139.576 90.9231 139.535 90.7487 139.535C90.5784 139.535 90.4274 139.576 90.2955 139.657C90.1678 139.733 90.0657 139.842 89.9891 139.982C89.9167 140.123 89.8806 140.284 89.8806 140.467C89.8806 140.65 89.9167 140.812 89.9891 140.952C90.0657 141.093 90.1678 141.204 90.2955 141.284C90.4274 141.361 90.5784 141.399 90.7487 141.399ZM91.5721 141.999V141.176L91.6934 140.429L91.5721 139.689V138.935H92.2742V141.999H91.5721ZM93.5194 141.999V137.659H94.2216V141.999H93.5194ZM92.7854 139.574V138.935H94.9556V139.574H92.7854ZM96.802 142.063C96.4956 142.063 96.219 141.995 95.9722 141.859C95.7296 141.718 95.536 141.527 95.3913 141.284C95.2509 141.042 95.1807 140.769 95.1807 140.467C95.1807 140.165 95.2509 139.895 95.3913 139.657C95.5318 139.414 95.7211 139.223 95.9594 139.082C96.202 138.942 96.4701 138.872 96.7637 138.872C97.0488 138.872 97.2999 138.938 97.5169 139.069C97.7382 139.201 97.9105 139.382 98.0339 139.612C98.1616 139.842 98.2254 140.103 98.2254 140.397C98.2254 140.448 98.2212 140.501 98.2127 140.557C98.2084 140.608 98.1999 140.665 98.1871 140.729H95.6722V140.155H97.8233L97.5616 140.384C97.5531 140.197 97.5169 140.04 97.4531 139.912C97.3892 139.784 97.2977 139.686 97.1786 139.618C97.0637 139.55 96.9211 139.516 96.7509 139.516C96.5722 139.516 96.4169 139.555 96.285 139.631C96.153 139.708 96.0509 139.816 95.9786 139.957C95.9062 140.093 95.8701 140.257 95.8701 140.448C95.8701 140.64 95.9084 140.808 95.985 140.952C96.0615 141.097 96.1701 141.21 96.3105 141.291C96.4509 141.367 96.6126 141.406 96.7956 141.406C96.9531 141.406 97.0977 141.378 97.2297 141.323C97.3658 141.267 97.4807 141.186 97.5743 141.08L98.0212 141.533C97.8722 141.708 97.6914 141.84 97.4786 141.929C97.2658 142.018 97.0403 142.063 96.802 142.063ZM99.7904 142.063C99.6202 142.063 99.4564 142.042 99.2989 141.999C99.1415 141.952 98.9968 141.889 98.8649 141.808C98.733 141.723 98.6181 141.621 98.5202 141.501L98.967 141.055C99.0734 141.178 99.1947 141.272 99.3308 141.335C99.4713 141.395 99.6287 141.425 99.8032 141.425C99.9606 141.425 100.08 141.401 100.161 141.355C100.241 141.308 100.282 141.24 100.282 141.15C100.282 141.057 100.244 140.984 100.167 140.933C100.09 140.882 99.9904 140.84 99.867 140.806C99.7479 140.767 99.6202 140.729 99.484 140.691C99.3521 140.652 99.2245 140.601 99.101 140.538C98.9819 140.469 98.884 140.378 98.8074 140.263C98.7308 140.148 98.6925 139.999 98.6925 139.816C98.6925 139.62 98.7372 139.452 98.8266 139.312C98.9202 139.172 99.05 139.063 99.2159 138.986C99.3862 138.91 99.5883 138.872 99.8223 138.872C100.069 138.872 100.286 138.916 100.473 139.006C100.665 139.091 100.824 139.22 100.952 139.395L100.505 139.842C100.416 139.731 100.314 139.648 100.199 139.593C100.084 139.538 99.9521 139.51 99.8032 139.51C99.6628 139.51 99.5542 139.531 99.4777 139.574C99.4011 139.616 99.3628 139.678 99.3628 139.759C99.3628 139.844 99.4011 139.91 99.4777 139.957C99.5542 140.003 99.6521 140.044 99.7713 140.078C99.8947 140.112 100.022 140.15 100.154 140.193C100.29 140.231 100.418 140.286 100.537 140.359C100.661 140.427 100.761 140.521 100.837 140.64C100.914 140.755 100.952 140.906 100.952 141.093C100.952 141.391 100.848 141.627 100.639 141.801C100.431 141.976 100.148 142.063 99.7904 142.063ZM103.703 141.999L102.471 138.935H103.198L104.028 141.163L103.811 141.169L104.622 138.935H105.03L105.841 141.169L105.624 141.163L106.454 138.935H107.181L105.949 141.999H105.541L104.711 139.88H104.941L104.111 141.999H103.703ZM107.578 141.999V138.935H108.28V141.999H107.578ZM107.929 138.374C107.81 138.374 107.71 138.333 107.629 138.252C107.552 138.172 107.514 138.072 107.514 137.952C107.514 137.833 107.552 137.733 107.629 137.652C107.71 137.572 107.81 137.531 107.929 137.531C108.052 137.531 108.152 137.572 108.229 137.652C108.305 137.733 108.344 137.833 108.344 137.952C108.344 138.072 108.305 138.172 108.229 138.252C108.152 138.333 108.052 138.374 107.929 138.374ZM109.067 141.999V137.403H109.769V141.999H109.067ZM110.551 141.999V137.403H111.253V141.999H110.551ZM114.953 142.063C114.719 142.063 114.51 142.014 114.327 141.916C114.144 141.814 114 141.676 113.893 141.501C113.791 141.327 113.74 141.129 113.74 140.908V140.027C113.74 139.806 113.793 139.608 113.9 139.433C114.006 139.259 114.151 139.123 114.334 139.025C114.517 138.923 114.723 138.872 114.953 138.872C115.229 138.872 115.478 138.944 115.7 139.089C115.925 139.229 116.102 139.42 116.229 139.663C116.361 139.901 116.427 140.172 116.427 140.474C116.427 140.772 116.361 141.042 116.229 141.284C116.102 141.523 115.925 141.712 115.7 141.852C115.478 141.993 115.229 142.063 114.953 142.063ZM113.312 141.999V137.403H114.014V139.689L113.893 140.429L114.014 141.176V141.999H113.312ZM114.838 141.399C115.008 141.399 115.157 141.361 115.285 141.284C115.417 141.204 115.519 141.093 115.591 140.952C115.668 140.812 115.706 140.65 115.706 140.467C115.706 140.284 115.668 140.123 115.591 139.982C115.519 139.842 115.417 139.733 115.285 139.657C115.157 139.576 115.008 139.535 114.838 139.535C114.668 139.535 114.517 139.576 114.385 139.657C114.253 139.733 114.151 139.842 114.078 139.982C114.006 140.123 113.97 140.284 113.97 140.467C113.97 140.65 114.006 140.812 114.078 140.952C114.151 141.093 114.253 141.204 114.385 141.284C114.517 141.361 114.668 141.399 114.838 141.399ZM118.438 142.063C118.132 142.063 117.855 141.995 117.609 141.859C117.366 141.718 117.172 141.527 117.028 141.284C116.887 141.042 116.817 140.769 116.817 140.467C116.817 140.165 116.887 139.895 117.028 139.657C117.168 139.414 117.358 139.223 117.596 139.082C117.838 138.942 118.107 138.872 118.4 138.872C118.685 138.872 118.936 138.938 119.153 139.069C119.375 139.201 119.547 139.382 119.67 139.612C119.798 139.842 119.862 140.103 119.862 140.397C119.862 140.448 119.858 140.501 119.849 140.557C119.845 140.608 119.836 140.665 119.824 140.729H117.309V140.155H119.46L119.198 140.384C119.19 140.197 119.153 140.04 119.09 139.912C119.026 139.784 118.934 139.686 118.815 139.618C118.7 139.55 118.558 139.516 118.387 139.516C118.209 139.516 118.053 139.555 117.921 139.631C117.79 139.708 117.687 139.816 117.615 139.957C117.543 140.093 117.507 140.257 117.507 140.448C117.507 140.64 117.545 140.808 117.621 140.952C117.698 141.097 117.807 141.21 117.947 141.291C118.087 141.367 118.249 141.406 118.432 141.406C118.59 141.406 118.734 141.378 118.866 141.323C119.002 141.267 119.117 141.186 119.211 141.08L119.658 141.533C119.509 141.708 119.328 141.84 119.115 141.929C118.902 142.018 118.677 142.063 118.438 142.063ZM121.709 141.999V138.935H122.411V141.999H121.709ZM122.06 138.374C121.941 138.374 121.841 138.333 121.76 138.252C121.683 138.172 121.645 138.072 121.645 137.952C121.645 137.833 121.683 137.733 121.76 137.652C121.841 137.572 121.941 137.531 122.06 137.531C122.183 137.531 122.283 137.572 122.36 137.652C122.437 137.733 122.475 137.833 122.475 137.952C122.475 138.072 122.437 138.172 122.36 138.252C122.283 138.333 122.183 138.374 122.06 138.374ZM123.199 141.999V138.935H123.901V141.999H123.199ZM125.235 141.999V140.174C125.235 139.969 125.171 139.812 125.043 139.701C124.916 139.586 124.758 139.529 124.571 139.529C124.443 139.529 124.328 139.555 124.226 139.606C124.128 139.657 124.05 139.731 123.99 139.829C123.931 139.923 123.901 140.038 123.901 140.174L123.626 140.021C123.626 139.786 123.677 139.584 123.78 139.414C123.882 139.244 124.02 139.112 124.194 139.018C124.369 138.92 124.565 138.872 124.782 138.872C124.999 138.872 125.194 138.918 125.369 139.012C125.543 139.106 125.682 139.238 125.784 139.408C125.886 139.578 125.937 139.782 125.937 140.021V141.999H125.235ZM127.271 141.999V140.174C127.271 139.969 127.207 139.812 127.08 139.701C126.952 139.586 126.794 139.529 126.607 139.529C126.484 139.529 126.371 139.555 126.269 139.606C126.167 139.657 126.086 139.731 126.026 139.829C125.967 139.923 125.937 140.038 125.937 140.174L125.541 140.021C125.563 139.786 125.631 139.584 125.745 139.414C125.86 139.244 126.007 139.112 126.186 139.018C126.369 138.92 126.569 138.872 126.786 138.872C127.007 138.872 127.207 138.918 127.386 139.012C127.565 139.106 127.707 139.238 127.814 139.408C127.92 139.578 127.973 139.782 127.973 140.021V141.999H127.271ZM130.337 142.063C130.103 142.063 129.894 142.014 129.711 141.916C129.529 141.814 129.384 141.676 129.277 141.501C129.175 141.327 129.124 141.129 129.124 140.908V140.027C129.124 139.806 129.177 139.608 129.284 139.433C129.39 139.259 129.535 139.123 129.718 139.025C129.901 138.923 130.107 138.872 130.337 138.872C130.614 138.872 130.863 138.944 131.084 139.089C131.309 139.229 131.486 139.42 131.614 139.663C131.746 139.901 131.812 140.172 131.812 140.474C131.812 140.772 131.746 141.042 131.614 141.284C131.486 141.523 131.309 141.712 131.084 141.852C130.863 141.993 130.614 142.063 130.337 142.063ZM128.697 143.276V138.935H129.399V139.759L129.277 140.506L129.399 141.246V143.276H128.697ZM130.222 141.399C130.392 141.399 130.541 141.361 130.669 141.284C130.801 141.204 130.903 141.093 130.975 140.952C131.052 140.812 131.09 140.65 131.09 140.467C131.09 140.284 131.052 140.123 130.975 139.982C130.903 139.842 130.801 139.733 130.669 139.657C130.541 139.576 130.392 139.535 130.222 139.535C130.052 139.535 129.901 139.576 129.769 139.657C129.637 139.733 129.535 139.842 129.463 139.982C129.39 140.123 129.354 140.284 129.354 140.467C129.354 140.65 129.39 140.812 129.463 140.952C129.535 141.093 129.637 141.204 129.769 141.284C129.901 141.361 130.052 141.399 130.222 141.399ZM132.399 141.999V137.403H133.101V141.999H132.399ZM135.306 142.063C135 142.063 134.723 141.995 134.476 141.859C134.234 141.718 134.04 141.527 133.896 141.284C133.755 141.042 133.685 140.769 133.685 140.467C133.685 140.165 133.755 139.895 133.896 139.657C134.036 139.414 134.225 139.223 134.464 139.082C134.706 138.942 134.974 138.872 135.268 138.872C135.553 138.872 135.804 138.938 136.021 139.069C136.242 139.201 136.415 139.382 136.538 139.612C136.666 139.842 136.73 140.103 136.73 140.397C136.73 140.448 136.725 140.501 136.717 140.557C136.713 140.608 136.704 140.665 136.691 140.729H134.176V140.155H136.328L136.066 140.384C136.057 140.197 136.021 140.04 135.957 139.912C135.894 139.784 135.802 139.686 135.683 139.618C135.568 139.55 135.425 139.516 135.255 139.516C135.076 139.516 134.921 139.555 134.789 139.631C134.657 139.708 134.555 139.816 134.483 139.957C134.411 140.093 134.374 140.257 134.374 140.448C134.374 140.64 134.413 140.808 134.489 140.952C134.566 141.097 134.674 141.21 134.815 141.291C134.955 141.367 135.117 141.406 135.3 141.406C135.457 141.406 135.602 141.378 135.734 141.323C135.87 141.267 135.985 141.186 136.079 141.08L136.525 141.533C136.377 141.708 136.196 141.84 135.983 141.929C135.77 142.018 135.545 142.063 135.306 142.063ZM137.293 141.999V138.935H137.995V141.999H137.293ZM139.329 141.999V140.174C139.329 139.969 139.265 139.812 139.137 139.701C139.01 139.586 138.852 139.529 138.665 139.529C138.537 139.529 138.422 139.555 138.32 139.606C138.222 139.657 138.144 139.731 138.084 139.829C138.025 139.923 137.995 140.038 137.995 140.174L137.72 140.021C137.72 139.786 137.771 139.584 137.873 139.414C137.976 139.244 138.114 139.112 138.288 139.018C138.463 138.92 138.659 138.872 138.876 138.872C139.093 138.872 139.288 138.918 139.463 139.012C139.637 139.106 139.776 139.238 139.878 139.408C139.98 139.578 140.031 139.782 140.031 140.021V141.999H139.329ZM141.365 141.999V140.174C141.365 139.969 141.301 139.812 141.173 139.701C141.046 139.586 140.888 139.529 140.701 139.529C140.578 139.529 140.465 139.555 140.363 139.606C140.261 139.657 140.18 139.731 140.12 139.829C140.061 139.923 140.031 140.038 140.031 140.174L139.635 140.021C139.656 139.786 139.725 139.584 139.839 139.414C139.954 139.244 140.101 139.112 140.28 139.018C140.463 138.92 140.663 138.872 140.88 138.872C141.101 138.872 141.301 138.918 141.48 139.012C141.659 139.106 141.801 139.238 141.908 139.408C142.014 139.578 142.067 139.782 142.067 140.021V141.999H141.365ZM144.214 142.063C143.908 142.063 143.631 141.995 143.384 141.859C143.142 141.718 142.948 141.527 142.803 141.284C142.663 141.042 142.593 140.769 142.593 140.467C142.593 140.165 142.663 139.895 142.803 139.657C142.944 139.414 143.133 139.223 143.371 139.082C143.614 138.942 143.882 138.872 144.176 138.872C144.461 138.872 144.712 138.938 144.929 139.069C145.15 139.201 145.322 139.382 145.446 139.612C145.574 139.842 145.637 140.103 145.637 140.397C145.637 140.448 145.633 140.501 145.625 140.557C145.62 140.608 145.612 140.665 145.599 140.729H143.084V140.155H145.235L144.974 140.384C144.965 140.197 144.929 140.04 144.865 139.912C144.801 139.784 144.71 139.686 144.591 139.618C144.476 139.55 144.333 139.516 144.163 139.516C143.984 139.516 143.829 139.555 143.697 139.631C143.565 139.708 143.463 139.816 143.391 139.957C143.318 140.093 143.282 140.257 143.282 140.448C143.282 140.64 143.32 140.808 143.397 140.952C143.474 141.097 143.582 141.21 143.722 141.291C143.863 141.367 144.025 141.406 144.208 141.406C144.365 141.406 144.51 141.378 144.642 141.323C144.778 141.267 144.893 141.186 144.986 141.08L145.433 141.533C145.284 141.708 145.103 141.84 144.891 141.929C144.678 142.018 144.452 142.063 144.214 142.063ZM148.3 141.999V140.231C148.3 140.027 148.234 139.859 148.102 139.727C147.975 139.595 147.809 139.529 147.605 139.529C147.468 139.529 147.347 139.559 147.241 139.618C147.134 139.678 147.051 139.761 146.992 139.867C146.932 139.974 146.902 140.095 146.902 140.231L146.628 140.078C146.628 139.844 146.679 139.638 146.781 139.459C146.883 139.276 147.024 139.133 147.202 139.031C147.385 138.925 147.59 138.872 147.815 138.872C148.045 138.872 148.249 138.931 148.428 139.05C148.607 139.165 148.747 139.316 148.849 139.503C148.951 139.686 149.002 139.878 149.002 140.078V141.999H148.3ZM146.2 141.999V138.935H146.902V141.999H146.2ZM150.144 141.999V137.659H150.847V141.999H150.144ZM149.41 139.574V138.935H151.581V139.574H149.41ZM153.427 142.063C153.121 142.063 152.844 141.995 152.597 141.859C152.355 141.718 152.161 141.527 152.016 141.284C151.876 141.042 151.806 140.769 151.806 140.467C151.806 140.165 151.876 139.895 152.016 139.657C152.157 139.414 152.346 139.223 152.584 139.082C152.827 138.942 153.095 138.872 153.389 138.872C153.674 138.872 153.925 138.938 154.142 139.069C154.363 139.201 154.536 139.382 154.659 139.612C154.787 139.842 154.85 140.103 154.85 140.397C154.85 140.448 154.846 140.501 154.838 140.557C154.833 140.608 154.825 140.665 154.812 140.729H152.297V140.155H154.448L154.187 140.384C154.178 140.197 154.142 140.04 154.078 139.912C154.014 139.784 153.923 139.686 153.804 139.618C153.689 139.55 153.546 139.516 153.376 139.516C153.197 139.516 153.042 139.555 152.91 139.631C152.778 139.708 152.676 139.816 152.604 139.957C152.531 140.093 152.495 140.257 152.495 140.448C152.495 140.64 152.533 140.808 152.61 140.952C152.687 141.097 152.795 141.21 152.936 141.291C153.076 141.367 153.238 141.406 153.421 141.406C153.578 141.406 153.723 141.378 153.855 141.323C153.991 141.267 154.106 141.186 154.199 141.08L154.646 141.533C154.497 141.708 154.316 141.84 154.104 141.929C153.891 142.018 153.665 142.063 153.427 142.063ZM156.696 142.063C156.42 142.063 156.169 141.993 155.943 141.852C155.722 141.712 155.545 141.523 155.413 141.284C155.286 141.042 155.222 140.772 155.222 140.474C155.222 140.172 155.286 139.901 155.413 139.663C155.545 139.42 155.722 139.229 155.943 139.089C156.169 138.944 156.42 138.872 156.696 138.872C156.93 138.872 157.137 138.923 157.316 139.025C157.498 139.123 157.643 139.259 157.75 139.433C157.856 139.608 157.909 139.806 157.909 140.027V140.908C157.909 141.129 157.856 141.327 157.75 141.501C157.647 141.676 157.505 141.814 157.322 141.916C157.139 142.014 156.93 142.063 156.696 142.063ZM156.811 141.399C156.986 141.399 157.137 141.361 157.264 141.284C157.396 141.204 157.498 141.093 157.571 140.952C157.643 140.812 157.679 140.65 157.679 140.467C157.679 140.284 157.643 140.123 157.571 139.982C157.498 139.842 157.396 139.733 157.264 139.657C157.137 139.576 156.986 139.535 156.811 139.535C156.641 139.535 156.49 139.576 156.358 139.657C156.23 139.733 156.128 139.842 156.052 139.982C155.979 140.123 155.943 140.284 155.943 140.467C155.943 140.65 155.979 140.812 156.052 140.952C156.128 141.093 156.23 141.204 156.358 141.284C156.49 141.361 156.641 141.399 156.811 141.399ZM158.337 141.999H157.635V141.176L157.756 140.429L157.635 139.689V137.403H158.337V141.999ZM160.86 141.999V137.659H161.562V141.999H160.86ZM160.126 139.574V138.935H162.296V139.574H160.126ZM164.123 142.063C163.825 142.063 163.555 141.993 163.313 141.852C163.07 141.708 162.876 141.514 162.732 141.272C162.591 141.029 162.521 140.759 162.521 140.461C162.521 140.163 162.591 139.895 162.732 139.657C162.876 139.418 163.07 139.229 163.313 139.089C163.555 138.944 163.825 138.872 164.123 138.872C164.425 138.872 164.698 138.942 164.94 139.082C165.183 139.223 165.374 139.414 165.515 139.657C165.659 139.895 165.732 140.163 165.732 140.461C165.732 140.759 165.659 141.029 165.515 141.272C165.374 141.514 165.183 141.708 164.94 141.852C164.698 141.993 164.425 142.063 164.123 142.063ZM164.123 141.386C164.298 141.386 164.451 141.348 164.583 141.272C164.719 141.191 164.823 141.08 164.896 140.94C164.972 140.799 165.011 140.64 165.011 140.461C165.011 140.282 164.972 140.125 164.896 139.989C164.819 139.852 164.715 139.746 164.583 139.669C164.451 139.589 164.298 139.548 164.123 139.548C163.953 139.548 163.8 139.589 163.664 139.669C163.532 139.746 163.428 139.852 163.351 139.989C163.279 140.125 163.242 140.282 163.242 140.461C163.242 140.64 163.279 140.799 163.351 140.94C163.428 141.08 163.532 141.191 163.664 141.272C163.8 141.348 163.953 141.386 164.123 141.386ZM168.416 141.999V140.231C168.416 140.027 168.35 139.859 168.218 139.727C168.09 139.595 167.924 139.529 167.72 139.529C167.584 139.529 167.463 139.559 167.356 139.618C167.25 139.678 167.167 139.761 167.107 139.867C167.048 139.974 167.018 140.095 167.018 140.231L166.743 140.078C166.743 139.844 166.794 139.638 166.897 139.459C166.999 139.276 167.139 139.133 167.318 139.031C167.501 138.925 167.705 138.872 167.931 138.872C168.16 138.872 168.365 138.931 168.543 139.05C168.722 139.165 168.863 139.316 168.965 139.503C169.067 139.686 169.118 139.878 169.118 140.078V141.999H168.416ZM166.316 141.999V138.935H167.018V141.999H166.316ZM169.838 141.999V138.935H170.54V141.999H169.838ZM170.189 138.374C170.07 138.374 169.97 138.333 169.889 138.252C169.812 138.172 169.774 138.072 169.774 137.952C169.774 137.833 169.812 137.733 169.889 137.652C169.97 137.572 170.07 137.531 170.189 137.531C170.312 137.531 170.412 137.572 170.489 137.652C170.565 137.733 170.604 137.833 170.604 137.952C170.604 138.072 170.565 138.172 170.489 138.252C170.412 138.333 170.312 138.374 170.189 138.374ZM172.604 143.34C172.281 143.34 171.998 143.28 171.755 143.161C171.513 143.046 171.317 142.882 171.168 142.669L171.627 142.21C171.751 142.363 171.891 142.478 172.049 142.555C172.206 142.631 172.396 142.669 172.617 142.669C172.893 142.669 173.113 142.597 173.274 142.452C173.436 142.312 173.517 142.118 173.517 141.872V141.118L173.638 140.442L173.517 139.759V138.935H174.219V141.872C174.219 142.165 174.151 142.421 174.015 142.638C173.879 142.859 173.689 143.031 173.447 143.155C173.204 143.278 172.923 143.34 172.604 143.34ZM172.572 141.935C172.3 141.935 172.053 141.869 171.832 141.738C171.615 141.601 171.442 141.416 171.315 141.182C171.191 140.948 171.13 140.686 171.13 140.397C171.13 140.108 171.191 139.848 171.315 139.618C171.442 139.389 171.615 139.208 171.832 139.076C172.053 138.94 172.3 138.872 172.572 138.872C172.815 138.872 173.027 138.92 173.21 139.018C173.393 139.116 173.536 139.252 173.638 139.427C173.74 139.597 173.791 139.797 173.791 140.027V140.78C173.791 141.006 173.738 141.206 173.632 141.38C173.53 141.555 173.387 141.691 173.204 141.789C173.021 141.886 172.81 141.935 172.572 141.935ZM172.713 141.272C172.883 141.272 173.032 141.235 173.159 141.163C173.287 141.091 173.385 140.991 173.453 140.863C173.525 140.731 173.562 140.578 173.562 140.403C173.562 140.229 173.525 140.078 173.453 139.95C173.385 139.818 173.287 139.716 173.159 139.644C173.032 139.572 172.883 139.535 172.713 139.535C172.542 139.535 172.391 139.572 172.259 139.644C172.132 139.716 172.032 139.818 171.959 139.95C171.887 140.078 171.851 140.229 171.851 140.403C171.851 140.574 171.887 140.725 171.959 140.857C172.032 140.989 172.132 141.091 172.259 141.163C172.391 141.235 172.542 141.272 172.713 141.272ZM177.099 141.999V140.231C177.099 140.027 177.033 139.859 176.901 139.727C176.773 139.595 176.608 139.529 176.403 139.529C176.267 139.529 176.146 139.559 176.039 139.618C175.933 139.678 175.85 139.761 175.79 139.867C175.731 139.974 175.701 140.095 175.701 140.231L175.427 140.078C175.427 139.844 175.478 139.638 175.58 139.459C175.682 139.276 175.822 139.133 176.001 139.031C176.184 138.925 176.388 138.872 176.614 138.872C176.844 138.872 177.048 138.923 177.227 139.025C177.405 139.127 177.546 139.269 177.648 139.452C177.75 139.631 177.801 139.84 177.801 140.078V141.999H177.099ZM174.999 141.999V137.403H175.701V141.999H174.999ZM178.943 141.999V137.659H179.645V141.999H178.943ZM178.209 139.574V138.935H180.379V139.574H178.209ZM181.208 142.063C181.071 142.063 180.959 142.018 180.869 141.929C180.784 141.835 180.742 141.723 180.742 141.591C180.742 141.455 180.784 141.342 180.869 141.252C180.959 141.163 181.071 141.118 181.208 141.118C181.344 141.118 181.454 141.163 181.54 141.252C181.629 141.342 181.674 141.455 181.674 141.591C181.674 141.723 181.629 141.835 181.54 141.929C181.454 142.018 181.344 142.063 181.208 142.063ZM184.401 140.314V139.676H185.518C185.671 139.676 185.805 139.646 185.92 139.586C186.039 139.523 186.133 139.435 186.201 139.325C186.269 139.21 186.303 139.076 186.303 138.923C186.303 138.769 186.269 138.638 186.201 138.527C186.133 138.412 186.039 138.325 185.92 138.265C185.805 138.201 185.671 138.169 185.518 138.169H184.401V137.531H185.556C185.837 137.531 186.088 137.589 186.309 137.703C186.535 137.818 186.711 137.98 186.839 138.189C186.971 138.397 187.037 138.642 187.037 138.923C187.037 139.203 186.971 139.448 186.839 139.657C186.711 139.865 186.535 140.027 186.309 140.142C186.088 140.257 185.837 140.314 185.556 140.314H184.401ZM183.896 141.999V137.531H184.63V141.999H183.896ZM187.653 141.999V137.403H188.355V141.999H187.653ZM190.56 142.063C190.254 142.063 189.977 141.995 189.73 141.859C189.488 141.718 189.294 141.527 189.149 141.284C189.009 141.042 188.939 140.769 188.939 140.467C188.939 140.165 189.009 139.895 189.149 139.657C189.29 139.414 189.479 139.223 189.717 139.082C189.96 138.942 190.228 138.872 190.522 138.872C190.807 138.872 191.058 138.938 191.275 139.069C191.496 139.201 191.669 139.382 191.792 139.612C191.92 139.842 191.983 140.103 191.983 140.397C191.983 140.448 191.979 140.501 191.971 140.557C191.966 140.608 191.958 140.665 191.945 140.729H189.43V140.155H191.581L191.32 140.384C191.311 140.197 191.275 140.04 191.211 139.912C191.147 139.784 191.056 139.686 190.937 139.618C190.822 139.55 190.679 139.516 190.509 139.516C190.33 139.516 190.175 139.555 190.043 139.631C189.911 139.708 189.809 139.816 189.737 139.957C189.664 140.093 189.628 140.257 189.628 140.448C189.628 140.64 189.666 140.808 189.743 140.952C189.82 141.097 189.928 141.21 190.068 141.291C190.209 141.367 190.371 141.406 190.554 141.406C190.711 141.406 190.856 141.378 190.988 141.323C191.124 141.267 191.239 141.186 191.332 141.08L191.779 141.533C191.63 141.708 191.449 141.84 191.237 141.929C191.024 142.018 190.798 142.063 190.56 142.063ZM193.829 142.063C193.553 142.063 193.302 141.993 193.076 141.852C192.855 141.712 192.678 141.523 192.546 141.284C192.419 141.042 192.355 140.772 192.355 140.474C192.355 140.172 192.419 139.901 192.546 139.663C192.678 139.42 192.855 139.229 193.076 139.089C193.302 138.944 193.553 138.872 193.829 138.872C194.063 138.872 194.27 138.923 194.448 139.025C194.631 139.123 194.776 139.259 194.882 139.433C194.989 139.608 195.042 139.806 195.042 140.027V140.908C195.042 141.129 194.989 141.327 194.882 141.501C194.78 141.676 194.638 141.814 194.455 141.916C194.272 142.014 194.063 142.063 193.829 142.063ZM193.944 141.399C194.204 141.399 194.412 141.312 194.57 141.138C194.731 140.963 194.812 140.74 194.812 140.467C194.812 140.284 194.776 140.123 194.704 139.982C194.631 139.842 194.529 139.733 194.397 139.657C194.27 139.576 194.119 139.535 193.944 139.535C193.774 139.535 193.623 139.576 193.491 139.657C193.363 139.733 193.261 139.842 193.185 139.982C193.112 140.123 193.076 140.284 193.076 140.467C193.076 140.65 193.112 140.812 193.185 140.952C193.261 141.093 193.363 141.204 193.491 141.284C193.623 141.361 193.774 141.399 193.944 141.399ZM194.768 141.999V141.176L194.889 140.429L194.768 139.689V138.935H195.47V141.999H194.768ZM197.251 142.063C197.081 142.063 196.917 142.042 196.76 141.999C196.602 141.952 196.457 141.889 196.326 141.808C196.194 141.723 196.079 141.621 195.981 141.501L196.428 141.055C196.534 141.178 196.655 141.272 196.792 141.335C196.932 141.395 197.089 141.425 197.264 141.425C197.421 141.425 197.54 141.401 197.621 141.355C197.702 141.308 197.743 141.24 197.743 141.15C197.743 141.057 197.704 140.984 197.628 140.933C197.551 140.882 197.451 140.84 197.328 140.806C197.209 140.767 197.081 140.729 196.945 140.691C196.813 140.652 196.685 140.601 196.562 140.538C196.443 140.469 196.345 140.378 196.268 140.263C196.192 140.148 196.153 139.999 196.153 139.816C196.153 139.62 196.198 139.452 196.287 139.312C196.381 139.172 196.511 139.063 196.677 138.986C196.847 138.91 197.049 138.872 197.283 138.872C197.53 138.872 197.747 138.916 197.934 139.006C198.126 139.091 198.285 139.22 198.413 139.395L197.966 139.842C197.877 139.731 197.775 139.648 197.66 139.593C197.545 139.538 197.413 139.51 197.264 139.51C197.123 139.51 197.015 139.531 196.938 139.574C196.862 139.616 196.823 139.678 196.823 139.759C196.823 139.844 196.862 139.91 196.938 139.957C197.015 140.003 197.113 140.044 197.232 140.078C197.355 140.112 197.483 140.15 197.615 140.193C197.751 140.231 197.879 140.286 197.998 140.359C198.121 140.427 198.221 140.521 198.298 140.64C198.375 140.755 198.413 140.906 198.413 141.093C198.413 141.391 198.309 141.627 198.1 141.801C197.892 141.976 197.609 142.063 197.251 142.063ZM200.415 142.063C200.109 142.063 199.832 141.995 199.585 141.859C199.343 141.718 199.149 141.527 199.004 141.284C198.864 141.042 198.794 140.769 198.794 140.467C198.794 140.165 198.864 139.895 199.004 139.657C199.145 139.414 199.334 139.223 199.573 139.082C199.815 138.942 200.083 138.872 200.377 138.872C200.662 138.872 200.913 138.938 201.13 139.069C201.351 139.201 201.524 139.382 201.647 139.612C201.775 139.842 201.839 140.103 201.839 140.397C201.839 140.448 201.834 140.501 201.826 140.557C201.822 140.608 201.813 140.665 201.8 140.729H199.285V140.155H201.436L201.175 140.384C201.166 140.197 201.13 140.04 201.066 139.912C201.002 139.784 200.911 139.686 200.792 139.618C200.677 139.55 200.534 139.516 200.364 139.516C200.185 139.516 200.03 139.555 199.898 139.631C199.766 139.708 199.664 139.816 199.592 139.957C199.519 140.093 199.483 140.257 199.483 140.448C199.483 140.64 199.521 140.808 199.598 140.952C199.675 141.097 199.783 141.21 199.924 141.291C200.064 141.367 200.226 141.406 200.409 141.406C200.566 141.406 200.711 141.378 200.843 141.323C200.979 141.267 201.094 141.186 201.187 141.08L201.634 141.533C201.485 141.708 201.305 141.84 201.092 141.929C200.879 142.018 200.653 142.063 200.415 142.063ZM205.103 142.063C204.796 142.063 204.52 141.995 204.273 141.859C204.03 141.718 203.837 141.527 203.692 141.284C203.552 141.042 203.481 140.769 203.481 140.467C203.481 140.165 203.552 139.895 203.692 139.657C203.832 139.414 204.022 139.223 204.26 139.082C204.503 138.942 204.771 138.872 205.064 138.872C205.35 138.872 205.601 138.938 205.818 139.069C206.039 139.201 206.211 139.382 206.335 139.612C206.462 139.842 206.526 140.103 206.526 140.397C206.526 140.448 206.522 140.501 206.513 140.557C206.509 140.608 206.501 140.665 206.488 140.729H203.973V140.155H206.124L205.862 140.384C205.854 140.197 205.818 140.04 205.754 139.912C205.69 139.784 205.598 139.686 205.479 139.618C205.364 139.55 205.222 139.516 205.052 139.516C204.873 139.516 204.718 139.555 204.586 139.631C204.454 139.708 204.352 139.816 204.279 139.957C204.207 140.093 204.171 140.257 204.171 140.448C204.171 140.64 204.209 140.808 204.286 140.952C204.362 141.097 204.471 141.21 204.611 141.291C204.752 141.367 204.913 141.406 205.096 141.406C205.254 141.406 205.398 141.378 205.53 141.323C205.667 141.267 205.781 141.186 205.875 141.08L206.322 141.533C206.173 141.708 205.992 141.84 205.779 141.929C205.567 142.018 205.341 142.063 205.103 142.063ZM209.189 141.999V140.231C209.189 140.027 209.123 139.859 208.991 139.727C208.864 139.595 208.698 139.529 208.493 139.529C208.357 139.529 208.236 139.559 208.129 139.618C208.023 139.678 207.94 139.761 207.881 139.867C207.821 139.974 207.791 140.095 207.791 140.231L207.517 140.078C207.517 139.844 207.568 139.638 207.67 139.459C207.772 139.276 207.912 139.133 208.091 139.031C208.274 138.925 208.478 138.872 208.704 138.872C208.934 138.872 209.138 138.931 209.317 139.05C209.495 139.165 209.636 139.316 209.738 139.503C209.84 139.686 209.891 139.878 209.891 140.078V141.999H209.189ZM207.089 141.999V138.935H207.791V141.999H207.089ZM211.607 142.063C211.437 142.063 211.273 142.042 211.115 141.999C210.958 141.952 210.813 141.889 210.681 141.808C210.549 141.723 210.434 141.621 210.337 141.501L210.783 141.055C210.89 141.178 211.011 141.272 211.147 141.335C211.288 141.395 211.445 141.425 211.62 141.425C211.777 141.425 211.896 141.401 211.977 141.355C212.058 141.308 212.098 141.24 212.098 141.15C212.098 141.057 212.06 140.984 211.983 140.933C211.907 140.882 211.807 140.84 211.683 140.806C211.564 140.767 211.437 140.729 211.3 140.691C211.169 140.652 211.041 140.601 210.917 140.538C210.798 140.469 210.7 140.378 210.624 140.263C210.547 140.148 210.509 139.999 210.509 139.816C210.509 139.62 210.554 139.452 210.643 139.312C210.737 139.172 210.866 139.063 211.032 138.986C211.203 138.91 211.405 138.872 211.639 138.872C211.886 138.872 212.103 138.916 212.29 139.006C212.481 139.091 212.641 139.22 212.769 139.395L212.322 139.842C212.232 139.731 212.13 139.648 212.015 139.593C211.9 139.538 211.769 139.51 211.62 139.51C211.479 139.51 211.371 139.531 211.294 139.574C211.217 139.616 211.179 139.678 211.179 139.759C211.179 139.844 211.217 139.91 211.294 139.957C211.371 140.003 211.469 140.044 211.588 140.078C211.711 140.112 211.839 140.15 211.971 140.193C212.107 140.231 212.235 140.286 212.354 140.359C212.477 140.427 212.577 140.521 212.654 140.64C212.73 140.755 212.769 140.906 212.769 141.093C212.769 141.391 212.664 141.627 212.456 141.801C212.247 141.976 211.964 142.063 211.607 142.063ZM214.605 142.063C214.345 142.063 214.113 142.006 213.909 141.891C213.709 141.776 213.552 141.618 213.437 141.418C213.326 141.214 213.271 140.98 213.271 140.716V138.935H213.973V140.684C213.973 140.833 213.996 140.961 214.043 141.067C214.094 141.169 214.167 141.248 214.26 141.304C214.358 141.359 214.473 141.386 214.605 141.386C214.809 141.386 214.964 141.327 215.071 141.208C215.182 141.084 215.237 140.91 215.237 140.684V138.935H215.939V140.716C215.939 140.984 215.882 141.221 215.767 141.425C215.656 141.625 215.501 141.782 215.301 141.897C215.101 142.008 214.869 142.063 214.605 142.063ZM216.645 141.999V138.935H217.347V141.999H216.645ZM217.347 140.295L217.105 140.174C217.105 139.786 217.19 139.474 217.36 139.235C217.534 138.993 217.796 138.872 218.145 138.872C218.298 138.872 218.436 138.899 218.56 138.955C218.683 139.01 218.798 139.099 218.905 139.223L218.445 139.695C218.39 139.635 218.328 139.593 218.26 139.567C218.192 139.542 218.113 139.529 218.024 139.529C217.828 139.529 217.666 139.591 217.539 139.714C217.411 139.838 217.347 140.031 217.347 140.295ZM220.574 142.063C220.268 142.063 219.991 141.995 219.744 141.859C219.502 141.718 219.308 141.527 219.164 141.284C219.023 141.042 218.953 140.769 218.953 140.467C218.953 140.165 219.023 139.895 219.164 139.657C219.304 139.414 219.493 139.223 219.732 139.082C219.974 138.942 220.242 138.872 220.536 138.872C220.821 138.872 221.072 138.938 221.289 139.069C221.51 139.201 221.683 139.382 221.806 139.612C221.934 139.842 221.998 140.103 221.998 140.397C221.998 140.448 221.993 140.501 221.985 140.557C221.981 140.608 221.972 140.665 221.959 140.729H219.444V140.155H221.596L221.334 140.384C221.325 140.197 221.289 140.04 221.225 139.912C221.162 139.784 221.07 139.686 220.951 139.618C220.836 139.55 220.693 139.516 220.523 139.516C220.344 139.516 220.189 139.555 220.057 139.631C219.925 139.708 219.823 139.816 219.751 139.957C219.678 140.093 219.642 140.257 219.642 140.448C219.642 140.64 219.681 140.808 219.757 140.952C219.834 141.097 219.942 141.21 220.083 141.291C220.223 141.367 220.385 141.406 220.568 141.406C220.725 141.406 220.87 141.378 221.002 141.323C221.138 141.267 221.253 141.186 221.347 141.08L221.793 141.533C221.644 141.708 221.464 141.84 221.251 141.929C221.038 142.018 220.813 142.063 220.574 142.063ZM224.828 142.031L223.519 138.935H224.292L225.185 141.208H224.962L225.907 138.935H226.685L225.262 142.031H224.828ZM223.915 143.276L224.866 141.316L225.262 142.031L224.694 143.276H223.915ZM228.391 142.063C228.093 142.063 227.823 141.993 227.58 141.852C227.337 141.708 227.144 141.514 226.999 141.272C226.859 141.029 226.788 140.759 226.788 140.461C226.788 140.163 226.859 139.895 226.999 139.657C227.144 139.418 227.337 139.229 227.58 139.089C227.823 138.944 228.093 138.872 228.391 138.872C228.693 138.872 228.965 138.942 229.208 139.082C229.45 139.223 229.642 139.414 229.782 139.657C229.927 139.895 229.999 140.163 229.999 140.461C229.999 140.759 229.927 141.029 229.782 141.272C229.642 141.514 229.45 141.708 229.208 141.852C228.965 141.993 228.693 142.063 228.391 142.063ZM228.391 141.386C228.565 141.386 228.718 141.348 228.85 141.272C228.986 141.191 229.091 141.08 229.163 140.94C229.24 140.799 229.278 140.64 229.278 140.461C229.278 140.282 229.24 140.125 229.163 139.989C229.086 139.852 228.982 139.746 228.85 139.669C228.718 139.589 228.565 139.548 228.391 139.548C228.22 139.548 228.067 139.589 227.931 139.669C227.799 139.746 227.695 139.852 227.618 139.989C227.546 140.125 227.51 140.282 227.51 140.461C227.51 140.64 227.546 140.799 227.618 140.94C227.695 141.08 227.799 141.191 227.931 141.272C228.067 141.348 228.22 141.386 228.391 141.386ZM231.841 142.063C231.581 142.063 231.349 142.006 231.145 141.891C230.945 141.776 230.787 141.618 230.672 141.418C230.562 141.214 230.506 140.98 230.506 140.716V138.935H231.209V140.684C231.209 140.833 231.232 140.961 231.279 141.067C231.33 141.169 231.402 141.248 231.496 141.304C231.594 141.359 231.709 141.386 231.841 141.386C232.045 141.386 232.2 141.327 232.307 141.208C232.417 141.084 232.472 140.91 232.472 140.684V138.935H233.175V140.716C233.175 140.984 233.117 141.221 233.002 141.425C232.892 141.625 232.736 141.782 232.536 141.897C232.336 142.008 232.104 142.063 231.841 142.063ZM236.161 142.063C235.99 142.063 235.827 142.042 235.669 141.999C235.512 141.952 235.367 141.889 235.235 141.808C235.103 141.723 234.988 141.621 234.89 141.501L235.337 141.055C235.444 141.178 235.565 141.272 235.701 141.335C235.841 141.395 235.999 141.425 236.173 141.425C236.331 141.425 236.45 141.401 236.531 141.355C236.612 141.308 236.652 141.24 236.652 141.15C236.652 141.057 236.614 140.984 236.537 140.933C236.461 140.882 236.361 140.84 236.237 140.806C236.118 140.767 235.99 140.729 235.854 140.691C235.722 140.652 235.595 140.601 235.471 140.538C235.352 140.469 235.254 140.378 235.178 140.263C235.101 140.148 235.063 139.999 235.063 139.816C235.063 139.62 235.107 139.452 235.197 139.312C235.29 139.172 235.42 139.063 235.586 138.986C235.756 138.91 235.958 138.872 236.193 138.872C236.439 138.872 236.656 138.916 236.844 139.006C237.035 139.091 237.195 139.22 237.322 139.395L236.875 139.842C236.786 139.731 236.684 139.648 236.569 139.593C236.454 139.538 236.322 139.51 236.173 139.51C236.033 139.51 235.924 139.531 235.848 139.574C235.771 139.616 235.733 139.678 235.733 139.759C235.733 139.844 235.771 139.91 235.848 139.957C235.924 140.003 236.022 140.044 236.141 140.078C236.265 140.112 236.393 140.15 236.524 140.193C236.661 140.231 236.788 140.286 236.907 140.359C237.031 140.427 237.131 140.521 237.207 140.64C237.284 140.755 237.322 140.906 237.322 141.093C237.322 141.391 237.218 141.627 237.01 141.801C236.801 141.976 236.518 142.063 236.161 142.063ZM239.184 142.063C238.908 142.063 238.657 141.993 238.431 141.852C238.21 141.712 238.033 141.523 237.901 141.284C237.774 141.042 237.71 140.772 237.71 140.474C237.71 140.172 237.774 139.901 237.901 139.663C238.033 139.42 238.21 139.229 238.431 139.089C238.657 138.944 238.908 138.872 239.184 138.872C239.418 138.872 239.625 138.923 239.803 139.025C239.986 139.123 240.131 139.259 240.237 139.433C240.344 139.608 240.397 139.806 240.397 140.027V140.908C240.397 141.129 240.344 141.327 240.237 141.501C240.135 141.676 239.993 141.814 239.81 141.916C239.627 142.014 239.418 142.063 239.184 142.063ZM239.299 141.399C239.559 141.399 239.767 141.312 239.925 141.138C240.086 140.963 240.167 140.74 240.167 140.467C240.167 140.284 240.131 140.123 240.059 139.982C239.986 139.842 239.884 139.733 239.752 139.657C239.625 139.576 239.474 139.535 239.299 139.535C239.129 139.535 238.978 139.576 238.846 139.657C238.718 139.733 238.616 139.842 238.539 139.982C238.467 140.123 238.431 140.284 238.431 140.467C238.431 140.65 238.467 140.812 238.539 140.952C238.616 141.093 238.718 141.204 238.846 141.284C238.978 141.361 239.129 141.399 239.299 141.399ZM240.122 141.999V141.176L240.244 140.429L240.122 139.689V138.935H240.825V141.999H240.122ZM242.638 141.999L241.24 138.935H242.019L243.085 141.431H242.625L243.698 138.935H244.444L243.046 141.999H242.638ZM246.175 142.063C245.869 142.063 245.592 141.995 245.345 141.859C245.103 141.718 244.909 141.527 244.765 141.284C244.624 141.042 244.554 140.769 244.554 140.467C244.554 140.165 244.624 139.895 244.765 139.657C244.905 139.414 245.094 139.223 245.333 139.082C245.575 138.942 245.843 138.872 246.137 138.872C246.422 138.872 246.673 138.938 246.89 139.069C247.111 139.201 247.284 139.382 247.407 139.612C247.535 139.842 247.599 140.103 247.599 140.397C247.599 140.448 247.594 140.501 247.586 140.557C247.582 140.608 247.573 140.665 247.56 140.729H245.045V140.155H247.197L246.935 140.384C246.926 140.197 246.89 140.04 246.826 139.912C246.762 139.784 246.671 139.686 246.552 139.618C246.437 139.55 246.294 139.516 246.124 139.516C245.945 139.516 245.79 139.555 245.658 139.631C245.526 139.708 245.424 139.816 245.352 139.957C245.279 140.093 245.243 140.257 245.243 140.448C245.243 140.64 245.282 140.808 245.358 140.952C245.435 141.097 245.543 141.21 245.684 141.291C245.824 141.367 245.986 141.406 246.169 141.406C246.326 141.406 246.471 141.378 246.603 141.323C246.739 141.267 246.854 141.186 246.948 141.08L247.394 141.533C247.245 141.708 247.065 141.84 246.852 141.929C246.639 142.018 246.414 142.063 246.175 142.063ZM250.722 142.063C250.446 142.063 250.195 141.993 249.969 141.852C249.748 141.712 249.571 141.523 249.439 141.284C249.312 141.042 249.248 140.772 249.248 140.474C249.248 140.172 249.312 139.901 249.439 139.663C249.571 139.42 249.748 139.229 249.969 139.089C250.195 138.944 250.446 138.872 250.722 138.872C250.956 138.872 251.163 138.923 251.342 139.025C251.525 139.123 251.669 139.259 251.776 139.433C251.882 139.608 251.935 139.806 251.935 140.027V140.908C251.935 141.129 251.882 141.327 251.776 141.501C251.673 141.676 251.531 141.814 251.348 141.916C251.165 142.014 250.956 142.063 250.722 142.063ZM250.837 141.399C251.097 141.399 251.305 141.312 251.463 141.138C251.625 140.963 251.705 140.74 251.705 140.467C251.705 140.284 251.669 140.123 251.597 139.982C251.525 139.842 251.422 139.733 251.29 139.657C251.163 139.576 251.012 139.535 250.837 139.535C250.667 139.535 250.516 139.576 250.384 139.657C250.256 139.733 250.154 139.842 250.078 139.982C250.005 140.123 249.969 140.284 249.969 140.467C249.969 140.65 250.005 140.812 250.078 140.952C250.154 141.093 250.256 141.204 250.384 141.284C250.516 141.361 250.667 141.399 250.837 141.399ZM251.661 141.999V141.176L251.782 140.429L251.661 139.689V138.935H252.363V141.999H251.661ZM253.142 141.999V137.403H253.844V141.999H253.142ZM254.626 141.999V137.403H255.328V141.999H254.626ZM258.376 142.031L257.068 138.935H257.84L258.734 141.208H258.511L259.455 138.935H260.234L258.811 142.031H258.376ZM257.464 143.276L258.415 141.316L258.811 142.031L258.242 143.276H257.464ZM261.939 142.063C261.641 142.063 261.371 141.993 261.129 141.852C260.886 141.708 260.692 141.514 260.548 141.272C260.407 141.029 260.337 140.759 260.337 140.461C260.337 140.163 260.407 139.895 260.548 139.657C260.692 139.418 260.886 139.229 261.129 139.089C261.371 138.944 261.641 138.872 261.939 138.872C262.241 138.872 262.514 138.942 262.756 139.082C262.999 139.223 263.19 139.414 263.331 139.657C263.475 139.895 263.548 140.163 263.548 140.461C263.548 140.759 263.475 141.029 263.331 141.272C263.19 141.514 262.999 141.708 262.756 141.852C262.514 141.993 262.241 142.063 261.939 142.063ZM261.939 141.386C262.114 141.386 262.267 141.348 262.399 141.272C262.535 141.191 262.639 141.08 262.712 140.94C262.788 140.799 262.827 140.64 262.827 140.461C262.827 140.282 262.788 140.125 262.712 139.989C262.635 139.852 262.531 139.746 262.399 139.669C262.267 139.589 262.114 139.548 261.939 139.548C261.769 139.548 261.616 139.589 261.48 139.669C261.348 139.746 261.244 139.852 261.167 139.989C261.095 140.125 261.058 140.282 261.058 140.461C261.058 140.64 261.095 140.799 261.167 140.94C261.244 141.08 261.348 141.191 261.48 141.272C261.616 141.348 261.769 141.386 261.939 141.386ZM265.389 142.063C265.13 142.063 264.898 142.006 264.693 141.891C264.493 141.776 264.336 141.618 264.221 141.418C264.11 141.214 264.055 140.98 264.055 140.716V138.935H264.757V140.684C264.757 140.833 264.781 140.961 264.827 141.067C264.879 141.169 264.951 141.248 265.045 141.304C265.142 141.359 265.257 141.386 265.389 141.386C265.593 141.386 265.749 141.327 265.855 141.208C265.966 141.084 266.021 140.91 266.021 140.684V138.935H266.723V140.716C266.723 140.984 266.666 141.221 266.551 141.425C266.44 141.625 266.285 141.782 266.085 141.897C265.885 142.008 265.653 142.063 265.389 142.063ZM267.429 141.999V138.935H268.131V141.999H267.429ZM268.131 140.295L267.889 140.174C267.889 139.786 267.974 139.474 268.144 139.235C268.319 138.993 268.58 138.872 268.929 138.872C269.082 138.872 269.221 138.899 269.344 138.955C269.468 139.01 269.582 139.099 269.689 139.223L269.229 139.695C269.174 139.635 269.112 139.593 269.044 139.567C268.976 139.542 268.897 139.529 268.808 139.529C268.612 139.529 268.451 139.591 268.323 139.714C268.195 139.838 268.131 140.031 268.131 140.295ZM272.829 142.063C272.527 142.063 272.253 141.993 272.006 141.852C271.763 141.712 271.572 141.521 271.431 141.278C271.291 141.035 271.221 140.765 271.221 140.467C271.221 140.165 271.291 139.895 271.431 139.657C271.572 139.414 271.763 139.223 272.006 139.082C272.253 138.942 272.527 138.872 272.829 138.872C273.068 138.872 273.289 138.918 273.493 139.012C273.702 139.101 273.878 139.231 274.023 139.401L273.563 139.867C273.474 139.761 273.366 139.682 273.238 139.631C273.114 139.576 272.978 139.548 272.829 139.548C272.655 139.548 272.5 139.589 272.363 139.669C272.231 139.746 272.127 139.852 272.051 139.989C271.978 140.125 271.942 140.284 271.942 140.467C271.942 140.646 271.978 140.806 272.051 140.946C272.127 141.082 272.231 141.191 272.363 141.272C272.5 141.348 272.655 141.386 272.829 141.386C272.978 141.386 273.114 141.361 273.238 141.31C273.366 141.255 273.474 141.174 273.563 141.067L274.023 141.533C273.878 141.704 273.702 141.835 273.493 141.929C273.289 142.018 273.068 142.063 272.829 142.063ZM276.629 141.999V140.231C276.629 140.027 276.563 139.859 276.431 139.727C276.304 139.595 276.138 139.529 275.933 139.529C275.797 139.529 275.676 139.559 275.57 139.618C275.463 139.678 275.38 139.761 275.321 139.867C275.261 139.974 275.231 140.095 275.231 140.231L274.957 140.078C274.957 139.844 275.008 139.638 275.11 139.459C275.212 139.276 275.353 139.133 275.531 139.031C275.714 138.925 275.919 138.872 276.144 138.872C276.374 138.872 276.578 138.923 276.757 139.025C276.936 139.127 277.076 139.269 277.178 139.452C277.28 139.631 277.331 139.84 277.331 140.078V141.999H276.629ZM274.529 141.999V137.403H275.231V141.999H274.529ZM279.328 142.063C279.051 142.063 278.8 141.993 278.575 141.852C278.353 141.712 278.177 141.523 278.045 141.284C277.917 141.042 277.853 140.772 277.853 140.474C277.853 140.172 277.917 139.901 278.045 139.663C278.177 139.42 278.353 139.229 278.575 139.089C278.8 138.944 279.051 138.872 279.328 138.872C279.562 138.872 279.768 138.923 279.947 139.025C280.13 139.123 280.275 139.259 280.381 139.433C280.487 139.608 280.541 139.806 280.541 140.027V140.908C280.541 141.129 280.487 141.327 280.381 141.501C280.279 141.676 280.136 141.814 279.953 141.916C279.77 142.014 279.562 142.063 279.328 142.063ZM279.443 141.399C279.702 141.399 279.911 141.312 280.068 141.138C280.23 140.963 280.311 140.74 280.311 140.467C280.311 140.284 280.275 140.123 280.202 139.982C280.13 139.842 280.028 139.733 279.896 139.657C279.768 139.576 279.617 139.535 279.443 139.535C279.273 139.535 279.122 139.576 278.99 139.657C278.862 139.733 278.76 139.842 278.683 139.982C278.611 140.123 278.575 140.284 278.575 140.467C278.575 140.65 278.611 140.812 278.683 140.952C278.76 141.093 278.862 141.204 278.99 141.284C279.122 141.361 279.273 141.399 279.443 141.399ZM280.266 141.999V141.176L280.387 140.429L280.266 139.689V138.935H280.968V141.999H280.266ZM283.848 141.999V140.231C283.848 140.027 283.782 139.859 283.65 139.727C283.522 139.595 283.356 139.529 283.152 139.529C283.016 139.529 282.894 139.559 282.788 139.618C282.682 139.678 282.599 139.761 282.539 139.867C282.48 139.974 282.45 140.095 282.45 140.231L282.175 140.078C282.175 139.844 282.226 139.638 282.328 139.459C282.431 139.276 282.571 139.133 282.75 139.031C282.933 138.925 283.137 138.872 283.363 138.872C283.592 138.872 283.797 138.931 283.975 139.05C284.154 139.165 284.294 139.316 284.397 139.503C284.499 139.686 284.55 139.878 284.55 140.078V141.999H283.848ZM281.748 141.999V138.935H282.45V141.999H281.748ZM286.54 143.34C286.216 143.34 285.933 143.28 285.691 143.161C285.448 143.046 285.253 142.882 285.104 142.669L285.563 142.21C285.687 142.363 285.827 142.478 285.985 142.555C286.142 142.631 286.331 142.669 286.553 142.669C286.829 142.669 287.048 142.597 287.21 142.452C287.372 142.312 287.453 142.118 287.453 141.872V141.118L287.574 140.442L287.453 139.759V138.935H288.155V141.872C288.155 142.165 288.087 142.421 287.951 142.638C287.814 142.859 287.625 143.031 287.382 143.155C287.14 143.278 286.859 143.34 286.54 143.34ZM286.508 141.935C286.236 141.935 285.989 141.869 285.768 141.738C285.551 141.601 285.378 141.416 285.251 141.182C285.127 140.948 285.065 140.686 285.065 140.397C285.065 140.108 285.127 139.848 285.251 139.618C285.378 139.389 285.551 139.208 285.768 139.076C285.989 138.94 286.236 138.872 286.508 138.872C286.751 138.872 286.963 138.92 287.146 139.018C287.329 139.116 287.472 139.252 287.574 139.427C287.676 139.597 287.727 139.797 287.727 140.027V140.78C287.727 141.006 287.674 141.206 287.568 141.38C287.465 141.555 287.323 141.691 287.14 141.789C286.957 141.886 286.746 141.935 286.508 141.935ZM286.648 141.272C286.819 141.272 286.968 141.235 287.095 141.163C287.223 141.091 287.321 140.991 287.389 140.863C287.461 140.731 287.497 140.578 287.497 140.403C287.497 140.229 287.461 140.078 287.389 139.95C287.321 139.818 287.223 139.716 287.095 139.644C286.968 139.572 286.819 139.535 286.648 139.535C286.478 139.535 286.327 139.572 286.195 139.644C286.068 139.716 285.968 139.818 285.895 139.95C285.823 140.078 285.787 140.229 285.787 140.403C285.787 140.574 285.823 140.725 285.895 140.857C285.968 140.989 286.068 141.091 286.195 141.163C286.327 141.235 286.478 141.272 286.648 141.272ZM290.358 142.063C290.052 142.063 289.775 141.995 289.528 141.859C289.286 141.718 289.092 141.527 288.948 141.284C288.807 141.042 288.737 140.769 288.737 140.467C288.737 140.165 288.807 139.895 288.948 139.657C289.088 139.414 289.277 139.223 289.516 139.082C289.758 138.942 290.026 138.872 290.32 138.872C290.605 138.872 290.856 138.938 291.073 139.069C291.294 139.201 291.467 139.382 291.59 139.612C291.718 139.842 291.782 140.103 291.782 140.397C291.782 140.448 291.777 140.501 291.769 140.557C291.765 140.608 291.756 140.665 291.743 140.729H289.228V140.155H291.38L291.118 140.384C291.109 140.197 291.073 140.04 291.009 139.912C290.945 139.784 290.854 139.686 290.735 139.618C290.62 139.55 290.477 139.516 290.307 139.516C290.128 139.516 289.973 139.555 289.841 139.631C289.709 139.708 289.607 139.816 289.535 139.957C289.462 140.093 289.426 140.257 289.426 140.448C289.426 140.64 289.465 140.808 289.541 140.952C289.618 141.097 289.726 141.21 289.867 141.291C290.007 141.367 290.169 141.406 290.352 141.406C290.509 141.406 290.654 141.378 290.786 141.323C290.922 141.267 291.037 141.186 291.131 141.08L291.577 141.533C291.428 141.708 291.248 141.84 291.035 141.929C290.822 142.018 290.597 142.063 290.358 142.063ZM293.347 142.063C293.176 142.063 293.013 142.042 292.855 141.999C292.698 141.952 292.553 141.889 292.421 141.808C292.289 141.723 292.174 141.621 292.076 141.501L292.523 141.055C292.63 141.178 292.751 141.272 292.887 141.335C293.028 141.395 293.185 141.425 293.359 141.425C293.517 141.425 293.636 141.401 293.717 141.355C293.798 141.308 293.838 141.24 293.838 141.15C293.838 141.057 293.8 140.984 293.723 140.933C293.647 140.882 293.547 140.84 293.423 140.806C293.304 140.767 293.176 140.729 293.04 140.691C292.908 140.652 292.781 140.601 292.657 140.538C292.538 140.469 292.44 140.378 292.364 140.263C292.287 140.148 292.249 139.999 292.249 139.816C292.249 139.62 292.293 139.452 292.383 139.312C292.476 139.172 292.606 139.063 292.772 138.986C292.942 138.91 293.145 138.872 293.379 138.872C293.625 138.872 293.842 138.916 294.03 139.006C294.221 139.091 294.381 139.22 294.508 139.395L294.062 139.842C293.972 139.731 293.87 139.648 293.755 139.593C293.64 139.538 293.508 139.51 293.359 139.51C293.219 139.51 293.11 139.531 293.034 139.574C292.957 139.616 292.919 139.678 292.919 139.759C292.919 139.844 292.957 139.91 293.034 139.957C293.11 140.003 293.208 140.044 293.328 140.078C293.451 140.112 293.579 140.15 293.711 140.193C293.847 140.231 293.974 140.286 294.093 140.359C294.217 140.427 294.317 140.521 294.393 140.64C294.47 140.755 294.508 140.906 294.508 141.093C294.508 141.391 294.404 141.627 294.196 141.801C293.987 141.976 293.704 142.063 293.347 142.063ZM297.769 142.063C297.472 142.063 297.201 141.993 296.959 141.852C296.716 141.708 296.523 141.514 296.378 141.272C296.237 141.029 296.167 140.759 296.167 140.461C296.167 140.163 296.237 139.895 296.378 139.657C296.523 139.418 296.716 139.229 296.959 139.089C297.201 138.944 297.472 138.872 297.769 138.872C298.072 138.872 298.344 138.942 298.586 139.082C298.829 139.223 299.02 139.414 299.161 139.657C299.306 139.895 299.378 140.163 299.378 140.461C299.378 140.759 299.306 141.029 299.161 141.272C299.02 141.514 298.829 141.708 298.586 141.852C298.344 141.993 298.072 142.063 297.769 142.063ZM297.769 141.386C297.944 141.386 298.097 141.348 298.229 141.272C298.365 141.191 298.469 141.08 298.542 140.94C298.618 140.799 298.657 140.64 298.657 140.461C298.657 140.282 298.618 140.125 298.542 139.989C298.465 139.852 298.361 139.746 298.229 139.669C298.097 139.589 297.944 139.548 297.769 139.548C297.599 139.548 297.446 139.589 297.31 139.669C297.178 139.746 297.074 139.852 296.997 139.989C296.925 140.125 296.889 140.282 296.889 140.461C296.889 140.64 296.925 140.799 296.997 140.94C297.074 141.08 297.178 141.191 297.31 141.272C297.446 141.348 297.599 141.386 297.769 141.386ZM302.062 141.999V140.231C302.062 140.027 301.996 139.859 301.864 139.727C301.736 139.595 301.57 139.529 301.366 139.529C301.23 139.529 301.109 139.559 301.002 139.618C300.896 139.678 300.813 139.761 300.753 139.867C300.694 139.974 300.664 140.095 300.664 140.231L300.39 140.078C300.39 139.844 300.441 139.638 300.543 139.459C300.645 139.276 300.785 139.133 300.964 139.031C301.147 138.925 301.351 138.872 301.577 138.872C301.807 138.872 302.011 138.931 302.19 139.05C302.368 139.165 302.509 139.316 302.611 139.503C302.713 139.686 302.764 139.878 302.764 140.078V141.999H302.062ZM299.962 141.999V138.935H300.664V141.999H299.962ZM305.221 141.999V137.659H305.924V141.999H305.221ZM304.487 139.574V138.935H306.658V139.574H304.487ZM309.268 141.999V140.231C309.268 140.027 309.202 139.859 309.07 139.727C308.942 139.595 308.776 139.529 308.572 139.529C308.436 139.529 308.315 139.559 308.208 139.618C308.102 139.678 308.019 139.761 307.959 139.867C307.9 139.974 307.87 140.095 307.87 140.231L307.595 140.078C307.595 139.844 307.647 139.638 307.749 139.459C307.851 139.276 307.991 139.133 308.17 139.031C308.353 138.925 308.557 138.872 308.783 138.872C309.012 138.872 309.217 138.923 309.395 139.025C309.574 139.127 309.715 139.269 309.817 139.452C309.919 139.631 309.97 139.84 309.97 140.078V141.999H309.268ZM307.168 141.999V137.403H307.87V141.999H307.168ZM310.69 141.999V138.935H311.392V141.999H310.69ZM311.041 138.374C310.922 138.374 310.822 138.333 310.741 138.252C310.664 138.172 310.626 138.072 310.626 137.952C310.626 137.833 310.664 137.733 310.741 137.652C310.822 137.572 310.922 137.531 311.041 137.531C311.164 137.531 311.264 137.572 311.341 137.652C311.418 137.733 311.456 137.833 311.456 137.952C311.456 138.072 311.418 138.172 311.341 138.252C311.264 138.333 311.164 138.374 311.041 138.374ZM313.182 142.063C313.011 142.063 312.848 142.042 312.69 141.999C312.533 141.952 312.388 141.889 312.256 141.808C312.124 141.723 312.009 141.621 311.911 141.501L312.358 141.055C312.465 141.178 312.586 141.272 312.722 141.335C312.862 141.395 313.02 141.425 313.194 141.425C313.352 141.425 313.471 141.401 313.552 141.355C313.633 141.308 313.673 141.24 313.673 141.15C313.673 141.057 313.635 140.984 313.558 140.933C313.482 140.882 313.382 140.84 313.258 140.806C313.139 140.767 313.011 140.729 312.875 140.691C312.743 140.652 312.616 140.601 312.492 140.538C312.373 140.469 312.275 140.378 312.199 140.263C312.122 140.148 312.084 139.999 312.084 139.816C312.084 139.62 312.128 139.452 312.218 139.312C312.311 139.172 312.441 139.063 312.607 138.986C312.777 138.91 312.98 138.872 313.214 138.872C313.46 138.872 313.677 138.916 313.865 139.006C314.056 139.091 314.216 139.22 314.343 139.395L313.897 139.842C313.807 139.731 313.705 139.648 313.59 139.593C313.475 139.538 313.343 139.51 313.194 139.51C313.054 139.51 312.945 139.531 312.869 139.574C312.792 139.616 312.754 139.678 312.754 139.759C312.754 139.844 312.792 139.91 312.869 139.957C312.945 140.003 313.043 140.044 313.162 140.078C313.286 140.112 313.414 140.15 313.545 140.193C313.682 140.231 313.809 140.286 313.928 140.359C314.052 140.427 314.152 140.521 314.228 140.64C314.305 140.755 314.343 140.906 314.343 141.093C314.343 141.391 314.239 141.627 314.031 141.801C313.822 141.976 313.539 142.063 313.182 142.063ZM317.841 142.063C317.607 142.063 317.398 142.014 317.215 141.916C317.032 141.814 316.887 141.676 316.781 141.501C316.679 141.327 316.628 141.129 316.628 140.908V140.027C316.628 139.806 316.681 139.608 316.787 139.433C316.894 139.259 317.038 139.123 317.221 139.025C317.404 138.923 317.611 138.872 317.841 138.872C318.117 138.872 318.366 138.944 318.587 139.089C318.813 139.229 318.99 139.42 319.117 139.663C319.249 139.901 319.315 140.172 319.315 140.474C319.315 140.772 319.249 141.042 319.117 141.284C318.99 141.523 318.813 141.712 318.587 141.852C318.366 141.993 318.117 142.063 317.841 142.063ZM316.2 143.276V138.935H316.902V139.759L316.781 140.506L316.902 141.246V143.276H316.2ZM317.726 141.399C317.896 141.399 318.045 141.361 318.172 141.284C318.304 141.204 318.407 141.093 318.479 140.952C318.555 140.812 318.594 140.65 318.594 140.467C318.594 140.284 318.555 140.123 318.479 139.982C318.407 139.842 318.304 139.733 318.172 139.657C318.045 139.576 317.896 139.535 317.726 139.535C317.555 139.535 317.404 139.576 317.272 139.657C317.141 139.733 317.038 139.842 316.966 139.982C316.894 140.123 316.858 140.284 316.858 140.467C316.858 140.65 316.894 140.812 316.966 140.952C317.038 141.093 317.141 141.204 317.272 141.284C317.404 141.361 317.555 141.399 317.726 141.399ZM321.186 142.063C320.909 142.063 320.658 141.993 320.433 141.852C320.211 141.712 320.035 141.523 319.903 141.284C319.775 141.042 319.711 140.772 319.711 140.474C319.711 140.172 319.775 139.901 319.903 139.663C320.035 139.42 320.211 139.229 320.433 139.089C320.658 138.944 320.909 138.872 321.186 138.872C321.42 138.872 321.626 138.923 321.805 139.025C321.988 139.123 322.133 139.259 322.239 139.433C322.345 139.608 322.399 139.806 322.399 140.027V140.908C322.399 141.129 322.345 141.327 322.239 141.501C322.137 141.676 321.994 141.814 321.811 141.916C321.628 142.014 321.42 142.063 321.186 142.063ZM321.301 141.399C321.56 141.399 321.769 141.312 321.926 141.138C322.088 140.963 322.169 140.74 322.169 140.467C322.169 140.284 322.133 140.123 322.06 139.982C321.988 139.842 321.886 139.733 321.754 139.657C321.626 139.576 321.475 139.535 321.301 139.535C321.13 139.535 320.979 139.576 320.847 139.657C320.72 139.733 320.618 139.842 320.541 139.982C320.469 140.123 320.433 140.284 320.433 140.467C320.433 140.65 320.469 140.812 320.541 140.952C320.618 141.093 320.72 141.204 320.847 141.284C320.979 141.361 321.13 141.399 321.301 141.399ZM322.124 141.999V141.176L322.245 140.429L322.124 139.689V138.935H322.826V141.999H322.124ZM324.882 143.34C324.559 143.34 324.276 143.28 324.033 143.161C323.791 143.046 323.595 142.882 323.446 142.669L323.906 142.21C324.029 142.363 324.169 142.478 324.327 142.555C324.484 142.631 324.674 142.669 324.895 142.669C325.171 142.669 325.391 142.597 325.552 142.452C325.714 142.312 325.795 142.118 325.795 141.872V141.118L325.916 140.442L325.795 139.759V138.935H326.497V141.872C326.497 142.165 326.429 142.421 326.293 142.638C326.157 142.859 325.967 143.031 325.725 143.155C325.482 143.278 325.201 143.34 324.882 143.34ZM324.85 141.935C324.578 141.935 324.331 141.869 324.11 141.738C323.893 141.601 323.72 141.416 323.593 141.182C323.469 140.948 323.408 140.686 323.408 140.397C323.408 140.108 323.469 139.848 323.593 139.618C323.72 139.389 323.893 139.208 324.11 139.076C324.331 138.94 324.578 138.872 324.85 138.872C325.093 138.872 325.306 138.92 325.489 139.018C325.671 139.116 325.814 139.252 325.916 139.427C326.018 139.597 326.069 139.797 326.069 140.027V140.78C326.069 141.006 326.016 141.206 325.91 141.38C325.808 141.555 325.665 141.691 325.482 141.789C325.299 141.886 325.089 141.935 324.85 141.935ZM324.991 141.272C325.161 141.272 325.31 141.235 325.437 141.163C325.565 141.091 325.663 140.991 325.731 140.863C325.803 140.731 325.84 140.578 325.84 140.403C325.84 140.229 325.803 140.078 325.731 139.95C325.663 139.818 325.565 139.716 325.437 139.644C325.31 139.572 325.161 139.535 324.991 139.535C324.82 139.535 324.669 139.572 324.537 139.644C324.41 139.716 324.31 139.818 324.237 139.95C324.165 140.078 324.129 140.229 324.129 140.403C324.129 140.574 324.165 140.725 324.237 140.857C324.31 140.989 324.41 141.091 324.537 141.163C324.669 141.235 324.82 141.272 324.991 141.272ZM328.7 142.063C328.394 142.063 328.117 141.995 327.871 141.859C327.628 141.718 327.434 141.527 327.29 141.284C327.149 141.042 327.079 140.769 327.079 140.467C327.079 140.165 327.149 139.895 327.29 139.657C327.43 139.414 327.62 139.223 327.858 139.082C328.1 138.942 328.369 138.872 328.662 138.872C328.947 138.872 329.198 138.938 329.415 139.069C329.637 139.201 329.809 139.382 329.932 139.612C330.06 139.842 330.124 140.103 330.124 140.397C330.124 140.448 330.12 140.501 330.111 140.557C330.107 140.608 330.098 140.665 330.086 140.729H327.571V140.155H329.722L329.46 140.384C329.452 140.197 329.415 140.04 329.352 139.912C329.288 139.784 329.196 139.686 329.077 139.618C328.962 139.55 328.82 139.516 328.649 139.516C328.471 139.516 328.315 139.555 328.183 139.631C328.052 139.708 327.949 139.816 327.877 139.957C327.805 140.093 327.769 140.257 327.769 140.448C327.769 140.64 327.807 140.808 327.883 140.952C327.96 141.097 328.069 141.21 328.209 141.291C328.349 141.367 328.511 141.406 328.694 141.406C328.852 141.406 328.996 141.378 329.128 141.323C329.264 141.267 329.379 141.186 329.473 141.08L329.92 141.533C329.771 141.708 329.59 141.84 329.377 141.929C329.164 142.018 328.939 142.063 328.7 142.063ZM332.431 141.999V137.659H333.133V141.999H332.431ZM331.697 139.574V138.935H333.867V139.574H331.697ZM335.694 142.063C335.396 142.063 335.126 141.993 334.883 141.852C334.641 141.708 334.447 141.514 334.302 141.272C334.162 141.029 334.092 140.759 334.092 140.461C334.092 140.163 334.162 139.895 334.302 139.657C334.447 139.418 334.641 139.229 334.883 139.089C335.126 138.944 335.396 138.872 335.694 138.872C335.996 138.872 336.268 138.942 336.511 139.082C336.754 139.223 336.945 139.414 337.085 139.657C337.23 139.895 337.303 140.163 337.303 140.461C337.303 140.759 337.23 141.029 337.085 141.272C336.945 141.514 336.754 141.708 336.511 141.852C336.268 141.993 335.996 142.063 335.694 142.063ZM335.694 141.386C335.868 141.386 336.022 141.348 336.154 141.272C336.29 141.191 336.394 141.08 336.466 140.94C336.543 140.799 336.581 140.64 336.581 140.461C336.581 140.282 336.543 140.125 336.466 139.989C336.39 139.852 336.285 139.746 336.154 139.669C336.022 139.589 335.868 139.548 335.694 139.548C335.524 139.548 335.371 139.589 335.234 139.669C335.102 139.746 334.998 139.852 334.922 139.989C334.849 140.125 334.813 140.282 334.813 140.461C334.813 140.64 334.849 140.799 334.922 140.94C334.998 141.08 335.102 141.191 335.234 141.272C335.371 141.348 335.524 141.386 335.694 141.386ZM340.447 142.063C340.171 142.063 339.92 141.993 339.694 141.852C339.473 141.712 339.296 141.523 339.164 141.284C339.037 141.042 338.973 140.772 338.973 140.474C338.973 140.172 339.037 139.901 339.164 139.663C339.296 139.42 339.473 139.229 339.694 139.089C339.92 138.944 340.171 138.872 340.447 138.872C340.681 138.872 340.888 138.923 341.066 139.025C341.249 139.123 341.394 139.259 341.501 139.433C341.607 139.608 341.66 139.806 341.66 140.027V140.908C341.66 141.129 341.607 141.327 341.501 141.501C341.398 141.676 341.256 141.814 341.073 141.916C340.89 142.014 340.681 142.063 340.447 142.063ZM340.562 141.399C340.822 141.399 341.03 141.312 341.188 141.138C341.349 140.963 341.43 140.74 341.43 140.467C341.43 140.284 341.394 140.123 341.322 139.982C341.249 139.842 341.147 139.733 341.015 139.657C340.888 139.576 340.737 139.535 340.562 139.535C340.392 139.535 340.241 139.576 340.109 139.657C339.981 139.733 339.879 139.842 339.803 139.982C339.73 140.123 339.694 140.284 339.694 140.467C339.694 140.65 339.73 140.812 339.803 140.952C339.879 141.093 339.981 141.204 340.109 141.284C340.241 141.361 340.392 141.399 340.562 141.399ZM341.386 141.999V141.176L341.507 140.429L341.386 139.689V138.935H342.088V141.999H341.386ZM343.901 141.999L342.503 138.935H343.282L344.348 141.431H343.888L344.961 138.935H345.707L344.31 141.999H343.901ZM347.419 142.063C347.121 142.063 346.851 141.993 346.609 141.852C346.366 141.708 346.172 141.514 346.028 141.272C345.887 141.029 345.817 140.759 345.817 140.461C345.817 140.163 345.887 139.895 346.028 139.657C346.172 139.418 346.366 139.229 346.609 139.089C346.851 138.944 347.121 138.872 347.419 138.872C347.721 138.872 347.994 138.942 348.236 139.082C348.479 139.223 348.67 139.414 348.811 139.657C348.955 139.895 349.028 140.163 349.028 140.461C349.028 140.759 348.955 141.029 348.811 141.272C348.67 141.514 348.479 141.708 348.236 141.852C347.994 141.993 347.721 142.063 347.419 142.063ZM347.419 141.386C347.594 141.386 347.747 141.348 347.879 141.272C348.015 141.191 348.119 141.08 348.192 140.94C348.268 140.799 348.306 140.64 348.306 140.461C348.306 140.282 348.268 140.125 348.192 139.989C348.115 139.852 348.011 139.746 347.879 139.669C347.747 139.589 347.594 139.548 347.419 139.548C347.249 139.548 347.096 139.589 346.96 139.669C346.828 139.746 346.723 139.852 346.647 139.989C346.575 140.125 346.538 140.282 346.538 140.461C346.538 140.64 346.575 140.799 346.647 140.94C346.723 141.08 346.828 141.191 346.96 141.272C347.096 141.348 347.249 141.386 347.419 141.386ZM349.618 141.999V138.935H350.32V141.999H349.618ZM349.969 138.374C349.85 138.374 349.75 138.333 349.669 138.252C349.592 138.172 349.554 138.072 349.554 137.952C349.554 137.833 349.592 137.733 349.669 137.652C349.75 137.572 349.85 137.531 349.969 137.531C350.092 137.531 350.192 137.572 350.269 137.652C350.346 137.733 350.384 137.833 350.384 137.952C350.384 138.072 350.346 138.172 350.269 138.252C350.192 138.333 350.092 138.374 349.969 138.374ZM352.391 142.063C352.114 142.063 351.863 141.993 351.637 141.852C351.416 141.712 351.24 141.523 351.108 141.284C350.98 141.042 350.916 140.772 350.916 140.474C350.916 140.172 350.98 139.901 351.108 139.663C351.24 139.42 351.416 139.229 351.637 139.089C351.863 138.944 352.114 138.872 352.391 138.872C352.625 138.872 352.831 138.923 353.01 139.025C353.193 139.123 353.338 139.259 353.444 139.433C353.55 139.608 353.603 139.806 353.603 140.027V140.908C353.603 141.129 353.55 141.327 353.444 141.501C353.342 141.676 353.199 141.814 353.016 141.916C352.833 142.014 352.625 142.063 352.391 142.063ZM352.506 141.399C352.68 141.399 352.831 141.361 352.959 141.284C353.091 141.204 353.193 141.093 353.265 140.952C353.338 140.812 353.374 140.65 353.374 140.467C353.374 140.284 353.338 140.123 353.265 139.982C353.193 139.842 353.091 139.733 352.959 139.657C352.831 139.576 352.68 139.535 352.506 139.535C352.335 139.535 352.184 139.576 352.052 139.657C351.925 139.733 351.823 139.842 351.746 139.982C351.674 140.123 351.637 140.284 351.637 140.467C351.637 140.65 351.674 140.812 351.746 140.952C351.823 141.093 351.925 141.204 352.052 141.284C352.184 141.361 352.335 141.399 352.506 141.399ZM354.031 141.999H353.329V141.176L353.45 140.429L353.329 139.689V137.403H354.031V141.999ZM357.371 142.063C357.095 142.063 356.844 141.993 356.618 141.852C356.397 141.712 356.22 141.523 356.088 141.284C355.961 141.042 355.897 140.772 355.897 140.474C355.897 140.172 355.961 139.901 356.088 139.663C356.22 139.42 356.397 139.229 356.618 139.089C356.844 138.944 357.095 138.872 357.371 138.872C357.605 138.872 357.812 138.923 357.99 139.025C358.173 139.123 358.318 139.259 358.424 139.433C358.531 139.608 358.584 139.806 358.584 140.027V140.908C358.584 141.129 358.531 141.327 358.424 141.501C358.322 141.676 358.18 141.814 357.997 141.916C357.814 142.014 357.605 142.063 357.371 142.063ZM357.486 141.399C357.746 141.399 357.954 141.312 358.112 141.138C358.273 140.963 358.354 140.74 358.354 140.467C358.354 140.284 358.318 140.123 358.246 139.982C358.173 139.842 358.071 139.733 357.939 139.657C357.812 139.576 357.661 139.535 357.486 139.535C357.316 139.535 357.165 139.576 357.033 139.657C356.905 139.733 356.803 139.842 356.727 139.982C356.654 140.123 356.618 140.284 356.618 140.467C356.618 140.65 356.654 140.812 356.727 140.952C356.803 141.093 356.905 141.204 357.033 141.284C357.165 141.361 357.316 141.399 357.486 141.399ZM358.31 141.999V141.176L358.431 140.429L358.31 139.689V138.935H359.012V141.999H358.31ZM361.891 141.999V140.231C361.891 140.027 361.825 139.859 361.693 139.727C361.565 139.595 361.399 139.529 361.195 139.529C361.059 139.529 360.938 139.559 360.831 139.618C360.725 139.678 360.642 139.761 360.582 139.867C360.523 139.974 360.493 140.095 360.493 140.231L360.219 140.078C360.219 139.844 360.27 139.638 360.372 139.459C360.474 139.276 360.614 139.133 360.793 139.031C360.976 138.925 361.18 138.872 361.406 138.872C361.636 138.872 361.84 138.931 362.019 139.05C362.197 139.165 362.338 139.316 362.44 139.503C362.542 139.686 362.593 139.878 362.593 140.078V141.999H361.891ZM359.791 141.999V138.935H360.493V141.999H359.791ZM364.296 142.031L362.987 138.935H363.76L364.653 141.208H364.43L365.375 138.935H366.153L364.73 142.031H364.296ZM363.383 143.276L364.334 141.316L364.73 142.031L364.162 143.276H363.383ZM369.529 142.063C369.295 142.063 369.086 142.014 368.903 141.916C368.72 141.814 368.575 141.676 368.469 141.501C368.367 141.327 368.316 141.129 368.316 140.908V140.027C368.316 139.806 368.369 139.608 368.475 139.433C368.582 139.259 368.727 139.123 368.91 139.025C369.093 138.923 369.299 138.872 369.529 138.872C369.805 138.872 370.054 138.944 370.276 139.089C370.501 139.229 370.678 139.42 370.805 139.663C370.937 139.901 371.003 140.172 371.003 140.474C371.003 140.772 370.937 141.042 370.805 141.284C370.678 141.523 370.501 141.712 370.276 141.852C370.054 141.993 369.805 142.063 369.529 142.063ZM367.888 143.276V138.935H368.59V139.759L368.469 140.506L368.59 141.246V143.276H367.888ZM369.414 141.399C369.584 141.399 369.733 141.361 369.861 141.284C369.993 141.204 370.095 141.093 370.167 140.952C370.244 140.812 370.282 140.65 370.282 140.467C370.282 140.284 370.244 140.123 370.167 139.982C370.095 139.842 369.993 139.733 369.861 139.657C369.733 139.576 369.584 139.535 369.414 139.535C369.244 139.535 369.093 139.576 368.961 139.657C368.829 139.733 368.727 139.842 368.654 139.982C368.582 140.123 368.546 140.284 368.546 140.467C368.546 140.65 368.582 140.812 368.654 140.952C368.727 141.093 368.829 141.204 368.961 141.284C369.093 141.361 369.244 141.399 369.414 141.399ZM372.995 142.063C372.697 142.063 372.427 141.993 372.185 141.852C371.942 141.708 371.748 141.514 371.604 141.272C371.463 141.029 371.393 140.759 371.393 140.461C371.393 140.163 371.463 139.895 371.604 139.657C371.748 139.418 371.942 139.229 372.185 139.089C372.427 138.944 372.697 138.872 372.995 138.872C373.297 138.872 373.57 138.942 373.812 139.082C374.055 139.223 374.246 139.414 374.387 139.657C374.531 139.895 374.604 140.163 374.604 140.461C374.604 140.759 374.531 141.029 374.387 141.272C374.246 141.514 374.055 141.708 373.812 141.852C373.57 141.993 373.297 142.063 372.995 142.063ZM372.995 141.386C373.17 141.386 373.323 141.348 373.455 141.272C373.591 141.191 373.695 141.08 373.768 140.94C373.844 140.799 373.882 140.64 373.882 140.461C373.882 140.282 373.844 140.125 373.768 139.989C373.691 139.852 373.587 139.746 373.455 139.669C373.323 139.589 373.17 139.548 372.995 139.548C372.825 139.548 372.672 139.589 372.536 139.669C372.404 139.746 372.299 139.852 372.223 139.989C372.151 140.125 372.114 140.282 372.114 140.461C372.114 140.64 372.151 140.799 372.223 140.94C372.299 141.08 372.404 141.191 372.536 141.272C372.672 141.348 372.825 141.386 372.995 141.386ZM375.566 141.999V137.659H376.269V141.999H375.566ZM374.832 139.574V138.935H377.003V139.574H374.832ZM378.849 142.063C378.543 142.063 378.266 141.995 378.019 141.859C377.777 141.718 377.583 141.527 377.438 141.284C377.298 141.042 377.228 140.769 377.228 140.467C377.228 140.165 377.298 139.895 377.438 139.657C377.579 139.414 377.768 139.223 378.006 139.082C378.249 138.942 378.517 138.872 378.811 138.872C379.096 138.872 379.347 138.938 379.564 139.069C379.785 139.201 379.957 139.382 380.081 139.612C380.209 139.842 380.272 140.103 380.272 140.397C380.272 140.448 380.268 140.501 380.26 140.557C380.255 140.608 380.247 140.665 380.234 140.729H377.719V140.155H379.87L379.609 140.384C379.6 140.197 379.564 140.04 379.5 139.912C379.436 139.784 379.345 139.686 379.226 139.618C379.111 139.55 378.968 139.516 378.798 139.516C378.619 139.516 378.464 139.555 378.332 139.631C378.2 139.708 378.098 139.816 378.026 139.957C377.953 140.093 377.917 140.257 377.917 140.448C377.917 140.64 377.955 140.808 378.032 140.952C378.108 141.097 378.217 141.21 378.357 141.291C378.498 141.367 378.66 141.406 378.843 141.406C379 141.406 379.145 141.378 379.277 141.323C379.413 141.267 379.528 141.186 379.621 141.08L380.068 141.533C379.919 141.708 379.738 141.84 379.526 141.929C379.313 142.018 379.087 142.063 378.849 142.063ZM382.935 141.999V140.231C382.935 140.027 382.869 139.859 382.737 139.727C382.61 139.595 382.444 139.529 382.239 139.529C382.103 139.529 381.982 139.559 381.876 139.618C381.769 139.678 381.686 139.761 381.627 139.867C381.567 139.974 381.537 140.095 381.537 140.231L381.263 140.078C381.263 139.844 381.314 139.638 381.416 139.459C381.518 139.276 381.659 139.133 381.837 139.031C382.02 138.925 382.225 138.872 382.45 138.872C382.68 138.872 382.884 138.931 383.063 139.05C383.242 139.165 383.382 139.316 383.484 139.503C383.586 139.686 383.637 139.878 383.637 140.078V141.999H382.935ZM380.835 141.999V138.935H381.537V141.999H380.835ZM384.779 141.999V137.659H385.482V141.999H384.779ZM384.045 139.574V138.935H386.216V139.574H384.045ZM386.732 141.999V138.935H387.434V141.999H386.732ZM387.083 138.374C386.964 138.374 386.864 138.333 386.783 138.252C386.707 138.172 386.668 138.072 386.668 137.952C386.668 137.833 386.707 137.733 386.783 137.652C386.864 137.572 386.964 137.531 387.083 137.531C387.207 137.531 387.307 137.572 387.383 137.652C387.46 137.733 387.498 137.833 387.498 137.952C387.498 138.072 387.46 138.172 387.383 138.252C387.307 138.333 387.207 138.374 387.083 138.374ZM389.505 142.063C389.228 142.063 388.977 141.993 388.752 141.852C388.53 141.712 388.354 141.523 388.222 141.284C388.094 141.042 388.03 140.772 388.03 140.474C388.03 140.172 388.094 139.901 388.222 139.663C388.354 139.42 388.53 139.229 388.752 139.089C388.977 138.944 389.228 138.872 389.505 138.872C389.739 138.872 389.945 138.923 390.124 139.025C390.307 139.123 390.452 139.259 390.558 139.433C390.665 139.608 390.718 139.806 390.718 140.027V140.908C390.718 141.129 390.665 141.327 390.558 141.501C390.456 141.676 390.313 141.814 390.13 141.916C389.947 142.014 389.739 142.063 389.505 142.063ZM389.62 141.399C389.879 141.399 390.088 141.312 390.245 141.138C390.407 140.963 390.488 140.74 390.488 140.467C390.488 140.284 390.452 140.123 390.379 139.982C390.307 139.842 390.205 139.733 390.073 139.657C389.945 139.576 389.794 139.535 389.62 139.535C389.45 139.535 389.299 139.576 389.167 139.657C389.039 139.733 388.937 139.842 388.86 139.982C388.788 140.123 388.752 140.284 388.752 140.467C388.752 140.65 388.788 140.812 388.86 140.952C388.937 141.093 389.039 141.204 389.167 141.284C389.299 141.361 389.45 141.399 389.62 141.399ZM390.443 141.999V141.176L390.565 140.429L390.443 139.689V138.935H391.145V141.999H390.443ZM391.925 141.999V137.403H392.627V141.999H391.925ZM395.969 142.063C395.692 142.063 395.441 141.993 395.216 141.852C394.995 141.712 394.818 141.523 394.686 141.284C394.558 141.042 394.495 140.772 394.495 140.474C394.495 140.172 394.558 139.901 394.686 139.663C394.818 139.42 394.995 139.229 395.216 139.089C395.441 138.944 395.692 138.872 395.969 138.872C396.203 138.872 396.409 138.923 396.588 139.025C396.771 139.123 396.916 139.259 397.022 139.433C397.129 139.608 397.182 139.806 397.182 140.027V140.908C397.182 141.129 397.129 141.327 397.022 141.501C396.92 141.676 396.778 141.814 396.595 141.916C396.412 142.014 396.203 142.063 395.969 142.063ZM396.084 141.399C396.258 141.399 396.409 141.361 396.537 141.284C396.669 141.204 396.771 141.093 396.844 140.952C396.916 140.812 396.952 140.65 396.952 140.467C396.952 140.284 396.916 140.123 396.844 139.982C396.771 139.842 396.669 139.733 396.537 139.657C396.409 139.576 396.258 139.535 396.084 139.535C395.914 139.535 395.763 139.576 395.631 139.657C395.503 139.733 395.401 139.842 395.324 139.982C395.252 140.123 395.216 140.284 395.216 140.467C395.216 140.65 395.252 140.812 395.324 140.952C395.401 141.093 395.503 141.204 395.631 141.284C395.763 141.361 395.914 141.399 396.084 141.399ZM397.609 141.999H396.907V141.176L397.029 140.429L396.907 139.689V137.403H397.609V141.999ZM399.672 142.063C399.395 142.063 399.144 141.993 398.919 141.852C398.697 141.712 398.521 141.523 398.389 141.284C398.261 141.042 398.197 140.772 398.197 140.474C398.197 140.172 398.261 139.901 398.389 139.663C398.521 139.42 398.697 139.229 398.919 139.089C399.144 138.944 399.395 138.872 399.672 138.872C399.906 138.872 400.112 138.923 400.291 139.025C400.474 139.123 400.619 139.259 400.725 139.433C400.831 139.608 400.885 139.806 400.885 140.027V140.908C400.885 141.129 400.831 141.327 400.725 141.501C400.623 141.676 400.48 141.814 400.297 141.916C400.114 142.014 399.906 142.063 399.672 142.063ZM399.787 141.399C400.046 141.399 400.255 141.312 400.412 141.138C400.574 140.963 400.655 140.74 400.655 140.467C400.655 140.284 400.619 140.123 400.546 139.982C400.474 139.842 400.372 139.733 400.24 139.657C400.112 139.576 399.961 139.535 399.787 139.535C399.616 139.535 399.465 139.576 399.333 139.657C399.206 139.733 399.104 139.842 399.027 139.982C398.955 140.123 398.919 140.284 398.919 140.467C398.919 140.65 398.955 140.812 399.027 140.952C399.104 141.093 399.206 141.204 399.333 141.284C399.465 141.361 399.616 141.399 399.787 141.399ZM400.61 141.999V141.176L400.731 140.429L400.61 139.689V138.935H401.312V141.999H400.61ZM402.557 141.999V137.659H403.26V141.999H402.557ZM401.823 139.574V138.935H403.994V139.574H401.823ZM405.7 142.063C405.423 142.063 405.172 141.993 404.946 141.852C404.725 141.712 404.548 141.523 404.417 141.284C404.289 141.042 404.225 140.772 404.225 140.474C404.225 140.172 404.289 139.901 404.417 139.663C404.548 139.42 404.725 139.229 404.946 139.089C405.172 138.944 405.423 138.872 405.7 138.872C405.934 138.872 406.14 138.923 406.319 139.025C406.502 139.123 406.646 139.259 406.753 139.433C406.859 139.608 406.912 139.806 406.912 140.027V140.908C406.912 141.129 406.859 141.327 406.753 141.501C406.651 141.676 406.508 141.814 406.325 141.916C406.142 142.014 405.934 142.063 405.7 142.063ZM405.814 141.399C406.074 141.399 406.283 141.312 406.44 141.138C406.602 140.963 406.683 140.74 406.683 140.467C406.683 140.284 406.646 140.123 406.574 139.982C406.502 139.842 406.4 139.733 406.268 139.657C406.14 139.576 405.989 139.535 405.814 139.535C405.644 139.535 405.493 139.576 405.361 139.657C405.234 139.733 405.131 139.842 405.055 139.982C404.982 140.123 404.946 140.284 404.946 140.467C404.946 140.65 404.982 140.812 405.055 140.952C405.131 141.093 405.234 141.204 405.361 141.284C405.493 141.361 405.644 141.399 405.814 141.399ZM406.638 141.999V141.176L406.759 140.429L406.638 139.689V138.935H407.34V141.999H406.638ZM409.397 141.999V137.403H410.099V141.999H409.397ZM412.285 142.063C411.987 142.063 411.717 141.993 411.474 141.852C411.232 141.708 411.038 141.514 410.893 141.272C410.753 141.029 410.683 140.759 410.683 140.461C410.683 140.163 410.753 139.895 410.893 139.657C411.038 139.418 411.232 139.229 411.474 139.089C411.717 138.944 411.987 138.872 412.285 138.872C412.587 138.872 412.859 138.942 413.102 139.082C413.345 139.223 413.536 139.414 413.676 139.657C413.821 139.895 413.893 140.163 413.893 140.461C413.893 140.759 413.821 141.029 413.676 141.272C413.536 141.514 413.345 141.708 413.102 141.852C412.859 141.993 412.587 142.063 412.285 142.063ZM412.285 141.386C412.459 141.386 412.613 141.348 412.745 141.272C412.881 141.191 412.985 141.08 413.057 140.94C413.134 140.799 413.172 140.64 413.172 140.461C413.172 140.282 413.134 140.125 413.057 139.989C412.981 139.852 412.876 139.746 412.745 139.669C412.613 139.589 412.459 139.548 412.285 139.548C412.115 139.548 411.962 139.589 411.825 139.669C411.693 139.746 411.589 139.852 411.513 139.989C411.44 140.125 411.404 140.282 411.404 140.461C411.404 140.64 411.44 140.799 411.513 140.94C411.589 141.08 411.693 141.191 411.825 141.272C411.962 141.348 412.115 141.386 412.285 141.386ZM415.48 142.063C415.309 142.063 415.145 142.042 414.988 141.999C414.831 141.952 414.686 141.889 414.554 141.808C414.422 141.723 414.307 141.621 414.209 141.501L414.656 141.055C414.762 141.178 414.884 141.272 415.02 141.335C415.16 141.395 415.318 141.425 415.492 141.425C415.65 141.425 415.769 141.401 415.85 141.355C415.931 141.308 415.971 141.24 415.971 141.15C415.971 141.057 415.933 140.984 415.856 140.933C415.78 140.882 415.68 140.84 415.556 140.806C415.437 140.767 415.309 140.729 415.173 140.691C415.041 140.652 414.914 140.601 414.79 140.538C414.671 140.469 414.573 140.378 414.497 140.263C414.42 140.148 414.382 139.999 414.382 139.816C414.382 139.62 414.426 139.452 414.516 139.312C414.609 139.172 414.739 139.063 414.905 138.986C415.075 138.91 415.277 138.872 415.511 138.872C415.758 138.872 415.975 138.916 416.163 139.006C416.354 139.091 416.514 139.22 416.641 139.395L416.194 139.842C416.105 139.731 416.003 139.648 415.888 139.593C415.773 139.538 415.641 139.51 415.492 139.51C415.352 139.51 415.243 139.531 415.167 139.574C415.09 139.616 415.052 139.678 415.052 139.759C415.052 139.844 415.09 139.91 415.167 139.957C415.243 140.003 415.341 140.044 415.46 140.078C415.584 140.112 415.711 140.15 415.843 140.193C415.98 140.231 416.107 140.286 416.226 140.359C416.35 140.427 416.45 140.521 416.526 140.64C416.603 140.755 416.641 140.906 416.641 141.093C416.641 141.391 416.537 141.627 416.328 141.801C416.12 141.976 415.837 142.063 415.48 142.063ZM418.222 142.063C418.052 142.063 417.888 142.042 417.731 141.999C417.573 141.952 417.429 141.889 417.297 141.808C417.165 141.723 417.05 141.621 416.952 141.501L417.399 141.055C417.505 141.178 417.627 141.272 417.763 141.335C417.903 141.395 418.061 141.425 418.235 141.425C418.392 141.425 418.512 141.401 418.592 141.355C418.673 141.308 418.714 141.24 418.714 141.15C418.714 141.057 418.675 140.984 418.599 140.933C418.522 140.882 418.422 140.84 418.299 140.806C418.18 140.767 418.052 140.729 417.916 140.691C417.784 140.652 417.656 140.601 417.533 140.538C417.414 140.469 417.316 140.378 417.239 140.263C417.163 140.148 417.124 139.999 417.124 139.816C417.124 139.62 417.169 139.452 417.258 139.312C417.352 139.172 417.482 139.063 417.648 138.986C417.818 138.91 418.02 138.872 418.254 138.872C418.501 138.872 418.718 138.916 418.905 139.006C419.097 139.091 419.256 139.22 419.384 139.395L418.937 139.842C418.848 139.731 418.746 139.648 418.631 139.593C418.516 139.538 418.384 139.51 418.235 139.51C418.095 139.51 417.986 139.531 417.909 139.574C417.833 139.616 417.795 139.678 417.795 139.759C417.795 139.844 417.833 139.91 417.909 139.957C417.986 140.003 418.084 140.044 418.203 140.078C418.327 140.112 418.454 140.15 418.586 140.193C418.722 140.231 418.85 140.286 418.969 140.359C419.092 140.427 419.192 140.521 419.269 140.64C419.346 140.755 419.384 140.906 419.384 141.093C419.384 141.391 419.28 141.627 419.071 141.801C418.863 141.976 418.58 142.063 418.222 142.063ZM421.241 141.999V137.403H421.943V141.999H421.241ZM424.007 142.063C423.731 142.063 423.48 141.993 423.254 141.852C423.033 141.712 422.856 141.523 422.724 141.284C422.597 141.042 422.533 140.772 422.533 140.474C422.533 140.172 422.597 139.901 422.724 139.663C422.856 139.42 423.033 139.229 423.254 139.089C423.48 138.944 423.731 138.872 424.007 138.872C424.241 138.872 424.448 138.923 424.626 139.025C424.809 139.123 424.954 139.259 425.061 139.433C425.167 139.608 425.22 139.806 425.22 140.027V140.908C425.22 141.129 425.167 141.327 425.061 141.501C424.958 141.676 424.816 141.814 424.633 141.916C424.45 142.014 424.241 142.063 424.007 142.063ZM424.122 141.399C424.382 141.399 424.59 141.312 424.748 141.138C424.909 140.963 424.99 140.74 424.99 140.467C424.99 140.284 424.954 140.123 424.882 139.982C424.809 139.842 424.707 139.733 424.575 139.657C424.448 139.576 424.297 139.535 424.122 139.535C423.952 139.535 423.801 139.576 423.669 139.657C423.541 139.733 423.439 139.842 423.363 139.982C423.29 140.123 423.254 140.284 423.254 140.467C423.254 140.65 423.29 140.812 423.363 140.952C423.439 141.093 423.541 141.204 423.669 141.284C423.801 141.361 423.952 141.399 424.122 141.399ZM424.946 141.999V141.176L425.067 140.429L424.946 139.689V138.935H425.648V141.999H424.946ZM426.893 141.999V137.659H427.595V141.999H426.893ZM426.159 139.574V138.935H428.329V139.574H426.159ZM430.176 142.063C429.869 142.063 429.593 141.995 429.346 141.859C429.103 141.718 428.91 141.527 428.765 141.284C428.624 141.042 428.554 140.769 428.554 140.467C428.554 140.165 428.624 139.895 428.765 139.657C428.905 139.414 429.095 139.223 429.333 139.082C429.576 138.942 429.844 138.872 430.137 138.872C430.422 138.872 430.673 138.938 430.89 139.069C431.112 139.201 431.284 139.382 431.407 139.612C431.535 139.842 431.599 140.103 431.599 140.397C431.599 140.448 431.595 140.501 431.586 140.557C431.582 140.608 431.573 140.665 431.561 140.729H429.046V140.155H431.197L430.935 140.384C430.927 140.197 430.89 140.04 430.827 139.912C430.763 139.784 430.671 139.686 430.552 139.618C430.437 139.55 430.295 139.516 430.124 139.516C429.946 139.516 429.79 139.555 429.659 139.631C429.527 139.708 429.424 139.816 429.352 139.957C429.28 140.093 429.244 140.257 429.244 140.448C429.244 140.64 429.282 140.808 429.358 140.952C429.435 141.097 429.544 141.21 429.684 141.291C429.824 141.367 429.986 141.406 430.169 141.406C430.327 141.406 430.471 141.378 430.603 141.323C430.739 141.267 430.854 141.186 430.948 141.08L431.395 141.533C431.246 141.708 431.065 141.84 430.852 141.929C430.639 142.018 430.414 142.063 430.176 142.063ZM432.162 141.999V138.935H432.864V141.999H432.162ZM432.864 140.295L432.621 140.174C432.621 139.786 432.706 139.474 432.877 139.235C433.051 138.993 433.313 138.872 433.662 138.872C433.815 138.872 433.953 138.899 434.077 138.955C434.2 139.01 434.315 139.099 434.421 139.223L433.962 139.695C433.907 139.635 433.845 139.593 433.777 139.567C433.709 139.542 433.63 139.529 433.541 139.529C433.345 139.529 433.183 139.591 433.055 139.714C432.928 139.838 432.864 140.031 432.864 140.295ZM437.556 142.063C437.258 142.063 436.987 141.993 436.745 141.852C436.502 141.708 436.309 141.514 436.164 141.272C436.024 141.029 435.953 140.759 435.953 140.461C435.953 140.163 436.024 139.895 436.164 139.657C436.309 139.418 436.502 139.229 436.745 139.089C436.987 138.944 437.258 138.872 437.556 138.872C437.858 138.872 438.13 138.942 438.373 139.082C438.615 139.223 438.807 139.414 438.947 139.657C439.092 139.895 439.164 140.163 439.164 140.461C439.164 140.759 439.092 141.029 438.947 141.272C438.807 141.514 438.615 141.708 438.373 141.852C438.13 141.993 437.858 142.063 437.556 142.063ZM437.556 141.386C437.73 141.386 437.883 141.348 438.015 141.272C438.151 141.191 438.256 141.08 438.328 140.94C438.404 140.799 438.443 140.64 438.443 140.461C438.443 140.282 438.404 140.125 438.328 139.989C438.251 139.852 438.147 139.746 438.015 139.669C437.883 139.589 437.73 139.548 437.556 139.548C437.385 139.548 437.232 139.589 437.096 139.669C436.964 139.746 436.86 139.852 436.783 139.989C436.711 140.125 436.675 140.282 436.675 140.461C436.675 140.64 436.711 140.799 436.783 140.94C436.86 141.08 436.964 141.191 437.096 141.272C437.232 141.348 437.385 141.386 437.556 141.386ZM441.848 141.999V140.231C441.848 140.027 441.782 139.859 441.65 139.727C441.522 139.595 441.357 139.529 441.152 139.529C441.016 139.529 440.895 139.559 440.788 139.618C440.682 139.678 440.599 139.761 440.539 139.867C440.48 139.974 440.45 140.095 440.45 140.231L440.176 140.078C440.176 139.844 440.227 139.638 440.329 139.459C440.431 139.276 440.571 139.133 440.75 139.031C440.933 138.925 441.137 138.872 441.363 138.872C441.593 138.872 441.797 138.931 441.976 139.05C442.154 139.165 442.295 139.316 442.397 139.503C442.499 139.686 442.55 139.878 442.55 140.078V141.999H441.848ZM439.748 141.999V138.935H440.45V141.999H439.748ZM443.8 142.063C443.664 142.063 443.551 142.018 443.462 141.929C443.376 141.835 443.334 141.723 443.334 141.591C443.334 141.455 443.376 141.342 443.462 141.252C443.551 141.163 443.664 141.118 443.8 141.118C443.936 141.118 444.047 141.163 444.132 141.252C444.221 141.342 444.266 141.455 444.266 141.591C444.266 141.723 444.221 141.835 444.132 141.929C444.047 142.018 443.936 142.063 443.8 142.063Z" fill="#2A2C35"/>
<path d="M617.432 141.583C617.488 141.639 617.52 141.715 617.52 141.795C617.52 141.874 617.488 141.951 617.432 142.007C617.376 142.063 617.3 142.095 617.22 142.095C617.141 142.095 617.065 142.063 617.008 142.007L615.425 140.423L613.842 142.006C613.786 142.062 613.709 142.094 613.63 142.094C613.55 142.094 613.474 142.062 613.418 142.006C613.362 141.95 613.33 141.874 613.33 141.794C613.33 141.715 613.362 141.639 613.418 141.582L615.001 139.999L613.418 138.416C613.362 138.36 613.331 138.283 613.331 138.204C613.331 138.124 613.362 138.048 613.418 137.992C613.475 137.936 613.551 137.904 613.63 137.904C613.71 137.904 613.786 137.936 613.842 137.992L615.425 139.575L617.009 137.992C617.065 137.935 617.141 137.904 617.221 137.904C617.3 137.904 617.377 137.935 617.433 137.992C617.489 138.048 617.521 138.124 617.521 138.204C617.521 138.283 617.489 138.359 617.433 138.415L615.849 139.999L617.432 141.583Z" fill="#2A2C35"/>
</g>
<defs>
<clipPath id="clip0_5198_31319">
<path d="M58.25 108.285C58.25 104.255 61.5174 100.988 65.5479 100.988H617.452C621.483 100.988 624.75 104.255 624.75 108.285V311.715C624.75 315.745 621.483 319.013 617.452 319.013H65.5479C61.5174 319.013 58.25 315.745 58.25 311.715V108.285Z" fill="white"/>
</clipPath>
</defs>
</svg>
