<svg width="683" height="420" viewBox="0 0 683 420" fill="none" xmlns="http://www.w3.org/2000/svg">
<rect width="683" height="420" fill="#F6F6F8"/>
<g clip-path="url(#clip0_5198_31333)">
<path d="M58.25 108.285C58.25 104.255 61.5174 100.988 65.5479 100.988H617.452C621.483 100.988 624.75 104.255 624.75 108.285V311.715C624.75 315.745 621.483 319.013 617.452 319.013H65.5479C61.5174 319.013 58.25 315.745 58.25 311.715V108.285Z" fill="white"/>
<rect x="58.25" y="94.6028" width="566.5" height="35.4062" fill="#F1F2F4"/>
<path d="M73.5938 148.955C73.5938 146.604 75.4996 144.698 77.8505 144.698H169.37C171.721 144.698 173.627 146.604 173.627 148.955V320.821C173.627 323.172 171.721 325.078 169.37 325.078H77.8505C75.4996 325.078 73.5938 323.172 73.5938 320.821V148.955Z" fill="#F1F2F4"/>
<path d="M182.764 148.955C182.764 146.604 184.67 144.698 187.021 144.698H604.448C606.799 144.698 608.704 146.604 608.704 148.955V320.555C608.704 322.906 606.798 324.812 604.448 324.812H187.021C184.67 324.812 182.764 322.906 182.764 320.555V148.955Z" fill="#F1F2F4"/>
<path d="M198.722 186.726C198.722 185.55 199.675 184.597 200.85 184.597H334.671C335.847 184.597 336.8 185.55 336.8 186.726V200.56C336.8 201.736 335.847 202.689 334.671 202.689H200.85C199.675 202.689 198.722 201.736 198.722 200.56V186.726Z" fill="white"/>
<path d="M198.678 221.203C198.678 220.028 199.631 219.075 200.807 219.075H390.835C392.011 219.075 392.964 220.028 392.964 221.203V246.069C392.964 247.245 392.011 248.198 390.835 248.198H200.807C199.631 248.198 198.678 247.245 198.678 246.069V221.203Z" fill="white"/>
<path d="M198.678 259.103C198.678 257.928 199.631 256.975 200.807 256.975H390.835C392.011 256.975 392.964 257.928 392.964 259.103V283.969C392.964 285.145 392.011 286.097 390.835 286.097H200.807C199.631 286.097 198.678 285.145 198.678 283.969V259.103Z" fill="white"/>
<path d="M198.678 297.003C198.678 295.827 199.631 294.874 200.807 294.874H390.835C392.011 294.874 392.964 295.827 392.964 297.003V321.869C392.964 323.044 392.011 323.997 390.835 323.997H200.807C199.631 323.997 198.678 323.044 198.678 321.869V297.003Z" fill="white"/>
<path d="M405.73 221.203C405.73 220.028 406.683 219.075 407.858 219.075H590.706C591.882 219.075 592.835 220.028 592.835 221.203V349.396C592.835 350.571 591.882 351.524 590.706 351.524H407.858C406.683 351.524 405.73 350.571 405.73 349.396V221.203Z" fill="white"/>
<path d="M208.574 155.198H511.426C513.688 155.198 515.364 155.199 516.651 155.372C517.933 155.545 518.799 155.884 519.457 156.542C520.115 157.2 520.455 158.066 520.627 159.348C520.8 160.635 520.801 162.312 520.801 164.573C520.801 166.836 520.8 168.513 520.627 169.8C520.465 171.002 520.156 171.838 519.576 172.48L519.457 172.606C518.799 173.264 517.933 173.603 516.651 173.776C515.364 173.949 513.688 173.949 511.426 173.949H208.574C206.312 173.949 204.636 173.949 203.349 173.776C202.147 173.614 201.311 173.305 200.669 172.725L200.543 172.606L200.424 172.48C199.844 171.838 199.535 171.002 199.373 169.8C199.2 168.513 199.199 166.836 199.199 164.573C199.199 162.312 199.2 160.635 199.373 159.348C199.545 158.066 199.885 157.2 200.543 156.542C201.201 155.884 202.067 155.545 203.349 155.372C204.636 155.199 206.312 155.198 208.574 155.198Z" fill="#FBF4EC"/>
<path d="M208.574 155.198H511.426C513.688 155.198 515.364 155.199 516.651 155.372C517.933 155.545 518.799 155.884 519.457 156.542C520.115 157.2 520.455 158.066 520.627 159.348C520.8 160.635 520.801 162.312 520.801 164.573C520.801 166.836 520.8 168.513 520.627 169.8C520.465 171.002 520.156 171.838 519.576 172.48L519.457 172.606C518.799 173.264 517.933 173.603 516.651 173.776C515.364 173.949 513.688 173.949 511.426 173.949H208.574C206.312 173.949 204.636 173.949 203.349 173.776C202.147 173.614 201.311 173.305 200.669 172.725L200.543 172.606L200.424 172.48C199.844 171.838 199.535 171.002 199.373 169.8C199.2 168.513 199.199 166.836 199.199 164.573C199.199 162.312 199.2 160.635 199.373 159.348C199.545 158.066 199.885 157.2 200.543 156.542C201.201 155.884 202.067 155.545 203.349 155.372C204.636 155.199 206.312 155.198 208.574 155.198Z" stroke="#D99048" stroke-width="0.398944"/>
<path d="M219.783 166.574L218.315 162.106H219.037L220.141 165.546H219.949L221.028 162.106H221.539L222.618 165.546H222.426L223.53 162.106H224.252L222.784 166.574H222.273L221.188 163.14H221.379L220.294 166.574H219.783ZM225.784 166.638C225.478 166.638 225.201 166.57 224.954 166.434C224.712 166.293 224.518 166.102 224.374 165.859C224.233 165.617 224.163 165.344 224.163 165.042C224.163 164.74 224.233 164.47 224.374 164.231C224.514 163.989 224.703 163.797 224.942 163.657C225.184 163.516 225.452 163.446 225.746 163.446C226.031 163.446 226.282 163.512 226.499 163.644C226.72 163.776 226.893 163.957 227.016 164.187C227.144 164.416 227.208 164.678 227.208 164.972C227.208 165.023 227.203 165.076 227.195 165.131C227.191 165.182 227.182 165.24 227.169 165.304H224.654V164.729H226.806L226.544 164.959C226.535 164.772 226.499 164.614 226.435 164.487C226.372 164.359 226.28 164.261 226.161 164.193C226.046 164.125 225.903 164.091 225.733 164.091C225.555 164.091 225.399 164.129 225.267 164.206C225.135 164.282 225.033 164.391 224.961 164.531C224.889 164.668 224.852 164.831 224.852 165.023C224.852 165.214 224.891 165.382 224.967 165.527C225.044 165.672 225.152 165.785 225.293 165.865C225.433 165.942 225.595 165.98 225.778 165.98C225.935 165.98 226.08 165.953 226.212 165.897C226.348 165.842 226.463 165.761 226.557 165.655L227.003 166.108C226.855 166.282 226.674 166.414 226.461 166.504C226.248 166.593 226.023 166.638 225.784 166.638ZM227.771 166.574V161.978H228.473V166.574H227.771ZM230.665 166.638C230.363 166.638 230.088 166.568 229.841 166.427C229.599 166.287 229.407 166.095 229.267 165.853C229.126 165.61 229.056 165.34 229.056 165.042C229.056 164.74 229.126 164.47 229.267 164.231C229.407 163.989 229.599 163.797 229.841 163.657C230.088 163.516 230.363 163.446 230.665 163.446C230.903 163.446 231.124 163.493 231.329 163.587C231.537 163.676 231.714 163.806 231.858 163.976L231.399 164.442C231.31 164.336 231.201 164.257 231.073 164.206C230.95 164.151 230.814 164.123 230.665 164.123C230.49 164.123 230.335 164.163 230.199 164.244C230.067 164.321 229.963 164.427 229.886 164.563C229.814 164.699 229.778 164.859 229.778 165.042C229.778 165.221 229.814 165.38 229.886 165.521C229.963 165.657 230.067 165.765 230.199 165.846C230.335 165.923 230.49 165.961 230.665 165.961C230.814 165.961 230.95 165.936 231.073 165.885C231.201 165.829 231.31 165.748 231.399 165.642L231.858 166.108C231.714 166.278 231.537 166.41 231.329 166.504C231.124 166.593 230.903 166.638 230.665 166.638ZM233.707 166.638C233.409 166.638 233.139 166.568 232.896 166.427C232.653 166.282 232.46 166.089 232.315 165.846C232.175 165.604 232.104 165.334 232.104 165.036C232.104 164.738 232.175 164.47 232.315 164.231C232.46 163.993 232.653 163.804 232.896 163.663C233.139 163.519 233.409 163.446 233.707 163.446C234.009 163.446 234.281 163.516 234.524 163.657C234.766 163.797 234.958 163.989 235.098 164.231C235.243 164.47 235.315 164.738 235.315 165.036C235.315 165.334 235.243 165.604 235.098 165.846C234.958 166.089 234.766 166.282 234.524 166.427C234.281 166.568 234.009 166.638 233.707 166.638ZM233.707 165.961C233.881 165.961 234.034 165.923 234.166 165.846C234.302 165.765 234.407 165.655 234.479 165.514C234.556 165.374 234.594 165.214 234.594 165.036C234.594 164.857 234.556 164.699 234.479 164.563C234.402 164.427 234.298 164.321 234.166 164.244C234.034 164.163 233.881 164.123 233.707 164.123C233.536 164.123 233.383 164.163 233.247 164.244C233.115 164.321 233.011 164.427 232.934 164.563C232.862 164.699 232.826 164.857 232.826 165.036C232.826 165.214 232.862 165.374 232.934 165.514C233.011 165.655 233.115 165.765 233.247 165.846C233.383 165.923 233.536 165.961 233.707 165.961ZM235.899 166.574V163.51H236.601V166.574H235.899ZM237.935 166.574V164.748C237.935 164.544 237.871 164.387 237.744 164.276C237.616 164.161 237.459 164.104 237.271 164.104C237.144 164.104 237.029 164.129 236.927 164.18C236.829 164.231 236.75 164.306 236.691 164.404C236.631 164.497 236.601 164.612 236.601 164.748L236.327 164.595C236.327 164.361 236.378 164.159 236.48 163.989C236.582 163.819 236.72 163.687 236.895 163.593C237.069 163.495 237.265 163.446 237.482 163.446C237.699 163.446 237.895 163.493 238.069 163.587C238.244 163.68 238.382 163.812 238.484 163.982C238.586 164.153 238.637 164.357 238.637 164.595V166.574H237.935ZM239.971 166.574V164.748C239.971 164.544 239.908 164.387 239.78 164.276C239.652 164.161 239.495 164.104 239.308 164.104C239.184 164.104 239.071 164.129 238.969 164.18C238.867 164.231 238.786 164.306 238.727 164.404C238.667 164.497 238.637 164.612 238.637 164.748L238.242 164.595C238.263 164.361 238.331 164.159 238.446 163.989C238.561 163.819 238.708 163.687 238.886 163.593C239.069 163.495 239.269 163.446 239.486 163.446C239.708 163.446 239.908 163.493 240.086 163.587C240.265 163.68 240.408 163.812 240.514 163.982C240.62 164.153 240.674 164.357 240.674 164.595V166.574H239.971ZM242.82 166.638C242.514 166.638 242.237 166.57 241.991 166.434C241.748 166.293 241.554 166.102 241.41 165.859C241.269 165.617 241.199 165.344 241.199 165.042C241.199 164.74 241.269 164.47 241.41 164.231C241.55 163.989 241.74 163.797 241.978 163.657C242.22 163.516 242.489 163.446 242.782 163.446C243.067 163.446 243.318 163.512 243.535 163.644C243.757 163.776 243.929 163.957 244.052 164.187C244.18 164.416 244.244 164.678 244.244 164.972C244.244 165.023 244.24 165.076 244.231 165.131C244.227 165.182 244.218 165.24 244.206 165.304H241.691V164.729H243.842L243.58 164.959C243.572 164.772 243.535 164.614 243.472 164.487C243.408 164.359 243.316 164.261 243.197 164.193C243.082 164.125 242.94 164.091 242.769 164.091C242.591 164.091 242.435 164.129 242.303 164.206C242.171 164.282 242.069 164.391 241.997 164.531C241.925 164.668 241.889 164.831 241.889 165.023C241.889 165.214 241.927 165.382 242.003 165.527C242.08 165.672 242.189 165.785 242.329 165.865C242.469 165.942 242.631 165.98 242.814 165.98C242.972 165.98 243.116 165.953 243.248 165.897C243.384 165.842 243.499 165.761 243.593 165.655L244.04 166.108C243.891 166.282 243.71 166.414 243.497 166.504C243.284 166.593 243.059 166.638 242.82 166.638ZM246.551 166.574V162.233H247.253V166.574H246.551ZM245.817 164.148V163.51H247.987V164.148H245.817ZM249.814 166.638C249.516 166.638 249.246 166.568 249.003 166.427C248.761 166.282 248.567 166.089 248.422 165.846C248.282 165.604 248.212 165.334 248.212 165.036C248.212 164.738 248.282 164.47 248.422 164.231C248.567 163.993 248.761 163.804 249.003 163.663C249.246 163.519 249.516 163.446 249.814 163.446C250.116 163.446 250.388 163.516 250.631 163.657C250.874 163.797 251.065 163.989 251.205 164.231C251.35 164.47 251.423 164.738 251.423 165.036C251.423 165.334 251.35 165.604 251.205 165.846C251.065 166.089 250.874 166.282 250.631 166.427C250.388 166.568 250.116 166.638 249.814 166.638ZM249.814 165.961C249.988 165.961 250.142 165.923 250.274 165.846C250.41 165.765 250.514 165.655 250.586 165.514C250.663 165.374 250.701 165.214 250.701 165.036C250.701 164.857 250.663 164.699 250.586 164.563C250.51 164.427 250.405 164.321 250.274 164.244C250.142 164.163 249.988 164.123 249.814 164.123C249.644 164.123 249.491 164.163 249.354 164.244C249.222 164.321 249.118 164.427 249.042 164.563C248.969 164.699 248.933 164.857 248.933 165.036C248.933 165.214 248.969 165.374 249.042 165.514C249.118 165.655 249.222 165.765 249.354 165.846C249.491 165.923 249.644 165.961 249.814 165.961ZM254.274 166.606L252.965 163.51H253.737L254.631 165.782H254.408L255.352 163.51H256.131L254.708 166.606H254.274ZM253.361 167.851L254.312 165.891L254.708 166.606L254.14 167.851H253.361ZM257.836 166.638C257.539 166.638 257.268 166.568 257.026 166.427C256.783 166.282 256.59 166.089 256.445 165.846C256.305 165.604 256.234 165.334 256.234 165.036C256.234 164.738 256.305 164.47 256.445 164.231C256.59 163.993 256.783 163.804 257.026 163.663C257.268 163.519 257.539 163.446 257.836 163.446C258.139 163.446 258.411 163.516 258.654 163.657C258.896 163.797 259.088 163.989 259.228 164.231C259.373 164.47 259.445 164.738 259.445 165.036C259.445 165.334 259.373 165.604 259.228 165.846C259.088 166.089 258.896 166.282 258.654 166.427C258.411 166.568 258.139 166.638 257.836 166.638ZM257.836 165.961C258.011 165.961 258.164 165.923 258.296 165.846C258.432 165.765 258.536 165.655 258.609 165.514C258.685 165.374 258.724 165.214 258.724 165.036C258.724 164.857 258.685 164.699 258.609 164.563C258.532 164.427 258.428 164.321 258.296 164.244C258.164 164.163 258.011 164.123 257.836 164.123C257.666 164.123 257.513 164.163 257.377 164.244C257.245 164.321 257.141 164.427 257.064 164.563C256.992 164.699 256.956 164.857 256.956 165.036C256.956 165.214 256.992 165.374 257.064 165.514C257.141 165.655 257.245 165.765 257.377 165.846C257.513 165.923 257.666 165.961 257.836 165.961ZM261.286 166.638C261.027 166.638 260.795 166.58 260.591 166.465C260.391 166.351 260.233 166.193 260.118 165.993C260.008 165.789 259.952 165.555 259.952 165.291V163.51H260.654V165.259C260.654 165.408 260.678 165.536 260.725 165.642C260.776 165.744 260.848 165.823 260.942 165.878C261.04 165.934 261.154 165.961 261.286 165.961C261.491 165.961 261.646 165.902 261.752 165.782C261.863 165.659 261.918 165.485 261.918 165.259V163.51H262.62V165.291C262.62 165.559 262.563 165.795 262.448 165.999C262.337 166.199 262.182 166.357 261.982 166.472C261.782 166.582 261.55 166.638 261.286 166.638ZM263.326 166.574V163.51H264.029V166.574H263.326ZM264.029 164.87L263.786 164.748C263.786 164.361 263.871 164.048 264.041 163.81C264.216 163.568 264.478 163.446 264.826 163.446C264.98 163.446 265.118 163.474 265.241 163.529C265.365 163.585 265.48 163.674 265.586 163.797L265.126 164.27C265.071 164.21 265.009 164.168 264.941 164.142C264.873 164.116 264.795 164.104 264.705 164.104C264.509 164.104 264.348 164.165 264.22 164.289C264.092 164.412 264.029 164.606 264.029 164.87ZM268.599 166.638C268.322 166.638 268.071 166.568 267.846 166.427C267.624 166.287 267.448 166.097 267.316 165.859C267.188 165.617 267.124 165.346 267.124 165.048C267.124 164.746 267.188 164.476 267.316 164.238C267.448 163.995 267.624 163.804 267.846 163.663C268.071 163.519 268.322 163.446 268.599 163.446C268.833 163.446 269.039 163.497 269.218 163.599C269.401 163.697 269.546 163.833 269.652 164.008C269.758 164.182 269.812 164.38 269.812 164.602V165.482C269.812 165.704 269.758 165.902 269.652 166.076C269.55 166.251 269.407 166.389 269.224 166.491C269.041 166.589 268.833 166.638 268.599 166.638ZM268.714 165.974C268.973 165.974 269.182 165.887 269.339 165.712C269.501 165.538 269.582 165.314 269.582 165.042C269.582 164.859 269.546 164.697 269.473 164.557C269.401 164.416 269.299 164.308 269.167 164.231C269.039 164.151 268.888 164.11 268.714 164.11C268.544 164.11 268.392 164.151 268.261 164.231C268.133 164.308 268.031 164.416 267.954 164.557C267.882 164.697 267.846 164.859 267.846 165.042C267.846 165.225 267.882 165.387 267.954 165.527C268.031 165.668 268.133 165.778 268.261 165.859C268.392 165.936 268.544 165.974 268.714 165.974ZM269.537 166.574V165.751L269.658 165.004L269.537 164.263V163.51H270.239V166.574H269.537ZM272.429 166.638C272.127 166.638 271.853 166.568 271.606 166.427C271.363 166.287 271.172 166.095 271.031 165.853C270.891 165.61 270.821 165.34 270.821 165.042C270.821 164.74 270.891 164.47 271.031 164.231C271.172 163.989 271.363 163.797 271.606 163.657C271.853 163.516 272.127 163.446 272.429 163.446C272.668 163.446 272.889 163.493 273.093 163.587C273.302 163.676 273.478 163.806 273.623 163.976L273.163 164.442C273.074 164.336 272.965 164.257 272.838 164.206C272.714 164.151 272.578 164.123 272.429 164.123C272.255 164.123 272.099 164.163 271.963 164.244C271.831 164.321 271.727 164.427 271.651 164.563C271.578 164.699 271.542 164.859 271.542 165.042C271.542 165.221 271.578 165.38 271.651 165.521C271.727 165.657 271.831 165.765 271.963 165.846C272.099 165.923 272.255 165.961 272.429 165.961C272.578 165.961 272.714 165.936 272.838 165.885C272.965 165.829 273.074 165.748 273.163 165.642L273.623 166.108C273.478 166.278 273.302 166.41 273.093 166.504C272.889 166.593 272.668 166.638 272.429 166.638ZM275.477 166.638C275.175 166.638 274.901 166.568 274.654 166.427C274.411 166.287 274.22 166.095 274.08 165.853C273.939 165.61 273.869 165.34 273.869 165.042C273.869 164.74 273.939 164.47 274.08 164.231C274.22 163.989 274.411 163.797 274.654 163.657C274.901 163.516 275.175 163.446 275.477 163.446C275.716 163.446 275.937 163.493 276.141 163.587C276.35 163.676 276.526 163.806 276.671 163.976L276.211 164.442C276.122 164.336 276.014 164.257 275.886 164.206C275.763 164.151 275.626 164.123 275.477 164.123C275.303 164.123 275.148 164.163 275.011 164.244C274.88 164.321 274.775 164.427 274.699 164.563C274.626 164.699 274.59 164.859 274.59 165.042C274.59 165.221 274.626 165.38 274.699 165.521C274.775 165.657 274.88 165.765 275.011 165.846C275.148 165.923 275.303 165.961 275.477 165.961C275.626 165.961 275.763 165.936 275.886 165.885C276.014 165.829 276.122 165.748 276.211 165.642L276.671 166.108C276.526 166.278 276.35 166.41 276.141 166.504C275.937 166.593 275.716 166.638 275.477 166.638ZM278.519 166.638C278.221 166.638 277.951 166.568 277.709 166.427C277.466 166.282 277.272 166.089 277.128 165.846C276.987 165.604 276.917 165.334 276.917 165.036C276.917 164.738 276.987 164.47 277.128 164.231C277.272 163.993 277.466 163.804 277.709 163.663C277.951 163.519 278.221 163.446 278.519 163.446C278.821 163.446 279.094 163.516 279.336 163.657C279.579 163.797 279.77 163.989 279.911 164.231C280.055 164.47 280.128 164.738 280.128 165.036C280.128 165.334 280.055 165.604 279.911 165.846C279.77 166.089 279.579 166.282 279.336 166.427C279.094 166.568 278.821 166.638 278.519 166.638ZM278.519 165.961C278.694 165.961 278.847 165.923 278.979 165.846C279.115 165.765 279.219 165.655 279.292 165.514C279.368 165.374 279.406 165.214 279.406 165.036C279.406 164.857 279.368 164.699 279.292 164.563C279.215 164.427 279.111 164.321 278.979 164.244C278.847 164.163 278.694 164.123 278.519 164.123C278.349 164.123 278.196 164.163 278.06 164.244C277.928 164.321 277.823 164.427 277.747 164.563C277.675 164.699 277.638 164.857 277.638 165.036C277.638 165.214 277.675 165.374 277.747 165.514C277.823 165.655 277.928 165.765 278.06 165.846C278.196 165.923 278.349 165.961 278.519 165.961ZM281.969 166.638C281.71 166.638 281.478 166.58 281.273 166.465C281.073 166.351 280.916 166.193 280.801 165.993C280.69 165.789 280.635 165.555 280.635 165.291V163.51H281.337V165.259C281.337 165.408 281.361 165.536 281.407 165.642C281.458 165.744 281.531 165.823 281.624 165.878C281.722 165.934 281.837 165.961 281.969 165.961C282.173 165.961 282.329 165.902 282.435 165.782C282.546 165.659 282.601 165.485 282.601 165.259V163.51H283.303V165.291C283.303 165.559 283.246 165.795 283.131 165.999C283.02 166.199 282.865 166.357 282.665 166.472C282.465 166.582 282.233 166.638 281.969 166.638ZM286.109 166.574V164.806C286.109 164.602 286.043 164.434 285.911 164.302C285.784 164.17 285.618 164.104 285.413 164.104C285.277 164.104 285.156 164.134 285.05 164.193C284.943 164.253 284.86 164.336 284.801 164.442C284.741 164.548 284.711 164.67 284.711 164.806L284.437 164.653C284.437 164.419 284.488 164.212 284.59 164.034C284.692 163.851 284.833 163.708 285.011 163.606C285.194 163.499 285.399 163.446 285.624 163.446C285.854 163.446 286.058 163.506 286.237 163.625C286.416 163.74 286.556 163.891 286.658 164.078C286.76 164.261 286.811 164.453 286.811 164.653V166.574H286.109ZM284.009 166.574V163.51H284.711V166.574H284.009ZM287.953 166.574V162.233H288.656V166.574H287.953ZM287.219 164.148V163.51H289.39V164.148H287.219ZM291.778 166.574V165.904H292.952C293.259 165.904 293.527 165.838 293.756 165.706C293.991 165.574 294.171 165.391 294.299 165.157C294.431 164.919 294.497 164.644 294.497 164.334C294.497 164.027 294.431 163.757 294.299 163.523C294.167 163.289 293.984 163.106 293.75 162.974C293.52 162.842 293.254 162.776 292.952 162.776H291.778V162.106H292.971C293.295 162.106 293.595 162.163 293.871 162.278C294.148 162.389 294.388 162.546 294.593 162.75C294.801 162.951 294.963 163.187 295.078 163.459C295.193 163.727 295.25 164.021 295.25 164.34C295.25 164.655 295.193 164.948 295.078 165.221C294.963 165.493 294.803 165.731 294.599 165.936C294.395 166.136 294.154 166.293 293.878 166.408C293.601 166.519 293.303 166.574 292.984 166.574H291.778ZM291.273 166.574V162.106H292.008V166.574H291.273ZM297.186 166.638C296.909 166.638 296.658 166.568 296.432 166.427C296.211 166.287 296.035 166.097 295.903 165.859C295.775 165.617 295.711 165.346 295.711 165.048C295.711 164.746 295.775 164.476 295.903 164.238C296.035 163.995 296.211 163.804 296.432 163.663C296.658 163.519 296.909 163.446 297.186 163.446C297.42 163.446 297.626 163.497 297.805 163.599C297.988 163.697 298.133 163.833 298.239 164.008C298.345 164.182 298.398 164.38 298.398 164.602V165.482C298.398 165.704 298.345 165.902 298.239 166.076C298.137 166.251 297.994 166.389 297.811 166.491C297.628 166.589 297.42 166.638 297.186 166.638ZM297.301 165.974C297.56 165.974 297.769 165.887 297.926 165.712C298.088 165.538 298.169 165.314 298.169 165.042C298.169 164.859 298.133 164.697 298.06 164.557C297.988 164.416 297.886 164.308 297.754 164.231C297.626 164.151 297.475 164.11 297.301 164.11C297.13 164.11 296.979 164.151 296.847 164.231C296.72 164.308 296.618 164.416 296.541 164.557C296.469 164.697 296.432 164.859 296.432 165.042C296.432 165.225 296.469 165.387 296.541 165.527C296.618 165.668 296.72 165.778 296.847 165.859C296.979 165.936 297.13 165.974 297.301 165.974ZM298.124 166.574V165.751L298.245 165.004L298.124 164.263V163.51H298.826V166.574H298.124ZM301.705 166.574V164.806C301.705 164.602 301.639 164.434 301.508 164.302C301.38 164.17 301.214 164.104 301.01 164.104C300.873 164.104 300.752 164.134 300.646 164.193C300.539 164.253 300.456 164.336 300.397 164.442C300.337 164.548 300.308 164.67 300.308 164.806L300.033 164.653C300.033 164.419 300.084 164.212 300.186 164.034C300.288 163.851 300.429 163.708 300.608 163.606C300.791 163.499 300.995 163.446 301.22 163.446C301.45 163.446 301.654 163.506 301.833 163.625C302.012 163.74 302.152 163.891 302.254 164.078C302.356 164.261 302.408 164.453 302.408 164.653V166.574H301.705ZM299.605 166.574V163.51H300.308V166.574H299.605ZM303.274 165.093L303.179 161.978H303.913L303.817 165.093H303.274ZM303.542 166.638C303.406 166.638 303.293 166.593 303.204 166.504C303.119 166.41 303.076 166.297 303.076 166.165C303.076 166.029 303.119 165.917 303.204 165.827C303.293 165.738 303.406 165.693 303.542 165.693C303.679 165.693 303.789 165.738 303.874 165.827C303.964 165.917 304.008 166.029 304.008 166.165C304.008 166.297 303.964 166.41 303.874 166.504C303.789 166.593 303.679 166.638 303.542 166.638ZM306.67 164.889V164.251H307.787C307.94 164.251 308.074 164.221 308.189 164.161C308.308 164.097 308.401 164.01 308.47 163.899C308.538 163.785 308.572 163.651 308.572 163.497C308.572 163.344 308.538 163.212 308.47 163.102C308.401 162.987 308.308 162.899 308.189 162.84C308.074 162.776 307.94 162.744 307.787 162.744H306.67V162.106H307.825C308.106 162.106 308.357 162.163 308.578 162.278C308.804 162.393 308.98 162.555 309.108 162.763C309.24 162.972 309.306 163.216 309.306 163.497C309.306 163.778 309.24 164.023 309.108 164.231C308.98 164.44 308.804 164.602 308.578 164.716C308.357 164.831 308.106 164.889 307.825 164.889H306.67ZM306.165 166.574V162.106H306.899V166.574H306.165ZM309.922 166.574V161.978H310.624V166.574H309.922ZM312.829 166.638C312.522 166.638 312.246 166.57 311.999 166.434C311.756 166.293 311.563 166.102 311.418 165.859C311.278 165.617 311.208 165.344 311.208 165.042C311.208 164.74 311.278 164.47 311.418 164.231C311.559 163.989 311.748 163.797 311.986 163.657C312.229 163.516 312.497 163.446 312.791 163.446C313.076 163.446 313.327 163.512 313.544 163.644C313.765 163.776 313.937 163.957 314.061 164.187C314.188 164.416 314.252 164.678 314.252 164.972C314.252 165.023 314.248 165.076 314.239 165.131C314.235 165.182 314.227 165.24 314.214 165.304H311.699V164.729H313.85L313.588 164.959C313.58 164.772 313.544 164.614 313.48 164.487C313.416 164.359 313.325 164.261 313.205 164.193C313.091 164.125 312.948 164.091 312.778 164.091C312.599 164.091 312.444 164.129 312.312 164.206C312.18 164.282 312.078 164.391 312.005 164.531C311.933 164.668 311.897 164.831 311.897 165.023C311.897 165.214 311.935 165.382 312.012 165.527C312.088 165.672 312.197 165.785 312.337 165.865C312.478 165.942 312.639 165.98 312.822 165.98C312.98 165.98 313.125 165.953 313.256 165.897C313.393 165.842 313.508 165.761 313.601 165.655L314.048 166.108C313.899 166.282 313.718 166.414 313.505 166.504C313.293 166.593 313.067 166.638 312.829 166.638ZM316.098 166.638C315.822 166.638 315.57 166.568 315.345 166.427C315.124 166.287 314.947 166.097 314.815 165.859C314.687 165.617 314.624 165.346 314.624 165.048C314.624 164.746 314.687 164.476 314.815 164.238C314.947 163.995 315.124 163.804 315.345 163.663C315.57 163.519 315.822 163.446 316.098 163.446C316.332 163.446 316.539 163.497 316.717 163.599C316.9 163.697 317.045 163.833 317.151 164.008C317.258 164.182 317.311 164.38 317.311 164.602V165.482C317.311 165.704 317.258 165.902 317.151 166.076C317.049 166.251 316.907 166.389 316.724 166.491C316.541 166.589 316.332 166.638 316.098 166.638ZM316.213 165.974C316.473 165.974 316.681 165.887 316.839 165.712C317 165.538 317.081 165.314 317.081 165.042C317.081 164.859 317.045 164.697 316.973 164.557C316.9 164.416 316.798 164.308 316.666 164.231C316.539 164.151 316.387 164.11 316.213 164.11C316.043 164.11 315.892 164.151 315.76 164.231C315.632 164.308 315.53 164.416 315.453 164.557C315.381 164.697 315.345 164.859 315.345 165.042C315.345 165.225 315.381 165.387 315.453 165.527C315.53 165.668 315.632 165.778 315.76 165.859C315.892 165.936 316.043 165.974 316.213 165.974ZM317.036 166.574V165.751L317.158 165.004L317.036 164.263V163.51H317.739V166.574H317.036ZM319.52 166.638C319.35 166.638 319.186 166.617 319.028 166.574C318.871 166.527 318.726 166.463 318.594 166.382C318.462 166.297 318.348 166.195 318.25 166.076L318.697 165.629C318.803 165.753 318.924 165.846 319.06 165.91C319.201 165.97 319.358 165.999 319.533 165.999C319.69 165.999 319.809 165.976 319.89 165.929C319.971 165.882 320.011 165.814 320.011 165.725C320.011 165.631 319.973 165.559 319.897 165.508C319.82 165.457 319.72 165.414 319.597 165.38C319.477 165.342 319.35 165.304 319.214 165.265C319.082 165.227 318.954 165.176 318.831 165.112C318.711 165.044 318.614 164.953 318.537 164.838C318.46 164.723 318.422 164.574 318.422 164.391C318.422 164.195 318.467 164.027 318.556 163.887C318.65 163.746 318.78 163.638 318.945 163.561C319.116 163.485 319.318 163.446 319.552 163.446C319.799 163.446 320.016 163.491 320.203 163.58C320.394 163.665 320.554 163.795 320.682 163.97L320.235 164.416C320.145 164.306 320.043 164.223 319.928 164.168C319.814 164.112 319.682 164.085 319.533 164.085C319.392 164.085 319.284 164.106 319.207 164.148C319.131 164.191 319.092 164.253 319.092 164.334C319.092 164.419 319.131 164.485 319.207 164.531C319.284 164.578 319.382 164.619 319.501 164.653C319.624 164.687 319.752 164.725 319.884 164.768C320.02 164.806 320.148 164.861 320.267 164.934C320.39 165.002 320.49 165.095 320.567 165.214C320.643 165.329 320.682 165.48 320.682 165.668C320.682 165.965 320.577 166.202 320.369 166.376C320.16 166.551 319.877 166.638 319.52 166.638ZM322.684 166.638C322.378 166.638 322.101 166.57 321.854 166.434C321.612 166.293 321.418 166.102 321.273 165.859C321.133 165.617 321.063 165.344 321.063 165.042C321.063 164.74 321.133 164.47 321.273 164.231C321.414 163.989 321.603 163.797 321.841 163.657C322.084 163.516 322.352 163.446 322.646 163.446C322.931 163.446 323.182 163.512 323.399 163.644C323.62 163.776 323.793 163.957 323.916 164.187C324.044 164.416 324.107 164.678 324.107 164.972C324.107 165.023 324.103 165.076 324.095 165.131C324.09 165.182 324.082 165.24 324.069 165.304H321.554V164.729H323.705L323.444 164.959C323.435 164.772 323.399 164.614 323.335 164.487C323.271 164.359 323.18 164.261 323.061 164.193C322.946 164.125 322.803 164.091 322.633 164.091C322.454 164.091 322.299 164.129 322.167 164.206C322.035 164.282 321.933 164.391 321.861 164.531C321.788 164.668 321.752 164.831 321.752 165.023C321.752 165.214 321.79 165.382 321.867 165.527C321.944 165.672 322.052 165.785 322.192 165.865C322.333 165.942 322.495 165.98 322.678 165.98C322.835 165.98 322.98 165.953 323.112 165.897C323.248 165.842 323.363 165.761 323.456 165.655L323.903 166.108C323.754 166.282 323.573 166.414 323.361 166.504C323.148 166.593 322.922 166.638 322.684 166.638ZM327.359 166.638C327.057 166.638 326.782 166.568 326.535 166.427C326.293 166.287 326.101 166.095 325.961 165.853C325.82 165.61 325.75 165.34 325.75 165.042C325.75 164.74 325.82 164.47 325.961 164.231C326.101 163.989 326.293 163.797 326.535 163.657C326.782 163.516 327.057 163.446 327.359 163.446C327.597 163.446 327.818 163.493 328.023 163.587C328.231 163.676 328.408 163.806 328.552 163.976L328.093 164.442C328.003 164.336 327.895 164.257 327.767 164.206C327.644 164.151 327.508 164.123 327.359 164.123C327.184 164.123 327.029 164.163 326.893 164.244C326.761 164.321 326.657 164.427 326.58 164.563C326.508 164.699 326.472 164.859 326.472 165.042C326.472 165.221 326.508 165.38 326.58 165.521C326.657 165.657 326.761 165.765 326.893 165.846C327.029 165.923 327.184 165.961 327.359 165.961C327.508 165.961 327.644 165.936 327.767 165.885C327.895 165.829 328.003 165.748 328.093 165.642L328.552 166.108C328.408 166.278 328.231 166.41 328.023 166.504C327.818 166.593 327.597 166.638 327.359 166.638ZM330.401 166.638C330.103 166.638 329.832 166.568 329.59 166.427C329.347 166.282 329.154 166.089 329.009 165.846C328.869 165.604 328.798 165.334 328.798 165.036C328.798 164.738 328.869 164.47 329.009 164.231C329.154 163.993 329.347 163.804 329.59 163.663C329.832 163.519 330.103 163.446 330.401 163.446C330.703 163.446 330.975 163.516 331.218 163.657C331.46 163.797 331.652 163.989 331.792 164.231C331.937 164.47 332.009 164.738 332.009 165.036C332.009 165.334 331.937 165.604 331.792 165.846C331.652 166.089 331.46 166.282 331.218 166.427C330.975 166.568 330.703 166.638 330.401 166.638ZM330.401 165.961C330.575 165.961 330.728 165.923 330.86 165.846C330.996 165.765 331.101 165.655 331.173 165.514C331.25 165.374 331.288 165.214 331.288 165.036C331.288 164.857 331.25 164.699 331.173 164.563C331.096 164.427 330.992 164.321 330.86 164.244C330.728 164.163 330.575 164.123 330.401 164.123C330.23 164.123 330.077 164.163 329.941 164.244C329.809 164.321 329.705 164.427 329.628 164.563C329.556 164.699 329.52 164.857 329.52 165.036C329.52 165.214 329.556 165.374 329.628 165.514C329.705 165.655 329.809 165.765 329.941 165.846C330.077 165.923 330.23 165.961 330.401 165.961ZM334.693 166.574V164.806C334.693 164.602 334.627 164.434 334.495 164.302C334.368 164.17 334.202 164.104 333.997 164.104C333.861 164.104 333.74 164.134 333.633 164.193C333.527 164.253 333.444 164.336 333.385 164.442C333.325 164.548 333.295 164.67 333.295 164.806L333.021 164.653C333.021 164.419 333.072 164.212 333.174 164.034C333.276 163.851 333.416 163.708 333.595 163.606C333.778 163.499 333.982 163.446 334.208 163.446C334.438 163.446 334.642 163.506 334.821 163.625C334.999 163.74 335.14 163.891 335.242 164.078C335.344 164.261 335.395 164.453 335.395 164.653V166.574H334.693ZM332.593 166.574V163.51H333.295V166.574H332.593ZM336.493 166.574V162.98C336.493 162.776 336.537 162.595 336.627 162.438C336.72 162.276 336.848 162.148 337.01 162.055C337.171 161.961 337.361 161.914 337.578 161.914C337.739 161.914 337.88 161.942 337.999 161.997C338.122 162.048 338.237 162.123 338.344 162.221L337.884 162.68C337.842 162.646 337.795 162.621 337.744 162.604C337.697 162.582 337.642 162.572 337.578 162.572C337.454 162.572 337.359 162.608 337.29 162.68C337.227 162.753 337.195 162.851 337.195 162.974V166.574H336.493ZM335.759 164.148V163.51H338.746V164.148H335.759ZM338.344 166.574V163.51H339.046V166.574H338.344ZM338.695 163.242C338.576 163.242 338.476 163.202 338.395 163.121C338.318 163.04 338.28 162.94 338.28 162.821C338.28 162.702 338.318 162.602 338.395 162.521C338.476 162.44 338.576 162.399 338.695 162.399C338.818 162.399 338.918 162.44 338.995 162.521C339.071 162.602 339.11 162.702 339.11 162.821C339.11 162.94 339.071 163.04 338.995 163.121C338.918 163.202 338.818 163.242 338.695 163.242ZM339.83 166.574V163.51H340.532V166.574H339.83ZM340.532 164.87L340.29 164.748C340.29 164.361 340.375 164.048 340.545 163.81C340.72 163.568 340.981 163.446 341.33 163.446C341.483 163.446 341.622 163.474 341.745 163.529C341.868 163.585 341.983 163.674 342.09 163.797L341.63 164.27C341.575 164.21 341.513 164.168 341.445 164.142C341.377 164.116 341.298 164.104 341.209 164.104C341.013 164.104 340.851 164.165 340.724 164.289C340.596 164.412 340.532 164.606 340.532 164.87ZM342.429 166.574V163.51H343.132V166.574H342.429ZM344.466 166.574V164.748C344.466 164.544 344.402 164.387 344.274 164.276C344.147 164.161 343.989 164.104 343.802 164.104C343.674 164.104 343.559 164.129 343.457 164.18C343.359 164.231 343.281 164.306 343.221 164.404C343.161 164.497 343.132 164.612 343.132 164.748L342.857 164.595C342.857 164.361 342.908 164.159 343.01 163.989C343.112 163.819 343.251 163.687 343.425 163.593C343.6 163.495 343.795 163.446 344.013 163.446C344.23 163.446 344.425 163.493 344.6 163.587C344.774 163.68 344.913 163.812 345.015 163.982C345.117 164.153 345.168 164.357 345.168 164.595V166.574H344.466ZM346.502 166.574V164.748C346.502 164.544 346.438 164.387 346.31 164.276C346.183 164.161 346.025 164.104 345.838 164.104C345.715 164.104 345.602 164.129 345.5 164.18C345.398 164.231 345.317 164.306 345.257 164.404C345.198 164.497 345.168 164.612 345.168 164.748L344.772 164.595C344.793 164.361 344.861 164.159 344.976 163.989C345.091 163.819 345.238 163.687 345.417 163.593C345.6 163.495 345.8 163.446 346.017 163.446C346.238 163.446 346.438 163.493 346.617 163.587C346.796 163.68 346.938 163.812 347.044 163.982C347.151 164.153 347.204 164.357 347.204 164.595V166.574H346.502ZM350.195 166.606L348.886 163.51H349.659L350.552 165.782H350.329L351.273 163.51H352.052L350.629 166.606H350.195ZM349.282 167.851L350.233 165.891L350.629 166.606L350.061 167.851H349.282ZM353.758 166.638C353.46 166.638 353.189 166.568 352.947 166.427C352.704 166.282 352.511 166.089 352.366 165.846C352.226 165.604 352.155 165.334 352.155 165.036C352.155 164.738 352.226 164.47 352.366 164.231C352.511 163.993 352.704 163.804 352.947 163.663C353.189 163.519 353.46 163.446 353.758 163.446C354.06 163.446 354.332 163.516 354.575 163.657C354.817 163.797 355.009 163.989 355.149 164.231C355.294 164.47 355.366 164.738 355.366 165.036C355.366 165.334 355.294 165.604 355.149 165.846C355.009 166.089 354.817 166.282 354.575 166.427C354.332 166.568 354.06 166.638 353.758 166.638ZM353.758 165.961C353.932 165.961 354.085 165.923 354.217 165.846C354.353 165.765 354.458 165.655 354.53 165.514C354.606 165.374 354.645 165.214 354.645 165.036C354.645 164.857 354.606 164.699 354.53 164.563C354.453 164.427 354.349 164.321 354.217 164.244C354.085 164.163 353.932 164.123 353.758 164.123C353.587 164.123 353.434 164.163 353.298 164.244C353.166 164.321 353.062 164.427 352.985 164.563C352.913 164.699 352.877 164.857 352.877 165.036C352.877 165.214 352.913 165.374 352.985 165.514C353.062 165.655 353.166 165.765 353.298 165.846C353.434 165.923 353.587 165.961 353.758 165.961ZM357.207 166.638C356.948 166.638 356.716 166.58 356.512 166.465C356.312 166.351 356.154 166.193 356.039 165.993C355.929 165.789 355.873 165.555 355.873 165.291V163.51H356.575V165.259C356.575 165.408 356.599 165.536 356.646 165.642C356.697 165.744 356.769 165.823 356.863 165.878C356.961 165.934 357.075 165.961 357.207 165.961C357.412 165.961 357.567 165.902 357.673 165.782C357.784 165.659 357.839 165.485 357.839 165.259V163.51H358.541V165.291C358.541 165.559 358.484 165.795 358.369 165.999C358.259 166.199 358.103 166.357 357.903 166.472C357.703 166.582 357.471 166.638 357.207 166.638ZM359.247 166.574V163.51H359.95V166.574H359.247ZM359.95 164.87L359.707 164.748C359.707 164.361 359.792 164.048 359.962 163.81C360.137 163.568 360.399 163.446 360.747 163.446C360.901 163.446 361.039 163.474 361.162 163.529C361.286 163.585 361.401 163.674 361.507 163.797L361.047 164.27C360.992 164.21 360.93 164.168 360.862 164.142C360.794 164.116 360.716 164.104 360.626 164.104C360.43 164.104 360.269 164.165 360.141 164.289C360.013 164.412 359.95 164.606 359.95 164.87ZM364.66 166.638C364.354 166.638 364.077 166.57 363.831 166.434C363.588 166.293 363.394 166.102 363.25 165.859C363.109 165.617 363.039 165.344 363.039 165.042C363.039 164.74 363.109 164.47 363.25 164.231C363.39 163.989 363.579 163.797 363.818 163.657C364.06 163.516 364.328 163.446 364.622 163.446C364.907 163.446 365.158 163.512 365.375 163.644C365.597 163.776 365.769 163.957 365.892 164.187C366.02 164.416 366.084 164.678 366.084 164.972C366.084 165.023 366.08 165.076 366.071 165.131C366.067 165.182 366.058 165.24 366.045 165.304H363.531V164.729H365.682L365.42 164.959C365.411 164.772 365.375 164.614 365.311 164.487C365.248 164.359 365.156 164.261 365.037 164.193C364.922 164.125 364.779 164.091 364.609 164.091C364.431 164.091 364.275 164.129 364.143 164.206C364.011 164.282 363.909 164.391 363.837 164.531C363.765 164.668 363.728 164.831 363.728 165.023C363.728 165.214 363.767 165.382 363.843 165.527C363.92 165.672 364.028 165.785 364.169 165.865C364.309 165.942 364.471 165.98 364.654 165.98C364.811 165.98 364.956 165.953 365.088 165.897C365.224 165.842 365.339 165.761 365.433 165.655L365.88 166.108C365.731 166.282 365.55 166.414 365.337 166.504C365.124 166.593 364.899 166.638 364.66 166.638ZM366.647 166.574V163.51H367.349V166.574H366.647ZM368.683 166.574V164.748C368.683 164.544 368.619 164.387 368.491 164.276C368.364 164.161 368.206 164.104 368.019 164.104C367.891 164.104 367.776 164.129 367.674 164.18C367.576 164.231 367.498 164.306 367.438 164.404C367.379 164.497 367.349 164.612 367.349 164.748L367.074 164.595C367.074 164.361 367.125 164.159 367.227 163.989C367.33 163.819 367.468 163.687 367.642 163.593C367.817 163.495 368.013 163.446 368.23 163.446C368.447 163.446 368.642 163.493 368.817 163.587C368.991 163.68 369.13 163.812 369.232 163.982C369.334 164.153 369.385 164.357 369.385 164.595V166.574H368.683ZM370.719 166.574V164.748C370.719 164.544 370.655 164.387 370.528 164.276C370.4 164.161 370.242 164.104 370.055 164.104C369.932 164.104 369.819 164.129 369.717 164.18C369.615 164.231 369.534 164.306 369.474 164.404C369.415 164.497 369.385 164.612 369.385 164.748L368.989 164.595C369.01 164.361 369.079 164.159 369.193 163.989C369.308 163.819 369.455 163.687 369.634 163.593C369.817 163.495 370.017 163.446 370.234 163.446C370.455 163.446 370.655 163.493 370.834 163.587C371.013 163.68 371.155 163.812 371.262 163.982C371.368 164.153 371.421 164.357 371.421 164.595V166.574H370.719ZM373.428 166.638C373.151 166.638 372.9 166.568 372.674 166.427C372.453 166.287 372.276 166.097 372.145 165.859C372.017 165.617 371.953 165.346 371.953 165.048C371.953 164.746 372.017 164.476 372.145 164.238C372.276 163.995 372.453 163.804 372.674 163.663C372.9 163.519 373.151 163.446 373.428 163.446C373.662 163.446 373.868 163.497 374.047 163.599C374.23 163.697 374.374 163.833 374.481 164.008C374.587 164.182 374.64 164.38 374.64 164.602V165.482C374.64 165.704 374.587 165.902 374.481 166.076C374.379 166.251 374.236 166.389 374.053 166.491C373.87 166.589 373.662 166.638 373.428 166.638ZM373.542 165.974C373.802 165.974 374.011 165.887 374.168 165.712C374.33 165.538 374.411 165.314 374.411 165.042C374.411 164.859 374.374 164.697 374.302 164.557C374.23 164.416 374.128 164.308 373.996 164.231C373.868 164.151 373.717 164.11 373.542 164.11C373.372 164.11 373.221 164.151 373.089 164.231C372.962 164.308 372.859 164.416 372.783 164.557C372.711 164.697 372.674 164.859 372.674 165.042C372.674 165.225 372.711 165.387 372.783 165.527C372.859 165.668 372.962 165.778 373.089 165.859C373.221 165.936 373.372 165.974 373.542 165.974ZM374.366 166.574V165.751L374.487 165.004L374.366 164.263V163.51H375.068V166.574H374.366ZM375.854 166.574V163.51H376.556V166.574H375.854ZM376.205 162.948C376.086 162.948 375.986 162.908 375.905 162.827C375.828 162.746 375.79 162.646 375.79 162.527C375.79 162.408 375.828 162.308 375.905 162.227C375.986 162.146 376.086 162.106 376.205 162.106C376.328 162.106 376.428 162.146 376.505 162.227C376.581 162.308 376.62 162.408 376.62 162.527C376.62 162.646 376.581 162.746 376.505 162.827C376.428 162.908 376.328 162.948 376.205 162.948ZM377.343 166.574V161.978H378.045V166.574H377.343ZM381.388 166.638C381.111 166.638 380.86 166.568 380.635 166.427C380.413 166.287 380.237 166.097 380.105 165.859C379.977 165.617 379.913 165.346 379.913 165.048C379.913 164.746 379.977 164.476 380.105 164.238C380.237 163.995 380.413 163.804 380.635 163.663C380.86 163.519 381.111 163.446 381.388 163.446C381.622 163.446 381.828 163.497 382.007 163.599C382.19 163.697 382.335 163.833 382.441 164.008C382.547 164.182 382.601 164.38 382.601 164.602V165.482C382.601 165.704 382.547 165.902 382.441 166.076C382.339 166.251 382.196 166.389 382.013 166.491C381.83 166.589 381.622 166.638 381.388 166.638ZM381.503 165.974C381.762 165.974 381.971 165.887 382.128 165.712C382.29 165.538 382.371 165.314 382.371 165.042C382.371 164.859 382.335 164.697 382.262 164.557C382.19 164.416 382.088 164.308 381.956 164.231C381.828 164.151 381.677 164.11 381.503 164.11C381.332 164.11 381.181 164.151 381.049 164.231C380.922 164.308 380.82 164.416 380.743 164.557C380.671 164.697 380.635 164.859 380.635 165.042C380.635 165.225 380.671 165.387 380.743 165.527C380.82 165.668 380.922 165.778 381.049 165.859C381.181 165.936 381.332 165.974 381.503 165.974ZM382.326 166.574V165.751L382.447 165.004L382.326 164.263V163.51H383.028V166.574H382.326ZM385.09 166.638C384.814 166.638 384.563 166.568 384.337 166.427C384.116 166.287 383.939 166.097 383.807 165.859C383.68 165.617 383.616 165.346 383.616 165.048C383.616 164.746 383.68 164.476 383.807 164.238C383.939 163.995 384.116 163.804 384.337 163.663C384.563 163.519 384.814 163.446 385.09 163.446C385.324 163.446 385.531 163.497 385.71 163.599C385.893 163.697 386.037 163.833 386.144 164.008C386.25 164.182 386.303 164.38 386.303 164.602V165.482C386.303 165.704 386.25 165.902 386.144 166.076C386.042 166.251 385.899 166.389 385.716 166.491C385.533 166.589 385.324 166.638 385.09 166.638ZM385.205 165.974C385.38 165.974 385.531 165.936 385.659 165.859C385.79 165.778 385.893 165.668 385.965 165.527C386.037 165.387 386.073 165.225 386.073 165.042C386.073 164.859 386.037 164.697 385.965 164.557C385.893 164.416 385.79 164.308 385.659 164.231C385.531 164.151 385.38 164.11 385.205 164.11C385.035 164.11 384.884 164.151 384.752 164.231C384.624 164.308 384.522 164.416 384.446 164.557C384.373 164.697 384.337 164.859 384.337 165.042C384.337 165.225 384.373 165.387 384.446 165.527C384.522 165.668 384.624 165.778 384.752 165.859C384.884 165.936 385.035 165.974 385.205 165.974ZM386.731 166.574H386.029V165.751L386.15 165.004L386.029 164.263V161.978H386.731V166.574ZM388.793 166.638C388.517 166.638 388.265 166.568 388.04 166.427C387.819 166.287 387.642 166.097 387.51 165.859C387.382 165.617 387.319 165.346 387.319 165.048C387.319 164.746 387.382 164.476 387.51 164.238C387.642 163.995 387.819 163.804 388.04 163.663C388.265 163.519 388.517 163.446 388.793 163.446C389.027 163.446 389.234 163.497 389.412 163.599C389.595 163.697 389.74 163.833 389.846 164.008C389.953 164.182 390.006 164.38 390.006 164.602V165.482C390.006 165.704 389.953 165.902 389.846 166.076C389.744 166.251 389.602 166.389 389.419 166.491C389.236 166.589 389.027 166.638 388.793 166.638ZM388.908 165.974C389.082 165.974 389.234 165.936 389.361 165.859C389.493 165.778 389.595 165.668 389.668 165.527C389.74 165.387 389.776 165.225 389.776 165.042C389.776 164.859 389.74 164.697 389.668 164.557C389.595 164.416 389.493 164.308 389.361 164.231C389.234 164.151 389.082 164.11 388.908 164.11C388.738 164.11 388.587 164.151 388.455 164.231C388.327 164.308 388.225 164.416 388.148 164.557C388.076 164.697 388.04 164.859 388.04 165.042C388.04 165.225 388.076 165.387 388.148 165.527C388.225 165.668 388.327 165.778 388.455 165.859C388.587 165.936 388.738 165.974 388.908 165.974ZM390.434 166.574H389.731V165.751L389.853 165.004L389.731 164.263V161.978H390.434V166.574ZM391.213 166.574V163.51H391.915V166.574H391.213ZM391.915 164.87L391.672 164.748C391.672 164.361 391.758 164.048 391.928 163.81C392.102 163.568 392.364 163.446 392.713 163.446C392.866 163.446 393.004 163.474 393.128 163.529C393.251 163.585 393.366 163.674 393.472 163.797L393.013 164.27C392.958 164.21 392.896 164.168 392.828 164.142C392.76 164.116 392.681 164.104 392.592 164.104C392.396 164.104 392.234 164.165 392.106 164.289C391.979 164.412 391.915 164.606 391.915 164.87ZM395.142 166.638C394.836 166.638 394.559 166.57 394.312 166.434C394.07 166.293 393.876 166.102 393.731 165.859C393.591 165.617 393.521 165.344 393.521 165.042C393.521 164.74 393.591 164.47 393.731 164.231C393.872 163.989 394.061 163.797 394.3 163.657C394.542 163.516 394.81 163.446 395.104 163.446C395.389 163.446 395.64 163.512 395.857 163.644C396.078 163.776 396.251 163.957 396.374 164.187C396.502 164.416 396.566 164.678 396.566 164.972C396.566 165.023 396.561 165.076 396.553 165.131C396.549 165.182 396.54 165.24 396.527 165.304H394.012V164.729H396.163L395.902 164.959C395.893 164.772 395.857 164.614 395.793 164.487C395.729 164.359 395.638 164.261 395.519 164.193C395.404 164.125 395.261 164.091 395.091 164.091C394.912 164.091 394.757 164.129 394.625 164.206C394.493 164.282 394.391 164.391 394.319 164.531C394.246 164.668 394.21 164.831 394.21 165.023C394.21 165.214 394.248 165.382 394.325 165.527C394.402 165.672 394.51 165.785 394.651 165.865C394.791 165.942 394.953 165.98 395.136 165.98C395.293 165.98 395.438 165.953 395.57 165.897C395.706 165.842 395.821 165.761 395.914 165.655L396.361 166.108C396.212 166.282 396.031 166.414 395.819 166.504C395.606 166.593 395.38 166.638 395.142 166.638ZM398.131 166.638C397.96 166.638 397.797 166.617 397.639 166.574C397.482 166.527 397.337 166.463 397.205 166.382C397.073 166.297 396.958 166.195 396.86 166.076L397.307 165.629C397.414 165.753 397.535 165.846 397.671 165.91C397.811 165.97 397.969 165.999 398.143 165.999C398.301 165.999 398.42 165.976 398.501 165.929C398.582 165.882 398.622 165.814 398.622 165.725C398.622 165.631 398.584 165.559 398.507 165.508C398.431 165.457 398.331 165.414 398.207 165.38C398.088 165.342 397.96 165.304 397.824 165.265C397.692 165.227 397.565 165.176 397.441 165.112C397.322 165.044 397.224 164.953 397.148 164.838C397.071 164.723 397.033 164.574 397.033 164.391C397.033 164.195 397.077 164.027 397.167 163.887C397.26 163.746 397.39 163.638 397.556 163.561C397.726 163.485 397.928 163.446 398.162 163.446C398.409 163.446 398.626 163.491 398.814 163.58C399.005 163.665 399.165 163.795 399.292 163.97L398.845 164.416C398.756 164.306 398.654 164.223 398.539 164.168C398.424 164.112 398.292 164.085 398.143 164.085C398.003 164.085 397.894 164.106 397.818 164.148C397.741 164.191 397.703 164.253 397.703 164.334C397.703 164.419 397.741 164.485 397.818 164.531C397.894 164.578 397.992 164.619 398.111 164.653C398.235 164.687 398.362 164.725 398.494 164.768C398.631 164.806 398.758 164.861 398.877 164.934C399.001 165.002 399.101 165.095 399.177 165.214C399.254 165.329 399.292 165.48 399.292 165.668C399.292 165.965 399.188 166.202 398.98 166.376C398.771 166.551 398.488 166.638 398.131 166.638ZM400.873 166.638C400.703 166.638 400.539 166.617 400.382 166.574C400.224 166.527 400.08 166.463 399.948 166.382C399.816 166.297 399.701 166.195 399.603 166.076L400.05 165.629C400.156 165.753 400.278 165.846 400.414 165.91C400.554 165.97 400.712 165.999 400.886 165.999C401.044 165.999 401.163 165.976 401.244 165.929C401.324 165.882 401.365 165.814 401.365 165.725C401.365 165.631 401.326 165.559 401.25 165.508C401.173 165.457 401.073 165.414 400.95 165.38C400.831 165.342 400.703 165.304 400.567 165.265C400.435 165.227 400.307 165.176 400.184 165.112C400.065 165.044 399.967 164.953 399.89 164.838C399.814 164.723 399.775 164.574 399.775 164.391C399.775 164.195 399.82 164.027 399.909 163.887C400.003 163.746 400.133 163.638 400.299 163.561C400.469 163.485 400.671 163.446 400.905 163.446C401.152 163.446 401.369 163.491 401.556 163.58C401.748 163.665 401.907 163.795 402.035 163.97L401.588 164.416C401.499 164.306 401.397 164.223 401.282 164.168C401.167 164.112 401.035 164.085 400.886 164.085C400.746 164.085 400.637 164.106 400.561 164.148C400.484 164.191 400.446 164.253 400.446 164.334C400.446 164.419 400.484 164.485 400.561 164.531C400.637 164.578 400.735 164.619 400.854 164.653C400.978 164.687 401.105 164.725 401.237 164.768C401.373 164.806 401.501 164.861 401.62 164.934C401.744 165.002 401.844 165.095 401.92 165.214C401.997 165.329 402.035 165.48 402.035 165.668C402.035 165.965 401.931 166.202 401.722 166.376C401.514 166.551 401.231 166.638 400.873 166.638ZM403.086 166.638C402.95 166.638 402.837 166.593 402.748 166.504C402.663 166.41 402.62 166.297 402.62 166.165C402.62 166.029 402.663 165.917 402.748 165.827C402.837 165.738 402.95 165.693 403.086 165.693C403.222 165.693 403.333 165.738 403.418 165.827C403.508 165.917 403.552 166.029 403.552 166.165C403.552 166.297 403.508 166.41 403.418 166.504C403.333 166.593 403.222 166.638 403.086 166.638ZM403.086 164.665C402.95 164.665 402.837 164.621 402.748 164.531C402.663 164.438 402.62 164.325 402.62 164.193C402.62 164.057 402.663 163.944 402.748 163.855C402.837 163.765 402.95 163.721 403.086 163.721C403.222 163.721 403.333 163.765 403.418 163.855C403.508 163.944 403.552 164.057 403.552 164.193C403.552 164.325 403.508 164.438 403.418 164.531C403.333 164.621 403.222 164.665 403.086 164.665ZM406.908 166.638C406.631 166.638 406.38 166.568 406.154 166.427C405.933 166.287 405.757 166.097 405.625 165.859C405.497 165.617 405.433 165.346 405.433 165.048C405.433 164.746 405.497 164.476 405.625 164.238C405.757 163.995 405.933 163.804 406.154 163.663C406.38 163.519 406.631 163.446 406.908 163.446C407.142 163.446 407.348 163.497 407.527 163.599C407.71 163.697 407.854 163.833 407.961 164.008C408.067 164.182 408.12 164.38 408.12 164.602V165.482C408.12 165.704 408.067 165.902 407.961 166.076C407.859 166.251 407.716 166.389 407.533 166.491C407.35 166.589 407.142 166.638 406.908 166.638ZM407.023 165.974C407.197 165.974 407.348 165.936 407.476 165.859C407.608 165.778 407.71 165.668 407.782 165.527C407.854 165.387 407.891 165.225 407.891 165.042C407.891 164.859 407.854 164.697 407.782 164.557C407.71 164.416 407.608 164.308 407.476 164.231C407.348 164.151 407.197 164.11 407.023 164.11C406.852 164.11 406.701 164.151 406.569 164.231C406.442 164.308 406.34 164.416 406.263 164.557C406.191 164.697 406.154 164.859 406.154 165.042C406.154 165.225 406.191 165.387 406.263 165.527C406.34 165.668 406.442 165.778 406.569 165.859C406.701 165.936 406.852 165.974 407.023 165.974ZM408.548 166.574H407.846V165.751L407.967 165.004L407.846 164.263V161.978H408.548V166.574ZM410.61 166.638C410.334 166.638 410.083 166.568 409.857 166.427C409.636 166.287 409.459 166.097 409.327 165.859C409.2 165.617 409.136 165.346 409.136 165.048C409.136 164.746 409.2 164.476 409.327 164.238C409.459 163.995 409.636 163.804 409.857 163.663C410.083 163.519 410.334 163.446 410.61 163.446C410.844 163.446 411.051 163.497 411.23 163.599C411.413 163.697 411.557 163.833 411.664 164.008C411.77 164.182 411.823 164.38 411.823 164.602V165.482C411.823 165.704 411.77 165.902 411.664 166.076C411.561 166.251 411.419 166.389 411.236 166.491C411.053 166.589 410.844 166.638 410.61 166.638ZM410.725 165.974C410.985 165.974 411.193 165.887 411.351 165.712C411.513 165.538 411.593 165.314 411.593 165.042C411.593 164.859 411.557 164.697 411.485 164.557C411.413 164.416 411.31 164.308 411.178 164.231C411.051 164.151 410.9 164.11 410.725 164.11C410.555 164.11 410.404 164.151 410.272 164.231C410.144 164.308 410.042 164.416 409.966 164.557C409.893 164.697 409.857 164.859 409.857 165.042C409.857 165.225 409.893 165.387 409.966 165.527C410.042 165.668 410.144 165.778 410.272 165.859C410.404 165.936 410.555 165.974 410.725 165.974ZM411.549 166.574V165.751L411.67 165.004L411.549 164.263V163.51H412.251V166.574H411.549ZM415.13 166.574V164.806C415.13 164.602 415.064 164.434 414.932 164.302C414.805 164.17 414.639 164.104 414.434 164.104C414.298 164.104 414.177 164.134 414.071 164.193C413.964 164.253 413.881 164.336 413.822 164.442C413.762 164.548 413.732 164.67 413.732 164.806L413.458 164.653C413.458 164.419 413.509 164.212 413.611 164.034C413.713 163.851 413.853 163.708 414.032 163.606C414.215 163.499 414.419 163.446 414.645 163.446C414.875 163.446 415.079 163.506 415.258 163.625C415.436 163.74 415.577 163.891 415.679 164.078C415.781 164.261 415.832 164.453 415.832 164.653V166.574H415.13ZM413.03 166.574V163.51H413.732V166.574H413.03ZM418.525 167.174C418.231 167.174 417.956 167.121 417.701 167.014C417.446 166.908 417.222 166.761 417.031 166.574C416.839 166.382 416.69 166.159 416.584 165.904C416.478 165.648 416.424 165.372 416.424 165.074C416.424 164.772 416.478 164.493 416.584 164.238C416.695 163.982 416.848 163.759 417.044 163.568C417.239 163.376 417.467 163.227 417.727 163.121C417.986 163.014 418.265 162.961 418.563 162.961C418.963 162.961 419.314 163.051 419.616 163.229C419.922 163.408 420.161 163.655 420.331 163.97C420.505 164.285 420.593 164.646 420.593 165.055C420.593 165.238 420.573 165.406 420.535 165.559C420.501 165.708 420.444 165.846 420.363 165.974L419.763 165.955C419.827 165.874 419.878 165.787 419.916 165.693C419.954 165.599 419.982 165.497 419.999 165.387C420.02 165.272 420.031 165.146 420.031 165.01C420.031 164.687 419.973 164.414 419.859 164.193C419.748 163.968 419.584 163.797 419.367 163.682C419.15 163.563 418.886 163.504 418.576 163.504C418.256 163.504 417.98 163.568 417.746 163.695C417.512 163.823 417.331 164.004 417.203 164.238C417.08 164.472 417.018 164.753 417.018 165.08C417.018 165.399 417.078 165.676 417.197 165.91C417.32 166.14 417.495 166.319 417.72 166.446C417.946 166.57 418.21 166.631 418.512 166.631C418.725 166.631 418.916 166.604 419.086 166.548C419.256 166.489 419.407 166.402 419.539 166.287L419.922 166.676C419.735 166.838 419.522 166.961 419.284 167.046C419.05 167.131 418.797 167.174 418.525 167.174ZM418.403 166.012C418.242 166.012 418.093 165.972 417.956 165.891C417.82 165.806 417.71 165.693 417.624 165.553C417.544 165.408 417.503 165.248 417.503 165.074C417.503 164.895 417.544 164.736 417.624 164.595C417.71 164.451 417.82 164.336 417.956 164.251C418.093 164.165 418.242 164.123 418.403 164.123C418.607 164.123 418.771 164.172 418.895 164.27C419.022 164.363 419.086 164.51 419.086 164.71V165.425C419.086 165.621 419.025 165.768 418.901 165.865C418.778 165.963 418.612 166.012 418.403 166.012ZM418.442 165.534C418.573 165.534 418.678 165.491 418.754 165.406C418.835 165.317 418.876 165.204 418.876 165.068C418.876 164.927 418.835 164.814 418.754 164.729C418.678 164.644 418.573 164.602 418.442 164.602C418.314 164.602 418.21 164.646 418.129 164.736C418.048 164.821 418.007 164.931 418.007 165.068C418.007 165.204 418.048 165.317 418.129 165.406C418.21 165.491 418.314 165.534 418.442 165.534ZM419.156 165.974V165.527H420.363V165.974H419.156ZM418.927 165.974V165.489L418.997 165.042L418.927 164.608V164.161H419.418V165.974H418.927ZM422.529 167.914C422.205 167.914 421.922 167.855 421.68 167.736C421.437 167.621 421.241 167.457 421.092 167.244L421.552 166.785C421.675 166.938 421.816 167.053 421.973 167.129C422.131 167.206 422.32 167.244 422.541 167.244C422.818 167.244 423.037 167.172 423.199 167.027C423.361 166.887 423.441 166.693 423.441 166.446V165.693L423.563 165.016L423.441 164.334V163.51H424.144V166.446C424.144 166.74 424.075 166.995 423.939 167.212C423.803 167.434 423.614 167.606 423.371 167.729C423.129 167.853 422.848 167.914 422.529 167.914ZM422.497 166.51C422.224 166.51 421.978 166.444 421.756 166.312C421.539 166.176 421.367 165.991 421.239 165.757C421.116 165.523 421.054 165.261 421.054 164.972C421.054 164.682 421.116 164.423 421.239 164.193C421.367 163.963 421.539 163.782 421.756 163.651C421.978 163.514 422.224 163.446 422.497 163.446C422.739 163.446 422.952 163.495 423.135 163.593C423.318 163.691 423.461 163.827 423.563 164.002C423.665 164.172 423.716 164.372 423.716 164.602V165.355C423.716 165.58 423.663 165.78 423.556 165.955C423.454 166.129 423.312 166.265 423.129 166.363C422.946 166.461 422.735 166.51 422.497 166.51ZM422.637 165.846C422.807 165.846 422.956 165.81 423.084 165.738C423.212 165.665 423.31 165.565 423.378 165.438C423.45 165.306 423.486 165.153 423.486 164.978C423.486 164.804 423.45 164.653 423.378 164.525C423.31 164.393 423.212 164.291 423.084 164.219C422.956 164.146 422.807 164.11 422.637 164.11C422.467 164.11 422.316 164.146 422.184 164.219C422.056 164.291 421.956 164.393 421.884 164.525C421.812 164.653 421.775 164.804 421.775 164.978C421.775 165.148 421.812 165.299 421.884 165.431C421.956 165.563 422.056 165.665 422.184 165.738C422.316 165.81 422.467 165.846 422.637 165.846ZM424.924 166.574V163.51H425.626V166.574H424.924ZM426.96 166.574V164.748C426.96 164.544 426.896 164.387 426.768 164.276C426.641 164.161 426.483 164.104 426.296 164.104C426.168 164.104 426.053 164.129 425.951 164.18C425.853 164.231 425.775 164.306 425.715 164.404C425.655 164.497 425.626 164.612 425.626 164.748L425.351 164.595C425.351 164.361 425.402 164.159 425.504 163.989C425.607 163.819 425.745 163.687 425.919 163.593C426.094 163.495 426.29 163.446 426.507 163.446C426.724 163.446 426.919 163.493 427.094 163.587C427.268 163.68 427.407 163.812 427.509 163.982C427.611 164.153 427.662 164.357 427.662 164.595V166.574H426.96ZM428.996 166.574V164.748C428.996 164.544 428.932 164.387 428.804 164.276C428.677 164.161 428.519 164.104 428.332 164.104C428.209 164.104 428.096 164.129 427.994 164.18C427.892 164.231 427.811 164.306 427.751 164.404C427.692 164.497 427.662 164.612 427.662 164.748L427.266 164.595C427.287 164.361 427.356 164.159 427.47 163.989C427.585 163.819 427.732 163.687 427.911 163.593C428.094 163.495 428.294 163.446 428.511 163.446C428.732 163.446 428.932 163.493 429.111 163.587C429.29 163.68 429.432 163.812 429.539 163.982C429.645 164.153 429.698 164.357 429.698 164.595V166.574H428.996ZM431.705 166.638C431.428 166.638 431.177 166.568 430.951 166.427C430.73 166.287 430.553 166.097 430.422 165.859C430.294 165.617 430.23 165.346 430.23 165.048C430.23 164.746 430.294 164.476 430.422 164.238C430.553 163.995 430.73 163.804 430.951 163.663C431.177 163.519 431.428 163.446 431.705 163.446C431.939 163.446 432.145 163.497 432.324 163.599C432.507 163.697 432.651 163.833 432.758 164.008C432.864 164.182 432.917 164.38 432.917 164.602V165.482C432.917 165.704 432.864 165.902 432.758 166.076C432.656 166.251 432.513 166.389 432.33 166.491C432.147 166.589 431.939 166.638 431.705 166.638ZM431.819 165.974C432.079 165.974 432.287 165.887 432.445 165.712C432.607 165.538 432.688 165.314 432.688 165.042C432.688 164.859 432.651 164.697 432.579 164.557C432.507 164.416 432.405 164.308 432.273 164.231C432.145 164.151 431.994 164.11 431.819 164.11C431.649 164.11 431.498 164.151 431.366 164.231C431.239 164.308 431.136 164.416 431.06 164.557C430.987 164.697 430.951 164.859 430.951 165.042C430.951 165.225 430.987 165.387 431.06 165.527C431.136 165.668 431.239 165.778 431.366 165.859C431.498 165.936 431.649 165.974 431.819 165.974ZM432.643 166.574V165.751L432.764 165.004L432.643 164.263V163.51H433.345V166.574H432.643ZM434.131 166.574V163.51H434.833V166.574H434.131ZM434.482 162.948C434.363 162.948 434.263 162.908 434.182 162.827C434.105 162.746 434.067 162.646 434.067 162.527C434.067 162.408 434.105 162.308 434.182 162.227C434.263 162.146 434.363 162.106 434.482 162.106C434.605 162.106 434.705 162.146 434.782 162.227C434.858 162.308 434.897 162.408 434.897 162.527C434.897 162.646 434.858 162.746 434.782 162.827C434.705 162.908 434.605 162.948 434.482 162.948ZM435.62 166.574V161.978H436.322V166.574H435.62ZM437.64 166.638C437.504 166.638 437.391 166.593 437.302 166.504C437.217 166.41 437.174 166.297 437.174 166.165C437.174 166.029 437.217 165.917 437.302 165.827C437.391 165.738 437.504 165.693 437.64 165.693C437.776 165.693 437.887 165.738 437.972 165.827C438.061 165.917 438.106 166.029 438.106 166.165C438.106 166.297 438.061 166.41 437.972 166.504C437.887 166.593 437.776 166.638 437.64 166.638ZM440.26 166.638C439.958 166.638 439.683 166.568 439.436 166.427C439.194 166.287 439.002 166.095 438.862 165.853C438.722 165.61 438.651 165.34 438.651 165.042C438.651 164.74 438.722 164.47 438.862 164.231C439.002 163.989 439.194 163.797 439.436 163.657C439.683 163.516 439.958 163.446 440.26 163.446C440.498 163.446 440.719 163.493 440.924 163.587C441.132 163.676 441.309 163.806 441.453 163.976L440.994 164.442C440.905 164.336 440.796 164.257 440.668 164.206C440.545 164.151 440.409 164.123 440.26 164.123C440.085 164.123 439.93 164.163 439.794 164.244C439.662 164.321 439.558 164.427 439.481 164.563C439.409 164.699 439.373 164.859 439.373 165.042C439.373 165.221 439.409 165.38 439.481 165.521C439.558 165.657 439.662 165.765 439.794 165.846C439.93 165.923 440.085 165.961 440.26 165.961C440.409 165.961 440.545 165.936 440.668 165.885C440.796 165.829 440.905 165.748 440.994 165.642L441.453 166.108C441.309 166.278 441.132 166.41 440.924 166.504C440.719 166.593 440.498 166.638 440.26 166.638ZM443.302 166.638C443.004 166.638 442.734 166.568 442.491 166.427C442.248 166.282 442.055 166.089 441.91 165.846C441.77 165.604 441.699 165.334 441.699 165.036C441.699 164.738 441.77 164.47 441.91 164.231C442.055 163.993 442.248 163.804 442.491 163.663C442.734 163.519 443.004 163.446 443.302 163.446C443.604 163.446 443.876 163.516 444.119 163.657C444.361 163.797 444.553 163.989 444.693 164.231C444.838 164.47 444.91 164.738 444.91 165.036C444.91 165.334 444.838 165.604 444.693 165.846C444.553 166.089 444.361 166.282 444.119 166.427C443.876 166.568 443.604 166.638 443.302 166.638ZM443.302 165.961C443.476 165.961 443.629 165.923 443.761 165.846C443.897 165.765 444.002 165.655 444.074 165.514C444.151 165.374 444.189 165.214 444.189 165.036C444.189 164.857 444.151 164.699 444.074 164.563C443.997 164.427 443.893 164.321 443.761 164.244C443.629 164.163 443.476 164.123 443.302 164.123C443.131 164.123 442.978 164.163 442.842 164.244C442.71 164.321 442.606 164.427 442.529 164.563C442.457 164.699 442.421 164.857 442.421 165.036C442.421 165.214 442.457 165.374 442.529 165.514C442.606 165.655 442.71 165.765 442.842 165.846C442.978 165.923 443.131 165.961 443.302 165.961ZM445.494 166.574V163.51H446.196V166.574H445.494ZM447.53 166.574V164.748C447.53 164.544 447.466 164.387 447.339 164.276C447.211 164.161 447.054 164.104 446.866 164.104C446.739 164.104 446.624 164.129 446.522 164.18C446.424 164.231 446.345 164.306 446.286 164.404C446.226 164.497 446.196 164.612 446.196 164.748L445.922 164.595C445.922 164.361 445.973 164.159 446.075 163.989C446.177 163.819 446.315 163.687 446.49 163.593C446.664 163.495 446.86 163.446 447.077 163.446C447.294 163.446 447.49 163.493 447.664 163.587C447.839 163.68 447.977 163.812 448.079 163.982C448.181 164.153 448.232 164.357 448.232 164.595V166.574H447.53ZM449.567 166.574V164.748C449.567 164.544 449.503 164.387 449.375 164.276C449.247 164.161 449.09 164.104 448.903 164.104C448.779 164.104 448.666 164.129 448.564 164.18C448.462 164.231 448.381 164.306 448.322 164.404C448.262 164.497 448.232 164.612 448.232 164.748L447.837 164.595C447.858 164.361 447.926 164.159 448.041 163.989C448.156 163.819 448.303 163.687 448.481 163.593C448.664 163.495 448.864 163.446 449.081 163.446C449.303 163.446 449.503 163.493 449.681 163.587C449.86 163.68 450.003 163.812 450.109 163.982C450.215 164.153 450.269 164.357 450.269 164.595V166.574H449.567Z" fill="#2A2C35"/>
<path d="M460.38 164.678V164.072H461.51C461.735 164.072 461.91 164.014 462.033 163.899C462.161 163.78 462.225 163.616 462.225 163.408C462.225 163.221 462.163 163.063 462.04 162.936C461.916 162.808 461.742 162.744 461.516 162.744H460.38V162.106H461.548C461.829 162.106 462.076 162.163 462.288 162.278C462.501 162.389 462.665 162.542 462.78 162.738C462.899 162.929 462.959 163.148 462.959 163.395C462.959 163.655 462.899 163.88 462.78 164.072C462.665 164.263 462.501 164.412 462.288 164.519C462.076 164.625 461.829 164.678 461.548 164.678H460.38ZM459.876 166.574V162.106H460.61V166.574H459.876ZM462.327 166.574L460.763 164.634L461.446 164.385L463.252 166.574H462.327ZM465.031 166.638C464.724 166.638 464.448 166.57 464.201 166.434C463.958 166.293 463.765 166.102 463.62 165.859C463.48 165.617 463.409 165.344 463.409 165.042C463.409 164.74 463.48 164.47 463.62 164.231C463.76 163.989 463.95 163.797 464.188 163.657C464.431 163.516 464.699 163.446 464.992 163.446C465.278 163.446 465.529 163.512 465.746 163.644C465.967 163.776 466.139 163.957 466.263 164.187C466.39 164.416 466.454 164.678 466.454 164.972C466.454 165.023 466.45 165.076 466.441 165.131C466.437 165.182 466.429 165.24 466.416 165.304H463.901V164.729H466.052L465.79 164.959C465.782 164.772 465.746 164.614 465.682 164.487C465.618 164.359 465.526 164.261 465.407 164.193C465.292 164.125 465.15 164.091 464.98 164.091C464.801 164.091 464.646 164.129 464.514 164.206C464.382 164.282 464.28 164.391 464.207 164.531C464.135 164.668 464.099 164.831 464.099 165.023C464.099 165.214 464.137 165.382 464.214 165.527C464.29 165.672 464.399 165.785 464.539 165.865C464.68 165.942 464.841 165.98 465.024 165.98C465.182 165.98 465.326 165.953 465.458 165.897C465.595 165.842 465.709 165.761 465.803 165.655L466.25 166.108C466.101 166.282 465.92 166.414 465.707 166.504C465.495 166.593 465.269 166.638 465.031 166.638ZM468.019 166.638C467.849 166.638 467.685 166.617 467.528 166.574C467.37 166.527 467.226 166.463 467.094 166.382C466.962 166.297 466.847 166.195 466.749 166.076L467.196 165.629C467.302 165.753 467.423 165.846 467.56 165.91C467.7 165.97 467.857 165.999 468.032 165.999C468.189 165.999 468.309 165.976 468.389 165.929C468.47 165.882 468.511 165.814 468.511 165.725C468.511 165.631 468.472 165.559 468.396 165.508C468.319 165.457 468.219 165.414 468.096 165.38C467.977 165.342 467.849 165.304 467.713 165.265C467.581 165.227 467.453 165.176 467.33 165.112C467.211 165.044 467.113 164.953 467.036 164.838C466.96 164.723 466.921 164.574 466.921 164.391C466.921 164.195 466.966 164.027 467.055 163.887C467.149 163.746 467.279 163.638 467.445 163.561C467.615 163.485 467.817 163.446 468.051 163.446C468.298 163.446 468.515 163.491 468.702 163.58C468.894 163.665 469.053 163.795 469.181 163.97L468.734 164.416C468.645 164.306 468.543 164.223 468.428 164.168C468.313 164.112 468.181 164.085 468.032 164.085C467.891 164.085 467.783 164.106 467.706 164.148C467.63 164.191 467.591 164.253 467.591 164.334C467.591 164.419 467.63 164.485 467.706 164.531C467.783 164.578 467.881 164.619 468 164.653C468.123 164.687 468.251 164.725 468.383 164.768C468.519 164.806 468.647 164.861 468.766 164.934C468.889 165.002 468.989 165.095 469.066 165.214C469.143 165.329 469.181 165.48 469.181 165.668C469.181 165.965 469.077 166.202 468.868 166.376C468.66 166.551 468.377 166.638 468.019 166.638ZM471.183 166.638C470.877 166.638 470.6 166.57 470.353 166.434C470.111 166.293 469.917 166.102 469.772 165.859C469.632 165.617 469.562 165.344 469.562 165.042C469.562 164.74 469.632 164.47 469.772 164.231C469.913 163.989 470.102 163.797 470.341 163.657C470.583 163.516 470.851 163.446 471.145 163.446C471.43 163.446 471.681 163.512 471.898 163.644C472.119 163.776 472.292 163.957 472.415 164.187C472.543 164.416 472.607 164.678 472.607 164.972C472.607 165.023 472.602 165.076 472.594 165.131C472.59 165.182 472.581 165.24 472.568 165.304H470.053V164.729H472.204L471.943 164.959C471.934 164.772 471.898 164.614 471.834 164.487C471.77 164.359 471.679 164.261 471.56 164.193C471.445 164.125 471.302 164.091 471.132 164.091C470.953 164.091 470.798 164.129 470.666 164.206C470.534 164.282 470.432 164.391 470.36 164.531C470.287 164.668 470.251 164.831 470.251 165.023C470.251 165.214 470.29 165.382 470.366 165.527C470.443 165.672 470.551 165.785 470.692 165.865C470.832 165.942 470.994 165.98 471.177 165.98C471.334 165.98 471.479 165.953 471.611 165.897C471.747 165.842 471.862 165.761 471.956 165.655L472.402 166.108C472.253 166.282 472.073 166.414 471.86 166.504C471.647 166.593 471.421 166.638 471.183 166.638ZM475.269 166.574V164.806C475.269 164.602 475.204 164.434 475.072 164.302C474.944 164.17 474.778 164.104 474.574 164.104C474.438 164.104 474.316 164.134 474.21 164.193C474.104 164.253 474.021 164.336 473.961 164.442C473.901 164.548 473.872 164.67 473.872 164.806L473.597 164.653C473.597 164.419 473.648 164.212 473.75 164.034C473.852 163.851 473.993 163.708 474.172 163.606C474.355 163.499 474.559 163.446 474.784 163.446C475.014 163.446 475.218 163.506 475.397 163.625C475.576 163.74 475.716 163.891 475.818 164.078C475.921 164.261 475.972 164.453 475.972 164.653V166.574H475.269ZM473.169 166.574V163.51H473.872V166.574H473.169ZM477.968 166.638C477.692 166.638 477.44 166.568 477.215 166.427C476.994 166.287 476.817 166.097 476.685 165.859C476.557 165.617 476.494 165.346 476.494 165.048C476.494 164.746 476.557 164.476 476.685 164.238C476.817 163.995 476.994 163.804 477.215 163.663C477.44 163.519 477.692 163.446 477.968 163.446C478.202 163.446 478.409 163.497 478.587 163.599C478.77 163.697 478.915 163.833 479.021 164.008C479.128 164.182 479.181 164.38 479.181 164.602V165.482C479.181 165.704 479.128 165.902 479.021 166.076C478.919 166.251 478.777 166.389 478.594 166.491C478.411 166.589 478.202 166.638 477.968 166.638ZM478.083 165.974C478.258 165.974 478.409 165.936 478.536 165.859C478.668 165.778 478.77 165.668 478.843 165.527C478.915 165.387 478.951 165.225 478.951 165.042C478.951 164.859 478.915 164.697 478.843 164.557C478.77 164.416 478.668 164.308 478.536 164.231C478.409 164.151 478.258 164.11 478.083 164.11C477.913 164.11 477.762 164.151 477.63 164.231C477.502 164.308 477.4 164.416 477.323 164.557C477.251 164.697 477.215 164.859 477.215 165.042C477.215 165.225 477.251 165.387 477.323 165.527C477.4 165.668 477.502 165.778 477.63 165.859C477.762 165.936 477.913 165.974 478.083 165.974ZM479.609 166.574H478.906V165.751L479.028 165.004L478.906 164.263V161.978H479.609V166.574ZM483.089 166.638C482.783 166.638 482.506 166.57 482.259 166.434C482.017 166.293 481.823 166.102 481.678 165.859C481.538 165.617 481.468 165.344 481.468 165.042C481.468 164.74 481.538 164.47 481.678 164.231C481.819 163.989 482.008 163.797 482.247 163.657C482.489 163.516 482.757 163.446 483.051 163.446C483.336 163.446 483.587 163.512 483.804 163.644C484.025 163.776 484.198 163.957 484.321 164.187C484.449 164.416 484.513 164.678 484.513 164.972C484.513 165.023 484.508 165.076 484.5 165.131C484.496 165.182 484.487 165.24 484.474 165.304H481.959V164.729H484.11L483.849 164.959C483.84 164.772 483.804 164.614 483.74 164.487C483.676 164.359 483.585 164.261 483.466 164.193C483.351 164.125 483.208 164.091 483.038 164.091C482.859 164.091 482.704 164.129 482.572 164.206C482.44 164.282 482.338 164.391 482.266 164.531C482.193 164.668 482.157 164.831 482.157 165.023C482.157 165.214 482.195 165.382 482.272 165.527C482.349 165.672 482.457 165.785 482.598 165.865C482.738 165.942 482.9 165.98 483.083 165.98C483.24 165.98 483.385 165.953 483.517 165.897C483.653 165.842 483.768 165.761 483.861 165.655L484.308 166.108C484.159 166.282 483.979 166.414 483.766 166.504C483.553 166.593 483.327 166.638 483.089 166.638ZM485.075 166.574V163.51H485.778V166.574H485.075ZM487.112 166.574V164.748C487.112 164.544 487.048 164.387 486.92 164.276C486.792 164.161 486.635 164.104 486.448 164.104C486.32 164.104 486.205 164.129 486.103 164.18C486.005 164.231 485.927 164.306 485.867 164.404C485.807 164.497 485.778 164.612 485.778 164.748L485.503 164.595C485.503 164.361 485.554 164.159 485.656 163.989C485.758 163.819 485.897 163.687 486.071 163.593C486.246 163.495 486.441 163.446 486.658 163.446C486.875 163.446 487.071 163.493 487.246 163.587C487.42 163.68 487.558 163.812 487.661 163.982C487.763 164.153 487.814 164.357 487.814 164.595V166.574H487.112ZM489.148 166.574V164.748C489.148 164.544 489.084 164.387 488.956 164.276C488.829 164.161 488.671 164.104 488.484 164.104C488.361 164.104 488.248 164.129 488.146 164.18C488.044 164.231 487.963 164.306 487.903 164.404C487.844 164.497 487.814 164.612 487.814 164.748L487.418 164.595C487.439 164.361 487.507 164.159 487.622 163.989C487.737 163.819 487.884 163.687 488.063 163.593C488.246 163.495 488.446 163.446 488.663 163.446C488.884 163.446 489.084 163.493 489.263 163.587C489.441 163.68 489.584 163.812 489.69 163.982C489.797 164.153 489.85 164.357 489.85 164.595V166.574H489.148ZM491.856 166.638C491.58 166.638 491.329 166.568 491.103 166.427C490.882 166.287 490.705 166.097 490.573 165.859C490.446 165.617 490.382 165.346 490.382 165.048C490.382 164.746 490.446 164.476 490.573 164.238C490.705 163.995 490.882 163.804 491.103 163.663C491.329 163.519 491.58 163.446 491.856 163.446C492.09 163.446 492.297 163.497 492.476 163.599C492.659 163.697 492.803 163.833 492.91 164.008C493.016 164.182 493.069 164.38 493.069 164.602V165.482C493.069 165.704 493.016 165.902 492.91 166.076C492.807 166.251 492.665 166.389 492.482 166.491C492.299 166.589 492.09 166.638 491.856 166.638ZM491.971 165.974C492.231 165.974 492.439 165.887 492.597 165.712C492.759 165.538 492.839 165.314 492.839 165.042C492.839 164.859 492.803 164.697 492.731 164.557C492.659 164.416 492.556 164.308 492.424 164.231C492.297 164.151 492.146 164.11 491.971 164.11C491.801 164.11 491.65 164.151 491.518 164.231C491.39 164.308 491.288 164.416 491.212 164.557C491.139 164.697 491.103 164.859 491.103 165.042C491.103 165.225 491.139 165.387 491.212 165.527C491.288 165.668 491.39 165.778 491.518 165.859C491.65 165.936 491.801 165.974 491.971 165.974ZM492.795 166.574V165.751L492.916 165.004L492.795 164.263V163.51H493.497V166.574H492.795ZM494.282 166.574V163.51H494.985V166.574H494.282ZM494.634 162.948C494.514 162.948 494.414 162.908 494.334 162.827C494.257 162.746 494.219 162.646 494.219 162.527C494.219 162.408 494.257 162.308 494.334 162.227C494.414 162.146 494.514 162.106 494.634 162.106C494.757 162.106 494.857 162.146 494.934 162.227C495.01 162.308 495.048 162.408 495.048 162.527C495.048 162.646 495.01 162.746 494.934 162.827C494.857 162.908 494.757 162.948 494.634 162.948ZM495.772 166.574V161.978H496.474V166.574H495.772Z" fill="#4F46E5"/>
<path d="M513.432 166.158C513.489 166.214 513.52 166.29 513.52 166.369C513.52 166.449 513.489 166.525 513.432 166.581C513.376 166.638 513.3 166.669 513.221 166.669C513.141 166.669 513.065 166.638 513.009 166.581L511.426 164.998L509.842 166.581C509.786 166.637 509.71 166.669 509.63 166.669C509.551 166.669 509.474 166.637 509.418 166.581C509.362 166.525 509.33 166.448 509.33 166.369C509.33 166.289 509.362 166.213 509.418 166.157L511.002 164.574L509.419 162.99C509.362 162.934 509.331 162.858 509.331 162.778C509.331 162.699 509.362 162.623 509.419 162.567C509.475 162.51 509.551 162.479 509.631 162.479C509.71 162.479 509.786 162.51 509.842 162.567L511.426 164.15L513.009 162.566C513.065 162.51 513.142 162.479 513.221 162.479C513.301 162.479 513.377 162.51 513.433 162.566C513.489 162.623 513.521 162.699 513.521 162.778C513.521 162.858 513.489 162.934 513.433 162.99L511.849 164.574L513.432 166.158Z" fill="#2A2C35"/>
<path d="M208.575 160.535C207.776 160.535 206.995 160.772 206.331 161.215C205.666 161.659 205.149 162.29 204.843 163.028C204.537 163.766 204.457 164.578 204.613 165.362C204.769 166.146 205.154 166.865 205.718 167.43C206.283 167.995 207.003 168.38 207.787 168.536C208.57 168.692 209.382 168.612 210.12 168.306C210.859 168 211.489 167.482 211.933 166.818C212.377 166.154 212.614 165.373 212.614 164.574C212.613 163.503 212.187 162.476 211.43 161.719C210.672 160.962 209.646 160.536 208.575 160.535ZM208.575 167.716C207.953 167.716 207.346 167.531 206.829 167.186C206.313 166.841 205.91 166.35 205.672 165.776C205.434 165.202 205.372 164.57 205.493 163.961C205.615 163.352 205.914 162.792 206.353 162.352C206.793 161.913 207.352 161.614 207.962 161.493C208.571 161.371 209.203 161.434 209.777 161.671C210.351 161.909 210.842 162.312 211.187 162.829C211.532 163.345 211.716 163.953 211.716 164.574C211.715 165.407 211.384 166.206 210.795 166.794C210.206 167.383 209.408 167.715 208.575 167.716ZM208.126 164.724V162.779C208.126 162.66 208.173 162.546 208.257 162.461C208.342 162.377 208.456 162.33 208.575 162.33C208.694 162.33 208.808 162.377 208.892 162.461C208.976 162.546 209.024 162.66 209.024 162.779V164.724C209.024 164.843 208.976 164.957 208.892 165.041C208.808 165.125 208.694 165.172 208.575 165.172C208.456 165.172 208.342 165.125 208.257 165.041C208.173 164.957 208.126 164.843 208.126 164.724ZM209.173 166.22C209.173 166.338 209.138 166.454 209.072 166.552C209.007 166.65 208.913 166.727 208.804 166.772C208.694 166.818 208.574 166.83 208.458 166.807C208.342 166.783 208.235 166.726 208.152 166.643C208.068 166.559 208.011 166.452 207.988 166.336C207.965 166.22 207.977 166.1 208.022 165.991C208.067 165.881 208.144 165.788 208.242 165.722C208.341 165.656 208.456 165.621 208.575 165.621C208.733 165.621 208.886 165.684 208.998 165.796C209.11 165.909 209.173 166.061 209.173 166.22Z" fill="#D99048"/>
</g>
<defs>
<clipPath id="clip0_5198_31333">
<path d="M58.25 108.285C58.25 104.255 61.5174 100.988 65.5479 100.988H617.452C621.483 100.988 624.75 104.255 624.75 108.285V311.715C624.75 315.745 621.483 319.013 617.452 319.013H65.5479C61.5174 319.013 58.25 315.745 58.25 311.715V108.285Z" fill="white"/>
</clipPath>
</defs>
</svg>
