<svg width="683" height="420" viewBox="0 0 683 420" fill="none" xmlns="http://www.w3.org/2000/svg">
<rect width="683" height="420" fill="#F6F6F8"/>
<path d="M205.5 170H477.5C483.171 170 487.374 170.001 490.601 170.435C493.813 170.866 495.983 171.719 497.632 173.368C499.281 175.017 500.134 177.187 500.565 180.399C500.999 183.626 501 187.829 501 193.5V226.5C501 232.171 500.999 236.374 500.565 239.601C500.134 242.813 499.281 244.983 497.632 246.632C495.983 248.281 493.813 249.134 490.601 249.565C487.374 249.999 483.171 250 477.5 250H205.5C199.829 250 195.626 249.999 192.399 249.565C189.187 249.134 187.017 248.281 185.368 246.632C183.719 244.983 182.866 242.813 182.435 239.601C182.001 236.374 182 232.171 182 226.5V193.5C182 187.829 182.001 183.626 182.435 180.399C182.866 177.187 183.719 175.017 185.368 173.368C187.017 171.719 189.187 170.866 192.399 170.435C195.626 170.001 199.829 170 205.5 170Z" fill="#E9F0FF"/>
<path d="M205.5 170H477.5C483.171 170 487.374 170.001 490.601 170.435C493.813 170.866 495.983 171.719 497.632 173.368C499.281 175.017 500.134 177.187 500.565 180.399C500.999 183.626 501 187.829 501 193.5V226.5C501 232.171 500.999 236.374 500.565 239.601C500.134 242.813 499.281 244.983 497.632 246.632C495.983 248.281 493.813 249.134 490.601 249.565C487.374 249.999 483.171 250 477.5 250H205.5C199.829 250 195.626 249.999 192.399 249.565C189.187 249.134 187.017 248.281 185.368 246.632C183.719 244.983 182.866 242.813 182.435 239.601C182.001 236.374 182 232.171 182 226.5V193.5C182 187.829 182.001 183.626 182.435 180.399C182.866 177.187 183.719 175.017 185.368 173.368C187.017 171.719 189.187 170.866 192.399 170.435C195.626 170.001 199.829 170 205.5 170Z" stroke="#4F46E5"/>
<path d="M233.532 199.5V188.62H235.372V199.5H233.532ZM229.884 189.98V188.3H239.02V189.98H229.884ZM240.398 199.5V191.82H242.158V199.5H240.398ZM241.278 190.412C240.98 190.412 240.729 190.311 240.526 190.108C240.334 189.905 240.238 189.655 240.238 189.356C240.238 189.057 240.334 188.807 240.526 188.604C240.729 188.401 240.98 188.3 241.278 188.3C241.588 188.3 241.838 188.401 242.03 188.604C242.222 188.807 242.318 189.057 242.318 189.356C242.318 189.655 242.222 189.905 242.03 190.108C241.838 190.311 241.588 190.412 241.278 190.412ZM245.3 199.5V188.62H247.06V199.5H245.3ZM243.46 193.42V191.82H248.9V193.42H243.46ZM250.179 199.5V187.98H251.939V199.5H250.179ZM257.466 199.66C256.698 199.66 256.005 199.489 255.386 199.148C254.778 198.796 254.293 198.316 253.93 197.708C253.578 197.1 253.402 196.417 253.402 195.66C253.402 194.903 253.578 194.225 253.93 193.628C254.282 193.02 254.757 192.54 255.354 192.188C255.962 191.836 256.634 191.66 257.37 191.66C258.085 191.66 258.714 191.825 259.258 192.156C259.813 192.487 260.245 192.94 260.554 193.516C260.874 194.092 261.034 194.748 261.034 195.484C261.034 195.612 261.023 195.745 261.002 195.884C260.991 196.012 260.97 196.156 260.938 196.316H254.634V194.876H260.026L259.37 195.452C259.349 194.983 259.258 194.588 259.098 194.268C258.938 193.948 258.709 193.703 258.41 193.532C258.122 193.361 257.765 193.276 257.338 193.276C256.89 193.276 256.501 193.372 256.17 193.564C255.839 193.756 255.583 194.028 255.402 194.38C255.221 194.721 255.13 195.132 255.13 195.612C255.13 196.092 255.226 196.513 255.418 196.876C255.61 197.239 255.882 197.521 256.234 197.724C256.586 197.916 256.991 198.012 257.45 198.012C257.845 198.012 258.207 197.943 258.538 197.804C258.879 197.665 259.167 197.463 259.402 197.196L260.522 198.332C260.149 198.769 259.695 199.1 259.162 199.324C258.629 199.548 258.063 199.66 257.466 199.66Z" fill="#2A2C35"/>
<path d="M482.531 197.469C482.671 197.61 482.751 197.801 482.751 198.001C482.751 198.2 482.671 198.391 482.531 198.532C482.39 198.673 482.199 198.752 481.999 198.752C481.8 198.752 481.609 198.673 481.468 198.532L477.5 194.562L473.531 198.531C473.39 198.672 473.199 198.751 472.999 198.751C472.8 198.751 472.609 198.672 472.468 198.531C472.327 198.39 472.248 198.199 472.248 197.999C472.248 197.8 472.327 197.609 472.468 197.468L476.437 193.5L472.469 189.531C472.328 189.39 472.249 189.199 472.249 188.999C472.249 188.8 472.328 188.609 472.469 188.468C472.61 188.327 472.801 188.248 473.001 188.248C473.2 188.248 473.391 188.327 473.532 188.468L477.5 192.437L481.469 188.467C481.61 188.327 481.801 188.247 482.001 188.247C482.2 188.247 482.391 188.327 482.532 188.467C482.673 188.608 482.752 188.799 482.752 188.999C482.752 189.198 482.673 189.389 482.532 189.53L478.562 193.5L482.531 197.469Z" fill="#2A2C35"/>
<path d="M231.516 233.5V232.296H234.218C234.937 232.296 235.567 232.142 236.108 231.834C236.649 231.517 237.069 231.083 237.368 230.532C237.676 229.981 237.83 229.347 237.83 228.628C237.83 227.919 237.676 227.289 237.368 226.738C237.06 226.187 236.635 225.758 236.094 225.45C235.553 225.142 234.927 224.988 234.218 224.988H231.53V223.784H234.246C234.955 223.784 235.609 223.905 236.206 224.148C236.813 224.391 237.335 224.731 237.774 225.17C238.222 225.609 238.567 226.122 238.81 226.71C239.062 227.298 239.188 227.942 239.188 228.642C239.188 229.333 239.062 229.977 238.81 230.574C238.567 231.162 238.227 231.675 237.788 232.114C237.349 232.553 236.827 232.893 236.22 233.136C235.623 233.379 234.974 233.5 234.274 233.5H231.516ZM230.648 233.5V223.784H231.964V233.5H230.648ZM243.867 233.64C243.205 233.64 242.607 233.491 242.075 233.192C241.543 232.884 241.123 232.469 240.815 231.946C240.507 231.423 240.353 230.831 240.353 230.168C240.353 229.515 240.503 228.927 240.801 228.404C241.109 227.881 241.52 227.471 242.033 227.172C242.556 226.864 243.139 226.71 243.783 226.71C244.399 226.71 244.941 226.85 245.407 227.13C245.883 227.41 246.252 227.797 246.513 228.292C246.784 228.787 246.919 229.347 246.919 229.972C246.919 230.065 246.915 230.168 246.905 230.28C246.896 230.383 246.877 230.504 246.849 230.644H241.235V229.594H246.177L245.715 230C245.715 229.552 245.636 229.174 245.477 228.866C245.319 228.549 245.095 228.306 244.805 228.138C244.516 227.961 244.166 227.872 243.755 227.872C243.326 227.872 242.948 227.965 242.621 228.152C242.295 228.339 242.043 228.6 241.865 228.936C241.688 229.272 241.599 229.669 241.599 230.126C241.599 230.593 241.693 231.003 241.879 231.358C242.066 231.703 242.332 231.974 242.677 232.17C243.023 232.357 243.419 232.45 243.867 232.45C244.241 232.45 244.581 232.385 244.889 232.254C245.207 232.123 245.477 231.927 245.701 231.666L246.513 232.492C246.196 232.865 245.804 233.15 245.337 233.346C244.88 233.542 244.39 233.64 243.867 233.64ZM250.407 233.64C250.034 233.64 249.679 233.593 249.343 233.5C249.016 233.397 248.713 233.257 248.433 233.08C248.153 232.893 247.91 232.674 247.705 232.422L248.517 231.61C248.76 231.909 249.04 232.133 249.357 232.282C249.674 232.422 250.029 232.492 250.421 232.492C250.813 232.492 251.116 232.427 251.331 232.296C251.546 232.156 251.653 231.965 251.653 231.722C251.653 231.479 251.564 231.293 251.387 231.162C251.219 231.022 251 230.91 250.729 230.826C250.458 230.733 250.169 230.644 249.861 230.56C249.562 230.467 249.278 230.35 249.007 230.21C248.736 230.07 248.512 229.879 248.335 229.636C248.167 229.393 248.083 229.071 248.083 228.67C248.083 228.269 248.181 227.923 248.377 227.634C248.573 227.335 248.844 227.107 249.189 226.948C249.544 226.789 249.968 226.71 250.463 226.71C250.986 226.71 251.448 226.803 251.849 226.99C252.26 227.167 252.596 227.438 252.857 227.802L252.045 228.614C251.858 228.371 251.625 228.185 251.345 228.054C251.074 227.923 250.766 227.858 250.421 227.858C250.057 227.858 249.777 227.923 249.581 228.054C249.394 228.175 249.301 228.348 249.301 228.572C249.301 228.796 249.385 228.969 249.553 229.09C249.721 229.211 249.94 229.314 250.211 229.398C250.491 229.482 250.78 229.571 251.079 229.664C251.378 229.748 251.662 229.865 251.933 230.014C252.204 230.163 252.423 230.364 252.591 230.616C252.768 230.868 252.857 231.199 252.857 231.61C252.857 232.235 252.633 232.73 252.185 233.094C251.746 233.458 251.154 233.64 250.407 233.64ZM257.306 233.64C256.652 233.64 256.06 233.486 255.528 233.178C255.005 232.87 254.59 232.455 254.282 231.932C253.983 231.4 253.834 230.812 253.834 230.168C253.834 229.515 253.983 228.927 254.282 228.404C254.59 227.881 255.005 227.471 255.528 227.172C256.06 226.864 256.652 226.71 257.306 226.71C257.819 226.71 258.295 226.808 258.734 227.004C259.172 227.191 259.55 227.466 259.868 227.83L259.028 228.67C258.822 228.427 258.57 228.245 258.272 228.124C257.982 227.993 257.66 227.928 257.306 227.928C256.886 227.928 256.512 228.026 256.186 228.222C255.859 228.409 255.602 228.67 255.416 229.006C255.229 229.342 255.136 229.729 255.136 230.168C255.136 230.607 255.229 230.994 255.416 231.33C255.602 231.666 255.859 231.932 256.186 232.128C256.512 232.324 256.886 232.422 257.306 232.422C257.66 232.422 257.982 232.361 258.272 232.24C258.57 232.109 258.827 231.923 259.042 231.68L259.868 232.52C259.56 232.875 259.182 233.15 258.734 233.346C258.295 233.542 257.819 233.64 257.306 233.64ZM261.117 233.5V226.85H262.377V233.5H261.117ZM262.377 229.706L261.901 229.496C261.901 228.647 262.097 227.97 262.489 227.466C262.881 226.962 263.446 226.71 264.183 226.71C264.519 226.71 264.823 226.771 265.093 226.892C265.364 227.004 265.616 227.195 265.849 227.466L265.023 228.32C264.883 228.171 264.729 228.063 264.561 227.998C264.393 227.933 264.197 227.9 263.973 227.9C263.507 227.9 263.124 228.049 262.825 228.348C262.527 228.647 262.377 229.099 262.377 229.706ZM266.751 233.5V226.85H268.011V233.5H266.751ZM267.381 225.52C267.147 225.52 266.956 225.445 266.807 225.296C266.657 225.137 266.583 224.941 266.583 224.708C266.583 224.484 266.657 224.297 266.807 224.148C266.956 223.989 267.147 223.91 267.381 223.91C267.614 223.91 267.805 223.989 267.955 224.148C268.104 224.297 268.179 224.484 268.179 224.708C268.179 224.941 268.104 225.137 267.955 225.296C267.805 225.445 267.614 225.52 267.381 225.52ZM273.367 233.64C272.863 233.64 272.406 233.537 271.995 233.332C271.594 233.117 271.272 232.823 271.029 232.45C270.787 232.077 270.651 231.652 270.623 231.176V229.174C270.651 228.689 270.787 228.264 271.029 227.9C271.281 227.527 271.608 227.237 272.009 227.032C272.42 226.817 272.873 226.71 273.367 226.71C273.974 226.71 274.52 226.864 275.005 227.172C275.5 227.48 275.887 227.895 276.167 228.418C276.447 228.941 276.587 229.529 276.587 230.182C276.587 230.835 276.447 231.423 276.167 231.946C275.887 232.469 275.5 232.884 275.005 233.192C274.52 233.491 273.974 233.64 273.367 233.64ZM269.867 236.286V226.85H271.127V228.6L270.889 230.21L271.127 231.834V236.286H269.867ZM273.157 232.45C273.577 232.45 273.946 232.352 274.263 232.156C274.581 231.96 274.833 231.694 275.019 231.358C275.206 231.013 275.299 230.616 275.299 230.168C275.299 229.729 275.206 229.337 275.019 228.992C274.833 228.647 274.581 228.381 274.263 228.194C273.946 227.998 273.582 227.9 273.171 227.9C272.751 227.9 272.383 227.998 272.065 228.194C271.748 228.381 271.501 228.647 271.323 228.992C271.146 229.337 271.057 229.734 271.057 230.182C271.057 230.621 271.141 231.013 271.309 231.358C271.487 231.694 271.734 231.96 272.051 232.156C272.378 232.352 272.747 232.45 273.157 232.45ZM278.833 233.5V224.064H280.093V233.5H278.833ZM277.195 227.998V226.85H281.731V227.998H277.195ZM282.979 233.5V226.85H284.239V233.5H282.979ZM283.609 225.52C283.376 225.52 283.184 225.445 283.035 225.296C282.886 225.137 282.811 224.941 282.811 224.708C282.811 224.484 282.886 224.297 283.035 224.148C283.184 223.989 283.376 223.91 283.609 223.91C283.842 223.91 284.034 223.989 284.183 224.148C284.332 224.297 284.407 224.484 284.407 224.708C284.407 224.941 284.332 225.137 284.183 225.296C284.034 225.445 283.842 225.52 283.609 225.52ZM289.134 233.64C288.481 233.64 287.893 233.486 287.37 233.178C286.847 232.87 286.432 232.455 286.124 231.932C285.816 231.4 285.662 230.807 285.662 230.154C285.662 229.51 285.816 228.931 286.124 228.418C286.432 227.895 286.847 227.48 287.37 227.172C287.893 226.864 288.481 226.71 289.134 226.71C289.778 226.71 290.361 226.864 290.884 227.172C291.416 227.471 291.836 227.881 292.144 228.404C292.452 228.927 292.606 229.51 292.606 230.154C292.606 230.807 292.452 231.4 292.144 231.932C291.836 232.455 291.416 232.87 290.884 233.178C290.361 233.486 289.778 233.64 289.134 233.64ZM289.134 232.422C289.554 232.422 289.927 232.324 290.254 232.128C290.581 231.932 290.837 231.666 291.024 231.33C291.211 230.985 291.304 230.593 291.304 230.154C291.304 229.725 291.206 229.342 291.01 229.006C290.823 228.67 290.567 228.409 290.24 228.222C289.923 228.026 289.554 227.928 289.134 227.928C288.714 227.928 288.341 228.026 288.014 228.222C287.687 228.409 287.431 228.67 287.244 229.006C287.057 229.342 286.964 229.725 286.964 230.154C286.964 230.593 287.057 230.985 287.244 231.33C287.431 231.666 287.687 231.932 288.014 232.128C288.341 232.324 288.714 232.422 289.134 232.422ZM298.73 233.5V229.622C298.73 229.118 298.571 228.703 298.254 228.376C297.936 228.049 297.526 227.886 297.022 227.886C296.686 227.886 296.387 227.961 296.126 228.11C295.864 228.259 295.659 228.465 295.51 228.726C295.36 228.987 295.286 229.286 295.286 229.622L294.768 229.328C294.768 228.824 294.88 228.376 295.104 227.984C295.328 227.592 295.64 227.284 296.042 227.06C296.443 226.827 296.896 226.71 297.4 226.71C297.904 226.71 298.347 226.836 298.73 227.088C299.122 227.34 299.43 227.671 299.654 228.082C299.878 228.483 299.99 228.913 299.99 229.37V233.5H298.73ZM294.026 233.5V226.85H295.286V233.5H294.026Z" fill="#2A2C35"/>
<path d="M306.644 233.5V223.7H308.254V233.5H306.644ZM307.75 233.5V232.03H312.874V233.5H307.75ZM314.145 233.5V226.78H315.685V233.5H314.145ZM314.915 225.548C314.654 225.548 314.435 225.459 314.257 225.282C314.089 225.105 314.005 224.885 314.005 224.624C314.005 224.363 314.089 224.143 314.257 223.966C314.435 223.789 314.654 223.7 314.915 223.7C315.186 223.7 315.405 223.789 315.573 223.966C315.741 224.143 315.825 224.363 315.825 224.624C315.825 224.885 315.741 225.105 315.573 225.282C315.405 225.459 315.186 225.548 314.915 225.548ZM322.019 233.5V229.622C322.019 229.174 321.874 228.805 321.585 228.516C321.305 228.227 320.941 228.082 320.493 228.082C320.194 228.082 319.928 228.147 319.695 228.278C319.461 228.409 319.279 228.591 319.149 228.824C319.018 229.057 318.953 229.323 318.953 229.622L318.351 229.286C318.351 228.773 318.463 228.32 318.687 227.928C318.911 227.527 319.219 227.214 319.611 226.99C320.012 226.757 320.46 226.64 320.955 226.64C321.459 226.64 321.907 226.771 322.299 227.032C322.691 227.284 322.999 227.615 323.223 228.026C323.447 228.427 323.559 228.847 323.559 229.286V233.5H322.019ZM317.413 233.5V226.78H318.953V233.5H317.413ZM329.394 233.5L326.552 230.07L329.38 226.78H331.214L327.966 230.476L328.036 229.594L331.354 233.5H329.394ZM325.124 233.5V223.42H326.664V233.5H325.124Z" fill="#4F46E5"/>
<path d="M203.625 189.375C203.625 189.078 203.713 188.788 203.878 188.542C204.043 188.295 204.277 188.103 204.551 187.989C204.825 187.876 205.127 187.846 205.418 187.904C205.709 187.962 205.976 188.105 206.186 188.314C206.395 188.524 206.538 188.791 206.596 189.082C206.654 189.373 206.624 189.675 206.511 189.949C206.397 190.223 206.205 190.457 205.958 190.622C205.712 190.787 205.422 190.875 205.125 190.875C204.727 190.875 204.346 190.717 204.064 190.436C203.783 190.154 203.625 189.773 203.625 189.375ZM215.625 193.5C215.625 195.503 215.031 197.46 213.919 199.125C212.806 200.79 211.225 202.088 209.375 202.854C207.525 203.621 205.489 203.821 203.525 203.43C201.561 203.04 199.757 202.075 198.341 200.659C196.925 199.243 195.96 197.439 195.57 195.475C195.179 193.511 195.379 191.475 196.146 189.625C196.912 187.775 198.21 186.194 199.875 185.081C201.54 183.969 203.497 183.375 205.5 183.375C208.184 183.378 210.758 184.446 212.656 186.344C214.554 188.242 215.622 190.816 215.625 193.5ZM213.375 193.5C213.375 191.942 212.913 190.42 212.048 189.125C211.183 187.83 209.953 186.82 208.514 186.224C207.075 185.628 205.491 185.472 203.964 185.776C202.436 186.08 201.033 186.83 199.932 187.932C198.83 189.033 198.08 190.436 197.776 191.964C197.472 193.491 197.628 195.075 198.224 196.514C198.82 197.953 199.83 199.183 201.125 200.048C202.42 200.913 203.942 201.375 205.5 201.375C207.588 201.373 209.59 200.542 211.066 199.066C212.542 197.59 213.373 195.588 213.375 193.5ZM206.625 196.939V193.875C206.625 193.378 206.427 192.901 206.076 192.549C205.724 192.198 205.247 192 204.75 192C204.484 192 204.227 192.093 204.024 192.264C203.821 192.435 203.684 192.673 203.64 192.935C203.595 193.197 203.644 193.466 203.778 193.695C203.913 193.924 204.124 194.098 204.375 194.186V197.25C204.375 197.747 204.573 198.224 204.924 198.576C205.276 198.927 205.753 199.125 206.25 199.125C206.516 199.125 206.773 199.032 206.976 198.861C207.179 198.69 207.316 198.452 207.36 198.19C207.405 197.928 207.356 197.659 207.222 197.43C207.087 197.201 206.876 197.027 206.625 196.939Z" fill="#4F46E5"/>
</svg>
