<svg width="432" height="222" viewBox="0 0 432 222" fill="none" xmlns="http://www.w3.org/2000/svg">
<path d="M112 73H384C389.671 73 393.874 73.0008 397.101 73.4346C400.313 73.8665 402.483 74.7192 404.132 76.3682C405.781 78.0171 406.634 80.1871 407.065 83.3994C407.499 86.6261 407.5 90.8291 407.5 96.5V173.5C407.5 179.171 407.499 183.374 407.065 186.601C406.634 189.813 405.781 191.983 404.132 193.632C402.483 195.281 400.313 196.134 397.101 196.565C393.874 196.999 389.671 197 384 197H112C106.329 197 102.126 196.999 98.8994 196.565C95.6871 196.134 93.5171 195.281 91.8682 193.632C90.2192 191.983 89.3665 189.813 88.9346 186.601C88.5008 183.374 88.5 179.171 88.5 173.5V96.5C88.5 90.8291 88.5008 86.6261 88.9346 83.3994C89.3665 80.1871 90.2192 78.0171 91.8682 76.3682C93.5171 74.7192 95.6871 73.8665 98.8994 73.4346C102.126 73.0008 106.329 73 112 73Z" fill="#E9F0FF"/>
<path d="M112 73H384C389.671 73 393.874 73.0008 397.101 73.4346C400.313 73.8665 402.483 74.7192 404.132 76.3682C405.781 78.0171 406.634 80.1871 407.065 83.3994C407.499 86.6261 407.5 90.8291 407.5 96.5V173.5C407.5 179.171 407.499 183.374 407.065 186.601C406.634 189.813 405.781 191.983 404.132 193.632C402.483 195.281 400.313 196.134 397.101 196.565C393.874 196.999 389.671 197 384 197H112C106.329 197 102.126 196.999 98.8994 196.565C95.6871 196.134 93.5171 195.281 91.8682 193.632C90.2192 191.983 89.3665 189.813 88.9346 186.601C88.5008 183.374 88.5 179.171 88.5 173.5V96.5C88.5 90.8291 88.5008 86.6261 88.9346 83.3994C89.3665 80.1871 90.2192 78.0171 91.8682 76.3682C93.5171 74.7192 95.6871 73.8665 98.8994 73.4346C102.126 73.0008 106.329 73 112 73Z" stroke="#4F46E5"/>
<path d="M140.032 102.5V91.62H141.872V102.5H140.032ZM136.384 92.98V91.3H145.52V92.98H136.384ZM146.898 102.5V94.82H148.658V102.5H146.898ZM147.778 93.412C147.48 93.412 147.229 93.3107 147.026 93.108C146.834 92.9053 146.738 92.6547 146.738 92.356C146.738 92.0573 146.834 91.8067 147.026 91.604C147.229 91.4013 147.48 91.3 147.778 91.3C148.088 91.3 148.338 91.4013 148.53 91.604C148.722 91.8067 148.818 92.0573 148.818 92.356C148.818 92.6547 148.722 92.9053 148.53 93.108C148.338 93.3107 148.088 93.412 147.778 93.412ZM151.8 102.5V91.62H153.56V102.5H151.8ZM149.96 96.42V94.82H155.4V96.42H149.96ZM156.679 102.5V90.98H158.439V102.5H156.679ZM163.966 102.66C163.198 102.66 162.505 102.489 161.886 102.148C161.278 101.796 160.793 101.316 160.43 100.708C160.078 100.1 159.902 99.4173 159.902 98.66C159.902 97.9027 160.078 97.2253 160.43 96.628C160.782 96.02 161.257 95.54 161.854 95.188C162.462 94.836 163.134 94.66 163.87 94.66C164.585 94.66 165.214 94.8253 165.758 95.156C166.313 95.4867 166.745 95.94 167.054 96.516C167.374 97.092 167.534 97.748 167.534 98.484C167.534 98.612 167.523 98.7453 167.502 98.884C167.491 99.012 167.47 99.156 167.438 99.316H161.134V97.876H166.526L165.87 98.452C165.849 97.9827 165.758 97.588 165.598 97.268C165.438 96.948 165.209 96.7027 164.91 96.532C164.622 96.3613 164.265 96.276 163.838 96.276C163.39 96.276 163.001 96.372 162.67 96.564C162.339 96.756 162.083 97.028 161.902 97.38C161.721 97.7213 161.63 98.132 161.63 98.612C161.63 99.092 161.726 99.5133 161.918 99.876C162.11 100.239 162.382 100.521 162.734 100.724C163.086 100.916 163.491 101.012 163.95 101.012C164.345 101.012 164.707 100.943 165.038 100.804C165.379 100.665 165.667 100.463 165.902 100.196L167.022 101.332C166.649 101.769 166.195 102.1 165.662 102.324C165.129 102.548 164.563 102.66 163.966 102.66Z" fill="#2A2C35"/>
<path d="M389.031 100.469C389.171 100.61 389.251 100.801 389.251 101.001C389.251 101.2 389.171 101.391 389.031 101.532C388.89 101.673 388.699 101.752 388.499 101.752C388.3 101.752 388.109 101.673 387.968 101.532L384 97.5625L380.031 101.531C379.89 101.672 379.699 101.751 379.499 101.751C379.3 101.751 379.109 101.672 378.968 101.531C378.827 101.39 378.748 101.199 378.748 100.999C378.748 100.8 378.827 100.609 378.968 100.468L382.937 96.5L378.969 92.5306C378.828 92.3897 378.749 92.1986 378.749 91.9994C378.749 91.8001 378.828 91.609 378.969 91.4681C379.11 91.3272 379.301 91.2481 379.501 91.2481C379.7 91.2481 379.891 91.3272 380.032 91.4681L384 95.4375L387.969 91.4675C388.11 91.3266 388.301 91.2475 388.501 91.2475C388.7 91.2475 388.891 91.3266 389.032 91.4675C389.173 91.6084 389.252 91.7995 389.252 91.9988C389.252 92.198 389.173 92.3891 389.032 92.53L385.062 96.5L389.031 100.469Z" fill="#2A2C35"/>
<path d="M138.016 136.5V135.296H140.718C141.437 135.296 142.067 135.142 142.608 134.834C143.149 134.517 143.569 134.083 143.868 133.532C144.176 132.981 144.33 132.347 144.33 131.628C144.33 130.919 144.176 130.289 143.868 129.738C143.56 129.187 143.135 128.758 142.594 128.45C142.053 128.142 141.427 127.988 140.718 127.988H138.03V126.784H140.746C141.455 126.784 142.109 126.905 142.706 127.148C143.313 127.391 143.835 127.731 144.274 128.17C144.722 128.609 145.067 129.122 145.31 129.71C145.562 130.298 145.688 130.942 145.688 131.642C145.688 132.333 145.562 132.977 145.31 133.574C145.067 134.162 144.727 134.675 144.288 135.114C143.849 135.553 143.327 135.893 142.72 136.136C142.123 136.379 141.474 136.5 140.774 136.5H138.016ZM137.148 136.5V126.784H138.464V136.5H137.148ZM150.367 136.64C149.705 136.64 149.107 136.491 148.575 136.192C148.043 135.884 147.623 135.469 147.315 134.946C147.007 134.423 146.853 133.831 146.853 133.168C146.853 132.515 147.003 131.927 147.301 131.404C147.609 130.881 148.02 130.471 148.533 130.172C149.056 129.864 149.639 129.71 150.283 129.71C150.899 129.71 151.441 129.85 151.907 130.13C152.383 130.41 152.752 130.797 153.013 131.292C153.284 131.787 153.419 132.347 153.419 132.972C153.419 133.065 153.415 133.168 153.405 133.28C153.396 133.383 153.377 133.504 153.349 133.644H147.735V132.594H152.677L152.215 133C152.215 132.552 152.136 132.174 151.977 131.866C151.819 131.549 151.595 131.306 151.305 131.138C151.016 130.961 150.666 130.872 150.255 130.872C149.826 130.872 149.448 130.965 149.121 131.152C148.795 131.339 148.543 131.6 148.365 131.936C148.188 132.272 148.099 132.669 148.099 133.126C148.099 133.593 148.193 134.003 148.379 134.358C148.566 134.703 148.832 134.974 149.177 135.17C149.523 135.357 149.919 135.45 150.367 135.45C150.741 135.45 151.081 135.385 151.389 135.254C151.707 135.123 151.977 134.927 152.201 134.666L153.013 135.492C152.696 135.865 152.304 136.15 151.837 136.346C151.38 136.542 150.89 136.64 150.367 136.64ZM156.907 136.64C156.534 136.64 156.179 136.593 155.843 136.5C155.516 136.397 155.213 136.257 154.933 136.08C154.653 135.893 154.41 135.674 154.205 135.422L155.017 134.61C155.26 134.909 155.54 135.133 155.857 135.282C156.174 135.422 156.529 135.492 156.921 135.492C157.313 135.492 157.616 135.427 157.831 135.296C158.046 135.156 158.153 134.965 158.153 134.722C158.153 134.479 158.064 134.293 157.887 134.162C157.719 134.022 157.5 133.91 157.229 133.826C156.958 133.733 156.669 133.644 156.361 133.56C156.062 133.467 155.778 133.35 155.507 133.21C155.236 133.07 155.012 132.879 154.835 132.636C154.667 132.393 154.583 132.071 154.583 131.67C154.583 131.269 154.681 130.923 154.877 130.634C155.073 130.335 155.344 130.107 155.689 129.948C156.044 129.789 156.468 129.71 156.963 129.71C157.486 129.71 157.948 129.803 158.349 129.99C158.76 130.167 159.096 130.438 159.357 130.802L158.545 131.614C158.358 131.371 158.125 131.185 157.845 131.054C157.574 130.923 157.266 130.858 156.921 130.858C156.557 130.858 156.277 130.923 156.081 131.054C155.894 131.175 155.801 131.348 155.801 131.572C155.801 131.796 155.885 131.969 156.053 132.09C156.221 132.211 156.44 132.314 156.711 132.398C156.991 132.482 157.28 132.571 157.579 132.664C157.878 132.748 158.162 132.865 158.433 133.014C158.704 133.163 158.923 133.364 159.091 133.616C159.268 133.868 159.357 134.199 159.357 134.61C159.357 135.235 159.133 135.73 158.685 136.094C158.246 136.458 157.654 136.64 156.907 136.64ZM163.806 136.64C163.152 136.64 162.56 136.486 162.028 136.178C161.505 135.87 161.09 135.455 160.782 134.932C160.483 134.4 160.334 133.812 160.334 133.168C160.334 132.515 160.483 131.927 160.782 131.404C161.09 130.881 161.505 130.471 162.028 130.172C162.56 129.864 163.152 129.71 163.806 129.71C164.319 129.71 164.795 129.808 165.234 130.004C165.672 130.191 166.05 130.466 166.368 130.83L165.528 131.67C165.322 131.427 165.07 131.245 164.772 131.124C164.482 130.993 164.16 130.928 163.806 130.928C163.386 130.928 163.012 131.026 162.686 131.222C162.359 131.409 162.102 131.67 161.916 132.006C161.729 132.342 161.636 132.729 161.636 133.168C161.636 133.607 161.729 133.994 161.916 134.33C162.102 134.666 162.359 134.932 162.686 135.128C163.012 135.324 163.386 135.422 163.806 135.422C164.16 135.422 164.482 135.361 164.772 135.24C165.07 135.109 165.327 134.923 165.542 134.68L166.368 135.52C166.06 135.875 165.682 136.15 165.234 136.346C164.795 136.542 164.319 136.64 163.806 136.64ZM167.617 136.5V129.85H168.877V136.5H167.617ZM168.877 132.706L168.401 132.496C168.401 131.647 168.597 130.97 168.989 130.466C169.381 129.962 169.946 129.71 170.683 129.71C171.019 129.71 171.323 129.771 171.593 129.892C171.864 130.004 172.116 130.195 172.349 130.466L171.523 131.32C171.383 131.171 171.229 131.063 171.061 130.998C170.893 130.933 170.697 130.9 170.473 130.9C170.007 130.9 169.624 131.049 169.325 131.348C169.027 131.647 168.877 132.099 168.877 132.706ZM173.251 136.5V129.85H174.511V136.5H173.251ZM173.881 128.52C173.647 128.52 173.456 128.445 173.307 128.296C173.157 128.137 173.083 127.941 173.083 127.708C173.083 127.484 173.157 127.297 173.307 127.148C173.456 126.989 173.647 126.91 173.881 126.91C174.114 126.91 174.305 126.989 174.455 127.148C174.604 127.297 174.679 127.484 174.679 127.708C174.679 127.941 174.604 128.137 174.455 128.296C174.305 128.445 174.114 128.52 173.881 128.52ZM179.867 136.64C179.363 136.64 178.906 136.537 178.495 136.332C178.094 136.117 177.772 135.823 177.529 135.45C177.287 135.077 177.151 134.652 177.123 134.176V132.174C177.151 131.689 177.287 131.264 177.529 130.9C177.781 130.527 178.108 130.237 178.509 130.032C178.92 129.817 179.373 129.71 179.867 129.71C180.474 129.71 181.02 129.864 181.505 130.172C182 130.48 182.387 130.895 182.667 131.418C182.947 131.941 183.087 132.529 183.087 133.182C183.087 133.835 182.947 134.423 182.667 134.946C182.387 135.469 182 135.884 181.505 136.192C181.02 136.491 180.474 136.64 179.867 136.64ZM176.367 139.286V129.85H177.627V131.6L177.389 133.21L177.627 134.834V139.286H176.367ZM179.657 135.45C180.077 135.45 180.446 135.352 180.763 135.156C181.081 134.96 181.333 134.694 181.519 134.358C181.706 134.013 181.799 133.616 181.799 133.168C181.799 132.729 181.706 132.337 181.519 131.992C181.333 131.647 181.081 131.381 180.763 131.194C180.446 130.998 180.082 130.9 179.671 130.9C179.251 130.9 178.883 130.998 178.565 131.194C178.248 131.381 178.001 131.647 177.823 131.992C177.646 132.337 177.557 132.734 177.557 133.182C177.557 133.621 177.641 134.013 177.809 134.358C177.987 134.694 178.234 134.96 178.551 135.156C178.878 135.352 179.247 135.45 179.657 135.45ZM185.333 136.5V127.064H186.593V136.5H185.333ZM183.695 130.998V129.85H188.231V130.998H183.695ZM189.479 136.5V129.85H190.739V136.5H189.479ZM190.109 128.52C189.876 128.52 189.684 128.445 189.535 128.296C189.386 128.137 189.311 127.941 189.311 127.708C189.311 127.484 189.386 127.297 189.535 127.148C189.684 126.989 189.876 126.91 190.109 126.91C190.342 126.91 190.534 126.989 190.683 127.148C190.832 127.297 190.907 127.484 190.907 127.708C190.907 127.941 190.832 128.137 190.683 128.296C190.534 128.445 190.342 128.52 190.109 128.52ZM195.634 136.64C194.981 136.64 194.393 136.486 193.87 136.178C193.347 135.87 192.932 135.455 192.624 134.932C192.316 134.4 192.162 133.807 192.162 133.154C192.162 132.51 192.316 131.931 192.624 131.418C192.932 130.895 193.347 130.48 193.87 130.172C194.393 129.864 194.981 129.71 195.634 129.71C196.278 129.71 196.861 129.864 197.384 130.172C197.916 130.471 198.336 130.881 198.644 131.404C198.952 131.927 199.106 132.51 199.106 133.154C199.106 133.807 198.952 134.4 198.644 134.932C198.336 135.455 197.916 135.87 197.384 136.178C196.861 136.486 196.278 136.64 195.634 136.64ZM195.634 135.422C196.054 135.422 196.427 135.324 196.754 135.128C197.081 134.932 197.337 134.666 197.524 134.33C197.711 133.985 197.804 133.593 197.804 133.154C197.804 132.725 197.706 132.342 197.51 132.006C197.323 131.67 197.067 131.409 196.74 131.222C196.423 131.026 196.054 130.928 195.634 130.928C195.214 130.928 194.841 131.026 194.514 131.222C194.187 131.409 193.931 131.67 193.744 132.006C193.557 132.342 193.464 132.725 193.464 133.154C193.464 133.593 193.557 133.985 193.744 134.33C193.931 134.666 194.187 134.932 194.514 135.128C194.841 135.324 195.214 135.422 195.634 135.422ZM205.23 136.5V132.622C205.23 132.118 205.071 131.703 204.754 131.376C204.436 131.049 204.026 130.886 203.522 130.886C203.186 130.886 202.887 130.961 202.626 131.11C202.364 131.259 202.159 131.465 202.01 131.726C201.86 131.987 201.786 132.286 201.786 132.622L201.268 132.328C201.268 131.824 201.38 131.376 201.604 130.984C201.828 130.592 202.14 130.284 202.542 130.06C202.943 129.827 203.396 129.71 203.9 129.71C204.404 129.71 204.847 129.836 205.23 130.088C205.622 130.34 205.93 130.671 206.154 131.082C206.378 131.483 206.49 131.913 206.49 132.37V136.5H205.23ZM200.526 136.5V129.85H201.786V136.5H200.526Z" fill="#2A2C35"/>
<path d="M213.144 136.5V126.7H214.754V136.5H213.144ZM214.25 136.5V135.03H219.374V136.5H214.25ZM220.645 136.5V129.78H222.185V136.5H220.645ZM221.415 128.548C221.154 128.548 220.935 128.459 220.757 128.282C220.589 128.105 220.505 127.885 220.505 127.624C220.505 127.363 220.589 127.143 220.757 126.966C220.935 126.789 221.154 126.7 221.415 126.7C221.686 126.7 221.905 126.789 222.073 126.966C222.241 127.143 222.325 127.363 222.325 127.624C222.325 127.885 222.241 128.105 222.073 128.282C221.905 128.459 221.686 128.548 221.415 128.548ZM228.519 136.5V132.622C228.519 132.174 228.374 131.805 228.085 131.516C227.805 131.227 227.441 131.082 226.993 131.082C226.694 131.082 226.428 131.147 226.195 131.278C225.961 131.409 225.779 131.591 225.649 131.824C225.518 132.057 225.453 132.323 225.453 132.622L224.851 132.286C224.851 131.773 224.963 131.32 225.187 130.928C225.411 130.527 225.719 130.214 226.111 129.99C226.512 129.757 226.96 129.64 227.455 129.64C227.959 129.64 228.407 129.771 228.799 130.032C229.191 130.284 229.499 130.615 229.723 131.026C229.947 131.427 230.059 131.847 230.059 132.286V136.5H228.519ZM223.913 136.5V129.78H225.453V136.5H223.913ZM235.894 136.5L233.052 133.07L235.88 129.78H237.714L234.466 133.476L234.536 132.594L237.854 136.5H235.894ZM231.624 136.5V126.42H233.164V136.5H231.624Z" fill="#4F46E5"/>
<path d="M136 169.5C136 165.78 136 163.92 136.409 162.394C137.518 158.253 140.753 155.018 144.894 153.909C146.42 153.5 148.28 153.5 152 153.5H183C186.72 153.5 188.58 153.5 190.106 153.909C194.247 155.018 197.482 158.253 198.591 162.394C199 163.92 199 165.78 199 169.5V169.5C199 173.22 199 175.08 198.591 176.606C197.482 180.747 194.247 183.982 190.106 185.091C188.58 185.5 186.72 185.5 183 185.5H152C148.28 185.5 146.42 185.5 144.894 185.091C140.753 183.982 137.518 180.747 136.409 176.606C136 175.08 136 173.22 136 169.5V169.5Z" fill="#4F46E5"/>
<path d="M146.722 175.5V173.9H149.938C150.504 173.9 150.941 173.724 151.25 173.372C151.56 173.02 151.714 172.615 151.714 172.156C151.714 171.847 151.645 171.559 151.506 171.292C151.368 171.025 151.165 170.812 150.898 170.652C150.632 170.492 150.312 170.412 149.938 170.412H146.722V168.812H149.666C150.146 168.812 150.53 168.689 150.818 168.444C151.106 168.199 151.25 167.836 151.25 167.356C151.25 166.876 151.106 166.513 150.818 166.268C150.53 166.023 150.146 165.9 149.666 165.9H146.722V164.3H149.714C150.472 164.3 151.101 164.439 151.602 164.716C152.104 164.993 152.477 165.351 152.722 165.788C152.968 166.225 153.09 166.695 153.09 167.196C153.09 167.783 152.925 168.3 152.594 168.748C152.274 169.196 151.8 169.559 151.17 169.836L151.314 169.26C152.018 169.548 152.568 169.953 152.962 170.476C153.357 170.999 153.554 171.612 153.554 172.316C153.554 172.892 153.41 173.42 153.122 173.9C152.845 174.38 152.429 174.769 151.874 175.068C151.33 175.356 150.658 175.5 149.858 175.5H146.722ZM145.458 175.5V164.3H147.298V175.5H145.458ZM158.323 175.66C157.673 175.66 157.091 175.516 156.579 175.228C156.078 174.94 155.683 174.545 155.395 174.044C155.118 173.532 154.979 172.945 154.979 172.284V167.82H156.739V172.204C156.739 172.577 156.798 172.897 156.915 173.164C157.043 173.42 157.225 173.617 157.459 173.756C157.705 173.895 157.993 173.964 158.323 173.964C158.835 173.964 159.225 173.815 159.491 173.516C159.769 173.207 159.907 172.769 159.907 172.204V167.82H161.667V172.284C161.667 172.956 161.523 173.548 161.235 174.06C160.958 174.561 160.569 174.956 160.067 175.244C159.566 175.521 158.985 175.66 158.323 175.66ZM164.605 175.5V164.62H166.365V175.5H164.605ZM162.765 169.42V167.82H172.845V169.42H162.765ZM169.245 175.5V164.62H171.005V175.5H169.245ZM177.426 175.66C176.679 175.66 176.002 175.484 175.394 175.132C174.786 174.769 174.3 174.284 173.938 173.676C173.586 173.068 173.41 172.391 173.41 171.644C173.41 170.897 173.586 170.225 173.938 169.628C174.3 169.031 174.786 168.556 175.394 168.204C176.002 167.841 176.679 167.66 177.426 167.66C178.183 167.66 178.866 167.836 179.474 168.188C180.082 168.54 180.562 169.02 180.914 169.628C181.276 170.225 181.458 170.897 181.458 171.644C181.458 172.391 181.276 173.068 180.914 173.676C180.562 174.284 180.082 174.769 179.474 175.132C178.866 175.484 178.183 175.66 177.426 175.66ZM177.426 173.964C177.863 173.964 178.247 173.868 178.578 173.676C178.919 173.473 179.18 173.196 179.362 172.844C179.554 172.492 179.65 172.092 179.65 171.644C179.65 171.196 179.554 170.801 179.362 170.46C179.17 170.119 178.908 169.852 178.578 169.66C178.247 169.457 177.863 169.356 177.426 169.356C176.999 169.356 176.615 169.457 176.274 169.66C175.943 169.852 175.682 170.119 175.49 170.46C175.308 170.801 175.218 171.196 175.218 171.644C175.218 172.092 175.308 172.492 175.49 172.844C175.682 173.196 175.943 173.473 176.274 173.676C176.615 173.868 176.999 173.964 177.426 173.964ZM188.185 175.5V171.068C188.185 170.556 188.02 170.135 187.689 169.804C187.369 169.473 186.953 169.308 186.441 169.308C186.1 169.308 185.796 169.383 185.529 169.532C185.263 169.681 185.055 169.889 184.905 170.156C184.756 170.423 184.681 170.727 184.681 171.068L183.993 170.684C183.993 170.097 184.121 169.58 184.377 169.132C184.633 168.673 184.985 168.316 185.433 168.06C185.892 167.793 186.404 167.66 186.969 167.66C187.545 167.66 188.057 167.809 188.505 168.108C188.953 168.396 189.305 168.775 189.561 169.244C189.817 169.703 189.945 170.183 189.945 170.684V175.5H188.185ZM182.921 175.5V167.82H184.681V175.5H182.921Z" fill="white"/>
<path d="M217.722 175.5V173.9H220.938C221.504 173.9 221.941 173.724 222.25 173.372C222.56 173.02 222.714 172.615 222.714 172.156C222.714 171.847 222.645 171.559 222.506 171.292C222.368 171.025 222.165 170.812 221.898 170.652C221.632 170.492 221.312 170.412 220.938 170.412H217.722V168.812H220.666C221.146 168.812 221.53 168.689 221.818 168.444C222.106 168.199 222.25 167.836 222.25 167.356C222.25 166.876 222.106 166.513 221.818 166.268C221.53 166.023 221.146 165.9 220.666 165.9H217.722V164.3H220.714C221.472 164.3 222.101 164.439 222.602 164.716C223.104 164.993 223.477 165.351 223.722 165.788C223.968 166.225 224.09 166.695 224.09 167.196C224.09 167.783 223.925 168.3 223.594 168.748C223.274 169.196 222.8 169.559 222.17 169.836L222.314 169.26C223.018 169.548 223.568 169.953 223.962 170.476C224.357 170.999 224.554 171.612 224.554 172.316C224.554 172.892 224.41 173.42 224.122 173.9C223.845 174.38 223.429 174.769 222.874 175.068C222.33 175.356 221.658 175.5 220.858 175.5H217.722ZM216.458 175.5V164.3H218.298V175.5H216.458ZM229.323 175.66C228.673 175.66 228.091 175.516 227.579 175.228C227.078 174.94 226.683 174.545 226.395 174.044C226.118 173.532 225.979 172.945 225.979 172.284V167.82H227.739V172.204C227.739 172.577 227.798 172.897 227.915 173.164C228.043 173.42 228.225 173.617 228.459 173.756C228.705 173.895 228.993 173.964 229.323 173.964C229.835 173.964 230.225 173.815 230.491 173.516C230.769 173.207 230.907 172.769 230.907 172.204V167.82H232.667V172.284C232.667 172.956 232.523 173.548 232.235 174.06C231.958 174.561 231.569 174.956 231.067 175.244C230.566 175.521 229.985 175.66 229.323 175.66ZM235.605 175.5V164.62H237.365V175.5H235.605ZM233.765 169.42V167.82H243.845V169.42H233.765ZM240.245 175.5V164.62H242.005V175.5H240.245ZM248.426 175.66C247.679 175.66 247.002 175.484 246.394 175.132C245.786 174.769 245.3 174.284 244.938 173.676C244.586 173.068 244.41 172.391 244.41 171.644C244.41 170.897 244.586 170.225 244.938 169.628C245.3 169.031 245.786 168.556 246.394 168.204C247.002 167.841 247.679 167.66 248.426 167.66C249.183 167.66 249.866 167.836 250.474 168.188C251.082 168.54 251.562 169.02 251.914 169.628C252.276 170.225 252.458 170.897 252.458 171.644C252.458 172.391 252.276 173.068 251.914 173.676C251.562 174.284 251.082 174.769 250.474 175.132C249.866 175.484 249.183 175.66 248.426 175.66ZM248.426 173.964C248.863 173.964 249.247 173.868 249.578 173.676C249.919 173.473 250.18 173.196 250.362 172.844C250.554 172.492 250.65 172.092 250.65 171.644C250.65 171.196 250.554 170.801 250.362 170.46C250.17 170.119 249.908 169.852 249.578 169.66C249.247 169.457 248.863 169.356 248.426 169.356C247.999 169.356 247.615 169.457 247.274 169.66C246.943 169.852 246.682 170.119 246.49 170.46C246.308 170.801 246.218 171.196 246.218 171.644C246.218 172.092 246.308 172.492 246.49 172.844C246.682 173.196 246.943 173.473 247.274 173.676C247.615 173.868 247.999 173.964 248.426 173.964ZM259.185 175.5V171.068C259.185 170.556 259.02 170.135 258.689 169.804C258.369 169.473 257.953 169.308 257.441 169.308C257.1 169.308 256.796 169.383 256.529 169.532C256.263 169.681 256.055 169.889 255.905 170.156C255.756 170.423 255.681 170.727 255.681 171.068L254.993 170.684C254.993 170.097 255.121 169.58 255.377 169.132C255.633 168.673 255.985 168.316 256.433 168.06C256.892 167.793 257.404 167.66 257.969 167.66C258.545 167.66 259.057 167.809 259.505 168.108C259.953 168.396 260.305 168.775 260.561 169.244C260.817 169.703 260.945 170.183 260.945 170.684V175.5H259.185ZM253.921 175.5V167.82H255.681V175.5H253.921Z" fill="#4F46E5"/>
<path d="M110.125 92.375C110.125 92.0783 110.213 91.7883 110.378 91.5416C110.543 91.295 110.777 91.1027 111.051 90.9892C111.325 90.8756 111.627 90.8459 111.918 90.9038C112.209 90.9617 112.476 91.1046 112.686 91.3143C112.895 91.5241 113.038 91.7914 113.096 92.0824C113.154 92.3733 113.124 92.6749 113.011 92.949C112.897 93.2231 112.705 93.4574 112.458 93.6222C112.212 93.787 111.922 93.875 111.625 93.875C111.227 93.875 110.846 93.717 110.564 93.4357C110.283 93.1544 110.125 92.7728 110.125 92.375ZM122.125 96.5C122.125 98.5025 121.531 100.46 120.419 102.125C119.306 103.79 117.725 105.088 115.875 105.854C114.025 106.621 111.989 106.821 110.025 106.43C108.061 106.04 106.257 105.075 104.841 103.659C103.425 102.243 102.46 100.439 102.07 98.4753C101.679 96.5112 101.879 94.4754 102.646 92.6253C103.412 90.7752 104.71 89.1939 106.375 88.0814C108.04 86.9688 109.997 86.375 112 86.375C114.684 86.378 117.258 87.4457 119.156 89.3438C121.054 91.242 122.122 93.8156 122.125 96.5ZM119.875 96.5C119.875 94.9425 119.413 93.4199 118.548 92.1249C117.683 90.8298 116.453 89.8205 115.014 89.2244C113.575 88.6284 111.991 88.4725 110.464 88.7763C108.936 89.0802 107.533 89.8302 106.432 90.9315C105.33 92.0329 104.58 93.4361 104.276 94.9637C103.972 96.4913 104.128 98.0747 104.724 99.5136C105.32 100.953 106.33 102.183 107.625 103.048C108.92 103.913 110.442 104.375 112 104.375C114.088 104.373 116.09 103.542 117.566 102.066C119.042 100.59 119.873 98.5879 119.875 96.5ZM113.125 99.9387V96.875C113.125 96.3777 112.927 95.9008 112.576 95.5492C112.224 95.1975 111.747 95 111.25 95C110.984 94.9996 110.727 95.0932 110.524 95.2643C110.321 95.4354 110.184 95.673 110.14 95.9348C110.095 96.1967 110.144 96.466 110.278 96.695C110.413 96.9241 110.624 97.0981 110.875 97.1863V100.25C110.875 100.747 111.073 101.224 111.424 101.576C111.776 101.927 112.253 102.125 112.75 102.125C113.016 102.125 113.273 102.032 113.476 101.861C113.679 101.69 113.816 101.452 113.86 101.19C113.905 100.928 113.856 100.659 113.722 100.43C113.587 100.201 113.376 100.027 113.125 99.9387Z" fill="#4F46E5"/>
<g clip-path="url(#clip0_14118_35786)">
<g clip-path="url(#clip1_14118_35786)">
<rect x="100" y="24" width="24" height="24" rx="12" fill="#E1172F"/>
<path d="M108.416 41V39.4489L112.04 36.093C112.349 35.7947 112.607 35.5263 112.816 35.2876C113.028 35.049 113.189 34.8153 113.298 34.5866C113.408 34.3546 113.462 34.1044 113.462 33.8359C113.462 33.5376 113.394 33.2808 113.258 33.0653C113.123 32.8466 112.937 32.6792 112.702 32.5632C112.466 32.4439 112.199 32.3842 111.901 32.3842C111.59 32.3842 111.318 32.4472 111.086 32.5732C110.854 32.6991 110.675 32.8797 110.549 33.1151C110.423 33.3504 110.36 33.6304 110.36 33.9553H108.317C108.317 33.2891 108.467 32.7107 108.769 32.2202C109.071 31.7296 109.493 31.3501 110.037 31.0817C110.58 30.8132 111.207 30.679 111.916 30.679C112.645 30.679 113.28 30.8082 113.82 31.0668C114.364 31.322 114.786 31.6766 115.088 32.1307C115.39 32.5848 115.54 33.1051 115.54 33.6918C115.54 34.0762 115.464 34.4557 115.312 34.8303C115.163 35.2048 114.896 35.6207 114.511 36.0781C114.127 36.5322 113.585 37.0774 112.886 37.7138L111.399 39.1705V39.2401H115.675V41H108.416Z" fill="#F6F6F8"/>
</g>
<rect x="111.5" y="48" width="1" height="36" fill="#E1172F"/>
</g>
<g clip-path="url(#clip2_14118_35786)">
<g clip-path="url(#clip3_14118_35786)">
<rect x="24" y="84" width="24" height="24" rx="12" fill="#E1172F"/>
<path d="M37.8302 90.8182V101H35.6775V92.8615H35.6178L33.2861 94.3232V92.4141L35.8067 90.8182H37.8302Z" fill="#F6F6F8"/>
</g>
<rect x="48" y="95.5" width="40" height="1" fill="#E1172F"/>
</g>
<g clip-path="url(#clip4_14118_35786)">
<g clip-path="url(#clip5_14118_35786)">
<rect x="24" y="119" width="24" height="24" rx="12" fill="#E1172F"/>
<path d="M36.0323 136.139C35.3297 136.139 34.7032 136.01 34.1531 135.751C33.6062 135.493 33.172 135.137 32.8505 134.683C32.529 134.228 32.3616 133.708 32.3484 133.121H34.4364C34.4596 133.516 34.6254 133.836 34.9336 134.081C35.2418 134.326 35.6081 134.449 36.0323 134.449C36.3704 134.449 36.6687 134.374 36.9272 134.225C37.189 134.073 37.3929 133.862 37.5387 133.594C37.6879 133.322 37.7624 133.01 37.7624 132.659C37.7624 132.301 37.6862 131.986 37.5337 131.714C37.3846 131.443 37.1774 131.231 36.9123 131.078C36.6471 130.926 36.3439 130.848 36.0025 130.844C35.7042 130.844 35.4142 130.906 35.1325 131.028C34.854 131.151 34.637 131.318 34.4812 131.531L32.5671 131.188L33.0494 125.818H39.2738V127.578H34.8242L34.5607 130.129H34.6204C34.7994 129.877 35.0695 129.668 35.4308 129.502C35.792 129.336 36.1964 129.254 36.6438 129.254C37.257 129.254 37.8039 129.398 38.2844 129.686C38.765 129.974 39.1445 130.371 39.4229 130.874C39.7013 131.375 39.8389 131.951 39.8356 132.604C39.8389 133.29 39.6798 133.9 39.3583 134.434C39.0401 134.964 38.5943 135.382 38.021 135.687C37.4509 135.988 36.788 136.139 36.0323 136.139Z" fill="#F6F6F8"/>
</g>
<rect x="48" y="130.5" width="76" height="1" fill="#E1172F"/>
</g>
<g clip-path="url(#clip6_14118_35786)">
<g clip-path="url(#clip7_14118_35786)">
<rect x="24" y="157" width="24" height="24" rx="12" fill="#E1172F"/>
<path d="M36.1119 174.139C35.5882 174.136 35.0827 174.048 34.5955 173.876C34.1116 173.703 33.6774 173.423 33.293 173.036C32.9085 172.648 32.6036 172.134 32.3782 171.494C32.1561 170.855 32.0451 170.069 32.0451 169.138C32.0484 168.283 32.1462 167.519 32.3384 166.846C32.534 166.17 32.8124 165.596 33.1737 165.126C33.5382 164.655 33.9741 164.297 34.4812 164.052C34.9883 163.803 35.5567 163.679 36.1864 163.679C36.8659 163.679 37.4658 163.812 37.9862 164.077C38.5065 164.339 38.9241 164.695 39.239 165.146C39.5572 165.596 39.7494 166.102 39.8157 166.662H37.6928C37.61 166.307 37.436 166.029 37.1708 165.827C36.9057 165.625 36.5775 165.523 36.1864 165.523C35.5236 165.523 35.0198 165.812 34.6751 166.388C34.3337 166.965 34.1597 167.749 34.1531 168.74H34.2227C34.3751 168.438 34.5806 168.182 34.8391 167.969C35.101 167.754 35.3976 167.59 35.729 167.477C36.0638 167.361 36.4168 167.303 36.788 167.303C37.3912 167.303 37.9281 167.446 38.3988 167.731C38.8694 168.013 39.2406 168.4 39.5124 168.894C39.7842 169.388 39.9201 169.953 39.9201 170.589C39.9201 171.279 39.7594 171.892 39.4379 172.429C39.1197 172.966 38.6739 173.387 38.1005 173.692C37.5304 173.993 36.8675 174.143 36.1119 174.139ZM36.1019 172.449C36.4334 172.449 36.73 172.369 36.9918 172.21C37.2537 172.051 37.4592 171.836 37.6083 171.564C37.7575 171.292 37.832 170.987 37.832 170.649C37.832 170.311 37.7575 170.008 37.6083 169.739C37.4625 169.471 37.2603 169.257 37.0018 169.098C36.7433 168.939 36.4483 168.859 36.1168 168.859C35.8683 168.859 35.6379 168.906 35.4258 168.999C35.217 169.091 35.033 169.221 34.8739 169.386C34.7182 169.552 34.5955 169.744 34.506 169.963C34.4165 170.179 34.3718 170.409 34.3718 170.654C34.3718 170.982 34.4464 171.282 34.5955 171.554C34.748 171.826 34.9535 172.043 35.212 172.205C35.4738 172.368 35.7705 172.449 36.1019 172.449Z" fill="#F6F6F8"/>
</g>
<rect x="48" y="168.5" width="76" height="1" fill="#E1172F"/>
</g>
<g clip-path="url(#clip8_14118_35786)">
<g clip-path="url(#clip9_14118_35786)">
<rect x="140" y="24" width="24" height="24" rx="12" fill="#E1172F"/>
<path d="M151.975 41.1392C151.232 41.1392 150.571 41.0116 149.991 40.7564C149.414 40.4979 148.958 40.1432 148.624 39.6925C148.292 39.2384 148.122 38.7147 148.112 38.1214H150.279C150.292 38.37 150.374 38.5888 150.523 38.7777C150.675 38.9633 150.877 39.1075 151.129 39.2102C151.381 39.313 151.665 39.3643 151.979 39.3643C152.308 39.3643 152.598 39.3063 152.85 39.1903C153.101 39.0743 153.299 38.9136 153.441 38.7081C153.584 38.5026 153.655 38.2656 153.655 37.9972C153.655 37.7254 153.579 37.4851 153.426 37.2763C153.277 37.0642 153.062 36.8984 152.78 36.7791C152.502 36.6598 152.17 36.6001 151.786 36.6001H150.836V35.0192H151.786C152.11 35.0192 152.397 34.9628 152.646 34.8501C152.898 34.7375 153.093 34.5817 153.232 34.3828C153.372 34.1806 153.441 33.9453 153.441 33.6768C153.441 33.4216 153.38 33.1979 153.257 33.0057C153.138 32.8101 152.969 32.6577 152.75 32.5483C152.535 32.4389 152.283 32.3842 151.994 32.3842C151.703 32.3842 151.436 32.4373 151.194 32.5433C150.952 32.6461 150.758 32.7936 150.612 32.9858C150.466 33.178 150.389 33.4034 150.379 33.6619H148.315C148.325 33.0753 148.493 32.5582 148.818 32.1108C149.142 31.6634 149.58 31.3137 150.13 31.0618C150.684 30.8066 151.308 30.679 152.004 30.679C152.707 30.679 153.322 30.8066 153.849 31.0618C154.376 31.317 154.785 31.6617 155.077 32.0959C155.372 32.5268 155.518 33.0107 155.514 33.5476C155.518 34.1177 155.34 34.5933 154.982 34.9744C154.628 35.3556 154.165 35.5975 153.595 35.7003V35.7798C154.344 35.8759 154.914 36.1361 155.305 36.5604C155.7 36.9813 155.895 37.5083 155.892 38.1413C155.895 38.7214 155.728 39.2367 155.39 39.6875C155.055 40.1383 154.593 40.4929 154.003 40.7514C153.413 41.0099 152.737 41.1392 151.975 41.1392Z" fill="#F6F6F8"/>
</g>
<rect x="151.5" y="48" width="1" height="36" fill="#E1172F"/>
</g>
<g clip-path="url(#clip10_14118_35786)">
<g clip-path="url(#clip11_14118_35786)">
<rect x="372" y="24" width="24" height="24" rx="12" fill="#E1172F"/>
<path d="M379.927 39.2102V37.5149L384.178 30.8182H385.639V33.1648H384.774L382.095 37.4055V37.4851H388.135V39.2102H379.927ZM384.814 41V38.6932L384.854 37.9425V30.8182H386.872V41H384.814Z" fill="#F6F6F8"/>
</g>
<rect x="383.5" y="48" width="1" height="36" fill="#E1172F"/>
</g>
<defs>
<clipPath id="clip0_14118_35786">
<rect width="24" height="60" fill="white" transform="translate(100 24)"/>
</clipPath>
<clipPath id="clip1_14118_35786">
<rect x="100" y="24" width="24" height="24" rx="12" fill="white"/>
</clipPath>
<clipPath id="clip2_14118_35786">
<rect width="64" height="24" fill="white" transform="translate(24 84)"/>
</clipPath>
<clipPath id="clip3_14118_35786">
<rect x="24" y="84" width="24" height="24" rx="12" fill="white"/>
</clipPath>
<clipPath id="clip4_14118_35786">
<rect width="100" height="24" fill="white" transform="translate(24 119)"/>
</clipPath>
<clipPath id="clip5_14118_35786">
<rect x="24" y="119" width="24" height="24" rx="12" fill="white"/>
</clipPath>
<clipPath id="clip6_14118_35786">
<rect width="100" height="24" fill="white" transform="translate(24 157)"/>
</clipPath>
<clipPath id="clip7_14118_35786">
<rect x="24" y="157" width="24" height="24" rx="12" fill="white"/>
</clipPath>
<clipPath id="clip8_14118_35786">
<rect width="24" height="60" fill="white" transform="translate(140 24)"/>
</clipPath>
<clipPath id="clip9_14118_35786">
<rect x="140" y="24" width="24" height="24" rx="12" fill="white"/>
</clipPath>
<clipPath id="clip10_14118_35786">
<rect width="24" height="60" fill="white" transform="translate(372 24)"/>
</clipPath>
<clipPath id="clip11_14118_35786">
<rect x="372" y="24" width="24" height="24" rx="12" fill="white"/>
</clipPath>
</defs>
</svg>
