<svg width="683" height="420" viewBox="0 0 683 420" fill="none" xmlns="http://www.w3.org/2000/svg">
<rect width="683" height="420" fill="#2A2C35"/>
<path d="M205.5 148H477.5C483.171 148 487.374 148.001 490.601 148.435C493.813 148.866 495.983 149.719 497.632 151.368C499.281 153.017 500.134 155.187 500.565 158.399C500.999 161.626 501 165.829 501 171.5V248.5C501 254.171 500.999 258.374 500.565 261.601C500.134 264.813 499.281 266.983 497.632 268.632C495.983 270.281 493.813 271.134 490.601 271.565C487.374 271.999 483.171 272 477.5 272H205.5C199.829 272 195.626 271.999 192.399 271.565C189.187 271.134 187.017 270.281 185.368 268.632C183.719 266.983 182.866 264.813 182.435 261.601C182.001 258.374 182 254.171 182 248.5V171.5C182 165.829 182.001 161.626 182.435 158.399C182.866 155.187 183.719 153.017 185.368 151.368C187.017 149.719 189.187 148.866 192.399 148.435C195.626 148.001 199.829 148 205.5 148Z" fill="#181545"/>
<path d="M205.5 148H477.5C483.171 148 487.374 148.001 490.601 148.435C493.813 148.866 495.983 149.719 497.632 151.368C499.281 153.017 500.134 155.187 500.565 158.399C500.999 161.626 501 165.829 501 171.5V248.5C501 254.171 500.999 258.374 500.565 261.601C500.134 264.813 499.281 266.983 497.632 268.632C495.983 270.281 493.813 271.134 490.601 271.565C487.374 271.999 483.171 272 477.5 272H205.5C199.829 272 195.626 271.999 192.399 271.565C189.187 271.134 187.017 270.281 185.368 268.632C183.719 266.983 182.866 264.813 182.435 261.601C182.001 258.374 182 254.171 182 248.5V171.5C182 165.829 182.001 161.626 182.435 158.399C182.866 155.187 183.719 153.017 185.368 151.368C187.017 149.719 189.187 148.866 192.399 148.435C195.626 148.001 199.829 148 205.5 148Z" stroke="#6061EE"/>
<path d="M233.532 177.5V166.62H235.372V177.5H233.532ZM229.884 167.98V166.3H239.02V167.98H229.884ZM240.398 177.5V169.82H242.158V177.5H240.398ZM241.278 168.412C240.98 168.412 240.729 168.311 240.526 168.108C240.334 167.905 240.238 167.655 240.238 167.356C240.238 167.057 240.334 166.807 240.526 166.604C240.729 166.401 240.98 166.3 241.278 166.3C241.588 166.3 241.838 166.401 242.03 166.604C242.222 166.807 242.318 167.057 242.318 167.356C242.318 167.655 242.222 167.905 242.03 168.108C241.838 168.311 241.588 168.412 241.278 168.412ZM245.3 177.5V166.62H247.06V177.5H245.3ZM243.46 171.42V169.82H248.9V171.42H243.46ZM250.179 177.5V165.98H251.939V177.5H250.179ZM257.466 177.66C256.698 177.66 256.005 177.489 255.386 177.148C254.778 176.796 254.293 176.316 253.93 175.708C253.578 175.1 253.402 174.417 253.402 173.66C253.402 172.903 253.578 172.225 253.93 171.628C254.282 171.02 254.757 170.54 255.354 170.188C255.962 169.836 256.634 169.66 257.37 169.66C258.085 169.66 258.714 169.825 259.258 170.156C259.813 170.487 260.245 170.94 260.554 171.516C260.874 172.092 261.034 172.748 261.034 173.484C261.034 173.612 261.023 173.745 261.002 173.884C260.991 174.012 260.97 174.156 260.938 174.316H254.634V172.876H260.026L259.37 173.452C259.349 172.983 259.258 172.588 259.098 172.268C258.938 171.948 258.709 171.703 258.41 171.532C258.122 171.361 257.765 171.276 257.338 171.276C256.89 171.276 256.501 171.372 256.17 171.564C255.839 171.756 255.583 172.028 255.402 172.38C255.221 172.721 255.13 173.132 255.13 173.612C255.13 174.092 255.226 174.513 255.418 174.876C255.61 175.239 255.882 175.521 256.234 175.724C256.586 175.916 256.991 176.012 257.45 176.012C257.845 176.012 258.207 175.943 258.538 175.804C258.879 175.665 259.167 175.463 259.402 175.196L260.522 176.332C260.149 176.769 259.695 177.1 259.162 177.324C258.629 177.548 258.063 177.66 257.466 177.66Z" fill="#F1F2F4"/>
<path d="M231.516 211.5V210.296H234.218C234.937 210.296 235.567 210.142 236.108 209.834C236.649 209.517 237.069 209.083 237.368 208.532C237.676 207.981 237.83 207.347 237.83 206.628C237.83 205.919 237.676 205.289 237.368 204.738C237.06 204.187 236.635 203.758 236.094 203.45C235.553 203.142 234.927 202.988 234.218 202.988H231.53V201.784H234.246C234.955 201.784 235.609 201.905 236.206 202.148C236.813 202.391 237.335 202.731 237.774 203.17C238.222 203.609 238.567 204.122 238.81 204.71C239.062 205.298 239.188 205.942 239.188 206.642C239.188 207.333 239.062 207.977 238.81 208.574C238.567 209.162 238.227 209.675 237.788 210.114C237.349 210.553 236.827 210.893 236.22 211.136C235.623 211.379 234.974 211.5 234.274 211.5H231.516ZM230.648 211.5V201.784H231.964V211.5H230.648ZM243.867 211.64C243.205 211.64 242.607 211.491 242.075 211.192C241.543 210.884 241.123 210.469 240.815 209.946C240.507 209.423 240.353 208.831 240.353 208.168C240.353 207.515 240.503 206.927 240.801 206.404C241.109 205.881 241.52 205.471 242.033 205.172C242.556 204.864 243.139 204.71 243.783 204.71C244.399 204.71 244.941 204.85 245.407 205.13C245.883 205.41 246.252 205.797 246.513 206.292C246.784 206.787 246.919 207.347 246.919 207.972C246.919 208.065 246.915 208.168 246.905 208.28C246.896 208.383 246.877 208.504 246.849 208.644H241.235V207.594H246.177L245.715 208C245.715 207.552 245.636 207.174 245.477 206.866C245.319 206.549 245.095 206.306 244.805 206.138C244.516 205.961 244.166 205.872 243.755 205.872C243.326 205.872 242.948 205.965 242.621 206.152C242.295 206.339 242.043 206.6 241.865 206.936C241.688 207.272 241.599 207.669 241.599 208.126C241.599 208.593 241.693 209.003 241.879 209.358C242.066 209.703 242.332 209.974 242.677 210.17C243.023 210.357 243.419 210.45 243.867 210.45C244.241 210.45 244.581 210.385 244.889 210.254C245.207 210.123 245.477 209.927 245.701 209.666L246.513 210.492C246.196 210.865 245.804 211.15 245.337 211.346C244.88 211.542 244.39 211.64 243.867 211.64ZM250.407 211.64C250.034 211.64 249.679 211.593 249.343 211.5C249.016 211.397 248.713 211.257 248.433 211.08C248.153 210.893 247.91 210.674 247.705 210.422L248.517 209.61C248.76 209.909 249.04 210.133 249.357 210.282C249.674 210.422 250.029 210.492 250.421 210.492C250.813 210.492 251.116 210.427 251.331 210.296C251.546 210.156 251.653 209.965 251.653 209.722C251.653 209.479 251.564 209.293 251.387 209.162C251.219 209.022 251 208.91 250.729 208.826C250.458 208.733 250.169 208.644 249.861 208.56C249.562 208.467 249.278 208.35 249.007 208.21C248.736 208.07 248.512 207.879 248.335 207.636C248.167 207.393 248.083 207.071 248.083 206.67C248.083 206.269 248.181 205.923 248.377 205.634C248.573 205.335 248.844 205.107 249.189 204.948C249.544 204.789 249.968 204.71 250.463 204.71C250.986 204.71 251.448 204.803 251.849 204.99C252.26 205.167 252.596 205.438 252.857 205.802L252.045 206.614C251.858 206.371 251.625 206.185 251.345 206.054C251.074 205.923 250.766 205.858 250.421 205.858C250.057 205.858 249.777 205.923 249.581 206.054C249.394 206.175 249.301 206.348 249.301 206.572C249.301 206.796 249.385 206.969 249.553 207.09C249.721 207.211 249.94 207.314 250.211 207.398C250.491 207.482 250.78 207.571 251.079 207.664C251.378 207.748 251.662 207.865 251.933 208.014C252.204 208.163 252.423 208.364 252.591 208.616C252.768 208.868 252.857 209.199 252.857 209.61C252.857 210.235 252.633 210.73 252.185 211.094C251.746 211.458 251.154 211.64 250.407 211.64ZM257.306 211.64C256.652 211.64 256.06 211.486 255.528 211.178C255.005 210.87 254.59 210.455 254.282 209.932C253.983 209.4 253.834 208.812 253.834 208.168C253.834 207.515 253.983 206.927 254.282 206.404C254.59 205.881 255.005 205.471 255.528 205.172C256.06 204.864 256.652 204.71 257.306 204.71C257.819 204.71 258.295 204.808 258.734 205.004C259.172 205.191 259.55 205.466 259.868 205.83L259.028 206.67C258.822 206.427 258.57 206.245 258.272 206.124C257.982 205.993 257.66 205.928 257.306 205.928C256.886 205.928 256.512 206.026 256.186 206.222C255.859 206.409 255.602 206.67 255.416 207.006C255.229 207.342 255.136 207.729 255.136 208.168C255.136 208.607 255.229 208.994 255.416 209.33C255.602 209.666 255.859 209.932 256.186 210.128C256.512 210.324 256.886 210.422 257.306 210.422C257.66 210.422 257.982 210.361 258.272 210.24C258.57 210.109 258.827 209.923 259.042 209.68L259.868 210.52C259.56 210.875 259.182 211.15 258.734 211.346C258.295 211.542 257.819 211.64 257.306 211.64ZM261.117 211.5V204.85H262.377V211.5H261.117ZM262.377 207.706L261.901 207.496C261.901 206.647 262.097 205.97 262.489 205.466C262.881 204.962 263.446 204.71 264.183 204.71C264.519 204.71 264.823 204.771 265.093 204.892C265.364 205.004 265.616 205.195 265.849 205.466L265.023 206.32C264.883 206.171 264.729 206.063 264.561 205.998C264.393 205.933 264.197 205.9 263.973 205.9C263.507 205.9 263.124 206.049 262.825 206.348C262.527 206.647 262.377 207.099 262.377 207.706ZM266.751 211.5V204.85H268.011V211.5H266.751ZM267.381 203.52C267.147 203.52 266.956 203.445 266.807 203.296C266.657 203.137 266.583 202.941 266.583 202.708C266.583 202.484 266.657 202.297 266.807 202.148C266.956 201.989 267.147 201.91 267.381 201.91C267.614 201.91 267.805 201.989 267.955 202.148C268.104 202.297 268.179 202.484 268.179 202.708C268.179 202.941 268.104 203.137 267.955 203.296C267.805 203.445 267.614 203.52 267.381 203.52ZM273.367 211.64C272.863 211.64 272.406 211.537 271.995 211.332C271.594 211.117 271.272 210.823 271.029 210.45C270.787 210.077 270.651 209.652 270.623 209.176V207.174C270.651 206.689 270.787 206.264 271.029 205.9C271.281 205.527 271.608 205.237 272.009 205.032C272.42 204.817 272.873 204.71 273.367 204.71C273.974 204.71 274.52 204.864 275.005 205.172C275.5 205.48 275.887 205.895 276.167 206.418C276.447 206.941 276.587 207.529 276.587 208.182C276.587 208.835 276.447 209.423 276.167 209.946C275.887 210.469 275.5 210.884 275.005 211.192C274.52 211.491 273.974 211.64 273.367 211.64ZM269.867 214.286V204.85H271.127V206.6L270.889 208.21L271.127 209.834V214.286H269.867ZM273.157 210.45C273.577 210.45 273.946 210.352 274.263 210.156C274.581 209.96 274.833 209.694 275.019 209.358C275.206 209.013 275.299 208.616 275.299 208.168C275.299 207.729 275.206 207.337 275.019 206.992C274.833 206.647 274.581 206.381 274.263 206.194C273.946 205.998 273.582 205.9 273.171 205.9C272.751 205.9 272.383 205.998 272.065 206.194C271.748 206.381 271.501 206.647 271.323 206.992C271.146 207.337 271.057 207.734 271.057 208.182C271.057 208.621 271.141 209.013 271.309 209.358C271.487 209.694 271.734 209.96 272.051 210.156C272.378 210.352 272.747 210.45 273.157 210.45ZM278.833 211.5V202.064H280.093V211.5H278.833ZM277.195 205.998V204.85H281.731V205.998H277.195ZM282.979 211.5V204.85H284.239V211.5H282.979ZM283.609 203.52C283.376 203.52 283.184 203.445 283.035 203.296C282.886 203.137 282.811 202.941 282.811 202.708C282.811 202.484 282.886 202.297 283.035 202.148C283.184 201.989 283.376 201.91 283.609 201.91C283.842 201.91 284.034 201.989 284.183 202.148C284.332 202.297 284.407 202.484 284.407 202.708C284.407 202.941 284.332 203.137 284.183 203.296C284.034 203.445 283.842 203.52 283.609 203.52ZM289.134 211.64C288.481 211.64 287.893 211.486 287.37 211.178C286.847 210.87 286.432 210.455 286.124 209.932C285.816 209.4 285.662 208.807 285.662 208.154C285.662 207.51 285.816 206.931 286.124 206.418C286.432 205.895 286.847 205.48 287.37 205.172C287.893 204.864 288.481 204.71 289.134 204.71C289.778 204.71 290.361 204.864 290.884 205.172C291.416 205.471 291.836 205.881 292.144 206.404C292.452 206.927 292.606 207.51 292.606 208.154C292.606 208.807 292.452 209.4 292.144 209.932C291.836 210.455 291.416 210.87 290.884 211.178C290.361 211.486 289.778 211.64 289.134 211.64ZM289.134 210.422C289.554 210.422 289.927 210.324 290.254 210.128C290.581 209.932 290.837 209.666 291.024 209.33C291.211 208.985 291.304 208.593 291.304 208.154C291.304 207.725 291.206 207.342 291.01 207.006C290.823 206.67 290.567 206.409 290.24 206.222C289.923 206.026 289.554 205.928 289.134 205.928C288.714 205.928 288.341 206.026 288.014 206.222C287.687 206.409 287.431 206.67 287.244 207.006C287.057 207.342 286.964 207.725 286.964 208.154C286.964 208.593 287.057 208.985 287.244 209.33C287.431 209.666 287.687 209.932 288.014 210.128C288.341 210.324 288.714 210.422 289.134 210.422ZM298.73 211.5V207.622C298.73 207.118 298.571 206.703 298.254 206.376C297.936 206.049 297.526 205.886 297.022 205.886C296.686 205.886 296.387 205.961 296.126 206.11C295.864 206.259 295.659 206.465 295.51 206.726C295.36 206.987 295.286 207.286 295.286 207.622L294.768 207.328C294.768 206.824 294.88 206.376 295.104 205.984C295.328 205.592 295.64 205.284 296.042 205.06C296.443 204.827 296.896 204.71 297.4 204.71C297.904 204.71 298.347 204.836 298.73 205.088C299.122 205.34 299.43 205.671 299.654 206.082C299.878 206.483 299.99 206.913 299.99 207.37V211.5H298.73ZM294.026 211.5V204.85H295.286V211.5H294.026Z" fill="#F1F2F4"/>
<path d="M306.644 211.5V201.7H308.254V211.5H306.644ZM307.75 211.5V210.03H312.874V211.5H307.75ZM314.145 211.5V204.78H315.685V211.5H314.145ZM314.915 203.548C314.654 203.548 314.435 203.459 314.257 203.282C314.089 203.105 314.005 202.885 314.005 202.624C314.005 202.363 314.089 202.143 314.257 201.966C314.435 201.789 314.654 201.7 314.915 201.7C315.186 201.7 315.405 201.789 315.573 201.966C315.741 202.143 315.825 202.363 315.825 202.624C315.825 202.885 315.741 203.105 315.573 203.282C315.405 203.459 315.186 203.548 314.915 203.548ZM322.019 211.5V207.622C322.019 207.174 321.874 206.805 321.585 206.516C321.305 206.227 320.941 206.082 320.493 206.082C320.194 206.082 319.928 206.147 319.695 206.278C319.461 206.409 319.279 206.591 319.149 206.824C319.018 207.057 318.953 207.323 318.953 207.622L318.351 207.286C318.351 206.773 318.463 206.32 318.687 205.928C318.911 205.527 319.219 205.214 319.611 204.99C320.012 204.757 320.46 204.64 320.955 204.64C321.459 204.64 321.907 204.771 322.299 205.032C322.691 205.284 322.999 205.615 323.223 206.026C323.447 206.427 323.559 206.847 323.559 207.286V211.5H322.019ZM317.413 211.5V204.78H318.953V211.5H317.413ZM329.394 211.5L326.552 208.07L329.38 204.78H331.214L327.966 208.476L328.036 207.594L331.354 211.5H329.394ZM325.124 211.5V201.42H326.664V211.5H325.124Z" fill="#6061EE"/>
<path d="M229.5 244.5C229.5 240.78 229.5 238.92 229.909 237.394C231.018 233.253 234.253 230.018 238.394 228.909C239.92 228.5 241.78 228.5 245.5 228.5H308.5C312.22 228.5 314.08 228.5 315.606 228.909C319.747 230.018 322.982 233.253 324.091 237.394C324.5 238.92 324.5 240.78 324.5 244.5C324.5 248.22 324.5 250.08 324.091 251.606C322.982 255.747 319.747 258.982 315.606 260.091C314.08 260.5 312.22 260.5 308.5 260.5H245.5C241.78 260.5 239.92 260.5 238.394 260.091C234.253 258.982 231.018 255.747 229.909 251.606C229.5 250.08 229.5 248.22 229.5 244.5Z" fill="#6061EE"/>
<path d="M258.875 244.5C258.875 246.965 257.905 249.331 256.174 251.085C254.443 252.84 252.09 253.842 249.626 253.875H249.5C247.107 253.88 244.803 252.964 243.067 251.317C242.85 251.112 242.723 250.829 242.715 250.531C242.706 250.232 242.817 249.943 243.021 249.726C243.226 249.509 243.509 249.383 243.807 249.374C244.105 249.365 244.395 249.476 244.612 249.681C245.63 250.642 246.909 251.282 248.289 251.521C249.669 251.759 251.089 251.586 252.371 251.022C253.653 250.458 254.741 249.529 255.498 248.351C256.255 247.173 256.648 245.797 256.627 244.397C256.607 242.997 256.175 241.633 255.384 240.477C254.594 239.321 253.48 238.424 252.182 237.898C250.884 237.371 249.46 237.239 248.088 237.517C246.715 237.795 245.455 238.472 244.465 239.462C244.452 239.474 244.441 239.485 244.428 239.497L242.646 241.125H244.25C244.548 241.125 244.835 241.244 245.045 241.455C245.256 241.665 245.375 241.952 245.375 242.25C245.375 242.548 245.256 242.835 245.045 243.046C244.835 243.256 244.548 243.375 244.25 243.375H239.75C239.452 243.375 239.165 243.256 238.955 243.046C238.744 242.835 238.625 242.548 238.625 242.25V237.75C238.625 237.452 238.744 237.165 238.955 236.955C239.165 236.744 239.452 236.625 239.75 236.625C240.048 236.625 240.335 236.744 240.545 236.955C240.756 237.165 240.875 237.452 240.875 237.75V239.693L242.889 237.849C244.202 236.543 245.873 235.655 247.691 235.298C249.508 234.94 251.391 235.129 253.101 235.841C254.811 236.552 256.272 237.754 257.3 239.295C258.328 240.837 258.876 242.648 258.875 244.5Z" fill="white"/>
<path d="M272.222 250.5V248.9H275.438C276.004 248.9 276.441 248.724 276.75 248.372C277.06 248.02 277.214 247.615 277.214 247.156C277.214 246.847 277.145 246.559 277.006 246.292C276.868 246.025 276.665 245.812 276.398 245.652C276.132 245.492 275.812 245.412 275.438 245.412H272.222V243.812H275.166C275.646 243.812 276.03 243.689 276.318 243.444C276.606 243.199 276.75 242.836 276.75 242.356C276.75 241.876 276.606 241.513 276.318 241.268C276.03 241.023 275.646 240.9 275.166 240.9H272.222V239.3H275.214C275.972 239.3 276.601 239.439 277.102 239.716C277.604 239.993 277.977 240.351 278.222 240.788C278.468 241.225 278.59 241.695 278.59 242.196C278.59 242.783 278.425 243.3 278.094 243.748C277.774 244.196 277.3 244.559 276.67 244.836L276.814 244.26C277.518 244.548 278.068 244.953 278.462 245.476C278.857 245.999 279.054 246.612 279.054 247.316C279.054 247.892 278.91 248.42 278.622 248.9C278.345 249.38 277.929 249.769 277.374 250.068C276.83 250.356 276.158 250.5 275.358 250.5H272.222ZM270.958 250.5V239.3H272.798V250.5H270.958ZM283.823 250.66C283.173 250.66 282.591 250.516 282.079 250.228C281.578 249.94 281.183 249.545 280.895 249.044C280.618 248.532 280.479 247.945 280.479 247.284V242.82H282.239V247.204C282.239 247.577 282.298 247.897 282.415 248.164C282.543 248.42 282.725 248.617 282.959 248.756C283.205 248.895 283.493 248.964 283.823 248.964C284.335 248.964 284.725 248.815 284.991 248.516C285.269 248.207 285.407 247.769 285.407 247.204V242.82H287.167V247.284C287.167 247.956 287.023 248.548 286.735 249.06C286.458 249.561 286.069 249.956 285.567 250.244C285.066 250.521 284.485 250.66 283.823 250.66ZM290.105 250.5V239.62H291.865V250.5H290.105ZM288.265 244.42V242.82H298.345V244.42H288.265ZM294.745 250.5V239.62H296.505V250.5H294.745ZM302.926 250.66C302.179 250.66 301.502 250.484 300.894 250.132C300.286 249.769 299.8 249.284 299.438 248.676C299.086 248.068 298.91 247.391 298.91 246.644C298.91 245.897 299.086 245.225 299.438 244.628C299.8 244.031 300.286 243.556 300.894 243.204C301.502 242.841 302.179 242.66 302.926 242.66C303.683 242.66 304.366 242.836 304.974 243.188C305.582 243.54 306.062 244.02 306.414 244.628C306.776 245.225 306.958 245.897 306.958 246.644C306.958 247.391 306.776 248.068 306.414 248.676C306.062 249.284 305.582 249.769 304.974 250.132C304.366 250.484 303.683 250.66 302.926 250.66ZM302.926 248.964C303.363 248.964 303.747 248.868 304.078 248.676C304.419 248.473 304.68 248.196 304.862 247.844C305.054 247.492 305.15 247.092 305.15 246.644C305.15 246.196 305.054 245.801 304.862 245.46C304.67 245.119 304.408 244.852 304.078 244.66C303.747 244.457 303.363 244.356 302.926 244.356C302.499 244.356 302.115 244.457 301.774 244.66C301.443 244.852 301.182 245.119 300.99 245.46C300.808 245.801 300.718 246.196 300.718 246.644C300.718 247.092 300.808 247.492 300.99 247.844C301.182 248.196 301.443 248.473 301.774 248.676C302.115 248.868 302.499 248.964 302.926 248.964ZM313.685 250.5V246.068C313.685 245.556 313.52 245.135 313.189 244.804C312.869 244.473 312.453 244.308 311.941 244.308C311.6 244.308 311.296 244.383 311.029 244.532C310.763 244.681 310.555 244.889 310.405 245.156C310.256 245.423 310.181 245.727 310.181 246.068L309.493 245.684C309.493 245.097 309.621 244.58 309.877 244.132C310.133 243.673 310.485 243.316 310.933 243.06C311.392 242.793 311.904 242.66 312.469 242.66C313.045 242.66 313.557 242.809 314.005 243.108C314.453 243.396 314.805 243.775 315.061 244.244C315.317 244.703 315.445 245.183 315.445 245.684V250.5H313.685ZM308.421 250.5V242.82H310.181V250.5H308.421Z" fill="white"/>
<path d="M343.222 250.5V248.9H346.438C347.004 248.9 347.441 248.724 347.75 248.372C348.06 248.02 348.214 247.615 348.214 247.156C348.214 246.847 348.145 246.559 348.006 246.292C347.868 246.025 347.665 245.812 347.398 245.652C347.132 245.492 346.812 245.412 346.438 245.412H343.222V243.812H346.166C346.646 243.812 347.03 243.689 347.318 243.444C347.606 243.199 347.75 242.836 347.75 242.356C347.75 241.876 347.606 241.513 347.318 241.268C347.03 241.023 346.646 240.9 346.166 240.9H343.222V239.3H346.214C346.972 239.3 347.601 239.439 348.102 239.716C348.604 239.993 348.977 240.351 349.222 240.788C349.468 241.225 349.59 241.695 349.59 242.196C349.59 242.783 349.425 243.3 349.094 243.748C348.774 244.196 348.3 244.559 347.67 244.836L347.814 244.26C348.518 244.548 349.068 244.953 349.462 245.476C349.857 245.999 350.054 246.612 350.054 247.316C350.054 247.892 349.91 248.42 349.622 248.9C349.345 249.38 348.929 249.769 348.374 250.068C347.83 250.356 347.158 250.5 346.358 250.5H343.222ZM341.958 250.5V239.3H343.798V250.5H341.958ZM354.823 250.66C354.173 250.66 353.591 250.516 353.079 250.228C352.578 249.94 352.183 249.545 351.895 249.044C351.618 248.532 351.479 247.945 351.479 247.284V242.82H353.239V247.204C353.239 247.577 353.298 247.897 353.415 248.164C353.543 248.42 353.725 248.617 353.959 248.756C354.205 248.895 354.493 248.964 354.823 248.964C355.335 248.964 355.725 248.815 355.991 248.516C356.269 248.207 356.407 247.769 356.407 247.204V242.82H358.167V247.284C358.167 247.956 358.023 248.548 357.735 249.06C357.458 249.561 357.069 249.956 356.567 250.244C356.066 250.521 355.485 250.66 354.823 250.66ZM361.105 250.5V239.62H362.865V250.5H361.105ZM359.265 244.42V242.82H369.345V244.42H359.265ZM365.745 250.5V239.62H367.505V250.5H365.745ZM373.926 250.66C373.179 250.66 372.502 250.484 371.894 250.132C371.286 249.769 370.8 249.284 370.438 248.676C370.086 248.068 369.91 247.391 369.91 246.644C369.91 245.897 370.086 245.225 370.438 244.628C370.8 244.031 371.286 243.556 371.894 243.204C372.502 242.841 373.179 242.66 373.926 242.66C374.683 242.66 375.366 242.836 375.974 243.188C376.582 243.54 377.062 244.02 377.414 244.628C377.776 245.225 377.958 245.897 377.958 246.644C377.958 247.391 377.776 248.068 377.414 248.676C377.062 249.284 376.582 249.769 375.974 250.132C375.366 250.484 374.683 250.66 373.926 250.66ZM373.926 248.964C374.363 248.964 374.747 248.868 375.078 248.676C375.419 248.473 375.68 248.196 375.862 247.844C376.054 247.492 376.15 247.092 376.15 246.644C376.15 246.196 376.054 245.801 375.862 245.46C375.67 245.119 375.408 244.852 375.078 244.66C374.747 244.457 374.363 244.356 373.926 244.356C373.499 244.356 373.115 244.457 372.774 244.66C372.443 244.852 372.182 245.119 371.99 245.46C371.808 245.801 371.718 246.196 371.718 246.644C371.718 247.092 371.808 247.492 371.99 247.844C372.182 248.196 372.443 248.473 372.774 248.676C373.115 248.868 373.499 248.964 373.926 248.964ZM384.685 250.5V246.068C384.685 245.556 384.52 245.135 384.189 244.804C383.869 244.473 383.453 244.308 382.941 244.308C382.6 244.308 382.296 244.383 382.029 244.532C381.763 244.681 381.555 244.889 381.405 245.156C381.256 245.423 381.181 245.727 381.181 246.068L380.493 245.684C380.493 245.097 380.621 244.58 380.877 244.132C381.133 243.673 381.485 243.316 381.933 243.06C382.392 242.793 382.904 242.66 383.469 242.66C384.045 242.66 384.557 242.809 385.005 243.108C385.453 243.396 385.805 243.775 386.061 244.244C386.317 244.703 386.445 245.183 386.445 245.684V250.5H384.685ZM379.421 250.5V242.82H381.181V250.5H379.421Z" fill="#6061EE"/>
<path d="M203.625 167.375C203.625 167.078 203.713 166.788 203.878 166.542C204.043 166.295 204.277 166.103 204.551 165.989C204.825 165.876 205.127 165.846 205.418 165.904C205.709 165.962 205.976 166.105 206.186 166.314C206.395 166.524 206.538 166.791 206.596 167.082C206.654 167.373 206.624 167.675 206.511 167.949C206.397 168.223 206.205 168.457 205.958 168.622C205.712 168.787 205.422 168.875 205.125 168.875C204.727 168.875 204.346 168.717 204.064 168.436C203.783 168.154 203.625 167.773 203.625 167.375ZM215.625 171.5C215.625 173.503 215.031 175.46 213.919 177.125C212.806 178.79 211.225 180.088 209.375 180.854C207.525 181.621 205.489 181.821 203.525 181.43C201.561 181.04 199.757 180.075 198.341 178.659C196.925 177.243 195.96 175.439 195.57 173.475C195.179 171.511 195.379 169.475 196.146 167.625C196.912 165.775 198.21 164.194 199.875 163.081C201.54 161.969 203.497 161.375 205.5 161.375C208.184 161.378 210.758 162.446 212.656 164.344C214.554 166.242 215.622 168.816 215.625 171.5ZM213.375 171.5C213.375 169.942 212.913 168.42 212.048 167.125C211.183 165.83 209.953 164.82 208.514 164.224C207.075 163.628 205.491 163.472 203.964 163.776C202.436 164.08 201.033 164.83 199.932 165.932C198.83 167.033 198.08 168.436 197.776 169.964C197.472 171.491 197.628 173.075 198.224 174.514C198.82 175.953 199.83 177.183 201.125 178.048C202.42 178.913 203.942 179.375 205.5 179.375C207.588 179.373 209.59 178.542 211.066 177.066C212.542 175.59 213.373 173.588 213.375 171.5ZM206.625 174.939V171.875C206.625 171.378 206.427 170.901 206.076 170.549C205.724 170.198 205.247 170 204.75 170C204.484 170 204.227 170.093 204.024 170.264C203.821 170.435 203.684 170.673 203.64 170.935C203.595 171.197 203.644 171.466 203.778 171.695C203.913 171.924 204.124 172.098 204.375 172.186V175.25C204.375 175.747 204.573 176.224 204.924 176.576C205.276 176.927 205.753 177.125 206.25 177.125C206.516 177.125 206.773 177.032 206.976 176.861C207.179 176.69 207.316 176.452 207.36 176.19C207.405 175.928 207.356 175.659 207.222 175.43C207.087 175.201 206.876 175.027 206.625 174.939Z" fill="#6061EE"/>
</svg>
