<svg width="683" height="420" viewBox="0 0 683 420" fill="none" xmlns="http://www.w3.org/2000/svg">
<rect width="683" height="420" fill="#2A2C35"/>
<path d="M205.5 186.5H477.5C483.171 186.5 487.374 186.501 490.601 186.935C493.813 187.366 495.983 188.219 497.632 189.868C499.281 191.517 500.134 193.687 500.565 196.899C500.999 200.126 501 204.329 501 210C501 215.671 500.999 219.874 500.565 223.101C500.134 226.313 499.281 228.483 497.632 230.132C495.983 231.781 493.813 232.634 490.601 233.065C487.374 233.499 483.171 233.5 477.5 233.5H205.5C199.829 233.5 195.626 233.499 192.399 233.065C189.187 232.634 187.017 231.781 185.368 230.132C183.719 228.483 182.866 226.313 182.435 223.101C182.001 219.874 182 215.671 182 210C182 204.329 182.001 200.126 182.435 196.899C182.866 193.687 183.719 191.517 185.368 189.868C187.017 188.219 189.187 187.366 192.399 186.935C195.626 186.501 199.829 186.5 205.5 186.5Z" fill="#181545"/>
<path d="M205.5 186.5H477.5C483.171 186.5 487.374 186.501 490.601 186.935C493.813 187.366 495.983 188.219 497.632 189.868C499.281 191.517 500.134 193.687 500.565 196.899C500.999 200.126 501 204.329 501 210C501 215.671 500.999 219.874 500.565 223.101C500.134 226.313 499.281 228.483 497.632 230.132C495.983 231.781 493.813 232.634 490.601 233.065C487.374 233.499 483.171 233.5 477.5 233.5H205.5C199.829 233.5 195.626 233.499 192.399 233.065C189.187 232.634 187.017 231.781 185.368 230.132C183.719 228.483 182.866 226.313 182.435 223.101C182.001 219.874 182 215.671 182 210C182 204.329 182.001 200.126 182.435 196.899C182.866 193.687 183.719 191.517 185.368 189.868C187.017 188.219 189.187 187.366 192.399 186.935C195.626 186.501 199.829 186.5 205.5 186.5Z" stroke="#6061EE"/>
<path d="M233.532 216V205.12H235.372V216H233.532ZM229.884 206.48V204.8H239.02V206.48H229.884ZM240.398 216V208.32H242.158V216H240.398ZM241.278 206.912C240.98 206.912 240.729 206.811 240.526 206.608C240.334 206.405 240.238 206.155 240.238 205.856C240.238 205.557 240.334 205.307 240.526 205.104C240.729 204.901 240.98 204.8 241.278 204.8C241.588 204.8 241.838 204.901 242.03 205.104C242.222 205.307 242.318 205.557 242.318 205.856C242.318 206.155 242.222 206.405 242.03 206.608C241.838 206.811 241.588 206.912 241.278 206.912ZM245.3 216V205.12H247.06V216H245.3ZM243.46 209.92V208.32H248.9V209.92H243.46ZM250.179 216V204.48H251.939V216H250.179ZM257.466 216.16C256.698 216.16 256.005 215.989 255.386 215.648C254.778 215.296 254.293 214.816 253.93 214.208C253.578 213.6 253.402 212.917 253.402 212.16C253.402 211.403 253.578 210.725 253.93 210.128C254.282 209.52 254.757 209.04 255.354 208.688C255.962 208.336 256.634 208.16 257.37 208.16C258.085 208.16 258.714 208.325 259.258 208.656C259.813 208.987 260.245 209.44 260.554 210.016C260.874 210.592 261.034 211.248 261.034 211.984C261.034 212.112 261.023 212.245 261.002 212.384C260.991 212.512 260.97 212.656 260.938 212.816H254.634V211.376H260.026L259.37 211.952C259.349 211.483 259.258 211.088 259.098 210.768C258.938 210.448 258.709 210.203 258.41 210.032C258.122 209.861 257.765 209.776 257.338 209.776C256.89 209.776 256.501 209.872 256.17 210.064C255.839 210.256 255.583 210.528 255.402 210.88C255.221 211.221 255.13 211.632 255.13 212.112C255.13 212.592 255.226 213.013 255.418 213.376C255.61 213.739 255.882 214.021 256.234 214.224C256.586 214.416 256.991 214.512 257.45 214.512C257.845 214.512 258.207 214.443 258.538 214.304C258.879 214.165 259.167 213.963 259.402 213.696L260.522 214.832C260.149 215.269 259.695 215.6 259.162 215.824C258.629 216.048 258.063 216.16 257.466 216.16Z" fill="#F1F2F4"/>
<path d="M482.531 213.969C482.671 214.11 482.751 214.301 482.751 214.501C482.751 214.7 482.671 214.891 482.531 215.032C482.39 215.173 482.199 215.252 481.999 215.252C481.8 215.252 481.609 215.173 481.468 215.032L477.5 211.062L473.531 215.031C473.39 215.172 473.199 215.251 472.999 215.251C472.8 215.251 472.609 215.172 472.468 215.031C472.327 214.89 472.248 214.699 472.248 214.499C472.248 214.3 472.327 214.109 472.468 213.968L476.437 210L472.469 206.031C472.328 205.89 472.249 205.699 472.249 205.499C472.249 205.3 472.328 205.109 472.469 204.968C472.61 204.827 472.801 204.748 473.001 204.748C473.2 204.748 473.391 204.827 473.532 204.968L477.5 208.937L481.469 204.967C481.61 204.827 481.801 204.747 482.001 204.747C482.2 204.747 482.391 204.827 482.532 204.967C482.673 205.108 482.752 205.299 482.752 205.499C482.752 205.698 482.673 205.889 482.532 206.03L478.562 210L482.531 213.969Z" fill="#F1F2F4"/>
<path d="M203.625 205.875C203.625 205.578 203.713 205.288 203.878 205.042C204.043 204.795 204.277 204.603 204.551 204.489C204.825 204.376 205.127 204.346 205.418 204.404C205.709 204.462 205.976 204.605 206.186 204.814C206.395 205.024 206.538 205.291 206.596 205.582C206.654 205.873 206.624 206.175 206.511 206.449C206.397 206.723 206.205 206.957 205.958 207.122C205.712 207.287 205.422 207.375 205.125 207.375C204.727 207.375 204.346 207.217 204.064 206.936C203.783 206.654 203.625 206.273 203.625 205.875ZM215.625 210C215.625 212.003 215.031 213.96 213.919 215.625C212.806 217.29 211.225 218.588 209.375 219.354C207.525 220.121 205.489 220.321 203.525 219.93C201.561 219.54 199.757 218.575 198.341 217.159C196.925 215.743 195.96 213.939 195.57 211.975C195.179 210.011 195.379 207.975 196.146 206.125C196.912 204.275 198.21 202.694 199.875 201.581C201.54 200.469 203.497 199.875 205.5 199.875C208.184 199.878 210.758 200.946 212.656 202.844C214.554 204.742 215.622 207.316 215.625 210ZM213.375 210C213.375 208.442 212.913 206.92 212.048 205.625C211.183 204.33 209.953 203.32 208.514 202.724C207.075 202.128 205.491 201.972 203.964 202.276C202.436 202.58 201.033 203.33 199.932 204.432C198.83 205.533 198.08 206.936 197.776 208.464C197.472 209.991 197.628 211.575 198.224 213.014C198.82 214.453 199.83 215.683 201.125 216.548C202.42 217.413 203.942 217.875 205.5 217.875C207.588 217.873 209.59 217.042 211.066 215.566C212.542 214.09 213.373 212.088 213.375 210ZM206.625 213.439V210.375C206.625 209.878 206.427 209.401 206.076 209.049C205.724 208.698 205.247 208.5 204.75 208.5C204.484 208.5 204.227 208.593 204.024 208.764C203.821 208.935 203.684 209.173 203.64 209.435C203.595 209.697 203.644 209.966 203.778 210.195C203.913 210.424 204.124 210.598 204.375 210.686V213.75C204.375 214.247 204.573 214.724 204.924 215.076C205.276 215.427 205.753 215.625 206.25 215.625C206.516 215.625 206.773 215.532 206.976 215.361C207.179 215.19 207.316 214.952 207.36 214.69C207.405 214.428 207.356 214.159 207.222 213.93C207.087 213.701 206.876 213.527 206.625 213.439Z" fill="#6061EE"/>
</svg>
