<svg width="506" height="368" viewBox="0 0 506 368" fill="none" xmlns="http://www.w3.org/2000/svg">
<path d="M40 16.5H466C471.671 16.5 475.874 16.5008 479.101 16.9346C482.313 17.3665 484.483 18.2192 486.132 19.8682C487.781 21.5171 488.634 23.6871 489.065 26.8994C489.499 30.1261 489.5 34.3291 489.5 40C489.5 45.6709 489.499 49.8739 489.065 53.1006C488.634 56.3129 487.781 58.4829 486.132 60.1318C484.483 61.7808 482.313 62.6335 479.101 63.0654C475.874 63.4992 471.671 63.5 466 63.5H40C34.3291 63.5 30.1261 63.4992 26.8994 63.0654C23.6871 62.6335 21.5171 61.7808 19.8682 60.1318C18.2192 58.4829 17.3665 56.3129 16.9346 53.1006C16.5008 49.8739 16.5 45.6709 16.5 40C16.5 34.3291 16.5008 30.1261 16.9346 26.8994C17.3665 23.6871 18.2192 21.5171 19.8682 19.8682C21.5171 18.2192 23.6871 17.3665 26.8994 16.9346C30.1261 16.5008 34.3291 16.5 40 16.5Z" fill="#181545"/>
<path d="M40 16.5H466C471.671 16.5 475.874 16.5008 479.101 16.9346C482.313 17.3665 484.483 18.2192 486.132 19.8682C487.781 21.5171 488.634 23.6871 489.065 26.8994C489.499 30.1261 489.5 34.3291 489.5 40C489.5 45.6709 489.499 49.8739 489.065 53.1006C488.634 56.3129 487.781 58.4829 486.132 60.1318C484.483 61.7808 482.313 62.6335 479.101 63.0654C475.874 63.4992 471.671 63.5 466 63.5H40C34.3291 63.5 30.1261 63.4992 26.8994 63.0654C23.6871 62.6335 21.5171 61.7808 19.8682 60.1318C18.2192 58.4829 17.3665 56.3129 16.9346 53.1006C16.5008 49.8739 16.5 45.6709 16.5 40C16.5 34.3291 16.5008 30.1261 16.9346 26.8994C17.3665 23.6871 18.2192 21.5171 19.8682 19.8682C21.5171 18.2192 23.6871 17.3665 26.8994 16.9346C30.1261 16.5008 34.3291 16.5 40 16.5Z" stroke="#6061EE"/>
<path d="M68.032 46V35.12H69.872V46H68.032ZM64.384 36.48V34.8H73.52V36.48H64.384ZM74.8983 46V38.32H76.6583V46H74.8983ZM75.7783 36.912C75.4796 36.912 75.2289 36.8107 75.0263 36.608C74.8343 36.4053 74.7383 36.1547 74.7383 35.856C74.7383 35.5573 74.8343 35.3067 75.0263 35.104C75.2289 34.9013 75.4796 34.8 75.7783 34.8C76.0876 34.8 76.3383 34.9013 76.5303 35.104C76.7223 35.3067 76.8183 35.5573 76.8183 35.856C76.8183 36.1547 76.7223 36.4053 76.5303 36.608C76.3383 36.8107 76.0876 36.912 75.7783 36.912ZM79.8003 46V35.12H81.5603V46H79.8003ZM77.9603 39.92V38.32H83.4003V39.92H77.9603ZM84.6791 46V34.48H86.4391V46H84.6791ZM91.9659 46.16C91.1979 46.16 90.5045 45.9893 89.8859 45.648C89.2779 45.296 88.7925 44.816 88.4299 44.208C88.0779 43.6 87.9019 42.9173 87.9019 42.16C87.9019 41.4027 88.0779 40.7253 88.4299 40.128C88.7819 39.52 89.2565 39.04 89.8539 38.688C90.4619 38.336 91.1339 38.16 91.8699 38.16C92.5845 38.16 93.2139 38.3253 93.7579 38.656C94.3125 38.9867 94.7445 39.44 95.0539 40.016C95.3739 40.592 95.5339 41.248 95.5339 41.984C95.5339 42.112 95.5232 42.2453 95.5019 42.384C95.4912 42.512 95.4699 42.656 95.4379 42.816H89.1339V41.376H94.5259L93.8699 41.952C93.8485 41.4827 93.7579 41.088 93.5979 40.768C93.4379 40.448 93.2085 40.2027 92.9099 40.032C92.6219 39.8613 92.2645 39.776 91.8379 39.776C91.3899 39.776 91.0005 39.872 90.6699 40.064C90.3392 40.256 90.0832 40.528 89.9019 40.88C89.7205 41.2213 89.6299 41.632 89.6299 42.112C89.6299 42.592 89.7259 43.0133 89.9179 43.376C90.1099 43.7387 90.3819 44.0213 90.7339 44.224C91.0859 44.416 91.4912 44.512 91.9499 44.512C92.3445 44.512 92.7072 44.4427 93.0379 44.304C93.3792 44.1653 93.6672 43.9627 93.9019 43.696L95.0219 44.832C94.6485 45.2693 94.1952 45.6 93.6619 45.824C93.1285 46.048 92.5632 46.16 91.9659 46.16Z" fill="#F1F2F4"/>
<path d="M38.125 35.875C38.125 35.5783 38.213 35.2883 38.3778 35.0416C38.5426 34.795 38.7769 34.6027 39.051 34.4892C39.3251 34.3756 39.6267 34.3459 39.9176 34.4038C40.2086 34.4617 40.4759 34.6046 40.6857 34.8143C40.8954 35.0241 41.0383 35.2914 41.0962 35.5824C41.1541 35.8733 41.1244 36.1749 41.0108 36.449C40.8973 36.7231 40.705 36.9574 40.4584 37.1222C40.2117 37.287 39.9217 37.375 39.625 37.375C39.2272 37.375 38.8456 37.217 38.5643 36.9357C38.283 36.6544 38.125 36.2728 38.125 35.875ZM50.125 40C50.125 42.0025 49.5312 43.9601 48.4186 45.6251C47.3061 47.2902 45.7248 48.5879 43.8747 49.3543C42.0246 50.1206 39.9888 50.3211 38.0247 49.9305C36.0607 49.5398 34.2566 48.5755 32.8405 47.1595C31.4245 45.7435 30.4602 43.9393 30.0696 41.9753C29.6789 40.0112 29.8794 37.9754 30.6457 36.1253C31.4121 34.2752 32.7098 32.6939 34.3749 31.5814C36.0399 30.4688 37.9975 29.875 40 29.875C42.6844 29.878 45.258 30.9457 47.1562 32.8438C49.0543 34.742 50.122 37.3156 50.125 40ZM47.875 40C47.875 38.4425 47.4131 36.9199 46.5478 35.6249C45.6825 34.3298 44.4526 33.3205 43.0136 32.7244C41.5747 32.1284 39.9913 31.9725 38.4637 32.2763C36.9361 32.5802 35.5329 33.3302 34.4315 34.4315C33.3302 35.5329 32.5802 36.9361 32.2763 38.4637C31.9725 39.9913 32.1284 41.5747 32.7245 43.0136C33.3205 44.4526 34.3299 45.6825 35.6249 46.5478C36.9199 47.4131 38.4425 47.875 40 47.875C42.0879 47.8728 44.0896 47.0424 45.566 45.566C47.0424 44.0896 47.8728 42.0879 47.875 40ZM41.125 43.4387V40.375C41.125 39.8777 40.9275 39.4008 40.5758 39.0492C40.2242 38.6975 39.7473 38.5 39.25 38.5C38.9843 38.4996 38.7271 38.5932 38.5238 38.7643C38.3206 38.9354 38.1844 39.173 38.1395 39.4348C38.0946 39.6967 38.1438 39.966 38.2784 40.195C38.413 40.4241 38.6244 40.5981 38.875 40.6863V43.75C38.875 44.2473 39.0725 44.7242 39.4242 45.0758C39.7758 45.4275 40.2527 45.625 40.75 45.625C41.0157 45.6254 41.2729 45.5318 41.4762 45.3607C41.6794 45.1896 41.8156 44.952 41.8605 44.6902C41.9054 44.4283 41.8562 44.159 41.7216 43.93C41.587 43.7009 41.3756 43.5269 41.125 43.4387Z" fill="#6061EE"/>
<path d="M40 88.5H466C471.671 88.5 475.874 88.5008 479.101 88.9346C482.313 89.3665 484.483 90.2192 486.132 91.8682C487.781 93.5171 488.634 95.6871 489.065 98.8994C489.499 102.126 489.5 106.329 489.5 112C489.5 117.671 489.499 121.874 489.065 125.101C488.634 128.313 487.781 130.483 486.132 132.132C484.483 133.781 482.313 134.634 479.101 135.065C475.874 135.499 471.671 135.5 466 135.5H40C34.3291 135.5 30.1261 135.499 26.8994 135.065C23.6871 134.634 21.5171 133.781 19.8682 132.132C18.2192 130.483 17.3665 128.313 16.9346 125.101C16.5008 121.874 16.5 117.671 16.5 112C16.5 106.329 16.5008 102.126 16.9346 98.8994C17.3665 95.6871 18.2192 93.5171 19.8682 91.8682C21.5171 90.2192 23.6871 89.3665 26.8994 88.9346C30.1261 88.5008 34.3291 88.5 40 88.5Z" fill="#00241F"/>
<path d="M40 88.5H466C471.671 88.5 475.874 88.5008 479.101 88.9346C482.313 89.3665 484.483 90.2192 486.132 91.8682C487.781 93.5171 488.634 95.6871 489.065 98.8994C489.499 102.126 489.5 106.329 489.5 112C489.5 117.671 489.499 121.874 489.065 125.101C488.634 128.313 487.781 130.483 486.132 132.132C484.483 133.781 482.313 134.634 479.101 135.065C475.874 135.499 471.671 135.5 466 135.5H40C34.3291 135.5 30.1261 135.499 26.8994 135.065C23.6871 134.634 21.5171 133.781 19.8682 132.132C18.2192 130.483 17.3665 128.313 16.9346 125.101C16.5008 121.874 16.5 117.671 16.5 112C16.5 106.329 16.5008 102.126 16.9346 98.8994C17.3665 95.6871 18.2192 93.5171 19.8682 91.8682C21.5171 90.2192 23.6871 89.3665 26.8994 88.9346C30.1261 88.5008 34.3291 88.5 40 88.5Z" stroke="#00B49D"/>
<path d="M68.032 118V107.12H69.872V118H68.032ZM64.384 108.48V106.8H73.52V108.48H64.384ZM74.8983 118V110.32H76.6583V118H74.8983ZM75.7783 108.912C75.4796 108.912 75.2289 108.811 75.0263 108.608C74.8343 108.405 74.7383 108.155 74.7383 107.856C74.7383 107.557 74.8343 107.307 75.0263 107.104C75.2289 106.901 75.4796 106.8 75.7783 106.8C76.0876 106.8 76.3383 106.901 76.5303 107.104C76.7223 107.307 76.8183 107.557 76.8183 107.856C76.8183 108.155 76.7223 108.405 76.5303 108.608C76.3383 108.811 76.0876 108.912 75.7783 108.912ZM79.8003 118V107.12H81.5603V118H79.8003ZM77.9603 111.92V110.32H83.4003V111.92H77.9603ZM84.6791 118V106.48H86.4391V118H84.6791ZM91.9659 118.16C91.1979 118.16 90.5045 117.989 89.8859 117.648C89.2779 117.296 88.7925 116.816 88.4299 116.208C88.0779 115.6 87.9019 114.917 87.9019 114.16C87.9019 113.403 88.0779 112.725 88.4299 112.128C88.7819 111.52 89.2565 111.04 89.8539 110.688C90.4619 110.336 91.1339 110.16 91.8699 110.16C92.5845 110.16 93.2139 110.325 93.7579 110.656C94.3125 110.987 94.7445 111.44 95.0539 112.016C95.3739 112.592 95.5339 113.248 95.5339 113.984C95.5339 114.112 95.5232 114.245 95.5019 114.384C95.4912 114.512 95.4699 114.656 95.4379 114.816H89.1339V113.376H94.5259L93.8699 113.952C93.8485 113.483 93.7579 113.088 93.5979 112.768C93.4379 112.448 93.2085 112.203 92.9099 112.032C92.6219 111.861 92.2645 111.776 91.8379 111.776C91.3899 111.776 91.0005 111.872 90.6699 112.064C90.3392 112.256 90.0832 112.528 89.9019 112.88C89.7205 113.221 89.6299 113.632 89.6299 114.112C89.6299 114.592 89.7259 115.013 89.9179 115.376C90.1099 115.739 90.3819 116.021 90.7339 116.224C91.0859 116.416 91.4912 116.512 91.9499 116.512C92.3445 116.512 92.7072 116.443 93.0379 116.304C93.3792 116.165 93.6672 115.963 93.9019 115.696L95.0219 116.832C94.6485 117.269 94.1952 117.6 93.6619 117.824C93.1285 118.048 92.5632 118.16 91.9659 118.16Z" fill="#F1F2F4"/>
<path d="M44.5459 108.954C44.6508 109.059 44.734 109.183 44.7908 109.32C44.8476 109.456 44.8768 109.603 44.8768 109.751C44.8768 109.899 44.8476 110.046 44.7908 110.182C44.734 110.319 44.6508 110.443 44.5459 110.548L39.2959 115.798C39.1914 115.903 39.0672 115.986 38.9305 116.043C38.7937 116.099 38.6471 116.129 38.4991 116.129C38.351 116.129 38.2044 116.099 38.0676 116.043C37.9309 115.986 37.8067 115.903 37.7022 115.798L35.4522 113.548C35.3475 113.443 35.2645 113.319 35.2079 113.182C35.1513 113.045 35.1221 112.899 35.1221 112.751C35.1221 112.603 35.1513 112.456 35.2079 112.32C35.2645 112.183 35.3475 112.059 35.4522 111.954C35.5568 111.849 35.6811 111.766 35.8178 111.71C35.9545 111.653 36.1011 111.624 36.2491 111.624C36.3971 111.624 36.5436 111.653 36.6803 111.71C36.8171 111.766 36.9413 111.849 37.0459 111.954L38.5 113.406L42.9541 108.951C43.0587 108.847 43.183 108.764 43.3196 108.708C43.4563 108.651 43.6027 108.622 43.7506 108.623C43.8984 108.623 44.0448 108.652 44.1812 108.709C44.3177 108.766 44.4416 108.849 44.5459 108.954ZM50.125 112C50.125 114.003 49.5312 115.96 48.4186 117.625C47.3061 119.29 45.7248 120.588 43.8747 121.354C42.0246 122.121 39.9888 122.321 38.0247 121.93C36.0607 121.54 34.2566 120.575 32.8405 119.159C31.4245 117.743 30.4602 115.939 30.0696 113.975C29.6789 112.011 29.8794 109.975 30.6457 108.125C31.4121 106.275 32.7098 104.694 34.3749 103.581C36.0399 102.469 37.9975 101.875 40 101.875C42.6844 101.878 45.258 102.946 47.1562 104.844C49.0543 106.742 50.122 109.316 50.125 112ZM47.875 112C47.875 110.442 47.4131 108.92 46.5478 107.625C45.6825 106.33 44.4526 105.32 43.0136 104.724C41.5747 104.128 39.9913 103.972 38.4637 104.276C36.9361 104.58 35.5329 105.33 34.4315 106.432C33.3302 107.533 32.5802 108.936 32.2763 110.464C31.9725 111.991 32.1284 113.575 32.7245 115.014C33.3205 116.453 34.3299 117.683 35.6249 118.548C36.9199 119.413 38.4425 119.875 40 119.875C42.0879 119.873 44.0896 119.042 45.566 117.566C47.0424 116.09 47.8728 114.088 47.875 112Z" fill="#00B49D"/>
<path d="M40 160.5H466C471.671 160.5 475.874 160.501 479.101 160.935C482.313 161.366 484.483 162.219 486.132 163.868C487.781 165.517 488.634 167.687 489.065 170.899C489.499 174.126 489.5 178.329 489.5 184C489.5 189.671 489.499 193.874 489.065 197.101C488.634 200.313 487.781 202.483 486.132 204.132C484.483 205.781 482.313 206.634 479.101 207.065C475.874 207.499 471.671 207.5 466 207.5H40C34.3291 207.5 30.1261 207.499 26.8994 207.065C23.6871 206.634 21.5171 205.781 19.8682 204.132C18.2192 202.483 17.3665 200.313 16.9346 197.101C16.5008 193.874 16.5 189.671 16.5 184C16.5 178.329 16.5008 174.126 16.9346 170.899C17.3665 167.687 18.2192 165.517 19.8682 163.868C21.5171 162.219 23.6871 161.366 26.8994 160.935C30.1261 160.501 34.3291 160.5 40 160.5Z" fill="#2B1D0E"/>
<path d="M40 160.5H466C471.671 160.5 475.874 160.501 479.101 160.935C482.313 161.366 484.483 162.219 486.132 163.868C487.781 165.517 488.634 167.687 489.065 170.899C489.499 174.126 489.5 178.329 489.5 184C489.5 189.671 489.499 193.874 489.065 197.101C488.634 200.313 487.781 202.483 486.132 204.132C484.483 205.781 482.313 206.634 479.101 207.065C475.874 207.499 471.671 207.5 466 207.5H40C34.3291 207.5 30.1261 207.499 26.8994 207.065C23.6871 206.634 21.5171 205.781 19.8682 204.132C18.2192 202.483 17.3665 200.313 16.9346 197.101C16.5008 193.874 16.5 189.671 16.5 184C16.5 178.329 16.5008 174.126 16.9346 170.899C17.3665 167.687 18.2192 165.517 19.8682 163.868C21.5171 162.219 23.6871 161.366 26.8994 160.935C30.1261 160.501 34.3291 160.5 40 160.5Z" stroke="#D99048"/>
<path d="M68.032 190V179.12H69.872V190H68.032ZM64.384 180.48V178.8H73.52V180.48H64.384ZM74.8983 190V182.32H76.6583V190H74.8983ZM75.7783 180.912C75.4796 180.912 75.2289 180.811 75.0263 180.608C74.8343 180.405 74.7383 180.155 74.7383 179.856C74.7383 179.557 74.8343 179.307 75.0263 179.104C75.2289 178.901 75.4796 178.8 75.7783 178.8C76.0876 178.8 76.3383 178.901 76.5303 179.104C76.7223 179.307 76.8183 179.557 76.8183 179.856C76.8183 180.155 76.7223 180.405 76.5303 180.608C76.3383 180.811 76.0876 180.912 75.7783 180.912ZM79.8003 190V179.12H81.5603V190H79.8003ZM77.9603 183.92V182.32H83.4003V183.92H77.9603ZM84.6791 190V178.48H86.4391V190H84.6791ZM91.9659 190.16C91.1979 190.16 90.5045 189.989 89.8859 189.648C89.2779 189.296 88.7925 188.816 88.4299 188.208C88.0779 187.6 87.9019 186.917 87.9019 186.16C87.9019 185.403 88.0779 184.725 88.4299 184.128C88.7819 183.52 89.2565 183.04 89.8539 182.688C90.4619 182.336 91.1339 182.16 91.8699 182.16C92.5845 182.16 93.2139 182.325 93.7579 182.656C94.3125 182.987 94.7445 183.44 95.0539 184.016C95.3739 184.592 95.5339 185.248 95.5339 185.984C95.5339 186.112 95.5232 186.245 95.5019 186.384C95.4912 186.512 95.4699 186.656 95.4379 186.816H89.1339V185.376H94.5259L93.8699 185.952C93.8485 185.483 93.7579 185.088 93.5979 184.768C93.4379 184.448 93.2085 184.203 92.9099 184.032C92.6219 183.861 92.2645 183.776 91.8379 183.776C91.3899 183.776 91.0005 183.872 90.6699 184.064C90.3392 184.256 90.0832 184.528 89.9019 184.88C89.7205 185.221 89.6299 185.632 89.6299 186.112C89.6299 186.592 89.7259 187.013 89.9179 187.376C90.1099 187.739 90.3819 188.021 90.7339 188.224C91.0859 188.416 91.4912 188.512 91.9499 188.512C92.3445 188.512 92.7072 188.443 93.0379 188.304C93.3792 188.165 93.6672 187.963 93.9019 187.696L95.0219 188.832C94.6485 189.269 94.1952 189.6 93.6619 189.824C93.1285 190.048 92.5632 190.16 91.9659 190.16Z" fill="#F1F2F4"/>
<path d="M40 173.875C37.9975 173.875 36.0399 174.469 34.3749 175.581C32.7098 176.694 31.4121 178.275 30.6457 180.125C29.8794 181.975 29.6789 184.011 30.0696 185.975C30.4602 187.939 31.4245 189.743 32.8405 191.159C34.2566 192.575 36.0607 193.54 38.0247 193.93C39.9888 194.321 42.0246 194.121 43.8747 193.354C45.7248 192.588 47.3061 191.29 48.4186 189.625C49.5312 187.96 50.125 186.003 50.125 184C50.122 181.316 49.0543 178.742 47.1562 176.844C45.258 174.946 42.6844 173.878 40 173.875ZM40 191.875C38.4425 191.875 36.9199 191.413 35.6249 190.548C34.3299 189.683 33.3205 188.453 32.7245 187.014C32.1284 185.575 31.9725 183.991 32.2763 182.464C32.5802 180.936 33.3302 179.533 34.4315 178.432C35.5329 177.33 36.9361 176.58 38.4637 176.276C39.9913 175.972 41.5747 176.128 43.0136 176.724C44.4526 177.32 45.6825 178.33 46.5478 179.625C47.4131 180.92 47.875 182.442 47.875 184C47.8728 186.088 47.0424 188.09 45.566 189.566C44.0896 191.042 42.0879 191.873 40 191.875ZM38.875 184.375V179.5C38.875 179.202 38.9935 178.915 39.2045 178.705C39.4155 178.494 39.7016 178.375 40 178.375C40.2984 178.375 40.5845 178.494 40.7955 178.705C41.0065 178.915 41.125 179.202 41.125 179.5V184.375C41.125 184.673 41.0065 184.96 40.7955 185.17C40.5845 185.381 40.2984 185.5 40 185.5C39.7016 185.5 39.4155 185.381 39.2045 185.17C38.9935 184.96 38.875 184.673 38.875 184.375ZM41.5 188.125C41.5 188.422 41.412 188.712 41.2472 188.958C41.0824 189.205 40.8481 189.397 40.574 189.511C40.2999 189.624 39.9983 189.654 39.7074 189.596C39.4164 189.538 39.1491 189.395 38.9393 189.186C38.7296 188.976 38.5867 188.709 38.5288 188.418C38.4709 188.127 38.5007 187.825 38.6142 187.551C38.7277 187.277 38.92 187.043 39.1666 186.878C39.4133 186.713 39.7033 186.625 40 186.625C40.3978 186.625 40.7794 186.783 41.0607 187.064C41.342 187.346 41.5 187.727 41.5 188.125Z" fill="#D99048"/>
<path d="M40 232.5H466C471.671 232.5 475.874 232.501 479.101 232.935C482.313 233.366 484.483 234.219 486.132 235.868C487.781 237.517 488.634 239.687 489.065 242.899C489.499 246.126 489.5 250.329 489.5 256C489.5 261.671 489.499 265.874 489.065 269.101C488.634 272.313 487.781 274.483 486.132 276.132C484.483 277.781 482.313 278.634 479.101 279.065C475.874 279.499 471.671 279.5 466 279.5H40C34.3291 279.5 30.1261 279.499 26.8994 279.065C23.6871 278.634 21.5171 277.781 19.8682 276.132C18.2192 274.483 17.3665 272.313 16.9346 269.101C16.5008 265.874 16.5 261.671 16.5 256C16.5 250.329 16.5008 246.126 16.9346 242.899C17.3665 239.687 18.2192 237.517 19.8682 235.868C21.5171 234.219 23.6871 233.366 26.8994 232.935C30.1261 232.501 34.3291 232.5 40 232.5Z" fill="#2D0509"/>
<path d="M40 232.5H466C471.671 232.5 475.874 232.501 479.101 232.935C482.313 233.366 484.483 234.219 486.132 235.868C487.781 237.517 488.634 239.687 489.065 242.899C489.499 246.126 489.5 250.329 489.5 256C489.5 261.671 489.499 265.874 489.065 269.101C488.634 272.313 487.781 274.483 486.132 276.132C484.483 277.781 482.313 278.634 479.101 279.065C475.874 279.499 471.671 279.5 466 279.5H40C34.3291 279.5 30.1261 279.499 26.8994 279.065C23.6871 278.634 21.5171 277.781 19.8682 276.132C18.2192 274.483 17.3665 272.313 16.9346 269.101C16.5008 265.874 16.5 261.671 16.5 256C16.5 250.329 16.5008 246.126 16.9346 242.899C17.3665 239.687 18.2192 237.517 19.8682 235.868C21.5171 234.219 23.6871 233.366 26.8994 232.935C30.1261 232.501 34.3291 232.5 40 232.5Z" stroke="#E1172F"/>
<path d="M68.032 262V251.12H69.872V262H68.032ZM64.384 252.48V250.8H73.52V252.48H64.384ZM74.8983 262V254.32H76.6583V262H74.8983ZM75.7783 252.912C75.4796 252.912 75.2289 252.811 75.0263 252.608C74.8343 252.405 74.7383 252.155 74.7383 251.856C74.7383 251.557 74.8343 251.307 75.0263 251.104C75.2289 250.901 75.4796 250.8 75.7783 250.8C76.0876 250.8 76.3383 250.901 76.5303 251.104C76.7223 251.307 76.8183 251.557 76.8183 251.856C76.8183 252.155 76.7223 252.405 76.5303 252.608C76.3383 252.811 76.0876 252.912 75.7783 252.912ZM79.8003 262V251.12H81.5603V262H79.8003ZM77.9603 255.92V254.32H83.4003V255.92H77.9603ZM84.6791 262V250.48H86.4391V262H84.6791ZM91.9659 262.16C91.1979 262.16 90.5045 261.989 89.8859 261.648C89.2779 261.296 88.7925 260.816 88.4299 260.208C88.0779 259.6 87.9019 258.917 87.9019 258.16C87.9019 257.403 88.0779 256.725 88.4299 256.128C88.7819 255.52 89.2565 255.04 89.8539 254.688C90.4619 254.336 91.1339 254.16 91.8699 254.16C92.5845 254.16 93.2139 254.325 93.7579 254.656C94.3125 254.987 94.7445 255.44 95.0539 256.016C95.3739 256.592 95.5339 257.248 95.5339 257.984C95.5339 258.112 95.5232 258.245 95.5019 258.384C95.4912 258.512 95.4699 258.656 95.4379 258.816H89.1339V257.376H94.5259L93.8699 257.952C93.8485 257.483 93.7579 257.088 93.5979 256.768C93.4379 256.448 93.2085 256.203 92.9099 256.032C92.6219 255.861 92.2645 255.776 91.8379 255.776C91.3899 255.776 91.0005 255.872 90.6699 256.064C90.3392 256.256 90.0832 256.528 89.9019 256.88C89.7205 257.221 89.6299 257.632 89.6299 258.112C89.6299 258.592 89.7259 259.013 89.9179 259.376C90.1099 259.739 90.3819 260.021 90.7339 260.224C91.0859 260.416 91.4912 260.512 91.9499 260.512C92.3445 260.512 92.7072 260.443 93.0379 260.304C93.3792 260.165 93.6672 259.963 93.9019 259.696L95.0219 260.832C94.6485 261.269 94.1952 261.6 93.6619 261.824C93.1285 262.048 92.5632 262.16 91.9659 262.16Z" fill="#F1F2F4"/>
<path d="M43.7959 253.796L41.5938 256L43.7988 258.204C44.0101 258.415 44.1288 258.702 44.1288 259.001C44.1288 259.3 44.0101 259.586 43.7988 259.798C43.5874 260.009 43.3008 260.128 43.0019 260.128C42.703 260.128 42.4163 260.009 42.205 259.798L40 257.594L37.7959 259.799C37.5846 260.01 37.298 260.129 36.9991 260.129C36.7002 260.129 36.4135 260.01 36.2022 259.799C35.9908 259.587 35.8721 259.301 35.8721 259.002C35.8721 258.703 35.9908 258.416 36.2022 258.205L38.4063 256L36.2041 253.796C36.0994 253.691 36.0164 253.567 35.9598 253.43C35.9031 253.294 35.874 253.147 35.874 252.999C35.874 252.7 35.9927 252.414 36.2041 252.202C36.4154 251.991 36.7021 251.872 37.0009 251.872C37.2998 251.872 37.5865 251.991 37.7978 252.202L40 254.406L42.2041 252.201C42.4154 251.99 42.7021 251.871 43.0009 251.871C43.2998 251.871 43.5865 251.99 43.7978 252.201C44.0092 252.413 44.1279 252.699 44.1279 252.998C44.1279 253.297 44.0092 253.584 43.7978 253.795L43.7959 253.796ZM50.125 256C50.125 258.003 49.5312 259.96 48.4186 261.625C47.3061 263.29 45.7248 264.588 43.8747 265.354C42.0246 266.121 39.9888 266.321 38.0247 265.93C36.0607 265.54 34.2566 264.575 32.8405 263.159C31.4245 261.743 30.4602 259.939 30.0696 257.975C29.6789 256.011 29.8794 253.975 30.6457 252.125C31.4121 250.275 32.7098 248.694 34.3749 247.581C36.0399 246.469 37.9975 245.875 40 245.875C42.6844 245.878 45.258 246.946 47.1562 248.844C49.0543 250.742 50.122 253.316 50.125 256ZM47.875 256C47.875 254.442 47.4131 252.92 46.5478 251.625C45.6825 250.33 44.4526 249.32 43.0136 248.724C41.5747 248.128 39.9913 247.972 38.4637 248.276C36.9361 248.58 35.5329 249.33 34.4315 250.432C33.3302 251.533 32.5802 252.936 32.2763 254.464C31.9725 255.991 32.1284 257.575 32.7245 259.014C33.3205 260.453 34.3299 261.683 35.6249 262.548C36.9199 263.413 38.4425 263.875 40 263.875C42.0879 263.873 44.0896 263.042 45.566 261.566C47.0424 260.09 47.8728 258.088 47.875 256Z" fill="#E1172F"/>
<path d="M40 304.5H466C471.671 304.5 475.874 304.501 479.101 304.935C482.313 305.366 484.483 306.219 486.132 307.868C487.781 309.517 488.634 311.687 489.065 314.899C489.499 318.126 489.5 322.329 489.5 328C489.5 333.671 489.499 337.874 489.065 341.101C488.634 344.313 487.781 346.483 486.132 348.132C484.483 349.781 482.313 350.634 479.101 351.065C475.874 351.499 471.671 351.5 466 351.5H40C34.3291 351.5 30.1261 351.499 26.8994 351.065C23.6871 350.634 21.5171 349.781 19.8682 348.132C18.2192 346.483 17.3665 344.313 16.9346 341.101C16.5008 337.874 16.5 333.671 16.5 328C16.5 322.329 16.5008 318.126 16.9346 314.899C17.3665 311.687 18.2192 309.517 19.8682 307.868C21.5171 306.219 23.6871 305.366 26.8994 304.935C30.1261 304.501 34.3291 304.5 40 304.5Z" fill="#1C1D23"/>
<path d="M40 304.5H466C471.671 304.5 475.874 304.501 479.101 304.935C482.313 305.366 484.483 306.219 486.132 307.868C487.781 309.517 488.634 311.687 489.065 314.899C489.499 318.126 489.5 322.329 489.5 328C489.5 333.671 489.499 337.874 489.065 341.101C488.634 344.313 487.781 346.483 486.132 348.132C484.483 349.781 482.313 350.634 479.101 351.065C475.874 351.499 471.671 351.5 466 351.5H40C34.3291 351.5 30.1261 351.499 26.8994 351.065C23.6871 350.634 21.5171 349.781 19.8682 348.132C18.2192 346.483 17.3665 344.313 16.9346 341.101C16.5008 337.874 16.5 333.671 16.5 328C16.5 322.329 16.5008 318.126 16.9346 314.899C17.3665 311.687 18.2192 309.517 19.8682 307.868C21.5171 306.219 23.6871 305.366 26.8994 304.935C30.1261 304.501 34.3291 304.5 40 304.5Z" stroke="#3F4350"/>
<path d="M68.032 334V323.12H69.872V334H68.032ZM64.384 324.48V322.8H73.52V324.48H64.384ZM74.8983 334V326.32H76.6583V334H74.8983ZM75.7783 324.912C75.4796 324.912 75.2289 324.811 75.0263 324.608C74.8343 324.405 74.7383 324.155 74.7383 323.856C74.7383 323.557 74.8343 323.307 75.0263 323.104C75.2289 322.901 75.4796 322.8 75.7783 322.8C76.0876 322.8 76.3383 322.901 76.5303 323.104C76.7223 323.307 76.8183 323.557 76.8183 323.856C76.8183 324.155 76.7223 324.405 76.5303 324.608C76.3383 324.811 76.0876 324.912 75.7783 324.912ZM79.8003 334V323.12H81.5603V334H79.8003ZM77.9603 327.92V326.32H83.4003V327.92H77.9603ZM84.6791 334V322.48H86.4391V334H84.6791ZM91.9659 334.16C91.1979 334.16 90.5045 333.989 89.8859 333.648C89.2779 333.296 88.7925 332.816 88.4299 332.208C88.0779 331.6 87.9019 330.917 87.9019 330.16C87.9019 329.403 88.0779 328.725 88.4299 328.128C88.7819 327.52 89.2565 327.04 89.8539 326.688C90.4619 326.336 91.1339 326.16 91.8699 326.16C92.5845 326.16 93.2139 326.325 93.7579 326.656C94.3125 326.987 94.7445 327.44 95.0539 328.016C95.3739 328.592 95.5339 329.248 95.5339 329.984C95.5339 330.112 95.5232 330.245 95.5019 330.384C95.4912 330.512 95.4699 330.656 95.4379 330.816H89.1339V329.376H94.5259L93.8699 329.952C93.8485 329.483 93.7579 329.088 93.5979 328.768C93.4379 328.448 93.2085 328.203 92.9099 328.032C92.6219 327.861 92.2645 327.776 91.8379 327.776C91.3899 327.776 91.0005 327.872 90.6699 328.064C90.3392 328.256 90.0832 328.528 89.9019 328.88C89.7205 329.221 89.6299 329.632 89.6299 330.112C89.6299 330.592 89.7259 331.013 89.9179 331.376C90.1099 331.739 90.3819 332.021 90.7339 332.224C91.0859 332.416 91.4912 332.512 91.9499 332.512C92.3445 332.512 92.7072 332.443 93.0379 332.304C93.3792 332.165 93.6672 331.963 93.9019 331.696L95.0219 332.832C94.6485 333.269 94.1952 333.6 93.6619 333.824C93.1285 334.048 92.5632 334.16 91.9659 334.16Z" fill="#F1F2F4"/>
<path d="M50.7815 325.005C50.6675 324.655 50.4533 324.347 50.1657 324.118C49.878 323.89 49.5294 323.751 49.1633 323.718L43.8196 323.256L41.729 318.274C41.5852 317.936 41.3448 317.647 41.0379 317.443C40.731 317.24 40.3711 317.132 40.003 317.132C39.635 317.132 39.2751 317.24 38.9682 317.443C38.6612 317.647 38.4209 317.936 38.2771 318.274L36.1837 323.256L30.8399 323.718C30.4718 323.749 30.121 323.887 29.8313 324.117C29.5417 324.346 29.3261 324.655 29.2118 325.006C29.0974 325.358 29.0893 325.735 29.1885 326.091C29.2877 326.446 29.4897 326.765 29.7693 327.006L33.8305 330.55L32.6118 335.823C32.5282 336.182 32.5523 336.557 32.6811 336.903C32.8098 337.248 33.0376 337.548 33.3358 337.765C33.634 337.981 33.9895 338.105 34.3578 338.121C34.7261 338.137 35.0908 338.044 35.4065 337.853L40.0002 335.063L44.594 337.853C44.9096 338.043 45.2742 338.136 45.6424 338.12C46.0105 338.104 46.3657 337.98 46.6638 337.764C46.9618 337.547 47.1895 337.247 47.3182 336.902C47.447 336.557 47.4711 336.181 47.3877 335.823L46.169 330.55L50.2302 327.006C50.509 326.764 50.7101 326.445 50.8081 326.089C50.9062 325.733 50.8969 325.356 50.7815 325.005ZM44.5237 329C44.2666 329.224 44.0753 329.514 43.9704 329.838C43.8655 330.162 43.851 330.509 43.9283 330.841L44.9962 335.464L40.9705 333.019C40.6782 332.841 40.3425 332.747 40.0002 332.747C39.6579 332.747 39.3223 332.841 39.0299 333.019L35.0043 335.464L36.0721 330.841C36.1495 330.509 36.1349 330.162 36.0301 329.838C35.9252 329.514 35.7339 329.224 35.4768 329L31.9058 325.885L36.6065 325.478C36.9469 325.449 37.2727 325.327 37.5486 325.126C37.8245 324.924 38.0398 324.651 38.1712 324.335L40.0002 319.977L41.8293 324.335C41.9606 324.651 42.1759 324.924 42.4518 325.126C42.7277 325.327 43.0536 325.449 43.394 325.478L48.0946 325.885L44.5237 329Z" fill="#F1F2F4"/>
</svg>
