<svg xmlns="http://www.w3.org/2000/svg" fill="none" viewBox="0 0 216 216"><path fill="#E7E8EB" d="M.7664 130.137c.07084-.404.14168-.804.22502-1.2 2.06682-10.484 7.28803-21.193 14.74278-31.4232.1291-.1833.2625-.3583.3917-.5334v-.0083c.1708-.2375.35-.4709.525-.7084h.0083c.2834-.3958.5667-.7709.8626-1.1459 11.7884-15.3594 28.5271-29.5271 47.0284-40.0737 2.5127-1.4377 5.067-2.8086 7.6464-4.1128h.0083c9.0215-4.542 18.3305-8.1798 27.6021-10.6633 9.013-2.4169 17.71-3.692 25.989-3.9461 1.338-.0417 2.676-.0626 3.988-.0459.079 0 .158 0 .242.0042.317-.0042.637.0083.954.0125.071 0 .129.0042.2.0042.979.0166 1.95.0541 2.921.1125 10.451.5458 20.181 2.7627 29.04 6.3754.254.1.5.2042.75.3167 5.4 2.2585 10.463 5.0379 15.168 8.2881.679.4625 1.354.9376 2.008 1.4251.088.0667.175.1334.271.1959.158.1166.321.2417.475.3708 7.938 5.9463 14.73 13.251 20.197 21.5849.179.2584.35.5209.521.7918 5.005 7.7839 8.876 16.447 11.451 25.7269.083.275.158.554.233.829l.017.067c.079.296.158.583.217.883.037.1.062.192.079.296 2.112 8.738 1.867 18.193-.196 27.615-.05.291-.121.579-.192.875-2.554 11.109-7.613 22.135-14.284 31.806-.229.358-.475.704-.721 1.059-.008 0-.017.012-.017.012-.208.296-.416.588-.629.875-.333.458-.658.913-1 1.35-.417.559-.833 1.109-1.258 1.638-7.993 10.184-17.777 18.435-28.119 23.01-.567.25-1.138.492-1.713.717-11.726 4.708-24.076 4.633-35.29-2.688-1.429-.929-2.917-1.729-4.45-2.413 0 0 0-.008-.013-.008-.258-.121-.52-.238-.787-.346h-.008c-1.588-.663-3.226-1.208-4.922-1.646-2.296-.596-4.679-1.008-7.142-1.275-.879-.092-1.775-.171-2.671-.217-24.4808-1.55-55.6831 9.884-80.5349-.571a6.40044 6.40044 0 0 1-.3334-.137c-.1917-.088-.3958-.171-.5875-.258-1.1501-.517-2.2919-1.076-3.4211-1.696-8.0964-4.434-15.3928-11.585-21.37657-22.79-.01666-.025-.025-.054-.04167-.079-.13751-.25-.26251-.504-.39169-.758C.08719 149.034-.90455 139.692.7664 130.137Z"/><path fill="#FBFBFC" d="m23.9014 171.173 158.1866.209c-.046-.413-159.4617 1-158.1866-.209Z"/><path fill="#1C1D23" d="M163.395 175.394c5.888 1.109 36.557 2.33 38.311 6.676 1.517 3.759-20.885 5.046-34.323 1.533-7.78-2.033-5.909 4.98-16.447 4.972-14.214-.013-32.573.008-47.791-.217-37.803-.558-46.9453-.004-46.9453-3.45 0-3.259 17.1846-6.68 51.0663-6.68 33.882 0 51.7-3.667 56.129-2.834Z"/><path fill="#FBFBFC" d="M187.38 169.198v6.426c0 2.366-7.192 4.283-16.068 4.283-8.875 0-16.068-1.917-16.068-4.283v-6.426"/><path fill="#1C1D23" d="M187.38 169.198c.096 1.984.133 3.963.204 5.946.192 1.188-.654 2.005-1.6 2.546-6.675 3.546-22.651 3.551-29.339 0-.934-.533-1.801-1.362-1.601-2.546.071-1.983.109-3.962.205-5.946.095 1.984.133 3.963.204 5.946 0 .5.008.88.35 1.246.992 1.025 2.471 1.438 3.825 1.838 1.888.496 3.838.8 5.792.988 5.009.529 17.701.591 21.406-2.826.337-.366.354-.746.35-1.246.071-1.983.108-3.962.204-5.946Z"/><path fill="#FBFBFC" d="M187.38 162.769v6.425c0 2.367-7.192 4.284-16.068 4.284-8.875 0-16.068-1.917-16.068-4.284v-6.425"/><path fill="#1C1D23" d="M187.38 162.769c.096 1.983.133 3.962.204 5.946.192 1.187-.654 2.004-1.6 2.546-6.675 3.546-22.651 3.55-29.339 0-.934-.534-1.801-1.363-1.601-2.546.071-1.984.109-3.963.205-5.946.095 1.983.133 3.962.204 5.946 0 .5.008.879.35 1.246.992 1.025 2.471 1.437 3.825 1.837 1.888.496 3.838.8 5.792.988 5.009.529 17.701.592 21.406-2.825.337-.367.354-.746.35-1.246.071-1.984.108-3.963.204-5.946Z"/><path fill="#E7E8EB" d="M171.312 167.052c8.874 0 16.068-1.918 16.068-4.283 0-2.366-7.194-4.284-16.068-4.284-8.874 0-16.068 1.918-16.068 4.284 0 2.365 7.194 4.283 16.068 4.283Z"/><path fill="#1C1D23" d="M187.38 162.769c-.25 2.329-5.492 3.262-7.421 3.641-5.713.951-11.589 1.017-17.318.146-10.093-1.629-10.143-5.929 0-7.575 5.729-.875 11.605-.804 17.318.146 1.946.383 7.163 1.308 7.421 3.642Zm0 0c-.267-2.326-5.504-3.217-7.43-3.584-5.7-.867-11.567-.8-17.247.146-9.58 1.687-9.634 5.171 0 6.871 5.68.946 11.547 1.013 17.247.146 1.946-.371 7.159-1.258 7.43-3.584v.005Z"/><path fill="#FBFBFC" d="M187.38 156.314v6.425c0 2.367-7.192 4.284-16.068 4.284-8.875 0-16.068-1.917-16.068-4.284v-6.425"/><path fill="#1C1D23" d="M187.38 156.314c.096 1.983.133 3.963.204 5.946.192 1.188-.654 2.004-1.6 2.546-6.675 3.546-22.651 3.55-29.339 0-.934-.533-1.801-1.362-1.601-2.546.071-1.983.109-3.963.205-5.946.095 1.983.133 3.963.204 5.946 0 .5.008.879.35 1.246.992 1.025 2.471 1.438 3.825 1.838 1.888.496 3.838.8 5.792.987 5.009.529 17.701.592 21.406-2.825.337-.367.354-.746.35-1.246.071-1.983.108-3.963.204-5.946Z"/><path fill="#FBFBFC" d="M187.38 149.884v6.426c0 2.367-7.192 4.283-16.068 4.283-8.875 0-16.068-1.916-16.068-4.283v-6.426"/><path fill="#1C1D23" d="M187.38 149.884c.096 1.984.133 3.963.204 5.947.192 1.187-.654 2.004-1.6 2.546-6.675 3.546-22.651 3.55-29.339 0-.934-.534-1.801-1.363-1.601-2.546.071-1.984.109-3.963.205-5.947.095 1.984.133 3.963.204 5.947 0 .5.008.879.35 1.245.992 1.026 2.471 1.438 3.825 1.838 1.888.496 3.838.8 5.792.988 5.009.529 17.701.591 21.406-2.826.337-.366.354-.745.35-1.245.071-1.984.108-3.963.204-5.947Z"/><path fill="#FBFBFC" d="M187.38 143.459v6.425c0 2.367-7.192 4.284-16.068 4.284-8.875 0-16.068-1.917-16.068-4.284v-6.425"/><path fill="#1C1D23" d="M187.38 143.459c.096 1.983.133 3.963.204 5.946.192 1.188-.654 2.004-1.6 2.546-6.675 3.546-22.651 3.55-29.339 0-.934-.533-1.801-1.362-1.601-2.546.071-1.983.109-3.963.205-5.946.095 1.983.133 3.963.204 5.946 0 .5.008.879.35 1.246.992 1.025 2.471 1.438 3.825 1.838 1.888.496 3.838.8 5.792.987 5.009.529 17.701.592 21.406-2.825.337-.367.354-.746.35-1.246.071-1.983.108-3.963.204-5.946Z"/><path fill="#E7E8EB" d="M171.312 147.742c8.874 0 16.068-1.917 16.068-4.283 0-2.366-7.194-4.284-16.068-4.284-8.874 0-16.068 1.918-16.068 4.284 0 2.366 7.194 4.283 16.068 4.283Z"/><path fill="#1C1D23" d="M187.38 143.459c-.25 2.333-5.492 3.263-7.421 3.642-5.713.95-11.589 1.016-17.318.146-10.093-1.63-10.143-5.93 0-7.576 5.729-.875 11.605-.804 17.318.146 1.946.383 7.163 1.308 7.421 3.642Zm0 0c-.267-2.325-5.504-3.217-7.43-3.584-5.7-.867-11.567-.8-17.247.146-9.58 1.688-9.634 5.171 0 6.871 5.68.946 11.547 1.013 17.247.146 1.946-.371 7.159-1.258 7.43-3.583v.004Z"/><path fill="#FBFBFC" d="M197.314 174.536v6.426c0 2.366-7.192 4.283-16.068 4.283-8.875 0-16.068-1.917-16.068-4.283v-6.426"/><path fill="#1C1D23" d="M197.314 174.536c.096 1.984.134 3.963.204 5.946.192 1.188-.654 2.005-1.6 2.546-6.675 3.547-22.651 3.551-29.339 0-.934-.533-1.801-1.362-1.601-2.546.071-1.983.109-3.962.205-5.946.095 1.984.133 3.963.204 5.946 0 .5.008.88.35 1.246.992 1.025 2.471 1.438 3.825 1.838 1.888.496 3.838.8 5.792.988 5.009.529 17.702.591 21.406-2.826.337-.366.354-.746.35-1.246.067-1.983.108-3.962.204-5.946Z"/><path fill="#FBFBFC" d="M197.314 168.111v6.425c0 2.367-7.192 4.284-16.068 4.284-8.875 0-16.068-1.917-16.068-4.284v-6.425"/><path fill="#1C1D23" d="M197.314 168.111c.096 1.983.134 3.962.204 5.946.192 1.187-.654 2.004-1.6 2.546-6.675 3.546-22.651 3.55-29.339 0-.934-.534-1.801-1.363-1.601-2.546.071-1.984.109-3.963.205-5.946.095 1.983.133 3.962.204 5.946 0 .5.008.879.35 1.246.992 1.025 2.471 1.437 3.825 1.837 1.888.496 3.838.8 5.792.988 5.009.529 17.702.592 21.406-2.825.337-.367.354-.746.35-1.246.067-1.984.108-3.963.204-5.946Z"/><path fill="#E7E8EB" d="M181.246 172.394c8.874 0 16.068-1.918 16.068-4.283 0-2.366-7.194-4.284-16.068-4.284-8.874 0-16.068 1.918-16.068 4.284 0 2.365 7.194 4.283 16.068 4.283Z"/><path fill="#1C1D23" d="M197.314 168.111c-.25 2.329-5.492 3.262-7.421 3.642-5.713.95-11.589 1.016-17.318.145-10.093-1.629-10.143-5.929 0-7.575 5.729-.875 11.605-.804 17.318.146 1.946.383 7.163 1.308 7.421 3.642Zm0 0c-.266-2.325-5.504-3.217-7.43-3.584-5.7-.867-11.567-.8-17.247.146-9.579 1.688-9.634 5.171 0 6.871 5.68.946 11.547 1.013 17.247.146 1.946-.371 7.159-1.258 7.43-3.583v.004ZM141.127 186.224H62.7751c-4.0128 0-7.6381-1.621-10.2633-4.254-.9875-.988-1.8334-2.104-2.5043-3.342-.2209-.413-.425-.838-.6126-1.267-.2708-.654-.5083-1.333-.6833-2.025-.3001-1.162-.4584-2.379-.4584-3.629v-66.722s-.0167-.267.0167-.721c.2791-5.6918 3.8377-10.5297 8.8214-12.634.05-.0292.1125-.05.1625-.075.0084 0 .0084-.0083.0167-.0083.5459-.2209 1.1043-.4126 1.6793-.5668.0958-.0291.2-.0583.2959-.0791.2-.05.3958-.0959.5958-.1334.05-.0166.1042-.0291.1542-.0375h.0083c.1126-.0208.2292-.0458.3459-.0583.075-.0167.1167-.0208.1333-.0292h.0167c.7417-.1167 1.5043-.175 2.2835-.175h78.3516c.721 0 1.438.05 2.129.1625 3.101.4501 5.884 1.8835 8.018 3.9753 0 0 .002.0028.008.0083 0 0 .008 0 .008.0084 1.438 1.4084 2.584 3.1169 3.338 5.0128.021.05.042.1084.062.1667.375 1.0376.555 2.1376.555 3.2416v81.39"/><path fill="#4F46E5" stroke="#1C1D23" stroke-miterlimit="50" d="m146.702 142.599-2.246 5.392-.008.009-.171-2.705c-2.217 1.859-5.063 2.975-8.184 2.975H67.2462c-.1375-.516-.2292-1.058-.2583-1.616l-.3292-5.205-4.4337-69.5216-.5042-7.8423-2.4376-38.1819c-.1626-2.5627.8-4.9462 2.4543-6.6547.0333-.0333.0667-.0708.1042-.1041 1.4501-1.4585 3.4169-2.4085 5.6337-2.5461L122.9 13.0648l6.792-.4334c4.83-.3125 8.997 3.3502 9.301 8.1839l3.28 51.3288.087 1.4292 4.338 67.9927c.021.35.025.691.008 1.033h-.004Z"/><path fill="#1C1D23" d="m146.702 142.599-2.246 5.392-.008.009-.171-2.705c-2.217 1.859-5.063 2.975-8.184 2.975h-4.571l-8.626-135.2052 6.792-.4334c4.83-.3125 8.997 3.3502 9.301 8.1839l3.279 51.3288.088 1.4292 4.338 67.9927c.02.35.025.691.008 1.033Z"/><path fill="#E1172F" d="M128.109 140.87c-.396-.592-.646-1.296-.696-2.059-.146-2.312 1.605-4.308 3.921-4.454 2.317-.146 4.309 1.608 4.455 3.921.05.763-.108 1.492-.429 2.129"/><path stroke="#1C1D23" stroke-miterlimit="10" stroke-width="3" d="M128.109 140.87c-.396-.592-.646-1.296-.696-2.059-.146-2.312 1.605-4.308 3.921-4.454 2.317-.146 4.309 1.608 4.455 3.921.05.763-.108 1.492-.429 2.129"/><path fill="#D99048" d="M131.868 146.929c2.317 0 4.196-1.879 4.196-4.196 0-2.318-1.879-4.197-4.196-4.197-2.318 0-4.196 1.879-4.196 4.197 0 2.317 1.878 4.196 4.196 4.196Z"/><path fill="#1C1D23" d="M132.139 146.92c-3.834.271-6.28-4.262-3.822-7.317 1.571-2.046 4.863-2.263 6.684-.429 2.834 2.717.975 7.526-2.862 7.746Zm0 0c2.212-.079 3.992-2.3 3.608-4.437-.825-4.688-7.53-4.263-7.755.495-.108 2.167 1.942 4.142 4.147 3.942Z"/><g fill="#E7E8EB" opacity=".35"><path d="m69.2589 25.8699-.0333-.4667-.7168-.025.1042-.7126-.4458-.1166-.2542.675-.6459-.3167-.2459.3875.5709.4542-.5125.5167.2958.3501.6001-.3959.3375.6334.4292-.1667-.1959-.6917.7126-.125ZM69.4589 29.0118l-.0334-.4667-.7167-.025.1042-.7125-.4459-.1167-.2542.6751-.6459-.3167-.2458.3875.5709.4542-.5126.5167.2959.35.6-.3958.3376.6334.4292-.1667-.1959-.6917.7126-.1251ZM69.659 32.1495l-.0333-.4667-.7167-.025.1042-.7125-.4459-.1167-.2542.6751-.6459-.3167-.2458.3875.5709.4542-.5126.5167.2959.35.5959-.3958.3375.6333.4333-.1666-.1958-.6917.7125-.1251ZM69.8548 35.2914l-.025-.4667-.7167-.025.1042-.7126-.4459-.1166-.2542.675-.6459-.3167-.2458.3875.5709.4542-.5126.5167.2959.3501.5959-.3959.3375.6334.4333-.1667-.1958-.6917.7042-.125ZM70.1923 40.4876l-.0334-.4667-.7167-.0334.1042-.7042-.4459-.1167-.2542.6667-.6459-.3125-.2458.3875.5709.4459-.5126.5167.2959.3542.6-.4.3375.6417.4292-.175-.1958-.6876.7126-.125v.0084ZM70.3922 43.6295l-.0333-.4667-.7167-.0333.1041-.7042-.4458-.1167-.2542.6667-.6459-.3125-.2459.3875.5709.4459-.5125.5167.2958.3542.6001-.4001.3375.6418.4292-.1751-.1958-.6875.7125-.125v.0083ZM70.5922 46.7672l-.0334-.4667-.7167-.0333.1042-.7042-.4459-.1167-.2542.6667-.6459-.3125-.2458.3875.5709.4459-.5126.5167.2959.3542.5959-.4001.3375.6418.4334-.1751-.1959-.6875.7126-.125v.0083ZM70.7882 49.9091l-.025-.4667-.7168-.0334.1042-.7042-.4458-.1167-.2542.6667-.6459-.3125-.2459.3876.5709.4458-.5125.5167.2958.3542.5959-.4.3375.6417.4334-.175-.1958-.6876.7042-.125v.0084ZM71.1256 55.1054l-.0333-.4667-.7167-.0334.1041-.7125-.4458-.1084-.2542.6667-.6459-.3167-.2459.3876.5709.4542-.5125.5167.2958.3542.6001-.4001.3375.6334.4292-.1667-.1958-.6917.7125-.1166ZM71.3256 58.2473l-.0334-.4667-.7167-.0333.1042-.7042-.4459-.1167-.2542.6667-.6459-.3167-.2458.3875.5709.4542-.5126.5167.2959.3542.6-.4.3375.6334.4292-.1667-.1958-.6917.7126-.1167ZM71.5257 61.385l-.0333-.4667-.7167-.0333.1042-.7042-.4459-.1167-.2542.6667-.6459-.3167-.2458.3875.5709.4542-.5126.5167.2959.3542.5959-.4.3375.6334.4333-.1667-.1958-.6917.7125-.1167ZM71.7174 64.5269l-.025-.4417v-.025l-.7168-.0334.1042-.7042-.4458-.1167-.2542.6667-.6459-.3166-.2459.3875.1792.1417.3875.3125-.5125.5167.2959.3542.5958-.4.3376.6333.4333-.1666-.1958-.6918.7042-.1166h.0042ZM72.055 69.719l-.0333-.4667-.7167-.025.1042-.7126-.4459-.1083-.2542.6667-.6459-.3167-.2458.3875.5709.4542-.5126.5167.2959.3542.6-.4.3375.6334.4292-.1667-.1958-.6917.7125-.125ZM72.255 72.8567l-.0333-.4667-.7167-.025.0666-.4334.0375-.2792-.4458-.1083-.15.3875-.1042.2792-.5709-.2792-.0792-.0375-.025.0375-.2208.35.5709.4542-.5126.5167.2959.3542.6-.4.3375.6334.4292-.1667-.1958-.6917.7125-.125h.0042ZM72.4593 75.9986l-.0333-.4667-.7167-.025.1042-.7125-.4459-.1084-.2542.6668-.6459-.3167-.2458.3875.5709.4542-.5126.5167.2959.3542.5958-.4.3376.6333.4333-.1666-.1958-.6918.7125-.125ZM72.651 79.1363l-.025-.4667-.7168-.025.1042-.7125-.4459-.1084-.2541.6667-.6459-.3166-.2459.3875.5709.4542-.5125.5167.2958.3542.5959-.4.3375.6333.4334-.1666-.1959-.6918.7043-.125Z"/></g><path fill="#1C1D23" d="M141.589 152.85c.033-.188.033-.3.1-.413l.088-.008c.016-.008.029-.021.045-.025l-.087.008c.079-.033.162.08.217.155.104.125.15.241.116.408-.012.112-.062.246-.171.25-.033 0-.095.017-.125 0l.088-.008c-.142-.063-.204-.18-.275-.363l.004-.004Z"/><path fill="#1C1D23" d="M142.072 152.754c.038.325.105.438-.033.438l-.158.037c-.025 0-.079.009-.104.013l.12-.017-.154.025c-.025-.012-.05.058-.083-.079-.029-.092-.054-.2-.071-.321.033-.179.008-.429.033-.425.025 0 .13-.013.155-.017l.045-.008h-.058l.096-.021c.012-.008.033 0 .046-.025l.175.396-.009.004Z"/><path stroke="#E7E8EB" stroke-linecap="round" stroke-linejoin="round" d="M97.2275 56.1095c1.2501.7251 2.7169 1.1001 4.2675 1.0001 1.55-.1 2.958-.6584 4.104-1.5334M98.1194 54.5678c.9542.5542 2.0796.8417 3.2626.7667 1.184-.075 2.263-.5042 3.138-1.1751M99.011 53.0302c.6625.3833 1.438.5834 2.258.5292.821-.0542 1.567-.35 2.176-.8126"/><path fill="#E7E8EB" d="m108.245 46.9109-.906-14.2055c-.097-1.5181-1.406-2.6702-2.924-2.5734l-9.1279.5823c-1.5181.0968-2.6703 1.406-2.5734 2.9241l.9061 14.2055c.0969 1.5181 1.4061 2.6703 2.9242 2.5734l9.128-.5822c1.518-.0969 2.67-1.4061 2.573-2.9242Z"/><path stroke="#FBFBFC" stroke-miterlimit="50" d="m102.99 34.0454.526 8.2381M100.665 34.0704l.384 6.0421M97.6484 41.496l.3542 5.517M95.8484 41.8376l.1542 2.3877" opacity=".49"/><path fill="#FBFBFC" d="M161.478 114.744v58.192c0 3.004-.904 5.805-2.45 8.126-.767 1.158-1.692 2.196-2.754 3.083h-.009c-2.517 2.129-5.758 3.409-9.309 3.409H62.1335c-4.0128 0-7.6381-1.63-10.2633-4.284-.9875-.987-1.8334-2.121-2.5043-3.367-.2292-.417-.4292-.846-.6126-1.275-.2791-.658-.5083-1.342-.6833-2.038-.3001-1.17-.4584-2.396-.4584-3.654v-67.18s-.0167-.267.0167-.725c.1125-2.454 1.1625-10.4549 9.8173-13.1467-.3375.1125-.6708.2542-.9959.4208-3.4252 1.7585-5.4545 6.3547 3.4378 7.5839 0 0 0 .0084.0083.0084.6792.0958 1.421.1706 2.2377.2206h84.8225c1.392 0 2.746.2 4.021.563 0 .008.009.008.009.008 1.092.317 2.129.754 3.1 1.313.171.096.338.191.508.296 0 .008.009.008.009.008 4.129 2.579 6.879 7.184 6.879 12.434l-.004.004Z"/><path fill="#1C1D23" d="M161.478 114.744c.009 14.189.05 43.758.059 57.65.3 6.742-4.359 13.089-10.835 14.751-2.058.592-4.212.496-6.329.5-23.289.021-52.9416.059-76.2308.08h-6.3546c-2.1418-.05-4.2753-.559-6.1921-1.53-4.8379-2.379-8.1173-7.546-8.1756-12.938-.0375-19.702.0375-46.979.0417-66.701-.1542-4.388 1.3917-8.9505 4.7128-11.9132.7126-.5834 1.4918-1.1626 2.2877-1.6209.4792-.2376.9584-.4751 1.4417-.7043l1.5043-.55.0792.25c-1.0834.3667-2.096 1.0043-2.8627 1.8543-2.0085 2.2668-.6042 4.242 1.8918 5.1171 1.0876.3958 2.2377.6375 3.3919.8l.1.1125c0-.0292-.0042-.0417-.0292-.0708-.025-.025-.0625-.0334-.0791-.0334h.0166c.5376.0667 1.6127.1542 2.1127.2127 11.93.046 31.3231.033 43.4327.058 7.471.013 26.935.025 34.177.038l5.696.004c1.896-.029 3.817.012 5.651.571 6.046 1.687 10.592 7.671 10.496 14.076l-.004-.013Zm0 0c.059-6.459-4.429-12.305-10.521-14.055-1.746-.483-3.747-.596-5.626-.537l-5.696.004-11.393.012c-18.809.038-43.9444.034-62.6666.067-.8126-.008-3.4503.054-4.2712-.079l-1.4251-.142h.0167c-.0458.013-.1333-.0625-.1208-.1208l.1.1128c-2.2294-.3962-5.0254-.7837-6.2338-2.9547-.9918-2.4502 1.6793-4.5837 3.7627-5.2879l.0792.25-1.4793.5459c-.475.225-.9417.4584-1.4126.6917-.7792.4501-1.5459 1.0168-2.2376 1.5918-3.2503 2.9169-4.7545 7.3922-4.592 11.7012.025 19.73.0583 46.991.05 66.7.05 5.259 3.2294 10.301 7.9422 12.626 1.8627.95 3.9461 1.45 6.038 1.505l6.3463.016c23.285.021 52.9409.059 76.2309.079 2.108 0 4.242.105 6.288-.479 6.417-1.642 11.042-7.909 10.759-14.597.016-13.759.046-43.574.058-57.65h.004Z"/><path fill="#E7E8EB" d="m154.186 119.924-.029 2.083s-.004.013-.013.013c-.008 0-.012-.004-.012-.013l.05-2.083h.004ZM154.128 124.091l-.059 4.167c0 .025-.021.046-.046.046-.025 0-.045-.021-.045-.046l.104-4.167c0-.013.012-.021.025-.021.012 0 .021.012.021.025v-.004ZM154.011 132.425l-.046 3.333c0 .05-.042.088-.087.088-.05 0-.088-.042-.088-.088l.083-3.333c0-.038.034-.067.071-.067.038 0 .067.033.067.071v-.004ZM153.919 139.092l-.037 2.083c0 .059-.05.109-.113.109-.058 0-.108-.05-.108-.113l.046-2.083c0-.059.05-.104.108-.104.058 0 .104.05.104.108ZM153.844 143.259l-.075 4.167c0 .066-.054.121-.121.116-.066-.004-.12-.054-.116-.12l.087-4.167c0-.063.054-.113.117-.113.062 0 .112.054.112.117h-.004ZM153.698 151.589l-.058 3.333c0 .075-.063.134-.138.134-.075 0-.133-.063-.133-.138l.071-3.334c0-.07.058-.129.133-.125.071 0 .13.059.125.13ZM153.582 158.256l-.038 2.083c0 .079-.066.146-.146.142-.079 0-.145-.067-.141-.146l.046-2.083c0-.08.066-.142.145-.138.08 0 .142.067.138.146l-.004-.004ZM153.511 162.423l-.075 4.167c0 .087-.075.154-.158.154-.088 0-.154-.075-.154-.159l.087-4.167c0-.083.071-.15.154-.145.084 0 .146.07.146.15ZM153.365 170.757l-.029 1.666c-.008.55-.008 1.13-.121 1.688-.017.1-.108.158-.204.138-.092-.017-.154-.109-.133-.205.108-.533.112-1.071.12-1.633l.038-1.667c0-.092.079-.162.171-.162.091 0 .162.075.162.166l-.004.009ZM151.79 177.186c-.446.559-.971 1.046-1.55 1.459-.083.058-.196.037-.254-.042-.059-.079-.038-.196.041-.254.555-.392 1.059-.858 1.484-1.383.062-.075.175-.088.25-.025.075.062.087.175.029.25v-.005ZM148.361 179.637c-.667.245-1.363.408-2.071.483-.713.075-1.409.037-2.1.05-.109 0-.196-.083-.196-.192 0-.108.083-.196.191-.196h.009c.696-.008 1.391.03 2.062-.041.675-.067 1.342-.221 1.98-.454.095-.034.204.012.237.112s-.012.204-.108.238h-.004ZM140.022 180.178l-3.333.008c-.117 0-.209-.091-.209-.208 0-.117.092-.208.209-.208l3.333.008c.113 0 .2.092.2.204 0 .113-.091.2-.2.2v-.004ZM133.355 180.178h-2.083c-.109-.004-.196-.091-.196-.204 0-.108.087-.196.196-.196h2.083c.113-.004.204.088.204.196 0 .113-.091.204-.2.204h-.004ZM129.188 180.17l-4.167-.008c-.104 0-.187-.084-.187-.188s.083-.187.187-.187l4.167-.009c.109 0 .196.088.196.192 0 .104-.087.196-.192.196l-.004.004ZM120.854 180.153l-3.333-.008c-.096 0-.171-.079-.171-.171 0-.096.075-.171.171-.171l3.333-.008c.1 0 .179.079.179.179 0 .1-.079.179-.179.179ZM114.187 180.141h-2.083c-.088-.005-.163-.075-.163-.167 0-.088.071-.163.163-.163h2.083c.092-.004.167.071.167.163 0 .092-.075.167-.167.167ZM110.02 180.132l-4.167-.008c-.083 0-.15-.067-.15-.15 0-.083.067-.15.15-.15l4.167-.008c.088 0 .159.071.159.158 0 .088-.071.158-.159.158ZM101.686 180.116l-3.3332-.009c-.075 0-.1333-.062-.1333-.133 0-.075.0583-.133.1333-.133l3.3332-.009c.08 0 .142.063.142.142 0 .079-.062.142-.142.142ZM95.0193 180.103h-2.0835c-.0667 0-.125-.058-.125-.129 0-.067.0542-.125.125-.125h2.0835c.0708 0 .1292.054.1292.125 0 .071-.0584.129-.1292.129ZM90.8522 180.095l-4.1669-.008c-.0625 0-.1125-.051-.1125-.113 0-.063.05-.113.1125-.113l4.1669-.008c.0667 0 .1209.054.1209.121s-.0542.121-.1209.121ZM82.5182 180.078l-3.3335-.016c-.0459 0-.0875-.038-.0875-.088 0-.046.0375-.087.0875-.087l3.3335-.017c.0584 0 .1042.046.1042.104 0 .058-.0458.104-.1042.104ZM75.851 180.041l-2.0834-.013c-.0292 0-.0542-.025-.0542-.058 0-.029.025-.054.0542-.054l2.0834-.013c.0375 0 .0667.029.0667.067 0 .037-.0292.067-.0667.067v.004ZM71.6841 180.02l-4.1669-.025s-.0209-.008-.0209-.021c0-.012.0084-.021.0209-.021l4.1669-.025c.025 0 .0459.021.0459.046 0 .025-.0209.046-.0459.046Z"/><path fill="#FBFBFC" d="M163.062 157.018h-19.914c-5.522 0-9.997-4.475-9.997-9.997v-1.683c0-5.521 4.475-9.997 9.997-9.997h19.914c.579 0 1.046.467 1.046 1.046v19.581c0 .579-.467 1.046-1.046 1.046v.004Z"/><path fill="#1C1D23" d="m163.062 157.039-11.972.025-5.984.029c-1.992.05-4.054.042-5.921-.779-3.767-1.567-6.301-5.521-6.167-9.592-.3-4.188 1.421-8.13 5.163-10.243 1.758-1.017 3.842-1.392 5.846-1.321l5.984-.021h12.721c.959-.104 1.676.542 1.563 1.525l-.017 2.992-.062 5.984-.058 5.984-.017 2.992c-.008.5.004.996-.021 1.5-.062.517-.55.929-1.063.917l.005.008Zm0-.042c.496.004.954-.391 1.004-.883.021-.492 0-.996 0-1.492l-.017-2.992-.058-5.984-.063-5.983-.016-2.992c.071-.575-.238-1.088-.817-1.117H150.007l-5.984-.021c-1.988-.079-3.946.259-5.684 1.238-3.646 2.029-5.334 5.871-5.059 9.951-.15 3.987 2.305 7.846 5.98 9.4 1.842.829 3.85.85 5.838.821 3.8.029 14.026.046 17.955.054h.009Z"/><path fill="#1C1D23" d="M152.798 149.918c2.065 0 3.738-1.674 3.738-3.738 0-2.065-1.673-3.738-3.738-3.738-2.064 0-3.737 1.673-3.737 3.738 0 2.064 1.673 3.738 3.737 3.738Z"/><path fill="#E7E8EB" d="M166.908 57.9526c1.415 0 2.562-1.1473 2.562-2.5626 0-1.4154-1.147-2.5627-2.562-2.5627-1.416 0-2.563 1.1473-2.563 2.5627 0 1.4153 1.147 2.5626 2.563 2.5626Z"/><path fill="#E7E8EB" d="M150.277 159.952c-6.454.008-12.926.679-19.147 2.429-6.209 1.775-12.238 4.138-18.439 5.946l-.012-.037c6.067-2.238 12.101-4.588 18.368-6.23 6.229-1.637 12.876-2.346 19.23-2.108ZM85.6476 113.953c-4.6461 3.537-.875 7.621 2.7252 10.004 10.68 6.668 24.1352 9.38 36.5152 10.843 5.667.592 11.376.804 17.068.542-11.393.808-22.893-.363-33.973-3.105-5.526-1.433-11.0012-3.208-16.0807-5.854-4.2795-2.146-12.5426-7.797-6.2547-12.43Z" opacity=".19"/></svg>