<svg width="134" height="240" viewBox="0 0 134 240" fill="none" xmlns="http://www.w3.org/2000/svg">
<path d="M7.42578 72.2983C7.46513 72.0738 7.50449 71.8516 7.55079 71.6316C8.69902 65.8071 11.5997 59.8576 15.7412 54.1743C15.813 54.0725 15.887 53.9753 15.9588 53.878V53.8734C16.0537 53.7414 16.1533 53.6118 16.2505 53.4798H16.2551C16.4125 53.2599 16.57 53.0516 16.7343 52.8432C23.2834 44.3102 32.5827 36.4393 42.8612 30.58C44.2572 29.7814 45.6763 29.0197 47.1092 28.2951H47.1139C52.1258 25.7718 57.2975 23.7508 62.4483 22.3711C67.4556 21.0284 72.287 20.32 76.8869 20.1788C77.63 20.1557 78.3731 20.1441 79.1023 20.1533C79.1463 20.1533 79.1903 20.1533 79.2366 20.1557C79.4125 20.1533 79.5908 20.1603 79.7667 20.1626C79.8061 20.1626 79.8385 20.1649 79.8778 20.1649C80.4218 20.1742 80.9612 20.195 81.5006 20.2274C87.3066 20.5307 92.7121 21.7623 97.6337 23.7693C97.775 23.8249 97.9115 23.8828 98.0504 23.9453C101.051 25.2 103.863 26.7441 106.477 28.5498C106.854 28.8068 107.229 29.0707 107.593 29.3415C107.641 29.3786 107.69 29.4156 107.743 29.4503C107.831 29.5151 107.922 29.5846 108.007 29.6564C112.417 32.9598 116.191 37.018 119.228 41.648C119.327 41.7915 119.422 41.9373 119.517 42.0878C122.298 46.4122 124.448 51.2251 125.879 56.3805C125.925 56.5333 125.967 56.6884 126.008 56.8412L126.018 56.8782C126.062 57.0426 126.106 57.2023 126.138 57.369C126.159 57.4246 126.173 57.4755 126.182 57.5334C127.356 62.3879 127.219 67.6406 126.073 72.8748C126.046 73.0368 126.006 73.1966 125.967 73.3609C124.548 79.5327 121.737 85.6581 118.031 91.0312C117.904 91.2303 117.767 91.4224 117.631 91.6192C117.626 91.6192 117.621 91.6261 117.621 91.6261C117.506 91.7905 117.39 91.9526 117.272 92.1123C117.087 92.3669 116.906 92.6193 116.716 92.8623C116.485 93.1726 116.253 93.4781 116.017 93.7721C111.577 99.4299 106.141 104.014 100.396 106.555C100.081 106.694 99.7635 106.829 99.4441 106.954C92.9297 109.57 86.0681 109.528 79.8385 105.46C79.0444 104.944 78.218 104.5 77.3661 104.12C77.3661 104.12 77.3661 104.115 77.3591 104.115C77.2156 104.048 77.0697 103.984 76.9216 103.923H76.917C76.0349 103.555 75.1252 103.252 74.183 103.009C72.9074 102.678 71.5832 102.449 70.2151 102.301C69.7266 102.25 69.2289 102.206 68.7312 102.18C55.1306 101.319 37.796 107.671 23.9895 101.863C23.9293 101.84 23.8668 101.814 23.8043 101.787C23.6978 101.738 23.5844 101.692 23.4779 101.643C22.8389 101.356 22.2046 101.046 21.5773 100.701C17.0793 98.2377 13.0257 94.2652 9.70141 88.0402C9.69215 88.0263 9.68752 88.0101 9.67826 87.9963C9.60186 87.8574 9.53241 87.7161 9.46065 87.5749C7.04844 82.7968 6.49747 77.6066 7.42578 72.2983Z" fill="#F1F2F4"/>
<path d="M97.7751 97.4413C101.046 98.057 118.084 98.7353 119.059 101.15C119.902 103.238 107.456 103.953 99.9906 102.002C95.6685 100.872 96.7079 104.768 90.8533 104.764C82.9569 104.757 72.7571 104.768 64.3028 104.643C43.3012 104.333 38.2222 104.641 38.2222 102.726C38.2222 100.916 47.7692 99.0155 66.5923 99.0155C85.4154 99.0155 95.3143 96.9783 97.7751 97.4413Z" fill="white"/>
<path d="M111.1 93.9988V97.5685C111.1 98.8834 107.105 99.9483 102.174 99.9483C97.2427 99.9483 93.2471 98.8834 93.2471 97.5685V93.9988" fill="#F1F2F4"/>
<path d="M111.1 93.9988C111.153 95.1007 111.174 96.2003 111.213 97.3023C111.32 97.962 110.85 98.4158 110.324 98.7167C106.616 100.687 97.7403 100.689 94.0247 98.7167C93.5061 98.4204 93.0246 97.9597 93.1357 97.3023C93.1751 96.2003 93.1959 95.1007 93.2492 93.9988C93.3024 95.1007 93.3233 96.2003 93.3626 97.3023C93.3626 97.5801 93.3672 97.7907 93.5571 97.9944C94.108 98.5639 94.9299 98.7931 95.6822 99.0154C96.7309 99.2908 97.8143 99.4598 98.9001 99.564C101.683 99.858 108.734 99.8927 110.792 97.9944C110.98 97.7907 110.989 97.5801 110.987 97.3023C111.026 96.2003 111.047 95.1007 111.1 93.9988Z" fill="#1C1D23"/>
<path d="M111.1 90.4268V93.9965C111.1 95.3114 107.105 96.3763 102.174 96.3763C97.2427 96.3763 93.2471 95.3114 93.2471 93.9965V90.4268" fill="#F1F2F4"/>
<path d="M111.1 90.4268C111.153 91.5287 111.174 92.6283 111.213 93.7302C111.32 94.39 110.85 94.8437 110.324 95.1447C106.616 97.1147 97.7403 97.1171 94.0247 95.1447C93.5061 94.8484 93.0246 94.3877 93.1357 93.7302C93.1751 92.6283 93.1959 91.5287 93.2492 90.4268C93.3024 91.5287 93.3233 92.6283 93.3626 93.7302C93.3626 94.008 93.3672 94.2187 93.5571 94.4224C94.108 94.9919 94.9299 95.2211 95.6822 95.4433C96.7309 95.7188 97.8143 95.8878 98.9001 95.992C101.683 96.286 108.734 96.3207 110.792 94.4224C110.98 94.2187 110.989 94.008 110.987 93.7302C111.026 92.6283 111.047 91.5287 111.1 90.4268Z" fill="#1C1D23"/>
<path d="M102.173 92.8067C107.103 92.8067 111.1 91.7413 111.1 90.4269C111.1 89.1126 107.103 88.0471 102.173 88.0471C97.2431 88.0471 93.2466 89.1126 93.2466 90.4269C93.2466 91.7413 97.2431 92.8067 102.173 92.8067Z" fill="#F1F2F4"/>
<path d="M111.1 90.4268C110.961 91.7209 108.049 92.2395 106.977 92.4501C103.803 92.9779 100.539 93.015 97.3557 92.5311C91.7488 91.626 91.7211 89.2369 97.3557 88.3225C100.539 87.8364 103.803 87.8757 106.977 88.4035C108.058 88.6165 110.956 89.1304 111.1 90.4268ZM111.1 90.4268C110.952 89.1351 108.042 88.6397 106.972 88.4359C103.805 87.9544 100.546 87.9915 97.3905 88.517C92.0683 89.4545 92.0382 91.3899 97.3905 92.3344C100.546 92.8599 103.805 92.8969 106.972 92.4154C108.053 92.2094 110.949 91.7163 111.1 90.4245V90.4268Z" fill="#1C1D23"/>
<path d="M111.1 86.8411V90.4108C111.1 91.7257 107.105 92.7906 102.174 92.7906C97.2427 92.7906 93.2471 91.7257 93.2471 90.4108V86.8411" fill="#F1F2F4"/>
<path d="M111.1 86.8411C111.153 87.943 111.174 89.0426 111.213 90.1445C111.32 90.8043 110.85 91.2581 110.324 91.559C106.616 93.5291 97.7403 93.5314 94.0247 91.559C93.5061 91.2627 93.0246 90.802 93.1357 90.1445C93.1751 89.0426 93.1959 87.943 93.2492 86.8411C93.3024 87.943 93.3233 89.0426 93.3626 90.1445C93.3626 90.4223 93.3672 90.633 93.5571 90.8367C94.108 91.4062 94.9299 91.6354 95.6822 91.8576C96.7309 92.1331 97.8143 92.3021 98.9001 92.4063C101.683 92.7003 108.734 92.735 110.792 90.8367C110.98 90.633 110.989 90.4223 110.987 90.1445C111.026 89.0426 111.047 87.943 111.1 86.8411Z" fill="#1C1D23"/>
<path d="M111.1 83.269V86.8387C111.1 88.1537 107.105 89.2186 102.174 89.2186C97.2427 89.2186 93.2471 88.1537 93.2471 86.8387V83.269" fill="#F1F2F4"/>
<path d="M111.1 83.269C111.153 84.371 111.174 85.4706 111.213 86.5725C111.32 87.2323 110.85 87.686 110.324 87.987C106.616 89.957 97.7403 89.9594 94.0247 87.987C93.5061 87.6907 93.0246 87.23 93.1357 86.5725C93.1751 85.4706 93.1959 84.371 93.2492 83.269C93.3024 84.371 93.3233 85.4706 93.3626 86.5725C93.3626 86.8503 93.3672 87.061 93.5571 87.2647C94.108 87.8342 94.9299 88.0634 95.6822 88.2856C96.7309 88.5611 97.8143 88.7301 98.9001 88.8343C101.683 89.1283 108.734 89.163 110.792 87.2647C110.98 87.061 110.989 86.8503 110.987 86.5725C111.026 85.4706 111.047 84.371 111.1 83.269Z" fill="#1C1D23"/>
<path d="M111.1 79.6992V83.2689C111.1 84.5838 107.105 85.6487 102.174 85.6487C97.2427 85.6487 93.2471 84.5838 93.2471 83.2689V79.6992" fill="#F1F2F4"/>
<path d="M111.1 79.6992C111.153 80.8012 111.174 81.9008 111.213 83.0027C111.32 83.6625 110.85 84.1162 110.324 84.4172C106.616 86.3872 97.7403 86.3895 94.0247 84.4172C93.5061 84.1208 93.0246 83.6602 93.1357 83.0027C93.1751 81.9008 93.1959 80.8012 93.2492 79.6992C93.3024 80.8012 93.3233 81.9008 93.3626 83.0027C93.3626 83.2805 93.3672 83.4912 93.5571 83.6949C94.108 84.2644 94.9299 84.4935 95.6822 84.7158C96.7309 84.9913 97.8143 85.1603 98.9001 85.2644C101.683 85.5584 108.734 85.5932 110.792 83.6949C110.98 83.4912 110.989 83.2805 110.987 83.0027C111.026 81.9008 111.047 80.8012 111.1 79.6992Z" fill="#1C1D23"/>
<path d="M102.173 82.0792C107.103 82.0792 111.1 81.0137 111.1 79.6994C111.1 78.3851 107.103 77.3196 102.173 77.3196C97.2431 77.3196 93.2466 78.3851 93.2466 79.6994C93.2466 81.0137 97.2431 82.0792 102.173 82.0792Z" fill="#A6AAB3"/>
<path d="M111.1 79.6993C110.961 80.9957 108.049 81.5119 106.977 81.7226C103.803 82.2504 100.539 82.2874 97.3557 81.8036C91.7488 80.8984 91.7211 78.5094 97.3557 77.595C100.539 77.1088 103.803 77.1482 106.977 77.676C108.058 77.889 110.956 78.4029 111.1 79.6993ZM111.1 79.6993C110.952 78.4075 108.042 77.9121 106.972 77.7084C103.805 77.2269 100.546 77.2639 97.3905 77.7894C92.0683 78.727 92.0382 80.6623 97.3905 81.6068C100.546 82.1323 103.805 82.1694 106.972 81.6879C108.053 81.4818 110.949 80.9887 111.1 79.697V79.6993Z" fill="#1C1D23"/>
<path d="M116.619 96.9646V100.534C116.619 101.849 112.624 102.914 107.693 102.914C102.762 102.914 98.7661 101.849 98.7661 100.534V96.9646" fill="#F1F2F4"/>
<path d="M116.619 96.9646C116.672 98.0665 116.693 99.1661 116.732 100.268C116.839 100.928 116.369 101.382 115.844 101.683C112.135 103.653 103.259 103.655 99.5437 101.683C99.0252 101.386 98.5437 100.926 98.6548 100.268C98.6941 99.1661 98.715 98.0665 98.7682 96.9646C98.8215 98.0665 98.8423 99.1661 98.8817 100.268C98.8817 100.546 98.8863 100.757 99.0761 100.96C99.6271 101.53 100.449 101.759 101.201 101.981C102.25 102.257 103.333 102.426 104.419 102.53C107.202 102.824 114.253 102.859 116.311 100.96C116.499 100.757 116.508 100.546 116.506 100.268C116.543 99.1661 116.566 98.0665 116.619 96.9646Z" fill="#1C1D23"/>
<path d="M116.619 93.3948V96.9645C116.619 98.2794 112.624 99.3443 107.693 99.3443C102.762 99.3443 98.7661 98.2794 98.7661 96.9645V93.3948" fill="#F1F2F4"/>
<path d="M116.619 93.3948C116.672 94.4967 116.693 95.5963 116.732 96.6983C116.839 97.358 116.369 97.8118 115.844 98.1127C112.135 100.083 103.259 100.085 99.5437 98.1127C99.0252 97.8164 98.5437 97.3557 98.6548 96.6983C98.6941 95.5963 98.715 94.4967 98.7682 93.3948C98.8215 94.4967 98.8423 95.5963 98.8817 96.6983C98.8817 96.9761 98.8863 97.1867 99.0761 97.3904C99.6271 97.9599 100.449 98.1891 101.201 98.4113C102.25 98.6868 103.333 98.8558 104.419 98.96C107.202 99.254 114.253 99.2887 116.311 97.3904C116.499 97.1867 116.508 96.9761 116.506 96.6983C116.543 95.5963 116.566 94.4967 116.619 93.3948Z" fill="#1C1D23"/>
<path d="M107.692 95.7747C112.622 95.7747 116.619 94.7093 116.619 93.3949C116.619 92.0806 112.622 91.0151 107.692 91.0151C102.762 91.0151 98.7656 92.0806 98.7656 93.3949C98.7656 94.7093 102.762 95.7747 107.692 95.7747Z" fill="#A6AAB3"/>
<path d="M116.619 93.3949C116.48 94.6889 113.568 95.2075 112.496 95.4181C109.322 95.946 106.058 95.983 102.875 95.4992C97.2679 94.594 97.2401 92.2049 102.875 91.2905C106.058 90.8044 109.322 90.8437 112.496 91.3716C113.577 91.5845 116.475 92.0985 116.619 93.3949ZM116.619 93.3949C116.471 92.1031 113.561 91.6077 112.491 91.404C109.324 90.9224 106.065 90.9595 102.909 91.485C97.5873 92.4226 97.5573 94.3579 102.909 95.3024C106.065 95.8279 109.324 95.8649 112.491 95.3834C113.572 95.1774 116.468 94.6843 116.619 93.3925V93.3949Z" fill="#1C1D23"/>
<path d="M85.4034 103.458H41.8747C39.6454 103.458 37.6314 102.558 36.1729 101.094C35.6243 100.546 35.1543 99.9254 34.7816 99.2379C34.6589 99.0087 34.5455 98.7726 34.4413 98.5341C34.2908 98.1707 34.1589 97.7933 34.0617 97.409C33.895 96.7632 33.807 96.0872 33.807 95.3927V58.3252C33.807 58.3252 33.7977 58.177 33.8163 57.9247C33.9714 54.7624 35.9484 52.0747 38.7171 50.9056C38.7449 50.8894 38.7796 50.8779 38.8074 50.864C38.812 50.864 38.812 50.8593 38.8166 50.8593C39.1199 50.7367 39.4301 50.6302 39.7496 50.5445C39.8028 50.5283 39.8607 50.5121 39.9139 50.5005C40.025 50.4727 40.1339 50.4473 40.245 50.4264C40.2728 50.4172 40.3028 50.4102 40.3306 50.4056H40.3353C40.3978 50.394 40.4626 50.3801 40.5274 50.3732C40.5691 50.3639 40.5922 50.3616 40.6015 50.357H40.6107C41.0228 50.2922 41.4464 50.2598 41.8793 50.2598H85.408C85.8085 50.2598 86.2067 50.2875 86.5909 50.35C88.3133 50.6001 89.8597 51.3964 91.045 52.5585C91.045 52.5585 91.0465 52.5601 91.0496 52.5632C91.0496 52.5632 91.0542 52.5632 91.0542 52.5678C91.8529 53.3503 92.4895 54.2994 92.9085 55.3527C92.9201 55.3805 92.9317 55.4129 92.9433 55.4453C93.1516 56.0218 93.2511 56.6329 93.2511 57.2464V102.463" fill="white"/>
<path d="M88.5007 79.2217L87.2529 82.2173L87.2483 82.222L87.1534 80.7195C85.9218 81.752 84.3407 82.3724 82.6068 82.3724H44.3586C44.2822 82.0854 44.2313 81.7844 44.2151 81.4742L44.0322 78.5828L41.5691 39.9596L41.2889 35.6028L39.9347 14.3906C39.8444 12.9669 40.3792 11.6428 41.2982 10.6936C41.3167 10.6751 41.3352 10.6543 41.3561 10.6357C42.1617 9.82549 43.2544 9.29767 44.4859 9.22128L75.2775 7.25817L79.0509 7.01741C81.734 6.84379 84.049 8.87866 84.218 11.564L86.0399 40.08L86.0885 40.8741L88.4984 78.6476C88.51 78.8421 88.5123 79.0319 88.503 79.2217H88.5007Z" fill="#4F46E5" stroke="white" stroke-miterlimit="50"/>
<path d="M88.5009 79.2217L87.2531 82.2173L87.2485 82.222L87.1536 80.7195C85.922 81.752 84.3409 82.3724 82.6069 82.3724H80.0674L75.2754 7.25817L79.0488 7.01741C81.7319 6.84379 84.0469 8.87866 84.2159 11.564L86.0378 40.08L86.0864 40.874L88.4963 78.6476C88.5078 78.8421 88.5102 79.0319 88.5009 79.2217Z" fill="#1C1D23"/>
<path d="M78.1711 78.261C77.9512 77.9322 77.8123 77.541 77.7845 77.1174C77.7035 75.8325 78.6758 74.7237 79.9629 74.6426C81.25 74.5616 82.3566 75.5362 82.4376 76.821C82.4654 77.2447 82.3774 77.6498 82.1992 78.004" fill="#E1172F"/>
<path d="M78.1711 78.261C77.9512 77.9322 77.8123 77.541 77.7845 77.1174C77.7035 75.8325 78.6758 74.7237 79.9629 74.6426C81.25 74.5616 82.3566 75.5362 82.4376 76.821C82.4654 77.2447 82.3774 77.6498 82.1992 78.004" stroke="white" stroke-width="3" stroke-miterlimit="10"/>
<path d="M80.2589 81.627C81.5464 81.627 82.5901 80.5833 82.5901 79.2958C82.5901 78.0083 81.5464 76.9646 80.2589 76.9646C78.9714 76.9646 77.9277 78.0083 77.9277 79.2958C77.9277 80.5833 78.9714 81.627 80.2589 81.627Z" fill="#D99048"/>
<path d="M80.4095 81.6224C78.2797 81.7729 76.9208 79.2542 78.2867 77.5573C79.1594 76.4206 80.9882 76.3003 81.9999 77.3189C83.5741 78.8282 82.5416 81.4997 80.4095 81.6224ZM80.4095 81.6224C81.6387 81.5784 82.6272 80.3445 82.4143 79.157C81.9559 76.5526 78.2311 76.7887 78.1061 79.4324C78.0459 80.6362 79.1849 81.7335 80.4095 81.6224Z" fill="white"/>
<path d="M45.4765 14.372L45.458 14.1128L45.0598 14.0989L45.1177 13.703L44.87 13.6382L44.7288 14.0132L44.37 13.8373L44.2334 14.0526L44.5506 14.3049L44.2658 14.592L44.4302 14.7864L44.7635 14.5665L44.951 14.9184L45.1895 14.8258L45.0807 14.4415L45.4765 14.372Z" fill="#1C1D23"/>
<path d="M45.5879 16.1176L45.5694 15.8584L45.1712 15.8445L45.2291 15.4486L44.9813 15.3838L44.8401 15.7588L44.4813 15.5829L44.3447 15.7982L44.6619 16.0505L44.3771 16.3376L44.5415 16.532L44.8749 16.3121L45.0624 16.664L45.3008 16.5714L45.192 16.1871L45.5879 16.1176Z" fill="#1C1D23"/>
<path d="M45.6987 17.8608L45.6802 17.6015L45.282 17.5876L45.3399 17.1918L45.0922 17.127L44.951 17.502L44.5921 17.326L44.4556 17.5413L44.7727 17.7937L44.488 18.0807L44.6523 18.2752L44.9834 18.0553L45.1709 18.4071L45.4117 18.3145L45.3028 17.9303L45.6987 17.8608Z" fill="#1C1D23"/>
<path d="M45.8074 19.6062L45.7935 19.3469L45.3953 19.333L45.4532 18.9371L45.2055 18.8723L45.0643 19.2473L44.7054 19.0714L44.5688 19.2867L44.886 19.539L44.6013 19.8261L44.7656 20.0205L45.0967 19.8006L45.2842 20.1525L45.5249 20.0599L45.4161 19.6756L45.8074 19.6062Z" fill="#1C1D23"/>
<path d="M45.9951 22.4929L45.9766 22.2336L45.5784 22.2151L45.6363 21.8239L45.3886 21.759L45.2474 22.1294L44.8885 21.9558L44.752 22.1711L45.0691 22.4188L44.7844 22.7059L44.9487 22.9026L45.2821 22.6804L45.4696 23.0369L45.708 22.9397L45.5992 22.5577L45.9951 22.4883V22.4929Z" fill="#1C1D23"/>
<path d="M46.1064 24.2385L46.0879 23.9792L45.6897 23.9607L45.7476 23.5695L45.4999 23.5046L45.3587 23.875L44.9999 23.7014L44.8633 23.9167L45.1804 24.1644L44.8957 24.4515L45.0601 24.6482L45.3934 24.426L45.5809 24.7825L45.8194 24.6853L45.7106 24.3033L46.1064 24.2339V24.2385Z" fill="#1C1D23"/>
<path d="M46.2173 25.9817L46.1987 25.7224L45.8006 25.7039L45.8584 25.3126L45.6107 25.2478L45.4695 25.6182L45.1107 25.4446L44.9741 25.6599L45.2913 25.9076L45.0065 26.1946L45.1709 26.3914L45.5019 26.1692L45.6895 26.5257L45.9302 26.4284L45.8214 26.0465L46.2173 25.977V25.9817Z" fill="#1C1D23"/>
<path d="M46.3259 27.727L46.312 27.4677L45.9139 27.4492L45.9717 27.058L45.724 26.9932L45.5828 27.3636L45.224 27.1899L45.0874 27.4052L45.4046 27.6529L45.1198 27.94L45.2842 28.1368L45.6152 27.9145L45.8027 28.271L46.0435 28.1738L45.9347 27.7918L46.3259 27.7224V27.727Z" fill="#1C1D23"/>
<path d="M46.5137 30.614L46.4951 30.3547L46.097 30.3362L46.1548 29.9403L45.9071 29.8801L45.7659 30.2505L45.4071 30.0746L45.2705 30.2899L45.5877 30.5422L45.3029 30.8293L45.4673 31.026L45.8006 30.8038L45.9882 31.1557L46.2266 31.0631L46.1178 30.6788L46.5137 30.614Z" fill="#1C1D23"/>
<path d="M46.625 32.3596L46.6065 32.1003L46.2083 32.0818L46.2662 31.6906L46.0185 31.6257L45.8772 31.9961L45.5184 31.8202L45.3818 32.0355L45.699 32.2878L45.4142 32.5749L45.5786 32.7716L45.912 32.5494L46.0995 32.9013L46.3379 32.8087L46.2291 32.4244L46.625 32.3596Z" fill="#1C1D23"/>
<path d="M46.7358 34.1027L46.7173 33.8435L46.3191 33.8249L46.377 33.4337L46.1293 33.3689L45.9881 33.7393L45.6293 33.5634L45.4927 33.7786L45.8098 34.031L45.5251 34.318L45.6895 34.5148L46.0205 34.2926L46.208 34.6445L46.4488 34.5519L46.34 34.1676L46.7358 34.1027Z" fill="#1C1D23"/>
<path d="M46.8425 35.8481L46.8286 35.6027V35.5888L46.4305 35.5703L46.4883 35.1791L46.2406 35.1143L46.0994 35.4847L45.7406 35.3087L45.604 35.524L45.7036 35.6027L45.9188 35.7763L45.6341 36.0634L45.7985 36.2602L46.1295 36.0379L46.317 36.3898L46.5578 36.2972L46.449 35.9129L46.8402 35.8481H46.8425Z" fill="#1C1D23"/>
<path d="M47.0298 38.7326L47.0112 38.4734L46.6131 38.4595L46.6709 38.0636L46.4232 38.0034L46.282 38.3738L45.9232 38.1979L45.7866 38.4132L46.1038 38.6655L45.819 38.9526L45.9834 39.1493L46.3168 38.9271L46.5043 39.279L46.7427 39.1864L46.6339 38.8021L47.0298 38.7326Z" fill="#1C1D23"/>
<path d="M47.141 40.4758L47.1224 40.2165L46.7243 40.2026L46.7613 39.9619L46.7821 39.8068L46.5344 39.7466L46.4511 39.9619L46.3932 40.117L46.0761 39.9619L46.0321 39.941L46.0182 39.9619L45.8955 40.1563L46.2127 40.4087L45.9279 40.6957L46.0923 40.8925L46.4256 40.6703L46.6131 41.0221L46.8516 40.9295L46.7428 40.5453L47.1387 40.4758H47.141Z" fill="#1C1D23"/>
<path d="M47.2544 42.2214L47.2359 41.9621L46.8377 41.9482L46.8956 41.5524L46.6479 41.4922L46.5066 41.8626L46.1478 41.6866L46.0112 41.9019L46.3284 42.1543L46.0436 42.4413L46.208 42.6381L46.539 42.4159L46.7266 42.7677L46.9673 42.6751L46.8585 42.2909L47.2544 42.2214Z" fill="#1C1D23"/>
<path d="M47.3606 43.9646L47.3467 43.7053L46.9485 43.6914L47.0064 43.2955L46.7587 43.2354L46.6175 43.6058L46.2587 43.4298L46.1221 43.6451L46.4392 43.8974L46.1545 44.1845L46.3188 44.3813L46.6499 44.159L46.8374 44.5109L47.0782 44.4183L46.9694 44.034L47.3606 43.9646Z" fill="#1C1D23"/>
<path d="M85.66 84.9166C85.6786 84.8125 85.6786 84.75 85.7156 84.6875L85.7642 84.6828C85.7735 84.6782 85.7804 84.6713 85.7897 84.6689L85.7411 84.6736C85.785 84.6551 85.8313 84.7176 85.8614 84.7592C85.9193 84.8287 85.9448 84.8935 85.9263 84.9861C85.9193 85.0486 85.8915 85.1227 85.8313 85.125C85.8128 85.125 85.7781 85.1343 85.7619 85.125L85.8105 85.1204C85.7318 85.0856 85.6971 85.0208 85.6577 84.919L85.66 84.9166Z" fill="white"/>
<path d="M85.9287 84.8633C85.9495 85.0439 85.9866 85.1064 85.9102 85.1064L85.8222 85.1273C85.8083 85.1273 85.7782 85.1319 85.7643 85.1342L85.8315 85.1249L85.7458 85.1388C85.7319 85.1319 85.718 85.1712 85.6995 85.0948C85.6833 85.0439 85.6694 84.9837 85.6602 84.9166C85.6787 84.817 85.6648 84.6781 85.6787 84.6805C85.6926 84.6805 85.7504 84.6735 85.7643 84.6712L85.7898 84.6666H85.7574L85.8106 84.655C85.8176 84.6504 85.8291 84.655 85.8361 84.6411L85.9333 84.861L85.9287 84.8633Z" fill="white"/>
<path d="M61.0151 31.1718C61.7096 31.5746 62.5245 31.783 63.3857 31.7274C64.2469 31.6718 65.0293 31.3616 65.6659 30.8755" stroke="#E7E8EB" stroke-linecap="round" stroke-linejoin="round"/>
<path d="M61.5107 30.3152C62.0409 30.6231 62.6659 30.7829 63.3234 30.7412C63.9808 30.6995 64.5804 30.4611 65.0666 30.0884" stroke="#E7E8EB" stroke-linecap="round" stroke-linejoin="round"/>
<path d="M62.0059 29.4611C62.3739 29.6741 62.8045 29.7852 63.2606 29.7551C63.7166 29.725 64.131 29.5607 64.469 29.3037" stroke="#E7E8EB" stroke-linecap="round" stroke-linejoin="round"/>
<path d="M67.136 26.0616L66.6326 18.1697C66.5788 17.3263 65.8514 16.6862 65.0081 16.74L59.937 17.0635C59.0936 17.1173 58.4535 17.8446 58.5073 18.688L59.0107 26.5799C59.0645 27.4233 59.7918 28.0634 60.6352 28.0096L65.7063 27.6861C66.5497 27.6323 67.1898 26.905 67.136 26.0616Z" fill="#1C1D23"/>
<path opacity="0.49" d="M64.2163 18.9141L64.508 23.4908" stroke="#E7E8EB" stroke-miterlimit="50"/>
<path opacity="0.49" d="M62.9248 18.928L63.1378 22.2847" stroke="#E7E8EB" stroke-miterlimit="50"/>
<path opacity="0.49" d="M61.2485 23.0532L61.4453 26.1183" stroke="#E7E8EB" stroke-miterlimit="50"/>
<path opacity="0.49" d="M60.2485 23.2432L60.3342 24.5697" stroke="#E7E8EB" stroke-miterlimit="50"/>
<path d="M48.1133 55.3079L49.6805 83.2891" stroke="#A6AAB3" stroke-miterlimit="50" stroke-linecap="round"/>
<path d="M96.7098 63.7469V96.0756C96.7098 97.7447 96.2075 99.3004 95.3486 100.59C94.9226 101.233 94.4087 101.81 93.8184 102.303H93.8138C92.4155 103.486 90.6145 104.197 88.6421 104.197H41.5183C39.2889 104.197 37.2749 103.291 35.8165 101.817C35.2678 101.268 34.7979 100.638 34.4252 99.9463C34.2978 99.7148 34.1867 99.4763 34.0849 99.2379C33.9298 98.8721 33.8024 98.4925 33.7052 98.1059C33.5385 97.4553 33.4506 96.7747 33.4506 96.0756V58.7535C33.4506 58.7535 33.4413 58.6053 33.4598 58.3506C33.5223 56.9871 34.1057 52.5424 38.9139 51.0469C38.7264 51.1094 38.5412 51.1881 38.3606 51.2807C36.4577 52.2576 35.3303 54.811 40.2705 55.494C40.2705 55.494 40.2705 55.4986 40.2751 55.4986C40.6525 55.5518 41.0645 55.5935 41.5183 55.6213H88.6421C89.4153 55.6213 90.1677 55.7324 90.876 55.9338C90.876 55.9384 90.8807 55.9384 90.8807 55.9384C91.4872 56.1144 92.0636 56.3574 92.603 56.6677C92.6979 56.7209 92.7905 56.7741 92.8854 56.832C92.8854 56.8366 92.8901 56.8366 92.8901 56.8366C95.1842 58.2696 96.7121 60.8277 96.7121 63.7446L96.7098 63.7469Z" fill="white"/>
<path d="M96.7099 63.7469C96.7145 71.6294 96.7377 88.0565 96.7423 95.7747C96.909 99.5203 94.3209 103.046 90.7234 103.97C89.5798 104.298 88.3829 104.245 87.2069 104.248C74.2685 104.259 57.795 104.28 44.8566 104.291H41.3263C40.1364 104.264 38.9511 103.981 37.8862 103.442C35.1985 102.12 33.3766 99.2495 33.3442 96.2539C33.3234 85.3086 33.365 70.1547 33.3673 59.1979C33.2817 56.7602 34.1405 54.2253 35.9856 52.5794C36.3815 52.2553 36.8144 51.9335 37.2565 51.6789C37.5227 51.5469 37.789 51.415 38.0575 51.2876L38.8932 50.9821L38.9372 51.121C38.3353 51.3247 37.7728 51.6789 37.3468 52.1511C36.231 53.4105 37.0111 54.5078 38.3978 54.9939C39.002 55.2138 39.6409 55.3481 40.2822 55.4384L40.3378 55.5009C40.3378 55.4847 40.3354 55.4777 40.3216 55.4615C40.3077 55.4477 40.2868 55.443 40.2776 55.443H40.2868C40.5855 55.4801 41.1827 55.5287 41.4605 55.5611C48.0883 55.5866 58.8623 55.5796 65.5896 55.5935C69.7404 55.6004 80.5536 55.6074 84.5771 55.6143L87.7417 55.6166C88.795 55.6004 89.8622 55.6236 90.8808 55.9338C94.2398 56.8714 96.7655 60.1957 96.7122 63.7538L96.7099 63.7469ZM96.7099 63.7469C96.7423 60.1586 94.2491 56.9107 90.8646 55.9384C89.8946 55.6699 88.7834 55.6074 87.7394 55.6398L84.5748 55.6421L78.2456 55.6491C67.7958 55.6699 53.8318 55.6676 43.4306 55.6861C42.9792 55.6815 41.5138 55.7162 41.0577 55.6421L40.266 55.5634H40.2753C40.2498 55.5703 40.2012 55.5287 40.2081 55.4963L40.2637 55.5588C39.0252 55.3388 37.4718 55.1236 36.8005 53.9175C36.2495 52.5562 37.7334 51.371 38.8909 50.9797L38.9349 51.1186L38.1131 51.4219C37.8491 51.5469 37.5899 51.6765 37.3283 51.8062C36.8954 52.0562 36.4694 52.371 36.0851 52.6905C34.2794 54.311 33.4437 56.7973 33.534 59.191C33.5479 70.1524 33.5664 85.297 33.5618 96.2469C33.5896 99.1684 35.3559 101.97 37.9742 103.261C39.009 103.789 40.1664 104.067 41.3286 104.097L44.8543 104.106C57.7904 104.118 74.2662 104.139 87.2046 104.15C88.376 104.15 89.5612 104.208 90.6979 103.884C94.263 102.972 96.8326 99.4902 96.6752 95.7747C96.6845 88.1306 96.7007 71.5669 96.7076 63.7469H96.7099Z" fill="#1C1D23"/>
<path d="M92.6585 66.6243L92.6423 67.7818C92.6423 67.7818 92.64 67.7887 92.6354 67.7887C92.6307 67.7887 92.6284 67.7864 92.6284 67.7818L92.6562 66.6243H92.6585Z" fill="#1C1D23"/>
<path d="M92.6263 68.9393L92.5939 71.2543C92.5939 71.2682 92.5823 71.2798 92.5684 71.2798C92.5545 71.2798 92.543 71.2682 92.543 71.2543L92.6008 68.9393C92.6008 68.9324 92.6078 68.9277 92.6147 68.9277C92.6217 68.9277 92.6263 68.9347 92.6263 68.9416V68.9393Z" fill="#1C1D23"/>
<path d="M92.5612 73.5693L92.5357 75.4212C92.5357 75.449 92.5126 75.4699 92.4871 75.4699C92.4593 75.4699 92.4385 75.4467 92.4385 75.4212L92.4848 73.5693C92.4848 73.5484 92.5033 73.5322 92.5241 73.5322C92.545 73.5322 92.5612 73.5507 92.5612 73.5716V73.5693Z" fill="#1C1D23"/>
<path d="M92.5102 77.2731L92.4894 78.4306C92.4894 78.463 92.4616 78.4908 92.4269 78.4908C92.3945 78.4908 92.3667 78.463 92.3667 78.4283L92.3922 77.2708C92.3922 77.2384 92.4199 77.2129 92.4524 77.2129C92.4848 77.2129 92.5102 77.2407 92.5102 77.2731Z" fill="#1C1D23"/>
<path d="M92.4687 79.5883L92.427 81.9032C92.427 81.9403 92.3969 81.9704 92.3599 81.9681C92.3228 81.9657 92.2927 81.938 92.295 81.9009L92.3437 79.5859C92.3437 79.5512 92.3738 79.5234 92.4085 79.5234C92.4432 79.5234 92.471 79.5535 92.471 79.5883H92.4687Z" fill="#1C1D23"/>
<path d="M92.3875 84.2159L92.3551 86.0679C92.3551 86.1096 92.3203 86.142 92.2787 86.142C92.237 86.142 92.2046 86.1073 92.2046 86.0656L92.2439 84.2136C92.2439 84.1743 92.2764 84.1418 92.318 84.1442C92.3574 84.1442 92.3898 84.1766 92.3875 84.2159Z" fill="#1C1D23"/>
<path d="M92.3228 87.9199L92.3019 89.0774C92.3019 89.1214 92.2649 89.1584 92.2209 89.1561C92.1769 89.1561 92.1399 89.1191 92.1422 89.0751L92.1677 87.9176C92.1677 87.8736 92.2047 87.8389 92.2487 87.8412C92.2927 87.8412 92.3274 87.8782 92.3251 87.9222L92.3228 87.9199Z" fill="#1C1D23"/>
<path d="M92.2837 90.2348L92.242 92.5498C92.242 92.5984 92.2003 92.6354 92.154 92.6354C92.1054 92.6354 92.0684 92.5938 92.0684 92.5475L92.117 90.2325C92.117 90.1862 92.1563 90.1492 92.2026 90.1515C92.2489 90.1515 92.2837 90.1908 92.2837 90.2348Z" fill="#1C1D23"/>
<path d="M92.2023 94.8648L92.1861 95.7908C92.1815 96.0964 92.1814 96.4182 92.1189 96.7284C92.1097 96.7839 92.0588 96.8163 92.0055 96.8048C91.9546 96.7955 91.9199 96.7446 91.9314 96.6913C91.9916 96.395 91.9939 96.0964 91.9986 95.7839L92.0194 94.8579C92.0194 94.8069 92.0634 94.7676 92.1143 94.7676C92.1652 94.7676 92.2046 94.8092 92.2046 94.8602L92.2023 94.8648Z" fill="#1C1D23"/>
<path d="M91.3276 98.4367C91.0799 98.7469 90.7882 99.0177 90.4664 99.2469C90.4201 99.2793 90.3576 99.2677 90.3252 99.2237C90.2928 99.1798 90.3043 99.1149 90.3483 99.0825C90.6562 98.8649 90.9363 98.6056 91.1725 98.314C91.2072 98.2723 91.2697 98.2653 91.3114 98.3001C91.353 98.3348 91.36 98.3973 91.3276 98.439V98.4367Z" fill="#1C1D23"/>
<path d="M89.4222 99.7981C89.0518 99.9347 88.6652 100.025 88.2717 100.067C87.8758 100.108 87.4892 100.087 87.1049 100.094C87.0447 100.094 86.9961 100.048 86.9961 99.9879C86.9961 99.9277 87.0424 99.8791 87.1026 99.8791H87.1072C87.4938 99.8745 87.8804 99.8953 88.2531 99.856C88.6282 99.8189 88.9986 99.7333 89.3527 99.6036C89.406 99.5851 89.4662 99.6106 89.4847 99.6661C89.5032 99.7217 89.4778 99.7796 89.4245 99.7981H89.4222Z" fill="#1C1D23"/>
<path d="M84.79 100.099L82.938 100.104C82.8732 100.104 82.8223 100.053 82.8223 99.9878C82.8223 99.923 82.8732 99.8721 82.938 99.8721L84.79 99.8767C84.8525 99.8767 84.9011 99.9276 84.9011 99.9901C84.9011 100.053 84.8502 100.101 84.79 100.101V100.099Z" fill="#1C1D23"/>
<path d="M81.0856 100.099H79.9281C79.868 100.097 79.8193 100.048 79.8193 99.9856C79.8193 99.9254 79.868 99.8768 79.9281 99.8768H81.0856C81.1481 99.8745 81.1991 99.9254 81.1991 99.9856C81.1991 100.048 81.1481 100.099 81.0879 100.099H81.0856Z" fill="#1C1D23"/>
<path d="M78.7707 100.094L76.4557 100.09C76.3979 100.09 76.3516 100.043 76.3516 99.9855C76.3516 99.9276 76.3979 99.8813 76.4557 99.8813L78.7707 99.8767C78.8309 99.8767 78.8795 99.9253 78.8795 99.9832C78.8795 100.041 78.8309 100.092 78.773 100.092L78.7707 100.094Z" fill="#1C1D23"/>
<path d="M74.1407 100.085L72.2888 100.08C72.2355 100.08 72.1938 100.036 72.1938 99.9855C72.1938 99.9323 72.2355 99.8906 72.2888 99.8906L74.1407 99.886C74.1963 99.886 74.2403 99.93 74.2403 99.9855C74.2403 100.041 74.1963 100.085 74.1407 100.085Z" fill="#1C1D23"/>
<path d="M70.4367 100.078H69.2792C69.2306 100.076 69.189 100.036 69.189 99.9854C69.189 99.9368 69.2283 99.8951 69.2792 99.8951H70.4367C70.4877 99.8928 70.5293 99.9345 70.5293 99.9854C70.5293 100.036 70.4877 100.078 70.4367 100.078Z" fill="#1C1D23"/>
<path d="M68.122 100.073L65.807 100.069C65.7607 100.069 65.7236 100.032 65.7236 99.9854C65.7236 99.9391 65.7607 99.9021 65.807 99.9021L68.122 99.8975C68.1706 99.8975 68.2099 99.9368 68.2099 99.9854C68.2099 100.034 68.1706 100.073 68.122 100.073Z" fill="#1C1D23"/>
<path d="M63.492 100.064L61.64 100.06C61.5983 100.06 61.5659 100.025 61.5659 99.9854C61.5659 99.9438 61.5983 99.9114 61.64 99.9114L63.492 99.9067C63.536 99.9067 63.5707 99.9415 63.5707 99.9854C63.5707 100.029 63.536 100.064 63.492 100.064Z" fill="#1C1D23"/>
<path d="M59.788 100.057H58.6305C58.5934 100.057 58.561 100.025 58.561 99.9855C58.561 99.9484 58.5911 99.916 58.6305 99.916H59.788C59.8273 99.916 59.8597 99.9461 59.8597 99.9855C59.8597 100.025 59.8273 100.057 59.788 100.057Z" fill="#1C1D23"/>
<path d="M57.4732 100.053L55.1582 100.048C55.1235 100.048 55.0957 100.02 55.0957 99.9856C55.0957 99.9509 55.1235 99.9231 55.1582 99.9231L57.4732 99.9185C57.5102 99.9185 57.5403 99.9485 57.5403 99.9856C57.5403 100.023 57.5102 100.053 57.4732 100.053Z" fill="#1C1D23"/>
<path d="M52.843 100.043L50.991 100.034C50.9655 100.034 50.9424 100.013 50.9424 99.9854C50.9424 99.9599 50.9632 99.9368 50.991 99.9368L52.843 99.9275C52.8754 99.9275 52.9009 99.953 52.9009 99.9854C52.9009 100.018 52.8754 100.043 52.843 100.043Z" fill="#1C1D23"/>
<path d="M49.1392 100.022L47.9818 100.015C47.9656 100.015 47.9517 100.002 47.9517 99.9831C47.9517 99.9669 47.9656 99.953 47.9818 99.953L49.1392 99.946C49.1601 99.946 49.1763 99.9623 49.1763 99.9831C49.1763 100.004 49.1601 100.02 49.1392 100.02V100.022Z" fill="#1C1D23"/>
<path d="M46.8241 100.011L44.5091 99.997C44.5091 99.997 44.4976 99.9924 44.4976 99.9854C44.4976 99.9785 44.5022 99.9738 44.5091 99.9738L46.8241 99.96C46.838 99.96 46.8496 99.9715 46.8496 99.9854C46.8496 99.9993 46.838 100.011 46.8241 100.011Z" fill="#1C1D23"/>
<path d="M97.5896 87.2325H86.5263C83.4589 87.2325 80.9727 84.7462 80.9727 81.6788V80.7436C80.9727 77.6762 83.4589 75.1899 86.5263 75.1899H97.5896C97.9114 75.1899 98.1707 75.4492 98.1707 75.771V86.6491C98.1707 86.9709 97.9114 87.2302 97.5896 87.2302V87.2325Z" fill="#F1F2F4"/>
<path d="M97.5895 87.244L90.9385 87.2579L87.6142 87.2741C86.5076 87.3018 85.3617 87.2972 84.3246 86.8412C82.2319 85.9707 80.8244 83.7738 80.8984 81.5121C80.7318 79.1855 81.6878 76.9955 83.7667 75.8218C84.7436 75.257 85.9011 75.0486 87.0146 75.088L90.3389 75.0764H96.9899H97.4066C97.939 75.0185 98.3372 75.3774 98.2747 75.9237L98.2654 77.5859L98.2307 80.9102L98.1983 84.2345L98.1891 85.8966C98.1844 86.1744 98.1914 86.4499 98.1775 86.73C98.1427 87.0171 97.8719 87.2463 97.5872 87.2393L97.5895 87.244ZM97.5895 87.2208C97.865 87.2231 98.1196 87.0032 98.1474 86.73C98.159 86.4569 98.1474 86.1768 98.1474 85.9013L98.1381 84.2391L98.1057 80.9148L98.071 77.5905L98.0617 75.9283C98.1011 75.6089 97.9298 75.3241 97.608 75.3079H97.4043H96.9876H90.3366L87.0123 75.2963C85.9081 75.2524 84.82 75.4399 83.8547 75.9839C81.8291 77.1113 80.8915 79.2457 81.0443 81.5121C80.9609 83.7275 82.3245 85.8712 84.3663 86.7347C85.3895 87.1954 86.5053 87.2069 87.6096 87.1907C89.7208 87.2069 95.4018 87.2162 97.5848 87.2208H97.5895Z" fill="#1C1D23"/>
<path d="M91.8876 83.2876C93.0344 83.2876 93.9641 82.3579 93.9641 81.2111C93.9641 80.0642 93.0344 79.1345 91.8876 79.1345C90.7407 79.1345 89.811 80.0642 89.811 81.2111C89.811 82.3579 90.7407 83.2876 91.8876 83.2876Z" fill="#1C1D23"/>
<path d="M90.4872 88.862C86.9013 88.8667 83.3061 89.2394 79.8499 90.2117C76.4005 91.1978 73.0508 92.5104 69.6061 93.5151L69.5991 93.4943C72.9697 92.2512 76.3218 90.9455 79.8036 90.0334C83.2645 89.1236 86.9569 88.7301 90.4872 88.862Z" fill="#1C1D23"/>
<path d="M54.5818 63.3069C52.0006 65.2723 54.0957 67.541 56.0958 68.8652C62.0291 72.5691 69.5042 74.0762 76.382 74.8887C79.5304 75.2175 82.7019 75.3355 85.8642 75.1897C79.535 75.6388 73.1457 74.9883 66.9901 73.465C63.9205 72.6687 60.8786 71.6825 58.0566 70.2125C55.6791 69.0203 51.0885 65.8811 54.5818 63.3069Z" fill="#1C1D23"/>
<path d="M53.856 146V134.864H56.368V146H53.856ZM50.32 136.896V134.704H59.904V136.896H50.32ZM61.0828 146V138.224H63.5308V146H61.0828ZM62.3148 137.152C61.9308 137.152 61.6108 137.024 61.3548 136.768C61.1094 136.501 60.9868 136.181 60.9868 135.808C60.9868 135.424 61.1094 135.104 61.3548 134.848C61.6108 134.592 61.9308 134.464 62.3148 134.464C62.6988 134.464 63.0134 134.592 63.2588 134.848C63.5041 135.104 63.6268 135.424 63.6268 135.808C63.6268 136.181 63.5041 136.501 63.2588 136.768C63.0134 137.024 62.6988 137.152 62.3148 137.152ZM66.3586 146V135.008H68.8066V146H66.3586ZM64.5986 140.304V138.224H70.5666V140.304H64.5986ZM71.6453 146V134.384H74.0933V146H71.6453ZM79.6571 146.176C78.8145 146.176 78.0625 146.005 77.4011 145.664C76.7505 145.312 76.2385 144.827 75.8651 144.208C75.4918 143.589 75.3051 142.891 75.3051 142.112C75.3051 141.333 75.4865 140.64 75.8491 140.032C76.2225 139.413 76.7238 138.928 77.3531 138.576C77.9825 138.224 78.6918 138.048 79.4811 138.048C80.2491 138.048 80.9265 138.213 81.5131 138.544C82.0998 138.875 82.5585 139.333 82.8891 139.92C83.2305 140.507 83.4011 141.179 83.4011 141.936C83.4011 142.075 83.3905 142.224 83.3691 142.384C83.3585 142.533 83.3318 142.709 83.2891 142.912L76.5851 142.928V141.248L82.2491 141.232L81.1931 141.936C81.1825 141.488 81.1131 141.12 80.9851 140.832C80.8571 140.533 80.6651 140.309 80.4091 140.16C80.1638 140 79.8598 139.92 79.4971 139.92C79.1131 139.92 78.7771 140.011 78.4891 140.192C78.2118 140.363 77.9931 140.608 77.8331 140.928C77.6838 141.248 77.6091 141.637 77.6091 142.096C77.6091 142.555 77.6891 142.949 77.8491 143.28C78.0198 143.6 78.2545 143.851 78.5531 144.032C78.8625 144.203 79.2251 144.288 79.6411 144.288C80.0251 144.288 80.3718 144.224 80.6811 144.096C80.9905 143.957 81.2625 143.755 81.4971 143.488L82.8411 144.832C82.4571 145.28 81.9931 145.616 81.4491 145.84C80.9051 146.064 80.3078 146.176 79.6571 146.176Z" fill="#2A2C35"/>
<path d="M16.016 185.5V184.296H18.718C19.4367 184.296 20.0667 184.142 20.608 183.834C21.1493 183.517 21.5693 183.083 21.868 182.532C22.176 181.981 22.33 181.347 22.33 180.628C22.33 179.919 22.176 179.289 21.868 178.738C21.56 178.187 21.1353 177.758 20.594 177.45C20.0527 177.142 19.4273 176.988 18.718 176.988H16.03V175.784H18.746C19.4553 175.784 20.1087 175.905 20.706 176.148C21.3127 176.391 21.8353 176.731 22.274 177.17C22.722 177.609 23.0673 178.122 23.31 178.71C23.562 179.298 23.688 179.942 23.688 180.642C23.688 181.333 23.562 181.977 23.31 182.574C23.0673 183.162 22.7267 183.675 22.288 184.114C21.8493 184.553 21.3267 184.893 20.72 185.136C20.1227 185.379 19.474 185.5 18.774 185.5H16.016ZM15.148 185.5V175.784H16.464V185.5H15.148ZM28.3673 185.64C27.7046 185.64 27.1073 185.491 26.5753 185.192C26.0433 184.884 25.6233 184.469 25.3153 183.946C25.0073 183.423 24.8533 182.831 24.8533 182.168C24.8533 181.515 25.0026 180.927 25.3013 180.404C25.6093 179.881 26.0199 179.471 26.5333 179.172C27.0559 178.864 27.6393 178.71 28.2833 178.71C28.8993 178.71 29.4406 178.85 29.9073 179.13C30.3833 179.41 30.7519 179.797 31.0133 180.292C31.2839 180.787 31.4193 181.347 31.4193 181.972C31.4193 182.065 31.4146 182.168 31.4053 182.28C31.3959 182.383 31.3773 182.504 31.3493 182.644H25.7353V181.594H30.6773L30.2153 182C30.2153 181.552 30.1359 181.174 29.9773 180.866C29.8186 180.549 29.5946 180.306 29.3053 180.138C29.0159 179.961 28.6659 179.872 28.2553 179.872C27.8259 179.872 27.4479 179.965 27.1213 180.152C26.7946 180.339 26.5426 180.6 26.3653 180.936C26.1879 181.272 26.0993 181.669 26.0993 182.126C26.0993 182.593 26.1926 183.003 26.3793 183.358C26.5659 183.703 26.8319 183.974 27.1773 184.17C27.5226 184.357 27.9193 184.45 28.3673 184.45C28.7406 184.45 29.0813 184.385 29.3893 184.254C29.7066 184.123 29.9773 183.927 30.2013 183.666L31.0133 184.492C30.6959 184.865 30.3039 185.15 29.8373 185.346C29.3799 185.542 28.8899 185.64 28.3673 185.64ZM34.9071 185.64C34.5338 185.64 34.1791 185.593 33.8431 185.5C33.5165 185.397 33.2131 185.257 32.9331 185.08C32.6531 184.893 32.4105 184.674 32.2051 184.422L33.0171 183.61C33.2598 183.909 33.5398 184.133 33.8571 184.282C34.1745 184.422 34.5291 184.492 34.9211 184.492C35.3131 184.492 35.6165 184.427 35.8311 184.296C36.0458 184.156 36.1531 183.965 36.1531 183.722C36.1531 183.479 36.0645 183.293 35.8871 183.162C35.7191 183.022 35.4998 182.91 35.2291 182.826C34.9585 182.733 34.6691 182.644 34.3611 182.56C34.0625 182.467 33.7778 182.35 33.5071 182.21C33.2365 182.07 33.0125 181.879 32.8351 181.636C32.6671 181.393 32.5831 181.071 32.5831 180.67C32.5831 180.269 32.6811 179.923 32.8771 179.634C33.0731 179.335 33.3438 179.107 33.6891 178.948C34.0438 178.789 34.4685 178.71 34.9631 178.71C35.4858 178.71 35.9478 178.803 36.3491 178.99C36.7598 179.167 37.0958 179.438 37.3571 179.802L36.5451 180.614C36.3585 180.371 36.1251 180.185 35.8451 180.054C35.5745 179.923 35.2665 179.858 34.9211 179.858C34.5571 179.858 34.2771 179.923 34.0811 180.054C33.8945 180.175 33.8011 180.348 33.8011 180.572C33.8011 180.796 33.8851 180.969 34.0531 181.09C34.2211 181.211 34.4405 181.314 34.7111 181.398C34.9911 181.482 35.2805 181.571 35.5791 181.664C35.8778 181.748 36.1625 181.865 36.4331 182.014C36.7038 182.163 36.9231 182.364 37.0911 182.616C37.2685 182.868 37.3571 183.199 37.3571 183.61C37.3571 184.235 37.1331 184.73 36.6851 185.094C36.2465 185.458 35.6538 185.64 34.9071 185.64ZM41.8058 185.64C41.1524 185.64 40.5598 185.486 40.0278 185.178C39.5051 184.87 39.0898 184.455 38.7818 183.932C38.4831 183.4 38.3338 182.812 38.3338 182.168C38.3338 181.515 38.4831 180.927 38.7818 180.404C39.0898 179.881 39.5051 179.471 40.0278 179.172C40.5598 178.864 41.1524 178.71 41.8058 178.71C42.3191 178.71 42.7951 178.808 43.2338 179.004C43.6724 179.191 44.0504 179.466 44.3678 179.83L43.5278 180.67C43.3224 180.427 43.0704 180.245 42.7718 180.124C42.4824 179.993 42.1604 179.928 41.8058 179.928C41.3858 179.928 41.0124 180.026 40.6858 180.222C40.3591 180.409 40.1024 180.67 39.9158 181.006C39.7291 181.342 39.6358 181.729 39.6358 182.168C39.6358 182.607 39.7291 182.994 39.9158 183.33C40.1024 183.666 40.3591 183.932 40.6858 184.128C41.0124 184.324 41.3858 184.422 41.8058 184.422C42.1604 184.422 42.4824 184.361 42.7718 184.24C43.0704 184.109 43.3271 183.923 43.5418 183.68L44.3678 184.52C44.0598 184.875 43.6818 185.15 43.2338 185.346C42.7951 185.542 42.3191 185.64 41.8058 185.64ZM45.6174 185.5V178.85H46.8774V185.5H45.6174ZM46.8774 181.706L46.4014 181.496C46.4014 180.647 46.5974 179.97 46.9894 179.466C47.3814 178.962 47.946 178.71 48.6834 178.71C49.0194 178.71 49.3227 178.771 49.5934 178.892C49.864 179.004 50.116 179.195 50.3494 179.466L49.5234 180.32C49.3834 180.171 49.2294 180.063 49.0614 179.998C48.8934 179.933 48.6974 179.9 48.4734 179.9C48.0067 179.9 47.624 180.049 47.3254 180.348C47.0267 180.647 46.8774 181.099 46.8774 181.706ZM51.2505 185.5V178.85H52.5105V185.5H51.2505ZM51.8805 177.52C51.6472 177.52 51.4558 177.445 51.3065 177.296C51.1572 177.137 51.0825 176.941 51.0825 176.708C51.0825 176.484 51.1572 176.297 51.3065 176.148C51.4558 175.989 51.6472 175.91 51.8805 175.91C52.1138 175.91 52.3052 175.989 52.4545 176.148C52.6038 176.297 52.6785 176.484 52.6785 176.708C52.6785 176.941 52.6038 177.137 52.4545 177.296C52.3052 177.445 52.1138 177.52 51.8805 177.52ZM57.8674 185.64C57.3634 185.64 56.906 185.537 56.4954 185.332C56.094 185.117 55.772 184.823 55.5294 184.45C55.2867 184.077 55.1514 183.652 55.1234 183.176V181.174C55.1514 180.689 55.2867 180.264 55.5294 179.9C55.7814 179.527 56.108 179.237 56.5094 179.032C56.92 178.817 57.3727 178.71 57.8674 178.71C58.474 178.71 59.02 178.864 59.5054 179.172C60 179.48 60.3874 179.895 60.6674 180.418C60.9474 180.941 61.0874 181.529 61.0874 182.182C61.0874 182.835 60.9474 183.423 60.6674 183.946C60.3874 184.469 60 184.884 59.5054 185.192C59.02 185.491 58.474 185.64 57.8674 185.64ZM54.3674 188.286V178.85H55.6274V180.6L55.3894 182.21L55.6274 183.834V188.286H54.3674ZM57.6574 184.45C58.0774 184.45 58.446 184.352 58.7634 184.156C59.0807 183.96 59.3327 183.694 59.5194 183.358C59.706 183.013 59.7994 182.616 59.7994 182.168C59.7994 181.729 59.706 181.337 59.5194 180.992C59.3327 180.647 59.0807 180.381 58.7634 180.194C58.446 179.998 58.082 179.9 57.6714 179.9C57.2514 179.9 56.8827 179.998 56.5654 180.194C56.248 180.381 56.0007 180.647 55.8234 180.992C55.646 181.337 55.5574 181.734 55.5574 182.182C55.5574 182.621 55.6414 183.013 55.8094 183.358C55.9867 183.694 56.234 183.96 56.5514 184.156C56.878 184.352 57.2467 184.45 57.6574 184.45ZM63.3327 185.5V176.064H64.5927V185.5H63.3327ZM61.6947 179.998V178.85H66.2307V179.998H61.6947ZM67.479 185.5V178.85H68.739V185.5H67.479ZM68.109 177.52C67.8757 177.52 67.6843 177.445 67.535 177.296C67.3857 177.137 67.311 176.941 67.311 176.708C67.311 176.484 67.3857 176.297 67.535 176.148C67.6843 175.989 67.8757 175.91 68.109 175.91C68.3423 175.91 68.5337 175.989 68.683 176.148C68.8323 176.297 68.907 176.484 68.907 176.708C68.907 176.941 68.8323 177.137 68.683 177.296C68.5337 177.445 68.3423 177.52 68.109 177.52ZM73.6339 185.64C72.9805 185.64 72.3925 185.486 71.8699 185.178C71.3472 184.87 70.9319 184.455 70.6239 183.932C70.3159 183.4 70.1619 182.807 70.1619 182.154C70.1619 181.51 70.3159 180.931 70.6239 180.418C70.9319 179.895 71.3472 179.48 71.8699 179.172C72.3925 178.864 72.9805 178.71 73.6339 178.71C74.2779 178.71 74.8612 178.864 75.3839 179.172C75.9159 179.471 76.3359 179.881 76.6439 180.404C76.9519 180.927 77.1059 181.51 77.1059 182.154C77.1059 182.807 76.9519 183.4 76.6439 183.932C76.3359 184.455 75.9159 184.87 75.3839 185.178C74.8612 185.486 74.2779 185.64 73.6339 185.64ZM73.6339 184.422C74.0539 184.422 74.4272 184.324 74.7539 184.128C75.0805 183.932 75.3372 183.666 75.5239 183.33C75.7105 182.985 75.8039 182.593 75.8039 182.154C75.8039 181.725 75.7059 181.342 75.5099 181.006C75.3232 180.67 75.0665 180.409 74.7399 180.222C74.4225 180.026 74.0539 179.928 73.6339 179.928C73.2139 179.928 72.8405 180.026 72.5139 180.222C72.1872 180.409 71.9305 180.67 71.7439 181.006C71.5572 181.342 71.4639 181.725 71.4639 182.154C71.4639 182.593 71.5572 182.985 71.7439 183.33C71.9305 183.666 72.1872 183.932 72.5139 184.128C72.8405 184.324 73.2139 184.422 73.6339 184.422ZM83.2296 185.5V181.622C83.2296 181.118 83.0709 180.703 82.7536 180.376C82.4362 180.049 82.0256 179.886 81.5216 179.886C81.1856 179.886 80.8869 179.961 80.6256 180.11C80.3642 180.259 80.1589 180.465 80.0096 180.726C79.8602 180.987 79.7856 181.286 79.7856 181.622L79.2676 181.328C79.2676 180.824 79.3796 180.376 79.6036 179.984C79.8276 179.592 80.1402 179.284 80.5416 179.06C80.9429 178.827 81.3956 178.71 81.8996 178.71C82.4036 178.71 82.8469 178.836 83.2296 179.088C83.6216 179.34 83.9296 179.671 84.1536 180.082C84.3776 180.483 84.4896 180.913 84.4896 181.37V185.5H83.2296ZM78.5256 185.5V178.85H79.7856V185.5H78.5256Z" fill="#2A2C35"/>
<path d="M91.4504 186V174.8H93.2904V186H91.4504ZM92.7144 186V184.32H98.5704V186H92.7144ZM100.023 186V178.32H101.783V186H100.023ZM100.903 176.912C100.605 176.912 100.354 176.811 100.151 176.608C99.9593 176.405 99.8633 176.155 99.8633 175.856C99.8633 175.557 99.9593 175.307 100.151 175.104C100.354 174.901 100.605 174.8 100.903 174.8C101.213 174.8 101.463 174.901 101.655 175.104C101.847 175.307 101.943 175.557 101.943 175.856C101.943 176.155 101.847 176.405 101.655 176.608C101.463 176.811 101.213 176.912 100.903 176.912ZM109.021 186V181.568C109.021 181.056 108.856 180.635 108.525 180.304C108.205 179.973 107.789 179.808 107.277 179.808C106.936 179.808 106.632 179.883 106.365 180.032C106.099 180.181 105.891 180.389 105.741 180.656C105.592 180.923 105.517 181.227 105.517 181.568L104.829 181.184C104.829 180.597 104.957 180.08 105.213 179.632C105.469 179.173 105.821 178.816 106.269 178.56C106.728 178.293 107.24 178.16 107.805 178.16C108.381 178.16 108.893 178.309 109.341 178.608C109.789 178.896 110.141 179.275 110.397 179.744C110.653 180.203 110.781 180.683 110.781 181.184V186H109.021ZM103.757 186V178.32H105.517V186H103.757ZM117.45 186L114.202 182.08L117.434 178.32H119.53L115.818 182.544L115.898 181.536L119.69 186H117.45ZM112.57 186V174.48H114.33V186H112.57Z" fill="#4F46E5"/>
<mask id="path-90-inside-1_5240_221807" fill="white">
<path d="M0 224C0 216.458 0 212.686 2.34315 210.343C4.68629 208 8.45753 208 16 208H47C54.5425 208 58.3137 208 60.6569 210.343C63 212.686 63 216.458 63 224C63 231.542 63 235.314 60.6569 237.657C58.3137 240 54.5425 240 47 240H16C8.45753 240 4.68629 240 2.34315 237.657C0 235.314 0 231.542 0 224Z"/>
</mask>
<path d="M2.34315 237.657L3.75736 236.243L2.34315 237.657ZM60.6569 237.657L59.2426 236.243L60.6569 237.657ZM60.6569 210.343L59.2426 211.757L60.6569 210.343ZM2.34315 210.343L0.928932 208.929L2.34315 210.343ZM16 208V210H47V208V206H16V208ZM47 240V238H16V240V242H47V240ZM16 240V238C12.1722 238 9.50259 237.996 7.48832 237.725C5.53159 237.462 4.49539 236.981 3.75736 236.243L2.34315 237.657L0.928932 239.071C2.53404 240.676 4.55504 241.367 6.95533 241.689C9.29808 242.004 12.2853 242 16 242V240ZM0 224H-2C-2 227.715 -2.00425 230.702 -1.68927 233.045C-1.36656 235.445 -0.676179 237.466 0.928932 239.071L2.34315 237.657L3.75736 236.243C3.01932 235.505 2.53813 234.468 2.27506 232.512C2.00425 230.497 2 227.828 2 224H0ZM63 224H61C61 227.828 60.9958 230.497 60.7249 232.512C60.4619 234.468 59.9807 235.505 59.2426 236.243L60.6569 237.657L62.0711 239.071C63.6762 237.466 64.3666 235.445 64.6893 233.045C65.0042 230.702 65 227.715 65 224H63ZM47 240V242C50.7147 242 53.7019 242.004 56.0447 241.689C58.445 241.367 60.466 240.676 62.0711 239.071L60.6569 237.657L59.2426 236.243C58.5046 236.981 57.4684 237.462 55.5117 237.725C53.4974 237.996 50.8278 238 47 238V240ZM47 208V210C50.8278 210 53.4974 210.004 55.5117 210.275C57.4684 210.538 58.5046 211.019 59.2426 211.757L60.6569 210.343L62.0711 208.929C60.466 207.324 58.445 206.633 56.0447 206.311C53.7019 205.996 50.7147 206 47 206V208ZM63 224H65C65 220.285 65.0042 217.298 64.6893 214.955C64.3666 212.555 63.6762 210.534 62.0711 208.929L60.6569 210.343L59.2426 211.757C59.9807 212.495 60.4619 213.532 60.7249 215.488C60.9958 217.503 61 220.172 61 224H63ZM16 208V206C12.2853 206 9.29809 205.996 6.95533 206.311C4.55504 206.633 2.53404 207.324 0.928932 208.929L2.34315 210.343L3.75736 211.757C4.49539 211.019 5.53159 210.538 7.48832 210.275C9.50259 210.004 12.1722 210 16 210V208ZM0 224H2C2 220.172 2.00425 217.503 2.27506 215.488C2.53813 213.532 3.01932 212.495 3.75736 211.757L2.34315 210.343L0.928932 208.929C-0.676179 210.534 -1.36656 212.555 -1.68927 214.955C-2.00425 217.298 -2 220.285 -2 224H0Z" fill="#4F46E5" mask="url(#path-90-inside-1_5240_221807)"/>
<path d="M10.7222 230V228.4H13.9382C14.5035 228.4 14.9409 228.224 15.2502 227.872C15.5595 227.52 15.7142 227.115 15.7142 226.656C15.7142 226.347 15.6449 226.059 15.5062 225.792C15.3675 225.525 15.1649 225.312 14.8982 225.152C14.6315 224.992 14.3115 224.912 13.9382 224.912H10.7222V223.312H13.6662C14.1462 223.312 14.5302 223.189 14.8182 222.944C15.1062 222.699 15.2502 222.336 15.2502 221.856C15.2502 221.376 15.1062 221.013 14.8182 220.768C14.5302 220.523 14.1462 220.4 13.6662 220.4H10.7222V218.8H13.7142C14.4715 218.8 15.1009 218.939 15.6022 219.216C16.1035 219.493 16.4769 219.851 16.7222 220.288C16.9675 220.725 17.0902 221.195 17.0902 221.696C17.0902 222.283 16.9249 222.8 16.5942 223.248C16.2742 223.696 15.7995 224.059 15.1702 224.336L15.3142 223.76C16.0182 224.048 16.5675 224.453 16.9622 224.976C17.3569 225.499 17.5542 226.112 17.5542 226.816C17.5542 227.392 17.4102 227.92 17.1222 228.4C16.8449 228.88 16.4289 229.269 15.8742 229.568C15.3302 229.856 14.6582 230 13.8582 230H10.7222ZM9.45819 230V218.8H11.2982V230H9.45819ZM22.3233 230.16C21.6726 230.16 21.0913 230.016 20.5793 229.728C20.078 229.44 19.6833 229.045 19.3953 228.544C19.118 228.032 18.9793 227.445 18.9793 226.784V222.32H20.7393V226.704C20.7393 227.077 20.798 227.397 20.9153 227.664C21.0433 227.92 21.2246 228.117 21.4593 228.256C21.7046 228.395 21.9926 228.464 22.3233 228.464C22.8353 228.464 23.2246 228.315 23.4913 228.016C23.7686 227.707 23.9073 227.269 23.9073 226.704V222.32H25.6673V226.784C25.6673 227.456 25.5233 228.048 25.2353 228.56C24.958 229.061 24.5686 229.456 24.0673 229.744C23.566 230.021 22.9846 230.16 22.3233 230.16ZM28.6049 230V219.12H30.3649V230H28.6049ZM26.7649 223.92V222.32H36.8449V223.92H26.7649ZM33.2449 230V219.12H35.0049V230H33.2449ZM41.4257 230.16C40.679 230.16 40.0017 229.984 39.3937 229.632C38.7857 229.269 38.3004 228.784 37.9377 228.176C37.5857 227.568 37.4097 226.891 37.4097 226.144C37.4097 225.397 37.5857 224.725 37.9377 224.128C38.3004 223.531 38.7857 223.056 39.3937 222.704C40.0017 222.341 40.679 222.16 41.4257 222.16C42.183 222.16 42.8657 222.336 43.4737 222.688C44.0817 223.04 44.5617 223.52 44.9137 224.128C45.2764 224.725 45.4577 225.397 45.4577 226.144C45.4577 226.891 45.2764 227.568 44.9137 228.176C44.5617 228.784 44.0817 229.269 43.4737 229.632C42.8657 229.984 42.183 230.16 41.4257 230.16ZM41.4257 228.464C41.863 228.464 42.247 228.368 42.5777 228.176C42.919 227.973 43.1804 227.696 43.3617 227.344C43.5537 226.992 43.6497 226.592 43.6497 226.144C43.6497 225.696 43.5537 225.301 43.3617 224.96C43.1697 224.619 42.9084 224.352 42.5777 224.16C42.247 223.957 41.863 223.856 41.4257 223.856C40.999 223.856 40.615 223.957 40.2737 224.16C39.943 224.352 39.6817 224.619 39.4897 224.96C39.3084 225.301 39.2177 225.696 39.2177 226.144C39.2177 226.592 39.3084 226.992 39.4897 227.344C39.6817 227.696 39.943 227.973 40.2737 228.176C40.615 228.368 40.999 228.464 41.4257 228.464ZM52.1853 230V225.568C52.1853 225.056 52.02 224.635 51.6893 224.304C51.3693 223.973 50.9533 223.808 50.4413 223.808C50.1 223.808 49.796 223.883 49.5293 224.032C49.2626 224.181 49.0546 224.389 48.9053 224.656C48.756 224.923 48.6813 225.227 48.6813 225.568L47.9933 225.184C47.9933 224.597 48.1213 224.08 48.3773 223.632C48.6333 223.173 48.9853 222.816 49.4333 222.56C49.892 222.293 50.404 222.16 50.9693 222.16C51.5453 222.16 52.0573 222.309 52.5053 222.608C52.9533 222.896 53.3053 223.275 53.5613 223.744C53.8173 224.203 53.9453 224.683 53.9453 225.184V230H52.1853ZM46.9213 230V222.32H48.6813V230H46.9213Z" fill="#4F46E5"/>
<path d="M71 224C71 216.458 71 212.686 73.3431 210.343C75.6863 208 79.4575 208 87 208H118C125.542 208 129.314 208 131.657 210.343C134 212.686 134 216.458 134 224C134 231.542 134 235.314 131.657 237.657C129.314 240 125.542 240 118 240H87C79.4575 240 75.6863 240 73.3431 237.657C71 235.314 71 231.542 71 224Z" fill="#4F46E5"/>
<path d="M81.7222 230V228.4H84.9382C85.5035 228.4 85.9409 228.224 86.2502 227.872C86.5595 227.52 86.7142 227.115 86.7142 226.656C86.7142 226.347 86.6449 226.059 86.5062 225.792C86.3675 225.525 86.1649 225.312 85.8982 225.152C85.6315 224.992 85.3115 224.912 84.9382 224.912H81.7222V223.312H84.6662C85.1462 223.312 85.5302 223.189 85.8182 222.944C86.1062 222.699 86.2502 222.336 86.2502 221.856C86.2502 221.376 86.1062 221.013 85.8182 220.768C85.5302 220.523 85.1462 220.4 84.6662 220.4H81.7222V218.8H84.7142C85.4715 218.8 86.1009 218.939 86.6022 219.216C87.1035 219.493 87.4769 219.851 87.7222 220.288C87.9675 220.725 88.0902 221.195 88.0902 221.696C88.0902 222.283 87.9249 222.8 87.5942 223.248C87.2742 223.696 86.7995 224.059 86.1702 224.336L86.3142 223.76C87.0182 224.048 87.5675 224.453 87.9622 224.976C88.3569 225.499 88.5542 226.112 88.5542 226.816C88.5542 227.392 88.4102 227.92 88.1222 228.4C87.8449 228.88 87.4289 229.269 86.8742 229.568C86.3302 229.856 85.6582 230 84.8582 230H81.7222ZM80.4582 230V218.8H82.2982V230H80.4582ZM93.3233 230.16C92.6726 230.16 92.0913 230.016 91.5793 229.728C91.078 229.44 90.6833 229.045 90.3953 228.544C90.118 228.032 89.9793 227.445 89.9793 226.784V222.32H91.7393V226.704C91.7393 227.077 91.798 227.397 91.9153 227.664C92.0433 227.92 92.2246 228.117 92.4593 228.256C92.7046 228.395 92.9926 228.464 93.3233 228.464C93.8353 228.464 94.2246 228.315 94.4913 228.016C94.7686 227.707 94.9073 227.269 94.9073 226.704V222.32H96.6673V226.784C96.6673 227.456 96.5233 228.048 96.2353 228.56C95.958 229.061 95.5686 229.456 95.0673 229.744C94.566 230.021 93.9846 230.16 93.3233 230.16ZM99.6049 230V219.12H101.365V230H99.6049ZM97.7649 223.92V222.32H107.845V223.92H97.7649ZM104.245 230V219.12H106.005V230H104.245ZM112.426 230.16C111.679 230.16 111.002 229.984 110.394 229.632C109.786 229.269 109.3 228.784 108.938 228.176C108.586 227.568 108.41 226.891 108.41 226.144C108.41 225.397 108.586 224.725 108.938 224.128C109.3 223.531 109.786 223.056 110.394 222.704C111.002 222.341 111.679 222.16 112.426 222.16C113.183 222.16 113.866 222.336 114.474 222.688C115.082 223.04 115.562 223.52 115.914 224.128C116.276 224.725 116.458 225.397 116.458 226.144C116.458 226.891 116.276 227.568 115.914 228.176C115.562 228.784 115.082 229.269 114.474 229.632C113.866 229.984 113.183 230.16 112.426 230.16ZM112.426 228.464C112.863 228.464 113.247 228.368 113.578 228.176C113.919 227.973 114.18 227.696 114.362 227.344C114.554 226.992 114.65 226.592 114.65 226.144C114.65 225.696 114.554 225.301 114.362 224.96C114.17 224.619 113.908 224.352 113.578 224.16C113.247 223.957 112.863 223.856 112.426 223.856C111.999 223.856 111.615 223.957 111.274 224.16C110.943 224.352 110.682 224.619 110.49 224.96C110.308 225.301 110.218 225.696 110.218 226.144C110.218 226.592 110.308 226.992 110.49 227.344C110.682 227.696 110.943 227.973 111.274 228.176C111.615 228.368 111.999 228.464 112.426 228.464ZM123.185 230V225.568C123.185 225.056 123.02 224.635 122.689 224.304C122.369 223.973 121.953 223.808 121.441 223.808C121.1 223.808 120.796 223.883 120.529 224.032C120.263 224.181 120.055 224.389 119.905 224.656C119.756 224.923 119.681 225.227 119.681 225.568L118.993 225.184C118.993 224.597 119.121 224.08 119.377 223.632C119.633 223.173 119.985 222.816 120.433 222.56C120.892 222.293 121.404 222.16 121.969 222.16C122.545 222.16 123.057 222.309 123.505 222.608C123.953 222.896 124.305 223.275 124.561 223.744C124.817 224.203 124.945 224.683 124.945 225.184V230H123.185ZM117.921 230V222.32H119.681V230H117.921Z" fill="white"/>
</svg>
