<svg width="356" height="240" viewBox="0 0 356 240" fill="none" xmlns="http://www.w3.org/2000/svg">
<rect y="62" width="89" height="1" fill="#E1172F"/>
<g clip-path="url(#clip0_14334_18558)">
<rect y="51" width="24" height="24" rx="12" fill="#E1172F"/>
<path d="M13.8302 57.8182V68H11.6775V59.8615H11.6178L9.28613 61.3232V59.4141L11.8067 57.8182H13.8302Z" fill="#F1F2F4"/>
</g>
<rect y="139" width="148" height="1" fill="#E1172F"/>
<g clip-path="url(#clip1_14334_18558)">
<rect y="128" width="24" height="24" rx="12" fill="#E1172F"/>
<path d="M8.4161 145V143.449L12.0404 140.093C12.3486 139.795 12.6072 139.526 12.816 139.288C13.0281 139.049 13.1888 138.815 13.2982 138.587C13.4076 138.355 13.4623 138.104 13.4623 137.836C13.4623 137.538 13.3943 137.281 13.2584 137.065C13.1225 136.847 12.9369 136.679 12.7016 136.563C12.4663 136.444 12.1995 136.384 11.9012 136.384C11.5896 136.384 11.3179 136.447 11.0858 136.573C10.8538 136.699 10.6749 136.88 10.5489 137.115C10.423 137.35 10.36 137.63 10.36 137.955H8.31667C8.31667 137.289 8.46748 136.711 8.76909 136.22C9.0707 135.73 9.49328 135.35 10.0368 135.082C10.5804 134.813 11.2068 134.679 11.9161 134.679C12.6453 134.679 13.28 134.808 13.8202 135.067C14.3638 135.322 14.7864 135.677 15.088 136.131C15.3896 136.585 15.5404 137.105 15.5404 137.692C15.5404 138.076 15.4642 138.456 15.3117 138.83C15.1626 139.205 14.8957 139.621 14.5113 140.078C14.1268 140.532 13.5849 141.077 12.8856 141.714L11.3991 143.17V143.24H15.6746V145H8.4161Z" fill="#F1F2F4"/>
</g>
<rect y="179" width="108" height="1" fill="#E1172F"/>
<g clip-path="url(#clip2_14334_18558)">
<rect y="168" width="24" height="24" rx="12" fill="#E1172F"/>
<path d="M11.9745 185.139C11.2321 185.139 10.5709 185.012 9.99086 184.756C9.41415 184.498 8.95842 184.143 8.62367 183.692C8.29223 183.238 8.12154 182.715 8.11159 182.121H10.2792C10.2925 182.37 10.3737 182.589 10.5228 182.778C10.6753 182.963 10.8775 183.107 11.1294 183.21C11.3812 183.313 11.6646 183.364 11.9795 183.364C12.3076 183.364 12.5976 183.306 12.8495 183.19C13.1014 183.074 13.2986 182.914 13.4411 182.708C13.5837 182.503 13.6549 182.266 13.6549 181.997C13.6549 181.725 13.5787 181.485 13.4262 181.276C13.2771 181.064 13.0616 180.898 12.7799 180.779C12.5015 180.66 12.1701 180.6 11.7856 180.6H10.836V179.019H11.7856C12.1104 179.019 12.3971 178.963 12.6457 178.85C12.8976 178.737 13.0931 178.582 13.2323 178.383C13.3715 178.181 13.4411 177.945 13.4411 177.677C13.4411 177.422 13.3798 177.198 13.2572 177.006C13.1379 176.81 12.9688 176.658 12.7501 176.548C12.5347 176.439 12.2828 176.384 11.9944 176.384C11.7027 176.384 11.4359 176.437 11.194 176.543C10.952 176.646 10.7581 176.794 10.6123 176.986C10.4665 177.178 10.3886 177.403 10.3786 177.662H8.31543C8.32537 177.075 8.49275 176.558 8.81756 176.111C9.14237 175.663 9.57987 175.314 10.1301 175.062C10.6836 174.807 11.3083 174.679 12.0044 174.679C12.707 174.679 13.3218 174.807 13.8488 175.062C14.3758 175.317 14.7851 175.662 15.0768 176.096C15.3718 176.527 15.5176 177.011 15.5143 177.548C15.5176 178.118 15.3403 178.593 14.9823 178.974C14.6277 179.356 14.1653 179.598 13.5953 179.7V179.78C14.3443 179.876 14.9144 180.136 15.3055 180.56C15.6999 180.981 15.8954 181.508 15.8921 182.141C15.8954 182.721 15.7281 183.237 15.39 183.688C15.0553 184.138 14.5929 184.493 14.0029 184.751C13.413 185.01 12.7368 185.139 11.9745 185.139Z" fill="#F1F2F4"/>
</g>
<rect x="241" y="179" width="115" height="1" fill="#E1172F"/>
<g clip-path="url(#clip3_14334_18558)">
<rect x="332" y="168" width="24" height="24" rx="12" fill="#E1172F"/>
<path d="M339.927 183.21V181.515L344.178 174.818H345.639V177.165H344.774L342.095 181.406V181.485H348.135V183.21H339.927ZM344.814 185V182.693L344.854 181.942V174.818H346.872V185H344.814Z" fill="#F1F2F4"/>
</g>
<rect y="223" width="89" height="1" fill="#E1172F"/>
<g clip-path="url(#clip4_14334_18558)">
<rect y="212" width="24" height="24" rx="12" fill="#E1172F"/>
<path d="M12.0323 229.139C11.3297 229.139 10.7032 229.01 10.1531 228.751C9.60618 228.493 9.17199 228.137 8.8505 227.683C8.529 227.228 8.36162 226.708 8.34837 226.121H10.4364C10.4596 226.516 10.6254 226.836 10.9336 227.081C11.2418 227.326 11.6081 227.449 12.0323 227.449C12.3704 227.449 12.6687 227.374 12.9272 227.225C13.189 227.073 13.3929 226.862 13.5387 226.594C13.6879 226.322 13.7624 226.01 13.7624 225.659C13.7624 225.301 13.6862 224.986 13.5337 224.714C13.3846 224.443 13.1774 224.231 12.9123 224.078C12.6471 223.926 12.3439 223.848 12.0025 223.844C11.7042 223.844 11.4142 223.906 11.1325 224.028C10.854 224.151 10.637 224.318 10.4812 224.531L8.56712 224.188L9.04936 218.818H15.2738V220.578H10.8242L10.5607 223.129H10.6204C10.7994 222.877 11.0695 222.668 11.4308 222.502C11.792 222.336 12.1964 222.254 12.6438 222.254C13.257 222.254 13.8039 222.398 14.2844 222.686C14.765 222.974 15.1445 223.371 15.4229 223.874C15.7013 224.375 15.8389 224.951 15.8356 225.604C15.8389 226.29 15.6798 226.9 15.3583 227.434C15.0401 227.964 14.5943 228.382 14.021 228.687C13.4509 228.988 12.788 229.139 12.0323 229.139Z" fill="#F1F2F4"/>
</g>
<path d="M115.426 72.2983C115.465 72.0738 115.504 71.8516 115.551 71.6316C116.699 65.8071 119.6 59.8576 123.741 54.1743C123.813 54.0725 123.887 53.9753 123.959 53.878V53.8734C124.054 53.7414 124.153 53.6118 124.25 53.4798H124.255C124.413 53.2599 124.57 53.0516 124.734 52.8432C131.283 44.3102 140.583 36.4393 150.861 30.58C152.257 29.7814 153.676 29.0197 155.109 28.2951H155.114C160.126 25.7718 165.297 23.7508 170.448 22.3711C175.456 21.0284 180.287 20.32 184.887 20.1788C185.63 20.1557 186.373 20.1441 187.102 20.1533C187.146 20.1533 187.19 20.1533 187.237 20.1557C187.413 20.1533 187.591 20.1603 187.767 20.1626C187.806 20.1626 187.838 20.1649 187.878 20.1649C188.422 20.1742 188.961 20.195 189.501 20.2274C195.307 20.5307 200.712 21.7623 205.634 23.7693C205.775 23.8249 205.912 23.8828 206.05 23.9453C209.051 25.2 211.863 26.7441 214.477 28.5498C214.854 28.8068 215.229 29.0707 215.593 29.3415C215.641 29.3786 215.69 29.4156 215.743 29.4503C215.831 29.5151 215.922 29.5846 216.007 29.6564C220.417 32.9598 224.191 37.018 227.228 41.648C227.327 41.7915 227.422 41.9373 227.517 42.0878C230.298 46.4122 232.448 51.2251 233.879 56.3805C233.925 56.5333 233.967 56.6884 234.008 56.8412L234.018 56.8782C234.062 57.0426 234.106 57.2023 234.138 57.369C234.159 57.4246 234.173 57.4755 234.182 57.5334C235.356 62.3879 235.219 67.6406 234.073 72.8748C234.046 73.0368 234.006 73.1966 233.967 73.3609C232.548 79.5327 229.737 85.6581 226.031 91.0312C225.904 91.2303 225.767 91.4224 225.631 91.6192C225.626 91.6192 225.621 91.6261 225.621 91.6261C225.506 91.7905 225.39 91.9526 225.272 92.1123C225.087 92.3669 224.906 92.6193 224.716 92.8623C224.485 93.1726 224.253 93.4781 224.017 93.7721C219.577 99.4299 214.141 104.014 208.396 106.555C208.081 106.694 207.764 106.829 207.444 106.954C200.93 109.57 194.068 109.528 187.838 105.46C187.044 104.944 186.218 104.5 185.366 104.12C185.366 104.12 185.366 104.115 185.359 104.115C185.216 104.048 185.07 103.984 184.922 103.923H184.917C184.035 103.555 183.125 103.252 182.183 103.009C180.907 102.678 179.583 102.449 178.215 102.301C177.727 102.25 177.229 102.206 176.731 102.18C163.131 101.319 145.796 107.671 131.989 101.863C131.929 101.84 131.867 101.814 131.804 101.787C131.698 101.738 131.584 101.692 131.478 101.643C130.839 101.356 130.205 101.046 129.577 100.701C125.079 98.2377 121.026 94.2652 117.701 88.0402C117.692 88.0263 117.688 88.0101 117.678 87.9963C117.602 87.8574 117.532 87.7161 117.461 87.5749C115.048 82.7968 114.497 77.6066 115.426 72.2983Z" fill="#15161A"/>
<path d="M205.775 97.4414C209.046 98.0572 226.084 98.7355 227.059 101.15C227.902 103.238 215.456 103.953 207.991 102.002C203.668 100.872 204.708 104.768 198.853 104.764C190.957 104.757 180.757 104.768 172.303 104.643C151.301 104.333 146.222 104.641 146.222 102.726C146.222 100.916 155.769 99.0156 174.592 99.0156C193.415 99.0156 203.314 96.9784 205.775 97.4414Z" fill="#1C1D23"/>
<path d="M219.1 93.999V97.5687C219.1 98.8836 215.105 99.9485 210.174 99.9485C205.243 99.9485 201.247 98.8836 201.247 97.5687V93.999" fill="#15161A"/>
<path d="M219.1 93.999C219.153 95.1009 219.174 96.2005 219.213 97.3024C219.32 97.9622 218.85 98.416 218.324 98.7169C214.616 100.687 205.74 100.689 202.025 98.7169C201.506 98.4206 201.025 97.9599 201.136 97.3024C201.175 96.2005 201.196 95.1009 201.249 93.999C201.302 95.1009 201.323 96.2005 201.363 97.3024C201.363 97.5802 201.367 97.7909 201.557 97.9946C202.108 98.5641 202.93 98.7933 203.682 99.0155C204.731 99.291 205.814 99.46 206.9 99.5642C209.683 99.8582 216.734 99.8929 218.792 97.9946C218.98 97.7909 218.989 97.5802 218.987 97.3024C219.026 96.2005 219.047 95.1009 219.1 93.999Z" fill="#F1F2F4"/>
<path d="M219.1 90.4269V93.9966C219.1 95.3116 215.105 96.3764 210.174 96.3764C205.243 96.3764 201.247 95.3116 201.247 93.9966V90.4269" fill="#15161A"/>
<path d="M219.1 90.4269C219.153 91.5289 219.174 92.6285 219.213 93.7304C219.32 94.3902 218.85 94.8439 218.324 95.1449C214.616 97.1149 205.74 97.1172 202.025 95.1449C201.506 94.8486 201.025 94.3879 201.136 93.7304C201.175 92.6285 201.196 91.5289 201.249 90.4269C201.302 91.5289 201.323 92.6285 201.363 93.7304C201.363 94.0082 201.367 94.2189 201.557 94.4226C202.108 94.9921 202.93 95.2213 203.682 95.4435C204.731 95.719 205.814 95.888 206.9 95.9922C209.683 96.2862 216.734 96.3209 218.792 94.4226C218.98 94.2189 218.989 94.0082 218.987 93.7304C219.026 92.6285 219.047 91.5289 219.1 90.4269Z" fill="#F1F2F4"/>
<path d="M210.173 92.8068C215.103 92.8068 219.1 91.7413 219.1 90.427C219.1 89.1127 215.103 88.0472 210.173 88.0472C205.243 88.0472 201.247 89.1127 201.247 90.427C201.247 91.7413 205.243 92.8068 210.173 92.8068Z" fill="#15161A"/>
<path d="M219.1 90.427C218.961 91.721 216.049 92.2396 214.977 92.4502C211.803 92.9781 208.539 93.0151 205.356 92.5313C199.749 91.6261 199.721 89.2371 205.356 88.3226C208.539 87.8365 211.803 87.8758 214.977 88.4037C216.058 88.6166 218.956 89.1306 219.1 90.427ZM219.1 90.427C218.952 89.1352 216.042 88.6398 214.972 88.4361C211.805 87.9545 208.546 87.9916 205.39 88.5171C200.068 89.4547 200.038 91.39 205.39 92.3345C208.546 92.86 211.805 92.897 214.972 92.4155C216.053 92.2095 218.949 91.7164 219.1 90.4246V90.427Z" fill="#F1F2F4"/>
<path d="M219.1 86.8411V90.4108C219.1 91.7257 215.105 92.7906 210.174 92.7906C205.243 92.7906 201.247 91.7257 201.247 90.4108V86.8411" fill="#15161A"/>
<path d="M219.1 86.8411C219.153 87.943 219.174 89.0426 219.213 90.1445C219.32 90.8043 218.85 91.2581 218.324 91.559C214.616 93.5291 205.74 93.5314 202.025 91.559C201.506 91.2627 201.025 90.802 201.136 90.1445C201.175 89.0426 201.196 87.943 201.249 86.8411C201.302 87.943 201.323 89.0426 201.363 90.1445C201.363 90.4223 201.367 90.633 201.557 90.8367C202.108 91.4062 202.93 91.6354 203.682 91.8576C204.731 92.1331 205.814 92.3021 206.9 92.4063C209.683 92.7003 216.734 92.735 218.792 90.8367C218.98 90.633 218.989 90.4223 218.987 90.1445C219.026 89.0426 219.047 87.943 219.1 86.8411Z" fill="#F1F2F4"/>
<path d="M219.1 83.269V86.8387C219.1 88.1537 215.105 89.2186 210.174 89.2186C205.243 89.2186 201.247 88.1537 201.247 86.8387V83.269" fill="#15161A"/>
<path d="M219.1 83.269C219.153 84.371 219.174 85.4706 219.213 86.5725C219.32 87.2323 218.85 87.686 218.324 87.987C214.616 89.957 205.74 89.9594 202.025 87.987C201.506 87.6907 201.025 87.23 201.136 86.5725C201.175 85.4706 201.196 84.371 201.249 83.269C201.302 84.371 201.323 85.4706 201.363 86.5725C201.363 86.8503 201.367 87.061 201.557 87.2647C202.108 87.8342 202.93 88.0634 203.682 88.2856C204.731 88.5611 205.814 88.7301 206.9 88.8343C209.683 89.1283 216.734 89.163 218.792 87.2647C218.98 87.061 218.989 86.8503 218.987 86.5725C219.026 85.4706 219.047 84.371 219.1 83.269Z" fill="#F1F2F4"/>
<path d="M219.1 79.6993V83.269C219.1 84.584 215.105 85.6488 210.174 85.6488C205.243 85.6488 201.247 84.584 201.247 83.269V79.6993" fill="#15161A"/>
<path d="M219.1 79.6993C219.153 80.8013 219.174 81.9009 219.213 83.0028C219.32 83.6626 218.85 84.1163 218.324 84.4173C214.616 86.3873 205.74 86.3896 202.025 84.4173C201.506 84.121 201.025 83.6603 201.136 83.0028C201.175 81.9009 201.196 80.8013 201.249 79.6993C201.302 80.8013 201.323 81.9009 201.363 83.0028C201.363 83.2806 201.367 83.4913 201.557 83.695C202.108 84.2645 202.93 84.4937 203.682 84.7159C204.731 84.9914 205.814 85.1604 206.9 85.2646C209.683 85.5586 216.734 85.5933 218.792 83.695C218.98 83.4913 218.989 83.2806 218.987 83.0028C219.026 81.9009 219.047 80.8013 219.1 79.6993Z" fill="#F1F2F4"/>
<path d="M210.173 82.0792C215.103 82.0792 219.1 81.0137 219.1 79.6994C219.1 78.3851 215.103 77.3196 210.173 77.3196C205.243 77.3196 201.247 78.3851 201.247 79.6994C201.247 81.0137 205.243 82.0792 210.173 82.0792Z" fill="#3F4350"/>
<path d="M219.1 79.6994C218.961 80.9957 216.049 81.512 214.977 81.7226C211.803 82.2505 208.539 82.2875 205.356 81.8037C199.749 80.8985 199.721 78.5094 205.356 77.595C208.539 77.1089 211.803 77.1482 214.977 77.6761C216.058 77.889 218.956 78.403 219.1 79.6994ZM219.1 79.6994C218.952 78.4076 216.042 77.9122 214.972 77.7085C211.805 77.2269 208.546 77.264 205.39 77.7895C200.068 78.7271 200.038 80.6624 205.39 81.6069C208.546 82.1324 211.805 82.1694 214.972 81.6879C216.053 81.4819 218.949 80.9888 219.1 79.697V79.6994Z" fill="#F1F2F4"/>
<path d="M224.619 96.9645V100.534C224.619 101.849 220.624 102.914 215.693 102.914C210.762 102.914 206.766 101.849 206.766 100.534V96.9645" fill="#15161A"/>
<path d="M224.619 96.9645C224.672 98.0664 224.693 99.166 224.732 100.268C224.839 100.928 224.369 101.381 223.844 101.682C220.135 103.652 211.259 103.655 207.544 101.682C207.025 101.386 206.544 100.925 206.655 100.268C206.694 99.166 206.715 98.0664 206.768 96.9645C206.821 98.0664 206.842 99.166 206.882 100.268C206.882 100.546 206.886 100.756 207.076 100.96C207.627 101.53 208.449 101.759 209.201 101.981C210.25 102.257 211.333 102.426 212.419 102.53C215.202 102.824 222.253 102.858 224.311 100.96C224.499 100.756 224.508 100.546 224.506 100.268C224.543 99.166 224.566 98.0664 224.619 96.9645Z" fill="#F1F2F4"/>
<path d="M224.619 93.3948V96.9645C224.619 98.2794 220.624 99.3443 215.693 99.3443C210.762 99.3443 206.766 98.2794 206.766 96.9645V93.3948" fill="#15161A"/>
<path d="M224.619 93.3948C224.672 94.4967 224.693 95.5963 224.732 96.6983C224.839 97.358 224.369 97.8118 223.844 98.1127C220.135 100.083 211.259 100.085 207.544 98.1127C207.025 97.8164 206.544 97.3557 206.655 96.6983C206.694 95.5963 206.715 94.4967 206.768 93.3948C206.821 94.4967 206.842 95.5963 206.882 96.6983C206.882 96.9761 206.886 97.1867 207.076 97.3904C207.627 97.9599 208.449 98.1891 209.201 98.4113C210.25 98.6868 211.333 98.8558 212.419 98.96C215.202 99.254 222.253 99.2887 224.311 97.3904C224.499 97.1867 224.508 96.9761 224.506 96.6983C224.543 95.5963 224.566 94.4967 224.619 93.3948Z" fill="#F1F2F4"/>
<path d="M215.692 95.7746C220.622 95.7746 224.619 94.7091 224.619 93.3948C224.619 92.0804 220.622 91.015 215.692 91.015C210.762 91.015 206.766 92.0804 206.766 93.3948C206.766 94.7091 210.762 95.7746 215.692 95.7746Z" fill="#3F4350"/>
<path d="M224.619 93.3948C224.48 94.6889 221.568 95.2074 220.496 95.4181C217.322 95.9459 214.058 95.9829 210.875 95.4991C205.268 94.594 205.24 92.2049 210.875 91.2905C214.058 90.8043 217.322 90.8437 220.496 91.3715C221.577 91.5845 224.475 92.0984 224.619 93.3948ZM224.619 93.3948C224.471 92.103 221.561 91.6076 220.491 91.4039C217.324 90.9224 214.065 90.9594 210.909 91.4849C205.587 92.4225 205.557 94.3578 210.909 95.3023C214.065 95.8278 217.324 95.8649 220.491 95.3834C221.572 95.1773 224.468 94.6842 224.619 93.3925V93.3948Z" fill="#F1F2F4"/>
<path d="M193.403 103.458H149.875C147.645 103.458 145.631 102.557 144.173 101.094C143.624 100.546 143.154 99.9253 142.782 99.2377C142.659 99.0086 142.545 98.7724 142.441 98.534C142.291 98.1705 142.159 97.7932 142.062 97.4089C141.895 96.763 141.807 96.0871 141.807 95.3926V58.325C141.807 58.325 141.798 58.1769 141.816 57.9246C141.971 54.7623 143.948 52.0746 146.717 50.9055C146.745 50.8893 146.78 50.8777 146.807 50.8639C146.812 50.8639 146.812 50.8592 146.817 50.8592C147.12 50.7365 147.43 50.63 147.75 50.5444C147.803 50.5282 147.861 50.512 147.914 50.5004C148.025 50.4726 148.134 50.4472 148.245 50.4263C148.273 50.4171 148.303 50.4101 148.331 50.4055H148.335C148.398 50.3939 148.463 50.38 148.527 50.3731C148.569 50.3638 148.592 50.3615 148.601 50.3569H148.611C149.023 50.2921 149.446 50.2596 149.879 50.2596H193.408C193.808 50.2596 194.207 50.2874 194.591 50.3499C196.313 50.5999 197.86 51.3963 199.045 52.5584C199.045 52.5584 199.047 52.56 199.05 52.5631C199.05 52.5631 199.054 52.5631 199.054 52.5677C199.853 53.3501 200.49 54.2993 200.909 55.3526C200.92 55.3804 200.932 55.4128 200.943 55.4452C201.152 56.0216 201.251 56.6328 201.251 57.2463V102.463" fill="#1C1D23"/>
<path d="M196.501 79.2217L195.253 82.2173L195.248 82.222L195.153 80.7195C193.922 81.752 192.341 82.3724 190.607 82.3724H152.359C152.282 82.0854 152.231 81.7844 152.215 81.4742L152.032 78.5828L149.569 39.9596L149.289 35.6028L147.935 14.3906C147.844 12.9669 148.379 11.6428 149.298 10.6936C149.317 10.6751 149.335 10.6543 149.356 10.6357C150.162 9.82549 151.254 9.29767 152.486 9.22128L183.278 7.25817L187.051 7.01741C189.734 6.84379 192.049 8.87866 192.218 11.564L194.04 40.08L194.088 40.8741L196.498 78.6476C196.51 78.8421 196.512 79.0319 196.503 79.2217H196.501Z" fill="#6061EE" stroke="#1C1D23" stroke-miterlimit="50"/>
<path d="M196.501 79.2217L195.253 82.2173L195.248 82.222L195.154 80.7195C193.922 81.752 192.341 82.3724 190.607 82.3724H188.067L183.275 7.25817L187.049 7.01741C189.732 6.84379 192.047 8.87866 192.216 11.564L194.038 40.08L194.086 40.874L196.496 78.6476C196.508 78.8421 196.51 79.0319 196.501 79.2217Z" fill="#F1F2F4"/>
<path d="M186.171 78.261C185.951 77.9323 185.812 77.5411 185.785 77.1174C185.703 75.8326 186.676 74.7237 187.963 74.6427C189.25 74.5617 190.357 75.5363 190.438 76.8211C190.465 77.2448 190.377 77.6499 190.199 78.0041" fill="#E1172F"/>
<path d="M186.171 78.261C185.951 77.9323 185.812 77.5411 185.785 77.1174C185.703 75.8326 186.676 74.7237 187.963 74.6427C189.25 74.5617 190.357 75.5363 190.438 76.8211C190.465 77.2448 190.377 77.6499 190.199 78.0041" stroke="#1C1D23" stroke-width="3" stroke-miterlimit="10"/>
<path d="M188.259 81.627C189.546 81.627 190.59 80.5833 190.59 79.2958C190.59 78.0084 189.546 76.9647 188.259 76.9647C186.971 76.9647 185.928 78.0084 185.928 79.2958C185.928 80.5833 186.971 81.627 188.259 81.627Z" fill="#D99048"/>
<path d="M188.409 81.6224C186.28 81.7729 184.921 79.2542 186.287 77.5573C187.159 76.4206 188.988 76.3003 190 77.3189C191.574 78.8282 190.542 81.4997 188.409 81.6224ZM188.409 81.6224C189.639 81.5784 190.627 80.3445 190.414 79.157C189.956 76.5526 186.231 76.7887 186.106 79.4324C186.046 80.6362 187.185 81.7335 188.409 81.6224Z" fill="#1C1D23"/>
<path d="M153.477 14.3721L153.458 14.1128L153.06 14.0989L153.118 13.7031L152.87 13.6382L152.729 14.0133L152.37 13.8373L152.233 14.0526L152.551 14.305L152.266 14.592L152.43 14.7865L152.764 14.5666L152.951 14.9184L153.189 14.8258L153.081 14.4415L153.477 14.3721Z" fill="#F1F2F4"/>
<path d="M153.588 16.1176L153.569 15.8584L153.171 15.8445L153.229 15.4486L152.981 15.3838L152.84 15.7588L152.481 15.5829L152.345 15.7982L152.662 16.0505L152.377 16.3376L152.542 16.532L152.875 16.3121L153.062 16.664L153.301 16.5714L153.192 16.1871L153.588 16.1176Z" fill="#F1F2F4"/>
<path d="M153.699 17.8608L153.68 17.6015L153.282 17.5876L153.34 17.1918L153.092 17.127L152.951 17.502L152.592 17.326L152.456 17.5413L152.773 17.7937L152.488 18.0807L152.652 18.2752L152.983 18.0553L153.171 18.4071L153.412 18.3145L153.303 17.9303L153.699 17.8608Z" fill="#F1F2F4"/>
<path d="M153.807 19.6063L153.793 19.347L153.395 19.3331L153.453 18.9373L153.205 18.8724L153.064 19.2475L152.705 19.0715L152.569 19.2868L152.886 19.5392L152.601 19.8262L152.766 20.0207L153.097 19.8007L153.284 20.1526L153.525 20.06L153.416 19.6757L153.807 19.6063Z" fill="#F1F2F4"/>
<path d="M153.995 22.4931L153.977 22.2338L153.578 22.2153L153.636 21.824L153.389 21.7592L153.247 22.1296L152.889 21.956L152.752 22.1713L153.069 22.419L152.784 22.706L152.949 22.9028L153.282 22.6806L153.47 23.0371L153.708 22.9399L153.599 22.5579L153.995 22.4884V22.4931Z" fill="#F1F2F4"/>
<path d="M154.106 24.2386L154.088 23.9793L153.69 23.9608L153.748 23.5696L153.5 23.5048L153.359 23.8752L153 23.7015L152.863 23.9168L153.18 24.1645L152.896 24.4516L153.06 24.6484L153.393 24.4261L153.581 24.7826L153.819 24.6854L153.711 24.3034L154.106 24.234V24.2386Z" fill="#F1F2F4"/>
<path d="M154.217 25.9818L154.199 25.7225L153.801 25.704L153.858 25.3127L153.611 25.2479L153.47 25.6183L153.111 25.4447L152.974 25.66L153.291 25.9077L153.007 26.1948L153.171 26.3915L153.502 26.1693L153.689 26.5258L153.93 26.4286L153.821 26.0466L154.217 25.9771V25.9818Z" fill="#F1F2F4"/>
<path d="M154.326 27.7273L154.312 27.468L153.914 27.4495L153.972 27.0582L153.724 26.9934L153.583 27.3638L153.224 27.1902L153.087 27.4055L153.405 27.6532L153.12 27.9402L153.284 28.137L153.615 27.9148L153.803 28.2713L154.043 28.174L153.935 27.7921L154.326 27.7226V27.7273Z" fill="#F1F2F4"/>
<path d="M154.514 30.614L154.495 30.3548L154.097 30.3362L154.155 29.9404L153.907 29.8802L153.766 30.2506L153.407 30.0746L153.271 30.2899L153.588 30.5423L153.303 30.8293L153.467 31.0261L153.801 30.8039L153.988 31.1557L154.227 31.0631L154.118 30.6789L154.514 30.614Z" fill="#F1F2F4"/>
<path d="M154.625 32.3596L154.606 32.1003L154.208 32.0818L154.266 31.6906L154.018 31.6257L153.877 31.9961L153.518 31.8202L153.382 32.0355L153.699 32.2878L153.414 32.5749L153.579 32.7716L153.912 32.5494L154.099 32.9013L154.338 32.8087L154.229 32.4244L154.625 32.3596Z" fill="#F1F2F4"/>
<path d="M154.736 34.1027L154.717 33.8434L154.319 33.8249L154.377 33.4337L154.129 33.3688L153.988 33.7392L153.629 33.5633L153.493 33.7786L153.81 34.0309L153.525 34.318L153.689 34.5148L154.02 34.2925L154.208 34.6444L154.449 34.5518L154.34 34.1675L154.736 34.1027Z" fill="#F1F2F4"/>
<path d="M154.843 35.8482L154.829 35.6028V35.589L154.43 35.5704L154.488 35.1792L154.241 35.1144L154.099 35.4848L153.741 35.3088L153.604 35.5241L153.704 35.6028L153.919 35.7765L153.634 36.0635L153.798 36.2603L154.13 36.0381L154.317 36.3899L154.558 36.2973L154.449 35.913L154.84 35.8482H154.843Z" fill="#F1F2F4"/>
<path d="M155.03 38.7327L155.011 38.4734L154.613 38.4595L154.671 38.0637L154.423 38.0035L154.282 38.3739L153.923 38.1979L153.787 38.4132L154.104 38.6656L153.819 38.9526L153.983 39.1494L154.317 38.9272L154.504 39.279L154.743 39.1864L154.634 38.8021L155.03 38.7327Z" fill="#F1F2F4"/>
<path d="M155.141 40.4759L155.122 40.2166L154.724 40.2027L154.761 39.9619L154.782 39.8068L154.534 39.7466L154.451 39.9619L154.393 40.117L154.076 39.9619L154.032 39.9411L154.018 39.9619L153.896 40.1564L154.213 40.4087L153.928 40.6958L154.092 40.8926L154.426 40.6703L154.613 41.0222L154.852 40.9296L154.743 40.5453L155.139 40.4759H155.141Z" fill="#F1F2F4"/>
<path d="M155.254 42.2213L155.236 41.9621L154.838 41.9482L154.896 41.5523L154.648 41.4921L154.507 41.8625L154.148 41.6866L154.011 41.9019L154.328 42.1542L154.044 42.4413L154.208 42.638L154.539 42.4158L154.727 42.7677L154.967 42.6751L154.859 42.2908L155.254 42.2213Z" fill="#F1F2F4"/>
<path d="M155.361 43.9646L155.347 43.7053L154.949 43.6914L155.006 43.2955L154.759 43.2354L154.617 43.6058L154.259 43.4298L154.122 43.6451L154.439 43.8974L154.154 44.1845L154.319 44.3813L154.65 44.159L154.837 44.5109L155.078 44.4183L154.969 44.034L155.361 43.9646Z" fill="#F1F2F4"/>
<path d="M193.66 84.9166C193.679 84.8124 193.679 84.7499 193.716 84.6874L193.764 84.6828C193.773 84.6781 193.78 84.6712 193.79 84.6689L193.741 84.6735C193.785 84.655 193.831 84.7175 193.861 84.7592C193.919 84.8286 193.945 84.8934 193.926 84.986C193.919 85.0485 193.892 85.1226 193.831 85.1249C193.813 85.1249 193.778 85.1342 193.762 85.1249L193.811 85.1203C193.732 85.0856 193.697 85.0208 193.658 84.9189L193.66 84.9166Z" fill="#1C1D23"/>
<path d="M193.929 84.8633C193.95 85.0439 193.987 85.1064 193.91 85.1064L193.822 85.1273C193.808 85.1273 193.778 85.1319 193.764 85.1342L193.831 85.1249L193.746 85.1388C193.732 85.1319 193.718 85.1712 193.7 85.0948C193.683 85.0439 193.669 84.9837 193.66 84.9166C193.679 84.817 193.665 84.6781 193.679 84.6805C193.693 84.6805 193.75 84.6735 193.764 84.6712L193.79 84.6666H193.757L193.811 84.655C193.818 84.6504 193.829 84.655 193.836 84.6411L193.933 84.861L193.929 84.8633Z" fill="#1C1D23"/>
<path d="M169.015 31.172C169.71 31.5748 170.525 31.7831 171.386 31.7276C172.247 31.672 173.029 31.3618 173.666 30.8757" stroke="#1C1D23" stroke-linecap="round" stroke-linejoin="round"/>
<path d="M169.511 30.3154C170.041 30.6233 170.666 30.7831 171.323 30.7414C171.981 30.6997 172.58 30.4613 173.067 30.0886" stroke="#1C1D23" stroke-linecap="round" stroke-linejoin="round"/>
<path d="M170.006 29.4612C170.374 29.6742 170.805 29.7853 171.261 29.7552C171.717 29.7251 172.131 29.5607 172.469 29.3038" stroke="#1C1D23" stroke-linecap="round" stroke-linejoin="round"/>
<path d="M175.136 26.0616L174.633 18.1697C174.579 17.3263 173.851 16.6862 173.008 16.74L167.937 17.0635C167.094 17.1173 166.453 17.8446 166.507 18.688L167.011 26.5799C167.065 27.4233 167.792 28.0634 168.635 28.0096L173.706 27.6861C174.55 27.6323 175.19 26.905 175.136 26.0616Z" fill="#F1F2F4"/>
<path opacity="0.49" d="M172.216 18.9141L172.508 23.4908" stroke="#1C1D23" stroke-miterlimit="50"/>
<path opacity="0.49" d="M170.925 18.928L171.138 22.2847" stroke="#1C1D23" stroke-miterlimit="50"/>
<path opacity="0.49" d="M169.249 23.0533L169.445 26.1183" stroke="#1C1D23" stroke-miterlimit="50"/>
<path opacity="0.49" d="M168.249 23.2431L168.334 24.5696" stroke="#1C1D23" stroke-miterlimit="50"/>
<path d="M156.113 55.308L157.681 83.2892" stroke="#3F4350" stroke-miterlimit="50" stroke-linecap="round"/>
<path d="M204.71 63.7468V96.0755C204.71 97.7446 204.207 99.3003 203.349 100.59C202.923 101.233 202.409 101.81 201.818 102.303H201.814C200.416 103.486 198.614 104.196 196.642 104.196H149.518C147.289 104.196 145.275 103.291 143.816 101.817C143.268 101.268 142.798 100.638 142.425 99.9461C142.298 99.7146 142.187 99.4762 142.085 99.2378C141.93 98.872 141.802 98.4923 141.705 98.1057C141.539 97.4552 141.451 96.7746 141.451 96.0755V58.7533C141.451 58.7533 141.441 58.6052 141.46 58.3505C141.522 56.987 142.106 52.5422 146.914 51.0468C146.726 51.1093 146.541 51.188 146.361 51.2806C144.458 52.2575 143.33 54.8109 148.27 55.4938C148.27 55.4938 148.27 55.4985 148.275 55.4985C148.652 55.5517 149.065 55.5934 149.518 55.6212H196.642C197.415 55.6212 198.168 55.7323 198.876 55.9337C198.876 55.9383 198.881 55.9383 198.881 55.9383C199.487 56.1142 200.064 56.3573 200.603 56.6675C200.698 56.7208 200.791 56.774 200.885 56.8319C200.885 56.8365 200.89 56.8365 200.89 56.8365C203.184 58.2695 204.712 60.8276 204.712 63.7444L204.71 63.7468Z" fill="#1C1D23"/>
<path d="M204.71 63.7467C204.715 71.6293 204.738 88.0564 204.742 95.7745C204.909 99.5202 202.321 103.046 198.723 103.97C197.58 104.298 196.383 104.245 195.207 104.247C182.268 104.259 165.795 104.28 152.857 104.291H149.326C148.136 104.264 146.951 103.981 145.886 103.442C143.198 102.12 141.377 99.2493 141.344 96.2537C141.323 85.3085 141.365 70.1546 141.367 59.1978C141.282 56.7601 142.141 54.2252 143.986 52.5793C144.381 52.2552 144.814 51.9334 145.257 51.6787C145.523 51.5468 145.789 51.4148 146.058 51.2875L146.893 50.9819L146.937 51.1208C146.335 51.3245 145.773 51.6787 145.347 52.151C144.231 53.4103 145.011 54.5076 146.398 54.9938C147.002 55.2137 147.641 55.348 148.282 55.4383L148.338 55.5008C148.338 55.4846 148.335 55.4776 148.322 55.4614C148.308 55.4475 148.287 55.4429 148.278 55.4429H148.287C148.585 55.4799 149.183 55.5286 149.461 55.561C156.088 55.5864 166.862 55.5795 173.59 55.5934C177.74 55.6003 188.554 55.6073 192.577 55.6142L195.742 55.6165C196.795 55.6003 197.862 55.6235 198.881 55.9337C202.24 56.8712 204.765 60.1956 204.712 63.7537L204.71 63.7467ZM204.71 63.7467C204.742 60.1585 202.249 56.9106 198.865 55.9383C197.895 55.6698 196.783 55.6073 195.739 55.6397L192.575 55.642L186.246 55.6489C175.796 55.6698 161.832 55.6675 151.431 55.686C150.979 55.6813 149.514 55.7161 149.058 55.642L148.266 55.5633H148.275C148.25 55.5702 148.201 55.5286 148.208 55.4961L148.264 55.5587C147.025 55.3387 145.472 55.1234 144.8 53.9173C144.249 52.5561 145.733 51.3708 146.891 50.9796L146.935 51.1185L146.113 51.4218C145.849 51.5468 145.59 51.6764 145.328 51.8061C144.895 52.0561 144.469 52.3709 144.085 52.6904C142.279 54.3109 141.444 56.7972 141.534 59.1909C141.548 70.1523 141.566 85.2969 141.562 96.2468C141.59 99.1683 143.356 101.969 145.974 103.261C147.009 103.789 148.166 104.067 149.329 104.097L152.854 104.106C165.79 104.118 182.266 104.139 195.205 104.15C196.376 104.15 197.561 104.208 198.698 103.884C202.263 102.972 204.833 99.4901 204.675 95.7745C204.684 88.1305 204.701 71.5668 204.708 63.7467H204.71Z" fill="#F1F2F4"/>
<path d="M200.659 66.6243L200.642 67.7818C200.642 67.7818 200.64 67.7888 200.635 67.7888C200.631 67.7888 200.628 67.7865 200.628 67.7818L200.656 66.6243H200.659Z" fill="#F1F2F4"/>
<path d="M200.626 68.9393L200.594 71.2543C200.594 71.2682 200.582 71.2798 200.568 71.2798C200.555 71.2798 200.543 71.2682 200.543 71.2543L200.601 68.9393C200.601 68.9324 200.608 68.9277 200.615 68.9277C200.622 68.9277 200.626 68.9347 200.626 68.9416V68.9393Z" fill="#F1F2F4"/>
<path d="M200.561 73.5693L200.536 75.4212C200.536 75.449 200.513 75.4699 200.487 75.4699C200.459 75.4699 200.438 75.4467 200.438 75.4212L200.485 73.5693C200.485 73.5484 200.503 73.5322 200.524 73.5322C200.545 73.5322 200.561 73.5507 200.561 73.5716V73.5693Z" fill="#F1F2F4"/>
<path d="M200.51 77.2732L200.489 78.4307C200.489 78.4631 200.462 78.4909 200.427 78.4909C200.394 78.4909 200.367 78.4631 200.367 78.4284L200.392 77.2709C200.392 77.2385 200.42 77.213 200.452 77.213C200.485 77.213 200.51 77.2408 200.51 77.2732Z" fill="#F1F2F4"/>
<path d="M200.469 79.5882L200.427 81.9032C200.427 81.9402 200.397 81.9703 200.36 81.968C200.323 81.9657 200.293 81.9379 200.295 81.9009L200.344 79.5859C200.344 79.5512 200.374 79.5234 200.408 79.5234C200.443 79.5234 200.471 79.5535 200.471 79.5882H200.469Z" fill="#F1F2F4"/>
<path d="M200.387 84.2159L200.355 86.0678C200.355 86.1095 200.32 86.1419 200.279 86.1419C200.237 86.1419 200.205 86.1072 200.205 86.0655L200.244 84.2136C200.244 84.1742 200.276 84.1418 200.318 84.1441C200.357 84.1441 200.39 84.1765 200.387 84.2159Z" fill="#F1F2F4"/>
<path d="M200.323 87.9198L200.302 89.0773C200.302 89.1213 200.265 89.1583 200.221 89.156C200.177 89.156 200.14 89.119 200.142 89.075L200.168 87.9175C200.168 87.8735 200.205 87.8388 200.249 87.8411C200.293 87.8411 200.327 87.8782 200.325 87.9221L200.323 87.9198Z" fill="#F1F2F4"/>
<path d="M200.284 90.2348L200.242 92.5498C200.242 92.5984 200.2 92.6354 200.154 92.6354C200.105 92.6354 200.068 92.5938 200.068 92.5475L200.117 90.2325C200.117 90.1862 200.156 90.1492 200.203 90.1515C200.249 90.1515 200.284 90.1908 200.284 90.2348Z" fill="#F1F2F4"/>
<path d="M200.202 94.8648L200.186 95.7908C200.181 96.0964 200.181 96.4182 200.119 96.7284C200.11 96.7839 200.059 96.8163 200.006 96.8048C199.955 96.7955 199.92 96.7446 199.931 96.6913C199.992 96.395 199.994 96.0964 199.999 95.7839L200.019 94.8579C200.019 94.8069 200.063 94.7676 200.114 94.7676C200.165 94.7676 200.205 94.8092 200.205 94.8602L200.202 94.8648Z" fill="#F1F2F4"/>
<path d="M199.328 98.4368C199.08 98.747 198.788 99.0179 198.466 99.2471C198.42 99.2795 198.358 99.2679 198.325 99.2239C198.293 99.1799 198.304 99.1151 198.348 99.0827C198.656 98.8651 198.936 98.6058 199.172 98.3141C199.207 98.2725 199.27 98.2655 199.311 98.3002C199.353 98.335 199.36 98.3975 199.328 98.4391V98.4368Z" fill="#F1F2F4"/>
<path d="M197.422 99.798C197.052 99.9346 196.665 100.025 196.272 100.067C195.876 100.108 195.489 100.087 195.105 100.094C195.045 100.094 194.996 100.048 194.996 99.9879C194.996 99.9277 195.042 99.8791 195.103 99.8791H195.107C195.494 99.8744 195.88 99.8953 196.253 99.8559C196.628 99.8189 196.999 99.7332 197.353 99.6036C197.406 99.5851 197.466 99.6105 197.485 99.6661C197.503 99.7216 197.478 99.7795 197.425 99.798H197.422Z" fill="#F1F2F4"/>
<path d="M192.79 100.099L190.938 100.104C190.873 100.104 190.822 100.053 190.822 99.9878C190.822 99.923 190.873 99.8721 190.938 99.8721L192.79 99.8767C192.853 99.8767 192.901 99.9276 192.901 99.9901C192.901 100.053 192.85 100.101 192.79 100.101V100.099Z" fill="#F1F2F4"/>
<path d="M189.086 100.099H187.928C187.868 100.097 187.819 100.048 187.819 99.9855C187.819 99.9253 187.868 99.8767 187.928 99.8767H189.086C189.148 99.8744 189.199 99.9253 189.199 99.9855C189.199 100.048 189.148 100.099 189.088 100.099H189.086Z" fill="#F1F2F4"/>
<path d="M186.771 100.094L184.456 100.09C184.398 100.09 184.352 100.043 184.352 99.9855C184.352 99.9276 184.398 99.8813 184.456 99.8813L186.771 99.8767C186.831 99.8767 186.88 99.9253 186.88 99.9832C186.88 100.041 186.831 100.092 186.773 100.092L186.771 100.094Z" fill="#F1F2F4"/>
<path d="M182.141 100.085L180.289 100.08C180.236 100.08 180.194 100.036 180.194 99.9855C180.194 99.9323 180.236 99.8906 180.289 99.8906L182.141 99.886C182.196 99.886 182.24 99.93 182.24 99.9855C182.24 100.041 182.196 100.085 182.141 100.085Z" fill="#F1F2F4"/>
<path d="M178.437 100.078H177.279C177.231 100.076 177.189 100.036 177.189 99.9855C177.189 99.9369 177.228 99.8952 177.279 99.8952H178.437C178.488 99.8929 178.529 99.9346 178.529 99.9855C178.529 100.036 178.488 100.078 178.437 100.078Z" fill="#F1F2F4"/>
<path d="M176.122 100.074L173.807 100.069C173.761 100.069 173.724 100.032 173.724 99.9855C173.724 99.9392 173.761 99.9022 173.807 99.9022L176.122 99.8976C176.171 99.8976 176.21 99.9369 176.21 99.9855C176.21 100.034 176.171 100.074 176.122 100.074Z" fill="#F1F2F4"/>
<path d="M171.492 100.064L169.64 100.06C169.598 100.06 169.566 100.025 169.566 99.9856C169.566 99.9439 169.598 99.9115 169.64 99.9115L171.492 99.9069C171.536 99.9069 171.571 99.9416 171.571 99.9856C171.571 100.03 171.536 100.064 171.492 100.064Z" fill="#F1F2F4"/>
<path d="M167.788 100.057H166.63C166.593 100.057 166.561 100.025 166.561 99.9855C166.561 99.9485 166.591 99.9161 166.63 99.9161H167.788C167.827 99.9161 167.86 99.9462 167.86 99.9855C167.86 100.025 167.827 100.057 167.788 100.057Z" fill="#F1F2F4"/>
<path d="M165.473 100.053L163.158 100.048C163.123 100.048 163.096 100.02 163.096 99.9855C163.096 99.9508 163.123 99.923 163.158 99.923L165.473 99.9184C165.51 99.9184 165.54 99.9485 165.54 99.9855C165.54 100.023 165.51 100.053 165.473 100.053Z" fill="#F1F2F4"/>
<path d="M160.843 100.043L158.991 100.034C158.966 100.034 158.942 100.013 158.942 99.9855C158.942 99.9601 158.963 99.9369 158.991 99.9369L160.843 99.9277C160.875 99.9277 160.901 99.9531 160.901 99.9855C160.901 100.018 160.875 100.043 160.843 100.043Z" fill="#F1F2F4"/>
<path d="M157.139 100.023L155.982 100.016C155.966 100.016 155.952 100.002 155.952 99.9832C155.952 99.967 155.966 99.9531 155.982 99.9531L157.139 99.9462C157.16 99.9462 157.176 99.9624 157.176 99.9832C157.176 100.004 157.16 100.02 157.139 100.02V100.023Z" fill="#F1F2F4"/>
<path d="M154.824 100.011L152.509 99.9971C152.509 99.9971 152.498 99.9925 152.498 99.9855C152.498 99.9786 152.502 99.974 152.509 99.974L154.824 99.9601C154.838 99.9601 154.85 99.9717 154.85 99.9855C154.85 99.9994 154.838 100.011 154.824 100.011Z" fill="#F1F2F4"/>
<path d="M205.59 87.2322H194.526C191.459 87.2322 188.973 84.7459 188.973 81.6786V80.7433C188.973 77.676 191.459 75.1897 194.526 75.1897H205.59C205.911 75.1897 206.171 75.449 206.171 75.7708V86.6489C206.171 86.9706 205.911 87.2299 205.59 87.2299V87.2322Z" fill="#15161A"/>
<path d="M205.589 87.2438L198.939 87.2577L195.614 87.2739C194.508 87.3017 193.362 87.2971 192.325 86.841C190.232 85.9706 188.824 83.7737 188.898 81.5119C188.732 79.1854 189.688 76.9954 191.767 75.8217C192.744 75.2569 193.901 75.0485 195.015 75.0879L198.339 75.0763H204.99H205.407C205.939 75.0184 206.337 75.3772 206.275 75.9236L206.265 77.5857L206.231 80.9101L206.198 84.2344L206.189 85.8965C206.184 86.1743 206.191 86.4498 206.177 86.7299C206.143 87.017 205.872 87.2462 205.587 87.2392L205.589 87.2438ZM205.589 87.2207C205.865 87.223 206.12 87.0031 206.147 86.7299C206.159 86.4568 206.147 86.1766 206.147 85.9012L206.138 84.239L206.106 80.9147L206.071 77.5904L206.062 75.9282C206.101 75.6087 205.93 75.324 205.608 75.3078H205.404H204.988H198.337L195.012 75.2962C193.908 75.2522 192.82 75.4397 191.855 75.9838C189.829 77.1112 188.891 79.2456 189.044 81.5119C188.961 83.7274 190.324 85.8711 192.366 86.7345C193.39 87.1952 194.505 87.2068 195.61 87.1906C197.721 87.2068 203.402 87.2161 205.585 87.2207H205.589Z" fill="#F1F2F4"/>
<path d="M199.888 83.2875C201.034 83.2875 201.964 82.3578 201.964 81.211C201.964 80.0642 201.034 79.1345 199.888 79.1345C198.741 79.1345 197.811 80.0642 197.811 81.211C197.811 82.3578 198.741 83.2875 199.888 83.2875Z" fill="#F1F2F4"/>
<path d="M198.487 88.8621C194.901 88.8667 191.306 89.2394 187.85 90.2117C184.401 91.1979 181.051 92.5105 177.606 93.5152L177.599 93.4944C180.97 92.2512 184.322 90.9456 187.804 90.0335C191.264 89.1237 194.957 88.7301 198.487 88.8621Z" fill="#F1F2F4"/>
<path d="M162.582 63.3069C160.001 65.2724 162.096 67.541 164.096 68.8652C170.029 72.5692 177.504 74.0763 184.382 74.8888C187.53 75.2175 190.702 75.3356 193.864 75.1898C187.535 75.6389 181.146 74.9884 174.99 73.4651C171.92 72.6687 168.879 71.6826 166.057 70.2125C163.679 69.0203 159.088 65.8812 162.582 63.3069Z" fill="#F1F2F4"/>
<path d="M161.856 146V134.864H164.368V146H161.856ZM158.32 136.896V134.704H167.904V136.896H158.32ZM169.083 146V138.224H171.531V146H169.083ZM170.315 137.152C169.931 137.152 169.611 137.024 169.355 136.768C169.109 136.501 168.987 136.181 168.987 135.808C168.987 135.424 169.109 135.104 169.355 134.848C169.611 134.592 169.931 134.464 170.315 134.464C170.699 134.464 171.013 134.592 171.259 134.848C171.504 135.104 171.627 135.424 171.627 135.808C171.627 136.181 171.504 136.501 171.259 136.768C171.013 137.024 170.699 137.152 170.315 137.152ZM174.359 146V135.008H176.807V146H174.359ZM172.599 140.304V138.224H178.567V140.304H172.599ZM179.645 146V134.384H182.093V146H179.645ZM187.657 146.176C186.814 146.176 186.062 146.005 185.401 145.664C184.75 145.312 184.238 144.827 183.865 144.208C183.492 143.589 183.305 142.891 183.305 142.112C183.305 141.333 183.486 140.64 183.849 140.032C184.222 139.413 184.724 138.928 185.353 138.576C185.982 138.224 186.692 138.048 187.481 138.048C188.249 138.048 188.926 138.213 189.513 138.544C190.1 138.875 190.558 139.333 190.889 139.92C191.23 140.507 191.401 141.179 191.401 141.936C191.401 142.075 191.39 142.224 191.369 142.384C191.358 142.533 191.332 142.709 191.289 142.912L184.585 142.928V141.248L190.249 141.232L189.193 141.936C189.182 141.488 189.113 141.12 188.985 140.832C188.857 140.533 188.665 140.309 188.409 140.16C188.164 140 187.86 139.92 187.497 139.92C187.113 139.92 186.777 140.011 186.489 140.192C186.212 140.363 185.993 140.608 185.833 140.928C185.684 141.248 185.609 141.637 185.609 142.096C185.609 142.555 185.689 142.949 185.849 143.28C186.02 143.6 186.254 143.851 186.553 144.032C186.862 144.203 187.225 144.288 187.641 144.288C188.025 144.288 188.372 144.224 188.681 144.096C188.99 143.957 189.262 143.755 189.497 143.488L190.841 144.832C190.457 145.28 189.993 145.616 189.449 145.84C188.905 146.064 188.308 146.176 187.657 146.176Z" fill="#F1F2F4"/>
<path d="M124.016 185.5V184.296H126.718C127.437 184.296 128.067 184.142 128.608 183.834C129.149 183.517 129.569 183.083 129.868 182.532C130.176 181.981 130.33 181.347 130.33 180.628C130.33 179.919 130.176 179.289 129.868 178.738C129.56 178.187 129.135 177.758 128.594 177.45C128.053 177.142 127.427 176.988 126.718 176.988H124.03V175.784H126.746C127.455 175.784 128.109 175.905 128.706 176.148C129.313 176.391 129.835 176.731 130.274 177.17C130.722 177.609 131.067 178.122 131.31 178.71C131.562 179.298 131.688 179.942 131.688 180.642C131.688 181.333 131.562 181.977 131.31 182.574C131.067 183.162 130.727 183.675 130.288 184.114C129.849 184.553 129.327 184.893 128.72 185.136C128.123 185.379 127.474 185.5 126.774 185.5H124.016ZM123.148 185.5V175.784H124.464V185.5H123.148ZM136.367 185.64C135.705 185.64 135.107 185.491 134.575 185.192C134.043 184.884 133.623 184.469 133.315 183.946C133.007 183.423 132.853 182.831 132.853 182.168C132.853 181.515 133.003 180.927 133.301 180.404C133.609 179.881 134.02 179.471 134.533 179.172C135.056 178.864 135.639 178.71 136.283 178.71C136.899 178.71 137.441 178.85 137.907 179.13C138.383 179.41 138.752 179.797 139.013 180.292C139.284 180.787 139.419 181.347 139.419 181.972C139.419 182.065 139.415 182.168 139.405 182.28C139.396 182.383 139.377 182.504 139.349 182.644H133.735V181.594H138.677L138.215 182C138.215 181.552 138.136 181.174 137.977 180.866C137.819 180.549 137.595 180.306 137.305 180.138C137.016 179.961 136.666 179.872 136.255 179.872C135.826 179.872 135.448 179.965 135.121 180.152C134.795 180.339 134.543 180.6 134.365 180.936C134.188 181.272 134.099 181.669 134.099 182.126C134.099 182.593 134.193 183.003 134.379 183.358C134.566 183.703 134.832 183.974 135.177 184.17C135.523 184.357 135.919 184.45 136.367 184.45C136.741 184.45 137.081 184.385 137.389 184.254C137.707 184.123 137.977 183.927 138.201 183.666L139.013 184.492C138.696 184.865 138.304 185.15 137.837 185.346C137.38 185.542 136.89 185.64 136.367 185.64ZM142.907 185.64C142.534 185.64 142.179 185.593 141.843 185.5C141.516 185.397 141.213 185.257 140.933 185.08C140.653 184.893 140.41 184.674 140.205 184.422L141.017 183.61C141.26 183.909 141.54 184.133 141.857 184.282C142.174 184.422 142.529 184.492 142.921 184.492C143.313 184.492 143.616 184.427 143.831 184.296C144.046 184.156 144.153 183.965 144.153 183.722C144.153 183.479 144.064 183.293 143.887 183.162C143.719 183.022 143.5 182.91 143.229 182.826C142.958 182.733 142.669 182.644 142.361 182.56C142.062 182.467 141.778 182.35 141.507 182.21C141.236 182.07 141.012 181.879 140.835 181.636C140.667 181.393 140.583 181.071 140.583 180.67C140.583 180.269 140.681 179.923 140.877 179.634C141.073 179.335 141.344 179.107 141.689 178.948C142.044 178.789 142.468 178.71 142.963 178.71C143.486 178.71 143.948 178.803 144.349 178.99C144.76 179.167 145.096 179.438 145.357 179.802L144.545 180.614C144.358 180.371 144.125 180.185 143.845 180.054C143.574 179.923 143.266 179.858 142.921 179.858C142.557 179.858 142.277 179.923 142.081 180.054C141.894 180.175 141.801 180.348 141.801 180.572C141.801 180.796 141.885 180.969 142.053 181.09C142.221 181.211 142.44 181.314 142.711 181.398C142.991 181.482 143.28 181.571 143.579 181.664C143.878 181.748 144.162 181.865 144.433 182.014C144.704 182.163 144.923 182.364 145.091 182.616C145.268 182.868 145.357 183.199 145.357 183.61C145.357 184.235 145.133 184.73 144.685 185.094C144.246 185.458 143.654 185.64 142.907 185.64ZM149.806 185.64C149.152 185.64 148.56 185.486 148.028 185.178C147.505 184.87 147.09 184.455 146.782 183.932C146.483 183.4 146.334 182.812 146.334 182.168C146.334 181.515 146.483 180.927 146.782 180.404C147.09 179.881 147.505 179.471 148.028 179.172C148.56 178.864 149.152 178.71 149.806 178.71C150.319 178.71 150.795 178.808 151.234 179.004C151.672 179.191 152.05 179.466 152.368 179.83L151.528 180.67C151.322 180.427 151.07 180.245 150.772 180.124C150.482 179.993 150.16 179.928 149.806 179.928C149.386 179.928 149.012 180.026 148.686 180.222C148.359 180.409 148.102 180.67 147.916 181.006C147.729 181.342 147.636 181.729 147.636 182.168C147.636 182.607 147.729 182.994 147.916 183.33C148.102 183.666 148.359 183.932 148.686 184.128C149.012 184.324 149.386 184.422 149.806 184.422C150.16 184.422 150.482 184.361 150.772 184.24C151.07 184.109 151.327 183.923 151.542 183.68L152.368 184.52C152.06 184.875 151.682 185.15 151.234 185.346C150.795 185.542 150.319 185.64 149.806 185.64ZM153.617 185.5V178.85H154.877V185.5H153.617ZM154.877 181.706L154.401 181.496C154.401 180.647 154.597 179.97 154.989 179.466C155.381 178.962 155.946 178.71 156.683 178.71C157.019 178.71 157.323 178.771 157.593 178.892C157.864 179.004 158.116 179.195 158.349 179.466L157.523 180.32C157.383 180.171 157.229 180.063 157.061 179.998C156.893 179.933 156.697 179.9 156.473 179.9C156.007 179.9 155.624 180.049 155.325 180.348C155.027 180.647 154.877 181.099 154.877 181.706ZM159.251 185.5V178.85H160.511V185.5H159.251ZM159.881 177.52C159.647 177.52 159.456 177.445 159.307 177.296C159.157 177.137 159.083 176.941 159.083 176.708C159.083 176.484 159.157 176.297 159.307 176.148C159.456 175.989 159.647 175.91 159.881 175.91C160.114 175.91 160.305 175.989 160.455 176.148C160.604 176.297 160.679 176.484 160.679 176.708C160.679 176.941 160.604 177.137 160.455 177.296C160.305 177.445 160.114 177.52 159.881 177.52ZM165.867 185.64C165.363 185.64 164.906 185.537 164.495 185.332C164.094 185.117 163.772 184.823 163.529 184.45C163.287 184.077 163.151 183.652 163.123 183.176V181.174C163.151 180.689 163.287 180.264 163.529 179.9C163.781 179.527 164.108 179.237 164.509 179.032C164.92 178.817 165.373 178.71 165.867 178.71C166.474 178.71 167.02 178.864 167.505 179.172C168 179.48 168.387 179.895 168.667 180.418C168.947 180.941 169.087 181.529 169.087 182.182C169.087 182.835 168.947 183.423 168.667 183.946C168.387 184.469 168 184.884 167.505 185.192C167.02 185.491 166.474 185.64 165.867 185.64ZM162.367 188.286V178.85H163.627V180.6L163.389 182.21L163.627 183.834V188.286H162.367ZM165.657 184.45C166.077 184.45 166.446 184.352 166.763 184.156C167.081 183.96 167.333 183.694 167.519 183.358C167.706 183.013 167.799 182.616 167.799 182.168C167.799 181.729 167.706 181.337 167.519 180.992C167.333 180.647 167.081 180.381 166.763 180.194C166.446 179.998 166.082 179.9 165.671 179.9C165.251 179.9 164.883 179.998 164.565 180.194C164.248 180.381 164.001 180.647 163.823 180.992C163.646 181.337 163.557 181.734 163.557 182.182C163.557 182.621 163.641 183.013 163.809 183.358C163.987 183.694 164.234 183.96 164.551 184.156C164.878 184.352 165.247 184.45 165.657 184.45ZM171.333 185.5V176.064H172.593V185.5H171.333ZM169.695 179.998V178.85H174.231V179.998H169.695ZM175.479 185.5V178.85H176.739V185.5H175.479ZM176.109 177.52C175.876 177.52 175.684 177.445 175.535 177.296C175.386 177.137 175.311 176.941 175.311 176.708C175.311 176.484 175.386 176.297 175.535 176.148C175.684 175.989 175.876 175.91 176.109 175.91C176.342 175.91 176.534 175.989 176.683 176.148C176.832 176.297 176.907 176.484 176.907 176.708C176.907 176.941 176.832 177.137 176.683 177.296C176.534 177.445 176.342 177.52 176.109 177.52ZM181.634 185.64C180.981 185.64 180.393 185.486 179.87 185.178C179.347 184.87 178.932 184.455 178.624 183.932C178.316 183.4 178.162 182.807 178.162 182.154C178.162 181.51 178.316 180.931 178.624 180.418C178.932 179.895 179.347 179.48 179.87 179.172C180.393 178.864 180.981 178.71 181.634 178.71C182.278 178.71 182.861 178.864 183.384 179.172C183.916 179.471 184.336 179.881 184.644 180.404C184.952 180.927 185.106 181.51 185.106 182.154C185.106 182.807 184.952 183.4 184.644 183.932C184.336 184.455 183.916 184.87 183.384 185.178C182.861 185.486 182.278 185.64 181.634 185.64ZM181.634 184.422C182.054 184.422 182.427 184.324 182.754 184.128C183.081 183.932 183.337 183.666 183.524 183.33C183.711 182.985 183.804 182.593 183.804 182.154C183.804 181.725 183.706 181.342 183.51 181.006C183.323 180.67 183.067 180.409 182.74 180.222C182.423 180.026 182.054 179.928 181.634 179.928C181.214 179.928 180.841 180.026 180.514 180.222C180.187 180.409 179.931 180.67 179.744 181.006C179.557 181.342 179.464 181.725 179.464 182.154C179.464 182.593 179.557 182.985 179.744 183.33C179.931 183.666 180.187 183.932 180.514 184.128C180.841 184.324 181.214 184.422 181.634 184.422ZM191.23 185.5V181.622C191.23 181.118 191.071 180.703 190.754 180.376C190.436 180.049 190.026 179.886 189.522 179.886C189.186 179.886 188.887 179.961 188.626 180.11C188.364 180.259 188.159 180.465 188.01 180.726C187.86 180.987 187.786 181.286 187.786 181.622L187.268 181.328C187.268 180.824 187.38 180.376 187.604 179.984C187.828 179.592 188.14 179.284 188.542 179.06C188.943 178.827 189.396 178.71 189.9 178.71C190.404 178.71 190.847 178.836 191.23 179.088C191.622 179.34 191.93 179.671 192.154 180.082C192.378 180.483 192.49 180.913 192.49 181.37V185.5H191.23ZM186.526 185.5V178.85H187.786V185.5H186.526Z" fill="#F1F2F4"/>
<path d="M199.45 186V174.8H201.29V186H199.45ZM200.714 186V184.32H206.57V186H200.714ZM208.023 186V178.32H209.783V186H208.023ZM208.903 176.912C208.605 176.912 208.354 176.811 208.151 176.608C207.959 176.405 207.863 176.155 207.863 175.856C207.863 175.557 207.959 175.307 208.151 175.104C208.354 174.901 208.605 174.8 208.903 174.8C209.213 174.8 209.463 174.901 209.655 175.104C209.847 175.307 209.943 175.557 209.943 175.856C209.943 176.155 209.847 176.405 209.655 176.608C209.463 176.811 209.213 176.912 208.903 176.912ZM217.021 186V181.568C217.021 181.056 216.856 180.635 216.525 180.304C216.205 179.973 215.789 179.808 215.277 179.808C214.936 179.808 214.632 179.883 214.365 180.032C214.099 180.181 213.891 180.389 213.741 180.656C213.592 180.923 213.517 181.227 213.517 181.568L212.829 181.184C212.829 180.597 212.957 180.08 213.213 179.632C213.469 179.173 213.821 178.816 214.269 178.56C214.728 178.293 215.24 178.16 215.805 178.16C216.381 178.16 216.893 178.309 217.341 178.608C217.789 178.896 218.141 179.275 218.397 179.744C218.653 180.203 218.781 180.683 218.781 181.184V186H217.021ZM211.757 186V178.32H213.517V186H211.757ZM225.45 186L222.202 182.08L225.434 178.32H227.53L223.818 182.544L223.898 181.536L227.69 186H225.45ZM220.57 186V174.48H222.33V186H220.57Z" fill="#6061EE"/>
<mask id="path-105-inside-1_14334_18558" fill="white">
<path d="M108 224C108 216.458 108 212.686 110.343 210.343C112.686 208 116.458 208 124 208H155C162.542 208 166.314 208 168.657 210.343C171 212.686 171 216.458 171 224C171 231.542 171 235.314 168.657 237.657C166.314 240 162.542 240 155 240H124C116.458 240 112.686 240 110.343 237.657C108 235.314 108 231.542 108 224Z"/>
</mask>
<path d="M110.343 237.657L111.757 236.243L110.343 237.657ZM168.657 237.657L167.243 236.243L168.657 237.657ZM168.657 210.343L167.243 211.757L168.657 210.343ZM110.343 210.343L108.929 208.929L110.343 210.343ZM124 208V210H155V208V206H124V208ZM155 240V238H124V240V242H155V240ZM124 240V238C120.172 238 117.503 237.996 115.488 237.725C113.532 237.462 112.495 236.981 111.757 236.243L110.343 237.657L108.929 239.071C110.534 240.676 112.555 241.367 114.955 241.689C117.298 242.004 120.285 242 124 242V240ZM108 224H106C106 227.715 105.996 230.702 106.311 233.045C106.633 235.445 107.324 237.466 108.929 239.071L110.343 237.657L111.757 236.243C111.019 235.505 110.538 234.468 110.275 232.512C110.004 230.497 110 227.828 110 224H108ZM171 224H169C169 227.828 168.996 230.497 168.725 232.512C168.462 234.468 167.981 235.505 167.243 236.243L168.657 237.657L170.071 239.071C171.676 237.466 172.367 235.445 172.689 233.045C173.004 230.702 173 227.715 173 224H171ZM155 240V242C158.715 242 161.702 242.004 164.045 241.689C166.445 241.367 168.466 240.676 170.071 239.071L168.657 237.657L167.243 236.243C166.505 236.981 165.468 237.462 163.512 237.725C161.497 237.996 158.828 238 155 238V240ZM155 208V210C158.828 210 161.497 210.004 163.512 210.275C165.468 210.538 166.505 211.019 167.243 211.757L168.657 210.343L170.071 208.929C168.466 207.324 166.445 206.633 164.045 206.311C161.702 205.996 158.715 206 155 206V208ZM171 224H173C173 220.285 173.004 217.298 172.689 214.955C172.367 212.555 171.676 210.534 170.071 208.929L168.657 210.343L167.243 211.757C167.981 212.495 168.462 213.532 168.725 215.488C168.996 217.503 169 220.172 169 224H171ZM124 208V206C120.285 206 117.298 205.996 114.955 206.311C112.555 206.633 110.534 207.324 108.929 208.929L110.343 210.343L111.757 211.757C112.495 211.019 113.532 210.538 115.488 210.275C117.503 210.004 120.172 210 124 210V208ZM108 224H110C110 220.172 110.004 217.503 110.275 215.488C110.538 213.532 111.019 212.495 111.757 211.757L110.343 210.343L108.929 208.929C107.324 210.534 106.633 212.555 106.311 214.955C105.996 217.298 106 220.285 106 224H108Z" fill="#4F46E5" mask="url(#path-105-inside-1_14334_18558)"/>
<path d="M118.722 230V228.4H121.938C122.504 228.4 122.941 228.224 123.25 227.872C123.56 227.52 123.714 227.115 123.714 226.656C123.714 226.347 123.645 226.059 123.506 225.792C123.368 225.525 123.165 225.312 122.898 225.152C122.632 224.992 122.312 224.912 121.938 224.912H118.722V223.312H121.666C122.146 223.312 122.53 223.189 122.818 222.944C123.106 222.699 123.25 222.336 123.25 221.856C123.25 221.376 123.106 221.013 122.818 220.768C122.53 220.523 122.146 220.4 121.666 220.4H118.722V218.8H121.714C122.472 218.8 123.101 218.939 123.602 219.216C124.104 219.493 124.477 219.851 124.722 220.288C124.968 220.725 125.09 221.195 125.09 221.696C125.09 222.283 124.925 222.8 124.594 223.248C124.274 223.696 123.8 224.059 123.17 224.336L123.314 223.76C124.018 224.048 124.568 224.453 124.962 224.976C125.357 225.499 125.554 226.112 125.554 226.816C125.554 227.392 125.41 227.92 125.122 228.4C124.845 228.88 124.429 229.269 123.874 229.568C123.33 229.856 122.658 230 121.858 230H118.722ZM117.458 230V218.8H119.298V230H117.458ZM130.323 230.16C129.673 230.16 129.091 230.016 128.579 229.728C128.078 229.44 127.683 229.045 127.395 228.544C127.118 228.032 126.979 227.445 126.979 226.784V222.32H128.739V226.704C128.739 227.077 128.798 227.397 128.915 227.664C129.043 227.92 129.225 228.117 129.459 228.256C129.705 228.395 129.993 228.464 130.323 228.464C130.835 228.464 131.225 228.315 131.491 228.016C131.769 227.707 131.907 227.269 131.907 226.704V222.32H133.667V226.784C133.667 227.456 133.523 228.048 133.235 228.56C132.958 229.061 132.569 229.456 132.067 229.744C131.566 230.021 130.985 230.16 130.323 230.16ZM136.605 230V219.12H138.365V230H136.605ZM134.765 223.92V222.32H144.845V223.92H134.765ZM141.245 230V219.12H143.005V230H141.245ZM149.426 230.16C148.679 230.16 148.002 229.984 147.394 229.632C146.786 229.269 146.3 228.784 145.938 228.176C145.586 227.568 145.41 226.891 145.41 226.144C145.41 225.397 145.586 224.725 145.938 224.128C146.3 223.531 146.786 223.056 147.394 222.704C148.002 222.341 148.679 222.16 149.426 222.16C150.183 222.16 150.866 222.336 151.474 222.688C152.082 223.04 152.562 223.52 152.914 224.128C153.276 224.725 153.458 225.397 153.458 226.144C153.458 226.891 153.276 227.568 152.914 228.176C152.562 228.784 152.082 229.269 151.474 229.632C150.866 229.984 150.183 230.16 149.426 230.16ZM149.426 228.464C149.863 228.464 150.247 228.368 150.578 228.176C150.919 227.973 151.18 227.696 151.362 227.344C151.554 226.992 151.65 226.592 151.65 226.144C151.65 225.696 151.554 225.301 151.362 224.96C151.17 224.619 150.908 224.352 150.578 224.16C150.247 223.957 149.863 223.856 149.426 223.856C148.999 223.856 148.615 223.957 148.274 224.16C147.943 224.352 147.682 224.619 147.49 224.96C147.308 225.301 147.218 225.696 147.218 226.144C147.218 226.592 147.308 226.992 147.49 227.344C147.682 227.696 147.943 227.973 148.274 228.176C148.615 228.368 148.999 228.464 149.426 228.464ZM160.185 230V225.568C160.185 225.056 160.02 224.635 159.689 224.304C159.369 223.973 158.953 223.808 158.441 223.808C158.1 223.808 157.796 223.883 157.529 224.032C157.263 224.181 157.055 224.389 156.905 224.656C156.756 224.923 156.681 225.227 156.681 225.568L155.993 225.184C155.993 224.597 156.121 224.08 156.377 223.632C156.633 223.173 156.985 222.816 157.433 222.56C157.892 222.293 158.404 222.16 158.969 222.16C159.545 222.16 160.057 222.309 160.505 222.608C160.953 222.896 161.305 223.275 161.561 223.744C161.817 224.203 161.945 224.683 161.945 225.184V230H160.185ZM154.921 230V222.32H156.681V230H154.921Z" fill="#4F46E5"/>
<path d="M179 224C179 216.458 179 212.686 181.343 210.343C183.686 208 187.458 208 195 208H226C233.542 208 237.314 208 239.657 210.343C242 212.686 242 216.458 242 224C242 231.542 242 235.314 239.657 237.657C237.314 240 233.542 240 226 240H195C187.458 240 183.686 240 181.343 237.657C179 235.314 179 231.542 179 224Z" fill="#4F46E5"/>
<path d="M189.722 230V228.4H192.938C193.504 228.4 193.941 228.224 194.25 227.872C194.56 227.52 194.714 227.115 194.714 226.656C194.714 226.347 194.645 226.059 194.506 225.792C194.368 225.525 194.165 225.312 193.898 225.152C193.632 224.992 193.312 224.912 192.938 224.912H189.722V223.312H192.666C193.146 223.312 193.53 223.189 193.818 222.944C194.106 222.699 194.25 222.336 194.25 221.856C194.25 221.376 194.106 221.013 193.818 220.768C193.53 220.523 193.146 220.4 192.666 220.4H189.722V218.8H192.714C193.472 218.8 194.101 218.939 194.602 219.216C195.104 219.493 195.477 219.851 195.722 220.288C195.968 220.725 196.09 221.195 196.09 221.696C196.09 222.283 195.925 222.8 195.594 223.248C195.274 223.696 194.8 224.059 194.17 224.336L194.314 223.76C195.018 224.048 195.568 224.453 195.962 224.976C196.357 225.499 196.554 226.112 196.554 226.816C196.554 227.392 196.41 227.92 196.122 228.4C195.845 228.88 195.429 229.269 194.874 229.568C194.33 229.856 193.658 230 192.858 230H189.722ZM188.458 230V218.8H190.298V230H188.458ZM201.323 230.16C200.673 230.16 200.091 230.016 199.579 229.728C199.078 229.44 198.683 229.045 198.395 228.544C198.118 228.032 197.979 227.445 197.979 226.784V222.32H199.739V226.704C199.739 227.077 199.798 227.397 199.915 227.664C200.043 227.92 200.225 228.117 200.459 228.256C200.705 228.395 200.993 228.464 201.323 228.464C201.835 228.464 202.225 228.315 202.491 228.016C202.769 227.707 202.907 227.269 202.907 226.704V222.32H204.667V226.784C204.667 227.456 204.523 228.048 204.235 228.56C203.958 229.061 203.569 229.456 203.067 229.744C202.566 230.021 201.985 230.16 201.323 230.16ZM207.605 230V219.12H209.365V230H207.605ZM205.765 223.92V222.32H215.845V223.92H205.765ZM212.245 230V219.12H214.005V230H212.245ZM220.426 230.16C219.679 230.16 219.002 229.984 218.394 229.632C217.786 229.269 217.3 228.784 216.938 228.176C216.586 227.568 216.41 226.891 216.41 226.144C216.41 225.397 216.586 224.725 216.938 224.128C217.3 223.531 217.786 223.056 218.394 222.704C219.002 222.341 219.679 222.16 220.426 222.16C221.183 222.16 221.866 222.336 222.474 222.688C223.082 223.04 223.562 223.52 223.914 224.128C224.276 224.725 224.458 225.397 224.458 226.144C224.458 226.891 224.276 227.568 223.914 228.176C223.562 228.784 223.082 229.269 222.474 229.632C221.866 229.984 221.183 230.16 220.426 230.16ZM220.426 228.464C220.863 228.464 221.247 228.368 221.578 228.176C221.919 227.973 222.18 227.696 222.362 227.344C222.554 226.992 222.65 226.592 222.65 226.144C222.65 225.696 222.554 225.301 222.362 224.96C222.17 224.619 221.908 224.352 221.578 224.16C221.247 223.957 220.863 223.856 220.426 223.856C219.999 223.856 219.615 223.957 219.274 224.16C218.943 224.352 218.682 224.619 218.49 224.96C218.308 225.301 218.218 225.696 218.218 226.144C218.218 226.592 218.308 226.992 218.49 227.344C218.682 227.696 218.943 227.973 219.274 228.176C219.615 228.368 219.999 228.464 220.426 228.464ZM231.185 230V225.568C231.185 225.056 231.02 224.635 230.689 224.304C230.369 223.973 229.953 223.808 229.441 223.808C229.1 223.808 228.796 223.883 228.529 224.032C228.263 224.181 228.055 224.389 227.905 224.656C227.756 224.923 227.681 225.227 227.681 225.568L226.993 225.184C226.993 224.597 227.121 224.08 227.377 223.632C227.633 223.173 227.985 222.816 228.433 222.56C228.892 222.293 229.404 222.16 229.969 222.16C230.545 222.16 231.057 222.309 231.505 222.608C231.953 222.896 232.305 223.275 232.561 223.744C232.817 224.203 232.945 224.683 232.945 225.184V230H231.185ZM225.921 230V222.32H227.681V230H225.921Z" fill="white"/>
<defs>
<clipPath id="clip0_14334_18558">
<rect y="51" width="24" height="24" rx="12" fill="white"/>
</clipPath>
<clipPath id="clip1_14334_18558">
<rect y="128" width="24" height="24" rx="12" fill="white"/>
</clipPath>
<clipPath id="clip2_14334_18558">
<rect y="168" width="24" height="24" rx="12" fill="white"/>
</clipPath>
<clipPath id="clip3_14334_18558">
<rect x="332" y="168" width="24" height="24" rx="12" fill="white"/>
</clipPath>
<clipPath id="clip4_14334_18558">
<rect y="212" width="24" height="24" rx="12" fill="white"/>
</clipPath>
</defs>
</svg>
