<svg width="263" height="198" viewBox="0 0 263 198" fill="none" xmlns="http://www.w3.org/2000/svg">
<g clip-path="url(#clip0_14200_864)">
<rect x="24" y="102" width="64" height="1" fill="#E1172F"/>
<g clip-path="url(#clip1_14200_864)">
<rect x="24" y="90" width="24" height="24" rx="12" fill="#E1172F"/>
<path d="M32.4161 107V105.449L36.0404 102.093C36.3486 101.795 36.6072 101.526 36.816 101.288C37.0281 101.049 37.1888 100.815 37.2982 100.587C37.4076 100.355 37.4623 100.104 37.4623 99.8359C37.4623 99.5376 37.3943 99.2808 37.2584 99.0653C37.1225 98.8466 36.9369 98.6792 36.7016 98.5632C36.4663 98.4439 36.1995 98.3842 35.9012 98.3842C35.5896 98.3842 35.3179 98.4472 35.0858 98.5732C34.8538 98.6991 34.6749 98.8797 34.5489 99.1151C34.423 99.3504 34.36 99.6304 34.36 99.9553H32.3167C32.3167 99.2891 32.4675 98.7107 32.7691 98.2202C33.0707 97.7296 33.4933 97.3501 34.0368 97.0817C34.5804 96.8132 35.2068 96.679 35.9161 96.679C36.6453 96.679 37.28 96.8082 37.8202 97.0668C38.3638 97.322 38.7864 97.6766 39.088 98.1307C39.3896 98.5848 39.5404 99.1051 39.5404 99.6918C39.5404 100.076 39.4642 100.456 39.3117 100.83C39.1626 101.205 38.8957 101.621 38.5113 102.078C38.1268 102.532 37.5849 103.077 36.8856 103.714L35.3991 105.17V105.24H39.6746V107H32.4161Z" fill="white"/>
</g>
</g>
<g clip-path="url(#clip2_14200_864)">
<rect x="24" y="154" width="64" height="1" fill="#E1172F"/>
<g clip-path="url(#clip3_14200_864)">
<rect x="24" y="142" width="24" height="24" rx="12" fill="#E1172F"/>
<path d="M35.9745 159.139C35.2321 159.139 34.5709 159.012 33.9909 158.756C33.4142 158.498 32.9584 158.143 32.6237 157.692C32.2922 157.238 32.1215 156.715 32.1116 156.121H34.2792C34.2925 156.37 34.3737 156.589 34.5228 156.778C34.6753 156.963 34.8775 157.107 35.1294 157.21C35.3812 157.313 35.6646 157.364 35.9795 157.364C36.3076 157.364 36.5976 157.306 36.8495 157.19C37.1014 157.074 37.2986 156.914 37.4411 156.708C37.5837 156.503 37.6549 156.266 37.6549 155.997C37.6549 155.725 37.5787 155.485 37.4262 155.276C37.2771 155.064 37.0616 154.898 36.7799 154.779C36.5015 154.66 36.1701 154.6 35.7856 154.6H34.836V153.019H35.7856C36.1104 153.019 36.3971 152.963 36.6457 152.85C36.8976 152.737 37.0931 152.582 37.2323 152.383C37.3715 152.181 37.4411 151.945 37.4411 151.677C37.4411 151.422 37.3798 151.198 37.2572 151.006C37.1379 150.81 36.9688 150.658 36.7501 150.548C36.5347 150.439 36.2828 150.384 35.9944 150.384C35.7027 150.384 35.4359 150.437 35.194 150.543C34.952 150.646 34.7581 150.794 34.6123 150.986C34.4665 151.178 34.3886 151.403 34.3786 151.662H32.3154C32.3254 151.075 32.4927 150.558 32.8176 150.111C33.1424 149.663 33.5799 149.314 34.1301 149.062C34.6836 148.807 35.3083 148.679 36.0044 148.679C36.707 148.679 37.3218 148.807 37.8488 149.062C38.3758 149.317 38.7851 149.662 39.0768 150.096C39.3718 150.527 39.5176 151.011 39.5143 151.548C39.5176 152.118 39.3403 152.593 38.9823 152.974C38.6277 153.356 38.1653 153.598 37.5953 153.7V153.78C38.3443 153.876 38.9144 154.136 39.3055 154.56C39.6999 154.981 39.8954 155.508 39.8921 156.141C39.8954 156.721 39.7281 157.237 39.39 157.688C39.0553 158.138 38.5929 158.493 38.0029 158.751C37.413 159.01 36.7368 159.139 35.9745 159.139Z" fill="white"/>
</g>
</g>
<rect x="170" y="24" width="1" height="60" fill="#E1172F"/>
<g clip-path="url(#clip4_14200_864)">
<rect x="159" y="24" width="24" height="24" rx="12" fill="#E1172F"/>
<path d="M172.83 30.8182V41H170.677V32.8615H170.618L168.286 34.3232V32.4141L170.807 30.8182H172.83Z" fill="white"/>
</g>
<path fill-rule="evenodd" clip-rule="evenodd" d="M101.427 93H101.573C103.397 93 104.866 93 106.022 93.1554C107.222 93.3167 108.233 93.6619 109.036 94.4645C109.838 95.267 110.183 96.2775 110.345 97.4777C110.5 98.6336 110.5 100.103 110.5 101.927V102.073C110.5 103.897 110.5 105.366 110.345 106.522C110.183 107.722 109.838 108.733 109.036 109.536C108.233 110.338 107.222 110.683 106.022 110.845C104.866 111 103.397 111 101.573 111H101.427C99.6034 111 98.1336 111 96.9777 110.845C95.7775 110.683 94.767 110.338 93.9645 109.536C93.1619 108.733 92.8167 107.722 92.6554 106.522C92.5 105.366 92.5 103.897 92.5 102.073V101.927C92.5 100.103 92.5 98.6336 92.6554 97.4777C92.8167 96.2775 93.1619 95.267 93.9645 94.4645C94.767 93.6619 95.7775 93.3167 96.9777 93.1554C98.1336 93 99.6034 93 101.427 93ZM94.5 102C94.5 103.914 94.5021 105.249 94.6375 106.256C94.7691 107.234 95.0097 107.752 95.3787 108.121C95.7477 108.49 96.2658 108.731 97.2442 108.862C98.2513 108.998 99.5861 109 101.5 109C103.414 109 104.749 108.998 105.756 108.862C106.734 108.731 107.252 108.49 107.621 108.121C107.99 107.752 108.231 107.234 108.362 106.256C108.498 105.249 108.5 103.914 108.5 102C108.5 100.086 108.498 98.7513 108.362 97.7442C108.231 96.7658 107.99 96.2477 107.621 95.8787C107.252 95.5097 106.734 95.2691 105.756 95.1375C104.749 95.0021 103.414 95 101.5 95C99.5861 95 98.2513 95.0021 97.2442 95.1375C96.2658 95.2691 95.7477 95.5097 95.3787 95.8787C95.0097 96.2477 94.7691 96.7658 94.6375 97.7442C94.5021 98.7513 94.5 100.086 94.5 102Z" fill="#F1F2F4"/>
<path d="M127.804 108.16C126.993 108.16 126.241 108.016 125.548 107.728C124.865 107.429 124.268 107.019 123.756 106.496C123.244 105.963 122.849 105.349 122.572 104.656C122.295 103.952 122.156 103.2 122.156 102.4C122.156 101.6 122.295 100.853 122.572 100.16C122.849 99.456 123.244 98.8427 123.756 98.32C124.268 97.7973 124.865 97.3867 125.548 97.088C126.241 96.7893 126.993 96.64 127.804 96.64C128.711 96.64 129.495 96.7893 130.156 97.088C130.817 97.3867 131.404 97.792 131.916 98.304L130.668 99.552C130.337 99.1893 129.932 98.9067 129.452 98.704C128.983 98.5013 128.433 98.4 127.804 98.4C127.249 98.4 126.743 98.496 126.284 98.688C125.825 98.88 125.425 99.1573 125.084 99.52C124.753 99.872 124.497 100.293 124.316 100.784C124.135 101.275 124.044 101.813 124.044 102.4C124.044 102.987 124.135 103.525 124.316 104.016C124.497 104.507 124.753 104.933 125.084 105.296C125.425 105.648 125.825 105.92 126.284 106.112C126.743 106.304 127.249 106.4 127.804 106.4C128.487 106.4 129.063 106.299 129.532 106.096C130.012 105.883 130.417 105.595 130.748 105.232L131.996 106.48C131.484 107.003 130.881 107.413 130.188 107.712C129.495 108.011 128.7 108.16 127.804 108.16ZM138.662 108V103.568C138.662 103.056 138.497 102.635 138.166 102.304C137.846 101.973 137.43 101.808 136.918 101.808C136.577 101.808 136.273 101.883 136.006 102.032C135.739 102.181 135.531 102.389 135.382 102.656C135.233 102.923 135.158 103.227 135.158 103.568L134.47 103.184C134.47 102.597 134.598 102.08 134.854 101.632C135.11 101.173 135.462 100.816 135.91 100.56C136.369 100.293 136.881 100.16 137.446 100.16C138.022 100.16 138.534 100.288 138.982 100.544C139.43 100.8 139.782 101.157 140.038 101.616C140.294 102.064 140.422 102.587 140.422 103.184V108H138.662ZM133.398 108V96.48H135.158V108H133.398ZM145.778 108.16C145.01 108.16 144.317 107.989 143.698 107.648C143.09 107.296 142.605 106.816 142.242 106.208C141.89 105.6 141.714 104.917 141.714 104.16C141.714 103.403 141.89 102.725 142.242 102.128C142.594 101.52 143.069 101.04 143.666 100.688C144.274 100.336 144.946 100.16 145.682 100.16C146.397 100.16 147.026 100.325 147.57 100.656C148.125 100.987 148.557 101.44 148.866 102.016C149.186 102.592 149.346 103.248 149.346 103.984C149.346 104.112 149.336 104.245 149.314 104.384C149.304 104.512 149.282 104.656 149.25 104.816H142.946V103.376H148.338L147.682 103.952C147.661 103.483 147.57 103.088 147.41 102.768C147.25 102.448 147.021 102.203 146.722 102.032C146.434 101.861 146.077 101.776 145.65 101.776C145.202 101.776 144.813 101.872 144.482 102.064C144.152 102.256 143.896 102.528 143.714 102.88C143.533 103.221 143.442 103.632 143.442 104.112C143.442 104.592 143.538 105.013 143.73 105.376C143.922 105.739 144.194 106.021 144.546 106.224C144.898 106.416 145.304 106.512 145.762 106.512C146.157 106.512 146.52 106.443 146.85 106.304C147.192 106.165 147.48 105.963 147.714 105.696L148.834 106.832C148.461 107.269 148.008 107.6 147.474 107.824C146.941 108.048 146.376 108.16 145.778 108.16ZM154.293 108.16C153.536 108.16 152.848 107.984 152.229 107.632C151.621 107.28 151.141 106.8 150.789 106.192C150.437 105.584 150.261 104.907 150.261 104.16C150.261 103.403 150.437 102.725 150.789 102.128C151.141 101.52 151.621 101.04 152.229 100.688C152.848 100.336 153.536 100.16 154.293 100.16C154.891 100.16 155.445 100.277 155.957 100.512C156.48 100.736 156.923 101.061 157.285 101.488L156.133 102.656C155.909 102.389 155.637 102.192 155.317 102.064C155.008 101.925 154.667 101.856 154.293 101.856C153.856 101.856 153.467 101.957 153.125 102.16C152.795 102.352 152.533 102.619 152.341 102.96C152.16 103.301 152.069 103.701 152.069 104.16C152.069 104.608 152.16 105.008 152.341 105.36C152.533 105.701 152.795 105.973 153.125 106.176C153.467 106.368 153.856 106.464 154.293 106.464C154.667 106.464 155.008 106.4 155.317 106.272C155.637 106.133 155.909 105.931 156.133 105.664L157.285 106.832C156.923 107.259 156.48 107.589 155.957 107.824C155.445 108.048 154.891 108.16 154.293 108.16ZM163.434 108L160.186 104.08L163.418 100.32H165.514L161.802 104.544L161.882 103.536L165.674 108H163.434ZM158.554 108V96.48H160.314V108H158.554ZM170.838 108.16C170.251 108.16 169.729 108.037 169.27 107.792C168.811 107.536 168.449 107.189 168.182 106.752C167.926 106.315 167.798 105.819 167.798 105.264V103.056C167.798 102.501 167.931 102.005 168.198 101.568C168.465 101.131 168.827 100.789 169.286 100.544C169.745 100.288 170.262 100.16 170.838 100.16C171.531 100.16 172.155 100.341 172.71 100.704C173.275 101.056 173.718 101.536 174.038 102.144C174.369 102.741 174.534 103.419 174.534 104.176C174.534 104.923 174.369 105.6 174.038 106.208C173.718 106.805 173.275 107.28 172.71 107.632C172.155 107.984 171.531 108.16 170.838 108.16ZM166.726 108V96.48H168.486V102.208L168.182 104.064L168.486 105.936V108H166.726ZM170.55 106.496C170.977 106.496 171.35 106.4 171.67 106.208C172.001 106.005 172.257 105.728 172.438 105.376C172.63 105.024 172.726 104.619 172.726 104.16C172.726 103.701 172.63 103.296 172.438 102.944C172.257 102.592 172.001 102.32 171.67 102.128C171.35 101.925 170.977 101.824 170.55 101.824C170.123 101.824 169.745 101.925 169.414 102.128C169.083 102.32 168.827 102.592 168.646 102.944C168.465 103.296 168.374 103.701 168.374 104.16C168.374 104.619 168.465 105.024 168.646 105.376C168.827 105.728 169.083 106.005 169.414 106.208C169.745 106.4 170.123 106.496 170.55 106.496ZM179.527 108.16C178.781 108.16 178.103 107.984 177.495 107.632C176.887 107.269 176.402 106.784 176.039 106.176C175.687 105.568 175.511 104.891 175.511 104.144C175.511 103.397 175.687 102.725 176.039 102.128C176.402 101.531 176.887 101.056 177.495 100.704C178.103 100.341 178.781 100.16 179.527 100.16C180.285 100.16 180.967 100.336 181.575 100.688C182.183 101.04 182.663 101.52 183.015 102.128C183.378 102.725 183.559 103.397 183.559 104.144C183.559 104.891 183.378 105.568 183.015 106.176C182.663 106.784 182.183 107.269 181.575 107.632C180.967 107.984 180.285 108.16 179.527 108.16ZM179.527 106.464C179.965 106.464 180.349 106.368 180.679 106.176C181.021 105.973 181.282 105.696 181.463 105.344C181.655 104.992 181.751 104.592 181.751 104.144C181.751 103.696 181.655 103.301 181.463 102.96C181.271 102.619 181.01 102.352 180.679 102.16C180.349 101.957 179.965 101.856 179.527 101.856C179.101 101.856 178.717 101.957 178.375 102.16C178.045 102.352 177.783 102.619 177.591 102.96C177.41 103.301 177.319 103.696 177.319 104.144C177.319 104.592 177.41 104.992 177.591 105.344C177.783 105.696 178.045 105.973 178.375 106.176C178.717 106.368 179.101 106.464 179.527 106.464ZM189.668 108L187.46 104.752L187.14 104.464L184.164 100.32H186.292L188.26 103.168L188.564 103.44L191.78 108H189.668ZM184.02 108L187.124 103.696L188.148 104.96L186.068 108H184.02ZM188.724 104.432L187.684 103.184L189.604 100.32H191.636L188.724 104.432ZM196.148 108V96.48H197.908V108H196.148ZM203.083 108.16C202.389 108.16 201.76 107.984 201.195 107.632C200.64 107.28 200.197 106.805 199.867 106.208C199.547 105.6 199.387 104.923 199.387 104.176C199.387 103.419 199.547 102.741 199.867 102.144C200.197 101.536 200.64 101.056 201.195 100.704C201.76 100.341 202.389 100.16 203.083 100.16C203.669 100.16 204.187 100.288 204.635 100.544C205.093 100.789 205.456 101.131 205.723 101.568C205.989 102.005 206.123 102.501 206.123 103.056V105.264C206.123 105.819 205.989 106.315 205.723 106.752C205.467 107.189 205.109 107.536 204.651 107.792C204.192 108.037 203.669 108.16 203.083 108.16ZM203.371 106.496C204.021 106.496 204.544 106.277 204.939 105.84C205.344 105.403 205.547 104.843 205.547 104.16C205.547 103.701 205.456 103.296 205.275 102.944C205.093 102.592 204.837 102.32 204.507 102.128C204.187 101.925 203.808 101.824 203.371 101.824C202.944 101.824 202.565 101.925 202.235 102.128C201.915 102.32 201.659 102.592 201.467 102.944C201.285 103.296 201.195 103.701 201.195 104.16C201.195 104.619 201.285 105.024 201.467 105.376C201.659 105.728 201.915 106.005 202.235 106.208C202.565 106.4 202.944 106.496 203.371 106.496ZM205.435 108V105.936L205.739 104.064L205.435 102.208V100.32H207.195V108H205.435ZM213.26 108.16C212.673 108.16 212.151 108.037 211.692 107.792C211.233 107.536 210.871 107.189 210.604 106.752C210.348 106.315 210.22 105.819 210.22 105.264V103.056C210.22 102.501 210.353 102.005 210.62 101.568C210.887 101.131 211.249 100.789 211.708 100.544C212.167 100.288 212.684 100.16 213.26 100.16C213.953 100.16 214.577 100.341 215.132 100.704C215.697 101.056 216.14 101.536 216.46 102.144C216.791 102.741 216.956 103.419 216.956 104.176C216.956 104.923 216.791 105.6 216.46 106.208C216.14 106.805 215.697 107.28 215.132 107.632C214.577 107.984 213.953 108.16 213.26 108.16ZM209.148 108V96.48H210.908V102.208L210.604 104.064L210.908 105.936V108H209.148ZM212.972 106.496C213.399 106.496 213.772 106.4 214.092 106.208C214.423 106.005 214.679 105.728 214.86 105.376C215.052 105.024 215.148 104.619 215.148 104.16C215.148 103.701 215.052 103.296 214.86 102.944C214.679 102.592 214.423 102.32 214.092 102.128C213.772 101.925 213.399 101.824 212.972 101.824C212.545 101.824 212.167 101.925 211.836 102.128C211.505 102.32 211.249 102.592 211.068 102.944C210.887 103.296 210.796 103.701 210.796 104.16C210.796 104.619 210.887 105.024 211.068 105.376C211.249 105.728 211.505 106.005 211.836 106.208C212.167 106.4 212.545 106.496 212.972 106.496ZM221.997 108.16C221.229 108.16 220.536 107.989 219.917 107.648C219.309 107.296 218.824 106.816 218.461 106.208C218.109 105.6 217.933 104.917 217.933 104.16C217.933 103.403 218.109 102.725 218.461 102.128C218.813 101.52 219.288 101.04 219.885 100.688C220.493 100.336 221.165 100.16 221.901 100.16C222.616 100.16 223.245 100.325 223.789 100.656C224.344 100.987 224.776 101.44 225.085 102.016C225.405 102.592 225.565 103.248 225.565 103.984C225.565 104.112 225.554 104.245 225.533 104.384C225.522 104.512 225.501 104.656 225.469 104.816H219.165V103.376H224.557L223.901 103.952C223.88 103.483 223.789 103.088 223.629 102.768C223.469 102.448 223.24 102.203 222.941 102.032C222.653 101.861 222.296 101.776 221.869 101.776C221.421 101.776 221.032 101.872 220.701 102.064C220.37 102.256 220.114 102.528 219.933 102.88C219.752 103.221 219.661 103.632 219.661 104.112C219.661 104.592 219.757 105.013 219.949 105.376C220.141 105.739 220.413 106.021 220.765 106.224C221.117 106.416 221.522 106.512 221.981 106.512C222.376 106.512 222.738 106.443 223.069 106.304C223.41 106.165 223.698 105.963 223.933 105.696L225.053 106.832C224.68 107.269 224.226 107.6 223.693 107.824C223.16 108.048 222.594 108.16 221.997 108.16ZM226.976 108V96.48H228.736V108H226.976Z" fill="#F1F2F4"/>
<path fill-rule="evenodd" clip-rule="evenodd" d="M101.573 145H101.427C99.6034 145 98.1336 145 96.9777 145.155C95.7775 145.317 94.767 145.662 93.9645 146.464C93.1619 147.267 92.8167 148.278 92.6554 149.478C92.5 150.634 92.5 152.103 92.5 153.927V154.073C92.5 155.897 92.5 157.366 92.6554 158.522C92.8167 159.722 93.1619 160.733 93.9645 161.536C94.767 162.338 95.7775 162.683 96.9777 162.845C98.1336 163 99.6034 163 101.427 163H101.573C103.397 163 104.866 163 106.022 162.845C107.222 162.683 108.233 162.338 109.036 161.536C109.838 160.733 110.183 159.722 110.345 158.522C110.5 157.366 110.5 155.897 110.5 154.073V153.927C110.5 152.103 110.5 150.634 110.345 149.478C110.183 148.278 109.838 147.267 109.036 146.464C108.233 145.662 107.222 145.317 106.022 145.155C104.866 145 103.397 145 101.573 145ZM106.44 152.724C106.84 152.342 106.855 151.709 106.474 151.31C106.092 150.91 105.459 150.895 105.06 151.276L100.247 155.867L98.1909 153.902C97.7916 153.52 97.1586 153.535 96.777 153.934C96.3955 154.333 96.4098 154.966 96.8091 155.348L99.5559 157.973C99.9422 158.342 100.55 158.342 100.937 157.974L106.44 152.724Z" fill="#6061EE"/>
<path d="M127.804 160.16C126.993 160.16 126.241 160.016 125.548 159.728C124.865 159.429 124.268 159.019 123.756 158.496C123.244 157.963 122.849 157.349 122.572 156.656C122.295 155.952 122.156 155.2 122.156 154.4C122.156 153.6 122.295 152.853 122.572 152.16C122.849 151.456 123.244 150.843 123.756 150.32C124.268 149.797 124.865 149.387 125.548 149.088C126.241 148.789 126.993 148.64 127.804 148.64C128.711 148.64 129.495 148.789 130.156 149.088C130.817 149.387 131.404 149.792 131.916 150.304L130.668 151.552C130.337 151.189 129.932 150.907 129.452 150.704C128.983 150.501 128.433 150.4 127.804 150.4C127.249 150.4 126.743 150.496 126.284 150.688C125.825 150.88 125.425 151.157 125.084 151.52C124.753 151.872 124.497 152.293 124.316 152.784C124.135 153.275 124.044 153.813 124.044 154.4C124.044 154.987 124.135 155.525 124.316 156.016C124.497 156.507 124.753 156.933 125.084 157.296C125.425 157.648 125.825 157.92 126.284 158.112C126.743 158.304 127.249 158.4 127.804 158.4C128.487 158.4 129.063 158.299 129.532 158.096C130.012 157.883 130.417 157.595 130.748 157.232L131.996 158.48C131.484 159.003 130.881 159.413 130.188 159.712C129.495 160.011 128.7 160.16 127.804 160.16ZM138.662 160V155.568C138.662 155.056 138.497 154.635 138.166 154.304C137.846 153.973 137.43 153.808 136.918 153.808C136.577 153.808 136.273 153.883 136.006 154.032C135.739 154.181 135.531 154.389 135.382 154.656C135.233 154.923 135.158 155.227 135.158 155.568L134.47 155.184C134.47 154.597 134.598 154.08 134.854 153.632C135.11 153.173 135.462 152.816 135.91 152.56C136.369 152.293 136.881 152.16 137.446 152.16C138.022 152.16 138.534 152.288 138.982 152.544C139.43 152.8 139.782 153.157 140.038 153.616C140.294 154.064 140.422 154.587 140.422 155.184V160H138.662ZM133.398 160V148.48H135.158V160H133.398ZM145.778 160.16C145.01 160.16 144.317 159.989 143.698 159.648C143.09 159.296 142.605 158.816 142.242 158.208C141.89 157.6 141.714 156.917 141.714 156.16C141.714 155.403 141.89 154.725 142.242 154.128C142.594 153.52 143.069 153.04 143.666 152.688C144.274 152.336 144.946 152.16 145.682 152.16C146.397 152.16 147.026 152.325 147.57 152.656C148.125 152.987 148.557 153.44 148.866 154.016C149.186 154.592 149.346 155.248 149.346 155.984C149.346 156.112 149.336 156.245 149.314 156.384C149.304 156.512 149.282 156.656 149.25 156.816H142.946V155.376H148.338L147.682 155.952C147.661 155.483 147.57 155.088 147.41 154.768C147.25 154.448 147.021 154.203 146.722 154.032C146.434 153.861 146.077 153.776 145.65 153.776C145.202 153.776 144.813 153.872 144.482 154.064C144.152 154.256 143.896 154.528 143.714 154.88C143.533 155.221 143.442 155.632 143.442 156.112C143.442 156.592 143.538 157.013 143.73 157.376C143.922 157.739 144.194 158.021 144.546 158.224C144.898 158.416 145.304 158.512 145.762 158.512C146.157 158.512 146.52 158.443 146.85 158.304C147.192 158.165 147.48 157.963 147.714 157.696L148.834 158.832C148.461 159.269 148.008 159.6 147.474 159.824C146.941 160.048 146.376 160.16 145.778 160.16ZM154.293 160.16C153.536 160.16 152.848 159.984 152.229 159.632C151.621 159.28 151.141 158.8 150.789 158.192C150.437 157.584 150.261 156.907 150.261 156.16C150.261 155.403 150.437 154.725 150.789 154.128C151.141 153.52 151.621 153.04 152.229 152.688C152.848 152.336 153.536 152.16 154.293 152.16C154.891 152.16 155.445 152.277 155.957 152.512C156.48 152.736 156.923 153.061 157.285 153.488L156.133 154.656C155.909 154.389 155.637 154.192 155.317 154.064C155.008 153.925 154.667 153.856 154.293 153.856C153.856 153.856 153.467 153.957 153.125 154.16C152.795 154.352 152.533 154.619 152.341 154.96C152.16 155.301 152.069 155.701 152.069 156.16C152.069 156.608 152.16 157.008 152.341 157.36C152.533 157.701 152.795 157.973 153.125 158.176C153.467 158.368 153.856 158.464 154.293 158.464C154.667 158.464 155.008 158.4 155.317 158.272C155.637 158.133 155.909 157.931 156.133 157.664L157.285 158.832C156.923 159.259 156.48 159.589 155.957 159.824C155.445 160.048 154.891 160.16 154.293 160.16ZM163.434 160L160.186 156.08L163.418 152.32H165.514L161.802 156.544L161.882 155.536L165.674 160H163.434ZM158.554 160V148.48H160.314V160H158.554ZM170.838 160.16C170.251 160.16 169.729 160.037 169.27 159.792C168.811 159.536 168.449 159.189 168.182 158.752C167.926 158.315 167.798 157.819 167.798 157.264V155.056C167.798 154.501 167.931 154.005 168.198 153.568C168.465 153.131 168.827 152.789 169.286 152.544C169.745 152.288 170.262 152.16 170.838 152.16C171.531 152.16 172.155 152.341 172.71 152.704C173.275 153.056 173.718 153.536 174.038 154.144C174.369 154.741 174.534 155.419 174.534 156.176C174.534 156.923 174.369 157.6 174.038 158.208C173.718 158.805 173.275 159.28 172.71 159.632C172.155 159.984 171.531 160.16 170.838 160.16ZM166.726 160V148.48H168.486V154.208L168.182 156.064L168.486 157.936V160H166.726ZM170.55 158.496C170.977 158.496 171.35 158.4 171.67 158.208C172.001 158.005 172.257 157.728 172.438 157.376C172.63 157.024 172.726 156.619 172.726 156.16C172.726 155.701 172.63 155.296 172.438 154.944C172.257 154.592 172.001 154.32 171.67 154.128C171.35 153.925 170.977 153.824 170.55 153.824C170.123 153.824 169.745 153.925 169.414 154.128C169.083 154.32 168.827 154.592 168.646 154.944C168.465 155.296 168.374 155.701 168.374 156.16C168.374 156.619 168.465 157.024 168.646 157.376C168.827 157.728 169.083 158.005 169.414 158.208C169.745 158.4 170.123 158.496 170.55 158.496ZM179.527 160.16C178.781 160.16 178.103 159.984 177.495 159.632C176.887 159.269 176.402 158.784 176.039 158.176C175.687 157.568 175.511 156.891 175.511 156.144C175.511 155.397 175.687 154.725 176.039 154.128C176.402 153.531 176.887 153.056 177.495 152.704C178.103 152.341 178.781 152.16 179.527 152.16C180.285 152.16 180.967 152.336 181.575 152.688C182.183 153.04 182.663 153.52 183.015 154.128C183.378 154.725 183.559 155.397 183.559 156.144C183.559 156.891 183.378 157.568 183.015 158.176C182.663 158.784 182.183 159.269 181.575 159.632C180.967 159.984 180.285 160.16 179.527 160.16ZM179.527 158.464C179.965 158.464 180.349 158.368 180.679 158.176C181.021 157.973 181.282 157.696 181.463 157.344C181.655 156.992 181.751 156.592 181.751 156.144C181.751 155.696 181.655 155.301 181.463 154.96C181.271 154.619 181.01 154.352 180.679 154.16C180.349 153.957 179.965 153.856 179.527 153.856C179.101 153.856 178.717 153.957 178.375 154.16C178.045 154.352 177.783 154.619 177.591 154.96C177.41 155.301 177.319 155.696 177.319 156.144C177.319 156.592 177.41 156.992 177.591 157.344C177.783 157.696 178.045 157.973 178.375 158.176C178.717 158.368 179.101 158.464 179.527 158.464ZM189.668 160L187.46 156.752L187.14 156.464L184.164 152.32H186.292L188.26 155.168L188.564 155.44L191.78 160H189.668ZM184.02 160L187.124 155.696L188.148 156.96L186.068 160H184.02ZM188.724 156.432L187.684 155.184L189.604 152.32H191.636L188.724 156.432ZM196.148 160V148.48H197.908V160H196.148ZM203.083 160.16C202.389 160.16 201.76 159.984 201.195 159.632C200.64 159.28 200.197 158.805 199.867 158.208C199.547 157.6 199.387 156.923 199.387 156.176C199.387 155.419 199.547 154.741 199.867 154.144C200.197 153.536 200.64 153.056 201.195 152.704C201.76 152.341 202.389 152.16 203.083 152.16C203.669 152.16 204.187 152.288 204.635 152.544C205.093 152.789 205.456 153.131 205.723 153.568C205.989 154.005 206.123 154.501 206.123 155.056V157.264C206.123 157.819 205.989 158.315 205.723 158.752C205.467 159.189 205.109 159.536 204.651 159.792C204.192 160.037 203.669 160.16 203.083 160.16ZM203.371 158.496C204.021 158.496 204.544 158.277 204.939 157.84C205.344 157.403 205.547 156.843 205.547 156.16C205.547 155.701 205.456 155.296 205.275 154.944C205.093 154.592 204.837 154.32 204.507 154.128C204.187 153.925 203.808 153.824 203.371 153.824C202.944 153.824 202.565 153.925 202.235 154.128C201.915 154.32 201.659 154.592 201.467 154.944C201.285 155.296 201.195 155.701 201.195 156.16C201.195 156.619 201.285 157.024 201.467 157.376C201.659 157.728 201.915 158.005 202.235 158.208C202.565 158.4 202.944 158.496 203.371 158.496ZM205.435 160V157.936L205.739 156.064L205.435 154.208V152.32H207.195V160H205.435ZM213.26 160.16C212.673 160.16 212.151 160.037 211.692 159.792C211.233 159.536 210.871 159.189 210.604 158.752C210.348 158.315 210.22 157.819 210.22 157.264V155.056C210.22 154.501 210.353 154.005 210.62 153.568C210.887 153.131 211.249 152.789 211.708 152.544C212.167 152.288 212.684 152.16 213.26 152.16C213.953 152.16 214.577 152.341 215.132 152.704C215.697 153.056 216.14 153.536 216.46 154.144C216.791 154.741 216.956 155.419 216.956 156.176C216.956 156.923 216.791 157.6 216.46 158.208C216.14 158.805 215.697 159.28 215.132 159.632C214.577 159.984 213.953 160.16 213.26 160.16ZM209.148 160V148.48H210.908V154.208L210.604 156.064L210.908 157.936V160H209.148ZM212.972 158.496C213.399 158.496 213.772 158.4 214.092 158.208C214.423 158.005 214.679 157.728 214.86 157.376C215.052 157.024 215.148 156.619 215.148 156.16C215.148 155.701 215.052 155.296 214.86 154.944C214.679 154.592 214.423 154.32 214.092 154.128C213.772 153.925 213.399 153.824 212.972 153.824C212.545 153.824 212.167 153.925 211.836 154.128C211.505 154.32 211.249 154.592 211.068 154.944C210.887 155.296 210.796 155.701 210.796 156.16C210.796 156.619 210.887 157.024 211.068 157.376C211.249 157.728 211.505 158.005 211.836 158.208C212.167 158.4 212.545 158.496 212.972 158.496ZM221.997 160.16C221.229 160.16 220.536 159.989 219.917 159.648C219.309 159.296 218.824 158.816 218.461 158.208C218.109 157.6 217.933 156.917 217.933 156.16C217.933 155.403 218.109 154.725 218.461 154.128C218.813 153.52 219.288 153.04 219.885 152.688C220.493 152.336 221.165 152.16 221.901 152.16C222.616 152.16 223.245 152.325 223.789 152.656C224.344 152.987 224.776 153.44 225.085 154.016C225.405 154.592 225.565 155.248 225.565 155.984C225.565 156.112 225.554 156.245 225.533 156.384C225.522 156.512 225.501 156.656 225.469 156.816H219.165V155.376H224.557L223.901 155.952C223.88 155.483 223.789 155.088 223.629 154.768C223.469 154.448 223.24 154.203 222.941 154.032C222.653 153.861 222.296 153.776 221.869 153.776C221.421 153.776 221.032 153.872 220.701 154.064C220.37 154.256 220.114 154.528 219.933 154.88C219.752 155.221 219.661 155.632 219.661 156.112C219.661 156.592 219.757 157.013 219.949 157.376C220.141 157.739 220.413 158.021 220.765 158.224C221.117 158.416 221.522 158.512 221.981 158.512C222.376 158.512 222.738 158.443 223.069 158.304C223.41 158.165 223.698 157.963 223.933 157.696L225.053 158.832C224.68 159.269 224.226 159.6 223.693 159.824C223.16 160.048 222.594 160.16 221.997 160.16ZM226.976 160V148.48H228.736V160H226.976Z" fill="#F1F2F4"/>
<defs>
<clipPath id="clip0_14200_864">
<rect width="64" height="24" fill="white" transform="translate(24 90)"/>
</clipPath>
<clipPath id="clip1_14200_864">
<rect x="24" y="90" width="24" height="24" rx="12" fill="white"/>
</clipPath>
<clipPath id="clip2_14200_864">
<rect width="64" height="24" fill="white" transform="translate(24 142)"/>
</clipPath>
<clipPath id="clip3_14200_864">
<rect x="24" y="142" width="24" height="24" rx="12" fill="white"/>
</clipPath>
<clipPath id="clip4_14200_864">
<rect x="159" y="24" width="24" height="24" rx="12" fill="white"/>
</clipPath>
</defs>
</svg>
