<svg width="280" height="190" viewBox="0 0 280 190" fill="none" xmlns="http://www.w3.org/2000/svg">
<rect width="280" height="190" fill="#2A2C35"/>
<path d="M22.716 37V25.8H23.996L24.556 27.912V37H22.716ZM30.476 37L23.772 28.248L23.996 25.8L30.7 34.552L30.476 37ZM30.476 37L29.916 35.032V25.8H31.756V37H30.476ZM37.4648 37.16C36.7181 37.16 36.0408 36.984 35.4328 36.632C34.8248 36.2693 34.3394 35.784 33.9768 35.176C33.6248 34.568 33.4488 33.8907 33.4488 33.144C33.4488 32.3973 33.6248 31.7253 33.9768 31.128C34.3394 30.5307 34.8248 30.056 35.4328 29.704C36.0408 29.3413 36.7181 29.16 37.4648 29.16C38.2221 29.16 38.9048 29.336 39.5128 29.688C40.1208 30.04 40.6008 30.52 40.9528 31.128C41.3154 31.7253 41.4968 32.3973 41.4968 33.144C41.4968 33.8907 41.3154 34.568 40.9528 35.176C40.6008 35.784 40.1208 36.2693 39.5128 36.632C38.9048 36.984 38.2221 37.16 37.4648 37.16ZM37.4648 35.464C37.9021 35.464 38.2861 35.368 38.6168 35.176C38.9581 34.9733 39.2194 34.696 39.4008 34.344C39.5928 33.992 39.6888 33.592 39.6888 33.144C39.6888 32.696 39.5928 32.3013 39.4008 31.96C39.2088 31.6187 38.9474 31.352 38.6168 31.16C38.2861 30.9573 37.9021 30.856 37.4648 30.856C37.0381 30.856 36.6541 30.9573 36.3128 31.16C35.9821 31.352 35.7208 31.6187 35.5288 31.96C35.3474 32.3013 35.2568 32.696 35.2568 33.144C35.2568 33.592 35.3474 33.992 35.5288 34.344C35.7208 34.696 35.9821 34.9733 36.3128 35.176C36.6541 35.368 37.0381 35.464 37.4648 35.464ZM43.9096 37V26.12H45.6696V37H43.9096ZM42.0696 30.92V29.32H47.5096V30.92H42.0696ZM48.8045 37V29.32H50.5645V37H48.8045ZM49.6845 27.912C49.3858 27.912 49.1352 27.8107 48.9325 27.608C48.7405 27.4053 48.6445 27.1547 48.6445 26.856C48.6445 26.5573 48.7405 26.3067 48.9325 26.104C49.1352 25.9013 49.3858 25.8 49.6845 25.8C49.9938 25.8 50.2445 25.9013 50.4365 26.104C50.6285 26.3067 50.7245 26.5573 50.7245 26.856C50.7245 27.1547 50.6285 27.4053 50.4365 27.608C50.2445 27.8107 49.9938 27.912 49.6845 27.912ZM53.5945 37V27.992C53.5945 27.48 53.7065 27.0267 53.9305 26.632C54.1652 26.2267 54.4852 25.9067 54.8905 25.672C55.2958 25.4373 55.7705 25.32 56.3145 25.32C56.7198 25.32 57.0718 25.3893 57.3705 25.528C57.6798 25.656 57.9678 25.8427 58.2345 26.088L57.0825 27.24C56.9758 27.1547 56.8585 27.0907 56.7305 27.048C56.6132 26.9947 56.4745 26.968 56.3145 26.968C56.0052 26.968 55.7652 27.0587 55.5945 27.24C55.4345 27.4213 55.3545 27.6667 55.3545 27.976V37H53.5945ZM51.7545 30.92V29.32H59.2425V30.92H51.7545ZM58.2345 37V29.32H59.9945V37H58.2345ZM59.1145 28.648C58.8158 28.648 58.5652 28.5467 58.3625 28.344C58.1705 28.1413 58.0745 27.8907 58.0745 27.592C58.0745 27.2933 58.1705 27.0427 58.3625 26.84C58.5652 26.6373 58.8158 26.536 59.1145 26.536C59.4238 26.536 59.6745 26.6373 59.8665 26.84C60.0585 27.0427 60.1545 27.2933 60.1545 27.592C60.1545 27.8907 60.0585 28.1413 59.8665 28.344C59.6745 28.5467 59.4238 28.648 59.1145 28.648ZM65.4964 37.16C64.739 37.16 64.051 36.984 63.4324 36.632C62.8244 36.28 62.3444 35.8 61.9924 35.192C61.6404 34.584 61.4644 33.9067 61.4644 33.16C61.4644 32.4027 61.6404 31.7253 61.9924 31.128C62.3444 30.52 62.8244 30.04 63.4324 29.688C64.051 29.336 64.739 29.16 65.4964 29.16C66.0937 29.16 66.6484 29.2773 67.1604 29.512C67.683 29.736 68.1257 30.0613 68.4884 30.488L67.3364 31.656C67.1124 31.3893 66.8404 31.192 66.5204 31.064C66.211 30.9253 65.8697 30.856 65.4964 30.856C65.059 30.856 64.6697 30.9573 64.3284 31.16C63.9977 31.352 63.7364 31.6187 63.5444 31.96C63.363 32.3013 63.2724 32.7013 63.2724 33.16C63.2724 33.608 63.363 34.008 63.5444 34.36C63.7364 34.7013 63.9977 34.9733 64.3284 35.176C64.6697 35.368 65.059 35.464 65.4964 35.464C65.8697 35.464 66.211 35.4 66.5204 35.272C66.8404 35.1333 67.1124 34.9307 67.3364 34.664L68.4884 35.832C68.1257 36.2587 67.683 36.5893 67.1604 36.824C66.6484 37.048 66.0937 37.16 65.4964 37.16ZM72.817 37.16C72.1237 37.16 71.4943 36.984 70.929 36.632C70.3743 36.28 69.9317 35.8053 69.601 35.208C69.281 34.6 69.121 33.9227 69.121 33.176C69.121 32.4187 69.281 31.7413 69.601 31.144C69.9317 30.536 70.3743 30.056 70.929 29.704C71.4943 29.3413 72.1237 29.16 72.817 29.16C73.4037 29.16 73.921 29.288 74.369 29.544C74.8277 29.7893 75.1903 30.1307 75.457 30.568C75.7237 31.0053 75.857 31.5013 75.857 32.056V34.264C75.857 34.8187 75.7237 35.3147 75.457 35.752C75.201 36.1893 74.8437 36.536 74.385 36.792C73.9263 37.0373 73.4037 37.16 72.817 37.16ZM73.105 35.496C73.7557 35.496 74.2783 35.2773 74.673 34.84C75.0783 34.4027 75.281 33.8427 75.281 33.16C75.281 32.7013 75.1903 32.296 75.009 31.944C74.8277 31.592 74.5717 31.32 74.241 31.128C73.921 30.9253 73.5423 30.824 73.105 30.824C72.6783 30.824 72.2997 30.9253 71.969 31.128C71.649 31.32 71.393 31.592 71.201 31.944C71.0197 32.296 70.929 32.7013 70.929 33.16C70.929 33.6187 71.0197 34.024 71.201 34.376C71.393 34.728 71.649 35.0053 71.969 35.208C72.2997 35.4 72.6783 35.496 73.105 35.496ZM75.169 37V34.936L75.473 33.064L75.169 31.208V29.32H76.929V37H75.169ZM80.0503 37V26.12H81.8103V37H80.0503ZM78.2103 30.92V29.32H83.6503V30.92H78.2103ZM84.9451 37V29.32H86.7051V37H84.9451ZM85.8251 27.912C85.5265 27.912 85.2758 27.8107 85.0731 27.608C84.8811 27.4053 84.7851 27.1547 84.7851 26.856C84.7851 26.5573 84.8811 26.3067 85.0731 26.104C85.2758 25.9013 85.5265 25.8 85.8251 25.8C86.1345 25.8 86.3851 25.9013 86.5771 26.104C86.7691 26.3067 86.8651 26.5573 86.8651 26.856C86.8651 27.1547 86.7691 27.4053 86.5771 27.608C86.3851 27.8107 86.1345 27.912 85.8251 27.912ZM92.1991 37.16C91.4525 37.16 90.7751 36.984 90.1671 36.632C89.5591 36.2693 89.0738 35.784 88.7111 35.176C88.3591 34.568 88.1831 33.8907 88.1831 33.144C88.1831 32.3973 88.3591 31.7253 88.7111 31.128C89.0738 30.5307 89.5591 30.056 90.1671 29.704C90.7751 29.3413 91.4525 29.16 92.1991 29.16C92.9565 29.16 93.6391 29.336 94.2471 29.688C94.8551 30.04 95.3351 30.52 95.6871 31.128C96.0498 31.7253 96.2311 32.3973 96.2311 33.144C96.2311 33.8907 96.0498 34.568 95.6871 35.176C95.3351 35.784 94.8551 36.2693 94.2471 36.632C93.6391 36.984 92.9565 37.16 92.1991 37.16ZM92.1991 35.464C92.6365 35.464 93.0205 35.368 93.3511 35.176C93.6925 34.9733 93.9538 34.696 94.1351 34.344C94.3271 33.992 94.4231 33.592 94.4231 33.144C94.4231 32.696 94.3271 32.3013 94.1351 31.96C93.9431 31.6187 93.6818 31.352 93.3511 31.16C93.0205 30.9573 92.6365 30.856 92.1991 30.856C91.7725 30.856 91.3885 30.9573 91.0471 31.16C90.7165 31.352 90.4551 31.6187 90.2631 31.96C90.0818 32.3013 89.9911 32.696 89.9911 33.144C89.9911 33.592 90.0818 33.992 90.2631 34.344C90.4551 34.696 90.7165 34.9733 91.0471 35.176C91.3885 35.368 91.7725 35.464 92.1991 35.464ZM102.959 37V32.568C102.959 32.056 102.793 31.6347 102.463 31.304C102.143 30.9733 101.727 30.808 101.215 30.808C100.873 30.808 100.569 30.8827 100.303 31.032C100.036 31.1813 99.8281 31.3893 99.6788 31.656C99.5294 31.9227 99.4548 32.2267 99.4548 32.568L98.7668 32.184C98.7668 31.5973 98.8948 31.08 99.1508 30.632C99.4068 30.1733 99.7588 29.816 100.207 29.56C100.665 29.2933 101.177 29.16 101.743 29.16C102.319 29.16 102.831 29.3093 103.279 29.608C103.727 29.896 104.079 30.2747 104.335 30.744C104.591 31.2027 104.719 31.6827 104.719 32.184V37H102.959ZM97.6948 37V29.32H99.4548V37H97.6948ZM111.214 32.776V31.176H114.014C114.398 31.176 114.734 31.1013 115.022 30.952C115.321 30.792 115.556 30.5733 115.726 30.296C115.897 30.008 115.982 29.672 115.982 29.288C115.982 28.904 115.897 28.5733 115.726 28.296C115.556 28.008 115.321 27.7893 115.022 27.64C114.734 27.48 114.398 27.4 114.014 27.4H111.214V25.8H114.11C114.814 25.8 115.444 25.944 115.998 26.232C116.564 26.52 117.006 26.9253 117.326 27.448C117.657 27.9707 117.822 28.584 117.822 29.288C117.822 29.992 117.657 30.6053 117.326 31.128C117.006 31.6507 116.564 32.056 115.998 32.344C115.444 32.632 114.814 32.776 114.11 32.776H111.214ZM109.95 37V25.8H111.79V37H109.95ZM119.367 37V29.32H121.127V37H119.367ZM121.127 32.728L120.519 32.424C120.519 31.4533 120.732 30.6693 121.159 30.072C121.596 29.464 122.252 29.16 123.127 29.16C123.511 29.16 123.857 29.2293 124.167 29.368C124.476 29.5067 124.764 29.7307 125.031 30.04L123.879 31.224C123.74 31.0747 123.585 30.968 123.415 30.904C123.244 30.84 123.047 30.808 122.823 30.808C122.332 30.808 121.927 30.9627 121.607 31.272C121.287 31.5813 121.127 32.0667 121.127 32.728ZM129.216 37.16C128.448 37.16 127.755 36.9893 127.136 36.648C126.528 36.296 126.043 35.816 125.68 35.208C125.328 34.6 125.152 33.9173 125.152 33.16C125.152 32.4027 125.328 31.7253 125.68 31.128C126.032 30.52 126.507 30.04 127.104 29.688C127.712 29.336 128.384 29.16 129.12 29.16C129.835 29.16 130.464 29.3253 131.008 29.656C131.563 29.9867 131.995 30.44 132.304 31.016C132.624 31.592 132.784 32.248 132.784 32.984C132.784 33.112 132.773 33.2453 132.752 33.384C132.741 33.512 132.72 33.656 132.688 33.816H126.384V32.376H131.776L131.12 32.952C131.099 32.4827 131.008 32.088 130.848 31.768C130.688 31.448 130.459 31.2027 130.16 31.032C129.872 30.8613 129.515 30.776 129.088 30.776C128.64 30.776 128.251 30.872 127.92 31.064C127.589 31.256 127.333 31.528 127.152 31.88C126.971 32.2213 126.88 32.632 126.88 33.112C126.88 33.592 126.976 34.0133 127.168 34.376C127.36 34.7387 127.632 35.0213 127.984 35.224C128.336 35.416 128.741 35.512 129.2 35.512C129.595 35.512 129.957 35.4427 130.288 35.304C130.629 35.1653 130.917 34.9627 131.152 34.696L132.272 35.832C131.899 36.2693 131.445 36.6 130.912 36.824C130.379 37.048 129.813 37.16 129.216 37.16ZM135.048 37V28.312C135.048 27.7253 135.176 27.208 135.432 26.76C135.698 26.312 136.061 25.96 136.52 25.704C136.989 25.448 137.528 25.32 138.136 25.32C138.605 25.32 139.005 25.4 139.336 25.56C139.666 25.72 139.976 25.9493 140.264 26.248L139.128 27.384C139 27.256 138.861 27.1547 138.712 27.08C138.562 27.0053 138.37 26.968 138.136 26.968C137.709 26.968 137.378 27.0853 137.144 27.32C136.92 27.544 136.808 27.8693 136.808 28.296V37H135.048ZM133.208 30.92V29.32H139.128V30.92H133.208ZM143.622 37.16C142.854 37.16 142.161 36.9893 141.542 36.648C140.934 36.296 140.449 35.816 140.086 35.208C139.734 34.6 139.558 33.9173 139.558 33.16C139.558 32.4027 139.734 31.7253 140.086 31.128C140.438 30.52 140.913 30.04 141.51 29.688C142.118 29.336 142.79 29.16 143.526 29.16C144.241 29.16 144.87 29.3253 145.414 29.656C145.969 29.9867 146.401 30.44 146.71 31.016C147.03 31.592 147.19 32.248 147.19 32.984C147.19 33.112 147.179 33.2453 147.158 33.384C147.147 33.512 147.126 33.656 147.094 33.816H140.79V32.376H146.182L145.526 32.952C145.505 32.4827 145.414 32.088 145.254 31.768C145.094 31.448 144.865 31.2027 144.566 31.032C144.278 30.8613 143.921 30.776 143.494 30.776C143.046 30.776 142.657 30.872 142.326 31.064C141.995 31.256 141.739 31.528 141.558 31.88C141.377 32.2213 141.286 32.632 141.286 33.112C141.286 33.592 141.382 34.0133 141.574 34.376C141.766 34.7387 142.038 35.0213 142.39 35.224C142.742 35.416 143.147 35.512 143.606 35.512C144.001 35.512 144.363 35.4427 144.694 35.304C145.035 35.1653 145.323 34.9627 145.558 34.696L146.678 35.832C146.305 36.2693 145.851 36.6 145.318 36.824C144.785 37.048 144.219 37.16 143.622 37.16ZM148.601 37V29.32H150.361V37H148.601ZM150.361 32.728L149.753 32.424C149.753 31.4533 149.966 30.6693 150.393 30.072C150.83 29.464 151.486 29.16 152.361 29.16C152.745 29.16 153.092 29.2293 153.401 29.368C153.71 29.5067 153.998 29.7307 154.265 30.04L153.113 31.224C152.974 31.0747 152.82 30.968 152.649 30.904C152.478 30.84 152.281 30.808 152.057 30.808C151.566 30.808 151.161 30.9627 150.841 31.272C150.521 31.5813 150.361 32.0667 150.361 32.728ZM158.45 37.16C157.682 37.16 156.989 36.9893 156.37 36.648C155.762 36.296 155.277 35.816 154.914 35.208C154.562 34.6 154.386 33.9173 154.386 33.16C154.386 32.4027 154.562 31.7253 154.914 31.128C155.266 30.52 155.741 30.04 156.338 29.688C156.946 29.336 157.618 29.16 158.354 29.16C159.069 29.16 159.698 29.3253 160.242 29.656C160.797 29.9867 161.229 30.44 161.538 31.016C161.858 31.592 162.018 32.248 162.018 32.984C162.018 33.112 162.008 33.2453 161.986 33.384C161.976 33.512 161.954 33.656 161.922 33.816H155.618V32.376H161.01L160.354 32.952C160.333 32.4827 160.242 32.088 160.082 31.768C159.922 31.448 159.693 31.2027 159.394 31.032C159.106 30.8613 158.749 30.776 158.322 30.776C157.874 30.776 157.485 30.872 157.154 31.064C156.824 31.256 156.568 31.528 156.386 31.88C156.205 32.2213 156.114 32.632 156.114 33.112C156.114 33.592 156.21 34.0133 156.402 34.376C156.594 34.7387 156.866 35.0213 157.218 35.224C157.57 35.416 157.976 35.512 158.434 35.512C158.829 35.512 159.192 35.4427 159.522 35.304C159.864 35.1653 160.152 34.9627 160.386 34.696L161.506 35.832C161.133 36.2693 160.68 36.6 160.146 36.824C159.613 37.048 159.048 37.16 158.45 37.16ZM168.693 37V32.568C168.693 32.056 168.528 31.6347 168.197 31.304C167.877 30.9733 167.461 30.808 166.949 30.808C166.608 30.808 166.304 30.8827 166.037 31.032C165.77 31.1813 165.562 31.3893 165.413 31.656C165.264 31.9227 165.189 32.2267 165.189 32.568L164.501 32.184C164.501 31.5973 164.629 31.08 164.885 30.632C165.141 30.1733 165.493 29.816 165.941 29.56C166.4 29.2933 166.912 29.16 167.477 29.16C168.053 29.16 168.565 29.3093 169.013 29.608C169.461 29.896 169.813 30.2747 170.069 30.744C170.325 31.2027 170.453 31.6827 170.453 32.184V37H168.693ZM163.429 37V29.32H165.189V37H163.429ZM175.778 37.16C175.02 37.16 174.332 36.984 173.714 36.632C173.106 36.28 172.626 35.8 172.274 35.192C171.922 34.584 171.746 33.9067 171.746 33.16C171.746 32.4027 171.922 31.7253 172.274 31.128C172.626 30.52 173.106 30.04 173.714 29.688C174.332 29.336 175.02 29.16 175.778 29.16C176.375 29.16 176.93 29.2773 177.442 29.512C177.964 29.736 178.407 30.0613 178.77 30.488L177.618 31.656C177.394 31.3893 177.122 31.192 176.802 31.064C176.492 30.9253 176.151 30.856 175.778 30.856C175.34 30.856 174.951 30.9573 174.61 31.16C174.279 31.352 174.018 31.6187 173.826 31.96C173.644 32.3013 173.554 32.7013 173.554 33.16C173.554 33.608 173.644 34.008 173.826 34.36C174.018 34.7013 174.279 34.9733 174.61 35.176C174.951 35.368 175.34 35.464 175.778 35.464C176.151 35.464 176.492 35.4 176.802 35.272C177.122 35.1333 177.394 34.9307 177.618 34.664L178.77 35.832C178.407 36.2587 177.964 36.5893 177.442 36.824C176.93 37.048 176.375 37.16 175.778 37.16ZM183.45 37.16C182.682 37.16 181.989 36.9893 181.37 36.648C180.762 36.296 180.277 35.816 179.914 35.208C179.562 34.6 179.386 33.9173 179.386 33.16C179.386 32.4027 179.562 31.7253 179.914 31.128C180.266 30.52 180.741 30.04 181.338 29.688C181.946 29.336 182.618 29.16 183.354 29.16C184.069 29.16 184.698 29.3253 185.242 29.656C185.797 29.9867 186.229 30.44 186.538 31.016C186.858 31.592 187.018 32.248 187.018 32.984C187.018 33.112 187.008 33.2453 186.986 33.384C186.976 33.512 186.954 33.656 186.922 33.816H180.618V32.376H186.01L185.354 32.952C185.333 32.4827 185.242 32.088 185.082 31.768C184.922 31.448 184.693 31.2027 184.394 31.032C184.106 30.8613 183.749 30.776 183.322 30.776C182.874 30.776 182.485 30.872 182.154 31.064C181.824 31.256 181.568 31.528 181.386 31.88C181.205 32.2213 181.114 32.632 181.114 33.112C181.114 33.592 181.21 34.0133 181.402 34.376C181.594 34.7387 181.866 35.0213 182.218 35.224C182.57 35.416 182.976 35.512 183.434 35.512C183.829 35.512 184.192 35.4427 184.522 35.304C184.864 35.1653 185.152 34.9627 185.386 34.696L186.506 35.832C186.133 36.2693 185.68 36.6 185.146 36.824C184.613 37.048 184.048 37.16 183.45 37.16ZM190.941 37.16C190.514 37.16 190.104 37.1067 189.709 37C189.314 36.8827 188.952 36.7227 188.621 36.52C188.29 36.3067 188.002 36.0507 187.757 35.752L188.877 34.632C189.144 34.9413 189.448 35.176 189.789 35.336C190.141 35.4853 190.536 35.56 190.973 35.56C191.368 35.56 191.666 35.5013 191.869 35.384C192.072 35.2667 192.173 35.096 192.173 34.872C192.173 34.6373 192.077 34.456 191.885 34.328C191.693 34.2 191.442 34.0933 191.133 34.008C190.834 33.912 190.514 33.816 190.173 33.72C189.842 33.624 189.522 33.496 189.213 33.336C188.914 33.1653 188.669 32.936 188.477 32.648C188.285 32.36 188.189 31.9867 188.189 31.528C188.189 31.0373 188.301 30.616 188.525 30.264C188.76 29.912 189.085 29.64 189.501 29.448C189.928 29.256 190.434 29.16 191.021 29.16C191.64 29.16 192.184 29.272 192.653 29.496C193.133 29.7093 193.533 30.0347 193.853 30.472L192.733 31.592C192.509 31.3147 192.253 31.1067 191.965 30.968C191.677 30.8293 191.346 30.76 190.973 30.76C190.621 30.76 190.349 30.8133 190.157 30.92C189.965 31.0267 189.869 31.1813 189.869 31.384C189.869 31.5973 189.965 31.7627 190.157 31.88C190.349 31.9973 190.594 32.0987 190.893 32.184C191.202 32.2693 191.522 32.3653 191.853 32.472C192.194 32.568 192.514 32.7067 192.813 32.888C193.122 33.0587 193.373 33.2933 193.565 33.592C193.757 33.88 193.853 34.2587 193.853 34.728C193.853 35.4747 193.592 36.0667 193.069 36.504C192.546 36.9413 191.837 37.16 190.941 37.16ZM196.488 37.16C196.147 37.16 195.864 37.048 195.64 36.824C195.427 36.5893 195.32 36.3067 195.32 35.976C195.32 35.6347 195.427 35.352 195.64 35.128C195.864 34.904 196.147 34.792 196.488 34.792C196.829 34.792 197.107 34.904 197.32 35.128C197.544 35.352 197.656 35.6347 197.656 35.976C197.656 36.3067 197.544 36.5893 197.32 36.824C197.107 37.048 196.829 37.16 196.488 37.16ZM196.488 32.216C196.147 32.216 195.864 32.104 195.64 31.88C195.427 31.6453 195.32 31.3627 195.32 31.032C195.32 30.6907 195.427 30.408 195.64 30.184C195.864 29.96 196.147 29.848 196.488 29.848C196.829 29.848 197.107 29.96 197.32 30.184C197.544 30.408 197.656 30.6907 197.656 31.032C197.656 31.3627 197.544 31.6453 197.32 31.88C197.107 32.104 196.829 32.216 196.488 32.216Z" fill="#F1F2F4"/>
<path fill-rule="evenodd" clip-rule="evenodd" d="M41.4268 62H41.5732C43.3966 62 44.8664 62 46.0223 62.1554C47.2225 62.3167 48.233 62.6619 49.0355 63.4645C49.8381 64.267 50.1833 65.2775 50.3446 66.4777C50.5001 67.6336 50.5 69.1034 50.5 70.9269V71.0731C50.5 72.8966 50.5001 74.3664 50.3446 75.5223C50.1833 76.7225 49.8381 77.733 49.0355 78.5355C48.233 79.3381 47.2225 79.6833 46.0223 79.8446C44.8664 80.0001 43.3966 80 41.5731 80H41.4269C39.6034 80 38.1336 80.0001 36.9777 79.8446C35.7775 79.6833 34.767 79.3381 33.9645 78.5355C33.1619 77.733 32.8167 76.7225 32.6554 75.5223C32.5 74.3664 32.5 72.8966 32.5 71.0732V70.9268C32.5 69.1034 32.5 67.6336 32.6554 66.4777C32.8167 65.2775 33.1619 64.267 33.9645 63.4645C34.767 62.6619 35.7775 62.3167 36.9777 62.1554C38.1336 62 39.6034 62 41.4268 62ZM34.5 71C34.5 72.9139 34.5021 74.2487 34.6375 75.2558C34.7691 76.2342 35.0097 76.7523 35.3787 77.1213C35.7477 77.4903 36.2658 77.7309 37.2442 77.8625C38.2513 77.9979 39.5861 78 41.5 78C43.4139 78 44.7487 77.9979 45.7558 77.8625C46.7342 77.7309 47.2523 77.4903 47.6213 77.1213C47.9903 76.7523 48.2309 76.2342 48.3625 75.2558C48.4979 74.2487 48.5 72.9139 48.5 71C48.5 69.0861 48.4979 67.7513 48.3625 66.7442C48.2309 65.7658 47.9903 65.2477 47.6213 64.8787C47.2523 64.5097 46.7342 64.2691 45.7558 64.1375C44.7487 64.0021 43.4139 64 41.5 64C39.5861 64 38.2513 64.0021 37.2442 64.1375C36.2658 64.2691 35.7477 64.5097 35.3787 64.8787C35.0097 65.2477 34.7691 65.7658 34.6375 66.7442C34.5021 67.7513 34.5 69.0861 34.5 71Z" fill="#F1F2F4"/>
<path d="M63.98 72.248V70.728H66.812C67.3773 70.728 67.8147 70.584 68.124 70.296C68.444 69.9973 68.604 69.5867 68.604 69.064C68.604 68.5947 68.4493 68.2 68.14 67.88C67.8307 67.56 67.3933 67.4 66.828 67.4H63.98V65.8H66.908C67.612 65.8 68.2307 65.944 68.764 66.232C69.2973 66.5093 69.708 66.8933 69.996 67.384C70.2947 67.864 70.444 68.4133 70.444 69.032C70.444 69.6827 70.2947 70.248 69.996 70.728C69.708 71.208 69.2973 71.5813 68.764 71.848C68.2307 72.1147 67.612 72.248 66.908 72.248H63.98ZM62.716 77V65.8H64.556V77H62.716ZM68.86 77L64.94 72.136L66.652 71.512L71.18 77H68.86ZM75.6378 77.16C74.8698 77.16 74.1764 76.9893 73.5578 76.648C72.9498 76.296 72.4644 75.816 72.1018 75.208C71.7498 74.6 71.5738 73.9173 71.5738 73.16C71.5738 72.4027 71.7498 71.7253 72.1018 71.128C72.4538 70.52 72.9284 70.04 73.5258 69.688C74.1338 69.336 74.8058 69.16 75.5418 69.16C76.2564 69.16 76.8858 69.3253 77.4298 69.656C77.9844 69.9867 78.4164 70.44 78.7258 71.016C79.0458 71.592 79.2058 72.248 79.2058 72.984C79.2058 73.112 79.1951 73.2453 79.1737 73.384C79.1631 73.512 79.1418 73.656 79.1098 73.816H72.8058V72.376H78.1978L77.5418 72.952C77.5204 72.4827 77.4298 72.088 77.2698 71.768C77.1098 71.448 76.8804 71.2027 76.5818 71.032C76.2938 70.8613 75.9364 70.776 75.5098 70.776C75.0618 70.776 74.6724 70.872 74.3418 71.064C74.0111 71.256 73.7551 71.528 73.5738 71.88C73.3924 72.2213 73.3018 72.632 73.3018 73.112C73.3018 73.592 73.3978 74.0133 73.5898 74.376C73.7818 74.7387 74.0538 75.0213 74.4058 75.224C74.7578 75.416 75.1631 75.512 75.6218 75.512C76.0164 75.512 76.3791 75.4427 76.7098 75.304C77.0511 75.1653 77.3391 74.9627 77.5738 74.696L78.6938 75.832C78.3204 76.2693 77.8671 76.6 77.3338 76.824C76.8004 77.048 76.2351 77.16 75.6378 77.16ZM84.1526 77.16C83.3953 77.16 82.7073 76.984 82.0886 76.632C81.4806 76.28 81.0006 75.8 80.6486 75.192C80.2966 74.584 80.1206 73.9067 80.1206 73.16C80.1206 72.4027 80.2966 71.7253 80.6486 71.128C81.0006 70.52 81.4806 70.04 82.0886 69.688C82.7073 69.336 83.3953 69.16 84.1526 69.16C84.75 69.16 85.3046 69.2773 85.8166 69.512C86.3393 69.736 86.782 70.0613 87.1446 70.488L85.9926 71.656C85.7686 71.3893 85.4966 71.192 85.1766 71.064C84.8673 70.9253 84.526 70.856 84.1526 70.856C83.7153 70.856 83.326 70.9573 82.9846 71.16C82.654 71.352 82.3926 71.6187 82.2006 71.96C82.0193 72.3013 81.9286 72.7013 81.9286 73.16C81.9286 73.608 82.0193 74.008 82.2006 74.36C82.3926 74.7013 82.654 74.9733 82.9846 75.176C83.326 75.368 83.7153 75.464 84.1526 75.464C84.526 75.464 84.8673 75.4 85.1766 75.272C85.4966 75.1333 85.7686 74.9307 85.9926 74.664L87.1446 75.832C86.782 76.2587 86.3393 76.5893 85.8166 76.824C85.3046 77.048 84.75 77.16 84.1526 77.16ZM91.8253 77.16C91.0573 77.16 90.3639 76.9893 89.7453 76.648C89.1373 76.296 88.6519 75.816 88.2893 75.208C87.9373 74.6 87.7613 73.9173 87.7613 73.16C87.7613 72.4027 87.9373 71.7253 88.2893 71.128C88.6413 70.52 89.1159 70.04 89.7133 69.688C90.3213 69.336 90.9933 69.16 91.7293 69.16C92.4439 69.16 93.0733 69.3253 93.6173 69.656C94.1719 69.9867 94.6039 70.44 94.9133 71.016C95.2333 71.592 95.3933 72.248 95.3933 72.984C95.3933 73.112 95.3826 73.2453 95.3612 73.384C95.3506 73.512 95.3293 73.656 95.2973 73.816H88.9933V72.376H94.3853L93.7293 72.952C93.7079 72.4827 93.6173 72.088 93.4573 71.768C93.2973 71.448 93.0679 71.2027 92.7693 71.032C92.4813 70.8613 92.1239 70.776 91.6973 70.776C91.2493 70.776 90.8599 70.872 90.5293 71.064C90.1986 71.256 89.9426 71.528 89.7613 71.88C89.5799 72.2213 89.4893 72.632 89.4893 73.112C89.4893 73.592 89.5853 74.0133 89.7773 74.376C89.9693 74.7387 90.2413 75.0213 90.5933 75.224C90.9453 75.416 91.3506 75.512 91.8093 75.512C92.2039 75.512 92.5666 75.4427 92.8973 75.304C93.2386 75.1653 93.5266 74.9627 93.7613 74.696L94.8813 75.832C94.5079 76.2693 94.0546 76.6 93.5213 76.824C92.9879 77.048 92.4226 77.16 91.8253 77.16ZM96.8201 77V69.32H98.5801V77H96.8201ZM97.7001 67.912C97.4015 67.912 97.1508 67.8107 96.9481 67.608C96.7561 67.4053 96.6601 67.1547 96.6601 66.856C96.6601 66.5573 96.7561 66.3067 96.9481 66.104C97.1508 65.9013 97.4015 65.8 97.7001 65.8C98.0095 65.8 98.2601 65.9013 98.4521 66.104C98.6441 66.3067 98.7401 66.5573 98.7401 66.856C98.7401 67.1547 98.6441 67.4053 98.4521 67.608C98.2601 67.8107 98.0095 67.912 97.7001 67.912ZM103.146 77L99.6421 69.32H101.594L104.266 75.576H103.114L105.802 69.32H107.674L104.17 77H103.146ZM112.013 77.16C111.245 77.16 110.551 76.9893 109.933 76.648C109.325 76.296 108.839 75.816 108.477 75.208C108.125 74.6 107.949 73.9173 107.949 73.16C107.949 72.4027 108.125 71.7253 108.477 71.128C108.829 70.52 109.303 70.04 109.901 69.688C110.509 69.336 111.181 69.16 111.917 69.16C112.631 69.16 113.261 69.3253 113.805 69.656C114.359 69.9867 114.791 70.44 115.101 71.016C115.421 71.592 115.581 72.248 115.581 72.984C115.581 73.112 115.57 73.2453 115.549 73.384C115.538 73.512 115.517 73.656 115.485 73.816H109.181V72.376H114.573L113.917 72.952C113.895 72.4827 113.805 72.088 113.645 71.768C113.485 71.448 113.255 71.2027 112.957 71.032C112.669 70.8613 112.311 70.776 111.885 70.776C111.437 70.776 111.047 70.872 110.717 71.064C110.386 71.256 110.13 71.528 109.949 71.88C109.767 72.2213 109.677 72.632 109.677 73.112C109.677 73.592 109.773 74.0133 109.965 74.376C110.157 74.7387 110.429 75.0213 110.781 75.224C111.133 75.416 111.538 75.512 111.997 75.512C112.391 75.512 112.754 75.4427 113.085 75.304C113.426 75.1653 113.714 74.9627 113.949 74.696L115.069 75.832C114.695 76.2693 114.242 76.6 113.709 76.824C113.175 77.048 112.61 77.16 112.013 77.16ZM123.763 77.16C122.995 77.16 122.301 76.9893 121.683 76.648C121.075 76.296 120.589 75.816 120.227 75.208C119.875 74.6 119.699 73.9173 119.699 73.16C119.699 72.4027 119.875 71.7253 120.227 71.128C120.579 70.52 121.053 70.04 121.651 69.688C122.259 69.336 122.931 69.16 123.667 69.16C124.381 69.16 125.011 69.3253 125.555 69.656C126.109 69.9867 126.541 70.44 126.851 71.016C127.171 71.592 127.331 72.248 127.331 72.984C127.331 73.112 127.32 73.2453 127.299 73.384C127.288 73.512 127.267 73.656 127.235 73.816H120.931V72.376H126.323L125.667 72.952C125.645 72.4827 125.555 72.088 125.395 71.768C125.235 71.448 125.005 71.2027 124.707 71.032C124.419 70.8613 124.061 70.776 123.635 70.776C123.187 70.776 122.797 70.872 122.467 71.064C122.136 71.256 121.88 71.528 121.699 71.88C121.517 72.2213 121.427 72.632 121.427 73.112C121.427 73.592 121.523 74.0133 121.715 74.376C121.907 74.7387 122.179 75.0213 122.531 75.224C122.883 75.416 123.288 75.512 123.747 75.512C124.141 75.512 124.504 75.4427 124.835 75.304C125.176 75.1653 125.464 74.9627 125.699 74.696L126.819 75.832C126.445 76.2693 125.992 76.6 125.459 76.824C124.925 77.048 124.36 77.16 123.763 77.16ZM128.742 77V69.32H130.502V77H128.742ZM133.846 77V72.424C133.846 71.912 133.686 71.5173 133.366 71.24C133.046 70.952 132.651 70.808 132.182 70.808C131.862 70.808 131.574 70.872 131.318 71C131.072 71.128 130.875 71.3147 130.726 71.56C130.576 71.7947 130.502 72.0827 130.502 72.424L129.814 72.04C129.814 71.4533 129.942 70.9467 130.198 70.52C130.454 70.0933 130.8 69.7627 131.238 69.528C131.675 69.2827 132.166 69.16 132.71 69.16C133.254 69.16 133.744 69.2773 134.182 69.512C134.619 69.7467 134.966 70.0773 135.222 70.504C135.478 70.9307 135.606 71.4427 135.606 72.04V77H133.846ZM138.95 77V72.424C138.95 71.912 138.79 71.5173 138.47 71.24C138.15 70.952 137.755 70.808 137.286 70.808C136.976 70.808 136.694 70.872 136.438 71C136.182 71.128 135.979 71.3147 135.83 71.56C135.68 71.7947 135.606 72.0827 135.606 72.424L134.614 72.04C134.667 71.4533 134.838 70.9467 135.126 70.52C135.414 70.0933 135.782 69.7627 136.23 69.528C136.688 69.2827 137.19 69.16 137.734 69.16C138.288 69.16 138.79 69.2773 139.238 69.512C139.686 69.7467 140.043 70.0773 140.31 70.504C140.576 70.9307 140.71 71.4427 140.71 72.04V77H138.95ZM145.739 77.16C145.046 77.16 144.416 76.984 143.851 76.632C143.296 76.28 142.854 75.8053 142.523 75.208C142.203 74.6 142.043 73.9227 142.043 73.176C142.043 72.4187 142.203 71.7413 142.523 71.144C142.854 70.536 143.296 70.056 143.851 69.704C144.416 69.3413 145.046 69.16 145.739 69.16C146.326 69.16 146.843 69.288 147.291 69.544C147.75 69.7893 148.112 70.1307 148.379 70.568C148.646 71.0053 148.779 71.5013 148.779 72.056V74.264C148.779 74.8187 148.646 75.3147 148.379 75.752C148.123 76.1893 147.766 76.536 147.307 76.792C146.848 77.0373 146.326 77.16 145.739 77.16ZM146.027 75.496C146.678 75.496 147.2 75.2773 147.595 74.84C148 74.4027 148.203 73.8427 148.203 73.16C148.203 72.7013 148.112 72.296 147.931 71.944C147.75 71.592 147.494 71.32 147.163 71.128C146.843 70.9253 146.464 70.824 146.027 70.824C145.6 70.824 145.222 70.9253 144.891 71.128C144.571 71.32 144.315 71.592 144.123 71.944C143.942 72.296 143.851 72.7013 143.851 73.16C143.851 73.6187 143.942 74.024 144.123 74.376C144.315 74.728 144.571 75.0053 144.891 75.208C145.222 75.4 145.6 75.496 146.027 75.496ZM148.091 77V74.936L148.395 73.064L148.091 71.208V69.32H149.851V77H148.091ZM151.82 77V69.32H153.58V77H151.82ZM152.7 67.912C152.401 67.912 152.151 67.8107 151.948 67.608C151.756 67.4053 151.66 67.1547 151.66 66.856C151.66 66.5573 151.756 66.3067 151.948 66.104C152.151 65.9013 152.401 65.8 152.7 65.8C153.009 65.8 153.26 65.9013 153.452 66.104C153.644 66.3067 153.74 66.5573 153.74 66.856C153.74 67.1547 153.644 67.4053 153.452 67.608C153.26 67.8107 153.009 67.912 152.7 67.912ZM155.554 77V65.48H157.314V77H155.554ZM167.74 77V72.568C167.74 72.056 167.575 71.6347 167.244 71.304C166.924 70.9733 166.508 70.808 165.996 70.808C165.655 70.808 165.351 70.8827 165.084 71.032C164.817 71.1813 164.609 71.3893 164.46 71.656C164.311 71.9227 164.236 72.2267 164.236 72.568L163.548 72.184C163.548 71.5973 163.676 71.08 163.932 70.632C164.188 70.1733 164.54 69.816 164.988 69.56C165.447 69.2933 165.959 69.16 166.524 69.16C167.1 69.16 167.612 69.3093 168.06 69.608C168.508 69.896 168.86 70.2747 169.116 70.744C169.372 71.2027 169.5 71.6827 169.5 72.184V77H167.74ZM162.476 77V69.32H164.236V77H162.476ZM174.809 77.16C174.062 77.16 173.385 76.984 172.777 76.632C172.169 76.2693 171.683 75.784 171.321 75.176C170.969 74.568 170.793 73.8907 170.793 73.144C170.793 72.3973 170.969 71.7253 171.321 71.128C171.683 70.5307 172.169 70.056 172.777 69.704C173.385 69.3413 174.062 69.16 174.809 69.16C175.566 69.16 176.249 69.336 176.857 69.688C177.465 70.04 177.945 70.52 178.297 71.128C178.659 71.7253 178.841 72.3973 178.841 73.144C178.841 73.8907 178.659 74.568 178.297 75.176C177.945 75.784 177.465 76.2693 176.857 76.632C176.249 76.984 175.566 77.16 174.809 77.16ZM174.809 75.464C175.246 75.464 175.63 75.368 175.961 75.176C176.302 74.9733 176.563 74.696 176.745 74.344C176.937 73.992 177.033 73.592 177.033 73.144C177.033 72.696 176.937 72.3013 176.745 71.96C176.553 71.6187 176.291 71.352 175.961 71.16C175.63 70.9573 175.246 70.856 174.809 70.856C174.382 70.856 173.998 70.9573 173.657 71.16C173.326 71.352 173.065 71.6187 172.873 71.96C172.691 72.3013 172.601 72.696 172.601 73.144C172.601 73.592 172.691 73.992 172.873 74.344C173.065 74.696 173.326 74.9733 173.657 75.176C173.998 75.368 174.382 75.464 174.809 75.464ZM181.253 77V66.12H183.013V77H181.253ZM179.413 70.92V69.32H184.853V70.92H179.413ZM186.148 77V69.32H187.908V77H186.148ZM187.028 67.912C186.73 67.912 186.479 67.8107 186.276 67.608C186.084 67.4053 185.988 67.1547 185.988 66.856C185.988 66.5573 186.084 66.3067 186.276 66.104C186.479 65.9013 186.73 65.8 187.028 65.8C187.338 65.8 187.588 65.9013 187.78 66.104C187.972 66.3067 188.068 66.5573 188.068 66.856C188.068 67.1547 187.972 67.4053 187.78 67.608C187.588 67.8107 187.338 67.912 187.028 67.912ZM190.938 77V67.992C190.938 67.48 191.05 67.0267 191.274 66.632C191.509 66.2267 191.829 65.9067 192.234 65.672C192.64 65.4373 193.114 65.32 193.658 65.32C194.064 65.32 194.416 65.3893 194.714 65.528C195.024 65.656 195.312 65.8427 195.578 66.088L194.426 67.24C194.32 67.1547 194.202 67.0907 194.074 67.048C193.957 66.9947 193.818 66.968 193.658 66.968C193.349 66.968 193.109 67.0587 192.938 67.24C192.778 67.4213 192.698 67.6667 192.698 67.976V77H190.938ZM189.098 70.92V69.32H196.586V70.92H189.098ZM195.578 77V69.32H197.338V77H195.578ZM196.458 68.648C196.16 68.648 195.909 68.5467 195.706 68.344C195.514 68.1413 195.418 67.8907 195.418 67.592C195.418 67.2933 195.514 67.0427 195.706 66.84C195.909 66.6373 196.16 66.536 196.458 66.536C196.768 66.536 197.018 66.6373 197.21 66.84C197.402 67.0427 197.498 67.2933 197.498 67.592C197.498 67.8907 197.402 68.1413 197.21 68.344C197.018 68.5467 196.768 68.648 196.458 68.648ZM202.84 77.16C202.083 77.16 201.395 76.984 200.776 76.632C200.168 76.28 199.688 75.8 199.336 75.192C198.984 74.584 198.808 73.9067 198.808 73.16C198.808 72.4027 198.984 71.7253 199.336 71.128C199.688 70.52 200.168 70.04 200.776 69.688C201.395 69.336 202.083 69.16 202.84 69.16C203.437 69.16 203.992 69.2773 204.504 69.512C205.027 69.736 205.469 70.0613 205.832 70.488L204.68 71.656C204.456 71.3893 204.184 71.192 203.864 71.064C203.555 70.9253 203.213 70.856 202.84 70.856C202.403 70.856 202.013 70.9573 201.672 71.16C201.341 71.352 201.08 71.6187 200.888 71.96C200.707 72.3013 200.616 72.7013 200.616 73.16C200.616 73.608 200.707 74.008 200.888 74.36C201.08 74.7013 201.341 74.9733 201.672 75.176C202.013 75.368 202.403 75.464 202.84 75.464C203.213 75.464 203.555 75.4 203.864 75.272C204.184 75.1333 204.456 74.9307 204.68 74.664L205.832 75.832C205.469 76.2587 205.027 76.5893 204.504 76.824C203.992 77.048 203.437 77.16 202.84 77.16ZM210.161 77.16C209.467 77.16 208.838 76.984 208.273 76.632C207.718 76.28 207.275 75.8053 206.945 75.208C206.625 74.6 206.465 73.9227 206.465 73.176C206.465 72.4187 206.625 71.7413 206.945 71.144C207.275 70.536 207.718 70.056 208.273 69.704C208.838 69.3413 209.467 69.16 210.161 69.16C210.747 69.16 211.265 69.288 211.713 69.544C212.171 69.7893 212.534 70.1307 212.801 70.568C213.067 71.0053 213.201 71.5013 213.201 72.056V74.264C213.201 74.8187 213.067 75.3147 212.801 75.752C212.545 76.1893 212.187 76.536 211.729 76.792C211.27 77.0373 210.747 77.16 210.161 77.16ZM210.449 75.496C211.099 75.496 211.622 75.2773 212.017 74.84C212.422 74.4027 212.625 73.8427 212.625 73.16C212.625 72.7013 212.534 72.296 212.353 71.944C212.171 71.592 211.915 71.32 211.585 71.128C211.265 70.9253 210.886 70.824 210.449 70.824C210.022 70.824 209.643 70.9253 209.313 71.128C208.993 71.32 208.737 71.592 208.545 71.944C208.363 72.296 208.273 72.7013 208.273 73.16C208.273 73.6187 208.363 74.024 208.545 74.376C208.737 74.728 208.993 75.0053 209.313 75.208C209.643 75.4 210.022 75.496 210.449 75.496ZM212.513 77V74.936L212.817 73.064L212.513 71.208V69.32H214.273V77H212.513ZM217.394 77V66.12H219.154V77H217.394ZM215.554 70.92V69.32H220.994V70.92H215.554ZM222.289 77V69.32H224.049V77H222.289ZM223.169 67.912C222.87 67.912 222.62 67.8107 222.417 67.608C222.225 67.4053 222.129 67.1547 222.129 66.856C222.129 66.5573 222.225 66.3067 222.417 66.104C222.62 65.9013 222.87 65.8 223.169 65.8C223.478 65.8 223.729 65.9013 223.921 66.104C224.113 66.3067 224.209 66.5573 224.209 66.856C224.209 67.1547 224.113 67.4053 223.921 67.608C223.729 67.8107 223.478 67.912 223.169 67.912ZM229.543 77.16C228.796 77.16 228.119 76.984 227.511 76.632C226.903 76.2693 226.418 75.784 226.055 75.176C225.703 74.568 225.527 73.8907 225.527 73.144C225.527 72.3973 225.703 71.7253 226.055 71.128C226.418 70.5307 226.903 70.056 227.511 69.704C228.119 69.3413 228.796 69.16 229.543 69.16C230.3 69.16 230.983 69.336 231.591 69.688C232.199 70.04 232.679 70.52 233.031 71.128C233.394 71.7253 233.575 72.3973 233.575 73.144C233.575 73.8907 233.394 74.568 233.031 75.176C232.679 75.784 232.199 76.2693 231.591 76.632C230.983 76.984 230.3 77.16 229.543 77.16ZM229.543 75.464C229.98 75.464 230.364 75.368 230.695 75.176C231.036 74.9733 231.298 74.696 231.479 74.344C231.671 73.992 231.767 73.592 231.767 73.144C231.767 72.696 231.671 72.3013 231.479 71.96C231.287 71.6187 231.026 71.352 230.695 71.16C230.364 70.9573 229.98 70.856 229.543 70.856C229.116 70.856 228.732 70.9573 228.391 71.16C228.06 71.352 227.799 71.6187 227.607 71.96C227.426 72.3013 227.335 72.696 227.335 73.144C227.335 73.592 227.426 73.992 227.607 74.344C227.799 74.696 228.06 74.9733 228.391 75.176C228.732 75.368 229.116 75.464 229.543 75.464ZM240.303 77V72.568C240.303 72.056 240.137 71.6347 239.807 71.304C239.487 70.9733 239.071 70.808 238.559 70.808C238.217 70.808 237.913 70.8827 237.647 71.032C237.38 71.1813 237.172 71.3893 237.023 71.656C236.873 71.9227 236.799 72.2267 236.799 72.568L236.111 72.184C236.111 71.5973 236.239 71.08 236.495 70.632C236.751 70.1733 237.103 69.816 237.551 69.56C238.009 69.2933 238.521 69.16 239.087 69.16C239.663 69.16 240.175 69.3093 240.623 69.608C241.071 69.896 241.423 70.2747 241.679 70.744C241.935 71.2027 242.062 71.6827 242.062 72.184V77H240.303ZM235.039 77V69.32H236.799V77H235.039ZM246.363 77.16C245.936 77.16 245.526 77.1067 245.131 77C244.736 76.8827 244.374 76.7227 244.043 76.52C243.712 76.3067 243.424 76.0507 243.179 75.752L244.299 74.632C244.566 74.9413 244.87 75.176 245.211 75.336C245.563 75.4853 245.958 75.56 246.395 75.56C246.79 75.56 247.088 75.5013 247.291 75.384C247.494 75.2667 247.595 75.096 247.595 74.872C247.595 74.6373 247.499 74.456 247.307 74.328C247.115 74.2 246.864 74.0933 246.555 74.008C246.256 73.912 245.936 73.816 245.595 73.72C245.264 73.624 244.944 73.496 244.635 73.336C244.336 73.1653 244.091 72.936 243.899 72.648C243.707 72.36 243.611 71.9867 243.611 71.528C243.611 71.0373 243.723 70.616 243.947 70.264C244.182 69.912 244.507 69.64 244.923 69.448C245.35 69.256 245.856 69.16 246.443 69.16C247.062 69.16 247.606 69.272 248.075 69.496C248.555 69.7093 248.955 70.0347 249.275 70.472L248.155 71.592C247.931 71.3147 247.675 71.1067 247.387 70.968C247.099 70.8293 246.768 70.76 246.395 70.76C246.043 70.76 245.771 70.8133 245.579 70.92C245.387 71.0267 245.291 71.1813 245.291 71.384C245.291 71.5973 245.387 71.7627 245.579 71.88C245.771 71.9973 246.016 72.0987 246.315 72.184C246.624 72.2693 246.944 72.3653 247.275 72.472C247.616 72.568 247.936 72.7067 248.235 72.888C248.544 73.0587 248.795 73.2933 248.987 73.592C249.179 73.88 249.275 74.2587 249.275 74.728C249.275 75.4747 249.014 76.0667 248.491 76.504C247.968 76.9413 247.259 77.16 246.363 77.16Z" fill="#F1F2F4"/>
<path fill-rule="evenodd" clip-rule="evenodd" d="M41.5732 102H41.4268C39.6034 102 38.1336 102 36.9777 102.155C35.7775 102.317 34.767 102.662 33.9645 103.464C33.1619 104.267 32.8167 105.278 32.6554 106.478C32.5 107.634 32.5 109.103 32.5 110.927V111.073C32.5 112.897 32.5 114.366 32.6554 115.522C32.8167 116.722 33.1619 117.733 33.9645 118.536C34.767 119.338 35.7775 119.683 36.9777 119.845C38.1336 120 39.6034 120 41.4269 120H41.5731C43.3966 120 44.8664 120 46.0223 119.845C47.2225 119.683 48.233 119.338 49.0355 118.536C49.8381 117.733 50.1833 116.722 50.3446 115.522C50.5001 114.366 50.5 112.897 50.5 111.073V110.927C50.5 109.103 50.5001 107.634 50.3446 106.478C50.1833 105.278 49.8381 104.267 49.0355 103.464C48.233 102.662 47.2225 102.317 46.0223 102.155C44.8664 102 43.3966 102 41.5732 102ZM46.4403 109.724C46.8399 109.342 46.8548 108.709 46.4736 108.31C46.0923 107.91 45.4593 107.895 45.0597 108.276L40.2474 112.867L38.1909 110.902C37.7916 110.52 37.1586 110.535 36.777 110.934C36.3955 111.333 36.4098 111.966 36.8091 112.348L39.5559 114.973C39.9422 115.342 40.5505 115.342 40.9371 114.974L46.4403 109.724Z" fill="#6061EE"/>
<path d="M65.836 117.16C64.9507 117.16 64.1987 117 63.58 116.68C62.9613 116.36 62.4067 115.891 61.916 115.272L63.164 114.024C63.4733 114.472 63.8413 114.824 64.268 115.08C64.6947 115.325 65.2387 115.448 65.9 115.448C66.5187 115.448 67.0093 115.32 67.372 115.064C67.7453 114.808 67.932 114.456 67.932 114.008C67.932 113.635 67.836 113.331 67.644 113.096C67.452 112.861 67.196 112.669 66.876 112.52C66.5667 112.36 66.22 112.221 65.836 112.104C65.4627 111.976 65.084 111.837 64.7 111.688C64.3267 111.528 63.98 111.331 63.66 111.096C63.3507 110.861 63.1 110.557 62.908 110.184C62.716 109.811 62.62 109.336 62.62 108.76C62.62 108.099 62.78 107.539 63.1 107.08C63.4307 106.611 63.8733 106.253 64.428 106.008C64.9827 105.763 65.6013 105.64 66.284 105.64C67.02 105.64 67.676 105.784 68.252 106.072C68.8387 106.36 69.3133 106.728 69.676 107.176L68.428 108.424C68.108 108.061 67.772 107.795 67.42 107.624C67.0787 107.443 66.684 107.352 66.236 107.352C65.6813 107.352 65.244 107.464 64.924 107.688C64.6147 107.912 64.46 108.227 64.46 108.632C64.46 108.973 64.556 109.251 64.748 109.464C64.94 109.667 65.1907 109.843 65.5 109.992C65.82 110.131 66.1667 110.264 66.54 110.392C66.924 110.52 67.3027 110.664 67.676 110.824C68.06 110.984 68.4067 111.192 68.716 111.448C69.036 111.693 69.292 112.013 69.484 112.408C69.676 112.803 69.772 113.299 69.772 113.896C69.772 114.899 69.4147 115.693 68.7 116.28C67.996 116.867 67.0413 117.16 65.836 117.16ZM74.5186 117.16C73.868 117.16 73.2866 117.016 72.7746 116.728C72.2733 116.44 71.8786 116.045 71.5906 115.544C71.3133 115.032 71.1746 114.445 71.1746 113.784V109.32H72.9346V113.704C72.9346 114.077 72.9933 114.397 73.1106 114.664C73.2386 114.92 73.42 115.117 73.6546 115.256C73.9 115.395 74.188 115.464 74.5186 115.464C75.0306 115.464 75.42 115.315 75.6866 115.016C75.964 114.707 76.1026 114.269 76.1026 113.704V109.32H77.8626V113.784C77.8626 114.456 77.7186 115.048 77.4306 115.56C77.1533 116.061 76.764 116.456 76.2626 116.744C75.7613 117.021 75.18 117.16 74.5186 117.16ZM83.7443 117.16C83.1576 117.16 82.6349 117.037 82.1763 116.792C81.7176 116.536 81.3549 116.189 81.0883 115.752C80.8323 115.315 80.7043 114.819 80.7043 114.264V112.056C80.7043 111.501 80.8376 111.005 81.1043 110.568C81.3709 110.131 81.7336 109.789 82.1923 109.544C82.6509 109.288 83.1683 109.16 83.7443 109.16C84.4376 109.16 85.0616 109.341 85.6163 109.704C86.1816 110.056 86.6243 110.536 86.9443 111.144C87.2749 111.741 87.4403 112.419 87.4403 113.176C87.4403 113.923 87.2749 114.6 86.9443 115.208C86.6243 115.805 86.1816 116.28 85.6163 116.632C85.0616 116.984 84.4376 117.16 83.7443 117.16ZM79.6323 117V105.48H81.3923V111.208L81.0883 113.064L81.3923 114.936V117H79.6323ZM83.4563 115.496C83.8829 115.496 84.2563 115.4 84.5763 115.208C84.9069 115.005 85.1629 114.728 85.3443 114.376C85.5363 114.024 85.6323 113.619 85.6323 113.16C85.6323 112.701 85.5363 112.296 85.3443 111.944C85.1629 111.592 84.9069 111.32 84.5763 111.128C84.2563 110.925 83.8829 110.824 83.4563 110.824C83.0296 110.824 82.6509 110.925 82.3203 111.128C81.9896 111.32 81.7336 111.592 81.5523 111.944C81.3709 112.296 81.2803 112.701 81.2803 113.16C81.2803 113.619 81.3709 114.024 81.5523 114.376C81.7336 114.728 81.9896 115.005 82.3203 115.208C82.6509 115.4 83.0296 115.496 83.4563 115.496ZM91.4255 117.16C90.9988 117.16 90.5882 117.107 90.1935 117C89.7988 116.883 89.4362 116.723 89.1055 116.52C88.7748 116.307 88.4868 116.051 88.2415 115.752L89.3615 114.632C89.6282 114.941 89.9322 115.176 90.2735 115.336C90.6255 115.485 91.0202 115.56 91.4575 115.56C91.8522 115.56 92.1508 115.501 92.3535 115.384C92.5562 115.267 92.6575 115.096 92.6575 114.872C92.6575 114.637 92.5615 114.456 92.3695 114.328C92.1775 114.2 91.9268 114.093 91.6175 114.008C91.3188 113.912 90.9988 113.816 90.6575 113.72C90.3268 113.624 90.0068 113.496 89.6975 113.336C89.3988 113.165 89.1535 112.936 88.9615 112.648C88.7695 112.36 88.6735 111.987 88.6735 111.528C88.6735 111.037 88.7855 110.616 89.0095 110.264C89.2442 109.912 89.5695 109.64 89.9855 109.448C90.4122 109.256 90.9188 109.16 91.5055 109.16C92.1242 109.16 92.6682 109.272 93.1375 109.496C93.6175 109.709 94.0175 110.035 94.3375 110.472L93.2175 111.592C92.9935 111.315 92.7375 111.107 92.4495 110.968C92.1615 110.829 91.8308 110.76 91.4575 110.76C91.1055 110.76 90.8335 110.813 90.6415 110.92C90.4495 111.027 90.3535 111.181 90.3535 111.384C90.3535 111.597 90.4495 111.763 90.6415 111.88C90.8335 111.997 91.0788 112.099 91.3775 112.184C91.6868 112.269 92.0068 112.365 92.3375 112.472C92.6788 112.568 92.9988 112.707 93.2975 112.888C93.6068 113.059 93.8575 113.293 94.0495 113.592C94.2415 113.88 94.3375 114.259 94.3375 114.728C94.3375 115.475 94.0762 116.067 93.5535 116.504C93.0308 116.941 92.3215 117.16 91.4255 117.16ZM99.3245 117.16C98.5672 117.16 97.8792 116.984 97.2605 116.632C96.6525 116.28 96.1725 115.8 95.8205 115.192C95.4685 114.584 95.2925 113.907 95.2925 113.16C95.2925 112.403 95.4685 111.725 95.8205 111.128C96.1725 110.52 96.6525 110.04 97.2605 109.688C97.8792 109.336 98.5672 109.16 99.3245 109.16C99.9218 109.16 100.477 109.277 100.989 109.512C101.511 109.736 101.954 110.061 102.317 110.488L101.165 111.656C100.941 111.389 100.669 111.192 100.349 111.064C100.039 110.925 99.6978 110.856 99.3245 110.856C98.8872 110.856 98.4978 110.957 98.1565 111.16C97.8258 111.352 97.5645 111.619 97.3725 111.96C97.1912 112.301 97.1005 112.701 97.1005 113.16C97.1005 113.608 97.1912 114.008 97.3725 114.36C97.5645 114.701 97.8258 114.973 98.1565 115.176C98.4978 115.368 98.8872 115.464 99.3245 115.464C99.6978 115.464 100.039 115.4 100.349 115.272C100.669 115.133 100.941 114.931 101.165 114.664L102.317 115.832C101.954 116.259 101.511 116.589 100.989 116.824C100.477 117.048 99.9218 117.16 99.3245 117.16ZM103.585 117V109.32H105.345V117H103.585ZM105.345 112.728L104.737 112.424C104.737 111.453 104.951 110.669 105.377 110.072C105.815 109.464 106.471 109.16 107.345 109.16C107.729 109.16 108.076 109.229 108.385 109.368C108.695 109.507 108.983 109.731 109.249 110.04L108.097 111.224C107.959 111.075 107.804 110.968 107.633 110.904C107.463 110.84 107.265 110.808 107.041 110.808C106.551 110.808 106.145 110.963 105.825 111.272C105.505 111.581 105.345 112.067 105.345 112.728ZM110.117 117V109.32H111.877V117H110.117ZM110.997 107.912C110.698 107.912 110.448 107.811 110.245 107.608C110.053 107.405 109.957 107.155 109.957 106.856C109.957 106.557 110.053 106.307 110.245 106.104C110.448 105.901 110.698 105.8 110.997 105.8C111.306 105.8 111.557 105.901 111.749 106.104C111.941 106.307 112.037 106.557 112.037 106.856C112.037 107.155 111.941 107.405 111.749 107.608C111.557 107.811 111.306 107.912 110.997 107.912ZM117.963 117.16C117.376 117.16 116.854 117.037 116.395 116.792C115.936 116.536 115.574 116.189 115.307 115.752C115.051 115.315 114.923 114.819 114.923 114.264V112.056C114.923 111.501 115.056 111.005 115.323 110.568C115.59 110.131 115.952 109.789 116.411 109.544C116.87 109.288 117.387 109.16 117.963 109.16C118.656 109.16 119.28 109.341 119.835 109.704C120.4 110.056 120.843 110.536 121.163 111.144C121.494 111.741 121.659 112.419 121.659 113.176C121.659 113.923 121.494 114.6 121.163 115.208C120.843 115.805 120.4 116.28 119.835 116.632C119.28 116.984 118.656 117.16 117.963 117.16ZM113.851 117V105.48H115.611V111.208L115.307 113.064L115.611 114.936V117H113.851ZM117.675 115.496C118.102 115.496 118.475 115.4 118.795 115.208C119.126 115.005 119.382 114.728 119.563 114.376C119.755 114.024 119.851 113.619 119.851 113.16C119.851 112.701 119.755 112.296 119.563 111.944C119.382 111.592 119.126 111.32 118.795 111.128C118.475 110.925 118.102 110.824 117.675 110.824C117.248 110.824 116.87 110.925 116.539 111.128C116.208 111.32 115.952 111.592 115.771 111.944C115.59 112.296 115.499 112.701 115.499 113.16C115.499 113.619 115.59 114.024 115.771 114.376C115.952 114.728 116.208 115.005 116.539 115.208C116.87 115.4 117.248 115.496 117.675 115.496ZM126.7 117.16C125.932 117.16 125.239 116.989 124.62 116.648C124.012 116.296 123.527 115.816 123.164 115.208C122.812 114.6 122.636 113.917 122.636 113.16C122.636 112.403 122.812 111.725 123.164 111.128C123.516 110.52 123.991 110.04 124.588 109.688C125.196 109.336 125.868 109.16 126.604 109.16C127.319 109.16 127.948 109.325 128.492 109.656C129.047 109.987 129.479 110.44 129.788 111.016C130.108 111.592 130.268 112.248 130.268 112.984C130.268 113.112 130.258 113.245 130.236 113.384C130.226 113.512 130.204 113.656 130.172 113.816H123.868V112.376H129.26L128.604 112.952C128.583 112.483 128.492 112.088 128.332 111.768C128.172 111.448 127.943 111.203 127.644 111.032C127.356 110.861 126.999 110.776 126.572 110.776C126.124 110.776 125.735 110.872 125.404 111.064C125.074 111.256 124.818 111.528 124.636 111.88C124.455 112.221 124.364 112.632 124.364 113.112C124.364 113.592 124.46 114.013 124.652 114.376C124.844 114.739 125.116 115.021 125.468 115.224C125.82 115.416 126.226 115.512 126.684 115.512C127.079 115.512 127.442 115.443 127.772 115.304C128.114 115.165 128.402 114.963 128.636 114.696L129.756 115.832C129.383 116.269 128.93 116.6 128.396 116.824C127.863 117.048 127.298 117.16 126.7 117.16ZM136.05 117V106.12H137.81V117H136.05ZM134.21 110.92V109.32H139.65V110.92H134.21ZM144.23 117.16C143.484 117.16 142.806 116.984 142.198 116.632C141.59 116.269 141.105 115.784 140.742 115.176C140.39 114.568 140.214 113.891 140.214 113.144C140.214 112.397 140.39 111.725 140.742 111.128C141.105 110.531 141.59 110.056 142.198 109.704C142.806 109.341 143.484 109.16 144.23 109.16C144.988 109.16 145.67 109.336 146.278 109.688C146.886 110.04 147.366 110.52 147.718 111.128C148.081 111.725 148.262 112.397 148.262 113.144C148.262 113.891 148.081 114.568 147.718 115.176C147.366 115.784 146.886 116.269 146.278 116.632C145.67 116.984 144.988 117.16 144.23 117.16ZM144.23 115.464C144.668 115.464 145.052 115.368 145.382 115.176C145.724 114.973 145.985 114.696 146.166 114.344C146.358 113.992 146.454 113.592 146.454 113.144C146.454 112.696 146.358 112.301 146.166 111.96C145.974 111.619 145.713 111.352 145.382 111.16C145.052 110.957 144.668 110.856 144.23 110.856C143.804 110.856 143.42 110.957 143.078 111.16C142.748 111.352 142.486 111.619 142.294 111.96C142.113 112.301 142.022 112.696 142.022 113.144C142.022 113.592 142.113 113.992 142.294 114.344C142.486 114.696 142.748 114.973 143.078 115.176C143.42 115.368 143.804 115.464 144.23 115.464ZM158.193 117V112.568C158.193 112.056 158.028 111.635 157.697 111.304C157.377 110.973 156.961 110.808 156.449 110.808C156.108 110.808 155.804 110.883 155.537 111.032C155.27 111.181 155.062 111.389 154.913 111.656C154.764 111.923 154.689 112.227 154.689 112.568L154.001 112.184C154.001 111.597 154.129 111.08 154.385 110.632C154.641 110.173 154.993 109.816 155.441 109.56C155.9 109.293 156.412 109.16 156.977 109.16C157.553 109.16 158.065 109.309 158.513 109.608C158.961 109.896 159.313 110.275 159.569 110.744C159.825 111.203 159.953 111.683 159.953 112.184V117H158.193ZM152.929 117V109.32H154.689V117H152.929ZM165.31 117.16C164.542 117.16 163.848 116.989 163.23 116.648C162.622 116.296 162.136 115.816 161.774 115.208C161.422 114.6 161.246 113.917 161.246 113.16C161.246 112.403 161.422 111.725 161.774 111.128C162.126 110.52 162.6 110.04 163.198 109.688C163.806 109.336 164.478 109.16 165.214 109.16C165.928 109.16 166.558 109.325 167.102 109.656C167.656 109.987 168.088 110.44 168.398 111.016C168.718 111.592 168.878 112.248 168.878 112.984C168.878 113.112 168.867 113.245 168.846 113.384C168.835 113.512 168.814 113.656 168.782 113.816H162.478V112.376H167.87L167.214 112.952C167.192 112.483 167.102 112.088 166.942 111.768C166.782 111.448 166.552 111.203 166.254 111.032C165.966 110.861 165.608 110.776 165.182 110.776C164.734 110.776 164.344 110.872 164.014 111.064C163.683 111.256 163.427 111.528 163.246 111.88C163.064 112.221 162.974 112.632 162.974 113.112C162.974 113.592 163.07 114.013 163.262 114.376C163.454 114.739 163.726 115.021 164.078 115.224C164.43 115.416 164.835 115.512 165.294 115.512C165.688 115.512 166.051 115.443 166.382 115.304C166.723 115.165 167.011 114.963 167.246 114.696L168.366 115.832C167.992 116.269 167.539 116.6 167.006 116.824C166.472 117.048 165.907 117.16 165.31 117.16ZM172.435 117L169.347 109.32H171.171L173.251 114.904L172.707 114.92L174.739 109.32H175.763L177.795 114.92L177.251 114.904L179.331 109.32H181.155L178.067 117H177.043L174.963 111.688H175.539L173.459 117H172.435ZM184.582 117.16C184.155 117.16 183.744 117.107 183.35 117C182.955 116.883 182.592 116.723 182.262 116.52C181.931 116.307 181.643 116.051 181.398 115.752L182.518 114.632C182.784 114.941 183.088 115.176 183.43 115.336C183.782 115.485 184.176 115.56 184.614 115.56C185.008 115.56 185.307 115.501 185.51 115.384C185.712 115.267 185.814 115.096 185.814 114.872C185.814 114.637 185.718 114.456 185.526 114.328C185.334 114.2 185.083 114.093 184.774 114.008C184.475 113.912 184.155 113.816 183.814 113.72C183.483 113.624 183.163 113.496 182.854 113.336C182.555 113.165 182.31 112.936 182.118 112.648C181.926 112.36 181.83 111.987 181.83 111.528C181.83 111.037 181.942 110.616 182.166 110.264C182.4 109.912 182.726 109.64 183.142 109.448C183.568 109.256 184.075 109.16 184.662 109.16C185.28 109.16 185.824 109.272 186.294 109.496C186.774 109.709 187.174 110.035 187.494 110.472L186.374 111.592C186.15 111.315 185.894 111.107 185.606 110.968C185.318 110.829 184.987 110.76 184.614 110.76C184.262 110.76 183.99 110.813 183.798 110.92C183.606 111.027 183.51 111.181 183.51 111.384C183.51 111.597 183.606 111.763 183.798 111.88C183.99 111.997 184.235 112.099 184.534 112.184C184.843 112.269 185.163 112.365 185.494 112.472C185.835 112.568 186.155 112.707 186.454 112.888C186.763 113.059 187.014 113.293 187.206 113.592C187.398 113.88 187.494 114.259 187.494 114.728C187.494 115.475 187.232 116.067 186.71 116.504C186.187 116.941 185.478 117.16 184.582 117.16ZM188.945 117V105.48H190.705V117H188.945ZM196.232 117.16C195.464 117.16 194.77 116.989 194.152 116.648C193.544 116.296 193.058 115.816 192.696 115.208C192.344 114.6 192.168 113.917 192.168 113.16C192.168 112.403 192.344 111.725 192.696 111.128C193.048 110.52 193.522 110.04 194.12 109.688C194.728 109.336 195.4 109.16 196.136 109.16C196.85 109.16 197.48 109.325 198.024 109.656C198.578 109.987 199.01 110.44 199.32 111.016C199.64 111.592 199.8 112.248 199.8 112.984C199.8 113.112 199.789 113.245 199.767 113.384C199.757 113.512 199.736 113.656 199.704 113.816H193.4V112.376H198.792L198.136 112.952C198.114 112.483 198.024 112.088 197.864 111.768C197.704 111.448 197.474 111.203 197.176 111.032C196.888 110.861 196.53 110.776 196.104 110.776C195.656 110.776 195.266 110.872 194.936 111.064C194.605 111.256 194.349 111.528 194.168 111.88C193.986 112.221 193.896 112.632 193.896 113.112C193.896 113.592 193.992 114.013 194.184 114.376C194.376 114.739 194.648 115.021 195 115.224C195.352 115.416 195.757 115.512 196.216 115.512C196.61 115.512 196.973 115.443 197.304 115.304C197.645 115.165 197.933 114.963 198.168 114.696L199.288 115.832C198.914 116.269 198.461 116.6 197.928 116.824C197.394 117.048 196.829 117.16 196.232 117.16ZM202.378 117V106.12H204.138V117H202.378ZM200.538 110.92V109.32H210.618V110.92H200.538ZM207.018 117V106.12H208.778V117H207.018ZM215.247 117.16C214.479 117.16 213.786 116.989 213.167 116.648C212.559 116.296 212.074 115.816 211.711 115.208C211.359 114.6 211.183 113.917 211.183 113.16C211.183 112.403 211.359 111.725 211.711 111.128C212.063 110.52 212.538 110.04 213.135 109.688C213.743 109.336 214.415 109.16 215.151 109.16C215.866 109.16 216.495 109.325 217.039 109.656C217.594 109.987 218.026 110.44 218.335 111.016C218.655 111.592 218.815 112.248 218.815 112.984C218.815 113.112 218.804 113.245 218.783 113.384C218.772 113.512 218.751 113.656 218.719 113.816H212.415V112.376H217.807L217.151 112.952C217.13 112.483 217.039 112.088 216.879 111.768C216.719 111.448 216.49 111.203 216.191 111.032C215.903 110.861 215.546 110.776 215.119 110.776C214.671 110.776 214.282 110.872 213.951 111.064C213.62 111.256 213.364 111.528 213.183 111.88C213.002 112.221 212.911 112.632 212.911 113.112C212.911 113.592 213.007 114.013 213.199 114.376C213.391 114.739 213.663 115.021 214.015 115.224C214.367 115.416 214.772 115.512 215.231 115.512C215.626 115.512 215.988 115.443 216.319 115.304C216.66 115.165 216.948 114.963 217.183 114.696L218.303 115.832C217.93 116.269 217.476 116.6 216.943 116.824C216.41 117.048 215.844 117.16 215.247 117.16ZM220.226 117V109.32H221.986V117H220.226ZM221.986 112.728L221.378 112.424C221.378 111.453 221.591 110.669 222.018 110.072C222.455 109.464 223.111 109.16 223.986 109.16C224.37 109.16 224.717 109.229 225.026 109.368C225.335 109.507 225.623 109.731 225.89 110.04L224.738 111.224C224.599 111.075 224.445 110.968 224.274 110.904C224.103 110.84 223.906 110.808 223.682 110.808C223.191 110.808 222.786 110.963 222.466 111.272C222.146 111.581 221.986 112.067 221.986 112.728Z" fill="#F1F2F4"/>
<path fill-rule="evenodd" clip-rule="evenodd" d="M41.4268 142H41.5732C43.3966 142 44.8664 142 46.0223 142.155C47.2225 142.317 48.233 142.662 49.0355 143.464C49.8381 144.267 50.1833 145.278 50.3446 146.478C50.5001 147.634 50.5 149.103 50.5 150.927V151.073C50.5 152.897 50.5001 154.366 50.3446 155.522C50.1833 156.722 49.8381 157.733 49.0355 158.536C48.233 159.338 47.2225 159.683 46.0223 159.845C44.8664 160 43.3966 160 41.5731 160H41.4269C39.6034 160 38.1336 160 36.9777 159.845C35.7775 159.683 34.767 159.338 33.9645 158.536C33.1619 157.733 32.8167 156.722 32.6554 155.522C32.5 154.366 32.5 152.897 32.5 151.073V150.927C32.5 149.103 32.5 147.634 32.6554 146.478C32.8167 145.278 33.1619 144.267 33.9645 143.464C34.767 142.662 35.7775 142.317 36.9777 142.155C38.1336 142 39.6034 142 41.4268 142ZM34.5 151C34.5 152.914 34.5021 154.249 34.6375 155.256C34.7691 156.234 35.0097 156.752 35.3787 157.121C35.7477 157.49 36.2658 157.731 37.2442 157.862C38.2513 157.998 39.5861 158 41.5 158C43.4139 158 44.7487 157.998 45.7558 157.862C46.7342 157.731 47.2523 157.49 47.6213 157.121C47.9903 156.752 48.2309 156.234 48.3625 155.256C48.4979 154.249 48.5 152.914 48.5 151C48.5 149.086 48.4979 147.751 48.3625 146.744C48.2309 145.766 47.9903 145.248 47.6213 144.879C47.2523 144.51 46.7342 144.269 45.7558 144.138C44.7487 144.002 43.4139 144 41.5 144C39.5861 144 38.2513 144.002 37.2442 144.138C36.2658 144.269 35.7477 144.51 35.3787 144.879C35.0097 145.248 34.7691 145.766 34.6375 146.744C34.5021 147.751 34.5 149.086 34.5 151Z" fill="#F1F2F4"/>
<path d="M65.596 157L61.916 145.8H63.724L66.492 154.424H66.012L68.716 145.8H69.996L72.7 154.424H72.22L74.988 145.8H76.796L73.116 157H71.836L69.116 148.392H69.596L66.876 157H65.596ZM80.6378 157.16C79.8698 157.16 79.1764 156.989 78.5578 156.648C77.9498 156.296 77.4644 155.816 77.1018 155.208C76.7498 154.6 76.5738 153.917 76.5738 153.16C76.5738 152.403 76.7498 151.725 77.1018 151.128C77.4538 150.52 77.9284 150.04 78.5258 149.688C79.1338 149.336 79.8058 149.16 80.5418 149.16C81.2564 149.16 81.8858 149.325 82.4298 149.656C82.9844 149.987 83.4164 150.44 83.7258 151.016C84.0458 151.592 84.2058 152.248 84.2058 152.984C84.2058 153.112 84.1951 153.245 84.1737 153.384C84.1631 153.512 84.1418 153.656 84.1098 153.816H77.8058V152.376H83.1978L82.5418 152.952C82.5204 152.483 82.4298 152.088 82.2698 151.768C82.1098 151.448 81.8804 151.203 81.5818 151.032C81.2938 150.861 80.9364 150.776 80.5098 150.776C80.0618 150.776 79.6724 150.872 79.3418 151.064C79.0111 151.256 78.7551 151.528 78.5738 151.88C78.3924 152.221 78.3018 152.632 78.3018 153.112C78.3018 153.592 78.3978 154.013 78.5898 154.376C78.7818 154.739 79.0538 155.021 79.4058 155.224C79.7578 155.416 80.1631 155.512 80.6218 155.512C81.0164 155.512 81.3791 155.443 81.7098 155.304C82.0511 155.165 82.3391 154.963 82.5738 154.696L83.6938 155.832C83.3204 156.269 82.8671 156.6 82.3338 156.824C81.8004 157.048 81.2351 157.16 80.6378 157.16ZM89.1846 157.16C88.4166 157.16 87.7233 156.989 87.1046 156.648C86.4966 156.296 86.0113 155.816 85.6486 155.208C85.2966 154.6 85.1206 153.917 85.1206 153.16C85.1206 152.403 85.2966 151.725 85.6486 151.128C86.0006 150.52 86.4753 150.04 87.0726 149.688C87.6806 149.336 88.3526 149.16 89.0886 149.16C89.8033 149.16 90.4326 149.325 90.9766 149.656C91.5313 149.987 91.9633 150.44 92.2726 151.016C92.5926 151.592 92.7526 152.248 92.7526 152.984C92.7526 153.112 92.742 153.245 92.7206 153.384C92.71 153.512 92.6886 153.656 92.6566 153.816H86.3526V152.376H91.7446L91.0886 152.952C91.0673 152.483 90.9766 152.088 90.8166 151.768C90.6566 151.448 90.4273 151.203 90.1286 151.032C89.8406 150.861 89.4833 150.776 89.0566 150.776C88.6086 150.776 88.2193 150.872 87.8886 151.064C87.558 151.256 87.302 151.528 87.1206 151.88C86.9393 152.221 86.8486 152.632 86.8486 153.112C86.8486 153.592 86.9446 154.013 87.1366 154.376C87.3286 154.739 87.6006 155.021 87.9526 155.224C88.3046 155.416 88.71 155.512 89.1686 155.512C89.5633 155.512 89.926 155.443 90.2566 155.304C90.598 155.165 90.886 154.963 91.1206 154.696L92.2406 155.832C91.8673 156.269 91.414 156.6 90.8806 156.824C90.3473 157.048 89.782 157.16 89.1846 157.16ZM99.0435 157L95.7955 153.08L99.0275 149.32H101.124L97.4115 153.544L97.4915 152.536L101.284 157H99.0435ZM94.1635 157V145.48H95.9235V157H94.1635ZM102.335 157V145.48H104.095V157H102.335ZM108.534 157.08L105.254 149.32H107.19L109.43 155.016H108.87L111.238 149.32H113.19L109.622 157.08H108.534ZM106.246 160.2L108.63 155.288L109.622 157.08L108.198 160.2H106.246ZM120.691 157.16C120.04 157.16 119.459 157.016 118.947 156.728C118.445 156.44 118.051 156.045 117.763 155.544C117.485 155.032 117.347 154.445 117.347 153.784V149.32H119.107V153.704C119.107 154.077 119.165 154.397 119.283 154.664C119.411 154.92 119.592 155.117 119.827 155.256C120.072 155.395 120.36 155.464 120.691 155.464C121.203 155.464 121.592 155.315 121.859 155.016C122.136 154.707 122.275 154.269 122.275 153.704V149.32H124.035V153.784C124.035 154.456 123.891 155.048 123.603 155.56C123.325 156.061 122.936 156.456 122.435 156.744C121.933 157.021 121.352 157.16 120.691 157.16ZM129.916 157.16C129.329 157.16 128.807 157.037 128.348 156.792C127.889 156.536 127.527 156.189 127.26 155.752C127.004 155.315 126.876 154.819 126.876 154.264V152.056C126.876 151.501 127.009 151.005 127.276 150.568C127.543 150.131 127.905 149.789 128.364 149.544C128.823 149.288 129.34 149.16 129.916 149.16C130.609 149.16 131.233 149.341 131.788 149.704C132.353 150.056 132.796 150.536 133.116 151.144C133.447 151.741 133.612 152.419 133.612 153.176C133.612 153.923 133.447 154.6 133.116 155.208C132.796 155.805 132.353 156.28 131.788 156.632C131.233 156.984 130.609 157.16 129.916 157.16ZM125.804 160.2V149.32H127.564V151.384L127.26 153.256L127.564 155.112V160.2H125.804ZM129.628 155.496C130.055 155.496 130.428 155.4 130.748 155.208C131.079 155.005 131.335 154.728 131.516 154.376C131.708 154.024 131.804 153.619 131.804 153.16C131.804 152.701 131.708 152.296 131.516 151.944C131.335 151.592 131.079 151.32 130.748 151.128C130.428 150.925 130.055 150.824 129.628 150.824C129.201 150.824 128.823 150.925 128.492 151.128C128.161 151.32 127.905 151.592 127.724 151.944C127.543 152.296 127.452 152.701 127.452 153.16C127.452 153.619 127.543 154.024 127.724 154.376C127.905 154.728 128.161 155.005 128.492 155.208C128.823 155.4 129.201 155.496 129.628 155.496ZM138.301 157.16C137.608 157.16 136.979 156.984 136.413 156.632C135.859 156.28 135.416 155.805 135.085 155.208C134.765 154.6 134.605 153.923 134.605 153.176C134.605 152.419 134.765 151.741 135.085 151.144C135.416 150.536 135.859 150.056 136.413 149.704C136.979 149.341 137.608 149.16 138.301 149.16C138.888 149.16 139.405 149.288 139.853 149.544C140.312 149.789 140.675 150.131 140.941 150.568C141.208 151.005 141.341 151.501 141.341 152.056V154.264C141.341 154.819 141.208 155.315 140.941 155.752C140.685 156.189 140.328 156.536 139.869 156.792C139.411 157.037 138.888 157.16 138.301 157.16ZM138.589 155.496C139.027 155.496 139.405 155.4 139.725 155.208C140.056 155.005 140.312 154.728 140.493 154.376C140.675 154.024 140.765 153.619 140.765 153.16C140.765 152.701 140.675 152.296 140.493 151.944C140.312 151.592 140.056 151.32 139.725 151.128C139.405 150.925 139.027 150.824 138.589 150.824C138.163 150.824 137.784 150.925 137.453 151.128C137.133 151.32 136.877 151.592 136.685 151.944C136.504 152.296 136.413 152.701 136.413 153.16C136.413 153.619 136.504 154.024 136.685 154.376C136.877 154.728 137.133 155.005 137.453 155.208C137.784 155.4 138.163 155.496 138.589 155.496ZM142.413 157H140.653V154.936L140.957 153.064L140.653 151.208V145.48H142.413V157ZM147.583 157.16C146.889 157.16 146.26 156.984 145.695 156.632C145.14 156.28 144.697 155.805 144.367 155.208C144.047 154.6 143.887 153.923 143.887 153.176C143.887 152.419 144.047 151.741 144.367 151.144C144.697 150.536 145.14 150.056 145.695 149.704C146.26 149.341 146.889 149.16 147.583 149.16C148.169 149.16 148.687 149.288 149.135 149.544C149.593 149.789 149.956 150.131 150.223 150.568C150.489 151.005 150.623 151.501 150.623 152.056V154.264C150.623 154.819 150.489 155.315 150.223 155.752C149.967 156.189 149.609 156.536 149.151 156.792C148.692 157.037 148.169 157.16 147.583 157.16ZM147.871 155.496C148.521 155.496 149.044 155.277 149.439 154.84C149.844 154.403 150.047 153.843 150.047 153.16C150.047 152.701 149.956 152.296 149.775 151.944C149.593 151.592 149.337 151.32 149.007 151.128C148.687 150.925 148.308 150.824 147.871 150.824C147.444 150.824 147.065 150.925 146.735 151.128C146.415 151.32 146.159 151.592 145.967 151.944C145.785 152.296 145.695 152.701 145.695 153.16C145.695 153.619 145.785 154.024 145.967 154.376C146.159 154.728 146.415 155.005 146.735 155.208C147.065 155.4 147.444 155.496 147.871 155.496ZM149.935 157V154.936L150.239 153.064L149.935 151.208V149.32H151.695V157H149.935ZM154.816 157V146.12H156.576V157H154.816ZM152.976 150.92V149.32H158.416V150.92H152.976ZM163.044 157.16C162.276 157.16 161.583 156.989 160.964 156.648C160.356 156.296 159.871 155.816 159.508 155.208C159.156 154.6 158.98 153.917 158.98 153.16C158.98 152.403 159.156 151.725 159.508 151.128C159.86 150.52 160.335 150.04 160.932 149.688C161.54 149.336 162.212 149.16 162.948 149.16C163.663 149.16 164.292 149.325 164.836 149.656C165.391 149.987 165.823 150.44 166.132 151.016C166.452 151.592 166.612 152.248 166.612 152.984C166.612 153.112 166.601 153.245 166.58 153.384C166.569 153.512 166.548 153.656 166.516 153.816H160.212V152.376H165.604L164.948 152.952C164.927 152.483 164.836 152.088 164.676 151.768C164.516 151.448 164.287 151.203 163.988 151.032C163.7 150.861 163.343 150.776 162.916 150.776C162.468 150.776 162.079 150.872 161.748 151.064C161.417 151.256 161.161 151.528 160.98 151.88C160.799 152.221 160.708 152.632 160.708 153.112C160.708 153.592 160.804 154.013 160.996 154.376C161.188 154.739 161.46 155.021 161.812 155.224C162.164 155.416 162.569 155.512 163.028 155.512C163.423 155.512 163.785 155.443 164.116 155.304C164.457 155.165 164.745 154.963 164.98 154.696L166.1 155.832C165.727 156.269 165.273 156.6 164.74 156.824C164.207 157.048 163.641 157.16 163.044 157.16ZM170.535 157.16C170.108 157.16 169.698 157.107 169.303 157C168.908 156.883 168.546 156.723 168.215 156.52C167.884 156.307 167.596 156.051 167.351 155.752L168.471 154.632C168.738 154.941 169.042 155.176 169.383 155.336C169.735 155.485 170.13 155.56 170.567 155.56C170.962 155.56 171.26 155.501 171.463 155.384C171.666 155.267 171.767 155.096 171.767 154.872C171.767 154.637 171.671 154.456 171.479 154.328C171.287 154.2 171.036 154.093 170.727 154.008C170.428 153.912 170.108 153.816 169.767 153.72C169.436 153.624 169.116 153.496 168.807 153.336C168.508 153.165 168.263 152.936 168.071 152.648C167.879 152.36 167.783 151.987 167.783 151.528C167.783 151.037 167.895 150.616 168.119 150.264C168.354 149.912 168.679 149.64 169.095 149.448C169.522 149.256 170.028 149.16 170.615 149.16C171.234 149.16 171.778 149.272 172.247 149.496C172.727 149.709 173.127 150.035 173.447 150.472L172.327 151.592C172.103 151.315 171.847 151.107 171.559 150.968C171.271 150.829 170.94 150.76 170.567 150.76C170.215 150.76 169.943 150.813 169.751 150.92C169.559 151.027 169.463 151.181 169.463 151.384C169.463 151.597 169.559 151.763 169.751 151.88C169.943 151.997 170.188 152.099 170.487 152.184C170.796 152.269 171.116 152.365 171.447 152.472C171.788 152.568 172.108 152.707 172.407 152.888C172.716 153.059 172.967 153.293 173.159 153.592C173.351 153.88 173.447 154.259 173.447 154.728C173.447 155.475 173.186 156.067 172.663 156.504C172.14 156.941 171.431 157.16 170.535 157.16Z" fill="#F1F2F4"/>
</svg>
