<svg width="280" height="190" viewBox="0 0 280 190" fill="none" xmlns="http://www.w3.org/2000/svg">
<rect width="280" height="190" fill="#2A2C35"/>
<path fill-rule="evenodd" clip-rule="evenodd" d="M60.0732 22H59.9268C58.1034 22 56.6336 22 55.4777 22.1554C54.2775 22.3167 53.267 22.6619 52.4645 23.4645C51.6619 24.267 51.3167 25.2775 51.1554 26.4777C51 27.6336 51 29.1034 51 30.9268V31.0732C51 32.8966 51 34.3664 51.1554 35.5223C51.3167 36.7225 51.6619 37.733 52.4645 38.5355C53.267 39.3381 54.2775 39.6833 55.4777 39.8446C56.6336 40.0001 58.1034 40 59.9269 40H60.0731C61.8966 40 63.3664 40.0001 64.5223 39.8446C65.7225 39.6833 66.733 39.3381 67.5355 38.5355C68.3381 37.733 68.6833 36.7225 68.8446 35.5223C69.0001 34.3664 69 32.8966 69 31.0731V30.9269C69 29.1034 69.0001 27.6336 68.8446 26.4777C68.6833 25.2775 68.3381 24.267 67.5355 23.4645C66.733 22.6619 65.7225 22.3167 64.5223 22.1554C63.3664 22 61.8966 22 60.0732 22ZM64.9403 29.7236C65.3399 29.3423 65.3548 28.7093 64.9736 28.3097C64.5923 27.9101 63.9593 27.8952 63.5597 28.2764L58.7474 32.8674L56.6909 30.902C56.2916 30.5205 55.6586 30.5348 55.277 30.9341C54.8955 31.3334 54.9098 31.9664 55.3091 32.348L58.0559 34.973C58.4422 35.3421 59.0505 35.3424 59.4371 34.9736L64.9403 29.7236Z" fill="#6061EE"/>
<path d="M82.48 32.776V31.176H85.28C85.664 31.176 86 31.1013 86.288 30.952C86.5867 30.792 86.8213 30.5733 86.992 30.296C87.1627 30.008 87.248 29.672 87.248 29.288C87.248 28.904 87.1627 28.5733 86.992 28.296C86.8213 28.008 86.5867 27.7893 86.288 27.64C86 27.48 85.664 27.4 85.28 27.4H82.48V25.8H85.376C86.08 25.8 86.7093 25.944 87.264 26.232C87.8293 26.52 88.272 26.9253 88.592 27.448C88.9227 27.9707 89.088 28.584 89.088 29.288C89.088 29.992 88.9227 30.6053 88.592 31.128C88.272 31.6507 87.8293 32.056 87.264 32.344C86.7093 32.632 86.08 32.776 85.376 32.776H82.48ZM81.216 37V25.8H83.056V37H81.216ZM93.4576 37.16C92.7643 37.16 92.135 36.984 91.5696 36.632C91.015 36.28 90.5723 35.8053 90.2416 35.208C89.9216 34.6 89.7616 33.9227 89.7616 33.176C89.7616 32.4187 89.9216 31.7413 90.2416 31.144C90.5723 30.536 91.015 30.056 91.5696 29.704C92.135 29.3413 92.7643 29.16 93.4576 29.16C94.0443 29.16 94.5616 29.288 95.0096 29.544C95.4683 29.7893 95.831 30.1307 96.0976 30.568C96.3643 31.0053 96.4976 31.5013 96.4976 32.056V34.264C96.4976 34.8187 96.3643 35.3147 96.0976 35.752C95.8416 36.1893 95.4843 36.536 95.0256 36.792C94.567 37.0373 94.0443 37.16 93.4576 37.16ZM93.7456 35.496C94.3963 35.496 94.919 35.2773 95.3136 34.84C95.719 34.4027 95.9216 33.8427 95.9216 33.16C95.9216 32.7013 95.831 32.296 95.6496 31.944C95.4683 31.592 95.2123 31.32 94.8816 31.128C94.5616 30.9253 94.183 30.824 93.7456 30.824C93.319 30.824 92.9403 30.9253 92.6096 31.128C92.2896 31.32 92.0336 31.592 91.8416 31.944C91.6603 32.296 91.5696 32.7013 91.5696 33.16C91.5696 33.6187 91.6603 34.024 91.8416 34.376C92.0336 34.728 92.2896 35.0053 92.6096 35.208C92.9403 35.4 93.319 35.496 93.7456 35.496ZM95.8096 37V34.936L96.1136 33.064L95.8096 31.208V29.32H97.5696V37H95.8096ZM99.5229 37V29.32H101.283V37H99.5229ZM101.283 32.728L100.675 32.424C100.675 31.4533 100.888 30.6693 101.315 30.072C101.752 29.464 102.408 29.16 103.283 29.16C103.667 29.16 104.014 29.2293 104.323 29.368C104.632 29.5067 104.92 29.7307 105.187 30.04L104.035 31.224C103.896 31.0747 103.742 30.968 103.571 30.904C103.4 30.84 103.203 30.808 102.979 30.808C102.488 30.808 102.083 30.9627 101.763 31.272C101.443 31.5813 101.283 32.0667 101.283 32.728ZM109.372 37.16C108.604 37.16 107.911 36.9893 107.292 36.648C106.684 36.296 106.199 35.816 105.836 35.208C105.484 34.6 105.308 33.9173 105.308 33.16C105.308 32.4027 105.484 31.7253 105.836 31.128C106.188 30.52 106.663 30.04 107.26 29.688C107.868 29.336 108.54 29.16 109.276 29.16C109.991 29.16 110.62 29.3253 111.164 29.656C111.719 29.9867 112.151 30.44 112.46 31.016C112.78 31.592 112.94 32.248 112.94 32.984C112.94 33.112 112.929 33.2453 112.908 33.384C112.897 33.512 112.876 33.656 112.844 33.816H106.54V32.376H111.932L111.276 32.952C111.255 32.4827 111.164 32.088 111.004 31.768C110.844 31.448 110.615 31.2027 110.316 31.032C110.028 30.8613 109.671 30.776 109.244 30.776C108.796 30.776 108.407 30.872 108.076 31.064C107.745 31.256 107.489 31.528 107.308 31.88C107.127 32.2213 107.036 32.632 107.036 33.112C107.036 33.592 107.132 34.0133 107.324 34.376C107.516 34.7387 107.788 35.0213 108.14 35.224C108.492 35.416 108.897 35.512 109.356 35.512C109.751 35.512 110.113 35.4427 110.444 35.304C110.785 35.1653 111.073 34.9627 111.308 34.696L112.428 35.832C112.055 36.2693 111.601 36.6 111.068 36.824C110.535 37.048 109.969 37.16 109.372 37.16ZM119.615 37V32.568C119.615 32.056 119.45 31.6347 119.119 31.304C118.799 30.9733 118.383 30.808 117.871 30.808C117.53 30.808 117.226 30.8827 116.959 31.032C116.692 31.1813 116.484 31.3893 116.335 31.656C116.186 31.9227 116.111 32.2267 116.111 32.568L115.423 32.184C115.423 31.5973 115.551 31.08 115.807 30.632C116.063 30.1733 116.415 29.816 116.863 29.56C117.322 29.2933 117.834 29.16 118.399 29.16C118.975 29.16 119.487 29.3093 119.935 29.608C120.383 29.896 120.735 30.2747 120.991 30.744C121.247 31.2027 121.375 31.6827 121.375 32.184V37H119.615ZM114.351 37V29.32H116.111V37H114.351ZM124.238 37V26.12H125.998V37H124.238ZM122.398 30.92V29.32H127.838V30.92H122.398ZM135.856 37.16C135.098 37.16 134.41 36.984 133.792 36.632C133.184 36.28 132.704 35.8 132.352 35.192C132 34.584 131.824 33.9067 131.824 33.16C131.824 32.4027 132 31.7253 132.352 31.128C132.704 30.52 133.184 30.04 133.792 29.688C134.41 29.336 135.098 29.16 135.856 29.16C136.453 29.16 137.008 29.2773 137.52 29.512C138.042 29.736 138.485 30.0613 138.848 30.488L137.696 31.656C137.472 31.3893 137.2 31.192 136.88 31.064C136.57 30.9253 136.229 30.856 135.856 30.856C135.418 30.856 135.029 30.9573 134.688 31.16C134.357 31.352 134.096 31.6187 133.904 31.96C133.722 32.3013 133.632 32.7013 133.632 33.16C133.632 33.608 133.722 34.008 133.904 34.36C134.096 34.7013 134.357 34.9733 134.688 35.176C135.029 35.368 135.418 35.464 135.856 35.464C136.229 35.464 136.57 35.4 136.88 35.272C137.2 35.1333 137.472 34.9307 137.696 34.664L138.848 35.832C138.485 36.2587 138.042 36.5893 137.52 36.824C137.008 37.048 136.453 37.16 135.856 37.16ZM145.381 37V32.568C145.381 32.056 145.215 31.6347 144.885 31.304C144.565 30.9733 144.149 30.808 143.637 30.808C143.295 30.808 142.991 30.8827 142.725 31.032C142.458 31.1813 142.25 31.3893 142.101 31.656C141.951 31.9227 141.877 32.2267 141.877 32.568L141.189 32.184C141.189 31.5973 141.317 31.08 141.573 30.632C141.829 30.1733 142.181 29.816 142.629 29.56C143.087 29.2933 143.599 29.16 144.165 29.16C144.741 29.16 145.253 29.288 145.701 29.544C146.149 29.8 146.501 30.1573 146.757 30.616C147.013 31.064 147.141 31.5867 147.141 32.184V37H145.381ZM140.117 37V25.48H141.877V37H140.117ZM152.497 37.16C151.729 37.16 151.036 36.9893 150.417 36.648C149.809 36.296 149.324 35.816 148.961 35.208C148.609 34.6 148.433 33.9173 148.433 33.16C148.433 32.4027 148.609 31.7253 148.961 31.128C149.313 30.52 149.788 30.04 150.385 29.688C150.993 29.336 151.665 29.16 152.401 29.16C153.116 29.16 153.745 29.3253 154.289 29.656C154.844 29.9867 155.276 30.44 155.585 31.016C155.905 31.592 156.065 32.248 156.065 32.984C156.065 33.112 156.054 33.2453 156.033 33.384C156.022 33.512 156.001 33.656 155.969 33.816H149.665V32.376H155.057L154.401 32.952C154.38 32.4827 154.289 32.088 154.129 31.768C153.969 31.448 153.74 31.2027 153.441 31.032C153.153 30.8613 152.796 30.776 152.369 30.776C151.921 30.776 151.532 30.872 151.201 31.064C150.87 31.256 150.614 31.528 150.433 31.88C150.252 32.2213 150.161 32.632 150.161 33.112C150.161 33.592 150.257 34.0133 150.449 34.376C150.641 34.7387 150.913 35.0213 151.265 35.224C151.617 35.416 152.022 35.512 152.481 35.512C152.876 35.512 153.238 35.4427 153.569 35.304C153.91 35.1653 154.198 34.9627 154.433 34.696L155.553 35.832C155.18 36.2693 154.726 36.6 154.193 36.824C153.66 37.048 153.094 37.16 152.497 37.16ZM161.012 37.16C160.255 37.16 159.567 36.984 158.948 36.632C158.34 36.28 157.86 35.8 157.508 35.192C157.156 34.584 156.98 33.9067 156.98 33.16C156.98 32.4027 157.156 31.7253 157.508 31.128C157.86 30.52 158.34 30.04 158.948 29.688C159.567 29.336 160.255 29.16 161.012 29.16C161.609 29.16 162.164 29.2773 162.676 29.512C163.199 29.736 163.641 30.0613 164.004 30.488L162.852 31.656C162.628 31.3893 162.356 31.192 162.036 31.064C161.727 30.9253 161.385 30.856 161.012 30.856C160.575 30.856 160.185 30.9573 159.844 31.16C159.513 31.352 159.252 31.6187 159.06 31.96C158.879 32.3013 158.788 32.7013 158.788 33.16C158.788 33.608 158.879 34.008 159.06 34.36C159.252 34.7013 159.513 34.9733 159.844 35.176C160.185 35.368 160.575 35.464 161.012 35.464C161.385 35.464 161.727 35.4 162.036 35.272C162.356 35.1333 162.628 34.9307 162.852 34.664L164.004 35.832C163.641 36.2587 163.199 36.5893 162.676 36.824C162.164 37.048 161.609 37.16 161.012 37.16ZM170.153 37L166.905 33.08L170.137 29.32H172.233L168.521 33.544L168.601 32.536L172.393 37H170.153ZM165.273 37V25.48H167.033V37H165.273ZM177.557 37.16C176.97 37.16 176.447 37.0373 175.989 36.792C175.53 36.536 175.167 36.1893 174.901 35.752C174.645 35.3147 174.517 34.8187 174.517 34.264V32.056C174.517 31.5013 174.65 31.0053 174.917 30.568C175.183 30.1307 175.546 29.7893 176.005 29.544C176.463 29.288 176.981 29.16 177.557 29.16C178.25 29.16 178.874 29.3413 179.429 29.704C179.994 30.056 180.437 30.536 180.757 31.144C181.087 31.7413 181.253 32.4187 181.253 33.176C181.253 33.9227 181.087 34.6 180.757 35.208C180.437 35.8053 179.994 36.28 179.429 36.632C178.874 36.984 178.25 37.16 177.557 37.16ZM173.445 37V25.48H175.205V31.208L174.901 33.064L175.205 34.936V37H173.445ZM177.269 35.496C177.695 35.496 178.069 35.4 178.389 35.208C178.719 35.0053 178.975 34.728 179.157 34.376C179.349 34.024 179.445 33.6187 179.445 33.16C179.445 32.7013 179.349 32.296 179.157 31.944C178.975 31.592 178.719 31.32 178.389 31.128C178.069 30.9253 177.695 30.824 177.269 30.824C176.842 30.824 176.463 30.9253 176.133 31.128C175.802 31.32 175.546 31.592 175.365 31.944C175.183 32.296 175.093 32.7013 175.093 33.16C175.093 33.6187 175.183 34.024 175.365 34.376C175.546 34.728 175.802 35.0053 176.133 35.208C176.463 35.4 176.842 35.496 177.269 35.496ZM186.246 37.16C185.499 37.16 184.822 36.984 184.214 36.632C183.606 36.2693 183.121 35.784 182.758 35.176C182.406 34.568 182.23 33.8907 182.23 33.144C182.23 32.3973 182.406 31.7253 182.758 31.128C183.121 30.5307 183.606 30.056 184.214 29.704C184.822 29.3413 185.499 29.16 186.246 29.16C187.003 29.16 187.686 29.336 188.294 29.688C188.902 30.04 189.382 30.52 189.734 31.128C190.097 31.7253 190.278 32.3973 190.278 33.144C190.278 33.8907 190.097 34.568 189.734 35.176C189.382 35.784 188.902 36.2693 188.294 36.632C187.686 36.984 187.003 37.16 186.246 37.16ZM186.246 35.464C186.683 35.464 187.067 35.368 187.398 35.176C187.739 34.9733 188.001 34.696 188.182 34.344C188.374 33.992 188.47 33.592 188.47 33.144C188.47 32.696 188.374 32.3013 188.182 31.96C187.99 31.6187 187.729 31.352 187.398 31.16C187.067 30.9573 186.683 30.856 186.246 30.856C185.819 30.856 185.435 30.9573 185.094 31.16C184.763 31.352 184.502 31.6187 184.31 31.96C184.129 32.3013 184.038 32.696 184.038 33.144C184.038 33.592 184.129 33.992 184.31 34.344C184.502 34.696 184.763 34.9733 185.094 35.176C185.435 35.368 185.819 35.464 186.246 35.464ZM196.387 37L194.179 33.752L193.859 33.464L190.883 29.32H193.011L194.979 32.168L195.283 32.44L198.499 37H196.387ZM190.739 37L193.843 32.696L194.867 33.96L192.787 37H190.739ZM195.443 33.432L194.403 32.184L196.323 29.32H198.355L195.443 33.432Z" fill="#F1F2F4"/>
<path fill-rule="evenodd" clip-rule="evenodd" d="M92.0732 70H91.9268C90.1034 70 88.6336 70 87.4777 70.1554C86.2775 70.3167 85.267 70.6619 84.4645 71.4645C83.6619 72.267 83.3167 73.2775 83.1554 74.4777C83 75.6336 83 77.1034 83 78.9268V79.0732C83 80.8966 83 82.3664 83.1554 83.5223C83.3167 84.7225 83.6619 85.733 84.4645 86.5355C85.267 87.3381 86.2775 87.6833 87.4777 87.8446C88.6336 88.0001 90.1034 88 91.9269 88H92.0731C93.8966 88 95.3664 88.0001 96.5223 87.8446C97.7225 87.6833 98.733 87.3381 99.5355 86.5355C100.338 85.733 100.683 84.7225 100.845 83.5223C101 82.3664 101 80.8966 101 79.0731V78.9269C101 77.1034 101 75.6336 100.845 74.4777C100.683 73.2775 100.338 72.267 99.5355 71.4645C98.733 70.6619 97.7225 70.3167 96.5223 70.1554C95.3664 70 93.8966 70 92.0732 70ZM96.9403 77.7236C97.3399 77.3423 97.3548 76.7093 96.9736 76.3097C96.5923 75.9101 95.9593 75.8952 95.5597 76.2764L90.7474 80.8674L88.6909 78.902C88.2916 78.5205 87.6586 78.5348 87.277 78.9341C86.8955 79.3334 86.9098 79.9664 87.3091 80.348L90.0559 82.973C90.4422 83.3421 91.0505 83.3424 91.4371 82.9736L96.9403 77.7236Z" fill="#6061EE"/>
<path d="M118.304 85.16C117.493 85.16 116.741 85.016 116.048 84.728C115.365 84.4293 114.768 84.0187 114.256 83.496C113.744 82.9627 113.349 82.3493 113.072 81.656C112.795 80.952 112.656 80.2 112.656 79.4C112.656 78.6 112.795 77.8533 113.072 77.16C113.349 76.456 113.744 75.8427 114.256 75.32C114.768 74.7973 115.365 74.3867 116.048 74.088C116.741 73.7893 117.493 73.64 118.304 73.64C119.211 73.64 119.995 73.7893 120.656 74.088C121.317 74.3867 121.904 74.792 122.416 75.304L121.168 76.552C120.837 76.1893 120.432 75.9067 119.952 75.704C119.483 75.5013 118.933 75.4 118.304 75.4C117.749 75.4 117.243 75.496 116.784 75.688C116.325 75.88 115.925 76.1573 115.584 76.52C115.253 76.872 114.997 77.2933 114.816 77.784C114.635 78.2747 114.544 78.8133 114.544 79.4C114.544 79.9867 114.635 80.5253 114.816 81.016C114.997 81.5067 115.253 81.9333 115.584 82.296C115.925 82.648 116.325 82.92 116.784 83.112C117.243 83.304 117.749 83.4 118.304 83.4C118.987 83.4 119.563 83.2987 120.032 83.096C120.512 82.8827 120.917 82.5947 121.248 82.232L122.496 83.48C121.984 84.0027 121.381 84.4133 120.688 84.712C119.995 85.0107 119.2 85.16 118.304 85.16ZM129.162 85V80.568C129.162 80.056 128.997 79.6347 128.666 79.304C128.346 78.9733 127.93 78.808 127.418 78.808C127.077 78.808 126.773 78.8827 126.506 79.032C126.239 79.1813 126.031 79.3893 125.882 79.656C125.733 79.9227 125.658 80.2267 125.658 80.568L124.97 80.184C124.97 79.5973 125.098 79.08 125.354 78.632C125.61 78.1733 125.962 77.816 126.41 77.56C126.869 77.2933 127.381 77.16 127.946 77.16C128.522 77.16 129.034 77.288 129.482 77.544C129.93 77.8 130.282 78.1573 130.538 78.616C130.794 79.064 130.922 79.5867 130.922 80.184V85H129.162ZM123.898 85V73.48H125.658V85H123.898ZM132.726 85V77.32H134.486V85H132.726ZM133.606 75.912C133.308 75.912 133.057 75.8107 132.854 75.608C132.662 75.4053 132.566 75.1547 132.566 74.856C132.566 74.5573 132.662 74.3067 132.854 74.104C133.057 73.9013 133.308 73.8 133.606 73.8C133.916 73.8 134.166 73.9013 134.358 74.104C134.55 74.3067 134.646 74.5573 134.646 74.856C134.646 75.1547 134.55 75.4053 134.358 75.608C134.166 75.8107 133.916 75.912 133.606 75.912ZM136.46 85V73.48H138.22V85H136.46ZM143.395 85.16C142.702 85.16 142.072 84.984 141.507 84.632C140.952 84.28 140.51 83.8053 140.179 83.208C139.859 82.6 139.699 81.9227 139.699 81.176C139.699 80.4187 139.859 79.7413 140.179 79.144C140.51 78.536 140.952 78.056 141.507 77.704C142.072 77.3413 142.702 77.16 143.395 77.16C143.982 77.16 144.499 77.288 144.947 77.544C145.406 77.7893 145.768 78.1307 146.035 78.568C146.302 79.0053 146.435 79.5013 146.435 80.056V82.264C146.435 82.8187 146.302 83.3147 146.035 83.752C145.779 84.1893 145.422 84.536 144.963 84.792C144.504 85.0373 143.982 85.16 143.395 85.16ZM143.683 83.496C144.12 83.496 144.499 83.4 144.819 83.208C145.15 83.0053 145.406 82.728 145.587 82.376C145.768 82.024 145.859 81.6187 145.859 81.16C145.859 80.7013 145.768 80.296 145.587 79.944C145.406 79.592 145.15 79.32 144.819 79.128C144.499 78.9253 144.12 78.824 143.683 78.824C143.256 78.824 142.878 78.9253 142.547 79.128C142.227 79.32 141.971 79.592 141.779 79.944C141.598 80.296 141.507 80.7013 141.507 81.16C141.507 81.6187 141.598 82.024 141.779 82.376C141.971 82.728 142.227 83.0053 142.547 83.208C142.878 83.4 143.256 83.496 143.683 83.496ZM147.507 85H145.747V82.936L146.051 81.064L145.747 79.208V73.48H147.507V85ZM156.2 85.16C155.442 85.16 154.754 84.984 154.136 84.632C153.528 84.28 153.048 83.8 152.696 83.192C152.344 82.584 152.168 81.9067 152.168 81.16C152.168 80.4027 152.344 79.7253 152.696 79.128C153.048 78.52 153.528 78.04 154.136 77.688C154.754 77.336 155.442 77.16 156.2 77.16C156.797 77.16 157.352 77.2773 157.864 77.512C158.386 77.736 158.829 78.0613 159.192 78.488L158.04 79.656C157.816 79.3893 157.544 79.192 157.224 79.064C156.914 78.9253 156.573 78.856 156.2 78.856C155.762 78.856 155.373 78.9573 155.032 79.16C154.701 79.352 154.44 79.6187 154.248 79.96C154.066 80.3013 153.976 80.7013 153.976 81.16C153.976 81.608 154.066 82.008 154.248 82.36C154.44 82.7013 154.701 82.9733 155.032 83.176C155.373 83.368 155.762 83.464 156.2 83.464C156.573 83.464 156.914 83.4 157.224 83.272C157.544 83.1333 157.816 82.9307 158.04 82.664L159.192 83.832C158.829 84.2587 158.386 84.5893 157.864 84.824C157.352 85.048 156.797 85.16 156.2 85.16ZM165.724 85V80.568C165.724 80.056 165.559 79.6347 165.228 79.304C164.908 78.9733 164.492 78.808 163.98 78.808C163.639 78.808 163.335 78.8827 163.068 79.032C162.802 79.1813 162.594 79.3893 162.444 79.656C162.295 79.9227 162.22 80.2267 162.22 80.568L161.532 80.184C161.532 79.5973 161.66 79.08 161.916 78.632C162.172 78.1733 162.524 77.816 162.972 77.56C163.431 77.2933 163.943 77.16 164.508 77.16C165.084 77.16 165.596 77.288 166.044 77.544C166.492 77.8 166.844 78.1573 167.1 78.616C167.356 79.064 167.484 79.5867 167.484 80.184V85H165.724ZM160.46 85V73.48H162.22V85H160.46ZM172.841 85.16C172.073 85.16 171.38 84.9893 170.761 84.648C170.153 84.296 169.668 83.816 169.305 83.208C168.953 82.6 168.777 81.9173 168.777 81.16C168.777 80.4027 168.953 79.7253 169.305 79.128C169.657 78.52 170.132 78.04 170.729 77.688C171.337 77.336 172.009 77.16 172.745 77.16C173.46 77.16 174.089 77.3253 174.633 77.656C175.188 77.9867 175.62 78.44 175.929 79.016C176.249 79.592 176.409 80.248 176.409 80.984C176.409 81.112 176.398 81.2453 176.377 81.384C176.366 81.512 176.345 81.656 176.313 81.816H170.009V80.376H175.401L174.745 80.952C174.724 80.4827 174.633 80.088 174.473 79.768C174.313 79.448 174.084 79.2027 173.785 79.032C173.497 78.8613 173.14 78.776 172.713 78.776C172.265 78.776 171.876 78.872 171.545 79.064C171.214 79.256 170.958 79.528 170.777 79.88C170.596 80.2213 170.505 80.632 170.505 81.112C170.505 81.592 170.601 82.0133 170.793 82.376C170.985 82.7387 171.257 83.0213 171.609 83.224C171.961 83.416 172.366 83.512 172.825 83.512C173.22 83.512 173.582 83.4427 173.913 83.304C174.254 83.1653 174.542 82.9627 174.777 82.696L175.897 83.832C175.524 84.2693 175.07 84.6 174.537 84.824C174.004 85.048 173.438 85.16 172.841 85.16ZM181.356 85.16C180.598 85.16 179.91 84.984 179.292 84.632C178.684 84.28 178.204 83.8 177.852 83.192C177.5 82.584 177.324 81.9067 177.324 81.16C177.324 80.4027 177.5 79.7253 177.852 79.128C178.204 78.52 178.684 78.04 179.292 77.688C179.91 77.336 180.598 77.16 181.356 77.16C181.953 77.16 182.508 77.2773 183.02 77.512C183.542 77.736 183.985 78.0613 184.348 78.488L183.196 79.656C182.972 79.3893 182.7 79.192 182.38 79.064C182.07 78.9253 181.729 78.856 181.356 78.856C180.918 78.856 180.529 78.9573 180.188 79.16C179.857 79.352 179.596 79.6187 179.404 79.96C179.222 80.3013 179.132 80.7013 179.132 81.16C179.132 81.608 179.222 82.008 179.404 82.36C179.596 82.7013 179.857 82.9733 180.188 83.176C180.529 83.368 180.918 83.464 181.356 83.464C181.729 83.464 182.07 83.4 182.38 83.272C182.7 83.1333 182.972 82.9307 183.196 82.664L184.348 83.832C183.985 84.2587 183.542 84.5893 183.02 84.824C182.508 85.048 181.953 85.16 181.356 85.16ZM190.497 85L187.249 81.08L190.481 77.32H192.577L188.865 81.544L188.945 80.536L192.737 85H190.497ZM185.617 85V73.48H187.377V85H185.617ZM197.901 85.16C197.314 85.16 196.791 85.0373 196.333 84.792C195.874 84.536 195.511 84.1893 195.245 83.752C194.989 83.3147 194.861 82.8187 194.861 82.264V80.056C194.861 79.5013 194.994 79.0053 195.261 78.568C195.527 78.1307 195.89 77.7893 196.349 77.544C196.807 77.288 197.325 77.16 197.901 77.16C198.594 77.16 199.218 77.3413 199.773 77.704C200.338 78.056 200.781 78.536 201.101 79.144C201.431 79.7413 201.597 80.4187 201.597 81.176C201.597 81.9227 201.431 82.6 201.101 83.208C200.781 83.8053 200.338 84.28 199.773 84.632C199.218 84.984 198.594 85.16 197.901 85.16ZM193.789 85V73.48H195.549V79.208L195.245 81.064L195.549 82.936V85H193.789ZM197.613 83.496C198.039 83.496 198.413 83.4 198.733 83.208C199.063 83.0053 199.319 82.728 199.501 82.376C199.693 82.024 199.789 81.6187 199.789 81.16C199.789 80.7013 199.693 80.296 199.501 79.944C199.319 79.592 199.063 79.32 198.733 79.128C198.413 78.9253 198.039 78.824 197.613 78.824C197.186 78.824 196.807 78.9253 196.477 79.128C196.146 79.32 195.89 79.592 195.709 79.944C195.527 80.296 195.437 80.7013 195.437 81.16C195.437 81.6187 195.527 82.024 195.709 82.376C195.89 82.728 196.146 83.0053 196.477 83.208C196.807 83.4 197.186 83.496 197.613 83.496ZM206.59 85.16C205.843 85.16 205.166 84.984 204.558 84.632C203.95 84.2693 203.464 83.784 203.102 83.176C202.75 82.568 202.574 81.8907 202.574 81.144C202.574 80.3973 202.75 79.7253 203.102 79.128C203.464 78.5307 203.95 78.056 204.558 77.704C205.166 77.3413 205.843 77.16 206.59 77.16C207.347 77.16 208.03 77.336 208.638 77.688C209.246 78.04 209.726 78.52 210.078 79.128C210.44 79.7253 210.622 80.3973 210.622 81.144C210.622 81.8907 210.44 82.568 210.078 83.176C209.726 83.784 209.246 84.2693 208.638 84.632C208.03 84.984 207.347 85.16 206.59 85.16ZM206.59 83.464C207.027 83.464 207.411 83.368 207.742 83.176C208.083 82.9733 208.344 82.696 208.526 82.344C208.718 81.992 208.814 81.592 208.814 81.144C208.814 80.696 208.718 80.3013 208.526 79.96C208.334 79.6187 208.072 79.352 207.742 79.16C207.411 78.9573 207.027 78.856 206.59 78.856C206.163 78.856 205.779 78.9573 205.438 79.16C205.107 79.352 204.846 79.6187 204.654 79.96C204.472 80.3013 204.382 80.696 204.382 81.144C204.382 81.592 204.472 81.992 204.654 82.344C204.846 82.696 205.107 82.9733 205.438 83.176C205.779 83.368 206.163 83.464 206.59 83.464ZM216.731 85L214.523 81.752L214.203 81.464L211.227 77.32H213.355L215.323 80.168L215.627 80.44L218.843 85H216.731ZM211.083 85L214.187 80.696L215.211 81.96L213.131 85H211.083ZM215.787 81.432L214.747 80.184L216.667 77.32H218.699L215.787 81.432ZM226.33 85V73.8H228.138V85H226.33ZM223.498 75.448V73.8H227.914V75.448H223.498ZM223.498 85V83.352H230.57V85H223.498Z" fill="#F1F2F4"/>
<path fill-rule="evenodd" clip-rule="evenodd" d="M92.0732 110H91.9268C90.1034 110 88.6336 110 87.4777 110.155C86.2775 110.317 85.267 110.662 84.4645 111.464C83.6619 112.267 83.3167 113.278 83.1554 114.478C83 115.634 83 117.103 83 118.927V119.073C83 120.897 83 122.366 83.1554 123.522C83.3167 124.722 83.6619 125.733 84.4645 126.536C85.267 127.338 86.2775 127.683 87.4777 127.845C88.6336 128 90.1034 128 91.9269 128H92.0731C93.8966 128 95.3664 128 96.5223 127.845C97.7225 127.683 98.733 127.338 99.5355 126.536C100.338 125.733 100.683 124.722 100.845 123.522C101 122.366 101 120.897 101 119.073V118.927C101 117.103 101 115.634 100.845 114.478C100.683 113.278 100.338 112.267 99.5355 111.464C98.733 110.662 97.7225 110.317 96.5223 110.155C95.3664 110 93.8966 110 92.0732 110ZM96.9403 117.724C97.3399 117.342 97.3548 116.709 96.9736 116.31C96.5923 115.91 95.9593 115.895 95.5597 116.276L90.7474 120.867L88.6909 118.902C88.2916 118.52 87.6586 118.535 87.277 118.934C86.8955 119.333 86.9098 119.966 87.3091 120.348L90.0559 122.973C90.4422 123.342 91.0505 123.342 91.4371 122.974L96.9403 117.724Z" fill="#6061EE"/>
<path d="M118.304 125.16C117.493 125.16 116.741 125.016 116.048 124.728C115.365 124.429 114.768 124.019 114.256 123.496C113.744 122.963 113.349 122.349 113.072 121.656C112.795 120.952 112.656 120.2 112.656 119.4C112.656 118.6 112.795 117.853 113.072 117.16C113.349 116.456 113.744 115.843 114.256 115.32C114.768 114.797 115.365 114.387 116.048 114.088C116.741 113.789 117.493 113.64 118.304 113.64C119.211 113.64 119.995 113.789 120.656 114.088C121.317 114.387 121.904 114.792 122.416 115.304L121.168 116.552C120.837 116.189 120.432 115.907 119.952 115.704C119.483 115.501 118.933 115.4 118.304 115.4C117.749 115.4 117.243 115.496 116.784 115.688C116.325 115.88 115.925 116.157 115.584 116.52C115.253 116.872 114.997 117.293 114.816 117.784C114.635 118.275 114.544 118.813 114.544 119.4C114.544 119.987 114.635 120.525 114.816 121.016C114.997 121.507 115.253 121.933 115.584 122.296C115.925 122.648 116.325 122.92 116.784 123.112C117.243 123.304 117.749 123.4 118.304 123.4C118.987 123.4 119.563 123.299 120.032 123.096C120.512 122.883 120.917 122.595 121.248 122.232L122.496 123.48C121.984 124.003 121.381 124.413 120.688 124.712C119.995 125.011 119.2 125.16 118.304 125.16ZM129.162 125V120.568C129.162 120.056 128.997 119.635 128.666 119.304C128.346 118.973 127.93 118.808 127.418 118.808C127.077 118.808 126.773 118.883 126.506 119.032C126.239 119.181 126.031 119.389 125.882 119.656C125.733 119.923 125.658 120.227 125.658 120.568L124.97 120.184C124.97 119.597 125.098 119.08 125.354 118.632C125.61 118.173 125.962 117.816 126.41 117.56C126.869 117.293 127.381 117.16 127.946 117.16C128.522 117.16 129.034 117.288 129.482 117.544C129.93 117.8 130.282 118.157 130.538 118.616C130.794 119.064 130.922 119.587 130.922 120.184V125H129.162ZM123.898 125V113.48H125.658V125H123.898ZM132.726 125V117.32H134.486V125H132.726ZM133.606 115.912C133.308 115.912 133.057 115.811 132.854 115.608C132.662 115.405 132.566 115.155 132.566 114.856C132.566 114.557 132.662 114.307 132.854 114.104C133.057 113.901 133.308 113.8 133.606 113.8C133.916 113.8 134.166 113.901 134.358 114.104C134.55 114.307 134.646 114.557 134.646 114.856C134.646 115.155 134.55 115.405 134.358 115.608C134.166 115.811 133.916 115.912 133.606 115.912ZM136.46 125V113.48H138.22V125H136.46ZM143.395 125.16C142.702 125.16 142.072 124.984 141.507 124.632C140.952 124.28 140.51 123.805 140.179 123.208C139.859 122.6 139.699 121.923 139.699 121.176C139.699 120.419 139.859 119.741 140.179 119.144C140.51 118.536 140.952 118.056 141.507 117.704C142.072 117.341 142.702 117.16 143.395 117.16C143.982 117.16 144.499 117.288 144.947 117.544C145.406 117.789 145.768 118.131 146.035 118.568C146.302 119.005 146.435 119.501 146.435 120.056V122.264C146.435 122.819 146.302 123.315 146.035 123.752C145.779 124.189 145.422 124.536 144.963 124.792C144.504 125.037 143.982 125.16 143.395 125.16ZM143.683 123.496C144.12 123.496 144.499 123.4 144.819 123.208C145.15 123.005 145.406 122.728 145.587 122.376C145.768 122.024 145.859 121.619 145.859 121.16C145.859 120.701 145.768 120.296 145.587 119.944C145.406 119.592 145.15 119.32 144.819 119.128C144.499 118.925 144.12 118.824 143.683 118.824C143.256 118.824 142.878 118.925 142.547 119.128C142.227 119.32 141.971 119.592 141.779 119.944C141.598 120.296 141.507 120.701 141.507 121.16C141.507 121.619 141.598 122.024 141.779 122.376C141.971 122.728 142.227 123.005 142.547 123.208C142.878 123.4 143.256 123.496 143.683 123.496ZM147.507 125H145.747V122.936L146.051 121.064L145.747 119.208V113.48H147.507V125ZM156.2 125.16C155.442 125.16 154.754 124.984 154.136 124.632C153.528 124.28 153.048 123.8 152.696 123.192C152.344 122.584 152.168 121.907 152.168 121.16C152.168 120.403 152.344 119.725 152.696 119.128C153.048 118.52 153.528 118.04 154.136 117.688C154.754 117.336 155.442 117.16 156.2 117.16C156.797 117.16 157.352 117.277 157.864 117.512C158.386 117.736 158.829 118.061 159.192 118.488L158.04 119.656C157.816 119.389 157.544 119.192 157.224 119.064C156.914 118.925 156.573 118.856 156.2 118.856C155.762 118.856 155.373 118.957 155.032 119.16C154.701 119.352 154.44 119.619 154.248 119.96C154.066 120.301 153.976 120.701 153.976 121.16C153.976 121.608 154.066 122.008 154.248 122.36C154.44 122.701 154.701 122.973 155.032 123.176C155.373 123.368 155.762 123.464 156.2 123.464C156.573 123.464 156.914 123.4 157.224 123.272C157.544 123.133 157.816 122.931 158.04 122.664L159.192 123.832C158.829 124.259 158.386 124.589 157.864 124.824C157.352 125.048 156.797 125.16 156.2 125.16ZM165.724 125V120.568C165.724 120.056 165.559 119.635 165.228 119.304C164.908 118.973 164.492 118.808 163.98 118.808C163.639 118.808 163.335 118.883 163.068 119.032C162.802 119.181 162.594 119.389 162.444 119.656C162.295 119.923 162.22 120.227 162.22 120.568L161.532 120.184C161.532 119.597 161.66 119.08 161.916 118.632C162.172 118.173 162.524 117.816 162.972 117.56C163.431 117.293 163.943 117.16 164.508 117.16C165.084 117.16 165.596 117.288 166.044 117.544C166.492 117.8 166.844 118.157 167.1 118.616C167.356 119.064 167.484 119.587 167.484 120.184V125H165.724ZM160.46 125V113.48H162.22V125H160.46ZM172.841 125.16C172.073 125.16 171.38 124.989 170.761 124.648C170.153 124.296 169.668 123.816 169.305 123.208C168.953 122.6 168.777 121.917 168.777 121.16C168.777 120.403 168.953 119.725 169.305 119.128C169.657 118.52 170.132 118.04 170.729 117.688C171.337 117.336 172.009 117.16 172.745 117.16C173.46 117.16 174.089 117.325 174.633 117.656C175.188 117.987 175.62 118.44 175.929 119.016C176.249 119.592 176.409 120.248 176.409 120.984C176.409 121.112 176.398 121.245 176.377 121.384C176.366 121.512 176.345 121.656 176.313 121.816H170.009V120.376H175.401L174.745 120.952C174.724 120.483 174.633 120.088 174.473 119.768C174.313 119.448 174.084 119.203 173.785 119.032C173.497 118.861 173.14 118.776 172.713 118.776C172.265 118.776 171.876 118.872 171.545 119.064C171.214 119.256 170.958 119.528 170.777 119.88C170.596 120.221 170.505 120.632 170.505 121.112C170.505 121.592 170.601 122.013 170.793 122.376C170.985 122.739 171.257 123.021 171.609 123.224C171.961 123.416 172.366 123.512 172.825 123.512C173.22 123.512 173.582 123.443 173.913 123.304C174.254 123.165 174.542 122.963 174.777 122.696L175.897 123.832C175.524 124.269 175.07 124.6 174.537 124.824C174.004 125.048 173.438 125.16 172.841 125.16ZM181.356 125.16C180.598 125.16 179.91 124.984 179.292 124.632C178.684 124.28 178.204 123.8 177.852 123.192C177.5 122.584 177.324 121.907 177.324 121.16C177.324 120.403 177.5 119.725 177.852 119.128C178.204 118.52 178.684 118.04 179.292 117.688C179.91 117.336 180.598 117.16 181.356 117.16C181.953 117.16 182.508 117.277 183.02 117.512C183.542 117.736 183.985 118.061 184.348 118.488L183.196 119.656C182.972 119.389 182.7 119.192 182.38 119.064C182.07 118.925 181.729 118.856 181.356 118.856C180.918 118.856 180.529 118.957 180.188 119.16C179.857 119.352 179.596 119.619 179.404 119.96C179.222 120.301 179.132 120.701 179.132 121.16C179.132 121.608 179.222 122.008 179.404 122.36C179.596 122.701 179.857 122.973 180.188 123.176C180.529 123.368 180.918 123.464 181.356 123.464C181.729 123.464 182.07 123.4 182.38 123.272C182.7 123.133 182.972 122.931 183.196 122.664L184.348 123.832C183.985 124.259 183.542 124.589 183.02 124.824C182.508 125.048 181.953 125.16 181.356 125.16ZM190.497 125L187.249 121.08L190.481 117.32H192.577L188.865 121.544L188.945 120.536L192.737 125H190.497ZM185.617 125V113.48H187.377V125H185.617ZM197.901 125.16C197.314 125.16 196.791 125.037 196.333 124.792C195.874 124.536 195.511 124.189 195.245 123.752C194.989 123.315 194.861 122.819 194.861 122.264V120.056C194.861 119.501 194.994 119.005 195.261 118.568C195.527 118.131 195.89 117.789 196.349 117.544C196.807 117.288 197.325 117.16 197.901 117.16C198.594 117.16 199.218 117.341 199.773 117.704C200.338 118.056 200.781 118.536 201.101 119.144C201.431 119.741 201.597 120.419 201.597 121.176C201.597 121.923 201.431 122.6 201.101 123.208C200.781 123.805 200.338 124.28 199.773 124.632C199.218 124.984 198.594 125.16 197.901 125.16ZM193.789 125V113.48H195.549V119.208L195.245 121.064L195.549 122.936V125H193.789ZM197.613 123.496C198.039 123.496 198.413 123.4 198.733 123.208C199.063 123.005 199.319 122.728 199.501 122.376C199.693 122.024 199.789 121.619 199.789 121.16C199.789 120.701 199.693 120.296 199.501 119.944C199.319 119.592 199.063 119.32 198.733 119.128C198.413 118.925 198.039 118.824 197.613 118.824C197.186 118.824 196.807 118.925 196.477 119.128C196.146 119.32 195.89 119.592 195.709 119.944C195.527 120.296 195.437 120.701 195.437 121.16C195.437 121.619 195.527 122.024 195.709 122.376C195.89 122.728 196.146 123.005 196.477 123.208C196.807 123.4 197.186 123.496 197.613 123.496ZM206.59 125.16C205.843 125.16 205.166 124.984 204.558 124.632C203.95 124.269 203.464 123.784 203.102 123.176C202.75 122.568 202.574 121.891 202.574 121.144C202.574 120.397 202.75 119.725 203.102 119.128C203.464 118.531 203.95 118.056 204.558 117.704C205.166 117.341 205.843 117.16 206.59 117.16C207.347 117.16 208.03 117.336 208.638 117.688C209.246 118.04 209.726 118.52 210.078 119.128C210.44 119.725 210.622 120.397 210.622 121.144C210.622 121.891 210.44 122.568 210.078 123.176C209.726 123.784 209.246 124.269 208.638 124.632C208.03 124.984 207.347 125.16 206.59 125.16ZM206.59 123.464C207.027 123.464 207.411 123.368 207.742 123.176C208.083 122.973 208.344 122.696 208.526 122.344C208.718 121.992 208.814 121.592 208.814 121.144C208.814 120.696 208.718 120.301 208.526 119.96C208.334 119.619 208.072 119.352 207.742 119.16C207.411 118.957 207.027 118.856 206.59 118.856C206.163 118.856 205.779 118.957 205.438 119.16C205.107 119.352 204.846 119.619 204.654 119.96C204.472 120.301 204.382 120.696 204.382 121.144C204.382 121.592 204.472 121.992 204.654 122.344C204.846 122.696 205.107 122.973 205.438 123.176C205.779 123.368 206.163 123.464 206.59 123.464ZM216.731 125L214.523 121.752L214.203 121.464L211.227 117.32H213.355L215.323 120.168L215.627 120.44L218.843 125H216.731ZM211.083 125L214.187 120.696L215.211 121.96L213.131 125H211.083ZM215.787 121.432L214.747 120.184L216.667 117.32H218.699L215.787 121.432ZM222.954 123.912L227.226 119.528C227.589 119.165 227.882 118.84 228.106 118.552C228.33 118.264 228.49 117.992 228.586 117.736C228.693 117.48 228.746 117.219 228.746 116.952C228.746 116.451 228.576 116.061 228.234 115.784C227.893 115.496 227.456 115.352 226.922 115.352C226.389 115.352 225.904 115.48 225.466 115.736C225.04 115.992 224.656 116.413 224.314 117L223.018 115.944C223.466 115.187 224.021 114.616 224.682 114.232C225.344 113.837 226.112 113.64 226.986 113.64C227.701 113.64 228.325 113.779 228.858 114.056C229.392 114.333 229.808 114.723 230.106 115.224C230.405 115.715 230.554 116.285 230.554 116.936C230.554 117.416 230.496 117.843 230.378 118.216C230.261 118.579 230.064 118.941 229.786 119.304C229.509 119.667 229.125 120.093 228.634 120.584L225.338 123.864L222.954 123.912ZM222.954 125V123.912L224.538 123.352H230.794V125H222.954Z" fill="#F1F2F4"/>
<path fill-rule="evenodd" clip-rule="evenodd" d="M92.0732 150H91.9268C90.1034 150 88.6336 150 87.4777 150.155C86.2775 150.317 85.267 150.662 84.4645 151.464C83.6619 152.267 83.3167 153.278 83.1554 154.478C83 155.634 83 157.103 83 158.927V159.073C83 160.897 83 162.366 83.1554 163.522C83.3167 164.722 83.6619 165.733 84.4645 166.536C85.267 167.338 86.2775 167.683 87.4777 167.845C88.6336 168 90.1034 168 91.9269 168H92.0731C93.8966 168 95.3664 168 96.5223 167.845C97.7225 167.683 98.733 167.338 99.5355 166.536C100.338 165.733 100.683 164.722 100.845 163.522C101 162.366 101 160.897 101 159.073V158.927C101 157.103 101 155.634 100.845 154.478C100.683 153.278 100.338 152.267 99.5355 151.464C98.733 150.662 97.7225 150.317 96.5223 150.155C95.3664 150 93.8966 150 92.0732 150ZM96.9403 157.724C97.3399 157.342 97.3548 156.709 96.9736 156.31C96.5923 155.91 95.9593 155.895 95.5597 156.276L90.7474 160.867L88.6909 158.902C88.2916 158.52 87.6586 158.535 87.277 158.934C86.8955 159.333 86.9098 159.966 87.3091 160.348L90.0559 162.973C90.4422 163.342 91.0505 163.342 91.4371 162.974L96.9403 157.724Z" fill="#6061EE"/>
<path d="M118.304 165.16C117.493 165.16 116.741 165.016 116.048 164.728C115.365 164.429 114.768 164.019 114.256 163.496C113.744 162.963 113.349 162.349 113.072 161.656C112.795 160.952 112.656 160.2 112.656 159.4C112.656 158.6 112.795 157.853 113.072 157.16C113.349 156.456 113.744 155.843 114.256 155.32C114.768 154.797 115.365 154.387 116.048 154.088C116.741 153.789 117.493 153.64 118.304 153.64C119.211 153.64 119.995 153.789 120.656 154.088C121.317 154.387 121.904 154.792 122.416 155.304L121.168 156.552C120.837 156.189 120.432 155.907 119.952 155.704C119.483 155.501 118.933 155.4 118.304 155.4C117.749 155.4 117.243 155.496 116.784 155.688C116.325 155.88 115.925 156.157 115.584 156.52C115.253 156.872 114.997 157.293 114.816 157.784C114.635 158.275 114.544 158.813 114.544 159.4C114.544 159.987 114.635 160.525 114.816 161.016C114.997 161.507 115.253 161.933 115.584 162.296C115.925 162.648 116.325 162.92 116.784 163.112C117.243 163.304 117.749 163.4 118.304 163.4C118.987 163.4 119.563 163.299 120.032 163.096C120.512 162.883 120.917 162.595 121.248 162.232L122.496 163.48C121.984 164.003 121.381 164.413 120.688 164.712C119.995 165.011 119.2 165.16 118.304 165.16ZM129.162 165V160.568C129.162 160.056 128.997 159.635 128.666 159.304C128.346 158.973 127.93 158.808 127.418 158.808C127.077 158.808 126.773 158.883 126.506 159.032C126.239 159.181 126.031 159.389 125.882 159.656C125.733 159.923 125.658 160.227 125.658 160.568L124.97 160.184C124.97 159.597 125.098 159.08 125.354 158.632C125.61 158.173 125.962 157.816 126.41 157.56C126.869 157.293 127.381 157.16 127.946 157.16C128.522 157.16 129.034 157.288 129.482 157.544C129.93 157.8 130.282 158.157 130.538 158.616C130.794 159.064 130.922 159.587 130.922 160.184V165H129.162ZM123.898 165V153.48H125.658V165H123.898ZM132.726 165V157.32H134.486V165H132.726ZM133.606 155.912C133.308 155.912 133.057 155.811 132.854 155.608C132.662 155.405 132.566 155.155 132.566 154.856C132.566 154.557 132.662 154.307 132.854 154.104C133.057 153.901 133.308 153.8 133.606 153.8C133.916 153.8 134.166 153.901 134.358 154.104C134.55 154.307 134.646 154.557 134.646 154.856C134.646 155.155 134.55 155.405 134.358 155.608C134.166 155.811 133.916 155.912 133.606 155.912ZM136.46 165V153.48H138.22V165H136.46ZM143.395 165.16C142.702 165.16 142.072 164.984 141.507 164.632C140.952 164.28 140.51 163.805 140.179 163.208C139.859 162.6 139.699 161.923 139.699 161.176C139.699 160.419 139.859 159.741 140.179 159.144C140.51 158.536 140.952 158.056 141.507 157.704C142.072 157.341 142.702 157.16 143.395 157.16C143.982 157.16 144.499 157.288 144.947 157.544C145.406 157.789 145.768 158.131 146.035 158.568C146.302 159.005 146.435 159.501 146.435 160.056V162.264C146.435 162.819 146.302 163.315 146.035 163.752C145.779 164.189 145.422 164.536 144.963 164.792C144.504 165.037 143.982 165.16 143.395 165.16ZM143.683 163.496C144.12 163.496 144.499 163.4 144.819 163.208C145.15 163.005 145.406 162.728 145.587 162.376C145.768 162.024 145.859 161.619 145.859 161.16C145.859 160.701 145.768 160.296 145.587 159.944C145.406 159.592 145.15 159.32 144.819 159.128C144.499 158.925 144.12 158.824 143.683 158.824C143.256 158.824 142.878 158.925 142.547 159.128C142.227 159.32 141.971 159.592 141.779 159.944C141.598 160.296 141.507 160.701 141.507 161.16C141.507 161.619 141.598 162.024 141.779 162.376C141.971 162.728 142.227 163.005 142.547 163.208C142.878 163.4 143.256 163.496 143.683 163.496ZM147.507 165H145.747V162.936L146.051 161.064L145.747 159.208V153.48H147.507V165ZM156.2 165.16C155.442 165.16 154.754 164.984 154.136 164.632C153.528 164.28 153.048 163.8 152.696 163.192C152.344 162.584 152.168 161.907 152.168 161.16C152.168 160.403 152.344 159.725 152.696 159.128C153.048 158.52 153.528 158.04 154.136 157.688C154.754 157.336 155.442 157.16 156.2 157.16C156.797 157.16 157.352 157.277 157.864 157.512C158.386 157.736 158.829 158.061 159.192 158.488L158.04 159.656C157.816 159.389 157.544 159.192 157.224 159.064C156.914 158.925 156.573 158.856 156.2 158.856C155.762 158.856 155.373 158.957 155.032 159.16C154.701 159.352 154.44 159.619 154.248 159.96C154.066 160.301 153.976 160.701 153.976 161.16C153.976 161.608 154.066 162.008 154.248 162.36C154.44 162.701 154.701 162.973 155.032 163.176C155.373 163.368 155.762 163.464 156.2 163.464C156.573 163.464 156.914 163.4 157.224 163.272C157.544 163.133 157.816 162.931 158.04 162.664L159.192 163.832C158.829 164.259 158.386 164.589 157.864 164.824C157.352 165.048 156.797 165.16 156.2 165.16ZM165.724 165V160.568C165.724 160.056 165.559 159.635 165.228 159.304C164.908 158.973 164.492 158.808 163.98 158.808C163.639 158.808 163.335 158.883 163.068 159.032C162.802 159.181 162.594 159.389 162.444 159.656C162.295 159.923 162.22 160.227 162.22 160.568L161.532 160.184C161.532 159.597 161.66 159.08 161.916 158.632C162.172 158.173 162.524 157.816 162.972 157.56C163.431 157.293 163.943 157.16 164.508 157.16C165.084 157.16 165.596 157.288 166.044 157.544C166.492 157.8 166.844 158.157 167.1 158.616C167.356 159.064 167.484 159.587 167.484 160.184V165H165.724ZM160.46 165V153.48H162.22V165H160.46ZM172.841 165.16C172.073 165.16 171.38 164.989 170.761 164.648C170.153 164.296 169.668 163.816 169.305 163.208C168.953 162.6 168.777 161.917 168.777 161.16C168.777 160.403 168.953 159.725 169.305 159.128C169.657 158.52 170.132 158.04 170.729 157.688C171.337 157.336 172.009 157.16 172.745 157.16C173.46 157.16 174.089 157.325 174.633 157.656C175.188 157.987 175.62 158.44 175.929 159.016C176.249 159.592 176.409 160.248 176.409 160.984C176.409 161.112 176.398 161.245 176.377 161.384C176.366 161.512 176.345 161.656 176.313 161.816H170.009V160.376H175.401L174.745 160.952C174.724 160.483 174.633 160.088 174.473 159.768C174.313 159.448 174.084 159.203 173.785 159.032C173.497 158.861 173.14 158.776 172.713 158.776C172.265 158.776 171.876 158.872 171.545 159.064C171.214 159.256 170.958 159.528 170.777 159.88C170.596 160.221 170.505 160.632 170.505 161.112C170.505 161.592 170.601 162.013 170.793 162.376C170.985 162.739 171.257 163.021 171.609 163.224C171.961 163.416 172.366 163.512 172.825 163.512C173.22 163.512 173.582 163.443 173.913 163.304C174.254 163.165 174.542 162.963 174.777 162.696L175.897 163.832C175.524 164.269 175.07 164.6 174.537 164.824C174.004 165.048 173.438 165.16 172.841 165.16ZM181.356 165.16C180.598 165.16 179.91 164.984 179.292 164.632C178.684 164.28 178.204 163.8 177.852 163.192C177.5 162.584 177.324 161.907 177.324 161.16C177.324 160.403 177.5 159.725 177.852 159.128C178.204 158.52 178.684 158.04 179.292 157.688C179.91 157.336 180.598 157.16 181.356 157.16C181.953 157.16 182.508 157.277 183.02 157.512C183.542 157.736 183.985 158.061 184.348 158.488L183.196 159.656C182.972 159.389 182.7 159.192 182.38 159.064C182.07 158.925 181.729 158.856 181.356 158.856C180.918 158.856 180.529 158.957 180.188 159.16C179.857 159.352 179.596 159.619 179.404 159.96C179.222 160.301 179.132 160.701 179.132 161.16C179.132 161.608 179.222 162.008 179.404 162.36C179.596 162.701 179.857 162.973 180.188 163.176C180.529 163.368 180.918 163.464 181.356 163.464C181.729 163.464 182.07 163.4 182.38 163.272C182.7 163.133 182.972 162.931 183.196 162.664L184.348 163.832C183.985 164.259 183.542 164.589 183.02 164.824C182.508 165.048 181.953 165.16 181.356 165.16ZM190.497 165L187.249 161.08L190.481 157.32H192.577L188.865 161.544L188.945 160.536L192.737 165H190.497ZM185.617 165V153.48H187.377V165H185.617ZM197.901 165.16C197.314 165.16 196.791 165.037 196.333 164.792C195.874 164.536 195.511 164.189 195.245 163.752C194.989 163.315 194.861 162.819 194.861 162.264V160.056C194.861 159.501 194.994 159.005 195.261 158.568C195.527 158.131 195.89 157.789 196.349 157.544C196.807 157.288 197.325 157.16 197.901 157.16C198.594 157.16 199.218 157.341 199.773 157.704C200.338 158.056 200.781 158.536 201.101 159.144C201.431 159.741 201.597 160.419 201.597 161.176C201.597 161.923 201.431 162.6 201.101 163.208C200.781 163.805 200.338 164.28 199.773 164.632C199.218 164.984 198.594 165.16 197.901 165.16ZM193.789 165V153.48H195.549V159.208L195.245 161.064L195.549 162.936V165H193.789ZM197.613 163.496C198.039 163.496 198.413 163.4 198.733 163.208C199.063 163.005 199.319 162.728 199.501 162.376C199.693 162.024 199.789 161.619 199.789 161.16C199.789 160.701 199.693 160.296 199.501 159.944C199.319 159.592 199.063 159.32 198.733 159.128C198.413 158.925 198.039 158.824 197.613 158.824C197.186 158.824 196.807 158.925 196.477 159.128C196.146 159.32 195.89 159.592 195.709 159.944C195.527 160.296 195.437 160.701 195.437 161.16C195.437 161.619 195.527 162.024 195.709 162.376C195.89 162.728 196.146 163.005 196.477 163.208C196.807 163.4 197.186 163.496 197.613 163.496ZM206.59 165.16C205.843 165.16 205.166 164.984 204.558 164.632C203.95 164.269 203.464 163.784 203.102 163.176C202.75 162.568 202.574 161.891 202.574 161.144C202.574 160.397 202.75 159.725 203.102 159.128C203.464 158.531 203.95 158.056 204.558 157.704C205.166 157.341 205.843 157.16 206.59 157.16C207.347 157.16 208.03 157.336 208.638 157.688C209.246 158.04 209.726 158.52 210.078 159.128C210.44 159.725 210.622 160.397 210.622 161.144C210.622 161.891 210.44 162.568 210.078 163.176C209.726 163.784 209.246 164.269 208.638 164.632C208.03 164.984 207.347 165.16 206.59 165.16ZM206.59 163.464C207.027 163.464 207.411 163.368 207.742 163.176C208.083 162.973 208.344 162.696 208.526 162.344C208.718 161.992 208.814 161.592 208.814 161.144C208.814 160.696 208.718 160.301 208.526 159.96C208.334 159.619 208.072 159.352 207.742 159.16C207.411 158.957 207.027 158.856 206.59 158.856C206.163 158.856 205.779 158.957 205.438 159.16C205.107 159.352 204.846 159.619 204.654 159.96C204.472 160.301 204.382 160.696 204.382 161.144C204.382 161.592 204.472 161.992 204.654 162.344C204.846 162.696 205.107 162.973 205.438 163.176C205.779 163.368 206.163 163.464 206.59 163.464ZM216.731 165L214.523 161.752L214.203 161.464L211.227 157.32H213.355L215.323 160.168L215.627 160.44L218.843 165H216.731ZM211.083 165L214.187 160.696L215.211 161.96L213.131 165H211.083ZM215.787 161.432L214.747 160.184L216.667 157.32H218.699L215.787 161.432ZM226.554 165.16C225.776 165.16 225.077 165.027 224.458 164.76C223.85 164.483 223.328 164.083 222.89 163.56L224.138 162.312C224.384 162.653 224.714 162.925 225.13 163.128C225.557 163.331 226.021 163.432 226.522 163.432C227.002 163.432 227.418 163.347 227.77 163.176C228.122 163.005 228.394 162.765 228.586 162.456C228.789 162.147 228.89 161.789 228.89 161.384C228.89 160.957 228.789 160.595 228.586 160.296C228.394 159.997 228.112 159.768 227.738 159.608C227.376 159.437 226.938 159.352 226.426 159.352C226.224 159.352 226.021 159.368 225.818 159.4C225.616 159.421 225.429 159.459 225.258 159.512L226.074 158.456C226.298 158.371 226.538 158.301 226.794 158.248C227.05 158.184 227.301 158.152 227.546 158.152C228.154 158.152 228.698 158.291 229.178 158.568C229.658 158.845 230.037 159.235 230.314 159.736C230.602 160.227 230.746 160.808 230.746 161.48C230.746 162.205 230.57 162.845 230.218 163.4C229.866 163.955 229.376 164.387 228.746 164.696C228.117 165.005 227.386 165.16 226.554 165.16ZM225.258 159.512V158.424L228.394 154.936L230.618 154.888L227.338 158.472L225.258 159.512ZM223.466 155.448V153.8H230.618V154.888L229.018 155.448H223.466Z" fill="#F1F2F4"/>
</svg>
