<svg width="280" height="190" viewBox="0 0 280 190" fill="none" xmlns="http://www.w3.org/2000/svg">
<rect width="280" height="190" fill="#F6F6F8"/>
<path fill-rule="evenodd" clip-rule="evenodd" d="M53.5732 86H53.4268C51.6034 86 50.1336 86 48.9777 86.1554C47.7775 86.3167 46.767 86.6619 45.9645 87.4645C45.1619 88.267 44.8167 89.2775 44.6554 90.4777C44.5 91.6336 44.5 93.1034 44.5 94.9268V95.0732C44.5 96.8966 44.5 98.3664 44.6554 99.5223C44.8167 100.722 45.1619 101.733 45.9645 102.536C46.767 103.338 47.7775 103.683 48.9777 103.845C50.1336 104 51.6034 104 53.4269 104H53.5731C55.3966 104 56.8664 104 58.0223 103.845C59.2225 103.683 60.233 103.338 61.0355 102.536C61.8381 101.733 62.1833 100.722 62.3446 99.5223C62.5001 98.3664 62.5 96.8966 62.5 95.0731V94.9269C62.5 93.1034 62.5001 91.6336 62.3446 90.4777C62.1833 89.2775 61.8381 88.267 61.0355 87.4645C60.233 86.6619 59.2225 86.3167 58.0223 86.1554C56.8664 86 55.3966 86 53.5732 86ZM58.4403 93.7236C58.8399 93.3423 58.8548 92.7093 58.4736 92.3097C58.0923 91.9101 57.4593 91.8952 57.0597 92.2764L52.2474 96.8674L50.1909 94.902C49.7916 94.5205 49.1586 94.5348 48.777 94.9341C48.3955 95.3334 48.4098 95.9664 48.8091 96.348L51.5559 98.973C51.9422 99.3421 52.5505 99.3424 52.9371 98.9736L58.4403 93.7236Z" fill="#4F46E5"/>
<path d="M77.836 101.16C76.9507 101.16 76.1987 101 75.58 100.68C74.9613 100.36 74.4067 99.8907 73.916 99.272L75.164 98.024C75.4733 98.472 75.8413 98.824 76.268 99.08C76.6947 99.3253 77.2387 99.448 77.9 99.448C78.5187 99.448 79.0093 99.32 79.372 99.064C79.7453 98.808 79.932 98.456 79.932 98.008C79.932 97.6347 79.836 97.3307 79.644 97.096C79.452 96.8613 79.196 96.6693 78.876 96.52C78.5667 96.36 78.22 96.2213 77.836 96.104C77.4627 95.976 77.084 95.8373 76.7 95.688C76.3267 95.528 75.98 95.3307 75.66 95.096C75.3507 94.8613 75.1 94.5573 74.908 94.184C74.716 93.8107 74.62 93.336 74.62 92.76C74.62 92.0987 74.78 91.5387 75.1 91.08C75.4307 90.6107 75.8733 90.2533 76.428 90.008C76.9827 89.7627 77.6013 89.64 78.284 89.64C79.02 89.64 79.676 89.784 80.252 90.072C80.8387 90.36 81.3133 90.728 81.676 91.176L80.428 92.424C80.108 92.0613 79.772 91.7947 79.42 91.624C79.0787 91.4427 78.684 91.352 78.236 91.352C77.6813 91.352 77.244 91.464 76.924 91.688C76.6147 91.912 76.46 92.2267 76.46 92.632C76.46 92.9733 76.556 93.2507 76.748 93.464C76.94 93.6667 77.1907 93.8427 77.5 93.992C77.82 94.1307 78.1667 94.264 78.54 94.392C78.924 94.52 79.3027 94.664 79.676 94.824C80.06 94.984 80.4067 95.192 80.716 95.448C81.036 95.6933 81.292 96.0133 81.484 96.408C81.676 96.8027 81.772 97.2987 81.772 97.896C81.772 98.8987 81.4147 99.6933 80.7 100.28C79.996 100.867 79.0413 101.16 77.836 101.16ZM86.5186 101.16C85.868 101.16 85.2866 101.016 84.7746 100.728C84.2733 100.44 83.8786 100.045 83.5906 99.544C83.3133 99.032 83.1746 98.4453 83.1746 97.784V93.32H84.9346V97.704C84.9346 98.0773 84.9933 98.3973 85.1106 98.664C85.2386 98.92 85.42 99.1173 85.6546 99.256C85.9 99.3947 86.188 99.464 86.5186 99.464C87.0306 99.464 87.42 99.3147 87.6866 99.016C87.964 98.7067 88.1026 98.2693 88.1026 97.704V93.32H89.8626V97.784C89.8626 98.456 89.7186 99.048 89.4306 99.56C89.1533 100.061 88.764 100.456 88.2626 100.744C87.7613 101.021 87.18 101.16 86.5186 101.16ZM95.7443 101.16C95.1576 101.16 94.6349 101.037 94.1763 100.792C93.7176 100.536 93.3549 100.189 93.0883 99.752C92.8323 99.3147 92.7043 98.8187 92.7043 98.264V96.056C92.7043 95.5013 92.8376 95.0053 93.1043 94.568C93.3709 94.1307 93.7336 93.7893 94.1923 93.544C94.6509 93.288 95.1683 93.16 95.7443 93.16C96.4376 93.16 97.0616 93.3413 97.6163 93.704C98.1816 94.056 98.6243 94.536 98.9443 95.144C99.2749 95.7413 99.4403 96.4187 99.4403 97.176C99.4403 97.9227 99.2749 98.6 98.9443 99.208C98.6243 99.8053 98.1816 100.28 97.6163 100.632C97.0616 100.984 96.4376 101.16 95.7443 101.16ZM91.6323 101V89.48H93.3923V95.208L93.0883 97.064L93.3923 98.936V101H91.6323ZM95.4563 99.496C95.8829 99.496 96.2563 99.4 96.5763 99.208C96.9069 99.0053 97.1629 98.728 97.3443 98.376C97.5363 98.024 97.6323 97.6187 97.6323 97.16C97.6323 96.7013 97.5363 96.296 97.3443 95.944C97.1629 95.592 96.9069 95.32 96.5763 95.128C96.2563 94.9253 95.8829 94.824 95.4563 94.824C95.0296 94.824 94.6509 94.9253 94.3203 95.128C93.9896 95.32 93.7336 95.592 93.5523 95.944C93.3709 96.296 93.2803 96.7013 93.2803 97.16C93.2803 97.6187 93.3709 98.024 93.5523 98.376C93.7336 98.728 93.9896 99.0053 94.3203 99.208C94.6509 99.4 95.0296 99.496 95.4563 99.496ZM103.426 101.16C102.999 101.16 102.588 101.107 102.194 101C101.799 100.883 101.436 100.723 101.106 100.52C100.775 100.307 100.487 100.051 100.242 99.752L101.362 98.632C101.628 98.9413 101.932 99.176 102.274 99.336C102.626 99.4853 103.02 99.56 103.458 99.56C103.852 99.56 104.151 99.5013 104.354 99.384C104.556 99.2667 104.658 99.096 104.658 98.872C104.658 98.6373 104.562 98.456 104.37 98.328C104.178 98.2 103.927 98.0933 103.618 98.008C103.319 97.912 102.999 97.816 102.658 97.72C102.327 97.624 102.007 97.496 101.698 97.336C101.399 97.1653 101.154 96.936 100.962 96.648C100.77 96.36 100.674 95.9867 100.674 95.528C100.674 95.0373 100.786 94.616 101.01 94.264C101.244 93.912 101.57 93.64 101.986 93.448C102.412 93.256 102.919 93.16 103.506 93.16C104.124 93.16 104.668 93.272 105.138 93.496C105.618 93.7093 106.018 94.0347 106.338 94.472L105.218 95.592C104.994 95.3147 104.738 95.1067 104.45 94.968C104.162 94.8293 103.831 94.76 103.458 94.76C103.106 94.76 102.834 94.8133 102.642 94.92C102.45 95.0267 102.354 95.1813 102.354 95.384C102.354 95.5973 102.45 95.7627 102.642 95.88C102.834 95.9973 103.079 96.0987 103.378 96.184C103.687 96.2693 104.007 96.3653 104.338 96.472C104.679 96.568 104.999 96.7067 105.298 96.888C105.607 97.0587 105.858 97.2933 106.05 97.592C106.242 97.88 106.338 98.2587 106.338 98.728C106.338 99.4747 106.076 100.067 105.554 100.504C105.031 100.941 104.322 101.16 103.426 101.16ZM111.325 101.16C110.567 101.16 109.879 100.984 109.261 100.632C108.653 100.28 108.173 99.8 107.821 99.192C107.469 98.584 107.293 97.9067 107.293 97.16C107.293 96.4027 107.469 95.7253 107.821 95.128C108.173 94.52 108.653 94.04 109.261 93.688C109.879 93.336 110.567 93.16 111.325 93.16C111.922 93.16 112.477 93.2773 112.989 93.512C113.511 93.736 113.954 94.0613 114.317 94.488L113.165 95.656C112.941 95.3893 112.669 95.192 112.349 95.064C112.039 94.9253 111.698 94.856 111.325 94.856C110.887 94.856 110.498 94.9573 110.157 95.16C109.826 95.352 109.565 95.6187 109.373 95.96C109.191 96.3013 109.101 96.7013 109.101 97.16C109.101 97.608 109.191 98.008 109.373 98.36C109.565 98.7013 109.826 98.9733 110.157 99.176C110.498 99.368 110.887 99.464 111.325 99.464C111.698 99.464 112.039 99.4 112.349 99.272C112.669 99.1333 112.941 98.9307 113.165 98.664L114.317 99.832C113.954 100.259 113.511 100.589 112.989 100.824C112.477 101.048 111.922 101.16 111.325 101.16ZM115.585 101V93.32H117.345V101H115.585ZM117.345 96.728L116.737 96.424C116.737 95.4533 116.951 94.6693 117.377 94.072C117.815 93.464 118.471 93.16 119.345 93.16C119.729 93.16 120.076 93.2293 120.385 93.368C120.695 93.5067 120.983 93.7307 121.249 94.04L120.097 95.224C119.959 95.0747 119.804 94.968 119.633 94.904C119.463 94.84 119.265 94.808 119.041 94.808C118.551 94.808 118.145 94.9627 117.825 95.272C117.505 95.5813 117.345 96.0667 117.345 96.728ZM122.117 101V93.32H123.877V101H122.117ZM122.997 91.912C122.698 91.912 122.448 91.8107 122.245 91.608C122.053 91.4053 121.957 91.1547 121.957 90.856C121.957 90.5573 122.053 90.3067 122.245 90.104C122.448 89.9013 122.698 89.8 122.997 89.8C123.306 89.8 123.557 89.9013 123.749 90.104C123.941 90.3067 124.037 90.5573 124.037 90.856C124.037 91.1547 123.941 91.4053 123.749 91.608C123.557 91.8107 123.306 91.912 122.997 91.912ZM129.963 101.16C129.376 101.16 128.854 101.037 128.395 100.792C127.936 100.536 127.574 100.189 127.307 99.752C127.051 99.3147 126.923 98.8187 126.923 98.264V96.056C126.923 95.5013 127.056 95.0053 127.323 94.568C127.59 94.1307 127.952 93.7893 128.411 93.544C128.87 93.288 129.387 93.16 129.963 93.16C130.656 93.16 131.28 93.3413 131.835 93.704C132.4 94.056 132.843 94.536 133.163 95.144C133.494 95.7413 133.659 96.4187 133.659 97.176C133.659 97.9227 133.494 98.6 133.163 99.208C132.843 99.8053 132.4 100.28 131.835 100.632C131.28 100.984 130.656 101.16 129.963 101.16ZM125.851 101V89.48H127.611V95.208L127.307 97.064L127.611 98.936V101H125.851ZM129.675 99.496C130.102 99.496 130.475 99.4 130.795 99.208C131.126 99.0053 131.382 98.728 131.563 98.376C131.755 98.024 131.851 97.6187 131.851 97.16C131.851 96.7013 131.755 96.296 131.563 95.944C131.382 95.592 131.126 95.32 130.795 95.128C130.475 94.9253 130.102 94.824 129.675 94.824C129.248 94.824 128.87 94.9253 128.539 95.128C128.208 95.32 127.952 95.592 127.771 95.944C127.59 96.296 127.499 96.7013 127.499 97.16C127.499 97.6187 127.59 98.024 127.771 98.376C127.952 98.728 128.208 99.0053 128.539 99.208C128.87 99.4 129.248 99.496 129.675 99.496ZM138.7 101.16C137.932 101.16 137.239 100.989 136.62 100.648C136.012 100.296 135.527 99.816 135.164 99.208C134.812 98.6 134.636 97.9173 134.636 97.16C134.636 96.4027 134.812 95.7253 135.164 95.128C135.516 94.52 135.991 94.04 136.588 93.688C137.196 93.336 137.868 93.16 138.604 93.16C139.319 93.16 139.948 93.3253 140.492 93.656C141.047 93.9867 141.479 94.44 141.788 95.016C142.108 95.592 142.268 96.248 142.268 96.984C142.268 97.112 142.258 97.2453 142.236 97.384C142.226 97.512 142.204 97.656 142.172 97.816H135.868V96.376H141.26L140.604 96.952C140.583 96.4827 140.492 96.088 140.332 95.768C140.172 95.448 139.943 95.2027 139.644 95.032C139.356 94.8613 138.999 94.776 138.572 94.776C138.124 94.776 137.735 94.872 137.404 95.064C137.074 95.256 136.818 95.528 136.636 95.88C136.455 96.2213 136.364 96.632 136.364 97.112C136.364 97.592 136.46 98.0133 136.652 98.376C136.844 98.7387 137.116 99.0213 137.468 99.224C137.82 99.416 138.226 99.512 138.684 99.512C139.079 99.512 139.442 99.4427 139.772 99.304C140.114 99.1653 140.402 98.9627 140.636 98.696L141.756 99.832C141.383 100.269 140.93 100.6 140.396 100.824C139.863 101.048 139.298 101.16 138.7 101.16ZM148.05 101V90.12H149.81V101H148.05ZM146.21 94.92V93.32H151.65V94.92H146.21ZM156.23 101.16C155.484 101.16 154.806 100.984 154.198 100.632C153.59 100.269 153.105 99.784 152.742 99.176C152.39 98.568 152.214 97.8907 152.214 97.144C152.214 96.3973 152.39 95.7253 152.742 95.128C153.105 94.5307 153.59 94.056 154.198 93.704C154.806 93.3413 155.484 93.16 156.23 93.16C156.988 93.16 157.67 93.336 158.278 93.688C158.886 94.04 159.366 94.52 159.718 95.128C160.081 95.7253 160.262 96.3973 160.262 97.144C160.262 97.8907 160.081 98.568 159.718 99.176C159.366 99.784 158.886 100.269 158.278 100.632C157.67 100.984 156.988 101.16 156.23 101.16ZM156.23 99.464C156.668 99.464 157.052 99.368 157.382 99.176C157.724 98.9733 157.985 98.696 158.166 98.344C158.358 97.992 158.454 97.592 158.454 97.144C158.454 96.696 158.358 96.3013 158.166 95.96C157.974 95.6187 157.713 95.352 157.382 95.16C157.052 94.9573 156.668 94.856 156.23 94.856C155.804 94.856 155.42 94.9573 155.078 95.16C154.748 95.352 154.486 95.6187 154.294 95.96C154.113 96.3013 154.022 96.696 154.022 97.144C154.022 97.592 154.113 97.992 154.294 98.344C154.486 98.696 154.748 98.9733 155.078 99.176C155.42 99.368 155.804 99.464 156.23 99.464ZM170.193 101V96.568C170.193 96.056 170.028 95.6347 169.697 95.304C169.377 94.9733 168.961 94.808 168.449 94.808C168.108 94.808 167.804 94.8827 167.537 95.032C167.27 95.1813 167.062 95.3893 166.913 95.656C166.764 95.9227 166.689 96.2267 166.689 96.568L166.001 96.184C166.001 95.5973 166.129 95.08 166.385 94.632C166.641 94.1733 166.993 93.816 167.441 93.56C167.9 93.2933 168.412 93.16 168.977 93.16C169.553 93.16 170.065 93.3093 170.513 93.608C170.961 93.896 171.313 94.2747 171.569 94.744C171.825 95.2027 171.953 95.6827 171.953 96.184V101H170.193ZM164.929 101V93.32H166.689V101H164.929ZM177.31 101.16C176.542 101.16 175.848 100.989 175.23 100.648C174.622 100.296 174.136 99.816 173.774 99.208C173.422 98.6 173.246 97.9173 173.246 97.16C173.246 96.4027 173.422 95.7253 173.774 95.128C174.126 94.52 174.6 94.04 175.198 93.688C175.806 93.336 176.478 93.16 177.214 93.16C177.928 93.16 178.558 93.3253 179.102 93.656C179.656 93.9867 180.088 94.44 180.398 95.016C180.718 95.592 180.878 96.248 180.878 96.984C180.878 97.112 180.867 97.2453 180.846 97.384C180.835 97.512 180.814 97.656 180.782 97.816H174.478V96.376H179.87L179.214 96.952C179.192 96.4827 179.102 96.088 178.942 95.768C178.782 95.448 178.552 95.2027 178.254 95.032C177.966 94.8613 177.608 94.776 177.182 94.776C176.734 94.776 176.344 94.872 176.014 95.064C175.683 95.256 175.427 95.528 175.246 95.88C175.064 96.2213 174.974 96.632 174.974 97.112C174.974 97.592 175.07 98.0133 175.262 98.376C175.454 98.7387 175.726 99.0213 176.078 99.224C176.43 99.416 176.835 99.512 177.294 99.512C177.688 99.512 178.051 99.4427 178.382 99.304C178.723 99.1653 179.011 98.9627 179.246 98.696L180.366 99.832C179.992 100.269 179.539 100.6 179.006 100.824C178.472 101.048 177.907 101.16 177.31 101.16ZM184.435 101L181.347 93.32H183.171L185.251 98.904L184.707 98.92L186.739 93.32H187.763L189.795 98.92L189.251 98.904L191.331 93.32H193.155L190.067 101H189.043L186.963 95.688H187.539L185.459 101H184.435ZM196.582 101.16C196.155 101.16 195.744 101.107 195.35 101C194.955 100.883 194.592 100.723 194.262 100.52C193.931 100.307 193.643 100.051 193.398 99.752L194.518 98.632C194.784 98.9413 195.088 99.176 195.43 99.336C195.782 99.4853 196.176 99.56 196.614 99.56C197.008 99.56 197.307 99.5013 197.51 99.384C197.712 99.2667 197.814 99.096 197.814 98.872C197.814 98.6373 197.718 98.456 197.526 98.328C197.334 98.2 197.083 98.0933 196.774 98.008C196.475 97.912 196.155 97.816 195.814 97.72C195.483 97.624 195.163 97.496 194.854 97.336C194.555 97.1653 194.31 96.936 194.118 96.648C193.926 96.36 193.83 95.9867 193.83 95.528C193.83 95.0373 193.942 94.616 194.166 94.264C194.4 93.912 194.726 93.64 195.142 93.448C195.568 93.256 196.075 93.16 196.662 93.16C197.28 93.16 197.824 93.272 198.294 93.496C198.774 93.7093 199.174 94.0347 199.494 94.472L198.374 95.592C198.15 95.3147 197.894 95.1067 197.606 94.968C197.318 94.8293 196.987 94.76 196.614 94.76C196.262 94.76 195.99 94.8133 195.798 94.92C195.606 95.0267 195.51 95.1813 195.51 95.384C195.51 95.5973 195.606 95.7627 195.798 95.88C195.99 95.9973 196.235 96.0987 196.534 96.184C196.843 96.2693 197.163 96.3653 197.494 96.472C197.835 96.568 198.155 96.7067 198.454 96.888C198.763 97.0587 199.014 97.2933 199.206 97.592C199.398 97.88 199.494 98.2587 199.494 98.728C199.494 99.4747 199.232 100.067 198.71 100.504C198.187 100.941 197.478 101.16 196.582 101.16ZM200.945 101V89.48H202.705V101H200.945ZM208.232 101.16C207.464 101.16 206.77 100.989 206.152 100.648C205.544 100.296 205.058 99.816 204.696 99.208C204.344 98.6 204.168 97.9173 204.168 97.16C204.168 96.4027 204.344 95.7253 204.696 95.128C205.048 94.52 205.522 94.04 206.12 93.688C206.728 93.336 207.4 93.16 208.136 93.16C208.85 93.16 209.48 93.3253 210.024 93.656C210.578 93.9867 211.01 94.44 211.32 95.016C211.64 95.592 211.8 96.248 211.8 96.984C211.8 97.112 211.789 97.2453 211.767 97.384C211.757 97.512 211.736 97.656 211.704 97.816H205.4V96.376H210.792L210.136 96.952C210.114 96.4827 210.024 96.088 209.864 95.768C209.704 95.448 209.474 95.2027 209.176 95.032C208.888 94.8613 208.53 94.776 208.104 94.776C207.656 94.776 207.266 94.872 206.936 95.064C206.605 95.256 206.349 95.528 206.168 95.88C205.986 96.2213 205.896 96.632 205.896 97.112C205.896 97.592 205.992 98.0133 206.184 98.376C206.376 98.7387 206.648 99.0213 207 99.224C207.352 99.416 207.757 99.512 208.216 99.512C208.61 99.512 208.973 99.4427 209.304 99.304C209.645 99.1653 209.933 98.9627 210.168 98.696L211.288 99.832C210.914 100.269 210.461 100.6 209.928 100.824C209.394 101.048 208.829 101.16 208.232 101.16ZM214.378 101V90.12H216.138V101H214.378ZM212.538 94.92V93.32H222.618V94.92H212.538ZM219.018 101V90.12H220.778V101H219.018ZM227.247 101.16C226.479 101.16 225.786 100.989 225.167 100.648C224.559 100.296 224.074 99.816 223.711 99.208C223.359 98.6 223.183 97.9173 223.183 97.16C223.183 96.4027 223.359 95.7253 223.711 95.128C224.063 94.52 224.538 94.04 225.135 93.688C225.743 93.336 226.415 93.16 227.151 93.16C227.866 93.16 228.495 93.3253 229.039 93.656C229.594 93.9867 230.026 94.44 230.335 95.016C230.655 95.592 230.815 96.248 230.815 96.984C230.815 97.112 230.804 97.2453 230.783 97.384C230.772 97.512 230.751 97.656 230.719 97.816H224.415V96.376H229.807L229.151 96.952C229.13 96.4827 229.039 96.088 228.879 95.768C228.719 95.448 228.49 95.2027 228.191 95.032C227.903 94.8613 227.546 94.776 227.119 94.776C226.671 94.776 226.282 94.872 225.951 95.064C225.62 95.256 225.364 95.528 225.183 95.88C225.002 96.2213 224.911 96.632 224.911 97.112C224.911 97.592 225.007 98.0133 225.199 98.376C225.391 98.7387 225.663 99.0213 226.015 99.224C226.367 99.416 226.772 99.512 227.231 99.512C227.626 99.512 227.988 99.4427 228.319 99.304C228.66 99.1653 228.948 98.9627 229.183 98.696L230.303 99.832C229.93 100.269 229.476 100.6 228.943 100.824C228.41 101.048 227.844 101.16 227.247 101.16ZM232.226 101V93.32H233.986V101H232.226ZM233.986 96.728L233.378 96.424C233.378 95.4533 233.591 94.6693 234.018 94.072C234.455 93.464 235.111 93.16 235.986 93.16C236.37 93.16 236.717 93.2293 237.026 93.368C237.335 93.5067 237.623 93.7307 237.89 94.04L236.738 95.224C236.599 95.0747 236.445 94.968 236.274 94.904C236.103 94.84 235.906 94.808 235.682 94.808C235.191 94.808 234.786 94.9627 234.466 95.272C234.146 95.5813 233.986 96.0667 233.986 96.728Z" fill="#2A2C35"/>
</svg>
