<svg width="72" height="88" viewBox="0 0 72 88" fill="none" xmlns="http://www.w3.org/2000/svg">
<path d="M60 24C60 37.2548 49.2548 48 36 48C22.7452 48 12 37.2548 12 24C12 10.7452 22.7452 1.52588e-05 36 1.52588e-05C49.2548 1.52588e-05 60 10.7452 60 24ZM17.28 24C17.28 34.3388 25.6612 42.72 36 42.72C46.3388 42.72 54.72 34.3388 54.72 24C54.72 13.6612 46.3388 5.28002 36 5.28002C25.6612 5.28002 17.28 13.6612 17.28 24Z" fill="#181545"/>
<path d="M22.2701 7.6373C21.3329 6.52039 21.4716 4.84138 22.6847 4.03245C26.146 1.72423 30.162 0.346711 34.3426 0.0573139C39.4045 -0.293095 44.4472 0.969817 48.7465 3.66465C53.0458 6.35949 56.3803 10.3476 58.2712 15.0561C59.8329 18.9448 60.3435 23.1597 59.7747 27.281C59.5754 28.7253 58.1247 29.5821 56.711 29.2254C55.2973 28.8687 54.4603 27.4325 54.6147 25.9827C54.9374 22.9529 54.5169 19.8759 53.3715 17.0238C51.8966 13.3511 49.2957 10.2404 45.9423 8.13843C42.5888 6.03646 38.6555 5.05139 34.7072 5.32471C31.6411 5.53696 28.6884 6.49964 26.1022 8.11064C24.8646 8.88154 23.2073 8.75422 22.2701 7.6373Z" fill="#6061EE"/>
<path d="M1.31756 82V70.8H3.15756V82H1.31756ZM2.58156 82V80.32H8.43756V82H2.58156ZM13.1288 82.16C12.3821 82.16 11.7048 81.984 11.0968 81.632C10.4888 81.2693 10.0035 80.784 9.64081 80.176C9.28881 79.568 9.11281 78.8907 9.11281 78.144C9.11281 77.3973 9.28881 76.7253 9.64081 76.128C10.0035 75.5307 10.4888 75.056 11.0968 74.704C11.7048 74.3413 12.3821 74.16 13.1288 74.16C13.8861 74.16 14.5688 74.336 15.1768 74.688C15.7848 75.04 16.2648 75.52 16.6168 76.128C16.9795 76.7253 17.1608 77.3973 17.1608 78.144C17.1608 78.8907 16.9795 79.568 16.6168 80.176C16.2648 80.784 15.7848 81.2693 15.1768 81.632C14.5688 81.984 13.8861 82.16 13.1288 82.16ZM13.1288 80.464C13.5661 80.464 13.9501 80.368 14.2808 80.176C14.6221 79.9733 14.8835 79.696 15.0648 79.344C15.2568 78.992 15.3528 78.592 15.3528 78.144C15.3528 77.696 15.2568 77.3013 15.0648 76.96C14.8728 76.6187 14.6115 76.352 14.2808 76.16C13.9501 75.9573 13.5661 75.856 13.1288 75.856C12.7021 75.856 12.3181 75.9573 11.9768 76.16C11.6461 76.352 11.3848 76.6187 11.1928 76.96C11.0115 77.3013 10.9208 77.696 10.9208 78.144C10.9208 78.592 11.0115 78.992 11.1928 79.344C11.3848 79.696 11.6461 79.9733 11.9768 80.176C12.3181 80.368 12.7021 80.464 13.1288 80.464ZM21.8404 82.16C21.1471 82.16 20.5178 81.984 19.9524 81.632C19.3978 81.28 18.9551 80.8053 18.6244 80.208C18.3044 79.6 18.1444 78.9227 18.1444 78.176C18.1444 77.4187 18.3044 76.7413 18.6244 76.144C18.9551 75.536 19.3978 75.056 19.9524 74.704C20.5178 74.3413 21.1471 74.16 21.8404 74.16C22.4271 74.16 22.9444 74.288 23.3924 74.544C23.8511 74.7893 24.2138 75.1307 24.4804 75.568C24.7471 76.0053 24.8804 76.5013 24.8804 77.056V79.264C24.8804 79.8187 24.7471 80.3147 24.4804 80.752C24.2244 81.1893 23.8671 81.536 23.4084 81.792C22.9498 82.0373 22.4271 82.16 21.8404 82.16ZM22.1284 80.496C22.7791 80.496 23.3018 80.2773 23.6964 79.84C24.1018 79.4027 24.3044 78.8427 24.3044 78.16C24.3044 77.7013 24.2138 77.296 24.0324 76.944C23.8511 76.592 23.5951 76.32 23.2644 76.128C22.9444 75.9253 22.5658 75.824 22.1284 75.824C21.7018 75.824 21.3231 75.9253 20.9924 76.128C20.6724 76.32 20.4164 76.592 20.2244 76.944C20.0431 77.296 19.9524 77.7013 19.9524 78.16C19.9524 78.6187 20.0431 79.024 20.2244 79.376C20.4164 79.728 20.6724 80.0053 20.9924 80.208C21.3231 80.4 21.7018 80.496 22.1284 80.496ZM24.1924 82V79.936L24.4964 78.064L24.1924 76.208V74.32H25.9524V82H24.1924ZM31.1217 82.16C30.4284 82.16 29.799 81.984 29.2337 81.632C28.679 81.28 28.2364 80.8053 27.9057 80.208C27.5857 79.6 27.4257 78.9227 27.4257 78.176C27.4257 77.4187 27.5857 76.7413 27.9057 76.144C28.2364 75.536 28.679 75.056 29.2337 74.704C29.799 74.3413 30.4284 74.16 31.1217 74.16C31.7084 74.16 32.2257 74.288 32.6737 74.544C33.1324 74.7893 33.495 75.1307 33.7617 75.568C34.0284 76.0053 34.1617 76.5013 34.1617 77.056V79.264C34.1617 79.8187 34.0284 80.3147 33.7617 80.752C33.5057 81.1893 33.1484 81.536 32.6897 81.792C32.231 82.0373 31.7084 82.16 31.1217 82.16ZM31.4097 80.496C31.847 80.496 32.2257 80.4 32.5457 80.208C32.8764 80.0053 33.1324 79.728 33.3137 79.376C33.495 79.024 33.5857 78.6187 33.5857 78.16C33.5857 77.7013 33.495 77.296 33.3137 76.944C33.1324 76.592 32.8764 76.32 32.5457 76.128C32.2257 75.9253 31.847 75.824 31.4097 75.824C30.983 75.824 30.6044 75.9253 30.2737 76.128C29.9537 76.32 29.6977 76.592 29.5057 76.944C29.3244 77.296 29.2337 77.7013 29.2337 78.16C29.2337 78.6187 29.3244 79.024 29.5057 79.376C29.6977 79.728 29.9537 80.0053 30.2737 80.208C30.6044 80.4 30.983 80.496 31.4097 80.496ZM35.2337 82H33.4737V79.936L33.7777 78.064L33.4737 76.208V70.48H35.2337V82ZM37.2029 82V74.32H38.9629V82H37.2029ZM38.0829 72.912C37.7843 72.912 37.5336 72.8107 37.3309 72.608C37.1389 72.4053 37.0429 72.1547 37.0429 71.856C37.0429 71.5573 37.1389 71.3067 37.3309 71.104C37.5336 70.9013 37.7843 70.8 38.0829 70.8C38.3923 70.8 38.6429 70.9013 38.8349 71.104C39.0269 71.3067 39.1229 71.5573 39.1229 71.856C39.1229 72.1547 39.0269 72.4053 38.8349 72.608C38.6429 72.8107 38.3923 72.912 38.0829 72.912ZM46.2009 82V77.568C46.2009 77.056 46.0356 76.6347 45.7049 76.304C45.3849 75.9733 44.9689 75.808 44.4569 75.808C44.1156 75.808 43.8116 75.8827 43.5449 76.032C43.2783 76.1813 43.0703 76.3893 42.9209 76.656C42.7716 76.9227 42.6969 77.2267 42.6969 77.568L42.0089 77.184C42.0089 76.5973 42.1369 76.08 42.3929 75.632C42.6489 75.1733 43.0009 74.816 43.4489 74.56C43.9076 74.2933 44.4196 74.16 44.9849 74.16C45.5609 74.16 46.0729 74.3093 46.5209 74.608C46.9689 74.896 47.3209 75.2747 47.5769 75.744C47.8329 76.2027 47.9609 76.6827 47.9609 77.184V82H46.2009ZM40.9369 82V74.32H42.6969V82H40.9369ZM52.9494 85.36C52.1388 85.36 51.4294 85.2107 50.8214 84.912C50.2134 84.624 49.7228 84.2133 49.3494 83.68L50.5014 82.528C50.8108 82.912 51.1628 83.2 51.5574 83.392C51.9521 83.584 52.4268 83.68 52.9814 83.68C53.6748 83.68 54.2241 83.4987 54.6294 83.136C55.0348 82.784 55.2374 82.2987 55.2374 81.68V79.792L55.5414 78.096L55.2374 76.384V74.32H56.9974V81.68C56.9974 82.416 56.8268 83.056 56.4854 83.6C56.1441 84.1547 55.6694 84.5867 55.0614 84.896C54.4534 85.2053 53.7494 85.36 52.9494 85.36ZM52.8694 81.84C52.1868 81.84 51.5681 81.6747 51.0134 81.344C50.4694 81.0027 50.0374 80.5387 49.7174 79.952C49.4081 79.3653 49.2534 78.7093 49.2534 77.984C49.2534 77.2587 49.4081 76.608 49.7174 76.032C50.0374 75.456 50.4694 75.0027 51.0134 74.672C51.5681 74.3307 52.1868 74.16 52.8694 74.16C53.4774 74.16 54.0108 74.2827 54.4694 74.528C54.9281 74.7733 55.2854 75.1147 55.5414 75.552C55.7974 75.9787 55.9254 76.48 55.9254 77.056V78.944C55.9254 79.5093 55.7921 80.0107 55.5254 80.448C55.2694 80.8853 54.9121 81.2267 54.4534 81.472C53.9948 81.7173 53.4668 81.84 52.8694 81.84ZM53.2214 80.176C53.6481 80.176 54.0214 80.0853 54.3414 79.904C54.6614 79.7227 54.9068 79.472 55.0774 79.152C55.2588 78.8213 55.3494 78.4373 55.3494 78C55.3494 77.5627 55.2588 77.184 55.0774 76.864C54.9068 76.5333 54.6614 76.2773 54.3414 76.096C54.0214 75.9147 53.6481 75.824 53.2214 75.824C52.7948 75.824 52.4161 75.9147 52.0854 76.096C51.7654 76.2773 51.5148 76.5333 51.3334 76.864C51.1521 77.184 51.0614 77.5627 51.0614 78C51.0614 78.4267 51.1521 78.8053 51.3334 79.136C51.5148 79.4667 51.7654 79.7227 52.0854 79.904C52.4161 80.0853 52.7948 80.176 53.2214 80.176ZM60.2966 82.16C59.9552 82.16 59.6726 82.048 59.4486 81.824C59.2352 81.5893 59.1286 81.3067 59.1286 80.976C59.1286 80.6347 59.2352 80.352 59.4486 80.128C59.6726 79.904 59.9552 79.792 60.2966 79.792C60.6379 79.792 60.9152 79.904 61.1286 80.128C61.3526 80.352 61.4646 80.6347 61.4646 80.976C61.4646 81.3067 61.3526 81.5893 61.1286 81.824C60.9152 82.048 60.6379 82.16 60.2966 82.16ZM64.9372 82.16C64.5959 82.16 64.3132 82.048 64.0892 81.824C63.8759 81.5893 63.7692 81.3067 63.7692 80.976C63.7692 80.6347 63.8759 80.352 64.0892 80.128C64.3132 79.904 64.5959 79.792 64.9372 79.792C65.2785 79.792 65.5559 79.904 65.7692 80.128C65.9932 80.352 66.1052 80.6347 66.1052 80.976C66.1052 81.3067 65.9932 81.5893 65.7692 81.824C65.5559 82.048 65.2785 82.16 64.9372 82.16ZM69.5778 82.16C69.2365 82.16 68.9538 82.048 68.7298 81.824C68.5165 81.5893 68.4098 81.3067 68.4098 80.976C68.4098 80.6347 68.5165 80.352 68.7298 80.128C68.9538 79.904 69.2365 79.792 69.5778 79.792C69.9191 79.792 70.1965 79.904 70.4098 80.128C70.6338 80.352 70.7458 80.6347 70.7458 80.976C70.7458 81.3067 70.6338 81.5893 70.4098 81.824C70.1965 82.048 69.9191 82.16 69.5778 82.16Z" fill="#F1F2F4"/>
</svg>
