<svg width="208" height="116" viewBox="0 0 208 116" fill="none" xmlns="http://www.w3.org/2000/svg">
<path d="M120 88C120 103.464 107.464 116 92 116C76.536 116 64 103.464 64 88C64 72.536 76.536 60 92 60C107.464 60 120 72.536 120 88ZM70.16 88C70.16 100.062 79.9381 109.84 92 109.84C104.062 109.84 113.84 100.062 113.84 88C113.84 75.9381 104.062 66.16 92 66.16C79.9381 66.16 70.16 75.9381 70.16 88Z" fill="#E9F0FF"/>
<path d="M75.9817 68.9102C74.8883 67.6071 75.0502 65.6483 76.4655 64.7045C80.5037 62.0116 85.189 60.4045 90.0663 60.0668C95.9719 59.658 101.855 61.1314 106.871 64.2754C111.887 67.4194 115.777 72.0722 117.983 77.5655C119.805 82.1023 120.401 87.0196 119.737 91.8278C119.505 93.5129 117.812 94.5124 116.163 94.0963C114.513 93.6801 113.537 92.0046 113.717 90.3131C114.094 86.7784 113.603 83.1885 112.267 79.8611C110.546 75.5763 107.512 71.9471 103.599 69.4948C99.687 67.0425 95.0981 65.8933 90.4917 66.2121C86.9146 66.4598 83.4698 67.5829 80.4525 69.4624C79.0087 70.3618 77.0751 70.2132 75.9817 68.9102Z" fill="#4F46E5"/>
<path d="M137.318 94V82.8H139.158V94H137.318ZM138.582 94V92.32H144.438V94H138.582ZM149.129 94.16C148.382 94.16 147.705 93.984 147.097 93.632C146.489 93.2693 146.003 92.784 145.641 92.176C145.289 91.568 145.113 90.8907 145.113 90.144C145.113 89.3973 145.289 88.7253 145.641 88.128C146.003 87.5307 146.489 87.056 147.097 86.704C147.705 86.3413 148.382 86.16 149.129 86.16C149.886 86.16 150.569 86.336 151.177 86.688C151.785 87.04 152.265 87.52 152.617 88.128C152.979 88.7253 153.161 89.3973 153.161 90.144C153.161 90.8907 152.979 91.568 152.617 92.176C152.265 92.784 151.785 93.2693 151.177 93.632C150.569 93.984 149.886 94.16 149.129 94.16ZM149.129 92.464C149.566 92.464 149.95 92.368 150.281 92.176C150.622 91.9733 150.883 91.696 151.065 91.344C151.257 90.992 151.353 90.592 151.353 90.144C151.353 89.696 151.257 89.3013 151.065 88.96C150.873 88.6187 150.611 88.352 150.281 88.16C149.95 87.9573 149.566 87.856 149.129 87.856C148.702 87.856 148.318 87.9573 147.977 88.16C147.646 88.352 147.385 88.6187 147.193 88.96C147.011 89.3013 146.921 89.696 146.921 90.144C146.921 90.592 147.011 90.992 147.193 91.344C147.385 91.696 147.646 91.9733 147.977 92.176C148.318 92.368 148.702 92.464 149.129 92.464ZM157.84 94.16C157.147 94.16 156.518 93.984 155.952 93.632C155.398 93.28 154.955 92.8053 154.624 92.208C154.304 91.6 154.144 90.9227 154.144 90.176C154.144 89.4187 154.304 88.7413 154.624 88.144C154.955 87.536 155.398 87.056 155.952 86.704C156.518 86.3413 157.147 86.16 157.84 86.16C158.427 86.16 158.944 86.288 159.392 86.544C159.851 86.7893 160.214 87.1307 160.48 87.568C160.747 88.0053 160.88 88.5013 160.88 89.056V91.264C160.88 91.8187 160.747 92.3147 160.48 92.752C160.224 93.1893 159.867 93.536 159.408 93.792C158.95 94.0373 158.427 94.16 157.84 94.16ZM158.128 92.496C158.779 92.496 159.302 92.2773 159.696 91.84C160.102 91.4027 160.304 90.8427 160.304 90.16C160.304 89.7013 160.214 89.296 160.032 88.944C159.851 88.592 159.595 88.32 159.264 88.128C158.944 87.9253 158.566 87.824 158.128 87.824C157.702 87.824 157.323 87.9253 156.992 88.128C156.672 88.32 156.416 88.592 156.224 88.944C156.043 89.296 155.952 89.7013 155.952 90.16C155.952 90.6187 156.043 91.024 156.224 91.376C156.416 91.728 156.672 92.0053 156.992 92.208C157.323 92.4 157.702 92.496 158.128 92.496ZM160.192 94V91.936L160.496 90.064L160.192 88.208V86.32H161.952V94H160.192ZM167.122 94.16C166.428 94.16 165.799 93.984 165.234 93.632C164.679 93.28 164.236 92.8053 163.906 92.208C163.586 91.6 163.426 90.9227 163.426 90.176C163.426 89.4187 163.586 88.7413 163.906 88.144C164.236 87.536 164.679 87.056 165.234 86.704C165.799 86.3413 166.428 86.16 167.122 86.16C167.708 86.16 168.226 86.288 168.674 86.544C169.132 86.7893 169.495 87.1307 169.762 87.568C170.028 88.0053 170.162 88.5013 170.162 89.056V91.264C170.162 91.8187 170.028 92.3147 169.762 92.752C169.506 93.1893 169.148 93.536 168.69 93.792C168.231 94.0373 167.708 94.16 167.122 94.16ZM167.41 92.496C167.847 92.496 168.226 92.4 168.546 92.208C168.876 92.0053 169.132 91.728 169.314 91.376C169.495 91.024 169.586 90.6187 169.586 90.16C169.586 89.7013 169.495 89.296 169.314 88.944C169.132 88.592 168.876 88.32 168.546 88.128C168.226 87.9253 167.847 87.824 167.41 87.824C166.983 87.824 166.604 87.9253 166.274 88.128C165.954 88.32 165.698 88.592 165.506 88.944C165.324 89.296 165.234 89.7013 165.234 90.16C165.234 90.6187 165.324 91.024 165.506 91.376C165.698 91.728 165.954 92.0053 166.274 92.208C166.604 92.4 166.983 92.496 167.41 92.496ZM171.234 94H169.474V91.936L169.778 90.064L169.474 88.208V82.48H171.234V94ZM173.203 94V86.32H174.963V94H173.203ZM174.083 84.912C173.784 84.912 173.534 84.8107 173.331 84.608C173.139 84.4053 173.043 84.1547 173.043 83.856C173.043 83.5573 173.139 83.3067 173.331 83.104C173.534 82.9013 173.784 82.8 174.083 82.8C174.392 82.8 174.643 82.9013 174.835 83.104C175.027 83.3067 175.123 83.5573 175.123 83.856C175.123 84.1547 175.027 84.4053 174.835 84.608C174.643 84.8107 174.392 84.912 174.083 84.912ZM182.201 94V89.568C182.201 89.056 182.036 88.6347 181.705 88.304C181.385 87.9733 180.969 87.808 180.457 87.808C180.116 87.808 179.812 87.8827 179.545 88.032C179.278 88.1813 179.07 88.3893 178.921 88.656C178.772 88.9227 178.697 89.2267 178.697 89.568L178.009 89.184C178.009 88.5973 178.137 88.08 178.393 87.632C178.649 87.1733 179.001 86.816 179.449 86.56C179.908 86.2933 180.42 86.16 180.985 86.16C181.561 86.16 182.073 86.3093 182.521 86.608C182.969 86.896 183.321 87.2747 183.577 87.744C183.833 88.2027 183.961 88.6827 183.961 89.184V94H182.201ZM176.937 94V86.32H178.697V94H176.937ZM188.949 97.36C188.139 97.36 187.429 97.2107 186.821 96.912C186.213 96.624 185.723 96.2133 185.349 95.68L186.501 94.528C186.811 94.912 187.163 95.2 187.557 95.392C187.952 95.584 188.427 95.68 188.981 95.68C189.675 95.68 190.224 95.4987 190.629 95.136C191.035 94.784 191.237 94.2987 191.237 93.68V91.792L191.541 90.096L191.237 88.384V86.32H192.997V93.68C192.997 94.416 192.827 95.056 192.485 95.6C192.144 96.1547 191.669 96.5867 191.061 96.896C190.453 97.2053 189.749 97.36 188.949 97.36ZM188.869 93.84C188.187 93.84 187.568 93.6747 187.013 93.344C186.469 93.0027 186.037 92.5387 185.717 91.952C185.408 91.3653 185.253 90.7093 185.253 89.984C185.253 89.2587 185.408 88.608 185.717 88.032C186.037 87.456 186.469 87.0027 187.013 86.672C187.568 86.3307 188.187 86.16 188.869 86.16C189.477 86.16 190.011 86.2827 190.469 86.528C190.928 86.7733 191.285 87.1147 191.541 87.552C191.797 87.9787 191.925 88.48 191.925 89.056V90.944C191.925 91.5093 191.792 92.0107 191.525 92.448C191.269 92.8853 190.912 93.2267 190.453 93.472C189.995 93.7173 189.467 93.84 188.869 93.84ZM189.221 92.176C189.648 92.176 190.021 92.0853 190.341 91.904C190.661 91.7227 190.907 91.472 191.077 91.152C191.259 90.8213 191.349 90.4373 191.349 90C191.349 89.5627 191.259 89.184 191.077 88.864C190.907 88.5333 190.661 88.2773 190.341 88.096C190.021 87.9147 189.648 87.824 189.221 87.824C188.795 87.824 188.416 87.9147 188.085 88.096C187.765 88.2773 187.515 88.5333 187.333 88.864C187.152 89.184 187.061 89.5627 187.061 90C187.061 90.4267 187.152 90.8053 187.333 91.136C187.515 91.4667 187.765 91.7227 188.085 91.904C188.416 92.0853 188.795 92.176 189.221 92.176ZM196.297 94.16C195.955 94.16 195.673 94.048 195.449 93.824C195.235 93.5893 195.129 93.3067 195.129 92.976C195.129 92.6347 195.235 92.352 195.449 92.128C195.673 91.904 195.955 91.792 196.297 91.792C196.638 91.792 196.915 91.904 197.129 92.128C197.353 92.352 197.465 92.6347 197.465 92.976C197.465 93.3067 197.353 93.5893 197.129 93.824C196.915 94.048 196.638 94.16 196.297 94.16ZM200.937 94.16C200.596 94.16 200.313 94.048 200.089 93.824C199.876 93.5893 199.769 93.3067 199.769 92.976C199.769 92.6347 199.876 92.352 200.089 92.128C200.313 91.904 200.596 91.792 200.937 91.792C201.279 91.792 201.556 91.904 201.769 92.128C201.993 92.352 202.105 92.6347 202.105 92.976C202.105 93.3067 201.993 93.5893 201.769 93.824C201.556 94.048 201.279 94.16 200.937 94.16ZM205.578 94.16C205.236 94.16 204.954 94.048 204.73 93.824C204.516 93.5893 204.41 93.3067 204.41 92.976C204.41 92.6347 204.516 92.352 204.73 92.128C204.954 91.904 205.236 91.792 205.578 91.792C205.919 91.792 206.196 91.904 206.41 92.128C206.634 92.352 206.746 92.6347 206.746 92.976C206.746 93.3067 206.634 93.5893 206.41 93.824C206.196 94.048 205.919 94.16 205.578 94.16Z" fill="#2A2C35"/>
<g clip-path="url(#clip0_14342_19597)">
<rect y="87" width="64" height="1" fill="#E1172F"/>
<g clip-path="url(#clip1_14342_19597)">
<rect y="76" width="24" height="24" rx="12" fill="#E1172F"/>
<path d="M13.8302 82.8182V93H11.6775V84.8615H11.6178L9.28613 86.3232V84.4141L11.8067 82.8182H13.8302Z" fill="#F6F6F8"/>
</g>
</g>
<rect x="92.5" width="1" height="60" fill="#E1172F"/>
<rect x="80.5" width="24" height="24" rx="12" fill="#E1172F"/>
<path d="M88.9161 17V15.4489L92.5404 12.093C92.8486 11.7947 93.1072 11.5263 93.316 11.2876C93.5281 11.049 93.6888 10.8153 93.7982 10.5866C93.9076 10.3546 93.9623 10.1044 93.9623 9.83594C93.9623 9.53764 93.8943 9.28078 93.7584 9.06534C93.6225 8.84659 93.4369 8.67921 93.2016 8.56321C92.9663 8.44389 92.6995 8.38423 92.4012 8.38423C92.0896 8.38423 91.8179 8.44721 91.5858 8.57315C91.3538 8.6991 91.1749 8.87973 91.0489 9.11506C90.923 9.35038 90.86 9.63044 90.86 9.95526H88.8167C88.8167 9.28906 88.9675 8.7107 89.2691 8.22017C89.5707 7.72964 89.9933 7.35014 90.5368 7.08168C91.0804 6.81321 91.7068 6.67898 92.4161 6.67898C93.1453 6.67898 93.78 6.80824 94.3202 7.06676C94.8638 7.32197 95.2864 7.67661 95.588 8.13068C95.8896 8.58475 96.0404 9.10511 96.0404 9.69176C96.0404 10.0762 95.9642 10.4557 95.8117 10.8303C95.6626 11.2048 95.3957 11.6207 95.0113 12.0781C94.6268 12.5322 94.0849 13.0774 93.3856 13.7138L91.8991 15.1705V15.2401H96.1746V17H88.9161Z" fill="#F6F6F8"/>
<rect x="164.5" y="21" width="1" height="60" fill="#E1172F"/>
<rect x="152.5" y="21" width="24" height="24" rx="12" fill="#E1172F"/>
<path d="M164.475 38.1392C163.732 38.1392 163.071 38.0116 162.491 37.7564C161.914 37.4979 161.458 37.1432 161.124 36.6925C160.792 36.2384 160.622 35.7147 160.612 35.1214H162.779C162.792 35.37 162.874 35.5888 163.023 35.7777C163.175 35.9633 163.377 36.1075 163.629 36.2102C163.881 36.313 164.165 36.3643 164.479 36.3643C164.808 36.3643 165.098 36.3063 165.35 36.1903C165.601 36.0743 165.799 35.9136 165.941 35.7081C166.084 35.5026 166.155 35.2656 166.155 34.9972C166.155 34.7254 166.079 34.4851 165.926 34.2763C165.777 34.0642 165.562 33.8984 165.28 33.7791C165.002 33.6598 164.67 33.6001 164.286 33.6001H163.336V32.0192H164.286C164.61 32.0192 164.897 31.9628 165.146 31.8501C165.398 31.7375 165.593 31.5817 165.732 31.3828C165.872 31.1806 165.941 30.9453 165.941 30.6768C165.941 30.4216 165.88 30.1979 165.757 30.0057C165.638 29.8101 165.469 29.6577 165.25 29.5483C165.035 29.4389 164.783 29.3842 164.494 29.3842C164.203 29.3842 163.936 29.4373 163.694 29.5433C163.452 29.6461 163.258 29.7936 163.112 29.9858C162.966 30.178 162.889 30.4034 162.879 30.6619H160.815C160.825 30.0753 160.993 29.5582 161.318 29.1108C161.642 28.6634 162.08 28.3137 162.63 28.0618C163.184 27.8066 163.808 27.679 164.504 27.679C165.207 27.679 165.822 27.8066 166.349 28.0618C166.876 28.317 167.285 28.6617 167.577 29.0959C167.872 29.5268 168.018 30.0107 168.014 30.5476C168.018 31.1177 167.84 31.5933 167.482 31.9744C167.128 32.3556 166.665 32.5975 166.095 32.7003V32.7798C166.844 32.8759 167.414 33.1361 167.805 33.5604C168.2 33.9813 168.395 34.5083 168.392 35.1413C168.395 35.7214 168.228 36.2367 167.89 36.6875C167.555 37.1383 167.093 37.4929 166.503 37.7514C165.913 38.0099 165.237 38.1392 164.475 38.1392Z" fill="#F6F6F8"/>
<defs>
<clipPath id="clip0_14342_19597">
<rect width="64" height="24" fill="white" transform="translate(0 76)"/>
</clipPath>
<clipPath id="clip1_14342_19597">
<rect y="76" width="24" height="24" rx="12" fill="white"/>
</clipPath>
</defs>
</svg>
