<svg width="683" height="426" viewBox="0 0 683 426" fill="none" xmlns="http://www.w3.org/2000/svg">
<rect width="683" height="426" fill="#F6F6F8"/>
<path d="M164 74.1551C164 64.2521 172.028 56.2241 181.931 56.2241H501.328C511.231 56.2241 519.259 64.2521 519.259 74.1552V352.052C519.259 361.955 511.231 369.983 501.328 369.983H181.931C172.028 369.983 164 361.955 164 352.052V74.1551Z" fill="white"/>
<g opacity="0.2">
<path d="M187.534 80.8793C187.534 79.6414 188.538 78.6379 189.776 78.6379H493.483C494.721 78.6379 495.724 79.6414 495.724 80.8793V89.8448C495.724 91.0827 494.721 92.0862 493.483 92.0862H189.776C188.538 92.0862 187.534 91.0827 187.534 89.8448V80.8793Z" fill="#A6AAB3"/>
<path d="M187.534 98.8105C187.534 97.5726 188.538 96.5691 189.776 96.5691H335.465C336.703 96.5691 337.707 97.5726 337.707 98.8105V107.776C337.707 109.014 336.703 110.017 335.465 110.017H189.776C188.538 110.017 187.534 109.014 187.534 107.776V98.8105Z" fill="#A6AAB3"/>
</g>
<path opacity="0.2" d="M187.534 153.724C187.534 143.821 195.562 135.793 205.465 135.793H477.793C487.696 135.793 495.724 143.821 495.724 153.724V271.862C495.724 281.765 487.696 289.793 477.793 289.793H205.465C195.562 289.793 187.534 281.765 187.534 271.862V153.724Z" fill="#F1F2F4"/>
<path d="M369.628 210.328C369.628 225.792 357.092 238.328 341.628 238.328C326.164 238.328 313.628 225.792 313.628 210.328C313.628 194.864 326.164 182.328 341.628 182.328C357.092 182.328 369.628 194.864 369.628 210.328ZM319.788 210.328C319.788 222.39 329.566 232.168 341.628 232.168C353.69 232.168 363.468 222.39 363.468 210.328C363.468 198.266 353.69 188.488 341.628 188.488C329.566 188.488 319.788 198.266 319.788 210.328Z" fill="#E9F0FF"/>
<path d="M325.61 191.238C324.517 189.935 324.678 187.976 326.094 187.032C330.132 184.339 334.817 182.732 339.695 182.394C345.6 181.986 351.483 183.459 356.499 186.603C361.515 189.747 365.405 194.4 367.611 199.893C369.433 204.43 370.029 209.347 369.365 214.155C369.133 215.841 367.44 216.84 365.791 216.424C364.142 216.008 363.165 214.332 363.345 212.641C363.722 209.106 363.231 205.516 361.895 202.189C360.174 197.904 357.14 194.275 353.227 191.822C349.315 189.37 344.726 188.221 340.12 188.54C336.543 188.787 333.098 189.911 330.081 191.79C328.637 192.689 326.703 192.541 325.61 191.238Z" fill="#4F46E5"/>
<path d="M187.534 331.569C187.534 327.849 187.534 325.989 187.943 324.463C189.053 320.322 192.287 317.087 196.429 315.978C197.955 315.569 199.815 315.569 203.534 315.569H255.534C259.254 315.569 261.114 315.569 262.64 315.978C266.781 317.087 270.016 320.322 271.126 324.463C271.534 325.989 271.534 327.849 271.534 331.569C271.534 335.289 271.534 337.149 271.126 338.675C270.016 342.816 266.781 346.05 262.64 347.16C261.114 347.569 259.254 347.569 255.534 347.569H203.534C199.815 347.569 197.955 347.569 196.429 347.16C192.287 346.05 189.053 342.816 187.943 338.675C187.534 337.149 187.534 335.289 187.534 331.569Z" fill="#4F46E5"/>
<path d="M197.039 337.569V326.369H198.319L198.879 328.481V337.569H197.039ZM204.799 337.569L198.095 328.817L198.319 326.369L205.023 335.121L204.799 337.569ZM204.799 337.569L204.239 335.601V326.369H206.079V337.569H204.799ZM211.836 337.729C211.068 337.729 210.375 337.558 209.756 337.217C209.148 336.865 208.663 336.385 208.3 335.777C207.948 335.169 207.772 334.486 207.772 333.729C207.772 332.972 207.948 332.294 208.3 331.697C208.652 331.089 209.127 330.609 209.724 330.257C210.332 329.905 211.004 329.729 211.74 329.729C212.455 329.729 213.084 329.894 213.628 330.225C214.183 330.556 214.615 331.009 214.924 331.585C215.244 332.161 215.404 332.817 215.404 333.553C215.404 333.681 215.394 333.814 215.372 333.953C215.362 334.081 215.34 334.225 215.308 334.385H209.004V332.945H214.396L213.74 333.521C213.719 333.052 213.628 332.657 213.468 332.337C213.308 332.017 213.079 331.772 212.78 331.601C212.492 331.43 212.135 331.345 211.708 331.345C211.26 331.345 210.871 331.441 210.54 331.633C210.21 331.825 209.954 332.097 209.772 332.449C209.591 332.79 209.5 333.201 209.5 333.681C209.5 334.161 209.596 334.582 209.788 334.945C209.98 335.308 210.252 335.59 210.604 335.793C210.956 335.985 211.362 336.081 211.82 336.081C212.215 336.081 212.578 336.012 212.908 335.873C213.25 335.734 213.538 335.532 213.772 335.265L214.892 336.401C214.519 336.838 214.066 337.169 213.532 337.393C212.999 337.617 212.434 337.729 211.836 337.729ZM221.46 337.569L219.252 334.321L218.932 334.033L215.956 329.889H218.084L220.052 332.737L220.356 333.009L223.572 337.569H221.46ZM215.812 337.569L218.916 333.265L219.94 334.529L217.86 337.569H215.812ZM220.516 334.001L219.476 332.753L221.396 329.889H223.428L220.516 334.001ZM225.608 337.569V326.689H227.368V337.569H225.608ZM223.768 331.489V329.889H229.208V331.489H223.768ZM236.202 337.729C235.775 337.729 235.365 337.676 234.97 337.569C234.575 337.452 234.213 337.292 233.882 337.089C233.551 336.876 233.263 336.62 233.018 336.321L234.138 335.201C234.405 335.51 234.709 335.745 235.05 335.905C235.402 336.054 235.797 336.129 236.234 336.129C236.629 336.129 236.927 336.07 237.13 335.953C237.333 335.836 237.434 335.665 237.434 335.441C237.434 335.206 237.338 335.025 237.146 334.897C236.954 334.769 236.703 334.662 236.394 334.577C236.095 334.481 235.775 334.385 235.434 334.289C235.103 334.193 234.783 334.065 234.474 333.905C234.175 333.734 233.93 333.505 233.738 333.217C233.546 332.929 233.45 332.556 233.45 332.097C233.45 331.606 233.562 331.185 233.786 330.833C234.021 330.481 234.346 330.209 234.762 330.017C235.189 329.825 235.695 329.729 236.282 329.729C236.901 329.729 237.445 329.841 237.914 330.065C238.394 330.278 238.794 330.604 239.114 331.041L237.994 332.161C237.77 331.884 237.514 331.676 237.226 331.537C236.938 331.398 236.607 331.329 236.234 331.329C235.882 331.329 235.61 331.382 235.418 331.489C235.226 331.596 235.13 331.75 235.13 331.953C235.13 332.166 235.226 332.332 235.418 332.449C235.61 332.566 235.855 332.668 236.154 332.753C236.463 332.838 236.783 332.934 237.114 333.041C237.455 333.137 237.775 333.276 238.074 333.457C238.383 333.628 238.634 333.862 238.826 334.161C239.018 334.449 239.114 334.828 239.114 335.297C239.114 336.044 238.853 336.636 238.33 337.073C237.807 337.51 237.098 337.729 236.202 337.729ZM241.733 337.569V326.689H243.493V337.569H241.733ZM239.893 331.489V329.889H245.333V331.489H239.893ZM249.961 337.729C249.193 337.729 248.5 337.558 247.881 337.217C247.273 336.865 246.788 336.385 246.425 335.777C246.073 335.169 245.897 334.486 245.897 333.729C245.897 332.972 246.073 332.294 246.425 331.697C246.777 331.089 247.252 330.609 247.849 330.257C248.457 329.905 249.129 329.729 249.865 329.729C250.58 329.729 251.209 329.894 251.753 330.225C252.308 330.556 252.74 331.009 253.049 331.585C253.369 332.161 253.529 332.817 253.529 333.553C253.529 333.681 253.519 333.814 253.497 333.953C253.487 334.081 253.465 334.225 253.433 334.385H247.129V332.945H252.521L251.865 333.521C251.844 333.052 251.753 332.657 251.593 332.337C251.433 332.017 251.204 331.772 250.905 331.601C250.617 331.43 250.26 331.345 249.833 331.345C249.385 331.345 248.996 331.441 248.665 331.633C248.335 331.825 248.079 332.097 247.897 332.449C247.716 332.79 247.625 333.201 247.625 333.681C247.625 334.161 247.721 334.582 247.913 334.945C248.105 335.308 248.377 335.59 248.729 335.793C249.081 335.985 249.487 336.081 249.945 336.081C250.34 336.081 250.703 336.012 251.033 335.873C251.375 335.734 251.663 335.532 251.897 335.265L253.017 336.401C252.644 336.838 252.191 337.169 251.657 337.393C251.124 337.617 250.559 337.729 249.961 337.729ZM259.052 337.729C258.465 337.729 257.943 337.606 257.484 337.361C257.025 337.105 256.663 336.758 256.396 336.321C256.14 335.884 256.012 335.388 256.012 334.833V332.625C256.012 332.07 256.145 331.574 256.412 331.137C256.679 330.7 257.041 330.358 257.5 330.113C257.959 329.857 258.476 329.729 259.052 329.729C259.745 329.729 260.369 329.91 260.924 330.273C261.489 330.625 261.932 331.105 262.252 331.713C262.583 332.31 262.748 332.988 262.748 333.745C262.748 334.492 262.583 335.169 262.252 335.777C261.932 336.374 261.489 336.849 260.924 337.201C260.369 337.553 259.745 337.729 259.052 337.729ZM254.94 340.769V329.889H256.7V331.953L256.396 333.825L256.7 335.681V340.769H254.94ZM258.764 336.065C259.191 336.065 259.564 335.969 259.884 335.777C260.215 335.574 260.471 335.297 260.652 334.945C260.844 334.593 260.94 334.188 260.94 333.729C260.94 333.27 260.844 332.865 260.652 332.513C260.471 332.161 260.215 331.889 259.884 331.697C259.564 331.494 259.191 331.393 258.764 331.393C258.337 331.393 257.959 331.494 257.628 331.697C257.297 331.889 257.041 332.161 256.86 332.513C256.679 332.865 256.588 333.27 256.588 333.729C256.588 334.188 256.679 334.593 256.86 334.945C257.041 335.297 257.297 335.574 257.628 335.777C257.959 335.969 258.337 336.065 258.764 336.065Z" fill="white"/>
</svg>
