<svg width="683" height="420" viewBox="0 0 683 420" fill="none" xmlns="http://www.w3.org/2000/svg">
<rect width="683" height="420" fill="#F6F6F8"/>
<path d="M21.9395 33.931C21.9395 24.028 29.9675 16 39.8705 16H643.129C653.032 16 661.06 24.028 661.06 33.931V386.069C661.06 395.972 653.032 404 643.129 404H39.8705C29.9675 404 21.9395 395.972 21.9395 386.069V33.931Z" fill="white"/>
<g opacity="0.1">
<path d="M45.4741 40.6552C45.4741 39.4173 46.4776 38.4138 47.7155 38.4138H351.422C352.66 38.4138 353.664 39.4173 353.664 40.6552V49.6207C353.664 50.8586 352.66 51.8621 351.422 51.8621H47.7155C46.4776 51.8621 45.4741 50.8586 45.4741 49.6207V40.6552Z" fill="#A6AAB3"/>
<path d="M45.4741 58.5864C45.4741 57.3485 46.4776 56.345 47.7155 56.345H193.405C194.643 56.345 195.647 57.3485 195.647 58.5863V67.5519C195.647 68.7897 194.643 69.7932 193.405 69.7932H47.7155C46.4776 69.7932 45.4741 68.7897 45.4741 67.5519V58.5864Z" fill="#A6AAB3"/>
<path d="M45.4741 82.1207C45.4741 81.5018 45.9759 81 46.5948 81H352.543C353.162 81 353.664 81.5017 353.664 82.1207V86.6034C353.664 87.2224 353.162 87.7241 352.543 87.7241H46.5948C45.9759 87.7241 45.4741 87.2224 45.4741 86.6034V82.1207Z" fill="white"/>
<path d="M45.4741 93.3275C45.4741 92.7085 45.9759 92.2068 46.5948 92.2068H352.543C353.162 92.2068 353.664 92.7085 353.664 93.3275V97.8102C353.664 98.4292 353.162 98.9309 352.543 98.9309H46.5948C45.9759 98.9309 45.4741 98.4292 45.4741 97.8102V93.3275Z" fill="white"/>
<path d="M45.4741 104.535C45.4741 103.916 45.9759 103.414 46.5948 103.414H352.543C353.162 103.414 353.664 103.916 353.664 104.535V109.017C353.664 109.636 353.162 110.138 352.543 110.138H46.5948C45.9759 110.138 45.4741 109.636 45.4741 109.017V104.535Z" fill="white"/>
<path d="M45.4741 115.741C45.4741 115.122 45.9759 114.621 46.5948 114.621H352.543C353.162 114.621 353.664 115.122 353.664 115.741V120.224C353.664 120.843 353.162 121.345 352.543 121.345H46.5948C45.9759 121.345 45.4741 120.843 45.4741 120.224V115.741Z" fill="white"/>
<path d="M45.4741 126.948C45.4741 126.329 45.9759 125.828 46.5948 125.828H352.543C353.162 125.828 353.664 126.329 353.664 126.948V131.431C353.664 132.05 353.162 132.552 352.543 132.552H46.5948C45.9759 132.552 45.4741 132.05 45.4741 131.431V126.948Z" fill="white"/>
<path d="M45.4741 138.155C45.4741 137.536 45.9759 137.034 46.5948 137.034H352.543C353.162 137.034 353.664 137.536 353.664 138.155V142.638C353.664 143.257 353.162 143.759 352.543 143.759H46.5948C45.9759 143.759 45.4741 143.257 45.4741 142.638V138.155Z" fill="white"/>
<path d="M45.4741 149.362C45.4741 148.743 45.9759 148.241 46.5948 148.241H352.543C353.162 148.241 353.664 148.743 353.664 149.362V153.845C353.664 154.464 353.162 154.966 352.543 154.966H46.5948C45.9759 154.966 45.4741 154.464 45.4741 153.845V149.362Z" fill="white"/>
<path d="M45.4741 160.569C45.4741 159.95 45.9759 159.448 46.5948 159.448H352.543C353.162 159.448 353.664 159.95 353.664 160.569V165.052C353.664 165.671 353.162 166.172 352.543 166.172H46.5948C45.9759 166.172 45.4741 165.671 45.4741 165.052V160.569Z" fill="white"/>
<path d="M45.4741 171.776C45.4741 171.157 45.9759 170.655 46.5948 170.655H229.828C230.447 170.655 230.948 171.157 230.948 171.776V176.259C230.948 176.878 230.447 177.379 229.828 177.379H46.5948C45.9759 177.379 45.4741 176.878 45.4741 176.259V171.776Z" fill="white"/>
<path d="M45.4741 204.276C45.4741 203.657 45.9759 203.155 46.5948 203.155H352.543C353.162 203.155 353.664 203.657 353.664 204.276V215.483C353.664 216.102 353.162 216.604 352.543 216.604H46.5948C45.9759 216.604 45.4741 216.102 45.4741 215.483V204.276Z" fill="#A6AAB3"/>
<path d="M45.4741 222.207C45.4741 221.588 45.9759 221.086 46.5948 221.086H194.526C195.145 221.086 195.647 221.588 195.647 222.207V233.414C195.647 234.033 195.145 234.535 194.526 234.535H46.5948C45.9759 234.535 45.4741 234.033 45.4741 233.414V222.207Z" fill="#A6AAB3"/>
<path d="M45.4741 246.862C45.4741 246.243 45.9759 245.741 46.5948 245.741H352.543C353.162 245.741 353.664 246.243 353.664 246.862V251.345C353.664 251.964 353.162 252.466 352.543 252.466H46.5948C45.9759 252.466 45.4741 251.964 45.4741 251.345V246.862Z" fill="#A6AAB3"/>
<path d="M45.4741 258.069C45.4741 257.45 45.9759 256.948 46.5948 256.948H352.543C353.162 256.948 353.664 257.45 353.664 258.069V262.552C353.664 263.171 353.162 263.672 352.543 263.672H46.5948C45.9759 263.672 45.4741 263.171 45.4741 262.552V258.069Z" fill="#A6AAB3"/>
<path d="M45.4741 269.276C45.4741 268.657 45.9759 268.155 46.5948 268.155H352.543C353.162 268.155 353.664 268.657 353.664 269.276V273.759C353.664 274.378 353.162 274.879 352.543 274.879H46.5948C45.9759 274.879 45.4741 274.378 45.4741 273.759V269.276Z" fill="#A6AAB3"/>
<path d="M45.4741 280.483C45.4741 279.864 45.9759 279.362 46.5948 279.362H352.543C353.162 279.362 353.664 279.864 353.664 280.483V284.966C353.664 285.584 353.162 286.086 352.543 286.086H46.5948C45.9759 286.086 45.4741 285.584 45.4741 284.966V280.483Z" fill="#A6AAB3"/>
<path d="M45.4741 291.69C45.4741 291.071 45.9759 290.569 46.5948 290.569H352.543C353.162 290.569 353.664 291.071 353.664 291.69V296.173C353.664 296.791 353.162 297.293 352.543 297.293H46.5948C45.9759 297.293 45.4741 296.791 45.4741 296.173V291.69Z" fill="#A6AAB3"/>
<path d="M45.4741 302.897C45.4741 302.278 45.9759 301.776 46.5948 301.776H352.543C353.162 301.776 353.664 302.278 353.664 302.897V307.379C353.664 307.998 353.162 308.5 352.543 308.5H46.5948C45.9759 308.5 45.4741 307.998 45.4741 307.379V302.897Z" fill="#A6AAB3"/>
<path d="M45.4741 314.104C45.4741 313.485 45.9759 312.983 46.5948 312.983H352.543C353.162 312.983 353.664 313.485 353.664 314.104V318.586C353.664 319.205 353.162 319.707 352.543 319.707H46.5948C45.9759 319.707 45.4741 319.205 45.4741 318.586V314.104Z" fill="#A6AAB3"/>
<path d="M45.4741 325.31C45.4741 324.691 45.9759 324.19 46.5948 324.19H229.828C230.447 324.19 230.948 324.691 230.948 325.31V329.793C230.948 330.412 230.447 330.914 229.828 330.914H46.5948C45.9759 330.914 45.4741 330.412 45.4741 329.793V325.31Z" fill="#A6AAB3"/>
<path d="M389.526 56.3449C389.526 46.4418 397.554 38.4138 407.457 38.4138H619.595C629.498 38.4138 637.526 46.4418 637.526 56.3449V137.035C637.526 146.938 629.498 154.966 619.595 154.966H407.457C397.554 154.966 389.526 146.938 389.526 137.035V56.3449Z" fill="#F1F2F4"/>
</g>
<g opacity="0.1">
<path d="M45.4741 364.845C45.4741 361.125 45.4741 359.265 45.883 357.739C46.9926 353.598 50.2272 350.363 54.3683 349.254C55.8943 348.845 57.7542 348.845 61.4741 348.845H163.474C167.194 348.845 169.054 348.845 170.58 349.254C174.721 350.363 177.956 353.598 179.065 357.739C179.474 359.265 179.474 361.125 179.474 364.845C179.474 368.565 179.474 370.425 179.065 371.951C177.956 376.092 174.721 379.326 170.58 380.436C169.054 380.845 167.194 380.845 163.474 380.845H61.4741C57.7542 380.845 55.8943 380.845 54.3683 380.436C50.2272 379.326 46.9926 376.092 45.883 371.951C45.4741 370.425 45.4741 368.565 45.4741 364.845Z" fill="#4F46E5"/>
<path d="M57.8648 371.005C56.9795 371.005 56.2275 370.845 55.6088 370.525C54.9901 370.205 54.4355 369.735 53.9448 369.117L55.1928 367.869C55.5021 368.317 55.8701 368.669 56.2968 368.925C56.7235 369.17 57.2675 369.293 57.9288 369.293C58.5475 369.293 59.0381 369.165 59.4008 368.909C59.7741 368.653 59.9608 368.301 59.9608 367.853C59.9608 367.479 59.8648 367.175 59.6728 366.941C59.4808 366.706 59.2248 366.514 58.9048 366.365C58.5955 366.205 58.2488 366.066 57.8648 365.949C57.4915 365.821 57.1128 365.682 56.7288 365.533C56.3555 365.373 56.0088 365.175 55.6888 364.941C55.3795 364.706 55.1288 364.402 54.9368 364.029C54.7448 363.655 54.6488 363.181 54.6488 362.605C54.6488 361.943 54.8088 361.383 55.1288 360.925C55.4595 360.455 55.9021 360.098 56.4568 359.853C57.0115 359.607 57.6301 359.485 58.3128 359.485C59.0488 359.485 59.7048 359.629 60.2808 359.917C60.8675 360.205 61.3421 360.573 61.7048 361.021L60.4568 362.269C60.1368 361.906 59.8008 361.639 59.4488 361.469C59.1075 361.287 58.7128 361.197 58.2648 361.197C57.7101 361.197 57.2728 361.309 56.9528 361.533C56.6435 361.757 56.4888 362.071 56.4888 362.477C56.4888 362.818 56.5848 363.095 56.7768 363.309C56.9688 363.511 57.2195 363.687 57.5288 363.837C57.8488 363.975 58.1955 364.109 58.5688 364.237C58.9528 364.365 59.3315 364.509 59.7048 364.669C60.0888 364.829 60.4355 365.037 60.7448 365.293C61.0648 365.538 61.3208 365.858 61.5128 366.253C61.7048 366.647 61.8008 367.143 61.8008 367.741C61.8008 368.743 61.4435 369.538 60.7288 370.125C60.0248 370.711 59.0701 371.005 57.8648 371.005ZM64.5634 370.845V359.965H66.3234V370.845H64.5634ZM62.7234 364.765V363.165H68.1634V364.765H62.7234ZM72.4396 371.005C71.7462 371.005 71.1169 370.829 70.5516 370.477C69.9969 370.125 69.5542 369.65 69.2236 369.053C68.9036 368.445 68.7436 367.767 68.7436 367.021C68.7436 366.263 68.9036 365.586 69.2236 364.989C69.5542 364.381 69.9969 363.901 70.5516 363.549C71.1169 363.186 71.7462 363.005 72.4396 363.005C73.0262 363.005 73.5436 363.133 73.9916 363.389C74.4502 363.634 74.8129 363.975 75.0796 364.413C75.3462 364.85 75.4796 365.346 75.4796 365.901V368.109C75.4796 368.663 75.3462 369.159 75.0796 369.597C74.8236 370.034 74.4662 370.381 74.0076 370.637C73.5489 370.882 73.0262 371.005 72.4396 371.005ZM72.7276 369.341C73.3782 369.341 73.9009 369.122 74.2956 368.685C74.7009 368.247 74.9036 367.687 74.9036 367.005C74.9036 366.546 74.8129 366.141 74.6316 365.789C74.4502 365.437 74.1942 365.165 73.8636 364.973C73.5436 364.77 73.1649 364.669 72.7276 364.669C72.3009 364.669 71.9222 364.77 71.5916 364.973C71.2716 365.165 71.0156 365.437 70.8236 365.789C70.6422 366.141 70.5516 366.546 70.5516 367.005C70.5516 367.463 70.6422 367.869 70.8236 368.221C71.0156 368.573 71.2716 368.85 71.5916 369.053C71.9222 369.245 72.3009 369.341 72.7276 369.341ZM74.7916 370.845V368.781L75.0956 366.909L74.7916 365.053V363.165H76.5516V370.845H74.7916ZM78.5048 370.845V363.165H80.2648V370.845H78.5048ZM80.2648 366.573L79.6568 366.269C79.6568 365.298 79.8701 364.514 80.2968 363.917C80.7341 363.309 81.3901 363.005 82.2648 363.005C82.6488 363.005 82.9955 363.074 83.3048 363.213C83.6141 363.351 83.9021 363.575 84.1688 363.885L83.0168 365.069C82.8781 364.919 82.7235 364.813 82.5528 364.749C82.3821 364.685 82.1848 364.653 81.9608 364.653C81.4701 364.653 81.0648 364.807 80.7448 365.117C80.4248 365.426 80.2648 365.911 80.2648 366.573ZM86.2041 370.845V359.965H87.9641V370.845H86.2041ZM84.3641 364.765V363.165H89.8041V364.765H84.3641ZM97.8541 371.005C97.0861 371.005 96.3927 370.834 95.7741 370.493C95.1661 370.141 94.6807 369.661 94.3181 369.053C93.9661 368.445 93.7901 367.762 93.7901 367.005C93.7901 366.247 93.9661 365.57 94.3181 364.973C94.6701 364.365 95.1447 363.885 95.7421 363.533C96.3501 363.181 97.0221 363.005 97.7581 363.005C98.4727 363.005 99.1021 363.17 99.6461 363.501C100.201 363.831 100.633 364.285 100.942 364.861C101.262 365.437 101.422 366.093 101.422 366.829C101.422 366.957 101.411 367.09 101.39 367.229C101.379 367.357 101.358 367.501 101.326 367.661H95.0221V366.221H100.414L99.7581 366.797C99.7367 366.327 99.6461 365.933 99.4861 365.613C99.3261 365.293 99.0967 365.047 98.7981 364.877C98.5101 364.706 98.1527 364.621 97.7261 364.621C97.2781 364.621 96.8887 364.717 96.5581 364.909C96.2274 365.101 95.9714 365.373 95.7901 365.725C95.6087 366.066 95.5181 366.477 95.5181 366.957C95.5181 367.437 95.6141 367.858 95.8061 368.221C95.9981 368.583 96.2701 368.866 96.6221 369.069C96.9741 369.261 97.3794 369.357 97.8381 369.357C98.2327 369.357 98.5954 369.287 98.9261 369.149C99.2674 369.01 99.5554 368.807 99.7901 368.541L100.91 369.677C100.537 370.114 100.083 370.445 99.5501 370.669C99.0167 370.893 98.4514 371.005 97.8541 371.005ZM107.478 370.845L105.27 367.597L104.95 367.309L101.974 363.165H104.102L106.07 366.013L106.374 366.285L109.59 370.845H107.478ZM101.83 370.845L104.934 366.541L105.958 367.805L103.878 370.845H101.83ZM106.534 367.277L105.494 366.029L107.414 363.165H109.446L106.534 367.277ZM114.867 371.005C114.28 371.005 113.757 370.882 113.299 370.637C112.84 370.381 112.477 370.034 112.211 369.597C111.955 369.159 111.827 368.663 111.827 368.109V365.901C111.827 365.346 111.96 364.85 112.227 364.413C112.493 363.975 112.856 363.634 113.315 363.389C113.773 363.133 114.291 363.005 114.867 363.005C115.56 363.005 116.184 363.186 116.739 363.549C117.304 363.901 117.747 364.381 118.067 364.989C118.397 365.586 118.563 366.263 118.563 367.021C118.563 367.767 118.397 368.445 118.067 369.053C117.747 369.65 117.304 370.125 116.739 370.477C116.184 370.829 115.56 371.005 114.867 371.005ZM110.755 374.045V363.165H112.515V365.229L112.211 367.101L112.515 368.957V374.045H110.755ZM114.579 369.341C115.005 369.341 115.379 369.245 115.699 369.053C116.029 368.85 116.285 368.573 116.467 368.221C116.659 367.869 116.755 367.463 116.755 367.005C116.755 366.546 116.659 366.141 116.467 365.789C116.285 365.437 116.029 365.165 115.699 364.973C115.379 364.77 115.005 364.669 114.579 364.669C114.152 364.669 113.773 364.77 113.443 364.973C113.112 365.165 112.856 365.437 112.675 365.789C112.493 366.141 112.403 366.546 112.403 367.005C112.403 367.463 112.493 367.869 112.675 368.221C112.856 368.573 113.112 368.85 113.443 369.053C113.773 369.245 114.152 369.341 114.579 369.341ZM123.604 371.005C122.836 371.005 122.143 370.834 121.524 370.493C120.916 370.141 120.431 369.661 120.068 369.053C119.716 368.445 119.54 367.762 119.54 367.005C119.54 366.247 119.716 365.57 120.068 364.973C120.42 364.365 120.895 363.885 121.492 363.533C122.1 363.181 122.772 363.005 123.508 363.005C124.223 363.005 124.852 363.17 125.396 363.501C125.951 363.831 126.383 364.285 126.692 364.861C127.012 365.437 127.172 366.093 127.172 366.829C127.172 366.957 127.161 367.09 127.14 367.229C127.129 367.357 127.108 367.501 127.076 367.661H120.772V366.221H126.164L125.508 366.797C125.487 366.327 125.396 365.933 125.236 365.613C125.076 365.293 124.847 365.047 124.548 364.877C124.26 364.706 123.903 364.621 123.476 364.621C123.028 364.621 122.639 364.717 122.308 364.909C121.977 365.101 121.721 365.373 121.54 365.725C121.359 366.066 121.268 366.477 121.268 366.957C121.268 367.437 121.364 367.858 121.556 368.221C121.748 368.583 122.02 368.866 122.372 369.069C122.724 369.261 123.129 369.357 123.588 369.357C123.983 369.357 124.345 369.287 124.676 369.149C125.017 369.01 125.305 368.807 125.54 368.541L126.66 369.677C126.287 370.114 125.833 370.445 125.3 370.669C124.767 370.893 124.201 371.005 123.604 371.005ZM128.583 370.845V363.165H130.343V370.845H128.583ZM130.343 366.573L129.735 366.269C129.735 365.298 129.948 364.514 130.375 363.917C130.812 363.309 131.468 363.005 132.343 363.005C132.727 363.005 133.074 363.074 133.383 363.213C133.692 363.351 133.98 363.575 134.247 363.885L133.095 365.069C132.956 364.919 132.802 364.813 132.631 364.749C132.46 364.685 132.263 364.653 132.039 364.653C131.548 364.653 131.143 364.807 130.823 365.117C130.503 365.426 130.343 365.911 130.343 366.573ZM135.115 370.845V363.165H136.875V370.845H135.115ZM135.995 361.757C135.696 361.757 135.445 361.655 135.243 361.453C135.051 361.25 134.955 360.999 134.955 360.701C134.955 360.402 135.051 360.151 135.243 359.949C135.445 359.746 135.696 359.645 135.995 359.645C136.304 359.645 136.555 359.746 136.747 359.949C136.939 360.151 137.035 360.402 137.035 360.701C137.035 360.999 136.939 361.25 136.747 361.453C136.555 361.655 136.304 361.757 135.995 361.757ZM142.417 371.005C141.649 371.005 140.955 370.834 140.337 370.493C139.729 370.141 139.243 369.661 138.881 369.053C138.529 368.445 138.353 367.762 138.353 367.005C138.353 366.247 138.529 365.57 138.881 364.973C139.233 364.365 139.707 363.885 140.305 363.533C140.913 363.181 141.585 363.005 142.321 363.005C143.035 363.005 143.665 363.17 144.209 363.501C144.763 363.831 145.195 364.285 145.505 364.861C145.825 365.437 145.985 366.093 145.985 366.829C145.985 366.957 145.974 367.09 145.953 367.229C145.942 367.357 145.921 367.501 145.889 367.661H139.585V366.221H144.977L144.321 366.797C144.299 366.327 144.209 365.933 144.049 365.613C143.889 365.293 143.659 365.047 143.361 364.877C143.073 364.706 142.715 364.621 142.289 364.621C141.841 364.621 141.451 364.717 141.121 364.909C140.79 365.101 140.534 365.373 140.353 365.725C140.171 366.066 140.081 366.477 140.081 366.957C140.081 367.437 140.177 367.858 140.369 368.221C140.561 368.583 140.833 368.866 141.185 369.069C141.537 369.261 141.942 369.357 142.401 369.357C142.795 369.357 143.158 369.287 143.489 369.149C143.83 369.01 144.118 368.807 144.353 368.541L145.473 369.677C145.099 370.114 144.646 370.445 144.113 370.669C143.579 370.893 143.014 371.005 142.417 371.005ZM152.659 370.845V366.413C152.659 365.901 152.494 365.479 152.163 365.149C151.843 364.818 151.427 364.653 150.915 364.653C150.574 364.653 150.27 364.727 150.003 364.877C149.737 365.026 149.529 365.234 149.379 365.501C149.23 365.767 149.155 366.071 149.155 366.413L148.467 366.029C148.467 365.442 148.595 364.925 148.851 364.477C149.107 364.018 149.459 363.661 149.907 363.405C150.366 363.138 150.878 363.005 151.443 363.005C152.019 363.005 152.531 363.154 152.979 363.453C153.427 363.741 153.779 364.119 154.035 364.589C154.291 365.047 154.419 365.527 154.419 366.029V370.845H152.659ZM147.395 370.845V363.165H149.155V370.845H147.395ZM159.744 371.005C158.987 371.005 158.299 370.829 157.68 370.477C157.072 370.125 156.592 369.645 156.24 369.037C155.888 368.429 155.712 367.751 155.712 367.005C155.712 366.247 155.888 365.57 156.24 364.973C156.592 364.365 157.072 363.885 157.68 363.533C158.299 363.181 158.987 363.005 159.744 363.005C160.341 363.005 160.896 363.122 161.408 363.357C161.931 363.581 162.373 363.906 162.736 364.333L161.584 365.501C161.36 365.234 161.088 365.037 160.768 364.909C160.459 364.77 160.117 364.701 159.744 364.701C159.307 364.701 158.917 364.802 158.576 365.005C158.245 365.197 157.984 365.463 157.792 365.805C157.611 366.146 157.52 366.546 157.52 367.005C157.52 367.453 157.611 367.853 157.792 368.205C157.984 368.546 158.245 368.818 158.576 369.021C158.917 369.213 159.307 369.309 159.744 369.309C160.117 369.309 160.459 369.245 160.768 369.117C161.088 368.978 161.36 368.775 161.584 368.509L162.736 369.677C162.373 370.103 161.931 370.434 161.408 370.669C160.896 370.893 160.341 371.005 159.744 371.005ZM167.417 371.005C166.649 371.005 165.955 370.834 165.337 370.493C164.729 370.141 164.243 369.661 163.881 369.053C163.529 368.445 163.353 367.762 163.353 367.005C163.353 366.247 163.529 365.57 163.881 364.973C164.233 364.365 164.707 363.885 165.305 363.533C165.913 363.181 166.585 363.005 167.321 363.005C168.035 363.005 168.665 363.17 169.209 363.501C169.763 363.831 170.195 364.285 170.505 364.861C170.825 365.437 170.985 366.093 170.985 366.829C170.985 366.957 170.974 367.09 170.953 367.229C170.942 367.357 170.921 367.501 170.889 367.661H164.585V366.221H169.977L169.321 366.797C169.299 366.327 169.209 365.933 169.049 365.613C168.889 365.293 168.659 365.047 168.361 364.877C168.073 364.706 167.715 364.621 167.289 364.621C166.841 364.621 166.451 364.717 166.121 364.909C165.79 365.101 165.534 365.373 165.353 365.725C165.171 366.066 165.081 366.477 165.081 366.957C165.081 367.437 165.177 367.858 165.369 368.221C165.561 368.583 165.833 368.866 166.185 369.069C166.537 369.261 166.942 369.357 167.401 369.357C167.795 369.357 168.158 369.287 168.489 369.149C168.83 369.01 169.118 368.807 169.353 368.541L170.473 369.677C170.099 370.114 169.646 370.445 169.113 370.669C168.579 370.893 168.014 371.005 167.417 371.005Z" fill="white"/>
</g>
<path d="M325.381 206.767C325.381 222.231 312.845 234.767 297.381 234.767C281.917 234.767 269.381 222.231 269.381 206.767C269.381 191.303 281.917 178.767 297.381 178.767C312.845 178.767 325.381 191.303 325.381 206.767ZM275.541 206.767C275.541 218.829 285.319 228.607 297.381 228.607C309.443 228.607 319.221 218.829 319.221 206.767C319.221 194.705 309.443 184.927 297.381 184.927C285.319 184.927 275.541 194.705 275.541 206.767Z" fill="#E9F0FF"/>
<path d="M281.363 187.677C280.269 186.374 280.431 184.415 281.846 183.472C285.885 180.779 290.57 179.172 295.447 178.834C301.353 178.425 307.236 179.899 312.252 183.043C317.268 186.186 321.158 190.839 323.364 196.333C325.186 200.869 325.782 205.787 325.118 210.595C324.885 212.28 323.193 213.279 321.544 212.863C319.894 212.447 318.918 210.772 319.098 209.08C319.475 205.545 318.984 201.956 317.648 198.628C315.927 194.343 312.892 190.714 308.98 188.262C305.068 185.81 300.479 184.66 295.873 184.979C292.295 185.227 288.851 186.35 285.833 188.229C284.39 189.129 282.456 188.98 281.363 187.677Z" fill="#4F46E5"/>
<path d="M342.698 212.767V201.567H344.538V212.767H342.698ZM343.962 212.767V211.087H349.818V212.767H343.962ZM354.51 212.927C353.763 212.927 353.086 212.751 352.478 212.399C351.87 212.036 351.384 211.551 351.022 210.943C350.67 210.335 350.494 209.658 350.494 208.911C350.494 208.164 350.67 207.492 351.022 206.895C351.384 206.298 351.87 205.823 352.478 205.471C353.086 205.108 353.763 204.927 354.51 204.927C355.267 204.927 355.95 205.103 356.558 205.455C357.166 205.807 357.646 206.287 357.998 206.895C358.36 207.492 358.542 208.164 358.542 208.911C358.542 209.658 358.36 210.335 357.998 210.943C357.646 211.551 357.166 212.036 356.558 212.399C355.95 212.751 355.267 212.927 354.51 212.927ZM354.51 211.231C354.947 211.231 355.331 211.135 355.662 210.943C356.003 210.74 356.264 210.463 356.446 210.111C356.638 209.759 356.734 209.359 356.734 208.911C356.734 208.463 356.638 208.068 356.446 207.727C356.254 207.386 355.992 207.119 355.662 206.927C355.331 206.724 354.947 206.623 354.51 206.623C354.083 206.623 353.699 206.724 353.358 206.927C353.027 207.119 352.766 207.386 352.574 207.727C352.392 208.068 352.302 208.463 352.302 208.911C352.302 209.359 352.392 209.759 352.574 210.111C352.766 210.463 353.027 210.74 353.358 210.943C353.699 211.135 354.083 211.231 354.51 211.231ZM363.221 212.927C362.528 212.927 361.899 212.751 361.333 212.399C360.779 212.047 360.336 211.572 360.005 210.975C359.685 210.367 359.525 209.69 359.525 208.943C359.525 208.186 359.685 207.508 360.005 206.911C360.336 206.303 360.779 205.823 361.333 205.471C361.899 205.108 362.528 204.927 363.221 204.927C363.808 204.927 364.325 205.055 364.773 205.311C365.232 205.556 365.595 205.898 365.861 206.335C366.128 206.772 366.261 207.268 366.261 207.823V210.031C366.261 210.586 366.128 211.082 365.861 211.519C365.605 211.956 365.248 212.303 364.789 212.559C364.331 212.804 363.808 212.927 363.221 212.927ZM363.509 211.263C364.16 211.263 364.683 211.044 365.077 210.607C365.483 210.17 365.685 209.61 365.685 208.927C365.685 208.468 365.595 208.063 365.413 207.711C365.232 207.359 364.976 207.087 364.645 206.895C364.325 206.692 363.947 206.591 363.509 206.591C363.083 206.591 362.704 206.692 362.373 206.895C362.053 207.087 361.797 207.359 361.605 207.711C361.424 208.063 361.333 208.468 361.333 208.927C361.333 209.386 361.424 209.791 361.605 210.143C361.797 210.495 362.053 210.772 362.373 210.975C362.704 211.167 363.083 211.263 363.509 211.263ZM365.573 212.767V210.703L365.877 208.831L365.573 206.975V205.087H367.333V212.767H365.573ZM372.503 212.927C371.809 212.927 371.18 212.751 370.615 212.399C370.06 212.047 369.617 211.572 369.287 210.975C368.967 210.367 368.807 209.69 368.807 208.943C368.807 208.186 368.967 207.508 369.287 206.911C369.617 206.303 370.06 205.823 370.615 205.471C371.18 205.108 371.809 204.927 372.503 204.927C373.089 204.927 373.607 205.055 374.055 205.311C374.513 205.556 374.876 205.898 375.143 206.335C375.409 206.772 375.543 207.268 375.543 207.823V210.031C375.543 210.586 375.409 211.082 375.143 211.519C374.887 211.956 374.529 212.303 374.071 212.559C373.612 212.804 373.089 212.927 372.503 212.927ZM372.791 211.263C373.228 211.263 373.607 211.167 373.927 210.975C374.257 210.772 374.513 210.495 374.695 210.143C374.876 209.791 374.967 209.386 374.967 208.927C374.967 208.468 374.876 208.063 374.695 207.711C374.513 207.359 374.257 207.087 373.927 206.895C373.607 206.692 373.228 206.591 372.791 206.591C372.364 206.591 371.985 206.692 371.655 206.895C371.335 207.087 371.079 207.359 370.887 207.711C370.705 208.063 370.615 208.468 370.615 208.927C370.615 209.386 370.705 209.791 370.887 210.143C371.079 210.495 371.335 210.772 371.655 210.975C371.985 211.167 372.364 211.263 372.791 211.263ZM376.615 212.767H374.855V210.703L375.159 208.831L374.855 206.975V201.247H376.615V212.767ZM378.584 212.767V205.087H380.344V212.767H378.584ZM379.464 203.679C379.165 203.679 378.914 203.578 378.712 203.375C378.52 203.172 378.424 202.922 378.424 202.623C378.424 202.324 378.52 202.074 378.712 201.871C378.914 201.668 379.165 201.567 379.464 201.567C379.773 201.567 380.024 201.668 380.216 201.871C380.408 202.074 380.504 202.324 380.504 202.623C380.504 202.922 380.408 203.172 380.216 203.375C380.024 203.578 379.773 203.679 379.464 203.679ZM387.582 212.767V208.335C387.582 207.823 387.416 207.402 387.086 207.071C386.766 206.74 386.35 206.575 385.838 206.575C385.496 206.575 385.192 206.65 384.926 206.799C384.659 206.948 384.451 207.156 384.302 207.423C384.152 207.69 384.078 207.994 384.078 208.335L383.39 207.951C383.39 207.364 383.518 206.847 383.774 206.399C384.03 205.94 384.382 205.583 384.83 205.327C385.288 205.06 385.8 204.927 386.366 204.927C386.942 204.927 387.454 205.076 387.902 205.375C388.35 205.663 388.702 206.042 388.958 206.511C389.214 206.97 389.342 207.45 389.342 207.951V212.767H387.582ZM382.318 212.767V205.087H384.078V212.767H382.318ZM394.33 216.127C393.52 216.127 392.81 215.978 392.202 215.679C391.594 215.391 391.104 214.98 390.73 214.447L391.882 213.295C392.192 213.679 392.544 213.967 392.938 214.159C393.333 214.351 393.808 214.447 394.362 214.447C395.056 214.447 395.605 214.266 396.01 213.903C396.416 213.551 396.618 213.066 396.618 212.447V210.559L396.922 208.863L396.618 207.151V205.087H398.378V212.447C398.378 213.183 398.208 213.823 397.866 214.367C397.525 214.922 397.05 215.354 396.442 215.663C395.834 215.972 395.13 216.127 394.33 216.127ZM394.25 212.607C393.568 212.607 392.949 212.442 392.394 212.111C391.85 211.77 391.418 211.306 391.098 210.719C390.789 210.132 390.634 209.476 390.634 208.751C390.634 208.026 390.789 207.375 391.098 206.799C391.418 206.223 391.85 205.77 392.394 205.439C392.949 205.098 393.568 204.927 394.25 204.927C394.858 204.927 395.392 205.05 395.85 205.295C396.309 205.54 396.666 205.882 396.922 206.319C397.178 206.746 397.306 207.247 397.306 207.823V209.711C397.306 210.276 397.173 210.778 396.906 211.215C396.65 211.652 396.293 211.994 395.834 212.239C395.376 212.484 394.848 212.607 394.25 212.607ZM394.602 210.943C395.029 210.943 395.402 210.852 395.722 210.671C396.042 210.49 396.288 210.239 396.458 209.919C396.64 209.588 396.73 209.204 396.73 208.767C396.73 208.33 396.64 207.951 396.458 207.631C396.288 207.3 396.042 207.044 395.722 206.863C395.402 206.682 395.029 206.591 394.602 206.591C394.176 206.591 393.797 206.682 393.466 206.863C393.146 207.044 392.896 207.3 392.714 207.631C392.533 207.951 392.442 208.33 392.442 208.767C392.442 209.194 392.533 209.572 392.714 209.903C392.896 210.234 393.146 210.49 393.466 210.671C393.797 210.852 394.176 210.943 394.602 210.943ZM401.677 212.927C401.336 212.927 401.053 212.815 400.829 212.591C400.616 212.356 400.509 212.074 400.509 211.743C400.509 211.402 400.616 211.119 400.829 210.895C401.053 210.671 401.336 210.559 401.677 210.559C402.019 210.559 402.296 210.671 402.509 210.895C402.733 211.119 402.845 211.402 402.845 211.743C402.845 212.074 402.733 212.356 402.509 212.591C402.296 212.815 402.019 212.927 401.677 212.927ZM406.318 212.927C405.977 212.927 405.694 212.815 405.47 212.591C405.257 212.356 405.15 212.074 405.15 211.743C405.15 211.402 405.257 211.119 405.47 210.895C405.694 210.671 405.977 210.559 406.318 210.559C406.659 210.559 406.937 210.671 407.15 210.895C407.374 211.119 407.486 211.402 407.486 211.743C407.486 212.074 407.374 212.356 407.15 212.591C406.937 212.815 406.659 212.927 406.318 212.927ZM410.959 212.927C410.617 212.927 410.335 212.815 410.111 212.591C409.897 212.356 409.791 212.074 409.791 211.743C409.791 211.402 409.897 211.119 410.111 210.895C410.335 210.671 410.617 210.559 410.959 210.559C411.3 210.559 411.577 210.671 411.791 210.895C412.015 211.119 412.127 211.402 412.127 211.743C412.127 212.074 412.015 212.356 411.791 212.591C411.577 212.815 411.3 212.927 410.959 212.927Z" fill="#2A2C35"/>
</svg>
