<svg width="683" height="420" viewBox="0 0 683 420" fill="none" xmlns="http://www.w3.org/2000/svg">
<rect width="683" height="420" fill="#1C1D23"/>
<path d="M146 131.442C146 125.98 146 123.25 147.697 121.553C149.394 119.856 152.124 119.856 157.586 119.856H275.61C281.071 119.856 283.802 119.856 285.498 121.553C287.195 123.25 287.195 125.98 287.195 131.442V289.29C287.195 294.751 287.195 297.482 285.498 299.178C283.802 300.875 281.071 300.875 275.61 300.875H157.586C152.124 300.875 149.394 300.875 147.697 299.178C146 297.482 146 294.751 146 289.29V131.442Z" fill="#6061EE"/>
<path d="M217.682 207.471C217.682 207.185 217.767 206.905 217.926 206.667C218.086 206.428 218.312 206.243 218.576 206.133C218.841 206.024 219.132 205.995 219.413 206.051C219.694 206.107 219.952 206.245 220.155 206.447C220.357 206.65 220.495 206.908 220.551 207.189C220.607 207.469 220.578 207.761 220.468 208.025C220.359 208.29 220.173 208.516 219.935 208.675C219.697 208.834 219.417 208.919 219.131 208.919C218.746 208.919 218.378 208.767 218.107 208.495C217.835 208.223 217.682 207.855 217.682 207.471ZM226.009 203.851V216.884C226.009 217.364 225.819 217.825 225.479 218.164C225.14 218.504 224.679 218.694 224.199 218.694H208.269C207.789 218.694 207.329 218.504 206.989 218.164C206.65 217.825 206.459 217.364 206.459 216.884V203.851C206.459 203.371 206.65 202.91 206.989 202.571C207.329 202.231 207.789 202.041 208.269 202.041H224.199C224.679 202.041 225.14 202.231 225.479 202.571C225.819 202.91 226.009 203.371 226.009 203.851ZM208.631 204.213V211.428L211.696 208.364C212.036 208.024 212.496 207.834 212.976 207.834C213.456 207.834 213.916 208.024 214.256 208.364L217.982 212.087L219.537 210.533C219.876 210.194 220.337 210.003 220.817 210.003C221.297 210.003 221.757 210.194 222.097 210.533L223.837 212.276V204.213H208.631ZM208.631 216.522H219.342L212.976 210.156L208.631 214.5V216.522ZM223.837 216.522V215.345L220.817 212.325L219.518 213.626L222.414 216.522H223.837Z" fill="white"/>
<path d="M317.61 300.867L317.61 119.125" stroke="#3F4350" stroke-width="0.724074"/>
<path d="M348.016 179.953C348.016 174.492 348.016 171.761 349.713 170.065C349.713 170.065 349.713 170.065 349.713 170.065C351.409 168.368 354.14 168.368 359.601 168.368H467.488C472.95 168.368 475.68 168.368 477.377 170.065C477.377 170.065 477.377 170.065 477.377 170.065C479.074 171.761 479.074 174.492 479.074 179.953C479.074 185.415 479.074 188.145 477.377 189.842C477.377 189.842 477.377 189.842 477.377 189.842C475.68 191.539 472.95 191.539 467.488 191.539H359.601C354.14 191.539 351.409 191.539 349.713 189.842C349.713 189.842 349.713 189.842 349.713 189.842C348.016 188.145 348.016 185.415 348.016 179.953Z" fill="#3F4350"/>
<path d="M348.016 208.916C348.016 203.455 348.016 200.724 349.713 199.028C349.713 199.028 349.713 199.028 349.713 199.028C351.409 197.331 354.14 197.331 359.601 197.331H525.414C530.876 197.331 533.606 197.331 535.303 199.028C535.303 199.028 535.303 199.028 535.303 199.028C536.999 200.724 536.999 203.455 536.999 208.916C536.999 214.378 536.999 217.108 535.303 218.805C535.303 218.805 535.303 218.805 535.303 218.805C533.606 220.501 530.876 220.501 525.414 220.501H359.601C354.14 220.501 351.409 220.501 349.713 218.805C349.713 218.805 349.713 218.805 349.713 218.805C348.016 217.108 348.016 214.378 348.016 208.916Z" fill="#3F4350"/>
<path d="M348.016 237.879C348.016 232.418 348.016 229.687 349.713 227.991C349.713 227.991 349.713 227.991 349.713 227.991C351.409 226.294 354.14 226.294 359.601 226.294H525.414C530.876 226.294 533.606 226.294 535.303 227.991C535.303 227.991 535.303 227.991 535.303 227.991C536.999 229.687 536.999 232.418 536.999 237.879C536.999 243.341 536.999 246.071 535.303 247.768C535.303 247.768 535.303 247.768 535.303 247.768C533.606 249.465 530.876 249.465 525.414 249.465H359.601C354.14 249.465 351.409 249.465 349.713 247.768C349.713 247.768 349.713 247.768 349.713 247.768C348.016 246.071 348.016 243.341 348.016 237.879Z" fill="#3F4350"/>
<path d="M348.016 276.255C348.016 270.794 348.016 268.063 349.713 266.367C351.409 264.67 354.14 264.67 359.601 264.67H404.494C409.955 264.67 412.686 264.67 414.382 266.367C416.079 268.063 416.079 270.794 416.079 276.255V283.496C416.079 288.957 416.079 291.688 414.382 293.384C412.686 295.081 409.955 295.081 404.494 295.081H359.601C354.14 295.081 351.409 295.081 349.713 293.384C348.016 291.688 348.016 288.957 348.016 283.496V276.255Z" fill="#3F4350"/>
<path d="M424.768 276.255C424.768 270.794 424.768 268.063 426.465 266.367C428.161 264.67 430.892 264.67 436.353 264.67H492.107C497.568 264.67 500.299 264.67 501.996 266.367C503.692 268.063 503.692 270.794 503.692 276.255V283.496C503.692 288.957 503.692 291.688 501.996 293.384C500.299 295.081 497.568 295.081 492.107 295.081H436.353C430.892 295.081 428.161 295.081 426.465 293.384C424.768 291.688 424.768 288.957 424.768 283.496V276.255Z" fill="#3F4350"/>
<circle cx="359.601" cy="130.715" r="11.5852" fill="#3F4350"/>
<path d="M379.875 130.715C379.875 125.254 379.875 122.523 381.572 120.826C381.572 120.826 381.572 120.826 381.572 120.826C383.269 119.13 385.999 119.13 391.461 119.13H499.348C504.809 119.13 507.54 119.13 509.236 120.826C509.236 120.826 509.236 120.826 509.236 120.826C510.933 122.523 510.933 125.254 510.933 130.715C510.933 136.176 510.933 138.907 509.236 140.604C509.236 140.604 509.236 140.604 509.236 140.604C507.54 142.3 504.809 142.3 499.348 142.3H391.461C385.999 142.3 383.269 142.3 381.572 140.604C381.572 140.604 381.572 140.604 381.572 140.604C379.875 138.907 379.875 136.176 379.875 130.715Z" fill="#3F4350"/>
</svg>
