<svg width="322" height="210" viewBox="0 0 322 210" fill="none" xmlns="http://www.w3.org/2000/svg">
<g clip-path="url(#clip0_4888_23966)">
<path d="M4.256 18V7.216H5.76V18H4.256ZM0.48 8.272V6.896H9.52V8.272H0.48ZM12.4666 18.16C11.7093 18.16 11.0266 17.9893 10.4186 17.648C9.81063 17.296 9.33063 16.8213 8.97863 16.224C8.62663 15.6267 8.45063 14.9493 8.45063 14.192C8.45063 13.4453 8.62129 12.7733 8.96263 12.176C9.31463 11.5787 9.78396 11.1093 10.3706 10.768C10.968 10.416 11.6346 10.24 12.3706 10.24C13.0746 10.24 13.6933 10.4 14.2266 10.72C14.7706 11.04 15.192 11.4827 15.4906 12.048C15.8 12.6133 15.9546 13.2533 15.9546 13.968C15.9546 14.0747 15.9493 14.192 15.9386 14.32C15.928 14.4373 15.9066 14.576 15.8746 14.736H9.45863V13.536H15.1066L14.5786 14C14.5786 13.488 14.488 13.056 14.3066 12.704C14.1253 12.3413 13.8693 12.064 13.5386 11.872C13.208 11.6693 12.808 11.568 12.3386 11.568C11.848 11.568 11.416 11.6747 11.0426 11.888C10.6693 12.1013 10.3813 12.4 10.1786 12.784C9.97596 13.168 9.87463 13.6213 9.87463 14.144C9.87463 14.6773 9.98129 15.1467 10.1946 15.552C10.408 15.9467 10.712 16.256 11.1066 16.48C11.5013 16.6933 11.9546 16.8 12.4666 16.8C12.8933 16.8 13.2826 16.7253 13.6346 16.576C13.9973 16.4267 14.3066 16.2027 14.5626 15.904L15.4906 16.848C15.128 17.2747 14.68 17.6 14.1466 17.824C13.624 18.048 13.064 18.16 12.4666 18.16ZM22.2824 18L19.9144 14.672L19.6424 14.416L16.6504 10.4H18.3944L20.5544 13.36L20.8264 13.584L24.0264 18H22.2824ZM16.5064 18L19.6424 13.776L20.4584 14.832L18.2024 18H16.5064ZM20.9384 14.4L20.1064 13.376L22.2024 10.4H23.8824L20.9384 14.4ZM26.1928 18V7.216H27.6328V18H26.1928ZM24.3208 11.712V10.4H29.5048V11.712H24.3208Z" fill="#F1F2F4"/>
<path d="M46 12H322" stroke="#15161A"/>
</g>
<g clip-path="url(#clip1_4888_23966)">
<path d="M0 105H276" stroke="#15161A"/>
<path d="M296.397 111V100.216H297.901V111H296.397ZM292.621 101.272V99.896H301.661V101.272H292.621ZM304.607 111.16C303.85 111.16 303.167 110.989 302.559 110.648C301.951 110.296 301.471 109.821 301.119 109.224C300.767 108.627 300.591 107.949 300.591 107.192C300.591 106.445 300.762 105.773 301.103 105.176C301.455 104.579 301.925 104.109 302.511 103.768C303.109 103.416 303.775 103.24 304.511 103.24C305.215 103.24 305.834 103.4 306.367 103.72C306.911 104.04 307.333 104.483 307.631 105.048C307.941 105.613 308.095 106.253 308.095 106.968C308.095 107.075 308.09 107.192 308.079 107.32C308.069 107.437 308.047 107.576 308.015 107.736H301.599V106.536H307.247L306.719 107C306.719 106.488 306.629 106.056 306.447 105.704C306.266 105.341 306.01 105.064 305.679 104.872C305.349 104.669 304.949 104.568 304.479 104.568C303.989 104.568 303.557 104.675 303.183 104.888C302.81 105.101 302.522 105.4 302.319 105.784C302.117 106.168 302.015 106.621 302.015 107.144C302.015 107.677 302.122 108.147 302.335 108.552C302.549 108.947 302.853 109.256 303.247 109.48C303.642 109.693 304.095 109.8 304.607 109.8C305.034 109.8 305.423 109.725 305.775 109.576C306.138 109.427 306.447 109.203 306.703 108.904L307.631 109.848C307.269 110.275 306.821 110.6 306.287 110.824C305.765 111.048 305.205 111.16 304.607 111.16ZM314.423 111L312.055 107.672L311.783 107.416L308.791 103.4H310.535L312.695 106.36L312.967 106.584L316.167 111H314.423ZM308.647 111L311.783 106.776L312.599 107.832L310.343 111H308.647ZM313.079 107.4L312.247 106.376L314.343 103.4H316.023L313.079 107.4ZM318.333 111V100.216H319.773V111H318.333ZM316.461 104.712V103.4H321.645V104.712H316.461Z" fill="#F1F2F4"/>
</g>
<g clip-path="url(#clip2_4888_23966)">
<path d="M0 198H130" stroke="#15161A"/>
<path d="M150.326 204V193.216H151.83V204H150.326ZM146.55 194.272V192.896H155.59V194.272H146.55ZM158.537 204.16C157.78 204.16 157.097 203.989 156.489 203.648C155.881 203.296 155.401 202.821 155.049 202.224C154.697 201.627 154.521 200.949 154.521 200.192C154.521 199.445 154.692 198.773 155.033 198.176C155.385 197.579 155.854 197.109 156.441 196.768C157.038 196.416 157.705 196.24 158.441 196.24C159.145 196.24 159.764 196.4 160.297 196.72C160.841 197.04 161.262 197.483 161.561 198.048C161.87 198.613 162.025 199.253 162.025 199.968C162.025 200.075 162.02 200.192 162.009 200.32C161.998 200.437 161.977 200.576 161.945 200.736H155.529V199.536H161.177L160.649 200C160.649 199.488 160.558 199.056 160.377 198.704C160.196 198.341 159.94 198.064 159.609 197.872C159.278 197.669 158.878 197.568 158.409 197.568C157.918 197.568 157.486 197.675 157.113 197.888C156.74 198.101 156.452 198.4 156.249 198.784C156.046 199.168 155.945 199.621 155.945 200.144C155.945 200.677 156.052 201.147 156.265 201.552C156.478 201.947 156.782 202.256 157.177 202.48C157.572 202.693 158.025 202.8 158.537 202.8C158.964 202.8 159.353 202.725 159.705 202.576C160.068 202.427 160.377 202.203 160.633 201.904L161.561 202.848C161.198 203.275 160.75 203.6 160.217 203.824C159.694 204.048 159.134 204.16 158.537 204.16ZM168.353 204L165.985 200.672L165.713 200.416L162.721 196.4H164.465L166.625 199.36L166.897 199.584L170.097 204H168.353ZM162.577 204L165.713 199.776L166.529 200.832L164.273 204H162.577ZM167.009 200.4L166.177 199.376L168.273 196.4H169.953L167.009 200.4ZM172.263 204V193.216H173.703V204H172.263ZM170.391 197.712V196.4H175.575V197.712H170.391Z" fill="#F1F2F4"/>
<path d="M192 198H322" stroke="#15161A"/>
</g>
<defs>
<clipPath id="clip0_4888_23966">
<rect width="322" height="24" fill="white"/>
</clipPath>
<clipPath id="clip1_4888_23966">
<rect width="322" height="24" fill="white" transform="translate(0 93)"/>
</clipPath>
<clipPath id="clip2_4888_23966">
<rect width="322" height="24" fill="white" transform="translate(0 186)"/>
</clipPath>
</defs>
</svg>
