<svg width="683" height="420" viewBox="0 0 683 420" fill="none" xmlns="http://www.w3.org/2000/svg">
<rect width="683" height="420" fill="#F6F6F8"/>
<path d="M221.5 143.147C221.5 138.104 221.5 135.583 223.066 134.017C224.633 132.45 227.154 132.45 232.196 132.45H264.285C269.328 132.45 271.849 132.45 273.415 134.017C274.982 135.583 274.982 138.104 274.982 143.147V175.236C274.982 180.278 274.982 182.799 273.415 184.366C271.849 185.932 269.328 185.932 264.285 185.932H232.196C227.154 185.932 224.633 185.932 223.066 184.366C221.5 182.799 221.5 180.278 221.5 175.236V143.147Z" fill="#4F46E5"/>
<path d="M287.015 143.147C287.015 138.104 287.015 135.583 288.582 134.017C290.148 132.45 292.669 132.45 297.712 132.45H397.321C402.364 132.45 404.885 132.45 406.451 134.017C408.018 135.583 408.018 138.104 408.018 143.147C408.018 148.189 408.018 150.71 406.451 152.277C404.885 153.843 402.364 153.843 397.321 153.843H297.711C292.669 153.843 290.148 153.843 288.582 152.277C287.015 150.71 287.015 148.189 287.015 143.147Z" fill="#A6AAB3"/>
<path d="M287.015 169.888C287.015 164.845 287.015 162.324 288.582 160.758C290.148 159.191 292.669 159.191 297.712 159.191H450.803C455.846 159.191 458.367 159.191 459.933 160.758C461.5 162.324 461.5 164.845 461.5 169.888C461.5 174.93 461.5 177.451 459.933 179.018C458.367 180.584 455.846 180.584 450.803 180.584H297.712C292.669 180.584 290.148 180.584 288.582 179.018C287.015 177.451 287.015 174.93 287.015 169.888Z" fill="#A6AAB3"/>
<path d="M249.573 156.52C249.573 156.255 249.651 155.997 249.798 155.777C249.945 155.557 250.154 155.385 250.398 155.284C250.642 155.183 250.911 155.157 251.17 155.208C251.43 155.26 251.668 155.387 251.855 155.574C252.042 155.761 252.169 155.999 252.221 156.259C252.273 156.518 252.246 156.787 252.145 157.031C252.044 157.276 251.872 157.484 251.652 157.631C251.433 157.778 251.174 157.857 250.91 157.857C250.555 157.857 250.215 157.716 249.964 157.465C249.713 157.214 249.573 156.874 249.573 156.52ZM257.261 153.177V165.21C257.261 165.654 257.084 166.079 256.771 166.392C256.458 166.706 256.033 166.882 255.589 166.882H240.882C240.438 166.882 240.013 166.706 239.7 166.392C239.387 166.079 239.21 165.654 239.21 165.21V153.177C239.21 152.734 239.387 152.309 239.7 151.995C240.013 151.682 240.438 151.506 240.882 151.506H255.589C256.033 151.506 256.458 151.682 256.771 151.995C257.084 152.309 257.261 152.734 257.261 153.177ZM241.216 153.511V160.173L244.046 157.343C244.359 157.03 244.784 156.854 245.227 156.854C245.67 156.854 246.095 157.03 246.409 157.343L249.849 160.781L251.285 159.347C251.598 159.033 252.023 158.857 252.466 158.857C252.91 158.857 253.335 159.033 253.648 159.347L255.255 160.956V153.511H241.216ZM241.216 164.876H251.105L245.227 158.998L241.216 163.009V164.876ZM255.255 164.876V163.79L252.466 161.001L251.267 162.202L253.941 164.876H255.255Z" fill="#F6F6F8"/>
<rect width="0" height="171.81" transform="translate(289.688 210.001) rotate(-90)" fill="#A6AAB3"/>
<path d="M289.688 209.667L461.498 209.667" stroke="#646A77" stroke-width="0.668523"/>
<path d="M221.5 244.764C221.5 239.722 221.5 237.201 223.066 235.634C224.633 234.068 227.154 234.068 232.196 234.068H264.285C269.328 234.068 271.849 234.068 273.415 235.634C274.982 237.201 274.982 239.722 274.982 244.764V276.853C274.982 281.895 274.982 284.417 273.415 285.983C271.849 287.549 269.328 287.549 264.285 287.549H232.196C227.154 287.549 224.633 287.549 223.066 285.983C221.5 284.417 221.5 281.895 221.5 276.853V244.764Z" fill="#4F46E5"/>
<path d="M287.015 244.764C287.015 239.722 287.015 237.201 288.582 235.634C290.148 234.068 292.669 234.068 297.712 234.068H397.321C402.364 234.068 404.885 234.068 406.451 235.634C408.018 237.201 408.018 239.722 408.018 244.764C408.018 249.806 408.018 252.327 406.451 253.894C404.885 255.46 402.364 255.46 397.321 255.46H297.711C292.669 255.46 290.148 255.46 288.582 253.894C287.015 252.327 287.015 249.806 287.015 244.764Z" fill="#A6AAB3"/>
<path d="M287.015 271.505C287.015 266.463 287.015 263.941 288.582 262.375C290.148 260.809 292.669 260.809 297.712 260.809H450.803C455.846 260.809 458.367 260.809 459.933 262.375C461.5 263.941 461.5 266.463 461.5 271.505C461.5 276.547 461.5 279.068 459.933 280.635C458.367 282.201 455.846 282.201 450.803 282.201H297.712C292.669 282.201 290.148 282.201 288.582 280.635C287.015 279.068 287.015 276.547 287.015 271.505Z" fill="#A6AAB3"/>
<path d="M249.573 258.133C249.573 257.868 249.651 257.61 249.798 257.39C249.945 257.17 250.154 256.999 250.398 256.898C250.642 256.796 250.911 256.77 251.17 256.821C251.43 256.873 251.668 257 251.855 257.187C252.042 257.374 252.169 257.613 252.221 257.872C252.273 258.131 252.246 258.4 252.145 258.644C252.044 258.889 251.872 259.098 251.652 259.245C251.433 259.391 251.174 259.47 250.91 259.47C250.555 259.47 250.215 259.329 249.964 259.078C249.713 258.828 249.573 258.487 249.573 258.133ZM257.261 254.79V266.824C257.261 267.267 257.084 267.692 256.771 268.005C256.458 268.319 256.033 268.495 255.589 268.495H240.882C240.438 268.495 240.013 268.319 239.7 268.005C239.387 267.692 239.21 267.267 239.21 266.824V254.79C239.21 254.347 239.387 253.922 239.7 253.608C240.013 253.295 240.438 253.119 240.882 253.119H255.589C256.033 253.119 256.458 253.295 256.771 253.608C257.084 253.922 257.261 254.347 257.261 254.79ZM241.216 255.124V261.786L244.046 258.957C244.359 258.643 244.784 258.467 245.227 258.467C245.67 258.467 246.095 258.643 246.409 258.957L249.849 262.395L251.285 260.96C251.598 260.647 252.023 260.47 252.466 260.47C252.91 260.47 253.335 260.647 253.648 260.96L255.255 262.569V255.124H241.216ZM241.216 266.489H251.105L245.227 260.611L241.216 264.623V266.489ZM255.255 266.489V265.403L252.466 262.614L251.267 263.815L253.941 266.489H255.255Z" fill="#F6F6F8"/>
</svg>
