<svg width="506" height="298" viewBox="0 0 506 298" fill="none" xmlns="http://www.w3.org/2000/svg">
<path d="M396.722 46V44.4H399.938C400.504 44.4 400.941 44.224 401.25 43.872C401.56 43.52 401.714 43.1147 401.714 42.656C401.714 42.3467 401.645 42.0587 401.506 41.792C401.368 41.5253 401.165 41.312 400.898 41.152C400.632 40.992 400.312 40.912 399.938 40.912H396.722V39.312H399.666C400.146 39.312 400.53 39.1893 400.818 38.944C401.106 38.6987 401.25 38.336 401.25 37.856C401.25 37.376 401.106 37.0133 400.818 36.768C400.53 36.5227 400.146 36.4 399.666 36.4H396.722V34.8H399.714C400.472 34.8 401.101 34.9387 401.602 35.216C402.104 35.4933 402.477 35.8507 402.722 36.288C402.968 36.7253 403.09 37.1947 403.09 37.696C403.09 38.2827 402.925 38.8 402.594 39.248C402.274 39.696 401.8 40.0587 401.17 40.336L401.314 39.76C402.018 40.048 402.568 40.4533 402.962 40.976C403.357 41.4987 403.554 42.112 403.554 42.816C403.554 43.392 403.41 43.92 403.122 44.4C402.845 44.88 402.429 45.2693 401.874 45.568C401.33 45.856 400.658 46 399.858 46H396.722ZM395.458 46V34.8H397.298V46H395.458ZM408.323 46.16C407.673 46.16 407.091 46.016 406.579 45.728C406.078 45.44 405.683 45.0453 405.395 44.544C405.118 44.032 404.979 43.4453 404.979 42.784V38.32H406.739V42.704C406.739 43.0773 406.798 43.3973 406.915 43.664C407.043 43.92 407.225 44.1173 407.459 44.256C407.705 44.3947 407.993 44.464 408.323 44.464C408.835 44.464 409.225 44.3147 409.491 44.016C409.769 43.7067 409.907 43.2693 409.907 42.704V38.32H411.667V42.784C411.667 43.456 411.523 44.048 411.235 44.56C410.958 45.0613 410.569 45.456 410.067 45.744C409.566 46.0213 408.985 46.16 408.323 46.16ZM414.605 46V35.12H416.365V46H414.605ZM412.765 39.92V38.32H422.845V39.92H412.765ZM419.245 46V35.12H421.005V46H419.245ZM427.426 46.16C426.679 46.16 426.002 45.984 425.394 45.632C424.786 45.2693 424.3 44.784 423.938 44.176C423.586 43.568 423.41 42.8907 423.41 42.144C423.41 41.3973 423.586 40.7253 423.938 40.128C424.3 39.5307 424.786 39.056 425.394 38.704C426.002 38.3413 426.679 38.16 427.426 38.16C428.183 38.16 428.866 38.336 429.474 38.688C430.082 39.04 430.562 39.52 430.914 40.128C431.276 40.7253 431.458 41.3973 431.458 42.144C431.458 42.8907 431.276 43.568 430.914 44.176C430.562 44.784 430.082 45.2693 429.474 45.632C428.866 45.984 428.183 46.16 427.426 46.16ZM427.426 44.464C427.863 44.464 428.247 44.368 428.578 44.176C428.919 43.9733 429.18 43.696 429.362 43.344C429.554 42.992 429.65 42.592 429.65 42.144C429.65 41.696 429.554 41.3013 429.362 40.96C429.17 40.6187 428.908 40.352 428.578 40.16C428.247 39.9573 427.863 39.856 427.426 39.856C426.999 39.856 426.615 39.9573 426.274 40.16C425.943 40.352 425.682 40.6187 425.49 40.96C425.308 41.3013 425.218 41.696 425.218 42.144C425.218 42.592 425.308 42.992 425.49 43.344C425.682 43.696 425.943 43.9733 426.274 44.176C426.615 44.368 426.999 44.464 427.426 44.464ZM438.185 46V41.568C438.185 41.056 438.02 40.6347 437.689 40.304C437.369 39.9733 436.953 39.808 436.441 39.808C436.1 39.808 435.796 39.8827 435.529 40.032C435.263 40.1813 435.055 40.3893 434.905 40.656C434.756 40.9227 434.681 41.2267 434.681 41.568L433.993 41.184C433.993 40.5973 434.121 40.08 434.377 39.632C434.633 39.1733 434.985 38.816 435.433 38.56C435.892 38.2933 436.404 38.16 436.969 38.16C437.545 38.16 438.057 38.3093 438.505 38.608C438.953 38.896 439.305 39.2747 439.561 39.744C439.817 40.2027 439.945 40.6827 439.945 41.184V46H438.185ZM432.921 46V38.32H434.681V46H432.921Z" fill="#2A2C35"/>
<path fill-rule="evenodd" clip-rule="evenodd" d="M461.707 43.7071C461.317 44.0976 460.683 44.0976 460.293 43.7071L455.293 38.7071C454.902 38.3166 454.902 37.6834 455.293 37.2929C455.683 36.9024 456.317 36.9024 456.707 37.2929L461 41.5858L465.293 37.2929C465.683 36.9024 466.317 36.9024 466.707 37.2929C467.098 37.6834 467.098 38.3166 466.707 38.7071L461.707 43.7071Z" fill="#2A2C35"/>
<path d="M378 112C378 100.686 378 95.0294 381.515 91.5147C385.029 88 390.686 88 402 88H465C476.314 88 481.971 88 485.485 91.5147C489 95.0294 489 100.686 489 112V112C489 123.314 489 128.971 485.485 132.485C481.971 136 476.314 136 465 136H402C390.686 136 385.029 136 381.515 132.485C378 128.971 378 123.314 378 112V112Z" fill="#BCBFC5" fill-opacity="0.2"/>
<path d="M396.722 118V116.4H399.938C400.504 116.4 400.941 116.224 401.25 115.872C401.56 115.52 401.714 115.115 401.714 114.656C401.714 114.347 401.645 114.059 401.506 113.792C401.368 113.525 401.165 113.312 400.898 113.152C400.632 112.992 400.312 112.912 399.938 112.912H396.722V111.312H399.666C400.146 111.312 400.53 111.189 400.818 110.944C401.106 110.699 401.25 110.336 401.25 109.856C401.25 109.376 401.106 109.013 400.818 108.768C400.53 108.523 400.146 108.4 399.666 108.4H396.722V106.8H399.714C400.472 106.8 401.101 106.939 401.602 107.216C402.104 107.493 402.477 107.851 402.722 108.288C402.968 108.725 403.09 109.195 403.09 109.696C403.09 110.283 402.925 110.8 402.594 111.248C402.274 111.696 401.8 112.059 401.17 112.336L401.314 111.76C402.018 112.048 402.568 112.453 402.962 112.976C403.357 113.499 403.554 114.112 403.554 114.816C403.554 115.392 403.41 115.92 403.122 116.4C402.845 116.88 402.429 117.269 401.874 117.568C401.33 117.856 400.658 118 399.858 118H396.722ZM395.458 118V106.8H397.298V118H395.458ZM408.323 118.16C407.673 118.16 407.091 118.016 406.579 117.728C406.078 117.44 405.683 117.045 405.395 116.544C405.118 116.032 404.979 115.445 404.979 114.784V110.32H406.739V114.704C406.739 115.077 406.798 115.397 406.915 115.664C407.043 115.92 407.225 116.117 407.459 116.256C407.705 116.395 407.993 116.464 408.323 116.464C408.835 116.464 409.225 116.315 409.491 116.016C409.769 115.707 409.907 115.269 409.907 114.704V110.32H411.667V114.784C411.667 115.456 411.523 116.048 411.235 116.56C410.958 117.061 410.569 117.456 410.067 117.744C409.566 118.021 408.985 118.16 408.323 118.16ZM414.605 118V107.12H416.365V118H414.605ZM412.765 111.92V110.32H422.845V111.92H412.765ZM419.245 118V107.12H421.005V118H419.245ZM427.426 118.16C426.679 118.16 426.002 117.984 425.394 117.632C424.786 117.269 424.3 116.784 423.938 116.176C423.586 115.568 423.41 114.891 423.41 114.144C423.41 113.397 423.586 112.725 423.938 112.128C424.3 111.531 424.786 111.056 425.394 110.704C426.002 110.341 426.679 110.16 427.426 110.16C428.183 110.16 428.866 110.336 429.474 110.688C430.082 111.04 430.562 111.52 430.914 112.128C431.276 112.725 431.458 113.397 431.458 114.144C431.458 114.891 431.276 115.568 430.914 116.176C430.562 116.784 430.082 117.269 429.474 117.632C428.866 117.984 428.183 118.16 427.426 118.16ZM427.426 116.464C427.863 116.464 428.247 116.368 428.578 116.176C428.919 115.973 429.18 115.696 429.362 115.344C429.554 114.992 429.65 114.592 429.65 114.144C429.65 113.696 429.554 113.301 429.362 112.96C429.17 112.619 428.908 112.352 428.578 112.16C428.247 111.957 427.863 111.856 427.426 111.856C426.999 111.856 426.615 111.957 426.274 112.16C425.943 112.352 425.682 112.619 425.49 112.96C425.308 113.301 425.218 113.696 425.218 114.144C425.218 114.592 425.308 114.992 425.49 115.344C425.682 115.696 425.943 115.973 426.274 116.176C426.615 116.368 426.999 116.464 427.426 116.464ZM438.185 118V113.568C438.185 113.056 438.02 112.635 437.689 112.304C437.369 111.973 436.953 111.808 436.441 111.808C436.1 111.808 435.796 111.883 435.529 112.032C435.263 112.181 435.055 112.389 434.905 112.656C434.756 112.923 434.681 113.227 434.681 113.568L433.993 113.184C433.993 112.597 434.121 112.08 434.377 111.632C434.633 111.173 434.985 110.816 435.433 110.56C435.892 110.293 436.404 110.16 436.969 110.16C437.545 110.16 438.057 110.309 438.505 110.608C438.953 110.896 439.305 111.275 439.561 111.744C439.817 112.203 439.945 112.683 439.945 113.184V118H438.185ZM432.921 118V110.32H434.681V118H432.921Z" fill="#2A2C35"/>
<path fill-rule="evenodd" clip-rule="evenodd" d="M461.707 115.707C461.317 116.098 460.683 116.098 460.293 115.707L455.293 110.707C454.902 110.317 454.902 109.683 455.293 109.293C455.683 108.902 456.317 108.902 456.707 109.293L461 113.586L465.293 109.293C465.683 108.902 466.317 108.902 466.707 109.293C467.098 109.683 467.098 110.317 466.707 110.707L461.707 115.707Z" fill="#2A2C35"/>
<path d="M378 184C378 172.686 378 167.029 381.515 163.515C385.029 160 390.686 160 402 160H465C476.314 160 481.971 160 485.485 163.515C489 167.029 489 172.686 489 184V184C489 195.314 489 200.971 485.485 204.485C481.971 208 476.314 208 465 208H402C390.686 208 385.029 208 381.515 204.485C378 200.971 378 195.314 378 184V184Z" fill="white"/>
<path d="M396.722 190V188.4H399.938C400.504 188.4 400.941 188.224 401.25 187.872C401.56 187.52 401.714 187.115 401.714 186.656C401.714 186.347 401.645 186.059 401.506 185.792C401.368 185.525 401.165 185.312 400.898 185.152C400.632 184.992 400.312 184.912 399.938 184.912H396.722V183.312H399.666C400.146 183.312 400.53 183.189 400.818 182.944C401.106 182.699 401.25 182.336 401.25 181.856C401.25 181.376 401.106 181.013 400.818 180.768C400.53 180.523 400.146 180.4 399.666 180.4H396.722V178.8H399.714C400.472 178.8 401.101 178.939 401.602 179.216C402.104 179.493 402.477 179.851 402.722 180.288C402.968 180.725 403.09 181.195 403.09 181.696C403.09 182.283 402.925 182.8 402.594 183.248C402.274 183.696 401.8 184.059 401.17 184.336L401.314 183.76C402.018 184.048 402.568 184.453 402.962 184.976C403.357 185.499 403.554 186.112 403.554 186.816C403.554 187.392 403.41 187.92 403.122 188.4C402.845 188.88 402.429 189.269 401.874 189.568C401.33 189.856 400.658 190 399.858 190H396.722ZM395.458 190V178.8H397.298V190H395.458ZM408.323 190.16C407.673 190.16 407.091 190.016 406.579 189.728C406.078 189.44 405.683 189.045 405.395 188.544C405.118 188.032 404.979 187.445 404.979 186.784V182.32H406.739V186.704C406.739 187.077 406.798 187.397 406.915 187.664C407.043 187.92 407.225 188.117 407.459 188.256C407.705 188.395 407.993 188.464 408.323 188.464C408.835 188.464 409.225 188.315 409.491 188.016C409.769 187.707 409.907 187.269 409.907 186.704V182.32H411.667V186.784C411.667 187.456 411.523 188.048 411.235 188.56C410.958 189.061 410.569 189.456 410.067 189.744C409.566 190.021 408.985 190.16 408.323 190.16ZM414.605 190V179.12H416.365V190H414.605ZM412.765 183.92V182.32H422.845V183.92H412.765ZM419.245 190V179.12H421.005V190H419.245ZM427.426 190.16C426.679 190.16 426.002 189.984 425.394 189.632C424.786 189.269 424.3 188.784 423.938 188.176C423.586 187.568 423.41 186.891 423.41 186.144C423.41 185.397 423.586 184.725 423.938 184.128C424.3 183.531 424.786 183.056 425.394 182.704C426.002 182.341 426.679 182.16 427.426 182.16C428.183 182.16 428.866 182.336 429.474 182.688C430.082 183.04 430.562 183.52 430.914 184.128C431.276 184.725 431.458 185.397 431.458 186.144C431.458 186.891 431.276 187.568 430.914 188.176C430.562 188.784 430.082 189.269 429.474 189.632C428.866 189.984 428.183 190.16 427.426 190.16ZM427.426 188.464C427.863 188.464 428.247 188.368 428.578 188.176C428.919 187.973 429.18 187.696 429.362 187.344C429.554 186.992 429.65 186.592 429.65 186.144C429.65 185.696 429.554 185.301 429.362 184.96C429.17 184.619 428.908 184.352 428.578 184.16C428.247 183.957 427.863 183.856 427.426 183.856C426.999 183.856 426.615 183.957 426.274 184.16C425.943 184.352 425.682 184.619 425.49 184.96C425.308 185.301 425.218 185.696 425.218 186.144C425.218 186.592 425.308 186.992 425.49 187.344C425.682 187.696 425.943 187.973 426.274 188.176C426.615 188.368 426.999 188.464 427.426 188.464ZM438.185 190V185.568C438.185 185.056 438.02 184.635 437.689 184.304C437.369 183.973 436.953 183.808 436.441 183.808C436.1 183.808 435.796 183.883 435.529 184.032C435.263 184.181 435.055 184.389 434.905 184.656C434.756 184.923 434.681 185.227 434.681 185.568L433.993 185.184C433.993 184.597 434.121 184.08 434.377 183.632C434.633 183.173 434.985 182.816 435.433 182.56C435.892 182.293 436.404 182.16 436.969 182.16C437.545 182.16 438.057 182.309 438.505 182.608C438.953 182.896 439.305 183.275 439.561 183.744C439.817 184.203 439.945 184.683 439.945 185.184V190H438.185ZM432.921 190V182.32H434.681V190H432.921Z" fill="#2A2C35"/>
<path fill-rule="evenodd" clip-rule="evenodd" d="M461.707 187.707C461.317 188.098 460.683 188.098 460.293 187.707L455.293 182.707C454.902 182.317 454.902 181.683 455.293 181.293C455.683 180.902 456.317 180.902 456.707 181.293L461 185.586L465.293 181.293C465.683 180.902 466.317 180.902 466.707 181.293C467.098 181.683 467.098 182.317 466.707 182.707L461.707 187.707Z" fill="#2A2C35"/>
<path d="M467 156.5L470.98 156.507C474.735 156.527 477.824 156.611 480.367 156.953C483.801 157.415 486.463 158.372 488.546 160.454C490.628 162.537 491.585 165.199 492.047 168.633C492.503 172.024 492.5 176.386 492.5 182V186C492.5 191.614 492.503 195.976 492.047 199.367C491.585 202.801 490.628 205.463 488.546 207.546C486.463 209.628 483.801 210.585 480.367 211.047C476.976 211.503 472.614 211.5 467 211.5H400C394.386 211.5 390.024 211.503 386.633 211.047C383.199 210.585 380.537 209.628 378.454 207.546C376.372 205.463 375.415 202.801 374.953 199.367C374.497 195.976 374.5 191.614 374.5 186V182C374.5 176.386 374.497 172.024 374.953 168.633C375.415 165.199 376.372 162.537 378.454 160.454C380.537 158.372 383.199 157.415 386.633 156.953C390.024 156.497 394.386 156.5 400 156.5H467Z" stroke="#4F46E5" stroke-width="3"/>
<g opacity="0.6">
<path d="M396.722 264V262.4H399.938C400.504 262.4 400.941 262.224 401.25 261.872C401.56 261.52 401.714 261.115 401.714 260.656C401.714 260.347 401.645 260.059 401.506 259.792C401.368 259.525 401.165 259.312 400.898 259.152C400.632 258.992 400.312 258.912 399.938 258.912H396.722V257.312H399.666C400.146 257.312 400.53 257.189 400.818 256.944C401.106 256.699 401.25 256.336 401.25 255.856C401.25 255.376 401.106 255.013 400.818 254.768C400.53 254.523 400.146 254.4 399.666 254.4H396.722V252.8H399.714C400.472 252.8 401.101 252.939 401.602 253.216C402.104 253.493 402.477 253.851 402.722 254.288C402.968 254.725 403.09 255.195 403.09 255.696C403.09 256.283 402.925 256.8 402.594 257.248C402.274 257.696 401.8 258.059 401.17 258.336L401.314 257.76C402.018 258.048 402.568 258.453 402.962 258.976C403.357 259.499 403.554 260.112 403.554 260.816C403.554 261.392 403.41 261.92 403.122 262.4C402.845 262.88 402.429 263.269 401.874 263.568C401.33 263.856 400.658 264 399.858 264H396.722ZM395.458 264V252.8H397.298V264H395.458ZM408.323 264.16C407.673 264.16 407.091 264.016 406.579 263.728C406.078 263.44 405.683 263.045 405.395 262.544C405.118 262.032 404.979 261.445 404.979 260.784V256.32H406.739V260.704C406.739 261.077 406.798 261.397 406.915 261.664C407.043 261.92 407.225 262.117 407.459 262.256C407.705 262.395 407.993 262.464 408.323 262.464C408.835 262.464 409.225 262.315 409.491 262.016C409.769 261.707 409.907 261.269 409.907 260.704V256.32H411.667V260.784C411.667 261.456 411.523 262.048 411.235 262.56C410.958 263.061 410.569 263.456 410.067 263.744C409.566 264.021 408.985 264.16 408.323 264.16ZM414.605 264V253.12H416.365V264H414.605ZM412.765 257.92V256.32H422.845V257.92H412.765ZM419.245 264V253.12H421.005V264H419.245ZM427.426 264.16C426.679 264.16 426.002 263.984 425.394 263.632C424.786 263.269 424.3 262.784 423.938 262.176C423.586 261.568 423.41 260.891 423.41 260.144C423.41 259.397 423.586 258.725 423.938 258.128C424.3 257.531 424.786 257.056 425.394 256.704C426.002 256.341 426.679 256.16 427.426 256.16C428.183 256.16 428.866 256.336 429.474 256.688C430.082 257.04 430.562 257.52 430.914 258.128C431.276 258.725 431.458 259.397 431.458 260.144C431.458 260.891 431.276 261.568 430.914 262.176C430.562 262.784 430.082 263.269 429.474 263.632C428.866 263.984 428.183 264.16 427.426 264.16ZM427.426 262.464C427.863 262.464 428.247 262.368 428.578 262.176C428.919 261.973 429.18 261.696 429.362 261.344C429.554 260.992 429.65 260.592 429.65 260.144C429.65 259.696 429.554 259.301 429.362 258.96C429.17 258.619 428.908 258.352 428.578 258.16C428.247 257.957 427.863 257.856 427.426 257.856C426.999 257.856 426.615 257.957 426.274 258.16C425.943 258.352 425.682 258.619 425.49 258.96C425.308 259.301 425.218 259.696 425.218 260.144C425.218 260.592 425.308 260.992 425.49 261.344C425.682 261.696 425.943 261.973 426.274 262.176C426.615 262.368 426.999 262.464 427.426 262.464ZM438.185 264V259.568C438.185 259.056 438.02 258.635 437.689 258.304C437.369 257.973 436.953 257.808 436.441 257.808C436.1 257.808 435.796 257.883 435.529 258.032C435.263 258.181 435.055 258.389 434.905 258.656C434.756 258.923 434.681 259.227 434.681 259.568L433.993 259.184C433.993 258.597 434.121 258.08 434.377 257.632C434.633 257.173 434.985 256.816 435.433 256.56C435.892 256.293 436.404 256.16 436.969 256.16C437.545 256.16 438.057 256.309 438.505 256.608C438.953 256.896 439.305 257.275 439.561 257.744C439.817 258.203 439.945 258.683 439.945 259.184V264H438.185ZM432.921 264V256.32H434.681V264H432.921Z" fill="#2A2C35"/>
<path fill-rule="evenodd" clip-rule="evenodd" d="M461.707 261.707C461.317 262.098 460.683 262.098 460.293 261.707L455.293 256.707C454.902 256.317 454.902 255.683 455.293 255.293C455.683 254.902 456.317 254.902 456.707 255.293L461 259.586L465.293 255.293C465.683 254.902 466.317 254.902 466.707 255.293C467.098 255.683 467.098 256.317 466.707 256.707L461.707 261.707Z" fill="#2A2C35"/>
</g>
<path d="M17 40C17 28.6863 17 23.0294 20.5147 19.5147C24.0294 16 29.6863 16 41 16H104C115.314 16 120.971 16 124.485 19.5147C128 23.0294 128 28.6863 128 40V40C128 51.3137 128 56.9706 124.485 60.4853C120.971 64 115.314 64 104 64H41C29.6863 64 24.0294 64 20.5147 60.4853C17 56.9706 17 51.3137 17 40V40Z" fill="#4F46E5"/>
<path d="M35.7222 46V44.4H38.9382C39.5035 44.4 39.9409 44.224 40.2502 43.872C40.5595 43.52 40.7142 43.1147 40.7142 42.656C40.7142 42.3467 40.6449 42.0587 40.5062 41.792C40.3675 41.5253 40.1649 41.312 39.8982 41.152C39.6315 40.992 39.3115 40.912 38.9382 40.912H35.7222V39.312H38.6662C39.1462 39.312 39.5302 39.1893 39.8182 38.944C40.1062 38.6987 40.2502 38.336 40.2502 37.856C40.2502 37.376 40.1062 37.0133 39.8182 36.768C39.5302 36.5227 39.1462 36.4 38.6662 36.4H35.7222V34.8H38.7142C39.4715 34.8 40.1009 34.9387 40.6022 35.216C41.1035 35.4933 41.4769 35.8507 41.7222 36.288C41.9675 36.7253 42.0902 37.1947 42.0902 37.696C42.0902 38.2827 41.9249 38.8 41.5942 39.248C41.2742 39.696 40.7995 40.0587 40.1702 40.336L40.3142 39.76C41.0182 40.048 41.5675 40.4533 41.9622 40.976C42.3569 41.4987 42.5542 42.112 42.5542 42.816C42.5542 43.392 42.4102 43.92 42.1222 44.4C41.8449 44.88 41.4289 45.2693 40.8742 45.568C40.3302 45.856 39.6582 46 38.8582 46H35.7222ZM34.4582 46V34.8H36.2982V46H34.4582ZM47.3233 46.16C46.6726 46.16 46.0913 46.016 45.5793 45.728C45.078 45.44 44.6833 45.0453 44.3953 44.544C44.118 44.032 43.9793 43.4453 43.9793 42.784V38.32H45.7393V42.704C45.7393 43.0773 45.798 43.3973 45.9153 43.664C46.0433 43.92 46.2246 44.1173 46.4593 44.256C46.7046 44.3947 46.9926 44.464 47.3233 44.464C47.8353 44.464 48.2246 44.3147 48.4913 44.016C48.7686 43.7067 48.9073 43.2693 48.9073 42.704V38.32H50.6673V42.784C50.6673 43.456 50.5233 44.048 50.2353 44.56C49.958 45.0613 49.5686 45.456 49.0673 45.744C48.566 46.0213 47.9846 46.16 47.3233 46.16ZM53.6049 46V35.12H55.3649V46H53.6049ZM51.7649 39.92V38.32H61.8449V39.92H51.7649ZM58.2449 46V35.12H60.0049V46H58.2449ZM66.4257 46.16C65.679 46.16 65.0017 45.984 64.3937 45.632C63.7857 45.2693 63.3004 44.784 62.9377 44.176C62.5857 43.568 62.4097 42.8907 62.4097 42.144C62.4097 41.3973 62.5857 40.7253 62.9377 40.128C63.3004 39.5307 63.7857 39.056 64.3937 38.704C65.0017 38.3413 65.679 38.16 66.4257 38.16C67.183 38.16 67.8657 38.336 68.4737 38.688C69.0817 39.04 69.5617 39.52 69.9137 40.128C70.2764 40.7253 70.4577 41.3973 70.4577 42.144C70.4577 42.8907 70.2764 43.568 69.9137 44.176C69.5617 44.784 69.0817 45.2693 68.4737 45.632C67.8657 45.984 67.183 46.16 66.4257 46.16ZM66.4257 44.464C66.863 44.464 67.247 44.368 67.5777 44.176C67.919 43.9733 68.1804 43.696 68.3617 43.344C68.5537 42.992 68.6497 42.592 68.6497 42.144C68.6497 41.696 68.5537 41.3013 68.3617 40.96C68.1697 40.6187 67.9084 40.352 67.5777 40.16C67.247 39.9573 66.863 39.856 66.4257 39.856C65.999 39.856 65.615 39.9573 65.2737 40.16C64.943 40.352 64.6817 40.6187 64.4897 40.96C64.3084 41.3013 64.2177 41.696 64.2177 42.144C64.2177 42.592 64.3084 42.992 64.4897 43.344C64.6817 43.696 64.943 43.9733 65.2737 44.176C65.615 44.368 65.999 44.464 66.4257 44.464ZM77.1853 46V41.568C77.1853 41.056 77.02 40.6347 76.6893 40.304C76.3693 39.9733 75.9533 39.808 75.4413 39.808C75.1 39.808 74.796 39.8827 74.5293 40.032C74.2626 40.1813 74.0546 40.3893 73.9053 40.656C73.756 40.9227 73.6813 41.2267 73.6813 41.568L72.9933 41.184C72.9933 40.5973 73.1213 40.08 73.3773 39.632C73.6333 39.1733 73.9853 38.816 74.4333 38.56C74.892 38.2933 75.404 38.16 75.9693 38.16C76.5453 38.16 77.0573 38.3093 77.5053 38.608C77.9533 38.896 78.3053 39.2747 78.5613 39.744C78.8173 40.2027 78.9453 40.6827 78.9453 41.184V46H77.1853ZM71.9213 46V38.32H73.6813V46H71.9213Z" fill="white"/>
<path fill-rule="evenodd" clip-rule="evenodd" d="M100.707 43.7071C100.317 44.0976 99.6834 44.0976 99.2929 43.7071L94.2929 38.7071C93.9024 38.3166 93.9024 37.6834 94.2929 37.2929C94.6834 36.9024 95.3166 36.9024 95.7071 37.2929L100 41.5858L104.293 37.2929C104.683 36.9024 105.317 36.9024 105.707 37.2929C106.098 37.6834 106.098 38.3166 105.707 38.7071L100.707 43.7071Z" fill="white"/>
<path d="M17 112C17 100.686 17 95.0294 20.5147 91.5147C24.0294 88 29.6863 88 41 88H104C115.314 88 120.971 88 124.485 91.5147C128 95.0294 128 100.686 128 112V112C128 123.314 128 128.971 124.485 132.485C120.971 136 115.314 136 104 136H41C29.6863 136 24.0294 136 20.5147 132.485C17 128.971 17 123.314 17 112V112Z" fill="#4F46E5"/>
<path d="M17 112C17 100.686 17 95.0294 20.5147 91.5147C24.0294 88 29.6863 88 41 88H104C115.314 88 120.971 88 124.485 91.5147C128 95.0294 128 100.686 128 112V112C128 123.314 128 128.971 124.485 132.485C120.971 136 115.314 136 104 136H41C29.6863 136 24.0294 136 20.5147 132.485C17 128.971 17 123.314 17 112V112Z" fill="#BCBFC5" fill-opacity="0.2"/>
<path d="M35.7222 118V116.4H38.9382C39.5035 116.4 39.9409 116.224 40.2502 115.872C40.5595 115.52 40.7142 115.115 40.7142 114.656C40.7142 114.347 40.6449 114.059 40.5062 113.792C40.3675 113.525 40.1649 113.312 39.8982 113.152C39.6315 112.992 39.3115 112.912 38.9382 112.912H35.7222V111.312H38.6662C39.1462 111.312 39.5302 111.189 39.8182 110.944C40.1062 110.699 40.2502 110.336 40.2502 109.856C40.2502 109.376 40.1062 109.013 39.8182 108.768C39.5302 108.523 39.1462 108.4 38.6662 108.4H35.7222V106.8H38.7142C39.4715 106.8 40.1009 106.939 40.6022 107.216C41.1035 107.493 41.4769 107.851 41.7222 108.288C41.9675 108.725 42.0902 109.195 42.0902 109.696C42.0902 110.283 41.9249 110.8 41.5942 111.248C41.2742 111.696 40.7995 112.059 40.1702 112.336L40.3142 111.76C41.0182 112.048 41.5675 112.453 41.9622 112.976C42.3569 113.499 42.5542 114.112 42.5542 114.816C42.5542 115.392 42.4102 115.92 42.1222 116.4C41.8449 116.88 41.4289 117.269 40.8742 117.568C40.3302 117.856 39.6582 118 38.8582 118H35.7222ZM34.4582 118V106.8H36.2982V118H34.4582ZM47.3233 118.16C46.6726 118.16 46.0913 118.016 45.5793 117.728C45.078 117.44 44.6833 117.045 44.3953 116.544C44.118 116.032 43.9793 115.445 43.9793 114.784V110.32H45.7393V114.704C45.7393 115.077 45.798 115.397 45.9153 115.664C46.0433 115.92 46.2246 116.117 46.4593 116.256C46.7046 116.395 46.9926 116.464 47.3233 116.464C47.8353 116.464 48.2246 116.315 48.4913 116.016C48.7686 115.707 48.9073 115.269 48.9073 114.704V110.32H50.6673V114.784C50.6673 115.456 50.5233 116.048 50.2353 116.56C49.958 117.061 49.5686 117.456 49.0673 117.744C48.566 118.021 47.9846 118.16 47.3233 118.16ZM53.6049 118V107.12H55.3649V118H53.6049ZM51.7649 111.92V110.32H61.8449V111.92H51.7649ZM58.2449 118V107.12H60.0049V118H58.2449ZM66.4257 118.16C65.679 118.16 65.0017 117.984 64.3937 117.632C63.7857 117.269 63.3004 116.784 62.9377 116.176C62.5857 115.568 62.4097 114.891 62.4097 114.144C62.4097 113.397 62.5857 112.725 62.9377 112.128C63.3004 111.531 63.7857 111.056 64.3937 110.704C65.0017 110.341 65.679 110.16 66.4257 110.16C67.183 110.16 67.8657 110.336 68.4737 110.688C69.0817 111.04 69.5617 111.52 69.9137 112.128C70.2764 112.725 70.4577 113.397 70.4577 114.144C70.4577 114.891 70.2764 115.568 69.9137 116.176C69.5617 116.784 69.0817 117.269 68.4737 117.632C67.8657 117.984 67.183 118.16 66.4257 118.16ZM66.4257 116.464C66.863 116.464 67.247 116.368 67.5777 116.176C67.919 115.973 68.1804 115.696 68.3617 115.344C68.5537 114.992 68.6497 114.592 68.6497 114.144C68.6497 113.696 68.5537 113.301 68.3617 112.96C68.1697 112.619 67.9084 112.352 67.5777 112.16C67.247 111.957 66.863 111.856 66.4257 111.856C65.999 111.856 65.615 111.957 65.2737 112.16C64.943 112.352 64.6817 112.619 64.4897 112.96C64.3084 113.301 64.2177 113.696 64.2177 114.144C64.2177 114.592 64.3084 114.992 64.4897 115.344C64.6817 115.696 64.943 115.973 65.2737 116.176C65.615 116.368 65.999 116.464 66.4257 116.464ZM77.1853 118V113.568C77.1853 113.056 77.02 112.635 76.6893 112.304C76.3693 111.973 75.9533 111.808 75.4413 111.808C75.1 111.808 74.796 111.883 74.5293 112.032C74.2626 112.181 74.0546 112.389 73.9053 112.656C73.756 112.923 73.6813 113.227 73.6813 113.568L72.9933 113.184C72.9933 112.597 73.1213 112.08 73.3773 111.632C73.6333 111.173 73.9853 110.816 74.4333 110.56C74.892 110.293 75.404 110.16 75.9693 110.16C76.5453 110.16 77.0573 110.309 77.5053 110.608C77.9533 110.896 78.3053 111.275 78.5613 111.744C78.8173 112.203 78.9453 112.683 78.9453 113.184V118H77.1853ZM71.9213 118V110.32H73.6813V118H71.9213Z" fill="white"/>
<path fill-rule="evenodd" clip-rule="evenodd" d="M100.707 115.707C100.317 116.098 99.6834 116.098 99.2929 115.707L94.2929 110.707C93.9024 110.317 93.9024 109.683 94.2929 109.293C94.6834 108.902 95.3166 108.902 95.7071 109.293L100 113.586L104.293 109.293C104.683 108.902 105.317 108.902 105.707 109.293C106.098 109.683 106.098 110.317 105.707 110.707L100.707 115.707Z" fill="white"/>
<path d="M17 184C17 172.686 17 167.029 20.5147 163.515C24.0294 160 29.6863 160 41 160H104C115.314 160 120.971 160 124.485 163.515C128 167.029 128 172.686 128 184V184C128 195.314 128 200.971 124.485 204.485C120.971 208 115.314 208 104 208H41C29.6863 208 24.0294 208 20.5147 204.485C17 200.971 17 195.314 17 184V184Z" fill="#4F46E5"/>
<path d="M35.7222 190V188.4H38.9382C39.5035 188.4 39.9409 188.224 40.2502 187.872C40.5595 187.52 40.7142 187.115 40.7142 186.656C40.7142 186.347 40.6449 186.059 40.5062 185.792C40.3675 185.525 40.1649 185.312 39.8982 185.152C39.6315 184.992 39.3115 184.912 38.9382 184.912H35.7222V183.312H38.6662C39.1462 183.312 39.5302 183.189 39.8182 182.944C40.1062 182.699 40.2502 182.336 40.2502 181.856C40.2502 181.376 40.1062 181.013 39.8182 180.768C39.5302 180.523 39.1462 180.4 38.6662 180.4H35.7222V178.8H38.7142C39.4715 178.8 40.1009 178.939 40.6022 179.216C41.1035 179.493 41.4769 179.851 41.7222 180.288C41.9675 180.725 42.0902 181.195 42.0902 181.696C42.0902 182.283 41.9249 182.8 41.5942 183.248C41.2742 183.696 40.7995 184.059 40.1702 184.336L40.3142 183.76C41.0182 184.048 41.5675 184.453 41.9622 184.976C42.3569 185.499 42.5542 186.112 42.5542 186.816C42.5542 187.392 42.4102 187.92 42.1222 188.4C41.8449 188.88 41.4289 189.269 40.8742 189.568C40.3302 189.856 39.6582 190 38.8582 190H35.7222ZM34.4582 190V178.8H36.2982V190H34.4582ZM47.3233 190.16C46.6726 190.16 46.0913 190.016 45.5793 189.728C45.078 189.44 44.6833 189.045 44.3953 188.544C44.118 188.032 43.9793 187.445 43.9793 186.784V182.32H45.7393V186.704C45.7393 187.077 45.798 187.397 45.9153 187.664C46.0433 187.92 46.2246 188.117 46.4593 188.256C46.7046 188.395 46.9926 188.464 47.3233 188.464C47.8353 188.464 48.2246 188.315 48.4913 188.016C48.7686 187.707 48.9073 187.269 48.9073 186.704V182.32H50.6673V186.784C50.6673 187.456 50.5233 188.048 50.2353 188.56C49.958 189.061 49.5686 189.456 49.0673 189.744C48.566 190.021 47.9846 190.16 47.3233 190.16ZM53.6049 190V179.12H55.3649V190H53.6049ZM51.7649 183.92V182.32H61.8449V183.92H51.7649ZM58.2449 190V179.12H60.0049V190H58.2449ZM66.4257 190.16C65.679 190.16 65.0017 189.984 64.3937 189.632C63.7857 189.269 63.3004 188.784 62.9377 188.176C62.5857 187.568 62.4097 186.891 62.4097 186.144C62.4097 185.397 62.5857 184.725 62.9377 184.128C63.3004 183.531 63.7857 183.056 64.3937 182.704C65.0017 182.341 65.679 182.16 66.4257 182.16C67.183 182.16 67.8657 182.336 68.4737 182.688C69.0817 183.04 69.5617 183.52 69.9137 184.128C70.2764 184.725 70.4577 185.397 70.4577 186.144C70.4577 186.891 70.2764 187.568 69.9137 188.176C69.5617 188.784 69.0817 189.269 68.4737 189.632C67.8657 189.984 67.183 190.16 66.4257 190.16ZM66.4257 188.464C66.863 188.464 67.247 188.368 67.5777 188.176C67.919 187.973 68.1804 187.696 68.3617 187.344C68.5537 186.992 68.6497 186.592 68.6497 186.144C68.6497 185.696 68.5537 185.301 68.3617 184.96C68.1697 184.619 67.9084 184.352 67.5777 184.16C67.247 183.957 66.863 183.856 66.4257 183.856C65.999 183.856 65.615 183.957 65.2737 184.16C64.943 184.352 64.6817 184.619 64.4897 184.96C64.3084 185.301 64.2177 185.696 64.2177 186.144C64.2177 186.592 64.3084 186.992 64.4897 187.344C64.6817 187.696 64.943 187.973 65.2737 188.176C65.615 188.368 65.999 188.464 66.4257 188.464ZM77.1853 190V185.568C77.1853 185.056 77.02 184.635 76.6893 184.304C76.3693 183.973 75.9533 183.808 75.4413 183.808C75.1 183.808 74.796 183.883 74.5293 184.032C74.2626 184.181 74.0546 184.389 73.9053 184.656C73.756 184.923 73.6813 185.227 73.6813 185.568L72.9933 185.184C72.9933 184.597 73.1213 184.08 73.3773 183.632C73.6333 183.173 73.9853 182.816 74.4333 182.56C74.892 182.293 75.404 182.16 75.9693 182.16C76.5453 182.16 77.0573 182.309 77.5053 182.608C77.9533 182.896 78.3053 183.275 78.5613 183.744C78.8173 184.203 78.9453 184.683 78.9453 185.184V190H77.1853ZM71.9213 190V182.32H73.6813V190H71.9213Z" fill="white"/>
<path fill-rule="evenodd" clip-rule="evenodd" d="M100.707 187.707C100.317 188.098 99.6834 188.098 99.2929 187.707L94.2929 182.707C93.9024 182.317 93.9024 181.683 94.2929 181.293C94.6834 180.902 95.3166 180.902 95.7071 181.293L100 185.586L104.293 181.293C104.683 180.902 105.317 180.902 105.707 181.293C106.098 181.683 106.098 182.317 105.707 182.707L100.707 187.707Z" fill="white"/>
<path d="M106 156.5L109.98 156.507C113.735 156.527 116.824 156.611 119.367 156.953C122.801 157.415 125.463 158.372 127.546 160.454C129.628 162.537 130.585 165.199 131.047 168.633C131.503 172.024 131.5 176.386 131.5 182V186C131.5 191.614 131.503 195.976 131.047 199.367C130.585 202.801 129.628 205.463 127.546 207.546C125.463 209.628 122.801 210.585 119.367 211.047C115.976 211.503 111.614 211.5 106 211.5H39C33.3856 211.5 29.0238 211.503 25.6328 211.047C22.1988 210.585 19.5366 209.628 17.4541 207.546C15.3716 205.463 14.4148 202.801 13.9531 199.367C13.4972 195.976 13.5 191.614 13.5 186V182C13.5 176.386 13.4972 172.024 13.9531 168.633C14.4148 165.199 15.3716 162.537 17.4541 160.454C19.5366 158.372 22.1988 157.415 25.6328 156.953C29.0238 156.497 33.3856 156.5 39 156.5H106Z" stroke="#4F46E5" stroke-width="3"/>
<g opacity="0.6">
<path d="M17 258C17 246.686 17 241.029 20.5147 237.515C24.0294 234 29.6863 234 41 234H104C115.314 234 120.971 234 124.485 237.515C128 241.029 128 246.686 128 258V258C128 269.314 128 274.971 124.485 278.485C120.971 282 115.314 282 104 282H41C29.6863 282 24.0294 282 20.5147 278.485C17 274.971 17 269.314 17 258V258Z" fill="#4F46E5"/>
<path d="M35.7222 264V262.4H38.9382C39.5035 262.4 39.9409 262.224 40.2502 261.872C40.5595 261.52 40.7142 261.115 40.7142 260.656C40.7142 260.347 40.6449 260.059 40.5062 259.792C40.3675 259.525 40.1649 259.312 39.8982 259.152C39.6315 258.992 39.3115 258.912 38.9382 258.912H35.7222V257.312H38.6662C39.1462 257.312 39.5302 257.189 39.8182 256.944C40.1062 256.699 40.2502 256.336 40.2502 255.856C40.2502 255.376 40.1062 255.013 39.8182 254.768C39.5302 254.523 39.1462 254.4 38.6662 254.4H35.7222V252.8H38.7142C39.4715 252.8 40.1009 252.939 40.6022 253.216C41.1035 253.493 41.4769 253.851 41.7222 254.288C41.9675 254.725 42.0902 255.195 42.0902 255.696C42.0902 256.283 41.9249 256.8 41.5942 257.248C41.2742 257.696 40.7995 258.059 40.1702 258.336L40.3142 257.76C41.0182 258.048 41.5675 258.453 41.9622 258.976C42.3569 259.499 42.5542 260.112 42.5542 260.816C42.5542 261.392 42.4102 261.92 42.1222 262.4C41.8449 262.88 41.4289 263.269 40.8742 263.568C40.3302 263.856 39.6582 264 38.8582 264H35.7222ZM34.4582 264V252.8H36.2982V264H34.4582ZM47.3233 264.16C46.6726 264.16 46.0913 264.016 45.5793 263.728C45.078 263.44 44.6833 263.045 44.3953 262.544C44.118 262.032 43.9793 261.445 43.9793 260.784V256.32H45.7393V260.704C45.7393 261.077 45.798 261.397 45.9153 261.664C46.0433 261.92 46.2246 262.117 46.4593 262.256C46.7046 262.395 46.9926 262.464 47.3233 262.464C47.8353 262.464 48.2246 262.315 48.4913 262.016C48.7686 261.707 48.9073 261.269 48.9073 260.704V256.32H50.6673V260.784C50.6673 261.456 50.5233 262.048 50.2353 262.56C49.958 263.061 49.5686 263.456 49.0673 263.744C48.566 264.021 47.9846 264.16 47.3233 264.16ZM53.6049 264V253.12H55.3649V264H53.6049ZM51.7649 257.92V256.32H61.8449V257.92H51.7649ZM58.2449 264V253.12H60.0049V264H58.2449ZM66.4257 264.16C65.679 264.16 65.0017 263.984 64.3937 263.632C63.7857 263.269 63.3004 262.784 62.9377 262.176C62.5857 261.568 62.4097 260.891 62.4097 260.144C62.4097 259.397 62.5857 258.725 62.9377 258.128C63.3004 257.531 63.7857 257.056 64.3937 256.704C65.0017 256.341 65.679 256.16 66.4257 256.16C67.183 256.16 67.8657 256.336 68.4737 256.688C69.0817 257.04 69.5617 257.52 69.9137 258.128C70.2764 258.725 70.4577 259.397 70.4577 260.144C70.4577 260.891 70.2764 261.568 69.9137 262.176C69.5617 262.784 69.0817 263.269 68.4737 263.632C67.8657 263.984 67.183 264.16 66.4257 264.16ZM66.4257 262.464C66.863 262.464 67.247 262.368 67.5777 262.176C67.919 261.973 68.1804 261.696 68.3617 261.344C68.5537 260.992 68.6497 260.592 68.6497 260.144C68.6497 259.696 68.5537 259.301 68.3617 258.96C68.1697 258.619 67.9084 258.352 67.5777 258.16C67.247 257.957 66.863 257.856 66.4257 257.856C65.999 257.856 65.615 257.957 65.2737 258.16C64.943 258.352 64.6817 258.619 64.4897 258.96C64.3084 259.301 64.2177 259.696 64.2177 260.144C64.2177 260.592 64.3084 260.992 64.4897 261.344C64.6817 261.696 64.943 261.973 65.2737 262.176C65.615 262.368 65.999 262.464 66.4257 262.464ZM77.1853 264V259.568C77.1853 259.056 77.02 258.635 76.6893 258.304C76.3693 257.973 75.9533 257.808 75.4413 257.808C75.1 257.808 74.796 257.883 74.5293 258.032C74.2626 258.181 74.0546 258.389 73.9053 258.656C73.756 258.923 73.6813 259.227 73.6813 259.568L72.9933 259.184C72.9933 258.597 73.1213 258.08 73.3773 257.632C73.6333 257.173 73.9853 256.816 74.4333 256.56C74.892 256.293 75.404 256.16 75.9693 256.16C76.5453 256.16 77.0573 256.309 77.5053 256.608C77.9533 256.896 78.3053 257.275 78.5613 257.744C78.8173 258.203 78.9453 258.683 78.9453 259.184V264H77.1853ZM71.9213 264V256.32H73.6813V264H71.9213Z" fill="white"/>
<path fill-rule="evenodd" clip-rule="evenodd" d="M100.707 261.707C100.317 262.098 99.6834 262.098 99.2929 261.707L94.2929 256.707C93.9024 256.317 93.9024 255.683 94.2929 255.293C94.6834 254.902 95.3166 254.902 95.7071 255.293L100 259.586L104.293 255.293C104.683 254.902 105.317 254.902 105.707 255.293C106.098 255.683 106.098 256.317 105.707 256.707L100.707 261.707Z" fill="white"/>
</g>
<path d="M167 73C167 61.6863 167 56.0294 170.515 52.5147C174.029 49 179.686 49 191 49H315C326.314 49 331.971 49 335.485 52.5147C339 56.0294 339 61.6863 339 73V73C339 84.3137 339 89.9706 335.485 93.4853C331.971 97 326.314 97 315 97H191C179.686 97 174.029 97 170.515 93.4853C167 89.9706 167 84.3137 167 73V73Z" fill="#4F46E5"/>
<path d="M167 73C167 61.6863 167 56.0294 170.515 52.5147C174.029 49 179.686 49 191 49H315C326.314 49 331.971 49 335.485 52.5147C339 56.0294 339 61.6863 339 73V73C339 84.3137 339 89.9706 335.485 93.4853C331.971 97 326.314 97 315 97H191C179.686 97 174.029 97 170.515 93.4853C167 89.9706 167 84.3137 167 73V73Z" fill="#444546" fill-opacity="0.2"/>
<path d="M205.781 70.0047C205.667 69.6553 205.453 69.3471 205.166 69.1184C204.878 68.8898 204.529 68.7507 204.163 68.7184L198.82 68.2563L196.729 63.2744C196.585 62.9356 196.345 62.6466 196.038 62.4435C195.731 62.2403 195.371 62.132 195.003 62.132C194.635 62.132 194.275 62.2403 193.968 62.4435C193.661 62.6466 193.421 62.9356 193.277 63.2744L191.184 68.2563L185.84 68.7184C185.472 68.7489 185.121 68.8874 184.831 69.1166C184.542 69.3457 184.326 69.6553 184.212 70.0065C184.097 70.3577 184.089 70.7348 184.189 71.0906C184.288 71.4463 184.49 71.7649 184.769 72.0063L188.831 75.55L187.612 80.8225C187.528 81.1815 187.552 81.5572 187.681 81.9026C187.81 82.248 188.038 82.5478 188.336 82.7645C188.634 82.9812 188.989 83.1052 189.358 83.1209C189.726 83.1367 190.091 83.0435 190.406 82.8531L195 80.0631L199.594 82.8531C199.91 83.0432 200.274 83.1361 200.642 83.1202C201.01 83.1043 201.366 82.9803 201.664 82.7637C201.962 82.547 202.189 82.2474 202.318 81.9021C202.447 81.5569 202.471 81.1814 202.388 80.8225L201.169 75.55L205.23 72.0063C205.509 71.764 205.71 71.4448 205.808 71.0887C205.906 70.7326 205.897 70.3555 205.781 70.0047ZM199.524 74.0003C199.267 74.224 199.075 74.5135 198.97 74.8378C198.865 75.162 198.851 75.5087 198.928 75.8406L199.996 80.4644L195.971 78.0194C195.678 77.8414 195.343 77.7472 195 77.7472C194.658 77.7472 194.322 77.8414 194.03 78.0194L190.004 80.4644L191.072 75.8406C191.149 75.5087 191.135 75.162 191.03 74.8378C190.925 74.5135 190.734 74.224 190.477 74.0003L186.906 70.885L191.606 70.4781C191.947 70.449 192.273 70.327 192.549 70.1255C192.825 69.924 193.04 69.6507 193.171 69.3353L195 64.9769L196.829 69.3353C196.961 69.6507 197.176 69.924 197.452 70.1255C197.728 70.327 198.054 70.449 198.394 70.4781L203.095 70.885L199.524 74.0003Z" fill="#F6F6F8"/>
<path d="M217.777 79V77.32H220.721C221.489 77.32 222.161 77.1547 222.737 76.824C223.324 76.4933 223.777 76.0347 224.097 75.448C224.428 74.8507 224.593 74.1627 224.593 73.384C224.593 72.616 224.428 71.9387 224.097 71.352C223.766 70.7653 223.308 70.3067 222.721 69.976C222.145 69.6453 221.478 69.48 220.721 69.48H217.777V67.8H220.769C221.58 67.8 222.332 67.944 223.025 68.232C223.718 68.5093 224.321 68.904 224.833 69.416C225.356 69.9173 225.761 70.5093 226.049 71.192C226.337 71.864 226.481 72.6 226.481 73.4C226.481 74.1893 226.337 74.9253 226.049 75.608C225.761 76.2907 225.361 76.888 224.849 77.4C224.337 77.9013 223.734 78.296 223.041 78.584C222.348 78.8613 221.601 79 220.801 79H217.777ZM216.513 79V67.8H218.353V79H216.513ZM228.117 79V71.32H229.877V79H228.117ZM229.877 74.728L229.269 74.424C229.269 73.4533 229.482 72.6693 229.909 72.072C230.346 71.464 231.002 71.16 231.877 71.16C232.261 71.16 232.607 71.2293 232.917 71.368C233.226 71.5067 233.514 71.7307 233.781 72.04L232.629 73.224C232.49 73.0747 232.335 72.968 232.165 72.904C231.994 72.84 231.797 72.808 231.573 72.808C231.082 72.808 230.677 72.9627 230.357 73.272C230.037 73.5813 229.877 74.0667 229.877 74.728ZM237.918 79.16C237.171 79.16 236.494 78.984 235.886 78.632C235.278 78.2693 234.793 77.784 234.43 77.176C234.078 76.568 233.902 75.8907 233.902 75.144C233.902 74.3973 234.078 73.7253 234.43 73.128C234.793 72.5307 235.278 72.056 235.886 71.704C236.494 71.3413 237.171 71.16 237.918 71.16C238.675 71.16 239.358 71.336 239.966 71.688C240.574 72.04 241.054 72.52 241.406 73.128C241.769 73.7253 241.95 74.3973 241.95 75.144C241.95 75.8907 241.769 76.568 241.406 77.176C241.054 77.784 240.574 78.2693 239.966 78.632C239.358 78.984 238.675 79.16 237.918 79.16ZM237.918 77.464C238.355 77.464 238.739 77.368 239.07 77.176C239.411 76.9733 239.673 76.696 239.854 76.344C240.046 75.992 240.142 75.592 240.142 75.144C240.142 74.696 240.046 74.3013 239.854 73.96C239.662 73.6187 239.401 73.352 239.07 73.16C238.739 72.9573 238.355 72.856 237.918 72.856C237.491 72.856 237.107 72.9573 236.766 73.16C236.435 73.352 236.174 73.6187 235.982 73.96C235.801 74.3013 235.71 74.696 235.71 75.144C235.71 75.592 235.801 75.992 235.982 76.344C236.174 76.696 236.435 76.9733 236.766 77.176C237.107 77.368 237.491 77.464 237.918 77.464ZM247.526 79.16C246.939 79.16 246.416 79.0373 245.958 78.792C245.499 78.536 245.136 78.1893 244.87 77.752C244.614 77.3147 244.486 76.8187 244.486 76.264V74.056C244.486 73.5013 244.619 73.0053 244.886 72.568C245.152 72.1307 245.515 71.7893 245.974 71.544C246.432 71.288 246.95 71.16 247.526 71.16C248.219 71.16 248.843 71.3413 249.398 71.704C249.963 72.056 250.406 72.536 250.726 73.144C251.056 73.7413 251.222 74.4187 251.222 75.176C251.222 75.9227 251.056 76.6 250.726 77.208C250.406 77.8053 249.963 78.28 249.398 78.632C248.843 78.984 248.219 79.16 247.526 79.16ZM243.414 82.2V71.32H245.174V73.384L244.87 75.256L245.174 77.112V82.2H243.414ZM247.238 77.496C247.664 77.496 248.038 77.4 248.358 77.208C248.688 77.0053 248.944 76.728 249.126 76.376C249.318 76.024 249.414 75.6187 249.414 75.16C249.414 74.7013 249.318 74.296 249.126 73.944C248.944 73.592 248.688 73.32 248.358 73.128C248.038 72.9253 247.664 72.824 247.238 72.824C246.811 72.824 246.432 72.9253 246.102 73.128C245.771 73.32 245.515 73.592 245.334 73.944C245.152 74.296 245.062 74.7013 245.062 75.16C245.062 75.6187 245.152 76.024 245.334 76.376C245.515 76.728 245.771 77.0053 246.102 77.208C246.432 77.4 246.811 77.496 247.238 77.496ZM255.911 79.16C255.217 79.16 254.588 78.984 254.023 78.632C253.468 78.28 253.025 77.8053 252.695 77.208C252.375 76.6 252.215 75.9227 252.215 75.176C252.215 74.4187 252.375 73.7413 252.695 73.144C253.025 72.536 253.468 72.056 254.023 71.704C254.588 71.3413 255.217 71.16 255.911 71.16C256.497 71.16 257.015 71.288 257.463 71.544C257.921 71.7893 258.284 72.1307 258.551 72.568C258.817 73.0053 258.951 73.5013 258.951 74.056V76.264C258.951 76.8187 258.817 77.3147 258.551 77.752C258.295 78.1893 257.937 78.536 257.479 78.792C257.02 79.0373 256.497 79.16 255.911 79.16ZM256.199 77.496C256.636 77.496 257.015 77.4 257.335 77.208C257.665 77.0053 257.921 76.728 258.103 76.376C258.284 76.024 258.375 75.6187 258.375 75.16C258.375 74.7013 258.284 74.296 258.103 73.944C257.921 73.592 257.665 73.32 257.335 73.128C257.015 72.9253 256.636 72.824 256.199 72.824C255.772 72.824 255.393 72.9253 255.063 73.128C254.743 73.32 254.487 73.592 254.295 73.944C254.113 74.296 254.023 74.7013 254.023 75.16C254.023 75.6187 254.113 76.024 254.295 76.376C254.487 76.728 254.743 77.0053 255.063 77.208C255.393 77.4 255.772 77.496 256.199 77.496ZM260.023 79H258.263V76.936L258.567 75.064L258.263 73.208V67.48H260.023V79ZM265.496 79.16C264.749 79.16 264.072 78.984 263.464 78.632C262.856 78.2693 262.371 77.784 262.008 77.176C261.656 76.568 261.48 75.8907 261.48 75.144C261.48 74.3973 261.656 73.7253 262.008 73.128C262.371 72.5307 262.856 72.056 263.464 71.704C264.072 71.3413 264.749 71.16 265.496 71.16C266.253 71.16 266.936 71.336 267.544 71.688C268.152 72.04 268.632 72.52 268.984 73.128C269.347 73.7253 269.528 74.3973 269.528 75.144C269.528 75.8907 269.347 76.568 268.984 77.176C268.632 77.784 268.152 78.2693 267.544 78.632C266.936 78.984 266.253 79.16 265.496 79.16ZM265.496 77.464C265.933 77.464 266.317 77.368 266.648 77.176C266.989 76.9733 267.251 76.696 267.432 76.344C267.624 75.992 267.72 75.592 267.72 75.144C267.72 74.696 267.624 74.3013 267.432 73.96C267.24 73.6187 266.979 73.352 266.648 73.16C266.317 72.9573 265.933 72.856 265.496 72.856C265.069 72.856 264.685 72.9573 264.344 73.16C264.013 73.352 263.752 73.6187 263.56 73.96C263.379 74.3013 263.288 74.696 263.288 75.144C263.288 75.592 263.379 75.992 263.56 76.344C263.752 76.696 264.013 76.9733 264.344 77.176C264.685 77.368 265.069 77.464 265.496 77.464ZM273.044 79L269.956 71.32H271.78L273.86 76.904L273.316 76.92L275.348 71.32H276.372L278.404 76.92L277.86 76.904L279.94 71.32H281.764L278.676 79H277.652L275.572 73.688H276.148L274.068 79H273.044ZM288.131 79V74.568C288.131 74.056 287.965 73.6347 287.635 73.304C287.315 72.9733 286.899 72.808 286.387 72.808C286.045 72.808 285.741 72.8827 285.475 73.032C285.208 73.1813 285 73.3893 284.851 73.656C284.701 73.9227 284.627 74.2267 284.627 74.568L283.939 74.184C283.939 73.5973 284.067 73.08 284.323 72.632C284.579 72.1733 284.931 71.816 285.379 71.56C285.837 71.2933 286.349 71.16 286.915 71.16C287.491 71.16 288.003 71.3093 288.451 71.608C288.899 71.896 289.251 72.2747 289.507 72.744C289.763 73.2027 289.891 73.6827 289.891 74.184V79H288.131ZM282.867 79V71.32H284.627V79H282.867Z" fill="white"/>
<path fill-rule="evenodd" clip-rule="evenodd" d="M310.293 70.2929C310.683 69.9024 311.317 69.9024 311.707 70.2929L316.707 75.2929C317.098 75.6834 317.098 76.3166 316.707 76.7071C316.317 77.0976 315.683 77.0976 315.293 76.7071L311 72.4142L306.707 76.7071C306.317 77.0976 305.683 77.0976 305.293 76.7071C304.902 76.3166 304.902 75.6834 305.293 75.2929L310.293 70.2929Z" fill="white"/>
<g filter="url(#filter0_d_14095_13238)">
<path d="M192 117C192 109.458 192 105.686 194.343 103.343C196.686 101 200.458 101 208 101H323C330.542 101 334.314 101 336.657 103.343C339 105.686 339 109.458 339 117V237C339 244.542 339 248.314 336.657 250.657C334.314 253 330.542 253 323 253H208C200.458 253 196.686 253 194.343 250.657C192 248.314 192 244.542 192 237V117Z" fill="white"/>
<path d="M213.312 135V123.896H214.816V135H213.312ZM214.336 135V133.624H220.288V135H214.336ZM224.788 135.16C224.095 135.16 223.465 134.989 222.9 134.648C222.335 134.296 221.887 133.821 221.556 133.224C221.236 132.627 221.076 131.955 221.076 131.208C221.076 130.461 221.236 129.789 221.556 129.192C221.887 128.595 222.329 128.12 222.884 127.768C223.449 127.416 224.084 127.24 224.788 127.24C225.364 127.24 225.876 127.363 226.324 127.608C226.783 127.843 227.151 128.173 227.428 128.6C227.705 129.016 227.86 129.501 227.892 130.056V132.344C227.86 132.888 227.705 133.373 227.428 133.8C227.161 134.227 226.799 134.563 226.34 134.808C225.892 135.043 225.375 135.16 224.788 135.16ZM225.028 133.8C225.743 133.8 226.319 133.56 226.756 133.08C227.193 132.589 227.412 131.965 227.412 131.208C227.412 130.685 227.311 130.232 227.108 129.848C226.916 129.453 226.639 129.149 226.276 128.936C225.913 128.712 225.492 128.6 225.012 128.6C224.532 128.6 224.105 128.712 223.732 128.936C223.369 129.16 223.081 129.469 222.868 129.864C222.665 130.248 222.564 130.691 222.564 131.192C222.564 131.704 222.665 132.157 222.868 132.552C223.081 132.936 223.375 133.24 223.748 133.464C224.121 133.688 224.548 133.8 225.028 133.8ZM227.316 135V132.952L227.588 131.096L227.316 129.256V127.4H228.772V135H227.316ZM234.869 135.16C234.293 135.16 233.77 135.043 233.301 134.808C232.842 134.563 232.474 134.227 232.197 133.8C231.919 133.373 231.765 132.888 231.733 132.344V130.056C231.765 129.501 231.919 129.016 232.197 128.6C232.485 128.173 232.858 127.843 233.317 127.608C233.786 127.363 234.303 127.24 234.869 127.24C235.562 127.24 236.186 127.416 236.741 127.768C237.306 128.12 237.749 128.595 238.069 129.192C238.389 129.789 238.549 130.461 238.549 131.208C238.549 131.955 238.389 132.627 238.069 133.224C237.749 133.821 237.306 134.296 236.741 134.648C236.186 134.989 235.562 135.16 234.869 135.16ZM230.868 135V123.576H232.309V129.256L232.037 131.096L232.309 132.952V135H230.868ZM234.629 133.8C235.109 133.8 235.53 133.688 235.893 133.464C236.255 133.24 236.543 132.936 236.757 132.552C236.97 132.157 237.077 131.704 237.077 131.192C237.077 130.691 236.97 130.243 236.757 129.848C236.543 129.453 236.255 129.149 235.893 128.936C235.53 128.712 235.114 128.6 234.645 128.6C234.165 128.6 233.743 128.712 233.381 128.936C233.018 129.149 232.735 129.453 232.533 129.848C232.33 130.243 232.229 130.696 232.229 131.208C232.229 131.709 232.325 132.157 232.517 132.552C232.719 132.936 233.002 133.24 233.365 133.464C233.738 133.688 234.159 133.8 234.629 133.8ZM243.701 135.16C242.944 135.16 242.261 134.989 241.653 134.648C241.045 134.296 240.565 133.821 240.213 133.224C239.861 132.627 239.685 131.949 239.685 131.192C239.685 130.445 239.856 129.773 240.197 129.176C240.549 128.579 241.018 128.109 241.605 127.768C242.202 127.416 242.869 127.24 243.605 127.24C244.309 127.24 244.928 127.4 245.461 127.72C246.005 128.04 246.426 128.483 246.725 129.048C247.034 129.613 247.189 130.253 247.189 130.968C247.189 131.075 247.184 131.192 247.173 131.32C247.162 131.437 247.141 131.576 247.109 131.736H240.693V130.536H246.341L245.813 131C245.813 130.488 245.722 130.056 245.541 129.704C245.36 129.341 245.104 129.064 244.773 128.872C244.442 128.669 244.042 128.568 243.573 128.568C243.082 128.568 242.65 128.675 242.277 128.888C241.904 129.101 241.616 129.4 241.413 129.784C241.21 130.168 241.109 130.621 241.109 131.144C241.109 131.677 241.216 132.147 241.429 132.552C241.642 132.947 241.946 133.256 242.341 133.48C242.736 133.693 243.189 133.8 243.701 133.8C244.128 133.8 244.517 133.725 244.869 133.576C245.232 133.427 245.541 133.203 245.797 132.904L246.725 133.848C246.362 134.275 245.914 134.6 245.381 134.824C244.858 135.048 244.298 135.16 243.701 135.16ZM248.759 135V123.576H250.199V135H248.759Z" fill="#2A2C35"/>
<path d="M213.312 183V171.896H214.816V183H213.312ZM214.336 183V181.624H220.288V183H214.336ZM224.788 183.16C224.095 183.16 223.465 182.989 222.9 182.648C222.335 182.296 221.887 181.821 221.556 181.224C221.236 180.627 221.076 179.955 221.076 179.208C221.076 178.461 221.236 177.789 221.556 177.192C221.887 176.595 222.329 176.12 222.884 175.768C223.449 175.416 224.084 175.24 224.788 175.24C225.364 175.24 225.876 175.363 226.324 175.608C226.783 175.843 227.151 176.173 227.428 176.6C227.705 177.016 227.86 177.501 227.892 178.056V180.344C227.86 180.888 227.705 181.373 227.428 181.8C227.161 182.227 226.799 182.563 226.34 182.808C225.892 183.043 225.375 183.16 224.788 183.16ZM225.028 181.8C225.743 181.8 226.319 181.56 226.756 181.08C227.193 180.589 227.412 179.965 227.412 179.208C227.412 178.685 227.311 178.232 227.108 177.848C226.916 177.453 226.639 177.149 226.276 176.936C225.913 176.712 225.492 176.6 225.012 176.6C224.532 176.6 224.105 176.712 223.732 176.936C223.369 177.16 223.081 177.469 222.868 177.864C222.665 178.248 222.564 178.691 222.564 179.192C222.564 179.704 222.665 180.157 222.868 180.552C223.081 180.936 223.375 181.24 223.748 181.464C224.121 181.688 224.548 181.8 225.028 181.8ZM227.316 183V180.952L227.588 179.096L227.316 177.256V175.4H228.772V183H227.316ZM234.869 183.16C234.293 183.16 233.77 183.043 233.301 182.808C232.842 182.563 232.474 182.227 232.197 181.8C231.919 181.373 231.765 180.888 231.733 180.344V178.056C231.765 177.501 231.919 177.016 232.197 176.6C232.485 176.173 232.858 175.843 233.317 175.608C233.786 175.363 234.303 175.24 234.869 175.24C235.562 175.24 236.186 175.416 236.741 175.768C237.306 176.12 237.749 176.595 238.069 177.192C238.389 177.789 238.549 178.461 238.549 179.208C238.549 179.955 238.389 180.627 238.069 181.224C237.749 181.821 237.306 182.296 236.741 182.648C236.186 182.989 235.562 183.16 234.869 183.16ZM230.868 183V171.576H232.309V177.256L232.037 179.096L232.309 180.952V183H230.868ZM234.629 181.8C235.109 181.8 235.53 181.688 235.893 181.464C236.255 181.24 236.543 180.936 236.757 180.552C236.97 180.157 237.077 179.704 237.077 179.192C237.077 178.691 236.97 178.243 236.757 177.848C236.543 177.453 236.255 177.149 235.893 176.936C235.53 176.712 235.114 176.6 234.645 176.6C234.165 176.6 233.743 176.712 233.381 176.936C233.018 177.149 232.735 177.453 232.533 177.848C232.33 178.243 232.229 178.696 232.229 179.208C232.229 179.709 232.325 180.157 232.517 180.552C232.719 180.936 233.002 181.24 233.365 181.464C233.738 181.688 234.159 181.8 234.629 181.8ZM243.701 183.16C242.944 183.16 242.261 182.989 241.653 182.648C241.045 182.296 240.565 181.821 240.213 181.224C239.861 180.627 239.685 179.949 239.685 179.192C239.685 178.445 239.856 177.773 240.197 177.176C240.549 176.579 241.018 176.109 241.605 175.768C242.202 175.416 242.869 175.24 243.605 175.24C244.309 175.24 244.928 175.4 245.461 175.72C246.005 176.04 246.426 176.483 246.725 177.048C247.034 177.613 247.189 178.253 247.189 178.968C247.189 179.075 247.184 179.192 247.173 179.32C247.162 179.437 247.141 179.576 247.109 179.736H240.693V178.536H246.341L245.813 179C245.813 178.488 245.722 178.056 245.541 177.704C245.36 177.341 245.104 177.064 244.773 176.872C244.442 176.669 244.042 176.568 243.573 176.568C243.082 176.568 242.65 176.675 242.277 176.888C241.904 177.101 241.616 177.4 241.413 177.784C241.21 178.168 241.109 178.621 241.109 179.144C241.109 179.677 241.216 180.147 241.429 180.552C241.642 180.947 241.946 181.256 242.341 181.48C242.736 181.693 243.189 181.8 243.701 181.8C244.128 181.8 244.517 181.725 244.869 181.576C245.232 181.427 245.541 181.203 245.797 180.904L246.725 181.848C246.362 182.275 245.914 182.6 245.381 182.824C244.858 183.048 244.298 183.16 243.701 183.16ZM248.759 183V171.576H250.199V183H248.759Z" fill="#2A2C35"/>
<path d="M213.312 231V219.896H214.816V231H213.312ZM214.336 231V229.624H220.288V231H214.336ZM224.788 231.16C224.095 231.16 223.465 230.989 222.9 230.648C222.335 230.296 221.887 229.821 221.556 229.224C221.236 228.627 221.076 227.955 221.076 227.208C221.076 226.461 221.236 225.789 221.556 225.192C221.887 224.595 222.329 224.12 222.884 223.768C223.449 223.416 224.084 223.24 224.788 223.24C225.364 223.24 225.876 223.363 226.324 223.608C226.783 223.843 227.151 224.173 227.428 224.6C227.705 225.016 227.86 225.501 227.892 226.056V228.344C227.86 228.888 227.705 229.373 227.428 229.8C227.161 230.227 226.799 230.563 226.34 230.808C225.892 231.043 225.375 231.16 224.788 231.16ZM225.028 229.8C225.743 229.8 226.319 229.56 226.756 229.08C227.193 228.589 227.412 227.965 227.412 227.208C227.412 226.685 227.311 226.232 227.108 225.848C226.916 225.453 226.639 225.149 226.276 224.936C225.913 224.712 225.492 224.6 225.012 224.6C224.532 224.6 224.105 224.712 223.732 224.936C223.369 225.16 223.081 225.469 222.868 225.864C222.665 226.248 222.564 226.691 222.564 227.192C222.564 227.704 222.665 228.157 222.868 228.552C223.081 228.936 223.375 229.24 223.748 229.464C224.121 229.688 224.548 229.8 225.028 229.8ZM227.316 231V228.952L227.588 227.096L227.316 225.256V223.4H228.772V231H227.316ZM234.869 231.16C234.293 231.16 233.77 231.043 233.301 230.808C232.842 230.563 232.474 230.227 232.197 229.8C231.919 229.373 231.765 228.888 231.733 228.344V226.056C231.765 225.501 231.919 225.016 232.197 224.6C232.485 224.173 232.858 223.843 233.317 223.608C233.786 223.363 234.303 223.24 234.869 223.24C235.562 223.24 236.186 223.416 236.741 223.768C237.306 224.12 237.749 224.595 238.069 225.192C238.389 225.789 238.549 226.461 238.549 227.208C238.549 227.955 238.389 228.627 238.069 229.224C237.749 229.821 237.306 230.296 236.741 230.648C236.186 230.989 235.562 231.16 234.869 231.16ZM230.868 231V219.576H232.309V225.256L232.037 227.096L232.309 228.952V231H230.868ZM234.629 229.8C235.109 229.8 235.53 229.688 235.893 229.464C236.255 229.24 236.543 228.936 236.757 228.552C236.97 228.157 237.077 227.704 237.077 227.192C237.077 226.691 236.97 226.243 236.757 225.848C236.543 225.453 236.255 225.149 235.893 224.936C235.53 224.712 235.114 224.6 234.645 224.6C234.165 224.6 233.743 224.712 233.381 224.936C233.018 225.149 232.735 225.453 232.533 225.848C232.33 226.243 232.229 226.696 232.229 227.208C232.229 227.709 232.325 228.157 232.517 228.552C232.719 228.936 233.002 229.24 233.365 229.464C233.738 229.688 234.159 229.8 234.629 229.8ZM243.701 231.16C242.944 231.16 242.261 230.989 241.653 230.648C241.045 230.296 240.565 229.821 240.213 229.224C239.861 228.627 239.685 227.949 239.685 227.192C239.685 226.445 239.856 225.773 240.197 225.176C240.549 224.579 241.018 224.109 241.605 223.768C242.202 223.416 242.869 223.24 243.605 223.24C244.309 223.24 244.928 223.4 245.461 223.72C246.005 224.04 246.426 224.483 246.725 225.048C247.034 225.613 247.189 226.253 247.189 226.968C247.189 227.075 247.184 227.192 247.173 227.32C247.162 227.437 247.141 227.576 247.109 227.736H240.693V226.536H246.341L245.813 227C245.813 226.488 245.722 226.056 245.541 225.704C245.36 225.341 245.104 225.064 244.773 224.872C244.442 224.669 244.042 224.568 243.573 224.568C243.082 224.568 242.65 224.675 242.277 224.888C241.904 225.101 241.616 225.4 241.413 225.784C241.21 226.168 241.109 226.621 241.109 227.144C241.109 227.677 241.216 228.147 241.429 228.552C241.642 228.947 241.946 229.256 242.341 229.48C242.736 229.693 243.189 229.8 243.701 229.8C244.128 229.8 244.517 229.725 244.869 229.576C245.232 229.427 245.541 229.203 245.797 228.904L246.725 229.848C246.362 230.275 245.914 230.6 245.381 230.824C244.858 231.048 244.298 231.16 243.701 231.16ZM248.759 231V219.576H250.199V231H248.759Z" fill="#2A2C35"/>
</g>
<defs>
<filter id="filter0_d_14095_13238" x="160" y="79" width="211" height="216" filterUnits="userSpaceOnUse" color-interpolation-filters="sRGB">
<feFlood flood-opacity="0" result="BackgroundImageFix"/>
<feColorMatrix in="SourceAlpha" type="matrix" values="0 0 0 0 0 0 0 0 0 0 0 0 0 0 0 0 0 0 127 0" result="hardAlpha"/>
<feMorphology radius="16" operator="erode" in="SourceAlpha" result="effect1_dropShadow_14095_13238"/>
<feOffset dy="10"/>
<feGaussianBlur stdDeviation="24"/>
<feColorMatrix type="matrix" values="0 0 0 0 0 0 0 0 0 0 0 0 0 0 0 0 0 0 0.12 0"/>
<feBlend mode="normal" in2="BackgroundImageFix" result="effect1_dropShadow_14095_13238"/>
<feBlend mode="normal" in="SourceGraphic" in2="effect1_dropShadow_14095_13238" result="shape"/>
</filter>
</defs>
</svg>
