<svg width="506" height="298" viewBox="0 0 506 298" fill="none" xmlns="http://www.w3.org/2000/svg">
<path d="M192.5 111C192.5 99.6863 192.5 94.0294 196.015 90.5147C199.529 87 205.186 87 216.5 87H279.5C290.814 87 296.471 87 299.985 90.5147C303.5 94.0294 303.5 99.6863 303.5 111V111C303.5 122.314 303.5 127.971 299.985 131.485C296.471 135 290.814 135 279.5 135H216.5C205.186 135 199.529 135 196.015 131.485C192.5 127.971 192.5 122.314 192.5 111V111Z" fill="#4F46E5"/>
<path d="M192.5 111C192.5 99.6863 192.5 94.0294 196.015 90.5147C199.529 87 205.186 87 216.5 87H279.5C290.814 87 296.471 87 299.985 90.5147C303.5 94.0294 303.5 99.6863 303.5 111V111C303.5 122.314 303.5 127.971 299.985 131.485C296.471 135 290.814 135 279.5 135H216.5C205.186 135 199.529 135 196.015 131.485C192.5 127.971 192.5 122.314 192.5 111V111Z" fill="#444546" fill-opacity="0.2"/>
<path d="M211.222 117V115.4H214.438C215.004 115.4 215.441 115.224 215.75 114.872C216.06 114.52 216.214 114.115 216.214 113.656C216.214 113.347 216.145 113.059 216.006 112.792C215.868 112.525 215.665 112.312 215.398 112.152C215.132 111.992 214.812 111.912 214.438 111.912H211.222V110.312H214.166C214.646 110.312 215.03 110.189 215.318 109.944C215.606 109.699 215.75 109.336 215.75 108.856C215.75 108.376 215.606 108.013 215.318 107.768C215.03 107.523 214.646 107.4 214.166 107.4H211.222V105.8H214.214C214.972 105.8 215.601 105.939 216.102 106.216C216.604 106.493 216.977 106.851 217.222 107.288C217.468 107.725 217.59 108.195 217.59 108.696C217.59 109.283 217.425 109.8 217.094 110.248C216.774 110.696 216.3 111.059 215.67 111.336L215.814 110.76C216.518 111.048 217.068 111.453 217.462 111.976C217.857 112.499 218.054 113.112 218.054 113.816C218.054 114.392 217.91 114.92 217.622 115.4C217.345 115.88 216.929 116.269 216.374 116.568C215.83 116.856 215.158 117 214.358 117H211.222ZM209.958 117V105.8H211.798V117H209.958ZM222.823 117.16C222.173 117.16 221.591 117.016 221.079 116.728C220.578 116.44 220.183 116.045 219.895 115.544C219.618 115.032 219.479 114.445 219.479 113.784V109.32H221.239V113.704C221.239 114.077 221.298 114.397 221.415 114.664C221.543 114.92 221.725 115.117 221.959 115.256C222.205 115.395 222.493 115.464 222.823 115.464C223.335 115.464 223.725 115.315 223.991 115.016C224.269 114.707 224.407 114.269 224.407 113.704V109.32H226.167V113.784C226.167 114.456 226.023 115.048 225.735 115.56C225.458 116.061 225.069 116.456 224.567 116.744C224.066 117.021 223.485 117.16 222.823 117.16ZM229.105 117V106.12H230.865V117H229.105ZM227.265 110.92V109.32H237.345V110.92H227.265ZM233.745 117V106.12H235.505V117H233.745ZM241.926 117.16C241.179 117.16 240.502 116.984 239.894 116.632C239.286 116.269 238.8 115.784 238.438 115.176C238.086 114.568 237.91 113.891 237.91 113.144C237.91 112.397 238.086 111.725 238.438 111.128C238.8 110.531 239.286 110.056 239.894 109.704C240.502 109.341 241.179 109.16 241.926 109.16C242.683 109.16 243.366 109.336 243.974 109.688C244.582 110.04 245.062 110.52 245.414 111.128C245.776 111.725 245.958 112.397 245.958 113.144C245.958 113.891 245.776 114.568 245.414 115.176C245.062 115.784 244.582 116.269 243.974 116.632C243.366 116.984 242.683 117.16 241.926 117.16ZM241.926 115.464C242.363 115.464 242.747 115.368 243.078 115.176C243.419 114.973 243.68 114.696 243.862 114.344C244.054 113.992 244.15 113.592 244.15 113.144C244.15 112.696 244.054 112.301 243.862 111.96C243.67 111.619 243.408 111.352 243.078 111.16C242.747 110.957 242.363 110.856 241.926 110.856C241.499 110.856 241.115 110.957 240.774 111.16C240.443 111.352 240.182 111.619 239.99 111.96C239.808 112.301 239.718 112.696 239.718 113.144C239.718 113.592 239.808 113.992 239.99 114.344C240.182 114.696 240.443 114.973 240.774 115.176C241.115 115.368 241.499 115.464 241.926 115.464ZM252.685 117V112.568C252.685 112.056 252.52 111.635 252.189 111.304C251.869 110.973 251.453 110.808 250.941 110.808C250.6 110.808 250.296 110.883 250.029 111.032C249.763 111.181 249.555 111.389 249.405 111.656C249.256 111.923 249.181 112.227 249.181 112.568L248.493 112.184C248.493 111.597 248.621 111.08 248.877 110.632C249.133 110.173 249.485 109.816 249.933 109.56C250.392 109.293 250.904 109.16 251.469 109.16C252.045 109.16 252.557 109.309 253.005 109.608C253.453 109.896 253.805 110.275 254.061 110.744C254.317 111.203 254.445 111.683 254.445 112.184V117H252.685ZM247.421 117V109.32H249.181V117H247.421Z" fill="white"/>
<path fill-rule="evenodd" clip-rule="evenodd" d="M274.793 108.293C275.183 107.902 275.817 107.902 276.207 108.293L281.207 113.293C281.598 113.683 281.598 114.317 281.207 114.707C280.817 115.098 280.183 115.098 279.793 114.707L275.5 110.414L271.207 114.707C270.817 115.098 270.183 115.098 269.793 114.707C269.402 114.317 269.402 113.683 269.793 113.293L274.793 108.293Z" fill="white"/>
<g filter="url(#filter0_d_14095_13238)">
<path d="M156.5 155C156.5 147.458 156.5 143.686 158.843 141.343C161.186 139 164.958 139 172.5 139H287.5C295.042 139 298.814 139 301.157 141.343C303.5 143.686 303.5 147.458 303.5 155V227C303.5 234.542 303.5 238.314 301.157 240.657C298.814 243 295.042 243 287.5 243H172.5C164.958 243 161.186 243 158.843 240.657C156.5 238.314 156.5 234.542 156.5 227V155Z" fill="white"/>
<path d="M177.812 173V161.896H179.316V173H177.812ZM178.836 173V171.624H184.788V173H178.836ZM189.288 173.16C188.595 173.16 187.965 172.989 187.4 172.648C186.835 172.296 186.387 171.821 186.056 171.224C185.736 170.627 185.576 169.955 185.576 169.208C185.576 168.461 185.736 167.789 186.056 167.192C186.387 166.595 186.829 166.12 187.384 165.768C187.949 165.416 188.584 165.24 189.288 165.24C189.864 165.24 190.376 165.363 190.824 165.608C191.283 165.843 191.651 166.173 191.928 166.6C192.205 167.016 192.36 167.501 192.392 168.056V170.344C192.36 170.888 192.205 171.373 191.928 171.8C191.661 172.227 191.299 172.563 190.84 172.808C190.392 173.043 189.875 173.16 189.288 173.16ZM189.528 171.8C190.243 171.8 190.819 171.56 191.256 171.08C191.693 170.589 191.912 169.965 191.912 169.208C191.912 168.685 191.811 168.232 191.608 167.848C191.416 167.453 191.139 167.149 190.776 166.936C190.413 166.712 189.992 166.6 189.512 166.6C189.032 166.6 188.605 166.712 188.232 166.936C187.869 167.16 187.581 167.469 187.368 167.864C187.165 168.248 187.064 168.691 187.064 169.192C187.064 169.704 187.165 170.157 187.368 170.552C187.581 170.936 187.875 171.24 188.248 171.464C188.621 171.688 189.048 171.8 189.528 171.8ZM191.816 173V170.952L192.088 169.096L191.816 167.256V165.4H193.272V173H191.816ZM199.369 173.16C198.793 173.16 198.27 173.043 197.801 172.808C197.342 172.563 196.974 172.227 196.697 171.8C196.419 171.373 196.265 170.888 196.233 170.344V168.056C196.265 167.501 196.419 167.016 196.697 166.6C196.985 166.173 197.358 165.843 197.817 165.608C198.286 165.363 198.803 165.24 199.369 165.24C200.062 165.24 200.686 165.416 201.241 165.768C201.806 166.12 202.249 166.595 202.569 167.192C202.889 167.789 203.049 168.461 203.049 169.208C203.049 169.955 202.889 170.627 202.569 171.224C202.249 171.821 201.806 172.296 201.241 172.648C200.686 172.989 200.062 173.16 199.369 173.16ZM195.368 173V161.576H196.809V167.256L196.537 169.096L196.809 170.952V173H195.368ZM199.129 171.8C199.609 171.8 200.03 171.688 200.393 171.464C200.755 171.24 201.043 170.936 201.257 170.552C201.47 170.157 201.577 169.704 201.577 169.192C201.577 168.691 201.47 168.243 201.257 167.848C201.043 167.453 200.755 167.149 200.393 166.936C200.03 166.712 199.614 166.6 199.145 166.6C198.665 166.6 198.243 166.712 197.881 166.936C197.518 167.149 197.235 167.453 197.033 167.848C196.83 168.243 196.729 168.696 196.729 169.208C196.729 169.709 196.825 170.157 197.017 170.552C197.219 170.936 197.502 171.24 197.865 171.464C198.238 171.688 198.659 171.8 199.129 171.8ZM208.201 173.16C207.444 173.16 206.761 172.989 206.153 172.648C205.545 172.296 205.065 171.821 204.713 171.224C204.361 170.627 204.185 169.949 204.185 169.192C204.185 168.445 204.356 167.773 204.697 167.176C205.049 166.579 205.518 166.109 206.105 165.768C206.702 165.416 207.369 165.24 208.105 165.24C208.809 165.24 209.428 165.4 209.961 165.72C210.505 166.04 210.926 166.483 211.225 167.048C211.534 167.613 211.689 168.253 211.689 168.968C211.689 169.075 211.684 169.192 211.673 169.32C211.662 169.437 211.641 169.576 211.609 169.736H205.193V168.536H210.841L210.313 169C210.313 168.488 210.222 168.056 210.041 167.704C209.86 167.341 209.604 167.064 209.273 166.872C208.942 166.669 208.542 166.568 208.073 166.568C207.582 166.568 207.15 166.675 206.777 166.888C206.404 167.101 206.116 167.4 205.913 167.784C205.71 168.168 205.609 168.621 205.609 169.144C205.609 169.677 205.716 170.147 205.929 170.552C206.142 170.947 206.446 171.256 206.841 171.48C207.236 171.693 207.689 171.8 208.201 171.8C208.628 171.8 209.017 171.725 209.369 171.576C209.732 171.427 210.041 171.203 210.297 170.904L211.225 171.848C210.862 172.275 210.414 172.6 209.881 172.824C209.358 173.048 208.798 173.16 208.201 173.16ZM213.259 173V161.576H214.699V173H213.259Z" fill="#2A2C35"/>
<path d="M177.812 221V209.896H179.316V221H177.812ZM178.836 221V219.624H184.788V221H178.836ZM189.288 221.16C188.595 221.16 187.965 220.989 187.4 220.648C186.835 220.296 186.387 219.821 186.056 219.224C185.736 218.627 185.576 217.955 185.576 217.208C185.576 216.461 185.736 215.789 186.056 215.192C186.387 214.595 186.829 214.12 187.384 213.768C187.949 213.416 188.584 213.24 189.288 213.24C189.864 213.24 190.376 213.363 190.824 213.608C191.283 213.843 191.651 214.173 191.928 214.6C192.205 215.016 192.36 215.501 192.392 216.056V218.344C192.36 218.888 192.205 219.373 191.928 219.8C191.661 220.227 191.299 220.563 190.84 220.808C190.392 221.043 189.875 221.16 189.288 221.16ZM189.528 219.8C190.243 219.8 190.819 219.56 191.256 219.08C191.693 218.589 191.912 217.965 191.912 217.208C191.912 216.685 191.811 216.232 191.608 215.848C191.416 215.453 191.139 215.149 190.776 214.936C190.413 214.712 189.992 214.6 189.512 214.6C189.032 214.6 188.605 214.712 188.232 214.936C187.869 215.16 187.581 215.469 187.368 215.864C187.165 216.248 187.064 216.691 187.064 217.192C187.064 217.704 187.165 218.157 187.368 218.552C187.581 218.936 187.875 219.24 188.248 219.464C188.621 219.688 189.048 219.8 189.528 219.8ZM191.816 221V218.952L192.088 217.096L191.816 215.256V213.4H193.272V221H191.816ZM199.369 221.16C198.793 221.16 198.27 221.043 197.801 220.808C197.342 220.563 196.974 220.227 196.697 219.8C196.419 219.373 196.265 218.888 196.233 218.344V216.056C196.265 215.501 196.419 215.016 196.697 214.6C196.985 214.173 197.358 213.843 197.817 213.608C198.286 213.363 198.803 213.24 199.369 213.24C200.062 213.24 200.686 213.416 201.241 213.768C201.806 214.12 202.249 214.595 202.569 215.192C202.889 215.789 203.049 216.461 203.049 217.208C203.049 217.955 202.889 218.627 202.569 219.224C202.249 219.821 201.806 220.296 201.241 220.648C200.686 220.989 200.062 221.16 199.369 221.16ZM195.368 221V209.576H196.809V215.256L196.537 217.096L196.809 218.952V221H195.368ZM199.129 219.8C199.609 219.8 200.03 219.688 200.393 219.464C200.755 219.24 201.043 218.936 201.257 218.552C201.47 218.157 201.577 217.704 201.577 217.192C201.577 216.691 201.47 216.243 201.257 215.848C201.043 215.453 200.755 215.149 200.393 214.936C200.03 214.712 199.614 214.6 199.145 214.6C198.665 214.6 198.243 214.712 197.881 214.936C197.518 215.149 197.235 215.453 197.033 215.848C196.83 216.243 196.729 216.696 196.729 217.208C196.729 217.709 196.825 218.157 197.017 218.552C197.219 218.936 197.502 219.24 197.865 219.464C198.238 219.688 198.659 219.8 199.129 219.8ZM208.201 221.16C207.444 221.16 206.761 220.989 206.153 220.648C205.545 220.296 205.065 219.821 204.713 219.224C204.361 218.627 204.185 217.949 204.185 217.192C204.185 216.445 204.356 215.773 204.697 215.176C205.049 214.579 205.518 214.109 206.105 213.768C206.702 213.416 207.369 213.24 208.105 213.24C208.809 213.24 209.428 213.4 209.961 213.72C210.505 214.04 210.926 214.483 211.225 215.048C211.534 215.613 211.689 216.253 211.689 216.968C211.689 217.075 211.684 217.192 211.673 217.32C211.662 217.437 211.641 217.576 211.609 217.736H205.193V216.536H210.841L210.313 217C210.313 216.488 210.222 216.056 210.041 215.704C209.86 215.341 209.604 215.064 209.273 214.872C208.942 214.669 208.542 214.568 208.073 214.568C207.582 214.568 207.15 214.675 206.777 214.888C206.404 215.101 206.116 215.4 205.913 215.784C205.71 216.168 205.609 216.621 205.609 217.144C205.609 217.677 205.716 218.147 205.929 218.552C206.142 218.947 206.446 219.256 206.841 219.48C207.236 219.693 207.689 219.8 208.201 219.8C208.628 219.8 209.017 219.725 209.369 219.576C209.732 219.427 210.041 219.203 210.297 218.904L211.225 219.848C210.862 220.275 210.414 220.6 209.881 220.824C209.358 221.048 208.798 221.16 208.201 221.16ZM213.259 221V209.576H214.699V221H213.259Z" fill="#2A2C35"/>
</g>
<rect x="93" y="110" width="89" height="1" fill="#E1172F"/>
<g clip-path="url(#clip0_14095_13238)">
<rect x="93" y="99" width="24" height="24" rx="12" fill="#E1172F"/>
<path d="M106.83 105.818V116H104.677V107.862H104.618L102.286 109.323V107.414L104.807 105.818H106.83Z" fill="white"/>
</g>
<g clip-path="url(#clip1_14095_13238)">
<rect x="323" y="190" width="67" height="1" fill="#E1172F"/>
<g clip-path="url(#clip2_14095_13238)">
<rect x="390" y="179" width="24" height="24" rx="12" fill="#E1172F"/>
<path d="M397.927 194.21V192.515L402.178 185.818H403.639V188.165H402.774L400.095 192.406V192.485H406.135V194.21H397.927ZM402.814 196V193.693L402.854 192.942V185.818H404.872V196H402.814Z" fill="white"/>
</g>
</g>
<g clip-path="url(#clip3_14095_13238)">
<rect x="232" y="39" width="1" height="60" fill="#E1172F"/>
<g clip-path="url(#clip4_14095_13238)">
<rect x="220" y="39" width="24" height="24" rx="12" fill="#E1172F"/>
<path d="M228.416 56V54.4489L232.04 51.093C232.349 50.7947 232.607 50.5263 232.816 50.2876C233.028 50.049 233.189 49.8153 233.298 49.5866C233.408 49.3546 233.462 49.1044 233.462 48.8359C233.462 48.5376 233.394 48.2808 233.258 48.0653C233.123 47.8466 232.937 47.6792 232.702 47.5632C232.466 47.4439 232.199 47.3842 231.901 47.3842C231.59 47.3842 231.318 47.4472 231.086 47.5732C230.854 47.6991 230.675 47.8797 230.549 48.1151C230.423 48.3504 230.36 48.6304 230.36 48.9553H228.317C228.317 48.2891 228.467 47.7107 228.769 47.2202C229.071 46.7296 229.493 46.3501 230.037 46.0817C230.58 45.8132 231.207 45.679 231.916 45.679C232.645 45.679 233.28 45.8082 233.82 46.0668C234.364 46.322 234.786 46.6766 235.088 47.1307C235.39 47.5848 235.54 48.1051 235.54 48.6918C235.54 49.0762 235.464 49.4557 235.312 49.8303C235.163 50.2048 234.896 50.6207 234.511 51.0781C234.127 51.5322 233.585 52.0774 232.886 52.7138L231.399 54.1705V54.2401H235.675V56H228.416Z" fill="white"/>
</g>
</g>
<g clip-path="url(#clip5_14095_13238)">
<rect x="275" y="39" width="1" height="60" fill="#E1172F"/>
<g clip-path="url(#clip6_14095_13238)">
<rect x="263" y="39" width="24" height="24" rx="12" fill="#E1172F"/>
<path d="M274.975 56.1392C274.232 56.1392 273.571 56.0116 272.991 55.7564C272.414 55.4979 271.958 55.1432 271.624 54.6925C271.292 54.2384 271.122 53.7147 271.112 53.1214H273.279C273.292 53.37 273.374 53.5888 273.523 53.7777C273.675 53.9633 273.877 54.1075 274.129 54.2102C274.381 54.313 274.665 54.3643 274.979 54.3643C275.308 54.3643 275.598 54.3063 275.85 54.1903C276.101 54.0743 276.299 53.9136 276.441 53.7081C276.584 53.5026 276.655 53.2656 276.655 52.9972C276.655 52.7254 276.579 52.4851 276.426 52.2763C276.277 52.0642 276.062 51.8984 275.78 51.7791C275.502 51.6598 275.17 51.6001 274.786 51.6001H273.836V50.0192H274.786C275.11 50.0192 275.397 49.9628 275.646 49.8501C275.898 49.7375 276.093 49.5817 276.232 49.3828C276.372 49.1806 276.441 48.9453 276.441 48.6768C276.441 48.4216 276.38 48.1979 276.257 48.0057C276.138 47.8101 275.969 47.6577 275.75 47.5483C275.535 47.4389 275.283 47.3842 274.994 47.3842C274.703 47.3842 274.436 47.4373 274.194 47.5433C273.952 47.6461 273.758 47.7936 273.612 47.9858C273.466 48.178 273.389 48.4034 273.379 48.6619H271.315C271.325 48.0753 271.493 47.5582 271.818 47.1108C272.142 46.6634 272.58 46.3137 273.13 46.0618C273.684 45.8066 274.308 45.679 275.004 45.679C275.707 45.679 276.322 45.8066 276.849 46.0618C277.376 46.317 277.785 46.6617 278.077 47.0959C278.372 47.5268 278.518 48.0107 278.514 48.5476C278.518 49.1177 278.34 49.5933 277.982 49.9744C277.628 50.3556 277.165 50.5975 276.595 50.7003V50.7798C277.344 50.8759 277.914 51.1361 278.305 51.5604C278.7 51.9813 278.895 52.5083 278.892 53.1413C278.895 53.7214 278.728 54.2367 278.39 54.6875C278.055 55.1383 277.593 55.4929 277.003 55.7514C276.413 56.0099 275.737 56.1392 274.975 56.1392Z" fill="white"/>
</g>
</g>
<defs>
<filter id="filter0_d_14095_13238" x="124.5" y="117" width="211" height="168" filterUnits="userSpaceOnUse" color-interpolation-filters="sRGB">
<feFlood flood-opacity="0" result="BackgroundImageFix"/>
<feColorMatrix in="SourceAlpha" type="matrix" values="0 0 0 0 0 0 0 0 0 0 0 0 0 0 0 0 0 0 127 0" result="hardAlpha"/>
<feMorphology radius="16" operator="erode" in="SourceAlpha" result="effect1_dropShadow_14095_13238"/>
<feOffset dy="10"/>
<feGaussianBlur stdDeviation="24"/>
<feColorMatrix type="matrix" values="0 0 0 0 0 0 0 0 0 0 0 0 0 0 0 0 0 0 0.12 0"/>
<feBlend mode="normal" in2="BackgroundImageFix" result="effect1_dropShadow_14095_13238"/>
<feBlend mode="normal" in="SourceGraphic" in2="effect1_dropShadow_14095_13238" result="shape"/>
</filter>
<clipPath id="clip0_14095_13238">
<rect x="93" y="99" width="24" height="24" rx="12" fill="white"/>
</clipPath>
<clipPath id="clip1_14095_13238">
<rect width="91" height="24" fill="white" transform="translate(323 179)"/>
</clipPath>
<clipPath id="clip2_14095_13238">
<rect x="390" y="179" width="24" height="24" rx="12" fill="white"/>
</clipPath>
<clipPath id="clip3_14095_13238">
<rect width="24" height="60" fill="white" transform="translate(220 39)"/>
</clipPath>
<clipPath id="clip4_14095_13238">
<rect x="220" y="39" width="24" height="24" rx="12" fill="white"/>
</clipPath>
<clipPath id="clip5_14095_13238">
<rect width="24" height="60" fill="white" transform="translate(263 39)"/>
</clipPath>
<clipPath id="clip6_14095_13238">
<rect x="263" y="39" width="24" height="24" rx="12" fill="white"/>
</clipPath>
</defs>
</svg>
