<svg width="914" height="373" viewBox="0 0 914 373" fill="none" xmlns="http://www.w3.org/2000/svg">
<rect x="473.863" y="76.6133" width="382.771" height="38.753" fill="#15161A"/>
<rect x="473.863" y="137.122" width="335.86" height="38.753" fill="#15161A"/>
<rect x="473.863" y="197.632" width="335.86" height="38.753" fill="#15161A"/>
<rect x="474" y="24" width="91" height="39" fill="#15161A"/>
<rect x="589" y="24" width="212" height="39" fill="#15161A"/>
<line x1="472.679" y1="-1.77046e-08" x2="472.679" y2="302" stroke="#9747FF" stroke-width="1.35976" stroke-dasharray="5.44 6.8"/>
<line x1="856.679" y1="-1.77046e-08" x2="856.679" y2="302" stroke="#9747FF" stroke-width="1.35976" stroke-dasharray="5.44 6.8"/>
<line x1="913.064" y1="77.2932" x2="378" y2="77.2932" stroke="#9747FF" stroke-width="1.35976" stroke-dasharray="5.44 6.8"/>
<line x1="913.064" y1="236.385" x2="378" y2="236.385" stroke="#9747FF" stroke-width="1.35976" stroke-dasharray="5.44 6.8"/>
<g clip-path="url(#clip0_14317_653)">
<rect y="8" width="447" height="364.622" rx="24" fill="#1C1D23"/>
<rect width="447" height="63.6063" transform="translate(0 8)" fill="#15161A"/>
<path d="M28.1822 48.8031L35.0942 32.0031H37.0142L43.8782 48.8031H40.9022L35.5262 35.1951H36.5342L31.1102 48.8031H28.1822ZM31.5902 45.5631V43.1631H40.4942V45.5631H31.5902ZM52.0898 49.0431C51.2098 49.0431 50.4258 48.8591 49.7378 48.4911C49.0498 48.1071 48.5058 47.5871 48.1058 46.9311C47.7218 46.2751 47.5298 45.5311 47.5298 44.6991V41.3871C47.5298 40.5551 47.7298 39.8111 48.1298 39.1551C48.5298 38.4991 49.0738 37.9871 49.7618 37.6191C50.4498 37.2351 51.2258 37.0431 52.0898 37.0431C53.1298 37.0431 54.0658 37.3151 54.8978 37.8591C55.7458 38.3871 56.4098 39.1071 56.8898 40.0191C57.3858 40.9151 57.6338 41.9311 57.6338 43.0671C57.6338 44.1871 57.3858 45.2031 56.8898 46.1151C56.4098 47.0111 55.7458 47.7231 54.8978 48.2511C54.0658 48.7791 53.1298 49.0431 52.0898 49.0431ZM45.9218 53.6031V37.2831H48.5618V40.3791L48.1058 43.1871L48.5618 45.9711V53.6031H45.9218ZM51.6578 46.5471C52.2978 46.5471 52.8578 46.4031 53.3378 46.1151C53.8338 45.8111 54.2178 45.3951 54.4898 44.8671C54.7778 44.3391 54.9218 43.7311 54.9218 43.0431C54.9218 42.3551 54.7778 41.7471 54.4898 41.2191C54.2178 40.6911 53.8338 40.2831 53.3378 39.9951C52.8578 39.6911 52.2978 39.5391 51.6578 39.5391C51.0178 39.5391 50.4498 39.6911 49.9538 39.9951C49.4578 40.2831 49.0738 40.6911 48.8018 41.2191C48.5298 41.7471 48.3938 42.3551 48.3938 43.0431C48.3938 43.7311 48.5298 44.3391 48.8018 44.8671C49.0738 45.3951 49.4578 45.8111 49.9538 46.1151C50.4498 46.4031 51.0178 46.5471 51.6578 46.5471ZM66.0116 49.0431C65.1316 49.0431 64.3476 48.8591 63.6596 48.4911C62.9716 48.1071 62.4276 47.5871 62.0276 46.9311C61.6436 46.2751 61.4516 45.5311 61.4516 44.6991V41.3871C61.4516 40.5551 61.6516 39.8111 62.0516 39.1551C62.4516 38.4991 62.9956 37.9871 63.6836 37.6191C64.3716 37.2351 65.1476 37.0431 66.0116 37.0431C67.0516 37.0431 67.9876 37.3151 68.8196 37.8591C69.6676 38.3871 70.3316 39.1071 70.8116 40.0191C71.3076 40.9151 71.5556 41.9311 71.5556 43.0671C71.5556 44.1871 71.3076 45.2031 70.8116 46.1151C70.3316 47.0111 69.6676 47.7231 68.8196 48.2511C67.9876 48.7791 67.0516 49.0431 66.0116 49.0431ZM59.8436 53.6031V37.2831H62.4836V40.3791L62.0276 43.1871L62.4836 45.9711V53.6031H59.8436ZM65.5796 46.5471C66.2196 46.5471 66.7796 46.4031 67.2596 46.1151C67.7556 45.8111 68.1396 45.3951 68.4116 44.8671C68.6996 44.3391 68.8436 43.7311 68.8436 43.0431C68.8436 42.3551 68.6996 41.7471 68.4116 41.2191C68.1396 40.6911 67.7556 40.2831 67.2596 39.9951C66.7796 39.6911 66.2196 39.5391 65.5796 39.5391C64.9396 39.5391 64.3716 39.6911 63.8756 39.9951C63.3796 40.2831 62.9956 40.6911 62.7236 41.2191C62.4516 41.7471 62.3156 42.3551 62.3156 43.0431C62.3156 43.7311 62.4516 44.3391 62.7236 44.8671C62.9956 45.3951 63.3796 45.8111 63.8756 46.1151C64.3716 46.4031 64.9396 46.5471 65.5796 46.5471Z" fill="#F1F2F4"/>
<mask id="path-13-inside-1_14317_653" fill="white">
<path d="M0 71.6062H447V219.606H0V71.6062Z"/>
</mask>
<path d="M447 218.606H0V220.606H447V218.606Z" fill="#1C1D23" mask="url(#path-13-inside-1_14317_653)"/>
<path d="M40.4382 130.564C38.7955 130.564 37.2489 130.266 35.7982 129.668C34.3689 129.071 33.1209 128.25 32.0542 127.204C30.9875 126.138 30.1449 124.9 29.5262 123.492C28.9289 122.063 28.6302 120.527 28.6302 118.884C28.6302 117.242 28.9395 115.716 29.5582 114.308C30.1769 112.9 31.0302 111.674 32.1182 110.628C33.2275 109.562 34.5182 108.74 35.9902 108.164C37.4622 107.567 39.0409 107.268 40.7262 107.268C42.6675 107.268 44.4275 107.62 46.0062 108.324C47.6062 109.028 48.9289 109.999 49.9742 111.236L46.5502 114.66C45.8249 113.722 44.9715 113.018 43.9902 112.548C43.0089 112.079 41.8995 111.844 40.6622 111.844C39.3395 111.844 38.1555 112.143 37.1102 112.74C36.0649 113.316 35.2435 114.138 34.6462 115.204C34.0702 116.25 33.7822 117.476 33.7822 118.884C33.7822 120.292 34.0702 121.53 34.6462 122.596C35.2222 123.663 36.0115 124.495 37.0142 125.092C38.0169 125.69 39.1689 125.988 40.4702 125.988C41.7929 125.988 42.9129 125.743 43.8302 125.252C44.7689 124.74 45.4835 124.015 45.9742 123.076C46.4862 122.116 46.7422 120.954 46.7422 119.588L50.0702 121.828L39.9902 121.668V117.412H51.8622V118.148C51.8622 120.858 51.3715 123.14 50.3902 124.996C49.4302 126.831 48.0862 128.218 46.3582 129.156C44.6515 130.095 42.6782 130.564 40.4382 130.564ZM62.1392 130.564C60.4539 130.564 58.9499 130.223 57.6272 129.54C56.3259 128.836 55.3019 127.866 54.5552 126.628C53.8085 125.391 53.4352 123.994 53.4352 122.436C53.4352 120.879 53.7979 119.492 54.5232 118.276C55.2699 117.039 56.2725 116.068 57.5312 115.364C58.7899 114.66 60.2085 114.308 61.7872 114.308C63.3232 114.308 64.6779 114.639 65.8512 115.3C67.0245 115.962 67.9419 116.879 68.6032 118.052C69.2859 119.226 69.6272 120.57 69.6272 122.084C69.6272 122.362 69.6059 122.66 69.5632 122.98C69.5419 123.279 69.4885 123.631 69.4032 124.036L55.9952 124.068V120.708L67.3232 120.676L65.2112 122.084C65.1899 121.188 65.0512 120.452 64.7952 119.876C64.5392 119.279 64.1552 118.831 63.6432 118.532C63.1525 118.212 62.5445 118.052 61.8192 118.052C61.0512 118.052 60.3792 118.234 59.8032 118.596C59.2485 118.938 58.8112 119.428 58.4912 120.068C58.1925 120.708 58.0432 121.487 58.0432 122.404C58.0432 123.322 58.2032 124.111 58.5232 124.772C58.8645 125.412 59.3339 125.914 59.9312 126.276C60.5499 126.618 61.2752 126.788 62.1072 126.788C62.8752 126.788 63.5685 126.66 64.1872 126.404C64.8059 126.127 65.3499 125.722 65.8192 125.188L68.5072 127.876C67.7392 128.772 66.8112 129.444 65.7232 129.892C64.6352 130.34 63.4405 130.564 62.1392 130.564ZM74.1985 130.212V108.228H79.0945V130.212H74.1985ZM70.6785 118.82V114.66H92.4705V118.82H70.6785ZM84.0545 130.212V108.228H88.9505V130.212H84.0545ZM94.6155 130.212V114.66H99.5115V130.212H94.6155ZM97.0795 112.516C96.3115 112.516 95.6715 112.26 95.1595 111.748C94.6688 111.215 94.4235 110.575 94.4235 109.828C94.4235 109.06 94.6688 108.42 95.1595 107.908C95.6715 107.396 96.3115 107.14 97.0795 107.14C97.8475 107.14 98.4768 107.396 98.9675 107.908C99.4581 108.42 99.7035 109.06 99.7035 109.828C99.7035 110.575 99.4581 111.215 98.9675 111.748C98.4768 112.26 97.8475 112.516 97.0795 112.516ZM113.231 130.212V121.348C113.231 120.538 112.975 119.887 112.463 119.396C111.973 118.884 111.343 118.628 110.575 118.628C110.042 118.628 109.573 118.746 109.167 118.98C108.762 119.194 108.442 119.514 108.207 119.94C107.973 120.346 107.855 120.815 107.855 121.348L105.967 120.42C105.967 119.204 106.234 118.138 106.767 117.22C107.301 116.303 108.037 115.599 108.975 115.108C109.935 114.596 111.013 114.34 112.207 114.34C113.359 114.34 114.373 114.618 115.247 115.172C116.143 115.706 116.847 116.42 117.359 117.316C117.871 118.212 118.127 119.194 118.127 120.26V130.212H113.231ZM102.959 130.212V114.66H107.855V130.212H102.959ZM127.864 137.188C126.157 137.188 124.653 136.89 123.352 136.292C122.072 135.716 121.058 134.895 120.312 133.828L123.32 130.82C123.874 131.482 124.493 131.983 125.176 132.324C125.88 132.666 126.722 132.836 127.704 132.836C128.92 132.836 129.869 132.538 130.552 131.94C131.256 131.343 131.608 130.5 131.608 129.412V125.444L132.44 122.052L131.704 118.66V114.66H136.504V129.284C136.504 130.884 136.13 132.271 135.384 133.444C134.637 134.618 133.613 135.535 132.312 136.196C131.01 136.858 129.528 137.188 127.864 137.188ZM127.64 129.732C126.21 129.732 124.941 129.391 123.832 128.708C122.722 128.026 121.848 127.098 121.208 125.924C120.568 124.751 120.248 123.45 120.248 122.02C120.248 120.57 120.568 119.268 121.208 118.116C121.848 116.943 122.722 116.026 123.832 115.364C124.941 114.682 126.21 114.34 127.64 114.34C128.706 114.34 129.656 114.543 130.488 114.948C131.341 115.332 132.024 115.887 132.536 116.612C133.069 117.316 133.368 118.138 133.432 119.076V124.996C133.368 125.914 133.069 126.735 132.536 127.46C132.024 128.164 131.341 128.719 130.488 129.124C129.634 129.53 128.685 129.732 127.64 129.732ZM128.568 125.38C129.25 125.38 129.837 125.231 130.328 124.932C130.84 124.634 131.224 124.239 131.48 123.748C131.757 123.236 131.896 122.66 131.896 122.02C131.896 121.38 131.757 120.804 131.48 120.292C131.224 119.78 130.84 119.375 130.328 119.076C129.837 118.778 129.25 118.628 128.568 118.628C127.906 118.628 127.32 118.778 126.808 119.076C126.296 119.375 125.901 119.78 125.624 120.292C125.346 120.804 125.208 121.38 125.208 122.02C125.208 122.618 125.346 123.183 125.624 123.716C125.901 124.228 126.285 124.634 126.776 124.932C127.288 125.231 127.885 125.38 128.568 125.38ZM151.717 130.596C150.8 130.596 149.893 130.479 148.997 130.244C148.122 130.01 147.301 129.679 146.533 129.252C145.786 128.804 145.146 128.292 144.613 127.716L147.397 124.9C147.909 125.455 148.517 125.892 149.221 126.212C149.925 126.511 150.693 126.66 151.525 126.66C152.101 126.66 152.538 126.575 152.837 126.404C153.157 126.234 153.317 125.999 153.317 125.7C153.317 125.316 153.125 125.028 152.741 124.836C152.378 124.623 151.909 124.442 151.333 124.292C150.757 124.122 150.149 123.94 149.509 123.748C148.869 123.556 148.261 123.29 147.685 122.948C147.109 122.607 146.64 122.138 146.277 121.54C145.914 120.922 145.733 120.143 145.733 119.204C145.733 118.202 145.989 117.338 146.501 116.612C147.013 115.866 147.738 115.279 148.677 114.852C149.616 114.426 150.714 114.212 151.973 114.212C153.296 114.212 154.512 114.447 155.621 114.916C156.752 115.364 157.669 116.036 158.373 116.932L155.589 119.748C155.098 119.172 154.544 118.767 153.925 118.532C153.328 118.298 152.741 118.18 152.165 118.18C151.61 118.18 151.194 118.266 150.917 118.436C150.64 118.586 150.501 118.81 150.501 119.108C150.501 119.428 150.682 119.684 151.045 119.876C151.408 120.068 151.877 120.239 152.453 120.388C153.029 120.538 153.637 120.719 154.277 120.932C154.917 121.146 155.525 121.434 156.101 121.796C156.677 122.159 157.146 122.65 157.509 123.268C157.872 123.866 158.053 124.655 158.053 125.636C158.053 127.151 157.477 128.356 156.325 129.252C155.194 130.148 153.658 130.596 151.717 130.596ZM162.917 130.212V108.228H167.813V130.212H162.917ZM159.397 118.82V114.66H171.333V118.82H159.397ZM179.674 130.532C178.245 130.532 176.965 130.18 175.834 129.476C174.725 128.772 173.839 127.812 173.178 126.596C172.538 125.38 172.218 123.994 172.218 122.436C172.218 120.879 172.538 119.492 173.178 118.276C173.839 117.06 174.725 116.1 175.834 115.396C176.965 114.692 178.245 114.34 179.674 114.34C180.719 114.34 181.658 114.543 182.49 114.948C183.343 115.354 184.037 115.919 184.57 116.644C185.103 117.348 185.402 118.159 185.466 119.076V125.796C185.402 126.714 185.103 127.535 184.57 128.26C184.058 128.964 183.375 129.519 182.522 129.924C181.669 130.33 180.719 130.532 179.674 130.532ZM180.666 126.116C181.711 126.116 182.554 125.775 183.194 125.092C183.834 124.388 184.154 123.503 184.154 122.436C184.154 121.711 184.005 121.071 183.706 120.516C183.429 119.962 183.023 119.535 182.49 119.236C181.978 118.916 181.381 118.756 180.698 118.756C180.015 118.756 179.407 118.916 178.874 119.236C178.362 119.535 177.946 119.962 177.626 120.516C177.327 121.071 177.178 121.711 177.178 122.436C177.178 123.14 177.327 123.77 177.626 124.324C177.925 124.879 178.341 125.316 178.874 125.636C179.407 125.956 180.005 126.116 180.666 126.116ZM183.962 130.212V126.02L184.698 122.244L183.962 118.468V114.66H188.762V130.212H183.962ZM192.209 130.212V114.66H197.105V130.212H192.209ZM197.105 121.668L195.057 120.068C195.463 118.255 196.145 116.847 197.105 115.844C198.065 114.842 199.399 114.34 201.105 114.34C201.852 114.34 202.503 114.458 203.057 114.692C203.633 114.906 204.135 115.247 204.561 115.716L201.649 119.396C201.436 119.162 201.169 118.98 200.849 118.852C200.529 118.724 200.167 118.66 199.761 118.66C198.951 118.66 198.3 118.916 197.809 119.428C197.34 119.919 197.105 120.666 197.105 121.668ZM208.23 130.212V108.228H213.126V130.212H208.23ZM204.71 118.82V114.66H216.646V118.82H204.71ZM226.17 130.564C224.485 130.564 222.981 130.223 221.658 129.54C220.357 128.836 219.333 127.866 218.586 126.628C217.84 125.391 217.466 123.994 217.466 122.436C217.466 120.879 217.829 119.492 218.554 118.276C219.301 117.039 220.304 116.068 221.562 115.364C222.821 114.66 224.24 114.308 225.818 114.308C227.354 114.308 228.709 114.639 229.882 115.3C231.056 115.962 231.973 116.879 232.634 118.052C233.317 119.226 233.658 120.57 233.658 122.084C233.658 122.362 233.637 122.66 233.594 122.98C233.573 123.279 233.52 123.631 233.434 124.036L220.026 124.068V120.708L231.354 120.676L229.242 122.084C229.221 121.188 229.082 120.452 228.826 119.876C228.57 119.279 228.186 118.831 227.674 118.532C227.184 118.212 226.576 118.052 225.85 118.052C225.082 118.052 224.41 118.234 223.834 118.596C223.28 118.938 222.842 119.428 222.522 120.068C222.224 120.708 222.074 121.487 222.074 122.404C222.074 123.322 222.234 124.111 222.554 124.772C222.896 125.412 223.365 125.914 223.962 126.276C224.581 126.618 225.306 126.788 226.138 126.788C226.906 126.788 227.6 126.66 228.218 126.404C228.837 126.127 229.381 125.722 229.85 125.188L232.538 127.876C231.77 128.772 230.842 129.444 229.754 129.892C228.666 130.34 227.472 130.564 226.17 130.564ZM242.646 130.532C241.174 130.532 239.862 130.18 238.71 129.476C237.579 128.772 236.683 127.812 236.022 126.596C235.382 125.38 235.062 123.994 235.062 122.436C235.062 120.879 235.382 119.492 236.022 118.276C236.683 117.06 237.579 116.1 238.71 115.396C239.862 114.692 241.174 114.34 242.646 114.34C243.712 114.34 244.672 114.543 245.526 114.948C246.4 115.354 247.115 115.919 247.67 116.644C248.246 117.348 248.566 118.159 248.63 119.076V125.636C248.566 126.554 248.256 127.386 247.702 128.132C247.147 128.858 246.432 129.444 245.558 129.892C244.683 130.319 243.712 130.532 242.646 130.532ZM243.51 126.116C244.214 126.116 244.822 125.967 245.334 125.668C245.846 125.348 246.251 124.911 246.55 124.356C246.848 123.802 246.998 123.162 246.998 122.436C246.998 121.711 246.848 121.082 246.55 120.548C246.272 119.994 245.867 119.556 245.334 119.236C244.822 118.916 244.224 118.756 243.542 118.756C242.859 118.756 242.251 118.916 241.718 119.236C241.206 119.556 240.79 119.994 240.47 120.548C240.171 121.103 240.022 121.732 240.022 122.436C240.022 123.14 240.171 123.77 240.47 124.324C240.768 124.879 241.184 125.316 241.718 125.636C242.251 125.956 242.848 126.116 243.51 126.116ZM251.606 130.212H246.806V126.02L247.542 122.244L246.71 118.468V106.98H251.606V130.212Z" fill="#F1F2F4"/>
<path d="M33.1062 166.314C32.0129 166.314 31.0795 166.114 30.3062 165.714C29.5329 165.314 28.8462 164.734 28.2462 163.974L29.5262 162.694C29.9662 163.307 30.4729 163.774 31.0462 164.094C31.6195 164.401 32.3262 164.554 33.1662 164.554C33.9929 164.554 34.6529 164.374 35.1462 164.014C35.6529 163.654 35.9062 163.161 35.9062 162.534C35.9062 162.014 35.7862 161.594 35.5462 161.274C35.3062 160.954 34.9795 160.694 34.5662 160.494C34.1662 160.281 33.7262 160.094 33.2462 159.934C32.7662 159.761 32.2862 159.581 31.8062 159.394C31.3262 159.194 30.8862 158.954 30.4862 158.674C30.0862 158.381 29.7595 158.001 29.5062 157.534C29.2662 157.067 29.1462 156.481 29.1462 155.774C29.1462 154.987 29.3329 154.321 29.7062 153.774C30.0929 153.214 30.6129 152.787 31.2662 152.494C31.9329 152.187 32.6795 152.034 33.5062 152.034C34.4129 152.034 35.2262 152.214 35.9462 152.574C36.6662 152.921 37.2529 153.381 37.7062 153.954L36.4262 155.234C36.0129 154.754 35.5662 154.394 35.0862 154.154C34.6195 153.914 34.0795 153.794 33.4662 153.794C32.7195 153.794 32.1262 153.961 31.6862 154.294C31.2462 154.614 31.0262 155.067 31.0262 155.654C31.0262 156.121 31.1462 156.501 31.3862 156.794C31.6395 157.074 31.9662 157.314 32.3662 157.514C32.7662 157.714 33.2062 157.901 33.6862 158.074C34.1795 158.234 34.6662 158.414 35.1462 158.614C35.6262 158.814 36.0662 159.067 36.4662 159.374C36.8662 159.681 37.1862 160.081 37.4262 160.574C37.6795 161.054 37.8062 161.661 37.8062 162.394C37.8062 163.621 37.3795 164.581 36.5262 165.274C35.6862 165.967 34.5462 166.314 33.1062 166.314ZM44.2832 166.314C43.3366 166.314 42.4832 166.101 41.7232 165.674C40.9632 165.234 40.3632 164.641 39.9232 163.894C39.4832 163.147 39.2632 162.301 39.2632 161.354C39.2632 160.421 39.4766 159.581 39.9032 158.834C40.3432 158.087 40.9299 157.501 41.6632 157.074C42.4099 156.634 43.2432 156.414 44.1632 156.414C45.0432 156.414 45.8166 156.614 46.4832 157.014C47.1632 157.414 47.6899 157.967 48.0632 158.674C48.4499 159.381 48.6432 160.181 48.6432 161.074C48.6432 161.207 48.6366 161.354 48.6232 161.514C48.6099 161.661 48.5832 161.834 48.5432 162.034H40.5232V160.534H47.5832L46.9232 161.114C46.9232 160.474 46.8099 159.934 46.5832 159.494C46.3566 159.041 46.0366 158.694 45.6232 158.454C45.2099 158.201 44.7099 158.074 44.1232 158.074C43.5099 158.074 42.9699 158.207 42.5032 158.474C42.0366 158.741 41.6766 159.114 41.4232 159.594C41.1699 160.074 41.0432 160.641 41.0432 161.294C41.0432 161.961 41.1766 162.547 41.4432 163.054C41.7099 163.547 42.0899 163.934 42.5832 164.214C43.0766 164.481 43.6432 164.614 44.2832 164.614C44.8166 164.614 45.3032 164.521 45.7432 164.334C46.1966 164.147 46.5832 163.867 46.9032 163.494L48.0632 164.674C47.6099 165.207 47.0499 165.614 46.3832 165.894C45.7299 166.174 45.0299 166.314 44.2832 166.314ZM54.9459 166.314C54.0126 166.314 53.1659 166.094 52.4059 165.654C51.6592 165.214 51.0659 164.621 50.6259 163.874C50.1992 163.114 49.9859 162.274 49.9859 161.354C49.9859 160.421 50.1992 159.581 50.6259 158.834C51.0659 158.087 51.6592 157.501 52.4059 157.074C53.1659 156.634 54.0126 156.414 54.9459 156.414C55.6792 156.414 56.3592 156.554 56.9859 156.834C57.6126 157.101 58.1526 157.494 58.6059 158.014L57.4059 159.214C57.1126 158.867 56.7526 158.607 56.3259 158.434C55.9126 158.247 55.4526 158.154 54.9459 158.154C54.3459 158.154 53.8126 158.294 53.3459 158.574C52.8792 158.841 52.5126 159.214 52.2459 159.694C51.9792 160.174 51.8459 160.727 51.8459 161.354C51.8459 161.981 51.9792 162.534 52.2459 163.014C52.5126 163.494 52.8792 163.874 53.3459 164.154C53.8126 164.434 54.3459 164.574 54.9459 164.574C55.4526 164.574 55.9126 164.487 56.3259 164.314C56.7526 164.127 57.1192 163.861 57.4259 163.514L58.6059 164.714C58.1659 165.221 57.6259 165.614 56.9859 165.894C56.3592 166.174 55.6792 166.314 54.9459 166.314ZM64.5357 166.314C63.6024 166.314 62.7624 166.094 62.0157 165.654C61.2691 165.214 60.6757 164.621 60.2357 163.874C59.7957 163.114 59.5757 162.267 59.5757 161.334C59.5757 160.414 59.7957 159.587 60.2357 158.854C60.6757 158.107 61.2691 157.514 62.0157 157.074C62.7624 156.634 63.6024 156.414 64.5357 156.414C65.4557 156.414 66.2891 156.634 67.0357 157.074C67.7957 157.501 68.3957 158.087 68.8357 158.834C69.2757 159.581 69.4957 160.414 69.4957 161.334C69.4957 162.267 69.2757 163.114 68.8357 163.874C68.3957 164.621 67.7957 165.214 67.0357 165.654C66.2891 166.094 65.4557 166.314 64.5357 166.314ZM64.5357 164.574C65.1357 164.574 65.6691 164.434 66.1357 164.154C66.6024 163.874 66.9691 163.494 67.2357 163.014C67.5024 162.521 67.6357 161.961 67.6357 161.334C67.6357 160.721 67.4957 160.174 67.2157 159.694C66.9491 159.214 66.5824 158.841 66.1157 158.574C65.6624 158.294 65.1357 158.154 64.5357 158.154C63.9357 158.154 63.4024 158.294 62.9357 158.574C62.4691 158.841 62.1024 159.214 61.8357 159.694C61.5691 160.174 61.4357 160.721 61.4357 161.334C61.4357 161.961 61.5691 162.521 61.8357 163.014C62.1024 163.494 62.4691 163.874 62.9357 164.154C63.4024 164.434 63.9357 164.574 64.5357 164.574ZM78.2439 166.114V160.574C78.2439 159.854 78.0172 159.261 77.5639 158.794C77.1105 158.327 76.5239 158.094 75.8039 158.094C75.3239 158.094 74.8972 158.201 74.5239 158.414C74.1505 158.627 73.8572 158.921 73.6439 159.294C73.4305 159.667 73.3239 160.094 73.3239 160.574L72.5839 160.154C72.5839 159.434 72.7439 158.794 73.0639 158.234C73.3839 157.674 73.8305 157.234 74.4039 156.914C74.9772 156.581 75.6239 156.414 76.3439 156.414C77.0639 156.414 77.6972 156.594 78.2439 156.954C78.8039 157.314 79.2439 157.787 79.5639 158.374C79.8839 158.947 80.0439 159.561 80.0439 160.214V166.114H78.2439ZM71.5239 166.114V156.614H73.3239V166.114H71.5239ZM86.5009 166.314C85.6209 166.314 84.8342 166.101 84.1409 165.674C83.4476 165.234 82.8942 164.641 82.4809 163.894C82.0809 163.147 81.8809 162.307 81.8809 161.374C81.8809 160.441 82.0809 159.601 82.4809 158.854C82.8942 158.107 83.4476 157.514 84.1409 157.074C84.8342 156.634 85.6209 156.414 86.5009 156.414C87.2076 156.414 87.8476 156.567 88.4209 156.874C88.9942 157.167 89.4542 157.581 89.8009 158.114C90.1609 158.634 90.3609 159.241 90.4009 159.934V162.794C90.3609 163.474 90.1676 164.081 89.8209 164.614C89.4742 165.147 89.0142 165.567 88.4409 165.874C87.8676 166.167 87.2209 166.314 86.5009 166.314ZM86.8009 164.614C87.4009 164.614 87.9209 164.474 88.3609 164.194C88.8142 163.914 89.1676 163.534 89.4209 163.054C89.6742 162.561 89.8009 162.001 89.8009 161.374C89.8009 160.721 89.6676 160.154 89.4009 159.674C89.1476 159.194 88.7942 158.814 88.3409 158.534C87.9009 158.254 87.3809 158.114 86.7809 158.114C86.1809 158.114 85.6542 158.254 85.2009 158.534C84.7476 158.814 84.3876 159.201 84.1209 159.694C83.8676 160.174 83.7409 160.727 83.7409 161.354C83.7409 161.994 83.8676 162.561 84.1209 163.054C84.3876 163.534 84.7476 163.914 85.2009 164.194C85.6676 164.474 86.2009 164.614 86.8009 164.614ZM91.5009 166.114H89.6809V163.554L90.0209 161.234L89.6809 158.934V151.834H91.5009V166.114ZM98.1615 166.314C97.2948 166.314 96.5082 166.101 95.8015 165.674C95.0948 165.234 94.5348 164.641 94.1215 163.894C93.7215 163.147 93.5215 162.307 93.5215 161.374C93.5215 160.441 93.7215 159.601 94.1215 158.854C94.5348 158.107 95.0882 157.514 95.7815 157.074C96.4882 156.634 97.2815 156.414 98.1615 156.414C98.8815 156.414 99.5215 156.567 100.082 156.874C100.655 157.167 101.115 157.581 101.462 158.114C101.808 158.634 102.002 159.241 102.042 159.934V162.794C102.002 163.474 101.808 164.081 101.462 164.614C101.128 165.147 100.675 165.567 100.102 165.874C99.5415 166.167 98.8948 166.314 98.1615 166.314ZM98.4615 164.614C99.3548 164.614 100.075 164.314 100.622 163.714C101.168 163.101 101.442 162.321 101.442 161.374C101.442 160.721 101.315 160.154 101.062 159.674C100.822 159.181 100.475 158.801 100.022 158.534C99.5682 158.254 99.0415 158.114 98.4415 158.114C97.8415 158.114 97.3082 158.254 96.8415 158.534C96.3882 158.814 96.0282 159.201 95.7615 159.694C95.5082 160.174 95.3815 160.727 95.3815 161.354C95.3815 161.994 95.5082 162.561 95.7615 163.054C96.0282 163.534 96.3948 163.914 96.8615 164.194C97.3282 164.474 97.8615 164.614 98.4615 164.614ZM101.322 166.114V163.554L101.662 161.234L101.322 158.934V156.614H103.142V166.114H101.322ZM105.762 166.114V156.614H107.562V166.114H105.762ZM107.562 160.694L106.882 160.394C106.882 159.181 107.162 158.214 107.722 157.494C108.282 156.774 109.089 156.414 110.142 156.414C110.622 156.414 111.055 156.501 111.442 156.674C111.829 156.834 112.189 157.107 112.522 157.494L111.342 158.714C111.142 158.501 110.922 158.347 110.682 158.254C110.442 158.161 110.162 158.114 109.842 158.114C109.175 158.114 108.629 158.327 108.202 158.754C107.775 159.181 107.562 159.827 107.562 160.694ZM116.734 166.194L112.614 156.614H114.614L117.674 164.114H117.034L120.254 156.614H122.254L117.814 166.194H116.734ZM114.014 170.094L116.814 164.354L117.814 166.194L116.014 170.094H114.014ZM128.067 166.114V156.614H129.867V166.114H128.067ZM128.967 154.714C128.634 154.714 128.361 154.607 128.147 154.394C127.934 154.167 127.827 153.887 127.827 153.554C127.827 153.234 127.934 152.967 128.147 152.754C128.361 152.527 128.634 152.414 128.967 152.414C129.301 152.414 129.574 152.527 129.787 152.754C130.001 152.967 130.107 153.234 130.107 153.554C130.107 153.887 130.001 154.167 129.787 154.394C129.574 154.607 129.301 154.714 128.967 154.714ZM139.24 166.114V160.574C139.24 159.854 139.013 159.261 138.56 158.794C138.107 158.327 137.52 158.094 136.8 158.094C136.32 158.094 135.893 158.201 135.52 158.414C135.147 158.627 134.853 158.921 134.64 159.294C134.427 159.667 134.32 160.094 134.32 160.574L133.58 160.154C133.58 159.434 133.74 158.794 134.06 158.234C134.38 157.674 134.827 157.234 135.4 156.914C135.973 156.581 136.62 156.414 137.34 156.414C138.06 156.414 138.693 156.594 139.24 156.954C139.8 157.314 140.24 157.787 140.56 158.374C140.88 158.947 141.04 159.561 141.04 160.214V166.114H139.24ZM132.52 166.114V156.614H134.32V166.114H132.52ZM144.72 166.114V155.194C144.72 154.487 144.873 153.874 145.18 153.354C145.486 152.821 145.906 152.401 146.44 152.094C146.986 151.787 147.62 151.634 148.34 151.634C148.886 151.634 149.36 151.727 149.76 151.914C150.16 152.101 150.526 152.374 150.86 152.734L149.68 153.894C149.506 153.707 149.313 153.567 149.1 153.474C148.886 153.367 148.626 153.314 148.32 153.314C147.746 153.314 147.3 153.481 146.98 153.814C146.673 154.147 146.52 154.607 146.52 155.194V166.114H144.72ZM142.38 158.254V156.614H149.54V158.254H142.38ZM155.141 166.314C154.208 166.314 153.368 166.094 152.621 165.654C151.875 165.214 151.281 164.621 150.841 163.874C150.401 163.114 150.181 162.267 150.181 161.334C150.181 160.414 150.401 159.587 150.841 158.854C151.281 158.107 151.875 157.514 152.621 157.074C153.368 156.634 154.208 156.414 155.141 156.414C156.061 156.414 156.895 156.634 157.641 157.074C158.401 157.501 159.001 158.087 159.441 158.834C159.881 159.581 160.101 160.414 160.101 161.334C160.101 162.267 159.881 163.114 159.441 163.874C159.001 164.621 158.401 165.214 157.641 165.654C156.895 166.094 156.061 166.314 155.141 166.314ZM155.141 164.574C155.741 164.574 156.275 164.434 156.741 164.154C157.208 163.874 157.575 163.494 157.841 163.014C158.108 162.521 158.241 161.961 158.241 161.334C158.241 160.721 158.101 160.174 157.821 159.694C157.555 159.214 157.188 158.841 156.721 158.574C156.268 158.294 155.741 158.154 155.141 158.154C154.541 158.154 154.008 158.294 153.541 158.574C153.075 158.841 152.708 159.214 152.441 159.694C152.175 160.174 152.041 160.721 152.041 161.334C152.041 161.961 152.175 162.521 152.441 163.014C152.708 163.494 153.075 163.874 153.541 164.154C154.008 164.434 154.541 164.574 155.141 164.574ZM162.129 166.114V156.614H163.929V166.114H162.129ZM163.929 160.694L163.249 160.394C163.249 159.181 163.529 158.214 164.089 157.494C164.649 156.774 165.456 156.414 166.509 156.414C166.989 156.414 167.423 156.501 167.809 156.674C168.196 156.834 168.556 157.107 168.889 157.494L167.709 158.714C167.509 158.501 167.289 158.347 167.049 158.254C166.809 158.161 166.529 158.114 166.209 158.114C165.543 158.114 164.996 158.327 164.569 158.754C164.143 159.181 163.929 159.827 163.929 160.694ZM170.196 166.114V156.614H171.996V166.114H170.196ZM176.616 166.114V160.374C176.616 159.667 176.396 159.114 175.956 158.714C175.529 158.301 174.989 158.094 174.336 158.094C173.896 158.094 173.502 158.187 173.156 158.374C172.809 158.561 172.529 158.821 172.316 159.154C172.102 159.487 171.996 159.887 171.996 160.354L171.256 159.994C171.256 159.274 171.409 158.647 171.716 158.114C172.036 157.581 172.469 157.167 173.016 156.874C173.562 156.567 174.176 156.414 174.856 156.414C175.522 156.414 176.122 156.561 176.656 156.854C177.202 157.147 177.629 157.561 177.936 158.094C178.256 158.627 178.416 159.261 178.416 159.994V166.114H176.616ZM183.036 166.114V160.374C183.036 159.667 182.816 159.114 182.376 158.714C181.949 158.301 181.416 158.094 180.776 158.094C180.336 158.094 179.936 158.187 179.576 158.374C179.229 158.561 178.949 158.821 178.736 159.154C178.522 159.487 178.416 159.887 178.416 160.354L177.396 159.994C177.436 159.261 177.629 158.634 177.976 158.114C178.336 157.581 178.796 157.167 179.356 156.874C179.916 156.567 180.529 156.414 181.196 156.414C181.889 156.414 182.509 156.561 183.056 156.854C183.602 157.147 184.036 157.561 184.356 158.094C184.689 158.627 184.856 159.267 184.856 160.014V166.114H183.036ZM191.345 166.314C190.478 166.314 189.692 166.101 188.985 165.674C188.278 165.234 187.718 164.641 187.305 163.894C186.905 163.147 186.705 162.307 186.705 161.374C186.705 160.441 186.905 159.601 187.305 158.854C187.718 158.107 188.272 157.514 188.965 157.074C189.672 156.634 190.465 156.414 191.345 156.414C192.065 156.414 192.705 156.567 193.265 156.874C193.838 157.167 194.298 157.581 194.645 158.114C194.992 158.634 195.185 159.241 195.225 159.934V162.794C195.185 163.474 194.992 164.081 194.645 164.614C194.312 165.147 193.858 165.567 193.285 165.874C192.725 166.167 192.078 166.314 191.345 166.314ZM191.645 164.614C192.538 164.614 193.258 164.314 193.805 163.714C194.352 163.101 194.625 162.321 194.625 161.374C194.625 160.721 194.498 160.154 194.245 159.674C194.005 159.181 193.658 158.801 193.205 158.534C192.752 158.254 192.225 158.114 191.625 158.114C191.025 158.114 190.492 158.254 190.025 158.534C189.572 158.814 189.212 159.201 188.945 159.694C188.692 160.174 188.565 160.727 188.565 161.354C188.565 161.994 188.692 162.561 188.945 163.054C189.212 163.534 189.578 163.914 190.045 164.194C190.512 164.474 191.045 164.614 191.645 164.614ZM194.505 166.114V163.554L194.845 161.234L194.505 158.934V156.614H196.325V166.114H194.505ZM200.367 166.114V152.634H202.167V166.114H200.367ZM198.027 158.254V156.614H204.507V158.254H198.027ZM206.29 166.114V156.614H208.09V166.114H206.29ZM207.19 154.714C206.857 154.714 206.583 154.607 206.37 154.394C206.157 154.167 206.05 153.887 206.05 153.554C206.05 153.234 206.157 152.967 206.37 152.754C206.583 152.527 206.857 152.414 207.19 152.414C207.523 152.414 207.797 152.527 208.01 152.754C208.223 152.967 208.33 153.234 208.33 153.554C208.33 153.887 208.223 154.167 208.01 154.394C207.797 154.607 207.523 154.714 207.19 154.714ZM215.083 166.314C214.149 166.314 213.309 166.094 212.563 165.654C211.816 165.214 211.223 164.621 210.783 163.874C210.343 163.114 210.123 162.267 210.123 161.334C210.123 160.414 210.343 159.587 210.783 158.854C211.223 158.107 211.816 157.514 212.563 157.074C213.309 156.634 214.149 156.414 215.083 156.414C216.003 156.414 216.836 156.634 217.583 157.074C218.343 157.501 218.943 158.087 219.383 158.834C219.823 159.581 220.043 160.414 220.043 161.334C220.043 162.267 219.823 163.114 219.383 163.874C218.943 164.621 218.343 165.214 217.583 165.654C216.836 166.094 216.003 166.314 215.083 166.314ZM215.083 164.574C215.683 164.574 216.216 164.434 216.683 164.154C217.149 163.874 217.516 163.494 217.783 163.014C218.049 162.521 218.183 161.961 218.183 161.334C218.183 160.721 218.043 160.174 217.763 159.694C217.496 159.214 217.129 158.841 216.663 158.574C216.209 158.294 215.683 158.154 215.083 158.154C214.483 158.154 213.949 158.294 213.483 158.574C213.016 158.841 212.649 159.214 212.383 159.694C212.116 160.174 211.983 160.721 211.983 161.334C211.983 161.961 212.116 162.521 212.383 163.014C212.649 163.494 213.016 163.874 213.483 164.154C213.949 164.434 214.483 164.574 215.083 164.574ZM228.791 166.114V160.574C228.791 159.854 228.564 159.261 228.111 158.794C227.657 158.327 227.071 158.094 226.351 158.094C225.871 158.094 225.444 158.201 225.071 158.414C224.697 158.627 224.404 158.921 224.191 159.294C223.977 159.667 223.871 160.094 223.871 160.574L223.131 160.154C223.131 159.434 223.291 158.794 223.611 158.234C223.931 157.674 224.377 157.234 224.951 156.914C225.524 156.581 226.171 156.414 226.891 156.414C227.611 156.414 228.244 156.594 228.791 156.954C229.351 157.314 229.791 157.787 230.111 158.374C230.431 158.947 230.591 159.561 230.591 160.214V166.114H228.791ZM222.071 166.114V156.614H223.871V166.114H222.071Z" fill="#A6AAB3"/>
<path d="M27.6062 268.212C27.6062 258.313 27.6062 253.363 30.6816 250.288C33.757 247.212 38.7067 247.212 48.6062 247.212H398.394C408.293 247.212 413.243 247.212 416.318 250.288C419.394 253.363 419.394 258.313 419.394 268.212V268.212C419.394 278.112 419.394 283.062 416.318 286.137C413.243 289.212 408.293 289.212 398.394 289.212H48.6062C38.7067 289.212 33.757 289.212 30.6816 286.137C27.6062 283.062 27.6062 278.112 27.6062 268.212V268.212Z" fill="#6061EE"/>
<path d="M179.534 270.016V268.616H181.984C182.32 268.616 182.614 268.551 182.866 268.42C183.128 268.28 183.333 268.089 183.482 267.846C183.632 267.594 183.706 267.3 183.706 266.964C183.706 266.628 183.632 266.339 183.482 266.096C183.333 265.844 183.128 265.653 182.866 265.522C182.614 265.382 182.32 265.312 181.984 265.312H179.534V263.912H182.068C182.684 263.912 183.235 264.038 183.72 264.29C184.215 264.542 184.602 264.897 184.882 265.354C185.172 265.812 185.316 266.348 185.316 266.964C185.316 267.58 185.172 268.117 184.882 268.574C184.602 269.032 184.215 269.386 183.72 269.638C183.235 269.89 182.684 270.016 182.068 270.016H179.534ZM178.428 273.712V263.912H180.038V273.712H178.428ZM186.667 273.712V266.992H188.207V273.712H186.667ZM188.207 269.974L187.675 269.708C187.675 268.859 187.862 268.173 188.235 267.65C188.618 267.118 189.192 266.852 189.957 266.852C190.293 266.852 190.597 266.913 190.867 267.034C191.138 267.156 191.39 267.352 191.623 267.622L190.615 268.658C190.494 268.528 190.359 268.434 190.209 268.378C190.06 268.322 189.887 268.294 189.691 268.294C189.262 268.294 188.907 268.43 188.627 268.7C188.347 268.971 188.207 269.396 188.207 269.974ZM192.383 273.712V266.992H193.923V273.712H192.383ZM193.153 265.76C192.891 265.76 192.672 265.672 192.495 265.494C192.327 265.317 192.243 265.098 192.243 264.836C192.243 264.575 192.327 264.356 192.495 264.178C192.672 264.001 192.891 263.912 193.153 263.912C193.423 263.912 193.643 264.001 193.811 264.178C193.979 264.356 194.063 264.575 194.063 264.836C194.063 265.098 193.979 265.317 193.811 265.494C193.643 265.672 193.423 265.76 193.153 265.76ZM195.65 273.712V266.992H197.19V273.712H195.65ZM200.116 273.712V269.708C200.116 269.26 199.976 268.915 199.696 268.672C199.416 268.42 199.071 268.294 198.66 268.294C198.38 268.294 198.128 268.35 197.904 268.462C197.689 268.574 197.517 268.738 197.386 268.952C197.255 269.158 197.19 269.41 197.19 269.708L196.588 269.372C196.588 268.859 196.7 268.416 196.924 268.042C197.148 267.669 197.451 267.38 197.834 267.174C198.217 266.96 198.646 266.852 199.122 266.852C199.598 266.852 200.027 266.955 200.41 267.16C200.793 267.366 201.096 267.655 201.32 268.028C201.544 268.402 201.656 268.85 201.656 269.372V273.712H200.116ZM204.582 273.712V269.708C204.582 269.26 204.442 268.915 204.162 268.672C203.882 268.42 203.537 268.294 203.126 268.294C202.855 268.294 202.608 268.35 202.384 268.462C202.16 268.574 201.983 268.738 201.852 268.952C201.721 269.158 201.656 269.41 201.656 269.708L200.788 269.372C200.835 268.859 200.984 268.416 201.236 268.042C201.488 267.669 201.81 267.38 202.202 267.174C202.603 266.96 203.042 266.852 203.518 266.852C204.003 266.852 204.442 266.955 204.834 267.16C205.226 267.366 205.539 267.655 205.772 268.028C206.005 268.402 206.122 268.85 206.122 269.372V273.712H204.582ZM210.522 273.852C209.916 273.852 209.365 273.698 208.87 273.39C208.385 273.082 207.998 272.667 207.708 272.144C207.428 271.612 207.288 271.02 207.288 270.366C207.288 269.704 207.428 269.111 207.708 268.588C207.998 268.056 208.385 267.636 208.87 267.328C209.365 267.011 209.916 266.852 210.522 266.852C211.036 266.852 211.488 266.964 211.88 267.188C212.282 267.403 212.599 267.702 212.832 268.084C213.066 268.467 213.182 268.901 213.182 269.386V271.318C213.182 271.804 213.066 272.238 212.832 272.62C212.608 273.003 212.296 273.306 211.894 273.53C211.493 273.745 211.036 273.852 210.522 273.852ZM210.774 272.396C211.344 272.396 211.801 272.205 212.146 271.822C212.501 271.44 212.678 270.95 212.678 270.352C212.678 269.951 212.599 269.596 212.44 269.288C212.282 268.98 212.058 268.742 211.768 268.574C211.488 268.397 211.157 268.308 210.774 268.308C210.401 268.308 210.07 268.397 209.78 268.574C209.5 268.742 209.276 268.98 209.108 269.288C208.95 269.596 208.87 269.951 208.87 270.352C208.87 270.754 208.95 271.108 209.108 271.416C209.276 271.724 209.5 271.967 209.78 272.144C210.07 272.312 210.401 272.396 210.774 272.396ZM212.58 273.712V271.906L212.846 270.268L212.58 268.644V266.992H214.12V273.712H212.58ZM215.83 273.712V266.992H217.37V273.712H215.83ZM217.37 269.974L216.838 269.708C216.838 268.859 217.024 268.173 217.398 267.65C217.78 267.118 218.354 266.852 219.12 266.852C219.456 266.852 219.759 266.913 220.03 267.034C220.3 267.156 220.552 267.352 220.786 267.622L219.778 268.658C219.656 268.528 219.521 268.434 219.372 268.378C219.222 268.322 219.05 268.294 218.854 268.294C218.424 268.294 218.07 268.43 217.79 268.7C217.51 268.971 217.37 269.396 217.37 269.974ZM223.605 273.782L220.735 266.992H222.429L224.389 271.976H223.899L225.971 266.992H227.679L224.557 273.782H223.605ZM221.603 276.512L223.689 272.214L224.557 273.782L223.311 276.512H221.603ZM234.298 273.852C233.691 273.852 233.141 273.698 232.646 273.39C232.161 273.082 231.773 272.667 231.484 272.144C231.204 271.612 231.064 271.02 231.064 270.366C231.064 269.704 231.204 269.111 231.484 268.588C231.773 268.056 232.161 267.636 232.646 267.328C233.141 267.011 233.691 266.852 234.298 266.852C234.811 266.852 235.264 266.964 235.656 267.188C236.057 267.403 236.375 267.702 236.608 268.084C236.841 268.467 236.958 268.901 236.958 269.386V271.318C236.958 271.804 236.841 272.238 236.608 272.62C236.384 273.003 236.071 273.306 235.67 273.53C235.269 273.745 234.811 273.852 234.298 273.852ZM234.55 272.396C235.119 272.396 235.577 272.205 235.922 271.822C236.277 271.44 236.454 270.95 236.454 270.352C236.454 269.951 236.375 269.596 236.216 269.288C236.057 268.98 235.833 268.742 235.544 268.574C235.264 268.397 234.933 268.308 234.55 268.308C234.177 268.308 233.845 268.397 233.556 268.574C233.276 268.742 233.052 268.98 232.884 269.288C232.725 269.596 232.646 269.951 232.646 270.352C232.646 270.754 232.725 271.108 232.884 271.416C233.052 271.724 233.276 271.967 233.556 272.144C233.845 272.312 234.177 272.396 234.55 272.396ZM236.356 273.712V271.906L236.622 270.268L236.356 268.644V266.992H237.896V273.712H236.356ZM242.699 273.852C242.036 273.852 241.434 273.698 240.893 273.39C240.361 273.082 239.941 272.662 239.633 272.13C239.325 271.598 239.171 271.006 239.171 270.352C239.171 269.69 239.325 269.097 239.633 268.574C239.941 268.042 240.361 267.622 240.893 267.314C241.434 267.006 242.036 266.852 242.699 266.852C243.222 266.852 243.707 266.955 244.155 267.16C244.612 267.356 245 267.641 245.317 268.014L244.309 269.036C244.113 268.803 243.875 268.63 243.595 268.518C243.324 268.397 243.026 268.336 242.699 268.336C242.316 268.336 241.976 268.425 241.677 268.602C241.388 268.77 241.159 269.004 240.991 269.302C240.832 269.601 240.753 269.951 240.753 270.352C240.753 270.744 240.832 271.094 240.991 271.402C241.159 271.701 241.388 271.939 241.677 272.116C241.976 272.284 242.316 272.368 242.699 272.368C243.026 272.368 243.324 272.312 243.595 272.2C243.875 272.079 244.113 271.902 244.309 271.668L245.317 272.69C245 273.064 244.612 273.353 244.155 273.558C243.707 273.754 243.222 273.852 242.699 273.852ZM247.34 273.712V264.192H248.88V273.712H247.34ZM245.73 268.392V266.992H250.49V268.392H245.73ZM251.623 273.712V266.992H253.163V273.712H251.623ZM252.393 265.76C252.132 265.76 251.912 265.672 251.735 265.494C251.567 265.317 251.483 265.098 251.483 264.836C251.483 264.575 251.567 264.356 251.735 264.178C251.912 264.001 252.132 263.912 252.393 263.912C252.664 263.912 252.883 264.001 253.051 264.178C253.219 264.356 253.303 264.575 253.303 264.836C253.303 265.098 253.219 265.317 253.051 265.494C252.883 265.672 252.664 265.76 252.393 265.76ZM257.97 273.852C257.317 273.852 256.724 273.698 256.192 273.39C255.66 273.073 255.235 272.648 254.918 272.116C254.61 271.584 254.456 270.992 254.456 270.338C254.456 269.685 254.61 269.097 254.918 268.574C255.235 268.052 255.66 267.636 256.192 267.328C256.724 267.011 257.317 266.852 257.97 266.852C258.633 266.852 259.23 267.006 259.762 267.314C260.294 267.622 260.714 268.042 261.022 268.574C261.339 269.097 261.498 269.685 261.498 270.338C261.498 270.992 261.339 271.584 261.022 272.116C260.714 272.648 260.294 273.073 259.762 273.39C259.23 273.698 258.633 273.852 257.97 273.852ZM257.97 272.368C258.353 272.368 258.689 272.284 258.978 272.116C259.277 271.939 259.505 271.696 259.664 271.388C259.832 271.08 259.916 270.73 259.916 270.338C259.916 269.946 259.832 269.601 259.664 269.302C259.496 269.004 259.267 268.77 258.978 268.602C258.689 268.425 258.353 268.336 257.97 268.336C257.597 268.336 257.261 268.425 256.962 268.602C256.673 268.77 256.444 269.004 256.276 269.302C256.117 269.601 256.038 269.946 256.038 270.338C256.038 270.73 256.117 271.08 256.276 271.388C256.444 271.696 256.673 271.939 256.962 272.116C257.261 272.284 257.597 272.368 257.97 272.368ZM267.385 273.712V269.834C267.385 269.386 267.24 269.018 266.951 268.728C266.671 268.439 266.307 268.294 265.859 268.294C265.56 268.294 265.294 268.36 265.061 268.49C264.827 268.621 264.645 268.803 264.515 269.036C264.384 269.27 264.319 269.536 264.319 269.834L263.717 269.498C263.717 268.985 263.829 268.532 264.053 268.14C264.277 267.739 264.585 267.426 264.977 267.202C265.378 266.969 265.826 266.852 266.321 266.852C266.825 266.852 267.273 266.983 267.665 267.244C268.057 267.496 268.365 267.828 268.589 268.238C268.813 268.64 268.925 269.06 268.925 269.498V273.712H267.385ZM262.779 273.712V266.992H264.319V273.712H262.779Z" fill="white"/>
<path d="M27.6062 324.016C27.6062 314.116 27.6062 309.166 30.6816 306.091C33.757 303.016 38.7067 303.016 48.6062 303.016H398.394C408.293 303.016 413.243 303.016 416.318 306.091C419.394 309.166 419.394 314.116 419.394 324.016V324.016C419.394 333.915 419.394 338.865 416.318 341.94C413.243 345.016 408.293 345.016 398.394 345.016H48.6062C38.7067 345.016 33.757 345.016 30.6816 341.94C27.6062 338.865 27.6062 333.915 27.6062 324.016V324.016Z" fill="#15161A"/>
<path d="M173.112 329.656C172.338 329.656 171.68 329.516 171.138 329.236C170.597 328.956 170.112 328.545 169.682 328.004L170.774 326.912C171.045 327.304 171.367 327.612 171.74 327.836C172.114 328.05 172.59 328.158 173.168 328.158C173.71 328.158 174.139 328.046 174.456 327.822C174.783 327.598 174.946 327.29 174.946 326.898C174.946 326.571 174.862 326.305 174.694 326.1C174.526 325.894 174.302 325.726 174.022 325.596C173.752 325.456 173.448 325.334 173.112 325.232C172.786 325.12 172.454 324.998 172.118 324.868C171.792 324.728 171.488 324.555 171.208 324.35C170.938 324.144 170.718 323.878 170.55 323.552C170.382 323.225 170.298 322.81 170.298 322.306C170.298 321.727 170.438 321.237 170.718 320.836C171.008 320.425 171.395 320.112 171.88 319.898C172.366 319.683 172.907 319.576 173.504 319.576C174.148 319.576 174.722 319.702 175.226 319.954C175.74 320.206 176.155 320.528 176.472 320.92L175.38 322.012C175.1 321.694 174.806 321.461 174.498 321.312C174.2 321.153 173.854 321.074 173.462 321.074C172.977 321.074 172.594 321.172 172.314 321.368C172.044 321.564 171.908 321.839 171.908 322.194C171.908 322.492 171.992 322.735 172.16 322.922C172.328 323.099 172.548 323.253 172.818 323.384C173.098 323.505 173.402 323.622 173.728 323.734C174.064 323.846 174.396 323.972 174.722 324.112C175.058 324.252 175.362 324.434 175.632 324.658C175.912 324.872 176.136 325.152 176.304 325.498C176.472 325.843 176.556 326.277 176.556 326.8C176.556 327.677 176.244 328.372 175.618 328.886C175.002 329.399 174.167 329.656 173.112 329.656ZM180.992 329.656C180.32 329.656 179.713 329.506 179.172 329.208C178.64 328.9 178.215 328.48 177.898 327.948C177.59 327.416 177.436 326.818 177.436 326.156C177.436 325.493 177.59 324.9 177.898 324.378C178.206 323.846 178.621 323.426 179.144 323.118C179.676 322.81 180.264 322.656 180.908 322.656C181.533 322.656 182.084 322.8 182.56 323.09C183.045 323.379 183.423 323.776 183.694 324.28C183.974 324.784 184.114 325.358 184.114 326.002C184.114 326.114 184.104 326.23 184.086 326.352C184.076 326.464 184.058 326.59 184.03 326.73H178.514V325.47H183.232L182.658 325.974C182.639 325.563 182.56 325.218 182.42 324.938C182.28 324.658 182.079 324.443 181.818 324.294C181.566 324.144 181.253 324.07 180.88 324.07C180.488 324.07 180.147 324.154 179.858 324.322C179.568 324.49 179.344 324.728 179.186 325.036C179.027 325.334 178.948 325.694 178.948 326.114C178.948 326.534 179.032 326.902 179.2 327.22C179.368 327.537 179.606 327.784 179.914 327.962C180.222 328.13 180.576 328.214 180.978 328.214C181.323 328.214 181.64 328.153 181.93 328.032C182.228 327.91 182.48 327.733 182.686 327.5L183.666 328.494C183.339 328.876 182.942 329.166 182.476 329.362C182.009 329.558 181.514 329.656 180.992 329.656ZM188.442 329.656C187.779 329.656 187.177 329.502 186.636 329.194C186.104 328.886 185.684 328.466 185.376 327.934C185.068 327.402 184.914 326.809 184.914 326.156C184.914 325.493 185.068 324.9 185.376 324.378C185.684 323.846 186.104 323.426 186.636 323.118C187.177 322.81 187.779 322.656 188.442 322.656C188.965 322.656 189.45 322.758 189.898 322.964C190.355 323.16 190.743 323.444 191.06 323.818L190.052 324.84C189.856 324.606 189.618 324.434 189.338 324.322C189.067 324.2 188.769 324.14 188.442 324.14C188.059 324.14 187.719 324.228 187.42 324.406C187.131 324.574 186.902 324.807 186.734 325.106C186.575 325.404 186.496 325.754 186.496 326.156C186.496 326.548 186.575 326.898 186.734 327.206C186.902 327.504 187.131 327.742 187.42 327.92C187.719 328.088 188.059 328.172 188.442 328.172C188.769 328.172 189.067 328.116 189.338 328.004C189.618 327.882 189.856 327.705 190.052 327.472L191.06 328.494C190.743 328.867 190.355 329.156 189.898 329.362C189.45 329.558 188.965 329.656 188.442 329.656ZM195.114 329.656C194.46 329.656 193.868 329.502 193.336 329.194C192.804 328.876 192.379 328.452 192.062 327.92C191.754 327.388 191.6 326.795 191.6 326.142C191.6 325.488 191.754 324.9 192.062 324.378C192.379 323.855 192.804 323.44 193.336 323.132C193.868 322.814 194.46 322.656 195.114 322.656C195.776 322.656 196.374 322.81 196.906 323.118C197.438 323.426 197.858 323.846 198.166 324.378C198.483 324.9 198.642 325.488 198.642 326.142C198.642 326.795 198.483 327.388 198.166 327.92C197.858 328.452 197.438 328.876 196.906 329.194C196.374 329.502 195.776 329.656 195.114 329.656ZM195.114 328.172C195.496 328.172 195.832 328.088 196.122 327.92C196.42 327.742 196.649 327.5 196.808 327.192C196.976 326.884 197.06 326.534 197.06 326.142C197.06 325.75 196.976 325.404 196.808 325.106C196.64 324.807 196.411 324.574 196.122 324.406C195.832 324.228 195.496 324.14 195.114 324.14C194.74 324.14 194.404 324.228 194.106 324.406C193.816 324.574 193.588 324.807 193.42 325.106C193.261 325.404 193.182 325.75 193.182 326.142C193.182 326.534 193.261 326.884 193.42 327.192C193.588 327.5 193.816 327.742 194.106 327.92C194.404 328.088 194.74 328.172 195.114 328.172ZM204.528 329.516V325.638C204.528 325.19 204.384 324.821 204.094 324.532C203.814 324.242 203.45 324.098 203.002 324.098C202.704 324.098 202.438 324.163 202.204 324.294C201.971 324.424 201.789 324.606 201.658 324.84C201.528 325.073 201.462 325.339 201.462 325.638L200.86 325.302C200.86 324.788 200.972 324.336 201.196 323.944C201.42 323.542 201.728 323.23 202.12 323.006C202.522 322.772 202.97 322.656 203.464 322.656C203.968 322.656 204.416 322.786 204.808 323.048C205.2 323.3 205.508 323.631 205.732 324.042C205.956 324.443 206.068 324.863 206.068 325.302V329.516H204.528ZM199.922 329.516V322.796H201.462V329.516H199.922ZM210.447 329.656C209.841 329.656 209.29 329.502 208.795 329.194C208.31 328.886 207.923 328.47 207.633 327.948C207.353 327.416 207.213 326.823 207.213 326.17C207.213 325.507 207.353 324.914 207.633 324.392C207.923 323.86 208.31 323.44 208.795 323.132C209.29 322.814 209.841 322.656 210.447 322.656C210.961 322.656 211.413 322.768 211.805 322.992C212.207 323.206 212.524 323.505 212.757 323.888C212.991 324.27 213.107 324.704 213.107 325.19V327.122C213.107 327.607 212.991 328.041 212.757 328.424C212.533 328.806 212.221 329.11 211.819 329.334C211.418 329.548 210.961 329.656 210.447 329.656ZM210.699 328.2C211.082 328.2 211.413 328.116 211.693 327.948C211.983 327.77 212.207 327.528 212.365 327.22C212.524 326.912 212.603 326.557 212.603 326.156C212.603 325.754 212.524 325.4 212.365 325.092C212.207 324.784 211.983 324.546 211.693 324.378C211.413 324.2 211.082 324.112 210.699 324.112C210.326 324.112 209.995 324.2 209.705 324.378C209.425 324.546 209.201 324.784 209.033 325.092C208.875 325.4 208.795 325.754 208.795 326.156C208.795 326.557 208.875 326.912 209.033 327.22C209.201 327.528 209.425 327.77 209.705 327.948C209.995 328.116 210.326 328.2 210.699 328.2ZM214.045 329.516H212.505V327.71L212.771 326.072L212.505 324.448V319.436H214.045V329.516ZM218.568 329.656C217.962 329.656 217.411 329.502 216.916 329.194C216.431 328.886 216.044 328.47 215.754 327.948C215.474 327.416 215.334 326.823 215.334 326.17C215.334 325.507 215.474 324.914 215.754 324.392C216.044 323.86 216.431 323.44 216.916 323.132C217.411 322.814 217.962 322.656 218.568 322.656C219.082 322.656 219.534 322.768 219.926 322.992C220.328 323.206 220.645 323.505 220.878 323.888C221.112 324.27 221.228 324.704 221.228 325.19V327.122C221.228 327.607 221.112 328.041 220.878 328.424C220.654 328.806 220.342 329.11 219.94 329.334C219.539 329.548 219.082 329.656 218.568 329.656ZM218.82 328.2C219.39 328.2 219.847 328.008 220.192 327.626C220.547 327.243 220.724 326.753 220.724 326.156C220.724 325.754 220.645 325.4 220.486 325.092C220.328 324.784 220.104 324.546 219.814 324.378C219.534 324.2 219.203 324.112 218.82 324.112C218.447 324.112 218.116 324.2 217.826 324.378C217.546 324.546 217.322 324.784 217.154 325.092C216.996 325.4 216.916 325.754 216.916 326.156C216.916 326.557 216.996 326.912 217.154 327.22C217.322 327.528 217.546 327.77 217.826 327.948C218.116 328.116 218.447 328.2 218.82 328.2ZM220.626 329.516V327.71L220.892 326.072L220.626 324.448V322.796H222.166V329.516H220.626ZM223.875 329.516V322.796H225.415V329.516H223.875ZM225.415 325.778L224.883 325.512C224.883 324.662 225.07 323.976 225.443 323.454C225.826 322.922 226.4 322.656 227.165 322.656C227.501 322.656 227.805 322.716 228.075 322.838C228.346 322.959 228.598 323.155 228.831 323.426L227.823 324.462C227.702 324.331 227.567 324.238 227.417 324.182C227.268 324.126 227.095 324.098 226.899 324.098C226.47 324.098 226.115 324.233 225.835 324.504C225.555 324.774 225.415 325.199 225.415 325.778ZM231.651 329.586L228.781 322.796H230.475L232.435 327.78H231.945L234.017 322.796H235.725L232.603 329.586H231.651ZM229.649 332.316L231.735 328.018L232.603 329.586L231.357 332.316H229.649ZM242.344 329.656C241.737 329.656 241.186 329.502 240.692 329.194C240.206 328.886 239.819 328.47 239.53 327.948C239.25 327.416 239.11 326.823 239.11 326.17C239.11 325.507 239.25 324.914 239.53 324.392C239.819 323.86 240.206 323.44 240.692 323.132C241.186 322.814 241.737 322.656 242.344 322.656C242.857 322.656 243.31 322.768 243.702 322.992C244.103 323.206 244.42 323.505 244.654 323.888C244.887 324.27 245.004 324.704 245.004 325.19V327.122C245.004 327.607 244.887 328.041 244.654 328.424C244.43 328.806 244.117 329.11 243.716 329.334C243.314 329.548 242.857 329.656 242.344 329.656ZM242.596 328.2C243.165 328.2 243.622 328.008 243.968 327.626C244.322 327.243 244.5 326.753 244.5 326.156C244.5 325.754 244.42 325.4 244.262 325.092C244.103 324.784 243.879 324.546 243.59 324.378C243.31 324.2 242.978 324.112 242.596 324.112C242.222 324.112 241.891 324.2 241.602 324.378C241.322 324.546 241.098 324.784 240.93 325.092C240.771 325.4 240.692 325.754 240.692 326.156C240.692 326.557 240.771 326.912 240.93 327.22C241.098 327.528 241.322 327.77 241.602 327.948C241.891 328.116 242.222 328.2 242.596 328.2ZM244.402 329.516V327.71L244.668 326.072L244.402 324.448V322.796H245.942V329.516H244.402ZM250.745 329.656C250.082 329.656 249.48 329.502 248.939 329.194C248.407 328.886 247.987 328.466 247.679 327.934C247.371 327.402 247.217 326.809 247.217 326.156C247.217 325.493 247.371 324.9 247.679 324.378C247.987 323.846 248.407 323.426 248.939 323.118C249.48 322.81 250.082 322.656 250.745 322.656C251.268 322.656 251.753 322.758 252.201 322.964C252.658 323.16 253.046 323.444 253.363 323.818L252.355 324.84C252.159 324.606 251.921 324.434 251.641 324.322C251.37 324.2 251.072 324.14 250.745 324.14C250.362 324.14 250.022 324.228 249.723 324.406C249.434 324.574 249.205 324.807 249.037 325.106C248.878 325.404 248.799 325.754 248.799 326.156C248.799 326.548 248.878 326.898 249.037 327.206C249.205 327.504 249.434 327.742 249.723 327.92C250.022 328.088 250.362 328.172 250.745 328.172C251.072 328.172 251.37 328.116 251.641 328.004C251.921 327.882 252.159 327.705 252.355 327.472L253.363 328.494C253.046 328.867 252.658 329.156 252.201 329.362C251.753 329.558 251.268 329.656 250.745 329.656ZM255.386 329.516V319.996H256.926V329.516H255.386ZM253.776 324.196V322.796H258.536V324.196H253.776ZM259.669 329.516V322.796H261.209V329.516H259.669ZM260.439 321.564C260.177 321.564 259.958 321.475 259.781 321.298C259.613 321.12 259.529 320.901 259.529 320.64C259.529 320.378 259.613 320.159 259.781 319.982C259.958 319.804 260.177 319.716 260.439 319.716C260.709 319.716 260.929 319.804 261.097 319.982C261.265 320.159 261.349 320.378 261.349 320.64C261.349 320.901 261.265 321.12 261.097 321.298C260.929 321.475 260.709 321.564 260.439 321.564ZM266.016 329.656C265.363 329.656 264.77 329.502 264.238 329.194C263.706 328.876 263.281 328.452 262.964 327.92C262.656 327.388 262.502 326.795 262.502 326.142C262.502 325.488 262.656 324.9 262.964 324.378C263.281 323.855 263.706 323.44 264.238 323.132C264.77 322.814 265.363 322.656 266.016 322.656C266.679 322.656 267.276 322.81 267.808 323.118C268.34 323.426 268.76 323.846 269.068 324.378C269.385 324.9 269.544 325.488 269.544 326.142C269.544 326.795 269.385 327.388 269.068 327.92C268.76 328.452 268.34 328.876 267.808 329.194C267.276 329.502 266.679 329.656 266.016 329.656ZM266.016 328.172C266.399 328.172 266.735 328.088 267.024 327.92C267.323 327.742 267.551 327.5 267.71 327.192C267.878 326.884 267.962 326.534 267.962 326.142C267.962 325.75 267.878 325.404 267.71 325.106C267.542 324.807 267.313 324.574 267.024 324.406C266.735 324.228 266.399 324.14 266.016 324.14C265.643 324.14 265.307 324.228 265.008 324.406C264.719 324.574 264.49 324.807 264.322 325.106C264.163 325.404 264.084 325.75 264.084 326.142C264.084 326.534 264.163 326.884 264.322 327.192C264.49 327.5 264.719 327.742 265.008 327.92C265.307 328.088 265.643 328.172 266.016 328.172ZM275.431 329.516V325.638C275.431 325.19 275.286 324.821 274.997 324.532C274.717 324.242 274.353 324.098 273.905 324.098C273.606 324.098 273.34 324.163 273.107 324.294C272.873 324.424 272.691 324.606 272.561 324.84C272.43 325.073 272.365 325.339 272.365 325.638L271.763 325.302C271.763 324.788 271.875 324.336 272.099 323.944C272.323 323.542 272.631 323.23 273.023 323.006C273.424 322.772 273.872 322.656 274.367 322.656C274.871 322.656 275.319 322.786 275.711 323.048C276.103 323.3 276.411 323.631 276.635 324.042C276.859 324.443 276.971 324.863 276.971 325.302V329.516H275.431ZM270.825 329.516V322.796H272.365V329.516H270.825Z" fill="#F1F2F4"/>
</g>
<rect x="0.862695" y="8.8627" width="445.275" height="362.896" rx="23.1373" stroke="#15161A" stroke-width="1.72539"/>
<defs>
<clipPath id="clip0_14317_653">
<rect y="8" width="447" height="364.622" rx="24" fill="white"/>
</clipPath>
</defs>
</svg>
