<svg width="620" height="355" viewBox="0 0 620 355" fill="none" xmlns="http://www.w3.org/2000/svg">
<rect width="620" height="355" fill="#2A2C35"/>
<rect width="572" height="307" transform="translate(24 24)" fill="#2A2C35"/>
<path d="M39.424 86V41.456H49.472V86H39.424ZM25.28 49.584V40.816H63.616V49.584H25.28ZM88.875 86V68.272C88.875 66.6507 88.363 65.3493 87.339 64.368C86.3577 63.344 85.099 62.832 83.563 62.832C82.4963 62.832 81.5577 63.0667 80.747 63.536C79.9363 63.9627 79.2963 64.6027 78.827 65.456C78.3577 66.2667 78.123 67.2053 78.123 68.272L74.347 66.416C74.347 63.984 74.859 61.8507 75.883 60.016C76.907 58.1813 78.3363 56.7733 80.171 55.792C82.0057 54.768 84.1177 54.256 86.507 54.256C88.939 54.256 91.0723 54.768 92.907 55.792C94.7417 56.7733 96.1497 58.16 97.131 59.952C98.155 61.7013 98.667 63.7493 98.667 66.096V86H88.875ZM68.331 86V39.536H78.123V86H68.331ZM120.316 86.704C116.945 86.704 113.937 86.0213 111.292 84.656C108.689 83.248 106.641 81.3067 105.148 78.832C103.655 76.3573 102.908 73.5627 102.908 70.448C102.908 67.3333 103.633 64.56 105.084 62.128C106.577 59.6533 108.583 57.712 111.1 56.304C113.617 54.896 116.455 54.192 119.612 54.192C122.684 54.192 125.393 54.8533 127.74 56.176C130.087 57.4987 131.921 59.3333 133.244 61.68C134.609 64.0267 135.292 66.7147 135.292 69.744C135.292 70.2987 135.249 70.896 135.164 71.536C135.121 72.1333 135.015 72.8373 134.844 73.648L108.028 73.712V66.992L130.684 66.928L126.46 69.744C126.417 67.952 126.14 66.48 125.628 65.328C125.116 64.1333 124.348 63.2373 123.324 62.64C122.343 62 121.127 61.68 119.676 61.68C118.14 61.68 116.796 62.0427 115.644 62.768C114.535 63.4507 113.66 64.432 113.02 65.712C112.423 66.992 112.124 68.5493 112.124 70.384C112.124 72.2187 112.444 73.7973 113.084 75.12C113.767 76.4 114.705 77.4027 115.9 78.128C117.137 78.8107 118.588 79.152 120.252 79.152C121.788 79.152 123.175 78.896 124.412 78.384C125.649 77.8293 126.737 77.0187 127.676 75.952L133.052 81.328C131.516 83.12 129.66 84.464 127.484 85.36C125.308 86.256 122.919 86.704 120.316 86.704ZM152.206 86V54.896H161.998V86H152.206ZM157.134 50.608C155.598 50.608 154.318 50.096 153.294 49.072C152.313 48.0053 151.822 46.7253 151.822 45.232C151.822 43.696 152.313 42.416 153.294 41.392C154.318 40.368 155.598 39.856 157.134 39.856C158.67 39.856 159.929 40.368 160.91 41.392C161.891 42.416 162.382 43.696 162.382 45.232C162.382 46.7253 161.891 48.0053 160.91 49.072C159.929 50.096 158.67 50.608 157.134 50.608ZM168.894 86V54.896H178.686V86H168.894ZM188.798 86V67.824C188.798 66.2453 188.307 65.0293 187.326 64.176C186.387 63.28 185.214 62.832 183.806 62.832C182.824 62.832 181.95 63.0453 181.182 63.472C180.414 63.856 179.795 64.4107 179.326 65.136C178.899 65.8613 178.686 66.7573 178.686 67.824L174.91 66.16C174.91 63.6853 175.443 61.5733 176.51 59.824C177.576 58.032 179.027 56.6667 180.862 55.728C182.696 54.7467 184.766 54.256 187.07 54.256C189.246 54.256 191.187 54.7467 192.894 55.728C194.643 56.7093 196.03 58.0747 197.054 59.824C198.078 61.5733 198.59 63.664 198.59 66.096V86H188.798ZM208.702 86V67.824C208.702 66.2453 208.211 65.0293 207.23 64.176C206.291 63.28 205.118 62.832 203.71 62.832C202.728 62.832 201.854 63.0453 201.086 63.472C200.318 63.856 199.699 64.4107 199.229 65.136C198.803 65.8613 198.59 66.7573 198.59 67.824L192.958 67.056C193.043 64.4107 193.662 62.1493 194.814 60.272C196.008 58.352 197.566 56.88 199.486 55.856C201.448 54.7893 203.646 54.256 206.078 54.256C208.467 54.256 210.579 54.768 212.414 55.792C214.291 56.7733 215.763 58.2027 216.83 60.08C217.939 61.9147 218.494 64.1333 218.494 66.736V86H208.702ZM242.689 86.64C240.598 86.64 238.678 86.2347 236.929 85.424C235.179 84.6133 233.75 83.504 232.641 82.096C231.531 80.6453 230.891 79.0027 230.72 77.168V64.048C230.891 62.2133 231.531 60.5493 232.641 59.056C233.75 57.5627 235.179 56.3893 236.929 55.536C238.678 54.6827 240.598 54.256 242.689 54.256C245.633 54.256 248.235 54.96 250.497 56.368C252.801 57.776 254.593 59.696 255.873 62.128C257.195 64.56 257.857 67.3333 257.857 70.448C257.857 73.5627 257.195 76.336 255.873 78.768C254.593 81.2 252.801 83.12 250.497 84.528C248.235 85.936 245.633 86.64 242.689 86.64ZM224.769 99.12V54.896H234.561V62.896L232.961 70.448L234.433 78V99.12H224.769ZM240.897 77.808C242.305 77.808 243.521 77.488 244.545 76.848C245.611 76.208 246.443 75.3333 247.041 74.224C247.638 73.1147 247.937 71.856 247.937 70.448C247.937 68.9973 247.638 67.7173 247.041 66.608C246.443 65.4987 245.611 64.6453 244.545 64.048C243.521 63.408 242.326 63.088 240.961 63.088C239.595 63.088 238.379 63.408 237.312 64.048C236.289 64.6453 235.478 65.4987 234.881 66.608C234.283 67.7173 233.985 68.9973 233.985 70.448C233.985 71.856 234.262 73.1147 234.817 74.224C235.414 75.3333 236.246 76.208 237.312 76.848C238.379 77.488 239.574 77.808 240.897 77.808ZM277.807 86.704C274.607 86.704 271.706 86 269.103 84.592C266.543 83.1413 264.516 81.1787 263.023 78.704C261.53 76.2293 260.783 73.456 260.783 70.384C260.783 67.312 261.53 64.56 263.023 62.128C264.516 59.696 266.543 57.776 269.103 56.368C271.663 54.9173 274.564 54.192 277.807 54.192C281.05 54.192 283.951 54.896 286.511 56.304C289.071 57.712 291.098 59.6533 292.591 62.128C294.084 64.56 294.831 67.312 294.831 70.384C294.831 73.456 294.084 76.2293 292.591 78.704C291.098 81.1787 289.071 83.1413 286.511 84.592C283.951 86 281.05 86.704 277.807 86.704ZM277.807 77.808C279.215 77.808 280.452 77.5093 281.519 76.912C282.586 76.272 283.396 75.3973 283.951 74.288C284.548 73.136 284.847 71.8347 284.847 70.384C284.847 68.9333 284.548 67.6747 283.951 66.608C283.354 65.4987 282.522 64.6453 281.455 64.048C280.431 63.408 279.215 63.088 277.807 63.088C276.442 63.088 275.226 63.408 274.159 64.048C273.092 64.6453 272.26 65.4987 271.663 66.608C271.066 67.7173 270.767 68.9973 270.767 70.448C270.767 71.856 271.066 73.136 271.663 74.288C272.26 75.3973 273.092 76.272 274.159 76.912C275.226 77.5093 276.442 77.808 277.807 77.808ZM299.706 86V54.896H309.498V86H299.706ZM309.498 68.912L305.402 65.712C306.213 62.0853 307.578 59.2693 309.498 57.264C311.418 55.2587 314.085 54.256 317.498 54.256C318.991 54.256 320.293 54.4907 321.402 54.96C322.554 55.3867 323.557 56.0693 324.41 57.008L318.586 64.368C318.159 63.8987 317.626 63.536 316.986 63.28C316.346 63.024 315.621 62.896 314.81 62.896C313.189 62.896 311.887 63.408 310.906 64.432C309.967 65.4133 309.498 66.9067 309.498 68.912ZM331.747 86V42.032H341.539V86H331.747ZM324.707 63.216V54.896H348.579V63.216H324.707ZM365.26 86.64C362.402 86.64 359.842 85.936 357.581 84.528C355.362 83.12 353.591 81.2 352.269 78.768C350.989 76.336 350.349 73.5627 350.349 70.448C350.349 67.3333 350.989 64.56 352.269 62.128C353.591 59.696 355.362 57.776 357.581 56.368C359.842 54.96 362.402 54.256 365.26 54.256C367.351 54.256 369.229 54.6613 370.893 55.472C372.599 56.2827 373.986 57.4133 375.053 58.864C376.119 60.272 376.717 61.8933 376.845 63.728V77.168C376.717 79.0027 376.119 80.6453 375.053 82.096C374.029 83.504 372.663 84.6133 370.957 85.424C369.25 86.2347 367.351 86.64 365.26 86.64ZM367.245 77.808C369.335 77.808 371.021 77.1253 372.301 75.76C373.581 74.352 374.221 72.5813 374.221 70.448C374.221 68.9973 373.922 67.7173 373.325 66.608C372.77 65.4987 371.959 64.6453 370.893 64.048C369.869 63.408 368.674 63.088 367.309 63.088C365.943 63.088 364.727 63.408 363.661 64.048C362.637 64.6453 361.805 65.4987 361.165 66.608C360.567 67.7173 360.269 68.9973 360.269 70.448C360.269 71.856 360.567 73.1147 361.165 74.224C361.762 75.3333 362.594 76.208 363.661 76.848C364.727 77.488 365.922 77.808 367.245 77.808ZM373.837 86V77.616L375.309 70.064L373.837 62.512V54.896H383.437V86H373.837ZM410.875 86V68.272C410.875 66.6507 410.363 65.3493 409.339 64.368C408.358 63.344 407.099 62.832 405.563 62.832C404.496 62.832 403.558 63.0667 402.747 63.536C401.936 63.9627 401.296 64.6027 400.827 65.456C400.358 66.2667 400.123 67.2053 400.123 68.272L396.347 66.416C396.347 63.984 396.88 61.8507 397.947 60.016C399.014 58.1813 400.486 56.7733 402.363 55.792C404.283 54.768 406.438 54.256 408.827 54.256C411.131 54.256 413.158 54.8107 414.907 55.92C416.699 56.9867 418.107 58.416 419.131 60.208C420.155 62 420.667 63.9627 420.667 66.096V86H410.875ZM390.331 86V54.896H400.123V86H390.331ZM441.996 86.704C438.796 86.704 435.895 86 433.292 84.592C430.689 83.184 428.641 81.2427 427.148 78.768C425.655 76.2933 424.908 73.52 424.908 70.448C424.908 67.3333 425.655 64.56 427.148 62.128C428.684 59.6533 430.753 57.712 433.356 56.304C435.959 54.896 438.881 54.192 442.124 54.192C444.556 54.192 446.775 54.6187 448.78 55.472C450.828 56.2827 452.641 57.52 454.22 59.184L447.948 65.456C447.223 64.6453 446.369 64.048 445.388 63.664C444.449 63.28 443.361 63.088 442.124 63.088C440.716 63.088 439.457 63.408 438.348 64.048C437.281 64.6453 436.428 65.4987 435.788 66.608C435.191 67.6747 434.892 68.9333 434.892 70.384C434.892 71.8347 435.191 73.1147 435.788 74.224C436.428 75.3333 437.303 76.208 438.412 76.848C439.521 77.488 440.759 77.808 442.124 77.808C443.404 77.808 444.535 77.5947 445.516 77.168C446.54 76.6987 447.415 76.0587 448.14 75.248L454.348 81.52C452.727 83.2267 450.892 84.528 448.844 85.424C446.796 86.2773 444.513 86.704 441.996 86.704ZM473.316 86.704C469.945 86.704 466.937 86.0213 464.292 84.656C461.689 83.248 459.641 81.3067 458.148 78.832C456.655 76.3573 455.908 73.5627 455.908 70.448C455.908 67.3333 456.633 64.56 458.084 62.128C459.577 59.6533 461.583 57.712 464.1 56.304C466.617 54.896 469.455 54.192 472.612 54.192C475.684 54.192 478.393 54.8533 480.74 56.176C483.087 57.4987 484.921 59.3333 486.244 61.68C487.609 64.0267 488.292 66.7147 488.292 69.744C488.292 70.2987 488.249 70.896 488.164 71.536C488.121 72.1333 488.015 72.8373 487.844 73.648L461.028 73.712V66.992L483.684 66.928L479.46 69.744C479.417 67.952 479.14 66.48 478.628 65.328C478.116 64.1333 477.348 63.2373 476.324 62.64C475.343 62 474.127 61.68 472.676 61.68C471.14 61.68 469.796 62.0427 468.644 62.768C467.535 63.4507 466.66 64.432 466.02 65.712C465.423 66.992 465.124 68.5493 465.124 70.384C465.124 72.2187 465.444 73.7973 466.084 75.12C466.767 76.4 467.705 77.4027 468.9 78.128C470.137 78.8107 471.588 79.152 473.252 79.152C474.788 79.152 476.175 78.896 477.412 78.384C478.649 77.8293 479.737 77.0187 480.676 75.952L486.052 81.328C484.516 83.12 482.66 84.464 480.484 85.36C478.308 86.256 475.919 86.704 473.316 86.704ZM42.432 163.704C39.232 163.704 36.3307 163 33.728 161.592C31.168 160.141 29.1413 158.179 27.648 155.704C26.1547 153.229 25.408 150.456 25.408 147.384C25.408 144.312 26.1547 141.56 27.648 139.128C29.1413 136.696 31.168 134.776 33.728 133.368C36.288 131.917 39.1893 131.192 42.432 131.192C45.6747 131.192 48.576 131.896 51.136 133.304C53.696 134.712 55.7227 136.653 57.216 139.128C58.7093 141.56 59.456 144.312 59.456 147.384C59.456 150.456 58.7093 153.229 57.216 155.704C55.7227 158.179 53.696 160.141 51.136 161.592C48.576 163 45.6747 163.704 42.432 163.704ZM42.432 154.808C43.84 154.808 45.0773 154.509 46.144 153.912C47.2107 153.272 48.0213 152.397 48.576 151.288C49.1733 150.136 49.472 148.835 49.472 147.384C49.472 145.933 49.1733 144.675 48.576 143.608C47.9787 142.499 47.1467 141.645 46.08 141.048C45.056 140.408 43.84 140.088 42.432 140.088C41.0667 140.088 39.8507 140.408 38.784 141.048C37.7173 141.645 36.8853 142.499 36.288 143.608C35.6907 144.717 35.392 145.997 35.392 147.448C35.392 148.856 35.6907 150.136 36.288 151.288C36.8853 152.397 37.7173 153.272 38.784 153.912C39.8507 154.509 41.0667 154.808 42.432 154.808ZM67.674 163V129.208C67.674 126.691 68.2287 124.429 69.338 122.424C70.49 120.376 72.09 118.776 74.138 117.624C76.186 116.429 78.618 115.832 81.434 115.832C83.5673 115.832 85.4233 116.195 87.002 116.92C88.6233 117.603 90.0313 118.563 91.226 119.8L85.082 125.944C84.6553 125.517 84.1647 125.197 83.61 124.984C83.098 124.728 82.4793 124.6 81.754 124.6C80.4313 124.6 79.386 124.984 78.618 125.752C77.85 126.52 77.466 127.565 77.466 128.888V163H67.674ZM60.826 140.216V131.896H86.426V140.216H60.826ZM108.185 163V119.032H117.977V163H108.185ZM101.145 140.216V131.896H125.017V140.216H101.145ZM138.931 163.128L126.131 131.896H136.691L144.819 156.664H140.915L149.235 131.896H159.795L146.483 163.128H138.931ZM130.931 176.12L140.275 155.96L146.483 163.128L140.979 176.12H130.931ZM180.689 163.64C178.598 163.64 176.678 163.235 174.929 162.424C173.179 161.613 171.75 160.504 170.641 159.096C169.531 157.645 168.891 156.003 168.72 154.168V141.048C168.891 139.213 169.531 137.549 170.641 136.056C171.75 134.563 173.179 133.389 174.929 132.536C176.678 131.683 178.598 131.256 180.689 131.256C183.633 131.256 186.235 131.96 188.497 133.368C190.801 134.776 192.593 136.696 193.873 139.128C195.195 141.56 195.857 144.333 195.857 147.448C195.857 150.563 195.195 153.336 193.873 155.768C192.593 158.2 190.801 160.12 188.497 161.528C186.235 162.936 183.633 163.64 180.689 163.64ZM162.769 176.12V131.896H172.561V139.896L170.961 147.448L172.433 155V176.12H162.769ZM178.897 154.808C180.305 154.808 181.521 154.488 182.545 153.848C183.611 153.208 184.443 152.333 185.041 151.224C185.638 150.115 185.937 148.856 185.937 147.448C185.937 145.997 185.638 144.717 185.041 143.608C184.443 142.499 183.611 141.645 182.545 141.048C181.521 140.408 180.326 140.088 178.961 140.088C177.595 140.088 176.379 140.408 175.312 141.048C174.289 141.645 173.478 142.499 172.881 143.608C172.283 144.717 171.985 145.997 171.985 147.448C171.985 148.856 172.262 150.115 172.817 151.224C173.414 152.333 174.246 153.208 175.312 153.848C176.379 154.488 177.574 154.808 178.897 154.808ZM215.807 163.704C212.607 163.704 209.706 163 207.103 161.592C204.543 160.141 202.516 158.179 201.023 155.704C199.53 153.229 198.783 150.456 198.783 147.384C198.783 144.312 199.53 141.56 201.023 139.128C202.516 136.696 204.543 134.776 207.103 133.368C209.663 131.917 212.564 131.192 215.807 131.192C219.05 131.192 221.951 131.896 224.511 133.304C227.071 134.712 229.098 136.653 230.591 139.128C232.084 141.56 232.831 144.312 232.831 147.384C232.831 150.456 232.084 153.229 230.591 155.704C229.098 158.179 227.071 160.141 224.511 161.592C221.951 163 219.05 163.704 215.807 163.704ZM215.807 154.808C217.215 154.808 218.452 154.509 219.519 153.912C220.586 153.272 221.396 152.397 221.951 151.288C222.548 150.136 222.847 148.835 222.847 147.384C222.847 145.933 222.548 144.675 221.951 143.608C221.354 142.499 220.522 141.645 219.455 141.048C218.431 140.408 217.215 140.088 215.807 140.088C214.442 140.088 213.226 140.408 212.159 141.048C211.092 141.645 210.26 142.499 209.663 143.608C209.066 144.717 208.767 145.997 208.767 147.448C208.767 148.856 209.066 150.136 209.663 151.288C210.26 152.397 211.092 153.272 212.159 153.912C213.226 154.509 214.442 154.808 215.807 154.808ZM250.89 176.952C247.477 176.952 244.469 176.355 241.866 175.16C239.306 174.008 237.279 172.365 235.786 170.232L241.802 164.216C242.911 165.539 244.149 166.541 245.514 167.224C246.922 167.907 248.607 168.248 250.57 168.248C253.002 168.248 254.901 167.651 256.266 166.456C257.674 165.261 258.378 163.576 258.378 161.4V153.464L260.042 146.68L258.57 139.896V131.896H268.17V161.144C268.17 164.344 267.423 167.117 265.93 169.464C264.437 171.811 262.389 173.645 259.786 174.968C257.183 176.291 254.218 176.952 250.89 176.952ZM250.442 162.04C247.583 162.04 245.045 161.357 242.826 159.992C240.607 158.627 238.858 156.771 237.578 154.424C236.298 152.077 235.658 149.475 235.658 146.616C235.658 143.715 236.298 141.112 237.578 138.808C238.858 136.461 240.607 134.627 242.826 133.304C245.045 131.939 247.583 131.256 250.442 131.256C252.575 131.256 254.474 131.661 256.138 132.472C257.845 133.24 259.21 134.349 260.234 135.8C261.301 137.208 261.898 138.851 262.026 140.728V152.568C261.898 154.403 261.301 156.045 260.234 157.496C259.21 158.904 257.845 160.013 256.138 160.824C254.431 161.635 252.533 162.04 250.442 162.04ZM252.298 153.336C253.663 153.336 254.837 153.037 255.818 152.44C256.842 151.843 257.61 151.053 258.122 150.072C258.677 149.048 258.954 147.896 258.954 146.616C258.954 145.336 258.677 144.184 258.122 143.16C257.61 142.136 256.842 141.325 255.818 140.728C254.837 140.131 253.663 139.832 252.298 139.832C250.975 139.832 249.802 140.131 248.778 140.728C247.754 141.325 246.965 142.136 246.41 143.16C245.855 144.184 245.578 145.336 245.578 146.616C245.578 147.811 245.855 148.941 246.41 150.008C246.965 151.032 247.733 151.843 248.714 152.44C249.738 153.037 250.933 153.336 252.298 153.336ZM275.081 163V131.896H284.873V163H275.081ZM284.873 145.912L280.777 142.712C281.588 139.085 282.953 136.269 284.873 134.264C286.793 132.259 289.46 131.256 292.873 131.256C294.366 131.256 295.668 131.491 296.777 131.96C297.929 132.387 298.932 133.069 299.785 134.008L293.961 141.368C293.534 140.899 293.001 140.536 292.361 140.28C291.721 140.024 290.996 139.896 290.185 139.896C288.564 139.896 287.262 140.408 286.281 141.432C285.342 142.413 284.873 143.907 284.873 145.912ZM314.51 163.64C311.652 163.64 309.092 162.936 306.831 161.528C304.612 160.12 302.841 158.2 301.519 155.768C300.239 153.336 299.599 150.563 299.599 147.448C299.599 144.333 300.239 141.56 301.519 139.128C302.841 136.696 304.612 134.776 306.831 133.368C309.092 131.96 311.652 131.256 314.51 131.256C316.601 131.256 318.479 131.661 320.143 132.472C321.849 133.283 323.236 134.413 324.303 135.864C325.369 137.272 325.967 138.893 326.095 140.728V154.168C325.967 156.003 325.369 157.645 324.303 159.096C323.279 160.504 321.913 161.613 320.207 162.424C318.5 163.235 316.601 163.64 314.51 163.64ZM316.495 154.808C318.585 154.808 320.271 154.125 321.551 152.76C322.831 151.352 323.471 149.581 323.471 147.448C323.471 145.997 323.172 144.717 322.575 143.608C322.02 142.499 321.209 141.645 320.143 141.048C319.119 140.408 317.924 140.088 316.559 140.088C315.193 140.088 313.977 140.408 312.911 141.048C311.887 141.645 311.055 142.499 310.415 143.608C309.817 144.717 309.519 145.997 309.519 147.448C309.519 148.856 309.817 150.115 310.415 151.224C311.012 152.333 311.844 153.208 312.911 153.848C313.977 154.488 315.172 154.808 316.495 154.808ZM323.087 163V154.616L324.559 147.064L323.087 139.512V131.896H332.687V163H323.087ZM357.501 163.64C355.41 163.64 353.49 163.235 351.741 162.424C349.992 161.613 348.562 160.504 347.453 159.096C346.344 157.645 345.704 156.003 345.533 154.168V141.048C345.704 139.213 346.344 137.549 347.453 136.056C348.562 134.563 349.992 133.389 351.741 132.536C353.49 131.683 355.41 131.256 357.501 131.256C360.445 131.256 363.048 131.96 365.309 133.368C367.613 134.776 369.405 136.696 370.685 139.128C372.008 141.56 372.669 144.333 372.669 147.448C372.669 150.563 372.008 153.336 370.685 155.768C369.405 158.2 367.613 160.12 365.309 161.528C363.048 162.936 360.445 163.64 357.501 163.64ZM339.581 176.12V131.896H349.373V139.896L347.773 147.448L349.245 155V176.12H339.581ZM355.709 154.808C357.117 154.808 358.333 154.488 359.357 153.848C360.424 153.208 361.256 152.333 361.853 151.224C362.45 150.115 362.749 148.856 362.749 147.448C362.749 145.997 362.45 144.717 361.853 143.608C361.256 142.499 360.424 141.645 359.357 141.048C358.333 140.408 357.138 140.088 355.773 140.088C354.408 140.088 353.192 140.408 352.125 141.048C351.101 141.645 350.29 142.499 349.693 143.608C349.096 144.717 348.797 145.997 348.797 147.448C348.797 148.856 349.074 150.115 349.629 151.224C350.226 152.333 351.058 153.208 352.125 153.848C353.192 154.488 354.386 154.808 355.709 154.808ZM398.188 163V145.272C398.188 143.651 397.676 142.349 396.652 141.368C395.67 140.344 394.412 139.832 392.876 139.832C391.809 139.832 390.87 140.067 390.06 140.536C389.249 140.963 388.609 141.603 388.14 142.456C387.67 143.267 387.436 144.205 387.436 145.272L383.66 143.416C383.66 140.984 384.172 138.851 385.196 137.016C386.22 135.181 387.649 133.773 389.484 132.792C391.318 131.768 393.43 131.256 395.82 131.256C398.252 131.256 400.385 131.768 402.22 132.792C404.054 133.773 405.462 135.16 406.444 136.952C407.468 138.701 407.979 140.749 407.979 143.096V163H398.188ZM377.644 163V116.536H387.436V163H377.644ZM423.869 163.128L411.069 131.896H421.629L429.757 156.664H425.853L434.173 131.896H444.733L431.421 163.128H423.869ZM415.869 176.12L425.213 155.96L431.421 163.128L425.917 176.12H415.869Z" fill="#F1F2F4"/>
<path d="M29.32 211V197.52H31.2V211H29.32ZM24.6 198.84V197.12H35.9V198.84H24.6ZM38.5572 211.08L34.4372 201.5H36.4372L39.4972 209H38.8572L42.0772 201.5H44.0772L39.6372 211.08H38.5572ZM35.8372 214.98L38.6372 209.24L39.6372 211.08L37.8372 214.98H35.8372ZM50.4763 211.2C49.7563 211.2 49.1029 211.053 48.5163 210.76C47.9429 210.453 47.4829 210.033 47.1363 209.5C46.7896 208.967 46.5963 208.36 46.5563 207.68V204.82C46.5963 204.127 46.7896 203.52 47.1363 203C47.4963 202.467 47.9629 202.053 48.5363 201.76C49.1229 201.453 49.7696 201.3 50.4763 201.3C51.3429 201.3 52.1229 201.52 52.8163 201.96C53.5229 202.4 54.0763 202.993 54.4763 203.74C54.8763 204.487 55.0763 205.327 55.0763 206.26C55.0763 207.193 54.8763 208.033 54.4763 208.78C54.0763 209.527 53.5229 210.12 52.8163 210.56C52.1229 210.987 51.3429 211.2 50.4763 211.2ZM45.4762 214.98V201.5H47.2763V204L46.9363 206.3L47.2763 208.62V214.98H45.4762ZM50.1763 209.5C50.7763 209.5 51.3029 209.36 51.7563 209.08C52.2096 208.8 52.5696 208.42 52.8363 207.94C53.1029 207.447 53.2363 206.88 53.2363 206.24C53.2363 205.613 53.1029 205.053 52.8363 204.56C52.5696 204.067 52.2096 203.687 51.7563 203.42C51.3029 203.14 50.7829 203 50.1963 203C49.5963 203 49.0696 203.14 48.6163 203.42C48.1629 203.687 47.8096 204.067 47.5563 204.56C47.3029 205.053 47.1763 205.62 47.1763 206.26C47.1763 206.887 47.2963 207.447 47.5363 207.94C47.7896 208.42 48.1429 208.8 48.5963 209.08C49.0629 209.36 49.5896 209.5 50.1763 209.5ZM61.4569 211.2C60.5235 211.2 59.6835 210.98 58.9369 210.54C58.1902 210.1 57.5969 209.507 57.1569 208.76C56.7169 208 56.4969 207.153 56.4969 206.22C56.4969 205.3 56.7169 204.473 57.1569 203.74C57.5969 202.993 58.1902 202.4 58.9369 201.96C59.6835 201.52 60.5235 201.3 61.4569 201.3C62.3769 201.3 63.2102 201.52 63.9569 201.96C64.7169 202.387 65.3169 202.973 65.7569 203.72C66.1969 204.467 66.4169 205.3 66.4169 206.22C66.4169 207.153 66.1969 208 65.7569 208.76C65.3169 209.507 64.7169 210.1 63.9569 210.54C63.2102 210.98 62.3769 211.2 61.4569 211.2ZM61.4569 209.46C62.0569 209.46 62.5902 209.32 63.0569 209.04C63.5235 208.76 63.8902 208.38 64.1569 207.9C64.4235 207.407 64.5569 206.847 64.5569 206.22C64.5569 205.607 64.4169 205.06 64.1369 204.58C63.8702 204.1 63.5035 203.727 63.0369 203.46C62.5835 203.18 62.0569 203.04 61.4569 203.04C60.8569 203.04 60.3235 203.18 59.8569 203.46C59.3902 203.727 59.0235 204.1 58.7569 204.58C58.4902 205.06 58.3569 205.607 58.3569 206.22C58.3569 206.847 58.4902 207.407 58.7569 207.9C59.0235 208.38 59.3902 208.76 59.8569 209.04C60.3235 209.32 60.8569 209.46 61.4569 209.46ZM72.385 215.18C71.4117 215.18 70.545 215 69.785 214.64C69.0383 214.28 68.4383 213.773 67.985 213.12L69.145 211.94C69.5317 212.433 69.9917 212.807 70.525 213.06C71.0583 213.327 71.6917 213.46 72.425 213.46C73.3983 213.46 74.165 213.2 74.725 212.68C75.2983 212.173 75.585 211.487 75.585 210.62V208.26L75.905 206.12L75.585 204V201.5H77.385V210.62C77.385 211.527 77.1717 212.32 76.745 213C76.3317 213.68 75.745 214.213 74.985 214.6C74.2383 214.987 73.3717 215.18 72.385 215.18ZM72.385 210.84C71.5183 210.84 70.7383 210.633 70.045 210.22C69.365 209.807 68.825 209.24 68.425 208.52C68.025 207.787 67.825 206.967 67.825 206.06C67.825 205.153 68.025 204.347 68.425 203.64C68.825 202.92 69.365 202.353 70.045 201.94C70.7383 201.513 71.5183 201.3 72.385 201.3C73.1317 201.3 73.7917 201.447 74.365 201.74C74.9383 202.033 75.3917 202.447 75.725 202.98C76.0717 203.5 76.2583 204.113 76.285 204.82V207.34C76.245 208.033 76.0517 208.647 75.705 209.18C75.3717 209.7 74.9183 210.107 74.345 210.4C73.7717 210.693 73.1183 210.84 72.385 210.84ZM72.745 209.14C73.3317 209.14 73.845 209.013 74.285 208.76C74.7383 208.507 75.085 208.153 75.325 207.7C75.565 207.233 75.685 206.693 75.685 206.08C75.685 205.467 75.5583 204.933 75.305 204.48C75.065 204.013 74.725 203.653 74.285 203.4C73.845 203.133 73.325 203 72.725 203C72.125 203 71.5983 203.133 71.145 203.4C70.6917 203.653 70.3317 204.013 70.065 204.48C69.8117 204.933 69.685 205.46 69.685 206.06C69.685 206.66 69.8117 207.193 70.065 207.66C70.3317 208.127 70.6917 208.493 71.145 208.76C71.6117 209.013 72.145 209.14 72.745 209.14ZM80.027 211V201.5H81.827V211H80.027ZM81.827 205.58L81.147 205.28C81.147 204.067 81.427 203.1 81.987 202.38C82.547 201.66 83.3537 201.3 84.407 201.3C84.887 201.3 85.3204 201.387 85.707 201.56C86.0937 201.72 86.4537 201.993 86.787 202.38L85.607 203.6C85.407 203.387 85.187 203.233 84.947 203.14C84.707 203.047 84.427 203 84.107 203C83.4404 203 82.8937 203.213 82.467 203.64C82.0404 204.067 81.827 204.713 81.827 205.58ZM91.7819 211.2C90.9152 211.2 90.1285 210.987 89.4219 210.56C88.7152 210.12 88.1552 209.527 87.7419 208.78C87.3419 208.033 87.1419 207.193 87.1419 206.26C87.1419 205.327 87.3419 204.487 87.7419 203.74C88.1552 202.993 88.7085 202.4 89.4019 201.96C90.1085 201.52 90.9019 201.3 91.7819 201.3C92.5019 201.3 93.1419 201.453 93.7019 201.76C94.2752 202.053 94.7352 202.467 95.0819 203C95.4285 203.52 95.6219 204.127 95.6619 204.82V207.68C95.6219 208.36 95.4285 208.967 95.0819 209.5C94.7485 210.033 94.2952 210.453 93.7219 210.76C93.1619 211.053 92.5152 211.2 91.7819 211.2ZM92.0819 209.5C92.9752 209.5 93.6952 209.2 94.2419 208.6C94.7885 207.987 95.0619 207.207 95.0619 206.26C95.0619 205.607 94.9352 205.04 94.6819 204.56C94.4419 204.067 94.0952 203.687 93.6419 203.42C93.1885 203.14 92.6619 203 92.0619 203C91.4619 203 90.9285 203.14 90.4619 203.42C90.0085 203.7 89.6485 204.087 89.3819 204.58C89.1285 205.06 89.0019 205.613 89.0019 206.24C89.0019 206.88 89.1285 207.447 89.3819 207.94C89.6485 208.42 90.0152 208.8 90.4819 209.08C90.9485 209.36 91.4819 209.5 92.0819 209.5ZM94.9419 211V208.44L95.2819 206.12L94.9419 203.82V201.5H96.7619V211H94.9419ZM104.383 211.2C103.663 211.2 103.009 211.053 102.423 210.76C101.849 210.453 101.389 210.033 101.043 209.5C100.696 208.967 100.503 208.36 100.463 207.68V204.82C100.503 204.127 100.696 203.52 101.043 203C101.403 202.467 101.869 202.053 102.443 201.76C103.029 201.453 103.676 201.3 104.383 201.3C105.249 201.3 106.029 201.52 106.723 201.96C107.429 202.4 107.983 202.993 108.383 203.74C108.783 204.487 108.983 205.327 108.983 206.26C108.983 207.193 108.783 208.033 108.383 208.78C107.983 209.527 107.429 210.12 106.723 210.56C106.029 210.987 105.249 211.2 104.383 211.2ZM99.3825 214.98V201.5H101.183V204L100.843 206.3L101.183 208.62V214.98H99.3825ZM104.083 209.5C104.683 209.5 105.209 209.36 105.663 209.08C106.116 208.8 106.476 208.42 106.743 207.94C107.009 207.447 107.143 206.88 107.143 206.24C107.143 205.613 107.009 205.053 106.743 204.56C106.476 204.067 106.116 203.687 105.663 203.42C105.209 203.14 104.689 203 104.103 203C103.503 203 102.976 203.14 102.523 203.42C102.069 203.687 101.716 204.067 101.463 204.56C101.209 205.053 101.083 205.62 101.083 206.26C101.083 206.887 101.203 207.447 101.443 207.94C101.696 208.42 102.049 208.8 102.503 209.08C102.969 209.36 103.496 209.5 104.083 209.5ZM117.743 211V205.46C117.743 204.74 117.516 204.147 117.063 203.68C116.61 203.213 116.023 202.98 115.303 202.98C114.823 202.98 114.396 203.087 114.023 203.3C113.65 203.513 113.356 203.807 113.143 204.18C112.93 204.553 112.823 204.98 112.823 205.46L112.083 205.04C112.083 204.32 112.243 203.68 112.563 203.12C112.883 202.56 113.33 202.12 113.903 201.8C114.476 201.467 115.123 201.3 115.843 201.3C116.563 201.3 117.196 201.46 117.743 201.78C118.303 202.1 118.743 202.547 119.063 203.12C119.383 203.693 119.543 204.353 119.543 205.1V211H117.743ZM111.023 211V196.72H112.823V211H111.023ZM125.1 211.08L120.98 201.5H122.98L126.04 209H125.4L128.62 201.5H130.62L126.18 211.08H125.1ZM122.38 214.98L125.18 209.24L126.18 211.08L124.38 214.98H122.38ZM136.434 211V201.5H138.234V211H136.434ZM137.334 199.6C137 199.6 136.727 199.493 136.514 199.28C136.3 199.053 136.194 198.773 136.194 198.44C136.194 198.12 136.3 197.853 136.514 197.64C136.727 197.413 137 197.3 137.334 197.3C137.667 197.3 137.94 197.413 138.154 197.64C138.367 197.853 138.474 198.12 138.474 198.44C138.474 198.773 138.367 199.053 138.154 199.28C137.94 199.493 137.667 199.6 137.334 199.6ZM143.906 211.2C143.373 211.2 142.866 211.133 142.386 211C141.92 210.853 141.486 210.653 141.086 210.4C140.686 210.133 140.34 209.82 140.046 209.46L141.206 208.3C141.553 208.727 141.953 209.047 142.406 209.26C142.86 209.46 143.366 209.56 143.926 209.56C144.486 209.56 144.92 209.467 145.226 209.28C145.533 209.08 145.686 208.807 145.686 208.46C145.686 208.113 145.56 207.847 145.306 207.66C145.066 207.46 144.753 207.3 144.366 207.18C143.98 207.047 143.566 206.92 143.126 206.8C142.7 206.667 142.293 206.5 141.906 206.3C141.52 206.1 141.2 205.827 140.946 205.48C140.706 205.133 140.586 204.673 140.586 204.1C140.586 203.527 140.726 203.033 141.006 202.62C141.286 202.193 141.673 201.867 142.166 201.64C142.673 201.413 143.28 201.3 143.986 201.3C144.733 201.3 145.393 201.433 145.966 201.7C146.553 201.953 147.033 202.34 147.406 202.86L146.246 204.02C145.98 203.673 145.646 203.407 145.246 203.22C144.86 203.033 144.42 202.94 143.926 202.94C143.406 202.94 143.006 203.033 142.726 203.22C142.46 203.393 142.326 203.64 142.326 203.96C142.326 204.28 142.446 204.527 142.686 204.7C142.926 204.873 143.24 205.02 143.626 205.14C144.026 205.26 144.44 205.387 144.866 205.52C145.293 205.64 145.7 205.807 146.086 206.02C146.473 206.233 146.786 206.52 147.026 206.88C147.28 207.24 147.406 207.713 147.406 208.3C147.406 209.193 147.086 209.9 146.446 210.42C145.82 210.94 144.973 211.2 143.906 211.2ZM160.302 211V205.46C160.302 204.74 160.075 204.147 159.622 203.68C159.168 203.213 158.582 202.98 157.862 202.98C157.382 202.98 156.955 203.087 156.582 203.3C156.208 203.513 155.915 203.807 155.702 204.18C155.488 204.553 155.382 204.98 155.382 205.46L154.642 205.04C154.642 204.32 154.802 203.68 155.122 203.12C155.442 202.56 155.888 202.12 156.462 201.8C157.035 201.467 157.682 201.3 158.402 201.3C159.122 201.3 159.755 201.48 160.302 201.84C160.862 202.2 161.302 202.673 161.622 203.26C161.942 203.833 162.102 204.447 162.102 205.1V211H160.302ZM153.582 211V201.5H155.382V211H153.582ZM168.879 211.2C167.945 211.2 167.105 210.98 166.359 210.54C165.612 210.1 165.019 209.507 164.579 208.76C164.139 208 163.919 207.153 163.919 206.22C163.919 205.3 164.139 204.473 164.579 203.74C165.019 202.993 165.612 202.4 166.359 201.96C167.105 201.52 167.945 201.3 168.879 201.3C169.799 201.3 170.632 201.52 171.379 201.96C172.139 202.387 172.739 202.973 173.179 203.72C173.619 204.467 173.839 205.3 173.839 206.22C173.839 207.153 173.619 208 173.179 208.76C172.739 209.507 172.139 210.1 171.379 210.54C170.632 210.98 169.799 211.2 168.879 211.2ZM168.879 209.46C169.479 209.46 170.012 209.32 170.479 209.04C170.945 208.76 171.312 208.38 171.579 207.9C171.845 207.407 171.979 206.847 171.979 206.22C171.979 205.607 171.839 205.06 171.559 204.58C171.292 204.1 170.925 203.727 170.459 203.46C170.005 203.18 169.479 203.04 168.879 203.04C168.279 203.04 167.745 203.18 167.279 203.46C166.812 203.727 166.445 204.1 166.179 204.58C165.912 205.06 165.779 205.607 165.779 206.22C165.779 206.847 165.912 207.407 166.179 207.9C166.445 208.38 166.812 208.76 167.279 209.04C167.745 209.32 168.279 209.46 168.879 209.46ZM177.034 211V197.52H178.834V211H177.034ZM174.694 203.14V201.5H181.174V203.14H174.694ZM191.437 211.2C190.504 211.2 189.657 210.98 188.897 210.54C188.151 210.1 187.557 209.507 187.117 208.76C186.691 208 186.477 207.16 186.477 206.24C186.477 205.307 186.691 204.467 187.117 203.72C187.557 202.973 188.151 202.387 188.897 201.96C189.657 201.52 190.504 201.3 191.437 201.3C192.171 201.3 192.851 201.44 193.477 201.72C194.104 201.987 194.644 202.38 195.097 202.9L193.897 204.1C193.604 203.753 193.244 203.493 192.817 203.32C192.404 203.133 191.944 203.04 191.437 203.04C190.837 203.04 190.304 203.18 189.837 203.46C189.371 203.727 189.004 204.1 188.737 204.58C188.471 205.06 188.337 205.613 188.337 206.24C188.337 206.867 188.471 207.42 188.737 207.9C189.004 208.38 189.371 208.76 189.837 209.04C190.304 209.32 190.837 209.46 191.437 209.46C191.944 209.46 192.404 209.373 192.817 209.2C193.244 209.013 193.611 208.747 193.917 208.4L195.097 209.6C194.657 210.107 194.117 210.5 193.477 210.78C192.851 211.06 192.171 211.2 191.437 211.2ZM203.603 211V205.46C203.603 204.74 203.376 204.147 202.923 203.68C202.469 203.213 201.883 202.98 201.163 202.98C200.683 202.98 200.256 203.087 199.883 203.3C199.509 203.513 199.216 203.807 199.003 204.18C198.789 204.553 198.683 204.98 198.683 205.46L197.943 205.04C197.943 204.32 198.103 203.68 198.423 203.12C198.743 202.56 199.189 202.12 199.763 201.8C200.336 201.467 200.983 201.3 201.703 201.3C202.423 201.3 203.056 201.46 203.603 201.78C204.163 202.1 204.603 202.547 204.923 203.12C205.243 203.693 205.403 204.353 205.403 205.1V211H203.603ZM196.882 211V196.72H198.683V211H196.882ZM212.18 211.2C211.246 211.2 210.406 210.98 209.66 210.54C208.913 210.1 208.32 209.507 207.88 208.76C207.44 208 207.22 207.153 207.22 206.22C207.22 205.3 207.44 204.473 207.88 203.74C208.32 202.993 208.913 202.4 209.66 201.96C210.406 201.52 211.246 201.3 212.18 201.3C213.1 201.3 213.933 201.52 214.68 201.96C215.44 202.387 216.04 202.973 216.48 203.72C216.92 204.467 217.14 205.3 217.14 206.22C217.14 207.153 216.92 208 216.48 208.76C216.04 209.507 215.44 210.1 214.68 210.54C213.933 210.98 213.1 211.2 212.18 211.2ZM212.18 209.46C212.78 209.46 213.313 209.32 213.78 209.04C214.246 208.76 214.613 208.38 214.88 207.9C215.146 207.407 215.28 206.847 215.28 206.22C215.28 205.607 215.14 205.06 214.86 204.58C214.593 204.1 214.226 203.727 213.76 203.46C213.306 203.18 212.78 203.04 212.18 203.04C211.58 203.04 211.046 203.18 210.58 203.46C210.113 203.727 209.746 204.1 209.48 204.58C209.213 205.06 209.08 205.607 209.08 206.22C209.08 206.847 209.213 207.407 209.48 207.9C209.746 208.38 210.113 208.76 210.58 209.04C211.046 209.32 211.58 209.46 212.18 209.46ZM223.508 211.2C222.574 211.2 221.734 210.98 220.988 210.54C220.241 210.1 219.648 209.507 219.208 208.76C218.768 208 218.548 207.153 218.548 206.22C218.548 205.3 218.768 204.473 219.208 203.74C219.648 202.993 220.241 202.4 220.988 201.96C221.734 201.52 222.574 201.3 223.508 201.3C224.428 201.3 225.261 201.52 226.008 201.96C226.768 202.387 227.368 202.973 227.808 203.72C228.248 204.467 228.468 205.3 228.468 206.22C228.468 207.153 228.248 208 227.808 208.76C227.368 209.507 226.768 210.1 226.008 210.54C225.261 210.98 224.428 211.2 223.508 211.2ZM223.508 209.46C224.108 209.46 224.641 209.32 225.108 209.04C225.574 208.76 225.941 208.38 226.208 207.9C226.474 207.407 226.608 206.847 226.608 206.22C226.608 205.607 226.468 205.06 226.188 204.58C225.921 204.1 225.554 203.727 225.088 203.46C224.634 203.18 224.108 203.04 223.508 203.04C222.908 203.04 222.374 203.18 221.908 203.46C221.441 203.727 221.074 204.1 220.808 204.58C220.541 205.06 220.408 205.607 220.408 206.22C220.408 206.847 220.541 207.407 220.808 207.9C221.074 208.38 221.441 208.76 221.908 209.04C222.374 209.32 222.908 209.46 223.508 209.46ZM233.516 211.2C232.982 211.2 232.476 211.133 231.996 211C231.529 210.853 231.096 210.653 230.696 210.4C230.296 210.133 229.949 209.82 229.656 209.46L230.816 208.3C231.162 208.727 231.562 209.047 232.016 209.26C232.469 209.46 232.976 209.56 233.536 209.56C234.096 209.56 234.529 209.467 234.836 209.28C235.142 209.08 235.296 208.807 235.296 208.46C235.296 208.113 235.169 207.847 234.916 207.66C234.676 207.46 234.362 207.3 233.976 207.18C233.589 207.047 233.176 206.92 232.736 206.8C232.309 206.667 231.902 206.5 231.516 206.3C231.129 206.1 230.809 205.827 230.556 205.48C230.316 205.133 230.196 204.673 230.196 204.1C230.196 203.527 230.336 203.033 230.616 202.62C230.896 202.193 231.282 201.867 231.776 201.64C232.282 201.413 232.889 201.3 233.596 201.3C234.342 201.3 235.002 201.433 235.576 201.7C236.162 201.953 236.642 202.34 237.016 202.86L235.856 204.02C235.589 203.673 235.256 203.407 234.856 203.22C234.469 203.033 234.029 202.94 233.536 202.94C233.016 202.94 232.616 203.033 232.336 203.22C232.069 203.393 231.936 203.64 231.936 203.96C231.936 204.28 232.056 204.527 232.296 204.7C232.536 204.873 232.849 205.02 233.236 205.14C233.636 205.26 234.049 205.387 234.476 205.52C234.902 205.64 235.309 205.807 235.696 206.02C236.082 206.233 236.396 206.52 236.636 206.88C236.889 207.24 237.016 207.713 237.016 208.3C237.016 209.193 236.696 209.9 236.056 210.42C235.429 210.94 234.582 211.2 233.516 211.2ZM239.051 211V201.5H240.851V211H239.051ZM239.951 199.6C239.618 199.6 239.344 199.493 239.131 199.28C238.918 199.053 238.811 198.773 238.811 198.44C238.811 198.12 238.918 197.853 239.131 197.64C239.344 197.413 239.618 197.3 239.951 197.3C240.284 197.3 240.558 197.413 240.771 197.64C240.984 197.853 241.091 198.12 241.091 198.44C241.091 198.773 240.984 199.053 240.771 199.28C240.558 199.493 240.284 199.6 239.951 199.6ZM250.224 211V205.46C250.224 204.74 249.997 204.147 249.544 203.68C249.09 203.213 248.504 202.98 247.784 202.98C247.304 202.98 246.877 203.087 246.504 203.3C246.13 203.513 245.837 203.807 245.624 204.18C245.41 204.553 245.304 204.98 245.304 205.46L244.564 205.04C244.564 204.32 244.724 203.68 245.044 203.12C245.364 202.56 245.81 202.12 246.384 201.8C246.957 201.467 247.604 201.3 248.324 201.3C249.044 201.3 249.677 201.48 250.224 201.84C250.784 202.2 251.224 202.673 251.544 203.26C251.864 203.833 252.024 204.447 252.024 205.1V211H250.224ZM243.504 211V201.5H245.304V211H243.504ZM258.401 215.18C257.427 215.18 256.561 215 255.801 214.64C255.054 214.28 254.454 213.773 254.001 213.12L255.161 211.94C255.547 212.433 256.007 212.807 256.541 213.06C257.074 213.327 257.707 213.46 258.441 213.46C259.414 213.46 260.181 213.2 260.741 212.68C261.314 212.173 261.601 211.487 261.601 210.62V208.26L261.921 206.12L261.601 204V201.5H263.401V210.62C263.401 211.527 263.187 212.32 262.761 213C262.347 213.68 261.761 214.213 261.001 214.6C260.254 214.987 259.387 215.18 258.401 215.18ZM258.401 210.84C257.534 210.84 256.754 210.633 256.061 210.22C255.381 209.807 254.841 209.24 254.441 208.52C254.041 207.787 253.841 206.967 253.841 206.06C253.841 205.153 254.041 204.347 254.441 203.64C254.841 202.92 255.381 202.353 256.061 201.94C256.754 201.513 257.534 201.3 258.401 201.3C259.147 201.3 259.807 201.447 260.381 201.74C260.954 202.033 261.407 202.447 261.741 202.98C262.087 203.5 262.274 204.113 262.301 204.82V207.34C262.261 208.033 262.067 208.647 261.721 209.18C261.387 209.7 260.934 210.107 260.361 210.4C259.787 210.693 259.134 210.84 258.401 210.84ZM258.761 209.14C259.347 209.14 259.861 209.013 260.301 208.76C260.754 208.507 261.101 208.153 261.341 207.7C261.581 207.233 261.701 206.693 261.701 206.08C261.701 205.467 261.574 204.933 261.321 204.48C261.081 204.013 260.741 203.653 260.301 203.4C259.861 203.133 259.341 203 258.741 203C258.141 203 257.614 203.133 257.161 203.4C256.707 203.653 256.347 204.013 256.081 204.48C255.827 204.933 255.701 205.46 255.701 206.06C255.701 206.66 255.827 207.193 256.081 207.66C256.347 208.127 256.707 208.493 257.161 208.76C257.627 209.013 258.161 209.14 258.761 209.14ZM271.563 211V200.08C271.563 199.373 271.716 198.76 272.023 198.24C272.329 197.707 272.749 197.287 273.283 196.98C273.829 196.673 274.463 196.52 275.183 196.52C275.729 196.52 276.203 196.613 276.603 196.8C277.003 196.987 277.369 197.26 277.703 197.62L276.523 198.78C276.349 198.593 276.156 198.453 275.943 198.36C275.729 198.253 275.469 198.2 275.163 198.2C274.589 198.2 274.143 198.367 273.823 198.7C273.516 199.033 273.363 199.493 273.363 200.08V211H271.563ZM269.223 203.14V201.5H276.383V203.14H269.223ZM281.984 211.2C281.051 211.2 280.211 210.98 279.464 210.54C278.718 210.1 278.124 209.507 277.684 208.76C277.244 208 277.024 207.153 277.024 206.22C277.024 205.3 277.244 204.473 277.684 203.74C278.124 202.993 278.718 202.4 279.464 201.96C280.211 201.52 281.051 201.3 281.984 201.3C282.904 201.3 283.738 201.52 284.484 201.96C285.244 202.387 285.844 202.973 286.284 203.72C286.724 204.467 286.944 205.3 286.944 206.22C286.944 207.153 286.724 208 286.284 208.76C285.844 209.507 285.244 210.1 284.484 210.54C283.738 210.98 282.904 211.2 281.984 211.2ZM281.984 209.46C282.584 209.46 283.118 209.32 283.584 209.04C284.051 208.76 284.418 208.38 284.684 207.9C284.951 207.407 285.084 206.847 285.084 206.22C285.084 205.607 284.944 205.06 284.664 204.58C284.398 204.1 284.031 203.727 283.564 203.46C283.111 203.18 282.584 203.04 281.984 203.04C281.384 203.04 280.851 203.18 280.384 203.46C279.918 203.727 279.551 204.1 279.284 204.58C279.018 205.06 278.884 205.607 278.884 206.22C278.884 206.847 279.018 207.407 279.284 207.9C279.551 208.38 279.918 208.76 280.384 209.04C280.851 209.32 281.384 209.46 281.984 209.46ZM295.692 211V205.46C295.692 204.74 295.466 204.147 295.012 203.68C294.559 203.213 293.972 202.98 293.252 202.98C292.772 202.98 292.346 203.087 291.972 203.3C291.599 203.513 291.306 203.807 291.092 204.18C290.879 204.553 290.772 204.98 290.772 205.46L290.032 205.04C290.032 204.32 290.192 203.68 290.512 203.12C290.832 202.56 291.279 202.12 291.852 201.8C292.426 201.467 293.072 201.3 293.792 201.3C294.512 201.3 295.146 201.48 295.692 201.84C296.252 202.2 296.692 202.673 297.012 203.26C297.332 203.833 297.492 204.447 297.492 205.1V211H295.692ZM288.972 211V201.5H290.772V211H288.972ZM301.272 211V197.52H303.072V211H301.272ZM298.932 203.14V201.5H305.412V203.14H298.932ZM310 211.2C309.467 211.2 308.96 211.133 308.48 211C308.013 210.853 307.58 210.653 307.18 210.4C306.78 210.133 306.433 209.82 306.14 209.46L307.3 208.3C307.647 208.727 308.047 209.047 308.5 209.26C308.953 209.46 309.46 209.56 310.02 209.56C310.58 209.56 311.013 209.467 311.32 209.28C311.627 209.08 311.78 208.807 311.78 208.46C311.78 208.113 311.653 207.847 311.4 207.66C311.16 207.46 310.847 207.3 310.46 207.18C310.073 207.047 309.66 206.92 309.22 206.8C308.793 206.667 308.387 206.5 308 206.3C307.613 206.1 307.293 205.827 307.04 205.48C306.8 205.133 306.68 204.673 306.68 204.1C306.68 203.527 306.82 203.033 307.1 202.62C307.38 202.193 307.767 201.867 308.26 201.64C308.767 201.413 309.373 201.3 310.08 201.3C310.827 201.3 311.487 201.433 312.06 201.7C312.647 201.953 313.127 202.34 313.5 202.86L312.34 204.02C312.073 203.673 311.74 203.407 311.34 203.22C310.953 203.033 310.513 202.94 310.02 202.94C309.5 202.94 309.1 203.033 308.82 203.22C308.553 203.393 308.42 203.64 308.42 203.96C308.42 204.28 308.54 204.527 308.78 204.7C309.02 204.873 309.333 205.02 309.72 205.14C310.12 205.26 310.533 205.387 310.96 205.52C311.387 205.64 311.793 205.807 312.18 206.02C312.567 206.233 312.88 206.52 313.12 206.88C313.373 207.24 313.5 207.713 313.5 208.3C313.5 209.193 313.18 209.9 312.54 210.42C311.913 210.94 311.067 211.2 310 211.2ZM324.015 211.2C323.082 211.2 322.242 210.98 321.495 210.54C320.749 210.1 320.155 209.507 319.715 208.76C319.275 208 319.055 207.153 319.055 206.22C319.055 205.3 319.275 204.473 319.715 203.74C320.155 202.993 320.749 202.4 321.495 201.96C322.242 201.52 323.082 201.3 324.015 201.3C324.935 201.3 325.769 201.52 326.515 201.96C327.275 202.387 327.875 202.973 328.315 203.72C328.755 204.467 328.975 205.3 328.975 206.22C328.975 207.153 328.755 208 328.315 208.76C327.875 209.507 327.275 210.1 326.515 210.54C325.769 210.98 324.935 211.2 324.015 211.2ZM324.015 209.46C324.615 209.46 325.149 209.32 325.615 209.04C326.082 208.76 326.449 208.38 326.715 207.9C326.982 207.407 327.115 206.847 327.115 206.22C327.115 205.607 326.975 205.06 326.695 204.58C326.429 204.1 326.062 203.727 325.595 203.46C325.142 203.18 324.615 203.04 324.015 203.04C323.415 203.04 322.882 203.18 322.415 203.46C321.949 203.727 321.582 204.1 321.315 204.58C321.049 205.06 320.915 205.607 320.915 206.22C320.915 206.847 321.049 207.407 321.315 207.9C321.582 208.38 321.949 208.76 322.415 209.04C322.882 209.32 323.415 209.46 324.015 209.46ZM331.004 211V201.5H332.804V211H331.004ZM332.804 205.58L332.124 205.28C332.124 204.067 332.404 203.1 332.964 202.38C333.524 201.66 334.33 201.3 335.384 201.3C335.864 201.3 336.297 201.387 336.684 201.56C337.07 201.72 337.43 201.993 337.764 202.38L336.584 203.6C336.384 203.387 336.164 203.233 335.924 203.14C335.684 203.047 335.404 203 335.084 203C334.417 203 333.87 203.213 333.444 203.64C333.017 204.067 332.804 204.713 332.804 205.58ZM343.543 211V201.5H345.343V211H343.543ZM349.963 211V205.26C349.963 204.553 349.743 204 349.303 203.6C348.876 203.187 348.336 202.98 347.683 202.98C347.243 202.98 346.849 203.073 346.503 203.26C346.156 203.447 345.876 203.707 345.663 204.04C345.449 204.373 345.343 204.773 345.343 205.24L344.603 204.88C344.603 204.16 344.756 203.533 345.063 203C345.383 202.467 345.816 202.053 346.363 201.76C346.909 201.453 347.523 201.3 348.203 201.3C348.869 201.3 349.469 201.447 350.003 201.74C350.549 202.033 350.976 202.447 351.283 202.98C351.603 203.513 351.763 204.147 351.763 204.88V211H349.963ZM356.383 211V205.26C356.383 204.553 356.163 204 355.723 203.6C355.296 203.187 354.763 202.98 354.123 202.98C353.683 202.98 353.283 203.073 352.923 203.26C352.576 203.447 352.296 203.707 352.083 204.04C351.869 204.373 351.763 204.773 351.763 205.24L350.743 204.88C350.783 204.147 350.976 203.52 351.323 203C351.683 202.467 352.143 202.053 352.703 201.76C353.263 201.453 353.876 201.3 354.543 201.3C355.236 201.3 355.856 201.447 356.403 201.74C356.949 202.033 357.383 202.447 357.703 202.98C358.036 203.513 358.203 204.153 358.203 204.9V211H356.383ZM364.692 211.2C363.825 211.2 363.039 210.987 362.332 210.56C361.625 210.12 361.065 209.527 360.652 208.78C360.252 208.033 360.052 207.193 360.052 206.26C360.052 205.327 360.252 204.487 360.652 203.74C361.065 202.993 361.619 202.4 362.312 201.96C363.019 201.52 363.812 201.3 364.692 201.3C365.412 201.3 366.052 201.453 366.612 201.76C367.185 202.053 367.645 202.467 367.992 203C368.339 203.52 368.532 204.127 368.572 204.82V207.68C368.532 208.36 368.339 208.967 367.992 209.5C367.659 210.033 367.205 210.453 366.632 210.76C366.072 211.053 365.425 211.2 364.692 211.2ZM364.992 209.5C365.885 209.5 366.605 209.2 367.152 208.6C367.699 207.987 367.972 207.207 367.972 206.26C367.972 205.607 367.845 205.04 367.592 204.56C367.352 204.067 367.005 203.687 366.552 203.42C366.099 203.14 365.572 203 364.972 203C364.372 203 363.839 203.14 363.372 203.42C362.919 203.7 362.559 204.087 362.292 204.58C362.039 205.06 361.912 205.613 361.912 206.24C361.912 206.88 362.039 207.447 362.292 207.94C362.559 208.42 362.925 208.8 363.392 209.08C363.859 209.36 364.392 209.5 364.992 209.5ZM367.852 211V208.44L368.192 206.12L367.852 203.82V201.5H369.672V211H367.852ZM378.373 211L373.933 206.14L378.333 201.5H380.513L375.613 206.62L375.693 205.58L380.693 211H378.373ZM372.293 211V196.72H374.093V211H372.293ZM381.922 211V201.5H383.722V211H381.922ZM382.822 199.6C382.489 199.6 382.215 199.493 382.002 199.28C381.789 199.053 381.682 198.773 381.682 198.44C381.682 198.12 381.789 197.853 382.002 197.64C382.215 197.413 382.489 197.3 382.822 197.3C383.155 197.3 383.429 197.413 383.642 197.64C383.855 197.853 383.962 198.12 383.962 198.44C383.962 198.773 383.855 199.053 383.642 199.28C383.429 199.493 383.155 199.6 382.822 199.6ZM393.095 211V205.46C393.095 204.74 392.868 204.147 392.415 203.68C391.961 203.213 391.375 202.98 390.655 202.98C390.175 202.98 389.748 203.087 389.375 203.3C389.001 203.513 388.708 203.807 388.495 204.18C388.281 204.553 388.175 204.98 388.175 205.46L387.435 205.04C387.435 204.32 387.595 203.68 387.915 203.12C388.235 202.56 388.681 202.12 389.255 201.8C389.828 201.467 390.475 201.3 391.195 201.3C391.915 201.3 392.548 201.48 393.095 201.84C393.655 202.2 394.095 202.673 394.415 203.26C394.735 203.833 394.895 204.447 394.895 205.1V211H393.095ZM386.375 211V201.5H388.175V211H386.375ZM401.272 215.18C400.298 215.18 399.432 215 398.672 214.64C397.925 214.28 397.325 213.773 396.872 213.12L398.032 211.94C398.418 212.433 398.878 212.807 399.412 213.06C399.945 213.327 400.578 213.46 401.312 213.46C402.285 213.46 403.052 213.2 403.612 212.68C404.185 212.173 404.472 211.487 404.472 210.62V208.26L404.792 206.12L404.472 204V201.5H406.272V210.62C406.272 211.527 406.058 212.32 405.632 213C405.218 213.68 404.632 214.213 403.872 214.6C403.125 214.987 402.258 215.18 401.272 215.18ZM401.272 210.84C400.405 210.84 399.625 210.633 398.932 210.22C398.252 209.807 397.712 209.24 397.312 208.52C396.912 207.787 396.712 206.967 396.712 206.06C396.712 205.153 396.912 204.347 397.312 203.64C397.712 202.92 398.252 202.353 398.932 201.94C399.625 201.513 400.405 201.3 401.272 201.3C402.018 201.3 402.678 201.447 403.252 201.74C403.825 202.033 404.278 202.447 404.612 202.98C404.958 203.5 405.145 204.113 405.172 204.82V207.34C405.132 208.033 404.938 208.647 404.592 209.18C404.258 209.7 403.805 210.107 403.232 210.4C402.658 210.693 402.005 210.84 401.272 210.84ZM401.632 209.14C402.218 209.14 402.732 209.013 403.172 208.76C403.625 208.507 403.972 208.153 404.212 207.7C404.452 207.233 404.572 206.693 404.572 206.08C404.572 205.467 404.445 204.933 404.192 204.48C403.952 204.013 403.612 203.653 403.172 203.4C402.732 203.133 402.212 203 401.612 203C401.012 203 400.485 203.133 400.032 203.4C399.578 203.653 399.218 204.013 398.952 204.48C398.698 204.933 398.572 205.46 398.572 206.06C398.572 206.66 398.698 207.193 398.952 207.66C399.218 208.127 399.578 208.493 400.032 208.76C400.498 209.013 401.032 209.14 401.632 209.14ZM414.434 211V200.08C414.434 199.373 414.587 198.76 414.894 198.24C415.201 197.707 415.621 197.287 416.154 196.98C416.701 196.673 417.334 196.52 418.054 196.52C418.601 196.52 419.074 196.613 419.474 196.8C419.874 196.987 420.241 197.26 420.574 197.62L419.394 198.78C419.221 198.593 419.027 198.453 418.814 198.36C418.601 198.253 418.341 198.2 418.034 198.2C417.461 198.2 417.014 198.367 416.694 198.7C416.387 199.033 416.234 199.493 416.234 200.08V211H414.434ZM412.094 203.14V201.5H419.254V203.14H412.094ZM424.855 211.2C423.922 211.2 423.082 210.98 422.335 210.54C421.589 210.1 420.995 209.507 420.555 208.76C420.115 208 419.895 207.153 419.895 206.22C419.895 205.3 420.115 204.473 420.555 203.74C420.995 202.993 421.589 202.4 422.335 201.96C423.082 201.52 423.922 201.3 424.855 201.3C425.775 201.3 426.609 201.52 427.355 201.96C428.115 202.387 428.715 202.973 429.155 203.72C429.595 204.467 429.815 205.3 429.815 206.22C429.815 207.153 429.595 208 429.155 208.76C428.715 209.507 428.115 210.1 427.355 210.54C426.609 210.98 425.775 211.2 424.855 211.2ZM424.855 209.46C425.455 209.46 425.989 209.32 426.455 209.04C426.922 208.76 427.289 208.38 427.555 207.9C427.822 207.407 427.955 206.847 427.955 206.22C427.955 205.607 427.815 205.06 427.535 204.58C427.269 204.1 426.902 203.727 426.435 203.46C425.982 203.18 425.455 203.04 424.855 203.04C424.255 203.04 423.722 203.18 423.255 203.46C422.789 203.727 422.422 204.1 422.155 204.58C421.889 205.06 421.755 205.607 421.755 206.22C421.755 206.847 421.889 207.407 422.155 207.9C422.422 208.38 422.789 208.76 423.255 209.04C423.722 209.32 424.255 209.46 424.855 209.46ZM438.563 211V205.46C438.563 204.74 438.337 204.147 437.883 203.68C437.43 203.213 436.843 202.98 436.123 202.98C435.643 202.98 435.217 203.087 434.843 203.3C434.47 203.513 434.177 203.807 433.963 204.18C433.75 204.553 433.643 204.98 433.643 205.46L432.903 205.04C432.903 204.32 433.063 203.68 433.383 203.12C433.703 202.56 434.15 202.12 434.723 201.8C435.297 201.467 435.943 201.3 436.663 201.3C437.383 201.3 438.017 201.48 438.563 201.84C439.123 202.2 439.563 202.673 439.883 203.26C440.203 203.833 440.363 204.447 440.363 205.1V211H438.563ZM431.843 211V201.5H433.643V211H431.843ZM444.143 211V197.52H445.943V211H444.143ZM441.803 203.14V201.5H448.283V203.14H441.803ZM452.871 211.2C452.338 211.2 451.831 211.133 451.351 211C450.885 210.853 450.451 210.653 450.051 210.4C449.651 210.133 449.305 209.82 449.011 209.46L450.171 208.3C450.518 208.727 450.918 209.047 451.371 209.26C451.825 209.46 452.331 209.56 452.891 209.56C453.451 209.56 453.885 209.467 454.191 209.28C454.498 209.08 454.651 208.807 454.651 208.46C454.651 208.113 454.525 207.847 454.271 207.66C454.031 207.46 453.718 207.3 453.331 207.18C452.945 207.047 452.531 206.92 452.091 206.8C451.665 206.667 451.258 206.5 450.871 206.3C450.485 206.1 450.165 205.827 449.911 205.48C449.671 205.133 449.551 204.673 449.551 204.1C449.551 203.527 449.691 203.033 449.971 202.62C450.251 202.193 450.638 201.867 451.131 201.64C451.638 201.413 452.245 201.3 452.951 201.3C453.698 201.3 454.358 201.433 454.931 201.7C455.518 201.953 455.998 202.34 456.371 202.86L455.211 204.02C454.945 203.673 454.611 203.407 454.211 203.22C453.825 203.033 453.385 202.94 452.891 202.94C452.371 202.94 451.971 203.033 451.691 203.22C451.425 203.393 451.291 203.64 451.291 203.96C451.291 204.28 451.411 204.527 451.651 204.7C451.891 204.873 452.205 205.02 452.591 205.14C452.991 205.26 453.405 205.387 453.831 205.52C454.258 205.64 454.665 205.807 455.051 206.02C455.438 206.233 455.751 206.52 455.991 206.88C456.245 207.24 456.371 207.713 456.371 208.3C456.371 209.193 456.051 209.9 455.411 210.42C454.785 210.94 453.938 211.2 452.871 211.2ZM458.486 213.2L459.726 210.82L460.366 210.66C460.3 210.807 460.213 210.927 460.106 211.02C460.013 211.113 459.893 211.16 459.746 211.16C459.466 211.16 459.206 211.047 458.966 210.82C458.74 210.58 458.626 210.287 458.626 209.94C458.626 209.553 458.753 209.233 459.006 208.98C459.26 208.713 459.58 208.58 459.966 208.58C460.313 208.58 460.62 208.713 460.886 208.98C461.153 209.233 461.286 209.553 461.286 209.94C461.286 210.087 461.253 210.267 461.186 210.48C461.133 210.68 461.02 210.94 460.846 211.26L459.526 213.76L458.486 213.2ZM468.074 211V201.5H469.874V211H468.074ZM468.974 199.6C468.641 199.6 468.368 199.493 468.154 199.28C467.941 199.053 467.834 198.773 467.834 198.44C467.834 198.12 467.941 197.853 468.154 197.64C468.368 197.413 468.641 197.3 468.974 197.3C469.308 197.3 469.581 197.413 469.794 197.64C470.008 197.853 470.114 198.12 470.114 198.44C470.114 198.773 470.008 199.053 469.794 199.28C469.581 199.493 469.308 199.6 468.974 199.6ZM473.987 211V197.52H475.787V211H473.987ZM471.647 203.14V201.5H478.127V203.14H471.647ZM480.082 201.54L481.322 199.16L481.962 199C481.895 199.147 481.809 199.267 481.702 199.36C481.609 199.453 481.489 199.5 481.342 199.5C481.062 199.5 480.802 199.387 480.562 199.16C480.335 198.92 480.222 198.627 480.222 198.28C480.222 197.907 480.349 197.587 480.602 197.32C480.869 197.053 481.189 196.92 481.562 196.92C481.909 196.92 482.215 197.053 482.482 197.32C482.749 197.587 482.882 197.907 482.882 198.28C482.882 198.427 482.849 198.607 482.782 198.82C482.729 199.02 482.615 199.287 482.442 199.62L481.122 202.1L480.082 201.54ZM486.817 211.2C486.283 211.2 485.777 211.133 485.297 211C484.83 210.853 484.397 210.653 483.997 210.4C483.597 210.133 483.25 209.82 482.957 209.46L484.117 208.3C484.463 208.727 484.863 209.047 485.317 209.26C485.77 209.46 486.277 209.56 486.837 209.56C487.397 209.56 487.83 209.467 488.137 209.28C488.443 209.08 488.597 208.807 488.597 208.46C488.597 208.113 488.47 207.847 488.217 207.66C487.977 207.46 487.663 207.3 487.277 207.18C486.89 207.047 486.477 206.92 486.037 206.8C485.61 206.667 485.203 206.5 484.817 206.3C484.43 206.1 484.11 205.827 483.857 205.48C483.617 205.133 483.497 204.673 483.497 204.1C483.497 203.527 483.637 203.033 483.917 202.62C484.197 202.193 484.583 201.867 485.077 201.64C485.583 201.413 486.19 201.3 486.897 201.3C487.643 201.3 488.303 201.433 488.877 201.7C489.463 201.953 489.943 202.34 490.317 202.86L489.157 204.02C488.89 203.673 488.557 203.407 488.157 203.22C487.77 203.033 487.33 202.94 486.837 202.94C486.317 202.94 485.917 203.033 485.637 203.22C485.37 203.393 485.237 203.64 485.237 203.96C485.237 204.28 485.357 204.527 485.597 204.7C485.837 204.873 486.15 205.02 486.537 205.14C486.937 205.26 487.35 205.387 487.777 205.52C488.203 205.64 488.61 205.807 488.997 206.02C489.383 206.233 489.697 206.52 489.937 206.88C490.19 207.24 490.317 207.713 490.317 208.3C490.317 209.193 489.997 209.9 489.357 210.42C488.73 210.94 487.883 211.2 486.817 211.2ZM500.532 211.2C499.665 211.2 498.879 210.987 498.172 210.56C497.465 210.12 496.905 209.527 496.492 208.78C496.092 208.033 495.892 207.193 495.892 206.26C495.892 205.327 496.092 204.487 496.492 203.74C496.905 202.993 497.459 202.4 498.152 201.96C498.859 201.52 499.652 201.3 500.532 201.3C501.252 201.3 501.892 201.453 502.452 201.76C503.025 202.053 503.485 202.467 503.832 203C504.179 203.52 504.372 204.127 504.412 204.82V207.68C504.372 208.36 504.179 208.967 503.832 209.5C503.499 210.033 503.045 210.453 502.472 210.76C501.912 211.053 501.265 211.2 500.532 211.2ZM500.832 209.5C501.725 209.5 502.445 209.2 502.992 208.6C503.539 207.987 503.812 207.207 503.812 206.26C503.812 205.607 503.685 205.04 503.432 204.56C503.192 204.067 502.845 203.687 502.392 203.42C501.939 203.14 501.412 203 500.812 203C500.212 203 499.679 203.14 499.212 203.42C498.759 203.7 498.399 204.087 498.132 204.58C497.879 205.06 497.752 205.613 497.752 206.24C497.752 206.88 497.879 207.447 498.132 207.94C498.399 208.42 498.765 208.8 499.232 209.08C499.699 209.36 500.232 209.5 500.832 209.5ZM503.692 211V208.44L504.032 206.12L503.692 203.82V201.5H505.512V211H503.692ZM513.133 211.2C512.413 211.2 511.759 211.053 511.173 210.76C510.599 210.453 510.139 210.033 509.793 209.5C509.446 208.967 509.253 208.36 509.213 207.68V204.82C509.253 204.127 509.446 203.52 509.793 203C510.153 202.467 510.619 202.053 511.193 201.76C511.779 201.453 512.426 201.3 513.133 201.3C513.999 201.3 514.779 201.52 515.473 201.96C516.179 202.4 516.733 202.993 517.133 203.74C517.533 204.487 517.733 205.327 517.733 206.26C517.733 207.193 517.533 208.033 517.133 208.78C516.733 209.527 516.179 210.12 515.473 210.56C514.779 210.987 513.999 211.2 513.133 211.2ZM508.132 211V196.72H509.933V203.82L509.593 206.12L509.933 208.44V211H508.132ZM512.833 209.5C513.433 209.5 513.959 209.36 514.413 209.08C514.866 208.8 515.226 208.42 515.493 207.94C515.759 207.447 515.893 206.88 515.893 206.24C515.893 205.613 515.759 205.053 515.493 204.56C515.226 204.067 514.866 203.687 514.413 203.42C513.959 203.14 513.439 203 512.853 203C512.253 203 511.726 203.14 511.273 203.42C510.819 203.687 510.466 204.067 510.213 204.56C509.959 205.053 509.833 205.62 509.833 206.26C509.833 206.887 509.953 207.447 510.193 207.94C510.446 208.42 510.799 208.8 511.253 209.08C511.719 209.36 512.246 209.5 512.833 209.5ZM524.113 211.2C523.18 211.2 522.34 210.98 521.593 210.54C520.846 210.1 520.253 209.507 519.813 208.76C519.373 208 519.153 207.153 519.153 206.22C519.153 205.3 519.373 204.473 519.813 203.74C520.253 202.993 520.846 202.4 521.593 201.96C522.34 201.52 523.18 201.3 524.113 201.3C525.033 201.3 525.866 201.52 526.613 201.96C527.373 202.387 527.973 202.973 528.413 203.72C528.853 204.467 529.073 205.3 529.073 206.22C529.073 207.153 528.853 208 528.413 208.76C527.973 209.507 527.373 210.1 526.613 210.54C525.866 210.98 525.033 211.2 524.113 211.2ZM524.113 209.46C524.713 209.46 525.246 209.32 525.713 209.04C526.18 208.76 526.546 208.38 526.813 207.9C527.08 207.407 527.213 206.847 527.213 206.22C527.213 205.607 527.073 205.06 526.793 204.58C526.526 204.1 526.16 203.727 525.693 203.46C525.24 203.18 524.713 203.04 524.113 203.04C523.513 203.04 522.98 203.18 522.513 203.46C522.046 203.727 521.68 204.1 521.413 204.58C521.146 205.06 521.013 205.607 521.013 206.22C521.013 206.847 521.146 207.407 521.413 207.9C521.68 208.38 522.046 208.76 522.513 209.04C522.98 209.32 523.513 209.46 524.113 209.46ZM534.921 211.2C534.148 211.2 533.448 211.027 532.821 210.68C532.208 210.32 531.728 209.827 531.381 209.2C531.035 208.573 530.861 207.847 530.861 207.02V201.5H532.661V206.94C532.661 207.46 532.748 207.913 532.921 208.3C533.108 208.673 533.375 208.96 533.721 209.16C534.068 209.36 534.475 209.46 534.941 209.46C535.648 209.46 536.201 209.24 536.601 208.8C537.001 208.347 537.201 207.727 537.201 206.94V201.5H539.001V207.02C539.001 207.847 538.828 208.573 538.481 209.2C538.135 209.827 537.655 210.32 537.041 210.68C536.441 211.027 535.735 211.2 534.921 211.2ZM542.874 211V197.52H544.674V211H542.874ZM540.534 203.14V201.5H547.014V203.14H540.534ZM28.34 241.2C27.8067 241.2 27.3 241.133 26.82 241C26.3533 240.853 25.92 240.653 25.52 240.4C25.12 240.133 24.7733 239.82 24.48 239.46L25.64 238.3C25.9867 238.727 26.3867 239.047 26.84 239.26C27.2933 239.46 27.8 239.56 28.36 239.56C28.92 239.56 29.3533 239.467 29.66 239.28C29.9667 239.08 30.12 238.807 30.12 238.46C30.12 238.113 29.9933 237.847 29.74 237.66C29.5 237.46 29.1867 237.3 28.8 237.18C28.4133 237.047 28 236.92 27.56 236.8C27.1333 236.667 26.7267 236.5 26.34 236.3C25.9533 236.1 25.6333 235.827 25.38 235.48C25.14 235.133 25.02 234.673 25.02 234.1C25.02 233.527 25.16 233.033 25.44 232.62C25.72 232.193 26.1067 231.867 26.6 231.64C27.1067 231.413 27.7133 231.3 28.42 231.3C29.1667 231.3 29.8267 231.433 30.4 231.7C30.9867 231.953 31.4667 232.34 31.84 232.86L30.68 234.02C30.4133 233.673 30.08 233.407 29.68 233.22C29.2933 233.033 28.8533 232.94 28.36 232.94C27.84 232.94 27.44 233.033 27.16 233.22C26.8933 233.393 26.76 233.64 26.76 233.96C26.76 234.28 26.88 234.527 27.12 234.7C27.36 234.873 27.6733 235.02 28.06 235.14C28.46 235.26 28.8733 235.387 29.3 235.52C29.7267 235.64 30.1333 235.807 30.52 236.02C30.9067 236.233 31.22 236.52 31.46 236.88C31.7133 237.24 31.84 237.713 31.84 238.3C31.84 239.193 31.52 239.9 30.88 240.42C30.2533 240.94 29.4067 241.2 28.34 241.2ZM40.5752 241V235.46C40.5752 234.74 40.3485 234.147 39.8952 233.68C39.4418 233.213 38.8552 232.98 38.1352 232.98C37.6552 232.98 37.2285 233.087 36.8552 233.3C36.4818 233.513 36.1885 233.807 35.9752 234.18C35.7618 234.553 35.6552 234.98 35.6552 235.46L34.9152 235.04C34.9152 234.32 35.0752 233.68 35.3952 233.12C35.7152 232.56 36.1618 232.12 36.7352 231.8C37.3085 231.467 37.9552 231.3 38.6752 231.3C39.3952 231.3 40.0285 231.46 40.5752 231.78C41.1352 232.1 41.5752 232.547 41.8952 233.12C42.2152 233.693 42.3752 234.353 42.3752 235.1V241H40.5752ZM33.8552 241V226.72H35.6552V241H33.8552ZM48.8522 241.2C47.9855 241.2 47.1989 240.987 46.4922 240.56C45.7855 240.12 45.2255 239.527 44.8122 238.78C44.4122 238.033 44.2122 237.193 44.2122 236.26C44.2122 235.327 44.4122 234.487 44.8122 233.74C45.2255 232.993 45.7789 232.4 46.4722 231.96C47.1789 231.52 47.9722 231.3 48.8522 231.3C49.5722 231.3 50.2122 231.453 50.7722 231.76C51.3455 232.053 51.8055 232.467 52.1522 233C52.4989 233.52 52.6922 234.127 52.7322 234.82V237.68C52.6922 238.36 52.4989 238.967 52.1522 239.5C51.8189 240.033 51.3655 240.453 50.7922 240.76C50.2322 241.053 49.5855 241.2 48.8522 241.2ZM49.1522 239.5C50.0455 239.5 50.7655 239.2 51.3122 238.6C51.8589 237.987 52.1322 237.207 52.1322 236.26C52.1322 235.607 52.0055 235.04 51.7522 234.56C51.5122 234.067 51.1655 233.687 50.7122 233.42C50.2589 233.14 49.7322 233 49.1322 233C48.5322 233 47.9989 233.14 47.5322 233.42C47.0789 233.7 46.7189 234.087 46.4522 234.58C46.1989 235.06 46.0722 235.613 46.0722 236.24C46.0722 236.88 46.1989 237.447 46.4522 237.94C46.7189 238.42 47.0855 238.8 47.5522 239.08C48.0189 239.36 48.5522 239.5 49.1522 239.5ZM52.0122 241V238.44L52.3522 236.12L52.0122 233.82V231.5H53.8322V241H52.0122ZM61.4528 241.2C60.7328 241.2 60.0795 241.053 59.4928 240.76C58.9195 240.453 58.4595 240.033 58.1128 239.5C57.7661 238.967 57.5728 238.36 57.5328 237.68V234.82C57.5728 234.127 57.7661 233.52 58.1128 233C58.4728 232.467 58.9395 232.053 59.5128 231.76C60.0995 231.453 60.7461 231.3 61.4528 231.3C62.3195 231.3 63.0995 231.52 63.7928 231.96C64.4995 232.4 65.0528 232.993 65.4528 233.74C65.8528 234.487 66.0528 235.327 66.0528 236.26C66.0528 237.193 65.8528 238.033 65.4528 238.78C65.0528 239.527 64.4995 240.12 63.7928 240.56C63.0995 240.987 62.3195 241.2 61.4528 241.2ZM56.4528 244.98V231.5H58.2528V234L57.9128 236.3L58.2528 238.62V244.98H56.4528ZM61.1528 239.5C61.7528 239.5 62.2795 239.36 62.7328 239.08C63.1861 238.8 63.5461 238.42 63.8128 237.94C64.0795 237.447 64.2128 236.88 64.2128 236.24C64.2128 235.613 64.0795 235.053 63.8128 234.56C63.5461 234.067 63.1861 233.687 62.7328 233.42C62.2795 233.14 61.7595 233 61.1728 233C60.5728 233 60.0461 233.14 59.5928 233.42C59.1395 233.687 58.7861 234.067 58.5328 234.56C58.2795 235.053 58.1528 235.62 58.1528 236.26C58.1528 236.887 58.2728 237.447 58.5128 237.94C58.7661 238.42 59.1195 238.8 59.5728 239.08C60.0395 239.36 60.5661 239.5 61.1528 239.5ZM68.1134 241V231.5H69.9134V241H68.1134ZM69.0134 229.6C68.6801 229.6 68.4068 229.493 68.1934 229.28C67.9801 229.053 67.8734 228.773 67.8734 228.44C67.8734 228.12 67.9801 227.853 68.1934 227.64C68.4068 227.413 68.6801 227.3 69.0134 227.3C69.3468 227.3 69.6201 227.413 69.8334 227.64C70.0468 227.853 70.1534 228.12 70.1534 228.44C70.1534 228.773 70.0468 229.053 69.8334 229.28C69.6201 229.493 69.3468 229.6 69.0134 229.6ZM79.2861 241V235.46C79.2861 234.74 79.0594 234.147 78.6061 233.68C78.1528 233.213 77.5661 232.98 76.8461 232.98C76.3661 232.98 75.9394 233.087 75.5661 233.3C75.1928 233.513 74.8994 233.807 74.6861 234.18C74.4728 234.553 74.3661 234.98 74.3661 235.46L73.6261 235.04C73.6261 234.32 73.7861 233.68 74.1061 233.12C74.4261 232.56 74.8728 232.12 75.4461 231.8C76.0194 231.467 76.6661 231.3 77.3861 231.3C78.1061 231.3 78.7394 231.48 79.2861 231.84C79.8461 232.2 80.2861 232.673 80.6061 233.26C80.9261 233.833 81.0861 234.447 81.0861 235.1V241H79.2861ZM72.5661 241V231.5H74.3661V241H72.5661ZM87.4631 245.18C86.4898 245.18 85.6231 245 84.8631 244.64C84.1165 244.28 83.5165 243.773 83.0631 243.12L84.2231 241.94C84.6098 242.433 85.0698 242.807 85.6031 243.06C86.1365 243.327 86.7698 243.46 87.5031 243.46C88.4765 243.46 89.2431 243.2 89.8031 242.68C90.3765 242.173 90.6631 241.487 90.6631 240.62V238.26L90.9831 236.12L90.6631 234V231.5H92.4631V240.62C92.4631 241.527 92.2498 242.32 91.8231 243C91.4098 243.68 90.8231 244.213 90.0631 244.6C89.3165 244.987 88.4498 245.18 87.4631 245.18ZM87.4631 240.84C86.5965 240.84 85.8165 240.633 85.1231 240.22C84.4431 239.807 83.9031 239.24 83.5031 238.52C83.1031 237.787 82.9031 236.967 82.9031 236.06C82.9031 235.153 83.1031 234.347 83.5031 233.64C83.9031 232.92 84.4431 232.353 85.1231 231.94C85.8165 231.513 86.5965 231.3 87.4631 231.3C88.2098 231.3 88.8698 231.447 89.4431 231.74C90.0165 232.033 90.4698 232.447 90.8031 232.98C91.1498 233.5 91.3365 234.113 91.3631 234.82V237.34C91.3231 238.033 91.1298 238.647 90.7831 239.18C90.4498 239.7 89.9965 240.107 89.4231 240.4C88.8498 240.693 88.1965 240.84 87.4631 240.84ZM87.8231 239.14C88.4098 239.14 88.9231 239.013 89.3631 238.76C89.8165 238.507 90.1631 238.153 90.4031 237.7C90.6431 237.233 90.7631 236.693 90.7631 236.08C90.7631 235.467 90.6365 234.933 90.3831 234.48C90.1431 234.013 89.8031 233.653 89.3631 233.4C88.9231 233.133 88.4031 233 87.8031 233C87.2031 233 86.6765 233.133 86.2231 233.4C85.7698 233.653 85.4098 234.013 85.1431 234.48C84.8898 234.933 84.7631 235.46 84.7631 236.06C84.7631 236.66 84.8898 237.193 85.1431 237.66C85.4098 238.127 85.7698 238.493 86.2231 238.76C86.6898 239.013 87.2231 239.14 87.8231 239.14ZM100.725 241V227.52H102.525V241H100.725ZM98.3853 233.14V231.5H104.865V233.14H98.3853ZM110.736 241.2C109.789 241.2 108.936 240.987 108.176 240.56C107.416 240.12 106.816 239.527 106.376 238.78C105.936 238.033 105.716 237.187 105.716 236.24C105.716 235.307 105.929 234.467 106.356 233.72C106.796 232.973 107.382 232.387 108.116 231.96C108.862 231.52 109.696 231.3 110.616 231.3C111.496 231.3 112.269 231.5 112.936 231.9C113.616 232.3 114.142 232.853 114.516 233.56C114.902 234.267 115.096 235.067 115.096 235.96C115.096 236.093 115.089 236.24 115.076 236.4C115.062 236.547 115.036 236.72 114.996 236.92H106.976V235.42H114.036L113.376 236C113.376 235.36 113.262 234.82 113.036 234.38C112.809 233.927 112.489 233.58 112.076 233.34C111.662 233.087 111.162 232.96 110.576 232.96C109.962 232.96 109.422 233.093 108.956 233.36C108.489 233.627 108.129 234 107.876 234.48C107.622 234.96 107.496 235.527 107.496 236.18C107.496 236.847 107.629 237.433 107.896 237.94C108.162 238.433 108.542 238.82 109.036 239.1C109.529 239.367 110.096 239.5 110.736 239.5C111.269 239.5 111.756 239.407 112.196 239.22C112.649 239.033 113.036 238.753 113.356 238.38L114.516 239.56C114.062 240.093 113.502 240.5 112.836 240.78C112.182 241.06 111.482 241.2 110.736 241.2ZM123.005 241L120.045 236.84L119.705 236.52L115.965 231.5H118.145L120.845 235.2L121.185 235.48L125.185 241H123.005ZM115.785 241L119.705 235.72L120.725 237.04L117.905 241H115.785ZM121.325 236.5L120.285 235.22L122.905 231.5H125.005L121.325 236.5ZM127.893 241V227.52H129.693V241H127.893ZM125.553 233.14V231.5H132.033V233.14H125.553ZM139.317 241V230.08C139.317 229.373 139.47 228.76 139.777 228.24C140.083 227.707 140.503 227.287 141.037 226.98C141.583 226.673 142.217 226.52 142.937 226.52C143.483 226.52 143.957 226.613 144.357 226.8C144.757 226.987 145.123 227.26 145.457 227.62L144.277 228.78C144.103 228.593 143.91 228.453 143.697 228.36C143.483 228.253 143.223 228.2 142.917 228.2C142.343 228.2 141.897 228.367 141.577 228.7C141.27 229.033 141.117 229.493 141.117 230.08V241H139.317ZM136.977 233.14V231.5H144.137V233.14H136.977ZM149.738 241.2C148.805 241.2 147.965 240.98 147.218 240.54C146.471 240.1 145.878 239.507 145.438 238.76C144.998 238 144.778 237.153 144.778 236.22C144.778 235.3 144.998 234.473 145.438 233.74C145.878 232.993 146.471 232.4 147.218 231.96C147.965 231.52 148.805 231.3 149.738 231.3C150.658 231.3 151.491 231.52 152.238 231.96C152.998 232.387 153.598 232.973 154.038 233.72C154.478 234.467 154.698 235.3 154.698 236.22C154.698 237.153 154.478 238 154.038 238.76C153.598 239.507 152.998 240.1 152.238 240.54C151.491 240.98 150.658 241.2 149.738 241.2ZM149.738 239.46C150.338 239.46 150.871 239.32 151.338 239.04C151.805 238.76 152.171 238.38 152.438 237.9C152.705 237.407 152.838 236.847 152.838 236.22C152.838 235.607 152.698 235.06 152.418 234.58C152.151 234.1 151.785 233.727 151.318 233.46C150.865 233.18 150.338 233.04 149.738 233.04C149.138 233.04 148.605 233.18 148.138 233.46C147.671 233.727 147.305 234.1 147.038 234.58C146.771 235.06 146.638 235.607 146.638 236.22C146.638 236.847 146.771 237.407 147.038 237.9C147.305 238.38 147.671 238.76 148.138 239.04C148.605 239.32 149.138 239.46 149.738 239.46ZM156.726 241V231.5H158.526V241H156.726ZM158.526 235.58L157.846 235.28C157.846 234.067 158.126 233.1 158.686 232.38C159.246 231.66 160.053 231.3 161.106 231.3C161.586 231.3 162.02 231.387 162.406 231.56C162.793 231.72 163.153 231.993 163.486 232.38L162.306 233.6C162.106 233.387 161.886 233.233 161.646 233.14C161.406 233.047 161.126 233 160.806 233C160.14 233 159.593 233.213 159.166 233.64C158.74 234.067 158.526 234.713 158.526 235.58ZM173.605 241.2C172.672 241.2 171.832 240.98 171.085 240.54C170.339 240.1 169.745 239.507 169.305 238.76C168.865 238 168.645 237.153 168.645 236.22C168.645 235.3 168.865 234.473 169.305 233.74C169.745 232.993 170.339 232.4 171.085 231.96C171.832 231.52 172.672 231.3 173.605 231.3C174.525 231.3 175.359 231.52 176.105 231.96C176.865 232.387 177.465 232.973 177.905 233.72C178.345 234.467 178.565 235.3 178.565 236.22C178.565 237.153 178.345 238 177.905 238.76C177.465 239.507 176.865 240.1 176.105 240.54C175.359 240.98 174.525 241.2 173.605 241.2ZM173.605 239.46C174.205 239.46 174.739 239.32 175.205 239.04C175.672 238.76 176.039 238.38 176.305 237.9C176.572 237.407 176.705 236.847 176.705 236.22C176.705 235.607 176.565 235.06 176.285 234.58C176.019 234.1 175.652 233.727 175.185 233.46C174.732 233.18 174.205 233.04 173.605 233.04C173.005 233.04 172.472 233.18 172.005 233.46C171.539 233.727 171.172 234.1 170.905 234.58C170.639 235.06 170.505 235.607 170.505 236.22C170.505 236.847 170.639 237.407 170.905 237.9C171.172 238.38 171.539 238.76 172.005 239.04C172.472 239.32 173.005 239.46 173.605 239.46ZM185.593 241.2C184.873 241.2 184.22 241.053 183.633 240.76C183.06 240.453 182.6 240.033 182.253 239.5C181.907 238.967 181.713 238.36 181.673 237.68V234.82C181.713 234.127 181.907 233.52 182.253 233C182.613 232.467 183.08 232.053 183.653 231.76C184.24 231.453 184.887 231.3 185.593 231.3C186.46 231.3 187.24 231.52 187.933 231.96C188.64 232.4 189.193 232.993 189.593 233.74C189.993 234.487 190.193 235.327 190.193 236.26C190.193 237.193 189.993 238.033 189.593 238.78C189.193 239.527 188.64 240.12 187.933 240.56C187.24 240.987 186.46 241.2 185.593 241.2ZM180.593 244.98V231.5H182.393V234L182.053 236.3L182.393 238.62V244.98H180.593ZM185.293 239.5C185.893 239.5 186.42 239.36 186.873 239.08C187.327 238.8 187.687 238.42 187.953 237.94C188.22 237.447 188.353 236.88 188.353 236.24C188.353 235.613 188.22 235.053 187.953 234.56C187.687 234.067 187.327 233.687 186.873 233.42C186.42 233.14 185.9 233 185.313 233C184.713 233 184.187 233.14 183.733 233.42C183.28 233.687 182.927 234.067 182.673 234.56C182.42 235.053 182.293 235.62 182.293 236.26C182.293 236.887 182.413 237.447 182.653 237.94C182.907 238.42 183.26 238.8 183.713 239.08C184.18 239.36 184.707 239.5 185.293 239.5ZM193.401 241V227.52H195.201V241H193.401ZM191.061 233.14V231.5H197.541V233.14H191.061ZM199.324 241V231.5H201.124V241H199.324ZM200.224 229.6C199.891 229.6 199.618 229.493 199.404 229.28C199.191 229.053 199.084 228.773 199.084 228.44C199.084 228.12 199.191 227.853 199.404 227.64C199.618 227.413 199.891 227.3 200.224 227.3C200.558 227.3 200.831 227.413 201.044 227.64C201.258 227.853 201.364 228.12 201.364 228.44C201.364 228.773 201.258 229.053 201.044 229.28C200.831 229.493 200.558 229.6 200.224 229.6ZM203.777 241V231.5H205.577V241H203.777ZM210.197 241V235.26C210.197 234.553 209.977 234 209.537 233.6C209.11 233.187 208.57 232.98 207.917 232.98C207.477 232.98 207.084 233.073 206.737 233.26C206.39 233.447 206.11 233.707 205.897 234.04C205.684 234.373 205.577 234.773 205.577 235.24L204.837 234.88C204.837 234.16 204.99 233.533 205.297 233C205.617 232.467 206.05 232.053 206.597 231.76C207.144 231.453 207.757 231.3 208.437 231.3C209.104 231.3 209.704 231.447 210.237 231.74C210.784 232.033 211.21 232.447 211.517 232.98C211.837 233.513 211.997 234.147 211.997 234.88V241H210.197ZM216.617 241V235.26C216.617 234.553 216.397 234 215.957 233.6C215.53 233.187 214.997 232.98 214.357 232.98C213.917 232.98 213.517 233.073 213.157 233.26C212.81 233.447 212.53 233.707 212.317 234.04C212.104 234.373 211.997 234.773 211.997 235.24L210.977 234.88C211.017 234.147 211.21 233.52 211.557 233C211.917 232.467 212.377 232.053 212.937 231.76C213.497 231.453 214.11 231.3 214.777 231.3C215.47 231.3 216.09 231.447 216.637 231.74C217.184 232.033 217.617 232.447 217.937 232.98C218.27 233.513 218.437 234.153 218.437 234.9V241H216.617ZM224.926 241.2C224.06 241.2 223.273 240.987 222.566 240.56C221.86 240.12 221.3 239.527 220.886 238.78C220.486 238.033 220.286 237.193 220.286 236.26C220.286 235.327 220.486 234.487 220.886 233.74C221.3 232.993 221.853 232.4 222.546 231.96C223.253 231.52 224.046 231.3 224.926 231.3C225.646 231.3 226.286 231.453 226.846 231.76C227.42 232.053 227.88 232.467 228.226 233C228.573 233.52 228.766 234.127 228.806 234.82V237.68C228.766 238.36 228.573 238.967 228.226 239.5C227.893 240.033 227.44 240.453 226.866 240.76C226.306 241.053 225.66 241.2 224.926 241.2ZM225.226 239.5C226.12 239.5 226.84 239.2 227.386 238.6C227.933 237.987 228.206 237.207 228.206 236.26C228.206 235.607 228.08 235.04 227.826 234.56C227.586 234.067 227.24 233.687 226.786 233.42C226.333 233.14 225.806 233 225.206 233C224.606 233 224.073 233.14 223.606 233.42C223.153 233.7 222.793 234.087 222.526 234.58C222.273 235.06 222.146 235.613 222.146 236.24C222.146 236.88 222.273 237.447 222.526 237.94C222.793 238.42 223.16 238.8 223.626 239.08C224.093 239.36 224.626 239.5 225.226 239.5ZM228.086 241V238.44L228.426 236.12L228.086 233.82V231.5H229.906V241H228.086ZM232.527 241V226.72H234.327V241H232.527ZM241.121 241V231.5H242.921V241H241.121ZM242.921 235.58L242.241 235.28C242.241 234.067 242.521 233.1 243.081 232.38C243.641 231.66 244.447 231.3 245.501 231.3C245.981 231.3 246.414 231.387 246.801 231.56C247.187 231.72 247.547 231.993 247.881 232.38L246.701 233.6C246.501 233.387 246.281 233.233 246.041 233.14C245.801 233.047 245.521 233 245.201 233C244.534 233 243.987 233.213 243.561 233.64C243.134 234.067 242.921 234.713 242.921 235.58ZM253.236 241.2C252.289 241.2 251.436 240.987 250.676 240.56C249.916 240.12 249.316 239.527 248.876 238.78C248.436 238.033 248.216 237.187 248.216 236.24C248.216 235.307 248.429 234.467 248.856 233.72C249.296 232.973 249.882 232.387 250.616 231.96C251.362 231.52 252.196 231.3 253.116 231.3C253.996 231.3 254.769 231.5 255.436 231.9C256.116 232.3 256.642 232.853 257.016 233.56C257.402 234.267 257.596 235.067 257.596 235.96C257.596 236.093 257.589 236.24 257.576 236.4C257.562 236.547 257.536 236.72 257.496 236.92H249.476V235.42H256.536L255.876 236C255.876 235.36 255.762 234.82 255.536 234.38C255.309 233.927 254.989 233.58 254.576 233.34C254.162 233.087 253.662 232.96 253.076 232.96C252.462 232.96 251.922 233.093 251.456 233.36C250.989 233.627 250.629 234 250.376 234.48C250.122 234.96 249.996 235.527 249.996 236.18C249.996 236.847 250.129 237.433 250.396 237.94C250.662 238.433 251.042 238.82 251.536 239.1C252.029 239.367 252.596 239.5 253.236 239.5C253.769 239.5 254.256 239.407 254.696 239.22C255.149 239.033 255.536 238.753 255.856 238.38L257.016 239.56C256.562 240.093 256.002 240.5 255.336 240.78C254.682 241.06 253.982 241.2 253.236 241.2ZM263.598 241.2C262.732 241.2 261.945 240.987 261.238 240.56C260.532 240.12 259.972 239.527 259.558 238.78C259.158 238.033 258.958 237.193 258.958 236.26C258.958 235.327 259.158 234.487 259.558 233.74C259.972 232.993 260.525 232.4 261.218 231.96C261.925 231.52 262.718 231.3 263.598 231.3C264.318 231.3 264.958 231.453 265.518 231.76C266.092 232.053 266.552 232.467 266.898 233C267.245 233.52 267.438 234.127 267.478 234.82V237.68C267.438 238.36 267.245 238.967 266.898 239.5C266.565 240.033 266.112 240.453 265.538 240.76C264.978 241.053 264.332 241.2 263.598 241.2ZM263.898 239.5C264.792 239.5 265.512 239.2 266.058 238.6C266.605 237.987 266.878 237.207 266.878 236.26C266.878 235.607 266.752 235.04 266.498 234.56C266.258 234.067 265.912 233.687 265.458 233.42C265.005 233.14 264.478 233 263.878 233C263.278 233 262.745 233.14 262.278 233.42C261.825 233.7 261.465 234.087 261.198 234.58C260.945 235.06 260.818 235.613 260.818 236.24C260.818 236.88 260.945 237.447 261.198 237.94C261.465 238.42 261.832 238.8 262.298 239.08C262.765 239.36 263.298 239.5 263.898 239.5ZM266.758 241V238.44L267.098 236.12L266.758 233.82V231.5H268.578V241H266.758ZM275.219 241.2C274.339 241.2 273.552 240.987 272.859 240.56C272.166 240.12 271.612 239.527 271.199 238.78C270.799 238.033 270.599 237.193 270.599 236.26C270.599 235.327 270.799 234.487 271.199 233.74C271.612 232.993 272.166 232.4 272.859 231.96C273.552 231.52 274.339 231.3 275.219 231.3C275.926 231.3 276.566 231.453 277.139 231.76C277.712 232.053 278.172 232.467 278.519 233C278.879 233.52 279.079 234.127 279.119 234.82V237.68C279.079 238.36 278.886 238.967 278.539 239.5C278.192 240.033 277.732 240.453 277.159 240.76C276.586 241.053 275.939 241.2 275.219 241.2ZM275.519 239.5C276.119 239.5 276.639 239.36 277.079 239.08C277.532 238.8 277.886 238.42 278.139 237.94C278.392 237.447 278.519 236.887 278.519 236.26C278.519 235.607 278.386 235.04 278.119 234.56C277.866 234.08 277.512 233.7 277.059 233.42C276.619 233.14 276.099 233 275.499 233C274.899 233 274.372 233.14 273.919 233.42C273.466 233.7 273.106 234.087 272.839 234.58C272.586 235.06 272.459 235.613 272.459 236.24C272.459 236.88 272.586 237.447 272.839 237.94C273.106 238.42 273.466 238.8 273.919 239.08C274.386 239.36 274.919 239.5 275.519 239.5ZM280.219 241H278.399V238.44L278.739 236.12L278.399 233.82V226.72H280.219V241ZM282.86 241V231.5H284.66V241H282.86ZM283.76 229.6C283.426 229.6 283.153 229.493 282.94 229.28C282.726 229.053 282.62 228.773 282.62 228.44C282.62 228.12 282.726 227.853 282.94 227.64C283.153 227.413 283.426 227.3 283.76 227.3C284.093 227.3 284.366 227.413 284.58 227.64C284.793 227.853 284.9 228.12 284.9 228.44C284.9 228.773 284.793 229.053 284.58 229.28C284.366 229.493 284.093 229.6 283.76 229.6ZM294.032 241V235.46C294.032 234.74 293.806 234.147 293.352 233.68C292.899 233.213 292.312 232.98 291.592 232.98C291.112 232.98 290.686 233.087 290.312 233.3C289.939 233.513 289.646 233.807 289.432 234.18C289.219 234.553 289.112 234.98 289.112 235.46L288.372 235.04C288.372 234.32 288.532 233.68 288.852 233.12C289.172 232.56 289.619 232.12 290.192 231.8C290.766 231.467 291.412 231.3 292.132 231.3C292.852 231.3 293.486 231.48 294.032 231.84C294.592 232.2 295.032 232.673 295.352 233.26C295.672 233.833 295.832 234.447 295.832 235.1V241H294.032ZM287.312 241V231.5H289.112V241H287.312ZM302.209 245.18C301.236 245.18 300.369 245 299.609 244.64C298.863 244.28 298.263 243.773 297.809 243.12L298.969 241.94C299.356 242.433 299.816 242.807 300.349 243.06C300.883 243.327 301.516 243.46 302.249 243.46C303.223 243.46 303.989 243.2 304.549 242.68C305.123 242.173 305.409 241.487 305.409 240.62V238.26L305.729 236.12L305.409 234V231.5H307.209V240.62C307.209 241.527 306.996 242.32 306.569 243C306.156 243.68 305.569 244.213 304.809 244.6C304.063 244.987 303.196 245.18 302.209 245.18ZM302.209 240.84C301.343 240.84 300.563 240.633 299.869 240.22C299.189 239.807 298.649 239.24 298.249 238.52C297.849 237.787 297.649 236.967 297.649 236.06C297.649 235.153 297.849 234.347 298.249 233.64C298.649 232.92 299.189 232.353 299.869 231.94C300.563 231.513 301.343 231.3 302.209 231.3C302.956 231.3 303.616 231.447 304.189 231.74C304.763 232.033 305.216 232.447 305.549 232.98C305.896 233.5 306.083 234.113 306.109 234.82V237.34C306.069 238.033 305.876 238.647 305.529 239.18C305.196 239.7 304.743 240.107 304.169 240.4C303.596 240.693 302.943 240.84 302.209 240.84ZM302.569 239.14C303.156 239.14 303.669 239.013 304.109 238.76C304.563 238.507 304.909 238.153 305.149 237.7C305.389 237.233 305.509 236.693 305.509 236.08C305.509 235.467 305.383 234.933 305.129 234.48C304.889 234.013 304.549 233.653 304.109 233.4C303.669 233.133 303.149 233 302.549 233C301.949 233 301.423 233.133 300.969 233.4C300.516 233.653 300.156 234.013 299.889 234.48C299.636 234.933 299.509 235.46 299.509 236.06C299.509 236.66 299.636 237.193 299.889 237.66C300.156 238.127 300.516 238.493 300.969 238.76C301.436 239.013 301.969 239.14 302.569 239.14ZM318.411 241.2C317.465 241.2 316.611 240.987 315.851 240.56C315.091 240.12 314.491 239.527 314.051 238.78C313.611 238.033 313.391 237.187 313.391 236.24C313.391 235.307 313.605 234.467 314.031 233.72C314.471 232.973 315.058 232.387 315.791 231.96C316.538 231.52 317.371 231.3 318.291 231.3C319.171 231.3 319.945 231.5 320.611 231.9C321.291 232.3 321.818 232.853 322.191 233.56C322.578 234.267 322.771 235.067 322.771 235.96C322.771 236.093 322.765 236.24 322.751 236.4C322.738 236.547 322.711 236.72 322.671 236.92H314.651V235.42H321.711L321.051 236C321.051 235.36 320.938 234.82 320.711 234.38C320.485 233.927 320.165 233.58 319.751 233.34C319.338 233.087 318.838 232.96 318.251 232.96C317.638 232.96 317.098 233.093 316.631 233.36C316.165 233.627 315.805 234 315.551 234.48C315.298 234.96 315.171 235.527 315.171 236.18C315.171 236.847 315.305 237.433 315.571 237.94C315.838 238.433 316.218 238.82 316.711 239.1C317.205 239.367 317.771 239.5 318.411 239.5C318.945 239.5 319.431 239.407 319.871 239.22C320.325 239.033 320.711 238.753 321.031 238.38L322.191 239.56C321.738 240.093 321.178 240.5 320.511 240.78C319.858 241.06 319.158 241.2 318.411 241.2ZM330.681 241L327.721 236.84L327.381 236.52L323.641 231.5H325.821L328.521 235.2L328.861 235.48L332.861 241H330.681ZM323.461 241L327.381 235.72L328.401 237.04L325.581 241H323.461ZM329.001 236.5L327.961 235.22L330.581 231.5H332.681L329.001 236.5ZM339.519 241.2C338.799 241.2 338.146 241.053 337.559 240.76C336.986 240.453 336.526 240.033 336.179 239.5C335.833 238.967 335.639 238.36 335.599 237.68V234.82C335.639 234.127 335.833 233.52 336.179 233C336.539 232.467 337.006 232.053 337.579 231.76C338.166 231.453 338.813 231.3 339.519 231.3C340.386 231.3 341.166 231.52 341.859 231.96C342.566 232.4 343.119 232.993 343.519 233.74C343.919 234.487 344.119 235.327 344.119 236.26C344.119 237.193 343.919 238.033 343.519 238.78C343.119 239.527 342.566 240.12 341.859 240.56C341.166 240.987 340.386 241.2 339.519 241.2ZM334.519 244.98V231.5H336.319V234L335.979 236.3L336.319 238.62V244.98H334.519ZM339.219 239.5C339.819 239.5 340.346 239.36 340.799 239.08C341.253 238.8 341.613 238.42 341.879 237.94C342.146 237.447 342.279 236.88 342.279 236.24C342.279 235.613 342.146 235.053 341.879 234.56C341.613 234.067 341.253 233.687 340.799 233.42C340.346 233.14 339.826 233 339.239 233C338.639 233 338.113 233.14 337.659 233.42C337.206 233.687 336.853 234.067 336.599 234.56C336.346 235.053 336.219 235.62 336.219 236.26C336.219 236.887 336.339 237.447 336.579 237.94C336.833 238.42 337.186 238.8 337.639 239.08C338.106 239.36 338.633 239.5 339.219 239.5ZM350.56 241.2C349.613 241.2 348.76 240.987 348 240.56C347.24 240.12 346.64 239.527 346.2 238.78C345.76 238.033 345.54 237.187 345.54 236.24C345.54 235.307 345.753 234.467 346.18 233.72C346.62 232.973 347.207 232.387 347.94 231.96C348.687 231.52 349.52 231.3 350.44 231.3C351.32 231.3 352.093 231.5 352.76 231.9C353.44 232.3 353.967 232.853 354.34 233.56C354.727 234.267 354.92 235.067 354.92 235.96C354.92 236.093 354.913 236.24 354.9 236.4C354.887 236.547 354.86 236.72 354.82 236.92H346.8V235.42H353.86L353.2 236C353.2 235.36 353.087 234.82 352.86 234.38C352.633 233.927 352.313 233.58 351.9 233.34C351.487 233.087 350.987 232.96 350.4 232.96C349.787 232.96 349.247 233.093 348.78 233.36C348.313 233.627 347.953 234 347.7 234.48C347.447 234.96 347.32 235.527 347.32 236.18C347.32 236.847 347.453 237.433 347.72 237.94C347.987 238.433 348.367 238.82 348.86 239.1C349.353 239.367 349.92 239.5 350.56 239.5C351.093 239.5 351.58 239.407 352.02 239.22C352.473 239.033 352.86 238.753 353.18 238.38L354.34 239.56C353.887 240.093 353.327 240.5 352.66 240.78C352.007 241.06 351.307 241.2 350.56 241.2ZM356.882 241V231.5H358.683V241H356.882ZM358.683 235.58L358.003 235.28C358.003 234.067 358.283 233.1 358.843 232.38C359.403 231.66 360.209 231.3 361.263 231.3C361.743 231.3 362.176 231.387 362.563 231.56C362.949 231.72 363.309 231.993 363.643 232.38L362.463 233.6C362.263 233.387 362.043 233.233 361.803 233.14C361.563 233.047 361.283 233 360.963 233C360.296 233 359.749 233.213 359.323 233.64C358.896 234.067 358.683 234.713 358.683 235.58ZM364.93 241V231.5H366.73V241H364.93ZM365.83 229.6C365.497 229.6 365.223 229.493 365.01 229.28C364.797 229.053 364.69 228.773 364.69 228.44C364.69 228.12 364.797 227.853 365.01 227.64C365.223 227.413 365.497 227.3 365.83 227.3C366.163 227.3 366.437 227.413 366.65 227.64C366.863 227.853 366.97 228.12 366.97 228.44C366.97 228.773 366.863 229.053 366.65 229.28C366.437 229.493 366.163 229.6 365.83 229.6ZM373.783 241.2C372.836 241.2 371.983 240.987 371.223 240.56C370.463 240.12 369.863 239.527 369.423 238.78C368.983 238.033 368.763 237.187 368.763 236.24C368.763 235.307 368.976 234.467 369.403 233.72C369.843 232.973 370.429 232.387 371.163 231.96C371.909 231.52 372.743 231.3 373.663 231.3C374.543 231.3 375.316 231.5 375.983 231.9C376.663 232.3 377.189 232.853 377.563 233.56C377.949 234.267 378.143 235.067 378.143 235.96C378.143 236.093 378.136 236.24 378.123 236.4C378.109 236.547 378.083 236.72 378.043 236.92H370.023V235.42H377.083L376.423 236C376.423 235.36 376.309 234.82 376.083 234.38C375.856 233.927 375.536 233.58 375.123 233.34C374.709 233.087 374.209 232.96 373.623 232.96C373.009 232.96 372.469 233.093 372.003 233.36C371.536 233.627 371.176 234 370.923 234.48C370.669 234.96 370.543 235.527 370.543 236.18C370.543 236.847 370.676 237.433 370.943 237.94C371.209 238.433 371.589 238.82 372.083 239.1C372.576 239.367 373.143 239.5 373.783 239.5C374.316 239.5 374.803 239.407 375.243 239.22C375.696 239.033 376.083 238.753 376.403 238.38L377.563 239.56C377.109 240.093 376.549 240.5 375.883 240.78C375.229 241.06 374.529 241.2 373.783 241.2ZM386.825 241V235.46C386.825 234.74 386.598 234.147 386.145 233.68C385.692 233.213 385.105 232.98 384.385 232.98C383.905 232.98 383.478 233.087 383.105 233.3C382.732 233.513 382.438 233.807 382.225 234.18C382.012 234.553 381.905 234.98 381.905 235.46L381.165 235.04C381.165 234.32 381.325 233.68 381.645 233.12C381.965 232.56 382.412 232.12 382.985 231.8C383.558 231.467 384.205 231.3 384.925 231.3C385.645 231.3 386.278 231.48 386.825 231.84C387.385 232.2 387.825 232.673 388.145 233.26C388.465 233.833 388.625 234.447 388.625 235.1V241H386.825ZM380.105 241V231.5H381.905V241H380.105ZM395.402 241.2C394.469 241.2 393.622 240.98 392.862 240.54C392.116 240.1 391.522 239.507 391.082 238.76C390.656 238 390.442 237.16 390.442 236.24C390.442 235.307 390.656 234.467 391.082 233.72C391.522 232.973 392.116 232.387 392.862 231.96C393.622 231.52 394.469 231.3 395.402 231.3C396.136 231.3 396.816 231.44 397.442 231.72C398.069 231.987 398.609 232.38 399.062 232.9L397.862 234.1C397.569 233.753 397.209 233.493 396.782 233.32C396.369 233.133 395.909 233.04 395.402 233.04C394.802 233.04 394.269 233.18 393.802 233.46C393.336 233.727 392.969 234.1 392.702 234.58C392.436 235.06 392.302 235.613 392.302 236.24C392.302 236.867 392.436 237.42 392.702 237.9C392.969 238.38 393.336 238.76 393.802 239.04C394.269 239.32 394.802 239.46 395.402 239.46C395.909 239.46 396.369 239.373 396.782 239.2C397.209 239.013 397.576 238.747 397.882 238.4L399.062 239.6C398.622 240.107 398.082 240.5 397.442 240.78C396.816 241.06 396.136 241.2 395.402 241.2ZM405.052 241.2C404.105 241.2 403.252 240.987 402.492 240.56C401.732 240.12 401.132 239.527 400.692 238.78C400.252 238.033 400.032 237.187 400.032 236.24C400.032 235.307 400.245 234.467 400.672 233.72C401.112 232.973 401.699 232.387 402.432 231.96C403.179 231.52 404.012 231.3 404.932 231.3C405.812 231.3 406.585 231.5 407.252 231.9C407.932 232.3 408.459 232.853 408.832 233.56C409.219 234.267 409.412 235.067 409.412 235.96C409.412 236.093 409.405 236.24 409.392 236.4C409.379 236.547 409.352 236.72 409.312 236.92H401.292V235.42H408.352L407.692 236C407.692 235.36 407.579 234.82 407.352 234.38C407.125 233.927 406.805 233.58 406.392 233.34C405.979 233.087 405.479 232.96 404.892 232.96C404.279 232.96 403.739 233.093 403.272 233.36C402.805 233.627 402.445 234 402.192 234.48C401.939 234.96 401.812 235.527 401.812 236.18C401.812 236.847 401.945 237.433 402.212 237.94C402.479 238.433 402.859 238.82 403.352 239.1C403.845 239.367 404.412 239.5 405.052 239.5C405.585 239.5 406.072 239.407 406.512 239.22C406.965 239.033 407.352 238.753 407.672 238.38L408.832 239.56C408.379 240.093 407.819 240.5 407.152 240.78C406.499 241.06 405.799 241.2 405.052 241.2ZM412.955 241.2C412.581 241.2 412.268 241.073 412.015 240.82C411.775 240.553 411.655 240.24 411.655 239.88C411.655 239.507 411.775 239.2 412.015 238.96C412.268 238.707 412.581 238.58 412.955 238.58C413.328 238.58 413.635 238.707 413.875 238.96C414.128 239.2 414.255 239.507 414.255 239.88C414.255 240.24 414.128 240.553 413.875 240.82C413.635 241.073 413.328 241.2 412.955 241.2Z" fill="#A6AAB3"/>
<path d="M24 303C24 293.101 24 288.151 27.0754 285.075C30.1508 282 35.1005 282 45 282H185C194.899 282 199.849 282 202.925 285.075C206 288.151 206 293.101 206 303V310C206 319.899 206 324.849 202.925 327.925C199.849 331 194.899 331 185 331H45C35.1005 331 30.1508 331 27.0754 327.925C24 324.849 24 319.899 24 310V303Z" fill="#6061EE"/>
<path d="M96.8194 312V310.6H99.6334C100.128 310.6 100.511 310.446 100.781 310.138C101.052 309.83 101.187 309.475 101.187 309.074C101.187 308.803 101.127 308.551 101.005 308.318C100.884 308.085 100.707 307.898 100.473 307.758C100.24 307.618 99.9601 307.548 99.6334 307.548H96.8194V306.148H99.3954C99.8154 306.148 100.151 306.041 100.403 305.826C100.655 305.611 100.781 305.294 100.781 304.874C100.781 304.454 100.655 304.137 100.403 303.922C100.151 303.707 99.8154 303.6 99.3954 303.6H96.8194V302.2H99.4374C100.1 302.2 100.651 302.321 101.089 302.564C101.528 302.807 101.855 303.119 102.069 303.502C102.284 303.885 102.391 304.295 102.391 304.734C102.391 305.247 102.247 305.7 101.957 306.092C101.677 306.484 101.262 306.801 100.711 307.044L100.837 306.54C101.453 306.792 101.934 307.147 102.279 307.604C102.625 308.061 102.797 308.598 102.797 309.214C102.797 309.718 102.671 310.18 102.419 310.6C102.177 311.02 101.813 311.361 101.327 311.622C100.851 311.874 100.263 312 99.5634 312H96.8194ZM95.7134 312V302.2H97.3234V312H95.7134ZM106.97 312.14C106.401 312.14 105.892 312.014 105.444 311.762C105.006 311.51 104.66 311.165 104.408 310.726C104.166 310.278 104.044 309.765 104.044 309.186V305.28H105.584V309.116C105.584 309.443 105.636 309.723 105.738 309.956C105.85 310.18 106.009 310.353 106.214 310.474C106.429 310.595 106.681 310.656 106.97 310.656C107.418 310.656 107.759 310.525 107.992 310.264C108.235 309.993 108.356 309.611 108.356 309.116V305.28H109.896V309.186C109.896 309.774 109.77 310.292 109.518 310.74C109.276 311.179 108.935 311.524 108.496 311.776C108.058 312.019 107.549 312.14 106.97 312.14ZM112.467 312V302.48H114.007V312H112.467ZM110.857 306.68V305.28H119.677V306.68H110.857ZM116.527 312V302.48H118.067V312H116.527ZM123.685 312.14C123.032 312.14 122.439 311.986 121.907 311.678C121.375 311.361 120.95 310.936 120.633 310.404C120.325 309.872 120.171 309.279 120.171 308.626C120.171 307.973 120.325 307.385 120.633 306.862C120.95 306.339 121.375 305.924 121.907 305.616C122.439 305.299 123.032 305.14 123.685 305.14C124.348 305.14 124.945 305.294 125.477 305.602C126.009 305.91 126.429 306.33 126.737 306.862C127.054 307.385 127.213 307.973 127.213 308.626C127.213 309.279 127.054 309.872 126.737 310.404C126.429 310.936 126.009 311.361 125.477 311.678C124.945 311.986 124.348 312.14 123.685 312.14ZM123.685 310.656C124.068 310.656 124.404 310.572 124.693 310.404C124.992 310.227 125.22 309.984 125.379 309.676C125.547 309.368 125.631 309.018 125.631 308.626C125.631 308.234 125.547 307.889 125.379 307.59C125.211 307.291 124.982 307.058 124.693 306.89C124.404 306.713 124.068 306.624 123.685 306.624C123.312 306.624 122.976 306.713 122.677 306.89C122.388 307.058 122.159 307.291 121.991 307.59C121.832 307.889 121.753 308.234 121.753 308.626C121.753 309.018 121.832 309.368 121.991 309.676C122.159 309.984 122.388 310.227 122.677 310.404C122.976 310.572 123.312 310.656 123.685 310.656ZM133.1 312V308.122C133.1 307.674 132.955 307.305 132.666 307.016C132.386 306.727 132.022 306.582 131.574 306.582C131.275 306.582 131.009 306.647 130.776 306.778C130.542 306.909 130.36 307.091 130.23 307.324C130.099 307.557 130.034 307.823 130.034 308.122L129.432 307.786C129.432 307.273 129.544 306.82 129.768 306.428C129.992 306.027 130.3 305.714 130.692 305.49C131.093 305.257 131.541 305.14 132.036 305.14C132.54 305.14 132.988 305.271 133.38 305.532C133.772 305.784 134.08 306.115 134.304 306.526C134.528 306.927 134.64 307.347 134.64 307.786V312H133.1ZM128.494 312V305.28H130.034V312H128.494Z" fill="white"/>
</svg>
