<svg width="1427" height="233" viewBox="0 0 1427 233" fill="none" xmlns="http://www.w3.org/2000/svg">
<g clip-path="url(#clip0_14126_1033)">
<g filter="url(#filter0_d_14126_1033)">
<circle cx="105.5" cy="73.5" r="10.5" stroke="#4F46E5" stroke-width="10"/>
</g>
<g filter="url(#filter1_d_14126_1033)">
<circle cx="83.5" cy="138.5" r="10.5" stroke="#4F46E5" stroke-width="10"/>
</g>
<g filter="url(#filter2_d_14126_1033)">
<circle cx="129.5" cy="115.5" r="10.5" stroke="#4F46E5" stroke-width="10"/>
</g>
</g>
<path d="M40.9702 204V201.62H43.2942C43.8168 201.62 44.2695 201.527 44.6522 201.34C45.0348 201.144 45.3288 200.85 45.5342 200.458C45.7395 200.066 45.8422 199.581 45.8422 199.002C45.8422 198.423 45.7348 197.943 45.5202 197.56C45.3148 197.177 45.0208 196.893 44.6382 196.706C44.2648 196.51 43.8168 196.412 43.2942 196.412H40.8302V194.032H43.2942C44.0782 194.032 44.7968 194.149 45.4502 194.382C46.1128 194.615 46.6868 194.951 47.1722 195.39C47.6575 195.829 48.0308 196.356 48.2922 196.972C48.5628 197.579 48.6982 198.26 48.6982 199.016C48.6982 199.772 48.5628 200.458 48.2922 201.074C48.0308 201.681 47.6575 202.203 47.1722 202.642C46.6868 203.081 46.1175 203.417 45.4642 203.65C44.8108 203.883 44.0968 204 43.3222 204H40.9702ZM39.0942 204V194.032H41.8942V204H39.0942ZM51.2403 204V194.032H54.0403V204H51.2403ZM53.5083 204V201.676H58.8563V204H53.5083ZM53.5083 200.052V197.784H58.3383V200.052H53.5083ZM53.5083 196.356V194.032H58.7723V196.356H53.5083ZM64.5556 204.168C63.7062 204.168 62.9642 204.047 62.3296 203.804C61.7042 203.552 61.1256 203.155 60.5936 202.614L62.3436 200.864C62.7076 201.209 63.0902 201.475 63.4916 201.662C63.8929 201.839 64.3222 201.928 64.7796 201.928C65.1622 201.928 65.4516 201.872 65.6476 201.76C65.8436 201.639 65.9416 201.475 65.9416 201.27C65.9416 201.065 65.8576 200.897 65.6896 200.766C65.5216 200.626 65.2976 200.505 65.0176 200.402C64.7469 200.29 64.4436 200.178 64.1076 200.066C63.7809 199.954 63.4542 199.819 63.1276 199.66C62.8009 199.501 62.4976 199.31 62.2176 199.086C61.9469 198.853 61.7276 198.568 61.5596 198.232C61.3916 197.887 61.3076 197.467 61.3076 196.972C61.3076 196.328 61.4616 195.773 61.7696 195.306C62.0776 194.839 62.5116 194.485 63.0716 194.242C63.6316 193.99 64.2896 193.864 65.0456 193.864C65.7922 193.864 66.4829 193.985 67.1176 194.228C67.7616 194.461 68.2936 194.797 68.7136 195.236L66.9496 196.986C66.6416 196.687 66.3336 196.468 66.0256 196.328C65.7176 196.179 65.3816 196.104 65.0176 196.104C64.7282 196.104 64.4949 196.151 64.3176 196.244C64.1496 196.337 64.0656 196.477 64.0656 196.664C64.0656 196.86 64.1496 197.023 64.3176 197.154C64.4856 197.275 64.7049 197.387 64.9756 197.49C65.2556 197.593 65.5589 197.7 65.8856 197.812C66.2216 197.924 66.5529 198.059 66.8796 198.218C67.2062 198.367 67.5049 198.563 67.7756 198.806C68.0556 199.039 68.2796 199.333 68.4476 199.688C68.6156 200.043 68.6996 200.472 68.6996 200.976C68.6996 201.993 68.3356 202.782 67.6076 203.342C66.8889 203.893 65.8716 204.168 64.5556 204.168ZM71.2668 204V194.032H74.0668V204H71.2668ZM82.0379 204.168C81.2632 204.168 80.5445 204.042 79.8819 203.79C79.2285 203.529 78.6545 203.165 78.1599 202.698C77.6745 202.231 77.2965 201.685 77.0259 201.06C76.7552 200.435 76.6199 199.753 76.6199 199.016C76.6199 198.269 76.7599 197.583 77.0399 196.958C77.3292 196.333 77.7259 195.791 78.2299 195.334C78.7432 194.867 79.3359 194.508 80.0079 194.256C80.6799 193.995 81.3985 193.864 82.1639 193.864C83.0879 193.864 83.9139 194.023 84.6419 194.34C85.3792 194.657 85.9765 195.087 86.4339 195.628L84.5439 197.518C84.1985 197.117 83.8392 196.818 83.4659 196.622C83.0925 196.426 82.6445 196.328 82.1219 196.328C81.6272 196.328 81.1792 196.44 80.7779 196.664C80.3765 196.879 80.0545 197.187 79.8119 197.588C79.5785 197.989 79.4619 198.461 79.4619 199.002C79.4619 199.543 79.5692 200.019 79.7839 200.43C80.0079 200.831 80.3159 201.144 80.7079 201.368C81.0999 201.592 81.5572 201.704 82.0799 201.704C82.5839 201.704 83.0085 201.606 83.3539 201.41C83.6992 201.214 83.9605 200.934 84.1379 200.57C84.3245 200.206 84.4179 199.777 84.4179 199.282L86.3359 200.5L81.7019 200.36V198.12H87.2319V198.54C87.2319 199.735 87.0125 200.752 86.5739 201.592C86.1445 202.432 85.5379 203.071 84.7539 203.51C83.9792 203.949 83.0739 204.168 82.0379 204.168ZM89.6801 204V194.032H91.6401L92.4801 196.132V204H89.6801ZM96.5401 204L90.7581 196.734L91.6401 194.032L97.4221 201.298L96.5401 204ZM96.5401 204L95.8401 201.788V194.032H98.6401V204H96.5401ZM111.682 204V194.032H114.482V204H111.682ZM108.7 196.412V194.032H117.478V196.412H108.7ZM124.462 204.196C123.678 204.196 122.955 204.065 122.292 203.804C121.639 203.543 121.065 203.179 120.57 202.712C120.085 202.245 119.707 201.695 119.436 201.06C119.165 200.425 119.03 199.739 119.03 199.002C119.03 198.255 119.161 197.569 119.422 196.944C119.693 196.319 120.071 195.773 120.556 195.306C121.041 194.839 121.611 194.48 122.264 194.228C122.927 193.967 123.65 193.836 124.434 193.836C125.218 193.836 125.937 193.967 126.59 194.228C127.253 194.48 127.827 194.839 128.312 195.306C128.797 195.773 129.171 196.323 129.432 196.958C129.703 197.583 129.838 198.269 129.838 199.016C129.838 199.753 129.703 200.439 129.432 201.074C129.171 201.699 128.797 202.25 128.312 202.726C127.827 203.193 127.257 203.557 126.604 203.818C125.951 204.07 125.237 204.196 124.462 204.196ZM124.434 201.732C124.957 201.732 125.409 201.62 125.792 201.396C126.175 201.172 126.469 200.855 126.674 200.444C126.879 200.033 126.982 199.553 126.982 199.002C126.982 198.591 126.921 198.223 126.8 197.896C126.688 197.56 126.52 197.275 126.296 197.042C126.072 196.799 125.801 196.617 125.484 196.496C125.176 196.365 124.826 196.3 124.434 196.3C123.911 196.3 123.459 196.412 123.076 196.636C122.693 196.851 122.399 197.163 122.194 197.574C121.989 197.975 121.886 198.451 121.886 199.002C121.886 199.422 121.942 199.8 122.054 200.136C122.175 200.472 122.348 200.761 122.572 201.004C122.796 201.237 123.062 201.419 123.37 201.55C123.687 201.671 124.042 201.732 124.434 201.732ZM138.439 204L134.953 198.806L138.271 194.032H141.645L137.809 199.212V198.316L141.799 204H138.439ZM132.391 204V194.032H135.191V204H132.391ZM143.867 204V194.032H146.667V204H143.867ZM146.135 204V201.676H151.483V204H146.135ZM146.135 200.052V197.784H150.965V200.052H146.135ZM146.135 196.356V194.032H151.399V196.356H146.135ZM154.209 204V194.032H156.169L157.009 196.132V204H154.209ZM161.069 204L155.287 196.734L156.169 194.032L161.951 201.298L161.069 204ZM161.069 204L160.369 201.788V194.032H163.169V204H161.069ZM169.247 204.168C168.397 204.168 167.655 204.047 167.021 203.804C166.395 203.552 165.817 203.155 165.285 202.614L167.035 200.864C167.399 201.209 167.781 201.475 168.183 201.662C168.584 201.839 169.013 201.928 169.471 201.928C169.853 201.928 170.143 201.872 170.339 201.76C170.535 201.639 170.633 201.475 170.633 201.27C170.633 201.065 170.549 200.897 170.381 200.766C170.213 200.626 169.989 200.505 169.709 200.402C169.438 200.29 169.135 200.178 168.799 200.066C168.472 199.954 168.145 199.819 167.819 199.66C167.492 199.501 167.189 199.31 166.909 199.086C166.638 198.853 166.419 198.568 166.251 198.232C166.083 197.887 165.999 197.467 165.999 196.972C165.999 196.328 166.153 195.773 166.461 195.306C166.769 194.839 167.203 194.485 167.763 194.242C168.323 193.99 168.981 193.864 169.737 193.864C170.483 193.864 171.174 193.985 171.809 194.228C172.453 194.461 172.985 194.797 173.405 195.236L171.641 196.986C171.333 196.687 171.025 196.468 170.717 196.328C170.409 196.179 170.073 196.104 169.709 196.104C169.419 196.104 169.186 196.151 169.009 196.244C168.841 196.337 168.757 196.477 168.757 196.664C168.757 196.86 168.841 197.023 169.009 197.154C169.177 197.275 169.396 197.387 169.667 197.49C169.947 197.593 170.25 197.7 170.577 197.812C170.913 197.924 171.244 198.059 171.571 198.218C171.897 198.367 172.196 198.563 172.467 198.806C172.747 199.039 172.971 199.333 173.139 199.688C173.307 200.043 173.391 200.472 173.391 200.976C173.391 201.993 173.027 202.782 172.299 203.342C171.58 203.893 170.563 204.168 169.247 204.168Z" fill="#2A2C35"/>
<path fill-rule="evenodd" clip-rule="evenodd" d="M225 105.531C225 103.991 226.667 103.029 228 103.798L247 114.768C248.333 115.538 248.333 117.462 247 118.232L228 129.202C226.667 129.972 225 129.009 225 127.47V124C225 122.896 224.105 122 223 122H207C205.895 122 205 121.105 205 120V113C205 111.896 205.895 111 207 111H223C224.105 111 225 110.105 225 109V105.531Z" fill="#646A77"/>
<g clip-path="url(#clip1_14126_1033)">
<g filter="url(#filter3_d_14126_1033)">
<circle cx="349.5" cy="106.5" r="57.5" stroke="#4F46E5" stroke-width="12"/>
</g>
<g filter="url(#filter4_d_14126_1033)">
<circle cx="349.5" cy="106.5" r="19.5" stroke="#4F46E5" stroke-width="12"/>
</g>
</g>
<path d="M321.114 204L324.908 194.032H327.764L331.516 204H328.604L325.818 195.53H326.826L323.97 204H321.114ZM323.578 202.32V200.136H329.15V202.32H323.578ZM335.111 204V194.032H337.911V204H335.111ZM332.129 196.412V194.032H340.907V196.412H332.129ZM347.891 204.196C347.107 204.196 346.383 204.065 345.721 203.804C345.067 203.543 344.493 203.179 343.999 202.712C343.513 202.245 343.135 201.695 342.865 201.06C342.594 200.425 342.459 199.739 342.459 199.002C342.459 198.255 342.589 197.569 342.851 196.944C343.121 196.319 343.499 195.773 343.985 195.306C344.47 194.839 345.039 194.48 345.693 194.228C346.355 193.967 347.079 193.836 347.863 193.836C348.647 193.836 349.365 193.967 350.019 194.228C350.681 194.48 351.255 194.839 351.741 195.306C352.226 195.773 352.599 196.323 352.861 196.958C353.131 197.583 353.267 198.269 353.267 199.016C353.267 199.753 353.131 200.439 352.861 201.074C352.599 201.699 352.226 202.25 351.741 202.726C351.255 203.193 350.686 203.557 350.033 203.818C349.379 204.07 348.665 204.196 347.891 204.196ZM347.863 201.732C348.385 201.732 348.838 201.62 349.221 201.396C349.603 201.172 349.897 200.855 350.103 200.444C350.308 200.033 350.411 199.553 350.411 199.002C350.411 198.591 350.35 198.223 350.229 197.896C350.117 197.56 349.949 197.275 349.725 197.042C349.501 196.799 349.23 196.617 348.913 196.496C348.605 196.365 348.255 196.3 347.863 196.3C347.34 196.3 346.887 196.412 346.505 196.636C346.122 196.851 345.828 197.163 345.623 197.574C345.417 197.975 345.315 198.451 345.315 199.002C345.315 199.422 345.371 199.8 345.483 200.136C345.604 200.472 345.777 200.761 346.001 201.004C346.225 201.237 346.491 201.419 346.799 201.55C347.116 201.671 347.471 201.732 347.863 201.732ZM355.82 204V194.032H357.85L361.56 199.464H360.678L364.374 194.032H366.404V204H363.632V198.624L364.038 198.736L362.008 201.648H360.216L358.2 198.736L358.592 198.624V204H355.82ZM372.485 204.168C371.635 204.168 370.893 204.047 370.259 203.804C369.633 203.552 369.055 203.155 368.523 202.614L370.273 200.864C370.637 201.209 371.019 201.475 371.421 201.662C371.822 201.839 372.251 201.928 372.709 201.928C373.091 201.928 373.381 201.872 373.577 201.76C373.773 201.639 373.871 201.475 373.871 201.27C373.871 201.065 373.787 200.897 373.619 200.766C373.451 200.626 373.227 200.505 372.947 200.402C372.676 200.29 372.373 200.178 372.037 200.066C371.71 199.954 371.383 199.819 371.057 199.66C370.73 199.501 370.427 199.31 370.147 199.086C369.876 198.853 369.657 198.568 369.489 198.232C369.321 197.887 369.237 197.467 369.237 196.972C369.237 196.328 369.391 195.773 369.699 195.306C370.007 194.839 370.441 194.485 371.001 194.242C371.561 193.99 372.219 193.864 372.975 193.864C373.721 193.864 374.412 193.985 375.047 194.228C375.691 194.461 376.223 194.797 376.643 195.236L374.879 196.986C374.571 196.687 374.263 196.468 373.955 196.328C373.647 196.179 373.311 196.104 372.947 196.104C372.657 196.104 372.424 196.151 372.247 196.244C372.079 196.337 371.995 196.477 371.995 196.664C371.995 196.86 372.079 197.023 372.247 197.154C372.415 197.275 372.634 197.387 372.905 197.49C373.185 197.593 373.488 197.7 373.815 197.812C374.151 197.924 374.482 198.059 374.809 198.218C375.135 198.367 375.434 198.563 375.705 198.806C375.985 199.039 376.209 199.333 376.377 199.688C376.545 200.043 376.629 200.472 376.629 200.976C376.629 201.993 376.265 202.782 375.537 203.342C374.818 203.893 373.801 204.168 372.485 204.168Z" fill="#2A2C35"/>
<path fill-rule="evenodd" clip-rule="evenodd" d="M468 105.531C468 103.991 469.667 103.029 471 103.798L490 114.768C491.333 115.538 491.333 117.462 490 118.232L471 129.202C469.667 129.972 468 129.009 468 127.47V124C468 122.896 467.105 122 466 122H450C448.895 122 448 121.105 448 120V113C448 111.896 448.895 111 450 111H466C467.105 111 468 110.105 468 109V105.531Z" fill="#646A77"/>
<g clip-path="url(#clip2_14126_1033)">
<g filter="url(#filter5_d_14126_1033)">
<circle cx="592.5" cy="106.5" r="11.5" stroke="#4F46E5" stroke-width="10"/>
</g>
<g filter="url(#filter6_d_14126_1033)">
<circle cx="593.5" cy="59.5" r="10.5" stroke="#4F46E5" stroke-width="10"/>
</g>
<g filter="url(#filter7_d_14126_1033)">
<circle cx="547.5" cy="140.5" r="10.5" stroke="#4F46E5" stroke-width="10"/>
</g>
<g filter="url(#filter8_d_14126_1033)">
<circle cx="648.5" cy="147.5" r="10.5" stroke="#4F46E5" stroke-width="10"/>
</g>
<path d="M593.5 69.5L593 98.5" stroke="#4F46E5" stroke-width="10"/>
<path d="M642 144L598.5 112.5" stroke="#4F46E5" stroke-width="10"/>
<path d="M553.5 136L585.5 111.5" stroke="#4F46E5" stroke-width="10"/>
</g>
<path d="M545.001 204V194.032H547.031L550.741 199.464H549.859L553.555 194.032H555.585V204H552.813V198.624L553.219 198.736L551.189 201.648H549.397L547.381 198.736L547.773 198.624V204H545.001ZM563.566 204.196C562.782 204.196 562.058 204.065 561.396 203.804C560.742 203.543 560.168 203.179 559.674 202.712C559.188 202.245 558.81 201.695 558.54 201.06C558.269 200.425 558.134 199.739 558.134 199.002C558.134 198.255 558.264 197.569 558.526 196.944C558.796 196.319 559.174 195.773 559.66 195.306C560.145 194.839 560.714 194.48 561.368 194.228C562.03 193.967 562.754 193.836 563.538 193.836C564.322 193.836 565.04 193.967 565.694 194.228C566.356 194.48 566.93 194.839 567.416 195.306C567.901 195.773 568.274 196.323 568.536 196.958C568.806 197.583 568.942 198.269 568.942 199.016C568.942 199.753 568.806 200.439 568.536 201.074C568.274 201.699 567.901 202.25 567.416 202.726C566.93 203.193 566.361 203.557 565.708 203.818C565.054 204.07 564.34 204.196 563.566 204.196ZM563.538 201.732C564.06 201.732 564.513 201.62 564.896 201.396C565.278 201.172 565.572 200.855 565.778 200.444C565.983 200.033 566.086 199.553 566.086 199.002C566.086 198.591 566.025 198.223 565.904 197.896C565.792 197.56 565.624 197.275 565.4 197.042C565.176 196.799 564.905 196.617 564.588 196.496C564.28 196.365 563.93 196.3 563.538 196.3C563.015 196.3 562.562 196.412 562.18 196.636C561.797 196.851 561.503 197.163 561.298 197.574C561.092 197.975 560.99 198.451 560.99 199.002C560.99 199.422 561.046 199.8 561.158 200.136C561.279 200.472 561.452 200.761 561.676 201.004C561.9 201.237 562.166 201.419 562.474 201.55C562.791 201.671 563.146 201.732 563.538 201.732ZM571.495 204V194.032H574.295V204H571.495ZM573.777 204V201.62H578.439V204H573.777ZM580.906 204V194.032H583.706V204H580.906ZM583.174 204V201.676H588.522V204H583.174ZM583.174 200.052V197.784H588.004V200.052H583.174ZM583.174 196.356V194.032H588.438V196.356H583.174ZM596.012 204.168C595.246 204.168 594.532 204.042 593.87 203.79C593.216 203.529 592.642 203.165 592.148 202.698C591.653 202.231 591.266 201.685 590.986 201.06C590.715 200.425 590.58 199.739 590.58 199.002C590.58 198.255 590.715 197.569 590.986 196.944C591.266 196.319 591.648 195.777 592.134 195.32C592.628 194.863 593.202 194.508 593.856 194.256C594.509 193.995 595.218 193.864 595.984 193.864C596.758 193.864 597.468 193.985 598.112 194.228C598.756 194.471 599.316 194.807 599.792 195.236L597.93 197.112C597.706 196.869 597.43 196.678 597.104 196.538C596.786 196.398 596.413 196.328 595.984 196.328C595.61 196.328 595.265 196.389 594.948 196.51C594.64 196.631 594.374 196.809 594.15 197.042C593.926 197.275 593.748 197.56 593.618 197.896C593.496 198.223 593.436 198.591 593.436 199.002C593.436 199.422 593.496 199.8 593.618 200.136C593.748 200.463 593.926 200.743 594.15 200.976C594.374 201.209 594.64 201.391 594.948 201.522C595.265 201.643 595.61 201.704 595.984 201.704C596.404 201.704 596.777 201.639 597.104 201.508C597.44 201.377 597.729 201.186 597.972 200.934L599.848 202.81C599.353 203.239 598.798 203.575 598.182 203.818C597.566 204.051 596.842 204.168 596.012 204.168ZM606.404 204.168C605.527 204.168 604.762 203.991 604.108 203.636C603.455 203.272 602.946 202.773 602.582 202.138C602.218 201.503 602.036 200.775 602.036 199.954V194.032H604.836V200.206C604.836 200.523 604.906 200.794 605.046 201.018C605.186 201.242 605.373 201.415 605.606 201.536C605.849 201.648 606.115 201.704 606.404 201.704C606.703 201.704 606.964 201.648 607.188 201.536C607.422 201.415 607.604 201.247 607.734 201.032C607.865 200.808 607.93 200.537 607.93 200.22V194.032H610.744V199.968C610.744 200.789 610.562 201.517 610.198 202.152C609.844 202.777 609.34 203.272 608.686 203.636C608.042 203.991 607.282 204.168 606.404 204.168ZM613.612 204V194.032H616.412V204H613.612ZM615.894 204V201.62H620.556V204H615.894ZM623.024 204V194.032H625.824V204H623.024ZM625.292 204V201.676H630.64V204H625.292ZM625.292 200.052V197.784H630.122V200.052H625.292ZM625.292 196.356V194.032H630.556V196.356H625.292ZM636.339 204.168C635.49 204.168 634.748 204.047 634.113 203.804C633.488 203.552 632.909 203.155 632.377 202.614L634.127 200.864C634.491 201.209 634.874 201.475 635.275 201.662C635.677 201.839 636.106 201.928 636.563 201.928C636.946 201.928 637.235 201.872 637.431 201.76C637.627 201.639 637.725 201.475 637.725 201.27C637.725 201.065 637.641 200.897 637.473 200.766C637.305 200.626 637.081 200.505 636.801 200.402C636.531 200.29 636.227 200.178 635.891 200.066C635.565 199.954 635.238 199.819 634.911 199.66C634.585 199.501 634.281 199.31 634.001 199.086C633.731 198.853 633.511 198.568 633.343 198.232C633.175 197.887 633.091 197.467 633.091 196.972C633.091 196.328 633.245 195.773 633.553 195.306C633.861 194.839 634.295 194.485 634.855 194.242C635.415 193.99 636.073 193.864 636.829 193.864C637.576 193.864 638.267 193.985 638.901 194.228C639.545 194.461 640.077 194.797 640.497 195.236L638.733 196.986C638.425 196.687 638.117 196.468 637.809 196.328C637.501 196.179 637.165 196.104 636.801 196.104C636.512 196.104 636.279 196.151 636.101 196.244C635.933 196.337 635.849 196.477 635.849 196.664C635.849 196.86 635.933 197.023 636.101 197.154C636.269 197.275 636.489 197.387 636.759 197.49C637.039 197.593 637.343 197.7 637.669 197.812C638.005 197.924 638.337 198.059 638.663 198.218C638.99 198.367 639.289 198.563 639.559 198.806C639.839 199.039 640.063 199.333 640.231 199.688C640.399 200.043 640.483 200.472 640.483 200.976C640.483 201.993 640.119 202.782 639.391 203.342C638.673 203.893 637.655 204.168 636.339 204.168Z" fill="#2A2C35"/>
<path fill-rule="evenodd" clip-rule="evenodd" d="M711 105.531C711 103.991 712.667 103.029 714 103.798L733 114.768C734.333 115.538 734.333 117.462 733 118.232L714 129.202C712.667 129.972 711 129.009 711 127.47V124C711 122.896 710.105 122 709 122H693C691.895 122 691 121.105 691 120V113C691 111.896 691.895 111 693 111H709C710.105 111 711 110.105 711 109V105.531Z" fill="#646A77"/>
<g clip-path="url(#clip3_14126_1033)">
<g filter="url(#filter9_d_14126_1033)">
<circle cx="786.5" cy="55.5" r="10.5" stroke="#4F46E5" stroke-width="10"/>
</g>
<g filter="url(#filter10_d_14126_1033)">
<circle cx="835.5" cy="55.5" r="10.5" stroke="#4F46E5" stroke-width="10"/>
</g>
<g filter="url(#filter11_d_14126_1033)">
<circle cx="884.5" cy="55.5" r="10.5" stroke="#4F46E5" stroke-width="10"/>
</g>
<g filter="url(#filter12_d_14126_1033)">
<circle cx="786.5" cy="98.5" r="10.5" stroke="#4F46E5" stroke-width="10"/>
</g>
<g filter="url(#filter13_d_14126_1033)">
<circle cx="835.5" cy="98.5" r="10.5" stroke="#4F46E5" stroke-width="10"/>
</g>
<g filter="url(#filter14_d_14126_1033)">
<circle cx="884.5" cy="98.5" r="10.5" stroke="#4F46E5" stroke-width="10"/>
</g>
<g filter="url(#filter15_d_14126_1033)">
<circle cx="786.5" cy="141.5" r="10.5" stroke="#4F46E5" stroke-width="10"/>
</g>
<g filter="url(#filter16_d_14126_1033)">
<circle cx="835.5" cy="141.5" r="10.5" stroke="#4F46E5" stroke-width="10"/>
</g>
<g filter="url(#filter17_d_14126_1033)">
<circle cx="884.5" cy="141.5" r="10.5" stroke="#4F46E5" stroke-width="10"/>
</g>
<line x1="796" y1="55" x2="826" y2="55" stroke="#4F46E5" stroke-width="10"/>
<line x1="844" y1="55" x2="874" y2="55" stroke="#4F46E5" stroke-width="10"/>
<line x1="796" y1="98" x2="826" y2="98" stroke="#4F46E5" stroke-width="10"/>
<line x1="844" y1="98" x2="874" y2="98" stroke="#4F46E5" stroke-width="10"/>
<line x1="796" y1="140" x2="826" y2="140" stroke="#4F46E5" stroke-width="10"/>
<line x1="844" y1="140" x2="874" y2="140" stroke="#4F46E5" stroke-width="10"/>
<line x1="884.5" y1="61.5" x2="884.5" y2="89.5769" stroke="#4F46E5" stroke-width="10"/>
<line x1="884.5" y1="106.423" x2="884.5" y2="134.5" stroke="#4F46E5" stroke-width="10"/>
<line x1="836" y1="61.5" x2="836" y2="89.5769" stroke="#4F46E5" stroke-width="10"/>
<line x1="836" y1="106.423" x2="836" y2="134.5" stroke="#4F46E5" stroke-width="10"/>
<line x1="787" y1="61.5" x2="787" y2="89.5769" stroke="#4F46E5" stroke-width="10"/>
<line x1="787" y1="106.423" x2="787" y2="134.5" stroke="#4F46E5" stroke-width="10"/>
</g>
<path d="M792.19 204.196C791.406 204.196 790.683 204.065 790.02 203.804C789.367 203.543 788.793 203.179 788.298 202.712C787.813 202.245 787.435 201.695 787.164 201.06C786.893 200.425 786.758 199.739 786.758 199.002C786.758 198.255 786.889 197.569 787.15 196.944C787.421 196.319 787.799 195.773 788.284 195.306C788.769 194.839 789.339 194.48 789.992 194.228C790.655 193.967 791.378 193.836 792.162 193.836C792.946 193.836 793.665 193.967 794.318 194.228C794.981 194.48 795.555 194.839 796.04 195.306C796.525 195.773 796.899 196.323 797.16 196.958C797.431 197.583 797.566 198.269 797.566 199.016C797.566 199.753 797.431 200.439 797.16 201.074C796.899 201.699 796.525 202.25 796.04 202.726C795.555 203.193 794.985 203.557 794.332 203.818C793.679 204.07 792.965 204.196 792.19 204.196ZM792.162 201.732C792.685 201.732 793.137 201.62 793.52 201.396C793.903 201.172 794.197 200.855 794.402 200.444C794.607 200.033 794.71 199.553 794.71 199.002C794.71 198.591 794.649 198.223 794.528 197.896C794.416 197.56 794.248 197.275 794.024 197.042C793.8 196.799 793.529 196.617 793.212 196.496C792.904 196.365 792.554 196.3 792.162 196.3C791.639 196.3 791.187 196.412 790.804 196.636C790.421 196.851 790.127 197.163 789.922 197.574C789.717 197.975 789.614 198.451 789.614 199.002C789.614 199.422 789.67 199.8 789.782 200.136C789.903 200.472 790.076 200.761 790.3 201.004C790.524 201.237 790.79 201.419 791.098 201.55C791.415 201.671 791.77 201.732 792.162 201.732ZM802.387 200.024V198.092H804.081C804.464 198.092 804.753 197.999 804.949 197.812C805.154 197.625 805.257 197.378 805.257 197.07C805.257 196.762 805.154 196.515 804.949 196.328C804.753 196.141 804.464 196.048 804.081 196.048H802.387V194.032H804.529C805.22 194.032 805.826 194.158 806.349 194.41C806.872 194.662 807.282 195.012 807.581 195.46C807.88 195.908 808.029 196.431 808.029 197.028C808.029 197.625 807.875 198.148 807.567 198.596C807.268 199.044 806.848 199.394 806.307 199.646C805.766 199.898 805.126 200.024 804.389 200.024H802.387ZM800.119 204V194.032H802.919V204H800.119ZM805.495 204L802.779 199.744L805.299 199.198L808.673 204H805.495ZM815.703 204.168C814.928 204.168 814.209 204.042 813.547 203.79C812.893 203.529 812.319 203.165 811.825 202.698C811.339 202.231 810.961 201.685 810.691 201.06C810.42 200.435 810.285 199.753 810.285 199.016C810.285 198.269 810.425 197.583 810.705 196.958C810.994 196.333 811.391 195.791 811.895 195.334C812.408 194.867 813.001 194.508 813.673 194.256C814.345 193.995 815.063 193.864 815.829 193.864C816.753 193.864 817.579 194.023 818.307 194.34C819.044 194.657 819.641 195.087 820.099 195.628L818.209 197.518C817.863 197.117 817.504 196.818 817.131 196.622C816.757 196.426 816.309 196.328 815.787 196.328C815.292 196.328 814.844 196.44 814.443 196.664C814.041 196.879 813.719 197.187 813.477 197.588C813.243 197.989 813.127 198.461 813.127 199.002C813.127 199.543 813.234 200.019 813.449 200.43C813.673 200.831 813.981 201.144 814.373 201.368C814.765 201.592 815.222 201.704 815.745 201.704C816.249 201.704 816.673 201.606 817.019 201.41C817.364 201.214 817.625 200.934 817.803 200.57C817.989 200.206 818.083 199.777 818.083 199.282L820.001 200.5L815.367 200.36V198.12H820.897V198.54C820.897 199.735 820.677 200.752 820.239 201.592C819.809 202.432 819.203 203.071 818.419 203.51C817.644 203.949 816.739 204.168 815.703 204.168ZM822.206 204L826 194.032H828.856L832.608 204H829.696L826.91 195.53H827.918L825.062 204H822.206ZM824.67 202.32V200.136H830.242V202.32H824.67ZM834.807 204V194.032H836.767L837.607 196.132V204H834.807ZM841.667 204L835.885 196.734L836.767 194.032L842.549 201.298L841.667 204ZM841.667 204L840.967 201.788V194.032H843.767V204H841.667ZM846.817 204V194.032H849.617V204H846.817ZM855.702 204.168C854.853 204.168 854.111 204.047 853.476 203.804C852.851 203.552 852.272 203.155 851.74 202.614L853.49 200.864C853.854 201.209 854.237 201.475 854.638 201.662C855.04 201.839 855.469 201.928 855.926 201.928C856.309 201.928 856.598 201.872 856.794 201.76C856.99 201.639 857.088 201.475 857.088 201.27C857.088 201.065 857.004 200.897 856.836 200.766C856.668 200.626 856.444 200.505 856.164 200.402C855.894 200.29 855.59 200.178 855.254 200.066C854.928 199.954 854.601 199.819 854.274 199.66C853.948 199.501 853.644 199.31 853.364 199.086C853.094 198.853 852.874 198.568 852.706 198.232C852.538 197.887 852.454 197.467 852.454 196.972C852.454 196.328 852.608 195.773 852.916 195.306C853.224 194.839 853.658 194.485 854.218 194.242C854.778 193.99 855.436 193.864 856.192 193.864C856.939 193.864 857.63 193.985 858.264 194.228C858.908 194.461 859.44 194.797 859.86 195.236L858.096 196.986C857.788 196.687 857.48 196.468 857.172 196.328C856.864 196.179 856.528 196.104 856.164 196.104C855.875 196.104 855.642 196.151 855.464 196.244C855.296 196.337 855.212 196.477 855.212 196.664C855.212 196.86 855.296 197.023 855.464 197.154C855.632 197.275 855.852 197.387 856.122 197.49C856.402 197.593 856.706 197.7 857.032 197.812C857.368 197.924 857.7 198.059 858.026 198.218C858.353 198.367 858.652 198.563 858.922 198.806C859.202 199.039 859.426 199.333 859.594 199.688C859.762 200.043 859.846 200.472 859.846 200.976C859.846 201.993 859.482 202.782 858.754 203.342C858.036 203.893 857.018 204.168 855.702 204.168ZM862.414 204V194.032H864.444L868.154 199.464H867.272L870.968 194.032H872.998V204H870.226V198.624L870.632 198.736L868.602 201.648H866.81L864.794 198.736L865.186 198.624V204H862.414ZM879.079 204.168C878.229 204.168 877.487 204.047 876.853 203.804C876.227 203.552 875.649 203.155 875.117 202.614L876.867 200.864C877.231 201.209 877.613 201.475 878.015 201.662C878.416 201.839 878.845 201.928 879.303 201.928C879.685 201.928 879.975 201.872 880.171 201.76C880.367 201.639 880.465 201.475 880.465 201.27C880.465 201.065 880.381 200.897 880.213 200.766C880.045 200.626 879.821 200.505 879.541 200.402C879.27 200.29 878.967 200.178 878.631 200.066C878.304 199.954 877.977 199.819 877.651 199.66C877.324 199.501 877.021 199.31 876.741 199.086C876.47 198.853 876.251 198.568 876.083 198.232C875.915 197.887 875.831 197.467 875.831 196.972C875.831 196.328 875.985 195.773 876.293 195.306C876.601 194.839 877.035 194.485 877.595 194.242C878.155 193.99 878.813 193.864 879.569 193.864C880.315 193.864 881.006 193.985 881.641 194.228C882.285 194.461 882.817 194.797 883.237 195.236L881.473 196.986C881.165 196.687 880.857 196.468 880.549 196.328C880.241 196.179 879.905 196.104 879.541 196.104C879.251 196.104 879.018 196.151 878.841 196.244C878.673 196.337 878.589 196.477 878.589 196.664C878.589 196.86 878.673 197.023 878.841 197.154C879.009 197.275 879.228 197.387 879.499 197.49C879.779 197.593 880.082 197.7 880.409 197.812C880.745 197.924 881.076 198.059 881.403 198.218C881.729 198.367 882.028 198.563 882.299 198.806C882.579 199.039 882.803 199.333 882.971 199.688C883.139 200.043 883.223 200.472 883.223 200.976C883.223 201.993 882.859 202.782 882.131 203.342C881.412 203.893 880.395 204.168 879.079 204.168Z" fill="#2A2C35"/>
<path fill-rule="evenodd" clip-rule="evenodd" d="M954 105.531C954 103.991 955.667 103.029 957 103.798L976 114.768C977.333 115.538 977.333 117.462 976 118.232L957 129.202C955.667 129.972 954 129.009 954 127.47V124C954 122.896 953.105 122 952 122H936C934.895 122 934 121.105 934 120V113C934 111.896 934.895 111 936 111H952C953.105 111 954 110.105 954 109V105.531Z" fill="#646A77"/>
<g clip-path="url(#clip4_14126_1033)">
<g filter="url(#filter18_d_14126_1033)">
<rect x="1023" y="48" width="113" height="113" rx="26" stroke="#4F46E5" stroke-width="12"/>
</g>
</g>
<path d="M1034.52 204V194.032H1037.32V204H1034.52ZM1031.54 196.412V194.032H1040.32V196.412H1031.54ZM1042.77 204V194.032H1045.57V204H1042.77ZM1045.04 204V201.676H1050.39V204H1045.04ZM1045.04 200.052V197.784H1049.87V200.052H1045.04ZM1045.04 196.356V194.032H1050.3V196.356H1045.04ZM1053.11 204V194.032H1055.14L1058.85 199.464H1057.97L1061.67 194.032H1063.7V204H1060.92V198.624L1061.33 198.736L1059.3 201.648H1057.51L1055.49 198.736L1055.88 198.624V204H1053.11ZM1069.02 200.5V198.484H1070.82C1071.04 198.484 1071.23 198.442 1071.41 198.358C1071.6 198.265 1071.75 198.129 1071.86 197.952C1071.97 197.765 1072.03 197.537 1072.03 197.266C1072.03 196.995 1071.97 196.771 1071.86 196.594C1071.75 196.407 1071.6 196.272 1071.41 196.188C1071.23 196.095 1071.04 196.048 1070.82 196.048H1069.02V194.032H1071.37C1072.01 194.032 1072.59 194.163 1073.11 194.424C1073.63 194.676 1074.04 195.045 1074.34 195.53C1074.65 196.006 1074.8 196.585 1074.8 197.266C1074.8 197.938 1074.65 198.517 1074.34 199.002C1074.04 199.487 1073.63 199.861 1073.11 200.122C1072.59 200.374 1072.01 200.5 1071.37 200.5H1069.02ZM1066.75 204V194.032H1069.55V204H1066.75ZM1077.2 204V194.032H1080V204H1077.2ZM1079.48 204V201.62H1084.14V204H1079.48ZM1085.64 204L1089.43 194.032H1092.29L1096.04 204H1093.13L1090.34 195.53H1091.35L1088.49 204H1085.64ZM1088.1 202.32V200.136H1093.67V202.32H1088.1ZM1099.63 204V194.032H1102.43V204H1099.63ZM1096.65 196.412V194.032H1105.43V196.412H1096.65ZM1107.88 204V194.032H1110.68V204H1107.88ZM1110.15 204V201.676H1115.5V204H1110.15ZM1110.15 200.052V197.784H1114.98V200.052H1110.15ZM1110.15 196.356V194.032H1115.41V196.356H1110.15ZM1121.2 204.168C1120.35 204.168 1119.61 204.047 1118.97 203.804C1118.35 203.552 1117.77 203.155 1117.24 202.614L1118.99 200.864C1119.35 201.209 1119.73 201.475 1120.13 201.662C1120.54 201.839 1120.96 201.928 1121.42 201.928C1121.8 201.928 1122.09 201.872 1122.29 201.76C1122.49 201.639 1122.58 201.475 1122.58 201.27C1122.58 201.065 1122.5 200.897 1122.33 200.766C1122.16 200.626 1121.94 200.505 1121.66 200.402C1121.39 200.29 1121.09 200.178 1120.75 200.066C1120.42 199.954 1120.1 199.819 1119.77 199.66C1119.44 199.501 1119.14 199.31 1118.86 199.086C1118.59 198.853 1118.37 198.568 1118.2 198.232C1118.03 197.887 1117.95 197.467 1117.95 196.972C1117.95 196.328 1118.1 195.773 1118.41 195.306C1118.72 194.839 1119.15 194.485 1119.71 194.242C1120.27 193.99 1120.93 193.864 1121.69 193.864C1122.43 193.864 1123.13 193.985 1123.76 194.228C1124.4 194.461 1124.94 194.797 1125.36 195.236L1123.59 196.986C1123.28 196.687 1122.98 196.468 1122.67 196.328C1122.36 196.179 1122.02 196.104 1121.66 196.104C1121.37 196.104 1121.14 196.151 1120.96 196.244C1120.79 196.337 1120.71 196.477 1120.71 196.664C1120.71 196.86 1120.79 197.023 1120.96 197.154C1121.13 197.275 1121.35 197.387 1121.62 197.49C1121.9 197.593 1122.2 197.7 1122.53 197.812C1122.86 197.924 1123.2 198.059 1123.52 198.218C1123.85 198.367 1124.15 198.563 1124.42 198.806C1124.7 199.039 1124.92 199.333 1125.09 199.688C1125.26 200.043 1125.34 200.472 1125.34 200.976C1125.34 201.993 1124.98 202.782 1124.25 203.342C1123.53 203.893 1122.51 204.168 1121.2 204.168Z" fill="#2A2C35"/>
<path fill-rule="evenodd" clip-rule="evenodd" d="M1197 105.531C1197 103.991 1198.67 103.029 1200 103.798L1219 114.768C1220.33 115.538 1220.33 117.462 1219 118.232L1200 129.202C1198.67 129.972 1197 129.009 1197 127.47V124C1197 122.896 1196.1 122 1195 122H1179C1177.9 122 1177 121.105 1177 120V113C1177 111.896 1177.9 111 1179 111H1195C1196.1 111 1197 110.105 1197 109V105.531Z" fill="#646A77"/>
<g clip-path="url(#clip5_14126_1033)">
<g filter="url(#filter19_d_14126_1033)">
<rect x="1265" y="50" width="113" height="113" rx="26" stroke="#4F46E5" stroke-width="12"/>
</g>
<rect x="1287" y="69" width="26" height="26" rx="6" fill="#4F46E5"/>
<rect x="1321" y="69" width="36" height="11" rx="5.5" fill="#4F46E5"/>
<rect x="1321" y="85" width="36" height="11" rx="5.5" fill="#4F46E5"/>
<rect x="1287" y="101" width="70" height="11" rx="5.5" fill="#4F46E5"/>
<rect x="1287" y="117" width="70" height="11" rx="5.5" fill="#4F46E5"/>
<rect x="1287" y="133" width="70" height="11" rx="5.5" fill="#4F46E5"/>
</g>
<path d="M1298.37 200.5V198.484H1300.17C1300.39 198.484 1300.58 198.442 1300.76 198.358C1300.95 198.265 1301.1 198.129 1301.21 197.952C1301.32 197.765 1301.38 197.537 1301.38 197.266C1301.38 196.995 1301.32 196.771 1301.21 196.594C1301.1 196.407 1300.95 196.272 1300.76 196.188C1300.58 196.095 1300.39 196.048 1300.17 196.048H1298.37V194.032H1300.72C1301.36 194.032 1301.94 194.163 1302.46 194.424C1302.98 194.676 1303.39 195.045 1303.69 195.53C1304 196.006 1304.15 196.585 1304.15 197.266C1304.15 197.938 1304 198.517 1303.69 199.002C1303.39 199.487 1302.98 199.861 1302.46 200.122C1301.94 200.374 1301.36 200.5 1300.72 200.5H1298.37ZM1296.1 204V194.032H1298.9V204H1296.1ZM1305.25 204L1309.04 194.032H1311.9L1315.65 204H1312.74L1309.95 195.53H1310.96L1308.1 204H1305.25ZM1307.71 202.32V200.136H1313.28V202.32H1307.71ZM1322.28 204.168C1321.51 204.168 1320.79 204.042 1320.13 203.79C1319.47 203.529 1318.9 203.165 1318.41 202.698C1317.92 202.231 1317.54 201.685 1317.27 201.06C1317 200.435 1316.87 199.753 1316.87 199.016C1316.87 198.269 1317.01 197.583 1317.29 196.958C1317.58 196.333 1317.97 195.791 1318.48 195.334C1318.99 194.867 1319.58 194.508 1320.25 194.256C1320.93 193.995 1321.64 193.864 1322.41 193.864C1323.33 193.864 1324.16 194.023 1324.89 194.34C1325.63 194.657 1326.22 195.087 1326.68 195.628L1324.79 197.518C1324.44 197.117 1324.09 196.818 1323.71 196.622C1323.34 196.426 1322.89 196.328 1322.37 196.328C1321.87 196.328 1321.43 196.44 1321.02 196.664C1320.62 196.879 1320.3 197.187 1320.06 197.588C1319.82 197.989 1319.71 198.461 1319.71 199.002C1319.71 199.543 1319.82 200.019 1320.03 200.43C1320.25 200.831 1320.56 201.144 1320.95 201.368C1321.35 201.592 1321.8 201.704 1322.33 201.704C1322.83 201.704 1323.25 201.606 1323.6 201.41C1323.95 201.214 1324.21 200.934 1324.38 200.57C1324.57 200.206 1324.66 199.777 1324.66 199.282L1326.58 200.5L1321.95 200.36V198.12H1327.48V198.54C1327.48 199.735 1327.26 200.752 1326.82 201.592C1326.39 202.432 1325.78 203.071 1325 203.51C1324.23 203.949 1323.32 204.168 1322.28 204.168ZM1329.93 204V194.032H1332.73V204H1329.93ZM1332.19 204V201.676H1337.54V204H1332.19ZM1332.19 200.052V197.784H1337.02V200.052H1332.19ZM1332.19 196.356V194.032H1337.46V196.356H1332.19ZM1343.24 204.168C1342.39 204.168 1341.65 204.047 1341.02 203.804C1340.39 203.552 1339.81 203.155 1339.28 202.614L1341.03 200.864C1341.39 201.209 1341.78 201.475 1342.18 201.662C1342.58 201.839 1343.01 201.928 1343.47 201.928C1343.85 201.928 1344.14 201.872 1344.33 201.76C1344.53 201.639 1344.63 201.475 1344.63 201.27C1344.63 201.065 1344.54 200.897 1344.38 200.766C1344.21 200.626 1343.98 200.505 1343.7 200.402C1343.43 200.29 1343.13 200.178 1342.79 200.066C1342.47 199.954 1342.14 199.819 1341.81 199.66C1341.49 199.501 1341.18 199.31 1340.9 199.086C1340.63 198.853 1340.41 198.568 1340.25 198.232C1340.08 197.887 1339.99 197.467 1339.99 196.972C1339.99 196.328 1340.15 195.773 1340.46 195.306C1340.76 194.839 1341.2 194.485 1341.76 194.242C1342.32 193.99 1342.98 193.864 1343.73 193.864C1344.48 193.864 1345.17 193.985 1345.8 194.228C1346.45 194.461 1346.98 194.797 1347.4 195.236L1345.64 196.986C1345.33 196.687 1345.02 196.468 1344.71 196.328C1344.4 196.179 1344.07 196.104 1343.7 196.104C1343.41 196.104 1343.18 196.151 1343 196.244C1342.84 196.337 1342.75 196.477 1342.75 196.664C1342.75 196.86 1342.84 197.023 1343 197.154C1343.17 197.275 1343.39 197.387 1343.66 197.49C1343.94 197.593 1344.24 197.7 1344.57 197.812C1344.91 197.924 1345.24 198.059 1345.57 198.218C1345.89 198.367 1346.19 198.563 1346.46 198.806C1346.74 199.039 1346.97 199.333 1347.13 199.688C1347.3 200.043 1347.39 200.472 1347.39 200.976C1347.39 201.993 1347.02 202.782 1346.29 203.342C1345.57 203.893 1344.56 204.168 1343.24 204.168Z" fill="#2A2C35"/>
<defs>
<filter id="filter0_d_14126_1033" x="58" y="36" width="95" height="95" filterUnits="userSpaceOnUse" color-interpolation-filters="sRGB">
<feFlood flood-opacity="0" result="BackgroundImageFix"/>
<feColorMatrix in="SourceAlpha" type="matrix" values="0 0 0 0 0 0 0 0 0 0 0 0 0 0 0 0 0 0 127 0" result="hardAlpha"/>
<feMorphology radius="16" operator="erode" in="SourceAlpha" result="effect1_dropShadow_14126_1033"/>
<feOffset dy="10"/>
<feGaussianBlur stdDeviation="24"/>
<feColorMatrix type="matrix" values="0 0 0 0 0 0 0 0 0 0 0 0 0 0 0 0 0 0 0.12 0"/>
<feBlend mode="normal" in2="BackgroundImageFix" result="effect1_dropShadow_14126_1033"/>
<feBlend mode="normal" in="SourceGraphic" in2="effect1_dropShadow_14126_1033" result="shape"/>
</filter>
<filter id="filter1_d_14126_1033" x="36" y="101" width="95" height="95" filterUnits="userSpaceOnUse" color-interpolation-filters="sRGB">
<feFlood flood-opacity="0" result="BackgroundImageFix"/>
<feColorMatrix in="SourceAlpha" type="matrix" values="0 0 0 0 0 0 0 0 0 0 0 0 0 0 0 0 0 0 127 0" result="hardAlpha"/>
<feMorphology radius="16" operator="erode" in="SourceAlpha" result="effect1_dropShadow_14126_1033"/>
<feOffset dy="10"/>
<feGaussianBlur stdDeviation="24"/>
<feColorMatrix type="matrix" values="0 0 0 0 0 0 0 0 0 0 0 0 0 0 0 0 0 0 0.12 0"/>
<feBlend mode="normal" in2="BackgroundImageFix" result="effect1_dropShadow_14126_1033"/>
<feBlend mode="normal" in="SourceGraphic" in2="effect1_dropShadow_14126_1033" result="shape"/>
</filter>
<filter id="filter2_d_14126_1033" x="82" y="78" width="95" height="95" filterUnits="userSpaceOnUse" color-interpolation-filters="sRGB">
<feFlood flood-opacity="0" result="BackgroundImageFix"/>
<feColorMatrix in="SourceAlpha" type="matrix" values="0 0 0 0 0 0 0 0 0 0 0 0 0 0 0 0 0 0 127 0" result="hardAlpha"/>
<feMorphology radius="16" operator="erode" in="SourceAlpha" result="effect1_dropShadow_14126_1033"/>
<feOffset dy="10"/>
<feGaussianBlur stdDeviation="24"/>
<feColorMatrix type="matrix" values="0 0 0 0 0 0 0 0 0 0 0 0 0 0 0 0 0 0 0.12 0"/>
<feBlend mode="normal" in2="BackgroundImageFix" result="effect1_dropShadow_14126_1033"/>
<feBlend mode="normal" in="SourceGraphic" in2="effect1_dropShadow_14126_1033" result="shape"/>
</filter>
<filter id="filter3_d_14126_1033" x="254" y="21" width="191" height="191" filterUnits="userSpaceOnUse" color-interpolation-filters="sRGB">
<feFlood flood-opacity="0" result="BackgroundImageFix"/>
<feColorMatrix in="SourceAlpha" type="matrix" values="0 0 0 0 0 0 0 0 0 0 0 0 0 0 0 0 0 0 127 0" result="hardAlpha"/>
<feMorphology radius="16" operator="erode" in="SourceAlpha" result="effect1_dropShadow_14126_1033"/>
<feOffset dy="10"/>
<feGaussianBlur stdDeviation="24"/>
<feColorMatrix type="matrix" values="0 0 0 0 0 0 0 0 0 0 0 0 0 0 0 0 0 0 0.12 0"/>
<feBlend mode="normal" in2="BackgroundImageFix" result="effect1_dropShadow_14126_1033"/>
<feBlend mode="normal" in="SourceGraphic" in2="effect1_dropShadow_14126_1033" result="shape"/>
</filter>
<filter id="filter4_d_14126_1033" x="292" y="59" width="115" height="115" filterUnits="userSpaceOnUse" color-interpolation-filters="sRGB">
<feFlood flood-opacity="0" result="BackgroundImageFix"/>
<feColorMatrix in="SourceAlpha" type="matrix" values="0 0 0 0 0 0 0 0 0 0 0 0 0 0 0 0 0 0 127 0" result="hardAlpha"/>
<feMorphology radius="16" operator="erode" in="SourceAlpha" result="effect1_dropShadow_14126_1033"/>
<feOffset dy="10"/>
<feGaussianBlur stdDeviation="24"/>
<feColorMatrix type="matrix" values="0 0 0 0 0 0 0 0 0 0 0 0 0 0 0 0 0 0 0.12 0"/>
<feBlend mode="normal" in2="BackgroundImageFix" result="effect1_dropShadow_14126_1033"/>
<feBlend mode="normal" in="SourceGraphic" in2="effect1_dropShadow_14126_1033" result="shape"/>
</filter>
<filter id="filter5_d_14126_1033" x="544" y="68" width="97" height="97" filterUnits="userSpaceOnUse" color-interpolation-filters="sRGB">
<feFlood flood-opacity="0" result="BackgroundImageFix"/>
<feColorMatrix in="SourceAlpha" type="matrix" values="0 0 0 0 0 0 0 0 0 0 0 0 0 0 0 0 0 0 127 0" result="hardAlpha"/>
<feMorphology radius="16" operator="erode" in="SourceAlpha" result="effect1_dropShadow_14126_1033"/>
<feOffset dy="10"/>
<feGaussianBlur stdDeviation="24"/>
<feColorMatrix type="matrix" values="0 0 0 0 0 0 0 0 0 0 0 0 0 0 0 0 0 0 0.12 0"/>
<feBlend mode="normal" in2="BackgroundImageFix" result="effect1_dropShadow_14126_1033"/>
<feBlend mode="normal" in="SourceGraphic" in2="effect1_dropShadow_14126_1033" result="shape"/>
</filter>
<filter id="filter6_d_14126_1033" x="546" y="22" width="95" height="95" filterUnits="userSpaceOnUse" color-interpolation-filters="sRGB">
<feFlood flood-opacity="0" result="BackgroundImageFix"/>
<feColorMatrix in="SourceAlpha" type="matrix" values="0 0 0 0 0 0 0 0 0 0 0 0 0 0 0 0 0 0 127 0" result="hardAlpha"/>
<feMorphology radius="16" operator="erode" in="SourceAlpha" result="effect1_dropShadow_14126_1033"/>
<feOffset dy="10"/>
<feGaussianBlur stdDeviation="24"/>
<feColorMatrix type="matrix" values="0 0 0 0 0 0 0 0 0 0 0 0 0 0 0 0 0 0 0.12 0"/>
<feBlend mode="normal" in2="BackgroundImageFix" result="effect1_dropShadow_14126_1033"/>
<feBlend mode="normal" in="SourceGraphic" in2="effect1_dropShadow_14126_1033" result="shape"/>
</filter>
<filter id="filter7_d_14126_1033" x="500" y="103" width="95" height="95" filterUnits="userSpaceOnUse" color-interpolation-filters="sRGB">
<feFlood flood-opacity="0" result="BackgroundImageFix"/>
<feColorMatrix in="SourceAlpha" type="matrix" values="0 0 0 0 0 0 0 0 0 0 0 0 0 0 0 0 0 0 127 0" result="hardAlpha"/>
<feMorphology radius="16" operator="erode" in="SourceAlpha" result="effect1_dropShadow_14126_1033"/>
<feOffset dy="10"/>
<feGaussianBlur stdDeviation="24"/>
<feColorMatrix type="matrix" values="0 0 0 0 0 0 0 0 0 0 0 0 0 0 0 0 0 0 0.12 0"/>
<feBlend mode="normal" in2="BackgroundImageFix" result="effect1_dropShadow_14126_1033"/>
<feBlend mode="normal" in="SourceGraphic" in2="effect1_dropShadow_14126_1033" result="shape"/>
</filter>
<filter id="filter8_d_14126_1033" x="601" y="110" width="95" height="95" filterUnits="userSpaceOnUse" color-interpolation-filters="sRGB">
<feFlood flood-opacity="0" result="BackgroundImageFix"/>
<feColorMatrix in="SourceAlpha" type="matrix" values="0 0 0 0 0 0 0 0 0 0 0 0 0 0 0 0 0 0 127 0" result="hardAlpha"/>
<feMorphology radius="16" operator="erode" in="SourceAlpha" result="effect1_dropShadow_14126_1033"/>
<feOffset dy="10"/>
<feGaussianBlur stdDeviation="24"/>
<feColorMatrix type="matrix" values="0 0 0 0 0 0 0 0 0 0 0 0 0 0 0 0 0 0 0.12 0"/>
<feBlend mode="normal" in2="BackgroundImageFix" result="effect1_dropShadow_14126_1033"/>
<feBlend mode="normal" in="SourceGraphic" in2="effect1_dropShadow_14126_1033" result="shape"/>
</filter>
<filter id="filter9_d_14126_1033" x="739" y="18" width="95" height="95" filterUnits="userSpaceOnUse" color-interpolation-filters="sRGB">
<feFlood flood-opacity="0" result="BackgroundImageFix"/>
<feColorMatrix in="SourceAlpha" type="matrix" values="0 0 0 0 0 0 0 0 0 0 0 0 0 0 0 0 0 0 127 0" result="hardAlpha"/>
<feMorphology radius="16" operator="erode" in="SourceAlpha" result="effect1_dropShadow_14126_1033"/>
<feOffset dy="10"/>
<feGaussianBlur stdDeviation="24"/>
<feColorMatrix type="matrix" values="0 0 0 0 0 0 0 0 0 0 0 0 0 0 0 0 0 0 0.12 0"/>
<feBlend mode="normal" in2="BackgroundImageFix" result="effect1_dropShadow_14126_1033"/>
<feBlend mode="normal" in="SourceGraphic" in2="effect1_dropShadow_14126_1033" result="shape"/>
</filter>
<filter id="filter10_d_14126_1033" x="788" y="18" width="95" height="95" filterUnits="userSpaceOnUse" color-interpolation-filters="sRGB">
<feFlood flood-opacity="0" result="BackgroundImageFix"/>
<feColorMatrix in="SourceAlpha" type="matrix" values="0 0 0 0 0 0 0 0 0 0 0 0 0 0 0 0 0 0 127 0" result="hardAlpha"/>
<feMorphology radius="16" operator="erode" in="SourceAlpha" result="effect1_dropShadow_14126_1033"/>
<feOffset dy="10"/>
<feGaussianBlur stdDeviation="24"/>
<feColorMatrix type="matrix" values="0 0 0 0 0 0 0 0 0 0 0 0 0 0 0 0 0 0 0.12 0"/>
<feBlend mode="normal" in2="BackgroundImageFix" result="effect1_dropShadow_14126_1033"/>
<feBlend mode="normal" in="SourceGraphic" in2="effect1_dropShadow_14126_1033" result="shape"/>
</filter>
<filter id="filter11_d_14126_1033" x="837" y="18" width="95" height="95" filterUnits="userSpaceOnUse" color-interpolation-filters="sRGB">
<feFlood flood-opacity="0" result="BackgroundImageFix"/>
<feColorMatrix in="SourceAlpha" type="matrix" values="0 0 0 0 0 0 0 0 0 0 0 0 0 0 0 0 0 0 127 0" result="hardAlpha"/>
<feMorphology radius="16" operator="erode" in="SourceAlpha" result="effect1_dropShadow_14126_1033"/>
<feOffset dy="10"/>
<feGaussianBlur stdDeviation="24"/>
<feColorMatrix type="matrix" values="0 0 0 0 0 0 0 0 0 0 0 0 0 0 0 0 0 0 0.12 0"/>
<feBlend mode="normal" in2="BackgroundImageFix" result="effect1_dropShadow_14126_1033"/>
<feBlend mode="normal" in="SourceGraphic" in2="effect1_dropShadow_14126_1033" result="shape"/>
</filter>
<filter id="filter12_d_14126_1033" x="739" y="61" width="95" height="95" filterUnits="userSpaceOnUse" color-interpolation-filters="sRGB">
<feFlood flood-opacity="0" result="BackgroundImageFix"/>
<feColorMatrix in="SourceAlpha" type="matrix" values="0 0 0 0 0 0 0 0 0 0 0 0 0 0 0 0 0 0 127 0" result="hardAlpha"/>
<feMorphology radius="16" operator="erode" in="SourceAlpha" result="effect1_dropShadow_14126_1033"/>
<feOffset dy="10"/>
<feGaussianBlur stdDeviation="24"/>
<feColorMatrix type="matrix" values="0 0 0 0 0 0 0 0 0 0 0 0 0 0 0 0 0 0 0.12 0"/>
<feBlend mode="normal" in2="BackgroundImageFix" result="effect1_dropShadow_14126_1033"/>
<feBlend mode="normal" in="SourceGraphic" in2="effect1_dropShadow_14126_1033" result="shape"/>
</filter>
<filter id="filter13_d_14126_1033" x="788" y="61" width="95" height="95" filterUnits="userSpaceOnUse" color-interpolation-filters="sRGB">
<feFlood flood-opacity="0" result="BackgroundImageFix"/>
<feColorMatrix in="SourceAlpha" type="matrix" values="0 0 0 0 0 0 0 0 0 0 0 0 0 0 0 0 0 0 127 0" result="hardAlpha"/>
<feMorphology radius="16" operator="erode" in="SourceAlpha" result="effect1_dropShadow_14126_1033"/>
<feOffset dy="10"/>
<feGaussianBlur stdDeviation="24"/>
<feColorMatrix type="matrix" values="0 0 0 0 0 0 0 0 0 0 0 0 0 0 0 0 0 0 0.12 0"/>
<feBlend mode="normal" in2="BackgroundImageFix" result="effect1_dropShadow_14126_1033"/>
<feBlend mode="normal" in="SourceGraphic" in2="effect1_dropShadow_14126_1033" result="shape"/>
</filter>
<filter id="filter14_d_14126_1033" x="837" y="61" width="95" height="95" filterUnits="userSpaceOnUse" color-interpolation-filters="sRGB">
<feFlood flood-opacity="0" result="BackgroundImageFix"/>
<feColorMatrix in="SourceAlpha" type="matrix" values="0 0 0 0 0 0 0 0 0 0 0 0 0 0 0 0 0 0 127 0" result="hardAlpha"/>
<feMorphology radius="16" operator="erode" in="SourceAlpha" result="effect1_dropShadow_14126_1033"/>
<feOffset dy="10"/>
<feGaussianBlur stdDeviation="24"/>
<feColorMatrix type="matrix" values="0 0 0 0 0 0 0 0 0 0 0 0 0 0 0 0 0 0 0.12 0"/>
<feBlend mode="normal" in2="BackgroundImageFix" result="effect1_dropShadow_14126_1033"/>
<feBlend mode="normal" in="SourceGraphic" in2="effect1_dropShadow_14126_1033" result="shape"/>
</filter>
<filter id="filter15_d_14126_1033" x="739" y="104" width="95" height="95" filterUnits="userSpaceOnUse" color-interpolation-filters="sRGB">
<feFlood flood-opacity="0" result="BackgroundImageFix"/>
<feColorMatrix in="SourceAlpha" type="matrix" values="0 0 0 0 0 0 0 0 0 0 0 0 0 0 0 0 0 0 127 0" result="hardAlpha"/>
<feMorphology radius="16" operator="erode" in="SourceAlpha" result="effect1_dropShadow_14126_1033"/>
<feOffset dy="10"/>
<feGaussianBlur stdDeviation="24"/>
<feColorMatrix type="matrix" values="0 0 0 0 0 0 0 0 0 0 0 0 0 0 0 0 0 0 0.12 0"/>
<feBlend mode="normal" in2="BackgroundImageFix" result="effect1_dropShadow_14126_1033"/>
<feBlend mode="normal" in="SourceGraphic" in2="effect1_dropShadow_14126_1033" result="shape"/>
</filter>
<filter id="filter16_d_14126_1033" x="788" y="104" width="95" height="95" filterUnits="userSpaceOnUse" color-interpolation-filters="sRGB">
<feFlood flood-opacity="0" result="BackgroundImageFix"/>
<feColorMatrix in="SourceAlpha" type="matrix" values="0 0 0 0 0 0 0 0 0 0 0 0 0 0 0 0 0 0 127 0" result="hardAlpha"/>
<feMorphology radius="16" operator="erode" in="SourceAlpha" result="effect1_dropShadow_14126_1033"/>
<feOffset dy="10"/>
<feGaussianBlur stdDeviation="24"/>
<feColorMatrix type="matrix" values="0 0 0 0 0 0 0 0 0 0 0 0 0 0 0 0 0 0 0.12 0"/>
<feBlend mode="normal" in2="BackgroundImageFix" result="effect1_dropShadow_14126_1033"/>
<feBlend mode="normal" in="SourceGraphic" in2="effect1_dropShadow_14126_1033" result="shape"/>
</filter>
<filter id="filter17_d_14126_1033" x="837" y="104" width="95" height="95" filterUnits="userSpaceOnUse" color-interpolation-filters="sRGB">
<feFlood flood-opacity="0" result="BackgroundImageFix"/>
<feColorMatrix in="SourceAlpha" type="matrix" values="0 0 0 0 0 0 0 0 0 0 0 0 0 0 0 0 0 0 127 0" result="hardAlpha"/>
<feMorphology radius="16" operator="erode" in="SourceAlpha" result="effect1_dropShadow_14126_1033"/>
<feOffset dy="10"/>
<feGaussianBlur stdDeviation="24"/>
<feColorMatrix type="matrix" values="0 0 0 0 0 0 0 0 0 0 0 0 0 0 0 0 0 0 0.12 0"/>
<feBlend mode="normal" in2="BackgroundImageFix" result="effect1_dropShadow_14126_1033"/>
<feBlend mode="normal" in="SourceGraphic" in2="effect1_dropShadow_14126_1033" result="shape"/>
</filter>
<filter id="filter18_d_14126_1033" x="985" y="20" width="189" height="189" filterUnits="userSpaceOnUse" color-interpolation-filters="sRGB">
<feFlood flood-opacity="0" result="BackgroundImageFix"/>
<feColorMatrix in="SourceAlpha" type="matrix" values="0 0 0 0 0 0 0 0 0 0 0 0 0 0 0 0 0 0 127 0" result="hardAlpha"/>
<feMorphology radius="16" operator="erode" in="SourceAlpha" result="effect1_dropShadow_14126_1033"/>
<feOffset dy="10"/>
<feGaussianBlur stdDeviation="24"/>
<feColorMatrix type="matrix" values="0 0 0 0 0 0 0 0 0 0 0 0 0 0 0 0 0 0 0.12 0"/>
<feBlend mode="normal" in2="BackgroundImageFix" result="effect1_dropShadow_14126_1033"/>
<feBlend mode="normal" in="SourceGraphic" in2="effect1_dropShadow_14126_1033" result="shape"/>
</filter>
<filter id="filter19_d_14126_1033" x="1227" y="22" width="189" height="189" filterUnits="userSpaceOnUse" color-interpolation-filters="sRGB">
<feFlood flood-opacity="0" result="BackgroundImageFix"/>
<feColorMatrix in="SourceAlpha" type="matrix" values="0 0 0 0 0 0 0 0 0 0 0 0 0 0 0 0 0 0 127 0" result="hardAlpha"/>
<feMorphology radius="16" operator="erode" in="SourceAlpha" result="effect1_dropShadow_14126_1033"/>
<feOffset dy="10"/>
<feGaussianBlur stdDeviation="24"/>
<feColorMatrix type="matrix" values="0 0 0 0 0 0 0 0 0 0 0 0 0 0 0 0 0 0 0.12 0"/>
<feBlend mode="normal" in2="BackgroundImageFix" result="effect1_dropShadow_14126_1033"/>
<feBlend mode="normal" in="SourceGraphic" in2="effect1_dropShadow_14126_1033" result="shape"/>
</filter>
<clipPath id="clip0_14126_1033">
<rect width="164" height="164" fill="white" transform="translate(24 24)"/>
</clipPath>
<clipPath id="clip1_14126_1033">
<rect width="164" height="164" fill="white" transform="translate(267 24)"/>
</clipPath>
<clipPath id="clip2_14126_1033">
<rect width="164" height="164" fill="white" transform="translate(510 24)"/>
</clipPath>
<clipPath id="clip3_14126_1033">
<rect width="164" height="164" fill="white" transform="translate(753 24)"/>
</clipPath>
<clipPath id="clip4_14126_1033">
<rect width="164" height="164" fill="white" transform="translate(996 24)"/>
</clipPath>
<clipPath id="clip5_14126_1033">
<rect width="164" height="164" fill="white" transform="translate(1239 24)"/>
</clipPath>
</defs>
</svg>
