<svg width="332" height="348" viewBox="0 0 332 348" fill="none" xmlns="http://www.w3.org/2000/svg">
<g filter="url(#filter0_d_5415_1859)">
<rect x="32" y="27.1714" width="268" height="278" rx="2" fill="#1E1E1E"/>
<rect x="32.5" y="27.6714" width="267" height="277" rx="1.5" stroke="#373737"/>
<path d="M53.1328 58.437C52.3099 58.437 51.5911 58.3042 50.9766 58.0386C50.3672 57.7677 49.8828 57.3979 49.5234 56.9292C49.1693 56.4552 48.9635 55.9136 48.9062 55.3042L48.8984 55.2183H50.3047L50.3125 55.3042C50.349 55.6792 50.4922 56.0047 50.7422 56.2808C50.9974 56.5516 51.3359 56.7625 51.7578 56.9136C52.1849 57.0646 52.6693 57.1401 53.2109 57.1401C53.7214 57.1401 54.1745 57.0594 54.5703 56.8979C54.9714 56.7313 55.2865 56.5021 55.5156 56.2104C55.7448 55.9188 55.8594 55.5828 55.8594 55.2026V55.1948C55.8594 54.7261 55.6875 54.3328 55.3438 54.0151C55 53.6922 54.4401 53.4448 53.6641 53.2729L52.4141 52.9995C51.2839 52.7495 50.4609 52.3641 49.9453 51.8433C49.4349 51.3172 49.1797 50.6453 49.1797 49.8276V49.8198C49.1849 49.1948 49.3542 48.6427 49.6875 48.1636C50.026 47.6844 50.4922 47.3094 51.0859 47.0386C51.6849 46.7677 52.3724 46.6323 53.1484 46.6323C53.8984 46.6323 54.5625 46.7677 55.1406 47.0386C55.7188 47.3042 56.1771 47.6636 56.5156 48.1167C56.8594 48.5698 57.0495 49.0776 57.0859 49.6401L57.0938 49.7495H55.6875L55.6719 49.6479C55.6198 49.3146 55.4844 49.0203 55.2656 48.7651C55.0469 48.5047 54.7552 48.299 54.3906 48.1479C54.026 47.9969 53.599 47.924 53.1094 47.9292C52.6406 47.9292 52.2188 48.0021 51.8438 48.1479C51.4688 48.2938 51.1693 48.5047 50.9453 48.7808C50.7266 49.0516 50.6172 49.3849 50.6172 49.7808V49.7886C50.6172 50.2365 50.7839 50.6141 51.1172 50.9214C51.4505 51.2287 52 51.4657 52.7656 51.6323L54.0156 51.9136C54.8021 52.0854 55.4349 52.3094 55.9141 52.5854C56.3932 52.8615 56.7422 53.2 56.9609 53.6011C57.1849 53.9969 57.2969 54.4657 57.2969 55.0073V55.0151C57.2969 55.7183 57.125 56.325 56.7812 56.8354C56.4375 57.3459 55.9531 57.7417 55.3281 58.0229C54.7031 58.299 53.9714 58.437 53.1328 58.437ZM59.5469 58.1714V46.4058H60.9062V51.0151H61.0312C61.2448 50.5672 61.5521 50.2209 61.9531 49.9761C62.3542 49.7261 62.8646 49.6011 63.4844 49.6011C64.1146 49.6011 64.6484 49.7235 65.0859 49.9683C65.5234 50.2078 65.8568 50.5594 66.0859 51.0229C66.3151 51.4865 66.4297 52.0516 66.4297 52.7183V58.1714H65.0703V53.0464C65.0703 52.286 64.9089 51.7235 64.5859 51.3589C64.2682 50.9891 63.7734 50.8042 63.1016 50.8042C62.6536 50.8042 62.2656 50.9006 61.9375 51.0933C61.6094 51.286 61.3542 51.5594 61.1719 51.9136C60.9948 52.2677 60.9062 52.6922 60.9062 53.187V58.1714H59.5469ZM72.3516 58.3198C71.5547 58.3198 70.8646 58.1453 70.2812 57.7964C69.7031 57.4422 69.2552 56.9396 68.9375 56.2886C68.625 55.6375 68.4688 54.8641 68.4688 53.9683V53.9526C68.4688 53.0516 68.625 52.2756 68.9375 51.6245C69.2552 50.9735 69.7031 50.4735 70.2812 50.1245C70.8646 49.7756 71.5547 49.6011 72.3516 49.6011C73.1536 49.6011 73.8438 49.7756 74.4219 50.1245C75 50.4735 75.4453 50.9735 75.7578 51.6245C76.0755 52.2756 76.2344 53.0516 76.2344 53.9526V53.9683C76.2344 54.8641 76.0755 55.6375 75.7578 56.2886C75.4453 56.9396 75 57.4422 74.4219 57.7964C73.8438 58.1453 73.1536 58.3198 72.3516 58.3198ZM72.3516 57.1167C72.8828 57.1167 73.3333 56.9917 73.7031 56.7417C74.0729 56.4917 74.3542 56.1323 74.5469 55.6636C74.7448 55.1948 74.8438 54.6297 74.8438 53.9683V53.9526C74.8438 53.286 74.7448 52.7183 74.5469 52.2495C74.3542 51.7808 74.0729 51.424 73.7031 51.1792C73.3333 50.9292 72.8828 50.8042 72.3516 50.8042C71.8203 50.8042 71.3698 50.9292 71 51.1792C70.6302 51.424 70.3464 51.7808 70.1484 52.2495C69.9557 52.7183 69.8594 53.286 69.8594 53.9526V53.9683C69.8594 54.6297 69.9557 55.1948 70.1484 55.6636C70.3464 56.1323 70.6302 56.4917 71 56.7417C71.3698 56.9917 71.8203 57.1167 72.3516 57.1167ZM79.6562 58.1714L77.2969 49.7495H78.6562L80.3125 56.4839H80.4375L82.3203 49.7495H83.6094L85.4922 56.4839H85.6172L87.2734 49.7495H88.625L86.2656 58.1714H84.8984L83.0156 51.6558H82.8906L81.0156 58.1714H79.6562ZM97.3047 58.1714L94.1875 49.7495H95.625L97.9297 56.687H98.0547L100.359 49.7495H101.797L98.6797 58.1714H97.3047ZM106.719 58.3198C105.917 58.3198 105.227 58.1427 104.648 57.7886C104.076 57.4344 103.633 56.9344 103.32 56.2886C103.013 55.6375 102.859 54.8719 102.859 53.9917V53.9839C102.859 53.1141 103.013 52.3511 103.32 51.6948C103.633 51.0386 104.073 50.5256 104.641 50.1558C105.208 49.786 105.872 49.6011 106.633 49.6011C107.398 49.6011 108.055 49.7782 108.602 50.1323C109.154 50.4865 109.576 50.9813 109.867 51.6167C110.164 52.2469 110.312 52.9813 110.312 53.8198V54.3511H103.562V53.2651H109.617L108.945 54.2573V53.7183C108.945 53.0568 108.846 52.5125 108.648 52.0854C108.451 51.6584 108.177 51.3407 107.828 51.1323C107.479 50.9188 107.078 50.812 106.625 50.812C106.172 50.812 105.766 50.924 105.406 51.1479C105.052 51.3667 104.771 51.6922 104.562 52.1245C104.354 52.5568 104.25 53.0881 104.25 53.7183V54.2573C104.25 54.8563 104.352 55.3693 104.555 55.7964C104.758 56.2183 105.047 56.5438 105.422 56.7729C105.797 56.9969 106.24 57.1089 106.75 57.1089C107.13 57.1089 107.461 57.0568 107.742 56.9526C108.023 56.8485 108.255 56.7157 108.438 56.5542C108.62 56.3927 108.747 56.2287 108.82 56.062L108.852 55.9917H110.211L110.195 56.0542C110.122 56.3407 109.992 56.6193 109.805 56.8901C109.622 57.1558 109.385 57.3979 109.094 57.6167C108.802 57.8302 108.456 58.0021 108.055 58.1323C107.659 58.2573 107.214 58.3198 106.719 58.3198ZM112.422 58.1714V49.7495H113.781V50.9995H113.906C114.068 50.5568 114.341 50.2131 114.727 49.9683C115.112 49.7235 115.589 49.6011 116.156 49.6011C116.286 49.6011 116.414 49.6089 116.539 49.6245C116.669 49.6349 116.768 49.6453 116.836 49.6558V50.9761C116.695 50.95 116.557 50.9318 116.422 50.9214C116.292 50.9058 116.151 50.8979 116 50.8979C115.568 50.8979 115.185 50.9839 114.852 51.1558C114.518 51.3276 114.255 51.5672 114.062 51.8745C113.875 52.1818 113.781 52.5412 113.781 52.9526V58.1714H112.422ZM121.25 58.3198C120.625 58.3198 120.073 58.2261 119.594 58.0386C119.115 57.8459 118.729 57.5776 118.438 57.2339C118.151 56.8901 117.982 56.4865 117.93 56.0229H119.32C119.435 56.3719 119.659 56.6532 119.992 56.8667C120.326 57.0802 120.76 57.187 121.297 57.187C121.677 57.187 122.01 57.1323 122.297 57.0229C122.589 56.9084 122.818 56.7547 122.984 56.562C123.151 56.3641 123.234 56.1375 123.234 55.8823V55.8667C123.234 55.5802 123.12 55.3381 122.891 55.1401C122.661 54.937 122.286 54.7729 121.766 54.6479L120.461 54.3354C119.935 54.2104 119.503 54.049 119.164 53.8511C118.826 53.6479 118.576 53.4006 118.414 53.1089C118.253 52.812 118.172 52.4631 118.172 52.062V52.0542C118.172 51.5854 118.307 51.1662 118.578 50.7964C118.854 50.4266 119.229 50.1349 119.703 49.9214C120.177 49.7078 120.711 49.6011 121.305 49.6011C121.893 49.6011 122.414 49.6948 122.867 49.8823C123.326 50.0646 123.693 50.325 123.969 50.6636C124.25 51.0021 124.422 51.4006 124.484 51.8589H123.148C123.06 51.5256 122.857 51.2547 122.539 51.0464C122.221 50.8381 121.807 50.7339 121.297 50.7339C120.964 50.7339 120.667 50.7886 120.406 50.8979C120.146 51.0021 119.94 51.1479 119.789 51.3354C119.638 51.5229 119.562 51.7417 119.562 51.9917V52.0073C119.562 52.1948 119.612 52.3615 119.711 52.5073C119.81 52.6532 119.964 52.7808 120.172 52.8901C120.38 52.9995 120.648 53.0959 120.977 53.1792L122.273 53.4917C123.065 53.6844 123.654 53.9604 124.039 54.3198C124.43 54.6792 124.625 55.161 124.625 55.7651V55.7808C124.625 56.2808 124.477 56.7235 124.18 57.1089C123.883 57.4891 123.479 57.786 122.969 57.9995C122.464 58.2131 121.891 58.3198 121.25 58.3198ZM126.766 58.1714V49.7495H128.125V58.1714H126.766ZM127.453 48.1245C127.198 48.1245 126.977 48.0334 126.789 47.8511C126.607 47.6636 126.516 47.4422 126.516 47.187C126.516 46.9266 126.607 46.7052 126.789 46.5229C126.977 46.3407 127.198 46.2495 127.453 46.2495C127.714 46.2495 127.935 46.3407 128.117 46.5229C128.299 46.7052 128.391 46.9266 128.391 47.187C128.391 47.4422 128.299 47.6636 128.117 47.8511C127.935 48.0334 127.714 48.1245 127.453 48.1245ZM134.148 58.3198C133.352 58.3198 132.661 58.1453 132.078 57.7964C131.5 57.4422 131.052 56.9396 130.734 56.2886C130.422 55.6375 130.266 54.8641 130.266 53.9683V53.9526C130.266 53.0516 130.422 52.2756 130.734 51.6245C131.052 50.9735 131.5 50.4735 132.078 50.1245C132.661 49.7756 133.352 49.6011 134.148 49.6011C134.951 49.6011 135.641 49.7756 136.219 50.1245C136.797 50.4735 137.242 50.9735 137.555 51.6245C137.872 52.2756 138.031 53.0516 138.031 53.9526V53.9683C138.031 54.8641 137.872 55.6375 137.555 56.2886C137.242 56.9396 136.797 57.4422 136.219 57.7964C135.641 58.1453 134.951 58.3198 134.148 58.3198ZM134.148 57.1167C134.68 57.1167 135.13 56.9917 135.5 56.7417C135.87 56.4917 136.151 56.1323 136.344 55.6636C136.542 55.1948 136.641 54.6297 136.641 53.9683V53.9526C136.641 53.286 136.542 52.7183 136.344 52.2495C136.151 51.7808 135.87 51.424 135.5 51.1792C135.13 50.9292 134.68 50.8042 134.148 50.8042C133.617 50.8042 133.167 50.9292 132.797 51.1792C132.427 51.424 132.143 51.7808 131.945 52.2495C131.753 52.7183 131.656 53.286 131.656 53.9526V53.9683C131.656 54.6297 131.753 55.1948 131.945 55.6636C132.143 56.1323 132.427 56.4917 132.797 56.7417C133.167 56.9917 133.617 57.1167 134.148 57.1167ZM140.141 58.1714V49.7495H141.5V51.0151H141.625C141.839 50.5672 142.146 50.2209 142.547 49.9761C142.948 49.7261 143.458 49.6011 144.078 49.6011C145.026 49.6011 145.753 49.8719 146.258 50.4136C146.768 50.95 147.023 51.7183 147.023 52.7183V58.1714H145.664V53.0464C145.664 52.286 145.503 51.7235 145.18 51.3589C144.862 50.9891 144.367 50.8042 143.695 50.8042C143.247 50.8042 142.859 50.9006 142.531 51.0933C142.203 51.286 141.948 51.5594 141.766 51.9136C141.589 52.2677 141.5 52.6922 141.5 53.187V58.1714H140.141ZM154.062 58.1714V46.4058H155.422V51.0151H155.547C155.76 50.5672 156.068 50.2209 156.469 49.9761C156.87 49.7261 157.38 49.6011 158 49.6011C158.63 49.6011 159.164 49.7235 159.602 49.9683C160.039 50.2078 160.372 50.5594 160.602 51.0229C160.831 51.4865 160.945 52.0516 160.945 52.7183V58.1714H159.586V53.0464C159.586 52.286 159.424 51.7235 159.102 51.3589C158.784 50.9891 158.289 50.8042 157.617 50.8042C157.169 50.8042 156.781 50.9006 156.453 51.0933C156.125 51.286 155.87 51.5594 155.688 51.9136C155.51 52.2677 155.422 52.6922 155.422 53.187V58.1714H154.062ZM163.438 58.1714V49.7495H164.797V58.1714H163.438ZM164.125 48.1245C163.87 48.1245 163.648 48.0334 163.461 47.8511C163.279 47.6636 163.188 47.4422 163.188 47.187C163.188 46.9266 163.279 46.7052 163.461 46.5229C163.648 46.3407 163.87 46.2495 164.125 46.2495C164.385 46.2495 164.607 46.3407 164.789 46.5229C164.971 46.7052 165.062 46.9266 165.062 47.187C165.062 47.4422 164.971 47.6636 164.789 47.8511C164.607 48.0334 164.385 48.1245 164.125 48.1245ZM170.25 58.3198C169.625 58.3198 169.073 58.2261 168.594 58.0386C168.115 57.8459 167.729 57.5776 167.438 57.2339C167.151 56.8901 166.982 56.4865 166.93 56.0229H168.32C168.435 56.3719 168.659 56.6532 168.992 56.8667C169.326 57.0802 169.76 57.187 170.297 57.187C170.677 57.187 171.01 57.1323 171.297 57.0229C171.589 56.9084 171.818 56.7547 171.984 56.562C172.151 56.3641 172.234 56.1375 172.234 55.8823V55.8667C172.234 55.5802 172.12 55.3381 171.891 55.1401C171.661 54.937 171.286 54.7729 170.766 54.6479L169.461 54.3354C168.935 54.2104 168.503 54.049 168.164 53.8511C167.826 53.6479 167.576 53.4006 167.414 53.1089C167.253 52.812 167.172 52.4631 167.172 52.062V52.0542C167.172 51.5854 167.307 51.1662 167.578 50.7964C167.854 50.4266 168.229 50.1349 168.703 49.9214C169.177 49.7078 169.711 49.6011 170.305 49.6011C170.893 49.6011 171.414 49.6948 171.867 49.8823C172.326 50.0646 172.693 50.325 172.969 50.6636C173.25 51.0021 173.422 51.4006 173.484 51.8589H172.148C172.06 51.5256 171.857 51.2547 171.539 51.0464C171.221 50.8381 170.807 50.7339 170.297 50.7339C169.964 50.7339 169.667 50.7886 169.406 50.8979C169.146 51.0021 168.94 51.1479 168.789 51.3354C168.638 51.5229 168.562 51.7417 168.562 51.9917V52.0073C168.562 52.1948 168.612 52.3615 168.711 52.5073C168.81 52.6532 168.964 52.7808 169.172 52.8901C169.38 52.9995 169.648 53.0959 169.977 53.1792L171.273 53.4917C172.065 53.6844 172.654 53.9604 173.039 54.3198C173.43 54.6792 173.625 55.161 173.625 55.7651V55.7808C173.625 56.2808 173.477 56.7235 173.18 57.1089C172.883 57.4891 172.479 57.786 171.969 57.9995C171.464 58.2131 170.891 58.3198 170.25 58.3198ZM178.648 58.2339C177.784 58.2339 177.156 58.0594 176.766 57.7104C176.38 57.3615 176.188 56.786 176.188 55.9839V50.8745H174.859V49.7495H176.188V47.5698H177.594V49.7495H179.438V50.8745H177.594V55.6401C177.594 56.1349 177.688 56.4917 177.875 56.7104C178.062 56.924 178.375 57.0308 178.812 57.0308C178.932 57.0308 179.034 57.0282 179.117 57.0229C179.206 57.0177 179.312 57.0099 179.438 56.9995V58.1558C179.307 58.1766 179.177 58.1948 179.047 58.2104C178.917 58.2261 178.784 58.2339 178.648 58.2339ZM184.82 58.3198C184.023 58.3198 183.333 58.1453 182.75 57.7964C182.172 57.4422 181.724 56.9396 181.406 56.2886C181.094 55.6375 180.938 54.8641 180.938 53.9683V53.9526C180.938 53.0516 181.094 52.2756 181.406 51.6245C181.724 50.9735 182.172 50.4735 182.75 50.1245C183.333 49.7756 184.023 49.6011 184.82 49.6011C185.622 49.6011 186.312 49.7756 186.891 50.1245C187.469 50.4735 187.914 50.9735 188.227 51.6245C188.544 52.2756 188.703 53.0516 188.703 53.9526V53.9683C188.703 54.8641 188.544 55.6375 188.227 56.2886C187.914 56.9396 187.469 57.4422 186.891 57.7964C186.312 58.1453 185.622 58.3198 184.82 58.3198ZM184.82 57.1167C185.352 57.1167 185.802 56.9917 186.172 56.7417C186.542 56.4917 186.823 56.1323 187.016 55.6636C187.214 55.1948 187.312 54.6297 187.312 53.9683V53.9526C187.312 53.286 187.214 52.7183 187.016 52.2495C186.823 51.7808 186.542 51.424 186.172 51.1792C185.802 50.9292 185.352 50.8042 184.82 50.8042C184.289 50.8042 183.839 50.9292 183.469 51.1792C183.099 51.424 182.815 51.7808 182.617 52.2495C182.424 52.7183 182.328 53.286 182.328 53.9526V53.9683C182.328 54.6297 182.424 55.1948 182.617 55.6636C182.815 56.1323 183.099 56.4917 183.469 56.7417C183.839 56.9917 184.289 57.1167 184.82 57.1167ZM190.812 58.1714V49.7495H192.172V50.9995H192.297C192.458 50.5568 192.732 50.2131 193.117 49.9683C193.503 49.7235 193.979 49.6011 194.547 49.6011C194.677 49.6011 194.805 49.6089 194.93 49.6245C195.06 49.6349 195.159 49.6453 195.227 49.6558V50.9761C195.086 50.95 194.948 50.9318 194.812 50.9214C194.682 50.9058 194.542 50.8979 194.391 50.8979C193.958 50.8979 193.576 50.9839 193.242 51.1558C192.909 51.3276 192.646 51.5672 192.453 51.8745C192.266 52.1818 192.172 52.5412 192.172 52.9526V58.1714H190.812ZM197.703 61.1245C197.615 61.1245 197.516 61.1193 197.406 61.1089C197.297 61.1037 197.195 61.0933 197.102 61.0776V59.9604C197.185 59.9761 197.276 59.9865 197.375 59.9917C197.474 59.9969 197.57 59.9995 197.664 59.9995C198.049 59.9995 198.365 59.9006 198.609 59.7026C198.859 59.5047 199.06 59.1636 199.211 58.6792L199.367 58.1792L196.25 49.7495H197.703L200.297 57.5308L199.758 56.6792H200.398L199.859 57.5308L202.445 49.7495H203.875L200.586 58.687C200.357 59.3172 200.115 59.8094 199.859 60.1636C199.604 60.5177 199.305 60.7651 198.961 60.9058C198.622 61.0516 198.203 61.1245 197.703 61.1245Z" fill="white"/>
<rect width="268" height="35" transform="translate(32 72.1714)" fill="#0C8EFF"/>
<path d="M50.1406 91.1479V89.8979H53.3281C54.1354 89.8979 54.7604 89.6896 55.2031 89.2729C55.6458 88.8511 55.8672 88.2703 55.8672 87.5308V87.5151C55.8672 86.7703 55.6458 86.1896 55.2031 85.7729C54.7604 85.3563 54.1354 85.1479 53.3281 85.1479H50.1406V83.8979H53.6875C54.3958 83.8979 55.0208 84.049 55.5625 84.3511C56.1042 84.6532 56.5286 85.075 56.8359 85.6167C57.1484 86.1584 57.3047 86.786 57.3047 87.4995V87.5151C57.3047 88.2287 57.1484 88.8589 56.8359 89.4058C56.5286 89.9526 56.1042 90.3797 55.5625 90.687C55.0208 90.9943 54.3958 91.1479 53.6875 91.1479H50.1406ZM49.4375 95.1714V83.8979H50.8438V95.1714H49.4375ZM62.2578 95.3198C61.6224 95.3198 61.0885 95.2 60.6562 94.9604C60.224 94.7157 59.8984 94.3615 59.6797 93.8979C59.4661 93.4292 59.3594 92.8641 59.3594 92.2026V86.7495H60.7188V91.8745C60.7188 92.6297 60.8646 93.1922 61.1562 93.562C61.4531 93.9318 61.9375 94.1167 62.6094 94.1167C62.9792 94.1167 63.3047 94.062 63.5859 93.9526C63.8724 93.8433 64.112 93.687 64.3047 93.4839C64.4974 93.2756 64.6406 93.0256 64.7344 92.7339C64.8333 92.437 64.8828 92.1037 64.8828 91.7339V86.7495H66.2422V95.1714H64.8828V93.9136H64.7578C64.6224 94.2104 64.4375 94.4657 64.2031 94.6792C63.9688 94.8875 63.6875 95.0464 63.3594 95.1558C63.0365 95.2651 62.6693 95.3198 62.2578 95.3198ZM72.9688 95.3198C72.5781 95.3198 72.2161 95.2599 71.8828 95.1401C71.5495 95.0203 71.2526 94.8511 70.9922 94.6323C70.7318 94.4084 70.5156 94.1401 70.3438 93.8276H70.2188V95.1714H68.8594V83.4058H70.2188V88.0776H70.3438C70.5 87.7756 70.7083 87.5151 70.9688 87.2964C71.2344 87.0776 71.5365 86.9084 71.875 86.7886C72.2188 86.6636 72.5833 86.6011 72.9688 86.6011C73.6823 86.6011 74.3021 86.7808 74.8281 87.1401C75.3594 87.4995 75.7708 88.0047 76.0625 88.6558C76.3542 89.3068 76.5 90.0724 76.5 90.9526V90.9683C76.5 91.8433 76.3542 92.6089 76.0625 93.2651C75.7708 93.9162 75.3594 94.4214 74.8281 94.7808C74.3021 95.1401 73.6823 95.3198 72.9688 95.3198ZM72.6562 94.1167C73.1719 94.1167 73.612 93.9917 73.9766 93.7417C74.3411 93.4865 74.6198 93.1245 74.8125 92.6558C75.0104 92.1818 75.1094 91.6193 75.1094 90.9683V90.9526C75.1094 90.2964 75.0104 89.7339 74.8125 89.2651C74.6198 88.7964 74.3411 88.437 73.9766 88.187C73.612 87.9318 73.1719 87.8042 72.6562 87.8042C72.1458 87.8042 71.7057 87.9318 71.3359 88.187C70.9661 88.4422 70.6823 88.8042 70.4844 89.2729C70.2865 89.7417 70.1875 90.3016 70.1875 90.9526V90.9683C70.1875 91.6141 70.2865 92.174 70.4844 92.6479C70.6823 93.1167 70.9661 93.4787 71.3359 93.7339C71.7057 93.9891 72.1458 94.1167 72.6562 94.1167ZM78.6875 95.1714V83.4058H80.0469V95.1714H78.6875ZM82.6875 95.1714V86.7495H84.0469V95.1714H82.6875ZM83.375 85.1245C83.1198 85.1245 82.8984 85.0334 82.7109 84.8511C82.5286 84.6636 82.4375 84.4422 82.4375 84.187C82.4375 83.9266 82.5286 83.7052 82.7109 83.5229C82.8984 83.3407 83.1198 83.2495 83.375 83.2495C83.6354 83.2495 83.8568 83.3407 84.0391 83.5229C84.2214 83.7052 84.3125 83.9266 84.3125 84.187C84.3125 84.4422 84.2214 84.6636 84.0391 84.8511C83.8568 85.0334 83.6354 85.1245 83.375 85.1245ZM89.5 95.3198C88.875 95.3198 88.3229 95.2261 87.8438 95.0386C87.3646 94.8459 86.9792 94.5776 86.6875 94.2339C86.401 93.8901 86.2318 93.4865 86.1797 93.0229H87.5703C87.6849 93.3719 87.9089 93.6532 88.2422 93.8667C88.5755 94.0802 89.0104 94.187 89.5469 94.187C89.9271 94.187 90.2604 94.1323 90.5469 94.0229C90.8385 93.9084 91.0677 93.7547 91.2344 93.562C91.401 93.3641 91.4844 93.1375 91.4844 92.8823V92.8667C91.4844 92.5802 91.3698 92.3381 91.1406 92.1401C90.9115 91.937 90.5365 91.7729 90.0156 91.6479L88.7109 91.3354C88.1849 91.2104 87.7526 91.049 87.4141 90.8511C87.0755 90.6479 86.8255 90.4006 86.6641 90.1089C86.5026 89.812 86.4219 89.4631 86.4219 89.062V89.0542C86.4219 88.5854 86.5573 88.1662 86.8281 87.7964C87.1042 87.4266 87.4792 87.1349 87.9531 86.9214C88.4271 86.7078 88.9609 86.6011 89.5547 86.6011C90.1432 86.6011 90.6641 86.6948 91.1172 86.8823C91.5755 87.0646 91.9427 87.325 92.2188 87.6636C92.5 88.0021 92.6719 88.4006 92.7344 88.8589H91.3984C91.3099 88.5256 91.1068 88.2547 90.7891 88.0464C90.4714 87.8381 90.0573 87.7339 89.5469 87.7339C89.2135 87.7339 88.9167 87.7886 88.6562 87.8979C88.3958 88.0021 88.1901 88.1479 88.0391 88.3354C87.888 88.5229 87.8125 88.7417 87.8125 88.9917V89.0073C87.8125 89.1948 87.862 89.3615 87.9609 89.5073C88.0599 89.6532 88.2135 89.7808 88.4219 89.8901C88.6302 89.9995 88.8984 90.0959 89.2266 90.1792L90.5234 90.4917C91.3151 90.6844 91.9036 90.9604 92.2891 91.3198C92.6797 91.6792 92.875 92.161 92.875 92.7651V92.7808C92.875 93.2808 92.7266 93.7235 92.4297 94.1089C92.1328 94.4891 91.7292 94.786 91.2188 94.9995C90.7135 95.2131 90.1406 95.3198 89.5 95.3198ZM95.0625 95.1714V83.4058H96.4219V88.0151H96.5469C96.7604 87.5672 97.0677 87.2209 97.4688 86.9761C97.8698 86.7261 98.3802 86.6011 99 86.6011C99.6302 86.6011 100.164 86.7235 100.602 86.9683C101.039 87.2078 101.372 87.5594 101.602 88.0229C101.831 88.4865 101.945 89.0516 101.945 89.7183V95.1714H100.586V90.0464C100.586 89.286 100.424 88.7235 100.102 88.3589C99.7839 87.9891 99.2891 87.8042 98.6172 87.8042C98.1693 87.8042 97.7812 87.9006 97.4531 88.0933C97.125 88.286 96.8698 88.5594 96.6875 88.9136C96.5104 89.2677 96.4219 89.6922 96.4219 90.187V95.1714H95.0625ZM111.898 95.2339C111.034 95.2339 110.406 95.0594 110.016 94.7104C109.63 94.3615 109.438 93.786 109.438 92.9839V87.8745H108.109V86.7495H109.438V84.5698H110.844V86.7495H112.688V87.8745H110.844V92.6401C110.844 93.1349 110.938 93.4917 111.125 93.7104C111.312 93.924 111.625 94.0308 112.062 94.0308C112.182 94.0308 112.284 94.0282 112.367 94.0229C112.456 94.0177 112.562 94.0099 112.688 93.9995V95.1558C112.557 95.1766 112.427 95.1948 112.297 95.2104C112.167 95.2261 112.034 95.2339 111.898 95.2339ZM118.07 95.3198C117.273 95.3198 116.583 95.1453 116 94.7964C115.422 94.4422 114.974 93.9396 114.656 93.2886C114.344 92.6375 114.188 91.8641 114.188 90.9683V90.9526C114.188 90.0516 114.344 89.2756 114.656 88.6245C114.974 87.9735 115.422 87.4735 116 87.1245C116.583 86.7756 117.273 86.6011 118.07 86.6011C118.872 86.6011 119.562 86.7756 120.141 87.1245C120.719 87.4735 121.164 87.9735 121.477 88.6245C121.794 89.2756 121.953 90.0516 121.953 90.9526V90.9683C121.953 91.8641 121.794 92.6375 121.477 93.2886C121.164 93.9396 120.719 94.4422 120.141 94.7964C119.562 95.1453 118.872 95.3198 118.07 95.3198ZM118.07 94.1167C118.602 94.1167 119.052 93.9917 119.422 93.7417C119.792 93.4917 120.073 93.1323 120.266 92.6636C120.464 92.1948 120.562 91.6297 120.562 90.9683V90.9526C120.562 90.286 120.464 89.7183 120.266 89.2495C120.073 88.7808 119.792 88.424 119.422 88.1792C119.052 87.9292 118.602 87.8042 118.07 87.8042C117.539 87.8042 117.089 87.9292 116.719 88.1792C116.349 88.424 116.065 88.7808 115.867 89.2495C115.674 89.7183 115.578 90.286 115.578 90.9526V90.9683C115.578 91.6297 115.674 92.1948 115.867 92.6636C116.065 93.1323 116.349 93.4917 116.719 93.7417C117.089 93.9917 117.539 94.1167 118.07 94.1167ZM128.641 95.1714V83.4058H130V95.1714H128.641ZM132.641 95.1714V86.7495H134V95.1714H132.641ZM133.328 85.1245C133.073 85.1245 132.852 85.0334 132.664 84.8511C132.482 84.6636 132.391 84.4422 132.391 84.187C132.391 83.9266 132.482 83.7052 132.664 83.5229C132.852 83.3407 133.073 83.2495 133.328 83.2495C133.589 83.2495 133.81 83.3407 133.992 83.5229C134.174 83.7052 134.266 83.9266 134.266 84.187C134.266 84.4422 134.174 84.6636 133.992 84.8511C133.81 85.0334 133.589 85.1245 133.328 85.1245ZM140.75 95.3198C140.359 95.3198 139.997 95.2599 139.664 95.1401C139.331 95.0203 139.034 94.8511 138.773 94.6323C138.513 94.4084 138.297 94.1401 138.125 93.8276H138V95.1714H136.641V83.4058H138V88.0776H138.125C138.281 87.7756 138.49 87.5151 138.75 87.2964C139.016 87.0776 139.318 86.9084 139.656 86.7886C140 86.6636 140.365 86.6011 140.75 86.6011C141.464 86.6011 142.083 86.7808 142.609 87.1401C143.141 87.4995 143.552 88.0047 143.844 88.6558C144.135 89.3068 144.281 90.0724 144.281 90.9526V90.9683C144.281 91.8433 144.135 92.6089 143.844 93.2651C143.552 93.9162 143.141 94.4214 142.609 94.7808C142.083 95.1401 141.464 95.3198 140.75 95.3198ZM140.438 94.1167C140.953 94.1167 141.393 93.9917 141.758 93.7417C142.122 93.4865 142.401 93.1245 142.594 92.6558C142.792 92.1818 142.891 91.6193 142.891 90.9683V90.9526C142.891 90.2964 142.792 89.7339 142.594 89.2651C142.401 88.7964 142.122 88.437 141.758 88.187C141.393 87.9318 140.953 87.8042 140.438 87.8042C139.927 87.8042 139.487 87.9318 139.117 88.187C138.747 88.4422 138.464 88.8042 138.266 89.2729C138.068 89.7417 137.969 90.3016 137.969 90.9526V90.9683C137.969 91.6141 138.068 92.174 138.266 92.6479C138.464 93.1167 138.747 93.4787 139.117 93.7339C139.487 93.9891 139.927 94.1167 140.438 94.1167ZM146.391 95.1714V86.7495H147.75V87.9995H147.875C148.036 87.5568 148.31 87.2131 148.695 86.9683C149.081 86.7235 149.557 86.6011 150.125 86.6011C150.255 86.6011 150.383 86.6089 150.508 86.6245C150.638 86.6349 150.737 86.6453 150.805 86.6558V87.9761C150.664 87.95 150.526 87.9318 150.391 87.9214C150.26 87.9058 150.12 87.8979 149.969 87.8979C149.536 87.8979 149.154 87.9839 148.82 88.1558C148.487 88.3276 148.224 88.5672 148.031 88.8745C147.844 89.1818 147.75 89.5412 147.75 89.9526V95.1714H146.391ZM154.797 95.3198C154.266 95.3198 153.786 95.2183 153.359 95.0151C152.938 94.812 152.602 94.5229 152.352 94.1479C152.107 93.7729 151.984 93.3302 151.984 92.8198V92.8042C151.984 92.3042 152.104 91.8771 152.344 91.5229C152.583 91.1636 152.932 90.8823 153.391 90.6792C153.849 90.4761 154.404 90.3563 155.055 90.3198L158.148 90.1323V91.2183L155.219 91.4058C154.578 91.4422 154.109 91.575 153.812 91.8042C153.521 92.0334 153.375 92.3563 153.375 92.7729V92.7886C153.375 93.2157 153.536 93.549 153.859 93.7886C154.182 94.0229 154.589 94.1401 155.078 94.1401C155.542 94.1401 155.953 94.049 156.312 93.8667C156.672 93.6792 156.953 93.4266 157.156 93.1089C157.365 92.7912 157.469 92.4318 157.469 92.0308V89.4058C157.469 88.8849 157.31 88.4891 156.992 88.2183C156.68 87.9422 156.208 87.8042 155.578 87.8042C155.073 87.8042 154.659 87.8953 154.336 88.0776C154.013 88.2547 153.797 88.5073 153.688 88.8354L153.68 88.8589H152.32L152.328 88.812C152.401 88.3693 152.583 87.9839 152.875 87.6558C153.172 87.3224 153.555 87.0646 154.023 86.8823C154.492 86.6948 155.026 86.6011 155.625 86.6011C156.312 86.6011 156.893 86.7131 157.367 86.937C157.846 87.161 158.208 87.4839 158.453 87.9058C158.703 88.3224 158.828 88.8224 158.828 89.4058V95.1714H157.469V93.9292H157.344C157.167 94.2261 156.951 94.4787 156.695 94.687C156.445 94.8953 156.161 95.0542 155.844 95.1636C155.526 95.2677 155.177 95.3198 154.797 95.3198ZM161.312 95.1714V86.7495H162.672V87.9995H162.797C162.958 87.5568 163.232 87.2131 163.617 86.9683C164.003 86.7235 164.479 86.6011 165.047 86.6011C165.177 86.6011 165.305 86.6089 165.43 86.6245C165.56 86.6349 165.659 86.6453 165.727 86.6558V87.9761C165.586 87.95 165.448 87.9318 165.312 87.9214C165.182 87.9058 165.042 87.8979 164.891 87.8979C164.458 87.8979 164.076 87.9839 163.742 88.1558C163.409 88.3276 163.146 88.5672 162.953 88.8745C162.766 89.1818 162.672 89.5412 162.672 89.9526V95.1714H161.312ZM168.203 98.1245C168.115 98.1245 168.016 98.1193 167.906 98.1089C167.797 98.1037 167.695 98.0933 167.602 98.0776V96.9604C167.685 96.9761 167.776 96.9865 167.875 96.9917C167.974 96.9969 168.07 96.9995 168.164 96.9995C168.549 96.9995 168.865 96.9006 169.109 96.7026C169.359 96.5047 169.56 96.1636 169.711 95.6792L169.867 95.1792L166.75 86.7495H168.203L170.797 94.5308L170.258 93.6792H170.898L170.359 94.5308L172.945 86.7495H174.375L171.086 95.687C170.857 96.3172 170.615 96.8094 170.359 97.1636C170.104 97.5177 169.805 97.7651 169.461 97.9058C169.122 98.0516 168.703 98.1245 168.203 98.1245ZM176.109 95.2495C175.833 95.2495 175.594 95.1506 175.391 94.9526C175.193 94.7495 175.094 94.5099 175.094 94.2339C175.094 93.9526 175.193 93.7131 175.391 93.5151C175.594 93.3172 175.833 93.2183 176.109 93.2183C176.391 93.2183 176.63 93.3172 176.828 93.5151C177.026 93.7131 177.125 93.9526 177.125 94.2339C177.125 94.5099 177.026 94.7495 176.828 94.9526C176.63 95.1506 176.391 95.2495 176.109 95.2495ZM180.859 95.2495C180.583 95.2495 180.344 95.1506 180.141 94.9526C179.943 94.7495 179.844 94.5099 179.844 94.2339C179.844 93.9526 179.943 93.7131 180.141 93.5151C180.344 93.3172 180.583 93.2183 180.859 93.2183C181.141 93.2183 181.38 93.3172 181.578 93.5151C181.776 93.7131 181.875 93.9526 181.875 94.2339C181.875 94.5099 181.776 94.7495 181.578 94.9526C181.38 95.1506 181.141 95.2495 180.859 95.2495ZM185.609 95.2495C185.333 95.2495 185.094 95.1506 184.891 94.9526C184.693 94.7495 184.594 94.5099 184.594 94.2339C184.594 93.9526 184.693 93.7131 184.891 93.5151C185.094 93.3172 185.333 93.2183 185.609 93.2183C185.891 93.2183 186.13 93.3172 186.328 93.5151C186.526 93.7131 186.625 93.9526 186.625 94.2339C186.625 94.5099 186.526 94.7495 186.328 94.9526C186.13 95.1506 185.891 95.2495 185.609 95.2495Z" fill="white"/>
<path d="M49.4375 132.171V120.898H56.4219V122.164H50.8438V125.781H56.1328V127.031H50.8438V130.906H56.4219V132.171H49.4375ZM58.125 132.171L61.0078 127.96L58.0938 123.75H59.6953L61.6953 126.882H61.8203L63.7969 123.75H65.3203L62.4609 127.906L65.3594 132.171H63.7656L61.7734 128.992H61.6484L59.6484 132.171H58.125ZM67.1875 134.984V123.75H68.5469V125.093H68.6719C68.8438 124.781 69.0599 124.515 69.3203 124.296C69.5807 124.072 69.8776 123.901 70.2109 123.781C70.5443 123.661 70.9062 123.601 71.2969 123.601C72.0104 123.601 72.6302 123.783 73.1562 124.148C73.6875 124.507 74.099 125.013 74.3906 125.664C74.6823 126.315 74.8281 127.078 74.8281 127.953V127.968C74.8281 128.848 74.6823 129.614 74.3906 130.265C74.099 130.916 73.6875 131.421 73.1562 131.781C72.6302 132.14 72.0104 132.32 71.2969 132.32C70.9115 132.32 70.5469 132.26 70.2031 132.14C69.8646 132.015 69.5625 131.843 69.2969 131.625C69.0365 131.406 68.8281 131.145 68.6719 130.843H68.5469V134.984H67.1875ZM70.9844 131.117C71.5 131.117 71.9401 130.992 72.3047 130.742C72.6693 130.486 72.9479 130.125 73.1406 129.656C73.3385 129.182 73.4375 128.619 73.4375 127.968V127.953C73.4375 127.296 73.3385 126.734 73.1406 126.265C72.9479 125.796 72.6693 125.437 72.3047 125.187C71.9401 124.932 71.5 124.804 70.9844 124.804C70.474 124.804 70.0339 124.932 69.6641 125.187C69.2943 125.442 69.0104 125.804 68.8125 126.273C68.6146 126.742 68.5156 127.302 68.5156 127.953V127.968C68.5156 128.614 68.6146 129.174 68.8125 129.648C69.0104 130.117 69.2943 130.479 69.6641 130.734C70.0339 130.989 70.474 131.117 70.9844 131.117ZM80.4141 132.32C79.6172 132.32 78.9271 132.145 78.3438 131.796C77.7656 131.442 77.3177 130.94 77 130.289C76.6875 129.638 76.5312 128.864 76.5312 127.968V127.953C76.5312 127.052 76.6875 126.276 77 125.625C77.3177 124.973 77.7656 124.473 78.3438 124.125C78.9271 123.776 79.6172 123.601 80.4141 123.601C81.2161 123.601 81.9062 123.776 82.4844 124.125C83.0625 124.473 83.5078 124.973 83.8203 125.625C84.138 126.276 84.2969 127.052 84.2969 127.953V127.968C84.2969 128.864 84.138 129.638 83.8203 130.289C83.5078 130.94 83.0625 131.442 82.4844 131.796C81.9062 132.145 81.2161 132.32 80.4141 132.32ZM80.4141 131.117C80.9453 131.117 81.3958 130.992 81.7656 130.742C82.1354 130.492 82.4167 130.132 82.6094 129.664C82.8073 129.195 82.9062 128.63 82.9062 127.968V127.953C82.9062 127.286 82.8073 126.718 82.6094 126.25C82.4167 125.781 82.1354 125.424 81.7656 125.179C81.3958 124.929 80.9453 124.804 80.4141 124.804C79.8828 124.804 79.4323 124.929 79.0625 125.179C78.6927 125.424 78.4089 125.781 78.2109 126.25C78.0182 126.718 77.9219 127.286 77.9219 127.953V127.968C77.9219 128.63 78.0182 129.195 78.2109 129.664C78.4089 130.132 78.6927 130.492 79.0625 130.742C79.4323 130.992 79.8828 131.117 80.4141 131.117ZM86.4062 132.171V123.75H87.7656V125H87.8906C88.0521 124.557 88.3255 124.213 88.7109 123.968C89.0964 123.723 89.5729 123.601 90.1406 123.601C90.2708 123.601 90.3984 123.609 90.5234 123.625C90.6536 123.635 90.7526 123.645 90.8203 123.656V124.976C90.6797 124.95 90.5417 124.932 90.4062 124.921C90.276 124.906 90.1354 124.898 89.9844 124.898C89.5521 124.898 89.1693 124.984 88.8359 125.156C88.5026 125.328 88.2396 125.567 88.0469 125.875C87.8594 126.182 87.7656 126.541 87.7656 126.953V132.171H86.4062ZM95.6484 132.234C94.7839 132.234 94.1562 132.059 93.7656 131.71C93.3802 131.361 93.1875 130.786 93.1875 129.984V124.875H91.8594V123.75H93.1875V121.57H94.5938V123.75H96.4375V124.875H94.5938V129.64C94.5938 130.135 94.6875 130.492 94.875 130.71C95.0625 130.924 95.375 131.031 95.8125 131.031C95.9323 131.031 96.0339 131.028 96.1172 131.023C96.2057 131.018 96.3125 131.01 96.4375 131V132.156C96.3073 132.177 96.1771 132.195 96.0469 132.21C95.9167 132.226 95.7839 132.234 95.6484 132.234Z" fill="white"/>
<path d="M250.094 132.234C249.63 132.234 249.279 132.109 249.039 131.859C248.805 131.604 248.688 131.26 248.688 130.828V128.187H246.297C246.026 128.187 245.794 128.109 245.602 127.953C245.409 127.796 245.312 127.591 245.312 127.335C245.312 127.174 245.346 127.033 245.414 126.914C245.487 126.794 245.589 126.669 245.719 126.539L251.125 121.148C251.24 121.039 251.362 120.95 251.492 120.882C251.628 120.815 251.768 120.781 251.914 120.781C252.065 120.781 252.206 120.815 252.336 120.882C252.471 120.95 252.594 121.039 252.703 121.148L258.117 126.539C258.237 126.664 258.333 126.789 258.406 126.914C258.479 127.033 258.516 127.174 258.516 127.335C258.516 127.591 258.419 127.796 258.227 127.953C258.039 128.109 257.807 128.187 257.531 128.187H255.141V130.828C255.141 131.26 255.021 131.604 254.781 131.859C254.547 132.109 254.198 132.234 253.734 132.234H250.094ZM250.211 131.148H253.617C253.716 131.148 253.799 131.114 253.867 131.046C253.935 130.979 253.969 130.895 253.969 130.796V127.343C253.969 127.203 254.042 127.132 254.188 127.132H256.969C257 127.132 257.016 127.119 257.016 127.093C257.016 127.078 257.005 127.059 256.984 127.039L251.992 122.093C251.971 122.072 251.945 122.062 251.914 122.062C251.883 122.062 251.857 122.072 251.836 122.093L246.844 127.039C246.828 127.059 246.82 127.078 246.82 127.093C246.82 127.119 246.836 127.132 246.867 127.132H249.641C249.786 127.132 249.859 127.203 249.859 127.343V130.796C249.859 130.901 249.891 130.986 249.953 131.054C250.021 131.117 250.107 131.148 250.211 131.148ZM264.711 125.195H263.562C263.151 125.195 262.776 125.098 262.438 124.906C262.099 124.708 261.828 124.442 261.625 124.109C261.427 123.776 261.328 123.401 261.328 122.984C261.328 122.572 261.427 122.197 261.625 121.859C261.828 121.52 262.099 121.25 262.438 121.046C262.776 120.843 263.151 120.742 263.562 120.742C263.974 120.742 264.349 120.843 264.688 121.046C265.026 121.25 265.294 121.52 265.492 121.859C265.695 122.197 265.797 122.572 265.797 122.984V124.125H268.438V122.984C268.438 122.572 268.539 122.197 268.742 121.859C268.945 121.52 269.214 121.25 269.547 121.046C269.885 120.843 270.26 120.742 270.672 120.742C271.083 120.742 271.458 120.843 271.797 121.046C272.135 121.25 272.404 121.52 272.602 121.859C272.805 122.197 272.906 122.572 272.906 122.984C272.906 123.401 272.805 123.776 272.602 124.109C272.404 124.442 272.135 124.708 271.797 124.906C271.458 125.098 271.083 125.195 270.672 125.195H269.531V127.875H270.672C271.083 127.875 271.458 127.973 271.797 128.171C272.135 128.364 272.404 128.627 272.602 128.96C272.805 129.294 272.906 129.669 272.906 130.085C272.906 130.497 272.805 130.872 272.602 131.21C272.404 131.549 272.135 131.82 271.797 132.023C271.458 132.226 271.083 132.328 270.672 132.328C270.26 132.328 269.885 132.226 269.547 132.023C269.214 131.82 268.945 131.549 268.742 131.21C268.539 130.872 268.438 130.497 268.438 130.085V128.945H265.797V130.085C265.797 130.497 265.695 130.872 265.492 131.21C265.294 131.549 265.026 131.82 264.688 132.023C264.349 132.226 263.974 132.328 263.562 132.328C263.151 132.328 262.776 132.226 262.438 132.023C262.099 131.82 261.828 131.549 261.625 131.21C261.427 130.872 261.328 130.497 261.328 130.085C261.328 129.669 261.427 129.294 261.625 128.96C261.828 128.627 262.099 128.364 262.438 128.171C262.776 127.973 263.151 127.875 263.562 127.875H264.711V125.195ZM263.562 124.14H264.711V122.984C264.711 122.671 264.596 122.403 264.367 122.179C264.143 121.95 263.875 121.835 263.562 121.835C263.25 121.835 262.979 121.95 262.75 122.179C262.526 122.403 262.414 122.671 262.414 122.984C262.414 123.302 262.526 123.575 262.75 123.804C262.979 124.028 263.25 124.14 263.562 124.14ZM270.672 124.14C270.984 124.14 271.253 124.028 271.477 123.804C271.706 123.575 271.82 123.302 271.82 122.984C271.82 122.671 271.706 122.403 271.477 122.179C271.253 121.95 270.984 121.835 270.672 121.835C270.359 121.835 270.091 121.95 269.867 122.179C269.643 122.403 269.531 122.671 269.531 122.984V124.14H270.672ZM265.797 127.89H268.438V125.179H265.797V127.89ZM263.562 128.921C263.25 128.921 262.979 129.036 262.75 129.265C262.526 129.489 262.414 129.76 262.414 130.078C262.414 130.39 262.526 130.661 262.75 130.89C262.979 131.114 263.25 131.226 263.562 131.226C263.875 131.226 264.143 131.114 264.367 130.89C264.596 130.661 264.711 130.39 264.711 130.078V128.921H263.562ZM270.672 128.921H269.531V130.078C269.531 130.39 269.643 130.661 269.867 130.89C270.091 131.114 270.359 131.226 270.672 131.226C270.984 131.226 271.253 131.114 271.477 130.89C271.706 130.661 271.82 130.39 271.82 130.078C271.82 129.76 271.706 129.489 271.477 129.265C271.253 129.036 270.984 128.921 270.672 128.921ZM275.906 132.171V120.898H282.891V122.164H277.312V125.781H282.602V127.031H277.312V130.906H282.891V132.171H275.906Z" fill="white"/>
<line x1="32" y1="151.671" x2="300" y2="151.671" stroke="#383838"/>
<path d="M48.5391 183.171L52.6953 171.898H53.7734V173.718H53.3281L50.0156 183.171H48.5391ZM50.4219 179.945L50.8594 178.75H55.9531L56.3906 179.945H50.4219ZM56.7656 183.171L53.4531 173.718V171.898H54.0859L58.2422 183.171H56.7656ZM62.6875 183.32C61.9792 183.32 61.3594 183.14 60.8281 182.781C60.2969 182.421 59.8854 181.916 59.5938 181.265C59.3021 180.609 59.1562 179.843 59.1562 178.968V178.953C59.1562 178.072 59.3021 177.307 59.5938 176.656C59.8854 176.005 60.2943 175.5 60.8203 175.14C61.3516 174.781 61.974 174.601 62.6875 174.601C63.0729 174.601 63.4349 174.664 63.7734 174.789C64.1172 174.908 64.4219 175.078 64.6875 175.296C64.9531 175.515 65.1615 175.776 65.3125 176.078H65.4375V171.406H66.7969V183.171H65.4375V181.828H65.3125C65.1406 182.14 64.9245 182.408 64.6641 182.632C64.4036 182.851 64.1068 183.02 63.7734 183.14C63.4401 183.26 63.0781 183.32 62.6875 183.32ZM63 182.117C63.5104 182.117 63.9505 181.989 64.3203 181.734C64.6901 181.479 64.974 181.117 65.1719 180.648C65.3698 180.174 65.4688 179.614 65.4688 178.968V178.953C65.4688 178.302 65.3698 177.742 65.1719 177.273C64.974 176.804 64.6901 176.442 64.3203 176.187C63.9505 175.932 63.5104 175.804 63 175.804C62.4896 175.804 62.0495 175.932 61.6797 176.187C61.3151 176.437 61.0339 176.796 60.8359 177.265C60.6432 177.734 60.5469 178.296 60.5469 178.953V178.968C60.5469 179.619 60.6432 180.182 60.8359 180.656C61.0339 181.125 61.3151 181.486 61.6797 181.742C62.0495 181.992 62.4896 182.117 63 182.117ZM72.5156 183.32C71.8073 183.32 71.1875 183.14 70.6562 182.781C70.125 182.421 69.7135 181.916 69.4219 181.265C69.1302 180.609 68.9844 179.843 68.9844 178.968V178.953C68.9844 178.072 69.1302 177.307 69.4219 176.656C69.7135 176.005 70.1224 175.5 70.6484 175.14C71.1797 174.781 71.8021 174.601 72.5156 174.601C72.901 174.601 73.263 174.664 73.6016 174.789C73.9453 174.908 74.25 175.078 74.5156 175.296C74.7812 175.515 74.9896 175.776 75.1406 176.078H75.2656V171.406H76.625V183.171H75.2656V181.828H75.1406C74.9688 182.14 74.7526 182.408 74.4922 182.632C74.2318 182.851 73.9349 183.02 73.6016 183.14C73.2682 183.26 72.9062 183.32 72.5156 183.32ZM72.8281 182.117C73.3385 182.117 73.7786 181.989 74.1484 181.734C74.5182 181.479 74.8021 181.117 75 180.648C75.1979 180.174 75.2969 179.614 75.2969 178.968V178.953C75.2969 178.302 75.1979 177.742 75 177.273C74.8021 176.804 74.5182 176.442 74.1484 176.187C73.7786 175.932 73.3385 175.804 72.8281 175.804C72.3177 175.804 71.8776 175.932 71.5078 176.187C71.1432 176.437 70.862 176.796 70.6641 177.265C70.4714 177.734 70.375 178.296 70.375 178.953V178.968C70.375 179.619 70.4714 180.182 70.6641 180.656C70.862 181.125 71.1432 181.486 71.5078 181.742C71.8776 181.992 72.3177 182.117 72.8281 182.117ZM86.7266 183.234C85.862 183.234 85.2344 183.059 84.8438 182.71C84.4583 182.361 84.2656 181.786 84.2656 180.984V175.875H82.9375V174.75H84.2656V172.57H85.6719V174.75H87.5156V175.875H85.6719V180.64C85.6719 181.135 85.7656 181.492 85.9531 181.71C86.1406 181.924 86.4531 182.031 86.8906 182.031C87.0104 182.031 87.112 182.028 87.1953 182.023C87.2839 182.018 87.3906 182.01 87.5156 182V183.156C87.3854 183.177 87.2552 183.195 87.125 183.21C86.9948 183.226 86.862 183.234 86.7266 183.234ZM92.8984 183.32C92.1016 183.32 91.4115 183.145 90.8281 182.796C90.25 182.442 89.8021 181.94 89.4844 181.289C89.1719 180.638 89.0156 179.864 89.0156 178.968V178.953C89.0156 178.052 89.1719 177.276 89.4844 176.625C89.8021 175.973 90.25 175.473 90.8281 175.125C91.4115 174.776 92.1016 174.601 92.8984 174.601C93.7005 174.601 94.3906 174.776 94.9688 175.125C95.5469 175.473 95.9922 175.973 96.3047 176.625C96.6224 177.276 96.7812 178.052 96.7812 178.953V178.968C96.7812 179.864 96.6224 180.638 96.3047 181.289C95.9922 181.94 95.5469 182.442 94.9688 182.796C94.3906 183.145 93.7005 183.32 92.8984 183.32ZM92.8984 182.117C93.4297 182.117 93.8802 181.992 94.25 181.742C94.6198 181.492 94.901 181.132 95.0938 180.664C95.2917 180.195 95.3906 179.63 95.3906 178.968V178.953C95.3906 178.286 95.2917 177.718 95.0938 177.25C94.901 176.781 94.6198 176.424 94.25 176.179C93.8802 175.929 93.4297 175.804 92.8984 175.804C92.3672 175.804 91.9167 175.929 91.5469 176.179C91.1771 176.424 90.8932 176.781 90.6953 177.25C90.5026 177.718 90.4062 178.286 90.4062 178.953V178.968C90.4062 179.63 90.5026 180.195 90.6953 180.664C90.8932 181.132 91.1771 181.492 91.5469 181.742C91.9167 181.992 92.3672 182.117 92.8984 182.117ZM106.281 183.32C105.656 183.32 105.104 183.226 104.625 183.039C104.146 182.846 103.76 182.578 103.469 182.234C103.182 181.89 103.013 181.486 102.961 181.023H104.352C104.466 181.372 104.69 181.653 105.023 181.867C105.357 182.08 105.792 182.187 106.328 182.187C106.708 182.187 107.042 182.132 107.328 182.023C107.62 181.908 107.849 181.755 108.016 181.562C108.182 181.364 108.266 181.138 108.266 180.882V180.867C108.266 180.58 108.151 180.338 107.922 180.14C107.693 179.937 107.318 179.773 106.797 179.648L105.492 179.335C104.966 179.21 104.534 179.049 104.195 178.851C103.857 178.648 103.607 178.401 103.445 178.109C103.284 177.812 103.203 177.463 103.203 177.062V177.054C103.203 176.585 103.339 176.166 103.609 175.796C103.885 175.427 104.26 175.135 104.734 174.921C105.208 174.708 105.742 174.601 106.336 174.601C106.924 174.601 107.445 174.695 107.898 174.882C108.357 175.065 108.724 175.325 109 175.664C109.281 176.002 109.453 176.401 109.516 176.859H108.18C108.091 176.526 107.888 176.255 107.57 176.046C107.253 175.838 106.839 175.734 106.328 175.734C105.995 175.734 105.698 175.789 105.438 175.898C105.177 176.002 104.971 176.148 104.82 176.335C104.669 176.523 104.594 176.742 104.594 176.992V177.007C104.594 177.195 104.643 177.361 104.742 177.507C104.841 177.653 104.995 177.781 105.203 177.89C105.411 178 105.68 178.096 106.008 178.179L107.305 178.492C108.096 178.684 108.685 178.96 109.07 179.32C109.461 179.679 109.656 180.161 109.656 180.765V180.781C109.656 181.281 109.508 181.723 109.211 182.109C108.914 182.489 108.51 182.786 108 183C107.495 183.213 106.922 183.32 106.281 183.32ZM111.797 183.171V174.75H113.156V183.171H111.797ZM112.484 173.125C112.229 173.125 112.008 173.033 111.82 172.851C111.638 172.664 111.547 172.442 111.547 172.187C111.547 171.927 111.638 171.705 111.82 171.523C112.008 171.341 112.229 171.25 112.484 171.25C112.745 171.25 112.966 171.341 113.148 171.523C113.331 171.705 113.422 171.927 113.422 172.187C113.422 172.442 113.331 172.664 113.148 172.851C112.966 173.033 112.745 173.125 112.484 173.125ZM118.828 183.32C118.12 183.32 117.5 183.14 116.969 182.781C116.438 182.421 116.026 181.916 115.734 181.265C115.443 180.609 115.297 179.843 115.297 178.968V178.953C115.297 178.072 115.443 177.307 115.734 176.656C116.026 176.005 116.435 175.5 116.961 175.14C117.492 174.781 118.115 174.601 118.828 174.601C119.214 174.601 119.576 174.664 119.914 174.789C120.258 174.908 120.562 175.078 120.828 175.296C121.094 175.515 121.302 175.776 121.453 176.078H121.578V171.406H122.938V183.171H121.578V181.828H121.453C121.281 182.14 121.065 182.408 120.805 182.632C120.544 182.851 120.247 183.02 119.914 183.14C119.581 183.26 119.219 183.32 118.828 183.32ZM119.141 182.117C119.651 182.117 120.091 181.989 120.461 181.734C120.831 181.479 121.115 181.117 121.312 180.648C121.51 180.174 121.609 179.614 121.609 178.968V178.953C121.609 178.302 121.51 177.742 121.312 177.273C121.115 176.804 120.831 176.442 120.461 176.187C120.091 175.932 119.651 175.804 119.141 175.804C118.63 175.804 118.19 175.932 117.82 176.187C117.456 176.437 117.174 176.796 116.977 177.265C116.784 177.734 116.688 178.296 116.688 178.953V178.968C116.688 179.619 116.784 180.182 116.977 180.656C117.174 181.125 117.456 181.486 117.82 181.742C118.19 181.992 118.63 182.117 119.141 182.117ZM128.984 183.32C128.182 183.32 127.492 183.143 126.914 182.789C126.341 182.434 125.898 181.934 125.586 181.289C125.279 180.638 125.125 179.872 125.125 178.992V178.984C125.125 178.114 125.279 177.351 125.586 176.695C125.898 176.039 126.339 175.526 126.906 175.156C127.474 174.786 128.138 174.601 128.898 174.601C129.664 174.601 130.32 174.778 130.867 175.132C131.419 175.486 131.841 175.981 132.133 176.617C132.43 177.247 132.578 177.981 132.578 178.82V179.351H125.828V178.265H131.883L131.211 179.257V178.718C131.211 178.057 131.112 177.513 130.914 177.085C130.716 176.658 130.443 176.341 130.094 176.132C129.745 175.919 129.344 175.812 128.891 175.812C128.438 175.812 128.031 175.924 127.672 176.148C127.318 176.367 127.036 176.692 126.828 177.125C126.62 177.557 126.516 178.088 126.516 178.718V179.257C126.516 179.856 126.617 180.369 126.82 180.796C127.023 181.218 127.312 181.544 127.688 181.773C128.062 181.997 128.505 182.109 129.016 182.109C129.396 182.109 129.727 182.057 130.008 181.953C130.289 181.848 130.521 181.716 130.703 181.554C130.885 181.393 131.013 181.229 131.086 181.062L131.117 180.992H132.477L132.461 181.054C132.388 181.341 132.258 181.619 132.07 181.89C131.888 182.156 131.651 182.398 131.359 182.617C131.068 182.83 130.721 183.002 130.32 183.132C129.924 183.257 129.479 183.32 128.984 183.32ZM138.875 183.32C138.484 183.32 138.122 183.26 137.789 183.14C137.456 183.02 137.159 182.851 136.898 182.632C136.638 182.408 136.422 182.14 136.25 181.828H136.125V183.171H134.766V171.406H136.125V176.078H136.25C136.406 175.776 136.615 175.515 136.875 175.296C137.141 175.078 137.443 174.908 137.781 174.789C138.125 174.664 138.49 174.601 138.875 174.601C139.589 174.601 140.208 174.781 140.734 175.14C141.266 175.5 141.677 176.005 141.969 176.656C142.26 177.307 142.406 178.072 142.406 178.953V178.968C142.406 179.843 142.26 180.609 141.969 181.265C141.677 181.916 141.266 182.421 140.734 182.781C140.208 183.14 139.589 183.32 138.875 183.32ZM138.562 182.117C139.078 182.117 139.518 181.992 139.883 181.742C140.247 181.486 140.526 181.125 140.719 180.656C140.917 180.182 141.016 179.619 141.016 178.968V178.953C141.016 178.296 140.917 177.734 140.719 177.265C140.526 176.796 140.247 176.437 139.883 176.187C139.518 175.932 139.078 175.804 138.562 175.804C138.052 175.804 137.612 175.932 137.242 176.187C136.872 176.442 136.589 176.804 136.391 177.273C136.193 177.742 136.094 178.302 136.094 178.953V178.968C136.094 179.614 136.193 180.174 136.391 180.648C136.589 181.117 136.872 181.479 137.242 181.734C137.612 181.989 138.052 182.117 138.562 182.117ZM146.828 183.32C146.297 183.32 145.818 183.218 145.391 183.015C144.969 182.812 144.633 182.523 144.383 182.148C144.138 181.773 144.016 181.33 144.016 180.82V180.804C144.016 180.304 144.135 179.877 144.375 179.523C144.615 179.164 144.964 178.882 145.422 178.679C145.88 178.476 146.435 178.356 147.086 178.32L150.18 178.132V179.218L147.25 179.406C146.609 179.442 146.141 179.575 145.844 179.804C145.552 180.033 145.406 180.356 145.406 180.773V180.789C145.406 181.216 145.568 181.549 145.891 181.789C146.214 182.023 146.62 182.14 147.109 182.14C147.573 182.14 147.984 182.049 148.344 181.867C148.703 181.679 148.984 181.427 149.188 181.109C149.396 180.791 149.5 180.432 149.5 180.031V177.406C149.5 176.885 149.341 176.489 149.023 176.218C148.711 175.942 148.24 175.804 147.609 175.804C147.104 175.804 146.69 175.895 146.367 176.078C146.044 176.255 145.828 176.507 145.719 176.835L145.711 176.859H144.352L144.359 176.812C144.432 176.369 144.615 175.984 144.906 175.656C145.203 175.322 145.586 175.065 146.055 174.882C146.523 174.695 147.057 174.601 147.656 174.601C148.344 174.601 148.924 174.713 149.398 174.937C149.878 175.161 150.24 175.484 150.484 175.906C150.734 176.322 150.859 176.822 150.859 177.406V183.171H149.5V181.929H149.375C149.198 182.226 148.982 182.479 148.727 182.687C148.477 182.895 148.193 183.054 147.875 183.164C147.557 183.268 147.208 183.32 146.828 183.32ZM153.344 183.171V174.75H154.703V176H154.828C154.99 175.557 155.263 175.213 155.648 174.968C156.034 174.723 156.51 174.601 157.078 174.601C157.208 174.601 157.336 174.609 157.461 174.625C157.591 174.635 157.69 174.645 157.758 174.656V175.976C157.617 175.95 157.479 175.932 157.344 175.921C157.214 175.906 157.073 175.898 156.922 175.898C156.49 175.898 156.107 175.984 155.773 176.156C155.44 176.328 155.177 176.567 154.984 176.875C154.797 177.182 154.703 177.541 154.703 177.953V183.171H153.344Z" fill="white"/>
<path d="M278 181.671V173.671L284 177.671L278 181.671Z" fill="white"/>
<line x1="32" y1="202.671" x2="300" y2="202.671" stroke="#383838"/>
<path d="M53.9766 234.437C52.9557 234.437 52.0729 234.197 51.3281 233.718C50.5833 233.239 50.0078 232.559 49.6016 231.679C49.2005 230.799 49 229.755 49 228.546V228.531C49 227.317 49.2005 226.27 49.6016 225.39C50.0078 224.51 50.5807 223.83 51.3203 223.351C52.0651 222.872 52.9479 222.632 53.9688 222.632C54.7604 222.632 55.4792 222.789 56.125 223.101C56.776 223.408 57.3125 223.838 57.7344 224.39C58.1562 224.937 58.4219 225.57 58.5312 226.289L58.5234 226.304H57.1094L57.1016 226.289C56.9766 225.804 56.7656 225.388 56.4688 225.039C56.1719 224.684 55.8099 224.411 55.3828 224.218C54.9609 224.026 54.4896 223.929 53.9688 223.929C53.25 223.929 52.625 224.117 52.0938 224.492C51.5677 224.867 51.1615 225.398 50.875 226.085C50.5885 226.773 50.4453 227.588 50.4453 228.531V228.546C50.4453 229.484 50.5885 230.296 50.875 230.984C51.1615 231.671 51.5677 232.203 52.0938 232.578C52.625 232.953 53.2526 233.14 53.9766 233.14C54.5026 233.14 54.9792 233.057 55.4062 232.89C55.8333 232.718 56.1927 232.476 56.4844 232.164C56.776 231.846 56.9792 231.471 57.0938 231.039L57.1094 231.023H58.5312V231.039C58.4062 231.726 58.1354 232.325 57.7188 232.835C57.3021 233.341 56.7734 233.734 56.1328 234.015C55.4974 234.296 54.7786 234.437 53.9766 234.437ZM60.7188 234.171V225.75H62.0781V227H62.2031C62.3646 226.557 62.638 226.213 63.0234 225.968C63.4089 225.723 63.8854 225.601 64.4531 225.601C64.5833 225.601 64.7109 225.609 64.8359 225.625C64.9661 225.635 65.0651 225.645 65.1328 225.656V226.976C64.9922 226.95 64.8542 226.932 64.7188 226.921C64.5885 226.906 64.4479 226.898 64.2969 226.898C63.8646 226.898 63.4818 226.984 63.1484 227.156C62.8151 227.328 62.5521 227.567 62.3594 227.875C62.1719 228.182 62.0781 228.541 62.0781 228.953V234.171H60.7188ZM70.0156 234.32C69.2135 234.32 68.5234 234.143 67.9453 233.789C67.3724 233.434 66.9297 232.934 66.6172 232.289C66.3099 231.638 66.1562 230.872 66.1562 229.992V229.984C66.1562 229.114 66.3099 228.351 66.6172 227.695C66.9297 227.039 67.3698 226.526 67.9375 226.156C68.5052 225.786 69.1693 225.601 69.9297 225.601C70.6953 225.601 71.3516 225.778 71.8984 226.132C72.4505 226.486 72.8724 226.981 73.1641 227.617C73.4609 228.247 73.6094 228.981 73.6094 229.82V230.351H66.8594V229.265H72.9141L72.2422 230.257V229.718C72.2422 229.057 72.1432 228.513 71.9453 228.085C71.7474 227.658 71.474 227.341 71.125 227.132C70.776 226.919 70.375 226.812 69.9219 226.812C69.4688 226.812 69.0625 226.924 68.7031 227.148C68.349 227.367 68.0677 227.692 67.8594 228.125C67.651 228.557 67.5469 229.088 67.5469 229.718V230.257C67.5469 230.856 67.6484 231.369 67.8516 231.796C68.0547 232.218 68.3438 232.544 68.7188 232.773C69.0938 232.997 69.5365 233.109 70.0469 233.109C70.4271 233.109 70.7578 233.057 71.0391 232.953C71.3203 232.848 71.5521 232.716 71.7344 232.554C71.9167 232.393 72.0443 232.229 72.1172 232.062L72.1484 231.992H73.5078L73.4922 232.054C73.4193 232.341 73.2891 232.619 73.1016 232.89C72.9193 233.156 72.6823 233.398 72.3906 233.617C72.099 233.83 71.7526 234.002 71.3516 234.132C70.9557 234.257 70.5104 234.32 70.0156 234.32ZM78.0312 234.32C77.5 234.32 77.0208 234.218 76.5938 234.015C76.1719 233.812 75.8359 233.523 75.5859 233.148C75.3411 232.773 75.2188 232.33 75.2188 231.82V231.804C75.2188 231.304 75.3385 230.877 75.5781 230.523C75.8177 230.164 76.1667 229.882 76.625 229.679C77.0833 229.476 77.638 229.356 78.2891 229.32L81.3828 229.132V230.218L78.4531 230.406C77.8125 230.442 77.3438 230.575 77.0469 230.804C76.7552 231.033 76.6094 231.356 76.6094 231.773V231.789C76.6094 232.216 76.7708 232.549 77.0938 232.789C77.4167 233.023 77.8229 233.14 78.3125 233.14C78.776 233.14 79.1875 233.049 79.5469 232.867C79.9062 232.679 80.1875 232.427 80.3906 232.109C80.599 231.791 80.7031 231.432 80.7031 231.031V228.406C80.7031 227.885 80.5443 227.489 80.2266 227.218C79.9141 226.942 79.4427 226.804 78.8125 226.804C78.3073 226.804 77.8932 226.895 77.5703 227.078C77.2474 227.255 77.0312 227.507 76.9219 227.835L76.9141 227.859H75.5547L75.5625 227.812C75.6354 227.369 75.8177 226.984 76.1094 226.656C76.4062 226.322 76.7891 226.065 77.2578 225.882C77.7266 225.695 78.2604 225.601 78.8594 225.601C79.5469 225.601 80.1276 225.713 80.6016 225.937C81.0807 226.161 81.4427 226.484 81.6875 226.906C81.9375 227.322 82.0625 227.822 82.0625 228.406V234.171H80.7031V232.929H80.5781C80.401 233.226 80.1849 233.479 79.9297 233.687C79.6797 233.895 79.3958 234.054 79.0781 234.164C78.7604 234.268 78.4115 234.32 78.0312 234.32ZM87.5391 234.234C86.6745 234.234 86.0469 234.059 85.6562 233.71C85.2708 233.361 85.0781 232.786 85.0781 231.984V226.875H83.75V225.75H85.0781V223.57H86.4844V225.75H88.3281V226.875H86.4844V231.64C86.4844 232.135 86.5781 232.492 86.7656 232.71C86.9531 232.924 87.2656 233.031 87.7031 233.031C87.8229 233.031 87.9245 233.028 88.0078 233.023C88.0964 233.018 88.2031 233.01 88.3281 233V234.156C88.1979 234.177 88.0677 234.195 87.9375 234.21C87.8073 234.226 87.6745 234.234 87.5391 234.234ZM93.6875 234.32C92.8854 234.32 92.1953 234.143 91.6172 233.789C91.0443 233.434 90.6016 232.934 90.2891 232.289C89.9818 231.638 89.8281 230.872 89.8281 229.992V229.984C89.8281 229.114 89.9818 228.351 90.2891 227.695C90.6016 227.039 91.0417 226.526 91.6094 226.156C92.1771 225.786 92.8411 225.601 93.6016 225.601C94.3672 225.601 95.0234 225.778 95.5703 226.132C96.1224 226.486 96.5443 226.981 96.8359 227.617C97.1328 228.247 97.2812 228.981 97.2812 229.82V230.351H90.5312V229.265H96.5859L95.9141 230.257V229.718C95.9141 229.057 95.8151 228.513 95.6172 228.085C95.4193 227.658 95.1458 227.341 94.7969 227.132C94.4479 226.919 94.0469 226.812 93.5938 226.812C93.1406 226.812 92.7344 226.924 92.375 227.148C92.0208 227.367 91.7396 227.692 91.5312 228.125C91.3229 228.557 91.2188 229.088 91.2188 229.718V230.257C91.2188 230.856 91.3203 231.369 91.5234 231.796C91.7266 232.218 92.0156 232.544 92.3906 232.773C92.7656 232.997 93.2083 233.109 93.7188 233.109C94.099 233.109 94.4297 233.057 94.7109 232.953C94.9922 232.848 95.224 232.716 95.4062 232.554C95.5885 232.393 95.7161 232.229 95.7891 232.062L95.8203 231.992H97.1797L97.1641 232.054C97.0911 232.341 96.9609 232.619 96.7734 232.89C96.5911 233.156 96.3542 233.398 96.0625 233.617C95.7708 233.83 95.4245 234.002 95.0234 234.132C94.6276 234.257 94.1823 234.32 93.6875 234.32ZM108.078 234.32C107.688 234.32 107.326 234.26 106.992 234.14C106.659 234.02 106.362 233.851 106.102 233.632C105.841 233.408 105.625 233.14 105.453 232.828H105.328V234.171H103.969V222.406H105.328V227.078H105.453C105.609 226.776 105.818 226.515 106.078 226.296C106.344 226.078 106.646 225.908 106.984 225.789C107.328 225.664 107.693 225.601 108.078 225.601C108.792 225.601 109.411 225.781 109.938 226.14C110.469 226.5 110.88 227.005 111.172 227.656C111.464 228.307 111.609 229.072 111.609 229.953V229.968C111.609 230.843 111.464 231.609 111.172 232.265C110.88 232.916 110.469 233.421 109.938 233.781C109.411 234.14 108.792 234.32 108.078 234.32ZM107.766 233.117C108.281 233.117 108.721 232.992 109.086 232.742C109.451 232.486 109.729 232.125 109.922 231.656C110.12 231.182 110.219 230.619 110.219 229.968V229.953C110.219 229.296 110.12 228.734 109.922 228.265C109.729 227.796 109.451 227.437 109.086 227.187C108.721 226.932 108.281 226.804 107.766 226.804C107.255 226.804 106.815 226.932 106.445 227.187C106.076 227.442 105.792 227.804 105.594 228.273C105.396 228.742 105.297 229.302 105.297 229.953V229.968C105.297 230.614 105.396 231.174 105.594 231.648C105.792 232.117 106.076 232.479 106.445 232.734C106.815 232.989 107.255 233.117 107.766 233.117ZM113.719 234.171V225.75H115.078V227H115.203C115.365 226.557 115.638 226.213 116.023 225.968C116.409 225.723 116.885 225.601 117.453 225.601C117.583 225.601 117.711 225.609 117.836 225.625C117.966 225.635 118.065 225.645 118.133 225.656V226.976C117.992 226.95 117.854 226.932 117.719 226.921C117.589 226.906 117.448 226.898 117.297 226.898C116.865 226.898 116.482 226.984 116.148 227.156C115.815 227.328 115.552 227.567 115.359 227.875C115.172 228.182 115.078 228.541 115.078 228.953V234.171H113.719ZM122.125 234.32C121.594 234.32 121.115 234.218 120.688 234.015C120.266 233.812 119.93 233.523 119.68 233.148C119.435 232.773 119.312 232.33 119.312 231.82V231.804C119.312 231.304 119.432 230.877 119.672 230.523C119.911 230.164 120.26 229.882 120.719 229.679C121.177 229.476 121.732 229.356 122.383 229.32L125.477 229.132V230.218L122.547 230.406C121.906 230.442 121.438 230.575 121.141 230.804C120.849 231.033 120.703 231.356 120.703 231.773V231.789C120.703 232.216 120.865 232.549 121.188 232.789C121.51 233.023 121.917 233.14 122.406 233.14C122.87 233.14 123.281 233.049 123.641 232.867C124 232.679 124.281 232.427 124.484 232.109C124.693 231.791 124.797 231.432 124.797 231.031V228.406C124.797 227.885 124.638 227.489 124.32 227.218C124.008 226.942 123.536 226.804 122.906 226.804C122.401 226.804 121.987 226.895 121.664 227.078C121.341 227.255 121.125 227.507 121.016 227.835L121.008 227.859H119.648L119.656 227.812C119.729 227.369 119.911 226.984 120.203 226.656C120.5 226.322 120.883 226.065 121.352 225.882C121.82 225.695 122.354 225.601 122.953 225.601C123.641 225.601 124.221 225.713 124.695 225.937C125.174 226.161 125.536 226.484 125.781 226.906C126.031 227.322 126.156 227.822 126.156 228.406V234.171H124.797V232.929H124.672C124.495 233.226 124.279 233.479 124.023 233.687C123.773 233.895 123.49 234.054 123.172 234.164C122.854 234.268 122.505 234.32 122.125 234.32ZM128.641 234.171V225.75H130V227.015H130.125C130.339 226.567 130.646 226.221 131.047 225.976C131.448 225.726 131.958 225.601 132.578 225.601C133.526 225.601 134.253 225.872 134.758 226.414C135.268 226.95 135.523 227.718 135.523 228.718V234.171H134.164V229.046C134.164 228.286 134.003 227.723 133.68 227.359C133.362 226.989 132.867 226.804 132.195 226.804C131.747 226.804 131.359 226.901 131.031 227.093C130.703 227.286 130.448 227.559 130.266 227.914C130.089 228.268 130 228.692 130 229.187V234.171H128.641ZM141.43 234.32C140.643 234.32 139.961 234.14 139.383 233.781C138.805 233.421 138.357 232.914 138.039 232.257C137.721 231.601 137.562 230.828 137.562 229.937V229.921C137.562 229.046 137.719 228.286 138.031 227.64C138.349 226.994 138.797 226.494 139.375 226.14C139.953 225.781 140.635 225.601 141.422 225.601C142.104 225.601 142.693 225.721 143.188 225.96C143.682 226.2 144.078 226.523 144.375 226.929C144.672 227.33 144.862 227.781 144.945 228.281L144.953 228.328H143.602L143.594 228.304C143.49 227.888 143.253 227.533 142.883 227.242C142.513 226.95 142.026 226.804 141.422 226.804C140.917 226.804 140.479 226.932 140.109 227.187C139.74 227.442 139.453 227.804 139.25 228.273C139.052 228.736 138.953 229.286 138.953 229.921V229.937C138.953 230.583 139.055 231.145 139.258 231.625C139.461 232.098 139.747 232.466 140.117 232.726C140.487 232.986 140.922 233.117 141.422 233.117C141.99 233.117 142.453 232.994 142.812 232.75C143.172 232.505 143.43 232.148 143.586 231.679L143.602 231.632L144.945 231.625L144.93 231.71C144.815 232.216 144.612 232.666 144.32 233.062C144.029 233.453 143.643 233.76 143.164 233.984C142.685 234.208 142.107 234.32 141.43 234.32ZM147.016 234.171V222.406H148.375V227.015H148.5C148.714 226.567 149.021 226.221 149.422 225.976C149.823 225.726 150.333 225.601 150.953 225.601C151.583 225.601 152.117 225.723 152.555 225.968C152.992 226.208 153.326 226.559 153.555 227.023C153.784 227.486 153.898 228.052 153.898 228.718V234.171H152.539V229.046C152.539 228.286 152.378 227.723 152.055 227.359C151.737 226.989 151.242 226.804 150.57 226.804C150.122 226.804 149.734 226.901 149.406 227.093C149.078 227.286 148.823 227.559 148.641 227.914C148.464 228.268 148.375 228.692 148.375 229.187V234.171H147.016ZM157.469 234.25C157.193 234.25 156.953 234.151 156.75 233.953C156.552 233.75 156.453 233.51 156.453 233.234C156.453 232.953 156.552 232.713 156.75 232.515C156.953 232.317 157.193 232.218 157.469 232.218C157.75 232.218 157.99 232.317 158.188 232.515C158.385 232.713 158.484 232.953 158.484 233.234C158.484 233.51 158.385 233.75 158.188 233.953C157.99 234.151 157.75 234.25 157.469 234.25ZM162.219 234.25C161.943 234.25 161.703 234.151 161.5 233.953C161.302 233.75 161.203 233.51 161.203 233.234C161.203 232.953 161.302 232.713 161.5 232.515C161.703 232.317 161.943 232.218 162.219 232.218C162.5 232.218 162.74 232.317 162.938 232.515C163.135 232.713 163.234 232.953 163.234 233.234C163.234 233.51 163.135 233.75 162.938 233.953C162.74 234.151 162.5 234.25 162.219 234.25ZM166.969 234.25C166.693 234.25 166.453 234.151 166.25 233.953C166.052 233.75 165.953 233.51 165.953 233.234C165.953 232.953 166.052 232.713 166.25 232.515C166.453 232.317 166.693 232.218 166.969 232.218C167.25 232.218 167.49 232.317 167.688 232.515C167.885 232.713 167.984 232.953 167.984 233.234C167.984 233.51 167.885 233.75 167.688 233.953C167.49 234.151 167.25 234.25 166.969 234.25Z" fill="white"/>
<line x1="32" y1="253.671" x2="300" y2="253.671" stroke="#383838"/>
<path d="M49.4375 285.171V273.898H56.2812V275.164H50.8438V279.039H55.8359V280.289H50.8438V285.171H49.4375ZM58.4531 285.171V276.75H59.8125V285.171H58.4531ZM59.1406 275.125C58.8854 275.125 58.6641 275.033 58.4766 274.851C58.2943 274.664 58.2031 274.442 58.2031 274.187C58.2031 273.927 58.2943 273.705 58.4766 273.523C58.6641 273.341 58.8854 273.25 59.1406 273.25C59.401 273.25 59.6224 273.341 59.8047 273.523C59.987 273.705 60.0781 273.927 60.0781 274.187C60.0781 274.442 59.987 274.664 59.8047 274.851C59.6224 275.033 59.401 275.125 59.1406 275.125ZM62.4531 285.171V273.406H63.8125V285.171H62.4531ZM69.8594 285.32C69.0573 285.32 68.3672 285.143 67.7891 284.789C67.2161 284.434 66.7734 283.934 66.4609 283.289C66.1536 282.638 66 281.872 66 280.992V280.984C66 280.114 66.1536 279.351 66.4609 278.695C66.7734 278.039 67.2135 277.526 67.7812 277.156C68.349 276.786 69.013 276.601 69.7734 276.601C70.5391 276.601 71.1953 276.778 71.7422 277.132C72.2943 277.486 72.7161 277.981 73.0078 278.617C73.3047 279.247 73.4531 279.981 73.4531 280.82V281.351H66.7031V280.265H72.7578L72.0859 281.257V280.718C72.0859 280.057 71.987 279.513 71.7891 279.085C71.5911 278.658 71.3177 278.341 70.9688 278.132C70.6198 277.919 70.2188 277.812 69.7656 277.812C69.3125 277.812 68.9062 277.924 68.5469 278.148C68.1927 278.367 67.9115 278.692 67.7031 279.125C67.4948 279.557 67.3906 280.088 67.3906 280.718V281.257C67.3906 281.856 67.4922 282.369 67.6953 282.796C67.8984 283.218 68.1875 283.544 68.5625 283.773C68.9375 283.997 69.3802 284.109 69.8906 284.109C70.2708 284.109 70.6016 284.057 70.8828 283.953C71.1641 283.848 71.3958 283.716 71.5781 283.554C71.7604 283.393 71.888 283.229 71.9609 283.062L71.9922 282.992H73.3516L73.3359 283.054C73.263 283.341 73.1328 283.619 72.9453 283.89C72.763 284.156 72.526 284.398 72.2344 284.617C71.9427 284.83 71.5964 285.002 71.1953 285.132C70.7995 285.257 70.3542 285.32 69.8594 285.32ZM83.5078 285.32C82.7214 285.32 82.0391 285.14 81.4609 284.781C80.8828 284.421 80.4349 283.914 80.1172 283.257C79.7995 282.601 79.6406 281.828 79.6406 280.937V280.921C79.6406 280.046 79.7969 279.286 80.1094 278.64C80.4271 277.994 80.875 277.494 81.4531 277.14C82.0312 276.781 82.7135 276.601 83.5 276.601C84.1823 276.601 84.7708 276.721 85.2656 276.96C85.7604 277.2 86.1562 277.523 86.4531 277.929C86.75 278.33 86.9401 278.781 87.0234 279.281L87.0312 279.328H85.6797L85.6719 279.304C85.5677 278.888 85.3307 278.533 84.9609 278.242C84.5911 277.95 84.1042 277.804 83.5 277.804C82.9948 277.804 82.5573 277.932 82.1875 278.187C81.8177 278.442 81.5312 278.804 81.3281 279.273C81.1302 279.736 81.0312 280.286 81.0312 280.921V280.937C81.0312 281.583 81.1328 282.145 81.3359 282.625C81.5391 283.098 81.8255 283.466 82.1953 283.726C82.5651 283.986 83 284.117 83.5 284.117C84.0677 284.117 84.5312 283.994 84.8906 283.75C85.25 283.505 85.5078 283.148 85.6641 282.679L85.6797 282.632L87.0234 282.625L87.0078 282.71C86.8932 283.216 86.6901 283.666 86.3984 284.062C86.1068 284.453 85.7214 284.76 85.2422 284.984C84.763 285.208 84.1849 285.32 83.5078 285.32ZM92.4766 285.32C91.6797 285.32 90.9896 285.145 90.4062 284.796C89.8281 284.442 89.3802 283.94 89.0625 283.289C88.75 282.638 88.5938 281.864 88.5938 280.968V280.953C88.5938 280.052 88.75 279.276 89.0625 278.625C89.3802 277.973 89.8281 277.473 90.4062 277.125C90.9896 276.776 91.6797 276.601 92.4766 276.601C93.2786 276.601 93.9688 276.776 94.5469 277.125C95.125 277.473 95.5703 277.973 95.8828 278.625C96.2005 279.276 96.3594 280.052 96.3594 280.953V280.968C96.3594 281.864 96.2005 282.638 95.8828 283.289C95.5703 283.94 95.125 284.442 94.5469 284.796C93.9688 285.145 93.2786 285.32 92.4766 285.32ZM92.4766 284.117C93.0078 284.117 93.4583 283.992 93.8281 283.742C94.1979 283.492 94.4792 283.132 94.6719 282.664C94.8698 282.195 94.9688 281.63 94.9688 280.968V280.953C94.9688 280.286 94.8698 279.718 94.6719 279.25C94.4792 278.781 94.1979 278.424 93.8281 278.179C93.4583 277.929 93.0078 277.804 92.4766 277.804C91.9453 277.804 91.4948 277.929 91.125 278.179C90.7552 278.424 90.4714 278.781 90.2734 279.25C90.0807 279.718 89.9844 280.286 89.9844 280.953V280.968C89.9844 281.63 90.0807 282.195 90.2734 282.664C90.4714 283.132 90.7552 283.492 91.125 283.742C91.4948 283.992 91.9453 284.117 92.4766 284.117ZM98.5469 285.171V273.406H99.9062V285.171H98.5469ZM105.977 285.32C105.18 285.32 104.49 285.145 103.906 284.796C103.328 284.442 102.88 283.94 102.562 283.289C102.25 282.638 102.094 281.864 102.094 280.968V280.953C102.094 280.052 102.25 279.276 102.562 278.625C102.88 277.973 103.328 277.473 103.906 277.125C104.49 276.776 105.18 276.601 105.977 276.601C106.779 276.601 107.469 276.776 108.047 277.125C108.625 277.473 109.07 277.973 109.383 278.625C109.701 279.276 109.859 280.052 109.859 280.953V280.968C109.859 281.864 109.701 282.638 109.383 283.289C109.07 283.94 108.625 284.442 108.047 284.796C107.469 285.145 106.779 285.32 105.977 285.32ZM105.977 284.117C106.508 284.117 106.958 283.992 107.328 283.742C107.698 283.492 107.979 283.132 108.172 282.664C108.37 282.195 108.469 281.63 108.469 280.968V280.953C108.469 280.286 108.37 279.718 108.172 279.25C107.979 278.781 107.698 278.424 107.328 278.179C106.958 277.929 106.508 277.804 105.977 277.804C105.445 277.804 104.995 277.929 104.625 278.179C104.255 278.424 103.971 278.781 103.773 279.25C103.581 279.718 103.484 280.286 103.484 280.953V280.968C103.484 281.63 103.581 282.195 103.773 282.664C103.971 283.132 104.255 283.492 104.625 283.742C104.995 283.992 105.445 284.117 105.977 284.117ZM111.969 285.171V276.75H113.328V278H113.453C113.615 277.557 113.888 277.213 114.273 276.968C114.659 276.723 115.135 276.601 115.703 276.601C115.833 276.601 115.961 276.609 116.086 276.625C116.216 276.635 116.315 276.645 116.383 276.656V277.976C116.242 277.95 116.104 277.932 115.969 277.921C115.839 277.906 115.698 277.898 115.547 277.898C115.115 277.898 114.732 277.984 114.398 278.156C114.065 278.328 113.802 278.567 113.609 278.875C113.422 279.182 113.328 279.541 113.328 279.953V285.171H111.969ZM122.562 287.984V276.75H123.922V278.093H124.047C124.219 277.781 124.435 277.515 124.695 277.296C124.956 277.072 125.253 276.901 125.586 276.781C125.919 276.661 126.281 276.601 126.672 276.601C127.385 276.601 128.005 276.783 128.531 277.148C129.062 277.507 129.474 278.013 129.766 278.664C130.057 279.315 130.203 280.078 130.203 280.953V280.968C130.203 281.848 130.057 282.614 129.766 283.265C129.474 283.916 129.062 284.421 128.531 284.781C128.005 285.14 127.385 285.32 126.672 285.32C126.286 285.32 125.922 285.26 125.578 285.14C125.24 285.015 124.938 284.843 124.672 284.625C124.411 284.406 124.203 284.145 124.047 283.843H123.922V287.984H122.562ZM126.359 284.117C126.875 284.117 127.315 283.992 127.68 283.742C128.044 283.486 128.323 283.125 128.516 282.656C128.714 282.182 128.812 281.619 128.812 280.968V280.953C128.812 280.296 128.714 279.734 128.516 279.265C128.323 278.796 128.044 278.437 127.68 278.187C127.315 277.932 126.875 277.804 126.359 277.804C125.849 277.804 125.409 277.932 125.039 278.187C124.669 278.442 124.385 278.804 124.188 279.273C123.99 279.742 123.891 280.302 123.891 280.953V280.968C123.891 281.614 123.99 282.174 124.188 282.648C124.385 283.117 124.669 283.479 125.039 283.734C125.409 283.989 125.849 284.117 126.359 284.117ZM132.328 285.171V276.75H133.688V278H133.812C133.974 277.557 134.247 277.213 134.633 276.968C135.018 276.723 135.495 276.601 136.062 276.601C136.193 276.601 136.32 276.609 136.445 276.625C136.576 276.635 136.674 276.645 136.742 276.656V277.976C136.602 277.95 136.464 277.932 136.328 277.921C136.198 277.906 136.057 277.898 135.906 277.898C135.474 277.898 135.091 277.984 134.758 278.156C134.424 278.328 134.161 278.567 133.969 278.875C133.781 279.182 133.688 279.541 133.688 279.953V285.171H132.328ZM141.648 285.32C140.852 285.32 140.161 285.145 139.578 284.796C139 284.442 138.552 283.94 138.234 283.289C137.922 282.638 137.766 281.864 137.766 280.968V280.953C137.766 280.052 137.922 279.276 138.234 278.625C138.552 277.973 139 277.473 139.578 277.125C140.161 276.776 140.852 276.601 141.648 276.601C142.451 276.601 143.141 276.776 143.719 277.125C144.297 277.473 144.742 277.973 145.055 278.625C145.372 279.276 145.531 280.052 145.531 280.953V280.968C145.531 281.864 145.372 282.638 145.055 283.289C144.742 283.94 144.297 284.442 143.719 284.796C143.141 285.145 142.451 285.32 141.648 285.32ZM141.648 284.117C142.18 284.117 142.63 283.992 143 283.742C143.37 283.492 143.651 283.132 143.844 282.664C144.042 282.195 144.141 281.63 144.141 280.968V280.953C144.141 280.286 144.042 279.718 143.844 279.25C143.651 278.781 143.37 278.424 143 278.179C142.63 277.929 142.18 277.804 141.648 277.804C141.117 277.804 140.667 277.929 140.297 278.179C139.927 278.424 139.643 278.781 139.445 279.25C139.253 279.718 139.156 280.286 139.156 280.953V280.968C139.156 281.63 139.253 282.195 139.445 282.664C139.643 283.132 139.927 283.492 140.297 283.742C140.667 283.992 141.117 284.117 141.648 284.117ZM148.203 285.171V277.875H146.805V276.75H148.203V275.812C148.203 275.25 148.294 274.786 148.477 274.421C148.664 274.052 148.94 273.778 149.305 273.601C149.669 273.419 150.117 273.328 150.648 273.328C150.815 273.328 150.971 273.335 151.117 273.351C151.268 273.361 151.414 273.38 151.555 273.406V274.492C151.471 274.476 151.375 274.466 151.266 274.46C151.156 274.455 151.042 274.453 150.922 274.453C150.438 274.453 150.089 274.57 149.875 274.804C149.667 275.039 149.562 275.388 149.562 275.851V276.75H151.477V277.875H149.562V285.171H148.203ZM153.469 285.171V276.75H154.828V285.171H153.469ZM154.156 275.125C153.901 275.125 153.68 275.033 153.492 274.851C153.31 274.664 153.219 274.442 153.219 274.187C153.219 273.927 153.31 273.705 153.492 273.523C153.68 273.341 153.901 273.25 154.156 273.25C154.417 273.25 154.638 273.341 154.82 273.523C155.003 273.705 155.094 273.927 155.094 274.187C155.094 274.442 155.003 274.664 154.82 274.851C154.638 275.033 154.417 275.125 154.156 275.125ZM157.469 285.171V273.406H158.828V285.171H157.469ZM164.875 285.32C164.073 285.32 163.383 285.143 162.805 284.789C162.232 284.434 161.789 283.934 161.477 283.289C161.169 282.638 161.016 281.872 161.016 280.992V280.984C161.016 280.114 161.169 279.351 161.477 278.695C161.789 278.039 162.229 277.526 162.797 277.156C163.365 276.786 164.029 276.601 164.789 276.601C165.555 276.601 166.211 276.778 166.758 277.132C167.31 277.486 167.732 277.981 168.023 278.617C168.32 279.247 168.469 279.981 168.469 280.82V281.351H161.719V280.265H167.773L167.102 281.257V280.718C167.102 280.057 167.003 279.513 166.805 279.085C166.607 278.658 166.333 278.341 165.984 278.132C165.635 277.919 165.234 277.812 164.781 277.812C164.328 277.812 163.922 277.924 163.562 278.148C163.208 278.367 162.927 278.692 162.719 279.125C162.51 279.557 162.406 280.088 162.406 280.718V281.257C162.406 281.856 162.508 282.369 162.711 282.796C162.914 283.218 163.203 283.544 163.578 283.773C163.953 283.997 164.396 284.109 164.906 284.109C165.286 284.109 165.617 284.057 165.898 283.953C166.18 283.848 166.411 283.716 166.594 283.554C166.776 283.393 166.904 283.229 166.977 283.062L167.008 282.992H168.367L168.352 283.054C168.279 283.341 168.148 283.619 167.961 283.89C167.779 284.156 167.542 284.398 167.25 284.617C166.958 284.83 166.612 285.002 166.211 285.132C165.815 285.257 165.37 285.32 164.875 285.32Z" fill="white"/>
<path d="M278 283.671V275.671L284 279.671L278 283.671Z" fill="white"/>
<path d="M159 28.1714L164.586 22.5856C165.367 21.8046 166.633 21.8046 167.414 22.5856L173 28.1714L159 28.1714Z" fill="#1E1E1E"/>
</g>
<defs>
<filter id="filter0_d_5415_1859" x="0" y="0" width="332" height="347.171" filterUnits="userSpaceOnUse" color-interpolation-filters="sRGB">
<feFlood flood-opacity="0" result="BackgroundImageFix"/>
<feColorMatrix in="SourceAlpha" type="matrix" values="0 0 0 0 0 0 0 0 0 0 0 0 0 0 0 0 0 0 127 0" result="hardAlpha"/>
<feMorphology radius="16" operator="erode" in="SourceAlpha" result="effect1_dropShadow_5415_1859"/>
<feOffset dy="10"/>
<feGaussianBlur stdDeviation="24"/>
<feColorMatrix type="matrix" values="0 0 0 0 0 0 0 0 0 0 0 0 0 0 0 0 0 0 0.12 0"/>
<feBlend mode="normal" in2="BackgroundImageFix" result="effect1_dropShadow_5415_1859"/>
<feBlend mode="normal" in="SourceGraphic" in2="effect1_dropShadow_5415_1859" result="shape"/>
</filter>
</defs>
</svg>
