<svg width="448" height="266" viewBox="0 0 448 266" fill="none" xmlns="http://www.w3.org/2000/svg">
<rect width="448" height="266" fill="#2A2C35"/>
<g filter="url(#filter0_d_14127_1904)">
<rect x="76" y="94" width="78" height="78" fill="#1C1D23"/>
</g>
<g filter="url(#filter1_d_14127_1904)">
<rect x="185.2" y="94" width="78" height="78" fill="#1C1D23"/>
</g>
<g filter="url(#filter2_d_14127_1904)">
<rect x="294.4" y="94" width="78" height="78" fill="#1C1D23"/>
</g>
<rect x="76" y="94" width="296.4" height="78" stroke="#F42500" stroke-width="1.3" stroke-dasharray="1.3 1.3"/>
<path d="M76.0004 84.8999H372.4" stroke="#F42500" stroke-width="1.3"/>
<path d="M76.0002 81V88.8" stroke="#F42500" stroke-width="1.3"/>
<path d="M372.4 81V88.8" stroke="#F42500" stroke-width="1.3"/>
<rect x="206.8" y="49.6001" width="34.8" height="26.2" rx="4.55" fill="#F42500"/>
<path d="M211.77 68.2002V67.0627L215.289 63.4166C215.665 63.0205 215.975 62.6735 216.218 62.3756C216.466 62.0743 216.65 61.7882 216.772 61.5174C216.894 61.2465 216.955 60.9588 216.955 60.6541C216.955 60.3088 216.873 60.0109 216.711 59.7604C216.548 59.5064 216.327 59.3118 216.046 59.1764C215.765 59.0376 215.448 58.9682 215.096 58.9682C214.724 58.9682 214.399 59.0443 214.121 59.1967C213.844 59.349 213.63 59.564 213.481 59.8416C213.332 60.1192 213.258 60.4442 213.258 60.8166H211.76C211.76 60.1835 211.905 59.63 212.197 59.1561C212.488 58.6821 212.887 58.3148 213.395 58.0541C213.903 57.79 214.48 57.658 215.127 57.658C215.78 57.658 216.356 57.7883 216.853 58.049C217.354 58.3063 217.745 58.6584 218.026 59.1053C218.307 59.5488 218.448 60.0498 218.448 60.6084C218.448 60.9943 218.375 61.3718 218.229 61.7408C218.087 62.1098 217.838 62.5212 217.483 62.9748C217.127 63.4251 216.633 63.9718 216 64.615L213.933 66.7783V66.8545H218.615V68.2002H211.77ZM220.683 68.2002V67.0627L224.202 63.4166C224.578 63.0205 224.888 62.6735 225.131 62.3756C225.378 62.0743 225.563 61.7882 225.685 61.5174C225.807 61.2465 225.868 60.9588 225.868 60.6541C225.868 60.3088 225.786 60.0109 225.624 59.7604C225.461 59.5064 225.24 59.3118 224.959 59.1764C224.678 59.0376 224.361 58.9682 224.009 58.9682C223.637 58.9682 223.312 59.0443 223.034 59.1967C222.756 59.349 222.543 59.564 222.394 59.8416C222.245 60.1192 222.171 60.4442 222.171 60.8166H220.673C220.673 60.1835 220.818 59.63 221.109 59.1561C221.401 58.6821 221.8 58.3148 222.308 58.0541C222.816 57.79 223.393 57.658 224.04 57.658C224.693 57.658 225.268 57.7883 225.766 58.049C226.267 58.3063 226.658 58.6584 226.939 59.1053C227.22 59.5488 227.361 60.0498 227.361 60.6084C227.361 60.9943 227.288 61.3718 227.142 61.7408C227 62.1098 226.751 62.5212 226.396 62.9748C226.04 63.4251 225.546 63.9718 224.913 64.615L222.846 66.7783V66.8545H227.528V68.2002H220.683ZM233.11 68.3424C232.382 68.3424 231.739 68.2171 231.18 67.9666C230.625 67.7161 230.19 67.3708 229.875 66.9307C229.56 66.4906 229.405 65.9895 229.408 65.4275C229.405 64.9874 229.494 64.5829 229.677 64.2139C229.863 63.8415 230.115 63.5317 230.434 63.2846C230.752 63.034 231.107 62.8749 231.5 62.8072V62.7463C230.982 62.621 230.567 62.3434 230.256 61.9135C229.945 61.4835 229.79 60.9893 229.794 60.4307C229.79 59.8992 229.931 59.4252 230.215 59.0088C230.503 58.589 230.898 58.2589 231.399 58.0186C231.9 57.7782 232.47 57.658 233.11 57.658C233.743 57.658 234.308 57.7799 234.806 58.0236C235.307 58.264 235.701 58.5941 235.989 59.0139C236.277 59.4303 236.423 59.9025 236.426 60.4307C236.423 60.9893 236.263 61.4835 235.949 61.9135C235.634 62.3434 235.224 62.621 234.72 62.7463V62.8072C235.109 62.8749 235.459 63.034 235.771 63.2846C236.086 63.5317 236.336 63.8415 236.522 64.2139C236.712 64.5829 236.808 64.9874 236.812 65.4275C236.808 65.9895 236.649 66.4906 236.334 66.9307C236.02 67.3708 235.583 67.7161 235.024 67.9666C234.469 68.2171 233.831 68.3424 233.11 68.3424ZM233.11 67.0576C233.54 67.0576 233.912 66.9865 234.227 66.8443C234.542 66.6988 234.786 66.4973 234.958 66.24C235.131 65.9794 235.219 65.6747 235.222 65.326C235.219 64.9637 235.124 64.6438 234.938 64.3662C234.755 64.0886 234.506 63.8702 234.192 63.7111C233.877 63.552 233.516 63.4725 233.11 63.4725C232.7 63.4725 232.336 63.552 232.018 63.7111C231.7 63.8702 231.449 64.0886 231.267 64.3662C231.084 64.6438 230.994 64.9637 230.997 65.326C230.994 65.6747 231.077 65.9794 231.246 66.24C231.419 66.4973 231.664 66.6988 231.983 66.8443C232.301 66.9865 232.677 67.0576 233.11 67.0576ZM233.11 62.2182C233.455 62.2182 233.762 62.1488 234.029 62.01C234.296 61.8712 234.506 61.6782 234.659 61.4311C234.814 61.1839 234.894 60.8945 234.897 60.5627C234.894 60.2377 234.816 59.9533 234.664 59.7096C234.515 59.4658 234.307 59.2779 234.039 59.1459C233.772 59.0105 233.462 58.9428 233.11 58.9428C232.751 58.9428 232.436 59.0105 232.165 59.1459C231.898 59.2779 231.69 59.4658 231.541 59.7096C231.392 59.9533 231.319 60.2377 231.322 60.5627C231.319 60.8945 231.393 61.1839 231.546 61.4311C231.698 61.6782 231.908 61.8712 232.176 62.01C232.446 62.1488 232.758 62.2182 233.11 62.2182Z" fill="white"/>
<rect width="31.2" height="78" transform="translate(154 94)" fill="#F316B0" fill-opacity="0.1"/>
<path d="M154 94V172" stroke="#F316B0" stroke-width="1.3" stroke-dasharray="1.3 1.3"/>
<path d="M185.2 94V172" stroke="#F316B0" stroke-width="1.3" stroke-dasharray="1.3 1.3"/>
<rect width="31.2" height="78" transform="translate(263.2 94)" fill="#F316B0" fill-opacity="0.1"/>
<path d="M263.2 94V172" stroke="#F316B0" stroke-width="1.3" stroke-dasharray="1.3 1.3"/>
<path d="M294.4 94V172" stroke="#F316B0" stroke-width="1.3" stroke-dasharray="1.3 1.3"/>
<path d="M154 181.1H185.2" stroke="#F316B0" stroke-width="1.3"/>
<path d="M154 177.2V185" stroke="#F316B0" stroke-width="1.3"/>
<path d="M185.2 177.2V185" stroke="#F316B0" stroke-width="1.3"/>
<rect x="156.2" y="190.2" width="26.8" height="26.2" rx="4.55" fill="#F316B0"/>
<path d="M161.578 208.8V207.663L165.097 204.017C165.473 203.621 165.783 203.274 166.026 202.976C166.273 202.674 166.458 202.388 166.58 202.117C166.702 201.847 166.763 201.559 166.763 201.254C166.763 200.909 166.681 200.611 166.519 200.36C166.356 200.107 166.135 199.912 165.854 199.776C165.573 199.638 165.256 199.568 164.904 199.568C164.532 199.568 164.207 199.644 163.929 199.797C163.651 199.949 163.438 200.164 163.289 200.442C163.14 200.719 163.066 201.044 163.066 201.417H161.568C161.568 200.784 161.713 200.23 162.004 199.756C162.296 199.282 162.695 198.915 163.203 198.654C163.711 198.39 164.288 198.258 164.935 198.258C165.588 198.258 166.163 198.388 166.661 198.649C167.162 198.906 167.553 199.258 167.834 199.705C168.115 200.149 168.256 200.65 168.256 201.208C168.256 201.594 168.183 201.972 168.037 202.341C167.895 202.71 167.646 203.121 167.291 203.575C166.935 204.025 166.441 204.572 165.808 205.215L163.741 207.378V207.455H168.423V208.8H161.578ZM170.049 206.769V205.5L174.543 198.4H175.544V200.269H174.909L171.694 205.357V205.439H177.854V206.769H170.049ZM174.98 208.8V206.383L174.99 205.804V198.4H176.478V208.8H174.98Z" fill="white"/>
<path d="M263.2 181.1H294.4" stroke="#F316B0" stroke-width="1.3"/>
<path d="M263.2 177.2V185" stroke="#F316B0" stroke-width="1.3"/>
<path d="M294.4 177.2V185" stroke="#F316B0" stroke-width="1.3"/>
<rect x="265.4" y="190.2" width="26.8" height="26.2" rx="4.55" fill="#F316B0"/>
<path d="M270.778 208.8V207.663L274.297 204.017C274.672 203.621 274.982 203.274 275.226 202.976C275.473 202.674 275.658 202.388 275.779 202.117C275.901 201.847 275.962 201.559 275.962 201.254C275.962 200.909 275.881 200.611 275.719 200.36C275.556 200.107 275.334 199.912 275.053 199.776C274.772 199.638 274.456 199.568 274.104 199.568C273.731 199.568 273.406 199.644 273.129 199.797C272.851 199.949 272.638 200.164 272.489 200.442C272.34 200.719 272.265 201.044 272.265 201.417H270.767C270.767 200.784 270.913 200.23 271.204 199.756C271.495 199.282 271.895 198.915 272.403 198.654C272.91 198.39 273.488 198.258 274.134 198.258C274.788 198.258 275.363 198.388 275.861 198.649C276.362 198.906 276.753 199.258 277.034 199.705C277.315 200.149 277.455 200.65 277.455 201.208C277.455 201.594 277.382 201.972 277.237 202.341C277.095 202.71 276.846 203.121 276.49 203.575C276.135 204.025 275.641 204.572 275.008 205.215L272.941 207.378V207.455H277.623V208.8H270.778ZM279.249 206.769V205.5L283.743 198.4H284.743V200.269H284.108L280.894 205.357V205.439H287.054V206.769H279.249ZM284.18 208.8V206.383L284.19 205.804V198.4H285.678V208.8H284.18Z" fill="white"/>
<rect x="76" y="94" width="78" height="78" stroke="#F42500" stroke-width="1.3" stroke-dasharray="1.3 1.3"/>
<rect x="185.2" y="94" width="78" height="78" stroke="#F42500" stroke-width="1.3" stroke-dasharray="1.3 1.3"/>
<rect x="294.4" y="94" width="78" height="78" stroke="#F42500" stroke-width="1.3" stroke-dasharray="1.3 1.3"/>
<path d="M381.5 94V172" stroke="#F42500" stroke-width="1.3"/>
<path d="M377.6 94H385.4" stroke="#F42500" stroke-width="1.3"/>
<path d="M377.6 172H385.4" stroke="#F42500" stroke-width="1.3"/>
<rect x="390.6" y="119.9" width="26.8" height="26.2" rx="4.55" fill="#F42500"/>
<path d="M399.399 138.642C398.935 138.635 398.478 138.551 398.028 138.388C397.581 138.226 397.175 137.955 396.809 137.576C396.444 137.197 396.151 136.687 395.931 136.047C395.714 135.407 395.606 134.608 395.606 133.65C395.606 132.743 395.696 131.937 395.875 131.233C396.058 130.529 396.32 129.935 396.662 129.451C397.004 128.963 397.417 128.593 397.901 128.339C398.385 128.085 398.929 127.958 399.531 127.958C400.151 127.958 400.701 128.08 401.182 128.323C401.662 128.567 402.052 128.904 402.35 129.334C402.651 129.764 402.842 130.253 402.923 130.802H401.375C401.27 130.368 401.061 130.014 400.75 129.74C400.439 129.466 400.032 129.329 399.531 129.329C398.77 129.329 398.175 129.661 397.749 130.324C397.326 130.988 397.112 131.91 397.109 133.092H397.185C397.365 132.797 397.585 132.547 397.845 132.34C398.109 132.13 398.404 131.97 398.729 131.858C399.057 131.743 399.403 131.685 399.765 131.685C400.367 131.685 400.913 131.832 401.4 132.127C401.891 132.418 402.282 132.821 402.573 133.336C402.864 133.85 403.01 134.439 403.01 135.103C403.01 135.766 402.859 136.367 402.558 136.905C402.26 137.444 401.84 137.87 401.298 138.185C400.757 138.497 400.124 138.649 399.399 138.642ZM399.394 137.322C399.794 137.322 400.151 137.224 400.466 137.027C400.78 136.831 401.029 136.567 401.212 136.235C401.395 135.903 401.486 135.533 401.486 135.123C401.486 134.724 401.397 134.36 401.217 134.031C401.041 133.703 400.797 133.442 400.486 133.249C400.178 133.056 399.826 132.96 399.43 132.96C399.128 132.96 398.849 133.017 398.592 133.132C398.338 133.248 398.114 133.407 397.922 133.61C397.729 133.813 397.576 134.046 397.464 134.311C397.356 134.571 397.302 134.847 397.302 135.138C397.302 135.528 397.392 135.888 397.571 136.22C397.754 136.552 398.003 136.819 398.318 137.022C398.636 137.222 398.995 137.322 399.394 137.322ZM408.623 138.673C407.821 138.669 407.135 138.458 406.567 138.038C405.998 137.618 405.563 137.007 405.261 136.205C404.96 135.402 404.81 134.436 404.81 133.305C404.81 132.178 404.96 131.215 405.261 130.416C405.566 129.617 406.003 129.007 406.572 128.587C407.144 128.168 407.828 127.958 408.623 127.958C409.419 127.958 410.101 128.169 410.67 128.593C411.238 129.012 411.673 129.622 411.975 130.421C412.279 131.216 412.432 132.178 412.432 133.305C412.432 134.439 412.281 135.407 411.98 136.21C411.679 137.009 411.244 137.62 410.675 138.043C410.106 138.463 409.422 138.673 408.623 138.673ZM408.623 137.317C409.327 137.317 409.877 136.973 410.274 136.286C410.673 135.599 410.873 134.605 410.873 133.305C410.873 132.442 410.781 131.712 410.599 131.116C410.419 130.517 410.16 130.064 409.822 129.755C409.486 129.444 409.087 129.288 408.623 129.288C407.922 129.288 407.372 129.634 406.973 130.324C406.573 131.015 406.372 132.008 406.369 133.305C406.369 134.172 406.458 134.905 406.638 135.504C406.82 136.1 407.079 136.552 407.415 136.86C407.75 137.164 408.153 137.317 408.623 137.317Z" fill="white"/>
<defs>
<filter id="filter0_d_14127_1904" x="70.8" y="91.4" width="88.4" height="88.4" filterUnits="userSpaceOnUse" color-interpolation-filters="sRGB">
<feFlood flood-opacity="0" result="BackgroundImageFix"/>
<feColorMatrix in="SourceAlpha" type="matrix" values="0 0 0 0 0 0 0 0 0 0 0 0 0 0 0 0 0 0 127 0" result="hardAlpha"/>
<feOffset dy="2.6"/>
<feGaussianBlur stdDeviation="2.6"/>
<feColorMatrix type="matrix" values="0 0 0 0 0 0 0 0 0 0 0 0 0 0 0 0 0 0 0.076 0"/>
<feBlend mode="normal" in2="BackgroundImageFix" result="effect1_dropShadow_14127_1904"/>
<feBlend mode="normal" in="SourceGraphic" in2="effect1_dropShadow_14127_1904" result="shape"/>
</filter>
<filter id="filter1_d_14127_1904" x="180" y="91.4" width="88.4" height="88.4" filterUnits="userSpaceOnUse" color-interpolation-filters="sRGB">
<feFlood flood-opacity="0" result="BackgroundImageFix"/>
<feColorMatrix in="SourceAlpha" type="matrix" values="0 0 0 0 0 0 0 0 0 0 0 0 0 0 0 0 0 0 127 0" result="hardAlpha"/>
<feOffset dy="2.6"/>
<feGaussianBlur stdDeviation="2.6"/>
<feColorMatrix type="matrix" values="0 0 0 0 0 0 0 0 0 0 0 0 0 0 0 0 0 0 0.076 0"/>
<feBlend mode="normal" in2="BackgroundImageFix" result="effect1_dropShadow_14127_1904"/>
<feBlend mode="normal" in="SourceGraphic" in2="effect1_dropShadow_14127_1904" result="shape"/>
</filter>
<filter id="filter2_d_14127_1904" x="289.2" y="91.4" width="88.4" height="88.4" filterUnits="userSpaceOnUse" color-interpolation-filters="sRGB">
<feFlood flood-opacity="0" result="BackgroundImageFix"/>
<feColorMatrix in="SourceAlpha" type="matrix" values="0 0 0 0 0 0 0 0 0 0 0 0 0 0 0 0 0 0 127 0" result="hardAlpha"/>
<feOffset dy="2.6"/>
<feGaussianBlur stdDeviation="2.6"/>
<feColorMatrix type="matrix" values="0 0 0 0 0 0 0 0 0 0 0 0 0 0 0 0 0 0 0.076 0"/>
<feBlend mode="normal" in2="BackgroundImageFix" result="effect1_dropShadow_14127_1904"/>
<feBlend mode="normal" in="SourceGraphic" in2="effect1_dropShadow_14127_1904" result="shape"/>
</filter>
</defs>
</svg>
