<svg width="844" height="521" viewBox="0 0 844 521" fill="none" xmlns="http://www.w3.org/2000/svg">
<rect width="844" height="521" fill="#F1F2F4"/>
<g filter="url(#filter0_d_1203_37926)">
<rect x="125.322" y="161.043" width="180.972" height="53.0435" rx="9.36061" fill="#FBFBFC"/>
<path d="M179.926 186.005C179.926 183.063 179.926 181.592 180.84 180.679C180.84 180.679 180.84 180.679 180.84 180.679C181.754 179.765 183.224 179.765 186.166 179.765H278.992C281.934 179.765 283.405 179.765 284.319 180.679C284.319 180.679 284.319 180.679 284.319 180.679C285.233 181.592 285.233 183.063 285.233 186.005C285.233 188.947 285.233 190.418 284.319 191.332C284.319 191.332 284.319 191.332 284.319 191.332C283.405 192.245 281.934 192.245 278.992 192.245H186.166C183.224 192.245 181.754 192.245 180.84 191.332C180.84 191.332 180.84 191.332 180.84 191.332C179.926 190.418 179.926 188.947 179.926 186.005Z" fill="#E7E8EB"/>
<path d="M145.604 186.005C145.604 180.122 145.604 177.18 147.431 175.352C147.431 175.352 147.431 175.352 147.431 175.352C149.259 173.524 152.201 173.524 158.084 173.524C163.968 173.524 166.91 173.524 168.737 175.352C168.737 175.352 168.737 175.352 168.737 175.352C170.565 177.18 170.565 180.122 170.565 186.005C170.565 191.889 170.565 194.831 168.737 196.658C168.737 196.658 168.737 196.658 168.737 196.658C166.91 198.486 163.968 198.486 158.084 198.486C152.201 198.486 149.259 198.486 147.431 196.658C147.431 196.658 147.431 196.658 147.431 196.658C145.604 194.831 145.604 191.889 145.604 186.005Z" fill="#4F46E5"/>
</g>
<g filter="url(#filter1_d_1203_37926)">
<rect x="125.322" y="231.248" width="180.972" height="53.0435" rx="9.36061" fill="#FBFBFC"/>
<path d="M179.926 256.21C179.926 253.268 179.926 251.797 180.84 250.883C180.84 250.883 180.84 250.883 180.84 250.883C181.754 249.969 183.224 249.969 186.166 249.969H278.992C281.934 249.969 283.405 249.969 284.319 250.883C284.319 250.883 284.319 250.883 284.319 250.883C285.233 251.797 285.233 253.268 285.233 256.21C285.233 259.151 285.233 260.622 284.319 261.536C284.319 261.536 284.319 261.536 284.319 261.536C283.405 262.45 281.934 262.45 278.992 262.45H186.166C183.224 262.45 181.754 262.45 180.84 261.536C180.84 261.536 180.84 261.536 180.84 261.536C179.926 260.622 179.926 259.151 179.926 256.21Z" fill="#E7E8EB"/>
<path d="M145.604 256.21C145.604 250.326 145.604 247.385 147.431 245.557C147.431 245.557 147.431 245.557 147.431 245.557C149.259 243.729 152.201 243.729 158.084 243.729C163.968 243.729 166.91 243.729 168.737 245.557C168.737 245.557 168.737 245.557 168.737 245.557C170.565 247.385 170.565 250.326 170.565 256.21C170.565 262.093 170.565 265.035 168.737 266.863C168.737 266.863 168.737 266.863 168.737 266.863C166.91 268.691 163.968 268.691 158.084 268.691C152.201 268.691 149.259 268.691 147.431 266.863C147.431 266.863 147.431 266.863 147.431 266.863C145.604 265.035 145.604 262.093 145.604 256.21Z" fill="#4F46E5"/>
</g>
<g filter="url(#filter2_d_1203_37926)">
<rect x="125.322" y="301.453" width="180.972" height="53.0435" rx="9.36061" fill="#FBFBFC"/>
<path d="M179.926 326.414C179.926 323.472 179.926 322.002 180.84 321.088C180.84 321.088 180.84 321.088 180.84 321.088C181.754 320.174 183.224 320.174 186.166 320.174H278.992C281.934 320.174 283.405 320.174 284.319 321.088C284.319 321.088 284.319 321.088 284.319 321.088C285.233 322.002 285.233 323.472 285.233 326.414C285.233 329.356 285.233 330.827 284.319 331.741C284.319 331.741 284.319 331.741 284.319 331.741C283.405 332.655 281.934 332.655 278.992 332.655H186.166C183.224 332.655 181.754 332.655 180.84 331.741C180.84 331.741 180.84 331.741 180.84 331.741C179.926 330.827 179.926 329.356 179.926 326.414Z" fill="#E7E8EB"/>
<path d="M145.604 326.414C145.604 320.531 145.604 317.589 147.431 315.761C147.431 315.761 147.431 315.761 147.431 315.761C149.259 313.934 152.201 313.934 158.084 313.934C163.968 313.934 166.91 313.934 168.737 315.761C168.737 315.761 168.737 315.761 168.737 315.761C170.565 317.589 170.565 320.531 170.565 326.414C170.565 332.298 170.565 335.24 168.737 337.067C168.737 337.067 168.737 337.067 168.737 337.067C166.91 338.895 163.968 338.895 158.084 338.895C152.201 338.895 149.259 338.895 147.431 337.067C147.431 337.067 147.431 337.067 147.431 337.067C145.604 335.24 145.604 332.298 145.604 326.414Z" fill="#4F46E5"/>
</g>
<path d="M596.473 198.486C596.473 195.544 596.473 194.073 597.387 193.159C597.387 193.159 597.387 193.159 597.387 193.159C598.301 192.246 599.772 192.246 602.714 192.246H647.176C650.118 192.246 651.589 192.246 652.503 193.159C652.503 193.159 652.503 193.159 652.503 193.159C653.417 194.073 653.417 195.544 653.417 198.486C653.417 201.428 653.417 202.899 652.503 203.813C652.503 203.813 652.503 203.813 652.503 203.813C651.589 204.726 650.118 204.726 647.176 204.726H602.714C599.772 204.726 598.301 204.726 597.387 203.813C597.387 203.813 597.387 203.813 597.387 203.813C596.473 202.899 596.473 201.428 596.473 198.486Z" fill="#E7E8EB"/>
<path d="M561.371 198.486C561.371 192.602 561.371 189.661 563.199 187.833C563.199 187.833 563.199 187.833 563.199 187.833C565.026 186.005 567.968 186.005 573.852 186.005C579.735 186.005 582.677 186.005 584.505 187.833C584.505 187.833 584.505 187.833 584.505 187.833C586.332 189.661 586.332 192.602 586.332 198.486C586.332 204.369 586.332 207.311 584.505 209.139C584.505 209.139 584.505 209.139 584.505 209.139C582.677 210.967 579.735 210.967 573.852 210.967C567.968 210.967 565.026 210.967 563.199 209.139C563.199 209.139 563.199 209.139 563.199 209.139C561.371 207.311 561.371 204.369 561.371 198.486Z" fill="#4F46E5"/>
<path d="M596.473 239.829C596.473 236.887 596.473 235.416 597.387 234.502C597.387 234.502 597.387 234.502 597.387 234.502C598.301 233.588 599.772 233.588 602.714 233.588H647.176C650.118 233.588 651.589 233.588 652.503 234.502C652.503 234.502 652.503 234.502 652.503 234.502C653.417 235.416 653.417 236.887 653.417 239.829C653.417 242.771 653.417 244.241 652.503 245.155C652.503 245.155 652.503 245.155 652.503 245.155C651.589 246.069 650.118 246.069 647.176 246.069H602.714C599.772 246.069 598.301 246.069 597.387 245.155C597.387 245.155 597.387 245.155 597.387 245.155C596.473 244.241 596.473 242.771 596.473 239.829Z" fill="#E7E8EB"/>
<path d="M561.371 239.829C561.371 233.945 561.371 231.003 563.199 229.176C563.199 229.176 563.199 229.176 563.199 229.176C565.026 227.348 567.968 227.348 573.852 227.348C579.735 227.348 582.677 227.348 584.505 229.176C584.505 229.176 584.505 229.176 584.505 229.176C586.332 231.003 586.332 233.945 586.332 239.829C586.332 245.712 586.332 248.654 584.505 250.482C584.505 250.482 584.505 250.482 584.505 250.482C582.677 252.31 579.735 252.31 573.852 252.31C567.968 252.31 565.026 252.31 563.199 250.482C563.199 250.482 563.199 250.482 563.199 250.482C561.371 248.654 561.371 245.712 561.371 239.829Z" fill="#4F46E5"/>
<path d="M596.473 281.171C596.473 278.23 596.473 276.759 597.387 275.845C597.387 275.845 597.387 275.845 597.387 275.845C598.301 274.931 599.772 274.931 602.714 274.931H647.176C650.118 274.931 651.589 274.931 652.503 275.845C652.503 275.845 652.503 275.845 652.503 275.845C653.417 276.759 653.417 278.23 653.417 281.171C653.417 284.113 653.417 285.584 652.503 286.498C652.503 286.498 652.503 286.498 652.503 286.498C651.589 287.412 650.118 287.412 647.176 287.412H602.714C599.772 287.412 598.301 287.412 597.387 286.498C597.387 286.498 597.387 286.498 597.387 286.498C596.473 285.584 596.473 284.113 596.473 281.171Z" fill="#E7E8EB"/>
<path d="M561.371 281.171C561.371 275.288 561.371 272.346 563.199 270.518C563.199 270.518 563.199 270.518 563.199 270.518C565.026 268.69 567.968 268.69 573.852 268.69C579.735 268.69 582.677 268.69 584.505 270.518C584.505 270.518 584.505 270.518 584.505 270.518C586.332 272.346 586.332 275.288 586.332 281.171C586.332 287.055 586.332 289.997 584.505 291.824C584.505 291.824 584.505 291.824 584.505 291.824C582.677 293.652 579.735 293.652 573.852 293.652C567.968 293.652 565.026 293.652 563.199 291.824C563.199 291.824 563.199 291.824 563.199 291.824C561.371 289.997 561.371 287.055 561.371 281.171Z" fill="#4F46E5"/>
<path d="M596.473 322.514C596.473 319.572 596.473 318.101 597.387 317.188C597.387 317.188 597.387 317.188 597.387 317.188C598.301 316.274 599.772 316.274 602.714 316.274H647.176C650.118 316.274 651.589 316.274 652.503 317.188C652.503 317.188 652.503 317.188 652.503 317.188C653.417 318.101 653.417 319.572 653.417 322.514C653.417 325.456 653.417 326.927 652.503 327.841C652.503 327.841 652.503 327.841 652.503 327.841C651.589 328.755 650.118 328.755 647.176 328.755H602.714C599.772 328.755 598.301 328.755 597.387 327.841C597.387 327.841 597.387 327.841 597.387 327.841C596.473 326.927 596.473 325.456 596.473 322.514Z" fill="#E7E8EB"/>
<path d="M561.371 322.514C561.371 316.631 561.371 313.689 563.199 311.861C563.199 311.861 563.199 311.861 563.199 311.861C565.026 310.033 567.968 310.033 573.852 310.033C579.735 310.033 582.677 310.033 584.505 311.861C584.505 311.861 584.505 311.861 584.505 311.861C586.332 313.689 586.332 316.631 586.332 322.514C586.332 328.398 586.332 331.339 584.505 333.167C584.505 333.167 584.505 333.167 584.505 333.167C582.677 334.995 579.735 334.995 573.852 334.995C567.968 334.995 565.026 334.995 563.199 333.167C563.199 333.167 563.199 333.167 563.199 333.167C561.371 331.339 561.371 328.398 561.371 322.514Z" fill="#4F46E5"/>
<g filter="url(#filter3_d_1203_37926)">
<rect x="275.092" y="126.721" width="248.836" height="261.317" rx="9.36061" fill="#FBFBFC"/>
<path d="M310.974 288.972C310.974 286.03 310.974 284.559 311.888 283.645C312.802 282.731 314.273 282.731 317.215 282.731H481.806C484.747 282.731 486.218 282.731 487.132 283.645C488.046 284.559 488.046 286.03 488.046 288.972V300.673C488.046 303.614 488.046 305.085 487.132 305.999C486.218 306.913 484.747 306.913 481.806 306.913H317.215C314.273 306.913 312.802 306.913 311.888 305.999C310.974 305.085 310.974 303.614 310.974 300.673V288.972Z" fill="#E7E8EB"/>
<path d="M342.957 326.414C342.957 323.472 342.957 322.002 343.87 321.088C343.87 321.088 343.87 321.088 343.87 321.088C344.784 320.174 346.255 320.174 349.197 320.174H449.824C452.765 320.174 454.236 320.174 455.15 321.088C455.15 321.088 455.15 321.088 455.15 321.088C456.064 322.002 456.064 323.472 456.064 326.414C456.064 329.356 456.064 330.827 455.15 331.741C455.15 331.741 455.15 331.741 455.15 331.741C454.236 332.655 452.765 332.655 449.824 332.655H349.197C346.255 332.655 344.784 332.655 343.87 331.741C343.87 331.741 343.87 331.741 343.87 331.741C342.957 330.827 342.957 329.356 342.957 326.414Z" fill="#E7E8EB"/>
<path d="M366.358 236.708C366.358 222.818 366.358 215.872 369.862 210.983C371.054 209.319 372.511 207.862 374.175 206.67C379.064 203.166 386.009 203.166 399.9 203.166C413.791 203.166 420.736 203.166 425.626 206.67C427.29 207.862 428.747 209.319 429.939 210.983C433.442 215.872 433.442 222.818 433.442 236.708C433.442 250.599 433.442 257.545 429.939 262.434C428.747 264.098 427.29 265.555 425.626 266.747C420.736 270.251 413.791 270.251 399.9 270.251C386.009 270.251 379.064 270.251 374.175 266.747C372.511 265.555 371.054 264.098 369.862 262.434C366.358 257.545 366.358 250.599 366.358 236.708Z" fill="#4F46E5"/>
</g>
<path d="M599.593 141.542C599.593 127.651 599.593 120.706 603.097 115.817C604.289 114.153 605.746 112.696 607.41 111.504C612.299 108 619.245 108 633.136 108C647.026 108 653.972 108 658.861 111.504C660.525 112.696 661.982 114.153 663.174 115.817C666.678 120.706 666.678 127.651 666.678 141.542C666.678 155.433 666.678 162.378 663.174 167.268C661.982 168.932 660.525 170.388 658.861 171.581C653.972 175.084 647.026 175.084 633.136 175.084C619.245 175.084 612.299 175.084 607.41 171.581C605.746 170.388 604.289 168.932 603.097 167.268C599.593 162.378 599.593 155.433 599.593 141.542Z" fill="#4F46E5"/>
<path d="M599.593 379.458C599.593 365.567 599.593 358.622 603.097 353.732C604.289 352.068 605.746 350.611 607.41 349.419C612.299 345.916 619.245 345.916 633.136 345.916C647.026 345.916 653.972 345.916 658.861 349.419C660.525 350.611 661.982 352.068 663.174 353.732C666.678 358.622 666.678 365.567 666.678 379.458C666.678 393.349 666.678 400.294 663.174 405.183C661.982 406.847 660.525 408.304 658.861 409.496C653.972 413 647.026 413 633.136 413C619.245 413 612.299 413 607.41 409.496C605.746 408.304 604.289 406.847 603.097 405.183C599.593 400.294 599.593 393.349 599.593 379.458Z" fill="#4F46E5"/>
<path d="M607.254 380.458C607.839 379.872 607.839 379.044 607.254 378.458L600.593 371.798C600.008 371.212 599.179 371.212 598.593 371.798L590.933 379.458L598.593 387.118C599.179 387.704 600.008 387.704 600.593 387.118L607.254 380.458ZM580.593 148.202C580.593 149.031 581.608 149.617 582.325 149.202L593.861 142.542C594.579 142.128 594.579 140.956 593.861 140.542L582.325 133.882C581.608 133.468 580.593 134.054 580.593 134.882V148.202ZM599.593 379.458V377.958H567.43V379.458V380.958H599.593V379.458ZM543.43 355.458H544.93V165.542H543.43H541.93V355.458H543.43ZM567.43 141.542V143.042H582.093V141.542V140.042H567.43V141.542ZM543.43 165.542H544.93C544.93 153.116 555.003 143.042 567.43 143.042V141.542V140.042C553.346 140.042 541.93 151.459 541.93 165.542H543.43ZM567.43 379.458V377.958C555.003 377.958 544.93 367.884 544.93 355.458H543.43H541.93C541.93 369.541 553.346 380.958 567.43 380.958V379.458Z" fill="#E1E3E6"/>
<defs>
<filter id="filter0_d_1203_37926" x="92.5601" y="143.882" width="246.496" height="118.568" filterUnits="userSpaceOnUse" color-interpolation-filters="sRGB">
<feFlood flood-opacity="0" result="BackgroundImageFix"/>
<feColorMatrix in="SourceAlpha" type="matrix" values="0 0 0 0 0 0 0 0 0 0 0 0 0 0 0 0 0 0 127 0" result="hardAlpha"/>
<feMorphology radius="12.4808" operator="erode" in="SourceAlpha" result="effect1_dropShadow_1203_37926"/>
<feOffset dy="15.601"/>
<feGaussianBlur stdDeviation="22.6215"/>
<feColorMatrix type="matrix" values="0 0 0 0 0 0 0 0 0 0 0 0 0 0 0 0 0 0 0.16 0"/>
<feBlend mode="normal" in2="BackgroundImageFix" result="effect1_dropShadow_1203_37926"/>
<feBlend mode="normal" in="SourceGraphic" in2="effect1_dropShadow_1203_37926" result="shape"/>
</filter>
<filter id="filter1_d_1203_37926" x="92.5601" y="214.087" width="246.496" height="118.568" filterUnits="userSpaceOnUse" color-interpolation-filters="sRGB">
<feFlood flood-opacity="0" result="BackgroundImageFix"/>
<feColorMatrix in="SourceAlpha" type="matrix" values="0 0 0 0 0 0 0 0 0 0 0 0 0 0 0 0 0 0 127 0" result="hardAlpha"/>
<feMorphology radius="12.4808" operator="erode" in="SourceAlpha" result="effect1_dropShadow_1203_37926"/>
<feOffset dy="15.601"/>
<feGaussianBlur stdDeviation="22.6215"/>
<feColorMatrix type="matrix" values="0 0 0 0 0 0 0 0 0 0 0 0 0 0 0 0 0 0 0.16 0"/>
<feBlend mode="normal" in2="BackgroundImageFix" result="effect1_dropShadow_1203_37926"/>
<feBlend mode="normal" in="SourceGraphic" in2="effect1_dropShadow_1203_37926" result="shape"/>
</filter>
<filter id="filter2_d_1203_37926" x="92.5601" y="284.292" width="246.496" height="118.568" filterUnits="userSpaceOnUse" color-interpolation-filters="sRGB">
<feFlood flood-opacity="0" result="BackgroundImageFix"/>
<feColorMatrix in="SourceAlpha" type="matrix" values="0 0 0 0 0 0 0 0 0 0 0 0 0 0 0 0 0 0 127 0" result="hardAlpha"/>
<feMorphology radius="12.4808" operator="erode" in="SourceAlpha" result="effect1_dropShadow_1203_37926"/>
<feOffset dy="15.601"/>
<feGaussianBlur stdDeviation="22.6215"/>
<feColorMatrix type="matrix" values="0 0 0 0 0 0 0 0 0 0 0 0 0 0 0 0 0 0 0.16 0"/>
<feBlend mode="normal" in2="BackgroundImageFix" result="effect1_dropShadow_1203_37926"/>
<feBlend mode="normal" in="SourceGraphic" in2="effect1_dropShadow_1203_37926" result="shape"/>
</filter>
<filter id="filter3_d_1203_37926" x="242.33" y="109.56" width="314.361" height="326.841" filterUnits="userSpaceOnUse" color-interpolation-filters="sRGB">
<feFlood flood-opacity="0" result="BackgroundImageFix"/>
<feColorMatrix in="SourceAlpha" type="matrix" values="0 0 0 0 0 0 0 0 0 0 0 0 0 0 0 0 0 0 127 0" result="hardAlpha"/>
<feMorphology radius="12.4808" operator="erode" in="SourceAlpha" result="effect1_dropShadow_1203_37926"/>
<feOffset dy="15.601"/>
<feGaussianBlur stdDeviation="22.6215"/>
<feColorMatrix type="matrix" values="0 0 0 0 0 0 0 0 0 0 0 0 0 0 0 0 0 0 0.16 0"/>
<feBlend mode="normal" in2="BackgroundImageFix" result="effect1_dropShadow_1203_37926"/>
<feBlend mode="normal" in="SourceGraphic" in2="effect1_dropShadow_1203_37926" result="shape"/>
</filter>
</defs>
</svg>
