<svg width="332" height="365" viewBox="0 0 332 365" fill="none" xmlns="http://www.w3.org/2000/svg">
<g filter="url(#filter0_d_5415_1757)">
<g clip-path="url(#clip0_5415_1757)">
<rect x="32" y="22" width="268" height="301" rx="2" fill="#1E1E1E"/>
<path d="M53.9766 53.2656C52.9557 53.2656 52.0729 53.026 51.3281 52.5469C50.5833 52.0677 50.0078 51.388 49.6016 50.5078C49.2005 49.6276 49 48.5833 49 47.375V47.3594C49 46.1458 49.2005 45.099 49.6016 44.2188C50.0078 43.3385 50.5807 42.6589 51.3203 42.1797C52.0651 41.7005 52.9479 41.4609 53.9688 41.4609C54.7604 41.4609 55.4792 41.6172 56.125 41.9297C56.776 42.237 57.3125 42.6667 57.7344 43.2188C58.1562 43.7656 58.4219 44.3984 58.5312 45.1172L58.5234 45.1328H57.1094L57.1016 45.1172C56.9766 44.6328 56.7656 44.2161 56.4688 43.8672C56.1719 43.513 55.8099 43.2396 55.3828 43.0469C54.9609 42.8542 54.4896 42.7578 53.9688 42.7578C53.25 42.7578 52.625 42.9453 52.0938 43.3203C51.5677 43.6953 51.1615 44.2266 50.875 44.9141C50.5885 45.6016 50.4453 46.4167 50.4453 47.3594V47.375C50.4453 48.3125 50.5885 49.125 50.875 49.8125C51.1615 50.5 51.5677 51.0312 52.0938 51.4062C52.625 51.7812 53.2526 51.9688 53.9766 51.9688C54.5026 51.9688 54.9792 51.8854 55.4062 51.7188C55.8333 51.5469 56.1927 51.3047 56.4844 50.9922C56.776 50.6745 56.9792 50.2995 57.0938 49.8672L57.1094 49.8516H58.5312V49.8672C58.4062 50.5547 58.1354 51.1536 57.7188 51.6641C57.3021 52.1693 56.7734 52.5625 56.1328 52.8438C55.4974 53.125 54.7786 53.2656 53.9766 53.2656ZM60.7188 53V44.5781H62.0781V45.8281H62.2031C62.3646 45.3854 62.638 45.0417 63.0234 44.7969C63.4089 44.5521 63.8854 44.4297 64.4531 44.4297C64.5833 44.4297 64.7109 44.4375 64.8359 44.4531C64.9661 44.4635 65.0651 44.474 65.1328 44.4844V45.8047C64.9922 45.7786 64.8542 45.7604 64.7188 45.75C64.5885 45.7344 64.4479 45.7266 64.2969 45.7266C63.8646 45.7266 63.4818 45.8125 63.1484 45.9844C62.8151 46.1562 62.5521 46.3958 62.3594 46.7031C62.1719 47.0104 62.0781 47.3698 62.0781 47.7812V53H60.7188ZM70.0156 53.1484C69.2135 53.1484 68.5234 52.9714 67.9453 52.6172C67.3724 52.263 66.9297 51.763 66.6172 51.1172C66.3099 50.4661 66.1562 49.7005 66.1562 48.8203V48.8125C66.1562 47.9427 66.3099 47.1797 66.6172 46.5234C66.9297 45.8672 67.3698 45.3542 67.9375 44.9844C68.5052 44.6146 69.1693 44.4297 69.9297 44.4297C70.6953 44.4297 71.3516 44.6068 71.8984 44.9609C72.4505 45.3151 72.8724 45.8099 73.1641 46.4453C73.4609 47.0755 73.6094 47.8099 73.6094 48.6484V49.1797H66.8594V48.0938H72.9141L72.2422 49.0859V48.5469C72.2422 47.8854 72.1432 47.3411 71.9453 46.9141C71.7474 46.487 71.474 46.1693 71.125 45.9609C70.776 45.7474 70.375 45.6406 69.9219 45.6406C69.4688 45.6406 69.0625 45.7526 68.7031 45.9766C68.349 46.1953 68.0677 46.5208 67.8594 46.9531C67.651 47.3854 67.5469 47.9167 67.5469 48.5469V49.0859C67.5469 49.6849 67.6484 50.1979 67.8516 50.625C68.0547 51.0469 68.3438 51.3724 68.7188 51.6016C69.0938 51.8255 69.5365 51.9375 70.0469 51.9375C70.4271 51.9375 70.7578 51.8854 71.0391 51.7812C71.3203 51.6771 71.5521 51.5443 71.7344 51.3828C71.9167 51.2214 72.0443 51.0573 72.1172 50.8906L72.1484 50.8203H73.5078L73.4922 50.8828C73.4193 51.1693 73.2891 51.4479 73.1016 51.7188C72.9193 51.9844 72.6823 52.2266 72.3906 52.4453C72.099 52.6589 71.7526 52.8307 71.3516 52.9609C70.9557 53.0859 70.5104 53.1484 70.0156 53.1484ZM78.0312 53.1484C77.5 53.1484 77.0208 53.0469 76.5938 52.8438C76.1719 52.6406 75.8359 52.3516 75.5859 51.9766C75.3411 51.6016 75.2188 51.1589 75.2188 50.6484V50.6328C75.2188 50.1328 75.3385 49.7057 75.5781 49.3516C75.8177 48.9922 76.1667 48.7109 76.625 48.5078C77.0833 48.3047 77.638 48.1849 78.2891 48.1484L81.3828 47.9609V49.0469L78.4531 49.2344C77.8125 49.2708 77.3438 49.4036 77.0469 49.6328C76.7552 49.862 76.6094 50.1849 76.6094 50.6016V50.6172C76.6094 51.0443 76.7708 51.3776 77.0938 51.6172C77.4167 51.8516 77.8229 51.9688 78.3125 51.9688C78.776 51.9688 79.1875 51.8776 79.5469 51.6953C79.9062 51.5078 80.1875 51.2552 80.3906 50.9375C80.599 50.6198 80.7031 50.2604 80.7031 49.8594V47.2344C80.7031 46.7135 80.5443 46.3177 80.2266 46.0469C79.9141 45.7708 79.4427 45.6328 78.8125 45.6328C78.3073 45.6328 77.8932 45.724 77.5703 45.9062C77.2474 46.0833 77.0312 46.3359 76.9219 46.6641L76.9141 46.6875H75.5547L75.5625 46.6406C75.6354 46.1979 75.8177 45.8125 76.1094 45.4844C76.4062 45.151 76.7891 44.8932 77.2578 44.7109C77.7266 44.5234 78.2604 44.4297 78.8594 44.4297C79.5469 44.4297 80.1276 44.5417 80.6016 44.7656C81.0807 44.9896 81.4427 45.3125 81.6875 45.7344C81.9375 46.151 82.0625 46.651 82.0625 47.2344V53H80.7031V51.7578H80.5781C80.401 52.0547 80.1849 52.3073 79.9297 52.5156C79.6797 52.724 79.3958 52.8828 79.0781 52.9922C78.7604 53.0964 78.4115 53.1484 78.0312 53.1484ZM87.5391 53.0625C86.6745 53.0625 86.0469 52.888 85.6562 52.5391C85.2708 52.1901 85.0781 51.6146 85.0781 50.8125V45.7031H83.75V44.5781H85.0781V42.3984H86.4844V44.5781H88.3281V45.7031H86.4844V50.4688C86.4844 50.9635 86.5781 51.3203 86.7656 51.5391C86.9531 51.7526 87.2656 51.8594 87.7031 51.8594C87.8229 51.8594 87.9245 51.8568 88.0078 51.8516C88.0964 51.8464 88.2031 51.8385 88.3281 51.8281V52.9844C88.1979 53.0052 88.0677 53.0234 87.9375 53.0391C87.8073 53.0547 87.6745 53.0625 87.5391 53.0625ZM93.6875 53.1484C92.8854 53.1484 92.1953 52.9714 91.6172 52.6172C91.0443 52.263 90.6016 51.763 90.2891 51.1172C89.9818 50.4661 89.8281 49.7005 89.8281 48.8203V48.8125C89.8281 47.9427 89.9818 47.1797 90.2891 46.5234C90.6016 45.8672 91.0417 45.3542 91.6094 44.9844C92.1771 44.6146 92.8411 44.4297 93.6016 44.4297C94.3672 44.4297 95.0234 44.6068 95.5703 44.9609C96.1224 45.3151 96.5443 45.8099 96.8359 46.4453C97.1328 47.0755 97.2812 47.8099 97.2812 48.6484V49.1797H90.5312V48.0938H96.5859L95.9141 49.0859V48.5469C95.9141 47.8854 95.8151 47.3411 95.6172 46.9141C95.4193 46.487 95.1458 46.1693 94.7969 45.9609C94.4479 45.7474 94.0469 45.6406 93.5938 45.6406C93.1406 45.6406 92.7344 45.7526 92.375 45.9766C92.0208 46.1953 91.7396 46.5208 91.5312 46.9531C91.3229 47.3854 91.2188 47.9167 91.2188 48.5469V49.0859C91.2188 49.6849 91.3203 50.1979 91.5234 50.625C91.7266 51.0469 92.0156 51.3724 92.3906 51.6016C92.7656 51.8255 93.2083 51.9375 93.7188 51.9375C94.099 51.9375 94.4297 51.8854 94.7109 51.7812C94.9922 51.6771 95.224 51.5443 95.4062 51.3828C95.5885 51.2214 95.7161 51.0573 95.7891 50.8906L95.8203 50.8203H97.1797L97.1641 50.8828C97.0911 51.1693 96.9609 51.4479 96.7734 51.7188C96.5911 51.9844 96.3542 52.2266 96.0625 52.4453C95.7708 52.6589 95.4245 52.8307 95.0234 52.9609C94.6276 53.0859 94.1823 53.1484 93.6875 53.1484ZM108.078 53.1484C107.688 53.1484 107.326 53.0885 106.992 52.9688C106.659 52.849 106.362 52.6797 106.102 52.4609C105.841 52.237 105.625 51.9688 105.453 51.6562H105.328V53H103.969V41.2344H105.328V45.9062H105.453C105.609 45.6042 105.818 45.3438 106.078 45.125C106.344 44.9062 106.646 44.737 106.984 44.6172C107.328 44.4922 107.693 44.4297 108.078 44.4297C108.792 44.4297 109.411 44.6094 109.938 44.9688C110.469 45.3281 110.88 45.8333 111.172 46.4844C111.464 47.1354 111.609 47.901 111.609 48.7812V48.7969C111.609 49.6719 111.464 50.4375 111.172 51.0938C110.88 51.7448 110.469 52.25 109.938 52.6094C109.411 52.9688 108.792 53.1484 108.078 53.1484ZM107.766 51.9453C108.281 51.9453 108.721 51.8203 109.086 51.5703C109.451 51.3151 109.729 50.9531 109.922 50.4844C110.12 50.0104 110.219 49.4479 110.219 48.7969V48.7812C110.219 48.125 110.12 47.5625 109.922 47.0938C109.729 46.625 109.451 46.2656 109.086 46.0156C108.721 45.7604 108.281 45.6328 107.766 45.6328C107.255 45.6328 106.815 45.7604 106.445 46.0156C106.076 46.2708 105.792 46.6328 105.594 47.1016C105.396 47.5703 105.297 48.1302 105.297 48.7812V48.7969C105.297 49.4427 105.396 50.0026 105.594 50.4766C105.792 50.9453 106.076 51.3073 106.445 51.5625C106.815 51.8177 107.255 51.9453 107.766 51.9453ZM113.719 53V44.5781H115.078V45.8281H115.203C115.365 45.3854 115.638 45.0417 116.023 44.7969C116.409 44.5521 116.885 44.4297 117.453 44.4297C117.583 44.4297 117.711 44.4375 117.836 44.4531C117.966 44.4635 118.065 44.474 118.133 44.4844V45.8047C117.992 45.7786 117.854 45.7604 117.719 45.75C117.589 45.7344 117.448 45.7266 117.297 45.7266C116.865 45.7266 116.482 45.8125 116.148 45.9844C115.815 46.1562 115.552 46.3958 115.359 46.7031C115.172 47.0104 115.078 47.3698 115.078 47.7812V53H113.719ZM122.125 53.1484C121.594 53.1484 121.115 53.0469 120.688 52.8438C120.266 52.6406 119.93 52.3516 119.68 51.9766C119.435 51.6016 119.312 51.1589 119.312 50.6484V50.6328C119.312 50.1328 119.432 49.7057 119.672 49.3516C119.911 48.9922 120.26 48.7109 120.719 48.5078C121.177 48.3047 121.732 48.1849 122.383 48.1484L125.477 47.9609V49.0469L122.547 49.2344C121.906 49.2708 121.438 49.4036 121.141 49.6328C120.849 49.862 120.703 50.1849 120.703 50.6016V50.6172C120.703 51.0443 120.865 51.3776 121.188 51.6172C121.51 51.8516 121.917 51.9688 122.406 51.9688C122.87 51.9688 123.281 51.8776 123.641 51.6953C124 51.5078 124.281 51.2552 124.484 50.9375C124.693 50.6198 124.797 50.2604 124.797 49.8594V47.2344C124.797 46.7135 124.638 46.3177 124.32 46.0469C124.008 45.7708 123.536 45.6328 122.906 45.6328C122.401 45.6328 121.987 45.724 121.664 45.9062C121.341 46.0833 121.125 46.3359 121.016 46.6641L121.008 46.6875H119.648L119.656 46.6406C119.729 46.1979 119.911 45.8125 120.203 45.4844C120.5 45.151 120.883 44.8932 121.352 44.7109C121.82 44.5234 122.354 44.4297 122.953 44.4297C123.641 44.4297 124.221 44.5417 124.695 44.7656C125.174 44.9896 125.536 45.3125 125.781 45.7344C126.031 46.151 126.156 46.651 126.156 47.2344V53H124.797V51.7578H124.672C124.495 52.0547 124.279 52.3073 124.023 52.5156C123.773 52.724 123.49 52.8828 123.172 52.9922C122.854 53.0964 122.505 53.1484 122.125 53.1484ZM128.641 53V44.5781H130V45.8438H130.125C130.339 45.3958 130.646 45.0495 131.047 44.8047C131.448 44.5547 131.958 44.4297 132.578 44.4297C133.526 44.4297 134.253 44.7005 134.758 45.2422C135.268 45.7786 135.523 46.5469 135.523 47.5469V53H134.164V47.875C134.164 47.1146 134.003 46.5521 133.68 46.1875C133.362 45.8177 132.867 45.6328 132.195 45.6328C131.747 45.6328 131.359 45.7292 131.031 45.9219C130.703 46.1146 130.448 46.388 130.266 46.7422C130.089 47.0964 130 47.5208 130 48.0156V53H128.641ZM141.43 53.1484C140.643 53.1484 139.961 52.9688 139.383 52.6094C138.805 52.25 138.357 51.7422 138.039 51.0859C137.721 50.4297 137.562 49.6562 137.562 48.7656V48.75C137.562 47.875 137.719 47.1146 138.031 46.4688C138.349 45.8229 138.797 45.3229 139.375 44.9688C139.953 44.6094 140.635 44.4297 141.422 44.4297C142.104 44.4297 142.693 44.5495 143.188 44.7891C143.682 45.0286 144.078 45.3516 144.375 45.7578C144.672 46.1589 144.862 46.6094 144.945 47.1094L144.953 47.1562H143.602L143.594 47.1328C143.49 46.7161 143.253 46.362 142.883 46.0703C142.513 45.7786 142.026 45.6328 141.422 45.6328C140.917 45.6328 140.479 45.7604 140.109 46.0156C139.74 46.2708 139.453 46.6328 139.25 47.1016C139.052 47.5651 138.953 48.1146 138.953 48.75V48.7656C138.953 49.4115 139.055 49.974 139.258 50.4531C139.461 50.9271 139.747 51.2943 140.117 51.5547C140.487 51.8151 140.922 51.9453 141.422 51.9453C141.99 51.9453 142.453 51.8229 142.812 51.5781C143.172 51.3333 143.43 50.9766 143.586 50.5078L143.602 50.4609L144.945 50.4531L144.93 50.5391C144.815 51.0443 144.612 51.4948 144.32 51.8906C144.029 52.2812 143.643 52.5885 143.164 52.8125C142.685 53.0365 142.107 53.1484 141.43 53.1484ZM147.016 53V41.2344H148.375V45.8438H148.5C148.714 45.3958 149.021 45.0495 149.422 44.8047C149.823 44.5547 150.333 44.4297 150.953 44.4297C151.583 44.4297 152.117 44.5521 152.555 44.7969C152.992 45.0365 153.326 45.388 153.555 45.8516C153.784 46.3151 153.898 46.8802 153.898 47.5469V53H152.539V47.875C152.539 47.1146 152.378 46.5521 152.055 46.1875C151.737 45.8177 151.242 45.6328 150.57 45.6328C150.122 45.6328 149.734 45.7292 149.406 45.9219C149.078 46.1146 148.823 46.388 148.641 46.7422C148.464 47.0964 148.375 47.5208 148.375 48.0156V53H147.016ZM157.469 53.0781C157.193 53.0781 156.953 52.9792 156.75 52.7812C156.552 52.5781 156.453 52.3385 156.453 52.0625C156.453 51.7812 156.552 51.5417 156.75 51.3438C156.953 51.1458 157.193 51.0469 157.469 51.0469C157.75 51.0469 157.99 51.1458 158.188 51.3438C158.385 51.5417 158.484 51.7812 158.484 52.0625C158.484 52.3385 158.385 52.5781 158.188 52.7812C157.99 52.9792 157.75 53.0781 157.469 53.0781ZM162.219 53.0781C161.943 53.0781 161.703 52.9792 161.5 52.7812C161.302 52.5781 161.203 52.3385 161.203 52.0625C161.203 51.7812 161.302 51.5417 161.5 51.3438C161.703 51.1458 161.943 51.0469 162.219 51.0469C162.5 51.0469 162.74 51.1458 162.938 51.3438C163.135 51.5417 163.234 51.7812 163.234 52.0625C163.234 52.3385 163.135 52.5781 162.938 52.7812C162.74 52.9792 162.5 53.0781 162.219 53.0781ZM166.969 53.0781C166.693 53.0781 166.453 52.9792 166.25 52.7812C166.052 52.5781 165.953 52.3385 165.953 52.0625C165.953 51.7812 166.052 51.5417 166.25 51.3438C166.453 51.1458 166.693 51.0469 166.969 51.0469C167.25 51.0469 167.49 51.1458 167.688 51.3438C167.885 51.5417 167.984 51.7812 167.984 52.0625C167.984 52.3385 167.885 52.5781 167.688 52.7812C167.49 52.9792 167.25 53.0781 166.969 53.0781Z" fill="white"/>
<line x1="32" y1="72.5" x2="300" y2="72.5" stroke="#383838"/>
<path d="M49.4375 104V92.7266H56.2812V93.9922H50.8438V97.8672H55.8359V99.1172H50.8438V104H49.4375ZM58.4531 104V95.5781H59.8125V104H58.4531ZM59.1406 93.9531C58.8854 93.9531 58.6641 93.862 58.4766 93.6797C58.2943 93.4922 58.2031 93.2708 58.2031 93.0156C58.2031 92.7552 58.2943 92.5339 58.4766 92.3516C58.6641 92.1693 58.8854 92.0781 59.1406 92.0781C59.401 92.0781 59.6224 92.1693 59.8047 92.3516C59.987 92.5339 60.0781 92.7552 60.0781 93.0156C60.0781 93.2708 59.987 93.4922 59.8047 93.6797C59.6224 93.862 59.401 93.9531 59.1406 93.9531ZM62.4531 104V92.2344H63.8125V104H62.4531ZM69.8594 104.148C69.0573 104.148 68.3672 103.971 67.7891 103.617C67.2161 103.263 66.7734 102.763 66.4609 102.117C66.1536 101.466 66 100.701 66 99.8203V99.8125C66 98.9427 66.1536 98.1797 66.4609 97.5234C66.7734 96.8672 67.2135 96.3542 67.7812 95.9844C68.349 95.6146 69.013 95.4297 69.7734 95.4297C70.5391 95.4297 71.1953 95.6068 71.7422 95.9609C72.2943 96.3151 72.7161 96.8099 73.0078 97.4453C73.3047 98.0755 73.4531 98.8099 73.4531 99.6484V100.18H66.7031V99.0938H72.7578L72.0859 100.086V99.5469C72.0859 98.8854 71.987 98.3411 71.7891 97.9141C71.5911 97.487 71.3177 97.1693 70.9688 96.9609C70.6198 96.7474 70.2188 96.6406 69.7656 96.6406C69.3125 96.6406 68.9062 96.7526 68.5469 96.9766C68.1927 97.1953 67.9115 97.5208 67.7031 97.9531C67.4948 98.3854 67.3906 98.9167 67.3906 99.5469V100.086C67.3906 100.685 67.4922 101.198 67.6953 101.625C67.8984 102.047 68.1875 102.372 68.5625 102.602C68.9375 102.826 69.3802 102.938 69.8906 102.938C70.2708 102.938 70.6016 102.885 70.8828 102.781C71.1641 102.677 71.3958 102.544 71.5781 102.383C71.7604 102.221 71.888 102.057 71.9609 101.891L71.9922 101.82H73.3516L73.3359 101.883C73.263 102.169 73.1328 102.448 72.9453 102.719C72.763 102.984 72.526 103.227 72.2344 103.445C71.9427 103.659 71.5964 103.831 71.1953 103.961C70.7995 104.086 70.3542 104.148 69.8594 104.148ZM83.5078 104.148C82.7214 104.148 82.0391 103.969 81.4609 103.609C80.8828 103.25 80.4349 102.742 80.1172 102.086C79.7995 101.43 79.6406 100.656 79.6406 99.7656V99.75C79.6406 98.875 79.7969 98.1146 80.1094 97.4688C80.4271 96.8229 80.875 96.3229 81.4531 95.9688C82.0312 95.6094 82.7135 95.4297 83.5 95.4297C84.1823 95.4297 84.7708 95.5495 85.2656 95.7891C85.7604 96.0286 86.1562 96.3516 86.4531 96.7578C86.75 97.1589 86.9401 97.6094 87.0234 98.1094L87.0312 98.1562H85.6797L85.6719 98.1328C85.5677 97.7161 85.3307 97.362 84.9609 97.0703C84.5911 96.7786 84.1042 96.6328 83.5 96.6328C82.9948 96.6328 82.5573 96.7604 82.1875 97.0156C81.8177 97.2708 81.5312 97.6328 81.3281 98.1016C81.1302 98.5651 81.0312 99.1146 81.0312 99.75V99.7656C81.0312 100.411 81.1328 100.974 81.3359 101.453C81.5391 101.927 81.8255 102.294 82.1953 102.555C82.5651 102.815 83 102.945 83.5 102.945C84.0677 102.945 84.5312 102.823 84.8906 102.578C85.25 102.333 85.5078 101.977 85.6641 101.508L85.6797 101.461L87.0234 101.453L87.0078 101.539C86.8932 102.044 86.6901 102.495 86.3984 102.891C86.1068 103.281 85.7214 103.589 85.2422 103.812C84.763 104.036 84.1849 104.148 83.5078 104.148ZM92.4766 104.148C91.6797 104.148 90.9896 103.974 90.4062 103.625C89.8281 103.271 89.3802 102.768 89.0625 102.117C88.75 101.466 88.5938 100.693 88.5938 99.7969V99.7812C88.5938 98.8802 88.75 98.1042 89.0625 97.4531C89.3802 96.8021 89.8281 96.3021 90.4062 95.9531C90.9896 95.6042 91.6797 95.4297 92.4766 95.4297C93.2786 95.4297 93.9688 95.6042 94.5469 95.9531C95.125 96.3021 95.5703 96.8021 95.8828 97.4531C96.2005 98.1042 96.3594 98.8802 96.3594 99.7812V99.7969C96.3594 100.693 96.2005 101.466 95.8828 102.117C95.5703 102.768 95.125 103.271 94.5469 103.625C93.9688 103.974 93.2786 104.148 92.4766 104.148ZM92.4766 102.945C93.0078 102.945 93.4583 102.82 93.8281 102.57C94.1979 102.32 94.4792 101.961 94.6719 101.492C94.8698 101.023 94.9688 100.458 94.9688 99.7969V99.7812C94.9688 99.1146 94.8698 98.5469 94.6719 98.0781C94.4792 97.6094 94.1979 97.2526 93.8281 97.0078C93.4583 96.7578 93.0078 96.6328 92.4766 96.6328C91.9453 96.6328 91.4948 96.7578 91.125 97.0078C90.7552 97.2526 90.4714 97.6094 90.2734 98.0781C90.0807 98.5469 89.9844 99.1146 89.9844 99.7812V99.7969C89.9844 100.458 90.0807 101.023 90.2734 101.492C90.4714 101.961 90.7552 102.32 91.125 102.57C91.4948 102.82 91.9453 102.945 92.4766 102.945ZM98.5469 104V92.2344H99.9062V104H98.5469ZM105.977 104.148C105.18 104.148 104.49 103.974 103.906 103.625C103.328 103.271 102.88 102.768 102.562 102.117C102.25 101.466 102.094 100.693 102.094 99.7969V99.7812C102.094 98.8802 102.25 98.1042 102.562 97.4531C102.88 96.8021 103.328 96.3021 103.906 95.9531C104.49 95.6042 105.18 95.4297 105.977 95.4297C106.779 95.4297 107.469 95.6042 108.047 95.9531C108.625 96.3021 109.07 96.8021 109.383 97.4531C109.701 98.1042 109.859 98.8802 109.859 99.7812V99.7969C109.859 100.693 109.701 101.466 109.383 102.117C109.07 102.768 108.625 103.271 108.047 103.625C107.469 103.974 106.779 104.148 105.977 104.148ZM105.977 102.945C106.508 102.945 106.958 102.82 107.328 102.57C107.698 102.32 107.979 101.961 108.172 101.492C108.37 101.023 108.469 100.458 108.469 99.7969V99.7812C108.469 99.1146 108.37 98.5469 108.172 98.0781C107.979 97.6094 107.698 97.2526 107.328 97.0078C106.958 96.7578 106.508 96.6328 105.977 96.6328C105.445 96.6328 104.995 96.7578 104.625 97.0078C104.255 97.2526 103.971 97.6094 103.773 98.0781C103.581 98.5469 103.484 99.1146 103.484 99.7812V99.7969C103.484 100.458 103.581 101.023 103.773 101.492C103.971 101.961 104.255 102.32 104.625 102.57C104.995 102.82 105.445 102.945 105.977 102.945ZM111.969 104V95.5781H113.328V96.8281H113.453C113.615 96.3854 113.888 96.0417 114.273 95.7969C114.659 95.5521 115.135 95.4297 115.703 95.4297C115.833 95.4297 115.961 95.4375 116.086 95.4531C116.216 95.4635 116.315 95.474 116.383 95.4844V96.8047C116.242 96.7786 116.104 96.7604 115.969 96.75C115.839 96.7344 115.698 96.7266 115.547 96.7266C115.115 96.7266 114.732 96.8125 114.398 96.9844C114.065 97.1562 113.802 97.3958 113.609 97.7031C113.422 98.0104 113.328 98.3698 113.328 98.7812V104H111.969ZM122.562 106.812V95.5781H123.922V96.9219H124.047C124.219 96.6094 124.435 96.3438 124.695 96.125C124.956 95.901 125.253 95.7292 125.586 95.6094C125.919 95.4896 126.281 95.4297 126.672 95.4297C127.385 95.4297 128.005 95.612 128.531 95.9766C129.062 96.3359 129.474 96.8411 129.766 97.4922C130.057 98.1432 130.203 98.9062 130.203 99.7812V99.7969C130.203 100.677 130.057 101.443 129.766 102.094C129.474 102.745 129.062 103.25 128.531 103.609C128.005 103.969 127.385 104.148 126.672 104.148C126.286 104.148 125.922 104.089 125.578 103.969C125.24 103.844 124.938 103.672 124.672 103.453C124.411 103.234 124.203 102.974 124.047 102.672H123.922V106.812H122.562ZM126.359 102.945C126.875 102.945 127.315 102.82 127.68 102.57C128.044 102.315 128.323 101.953 128.516 101.484C128.714 101.01 128.812 100.448 128.812 99.7969V99.7812C128.812 99.125 128.714 98.5625 128.516 98.0938C128.323 97.625 128.044 97.2656 127.68 97.0156C127.315 96.7604 126.875 96.6328 126.359 96.6328C125.849 96.6328 125.409 96.7604 125.039 97.0156C124.669 97.2708 124.385 97.6328 124.188 98.1016C123.99 98.5703 123.891 99.1302 123.891 99.7812V99.7969C123.891 100.443 123.99 101.003 124.188 101.477C124.385 101.945 124.669 102.307 125.039 102.562C125.409 102.818 125.849 102.945 126.359 102.945ZM132.328 104V95.5781H133.688V96.8281H133.812C133.974 96.3854 134.247 96.0417 134.633 95.7969C135.018 95.5521 135.495 95.4297 136.062 95.4297C136.193 95.4297 136.32 95.4375 136.445 95.4531C136.576 95.4635 136.674 95.474 136.742 95.4844V96.8047C136.602 96.7786 136.464 96.7604 136.328 96.75C136.198 96.7344 136.057 96.7266 135.906 96.7266C135.474 96.7266 135.091 96.8125 134.758 96.9844C134.424 97.1562 134.161 97.3958 133.969 97.7031C133.781 98.0104 133.688 98.3698 133.688 98.7812V104H132.328ZM141.648 104.148C140.852 104.148 140.161 103.974 139.578 103.625C139 103.271 138.552 102.768 138.234 102.117C137.922 101.466 137.766 100.693 137.766 99.7969V99.7812C137.766 98.8802 137.922 98.1042 138.234 97.4531C138.552 96.8021 139 96.3021 139.578 95.9531C140.161 95.6042 140.852 95.4297 141.648 95.4297C142.451 95.4297 143.141 95.6042 143.719 95.9531C144.297 96.3021 144.742 96.8021 145.055 97.4531C145.372 98.1042 145.531 98.8802 145.531 99.7812V99.7969C145.531 100.693 145.372 101.466 145.055 102.117C144.742 102.768 144.297 103.271 143.719 103.625C143.141 103.974 142.451 104.148 141.648 104.148ZM141.648 102.945C142.18 102.945 142.63 102.82 143 102.57C143.37 102.32 143.651 101.961 143.844 101.492C144.042 101.023 144.141 100.458 144.141 99.7969V99.7812C144.141 99.1146 144.042 98.5469 143.844 98.0781C143.651 97.6094 143.37 97.2526 143 97.0078C142.63 96.7578 142.18 96.6328 141.648 96.6328C141.117 96.6328 140.667 96.7578 140.297 97.0078C139.927 97.2526 139.643 97.6094 139.445 98.0781C139.253 98.5469 139.156 99.1146 139.156 99.7812V99.7969C139.156 100.458 139.253 101.023 139.445 101.492C139.643 101.961 139.927 102.32 140.297 102.57C140.667 102.82 141.117 102.945 141.648 102.945ZM148.203 104V96.7031H146.805V95.5781H148.203V94.6406C148.203 94.0781 148.294 93.6146 148.477 93.25C148.664 92.8802 148.94 92.6068 149.305 92.4297C149.669 92.2474 150.117 92.1562 150.648 92.1562C150.815 92.1562 150.971 92.1641 151.117 92.1797C151.268 92.1901 151.414 92.2083 151.555 92.2344V93.3203C151.471 93.3047 151.375 93.2943 151.266 93.2891C151.156 93.2839 151.042 93.2812 150.922 93.2812C150.438 93.2812 150.089 93.3984 149.875 93.6328C149.667 93.8672 149.562 94.2161 149.562 94.6797V95.5781H151.477V96.7031H149.562V104H148.203ZM153.469 104V95.5781H154.828V104H153.469ZM154.156 93.9531C153.901 93.9531 153.68 93.862 153.492 93.6797C153.31 93.4922 153.219 93.2708 153.219 93.0156C153.219 92.7552 153.31 92.5339 153.492 92.3516C153.68 92.1693 153.901 92.0781 154.156 92.0781C154.417 92.0781 154.638 92.1693 154.82 92.3516C155.003 92.5339 155.094 92.7552 155.094 93.0156C155.094 93.2708 155.003 93.4922 154.82 93.6797C154.638 93.862 154.417 93.9531 154.156 93.9531ZM157.469 104V92.2344H158.828V104H157.469ZM164.875 104.148C164.073 104.148 163.383 103.971 162.805 103.617C162.232 103.263 161.789 102.763 161.477 102.117C161.169 101.466 161.016 100.701 161.016 99.8203V99.8125C161.016 98.9427 161.169 98.1797 161.477 97.5234C161.789 96.8672 162.229 96.3542 162.797 95.9844C163.365 95.6146 164.029 95.4297 164.789 95.4297C165.555 95.4297 166.211 95.6068 166.758 95.9609C167.31 96.3151 167.732 96.8099 168.023 97.4453C168.32 98.0755 168.469 98.8099 168.469 99.6484V100.18H161.719V99.0938H167.773L167.102 100.086V99.5469C167.102 98.8854 167.003 98.3411 166.805 97.9141C166.607 97.487 166.333 97.1693 165.984 96.9609C165.635 96.7474 165.234 96.6406 164.781 96.6406C164.328 96.6406 163.922 96.7526 163.562 96.9766C163.208 97.1953 162.927 97.5208 162.719 97.9531C162.51 98.3854 162.406 98.9167 162.406 99.5469V100.086C162.406 100.685 162.508 101.198 162.711 101.625C162.914 102.047 163.203 102.372 163.578 102.602C163.953 102.826 164.396 102.938 164.906 102.938C165.286 102.938 165.617 102.885 165.898 102.781C166.18 102.677 166.411 102.544 166.594 102.383C166.776 102.221 166.904 102.057 166.977 101.891L167.008 101.82H168.367L168.352 101.883C168.279 102.169 168.148 102.448 167.961 102.719C167.779 102.984 167.542 103.227 167.25 103.445C166.958 103.659 166.612 103.831 166.211 103.961C165.815 104.086 165.37 104.148 164.875 104.148Z" fill="white"/>
<path d="M278 102.5V94.5L284 98.5L278 102.5Z" fill="white"/>
<line x1="32" y1="123.5" x2="300" y2="123.5" stroke="#383838"/>
<rect width="268" height="35" transform="translate(32 132)" fill="#0C8EFF"/>
<path d="M49.4375 155V143.727H53.3047C54.4193 143.727 55.3724 143.951 56.1641 144.398C56.9609 144.841 57.5703 145.482 57.9922 146.32C58.4141 147.159 58.625 148.169 58.625 149.352V149.367C58.625 150.549 58.4141 151.562 57.9922 152.406C57.5703 153.245 56.9635 153.888 56.1719 154.336C55.3802 154.779 54.4245 155 53.3047 155H49.4375ZM50.8438 153.734H53.2109C54.0495 153.734 54.7656 153.562 55.3594 153.219C55.9531 152.875 56.4062 152.378 56.7188 151.727C57.0312 151.076 57.1875 150.294 57.1875 149.383V149.367C57.1875 148.451 57.0286 147.667 56.7109 147.016C56.3984 146.359 55.9453 145.859 55.3516 145.516C54.7578 145.167 54.0443 144.992 53.2109 144.992H50.8438V153.734ZM63.7109 155.148C63.0755 155.148 62.5417 155.029 62.1094 154.789C61.6771 154.544 61.3516 154.19 61.1328 153.727C60.9193 153.258 60.8125 152.693 60.8125 152.031V146.578H62.1719V151.703C62.1719 152.458 62.3177 153.021 62.6094 153.391C62.9062 153.76 63.3906 153.945 64.0625 153.945C64.4323 153.945 64.7578 153.891 65.0391 153.781C65.3255 153.672 65.5651 153.516 65.7578 153.312C65.9505 153.104 66.0938 152.854 66.1875 152.562C66.2865 152.266 66.3359 151.932 66.3359 151.562V146.578H67.6953V155H66.3359V153.742H66.2109C66.0755 154.039 65.8906 154.294 65.6562 154.508C65.4219 154.716 65.1406 154.875 64.8125 154.984C64.4896 155.094 64.1224 155.148 63.7109 155.148ZM70.2344 157.812V146.578H71.5938V147.922H71.7188C71.8906 147.609 72.1068 147.344 72.3672 147.125C72.6276 146.901 72.9245 146.729 73.2578 146.609C73.5911 146.49 73.9531 146.43 74.3438 146.43C75.0573 146.43 75.6771 146.612 76.2031 146.977C76.7344 147.336 77.1458 147.841 77.4375 148.492C77.7292 149.143 77.875 149.906 77.875 150.781V150.797C77.875 151.677 77.7292 152.443 77.4375 153.094C77.1458 153.745 76.7344 154.25 76.2031 154.609C75.6771 154.969 75.0573 155.148 74.3438 155.148C73.9583 155.148 73.5938 155.089 73.25 154.969C72.9115 154.844 72.6094 154.672 72.3438 154.453C72.0833 154.234 71.875 153.974 71.7188 153.672H71.5938V157.812H70.2344ZM74.0312 153.945C74.5469 153.945 74.987 153.82 75.3516 153.57C75.7161 153.315 75.9948 152.953 76.1875 152.484C76.3854 152.01 76.4844 151.448 76.4844 150.797V150.781C76.4844 150.125 76.3854 149.562 76.1875 149.094C75.9948 148.625 75.7161 148.266 75.3516 148.016C74.987 147.76 74.5469 147.633 74.0312 147.633C73.5208 147.633 73.0807 147.76 72.7109 148.016C72.3411 148.271 72.0573 148.633 71.8594 149.102C71.6615 149.57 71.5625 150.13 71.5625 150.781V150.797C71.5625 151.443 71.6615 152.003 71.8594 152.477C72.0573 152.945 72.3411 153.307 72.7109 153.562C73.0807 153.818 73.5208 153.945 74.0312 153.945ZM80.0781 155V143.234H81.4375V155H80.0781ZM84.0781 155V146.578H85.4375V155H84.0781ZM84.7656 144.953C84.5104 144.953 84.2891 144.862 84.1016 144.68C83.9193 144.492 83.8281 144.271 83.8281 144.016C83.8281 143.755 83.9193 143.534 84.1016 143.352C84.2891 143.169 84.5104 143.078 84.7656 143.078C85.026 143.078 85.2474 143.169 85.4297 143.352C85.612 143.534 85.7031 143.755 85.7031 144.016C85.7031 144.271 85.612 144.492 85.4297 144.68C85.2474 144.862 85.026 144.953 84.7656 144.953ZM91.4453 155.148C90.6589 155.148 89.9766 154.969 89.3984 154.609C88.8203 154.25 88.3724 153.742 88.0547 153.086C87.737 152.43 87.5781 151.656 87.5781 150.766V150.75C87.5781 149.875 87.7344 149.115 88.0469 148.469C88.3646 147.823 88.8125 147.323 89.3906 146.969C89.9688 146.609 90.651 146.43 91.4375 146.43C92.1198 146.43 92.7083 146.549 93.2031 146.789C93.6979 147.029 94.0938 147.352 94.3906 147.758C94.6875 148.159 94.8776 148.609 94.9609 149.109L94.9688 149.156H93.6172L93.6094 149.133C93.5052 148.716 93.2682 148.362 92.8984 148.07C92.5286 147.779 92.0417 147.633 91.4375 147.633C90.9323 147.633 90.4948 147.76 90.125 148.016C89.7552 148.271 89.4688 148.633 89.2656 149.102C89.0677 149.565 88.9688 150.115 88.9688 150.75V150.766C88.9688 151.411 89.0703 151.974 89.2734 152.453C89.4766 152.927 89.763 153.294 90.1328 153.555C90.5026 153.815 90.9375 153.945 91.4375 153.945C92.0052 153.945 92.4688 153.823 92.8281 153.578C93.1875 153.333 93.4453 152.977 93.6016 152.508L93.6172 152.461L94.9609 152.453L94.9453 152.539C94.8307 153.044 94.6276 153.495 94.3359 153.891C94.0443 154.281 93.6589 154.589 93.1797 154.812C92.7005 155.036 92.1224 155.148 91.4453 155.148ZM99.2656 155.148C98.7344 155.148 98.2552 155.047 97.8281 154.844C97.4062 154.641 97.0703 154.352 96.8203 153.977C96.5755 153.602 96.4531 153.159 96.4531 152.648V152.633C96.4531 152.133 96.5729 151.706 96.8125 151.352C97.0521 150.992 97.401 150.711 97.8594 150.508C98.3177 150.305 98.8724 150.185 99.5234 150.148L102.617 149.961V151.047L99.6875 151.234C99.0469 151.271 98.5781 151.404 98.2812 151.633C97.9896 151.862 97.8438 152.185 97.8438 152.602V152.617C97.8438 153.044 98.0052 153.378 98.3281 153.617C98.651 153.852 99.0573 153.969 99.5469 153.969C100.01 153.969 100.422 153.878 100.781 153.695C101.141 153.508 101.422 153.255 101.625 152.938C101.833 152.62 101.938 152.26 101.938 151.859V149.234C101.938 148.714 101.779 148.318 101.461 148.047C101.148 147.771 100.677 147.633 100.047 147.633C99.5417 147.633 99.1276 147.724 98.8047 147.906C98.4818 148.083 98.2656 148.336 98.1562 148.664L98.1484 148.688H96.7891L96.7969 148.641C96.8698 148.198 97.0521 147.812 97.3438 147.484C97.6406 147.151 98.0234 146.893 98.4922 146.711C98.9609 146.523 99.4948 146.43 100.094 146.43C100.781 146.43 101.362 146.542 101.836 146.766C102.315 146.99 102.677 147.312 102.922 147.734C103.172 148.151 103.297 148.651 103.297 149.234V155H101.938V153.758H101.812C101.635 154.055 101.419 154.307 101.164 154.516C100.914 154.724 100.63 154.883 100.312 154.992C99.9948 155.096 99.6458 155.148 99.2656 155.148ZM108.773 155.062C107.909 155.062 107.281 154.888 106.891 154.539C106.505 154.19 106.312 153.615 106.312 152.812V147.703H104.984V146.578H106.312V144.398H107.719V146.578H109.562V147.703H107.719V152.469C107.719 152.964 107.812 153.32 108 153.539C108.188 153.753 108.5 153.859 108.938 153.859C109.057 153.859 109.159 153.857 109.242 153.852C109.331 153.846 109.438 153.839 109.562 153.828V154.984C109.432 155.005 109.302 155.023 109.172 155.039C109.042 155.055 108.909 155.062 108.773 155.062ZM114.922 155.148C114.12 155.148 113.43 154.971 112.852 154.617C112.279 154.263 111.836 153.763 111.523 153.117C111.216 152.466 111.062 151.701 111.062 150.82V150.812C111.062 149.943 111.216 149.18 111.523 148.523C111.836 147.867 112.276 147.354 112.844 146.984C113.411 146.615 114.076 146.43 114.836 146.43C115.602 146.43 116.258 146.607 116.805 146.961C117.357 147.315 117.779 147.81 118.07 148.445C118.367 149.076 118.516 149.81 118.516 150.648V151.18H111.766V150.094H117.82L117.148 151.086V150.547C117.148 149.885 117.049 149.341 116.852 148.914C116.654 148.487 116.38 148.169 116.031 147.961C115.682 147.747 115.281 147.641 114.828 147.641C114.375 147.641 113.969 147.753 113.609 147.977C113.255 148.195 112.974 148.521 112.766 148.953C112.557 149.385 112.453 149.917 112.453 150.547V151.086C112.453 151.685 112.555 152.198 112.758 152.625C112.961 153.047 113.25 153.372 113.625 153.602C114 153.826 114.443 153.938 114.953 153.938C115.333 153.938 115.664 153.885 115.945 153.781C116.227 153.677 116.458 153.544 116.641 153.383C116.823 153.221 116.951 153.057 117.023 152.891L117.055 152.82H118.414L118.398 152.883C118.326 153.169 118.195 153.448 118.008 153.719C117.826 153.984 117.589 154.227 117.297 154.445C117.005 154.659 116.659 154.831 116.258 154.961C115.862 155.086 115.417 155.148 114.922 155.148Z" fill="white"/>
<path d="M49.4375 192V180.727H53.7422C54.4661 180.727 55.0964 180.867 55.6328 181.148C56.1745 181.424 56.5938 181.812 56.8906 182.312C57.1875 182.812 57.3359 183.401 57.3359 184.078V184.094C57.3359 184.875 57.1354 185.552 56.7344 186.125C56.3333 186.698 55.7786 187.096 55.0703 187.32L57.6797 192H56.0312L53.6172 187.539C53.6068 187.539 53.5938 187.539 53.5781 187.539C53.5625 187.539 53.5495 187.539 53.5391 187.539H50.8438V192H49.4375ZM50.8438 186.289H53.6172C54.3411 186.289 54.8984 186.104 55.2891 185.734C55.6849 185.359 55.8828 184.828 55.8828 184.141V184.125C55.8828 183.453 55.6771 182.927 55.2656 182.547C54.8542 182.167 54.2839 181.977 53.5547 181.977H50.8438V186.289ZM62.9219 192.148C62.1198 192.148 61.4297 191.971 60.8516 191.617C60.2786 191.263 59.8359 190.763 59.5234 190.117C59.2161 189.466 59.0625 188.701 59.0625 187.82V187.812C59.0625 186.943 59.2161 186.18 59.5234 185.523C59.8359 184.867 60.276 184.354 60.8438 183.984C61.4115 183.615 62.0755 183.43 62.8359 183.43C63.6016 183.43 64.2578 183.607 64.8047 183.961C65.3568 184.315 65.7786 184.81 66.0703 185.445C66.3672 186.076 66.5156 186.81 66.5156 187.648V188.18H59.7656V187.094H65.8203L65.1484 188.086V187.547C65.1484 186.885 65.0495 186.341 64.8516 185.914C64.6536 185.487 64.3802 185.169 64.0312 184.961C63.6823 184.747 63.2812 184.641 62.8281 184.641C62.375 184.641 61.9688 184.753 61.6094 184.977C61.2552 185.195 60.974 185.521 60.7656 185.953C60.5573 186.385 60.4531 186.917 60.4531 187.547V188.086C60.4531 188.685 60.5547 189.198 60.7578 189.625C60.9609 190.047 61.25 190.372 61.625 190.602C62 190.826 62.4427 190.938 62.9531 190.938C63.3333 190.938 63.6641 190.885 63.9453 190.781C64.2266 190.677 64.4583 190.544 64.6406 190.383C64.8229 190.221 64.9505 190.057 65.0234 189.891L65.0547 189.82H66.4141L66.3984 189.883C66.3255 190.169 66.1953 190.448 66.0078 190.719C65.8255 190.984 65.5885 191.227 65.2969 191.445C65.0052 191.659 64.6589 191.831 64.2578 191.961C63.862 192.086 63.4167 192.148 62.9219 192.148ZM68.625 192V183.578H69.9844V184.844H70.1094C70.3229 184.396 70.6302 184.049 71.0312 183.805C71.4323 183.555 71.9427 183.43 72.5625 183.43C73.5104 183.43 74.237 183.701 74.7422 184.242C75.2526 184.779 75.5078 185.547 75.5078 186.547V192H74.1484V186.875C74.1484 186.115 73.987 185.552 73.6641 185.188C73.3464 184.818 72.8516 184.633 72.1797 184.633C71.7318 184.633 71.3438 184.729 71.0156 184.922C70.6875 185.115 70.4323 185.388 70.25 185.742C70.0729 186.096 69.9844 186.521 69.9844 187.016V192H68.625ZM80.2812 192.148C79.75 192.148 79.2708 192.047 78.8438 191.844C78.4219 191.641 78.0859 191.352 77.8359 190.977C77.5911 190.602 77.4688 190.159 77.4688 189.648V189.633C77.4688 189.133 77.5885 188.706 77.8281 188.352C78.0677 187.992 78.4167 187.711 78.875 187.508C79.3333 187.305 79.888 187.185 80.5391 187.148L83.6328 186.961V188.047L80.7031 188.234C80.0625 188.271 79.5938 188.404 79.2969 188.633C79.0052 188.862 78.8594 189.185 78.8594 189.602V189.617C78.8594 190.044 79.0208 190.378 79.3438 190.617C79.6667 190.852 80.0729 190.969 80.5625 190.969C81.026 190.969 81.4375 190.878 81.7969 190.695C82.1562 190.508 82.4375 190.255 82.6406 189.938C82.849 189.62 82.9531 189.26 82.9531 188.859V186.234C82.9531 185.714 82.7943 185.318 82.4766 185.047C82.1641 184.771 81.6927 184.633 81.0625 184.633C80.5573 184.633 80.1432 184.724 79.8203 184.906C79.4974 185.083 79.2812 185.336 79.1719 185.664L79.1641 185.688H77.8047L77.8125 185.641C77.8854 185.198 78.0677 184.812 78.3594 184.484C78.6562 184.151 79.0391 183.893 79.5078 183.711C79.9766 183.523 80.5104 183.43 81.1094 183.43C81.7969 183.43 82.3776 183.542 82.8516 183.766C83.3307 183.99 83.6927 184.312 83.9375 184.734C84.1875 185.151 84.3125 185.651 84.3125 186.234V192H82.9531V190.758H82.8281C82.651 191.055 82.4349 191.307 82.1797 191.516C81.9297 191.724 81.6458 191.883 81.3281 191.992C81.0104 192.096 80.6615 192.148 80.2812 192.148ZM86.7969 192V183.578H88.1562V184.859H88.2812C88.4688 184.406 88.7552 184.055 89.1406 183.805C89.5312 183.555 90.0026 183.43 90.5547 183.43C90.9349 183.43 91.276 183.492 91.5781 183.617C91.8802 183.742 92.1406 183.917 92.3594 184.141C92.5781 184.359 92.7526 184.615 92.8828 184.906H93.0078C93.1589 184.609 93.362 184.352 93.6172 184.133C93.8724 183.909 94.1667 183.737 94.5 183.617C94.8385 183.492 95.2005 183.43 95.5859 183.43C96.1589 183.43 96.6432 183.536 97.0391 183.75C97.4401 183.964 97.7448 184.276 97.9531 184.688C98.1615 185.094 98.2656 185.591 98.2656 186.18V192H96.9062V186.492C96.9062 186.076 96.8411 185.732 96.7109 185.461C96.5859 185.185 96.3932 184.979 96.1328 184.844C95.8724 184.703 95.5443 184.633 95.1484 184.633C94.7578 184.633 94.4167 184.721 94.125 184.898C93.8333 185.076 93.6068 185.312 93.4453 185.609C93.2839 185.901 93.2031 186.227 93.2031 186.586V192H91.8438V186.281C91.8438 185.948 91.7708 185.659 91.625 185.414C91.4844 185.164 91.2812 184.971 91.0156 184.836C90.7552 184.701 90.4479 184.633 90.0938 184.633C89.7292 184.633 89.3984 184.729 89.1016 184.922C88.8099 185.115 88.5781 185.375 88.4062 185.703C88.2396 186.026 88.1562 186.385 88.1562 186.781V192H86.7969ZM104.156 192.148C103.354 192.148 102.664 191.971 102.086 191.617C101.513 191.263 101.07 190.763 100.758 190.117C100.451 189.466 100.297 188.701 100.297 187.82V187.812C100.297 186.943 100.451 186.18 100.758 185.523C101.07 184.867 101.51 184.354 102.078 183.984C102.646 183.615 103.31 183.43 104.07 183.43C104.836 183.43 105.492 183.607 106.039 183.961C106.591 184.315 107.013 184.81 107.305 185.445C107.602 186.076 107.75 186.81 107.75 187.648V188.18H101V187.094H107.055L106.383 188.086V187.547C106.383 186.885 106.284 186.341 106.086 185.914C105.888 185.487 105.615 185.169 105.266 184.961C104.917 184.747 104.516 184.641 104.062 184.641C103.609 184.641 103.203 184.753 102.844 184.977C102.49 185.195 102.208 185.521 102 185.953C101.792 186.385 101.688 186.917 101.688 187.547V188.086C101.688 188.685 101.789 189.198 101.992 189.625C102.195 190.047 102.484 190.372 102.859 190.602C103.234 190.826 103.677 190.938 104.188 190.938C104.568 190.938 104.898 190.885 105.18 190.781C105.461 190.677 105.693 190.544 105.875 190.383C106.057 190.221 106.185 190.057 106.258 189.891L106.289 189.82H107.648L107.633 189.883C107.56 190.169 107.43 190.448 107.242 190.719C107.06 190.984 106.823 191.227 106.531 191.445C106.24 191.659 105.893 191.831 105.492 191.961C105.096 192.086 104.651 192.148 104.156 192.148Z" fill="white"/>
<path d="M54.1094 229.266C53.3281 229.266 52.6224 229.128 51.9922 228.852C51.3672 228.576 50.8307 228.18 50.3828 227.664C49.9401 227.148 49.599 226.529 49.3594 225.805C49.1198 225.081 49 224.268 49 223.367V223.352C49 222.164 49.2109 221.13 49.6328 220.25C50.0547 219.365 50.6484 218.68 51.4141 218.195C52.1849 217.706 53.0833 217.461 54.1094 217.461C54.9427 217.461 55.6849 217.609 56.3359 217.906C56.9922 218.198 57.5312 218.609 57.9531 219.141C58.3802 219.672 58.6667 220.294 58.8125 221.008L58.8281 221.086H57.4062L57.3828 221.008C57.1536 220.279 56.7604 219.721 56.2031 219.336C55.6458 218.951 54.9479 218.758 54.1094 218.758C53.3646 218.758 52.7161 218.948 52.1641 219.328C51.6172 219.703 51.1927 220.234 50.8906 220.922C50.5885 221.609 50.4375 222.419 50.4375 223.352V223.367C50.4375 224.076 50.5208 224.714 50.6875 225.281C50.8594 225.849 51.1042 226.333 51.4219 226.734C51.7448 227.13 52.1328 227.435 52.5859 227.648C53.0391 227.862 53.5495 227.969 54.1172 227.969C54.7891 227.969 55.3776 227.836 55.8828 227.57C56.3932 227.299 56.7891 226.924 57.0703 226.445C57.3516 225.966 57.4922 225.409 57.4922 224.773V224.5H54.3281V223.266H58.8984V224.641C58.8984 225.333 58.7839 225.964 58.5547 226.531C58.3307 227.099 58.0078 227.589 57.5859 228C57.1641 228.406 56.6589 228.719 56.0703 228.938C55.4818 229.156 54.8281 229.266 54.1094 229.266ZM64.6797 229.148C63.8828 229.148 63.1927 228.974 62.6094 228.625C62.0312 228.271 61.5833 227.768 61.2656 227.117C60.9531 226.466 60.7969 225.693 60.7969 224.797V224.781C60.7969 223.88 60.9531 223.104 61.2656 222.453C61.5833 221.802 62.0312 221.302 62.6094 220.953C63.1927 220.604 63.8828 220.43 64.6797 220.43C65.4818 220.43 66.1719 220.604 66.75 220.953C67.3281 221.302 67.7734 221.802 68.0859 222.453C68.4036 223.104 68.5625 223.88 68.5625 224.781V224.797C68.5625 225.693 68.4036 226.466 68.0859 227.117C67.7734 227.768 67.3281 228.271 66.75 228.625C66.1719 228.974 65.4818 229.148 64.6797 229.148ZM64.6797 227.945C65.2109 227.945 65.6615 227.82 66.0312 227.57C66.401 227.32 66.6823 226.961 66.875 226.492C67.0729 226.023 67.1719 225.458 67.1719 224.797V224.781C67.1719 224.115 67.0729 223.547 66.875 223.078C66.6823 222.609 66.401 222.253 66.0312 222.008C65.6615 221.758 65.2109 221.633 64.6797 221.633C64.1484 221.633 63.6979 221.758 63.3281 222.008C62.9583 222.253 62.6745 222.609 62.4766 223.078C62.2839 223.547 62.1875 224.115 62.1875 224.781V224.797C62.1875 225.458 62.2839 226.023 62.4766 226.492C62.6745 226.961 62.9583 227.32 63.3281 227.57C63.6979 227.82 64.1484 227.945 64.6797 227.945ZM78.1641 229.062C77.2995 229.062 76.6719 228.888 76.2812 228.539C75.8958 228.19 75.7031 227.615 75.7031 226.812V221.703H74.375V220.578H75.7031V218.398H77.1094V220.578H78.9531V221.703H77.1094V226.469C77.1094 226.964 77.2031 227.32 77.3906 227.539C77.5781 227.753 77.8906 227.859 78.3281 227.859C78.4479 227.859 78.5495 227.857 78.6328 227.852C78.7214 227.846 78.8281 227.839 78.9531 227.828V228.984C78.8229 229.005 78.6927 229.023 78.5625 229.039C78.4323 229.055 78.2995 229.062 78.1641 229.062ZM84.3359 229.148C83.5391 229.148 82.849 228.974 82.2656 228.625C81.6875 228.271 81.2396 227.768 80.9219 227.117C80.6094 226.466 80.4531 225.693 80.4531 224.797V224.781C80.4531 223.88 80.6094 223.104 80.9219 222.453C81.2396 221.802 81.6875 221.302 82.2656 220.953C82.849 220.604 83.5391 220.43 84.3359 220.43C85.138 220.43 85.8281 220.604 86.4062 220.953C86.9844 221.302 87.4297 221.802 87.7422 222.453C88.0599 223.104 88.2188 223.88 88.2188 224.781V224.797C88.2188 225.693 88.0599 226.466 87.7422 227.117C87.4297 227.768 86.9844 228.271 86.4062 228.625C85.8281 228.974 85.138 229.148 84.3359 229.148ZM84.3359 227.945C84.8672 227.945 85.3177 227.82 85.6875 227.57C86.0573 227.32 86.3385 226.961 86.5312 226.492C86.7292 226.023 86.8281 225.458 86.8281 224.797V224.781C86.8281 224.115 86.7292 223.547 86.5312 223.078C86.3385 222.609 86.0573 222.253 85.6875 222.008C85.3177 221.758 84.8672 221.633 84.3359 221.633C83.8047 221.633 83.3542 221.758 82.9844 222.008C82.6146 222.253 82.3307 222.609 82.1328 223.078C81.9401 223.547 81.8438 224.115 81.8438 224.781V224.797C81.8438 225.458 81.9401 226.023 82.1328 226.492C82.3307 226.961 82.6146 227.32 82.9844 227.57C83.3542 227.82 83.8047 227.945 84.3359 227.945ZM94.8281 231.812V220.578H96.1875V221.922H96.3125C96.4844 221.609 96.7005 221.344 96.9609 221.125C97.2214 220.901 97.5182 220.729 97.8516 220.609C98.1849 220.49 98.5469 220.43 98.9375 220.43C99.651 220.43 100.271 220.612 100.797 220.977C101.328 221.336 101.74 221.841 102.031 222.492C102.323 223.143 102.469 223.906 102.469 224.781V224.797C102.469 225.677 102.323 226.443 102.031 227.094C101.74 227.745 101.328 228.25 100.797 228.609C100.271 228.969 99.651 229.148 98.9375 229.148C98.5521 229.148 98.1875 229.089 97.8438 228.969C97.5052 228.844 97.2031 228.672 96.9375 228.453C96.6771 228.234 96.4688 227.974 96.3125 227.672H96.1875V231.812H94.8281ZM98.625 227.945C99.1406 227.945 99.5807 227.82 99.9453 227.57C100.31 227.315 100.589 226.953 100.781 226.484C100.979 226.01 101.078 225.448 101.078 224.797V224.781C101.078 224.125 100.979 223.562 100.781 223.094C100.589 222.625 100.31 222.266 99.9453 222.016C99.5807 221.76 99.1406 221.633 98.625 221.633C98.1146 221.633 97.6745 221.76 97.3047 222.016C96.9349 222.271 96.651 222.633 96.4531 223.102C96.2552 223.57 96.1562 224.13 96.1562 224.781V224.797C96.1562 225.443 96.2552 226.003 96.4531 226.477C96.651 226.945 96.9349 227.307 97.3047 227.562C97.6745 227.818 98.1146 227.945 98.625 227.945ZM104.594 229V220.578H105.953V221.828H106.078C106.24 221.385 106.513 221.042 106.898 220.797C107.284 220.552 107.76 220.43 108.328 220.43C108.458 220.43 108.586 220.438 108.711 220.453C108.841 220.464 108.94 220.474 109.008 220.484V221.805C108.867 221.779 108.729 221.76 108.594 221.75C108.464 221.734 108.323 221.727 108.172 221.727C107.74 221.727 107.357 221.812 107.023 221.984C106.69 222.156 106.427 222.396 106.234 222.703C106.047 223.01 105.953 223.37 105.953 223.781V229H104.594ZM113.914 229.148C113.117 229.148 112.427 228.974 111.844 228.625C111.266 228.271 110.818 227.768 110.5 227.117C110.188 226.466 110.031 225.693 110.031 224.797V224.781C110.031 223.88 110.188 223.104 110.5 222.453C110.818 221.802 111.266 221.302 111.844 220.953C112.427 220.604 113.117 220.43 113.914 220.43C114.716 220.43 115.406 220.604 115.984 220.953C116.562 221.302 117.008 221.802 117.32 222.453C117.638 223.104 117.797 223.88 117.797 224.781V224.797C117.797 225.693 117.638 226.466 117.32 227.117C117.008 227.768 116.562 228.271 115.984 228.625C115.406 228.974 114.716 229.148 113.914 229.148ZM113.914 227.945C114.445 227.945 114.896 227.82 115.266 227.57C115.635 227.32 115.917 226.961 116.109 226.492C116.307 226.023 116.406 225.458 116.406 224.797V224.781C116.406 224.115 116.307 223.547 116.109 223.078C115.917 222.609 115.635 222.253 115.266 222.008C114.896 221.758 114.445 221.633 113.914 221.633C113.383 221.633 112.932 221.758 112.562 222.008C112.193 222.253 111.909 222.609 111.711 223.078C111.518 223.547 111.422 224.115 111.422 224.781V224.797C111.422 225.458 111.518 226.023 111.711 226.492C111.909 226.961 112.193 227.32 112.562 227.57C112.932 227.82 113.383 227.945 113.914 227.945ZM118.703 231.891C118.667 231.891 118.63 231.891 118.594 231.891C118.552 231.891 118.51 231.891 118.469 231.891V230.688C118.505 230.688 118.539 230.688 118.57 230.688C118.602 230.688 118.635 230.688 118.672 230.688C119.13 230.688 119.453 230.594 119.641 230.406C119.833 230.224 119.93 229.901 119.93 229.438V220.578H121.289V229.414C121.289 230.279 121.078 230.906 120.656 231.297C120.24 231.693 119.589 231.891 118.703 231.891ZM120.609 218.953C120.354 218.953 120.133 218.862 119.945 218.68C119.763 218.492 119.672 218.271 119.672 218.016C119.672 217.755 119.763 217.534 119.945 217.352C120.133 217.169 120.354 217.078 120.609 217.078C120.87 217.078 121.091 217.169 121.273 217.352C121.456 217.534 121.547 217.755 121.547 218.016C121.547 218.271 121.456 218.492 121.273 218.68C121.091 218.862 120.87 218.953 120.609 218.953ZM127.297 229.148C126.495 229.148 125.805 228.971 125.227 228.617C124.654 228.263 124.211 227.763 123.898 227.117C123.591 226.466 123.438 225.701 123.438 224.82V224.812C123.438 223.943 123.591 223.18 123.898 222.523C124.211 221.867 124.651 221.354 125.219 220.984C125.786 220.615 126.451 220.43 127.211 220.43C127.977 220.43 128.633 220.607 129.18 220.961C129.732 221.315 130.154 221.81 130.445 222.445C130.742 223.076 130.891 223.81 130.891 224.648V225.18H124.141V224.094H130.195L129.523 225.086V224.547C129.523 223.885 129.424 223.341 129.227 222.914C129.029 222.487 128.755 222.169 128.406 221.961C128.057 221.747 127.656 221.641 127.203 221.641C126.75 221.641 126.344 221.753 125.984 221.977C125.63 222.195 125.349 222.521 125.141 222.953C124.932 223.385 124.828 223.917 124.828 224.547V225.086C124.828 225.685 124.93 226.198 125.133 226.625C125.336 227.047 125.625 227.372 126 227.602C126.375 227.826 126.818 227.938 127.328 227.938C127.708 227.938 128.039 227.885 128.32 227.781C128.602 227.677 128.833 227.544 129.016 227.383C129.198 227.221 129.326 227.057 129.398 226.891L129.43 226.82H130.789L130.773 226.883C130.701 227.169 130.57 227.448 130.383 227.719C130.201 227.984 129.964 228.227 129.672 228.445C129.38 228.659 129.034 228.831 128.633 228.961C128.237 229.086 127.792 229.148 127.297 229.148ZM136.445 229.148C135.659 229.148 134.977 228.969 134.398 228.609C133.82 228.25 133.372 227.742 133.055 227.086C132.737 226.43 132.578 225.656 132.578 224.766V224.75C132.578 223.875 132.734 223.115 133.047 222.469C133.365 221.823 133.812 221.323 134.391 220.969C134.969 220.609 135.651 220.43 136.438 220.43C137.12 220.43 137.708 220.549 138.203 220.789C138.698 221.029 139.094 221.352 139.391 221.758C139.688 222.159 139.878 222.609 139.961 223.109L139.969 223.156H138.617L138.609 223.133C138.505 222.716 138.268 222.362 137.898 222.07C137.529 221.779 137.042 221.633 136.438 221.633C135.932 221.633 135.495 221.76 135.125 222.016C134.755 222.271 134.469 222.633 134.266 223.102C134.068 223.565 133.969 224.115 133.969 224.75V224.766C133.969 225.411 134.07 225.974 134.273 226.453C134.477 226.927 134.763 227.294 135.133 227.555C135.503 227.815 135.938 227.945 136.438 227.945C137.005 227.945 137.469 227.823 137.828 227.578C138.188 227.333 138.445 226.977 138.602 226.508L138.617 226.461L139.961 226.453L139.945 226.539C139.831 227.044 139.628 227.495 139.336 227.891C139.044 228.281 138.659 228.589 138.18 228.812C137.701 229.036 137.122 229.148 136.445 229.148ZM145.102 229.062C144.237 229.062 143.609 228.888 143.219 228.539C142.833 228.19 142.641 227.615 142.641 226.812V221.703H141.312V220.578H142.641V218.398H144.047V220.578H145.891V221.703H144.047V226.469C144.047 226.964 144.141 227.32 144.328 227.539C144.516 227.753 144.828 227.859 145.266 227.859C145.385 227.859 145.487 227.857 145.57 227.852C145.659 227.846 145.766 227.839 145.891 227.828V228.984C145.76 229.005 145.63 229.023 145.5 229.039C145.37 229.055 145.237 229.062 145.102 229.062Z" fill="white"/>
<path d="M49.4375 266V254.727H51.0703L54.9297 264.133H55.0547L58.9141 254.727H60.5469V266H59.2344V257.391H58.5469L60.125 255.039L55.5859 266H54.3984L49.8672 255.039L51.4375 257.391H50.75V266H49.4375ZM66.7109 266.148C65.9141 266.148 65.224 265.974 64.6406 265.625C64.0625 265.271 63.6146 264.768 63.2969 264.117C62.9844 263.466 62.8281 262.693 62.8281 261.797V261.781C62.8281 260.88 62.9844 260.104 63.2969 259.453C63.6146 258.802 64.0625 258.302 64.6406 257.953C65.224 257.604 65.9141 257.43 66.7109 257.43C67.513 257.43 68.2031 257.604 68.7812 257.953C69.3594 258.302 69.8047 258.802 70.1172 259.453C70.4349 260.104 70.5938 260.88 70.5938 261.781V261.797C70.5938 262.693 70.4349 263.466 70.1172 264.117C69.8047 264.768 69.3594 265.271 68.7812 265.625C68.2031 265.974 67.513 266.148 66.7109 266.148ZM66.7109 264.945C67.2422 264.945 67.6927 264.82 68.0625 264.57C68.4323 264.32 68.7135 263.961 68.9062 263.492C69.1042 263.023 69.2031 262.458 69.2031 261.797V261.781C69.2031 261.115 69.1042 260.547 68.9062 260.078C68.7135 259.609 68.4323 259.253 68.0625 259.008C67.6927 258.758 67.2422 258.633 66.7109 258.633C66.1797 258.633 65.7292 258.758 65.3594 259.008C64.9896 259.253 64.7057 259.609 64.5078 260.078C64.3151 260.547 64.2188 261.115 64.2188 261.781V261.797C64.2188 262.458 64.3151 263.023 64.5078 263.492C64.7057 263.961 64.9896 264.32 65.3594 264.57C65.7292 264.82 66.1797 264.945 66.7109 264.945ZM74.7734 266L71.6562 257.578H73.0938L75.3984 264.516H75.5234L77.8281 257.578H79.2656L76.1484 266H74.7734ZM84.1875 266.148C83.3854 266.148 82.6953 265.971 82.1172 265.617C81.5443 265.263 81.1016 264.763 80.7891 264.117C80.4818 263.466 80.3281 262.701 80.3281 261.82V261.812C80.3281 260.943 80.4818 260.18 80.7891 259.523C81.1016 258.867 81.5417 258.354 82.1094 257.984C82.6771 257.615 83.3411 257.43 84.1016 257.43C84.8672 257.43 85.5234 257.607 86.0703 257.961C86.6224 258.315 87.0443 258.81 87.3359 259.445C87.6328 260.076 87.7812 260.81 87.7812 261.648V262.18H81.0312V261.094H87.0859L86.4141 262.086V261.547C86.4141 260.885 86.3151 260.341 86.1172 259.914C85.9193 259.487 85.6458 259.169 85.2969 258.961C84.9479 258.747 84.5469 258.641 84.0938 258.641C83.6406 258.641 83.2344 258.753 82.875 258.977C82.5208 259.195 82.2396 259.521 82.0312 259.953C81.8229 260.385 81.7188 260.917 81.7188 261.547V262.086C81.7188 262.685 81.8203 263.198 82.0234 263.625C82.2266 264.047 82.5156 264.372 82.8906 264.602C83.2656 264.826 83.7083 264.938 84.2188 264.938C84.599 264.938 84.9297 264.885 85.2109 264.781C85.4922 264.677 85.724 264.544 85.9062 264.383C86.0885 264.221 86.2161 264.057 86.2891 263.891L86.3203 263.82H87.6797L87.6641 263.883C87.5911 264.169 87.4609 264.448 87.2734 264.719C87.0911 264.984 86.8542 265.227 86.5625 265.445C86.2708 265.659 85.9245 265.831 85.5234 265.961C85.1276 266.086 84.6823 266.148 84.1875 266.148ZM97.3828 266.062C96.5182 266.062 95.8906 265.888 95.5 265.539C95.1146 265.19 94.9219 264.615 94.9219 263.812V258.703H93.5938V257.578H94.9219V255.398H96.3281V257.578H98.1719V258.703H96.3281V263.469C96.3281 263.964 96.4219 264.32 96.6094 264.539C96.7969 264.753 97.1094 264.859 97.5469 264.859C97.6667 264.859 97.7682 264.857 97.8516 264.852C97.9401 264.846 98.0469 264.839 98.1719 264.828V265.984C98.0417 266.005 97.9115 266.023 97.7812 266.039C97.651 266.055 97.5182 266.062 97.3828 266.062ZM103.555 266.148C102.758 266.148 102.068 265.974 101.484 265.625C100.906 265.271 100.458 264.768 100.141 264.117C99.8281 263.466 99.6719 262.693 99.6719 261.797V261.781C99.6719 260.88 99.8281 260.104 100.141 259.453C100.458 258.802 100.906 258.302 101.484 257.953C102.068 257.604 102.758 257.43 103.555 257.43C104.357 257.43 105.047 257.604 105.625 257.953C106.203 258.302 106.648 258.802 106.961 259.453C107.279 260.104 107.438 260.88 107.438 261.781V261.797C107.438 262.693 107.279 263.466 106.961 264.117C106.648 264.768 106.203 265.271 105.625 265.625C105.047 265.974 104.357 266.148 103.555 266.148ZM103.555 264.945C104.086 264.945 104.536 264.82 104.906 264.57C105.276 264.32 105.557 263.961 105.75 263.492C105.948 263.023 106.047 262.458 106.047 261.797V261.781C106.047 261.115 105.948 260.547 105.75 260.078C105.557 259.609 105.276 259.253 104.906 259.008C104.536 258.758 104.086 258.633 103.555 258.633C103.023 258.633 102.573 258.758 102.203 259.008C101.833 259.253 101.549 259.609 101.352 260.078C101.159 260.547 101.062 261.115 101.062 261.781V261.797C101.062 262.458 101.159 263.023 101.352 263.492C101.549 263.961 101.833 264.32 102.203 264.57C102.573 264.82 103.023 264.945 103.555 264.945ZM114.047 268.812V257.578H115.406V258.922H115.531C115.703 258.609 115.919 258.344 116.18 258.125C116.44 257.901 116.737 257.729 117.07 257.609C117.404 257.49 117.766 257.43 118.156 257.43C118.87 257.43 119.49 257.612 120.016 257.977C120.547 258.336 120.958 258.841 121.25 259.492C121.542 260.143 121.688 260.906 121.688 261.781V261.797C121.688 262.677 121.542 263.443 121.25 264.094C120.958 264.745 120.547 265.25 120.016 265.609C119.49 265.969 118.87 266.148 118.156 266.148C117.771 266.148 117.406 266.089 117.062 265.969C116.724 265.844 116.422 265.672 116.156 265.453C115.896 265.234 115.688 264.974 115.531 264.672H115.406V268.812H114.047ZM117.844 264.945C118.359 264.945 118.799 264.82 119.164 264.57C119.529 264.315 119.807 263.953 120 263.484C120.198 263.01 120.297 262.448 120.297 261.797V261.781C120.297 261.125 120.198 260.562 120 260.094C119.807 259.625 119.529 259.266 119.164 259.016C118.799 258.76 118.359 258.633 117.844 258.633C117.333 258.633 116.893 258.76 116.523 259.016C116.154 259.271 115.87 259.633 115.672 260.102C115.474 260.57 115.375 261.13 115.375 261.781V261.797C115.375 262.443 115.474 263.003 115.672 263.477C115.87 263.945 116.154 264.307 116.523 264.562C116.893 264.818 117.333 264.945 117.844 264.945ZM123.812 266V257.578H125.172V258.828H125.297C125.458 258.385 125.732 258.042 126.117 257.797C126.503 257.552 126.979 257.43 127.547 257.43C127.677 257.43 127.805 257.438 127.93 257.453C128.06 257.464 128.159 257.474 128.227 257.484V258.805C128.086 258.779 127.948 258.76 127.812 258.75C127.682 258.734 127.542 258.727 127.391 258.727C126.958 258.727 126.576 258.812 126.242 258.984C125.909 259.156 125.646 259.396 125.453 259.703C125.266 260.01 125.172 260.37 125.172 260.781V266H123.812ZM133.133 266.148C132.336 266.148 131.646 265.974 131.062 265.625C130.484 265.271 130.036 264.768 129.719 264.117C129.406 263.466 129.25 262.693 129.25 261.797V261.781C129.25 260.88 129.406 260.104 129.719 259.453C130.036 258.802 130.484 258.302 131.062 257.953C131.646 257.604 132.336 257.43 133.133 257.43C133.935 257.43 134.625 257.604 135.203 257.953C135.781 258.302 136.227 258.802 136.539 259.453C136.857 260.104 137.016 260.88 137.016 261.781V261.797C137.016 262.693 136.857 263.466 136.539 264.117C136.227 264.768 135.781 265.271 135.203 265.625C134.625 265.974 133.935 266.148 133.133 266.148ZM133.133 264.945C133.664 264.945 134.115 264.82 134.484 264.57C134.854 264.32 135.135 263.961 135.328 263.492C135.526 263.023 135.625 262.458 135.625 261.797V261.781C135.625 261.115 135.526 260.547 135.328 260.078C135.135 259.609 134.854 259.253 134.484 259.008C134.115 258.758 133.664 258.633 133.133 258.633C132.602 258.633 132.151 258.758 131.781 259.008C131.411 259.253 131.128 259.609 130.93 260.078C130.737 260.547 130.641 261.115 130.641 261.781V261.797C130.641 262.458 130.737 263.023 130.93 263.492C131.128 263.961 131.411 264.32 131.781 264.57C132.151 264.82 132.602 264.945 133.133 264.945ZM137.922 268.891C137.885 268.891 137.849 268.891 137.812 268.891C137.771 268.891 137.729 268.891 137.688 268.891V267.688C137.724 267.688 137.758 267.688 137.789 267.688C137.82 267.688 137.854 267.688 137.891 267.688C138.349 267.688 138.672 267.594 138.859 267.406C139.052 267.224 139.148 266.901 139.148 266.438V257.578H140.508V266.414C140.508 267.279 140.297 267.906 139.875 268.297C139.458 268.693 138.807 268.891 137.922 268.891ZM139.828 255.953C139.573 255.953 139.352 255.862 139.164 255.68C138.982 255.492 138.891 255.271 138.891 255.016C138.891 254.755 138.982 254.534 139.164 254.352C139.352 254.169 139.573 254.078 139.828 254.078C140.089 254.078 140.31 254.169 140.492 254.352C140.674 254.534 140.766 254.755 140.766 255.016C140.766 255.271 140.674 255.492 140.492 255.68C140.31 255.862 140.089 255.953 139.828 255.953ZM146.516 266.148C145.714 266.148 145.023 265.971 144.445 265.617C143.872 265.263 143.43 264.763 143.117 264.117C142.81 263.466 142.656 262.701 142.656 261.82V261.812C142.656 260.943 142.81 260.18 143.117 259.523C143.43 258.867 143.87 258.354 144.438 257.984C145.005 257.615 145.669 257.43 146.43 257.43C147.195 257.43 147.852 257.607 148.398 257.961C148.951 258.315 149.372 258.81 149.664 259.445C149.961 260.076 150.109 260.81 150.109 261.648V262.18H143.359V261.094H149.414L148.742 262.086V261.547C148.742 260.885 148.643 260.341 148.445 259.914C148.247 259.487 147.974 259.169 147.625 258.961C147.276 258.747 146.875 258.641 146.422 258.641C145.969 258.641 145.562 258.753 145.203 258.977C144.849 259.195 144.568 259.521 144.359 259.953C144.151 260.385 144.047 260.917 144.047 261.547V262.086C144.047 262.685 144.148 263.198 144.352 263.625C144.555 264.047 144.844 264.372 145.219 264.602C145.594 264.826 146.036 264.938 146.547 264.938C146.927 264.938 147.258 264.885 147.539 264.781C147.82 264.677 148.052 264.544 148.234 264.383C148.417 264.221 148.544 264.057 148.617 263.891L148.648 263.82H150.008L149.992 263.883C149.919 264.169 149.789 264.448 149.602 264.719C149.419 264.984 149.182 265.227 148.891 265.445C148.599 265.659 148.253 265.831 147.852 265.961C147.456 266.086 147.01 266.148 146.516 266.148ZM155.664 266.148C154.878 266.148 154.195 265.969 153.617 265.609C153.039 265.25 152.591 264.742 152.273 264.086C151.956 263.43 151.797 262.656 151.797 261.766V261.75C151.797 260.875 151.953 260.115 152.266 259.469C152.583 258.823 153.031 258.323 153.609 257.969C154.188 257.609 154.87 257.43 155.656 257.43C156.339 257.43 156.927 257.549 157.422 257.789C157.917 258.029 158.312 258.352 158.609 258.758C158.906 259.159 159.096 259.609 159.18 260.109L159.188 260.156H157.836L157.828 260.133C157.724 259.716 157.487 259.362 157.117 259.07C156.747 258.779 156.26 258.633 155.656 258.633C155.151 258.633 154.714 258.76 154.344 259.016C153.974 259.271 153.688 259.633 153.484 260.102C153.286 260.565 153.188 261.115 153.188 261.75V261.766C153.188 262.411 153.289 262.974 153.492 263.453C153.695 263.927 153.982 264.294 154.352 264.555C154.721 264.815 155.156 264.945 155.656 264.945C156.224 264.945 156.688 264.823 157.047 264.578C157.406 264.333 157.664 263.977 157.82 263.508L157.836 263.461L159.18 263.453L159.164 263.539C159.049 264.044 158.846 264.495 158.555 264.891C158.263 265.281 157.878 265.589 157.398 265.812C156.919 266.036 156.341 266.148 155.664 266.148ZM164.32 266.062C163.456 266.062 162.828 265.888 162.438 265.539C162.052 265.19 161.859 264.615 161.859 263.812V258.703H160.531V257.578H161.859V255.398H163.266V257.578H165.109V258.703H163.266V263.469C163.266 263.964 163.359 264.32 163.547 264.539C163.734 264.753 164.047 264.859 164.484 264.859C164.604 264.859 164.706 264.857 164.789 264.852C164.878 264.846 164.984 264.839 165.109 264.828V265.984C164.979 266.005 164.849 266.023 164.719 266.039C164.589 266.055 164.456 266.062 164.32 266.062ZM168.25 266.078C167.974 266.078 167.734 265.979 167.531 265.781C167.333 265.578 167.234 265.339 167.234 265.062C167.234 264.781 167.333 264.542 167.531 264.344C167.734 264.146 167.974 264.047 168.25 264.047C168.531 264.047 168.771 264.146 168.969 264.344C169.167 264.542 169.266 264.781 169.266 265.062C169.266 265.339 169.167 265.578 168.969 265.781C168.771 265.979 168.531 266.078 168.25 266.078ZM173 266.078C172.724 266.078 172.484 265.979 172.281 265.781C172.083 265.578 171.984 265.339 171.984 265.062C171.984 264.781 172.083 264.542 172.281 264.344C172.484 264.146 172.724 264.047 173 264.047C173.281 264.047 173.521 264.146 173.719 264.344C173.917 264.542 174.016 264.781 174.016 265.062C174.016 265.339 173.917 265.578 173.719 265.781C173.521 265.979 173.281 266.078 173 266.078ZM177.75 266.078C177.474 266.078 177.234 265.979 177.031 265.781C176.833 265.578 176.734 265.339 176.734 265.062C176.734 264.781 176.833 264.542 177.031 264.344C177.234 264.146 177.474 264.047 177.75 264.047C178.031 264.047 178.271 264.146 178.469 264.344C178.667 264.542 178.766 264.781 178.766 265.062C178.766 265.339 178.667 265.578 178.469 265.781C178.271 265.979 178.031 266.078 177.75 266.078Z" fill="white"/>
<path d="M49.4375 303V291.726H53.3047C54.4193 291.726 55.3724 291.95 56.1641 292.398C56.9609 292.841 57.5703 293.482 57.9922 294.32C58.4141 295.159 58.625 296.169 58.625 297.351V297.367C58.625 298.549 58.4141 299.562 57.9922 300.406C57.5703 301.245 56.9635 301.888 56.1719 302.336C55.3802 302.778 54.4245 303 53.3047 303H49.4375ZM50.8438 301.734H53.2109C54.0495 301.734 54.7656 301.562 55.3594 301.219C55.9531 300.875 56.4062 300.377 56.7188 299.726C57.0312 299.075 57.1875 298.294 57.1875 297.383V297.367C57.1875 296.45 57.0286 295.666 56.7109 295.015C56.3984 294.359 55.9453 293.859 55.3516 293.515C54.7578 293.166 54.0443 292.992 53.2109 292.992H50.8438V301.734ZM64.3281 303.148C63.526 303.148 62.8359 302.971 62.2578 302.617C61.6849 302.263 61.2422 301.763 60.9297 301.117C60.6224 300.466 60.4688 299.7 60.4688 298.82V298.812C60.4688 297.942 60.6224 297.179 60.9297 296.523C61.2422 295.867 61.6823 295.354 62.25 294.984C62.8177 294.614 63.4818 294.429 64.2422 294.429C65.0078 294.429 65.6641 294.607 66.2109 294.961C66.763 295.315 67.1849 295.81 67.4766 296.445C67.7734 297.075 67.9219 297.81 67.9219 298.648V299.179H61.1719V298.094H67.2266L66.5547 299.086V298.547C66.5547 297.885 66.4557 297.341 66.2578 296.914C66.0599 296.487 65.7865 296.169 65.4375 295.961C65.0885 295.747 64.6875 295.64 64.2344 295.64C63.7812 295.64 63.375 295.752 63.0156 295.976C62.6615 296.195 62.3802 296.521 62.1719 296.953C61.9635 297.385 61.8594 297.916 61.8594 298.547V299.086C61.8594 299.685 61.9609 300.198 62.1641 300.625C62.3672 301.047 62.6562 301.372 63.0312 301.601C63.4062 301.825 63.849 301.937 64.3594 301.937C64.7396 301.937 65.0703 301.885 65.3516 301.781C65.6328 301.677 65.8646 301.544 66.0469 301.383C66.2292 301.221 66.3568 301.057 66.4297 300.89L66.4609 300.82H67.8203L67.8047 300.883C67.7318 301.169 67.6016 301.448 67.4141 301.719C67.2318 301.984 66.9948 302.226 66.7031 302.445C66.4115 302.659 66.0651 302.83 65.6641 302.961C65.2682 303.086 64.8229 303.148 64.3281 303.148ZM70.1094 303V291.234H71.4688V303H70.1094ZM77.5156 303.148C76.7135 303.148 76.0234 302.971 75.4453 302.617C74.8724 302.263 74.4297 301.763 74.1172 301.117C73.8099 300.466 73.6562 299.7 73.6562 298.82V298.812C73.6562 297.942 73.8099 297.179 74.1172 296.523C74.4297 295.867 74.8698 295.354 75.4375 294.984C76.0052 294.614 76.6693 294.429 77.4297 294.429C78.1953 294.429 78.8516 294.607 79.3984 294.961C79.9505 295.315 80.3724 295.81 80.6641 296.445C80.9609 297.075 81.1094 297.81 81.1094 298.648V299.179H74.3594V298.094H80.4141L79.7422 299.086V298.547C79.7422 297.885 79.6432 297.341 79.4453 296.914C79.2474 296.487 78.974 296.169 78.625 295.961C78.276 295.747 77.875 295.64 77.4219 295.64C76.9688 295.64 76.5625 295.752 76.2031 295.976C75.849 296.195 75.5677 296.521 75.3594 296.953C75.151 297.385 75.0469 297.916 75.0469 298.547V299.086C75.0469 299.685 75.1484 300.198 75.3516 300.625C75.5547 301.047 75.8438 301.372 76.2188 301.601C76.5938 301.825 77.0365 301.937 77.5469 301.937C77.9271 301.937 78.2578 301.885 78.5391 301.781C78.8203 301.677 79.0521 301.544 79.2344 301.383C79.4167 301.221 79.5443 301.057 79.6172 300.89L79.6484 300.82H81.0078L80.9922 300.883C80.9193 301.169 80.7891 301.448 80.6016 301.719C80.4193 301.984 80.1823 302.226 79.8906 302.445C79.599 302.659 79.2526 302.83 78.8516 302.961C78.4557 303.086 78.0104 303.148 77.5156 303.148ZM86.2109 303.062C85.3464 303.062 84.7188 302.888 84.3281 302.539C83.9427 302.19 83.75 301.614 83.75 300.812V295.703H82.4219V294.578H83.75V292.398H85.1562V294.578H87V295.703H85.1562V300.469C85.1562 300.963 85.25 301.32 85.4375 301.539C85.625 301.752 85.9375 301.859 86.375 301.859C86.4948 301.859 86.5964 301.857 86.6797 301.851C86.7682 301.846 86.875 301.838 87 301.828V302.984C86.8698 303.005 86.7396 303.023 86.6094 303.039C86.4792 303.054 86.3464 303.062 86.2109 303.062ZM92.3594 303.148C91.5573 303.148 90.8672 302.971 90.2891 302.617C89.7161 302.263 89.2734 301.763 88.9609 301.117C88.6536 300.466 88.5 299.7 88.5 298.82V298.812C88.5 297.942 88.6536 297.179 88.9609 296.523C89.2734 295.867 89.7135 295.354 90.2812 294.984C90.849 294.614 91.513 294.429 92.2734 294.429C93.0391 294.429 93.6953 294.607 94.2422 294.961C94.7943 295.315 95.2161 295.81 95.5078 296.445C95.8047 297.075 95.9531 297.81 95.9531 298.648V299.179H89.2031V298.094H95.2578L94.5859 299.086V298.547C94.5859 297.885 94.487 297.341 94.2891 296.914C94.0911 296.487 93.8177 296.169 93.4688 295.961C93.1198 295.747 92.7188 295.64 92.2656 295.64C91.8125 295.64 91.4062 295.752 91.0469 295.976C90.6927 296.195 90.4115 296.521 90.2031 296.953C89.9948 297.385 89.8906 297.916 89.8906 298.547V299.086C89.8906 299.685 89.9922 300.198 90.1953 300.625C90.3984 301.047 90.6875 301.372 91.0625 301.601C91.4375 301.825 91.8802 301.937 92.3906 301.937C92.7708 301.937 93.1016 301.885 93.3828 301.781C93.6641 301.677 93.8958 301.544 94.0781 301.383C94.2604 301.221 94.388 301.057 94.4609 300.89L94.4922 300.82H95.8516L95.8359 300.883C95.763 301.169 95.6328 301.448 95.4453 301.719C95.263 301.984 95.026 302.226 94.7344 302.445C94.4427 302.659 94.0964 302.83 93.6953 302.961C93.2995 303.086 92.8542 303.148 92.3594 303.148ZM99.1719 303.078C98.8958 303.078 98.6562 302.979 98.4531 302.781C98.2552 302.578 98.1562 302.338 98.1562 302.062C98.1562 301.781 98.2552 301.541 98.4531 301.344C98.6562 301.146 98.8958 301.047 99.1719 301.047C99.4531 301.047 99.6927 301.146 99.8906 301.344C100.089 301.541 100.188 301.781 100.188 302.062C100.188 302.338 100.089 302.578 99.8906 302.781C99.6927 302.979 99.4531 303.078 99.1719 303.078ZM103.922 303.078C103.646 303.078 103.406 302.979 103.203 302.781C103.005 302.578 102.906 302.338 102.906 302.062C102.906 301.781 103.005 301.541 103.203 301.344C103.406 301.146 103.646 301.047 103.922 301.047C104.203 301.047 104.443 301.146 104.641 301.344C104.839 301.541 104.938 301.781 104.938 302.062C104.938 302.338 104.839 302.578 104.641 302.781C104.443 302.979 104.203 303.078 103.922 303.078ZM108.672 303.078C108.396 303.078 108.156 302.979 107.953 302.781C107.755 302.578 107.656 302.338 107.656 302.062C107.656 301.781 107.755 301.541 107.953 301.344C108.156 301.146 108.396 301.047 108.672 301.047C108.953 301.047 109.193 301.146 109.391 301.344C109.589 301.541 109.688 301.781 109.688 302.062C109.688 302.338 109.589 302.578 109.391 302.781C109.193 302.979 108.953 303.078 108.672 303.078Z" fill="white"/>
<path d="M161 23L164.586 19.4142C165.367 18.6332 166.633 18.6332 167.414 19.4142L171 23L161 23Z" fill="#1E1E1E"/>
</g>
<rect x="32.5" y="22.5" width="267" height="300" rx="1.5" stroke="#373737"/>
</g>
<defs>
<filter id="filter0_d_5415_1757" x="0" y="0" width="332" height="365" filterUnits="userSpaceOnUse" color-interpolation-filters="sRGB">
<feFlood flood-opacity="0" result="BackgroundImageFix"/>
<feColorMatrix in="SourceAlpha" type="matrix" values="0 0 0 0 0 0 0 0 0 0 0 0 0 0 0 0 0 0 127 0" result="hardAlpha"/>
<feMorphology radius="16" operator="erode" in="SourceAlpha" result="effect1_dropShadow_5415_1757"/>
<feOffset dy="10"/>
<feGaussianBlur stdDeviation="24"/>
<feColorMatrix type="matrix" values="0 0 0 0 0 0 0 0 0 0 0 0 0 0 0 0 0 0 0.12 0"/>
<feBlend mode="normal" in2="BackgroundImageFix" result="effect1_dropShadow_5415_1757"/>
<feBlend mode="normal" in="SourceGraphic" in2="effect1_dropShadow_5415_1757" result="shape"/>
</filter>
<clipPath id="clip0_5415_1757">
<rect x="32" y="22" width="268" height="301" rx="2" fill="white"/>
</clipPath>
</defs>
</svg>
