<svg width="448" height="266" viewBox="0 0 448 266" fill="none" xmlns="http://www.w3.org/2000/svg">
<rect width="448" height="266" fill="#2A2C35"/>
<path d="M32.68 71.216V65.616H42.48C43.824 65.616 45 65.3547 46.008 64.832C47.0533 64.272 47.8747 63.5067 48.472 62.536C49.0693 61.528 49.368 60.352 49.368 59.008C49.368 57.664 49.0693 56.5067 48.472 55.536C47.8747 54.528 47.0533 53.7627 46.008 53.24C45 52.68 43.824 52.4 42.48 52.4H32.68V46.8H42.816C45.28 46.8 47.4827 47.304 49.424 48.312C51.4027 49.32 52.952 50.7387 54.072 52.568C55.2293 54.3973 55.808 56.544 55.808 59.008C55.808 61.472 55.2293 63.6187 54.072 65.448C52.952 67.2773 51.4027 68.696 49.424 69.704C47.4827 70.712 45.28 71.216 42.816 71.216H32.68ZM28.256 86V46.8H34.696V86H28.256ZM61.2676 86V59.12H67.4276V86H61.2676ZM67.4276 71.048L65.2996 69.984C65.2996 66.5867 66.0462 63.8427 67.5396 61.752C69.0702 59.624 71.3662 58.56 74.4276 58.56C75.7716 58.56 76.9849 58.8027 78.0676 59.288C79.1502 59.7733 80.1582 60.5573 81.0916 61.64L77.0596 65.784C76.5742 65.2613 76.0329 64.888 75.4356 64.664C74.8382 64.44 74.1476 64.328 73.3636 64.328C71.6462 64.328 70.2276 64.8693 69.1076 65.952C67.9876 67.0347 67.4276 68.7333 67.4276 71.048ZM84.1283 86V59.12H90.2883V86H84.1283ZM87.2083 54.192C86.1629 54.192 85.2856 53.8373 84.5763 53.128C83.9043 52.4187 83.5683 51.5413 83.5683 50.496C83.5683 49.4507 83.9043 48.5733 84.5763 47.864C85.2856 47.1547 86.1629 46.8 87.2083 46.8C88.2909 46.8 89.1683 47.1547 89.8403 47.864C90.5123 48.5733 90.8483 49.4507 90.8483 50.496C90.8483 51.5413 90.5123 52.4187 89.8403 53.128C89.1683 53.8373 88.2909 54.192 87.2083 54.192ZM97.1973 86V59.12H103.357V86H97.1973ZM115.061 86V69.984C115.061 68.192 114.501 66.8107 113.381 65.84C112.261 64.832 110.88 64.328 109.237 64.328C108.117 64.328 107.109 64.552 106.213 65C105.355 65.448 104.664 66.1013 104.141 66.96C103.619 67.7813 103.357 68.7893 103.357 69.984L100.949 68.64C100.949 66.5867 101.397 64.8133 102.293 63.32C103.189 61.8267 104.403 60.6693 105.933 59.848C107.464 58.9893 109.181 58.56 111.085 58.56C112.989 58.56 114.707 58.9707 116.237 59.792C117.768 60.6133 118.981 61.7707 119.877 63.264C120.773 64.7573 121.221 66.5493 121.221 68.64V86H115.061ZM132.925 86V69.984C132.925 68.192 132.365 66.8107 131.245 65.84C130.125 64.832 128.744 64.328 127.101 64.328C126.019 64.328 125.029 64.552 124.133 65C123.237 65.448 122.528 66.1013 122.005 66.96C121.483 67.7813 121.221 68.7893 121.221 69.984L117.749 68.64C117.936 66.5867 118.533 64.8133 119.541 63.32C120.549 61.8267 121.837 60.6693 123.405 59.848C125.011 58.9893 126.765 58.56 128.669 58.56C130.611 58.56 132.365 58.9707 133.933 59.792C135.501 60.6133 136.752 61.7707 137.685 63.264C138.619 64.7573 139.085 66.5493 139.085 68.64V86H132.925ZM156.688 86.56C154.261 86.56 152.058 85.944 150.08 84.712C148.138 83.48 146.589 81.8187 145.432 79.728C144.312 77.6 143.752 75.2293 143.752 72.616C143.752 69.9653 144.312 67.5947 145.432 65.504C146.589 63.376 148.138 61.696 150.08 60.464C152.058 59.1947 154.261 58.56 156.688 58.56C158.741 58.56 160.552 59.008 162.12 59.904C163.725 60.7627 164.994 61.9573 165.928 63.488C166.861 65.0187 167.328 66.7547 167.328 68.696V76.424C167.328 78.3653 166.861 80.1013 165.928 81.632C165.032 83.1627 163.781 84.376 162.176 85.272C160.57 86.1307 158.741 86.56 156.688 86.56ZM157.696 80.736C159.973 80.736 161.802 79.9707 163.184 78.44C164.602 76.9093 165.312 74.9493 165.312 72.56C165.312 70.9547 164.994 69.536 164.36 68.304C163.725 67.072 162.829 66.12 161.672 65.448C160.552 64.7387 159.226 64.384 157.696 64.384C156.202 64.384 154.877 64.7387 153.72 65.448C152.6 66.12 151.704 67.072 151.032 68.304C150.397 69.536 150.08 70.9547 150.08 72.56C150.08 74.1653 150.397 75.584 151.032 76.816C151.704 78.048 152.6 79.0187 153.72 79.728C154.877 80.4 156.202 80.736 157.696 80.736ZM164.92 86V78.776L165.984 72.224L164.92 65.728V59.12H171.08V86H164.92ZM177.916 86V59.12H184.076V86H177.916ZM184.076 71.048L181.948 69.984C181.948 66.5867 182.695 63.8427 184.188 61.752C185.719 59.624 188.015 58.56 191.076 58.56C192.42 58.56 193.633 58.8027 194.716 59.288C195.799 59.7733 196.807 60.5573 197.74 61.64L193.708 65.784C193.223 65.2613 192.681 64.888 192.084 64.664C191.487 64.44 190.796 64.328 190.012 64.328C188.295 64.328 186.876 64.8693 185.756 65.952C184.636 67.0347 184.076 68.7333 184.076 71.048ZM209.018 86.28L197.538 59.12H204.314L212.154 79.056H210.194L218.482 59.12H225.314L212.826 86.28H209.018ZM201.01 97.2L209.354 80.008L212.826 86.28L207.842 97.2H201.01ZM244.621 86V47.92H250.781V86H244.621ZM238.181 64.72V59.12H257.221V64.72H238.181ZM273.42 86.56C270.732 86.56 268.305 85.9627 266.14 84.768C264.012 83.536 262.313 81.856 261.044 79.728C259.812 77.6 259.196 75.2107 259.196 72.56C259.196 69.9093 259.812 67.5387 261.044 65.448C262.276 63.32 263.937 61.64 266.028 60.408C268.156 59.176 270.508 58.56 273.084 58.56C275.585 58.56 277.788 59.1387 279.692 60.296C281.633 61.4533 283.145 63.04 284.228 65.056C285.348 67.072 285.908 69.368 285.908 71.944C285.908 72.392 285.87 72.8587 285.796 73.344C285.758 73.792 285.684 74.296 285.572 74.856H263.508V69.816H282.38L280.084 71.832C280.009 70.1893 279.692 68.808 279.132 67.688C278.572 66.568 277.769 65.7093 276.724 65.112C275.716 64.5147 274.465 64.216 272.972 64.216C271.404 64.216 270.041 64.552 268.884 65.224C267.726 65.896 266.83 66.848 266.196 68.08C265.561 69.2747 265.244 70.712 265.244 72.392C265.244 74.072 265.58 75.5467 266.252 76.816C266.924 78.0853 267.876 79.0747 269.108 79.784C270.34 80.456 271.758 80.792 273.364 80.792C274.745 80.792 276.014 80.5493 277.172 80.064C278.366 79.5787 279.374 78.8693 280.196 77.936L284.116 81.912C282.809 83.4427 281.222 84.6 279.356 85.384C277.489 86.168 275.51 86.56 273.42 86.56ZM307.104 86L299.376 74.632L298.256 73.624L287.84 59.12H295.288L302.176 69.088L303.24 70.04L314.496 86H307.104ZM287.336 86L298.2 70.936L301.784 75.36L294.504 86H287.336ZM303.8 73.512L300.16 69.144L306.88 59.12H313.992L303.8 73.512ZM321.621 86V47.92H327.781V86H321.621ZM315.181 64.72V59.12H334.221V64.72H315.181Z" fill="#F1F2F4"/>
<path d="M32.8 130.32C31.0507 130.32 29.5573 130 28.32 129.36C27.0827 128.72 25.984 127.792 25.024 126.576L27.072 124.528C27.776 125.509 28.5867 126.256 29.504 126.768C30.4213 127.259 31.552 127.504 32.896 127.504C34.2187 127.504 35.2747 127.216 36.064 126.64C36.8747 126.064 37.28 125.275 37.28 124.272C37.28 123.44 37.088 122.768 36.704 122.256C36.32 121.744 35.7973 121.328 35.136 121.008C34.496 120.667 33.792 120.368 33.024 120.112C32.256 119.835 31.488 119.547 30.72 119.248C29.952 118.928 29.248 118.544 28.608 118.096C27.968 117.627 27.4453 117.019 27.04 116.272C26.656 115.525 26.464 114.587 26.464 113.456C26.464 112.197 26.7627 111.131 27.36 110.256C27.9787 109.36 28.8107 108.677 29.856 108.208C30.9227 107.717 32.1173 107.472 33.44 107.472C34.8907 107.472 36.192 107.76 37.344 108.336C38.496 108.891 39.4347 109.627 40.16 110.544L38.112 112.592C37.4507 111.824 36.736 111.248 35.968 110.864C35.2213 110.48 34.3573 110.288 33.376 110.288C32.1813 110.288 31.232 110.555 30.528 111.088C29.824 111.6 29.472 112.325 29.472 113.264C29.472 114.011 29.664 114.619 30.048 115.088C30.4533 115.536 30.976 115.92 31.616 116.24C32.256 116.56 32.96 116.859 33.728 117.136C34.5173 117.392 35.296 117.68 36.064 118C36.832 118.32 37.536 118.725 38.176 119.216C38.816 119.707 39.328 120.347 39.712 121.136C40.1173 121.904 40.32 122.875 40.32 124.048C40.32 126.011 39.6373 127.547 38.272 128.656C36.928 129.765 35.104 130.32 32.8 130.32ZM50.6833 130.32C49.1686 130.32 47.8033 129.979 46.5873 129.296C45.3713 128.592 44.4113 127.643 43.7073 126.448C43.0033 125.253 42.6513 123.899 42.6513 122.384C42.6513 120.891 42.9926 119.547 43.6753 118.352C44.3793 117.157 45.3179 116.219 46.4913 115.536C47.6859 114.832 49.0193 114.48 50.4913 114.48C51.8993 114.48 53.1366 114.8 54.2033 115.44C55.2913 116.08 56.1339 116.965 56.7313 118.096C57.3499 119.227 57.6593 120.507 57.6593 121.936C57.6593 122.149 57.6486 122.384 57.6273 122.64C57.6059 122.875 57.5633 123.152 57.4993 123.472H44.6673V121.072H55.9633L54.9073 122C54.9073 120.976 54.7259 120.112 54.3633 119.408C54.0006 118.683 53.4886 118.128 52.8273 117.744C52.1659 117.339 51.3659 117.136 50.4273 117.136C49.4459 117.136 48.5819 117.349 47.8353 117.776C47.0886 118.203 46.5126 118.8 46.1073 119.568C45.7019 120.336 45.4993 121.243 45.4993 122.288C45.4993 123.355 45.7126 124.293 46.1393 125.104C46.5659 125.893 47.1739 126.512 47.9633 126.96C48.7526 127.387 49.6593 127.6 50.6833 127.6C51.5366 127.6 52.3153 127.451 53.0193 127.152C53.7446 126.853 54.3633 126.405 54.8753 125.808L56.7313 127.696C56.0059 128.549 55.1099 129.2 54.0433 129.648C52.9979 130.096 51.8779 130.32 50.6833 130.32ZM67.7435 130.32C66.2502 130.32 64.8955 129.968 63.6795 129.264C62.4848 128.56 61.5355 127.611 60.8315 126.416C60.1488 125.2 59.8075 123.856 59.8075 122.384C59.8075 120.891 60.1488 119.547 60.8315 118.352C61.5355 117.157 62.4848 116.219 63.6795 115.536C64.8955 114.832 66.2502 114.48 67.7435 114.48C68.9168 114.48 70.0048 114.704 71.0075 115.152C72.0102 115.579 72.8742 116.208 73.5995 117.04L71.6795 118.96C71.2102 118.405 70.6342 117.989 69.9515 117.712C69.2902 117.413 68.5542 117.264 67.7435 117.264C66.7835 117.264 65.9302 117.488 65.1835 117.936C64.4368 118.363 63.8502 118.96 63.4235 119.728C62.9968 120.496 62.7835 121.381 62.7835 122.384C62.7835 123.387 62.9968 124.272 63.4235 125.04C63.8502 125.808 64.4368 126.416 65.1835 126.864C65.9302 127.312 66.7835 127.536 67.7435 127.536C68.5542 127.536 69.2902 127.397 69.9515 127.12C70.6342 126.821 71.2208 126.395 71.7115 125.84L73.5995 127.76C72.8955 128.571 72.0315 129.2 71.0075 129.648C70.0048 130.096 68.9168 130.32 67.7435 130.32ZM83.0873 130.32C81.5939 130.32 80.2499 129.968 79.0553 129.264C77.8606 128.56 76.9113 127.611 76.2073 126.416C75.5033 125.2 75.1513 123.845 75.1513 122.352C75.1513 120.88 75.5033 119.557 76.2073 118.384C76.9113 117.189 77.8606 116.24 79.0553 115.536C80.2499 114.832 81.5939 114.48 83.0873 114.48C84.5593 114.48 85.8926 114.832 87.0873 115.536C88.3033 116.219 89.2633 117.157 89.9673 118.352C90.6713 119.547 91.0233 120.88 91.0233 122.352C91.0233 123.845 90.6713 125.2 89.9673 126.416C89.2633 127.611 88.3033 128.56 87.0873 129.264C85.8926 129.968 84.5593 130.32 83.0873 130.32ZM83.0873 127.536C84.0473 127.536 84.9006 127.312 85.6473 126.864C86.3939 126.416 86.9806 125.808 87.4073 125.04C87.8339 124.251 88.0473 123.355 88.0473 122.352C88.0473 121.371 87.8233 120.496 87.3753 119.728C86.9486 118.96 86.3619 118.363 85.6153 117.936C84.8899 117.488 84.0473 117.264 83.0873 117.264C82.1273 117.264 81.2739 117.488 80.5273 117.936C79.7806 118.363 79.1939 118.96 78.7673 119.728C78.3406 120.496 78.1273 121.371 78.1273 122.352C78.1273 123.355 78.3406 124.251 78.7673 125.04C79.1939 125.808 79.7806 126.416 80.5273 126.864C81.2739 127.312 82.1273 127.536 83.0873 127.536ZM105.02 130V121.136C105.02 119.984 104.658 119.035 103.932 118.288C103.207 117.541 102.268 117.168 101.116 117.168C100.348 117.168 99.6656 117.339 99.0683 117.68C98.4709 118.021 98.0016 118.491 97.6603 119.088C97.3189 119.685 97.1483 120.368 97.1483 121.136L95.9643 120.464C95.9643 119.312 96.2203 118.288 96.7323 117.392C97.2443 116.496 97.9589 115.792 98.8763 115.28C99.7936 114.747 100.828 114.48 101.98 114.48C103.132 114.48 104.146 114.768 105.02 115.344C105.916 115.92 106.62 116.677 107.132 117.616C107.644 118.533 107.9 119.515 107.9 120.56V130H105.02ZM94.2682 130V114.8H97.1483V130H94.2682ZM118.232 130.32C116.824 130.32 115.565 129.979 114.456 129.296C113.346 128.592 112.461 127.643 111.799 126.448C111.16 125.253 110.84 123.909 110.84 122.416C110.84 120.923 111.16 119.579 111.799 118.384C112.461 117.189 113.346 116.24 114.456 115.536C115.565 114.832 116.824 114.48 118.232 114.48C119.362 114.48 120.386 114.725 121.304 115.216C122.221 115.685 122.957 116.347 123.512 117.2C124.088 118.032 124.408 119.003 124.472 120.112V124.688C124.408 125.776 124.098 126.747 123.544 127.6C122.989 128.453 122.253 129.125 121.336 129.616C120.418 130.085 119.384 130.32 118.232 130.32ZM118.712 127.6C119.672 127.6 120.504 127.376 121.208 126.928C121.933 126.48 122.498 125.872 122.904 125.104C123.309 124.315 123.512 123.419 123.512 122.416C123.512 121.371 123.298 120.464 122.872 119.696C122.466 118.928 121.901 118.32 121.176 117.872C120.472 117.424 119.64 117.2 118.68 117.2C117.72 117.2 116.877 117.424 116.152 117.872C115.426 118.32 114.85 118.939 114.424 119.728C114.018 120.496 113.816 121.381 113.816 122.384C113.816 123.408 114.018 124.315 114.424 125.104C114.85 125.872 115.426 126.48 116.152 126.928C116.898 127.376 117.752 127.6 118.712 127.6ZM126.232 130H123.32V125.904L123.864 122.192L123.32 118.512V107.152H126.232V130ZM136.889 130.32C135.502 130.32 134.243 129.979 133.113 129.296C131.982 128.592 131.086 127.643 130.424 126.448C129.785 125.253 129.465 123.909 129.465 122.416C129.465 120.923 129.785 119.579 130.424 118.384C131.086 117.189 131.971 116.24 133.081 115.536C134.211 114.832 135.481 114.48 136.889 114.48C138.041 114.48 139.065 114.725 139.961 115.216C140.878 115.685 141.614 116.347 142.169 117.2C142.723 118.032 143.033 119.003 143.097 120.112V124.688C143.033 125.776 142.723 126.747 142.169 127.6C141.635 128.453 140.91 129.125 139.993 129.616C139.097 130.085 138.062 130.32 136.889 130.32ZM137.369 127.6C138.798 127.6 139.95 127.12 140.825 126.16C141.699 125.179 142.137 123.931 142.137 122.416C142.137 121.371 141.934 120.464 141.529 119.696C141.145 118.907 140.59 118.299 139.865 117.872C139.139 117.424 138.297 117.2 137.337 117.2C136.377 117.2 135.523 117.424 134.777 117.872C134.051 118.32 133.475 118.939 133.049 119.728C132.643 120.496 132.441 121.381 132.441 122.384C132.441 123.408 132.643 124.315 133.049 125.104C133.475 125.872 134.062 126.48 134.809 126.928C135.555 127.376 136.409 127.6 137.369 127.6ZM141.945 130V125.904L142.489 122.192L141.945 118.512V114.8H144.857V130H141.945ZM149.049 130V114.8H151.93V130H149.049ZM151.93 121.328L150.842 120.848C150.842 118.907 151.29 117.36 152.186 116.208C153.082 115.056 154.372 114.48 156.058 114.48C156.826 114.48 157.519 114.619 158.138 114.896C158.756 115.152 159.332 115.589 159.866 116.208L157.978 118.16C157.658 117.819 157.306 117.573 156.922 117.424C156.538 117.275 156.09 117.2 155.578 117.2C154.511 117.2 153.636 117.541 152.954 118.224C152.271 118.907 151.93 119.941 151.93 121.328ZM166.604 130.128L160.012 114.8H163.212L168.108 126.8H167.084L172.236 114.8H175.436L168.332 130.128H166.604ZM162.252 136.368L166.732 127.184L168.332 130.128L165.452 136.368H162.252ZM187.042 130V108.432H189.922V130H187.042ZM183.298 117.424V114.8H193.666V117.424H183.298ZM203.058 130.32C201.544 130.32 200.178 129.979 198.962 129.296C197.746 128.592 196.786 127.643 196.082 126.448C195.378 125.253 195.026 123.899 195.026 122.384C195.026 120.891 195.368 119.547 196.05 118.352C196.754 117.157 197.693 116.219 198.866 115.536C200.061 114.832 201.394 114.48 202.866 114.48C204.274 114.48 205.512 114.8 206.578 115.44C207.666 116.08 208.509 116.965 209.106 118.096C209.725 119.227 210.034 120.507 210.034 121.936C210.034 122.149 210.024 122.384 210.002 122.64C209.981 122.875 209.938 123.152 209.874 123.472H197.042V121.072H208.338L207.282 122C207.282 120.976 207.101 120.112 206.738 119.408C206.376 118.683 205.864 118.128 205.202 117.744C204.541 117.339 203.741 117.136 202.802 117.136C201.821 117.136 200.957 117.349 200.21 117.776C199.464 118.203 198.888 118.8 198.482 119.568C198.077 120.336 197.874 121.243 197.874 122.288C197.874 123.355 198.088 124.293 198.514 125.104C198.941 125.893 199.549 126.512 200.338 126.96C201.128 127.387 202.034 127.6 203.058 127.6C203.912 127.6 204.69 127.451 205.394 127.152C206.12 126.853 206.738 126.405 207.25 125.808L209.106 127.696C208.381 128.549 207.485 129.2 206.418 129.648C205.373 130.096 204.253 130.32 203.058 130.32ZM222.69 130L217.954 123.344L217.41 122.832L211.426 114.8H214.914L219.234 120.72L219.778 121.168L226.178 130H222.69ZM211.138 130L217.41 121.552L219.042 123.664L214.53 130H211.138ZM220.002 122.8L218.338 120.752L222.53 114.8H225.89L220.002 122.8ZM230.511 130V108.432H233.391V130H230.511ZM226.767 117.424V114.8H237.135V117.424H226.767Z" fill="#A6AAB3"/>
<path d="M29.32 159V145.52H31.2V159H29.32ZM24.6 146.84V145.12H35.9V146.84H24.6ZM39.5833 159.2C38.6366 159.2 37.7833 158.987 37.0233 158.56C36.2633 158.12 35.6633 157.527 35.2233 156.78C34.7833 156.033 34.5633 155.187 34.5633 154.24C34.5633 153.307 34.7766 152.467 35.2033 151.72C35.6433 150.973 36.2299 150.387 36.9633 149.96C37.7099 149.52 38.5433 149.3 39.4633 149.3C40.3433 149.3 41.1166 149.5 41.7833 149.9C42.4633 150.3 42.9899 150.853 43.3633 151.56C43.7499 152.267 43.9433 153.067 43.9433 153.96C43.9433 154.093 43.9366 154.24 43.9233 154.4C43.9099 154.547 43.8833 154.72 43.8433 154.92H35.8233V153.42H42.8833L42.2233 154C42.2233 153.36 42.1099 152.82 41.8833 152.38C41.6566 151.927 41.3366 151.58 40.9233 151.34C40.5099 151.087 40.0099 150.96 39.4233 150.96C38.8099 150.96 38.2699 151.093 37.8033 151.36C37.3366 151.627 36.9766 152 36.7233 152.48C36.4699 152.96 36.3433 153.527 36.3433 154.18C36.3433 154.847 36.4766 155.433 36.7433 155.94C37.0099 156.433 37.3899 156.82 37.8833 157.1C38.3766 157.367 38.9433 157.5 39.5833 157.5C40.1166 157.5 40.6033 157.407 41.0433 157.22C41.4966 157.033 41.8833 156.753 42.2033 156.38L43.3633 157.56C42.9099 158.093 42.3499 158.5 41.6833 158.78C41.0299 159.06 40.3299 159.2 39.5833 159.2ZM45.9059 159V149.5H47.7059V159H45.9059ZM47.7059 153.58L47.0259 153.28C47.0259 152.067 47.3059 151.1 47.8659 150.38C48.4259 149.66 49.2326 149.3 50.2859 149.3C50.7659 149.3 51.1993 149.387 51.5859 149.56C51.9726 149.72 52.3326 149.993 52.6659 150.38L51.4859 151.6C51.2859 151.387 51.0659 151.233 50.8259 151.14C50.5859 151.047 50.3059 151 49.9859 151C49.3193 151 48.7726 151.213 48.3459 151.64C47.9193 152.067 47.7059 152.713 47.7059 153.58ZM55.3542 159V145.52H57.1542V159H55.3542ZM53.0142 151.14V149.5H59.4942V151.14H53.0142ZM61.2775 159V149.5H63.0775V159H61.2775ZM62.1775 147.6C61.8442 147.6 61.5708 147.493 61.3575 147.28C61.1442 147.053 61.0375 146.773 61.0375 146.44C61.0375 146.12 61.1442 145.853 61.3575 145.64C61.5708 145.413 61.8442 145.3 62.1775 145.3C62.5108 145.3 62.7842 145.413 62.9975 145.64C63.2108 145.853 63.3175 146.12 63.3175 146.44C63.3175 146.773 63.2108 147.053 62.9975 147.28C62.7842 147.493 62.5108 147.6 62.1775 147.6ZM69.7702 159.2C68.9035 159.2 68.1168 158.987 67.4102 158.56C66.7035 158.12 66.1435 157.527 65.7302 156.78C65.3302 156.033 65.1302 155.193 65.1302 154.26C65.1302 153.327 65.3302 152.487 65.7302 151.74C66.1435 150.993 66.6968 150.4 67.3902 149.96C68.0968 149.52 68.8902 149.3 69.7702 149.3C70.4902 149.3 71.1302 149.453 71.6902 149.76C72.2635 150.053 72.7235 150.467 73.0702 151C73.4168 151.52 73.6102 152.127 73.6502 152.82V155.68C73.6102 156.36 73.4168 156.967 73.0702 157.5C72.7368 158.033 72.2835 158.453 71.7102 158.76C71.1502 159.053 70.5035 159.2 69.7702 159.2ZM70.0702 157.5C70.9635 157.5 71.6835 157.2 72.2302 156.6C72.7768 155.987 73.0502 155.207 73.0502 154.26C73.0502 153.607 72.9235 153.04 72.6702 152.56C72.4302 152.067 72.0835 151.687 71.6302 151.42C71.1768 151.14 70.6502 151 70.0502 151C69.4502 151 68.9168 151.14 68.4502 151.42C67.9968 151.7 67.6368 152.087 67.3702 152.58C67.1168 153.06 66.9902 153.613 66.9902 154.24C66.9902 154.88 67.1168 155.447 67.3702 155.94C67.6368 156.42 68.0035 156.8 68.4702 157.08C68.9368 157.36 69.4702 157.5 70.0702 157.5ZM72.9302 159V156.44L73.2702 154.12L72.9302 151.82V149.5H74.7502V159H72.9302ZM77.3708 159V149.5H79.1708V159H77.3708ZM79.1708 153.58L78.4908 153.28C78.4908 152.067 78.7708 151.1 79.3308 150.38C79.8908 149.66 80.6974 149.3 81.7508 149.3C82.2308 149.3 82.6641 149.387 83.0508 149.56C83.4374 149.72 83.7974 149.993 84.1308 150.38L82.9508 151.6C82.7508 151.387 82.5308 151.233 82.2908 151.14C82.0508 151.047 81.7708 151 81.4508 151C80.7841 151 80.2374 151.213 79.8108 151.64C79.3841 152.067 79.1708 152.713 79.1708 153.58ZM88.3423 159.08L84.2223 149.5H86.2223L89.2823 157H88.6423L91.8623 149.5H93.8623L89.4223 159.08H88.3423ZM85.6223 162.98L88.4223 157.24L89.4223 159.08L87.6223 162.98H85.6223ZM101.116 159V145.52H102.916V159H101.116ZM98.7759 151.14V149.5H105.256V151.14H98.7759ZM111.126 159.2C110.18 159.2 109.326 158.987 108.566 158.56C107.806 158.12 107.206 157.527 106.766 156.78C106.326 156.033 106.106 155.187 106.106 154.24C106.106 153.307 106.32 152.467 106.746 151.72C107.186 150.973 107.773 150.387 108.506 149.96C109.253 149.52 110.086 149.3 111.006 149.3C111.886 149.3 112.66 149.5 113.326 149.9C114.006 150.3 114.533 150.853 114.906 151.56C115.293 152.267 115.486 153.067 115.486 153.96C115.486 154.093 115.48 154.24 115.466 154.4C115.453 154.547 115.426 154.72 115.386 154.92H107.366V153.42H114.426L113.766 154C113.766 153.36 113.653 152.82 113.426 152.38C113.2 151.927 112.88 151.58 112.466 151.34C112.053 151.087 111.553 150.96 110.966 150.96C110.353 150.96 109.813 151.093 109.346 151.36C108.88 151.627 108.52 152 108.266 152.48C108.013 152.96 107.886 153.527 107.886 154.18C107.886 154.847 108.02 155.433 108.286 155.94C108.553 156.433 108.933 156.82 109.426 157.1C109.92 157.367 110.486 157.5 111.126 157.5C111.66 157.5 112.146 157.407 112.586 157.22C113.04 157.033 113.426 156.753 113.746 156.38L114.906 157.56C114.453 158.093 113.893 158.5 113.226 158.78C112.573 159.06 111.873 159.2 111.126 159.2ZM123.396 159L120.436 154.84L120.096 154.52L116.356 149.5H118.536L121.236 153.2L121.576 153.48L125.576 159H123.396ZM116.176 159L120.096 153.72L121.116 155.04L118.296 159H116.176ZM121.716 154.5L120.676 153.22L123.296 149.5H125.396L121.716 154.5ZM128.284 159V145.52H130.084V159H128.284ZM125.944 151.14V149.5H132.424V151.14H125.944Z" fill="#A6AAB3"/>
</svg>
