<svg width="844" height="521" viewBox="0 0 844 521" fill="none" xmlns="http://www.w3.org/2000/svg">
<g clip-path="url(#clip0_1203_37886)">
<rect width="844" height="521" fill="#F1F2F4"/>
<path d="M569 371.66C569.586 372.246 570.414 372.246 571 371.66L577.66 365C578.246 364.414 578.246 363.586 577.66 363L570 355.34L562.34 363C561.754 363.586 561.754 364.414 562.34 365L569 371.66ZM509.66 99C510.489 99 511.074 97.9854 510.66 97.2679L504 85.7321C503.586 85.0146 502.414 85.0146 502 85.7321L495.34 97.2679C494.926 97.9854 495.511 99 496.34 99H509.66ZM570 364H571.5V248H570H568.5V364H570ZM546 224V222.5H527V224V225.5H546V224ZM503 200H504.5V97.5H503H501.5V200H503ZM527 224V222.5C514.574 222.5 504.5 212.426 504.5 200H503H501.5C501.5 214.083 512.917 225.5 527 225.5V224ZM570 248H571.5C571.5 233.917 560.083 222.5 546 222.5V224V225.5C558.426 225.5 568.5 235.574 568.5 248H570Z" fill="#E1E3E6"/>
<path d="M618.66 427C619.246 426.414 619.246 425.586 618.66 425L612 418.34C611.414 417.754 610.586 417.754 610 418.34L602.34 426L610 433.66C610.586 434.246 611.414 434.246 612 433.66L618.66 427ZM77 114.34C77 113.511 75.9854 112.926 75.2679 113.34L63.7321 120C63.0146 120.414 63.0146 121.586 63.7321 122L75.2679 128.66C75.9854 129.074 77 128.489 77 127.66V114.34ZM611 426V424.5H360.5V426V427.5H611V426ZM336.5 402H338V145H336.5H335V402H336.5ZM312.5 121V119.5H75.5V121V122.5H312.5V121ZM336.5 145H338C338 130.917 326.583 119.5 312.5 119.5V121V122.5C324.926 122.5 335 132.574 335 145H336.5ZM360.5 426V424.5C348.074 424.5 338 414.426 338 402H336.5H335C335 416.083 346.417 427.5 360.5 427.5V426Z" fill="#E1E3E6"/>
<g filter="url(#filter0_d_1203_37886)">
<rect x="388" y="144" width="414" height="168" rx="12" fill="#FBFBFC"/>
<path d="M458 176C458 172.229 458 170.343 459.172 169.172C460.343 168 462.229 168 466 168H763C766.771 168 768.657 168 769.828 169.172C771 170.343 771 172.229 771 176C771 179.771 771 181.657 769.828 182.828C768.657 184 766.771 184 763 184H466C462.229 184 460.343 184 459.172 182.828C458 181.657 458 179.771 458 176Z" fill="#E7E8EB"/>
<path d="M458 211C458 207.229 458 205.343 459.172 204.172C460.343 203 462.229 203 466 203H665C668.771 203 670.657 203 671.828 204.172C673 205.343 673 207.229 673 211C673 214.771 673 216.657 671.828 217.828C670.657 219 668.771 219 665 219H466C462.229 219 460.343 219 459.172 217.828C458 216.657 458 214.771 458 211Z" fill="#E7E8EB"/>
<path d="M458 236C458 232.229 458 230.343 459.172 229.172C460.343 228 462.229 228 466 228H665C668.771 228 670.657 228 671.828 229.172C673 230.343 673 232.229 673 236C673 239.771 673 241.657 671.828 242.828C670.657 244 668.771 244 665 244H466C462.229 244 460.343 244 459.172 242.828C458 241.657 458 239.771 458 236Z" fill="#E7E8EB"/>
<path d="M458 275C458 267.458 458 263.686 460.343 261.343C462.686 259 466.458 259 474 259H506C513.542 259 517.314 259 519.657 261.343C522 263.686 522 267.458 522 275C522 282.542 522 286.314 519.657 288.657C517.314 291 513.542 291 506 291H474C466.458 291 462.686 291 460.343 288.657C458 286.314 458 282.542 458 275Z" fill="#4F46E5"/>
<path d="M414 176C414 168.458 414 164.686 416.343 162.343C418.686 160 422.458 160 430 160C437.542 160 441.314 160 443.657 162.343C446 164.686 446 168.458 446 176C446 183.542 446 187.314 443.657 189.657C441.314 192 437.542 192 430 192C422.458 192 418.686 192 416.343 189.657C414 187.314 414 183.542 414 176Z" fill="#4F46E5"/>
</g>
<path d="M428 346C428 342.229 428 340.343 429.172 339.172C430.343 338 432.229 338 436 338H462C465.771 338 467.657 338 468.828 339.172C470 340.343 470 342.229 470 346C470 349.771 470 351.657 468.828 352.828C467.657 354 465.771 354 462 354H436C432.229 354 430.343 354 429.172 352.828C428 351.657 428 349.771 428 346Z" fill="#E7E8EB"/>
<path d="M486 346C486 342.229 486 340.343 487.172 339.172C488.343 338 490.229 338 494 338H520C523.771 338 525.657 338 526.828 339.172C528 340.343 528 342.229 528 346C528 349.771 528 351.657 526.828 352.828C525.657 354 523.771 354 520 354H494C490.229 354 488.343 354 487.172 352.828C486 351.657 486 349.771 486 346Z" fill="#E7E8EB"/>
<path d="M428 383C428 379.229 428 377.343 429.172 376.172C430.343 375 432.229 375 436 375H462C465.771 375 467.657 375 468.828 376.172C470 377.343 470 379.229 470 383C470 386.771 470 388.657 468.828 389.828C467.657 391 465.771 391 462 391H436C432.229 391 430.343 391 429.172 389.828C428 388.657 428 386.771 428 383Z" fill="#E7E8EB"/>
<path d="M486 383C486 379.229 486 377.343 487.172 376.172C488.343 375 490.229 375 494 375H520C523.771 375 525.657 375 526.828 376.172C528 377.343 528 379.229 528 383C528 386.771 528 388.657 526.828 389.828C525.657 391 523.771 391 520 391H494C490.229 391 488.343 391 487.172 389.828C486 388.657 486 386.771 486 383Z" fill="#E7E8EB"/>
<path d="M204 186C204 182.229 204 180.343 205.172 179.172C206.343 178 208.229 178 212 178H269C272.771 178 274.657 178 275.828 179.172C277 180.343 277 182.229 277 186C277 189.771 277 191.657 275.828 192.828C274.657 194 272.771 194 269 194H212C208.229 194 206.343 194 205.172 192.828C204 191.657 204 189.771 204 186Z" fill="#E7E8EB"/>
<path d="M159 186C159 178.458 159 174.686 161.343 172.343C163.686 170 167.458 170 175 170C182.542 170 186.314 170 188.657 172.343C191 174.686 191 178.458 191 186C191 193.542 191 197.314 188.657 199.657C186.314 202 182.542 202 175 202C167.458 202 163.686 202 161.343 199.657C159 197.314 159 193.542 159 186Z" fill="#4F46E5"/>
<path d="M204 239C204 235.229 204 233.343 205.172 232.172C206.343 231 208.229 231 212 231H269C272.771 231 274.657 231 275.828 232.172C277 233.343 277 235.229 277 239C277 242.771 277 244.657 275.828 245.828C274.657 247 272.771 247 269 247H212C208.229 247 206.343 247 205.172 245.828C204 244.657 204 242.771 204 239Z" fill="#E7E8EB"/>
<path d="M159 239C159 231.458 159 227.686 161.343 225.343C163.686 223 167.458 223 175 223C182.542 223 186.314 223 188.657 225.343C191 227.686 191 231.458 191 239C191 246.542 191 250.314 188.657 252.657C186.314 255 182.542 255 175 255C167.458 255 163.686 255 161.343 252.657C159 250.314 159 246.542 159 239Z" fill="#4F46E5"/>
<path d="M204 292C204 288.229 204 286.343 205.172 285.172C206.343 284 208.229 284 212 284H269C272.771 284 274.657 284 275.828 285.172C277 286.343 277 288.229 277 292C277 295.771 277 297.657 275.828 298.828C274.657 300 272.771 300 269 300H212C208.229 300 206.343 300 205.172 298.828C204 297.657 204 295.771 204 292Z" fill="#E7E8EB"/>
<path d="M159 292C159 284.458 159 280.686 161.343 278.343C163.686 276 167.458 276 175 276C182.542 276 186.314 276 188.657 278.343C191 280.686 191 284.458 191 292C191 299.542 191 303.314 188.657 305.657C186.314 308 182.542 308 175 308C167.458 308 163.686 308 161.343 305.657C159 303.314 159 299.542 159 292Z" fill="#4F46E5"/>
<path d="M204 345C204 341.229 204 339.343 205.172 338.172C206.343 337 208.229 337 212 337H269C272.771 337 274.657 337 275.828 338.172C277 339.343 277 341.229 277 345C277 348.771 277 350.657 275.828 351.828C274.657 353 272.771 353 269 353H212C208.229 353 206.343 353 205.172 351.828C204 350.657 204 348.771 204 345Z" fill="#E7E8EB"/>
<path d="M159 345C159 337.458 159 333.686 161.343 331.343C163.686 329 167.458 329 175 329C182.542 329 186.314 329 188.657 331.343C191 333.686 191 337.458 191 345C191 352.542 191 356.314 188.657 358.657C186.314 361 182.542 361 175 361C167.458 361 163.686 361 161.343 358.657C159 356.314 159 352.542 159 345Z" fill="#4F46E5"/>
<path d="M204 398C204 394.229 204 392.343 205.172 391.172C206.343 390 208.229 390 212 390H269C272.771 390 274.657 390 275.828 391.172C277 392.343 277 394.229 277 398C277 401.771 277 403.657 275.828 404.828C274.657 406 272.771 406 269 406H212C208.229 406 206.343 406 205.172 404.828C204 403.657 204 401.771 204 398Z" fill="#E7E8EB"/>
<path d="M159 398C159 390.458 159 386.686 161.343 384.343C163.686 382 167.458 382 175 382C182.542 382 186.314 382 188.657 384.343C191 386.686 191 390.458 191 398C191 405.542 191 409.314 188.657 411.657C186.314 414 182.542 414 175 414C167.458 414 163.686 414 161.343 411.657C159 409.314 159 405.542 159 398Z" fill="#4F46E5"/>
<g filter="url(#filter1_d_1203_37886)">
<rect x="317" y="71" width="88" height="406" rx="12" fill="#FBFBFC"/>
<path d="M345 106C345 98.4575 345 94.6863 347.343 92.3431C349.686 90 353.458 90 361 90C368.542 90 372.314 90 374.657 92.3431C377 94.6863 377 98.4575 377 106C377 113.542 377 117.314 374.657 119.657C372.314 122 368.542 122 361 122C353.458 122 349.686 122 347.343 119.657C345 117.314 345 113.542 345 106Z" fill="#E7E8EB"/>
<path d="M345 162C345 154.458 345 150.686 347.343 148.343C349.686 146 353.458 146 361 146C368.542 146 372.314 146 374.657 148.343C377 150.686 377 154.458 377 162C377 169.542 377 173.314 374.657 175.657C372.314 178 368.542 178 361 178C353.458 178 349.686 178 347.343 175.657C345 173.314 345 169.542 345 162Z" fill="#E7E8EB"/>
<path d="M345 218C345 210.458 345 206.686 347.343 204.343C349.686 202 353.458 202 361 202C368.542 202 372.314 202 374.657 204.343C377 206.686 377 210.458 377 218C377 225.542 377 229.314 374.657 231.657C372.314 234 368.542 234 361 234C353.458 234 349.686 234 347.343 231.657C345 229.314 345 225.542 345 218Z" fill="#E7E8EB"/>
<path d="M345 274C345 266.458 345 262.686 347.343 260.343C349.686 258 353.458 258 361 258C368.542 258 372.314 258 374.657 260.343C377 262.686 377 266.458 377 274C377 281.542 377 285.314 374.657 287.657C372.314 290 368.542 290 361 290C353.458 290 349.686 290 347.343 287.657C345 285.314 345 281.542 345 274Z" fill="#E7E8EB"/>
<path d="M345 330C345 322.458 345 318.686 347.343 316.343C349.686 314 353.458 314 361 314C368.542 314 372.314 314 374.657 316.343C377 318.686 377 322.458 377 330C377 337.542 377 341.314 374.657 343.657C372.314 346 368.542 346 361 346C353.458 346 349.686 346 347.343 343.657C345 341.314 345 337.542 345 330Z" fill="#E7E8EB"/>
<path d="M345 386C345 378.458 345 374.686 347.343 372.343C349.686 370 353.458 370 361 370C368.542 370 372.314 370 374.657 372.343C377 374.686 377 378.458 377 386C377 393.542 377 397.314 374.657 399.657C372.314 402 368.542 402 361 402C353.458 402 349.686 402 347.343 399.657C345 397.314 345 393.542 345 386Z" fill="#E7E8EB"/>
<path d="M345 442C345 434.458 345 430.686 347.343 428.343C349.686 426 353.458 426 361 426C368.542 426 372.314 426 374.657 428.343C377 430.686 377 434.458 377 442C377 449.542 377 453.314 374.657 455.657C372.314 458 368.542 458 361 458C353.458 458 349.686 458 347.343 455.657C345 453.314 345 449.542 345 442Z" fill="#E7E8EB"/>
</g>
</g>
<defs>
<filter id="filter0_d_1203_37886" x="346" y="122" width="498" height="252" filterUnits="userSpaceOnUse" color-interpolation-filters="sRGB">
<feFlood flood-opacity="0" result="BackgroundImageFix"/>
<feColorMatrix in="SourceAlpha" type="matrix" values="0 0 0 0 0 0 0 0 0 0 0 0 0 0 0 0 0 0 127 0" result="hardAlpha"/>
<feMorphology radius="16" operator="erode" in="SourceAlpha" result="effect1_dropShadow_1203_37886"/>
<feOffset dy="20"/>
<feGaussianBlur stdDeviation="29"/>
<feColorMatrix type="matrix" values="0 0 0 0 0 0 0 0 0 0 0 0 0 0 0 0 0 0 0.16 0"/>
<feBlend mode="normal" in2="BackgroundImageFix" result="effect1_dropShadow_1203_37886"/>
<feBlend mode="normal" in="SourceGraphic" in2="effect1_dropShadow_1203_37886" result="shape"/>
</filter>
<filter id="filter1_d_1203_37886" x="275" y="49" width="172" height="490" filterUnits="userSpaceOnUse" color-interpolation-filters="sRGB">
<feFlood flood-opacity="0" result="BackgroundImageFix"/>
<feColorMatrix in="SourceAlpha" type="matrix" values="0 0 0 0 0 0 0 0 0 0 0 0 0 0 0 0 0 0 127 0" result="hardAlpha"/>
<feMorphology radius="16" operator="erode" in="SourceAlpha" result="effect1_dropShadow_1203_37886"/>
<feOffset dy="20"/>
<feGaussianBlur stdDeviation="29"/>
<feColorMatrix type="matrix" values="0 0 0 0 0 0 0 0 0 0 0 0 0 0 0 0 0 0 0.16 0"/>
<feBlend mode="normal" in2="BackgroundImageFix" result="effect1_dropShadow_1203_37886"/>
<feBlend mode="normal" in="SourceGraphic" in2="effect1_dropShadow_1203_37886" result="shape"/>
</filter>
<clipPath id="clip0_1203_37886">
<rect width="844" height="521" fill="white"/>
</clipPath>
</defs>
</svg>
