<svg width="448" height="266" viewBox="0 0 448 266" fill="none" xmlns="http://www.w3.org/2000/svg">
<rect width="448" height="266" fill="#F6F6F8"/>
<path d="M41.68 67.216V61.616H51.48C52.824 61.616 54 61.3547 55.008 60.832C56.0533 60.272 56.8747 59.5067 57.472 58.536C58.0693 57.528 58.368 56.352 58.368 55.008C58.368 53.664 58.0693 52.5067 57.472 51.536C56.8747 50.528 56.0533 49.7627 55.008 49.24C54 48.68 52.824 48.4 51.48 48.4H41.68V42.8H51.816C54.28 42.8 56.4827 43.304 58.424 44.312C60.4027 45.32 61.952 46.7387 63.072 48.568C64.2293 50.3973 64.808 52.544 64.808 55.008C64.808 57.472 64.2293 59.6187 63.072 61.448C61.952 63.2773 60.4027 64.696 58.424 65.704C56.4827 66.712 54.28 67.216 51.816 67.216H41.68ZM37.256 82V42.8H43.696V82H37.256ZM70.2676 82V55.12H76.4276V82H70.2676ZM76.4276 67.048L74.2996 65.984C74.2996 62.5867 75.0462 59.8427 76.5396 57.752C78.0702 55.624 80.3662 54.56 83.4276 54.56C84.7716 54.56 85.9849 54.8027 87.0676 55.288C88.1502 55.7733 89.1582 56.5573 90.0916 57.64L86.0596 61.784C85.5742 61.2613 85.0329 60.888 84.4356 60.664C83.8382 60.44 83.1476 60.328 82.3636 60.328C80.6462 60.328 79.2276 60.8693 78.1076 61.952C76.9876 63.0347 76.4276 64.7333 76.4276 67.048ZM93.1283 82V55.12H99.2883V82H93.1283ZM96.2083 50.192C95.1629 50.192 94.2856 49.8373 93.5763 49.128C92.9043 48.4187 92.5683 47.5413 92.5683 46.496C92.5683 45.4507 92.9043 44.5733 93.5763 43.864C94.2856 43.1547 95.1629 42.8 96.2083 42.8C97.2909 42.8 98.1683 43.1547 98.8403 43.864C99.5123 44.5733 99.8483 45.4507 99.8483 46.496C99.8483 47.5413 99.5123 48.4187 98.8403 49.128C98.1683 49.8373 97.2909 50.192 96.2083 50.192ZM106.197 82V55.12H112.357V82H106.197ZM124.061 82V65.984C124.061 64.192 123.501 62.8107 122.381 61.84C121.261 60.832 119.88 60.328 118.237 60.328C117.117 60.328 116.109 60.552 115.213 61C114.355 61.448 113.664 62.1013 113.141 62.96C112.619 63.7813 112.357 64.7893 112.357 65.984L109.949 64.64C109.949 62.5867 110.397 60.8133 111.293 59.32C112.189 57.8267 113.403 56.6693 114.933 55.848C116.464 54.9893 118.181 54.56 120.085 54.56C121.989 54.56 123.707 54.9707 125.237 55.792C126.768 56.6133 127.981 57.7707 128.877 59.264C129.773 60.7573 130.221 62.5493 130.221 64.64V82H124.061ZM141.925 82V65.984C141.925 64.192 141.365 62.8107 140.245 61.84C139.125 60.832 137.744 60.328 136.101 60.328C135.019 60.328 134.029 60.552 133.133 61C132.237 61.448 131.528 62.1013 131.005 62.96C130.483 63.7813 130.221 64.7893 130.221 65.984L126.749 64.64C126.936 62.5867 127.533 60.8133 128.541 59.32C129.549 57.8267 130.837 56.6693 132.405 55.848C134.011 54.9893 135.765 54.56 137.669 54.56C139.611 54.56 141.365 54.9707 142.933 55.792C144.501 56.6133 145.752 57.7707 146.685 59.264C147.619 60.7573 148.085 62.5493 148.085 64.64V82H141.925ZM165.688 82.56C163.261 82.56 161.058 81.944 159.08 80.712C157.138 79.48 155.589 77.8187 154.432 75.728C153.312 73.6 152.752 71.2293 152.752 68.616C152.752 65.9653 153.312 63.5947 154.432 61.504C155.589 59.376 157.138 57.696 159.08 56.464C161.058 55.1947 163.261 54.56 165.688 54.56C167.741 54.56 169.552 55.008 171.12 55.904C172.725 56.7627 173.994 57.9573 174.928 59.488C175.861 61.0187 176.328 62.7547 176.328 64.696V72.424C176.328 74.3653 175.861 76.1013 174.928 77.632C174.032 79.1627 172.781 80.376 171.176 81.272C169.57 82.1307 167.741 82.56 165.688 82.56ZM166.696 76.736C168.973 76.736 170.802 75.9707 172.184 74.44C173.602 72.9093 174.312 70.9493 174.312 68.56C174.312 66.9547 173.994 65.536 173.36 64.304C172.725 63.072 171.829 62.12 170.672 61.448C169.552 60.7387 168.226 60.384 166.696 60.384C165.202 60.384 163.877 60.7387 162.72 61.448C161.6 62.12 160.704 63.072 160.032 64.304C159.397 65.536 159.08 66.9547 159.08 68.56C159.08 70.1653 159.397 71.584 160.032 72.816C160.704 74.048 161.6 75.0187 162.72 75.728C163.877 76.4 165.202 76.736 166.696 76.736ZM173.92 82V74.776L174.984 68.224L173.92 61.728V55.12H180.08V82H173.92ZM186.916 82V55.12H193.076V82H186.916ZM193.076 67.048L190.948 65.984C190.948 62.5867 191.695 59.8427 193.188 57.752C194.719 55.624 197.015 54.56 200.076 54.56C201.42 54.56 202.633 54.8027 203.716 55.288C204.799 55.7733 205.807 56.5573 206.74 57.64L202.708 61.784C202.223 61.2613 201.681 60.888 201.084 60.664C200.487 60.44 199.796 60.328 199.012 60.328C197.295 60.328 195.876 60.8693 194.756 61.952C193.636 63.0347 193.076 64.7333 193.076 67.048ZM218.018 82.28L206.538 55.12H213.314L221.154 75.056H219.194L227.482 55.12H234.314L221.826 82.28H218.018ZM210.01 93.2L218.354 76.008L221.826 82.28L216.842 93.2H210.01ZM253.621 82V43.92H259.781V82H253.621ZM247.181 60.72V55.12H266.221V60.72H247.181ZM282.42 82.56C279.732 82.56 277.305 81.9627 275.14 80.768C273.012 79.536 271.313 77.856 270.044 75.728C268.812 73.6 268.196 71.2107 268.196 68.56C268.196 65.9093 268.812 63.5387 270.044 61.448C271.276 59.32 272.937 57.64 275.028 56.408C277.156 55.176 279.508 54.56 282.084 54.56C284.585 54.56 286.788 55.1387 288.692 56.296C290.633 57.4533 292.145 59.04 293.228 61.056C294.348 63.072 294.908 65.368 294.908 67.944C294.908 68.392 294.87 68.8587 294.796 69.344C294.758 69.792 294.684 70.296 294.572 70.856H272.508V65.816H291.38L289.084 67.832C289.009 66.1893 288.692 64.808 288.132 63.688C287.572 62.568 286.769 61.7093 285.724 61.112C284.716 60.5147 283.465 60.216 281.972 60.216C280.404 60.216 279.041 60.552 277.884 61.224C276.726 61.896 275.83 62.848 275.196 64.08C274.561 65.2747 274.244 66.712 274.244 68.392C274.244 70.072 274.58 71.5467 275.252 72.816C275.924 74.0853 276.876 75.0747 278.108 75.784C279.34 76.456 280.758 76.792 282.364 76.792C283.745 76.792 285.014 76.5493 286.172 76.064C287.366 75.5787 288.374 74.8693 289.196 73.936L293.116 77.912C291.809 79.4427 290.222 80.6 288.356 81.384C286.489 82.168 284.51 82.56 282.42 82.56ZM316.104 82L308.376 70.632L307.256 69.624L296.84 55.12H304.288L311.176 65.088L312.24 66.04L323.496 82H316.104ZM296.336 82L307.2 66.936L310.784 71.36L303.504 82H296.336ZM312.8 69.512L309.16 65.144L315.88 55.12H322.992L312.8 69.512ZM330.621 82V43.92H336.781V82H330.621ZM324.181 60.72V55.12H343.221V60.72H324.181Z" fill="#2A2C35"/>
<path d="M41.8 138.32C40.0507 138.32 38.5573 138 37.32 137.36C36.0827 136.72 34.984 135.792 34.024 134.576L36.072 132.528C36.776 133.509 37.5867 134.256 38.504 134.768C39.4213 135.259 40.552 135.504 41.896 135.504C43.2187 135.504 44.2747 135.216 45.064 134.64C45.8747 134.064 46.28 133.275 46.28 132.272C46.28 131.44 46.088 130.768 45.704 130.256C45.32 129.744 44.7973 129.328 44.136 129.008C43.496 128.667 42.792 128.368 42.024 128.112C41.256 127.835 40.488 127.547 39.72 127.248C38.952 126.928 38.248 126.544 37.608 126.096C36.968 125.627 36.4453 125.019 36.04 124.272C35.656 123.525 35.464 122.587 35.464 121.456C35.464 120.197 35.7627 119.131 36.36 118.256C36.9787 117.36 37.8107 116.677 38.856 116.208C39.9227 115.717 41.1173 115.472 42.44 115.472C43.8907 115.472 45.192 115.76 46.344 116.336C47.496 116.891 48.4347 117.627 49.16 118.544L47.112 120.592C46.4507 119.824 45.736 119.248 44.968 118.864C44.2213 118.48 43.3573 118.288 42.376 118.288C41.1813 118.288 40.232 118.555 39.528 119.088C38.824 119.6 38.472 120.325 38.472 121.264C38.472 122.011 38.664 122.619 39.048 123.088C39.4533 123.536 39.976 123.92 40.616 124.24C41.256 124.56 41.96 124.859 42.728 125.136C43.5173 125.392 44.296 125.68 45.064 126C45.832 126.32 46.536 126.725 47.176 127.216C47.816 127.707 48.328 128.347 48.712 129.136C49.1173 129.904 49.32 130.875 49.32 132.048C49.32 134.011 48.6373 135.547 47.272 136.656C45.928 137.765 44.104 138.32 41.8 138.32ZM59.6833 138.32C58.1686 138.32 56.8033 137.979 55.5873 137.296C54.3713 136.592 53.4113 135.643 52.7073 134.448C52.0033 133.253 51.6513 131.899 51.6513 130.384C51.6513 128.891 51.9926 127.547 52.6753 126.352C53.3793 125.157 54.3179 124.219 55.4913 123.536C56.6859 122.832 58.0193 122.48 59.4913 122.48C60.8993 122.48 62.1366 122.8 63.2033 123.44C64.2913 124.08 65.1339 124.965 65.7313 126.096C66.3499 127.227 66.6593 128.507 66.6593 129.936C66.6593 130.149 66.6486 130.384 66.6273 130.64C66.6059 130.875 66.5633 131.152 66.4993 131.472H53.6673V129.072H64.9633L63.9073 130C63.9073 128.976 63.7259 128.112 63.3633 127.408C63.0006 126.683 62.4886 126.128 61.8273 125.744C61.1659 125.339 60.3659 125.136 59.4273 125.136C58.4459 125.136 57.5819 125.349 56.8353 125.776C56.0886 126.203 55.5126 126.8 55.1073 127.568C54.7019 128.336 54.4993 129.243 54.4993 130.288C54.4993 131.355 54.7126 132.293 55.1393 133.104C55.5659 133.893 56.1739 134.512 56.9633 134.96C57.7526 135.387 58.6593 135.6 59.6833 135.6C60.5366 135.6 61.3153 135.451 62.0193 135.152C62.7446 134.853 63.3633 134.405 63.8753 133.808L65.7313 135.696C65.0059 136.549 64.1099 137.2 63.0433 137.648C61.9979 138.096 60.8779 138.32 59.6833 138.32ZM76.7435 138.32C75.2502 138.32 73.8955 137.968 72.6795 137.264C71.4848 136.56 70.5355 135.611 69.8315 134.416C69.1488 133.2 68.8075 131.856 68.8075 130.384C68.8075 128.891 69.1488 127.547 69.8315 126.352C70.5355 125.157 71.4848 124.219 72.6795 123.536C73.8955 122.832 75.2502 122.48 76.7435 122.48C77.9168 122.48 79.0048 122.704 80.0075 123.152C81.0102 123.579 81.8742 124.208 82.5995 125.04L80.6795 126.96C80.2102 126.405 79.6342 125.989 78.9515 125.712C78.2902 125.413 77.5542 125.264 76.7435 125.264C75.7835 125.264 74.9302 125.488 74.1835 125.936C73.4368 126.363 72.8502 126.96 72.4235 127.728C71.9968 128.496 71.7835 129.381 71.7835 130.384C71.7835 131.387 71.9968 132.272 72.4235 133.04C72.8502 133.808 73.4368 134.416 74.1835 134.864C74.9302 135.312 75.7835 135.536 76.7435 135.536C77.5542 135.536 78.2902 135.397 78.9515 135.12C79.6342 134.821 80.2208 134.395 80.7115 133.84L82.5995 135.76C81.8955 136.571 81.0315 137.2 80.0075 137.648C79.0048 138.096 77.9168 138.32 76.7435 138.32ZM92.0873 138.32C90.5939 138.32 89.2499 137.968 88.0553 137.264C86.8606 136.56 85.9113 135.611 85.2073 134.416C84.5033 133.2 84.1513 131.845 84.1513 130.352C84.1513 128.88 84.5033 127.557 85.2073 126.384C85.9113 125.189 86.8606 124.24 88.0553 123.536C89.2499 122.832 90.5939 122.48 92.0873 122.48C93.5593 122.48 94.8926 122.832 96.0873 123.536C97.3033 124.219 98.2633 125.157 98.9673 126.352C99.6713 127.547 100.023 128.88 100.023 130.352C100.023 131.845 99.6713 133.2 98.9673 134.416C98.2633 135.611 97.3033 136.56 96.0873 137.264C94.8926 137.968 93.5593 138.32 92.0873 138.32ZM92.0873 135.536C93.0473 135.536 93.9006 135.312 94.6473 134.864C95.3939 134.416 95.9806 133.808 96.4073 133.04C96.8339 132.251 97.0473 131.355 97.0473 130.352C97.0473 129.371 96.8233 128.496 96.3753 127.728C95.9486 126.96 95.3619 126.363 94.6153 125.936C93.8899 125.488 93.0473 125.264 92.0873 125.264C91.1273 125.264 90.2739 125.488 89.5273 125.936C88.7806 126.363 88.1939 126.96 87.7673 127.728C87.3406 128.496 87.1273 129.371 87.1273 130.352C87.1273 131.355 87.3406 132.251 87.7673 133.04C88.1939 133.808 88.7806 134.416 89.5273 134.864C90.2739 135.312 91.1273 135.536 92.0873 135.536ZM114.02 138V129.136C114.02 127.984 113.658 127.035 112.932 126.288C112.207 125.541 111.268 125.168 110.116 125.168C109.348 125.168 108.666 125.339 108.068 125.68C107.471 126.021 107.002 126.491 106.66 127.088C106.319 127.685 106.148 128.368 106.148 129.136L104.964 128.464C104.964 127.312 105.22 126.288 105.732 125.392C106.244 124.496 106.959 123.792 107.876 123.28C108.794 122.747 109.828 122.48 110.98 122.48C112.132 122.48 113.146 122.768 114.02 123.344C114.916 123.92 115.62 124.677 116.132 125.616C116.644 126.533 116.9 127.515 116.9 128.56V138H114.02ZM103.268 138V122.8H106.148V138H103.268ZM127.232 138.32C125.824 138.32 124.565 137.979 123.456 137.296C122.346 136.592 121.461 135.643 120.799 134.448C120.16 133.253 119.84 131.909 119.84 130.416C119.84 128.923 120.16 127.579 120.799 126.384C121.461 125.189 122.346 124.24 123.456 123.536C124.565 122.832 125.824 122.48 127.232 122.48C128.362 122.48 129.386 122.725 130.304 123.216C131.221 123.685 131.957 124.347 132.512 125.2C133.088 126.032 133.408 127.003 133.472 128.112V132.688C133.408 133.776 133.098 134.747 132.544 135.6C131.989 136.453 131.253 137.125 130.336 137.616C129.418 138.085 128.384 138.32 127.232 138.32ZM127.712 135.6C128.672 135.6 129.504 135.376 130.208 134.928C130.933 134.48 131.498 133.872 131.904 133.104C132.309 132.315 132.512 131.419 132.512 130.416C132.512 129.371 132.298 128.464 131.872 127.696C131.466 126.928 130.901 126.32 130.176 125.872C129.472 125.424 128.64 125.2 127.68 125.2C126.72 125.2 125.877 125.424 125.152 125.872C124.426 126.32 123.85 126.939 123.424 127.728C123.018 128.496 122.816 129.381 122.816 130.384C122.816 131.408 123.018 132.315 123.424 133.104C123.85 133.872 124.426 134.48 125.152 134.928C125.898 135.376 126.752 135.6 127.712 135.6ZM135.232 138H132.32V133.904L132.864 130.192L132.32 126.512V115.152H135.232V138ZM145.889 138.32C144.502 138.32 143.243 137.979 142.113 137.296C140.982 136.592 140.086 135.643 139.424 134.448C138.785 133.253 138.465 131.909 138.465 130.416C138.465 128.923 138.785 127.579 139.424 126.384C140.086 125.189 140.971 124.24 142.081 123.536C143.211 122.832 144.481 122.48 145.889 122.48C147.041 122.48 148.065 122.725 148.961 123.216C149.878 123.685 150.614 124.347 151.169 125.2C151.723 126.032 152.033 127.003 152.097 128.112V132.688C152.033 133.776 151.723 134.747 151.169 135.6C150.635 136.453 149.91 137.125 148.993 137.616C148.097 138.085 147.062 138.32 145.889 138.32ZM146.369 135.6C147.798 135.6 148.95 135.12 149.825 134.16C150.699 133.179 151.137 131.931 151.137 130.416C151.137 129.371 150.934 128.464 150.529 127.696C150.145 126.907 149.59 126.299 148.865 125.872C148.139 125.424 147.297 125.2 146.337 125.2C145.377 125.2 144.523 125.424 143.777 125.872C143.051 126.32 142.475 126.939 142.049 127.728C141.643 128.496 141.441 129.381 141.441 130.384C141.441 131.408 141.643 132.315 142.049 133.104C142.475 133.872 143.062 134.48 143.809 134.928C144.555 135.376 145.409 135.6 146.369 135.6ZM150.945 138V133.904L151.489 130.192L150.945 126.512V122.8H153.857V138H150.945ZM158.049 138V122.8H160.93V138H158.049ZM160.93 129.328L159.842 128.848C159.842 126.907 160.29 125.36 161.186 124.208C162.082 123.056 163.372 122.48 165.058 122.48C165.826 122.48 166.519 122.619 167.138 122.896C167.756 123.152 168.332 123.589 168.866 124.208L166.978 126.16C166.658 125.819 166.306 125.573 165.922 125.424C165.538 125.275 165.09 125.2 164.578 125.2C163.511 125.2 162.636 125.541 161.954 126.224C161.271 126.907 160.93 127.941 160.93 129.328ZM175.604 138.128L169.012 122.8H172.212L177.108 134.8H176.084L181.236 122.8H184.436L177.332 138.128H175.604ZM171.252 144.368L175.732 135.184L177.332 138.128L174.452 144.368H171.252ZM196.042 138V116.432H198.922V138H196.042ZM192.298 125.424V122.8H202.666V125.424H192.298ZM212.058 138.32C210.544 138.32 209.178 137.979 207.962 137.296C206.746 136.592 205.786 135.643 205.082 134.448C204.378 133.253 204.026 131.899 204.026 130.384C204.026 128.891 204.368 127.547 205.05 126.352C205.754 125.157 206.693 124.219 207.866 123.536C209.061 122.832 210.394 122.48 211.866 122.48C213.274 122.48 214.512 122.8 215.578 123.44C216.666 124.08 217.509 124.965 218.106 126.096C218.725 127.227 219.034 128.507 219.034 129.936C219.034 130.149 219.024 130.384 219.002 130.64C218.981 130.875 218.938 131.152 218.874 131.472H206.042V129.072H217.338L216.282 130C216.282 128.976 216.101 128.112 215.738 127.408C215.376 126.683 214.864 126.128 214.202 125.744C213.541 125.339 212.741 125.136 211.802 125.136C210.821 125.136 209.957 125.349 209.21 125.776C208.464 126.203 207.888 126.8 207.482 127.568C207.077 128.336 206.874 129.243 206.874 130.288C206.874 131.355 207.088 132.293 207.514 133.104C207.941 133.893 208.549 134.512 209.338 134.96C210.128 135.387 211.034 135.6 212.058 135.6C212.912 135.6 213.69 135.451 214.394 135.152C215.12 134.853 215.738 134.405 216.25 133.808L218.106 135.696C217.381 136.549 216.485 137.2 215.418 137.648C214.373 138.096 213.253 138.32 212.058 138.32ZM231.69 138L226.954 131.344L226.41 130.832L220.426 122.8H223.914L228.234 128.72L228.778 129.168L235.178 138H231.69ZM220.138 138L226.41 129.552L228.042 131.664L223.53 138H220.138ZM229.002 130.8L227.338 128.752L231.53 122.8H234.89L229.002 130.8ZM239.511 138V116.432H242.391V138H239.511ZM235.767 125.424V122.8H246.135V125.424H235.767Z" fill="#424242"/>
<path d="M38.32 179V165.52H40.2V179H38.32ZM33.6 166.84V165.12H44.9V166.84H33.6ZM48.5833 179.2C47.6366 179.2 46.7833 178.987 46.0233 178.56C45.2633 178.12 44.6633 177.527 44.2233 176.78C43.7833 176.033 43.5633 175.187 43.5633 174.24C43.5633 173.307 43.7766 172.467 44.2033 171.72C44.6433 170.973 45.2299 170.387 45.9633 169.96C46.7099 169.52 47.5433 169.3 48.4633 169.3C49.3433 169.3 50.1166 169.5 50.7833 169.9C51.4633 170.3 51.9899 170.853 52.3633 171.56C52.7499 172.267 52.9433 173.067 52.9433 173.96C52.9433 174.093 52.9366 174.24 52.9233 174.4C52.9099 174.547 52.8833 174.72 52.8433 174.92H44.8233V173.42H51.8833L51.2233 174C51.2233 173.36 51.1099 172.82 50.8833 172.38C50.6566 171.927 50.3366 171.58 49.9233 171.34C49.5099 171.087 49.0099 170.96 48.4233 170.96C47.8099 170.96 47.2699 171.093 46.8033 171.36C46.3366 171.627 45.9766 172 45.7233 172.48C45.4699 172.96 45.3433 173.527 45.3433 174.18C45.3433 174.847 45.4766 175.433 45.7433 175.94C46.0099 176.433 46.3899 176.82 46.8833 177.1C47.3766 177.367 47.9433 177.5 48.5833 177.5C49.1166 177.5 49.6033 177.407 50.0433 177.22C50.4966 177.033 50.8833 176.753 51.2033 176.38L52.3633 177.56C51.9099 178.093 51.3499 178.5 50.6833 178.78C50.0299 179.06 49.3299 179.2 48.5833 179.2ZM54.9059 179V169.5H56.7059V179H54.9059ZM56.7059 173.58L56.0259 173.28C56.0259 172.067 56.3059 171.1 56.8659 170.38C57.4259 169.66 58.2326 169.3 59.2859 169.3C59.7659 169.3 60.1993 169.387 60.5859 169.56C60.9726 169.72 61.3326 169.993 61.6659 170.38L60.4859 171.6C60.2859 171.387 60.0659 171.233 59.8259 171.14C59.5859 171.047 59.3059 171 58.9859 171C58.3193 171 57.7726 171.213 57.3459 171.64C56.9193 172.067 56.7059 172.713 56.7059 173.58ZM64.3542 179V165.52H66.1542V179H64.3542ZM62.0142 171.14V169.5H68.4942V171.14H62.0142ZM70.2775 179V169.5H72.0775V179H70.2775ZM71.1775 167.6C70.8442 167.6 70.5708 167.493 70.3575 167.28C70.1442 167.053 70.0375 166.773 70.0375 166.44C70.0375 166.12 70.1442 165.853 70.3575 165.64C70.5708 165.413 70.8442 165.3 71.1775 165.3C71.5108 165.3 71.7842 165.413 71.9975 165.64C72.2108 165.853 72.3175 166.12 72.3175 166.44C72.3175 166.773 72.2108 167.053 71.9975 167.28C71.7842 167.493 71.5108 167.6 71.1775 167.6ZM78.7702 179.2C77.9035 179.2 77.1168 178.987 76.4102 178.56C75.7035 178.12 75.1435 177.527 74.7302 176.78C74.3302 176.033 74.1302 175.193 74.1302 174.26C74.1302 173.327 74.3302 172.487 74.7302 171.74C75.1435 170.993 75.6968 170.4 76.3902 169.96C77.0968 169.52 77.8902 169.3 78.7702 169.3C79.4902 169.3 80.1302 169.453 80.6902 169.76C81.2635 170.053 81.7235 170.467 82.0702 171C82.4168 171.52 82.6102 172.127 82.6502 172.82V175.68C82.6102 176.36 82.4168 176.967 82.0702 177.5C81.7368 178.033 81.2835 178.453 80.7102 178.76C80.1502 179.053 79.5035 179.2 78.7702 179.2ZM79.0702 177.5C79.9635 177.5 80.6835 177.2 81.2302 176.6C81.7768 175.987 82.0502 175.207 82.0502 174.26C82.0502 173.607 81.9235 173.04 81.6702 172.56C81.4302 172.067 81.0835 171.687 80.6302 171.42C80.1768 171.14 79.6502 171 79.0502 171C78.4502 171 77.9168 171.14 77.4502 171.42C76.9968 171.7 76.6368 172.087 76.3702 172.58C76.1168 173.06 75.9902 173.613 75.9902 174.24C75.9902 174.88 76.1168 175.447 76.3702 175.94C76.6368 176.42 77.0035 176.8 77.4702 177.08C77.9368 177.36 78.4702 177.5 79.0702 177.5ZM81.9302 179V176.44L82.2702 174.12L81.9302 171.82V169.5H83.7502V179H81.9302ZM86.3708 179V169.5H88.1708V179H86.3708ZM88.1708 173.58L87.4908 173.28C87.4908 172.067 87.7708 171.1 88.3308 170.38C88.8908 169.66 89.6974 169.3 90.7508 169.3C91.2308 169.3 91.6641 169.387 92.0508 169.56C92.4374 169.72 92.7974 169.993 93.1308 170.38L91.9508 171.6C91.7508 171.387 91.5308 171.233 91.2908 171.14C91.0508 171.047 90.7708 171 90.4508 171C89.7841 171 89.2374 171.213 88.8108 171.64C88.3841 172.067 88.1708 172.713 88.1708 173.58ZM97.3423 179.08L93.2223 169.5H95.2223L98.2823 177H97.6423L100.862 169.5H102.862L98.4223 179.08H97.3423ZM94.6223 182.98L97.4223 177.24L98.4223 179.08L96.6223 182.98H94.6223ZM110.116 179V165.52H111.916V179H110.116ZM107.776 171.14V169.5H114.256V171.14H107.776ZM120.126 179.2C119.18 179.2 118.326 178.987 117.566 178.56C116.806 178.12 116.206 177.527 115.766 176.78C115.326 176.033 115.106 175.187 115.106 174.24C115.106 173.307 115.32 172.467 115.746 171.72C116.186 170.973 116.773 170.387 117.506 169.96C118.253 169.52 119.086 169.3 120.006 169.3C120.886 169.3 121.66 169.5 122.326 169.9C123.006 170.3 123.533 170.853 123.906 171.56C124.293 172.267 124.486 173.067 124.486 173.96C124.486 174.093 124.48 174.24 124.466 174.4C124.453 174.547 124.426 174.72 124.386 174.92H116.366V173.42H123.426L122.766 174C122.766 173.36 122.653 172.82 122.426 172.38C122.2 171.927 121.88 171.58 121.466 171.34C121.053 171.087 120.553 170.96 119.966 170.96C119.353 170.96 118.813 171.093 118.346 171.36C117.88 171.627 117.52 172 117.266 172.48C117.013 172.96 116.886 173.527 116.886 174.18C116.886 174.847 117.02 175.433 117.286 175.94C117.553 176.433 117.933 176.82 118.426 177.1C118.92 177.367 119.486 177.5 120.126 177.5C120.66 177.5 121.146 177.407 121.586 177.22C122.04 177.033 122.426 176.753 122.746 176.38L123.906 177.56C123.453 178.093 122.893 178.5 122.226 178.78C121.573 179.06 120.873 179.2 120.126 179.2ZM132.396 179L129.436 174.84L129.096 174.52L125.356 169.5H127.536L130.236 173.2L130.576 173.48L134.576 179H132.396ZM125.176 179L129.096 173.72L130.116 175.04L127.296 179H125.176ZM130.716 174.5L129.676 173.22L132.296 169.5H134.396L130.716 174.5ZM137.284 179V165.52H139.084V179H137.284ZM134.944 171.14V169.5H141.424V171.14H134.944Z" fill="#424242"/>
</svg>
