<svg width="448" height="266" viewBox="0 0 448 266" fill="none" xmlns="http://www.w3.org/2000/svg">
<rect width="448" height="266" fill="#F6F6F8"/>
<g clip-path="url(#clip0_14127_1904)">
<path d="M267.049 58.6318C274.048 58.8093 280.207 62.3718 283.948 67.7432C286.017 69.1849 287.816 70.985 289.258 73.0537C294.768 76.893 298.375 83.2748 298.375 90.5V175.5L298.368 176.049C298.191 183.047 294.629 189.202 289.26 192.944C287.818 195.015 286.016 196.815 283.946 198.258C280.204 203.628 274.048 207.191 267.049 207.368L266.5 207.375H181.5C174.274 207.375 167.891 203.768 164.052 198.257C161.983 196.815 160.183 195.014 158.741 192.945C153.371 189.203 149.809 183.047 149.632 176.049L149.625 175.5V90.5C149.625 83.2751 153.231 76.8931 158.741 73.0537C160.183 70.9841 161.984 69.1833 164.054 67.7412C167.893 62.2312 174.275 58.625 181.5 58.625H266.5L267.049 58.6318ZM165.992 199.461C169.743 203.819 175.299 206.578 181.5 206.578H213.086C207.259 205.721 201.652 204.189 196.347 202.062H176.188L175.639 202.056C172.149 201.967 168.869 201.037 165.992 199.461ZM198.565 202.062C206.492 204.983 215.06 206.578 224 206.578C232.94 206.578 241.508 204.983 249.435 202.062H198.565ZM282.007 199.46C279.131 201.036 275.851 201.967 272.361 202.056L271.812 202.062H251.653C246.348 204.189 240.741 205.721 234.914 206.578H266.5C272.701 206.578 278.256 203.818 282.007 199.46ZM163.232 195.334C163.645 196.151 164.111 196.936 164.626 197.686C167.915 199.943 171.897 201.266 176.188 201.266H194.435C191.403 199.951 188.477 198.441 185.671 196.75H170.875L170.326 196.743C167.831 196.68 165.443 196.186 163.232 195.334ZM284.767 195.334C282.557 196.186 280.169 196.68 277.674 196.743L277.125 196.75H262.329C259.523 198.441 256.597 199.951 253.565 201.266H271.812C276.103 201.266 280.084 199.943 283.373 197.686C283.888 196.936 284.354 196.151 284.767 195.334ZM187.238 196.75C190.201 198.462 193.294 199.973 196.499 201.266H251.501C254.706 199.973 257.799 198.462 260.762 196.75H187.238ZM287.319 194.148C286.847 194.407 286.364 194.647 285.871 194.87C285.648 195.364 285.406 195.847 285.146 196.32C285.924 195.651 286.65 194.926 287.319 194.148ZM160.68 194.148C161.348 194.925 162.075 195.651 162.852 196.319C162.592 195.846 162.35 195.363 162.127 194.869C161.634 194.646 161.151 194.407 160.68 194.148ZM161.047 186.125C161.047 189.019 161.649 191.772 162.732 194.267C165.228 195.351 167.981 195.953 170.875 195.953H184.38C174.969 190.018 166.982 182.031 161.047 172.62V186.125ZM185.893 70.0469C175.744 76.2031 167.203 84.7435 161.047 94.8916V171.107C167.203 181.256 175.744 189.797 185.893 195.953H262.107C272.256 189.797 280.797 181.256 286.953 171.107V94.8916C280.797 84.7435 272.256 76.2031 262.107 70.0469H185.893ZM286.953 172.62C281.018 182.031 273.031 190.018 263.62 195.953H277.125C280.019 195.953 282.772 195.351 285.267 194.267C286.351 191.772 286.953 189.019 286.953 186.125V172.62ZM155.734 180.812C155.734 185.103 157.056 189.084 159.313 192.373C160.063 192.888 160.848 193.354 161.665 193.767C160.813 191.557 160.32 189.169 160.257 186.674L160.25 186.125V171.328C158.56 168.522 157.049 165.596 155.734 162.565V180.812ZM292.266 162.565C290.951 165.596 289.44 168.522 287.75 171.328V186.125C287.75 188.819 287.248 191.395 286.334 193.767C287.151 193.354 287.936 192.888 288.686 192.373C290.943 189.084 292.266 185.103 292.266 180.812V162.565ZM297.578 143.913C296.721 149.74 295.189 155.348 293.062 160.653V180.812C293.062 184.507 292.117 187.981 290.459 191.008C294.817 187.257 297.578 181.701 297.578 175.5V143.913ZM150.422 175.5C150.422 181.7 153.181 187.256 157.538 191.007C155.963 188.131 155.033 184.851 154.944 181.361L154.938 180.812V160.653C152.811 155.348 151.279 149.74 150.422 143.913V175.5ZM160.25 96.2383C158.538 99.2009 157.027 102.294 155.734 105.499V160.5C157.027 163.705 158.538 166.798 160.25 169.761V96.2383ZM287.75 169.761C289.462 166.798 290.973 163.705 292.266 160.5V105.499C290.973 102.294 289.462 99.2009 287.75 96.2383V169.761ZM154.938 107.564C152.017 115.491 150.422 124.059 150.422 133C150.422 141.94 152.017 150.508 154.938 158.435V107.564ZM293.062 158.435C295.983 150.508 297.578 141.94 297.578 133C297.578 124.059 295.983 115.491 293.062 107.564V158.435ZM157.538 74.9932C153.181 78.744 150.422 84.2997 150.422 90.5V122.086C151.279 116.259 152.811 110.651 154.938 105.346V85.1875C154.938 81.4934 155.88 78.0195 157.538 74.9932ZM290.461 74.9932C292.119 78.0196 293.062 81.4932 293.062 85.1875V105.346C295.189 110.651 296.721 116.259 297.578 122.086V90.5C297.578 84.2995 294.818 78.744 290.461 74.9932ZM161.666 72.2324C160.849 72.6452 160.063 73.1113 159.313 73.626C157.056 76.9149 155.734 80.8968 155.734 85.1875V103.434C157.049 100.403 158.56 97.4765 160.25 94.6709V79.875C160.25 77.181 160.752 74.6041 161.666 72.2324ZM286.334 72.2324C287.248 74.6041 287.75 77.181 287.75 79.875V94.6709C289.44 97.4765 290.951 100.403 292.266 103.434V85.1875C292.266 80.8966 290.943 76.9149 288.686 73.626C287.936 73.1115 287.151 72.6451 286.334 72.2324ZM170.875 70.0469C167.981 70.0469 165.228 70.6484 162.732 71.7324C161.648 74.2276 161.047 76.981 161.047 79.875V93.3789C166.982 83.9683 174.969 75.9821 184.38 70.0469H170.875ZM263.62 70.0469C273.031 75.9821 281.018 83.9683 286.953 93.3789V79.875C286.953 76.9809 286.351 74.2277 285.267 71.7324C282.772 70.6486 280.019 70.0469 277.125 70.0469H263.62ZM162.851 69.6807C162.074 70.3489 161.349 71.0744 160.681 71.8506C161.152 71.5922 161.634 71.3497 162.127 71.127C162.35 70.6343 162.592 70.1524 162.851 69.6807ZM285.146 69.6787C285.405 70.1506 285.646 70.6332 285.869 71.126C286.363 71.3491 286.846 71.5917 287.318 71.8506C286.649 71.0737 285.924 70.3474 285.146 69.6787ZM176.188 64.7344C171.897 64.7344 167.915 66.0557 164.626 68.3135C164.111 69.0632 163.645 69.8488 163.232 70.666C165.604 69.7516 168.181 69.25 170.875 69.25H185.671C188.477 67.5594 191.403 66.049 194.435 64.7344H176.188ZM253.565 64.7344C256.597 66.049 259.523 67.5594 262.329 69.25H277.125C279.819 69.25 282.395 69.7518 284.767 70.666C284.354 69.8488 283.888 69.0632 283.373 68.3135C280.084 66.056 276.103 64.7344 271.812 64.7344H253.565ZM196.499 64.7344C193.294 66.0267 190.201 67.5379 187.238 69.25H260.762C257.799 67.5379 254.706 66.0267 251.501 64.7344H196.499ZM181.5 59.4219C175.3 59.4219 169.744 62.1809 165.993 66.5381C169.02 64.8803 172.493 63.9375 176.188 63.9375H196.347C201.652 61.8113 207.259 60.2788 213.086 59.4219H181.5ZM234.914 59.4219C240.741 60.2788 246.348 61.8113 251.653 63.9375H271.812C275.506 63.9375 278.98 64.8805 282.006 66.5381C278.255 62.1812 272.7 59.4219 266.5 59.4219H234.914ZM224 59.4219C215.06 59.4219 206.492 61.0173 198.565 63.9375H249.435C241.508 61.0173 232.94 59.4219 224 59.4219Z" fill="#9747FF"/>
<path fill-rule="evenodd" clip-rule="evenodd" d="M195.649 172.574C193.727 171.111 190.928 170.569 188.897 171.87C185.933 173.821 185.11 177.832 187.854 180.109C191.861 183.523 197.295 186.125 202.62 186.125C213.433 186.125 221.996 178.753 224.631 169.702C232.206 174.743 242.415 175.014 250.704 169.973L254.821 174.255C256.907 176.369 260.255 176.369 262.505 174.255C264.701 172.195 264.866 168.726 262.835 166.558L258.718 162.276C264.207 154.2 264.372 143.956 259.706 136.151C268.873 134.145 276.667 125.798 277.106 114.741C277.765 97.8837 260.859 87.4769 246.697 95.9866L228.693 106.827C228.144 106.068 227.54 105.364 226.881 104.659C222.051 99.564 215.135 97.5043 208.548 98.4257C208.548 97.7753 208.603 97.0707 208.713 96.366C209.097 93.6559 210.14 91.1626 212.171 89.1571C214.421 87.0433 214.531 83.6285 212.5 81.4604C210.414 79.3465 207.066 79.3465 204.815 81.4604C200.424 85.6882 198.558 90.8374 197.899 95.282C197.515 98.1005 197.57 100.811 197.899 103.033C197.295 103.467 196.692 104.009 196.088 104.605C195.484 105.147 194.935 105.743 194.441 106.339C192.245 105.906 189.556 105.689 186.701 105.96C182.255 106.393 177.041 107.965 172.649 112.193C170.399 114.307 170.289 117.722 172.32 119.89C174.406 122.004 177.754 122.004 180.005 119.89C182.091 117.939 184.67 117.017 187.305 116.746C188.019 116.746 188.732 116.638 189.391 116.746C188.074 123.359 189.885 130.405 194.715 135.5C195.264 136.042 195.758 136.53 196.362 137.018L194.167 140.161C193.288 141.462 193.014 142.926 193.288 144.281L193.892 147.316C194.057 148.129 193.837 148.996 193.398 149.647C192.685 150.731 192.026 150.948 190.983 151.165L187.36 151.923C185.713 152.249 184.231 153.278 183.243 154.796C181.212 157.831 181.981 161.842 184.945 163.739C187.909 165.637 191.916 164.715 193.947 161.68C194.935 160.162 195.264 158.428 194.935 156.802L194.221 153.224C194.002 152.194 194.002 151.436 194.661 150.406C195.1 149.701 195.758 149.213 196.582 148.996L199.601 148.292C200.973 147.967 202.181 147.099 203.004 145.799L204.486 143.522L213.159 159.457C217.001 166.612 211.347 175.556 202.894 175.556C200.479 175.556 197.844 174.255 195.649 172.574ZM219.471 141.408L223.259 149.105C227.869 148.183 235.335 144.498 238.793 133.766L231.657 129.755L225.564 135.608L219.526 141.408H219.471ZM247.63 158.861C241.921 164.336 233.249 163.902 228.473 158.59C235.444 156.097 243.513 150.406 247.959 139.294C253.284 144.335 253.503 153.278 247.63 158.861ZM218.154 127.858C222.6 123.576 222.929 116.692 218.812 112.41C214.805 108.128 207.889 108.074 203.443 112.356C198.997 116.638 198.668 123.521 202.784 127.803C206.791 132.085 213.708 132.14 218.154 127.858ZM235.554 114.849L251.418 105.364C258.553 101.027 267.006 106.231 266.677 114.741C266.348 123.25 257.346 128.508 250.594 124.28L235.554 114.849Z" fill="#4F46E5"/>
</g>
<defs>
<clipPath id="clip0_14127_1904">
<rect width="170" height="170" fill="white" transform="translate(139 48)"/>
</clipPath>
</defs>
</svg>
