<svg width="108" height="40" viewBox="0 0 108 40" fill="none" xmlns="http://www.w3.org/2000/svg">
<path fill-rule="evenodd" clip-rule="evenodd" d="M9.32654 34.8986C8.60328 34.3477 7.54938 34.1436 6.78478 34.6333C5.66889 35.3679 5.35892 36.8779 6.39215 37.735C7.90067 39.0205 9.94648 40 11.951 40C16.0219 40 19.2456 37.2248 20.2375 33.8171C23.0892 35.7148 26.9329 35.8169 30.0532 33.9191L31.6031 35.5312C32.3884 36.327 33.6489 36.327 34.4962 35.5312C35.3227 34.7558 35.3847 33.4498 34.6201 32.6336L33.0703 31.0215C35.1368 27.9811 35.1988 24.1245 33.4423 21.1861C36.8933 20.4311 39.8277 17.2886 39.993 13.1259C40.2409 6.77975 33.8762 2.86188 28.5447 6.06555L21.7667 10.1467C21.5601 9.86099 21.3327 9.59571 21.0848 9.33044C19.2663 7.41232 16.6625 6.63691 14.1827 6.9838C14.1827 6.73894 14.2034 6.47366 14.2447 6.20839C14.3894 5.18811 14.782 4.24946 15.5466 3.49445C16.3939 2.69864 16.4352 1.41308 15.6706 0.596863C14.8853 -0.198954 13.6248 -0.198954 12.7775 0.596863C11.1244 2.1885 10.4218 4.12702 10.1738 5.80028C10.0291 6.86137 10.0498 7.88165 10.1738 8.71828C9.94648 8.88152 9.71917 9.08557 9.49186 9.31004C9.26455 9.51409 9.0579 9.73855 8.87192 9.96301C8.04533 9.79977 7.03276 9.71815 5.95819 9.82018C4.28435 9.98342 2.3212 10.5752 0.668027 12.1668C-0.179227 12.9626 -0.220556 14.2482 0.544038 15.0644C1.3293 15.8602 2.58984 15.8602 3.4371 15.0644C4.22236 14.3298 5.1936 13.9829 6.1855 13.8809C6.45415 13.8809 6.72279 13.8401 6.97076 13.8809C6.47481 16.3704 7.15675 19.0231 8.97524 20.9412C9.18189 21.1453 9.36787 21.3289 9.59518 21.5126L8.76859 22.6961C8.43796 23.1858 8.33463 23.7368 8.43796 24.2469L8.66527 25.3896C8.72726 25.6957 8.64461 26.0222 8.47929 26.2671C8.21065 26.6752 7.96267 26.7568 7.57004 26.8384L6.20617 27.1241C5.58623 27.2465 5.02828 27.6342 4.65632 28.2056C3.89172 29.3483 4.18103 30.8583 5.29692 31.5725C6.41282 32.2867 7.92134 31.9398 8.68594 30.7971C9.0579 30.2257 9.18189 29.5728 9.0579 28.9606L8.78926 27.6138C8.7066 27.2261 8.7066 26.9404 8.95458 26.5527C9.11989 26.2875 9.36787 26.1038 9.67784 26.0222L10.8144 25.7569C11.331 25.6345 11.7856 25.308 12.0956 24.8183L12.6536 23.9612L15.9186 29.9605C17.3651 32.654 15.2366 36.0209 12.0543 36.0209C11.145 36.0209 10.1531 35.5312 9.32654 34.8986ZM18.295 23.1654L19.7209 26.063C21.4567 25.7161 24.2671 24.3285 25.569 20.2882L22.8826 18.7782L20.5888 20.982L18.3157 23.1654H18.295ZM28.896 29.736C26.7469 31.797 23.4819 31.6337 21.684 29.634C24.3085 28.6953 27.3462 26.5527 29.02 22.3696C31.0245 24.2673 31.1071 27.6342 28.896 29.736ZM17.7991 18.064C19.4729 16.452 19.5969 13.8605 18.0471 12.2484C16.5385 10.6364 13.9348 10.616 12.2609 12.228C10.5871 13.8401 10.4631 16.4316 12.013 18.0436C13.5215 19.6557 16.1252 19.6761 17.7991 18.064ZM24.3498 13.1667L30.3219 9.59571C33.0083 7.96327 36.1907 9.9222 36.0667 13.1259C35.9427 16.3295 32.5537 18.3089 30.0119 16.7173L24.3498 13.1667Z" fill="#2A2C35"/>
<path d="M63.8706 21.8453C64.4895 22.6048 64.7989 23.5049 64.7989 24.4895C64.7989 25.3896 64.5738 26.1772 64.1238 26.8523C63.6737 27.5274 63.0548 28.0619 62.211 28.4557C61.3671 28.8495 60.3826 29.0464 59.2574 29.0464H52V12.2251H58.948C60.1013 12.2251 61.0858 12.422 61.9016 12.7876C62.7173 13.1533 63.3643 13.6596 63.7862 14.3348C64.2082 14.9817 64.4332 15.7412 64.4332 16.5851C64.4332 17.5696 64.18 18.3854 63.6456 19.0324C63.1111 19.6793 62.436 20.1575 61.564 20.4388C62.4923 20.5795 63.2799 21.0577 63.8706 21.8453ZM55.3755 19.1449H58.4698C59.2855 19.1449 59.9044 18.9761 60.3263 18.6104C60.7483 18.2447 60.9733 17.7384 60.9733 17.0633C60.9733 16.3882 60.7483 15.8537 60.3263 15.4881C59.9044 15.1224 59.2855 14.9255 58.4698 14.9255H55.3755V19.1449ZM60.692 25.7272C61.1421 25.3333 61.3671 24.7989 61.3671 24.0957C61.3671 23.3643 61.1139 22.8017 60.6357 22.4079C60.1575 21.986 59.5105 21.789 58.6948 21.789H55.3755V26.3179H58.7792C59.5949 26.2897 60.2419 26.0928 60.692 25.7272Z" fill="#2A2C35"/>
<path d="M70.4248 14.9254V19.1448H76.0788V21.8171H70.4248V26.2897H76.8101V29.0464H67.0492V12.1969H76.8101V14.9536H70.4248V14.9254Z" fill="#2A2C35"/>
<path d="M82.6892 14.9254V19.1448H88.3432V21.8171H82.6892V26.2897H89.0745V29.0464H79.3137V12.1969H89.0745V14.9536H82.6892V14.9254Z" fill="#2A2C35"/>
<path d="M103.73 32L101.17 28.9339C100.467 29.1027 99.7356 29.1871 99.0042 29.1871C97.429 29.1871 95.9944 28.8214 94.6723 28.09C93.3502 27.3586 92.3094 26.3179 91.5499 25.0239C90.7904 23.7018 90.3966 22.2391 90.3966 20.5795C90.3966 18.948 90.7904 17.4571 91.5499 16.1631C92.3094 14.8411 93.3783 13.8284 94.6723 13.097C95.9944 12.3657 97.429 12 99.0042 12C100.608 12 102.042 12.3657 103.364 13.097C104.686 13.8284 105.699 14.8692 106.487 16.1631C107.274 17.4571 107.64 18.948 107.64 20.5795C107.64 22.0703 107.331 23.4487 106.684 24.6582C106.037 25.8959 105.193 26.8804 104.096 27.6681L107.949 32H103.73ZM94.4754 23.5331C94.8973 24.3769 95.5162 25.052 96.3038 25.5021C97.0914 25.9522 97.9916 26.1772 99.0042 26.1772C100.017 26.1772 100.917 25.9522 101.677 25.5021C102.436 25.052 103.055 24.3769 103.477 23.5331C103.899 22.6892 104.124 21.7046 104.124 20.5795C104.124 19.4543 103.899 18.4698 103.477 17.6259C103.055 16.782 102.436 16.135 101.677 15.685C100.917 15.2349 100.017 15.0098 99.0042 15.0098C97.9916 15.0098 97.0914 15.2349 96.3038 15.685C95.5162 16.135 94.9255 16.782 94.4754 17.6259C94.0534 18.4698 93.8284 19.4543 93.8284 20.5795C93.8284 21.7046 94.0534 22.6892 94.4754 23.5331Z" fill="#2A2C35"/>
</svg>
