<svg xmlns="http://www.w3.org/2000/svg" xmlns:xlink="http://www.w3.org/1999/xlink" fill="none" viewBox="0 0 267 40"><g clip-path="url(#a)"><path fill="#4f46e5" fill-rule="evenodd" d="M9.344 34.881c-.719-.559-1.783-.745-2.529-.266-1.118.745-1.41 2.236-.399 3.088 1.517 1.277 3.54 2.262 5.536 2.262 4.073 0 7.267-2.768 8.252-6.175 2.848 1.89 6.68 1.996 9.795.107l1.543 1.597c.772.798 2.05.798 2.875 0 .825-.772.878-2.077.133-2.902l-1.544-1.597c2.05-3.034 2.13-6.867.373-9.821 3.434-.746 6.361-3.886 6.521-8.039.24-6.334-6.095-10.247-11.419-7.053l-6.76 4.072a7 7 0 0 0-.692-.825c-1.81-1.916-4.419-2.688-6.894-2.342 0-.24.027-.506.053-.772.133-1.011.533-1.943 1.304-2.715A2.06 2.06 0 0 0 15.626.6c-.772-.799-2.05-.799-2.875 0-1.65 1.597-2.342 3.513-2.608 5.19-.134 1.065-.134 2.076 0 2.901-.24.16-.453.373-.693.586a7 7 0 0 0-.612.639c-.825-.16-1.836-.24-2.901-.133-1.677.16-3.62.745-5.27 2.342a2.06 2.06 0 0 0-.133 2.901c.772.799 2.05.799 2.874 0 .772-.745 1.757-1.091 2.742-1.17.266 0 .532-.054.772 0-.506 2.474.186 5.136 1.996 7.052.213.213.4.4.612.56l-.825 1.17a2.04 2.04 0 0 0-.32 1.544l.24 1.145c.054.293-.026.639-.186.878-.266.4-.506.48-.905.56l-1.357.292a2.44 2.44 0 0 0-1.544 1.091c-.772 1.145-.48 2.635.639 3.354s2.608.373 3.38-.772c.373-.559.506-1.224.373-1.836l-.267-1.331c-.08-.4-.08-.666.16-1.065.16-.266.4-.453.719-.532l1.144-.267a2.2 2.2 0 0 0 1.278-.931l.559-.852 3.247 5.989c1.437 2.688-.692 6.042-3.86 6.042-.851.053-1.836-.426-2.661-1.065m8.943-11.711 1.41 2.901c1.731-.346 4.526-1.73 5.83-5.75l-2.688-1.516-2.29 2.209zm10.567 6.548c-2.156 2.05-5.403 1.89-7.186-.107 2.608-.931 5.642-3.06 7.32-7.24 1.995 1.89 2.075 5.27-.134 7.347M17.782 18.086c1.676-1.597 1.783-4.205.24-5.802-1.518-1.597-4.1-1.624-5.777-.027s-1.783 4.205-.24 5.803c1.518 1.623 4.126 1.623 5.777.026m6.547-4.897 5.962-3.567c2.689-1.624 5.856.32 5.723 3.513s-3.513 5.164-6.042 3.594z" clip-rule="evenodd"/><path fill="#1c1d23" d="M63.296 22.952c.586.718.879 1.57.879 2.502q0 1.277-.64 2.235c-.425.64-1.01 1.145-1.81 1.518q-1.197.559-2.794.559h-6.867V13.849h6.548c1.091 0 2.023.186 2.794.532.772.346 1.385.825 1.784 1.464.399.612.612 1.33.612 2.13 0 .931-.24 1.703-.745 2.315a4.13 4.13 0 0 1-1.97 1.33c.878.134 1.624.586 2.21 1.332m-8.065-2.556h2.928c.772 0 1.358-.16 1.757-.505.4-.346.612-.825.612-1.464s-.213-1.145-.612-1.49c-.4-.347-.985-.533-1.757-.533h-2.928zm5.03 6.229c.427-.373.64-.879.64-1.544 0-.692-.24-1.224-.692-1.597-.453-.4-1.065-.586-1.837-.586h-3.14v4.286h3.22c.772-.027 1.384-.213 1.81-.56M69.471 16.404v3.993h5.35v2.528h-5.35v4.232h6.042v2.609h-9.236V13.822h9.236v2.609h-6.042zM81.076 16.404v3.993h5.35v2.528h-5.35v4.232h6.042v2.609h-9.236V13.822h9.236v2.609h-6.042zM100.985 32.56l-2.422-2.9c-.665.159-1.357.239-2.05.239-1.49 0-2.847-.346-4.098-1.038a7.73 7.73 0 0 1-2.955-2.901c-.718-1.251-1.09-2.635-1.09-4.206 0-1.544.372-2.954 1.09-4.179.719-1.25 1.73-2.209 2.955-2.901 1.25-.692 2.608-1.038 4.099-1.038 1.517 0 2.874.346 4.125 1.038s2.21 1.677 2.955 2.901c.719 1.251 1.091 2.635 1.091 4.18 0 1.41-.293 2.714-.905 3.858-.612 1.172-1.41 2.103-2.449 2.849l3.647 4.098zm-8.757-8.011c.4.798.985 1.437 1.73 1.863q1.119.639 2.556.639c.958 0 1.81-.213 2.528-.639a4.45 4.45 0 0 0 1.704-1.863c.399-.799.612-1.73.612-2.795s-.213-1.996-.612-2.795a4.4 4.4 0 0 0-1.704-1.836c-.718-.426-1.57-.639-2.528-.639q-1.437 0-2.555.639c-.746.426-1.305 1.038-1.73 1.836-.4.799-.613 1.73-.613 2.795s.213 1.996.612 2.795M120.868 14.78c1.251.64 2.236 1.57 2.902 2.769.665 1.197 1.011 2.635 1.011 4.285s-.346 3.06-1.011 4.259c-.666 1.197-1.624 2.102-2.902 2.741q-1.877.958-4.551.958h-4.738V13.85h4.738c1.783-.027 3.3.293 4.551.931m.559 11.925q1.757-1.757 1.757-4.871c0-2.103-.586-3.726-1.757-4.924-1.171-1.171-2.848-1.757-5.084-1.757h-3.114v13.309h3.114c2.21-.027 3.913-.613 5.084-1.757M138.435 24.15h-10.327c.053.931.266 1.756.692 2.422a4.04 4.04 0 0 0 1.624 1.517c.665.346 1.41.506 2.182.506 1.038 0 1.917-.24 2.609-.746.718-.505 1.171-1.17 1.41-2.023h1.677c-.293 1.225-.958 2.21-1.943 2.982-.985.771-2.236 1.144-3.753 1.144-1.171 0-2.209-.266-3.141-.798-.931-.533-1.65-1.278-2.182-2.236s-.799-2.103-.799-3.38c0-1.305.267-2.423.772-3.407a5.3 5.3 0 0 1 2.156-2.236c.932-.506 1.996-.772 3.168-.772 1.197 0 2.235.266 3.114.772a5.5 5.5 0 0 1 2.049 2.076c.479.878.719 1.836.719 2.901.027.56 0 .985-.027 1.278m-2.129-3.673a3.75 3.75 0 0 0-1.597-1.491c-.665-.346-1.411-.506-2.183-.506-1.197 0-2.209.373-3.034 1.145s-1.304 1.836-1.384 3.22h8.757c.026-.931-.16-1.73-.559-2.368M141.549 28.94q-1.357-.998-1.517-2.714h1.65c.08.692.4 1.277.985 1.703.586.426 1.384.639 2.37.639.878 0 1.543-.213 2.049-.612.505-.4.745-.932.745-1.517q0-.639-.399-1.038a2.9 2.9 0 0 0-1.038-.64c-.426-.159-.985-.319-1.704-.505-.931-.24-1.677-.48-2.262-.719a3.7 3.7 0 0 1-1.464-1.09c-.399-.48-.612-1.119-.612-1.917q0-.919.559-1.677a3.77 3.77 0 0 1 1.543-1.225c.666-.292 1.438-.452 2.289-.452 1.332 0 2.422.346 3.248 1.012.825.665 1.251 1.597 1.33 2.794h-1.597c-.052-.718-.319-1.33-.851-1.756-.532-.453-1.252-.666-2.156-.666-.799 0-1.464.186-1.97.559s-.745.852-.745 1.41c0 .48.16.879.452 1.198q.44.48 1.118.72c.453.185 1.039.372 1.784.585q1.357.36 2.156.718c.533.24.984.56 1.357 1.012s.585 1.038.585 1.756c0 .666-.186 1.278-.559 1.784-.373.532-.878.931-1.516 1.25-.666.294-1.411.453-2.263.453-1.517-.053-2.662-.399-3.567-1.064M151.717 14.62a1.12 1.12 0 0 1-.345-.851c0-.346.105-.612.345-.825.239-.213.505-.32.826-.32.319 0 .585.107.824.32.24.213.347.506.347.825 0 .346-.107.612-.347.852-.239.24-.505.346-.824.346-.321-.027-.613-.133-.826-.346m1.624 2.689v12.457h-1.597V17.309zM164.599 17.948c.879.559 1.492 1.25 1.864 2.076v-2.715h1.597v12.776c0 1.145-.239 2.156-.746 3.034-.506.879-1.171 1.57-2.075 2.05-.88.479-1.891.719-3.008.719-1.597 0-2.929-.373-3.993-1.145s-1.704-1.783-1.97-3.114h1.571c.266.878.799 1.57 1.57 2.076.773.506 1.704.772 2.822.772.798 0 1.518-.16 2.156-.506a3.8 3.8 0 0 0 1.517-1.517c.373-.666.559-1.464.559-2.369v-3.087c-.4.851-1.012 1.543-1.89 2.102-.852.56-1.863.825-3.034.825-1.145 0-2.156-.266-3.061-.798a5.47 5.47 0 0 1-2.13-2.262c-.506-.985-.771-2.103-.771-3.38 0-1.278.265-2.396.771-3.354a5.56 5.56 0 0 1 2.13-2.236c.905-.533 1.916-.799 3.061-.799 1.171.027 2.182.293 3.06.852m1.252 2.928q-.6-1.158-1.678-1.757a4.73 4.73 0 0 0-2.342-.612c-.878 0-1.677.186-2.368.585-.692.4-1.251.959-1.651 1.73-.399.746-.612 1.65-.612 2.689 0 1.011.213 1.916.612 2.688.4.772.959 1.357 1.651 1.757.691.399 1.49.612 2.368.612.852 0 1.624-.213 2.342-.612q1.078-.6 1.678-1.757c.399-.772.612-1.65.612-2.635 0-1.038-.213-1.916-.612-2.688M180.543 18.454c.931.931 1.411 2.262 1.411 3.992v7.293h-1.57v-7.133c0-1.358-.347-2.396-1.012-3.114-.666-.72-1.598-1.065-2.769-1.065-1.197 0-2.156.372-2.873 1.145-.719.771-1.066 1.89-1.066 3.353v6.814h-1.597V17.282h1.597v2.13c.4-.772.959-1.331 1.704-1.757a5.3 5.3 0 0 1 2.528-.612c1.465.026 2.689.479 3.647 1.41M192.654 29.367c-.799-.373-1.437-.879-1.89-1.518a4.03 4.03 0 0 1-.718-2.182h1.676c.08.772.426 1.464 1.039 2.05.612.585 1.49.878 2.661.878 1.092 0 1.942-.266 2.555-.825.639-.56.958-1.251.958-2.103 0-.692-.186-1.225-.532-1.65-.346-.426-.772-.72-1.304-.932-.506-.213-1.225-.426-2.156-.665-1.065-.293-1.917-.56-2.529-.852q-.919-.399-1.597-1.278c-.452-.585-.666-1.357-.666-2.342 0-.825.214-1.544.64-2.21.426-.638 1.038-1.144 1.809-1.516.773-.373 1.677-.56 2.662-.56 1.464 0 2.661.373 3.567 1.092.905.719 1.436 1.65 1.571 2.795h-1.73c-.107-.666-.454-1.225-1.066-1.757-.612-.506-1.437-.772-2.475-.772-.957 0-1.756.266-2.396.772q-.957.759-.957 2.076c0 .666.186 1.198.531 1.624.347.399.799.718 1.304.931.533.213 1.225.453 2.13.692 1.038.293 1.863.586 2.503.852a4.45 4.45 0 0 1 1.623 1.278c.452.585.666 1.357.666 2.342 0 .745-.187 1.464-.587 2.13-.398.665-.985 1.197-1.756 1.623-.772.4-1.704.612-2.795.612-1.011-.027-1.943-.213-2.741-.585M213.548 17.31l-7.399 18.338h-1.677l2.422-5.936-5.084-12.403h1.757l4.232 10.647 4.099-10.647zM215.731 28.94q-1.357-.998-1.518-2.714h1.651a2.36 2.36 0 0 0 .985 1.703c.585.426 1.383.639 2.368.639.878 0 1.544-.213 2.049-.612.507-.4.745-.932.745-1.517q0-.639-.398-1.038-.4-.4-1.039-.64c-.426-.159-.984-.319-1.704-.505-.931-.24-1.676-.48-2.261-.719a3.7 3.7 0 0 1-1.464-1.09c-.399-.48-.612-1.119-.612-1.917q0-.919.558-1.677a3.77 3.77 0 0 1 1.544-1.225c.666-.292 1.438-.452 2.289-.452 1.331 0 2.423.346 3.247 1.012.825.665 1.251 1.597 1.332 2.794h-1.597c-.054-.718-.319-1.33-.852-1.756-.533-.453-1.251-.666-2.156-.666-.799 0-1.464.186-1.97.559-.505.373-.745.852-.745 1.41 0 .48.159.879.452 1.198q.44.48 1.118.72c.453.185 1.038.372 1.783.585q1.36.36 2.156.718c.533.24.985.56 1.357 1.012.373.452.587 1.038.587 1.756 0 .666-.187 1.278-.559 1.784-.373.532-.878.931-1.518 1.25-.665.294-1.411.453-2.263.453-1.49-.053-2.661-.399-3.565-1.064M227.974 18.64v7.746c0 .771.133 1.277.426 1.57s.798.426 1.517.426h1.465v1.357h-1.704c-1.118 0-1.97-.266-2.503-.798-.559-.533-.824-1.384-.824-2.582v-7.746h-1.73v-1.357h1.73v-3.114h1.623v3.114h3.434v1.357h-3.434zM244.05 24.15h-10.326c.052.931.265 1.756.691 2.422a4.04 4.04 0 0 0 1.623 1.517c.666.346 1.411.506 2.184.506 1.037 0 1.916-.24 2.608-.746.719-.505 1.171-1.17 1.411-2.023h1.676c-.293 1.225-.957 2.21-1.942 2.982-.985.771-2.237 1.144-3.753 1.144-1.171 0-2.21-.266-3.141-.798-.933-.533-1.65-1.278-2.183-2.236s-.799-2.103-.799-3.38c0-1.305.267-2.423.773-3.407a5.3 5.3 0 0 1 2.156-2.236c.931-.506 1.995-.772 3.166-.772 1.172 0 2.236.266 3.115.772a5.5 5.5 0 0 1 2.049 2.076c.48.878.719 1.836.719 2.901.026.56 0 .985-.027 1.278m-2.128-3.673a3.76 3.76 0 0 0-1.598-1.491c-.665-.346-1.41-.506-2.183-.506-1.197 0-2.209.373-3.034 1.145s-1.304 1.836-1.383 3.22h8.756c.026-.931-.16-1.73-.558-2.368M264.839 18.454c.931.931 1.383 2.262 1.383 3.992v7.293h-1.569v-7.133c0-1.358-.32-2.396-.985-3.114-.666-.719-1.544-1.065-2.662-1.065-1.171 0-2.104.4-2.795 1.171-.692.772-1.039 1.89-1.039 3.38v6.761h-1.569v-7.133c0-1.358-.319-2.396-.985-3.114-.666-.719-1.544-1.065-2.689-1.065-1.171 0-2.102.4-2.794 1.171-.692.772-1.038 1.89-1.038 3.38v6.761H246.5V17.282h1.597v2.156q.598-1.157 1.676-1.756a5 5 0 0 1 2.449-.612c1.092 0 2.023.266 2.848.771.826.506 1.411 1.278 1.757 2.29.345-.985.904-1.757 1.73-2.263.825-.506 1.73-.798 2.769-.798 1.383 0 2.581.452 3.513 1.384"/></g><defs><clipPath id="a"><path fill="#fff" d="M0 0h266.282v40H0z"/></clipPath></defs></svg>
