<svg width="1844" height="277" viewBox="0 0 1844 277" fill="none" xmlns="http://www.w3.org/2000/svg">
<path fill-rule="evenodd" clip-rule="evenodd" d="M64.7072 241.553C59.7305 237.682 52.3576 236.392 47.1966 239.71C39.4551 244.871 37.4276 255.193 44.4318 261.091C54.9381 269.939 68.9466 276.759 82.7707 276.759C110.972 276.759 133.09 257.589 139.91 233.996C159.633 247.083 186.175 247.82 207.741 234.733L218.431 245.793C223.777 251.322 232.624 251.322 238.338 245.793C244.052 240.447 244.421 231.415 239.26 225.702L228.569 214.642C242.762 193.63 243.315 167.087 231.149 146.628C254.927 141.467 275.202 119.717 276.308 90.9626C277.967 47.0941 234.098 19.9989 197.234 42.1174L150.417 70.3186C148.942 68.2911 147.467 66.4479 145.624 64.6047C133.09 51.3335 115.027 45.9882 97.885 48.3844C97.885 46.7255 98.0694 44.8823 98.2537 43.039C99.1753 36.0348 101.94 29.5836 107.285 24.2383C113.184 18.7087 113.368 9.86119 108.207 4.14723C102.862 -1.38241 94.0143 -1.38241 88.3003 4.14723C76.8724 15.2065 72.08 28.4776 70.2368 40.0899C69.3152 47.4627 69.3152 54.467 70.2368 60.181C68.5779 61.2869 67.1034 62.7614 65.4445 64.236C63.7856 65.7106 62.4953 67.1851 61.2051 68.6597C55.4911 67.5538 48.4869 67.0008 41.114 67.7381C29.5018 68.844 16.0463 72.8991 4.61841 83.9584C-1.27988 89.488 -1.4642 98.3355 3.6968 104.049C9.04212 109.579 17.8896 109.579 23.6035 104.049C28.9488 98.8884 35.7687 96.4923 42.5886 95.9393C44.4318 95.9393 46.275 95.5706 47.9339 95.9393C44.4318 113.081 49.2242 131.513 61.758 144.784C63.2326 146.259 64.5229 147.549 65.9974 148.655L60.2835 156.765C58.0716 160.083 57.3343 163.954 58.0716 167.456L59.7305 175.382C60.0991 177.409 59.5462 179.805 58.4402 181.464C56.597 184.229 54.9382 184.782 52.1733 185.335L42.7729 187.363C38.5335 188.284 34.6628 190.865 32.0823 194.92C26.737 202.846 28.7645 213.168 36.506 218.144C44.2475 223.121 54.5695 220.725 59.9148 212.799C62.4953 208.928 63.4169 204.32 62.4953 200.081L60.6521 190.865C60.0991 188.1 60.0991 186.257 61.758 183.492C62.864 181.649 64.5229 180.358 66.7347 179.806L74.6605 177.962C78.1626 177.041 81.2961 174.829 83.508 171.511L87.3787 165.613L109.866 207.085C119.819 225.701 105.074 248.926 83.1393 248.926C77.241 249.295 70.4211 245.977 64.7072 241.553ZM126.639 160.452L136.408 180.543C148.389 178.147 167.743 168.562 176.775 140.729L158.158 130.223L142.306 145.522L126.639 160.452ZM199.815 205.795C184.885 219.988 162.398 218.882 150.048 205.057C168.111 198.606 189.124 183.861 200.736 154.922C214.56 168.009 215.113 191.418 199.815 205.795ZM123.137 125.246C134.749 114.187 135.487 96.1236 124.796 85.0643C114.29 74.0051 96.4105 73.8207 84.7982 84.88C73.186 95.9393 72.4487 114.003 83.1393 125.062C93.6456 136.306 111.709 136.306 123.137 125.246ZM168.48 91.3313L209.768 66.6322C228.385 55.3886 250.319 68.844 249.397 90.9626C248.476 113.081 225.067 126.721 207.556 115.846L168.48 91.3313Z" fill="#4F46E5"/>
<path d="M438.326 158.941C442.381 163.917 444.409 169.815 444.409 176.267C444.409 182.165 442.934 187.326 439.985 191.75C437.036 196.173 432.981 199.676 427.451 202.256C421.922 204.837 415.471 206.127 408.098 206.127H360.543V95.9026H405.886C413.443 95.9026 419.894 97.1929 425.24 99.589C430.585 101.985 434.824 105.303 437.589 109.727C440.354 113.966 441.828 118.943 441.828 124.472C441.828 130.924 440.17 136.269 436.667 140.508C433.165 144.748 428.742 147.881 423.028 149.724C429.11 150.646 434.271 153.78 438.326 158.941ZM382.477 141.246H402.752C408.098 141.246 412.153 140.14 414.918 137.744C417.682 135.347 419.157 132.03 419.157 127.606C419.157 123.182 417.682 119.68 414.918 117.284C412.153 114.888 408.098 113.597 402.752 113.597H382.477V141.246ZM417.314 184.377C420.263 181.796 421.737 178.294 421.737 173.686C421.737 168.894 420.079 165.207 416.945 162.627C413.812 159.862 409.572 158.572 404.227 158.572H382.477V188.248H404.78C410.125 188.063 414.365 186.773 417.314 184.377Z" fill="#4F46E5"/>
<path d="M481.088 113.597V141.246H518.137V158.756H481.088V188.063H522.929V206.127H458.97V95.7182H522.929V113.782H481.088V113.597Z" fill="#4F46E5"/>
<path d="M561.453 113.597V141.246H598.502V158.756H561.453V188.063H603.294V206.127H539.334V95.7182H603.294V113.782H561.453V113.597Z" fill="#4F46E5"/>
<path d="M699.326 225.482L682.553 205.391C677.945 206.497 673.152 207.05 668.36 207.05C658.038 207.05 648.637 204.654 639.974 199.862C631.311 195.069 624.491 188.249 619.515 179.771C614.538 171.108 611.958 161.523 611.958 150.648C611.958 139.957 614.538 130.188 619.515 121.709C624.491 113.046 631.496 106.411 639.974 101.618C648.637 96.826 658.038 94.4299 668.36 94.4299C678.866 94.4299 688.267 96.826 696.93 101.618C705.593 106.411 712.228 113.231 717.389 121.709C722.366 130.373 724.946 139.957 724.946 150.648C724.946 160.417 722.919 169.449 718.68 177.374C714.44 185.485 708.911 191.936 701.722 197.097L726.974 225.482H699.326ZM638.684 170.002C641.449 175.531 645.504 179.955 650.665 182.904C655.826 185.853 661.724 187.328 668.36 187.328C674.995 187.328 680.894 185.853 685.87 182.904C690.847 179.955 694.902 175.531 697.667 170.002C700.432 164.472 701.906 158.021 701.906 150.648C701.906 143.275 700.432 136.824 697.667 131.294C694.902 125.764 690.847 121.525 685.87 118.576C680.894 115.627 674.995 114.152 668.36 114.152C661.724 114.152 655.826 115.627 650.665 118.576C645.504 121.525 641.633 125.764 638.684 131.294C635.919 136.824 634.445 143.275 634.445 150.648C634.445 158.021 635.919 164.472 638.684 170.002Z" fill="#4F46E5"/>
<path d="M837.014 102.355C845.677 106.778 852.497 113.23 857.105 121.524C861.713 129.819 864.109 139.772 864.109 151.2C864.109 162.628 861.713 172.397 857.105 180.691C852.497 188.986 845.861 195.253 837.014 199.676C828.351 204.1 817.844 206.312 805.495 206.312H772.686V95.9034H805.495C817.844 95.7191 828.351 97.931 837.014 102.355ZM840.884 184.931C848.995 176.821 853.05 165.577 853.05 151.2C853.05 136.638 848.995 125.395 840.884 117.1C832.774 108.99 821.162 104.935 805.679 104.935H784.113V197.096H805.679C820.978 196.912 832.774 192.857 840.884 184.931Z" fill="#4F46E5"/>
<path d="M958.665 167.236H887.148C887.517 173.688 888.992 179.401 891.941 184.01C894.706 188.618 898.576 192.12 903.184 194.516C907.792 196.912 912.953 198.018 918.299 198.018C925.487 198.018 931.57 196.359 936.362 192.857C941.339 189.355 944.472 184.747 946.131 178.848H957.744C955.716 187.327 951.108 194.147 944.288 199.493C937.468 204.838 928.805 207.418 918.299 207.418C910.189 207.418 903 205.575 896.549 201.889C890.098 198.202 885.121 193.041 881.434 186.406C877.748 179.77 875.905 171.844 875.905 162.997C875.905 153.965 877.748 146.224 881.25 139.404C884.752 132.584 889.913 127.423 896.18 123.921C902.631 120.419 910.004 118.575 918.114 118.575C926.409 118.575 933.597 120.419 939.68 123.921C945.763 127.423 950.555 132.4 953.873 138.298C957.19 144.38 958.849 151.016 958.849 158.389C959.034 162.26 958.849 165.209 958.665 167.236ZM943.919 141.8C941.155 137.192 937.652 133.874 932.86 131.478C928.252 129.082 923.091 127.976 917.746 127.976C909.451 127.976 902.447 130.556 896.733 135.902C891.019 141.247 887.701 148.62 887.148 158.205H947.79C947.974 151.753 946.684 146.224 943.919 141.8Z" fill="#4F46E5"/>
<path d="M980.231 200.413C973.964 195.805 970.462 189.538 969.725 181.613H981.153C981.706 186.405 983.918 190.46 987.973 193.409C992.028 196.358 997.558 197.833 1004.38 197.833C1010.46 197.833 1015.07 196.358 1018.57 193.594C1022.07 190.829 1023.73 187.142 1023.73 183.087C1023.73 180.138 1022.81 177.742 1020.97 175.899C1019.12 174.055 1016.73 172.581 1013.78 171.475C1010.83 170.369 1006.96 169.263 1001.98 167.973C995.53 166.314 990.369 164.655 986.314 162.996C982.259 161.337 978.941 158.757 976.176 155.439C973.412 152.121 971.937 147.698 971.937 142.168C971.937 137.928 973.227 134.058 975.808 130.556C978.388 127.054 981.89 124.104 986.498 122.077C991.106 120.049 996.452 118.943 1002.35 118.943C1011.57 118.943 1019.12 121.34 1024.84 125.948C1030.55 130.556 1033.5 137.007 1034.05 145.301H1022.99C1022.63 140.325 1020.78 136.085 1017.1 133.136C1013.41 130.003 1008.43 128.528 1002.17 128.528C996.636 128.528 992.028 129.818 988.526 132.399C985.024 134.979 983.365 138.297 983.365 142.168C983.365 145.486 984.471 148.25 986.498 150.462C988.526 152.674 991.106 154.333 994.24 155.439C997.373 156.729 1001.43 158.019 1006.59 159.494C1012.86 161.153 1017.83 162.812 1021.52 164.471C1025.21 166.13 1028.34 168.341 1030.92 171.475C1033.5 174.608 1034.97 178.663 1034.97 183.64C1034.97 188.248 1033.68 192.488 1031.1 195.99C1028.52 199.676 1025.02 202.441 1020.6 204.653C1015.99 206.68 1010.83 207.786 1004.93 207.786C994.424 207.418 986.498 205.021 980.231 200.413Z" fill="#4F46E5"/>
<path d="M1050.64 101.249C1048.98 99.59 1048.25 97.7468 1048.25 95.3506C1048.25 92.9544 1048.98 91.1112 1050.64 89.6367C1052.3 88.1621 1054.14 87.4248 1056.36 87.4248C1058.57 87.4248 1060.41 88.1621 1062.07 89.6367C1063.73 91.1112 1064.47 93.1388 1064.47 95.3506C1064.47 97.7468 1063.73 99.59 1062.07 101.249C1060.41 102.908 1058.57 103.645 1056.36 103.645C1054.14 103.461 1052.12 102.723 1050.64 101.249ZM1061.89 119.865V206.128H1050.83V119.865H1061.89Z" fill="#4F46E5"/>
<path d="M1139.85 124.289C1145.94 128.16 1150.18 132.952 1152.76 138.666V119.866H1163.82V208.34C1163.82 216.266 1162.16 223.27 1158.65 229.352C1155.15 235.435 1150.54 240.227 1144.28 243.545C1138.19 246.863 1131.19 248.522 1123.45 248.522C1112.39 248.522 1103.17 245.941 1095.8 240.596C1088.43 235.251 1084 228.247 1082.16 219.03H1093.04C1094.88 225.113 1098.57 229.905 1103.91 233.408C1109.26 236.91 1115.71 238.753 1123.45 238.753C1128.98 238.753 1133.96 237.647 1138.38 235.251C1142.8 232.855 1146.3 229.352 1148.89 224.744C1151.47 220.136 1152.76 214.607 1152.76 208.34V186.959C1149.99 192.857 1145.75 197.649 1139.67 201.52C1133.77 205.391 1126.77 207.234 1118.66 207.234C1110.73 207.234 1103.73 205.391 1097.46 201.704C1091.19 198.018 1086.22 192.857 1082.71 186.037C1079.21 179.217 1077.37 171.476 1077.37 162.628C1077.37 153.781 1079.21 146.039 1082.71 139.404C1086.22 132.768 1091.19 127.607 1097.46 123.921C1103.73 120.234 1110.73 118.391 1118.66 118.391C1126.77 118.575 1133.77 120.418 1139.85 124.289ZM1148.52 144.565C1145.75 139.219 1141.88 135.164 1136.9 132.399C1131.93 129.635 1126.58 128.16 1120.68 128.16C1114.6 128.16 1109.07 129.45 1104.28 132.215C1099.49 134.98 1095.62 138.851 1092.85 144.196C1090.09 149.357 1088.61 155.624 1088.61 162.812C1088.61 169.817 1090.09 176.084 1092.85 181.429C1095.62 186.774 1099.49 190.829 1104.28 193.594C1109.07 196.359 1114.6 197.834 1120.68 197.834C1126.58 197.834 1131.93 196.359 1136.9 193.594C1141.88 190.829 1145.75 186.774 1148.52 181.429C1151.28 176.084 1152.76 170.001 1152.76 163.181C1152.76 155.993 1151.28 149.91 1148.52 144.565Z" fill="#4F46E5"/>
<path d="M1250.26 127.79C1256.71 134.241 1260.03 143.458 1260.03 155.438V205.942H1249.16V156.544C1249.16 147.144 1246.76 139.955 1242.15 134.979C1237.54 130.002 1231.09 127.606 1222.98 127.606C1214.69 127.606 1208.05 130.186 1203.08 135.532C1198.1 140.877 1195.7 148.618 1195.7 158.756V205.942H1184.64V119.68H1195.7V134.426C1198.47 129.08 1202.34 125.21 1207.5 122.261C1212.66 119.496 1218.56 118.021 1225.01 118.021C1235.15 118.205 1243.63 121.339 1250.26 127.79Z" fill="#4F46E5"/>
<path d="M1334.13 203.364C1328.6 200.783 1324.18 197.281 1321.04 192.857C1317.91 188.249 1316.25 183.273 1316.07 177.743H1327.68C1328.23 183.088 1330.63 187.881 1334.87 191.936C1339.11 195.991 1345.19 198.018 1353.3 198.018C1360.86 198.018 1366.75 196.175 1370.99 192.304C1375.42 188.434 1377.63 183.641 1377.63 177.743C1377.63 172.951 1376.34 169.264 1373.94 166.315C1371.55 163.366 1368.6 161.338 1364.91 159.864C1361.41 158.389 1356.43 156.915 1349.98 155.256C1342.61 153.228 1336.71 151.385 1332.47 149.357C1328.23 147.514 1324.54 144.565 1321.41 140.51C1318.28 136.455 1316.8 131.11 1316.8 124.29C1316.8 118.576 1318.28 113.599 1321.23 108.991C1324.18 104.567 1328.42 101.065 1333.76 98.4847C1339.11 95.9042 1345.37 94.614 1352.19 94.614C1362.33 94.614 1370.62 97.1944 1376.89 102.171C1383.16 107.148 1386.84 113.599 1387.77 121.525H1375.79C1375.05 116.917 1372.65 113.046 1368.41 109.36C1364.17 105.858 1358.46 104.014 1351.27 104.014C1344.64 104.014 1339.11 105.858 1334.68 109.36C1330.26 112.862 1328.05 117.654 1328.05 123.737C1328.05 128.345 1329.34 132.031 1331.73 134.98C1334.13 137.745 1337.26 139.957 1340.76 141.432C1344.45 142.906 1349.24 144.565 1355.51 146.224C1362.7 148.251 1368.41 150.279 1372.84 152.122C1377.26 154.15 1380.95 157.099 1384.08 160.97C1387.21 165.025 1388.69 170.37 1388.69 177.19C1388.69 182.351 1387.4 187.328 1384.63 191.936C1381.87 196.544 1377.81 200.23 1372.47 203.179C1367.12 205.944 1360.67 207.419 1353.11 207.419C1346.11 207.234 1339.66 205.944 1334.13 203.364Z" fill="#4F46E5"/>
<path d="M1478.82 119.866L1427.58 246.863H1415.97L1432.74 205.759L1397.53 119.866H1409.7L1439.01 193.594L1467.39 119.866H1478.82Z" fill="#4F46E5"/>
<path d="M1493.94 200.413C1487.67 195.805 1484.17 189.538 1483.43 181.613H1494.86C1495.41 186.405 1497.62 190.46 1501.68 193.409C1505.73 196.358 1511.26 197.833 1518.08 197.833C1524.16 197.833 1528.77 196.358 1532.27 193.594C1535.78 190.829 1537.43 187.142 1537.43 183.087C1537.43 180.138 1536.51 177.742 1534.67 175.899C1532.83 174.055 1530.43 172.581 1527.48 171.475C1524.53 170.369 1520.66 169.263 1515.68 167.973C1509.23 166.314 1504.07 164.655 1500.02 162.996C1495.96 161.337 1492.64 158.757 1489.88 155.439C1487.12 152.121 1485.64 147.698 1485.64 142.168C1485.64 137.928 1486.93 134.058 1489.51 130.556C1492.09 127.054 1495.59 124.104 1500.2 122.077C1504.81 120.049 1510.16 118.943 1516.05 118.943C1525.27 118.943 1532.83 121.34 1538.54 125.948C1544.25 130.556 1547.2 137.007 1547.76 145.301H1536.7C1536.33 140.325 1534.49 136.085 1530.8 133.136C1527.11 130.003 1522.14 128.528 1515.87 128.528C1510.34 128.528 1505.73 129.818 1502.23 132.399C1498.73 134.979 1497.07 138.297 1497.07 142.168C1497.07 145.486 1498.17 148.25 1500.2 150.462C1502.23 152.674 1504.81 154.333 1507.94 155.439C1511.08 156.729 1515.13 158.019 1520.29 159.494C1526.56 161.153 1531.54 162.812 1535.22 164.471C1538.91 166.13 1542.04 168.341 1544.62 171.475C1547.2 174.608 1548.68 178.663 1548.68 183.64C1548.68 188.248 1547.39 192.488 1544.81 195.99C1542.23 199.676 1538.73 202.441 1534.3 204.653C1529.69 206.68 1524.53 207.786 1518.63 207.786C1508.31 207.418 1500.2 205.021 1493.94 200.413Z" fill="#4F46E5"/>
<path d="M1578.72 129.082V182.719C1578.72 188.064 1579.64 191.567 1581.67 193.594C1583.7 195.622 1587.2 196.543 1592.18 196.543H1602.32V205.944H1590.52C1582.78 205.944 1576.88 204.1 1573.19 200.414C1569.32 196.728 1567.48 190.829 1567.48 182.535V128.897H1555.5V119.497H1567.48V97.9313H1578.72V119.497H1602.5V128.897H1578.72V129.082Z" fill="#4F46E5"/>
<path d="M1690.05 167.236H1618.54C1618.9 173.688 1620.38 179.401 1623.33 184.01C1626.09 188.618 1629.96 192.12 1634.57 194.516C1639.18 196.912 1644.34 198.018 1649.69 198.018C1656.87 198.018 1662.96 196.359 1667.75 192.857C1672.73 189.355 1675.86 184.747 1677.52 178.848H1689.13C1687.1 187.327 1682.5 194.147 1675.68 199.493C1668.86 204.838 1660.19 207.418 1649.69 207.418C1641.58 207.418 1634.39 205.575 1627.94 201.889C1621.48 198.202 1616.51 193.041 1612.82 186.406C1609.14 179.77 1607.29 171.844 1607.29 162.997C1607.29 153.965 1609.14 146.224 1612.64 139.404C1616.14 132.584 1621.3 127.423 1627.57 123.921C1634.02 120.419 1641.39 118.575 1649.5 118.575C1657.61 118.575 1664.98 120.419 1671.07 123.921C1677.15 127.423 1681.94 132.4 1685.26 138.298C1688.58 144.38 1690.24 151.016 1690.24 158.389C1690.42 162.26 1690.24 165.209 1690.05 167.236ZM1675.31 141.8C1672.54 137.192 1669.04 133.874 1664.25 131.478C1659.64 129.082 1654.48 127.976 1649.13 127.976C1640.84 127.976 1633.83 130.556 1628.12 135.902C1622.41 141.247 1619.09 148.62 1618.54 158.205H1679.18C1679.36 151.753 1678.07 146.224 1675.31 141.8Z" fill="#4F46E5"/>
<path d="M1834.01 127.792C1840.46 134.243 1843.59 143.459 1843.59 155.44V205.944H1832.72V156.546C1832.72 147.145 1830.51 139.957 1825.9 134.98C1821.29 130.003 1815.21 127.607 1807.47 127.607C1799.36 127.607 1792.9 130.372 1788.11 135.717C1783.32 141.063 1780.92 148.804 1780.92 159.126V205.944H1770.05V156.546C1770.05 147.145 1767.84 139.957 1763.23 134.98C1758.62 130.003 1752.54 127.607 1744.61 127.607C1736.5 127.607 1730.05 130.372 1725.26 135.717C1720.47 141.063 1718.07 148.804 1718.07 159.126V205.944H1707.01V119.681H1718.07V134.611C1720.83 129.266 1724.71 125.211 1729.68 122.446C1734.66 119.681 1740.37 118.207 1746.64 118.207C1754.2 118.207 1760.65 120.05 1766.36 123.552C1772.08 127.054 1776.13 132.4 1778.53 139.404C1780.92 132.584 1784.79 127.239 1790.51 123.736C1796.22 120.234 1802.49 118.207 1809.68 118.207C1819.26 118.207 1827.56 121.34 1834.01 127.792Z" fill="#4F46E5"/>
</svg>
