<svg width="572" height="320" viewBox="0 0 572 320" fill="none" xmlns="http://www.w3.org/2000/svg">
<path d="M0 24C0 12.6863 0 7.02944 3.51472 3.51472C7.02944 0 12.6863 0 24 0H130.333C141.647 0 147.304 0 150.819 3.51472C154.333 7.02944 154.333 12.6863 154.333 24C154.333 35.3137 154.333 40.9706 150.819 44.4853C147.304 48 141.647 48 130.333 48H24C12.6863 48 7.02944 48 3.51472 44.4853C0 40.9706 0 35.3137 0 24Z" fill="#4F46E5"/>
<path d="M60.4479 21.0055C60.3339 20.6561 60.1197 20.3479 59.832 20.1192C59.5444 19.8906 59.1958 19.7515 58.8297 19.7192L53.486 19.257L51.3954 14.2752C51.2515 13.9364 51.0112 13.6474 50.7043 13.4443C50.3974 13.2411 50.0375 13.1328 49.6694 13.1328C49.3014 13.1328 48.9415 13.2411 48.6345 13.4443C48.3276 13.6474 48.0873 13.9364 47.9435 14.2752L45.85 19.257L40.5063 19.7192C40.1382 19.7497 39.7873 19.8882 39.4977 20.1174C39.208 20.3465 38.9925 20.6561 38.8782 21.0073C38.7638 21.3585 38.7557 21.7356 38.8549 22.0914C38.9541 22.4471 39.1561 22.7657 39.4357 23.007L43.4969 26.5508L42.2782 31.8233C42.1946 32.1823 42.2187 32.558 42.3475 32.9034C42.4762 33.2488 42.704 33.5486 43.0022 33.7653C43.3004 33.982 43.6559 34.106 44.0242 34.1217C44.3924 34.1375 44.7572 34.0443 45.0729 33.8539L49.6666 31.0639L54.2604 33.8539C54.576 34.044 54.9406 34.1369 55.3087 34.121C55.6769 34.1051 56.0321 33.9811 56.3302 33.7645C56.6282 33.5478 56.8558 33.2482 56.9846 32.9029C57.1133 32.5577 57.1375 32.1822 57.0541 31.8233L55.8354 26.5508L59.8966 23.007C60.1754 22.7648 60.3765 22.4456 60.4745 22.0895C60.5726 21.7334 60.5633 21.3563 60.4479 21.0055ZM54.19 25.0011C53.9329 25.2248 53.7417 25.5143 53.6368 25.8386C53.5319 26.1628 53.5173 26.5095 53.5947 26.8414L54.6625 31.4652L50.6369 29.0202C50.3446 28.8421 50.0089 28.748 49.6666 28.748C49.3243 28.748 48.9886 28.8421 48.6963 29.0202L44.6707 31.4652L45.7385 26.8414C45.8159 26.5095 45.8013 26.1628 45.6964 25.8386C45.5915 25.5143 45.4003 25.2248 45.1432 25.0011L41.5722 21.8858L46.2729 21.4789C46.6132 21.4498 46.9391 21.3278 47.215 21.1263C47.4909 20.9248 47.7062 20.6515 47.8375 20.3361L49.6666 15.9777L51.4957 20.3361C51.627 20.6515 51.8423 20.9248 52.1182 21.1263C52.3941 21.3278 52.72 21.4498 53.0604 21.4789L57.761 21.8858L54.19 25.0011Z" fill="white"/>
<path d="M72.3888 30V28.4H75.6048C76.1701 28.4 76.6075 28.224 76.9168 27.872C77.2261 27.52 77.3808 27.1147 77.3808 26.656C77.3808 26.3467 77.3115 26.0587 77.1728 25.792C77.0341 25.5253 76.8315 25.312 76.5648 25.152C76.2981 24.992 75.9781 24.912 75.6048 24.912H72.3888V23.312H75.3328C75.8128 23.312 76.1968 23.1893 76.4848 22.944C76.7728 22.6987 76.9168 22.336 76.9168 21.856C76.9168 21.376 76.7728 21.0133 76.4848 20.768C76.1968 20.5227 75.8128 20.4 75.3328 20.4H72.3888V18.8H75.3808C76.1381 18.8 76.7675 18.9387 77.2688 19.216C77.7701 19.4933 78.1435 19.8507 78.3888 20.288C78.6341 20.7253 78.7568 21.1947 78.7568 21.696C78.7568 22.2827 78.5915 22.8 78.2608 23.248C77.9408 23.696 77.4661 24.0587 76.8368 24.336L76.9808 23.76C77.6848 24.048 78.2341 24.4533 78.6288 24.976C79.0235 25.4987 79.2208 26.112 79.2208 26.816C79.2208 27.392 79.0768 27.92 78.7888 28.4C78.5115 28.88 78.0955 29.2693 77.5408 29.568C76.9968 29.856 76.3248 30 75.5248 30H72.3888ZM71.1248 30V18.8H72.9648V30H71.1248ZM83.9899 30.16C83.3393 30.16 82.7579 30.016 82.2459 29.728C81.7446 29.44 81.3499 29.0453 81.0619 28.544C80.7846 28.032 80.6459 27.4453 80.6459 26.784V22.32H82.4059V26.704C82.4059 27.0773 82.4646 27.3973 82.5819 27.664C82.7099 27.92 82.8913 28.1173 83.1259 28.256C83.3713 28.3947 83.6593 28.464 83.9899 28.464C84.5019 28.464 84.8913 28.3147 85.1579 28.016C85.4353 27.7067 85.5739 27.2693 85.5739 26.704V22.32H87.3339V26.784C87.3339 27.456 87.1899 28.048 86.9019 28.56C86.6246 29.0613 86.2353 29.456 85.7339 29.744C85.2326 30.0213 84.6513 30.16 83.9899 30.16ZM90.2716 30V19.12H92.0316V30H90.2716ZM88.4316 23.92V22.32H98.5116V23.92H88.4316ZM94.9116 30V19.12H96.6716V30H94.9116ZM103.092 30.16C102.346 30.16 101.668 29.984 101.06 29.632C100.452 29.2693 99.967 28.784 99.6043 28.176C99.2523 27.568 99.0763 26.8907 99.0763 26.144C99.0763 25.3973 99.2523 24.7253 99.6043 24.128C99.967 23.5307 100.452 23.056 101.06 22.704C101.668 22.3413 102.346 22.16 103.092 22.16C103.85 22.16 104.532 22.336 105.14 22.688C105.748 23.04 106.228 23.52 106.58 24.128C106.943 24.7253 107.124 25.3973 107.124 26.144C107.124 26.8907 106.943 27.568 106.58 28.176C106.228 28.784 105.748 29.2693 105.14 29.632C104.532 29.984 103.85 30.16 103.092 30.16ZM103.092 28.464C103.53 28.464 103.914 28.368 104.244 28.176C104.586 27.9733 104.847 27.696 105.028 27.344C105.22 26.992 105.316 26.592 105.316 26.144C105.316 25.696 105.22 25.3013 105.028 24.96C104.836 24.6187 104.575 24.352 104.244 24.16C103.914 23.9573 103.53 23.856 103.092 23.856C102.666 23.856 102.282 23.9573 101.94 24.16C101.61 24.352 101.348 24.6187 101.156 24.96C100.975 25.3013 100.884 25.696 100.884 26.144C100.884 26.592 100.975 26.992 101.156 27.344C101.348 27.696 101.61 27.9733 101.94 28.176C102.282 28.368 102.666 28.464 103.092 28.464ZM113.852 30V25.568C113.852 25.056 113.687 24.6347 113.356 24.304C113.036 23.9733 112.62 23.808 112.108 23.808C111.767 23.808 111.463 23.8827 111.196 24.032C110.929 24.1813 110.721 24.3893 110.572 24.656C110.423 24.9227 110.348 25.2267 110.348 25.568L109.66 25.184C109.66 24.5973 109.788 24.08 110.044 23.632C110.3 23.1733 110.652 22.816 111.1 22.56C111.559 22.2933 112.071 22.16 112.636 22.16C113.212 22.16 113.724 22.3093 114.172 22.608C114.62 22.896 114.972 23.2747 115.228 23.744C115.484 24.2027 115.612 24.6827 115.612 25.184V30H113.852ZM108.588 30V22.32H110.348V30H108.588Z" fill="white"/>
<path d="M0 92C0 80.6863 0 75.0294 3.51472 71.5147C7.02944 68 12.6863 68 24 68H130.333C141.647 68 147.304 68 150.819 71.5147C154.333 75.0294 154.333 80.6863 154.333 92C154.333 103.314 154.333 108.971 150.819 112.485C147.304 116 141.647 116 130.333 116H24C12.6863 116 7.02944 116 3.51472 112.485C0 108.971 0 103.314 0 92Z" fill="#F1F2F4"/>
<path d="M60.4479 89.0055C60.3339 88.6561 60.1197 88.3479 59.832 88.1192C59.5444 87.8906 59.1958 87.7515 58.8297 87.7192L53.486 87.257L51.3954 82.2752C51.2515 81.9364 51.0112 81.6474 50.7043 81.4443C50.3974 81.2411 50.0375 81.1328 49.6694 81.1328C49.3014 81.1328 48.9415 81.2411 48.6345 81.4443C48.3276 81.6474 48.0873 81.9364 47.9435 82.2752L45.85 87.257L40.5063 87.7192C40.1382 87.7497 39.7873 87.8882 39.4977 88.1174C39.208 88.3465 38.9925 88.6561 38.8782 89.0073C38.7638 89.3585 38.7557 89.7356 38.8549 90.0914C38.9541 90.4471 39.1561 90.7657 39.4357 91.007L43.4969 94.5508L42.2782 99.8233C42.1946 100.182 42.2187 100.558 42.3475 100.903C42.4762 101.249 42.704 101.549 43.0022 101.765C43.3004 101.982 43.6559 102.106 44.0242 102.122C44.3924 102.137 44.7572 102.044 45.0729 101.854L49.6666 99.0639L54.2604 101.854C54.576 102.044 54.9406 102.137 55.3087 102.121C55.6769 102.105 56.0321 101.981 56.3302 101.764C56.6282 101.548 56.8558 101.248 56.9846 100.903C57.1133 100.558 57.1375 100.182 57.0541 99.8233L55.8354 94.5508L59.8966 91.007C60.1754 90.7648 60.3765 90.4456 60.4745 90.0895C60.5726 89.7334 60.5633 89.3563 60.4479 89.0055ZM54.19 93.0011C53.9329 93.2248 53.7417 93.5143 53.6368 93.8386C53.5319 94.1628 53.5173 94.5095 53.5947 94.8414L54.6625 99.4652L50.6369 97.0202C50.3446 96.8421 50.0089 96.748 49.6666 96.748C49.3243 96.748 48.9886 96.8421 48.6963 97.0202L44.6707 99.4652L45.7385 94.8414C45.8159 94.5095 45.8013 94.1628 45.6964 93.8386C45.5915 93.5143 45.4003 93.2248 45.1432 93.0011L41.5722 89.8858L46.2729 89.4789C46.6132 89.4498 46.9391 89.3278 47.215 89.1263C47.4909 88.9248 47.7062 88.6515 47.8375 88.3361L49.6666 83.9777L51.4957 88.3361C51.627 88.6515 51.8423 88.9248 52.1182 89.1263C52.3941 89.3278 52.72 89.4498 53.0604 89.4789L57.761 89.8858L54.19 93.0011Z" fill="#2A2C35"/>
<path d="M72.3888 98V96.4H75.6048C76.1701 96.4 76.6075 96.224 76.9168 95.872C77.2261 95.52 77.3808 95.1147 77.3808 94.656C77.3808 94.3467 77.3115 94.0587 77.1728 93.792C77.0341 93.5253 76.8315 93.312 76.5648 93.152C76.2981 92.992 75.9781 92.912 75.6048 92.912H72.3888V91.312H75.3328C75.8128 91.312 76.1968 91.1893 76.4848 90.944C76.7728 90.6987 76.9168 90.336 76.9168 89.856C76.9168 89.376 76.7728 89.0133 76.4848 88.768C76.1968 88.5227 75.8128 88.4 75.3328 88.4H72.3888V86.8H75.3808C76.1381 86.8 76.7675 86.9387 77.2688 87.216C77.7701 87.4933 78.1435 87.8507 78.3888 88.288C78.6341 88.7253 78.7568 89.1947 78.7568 89.696C78.7568 90.2827 78.5915 90.8 78.2608 91.248C77.9408 91.696 77.4661 92.0587 76.8368 92.336L76.9808 91.76C77.6848 92.048 78.2341 92.4533 78.6288 92.976C79.0235 93.4987 79.2208 94.112 79.2208 94.816C79.2208 95.392 79.0768 95.92 78.7888 96.4C78.5115 96.88 78.0955 97.2693 77.5408 97.568C76.9968 97.856 76.3248 98 75.5248 98H72.3888ZM71.1248 98V86.8H72.9648V98H71.1248ZM83.9899 98.16C83.3393 98.16 82.7579 98.016 82.2459 97.728C81.7446 97.44 81.3499 97.0453 81.0619 96.544C80.7846 96.032 80.6459 95.4453 80.6459 94.784V90.32H82.4059V94.704C82.4059 95.0773 82.4646 95.3973 82.5819 95.664C82.7099 95.92 82.8913 96.1173 83.1259 96.256C83.3713 96.3947 83.6593 96.464 83.9899 96.464C84.5019 96.464 84.8913 96.3147 85.1579 96.016C85.4353 95.7067 85.5739 95.2693 85.5739 94.704V90.32H87.3339V94.784C87.3339 95.456 87.1899 96.048 86.9019 96.56C86.6246 97.0613 86.2353 97.456 85.7339 97.744C85.2326 98.0213 84.6513 98.16 83.9899 98.16ZM90.2716 98V87.12H92.0316V98H90.2716ZM88.4316 91.92V90.32H98.5116V91.92H88.4316ZM94.9116 98V87.12H96.6716V98H94.9116ZM103.092 98.16C102.346 98.16 101.668 97.984 101.06 97.632C100.452 97.2693 99.967 96.784 99.6043 96.176C99.2523 95.568 99.0763 94.8907 99.0763 94.144C99.0763 93.3973 99.2523 92.7253 99.6043 92.128C99.967 91.5307 100.452 91.056 101.06 90.704C101.668 90.3413 102.346 90.16 103.092 90.16C103.85 90.16 104.532 90.336 105.14 90.688C105.748 91.04 106.228 91.52 106.58 92.128C106.943 92.7253 107.124 93.3973 107.124 94.144C107.124 94.8907 106.943 95.568 106.58 96.176C106.228 96.784 105.748 97.2693 105.14 97.632C104.532 97.984 103.85 98.16 103.092 98.16ZM103.092 96.464C103.53 96.464 103.914 96.368 104.244 96.176C104.586 95.9733 104.847 95.696 105.028 95.344C105.22 94.992 105.316 94.592 105.316 94.144C105.316 93.696 105.22 93.3013 105.028 92.96C104.836 92.6187 104.575 92.352 104.244 92.16C103.914 91.9573 103.53 91.856 103.092 91.856C102.666 91.856 102.282 91.9573 101.94 92.16C101.61 92.352 101.348 92.6187 101.156 92.96C100.975 93.3013 100.884 93.696 100.884 94.144C100.884 94.592 100.975 94.992 101.156 95.344C101.348 95.696 101.61 95.9733 101.94 96.176C102.282 96.368 102.666 96.464 103.092 96.464ZM113.852 98V93.568C113.852 93.056 113.687 92.6347 113.356 92.304C113.036 91.9733 112.62 91.808 112.108 91.808C111.767 91.808 111.463 91.8827 111.196 92.032C110.929 92.1813 110.721 92.3893 110.572 92.656C110.423 92.9227 110.348 93.2267 110.348 93.568L109.66 93.184C109.66 92.5973 109.788 92.08 110.044 91.632C110.3 91.1733 110.652 90.816 111.1 90.56C111.559 90.2933 112.071 90.16 112.636 90.16C113.212 90.16 113.724 90.3093 114.172 90.608C114.62 90.896 114.972 91.2747 115.228 91.744C115.484 92.2027 115.612 92.6827 115.612 93.184V98H113.852ZM108.588 98V90.32H110.348V98H108.588Z" fill="#2A2C35"/>
<path d="M0 160C0 148.686 0 143.029 3.51472 139.515C7.02944 136 12.6863 136 24 136H130.333C141.647 136 147.304 136 150.819 139.515C154.333 143.029 154.333 148.686 154.333 160C154.333 171.314 154.333 176.971 150.819 180.485C147.304 184 141.647 184 130.333 184H24C12.6863 184 7.02944 184 3.51472 180.485C0 176.971 0 171.314 0 160Z" fill="#E1172F"/>
<path d="M60.4479 157.005C60.3339 156.656 60.1197 156.348 59.832 156.119C59.5444 155.891 59.1958 155.751 58.8297 155.719L53.486 155.257L51.3954 150.275C51.2515 149.936 51.0112 149.647 50.7043 149.444C50.3974 149.241 50.0375 149.133 49.6694 149.133C49.3014 149.133 48.9415 149.241 48.6345 149.444C48.3276 149.647 48.0873 149.936 47.9435 150.275L45.85 155.257L40.5063 155.719C40.1382 155.75 39.7873 155.888 39.4977 156.117C39.208 156.347 38.9925 156.656 38.8782 157.007C38.7638 157.358 38.7557 157.736 38.8549 158.091C38.9541 158.447 39.1561 158.766 39.4357 159.007L43.4969 162.551L42.2782 167.823C42.1946 168.182 42.2187 168.558 42.3475 168.903C42.4762 169.249 42.704 169.549 43.0022 169.765C43.3004 169.982 43.6559 170.106 44.0242 170.122C44.3924 170.137 44.7572 170.044 45.0729 169.854L49.6666 167.064L54.2604 169.854C54.576 170.044 54.9406 170.137 55.3087 170.121C55.6769 170.105 56.0321 169.981 56.3302 169.764C56.6282 169.548 56.8558 169.248 56.9846 168.903C57.1133 168.558 57.1375 168.182 57.0541 167.823L55.8354 162.551L59.8966 159.007C60.1754 158.765 60.3765 158.446 60.4745 158.09C60.5726 157.733 60.5633 157.356 60.4479 157.005ZM54.19 161.001C53.9329 161.225 53.7417 161.514 53.6368 161.839C53.5319 162.163 53.5173 162.51 53.5947 162.841L54.6625 167.465L50.6369 165.02C50.3446 164.842 50.0089 164.748 49.6666 164.748C49.3243 164.748 48.9886 164.842 48.6963 165.02L44.6707 167.465L45.7385 162.841C45.8159 162.51 45.8013 162.163 45.6964 161.839C45.5915 161.514 45.4003 161.225 45.1432 161.001L41.5722 157.886L46.2729 157.479C46.6132 157.45 46.9391 157.328 47.215 157.126C47.4909 156.925 47.7062 156.651 47.8375 156.336L49.6666 151.978L51.4957 156.336C51.627 156.651 51.8423 156.925 52.1182 157.126C52.3941 157.328 52.72 157.45 53.0604 157.479L57.761 157.886L54.19 161.001Z" fill="white"/>
<path d="M72.3888 166V164.4H75.6048C76.1701 164.4 76.6075 164.224 76.9168 163.872C77.2261 163.52 77.3808 163.115 77.3808 162.656C77.3808 162.347 77.3115 162.059 77.1728 161.792C77.0341 161.525 76.8315 161.312 76.5648 161.152C76.2981 160.992 75.9781 160.912 75.6048 160.912H72.3888V159.312H75.3328C75.8128 159.312 76.1968 159.189 76.4848 158.944C76.7728 158.699 76.9168 158.336 76.9168 157.856C76.9168 157.376 76.7728 157.013 76.4848 156.768C76.1968 156.523 75.8128 156.4 75.3328 156.4H72.3888V154.8H75.3808C76.1381 154.8 76.7675 154.939 77.2688 155.216C77.7701 155.493 78.1435 155.851 78.3888 156.288C78.6341 156.725 78.7568 157.195 78.7568 157.696C78.7568 158.283 78.5915 158.8 78.2608 159.248C77.9408 159.696 77.4661 160.059 76.8368 160.336L76.9808 159.76C77.6848 160.048 78.2341 160.453 78.6288 160.976C79.0235 161.499 79.2208 162.112 79.2208 162.816C79.2208 163.392 79.0768 163.92 78.7888 164.4C78.5115 164.88 78.0955 165.269 77.5408 165.568C76.9968 165.856 76.3248 166 75.5248 166H72.3888ZM71.1248 166V154.8H72.9648V166H71.1248ZM83.9899 166.16C83.3393 166.16 82.7579 166.016 82.2459 165.728C81.7446 165.44 81.3499 165.045 81.0619 164.544C80.7846 164.032 80.6459 163.445 80.6459 162.784V158.32H82.4059V162.704C82.4059 163.077 82.4646 163.397 82.5819 163.664C82.7099 163.92 82.8913 164.117 83.1259 164.256C83.3713 164.395 83.6593 164.464 83.9899 164.464C84.5019 164.464 84.8913 164.315 85.1579 164.016C85.4353 163.707 85.5739 163.269 85.5739 162.704V158.32H87.3339V162.784C87.3339 163.456 87.1899 164.048 86.9019 164.56C86.6246 165.061 86.2353 165.456 85.7339 165.744C85.2326 166.021 84.6513 166.16 83.9899 166.16ZM90.2716 166V155.12H92.0316V166H90.2716ZM88.4316 159.92V158.32H98.5116V159.92H88.4316ZM94.9116 166V155.12H96.6716V166H94.9116ZM103.092 166.16C102.346 166.16 101.668 165.984 101.06 165.632C100.452 165.269 99.967 164.784 99.6043 164.176C99.2523 163.568 99.0763 162.891 99.0763 162.144C99.0763 161.397 99.2523 160.725 99.6043 160.128C99.967 159.531 100.452 159.056 101.06 158.704C101.668 158.341 102.346 158.16 103.092 158.16C103.85 158.16 104.532 158.336 105.14 158.688C105.748 159.04 106.228 159.52 106.58 160.128C106.943 160.725 107.124 161.397 107.124 162.144C107.124 162.891 106.943 163.568 106.58 164.176C106.228 164.784 105.748 165.269 105.14 165.632C104.532 165.984 103.85 166.16 103.092 166.16ZM103.092 164.464C103.53 164.464 103.914 164.368 104.244 164.176C104.586 163.973 104.847 163.696 105.028 163.344C105.22 162.992 105.316 162.592 105.316 162.144C105.316 161.696 105.22 161.301 105.028 160.96C104.836 160.619 104.575 160.352 104.244 160.16C103.914 159.957 103.53 159.856 103.092 159.856C102.666 159.856 102.282 159.957 101.94 160.16C101.61 160.352 101.348 160.619 101.156 160.96C100.975 161.301 100.884 161.696 100.884 162.144C100.884 162.592 100.975 162.992 101.156 163.344C101.348 163.696 101.61 163.973 101.94 164.176C102.282 164.368 102.666 164.464 103.092 164.464ZM113.852 166V161.568C113.852 161.056 113.687 160.635 113.356 160.304C113.036 159.973 112.62 159.808 112.108 159.808C111.767 159.808 111.463 159.883 111.196 160.032C110.929 160.181 110.721 160.389 110.572 160.656C110.423 160.923 110.348 161.227 110.348 161.568L109.66 161.184C109.66 160.597 109.788 160.08 110.044 159.632C110.3 159.173 110.652 158.816 111.1 158.56C111.559 158.293 112.071 158.16 112.636 158.16C113.212 158.16 113.724 158.309 114.172 158.608C114.62 158.896 114.972 159.275 115.228 159.744C115.484 160.203 115.612 160.683 115.612 161.184V166H113.852ZM108.588 166V158.32H110.348V166H108.588Z" fill="white"/>
<mask id="path-10-inside-1_4924_34935" fill="white">
<path d="M0 228C0 216.686 0 211.029 3.51472 207.515C7.02944 204 12.6863 204 24 204H130.333C141.647 204 147.304 204 150.819 207.515C154.333 211.029 154.333 216.686 154.333 228C154.333 239.314 154.333 244.971 150.819 248.485C147.304 252 141.647 252 130.333 252H24C12.6863 252 7.02944 252 3.51472 248.485C0 244.971 0 239.314 0 228Z"/>
</mask>
<path d="M3.51472 248.485L2.10051 249.899L3.51472 248.485ZM150.819 248.485L149.404 247.071L150.819 248.485ZM150.819 207.515L149.404 208.929L150.819 207.515ZM3.51472 207.515L2.10051 206.101L3.51472 207.515ZM24 204V206H130.333V204V202H24V204ZM130.333 252V250H24V252V254H130.333V252ZM24 252V250C18.2866 250 14.2027 249.996 11.0992 249.578C8.05324 249.169 6.25275 248.395 4.92893 247.071L3.51472 248.485L2.10051 249.899C4.2914 252.09 7.0767 253.074 10.5662 253.543C13.9982 254.004 18.3997 254 24 254V252ZM0 228H-2C-2 233.6 -2.00425 238.002 -1.54283 241.434C-1.07367 244.923 -0.0903922 247.709 2.10051 249.899L3.51472 248.485L4.92893 247.071C3.60511 245.747 2.83103 243.947 2.42151 240.901C2.00425 237.797 2 233.713 2 228H0ZM154.333 228H152.333C152.333 233.713 152.329 237.797 151.912 240.901C151.502 243.947 150.728 245.747 149.404 247.071L150.819 248.485L152.233 249.899C154.424 247.709 155.407 244.923 155.876 241.434C156.338 238.002 156.333 233.6 156.333 228H154.333ZM130.333 252V254C135.934 254 140.335 254.004 143.767 253.543C147.257 253.074 150.042 252.09 152.233 249.899L150.819 248.485L149.404 247.071C148.081 248.395 146.28 249.169 143.234 249.578C140.131 249.996 136.047 250 130.333 250V252ZM130.333 204V206C136.047 206 140.131 206.004 143.234 206.422C146.28 206.831 148.081 207.605 149.404 208.929L150.819 207.515L152.233 206.101C150.042 203.91 147.257 202.926 143.767 202.457C140.335 201.996 135.934 202 130.333 202V204ZM154.333 228H156.333C156.333 222.4 156.338 217.998 155.876 214.566C155.407 211.077 154.424 208.291 152.233 206.101L150.819 207.515L149.404 208.929C150.728 210.253 151.502 212.053 151.912 215.099C152.329 218.203 152.333 222.287 152.333 228H154.333ZM24 204V202C18.3997 202 13.9983 201.996 10.5662 202.457C7.0767 202.926 4.2914 203.91 2.10051 206.101L3.51472 207.515L4.92893 208.929C6.25275 207.605 8.05324 206.831 11.0992 206.422C14.2028 206.004 18.2866 206 24 206V204ZM0 228H2C2 222.287 2.00425 218.203 2.42151 215.099C2.83103 212.053 3.60511 210.253 4.92893 208.929L3.51472 207.515L2.10051 206.101C-0.0903922 208.291 -1.07367 211.077 -1.54283 214.566C-2.00425 217.998 -2 222.4 -2 228H0Z" fill="#4F46E5" mask="url(#path-10-inside-1_4924_34935)"/>
<path d="M60.4479 225.005C60.3339 224.656 60.1197 224.348 59.832 224.119C59.5444 223.891 59.1958 223.751 58.8297 223.719L53.486 223.257L51.3954 218.275C51.2515 217.936 51.0112 217.647 50.7043 217.444C50.3974 217.241 50.0375 217.133 49.6694 217.133C49.3014 217.133 48.9415 217.241 48.6345 217.444C48.3276 217.647 48.0873 217.936 47.9435 218.275L45.85 223.257L40.5063 223.719C40.1382 223.75 39.7873 223.888 39.4977 224.117C39.208 224.347 38.9925 224.656 38.8782 225.007C38.7638 225.358 38.7557 225.736 38.8549 226.091C38.9541 226.447 39.1561 226.766 39.4357 227.007L43.4969 230.551L42.2782 235.823C42.1946 236.182 42.2187 236.558 42.3475 236.903C42.4762 237.249 42.704 237.549 43.0022 237.765C43.3004 237.982 43.6559 238.106 44.0242 238.122C44.3924 238.137 44.7572 238.044 45.0729 237.854L49.6666 235.064L54.2604 237.854C54.576 238.044 54.9406 238.137 55.3087 238.121C55.6769 238.105 56.0321 237.981 56.3302 237.764C56.6282 237.548 56.8558 237.248 56.9846 236.903C57.1133 236.558 57.1375 236.182 57.0541 235.823L55.8354 230.551L59.8966 227.007C60.1754 226.765 60.3765 226.446 60.4745 226.09C60.5726 225.733 60.5633 225.356 60.4479 225.005ZM54.19 229.001C53.9329 229.225 53.7417 229.514 53.6368 229.839C53.5319 230.163 53.5173 230.51 53.5947 230.841L54.6625 235.465L50.6369 233.02C50.3446 232.842 50.0089 232.748 49.6666 232.748C49.3243 232.748 48.9886 232.842 48.6963 233.02L44.6707 235.465L45.7385 230.841C45.8159 230.51 45.8013 230.163 45.6964 229.839C45.5915 229.514 45.4003 229.225 45.1432 229.001L41.5722 225.886L46.2729 225.479C46.6132 225.45 46.9391 225.328 47.215 225.126C47.4909 224.925 47.7062 224.651 47.8375 224.336L49.6666 219.978L51.4957 224.336C51.627 224.651 51.8423 224.925 52.1182 225.126C52.3941 225.328 52.72 225.45 53.0604 225.479L57.761 225.886L54.19 229.001Z" fill="#4F46E5"/>
<path d="M72.3888 234V232.4H75.6048C76.1701 232.4 76.6075 232.224 76.9168 231.872C77.2261 231.52 77.3808 231.115 77.3808 230.656C77.3808 230.347 77.3115 230.059 77.1728 229.792C77.0341 229.525 76.8315 229.312 76.5648 229.152C76.2981 228.992 75.9781 228.912 75.6048 228.912H72.3888V227.312H75.3328C75.8128 227.312 76.1968 227.189 76.4848 226.944C76.7728 226.699 76.9168 226.336 76.9168 225.856C76.9168 225.376 76.7728 225.013 76.4848 224.768C76.1968 224.523 75.8128 224.4 75.3328 224.4H72.3888V222.8H75.3808C76.1381 222.8 76.7675 222.939 77.2688 223.216C77.7701 223.493 78.1435 223.851 78.3888 224.288C78.6341 224.725 78.7568 225.195 78.7568 225.696C78.7568 226.283 78.5915 226.8 78.2608 227.248C77.9408 227.696 77.4661 228.059 76.8368 228.336L76.9808 227.76C77.6848 228.048 78.2341 228.453 78.6288 228.976C79.0235 229.499 79.2208 230.112 79.2208 230.816C79.2208 231.392 79.0768 231.92 78.7888 232.4C78.5115 232.88 78.0955 233.269 77.5408 233.568C76.9968 233.856 76.3248 234 75.5248 234H72.3888ZM71.1248 234V222.8H72.9648V234H71.1248ZM83.9899 234.16C83.3393 234.16 82.7579 234.016 82.2459 233.728C81.7446 233.44 81.3499 233.045 81.0619 232.544C80.7846 232.032 80.6459 231.445 80.6459 230.784V226.32H82.4059V230.704C82.4059 231.077 82.4646 231.397 82.5819 231.664C82.7099 231.92 82.8913 232.117 83.1259 232.256C83.3713 232.395 83.6593 232.464 83.9899 232.464C84.5019 232.464 84.8913 232.315 85.1579 232.016C85.4353 231.707 85.5739 231.269 85.5739 230.704V226.32H87.3339V230.784C87.3339 231.456 87.1899 232.048 86.9019 232.56C86.6246 233.061 86.2353 233.456 85.7339 233.744C85.2326 234.021 84.6513 234.16 83.9899 234.16ZM90.2716 234V223.12H92.0316V234H90.2716ZM88.4316 227.92V226.32H98.5116V227.92H88.4316ZM94.9116 234V223.12H96.6716V234H94.9116ZM103.092 234.16C102.346 234.16 101.668 233.984 101.06 233.632C100.452 233.269 99.967 232.784 99.6043 232.176C99.2523 231.568 99.0763 230.891 99.0763 230.144C99.0763 229.397 99.2523 228.725 99.6043 228.128C99.967 227.531 100.452 227.056 101.06 226.704C101.668 226.341 102.346 226.16 103.092 226.16C103.85 226.16 104.532 226.336 105.14 226.688C105.748 227.04 106.228 227.52 106.58 228.128C106.943 228.725 107.124 229.397 107.124 230.144C107.124 230.891 106.943 231.568 106.58 232.176C106.228 232.784 105.748 233.269 105.14 233.632C104.532 233.984 103.85 234.16 103.092 234.16ZM103.092 232.464C103.53 232.464 103.914 232.368 104.244 232.176C104.586 231.973 104.847 231.696 105.028 231.344C105.22 230.992 105.316 230.592 105.316 230.144C105.316 229.696 105.22 229.301 105.028 228.96C104.836 228.619 104.575 228.352 104.244 228.16C103.914 227.957 103.53 227.856 103.092 227.856C102.666 227.856 102.282 227.957 101.94 228.16C101.61 228.352 101.348 228.619 101.156 228.96C100.975 229.301 100.884 229.696 100.884 230.144C100.884 230.592 100.975 230.992 101.156 231.344C101.348 231.696 101.61 231.973 101.94 232.176C102.282 232.368 102.666 232.464 103.092 232.464ZM113.852 234V229.568C113.852 229.056 113.687 228.635 113.356 228.304C113.036 227.973 112.62 227.808 112.108 227.808C111.767 227.808 111.463 227.883 111.196 228.032C110.929 228.181 110.721 228.389 110.572 228.656C110.423 228.923 110.348 229.227 110.348 229.568L109.66 229.184C109.66 228.597 109.788 228.08 110.044 227.632C110.3 227.173 110.652 226.816 111.1 226.56C111.559 226.293 112.071 226.16 112.636 226.16C113.212 226.16 113.724 226.309 114.172 226.608C114.62 226.896 114.972 227.275 115.228 227.744C115.484 228.203 115.612 228.683 115.612 229.184V234H113.852ZM108.588 234V226.32H110.348V234H108.588Z" fill="#4F46E5"/>
<path d="M60.4479 293.005C60.3339 292.656 60.1197 292.348 59.832 292.119C59.5444 291.891 59.1958 291.751 58.8297 291.719L53.486 291.257L51.3954 286.275C51.2515 285.936 51.0112 285.647 50.7043 285.444C50.3974 285.241 50.0375 285.133 49.6694 285.133C49.3014 285.133 48.9415 285.241 48.6345 285.444C48.3276 285.647 48.0873 285.936 47.9435 286.275L45.85 291.257L40.5063 291.719C40.1382 291.75 39.7873 291.888 39.4977 292.117C39.208 292.347 38.9925 292.656 38.8782 293.007C38.7638 293.358 38.7557 293.736 38.8549 294.091C38.9541 294.447 39.1561 294.766 39.4357 295.007L43.4969 298.551L42.2782 303.823C42.1946 304.182 42.2187 304.558 42.3475 304.903C42.4762 305.249 42.704 305.549 43.0022 305.765C43.3004 305.982 43.6559 306.106 44.0242 306.122C44.3924 306.137 44.7572 306.044 45.0729 305.854L49.6666 303.064L54.2604 305.854C54.576 306.044 54.9406 306.137 55.3087 306.121C55.6769 306.105 56.0321 305.981 56.3302 305.764C56.6282 305.548 56.8558 305.248 56.9846 304.903C57.1133 304.558 57.1375 304.182 57.0541 303.823L55.8354 298.551L59.8966 295.007C60.1754 294.765 60.3765 294.446 60.4745 294.09C60.5726 293.733 60.5633 293.356 60.4479 293.005ZM54.19 297.001C53.9329 297.225 53.7417 297.514 53.6368 297.839C53.5319 298.163 53.5173 298.51 53.5947 298.841L54.6625 303.465L50.6369 301.02C50.3446 300.842 50.0089 300.748 49.6666 300.748C49.3243 300.748 48.9886 300.842 48.6963 301.02L44.6707 303.465L45.7385 298.841C45.8159 298.51 45.8013 298.163 45.6964 297.839C45.5915 297.514 45.4003 297.225 45.1432 297.001L41.5722 293.886L46.2729 293.479C46.6132 293.45 46.9391 293.328 47.215 293.126C47.4909 292.925 47.7062 292.651 47.8375 292.336L49.6666 287.978L51.4957 292.336C51.627 292.651 51.8423 292.925 52.1182 293.126C52.3941 293.328 52.72 293.45 53.0604 293.479L57.761 293.886L54.19 297.001Z" fill="#4F46E5"/>
<path d="M72.3888 302V300.4H75.6048C76.1701 300.4 76.6075 300.224 76.9168 299.872C77.2261 299.52 77.3808 299.115 77.3808 298.656C77.3808 298.347 77.3115 298.059 77.1728 297.792C77.0341 297.525 76.8315 297.312 76.5648 297.152C76.2981 296.992 75.9781 296.912 75.6048 296.912H72.3888V295.312H75.3328C75.8128 295.312 76.1968 295.189 76.4848 294.944C76.7728 294.699 76.9168 294.336 76.9168 293.856C76.9168 293.376 76.7728 293.013 76.4848 292.768C76.1968 292.523 75.8128 292.4 75.3328 292.4H72.3888V290.8H75.3808C76.1381 290.8 76.7675 290.939 77.2688 291.216C77.7701 291.493 78.1435 291.851 78.3888 292.288C78.6341 292.725 78.7568 293.195 78.7568 293.696C78.7568 294.283 78.5915 294.8 78.2608 295.248C77.9408 295.696 77.4661 296.059 76.8368 296.336L76.9808 295.76C77.6848 296.048 78.2341 296.453 78.6288 296.976C79.0235 297.499 79.2208 298.112 79.2208 298.816C79.2208 299.392 79.0768 299.92 78.7888 300.4C78.5115 300.88 78.0955 301.269 77.5408 301.568C76.9968 301.856 76.3248 302 75.5248 302H72.3888ZM71.1248 302V290.8H72.9648V302H71.1248ZM83.9899 302.16C83.3393 302.16 82.7579 302.016 82.2459 301.728C81.7446 301.44 81.3499 301.045 81.0619 300.544C80.7846 300.032 80.6459 299.445 80.6459 298.784V294.32H82.4059V298.704C82.4059 299.077 82.4646 299.397 82.5819 299.664C82.7099 299.92 82.8913 300.117 83.1259 300.256C83.3713 300.395 83.6593 300.464 83.9899 300.464C84.5019 300.464 84.8913 300.315 85.1579 300.016C85.4353 299.707 85.5739 299.269 85.5739 298.704V294.32H87.3339V298.784C87.3339 299.456 87.1899 300.048 86.9019 300.56C86.6246 301.061 86.2353 301.456 85.7339 301.744C85.2326 302.021 84.6513 302.16 83.9899 302.16ZM90.2716 302V291.12H92.0316V302H90.2716ZM88.4316 295.92V294.32H98.5116V295.92H88.4316ZM94.9116 302V291.12H96.6716V302H94.9116ZM103.092 302.16C102.346 302.16 101.668 301.984 101.06 301.632C100.452 301.269 99.967 300.784 99.6043 300.176C99.2523 299.568 99.0763 298.891 99.0763 298.144C99.0763 297.397 99.2523 296.725 99.6043 296.128C99.967 295.531 100.452 295.056 101.06 294.704C101.668 294.341 102.346 294.16 103.092 294.16C103.85 294.16 104.532 294.336 105.14 294.688C105.748 295.04 106.228 295.52 106.58 296.128C106.943 296.725 107.124 297.397 107.124 298.144C107.124 298.891 106.943 299.568 106.58 300.176C106.228 300.784 105.748 301.269 105.14 301.632C104.532 301.984 103.85 302.16 103.092 302.16ZM103.092 300.464C103.53 300.464 103.914 300.368 104.244 300.176C104.586 299.973 104.847 299.696 105.028 299.344C105.22 298.992 105.316 298.592 105.316 298.144C105.316 297.696 105.22 297.301 105.028 296.96C104.836 296.619 104.575 296.352 104.244 296.16C103.914 295.957 103.53 295.856 103.092 295.856C102.666 295.856 102.282 295.957 101.94 296.16C101.61 296.352 101.348 296.619 101.156 296.96C100.975 297.301 100.884 297.696 100.884 298.144C100.884 298.592 100.975 298.992 101.156 299.344C101.348 299.696 101.61 299.973 101.94 300.176C102.282 300.368 102.666 300.464 103.092 300.464ZM113.852 302V297.568C113.852 297.056 113.687 296.635 113.356 296.304C113.036 295.973 112.62 295.808 112.108 295.808C111.767 295.808 111.463 295.883 111.196 296.032C110.929 296.181 110.721 296.389 110.572 296.656C110.423 296.923 110.348 297.227 110.348 297.568L109.66 297.184C109.66 296.597 109.788 296.08 110.044 295.632C110.3 295.173 110.652 294.816 111.1 294.56C111.559 294.293 112.071 294.16 112.636 294.16C113.212 294.16 113.724 294.309 114.172 294.608C114.62 294.896 114.972 295.275 115.228 295.744C115.484 296.203 115.612 296.683 115.612 297.184V302H113.852ZM108.588 302V294.32H110.348V302H108.588Z" fill="#4F46E5"/>
<path d="M174.333 24C174.333 12.6863 174.333 7.02944 177.848 3.51472C181.363 0 187.02 0 198.333 0H304.667C315.98 0 321.637 0 325.152 3.51472C328.667 7.02944 328.667 12.6863 328.667 24C328.667 35.3137 328.667 40.9706 325.152 44.4853C321.637 48 315.98 48 304.667 48H198.333C187.02 48 181.363 48 177.848 44.4853C174.333 40.9706 174.333 35.3137 174.333 24Z" fill="#4F46E5"/>
<path d="M230.722 30V28.4H233.938C234.504 28.4 234.941 28.224 235.25 27.872C235.56 27.52 235.714 27.1147 235.714 26.656C235.714 26.3467 235.645 26.0587 235.506 25.792C235.368 25.5253 235.165 25.312 234.898 25.152C234.632 24.992 234.312 24.912 233.938 24.912H230.722V23.312H233.666C234.146 23.312 234.53 23.1893 234.818 22.944C235.106 22.6987 235.25 22.336 235.25 21.856C235.25 21.376 235.106 21.0133 234.818 20.768C234.53 20.5227 234.146 20.4 233.666 20.4H230.722V18.8H233.714C234.472 18.8 235.101 18.9387 235.602 19.216C236.104 19.4933 236.477 19.8507 236.722 20.288C236.968 20.7253 237.09 21.1947 237.09 21.696C237.09 22.2827 236.925 22.8 236.594 23.248C236.274 23.696 235.8 24.0587 235.17 24.336L235.314 23.76C236.018 24.048 236.568 24.4533 236.962 24.976C237.357 25.4987 237.554 26.112 237.554 26.816C237.554 27.392 237.41 27.92 237.122 28.4C236.845 28.88 236.429 29.2693 235.874 29.568C235.33 29.856 234.658 30 233.858 30H230.722ZM229.458 30V18.8H231.298V30H229.458ZM242.323 30.16C241.673 30.16 241.091 30.016 240.579 29.728C240.078 29.44 239.683 29.0453 239.395 28.544C239.118 28.032 238.979 27.4453 238.979 26.784V22.32H240.739V26.704C240.739 27.0773 240.798 27.3973 240.915 27.664C241.043 27.92 241.225 28.1173 241.459 28.256C241.705 28.3947 241.993 28.464 242.323 28.464C242.835 28.464 243.225 28.3147 243.491 28.016C243.769 27.7067 243.907 27.2693 243.907 26.704V22.32H245.667V26.784C245.667 27.456 245.523 28.048 245.235 28.56C244.958 29.0613 244.569 29.456 244.067 29.744C243.566 30.0213 242.985 30.16 242.323 30.16ZM248.605 30V19.12H250.365V30H248.605ZM246.765 23.92V22.32H256.845V23.92H246.765ZM253.245 30V19.12H255.005V30H253.245ZM261.426 30.16C260.679 30.16 260.002 29.984 259.394 29.632C258.786 29.2693 258.3 28.784 257.938 28.176C257.586 27.568 257.41 26.8907 257.41 26.144C257.41 25.3973 257.586 24.7253 257.938 24.128C258.3 23.5307 258.786 23.056 259.394 22.704C260.002 22.3413 260.679 22.16 261.426 22.16C262.183 22.16 262.866 22.336 263.474 22.688C264.082 23.04 264.562 23.52 264.914 24.128C265.276 24.7253 265.458 25.3973 265.458 26.144C265.458 26.8907 265.276 27.568 264.914 28.176C264.562 28.784 264.082 29.2693 263.474 29.632C262.866 29.984 262.183 30.16 261.426 30.16ZM261.426 28.464C261.863 28.464 262.247 28.368 262.578 28.176C262.919 27.9733 263.18 27.696 263.362 27.344C263.554 26.992 263.65 26.592 263.65 26.144C263.65 25.696 263.554 25.3013 263.362 24.96C263.17 24.6187 262.908 24.352 262.578 24.16C262.247 23.9573 261.863 23.856 261.426 23.856C260.999 23.856 260.615 23.9573 260.274 24.16C259.943 24.352 259.682 24.6187 259.49 24.96C259.308 25.3013 259.218 25.696 259.218 26.144C259.218 26.592 259.308 26.992 259.49 27.344C259.682 27.696 259.943 27.9733 260.274 28.176C260.615 28.368 260.999 28.464 261.426 28.464ZM272.185 30V25.568C272.185 25.056 272.02 24.6347 271.689 24.304C271.369 23.9733 270.953 23.808 270.441 23.808C270.1 23.808 269.796 23.8827 269.529 24.032C269.263 24.1813 269.055 24.3893 268.905 24.656C268.756 24.9227 268.681 25.2267 268.681 25.568L267.993 25.184C267.993 24.5973 268.121 24.08 268.377 23.632C268.633 23.1733 268.985 22.816 269.433 22.56C269.892 22.2933 270.404 22.16 270.969 22.16C271.545 22.16 272.057 22.3093 272.505 22.608C272.953 22.896 273.305 23.2747 273.561 23.744C273.817 24.2027 273.945 24.6827 273.945 25.184V30H272.185ZM266.921 30V22.32H268.681V30H266.921Z" fill="white"/>
<path d="M174.333 92C174.333 80.6863 174.333 75.0294 177.848 71.5147C181.363 68 187.02 68 198.333 68H304.667C315.98 68 321.637 68 325.152 71.5147C328.667 75.0294 328.667 80.6863 328.667 92C328.667 103.314 328.667 108.971 325.152 112.485C321.637 116 315.98 116 304.667 116H198.333C187.02 116 181.363 116 177.848 112.485C174.333 108.971 174.333 103.314 174.333 92Z" fill="#F1F2F4"/>
<path d="M230.722 98V96.4H233.938C234.504 96.4 234.941 96.224 235.25 95.872C235.56 95.52 235.714 95.1147 235.714 94.656C235.714 94.3467 235.645 94.0587 235.506 93.792C235.368 93.5253 235.165 93.312 234.898 93.152C234.632 92.992 234.312 92.912 233.938 92.912H230.722V91.312H233.666C234.146 91.312 234.53 91.1893 234.818 90.944C235.106 90.6987 235.25 90.336 235.25 89.856C235.25 89.376 235.106 89.0133 234.818 88.768C234.53 88.5227 234.146 88.4 233.666 88.4H230.722V86.8H233.714C234.472 86.8 235.101 86.9387 235.602 87.216C236.104 87.4933 236.477 87.8507 236.722 88.288C236.968 88.7253 237.09 89.1947 237.09 89.696C237.09 90.2827 236.925 90.8 236.594 91.248C236.274 91.696 235.8 92.0587 235.17 92.336L235.314 91.76C236.018 92.048 236.568 92.4533 236.962 92.976C237.357 93.4987 237.554 94.112 237.554 94.816C237.554 95.392 237.41 95.92 237.122 96.4C236.845 96.88 236.429 97.2693 235.874 97.568C235.33 97.856 234.658 98 233.858 98H230.722ZM229.458 98V86.8H231.298V98H229.458ZM242.323 98.16C241.673 98.16 241.091 98.016 240.579 97.728C240.078 97.44 239.683 97.0453 239.395 96.544C239.118 96.032 238.979 95.4453 238.979 94.784V90.32H240.739V94.704C240.739 95.0773 240.798 95.3973 240.915 95.664C241.043 95.92 241.225 96.1173 241.459 96.256C241.705 96.3947 241.993 96.464 242.323 96.464C242.835 96.464 243.225 96.3147 243.491 96.016C243.769 95.7067 243.907 95.2693 243.907 94.704V90.32H245.667V94.784C245.667 95.456 245.523 96.048 245.235 96.56C244.958 97.0613 244.569 97.456 244.067 97.744C243.566 98.0213 242.985 98.16 242.323 98.16ZM248.605 98V87.12H250.365V98H248.605ZM246.765 91.92V90.32H256.845V91.92H246.765ZM253.245 98V87.12H255.005V98H253.245ZM261.426 98.16C260.679 98.16 260.002 97.984 259.394 97.632C258.786 97.2693 258.3 96.784 257.938 96.176C257.586 95.568 257.41 94.8907 257.41 94.144C257.41 93.3973 257.586 92.7253 257.938 92.128C258.3 91.5307 258.786 91.056 259.394 90.704C260.002 90.3413 260.679 90.16 261.426 90.16C262.183 90.16 262.866 90.336 263.474 90.688C264.082 91.04 264.562 91.52 264.914 92.128C265.276 92.7253 265.458 93.3973 265.458 94.144C265.458 94.8907 265.276 95.568 264.914 96.176C264.562 96.784 264.082 97.2693 263.474 97.632C262.866 97.984 262.183 98.16 261.426 98.16ZM261.426 96.464C261.863 96.464 262.247 96.368 262.578 96.176C262.919 95.9733 263.18 95.696 263.362 95.344C263.554 94.992 263.65 94.592 263.65 94.144C263.65 93.696 263.554 93.3013 263.362 92.96C263.17 92.6187 262.908 92.352 262.578 92.16C262.247 91.9573 261.863 91.856 261.426 91.856C260.999 91.856 260.615 91.9573 260.274 92.16C259.943 92.352 259.682 92.6187 259.49 92.96C259.308 93.3013 259.218 93.696 259.218 94.144C259.218 94.592 259.308 94.992 259.49 95.344C259.682 95.696 259.943 95.9733 260.274 96.176C260.615 96.368 260.999 96.464 261.426 96.464ZM272.185 98V93.568C272.185 93.056 272.02 92.6347 271.689 92.304C271.369 91.9733 270.953 91.808 270.441 91.808C270.1 91.808 269.796 91.8827 269.529 92.032C269.263 92.1813 269.055 92.3893 268.905 92.656C268.756 92.9227 268.681 93.2267 268.681 93.568L267.993 93.184C267.993 92.5973 268.121 92.08 268.377 91.632C268.633 91.1733 268.985 90.816 269.433 90.56C269.892 90.2933 270.404 90.16 270.969 90.16C271.545 90.16 272.057 90.3093 272.505 90.608C272.953 90.896 273.305 91.2747 273.561 91.744C273.817 92.2027 273.945 92.6827 273.945 93.184V98H272.185ZM266.921 98V90.32H268.681V98H266.921Z" fill="#2A2C35"/>
<path d="M174.333 160C174.333 148.686 174.333 143.029 177.848 139.515C181.363 136 187.02 136 198.333 136H304.667C315.98 136 321.637 136 325.152 139.515C328.667 143.029 328.667 148.686 328.667 160C328.667 171.314 328.667 176.971 325.152 180.485C321.637 184 315.98 184 304.667 184H198.333C187.02 184 181.363 184 177.848 180.485C174.333 176.971 174.333 171.314 174.333 160Z" fill="#E1172F"/>
<path d="M230.722 166V164.4H233.938C234.504 164.4 234.941 164.224 235.25 163.872C235.56 163.52 235.714 163.115 235.714 162.656C235.714 162.347 235.645 162.059 235.506 161.792C235.368 161.525 235.165 161.312 234.898 161.152C234.632 160.992 234.312 160.912 233.938 160.912H230.722V159.312H233.666C234.146 159.312 234.53 159.189 234.818 158.944C235.106 158.699 235.25 158.336 235.25 157.856C235.25 157.376 235.106 157.013 234.818 156.768C234.53 156.523 234.146 156.4 233.666 156.4H230.722V154.8H233.714C234.472 154.8 235.101 154.939 235.602 155.216C236.104 155.493 236.477 155.851 236.722 156.288C236.968 156.725 237.09 157.195 237.09 157.696C237.09 158.283 236.925 158.8 236.594 159.248C236.274 159.696 235.8 160.059 235.17 160.336L235.314 159.76C236.018 160.048 236.568 160.453 236.962 160.976C237.357 161.499 237.554 162.112 237.554 162.816C237.554 163.392 237.41 163.92 237.122 164.4C236.845 164.88 236.429 165.269 235.874 165.568C235.33 165.856 234.658 166 233.858 166H230.722ZM229.458 166V154.8H231.298V166H229.458ZM242.323 166.16C241.673 166.16 241.091 166.016 240.579 165.728C240.078 165.44 239.683 165.045 239.395 164.544C239.118 164.032 238.979 163.445 238.979 162.784V158.32H240.739V162.704C240.739 163.077 240.798 163.397 240.915 163.664C241.043 163.92 241.225 164.117 241.459 164.256C241.705 164.395 241.993 164.464 242.323 164.464C242.835 164.464 243.225 164.315 243.491 164.016C243.769 163.707 243.907 163.269 243.907 162.704V158.32H245.667V162.784C245.667 163.456 245.523 164.048 245.235 164.56C244.958 165.061 244.569 165.456 244.067 165.744C243.566 166.021 242.985 166.16 242.323 166.16ZM248.605 166V155.12H250.365V166H248.605ZM246.765 159.92V158.32H256.845V159.92H246.765ZM253.245 166V155.12H255.005V166H253.245ZM261.426 166.16C260.679 166.16 260.002 165.984 259.394 165.632C258.786 165.269 258.3 164.784 257.938 164.176C257.586 163.568 257.41 162.891 257.41 162.144C257.41 161.397 257.586 160.725 257.938 160.128C258.3 159.531 258.786 159.056 259.394 158.704C260.002 158.341 260.679 158.16 261.426 158.16C262.183 158.16 262.866 158.336 263.474 158.688C264.082 159.04 264.562 159.52 264.914 160.128C265.276 160.725 265.458 161.397 265.458 162.144C265.458 162.891 265.276 163.568 264.914 164.176C264.562 164.784 264.082 165.269 263.474 165.632C262.866 165.984 262.183 166.16 261.426 166.16ZM261.426 164.464C261.863 164.464 262.247 164.368 262.578 164.176C262.919 163.973 263.18 163.696 263.362 163.344C263.554 162.992 263.65 162.592 263.65 162.144C263.65 161.696 263.554 161.301 263.362 160.96C263.17 160.619 262.908 160.352 262.578 160.16C262.247 159.957 261.863 159.856 261.426 159.856C260.999 159.856 260.615 159.957 260.274 160.16C259.943 160.352 259.682 160.619 259.49 160.96C259.308 161.301 259.218 161.696 259.218 162.144C259.218 162.592 259.308 162.992 259.49 163.344C259.682 163.696 259.943 163.973 260.274 164.176C260.615 164.368 260.999 164.464 261.426 164.464ZM272.185 166V161.568C272.185 161.056 272.02 160.635 271.689 160.304C271.369 159.973 270.953 159.808 270.441 159.808C270.1 159.808 269.796 159.883 269.529 160.032C269.263 160.181 269.055 160.389 268.905 160.656C268.756 160.923 268.681 161.227 268.681 161.568L267.993 161.184C267.993 160.597 268.121 160.08 268.377 159.632C268.633 159.173 268.985 158.816 269.433 158.56C269.892 158.293 270.404 158.16 270.969 158.16C271.545 158.16 272.057 158.309 272.505 158.608C272.953 158.896 273.305 159.275 273.561 159.744C273.817 160.203 273.945 160.683 273.945 161.184V166H272.185ZM266.921 166V158.32H268.681V166H266.921Z" fill="white"/>
<mask id="path-23-inside-2_4924_34935" fill="white">
<path d="M174.333 228C174.333 216.686 174.333 211.029 177.848 207.515C181.363 204 187.02 204 198.333 204H304.667C315.98 204 321.637 204 325.152 207.515C328.667 211.029 328.667 216.686 328.667 228C328.667 239.314 328.667 244.971 325.152 248.485C321.637 252 315.98 252 304.667 252H198.333C187.02 252 181.363 252 177.848 248.485C174.333 244.971 174.333 239.314 174.333 228Z"/>
</mask>
<path d="M177.848 248.485L176.434 249.899L177.848 248.485ZM325.152 248.485L326.566 249.899L325.152 248.485ZM325.152 207.515L326.566 206.101L325.152 207.515ZM177.848 207.515L176.434 206.101L177.848 207.515ZM198.333 204V206H304.667V204V202H198.333V204ZM304.667 252V250H198.333V252V254H304.667V252ZM198.333 252V250C192.62 250 188.536 249.996 185.433 249.578C182.387 249.169 180.586 248.395 179.262 247.071L177.848 248.485L176.434 249.899C178.625 252.09 181.41 253.074 184.9 253.543C188.332 254.004 192.733 254 198.333 254V252ZM174.333 228H172.333C172.333 233.6 172.329 238.002 172.791 241.434C173.26 244.923 174.243 247.709 176.434 249.899L177.848 248.485L179.262 247.071C177.938 245.747 177.164 243.947 176.755 240.901C176.338 237.797 176.333 233.713 176.333 228H174.333ZM328.667 228H326.667C326.667 233.713 326.662 237.797 326.245 240.901C325.836 243.947 325.062 245.747 323.738 247.071L325.152 248.485L326.566 249.899C328.757 247.709 329.74 244.923 330.21 241.434C330.671 238.002 330.667 233.6 330.667 228H328.667ZM304.667 252V254C310.267 254 314.668 254.004 318.1 253.543C321.59 253.074 324.375 252.09 326.566 249.899L325.152 248.485L323.738 247.071C322.414 248.395 320.613 249.169 317.567 249.578C314.464 249.996 310.38 250 304.667 250V252ZM304.667 204V206C310.38 206 314.464 206.004 317.567 206.422C320.613 206.831 322.414 207.605 323.738 208.929L325.152 207.515L326.566 206.101C324.375 203.91 321.59 202.926 318.1 202.457C314.668 201.996 310.267 202 304.667 202V204ZM328.667 228H330.667C330.667 222.4 330.671 217.998 330.21 214.566C329.74 211.077 328.757 208.291 326.566 206.101L325.152 207.515L323.738 208.929C325.062 210.253 325.836 212.053 326.245 215.099C326.662 218.203 326.667 222.287 326.667 228H328.667ZM198.333 204V202C192.733 202 188.332 201.996 184.9 202.457C181.41 202.926 178.625 203.91 176.434 206.101L177.848 207.515L179.262 208.929C180.586 207.605 182.387 206.831 185.433 206.422C188.536 206.004 192.62 206 198.333 206V204ZM174.333 228H176.333C176.333 222.287 176.338 218.203 176.755 215.099C177.164 212.053 177.938 210.253 179.262 208.929L177.848 207.515L176.434 206.101C174.243 208.291 173.26 211.077 172.791 214.566C172.329 217.998 172.333 222.4 172.333 228H174.333Z" fill="#4F46E5" mask="url(#path-23-inside-2_4924_34935)"/>
<path d="M230.722 234V232.4H233.938C234.504 232.4 234.941 232.224 235.25 231.872C235.56 231.52 235.714 231.115 235.714 230.656C235.714 230.347 235.645 230.059 235.506 229.792C235.368 229.525 235.165 229.312 234.898 229.152C234.632 228.992 234.312 228.912 233.938 228.912H230.722V227.312H233.666C234.146 227.312 234.53 227.189 234.818 226.944C235.106 226.699 235.25 226.336 235.25 225.856C235.25 225.376 235.106 225.013 234.818 224.768C234.53 224.523 234.146 224.4 233.666 224.4H230.722V222.8H233.714C234.472 222.8 235.101 222.939 235.602 223.216C236.104 223.493 236.477 223.851 236.722 224.288C236.968 224.725 237.09 225.195 237.09 225.696C237.09 226.283 236.925 226.8 236.594 227.248C236.274 227.696 235.8 228.059 235.17 228.336L235.314 227.76C236.018 228.048 236.568 228.453 236.962 228.976C237.357 229.499 237.554 230.112 237.554 230.816C237.554 231.392 237.41 231.92 237.122 232.4C236.845 232.88 236.429 233.269 235.874 233.568C235.33 233.856 234.658 234 233.858 234H230.722ZM229.458 234V222.8H231.298V234H229.458ZM242.323 234.16C241.673 234.16 241.091 234.016 240.579 233.728C240.078 233.44 239.683 233.045 239.395 232.544C239.118 232.032 238.979 231.445 238.979 230.784V226.32H240.739V230.704C240.739 231.077 240.798 231.397 240.915 231.664C241.043 231.92 241.225 232.117 241.459 232.256C241.705 232.395 241.993 232.464 242.323 232.464C242.835 232.464 243.225 232.315 243.491 232.016C243.769 231.707 243.907 231.269 243.907 230.704V226.32H245.667V230.784C245.667 231.456 245.523 232.048 245.235 232.56C244.958 233.061 244.569 233.456 244.067 233.744C243.566 234.021 242.985 234.16 242.323 234.16ZM248.605 234V223.12H250.365V234H248.605ZM246.765 227.92V226.32H256.845V227.92H246.765ZM253.245 234V223.12H255.005V234H253.245ZM261.426 234.16C260.679 234.16 260.002 233.984 259.394 233.632C258.786 233.269 258.3 232.784 257.938 232.176C257.586 231.568 257.41 230.891 257.41 230.144C257.41 229.397 257.586 228.725 257.938 228.128C258.3 227.531 258.786 227.056 259.394 226.704C260.002 226.341 260.679 226.16 261.426 226.16C262.183 226.16 262.866 226.336 263.474 226.688C264.082 227.04 264.562 227.52 264.914 228.128C265.276 228.725 265.458 229.397 265.458 230.144C265.458 230.891 265.276 231.568 264.914 232.176C264.562 232.784 264.082 233.269 263.474 233.632C262.866 233.984 262.183 234.16 261.426 234.16ZM261.426 232.464C261.863 232.464 262.247 232.368 262.578 232.176C262.919 231.973 263.18 231.696 263.362 231.344C263.554 230.992 263.65 230.592 263.65 230.144C263.65 229.696 263.554 229.301 263.362 228.96C263.17 228.619 262.908 228.352 262.578 228.16C262.247 227.957 261.863 227.856 261.426 227.856C260.999 227.856 260.615 227.957 260.274 228.16C259.943 228.352 259.682 228.619 259.49 228.96C259.308 229.301 259.218 229.696 259.218 230.144C259.218 230.592 259.308 230.992 259.49 231.344C259.682 231.696 259.943 231.973 260.274 232.176C260.615 232.368 260.999 232.464 261.426 232.464ZM272.185 234V229.568C272.185 229.056 272.02 228.635 271.689 228.304C271.369 227.973 270.953 227.808 270.441 227.808C270.1 227.808 269.796 227.883 269.529 228.032C269.263 228.181 269.055 228.389 268.905 228.656C268.756 228.923 268.681 229.227 268.681 229.568L267.993 229.184C267.993 228.597 268.121 228.08 268.377 227.632C268.633 227.173 268.985 226.816 269.433 226.56C269.892 226.293 270.404 226.16 270.969 226.16C271.545 226.16 272.057 226.309 272.505 226.608C272.953 226.896 273.305 227.275 273.561 227.744C273.817 228.203 273.945 228.683 273.945 229.184V234H272.185ZM266.921 234V226.32H268.681V234H266.921Z" fill="#4F46E5"/>
<path d="M230.722 302V300.4H233.938C234.504 300.4 234.941 300.224 235.25 299.872C235.56 299.52 235.714 299.115 235.714 298.656C235.714 298.347 235.645 298.059 235.506 297.792C235.368 297.525 235.165 297.312 234.898 297.152C234.632 296.992 234.312 296.912 233.938 296.912H230.722V295.312H233.666C234.146 295.312 234.53 295.189 234.818 294.944C235.106 294.699 235.25 294.336 235.25 293.856C235.25 293.376 235.106 293.013 234.818 292.768C234.53 292.523 234.146 292.4 233.666 292.4H230.722V290.8H233.714C234.472 290.8 235.101 290.939 235.602 291.216C236.104 291.493 236.477 291.851 236.722 292.288C236.968 292.725 237.09 293.195 237.09 293.696C237.09 294.283 236.925 294.8 236.594 295.248C236.274 295.696 235.8 296.059 235.17 296.336L235.314 295.76C236.018 296.048 236.568 296.453 236.962 296.976C237.357 297.499 237.554 298.112 237.554 298.816C237.554 299.392 237.41 299.92 237.122 300.4C236.845 300.88 236.429 301.269 235.874 301.568C235.33 301.856 234.658 302 233.858 302H230.722ZM229.458 302V290.8H231.298V302H229.458ZM242.323 302.16C241.673 302.16 241.091 302.016 240.579 301.728C240.078 301.44 239.683 301.045 239.395 300.544C239.118 300.032 238.979 299.445 238.979 298.784V294.32H240.739V298.704C240.739 299.077 240.798 299.397 240.915 299.664C241.043 299.92 241.225 300.117 241.459 300.256C241.705 300.395 241.993 300.464 242.323 300.464C242.835 300.464 243.225 300.315 243.491 300.016C243.769 299.707 243.907 299.269 243.907 298.704V294.32H245.667V298.784C245.667 299.456 245.523 300.048 245.235 300.56C244.958 301.061 244.569 301.456 244.067 301.744C243.566 302.021 242.985 302.16 242.323 302.16ZM248.605 302V291.12H250.365V302H248.605ZM246.765 295.92V294.32H256.845V295.92H246.765ZM253.245 302V291.12H255.005V302H253.245ZM261.426 302.16C260.679 302.16 260.002 301.984 259.394 301.632C258.786 301.269 258.3 300.784 257.938 300.176C257.586 299.568 257.41 298.891 257.41 298.144C257.41 297.397 257.586 296.725 257.938 296.128C258.3 295.531 258.786 295.056 259.394 294.704C260.002 294.341 260.679 294.16 261.426 294.16C262.183 294.16 262.866 294.336 263.474 294.688C264.082 295.04 264.562 295.52 264.914 296.128C265.276 296.725 265.458 297.397 265.458 298.144C265.458 298.891 265.276 299.568 264.914 300.176C264.562 300.784 264.082 301.269 263.474 301.632C262.866 301.984 262.183 302.16 261.426 302.16ZM261.426 300.464C261.863 300.464 262.247 300.368 262.578 300.176C262.919 299.973 263.18 299.696 263.362 299.344C263.554 298.992 263.65 298.592 263.65 298.144C263.65 297.696 263.554 297.301 263.362 296.96C263.17 296.619 262.908 296.352 262.578 296.16C262.247 295.957 261.863 295.856 261.426 295.856C260.999 295.856 260.615 295.957 260.274 296.16C259.943 296.352 259.682 296.619 259.49 296.96C259.308 297.301 259.218 297.696 259.218 298.144C259.218 298.592 259.308 298.992 259.49 299.344C259.682 299.696 259.943 299.973 260.274 300.176C260.615 300.368 260.999 300.464 261.426 300.464ZM272.185 302V297.568C272.185 297.056 272.02 296.635 271.689 296.304C271.369 295.973 270.953 295.808 270.441 295.808C270.1 295.808 269.796 295.883 269.529 296.032C269.263 296.181 269.055 296.389 268.905 296.656C268.756 296.923 268.681 297.227 268.681 297.568L267.993 297.184C267.993 296.597 268.121 296.08 268.377 295.632C268.633 295.173 268.985 294.816 269.433 294.56C269.892 294.293 270.404 294.16 270.969 294.16C271.545 294.16 272.057 294.309 272.505 294.608C272.953 294.896 273.305 295.275 273.561 295.744C273.817 296.203 273.945 296.683 273.945 297.184V302H272.185ZM266.921 302V294.32H268.681V302H266.921Z" fill="#4F46E5"/>
<path d="M348.667 24C348.667 12.6863 348.667 7.02944 352.181 3.51472C355.696 0 361.353 0 372.667 0H479C490.314 0 495.971 0 499.485 3.51472C503 7.02944 503 12.6863 503 24C503 35.3137 503 40.9706 499.485 44.4853C495.971 48 490.314 48 479 48H372.667C361.353 48 355.696 48 352.181 44.4853C348.667 40.9706 348.667 35.3137 348.667 24Z" fill="#4F46E5"/>
<path d="M389.056 30V28.4H392.272C392.837 28.4 393.274 28.224 393.584 27.872C393.893 27.52 394.048 27.1147 394.048 26.656C394.048 26.3467 393.978 26.0587 393.84 25.792C393.701 25.5253 393.498 25.312 393.232 25.152C392.965 24.992 392.645 24.912 392.272 24.912H389.056V23.312H392C392.48 23.312 392.864 23.1893 393.152 22.944C393.44 22.6987 393.584 22.336 393.584 21.856C393.584 21.376 393.44 21.0133 393.152 20.768C392.864 20.5227 392.48 20.4 392 20.4H389.056V18.8H392.048C392.805 18.8 393.434 18.9387 393.936 19.216C394.437 19.4933 394.81 19.8507 395.056 20.288C395.301 20.7253 395.424 21.1947 395.424 21.696C395.424 22.2827 395.258 22.8 394.928 23.248C394.608 23.696 394.133 24.0587 393.504 24.336L393.648 23.76C394.352 24.048 394.901 24.4533 395.296 24.976C395.69 25.4987 395.888 26.112 395.888 26.816C395.888 27.392 395.744 27.92 395.456 28.4C395.178 28.88 394.762 29.2693 394.208 29.568C393.664 29.856 392.992 30 392.192 30H389.056ZM387.792 30V18.8H389.632V30H387.792ZM400.657 30.16C400.006 30.16 399.425 30.016 398.913 29.728C398.411 29.44 398.017 29.0453 397.729 28.544C397.451 28.032 397.313 27.4453 397.313 26.784V22.32H399.073V26.704C399.073 27.0773 399.131 27.3973 399.249 27.664C399.377 27.92 399.558 28.1173 399.793 28.256C400.038 28.3947 400.326 28.464 400.657 28.464C401.169 28.464 401.558 28.3147 401.825 28.016C402.102 27.7067 402.241 27.2693 402.241 26.704V22.32H404.001V26.784C404.001 27.456 403.857 28.048 403.569 28.56C403.291 29.0613 402.902 29.456 402.401 29.744C401.899 30.0213 401.318 30.16 400.657 30.16ZM406.938 30V19.12H408.698V30H406.938ZM405.098 23.92V22.32H415.178V23.92H405.098ZM411.578 30V19.12H413.338V30H411.578ZM419.759 30.16C419.012 30.16 418.335 29.984 417.727 29.632C417.119 29.2693 416.634 28.784 416.271 28.176C415.919 27.568 415.743 26.8907 415.743 26.144C415.743 25.3973 415.919 24.7253 416.271 24.128C416.634 23.5307 417.119 23.056 417.727 22.704C418.335 22.3413 419.012 22.16 419.759 22.16C420.516 22.16 421.199 22.336 421.807 22.688C422.415 23.04 422.895 23.52 423.247 24.128C423.61 24.7253 423.791 25.3973 423.791 26.144C423.791 26.8907 423.61 27.568 423.247 28.176C422.895 28.784 422.415 29.2693 421.807 29.632C421.199 29.984 420.516 30.16 419.759 30.16ZM419.759 28.464C420.196 28.464 420.58 28.368 420.911 28.176C421.252 27.9733 421.514 27.696 421.695 27.344C421.887 26.992 421.983 26.592 421.983 26.144C421.983 25.696 421.887 25.3013 421.695 24.96C421.503 24.6187 421.242 24.352 420.911 24.16C420.58 23.9573 420.196 23.856 419.759 23.856C419.332 23.856 418.948 23.9573 418.607 24.16C418.276 24.352 418.015 24.6187 417.823 24.96C417.642 25.3013 417.551 25.696 417.551 26.144C417.551 26.592 417.642 26.992 417.823 27.344C418.015 27.696 418.276 27.9733 418.607 28.176C418.948 28.368 419.332 28.464 419.759 28.464ZM430.519 30V25.568C430.519 25.056 430.353 24.6347 430.023 24.304C429.703 23.9733 429.287 23.808 428.775 23.808C428.433 23.808 428.129 23.8827 427.863 24.032C427.596 24.1813 427.388 24.3893 427.239 24.656C427.089 24.9227 427.015 25.2267 427.015 25.568L426.327 25.184C426.327 24.5973 426.455 24.08 426.711 23.632C426.967 23.1733 427.319 22.816 427.767 22.56C428.225 22.2933 428.737 22.16 429.303 22.16C429.879 22.16 430.391 22.3093 430.839 22.608C431.287 22.896 431.639 23.2747 431.895 23.744C432.151 24.2027 432.279 24.6827 432.279 25.184V30H430.519ZM425.255 30V22.32H427.015V30H425.255Z" fill="white"/>
<path d="M453.333 13.875C451.331 13.875 449.373 14.4688 447.708 15.5814C446.043 16.6939 444.745 18.2752 443.979 20.1253C443.213 21.9754 443.012 24.0112 443.403 25.9753C443.794 27.9393 444.758 29.7435 446.174 31.1595C447.59 32.5755 449.394 33.5398 451.358 33.9305C453.322 34.3211 455.358 34.1206 457.208 33.3543C459.058 32.5879 460.639 31.2902 461.752 29.6251C462.865 27.9601 463.458 26.0025 463.458 24C463.455 21.3156 462.388 18.742 460.49 16.8438C458.591 14.9457 456.018 13.878 453.333 13.875ZM453.333 31.875C451.776 31.875 450.253 31.4131 448.958 30.5478C447.663 29.6825 446.654 28.4526 446.058 27.0136C445.462 25.5747 445.306 23.9913 445.61 22.4637C445.914 20.9361 446.664 19.5329 447.765 18.4315C448.866 17.3302 450.269 16.5802 451.797 16.2763C453.325 15.9725 454.908 16.1284 456.347 16.7244C457.786 17.3205 459.016 18.3298 459.881 19.6249C460.747 20.9199 461.208 22.4425 461.208 24C461.206 26.0879 460.376 28.0896 458.899 29.566C457.423 31.0424 455.421 31.8728 453.333 31.875ZM457.879 23.2041C457.984 23.3086 458.067 23.4328 458.124 23.5695C458.181 23.7063 458.21 23.8529 458.21 24.0009C458.21 24.149 458.181 24.2956 458.124 24.4324C458.067 24.5691 457.984 24.6933 457.879 24.7978L454.879 27.7978C454.775 27.9025 454.65 27.9855 454.514 28.0421C454.377 28.0987 454.23 28.1279 454.082 28.1279C453.934 28.1279 453.788 28.0987 453.651 28.0421C453.514 27.9855 453.39 27.9025 453.286 27.7978C453.181 27.6932 453.098 27.5689 453.041 27.4322C452.985 27.2955 452.955 27.1489 452.955 27.0009C452.955 26.8529 452.985 26.7064 453.041 26.5697C453.098 26.4329 453.181 26.3087 453.286 26.2041L454.365 25.125H449.583C449.285 25.125 448.999 25.0065 448.788 24.7955C448.577 24.5845 448.458 24.2984 448.458 24C448.458 23.7016 448.577 23.4155 448.788 23.2045C448.999 22.9935 449.285 22.875 449.583 22.875H454.365L453.285 21.7959C453.18 21.6913 453.097 21.5671 453.04 21.4303C452.984 21.2936 452.955 21.1471 452.955 20.9991C452.955 20.8511 452.984 20.7045 453.04 20.5678C453.097 20.4311 453.18 20.3068 453.285 20.2022C453.389 20.0975 453.514 20.0145 453.65 19.9579C453.787 19.9013 453.934 19.8721 454.082 19.8721C454.229 19.8721 454.376 19.9013 454.513 19.9579C454.649 20.0145 454.774 20.0975 454.878 20.2022L457.879 23.2041Z" fill="white"/>
<path d="M348.667 92C348.667 80.6863 348.667 75.0294 352.181 71.5147C355.696 68 361.353 68 372.667 68H479C490.314 68 495.971 68 499.485 71.5147C503 75.0294 503 80.6863 503 92C503 103.314 503 108.971 499.485 112.485C495.971 116 490.314 116 479 116H372.667C361.353 116 355.696 116 352.181 112.485C348.667 108.971 348.667 103.314 348.667 92Z" fill="#F1F2F4"/>
<path d="M389.056 98V96.4H392.272C392.837 96.4 393.274 96.224 393.584 95.872C393.893 95.52 394.048 95.1147 394.048 94.656C394.048 94.3467 393.978 94.0587 393.84 93.792C393.701 93.5253 393.498 93.312 393.232 93.152C392.965 92.992 392.645 92.912 392.272 92.912H389.056V91.312H392C392.48 91.312 392.864 91.1893 393.152 90.944C393.44 90.6987 393.584 90.336 393.584 89.856C393.584 89.376 393.44 89.0133 393.152 88.768C392.864 88.5227 392.48 88.4 392 88.4H389.056V86.8H392.048C392.805 86.8 393.434 86.9387 393.936 87.216C394.437 87.4933 394.81 87.8507 395.056 88.288C395.301 88.7253 395.424 89.1947 395.424 89.696C395.424 90.2827 395.258 90.8 394.928 91.248C394.608 91.696 394.133 92.0587 393.504 92.336L393.648 91.76C394.352 92.048 394.901 92.4533 395.296 92.976C395.69 93.4987 395.888 94.112 395.888 94.816C395.888 95.392 395.744 95.92 395.456 96.4C395.178 96.88 394.762 97.2693 394.208 97.568C393.664 97.856 392.992 98 392.192 98H389.056ZM387.792 98V86.8H389.632V98H387.792ZM400.657 98.16C400.006 98.16 399.425 98.016 398.913 97.728C398.411 97.44 398.017 97.0453 397.729 96.544C397.451 96.032 397.313 95.4453 397.313 94.784V90.32H399.073V94.704C399.073 95.0773 399.131 95.3973 399.249 95.664C399.377 95.92 399.558 96.1173 399.793 96.256C400.038 96.3947 400.326 96.464 400.657 96.464C401.169 96.464 401.558 96.3147 401.825 96.016C402.102 95.7067 402.241 95.2693 402.241 94.704V90.32H404.001V94.784C404.001 95.456 403.857 96.048 403.569 96.56C403.291 97.0613 402.902 97.456 402.401 97.744C401.899 98.0213 401.318 98.16 400.657 98.16ZM406.938 98V87.12H408.698V98H406.938ZM405.098 91.92V90.32H415.178V91.92H405.098ZM411.578 98V87.12H413.338V98H411.578ZM419.759 98.16C419.012 98.16 418.335 97.984 417.727 97.632C417.119 97.2693 416.634 96.784 416.271 96.176C415.919 95.568 415.743 94.8907 415.743 94.144C415.743 93.3973 415.919 92.7253 416.271 92.128C416.634 91.5307 417.119 91.056 417.727 90.704C418.335 90.3413 419.012 90.16 419.759 90.16C420.516 90.16 421.199 90.336 421.807 90.688C422.415 91.04 422.895 91.52 423.247 92.128C423.61 92.7253 423.791 93.3973 423.791 94.144C423.791 94.8907 423.61 95.568 423.247 96.176C422.895 96.784 422.415 97.2693 421.807 97.632C421.199 97.984 420.516 98.16 419.759 98.16ZM419.759 96.464C420.196 96.464 420.58 96.368 420.911 96.176C421.252 95.9733 421.514 95.696 421.695 95.344C421.887 94.992 421.983 94.592 421.983 94.144C421.983 93.696 421.887 93.3013 421.695 92.96C421.503 92.6187 421.242 92.352 420.911 92.16C420.58 91.9573 420.196 91.856 419.759 91.856C419.332 91.856 418.948 91.9573 418.607 92.16C418.276 92.352 418.015 92.6187 417.823 92.96C417.642 93.3013 417.551 93.696 417.551 94.144C417.551 94.592 417.642 94.992 417.823 95.344C418.015 95.696 418.276 95.9733 418.607 96.176C418.948 96.368 419.332 96.464 419.759 96.464ZM430.519 98V93.568C430.519 93.056 430.353 92.6347 430.023 92.304C429.703 91.9733 429.287 91.808 428.775 91.808C428.433 91.808 428.129 91.8827 427.863 92.032C427.596 92.1813 427.388 92.3893 427.239 92.656C427.089 92.9227 427.015 93.2267 427.015 93.568L426.327 93.184C426.327 92.5973 426.455 92.08 426.711 91.632C426.967 91.1733 427.319 90.816 427.767 90.56C428.225 90.2933 428.737 90.16 429.303 90.16C429.879 90.16 430.391 90.3093 430.839 90.608C431.287 90.896 431.639 91.2747 431.895 91.744C432.151 92.2027 432.279 92.6827 432.279 93.184V98H430.519ZM425.255 98V90.32H427.015V98H425.255Z" fill="#2A2C35"/>
<path d="M453.333 81.875C451.331 81.875 449.373 82.4688 447.708 83.5814C446.043 84.6939 444.745 86.2752 443.979 88.1253C443.213 89.9754 443.012 92.0112 443.403 93.9753C443.794 95.9393 444.758 97.7435 446.174 99.1595C447.59 100.575 449.394 101.54 451.358 101.93C453.322 102.321 455.358 102.121 457.208 101.354C459.058 100.588 460.639 99.2902 461.752 97.6251C462.865 95.9601 463.458 94.0025 463.458 92C463.455 89.3156 462.388 86.742 460.49 84.8438C458.591 82.9457 456.018 81.878 453.333 81.875ZM453.333 99.875C451.776 99.875 450.253 99.4131 448.958 98.5478C447.663 97.6825 446.654 96.4526 446.058 95.0136C445.462 93.5747 445.306 91.9913 445.61 90.4637C445.914 88.9361 446.664 87.5329 447.765 86.4315C448.866 85.3302 450.269 84.5802 451.797 84.2763C453.325 83.9725 454.908 84.1284 456.347 84.7244C457.786 85.3205 459.016 86.3298 459.881 87.6249C460.747 88.9199 461.208 90.4425 461.208 92C461.206 94.0879 460.376 96.0896 458.899 97.566C457.423 99.0424 455.421 99.8728 453.333 99.875ZM457.879 91.2041C457.984 91.3086 458.067 91.4328 458.124 91.5695C458.181 91.7063 458.21 91.8529 458.21 92.0009C458.21 92.149 458.181 92.2956 458.124 92.4324C458.067 92.5691 457.984 92.6933 457.879 92.7978L454.879 95.7978C454.775 95.9025 454.65 95.9855 454.514 96.0421C454.377 96.0987 454.23 96.1279 454.082 96.1279C453.934 96.1279 453.788 96.0987 453.651 96.0421C453.514 95.9855 453.39 95.9025 453.286 95.7978C453.181 95.6932 453.098 95.5689 453.041 95.4322C452.985 95.2955 452.955 95.1489 452.955 95.0009C452.955 94.8529 452.985 94.7064 453.041 94.5697C453.098 94.4329 453.181 94.3087 453.286 94.2041L454.365 93.125H449.583C449.285 93.125 448.999 93.0065 448.788 92.7955C448.577 92.5845 448.458 92.2984 448.458 92C448.458 91.7016 448.577 91.4155 448.788 91.2045C448.999 90.9935 449.285 90.875 449.583 90.875H454.365L453.285 89.7959C453.18 89.6913 453.097 89.5671 453.04 89.4303C452.984 89.2936 452.955 89.1471 452.955 88.9991C452.955 88.8511 452.984 88.7045 453.04 88.5678C453.097 88.4311 453.18 88.3068 453.285 88.2022C453.389 88.0975 453.514 88.0145 453.65 87.9579C453.787 87.9013 453.934 87.8721 454.082 87.8721C454.229 87.8721 454.376 87.9013 454.513 87.9579C454.649 88.0145 454.774 88.0975 454.878 88.2022L457.879 91.2041Z" fill="#2A2C35"/>
<path d="M348.667 160C348.667 148.686 348.667 143.029 352.181 139.515C355.696 136 361.353 136 372.667 136H479C490.314 136 495.971 136 499.485 139.515C503 143.029 503 148.686 503 160C503 171.314 503 176.971 499.485 180.485C495.971 184 490.314 184 479 184H372.667C361.353 184 355.696 184 352.181 180.485C348.667 176.971 348.667 171.314 348.667 160Z" fill="#E1172F"/>
<path d="M389.056 166V164.4H392.272C392.837 164.4 393.274 164.224 393.584 163.872C393.893 163.52 394.048 163.115 394.048 162.656C394.048 162.347 393.978 162.059 393.84 161.792C393.701 161.525 393.498 161.312 393.232 161.152C392.965 160.992 392.645 160.912 392.272 160.912H389.056V159.312H392C392.48 159.312 392.864 159.189 393.152 158.944C393.44 158.699 393.584 158.336 393.584 157.856C393.584 157.376 393.44 157.013 393.152 156.768C392.864 156.523 392.48 156.4 392 156.4H389.056V154.8H392.048C392.805 154.8 393.434 154.939 393.936 155.216C394.437 155.493 394.81 155.851 395.056 156.288C395.301 156.725 395.424 157.195 395.424 157.696C395.424 158.283 395.258 158.8 394.928 159.248C394.608 159.696 394.133 160.059 393.504 160.336L393.648 159.76C394.352 160.048 394.901 160.453 395.296 160.976C395.69 161.499 395.888 162.112 395.888 162.816C395.888 163.392 395.744 163.92 395.456 164.4C395.178 164.88 394.762 165.269 394.208 165.568C393.664 165.856 392.992 166 392.192 166H389.056ZM387.792 166V154.8H389.632V166H387.792ZM400.657 166.16C400.006 166.16 399.425 166.016 398.913 165.728C398.411 165.44 398.017 165.045 397.729 164.544C397.451 164.032 397.313 163.445 397.313 162.784V158.32H399.073V162.704C399.073 163.077 399.131 163.397 399.249 163.664C399.377 163.92 399.558 164.117 399.793 164.256C400.038 164.395 400.326 164.464 400.657 164.464C401.169 164.464 401.558 164.315 401.825 164.016C402.102 163.707 402.241 163.269 402.241 162.704V158.32H404.001V162.784C404.001 163.456 403.857 164.048 403.569 164.56C403.291 165.061 402.902 165.456 402.401 165.744C401.899 166.021 401.318 166.16 400.657 166.16ZM406.938 166V155.12H408.698V166H406.938ZM405.098 159.92V158.32H415.178V159.92H405.098ZM411.578 166V155.12H413.338V166H411.578ZM419.759 166.16C419.012 166.16 418.335 165.984 417.727 165.632C417.119 165.269 416.634 164.784 416.271 164.176C415.919 163.568 415.743 162.891 415.743 162.144C415.743 161.397 415.919 160.725 416.271 160.128C416.634 159.531 417.119 159.056 417.727 158.704C418.335 158.341 419.012 158.16 419.759 158.16C420.516 158.16 421.199 158.336 421.807 158.688C422.415 159.04 422.895 159.52 423.247 160.128C423.61 160.725 423.791 161.397 423.791 162.144C423.791 162.891 423.61 163.568 423.247 164.176C422.895 164.784 422.415 165.269 421.807 165.632C421.199 165.984 420.516 166.16 419.759 166.16ZM419.759 164.464C420.196 164.464 420.58 164.368 420.911 164.176C421.252 163.973 421.514 163.696 421.695 163.344C421.887 162.992 421.983 162.592 421.983 162.144C421.983 161.696 421.887 161.301 421.695 160.96C421.503 160.619 421.242 160.352 420.911 160.16C420.58 159.957 420.196 159.856 419.759 159.856C419.332 159.856 418.948 159.957 418.607 160.16C418.276 160.352 418.015 160.619 417.823 160.96C417.642 161.301 417.551 161.696 417.551 162.144C417.551 162.592 417.642 162.992 417.823 163.344C418.015 163.696 418.276 163.973 418.607 164.176C418.948 164.368 419.332 164.464 419.759 164.464ZM430.519 166V161.568C430.519 161.056 430.353 160.635 430.023 160.304C429.703 159.973 429.287 159.808 428.775 159.808C428.433 159.808 428.129 159.883 427.863 160.032C427.596 160.181 427.388 160.389 427.239 160.656C427.089 160.923 427.015 161.227 427.015 161.568L426.327 161.184C426.327 160.597 426.455 160.08 426.711 159.632C426.967 159.173 427.319 158.816 427.767 158.56C428.225 158.293 428.737 158.16 429.303 158.16C429.879 158.16 430.391 158.309 430.839 158.608C431.287 158.896 431.639 159.275 431.895 159.744C432.151 160.203 432.279 160.683 432.279 161.184V166H430.519ZM425.255 166V158.32H427.015V166H425.255Z" fill="white"/>
<path d="M453.333 149.875C451.331 149.875 449.373 150.469 447.708 151.581C446.043 152.694 444.745 154.275 443.979 156.125C443.213 157.975 443.012 160.011 443.403 161.975C443.794 163.939 444.758 165.743 446.174 167.159C447.59 168.575 449.394 169.54 451.358 169.93C453.322 170.321 455.358 170.121 457.208 169.354C459.058 168.588 460.639 167.29 461.752 165.625C462.865 163.96 463.458 162.003 463.458 160C463.455 157.316 462.388 154.742 460.49 152.844C458.591 150.946 456.018 149.878 453.333 149.875ZM453.333 167.875C451.776 167.875 450.253 167.413 448.958 166.548C447.663 165.683 446.654 164.453 446.058 163.014C445.462 161.575 445.306 159.991 445.61 158.464C445.914 156.936 446.664 155.533 447.765 154.432C448.866 153.33 450.269 152.58 451.797 152.276C453.325 151.972 454.908 152.128 456.347 152.724C457.786 153.32 459.016 154.33 459.881 155.625C460.747 156.92 461.208 158.442 461.208 160C461.206 162.088 460.376 164.09 458.899 165.566C457.423 167.042 455.421 167.873 453.333 167.875ZM457.879 159.204C457.984 159.309 458.067 159.433 458.124 159.57C458.181 159.706 458.21 159.853 458.21 160.001C458.21 160.149 458.181 160.296 458.124 160.432C458.067 160.569 457.984 160.693 457.879 160.798L454.879 163.798C454.775 163.902 454.65 163.985 454.514 164.042C454.377 164.099 454.23 164.128 454.082 164.128C453.934 164.128 453.788 164.099 453.651 164.042C453.514 163.985 453.39 163.902 453.286 163.798C453.181 163.693 453.098 163.569 453.041 163.432C452.985 163.295 452.955 163.149 452.955 163.001C452.955 162.853 452.985 162.706 453.041 162.57C453.098 162.433 453.181 162.309 453.286 162.204L454.365 161.125H449.583C449.285 161.125 448.999 161.006 448.788 160.795C448.577 160.585 448.458 160.298 448.458 160C448.458 159.702 448.577 159.415 448.788 159.205C448.999 158.994 449.285 158.875 449.583 158.875H454.365L453.285 157.796C453.18 157.691 453.097 157.567 453.04 157.43C452.984 157.294 452.955 157.147 452.955 156.999C452.955 156.851 452.984 156.705 453.04 156.568C453.097 156.431 453.18 156.307 453.285 156.202C453.389 156.098 453.514 156.015 453.65 155.958C453.787 155.901 453.934 155.872 454.082 155.872C454.229 155.872 454.376 155.901 454.513 155.958C454.649 156.015 454.774 156.098 454.878 156.202L457.879 159.204Z" fill="white"/>
<mask id="path-37-inside-3_4924_34935" fill="white">
<path d="M348.667 228C348.667 216.686 348.667 211.029 352.181 207.515C355.696 204 361.353 204 372.667 204H479C490.314 204 495.971 204 499.485 207.515C503 211.029 503 216.686 503 228C503 239.314 503 244.971 499.485 248.485C495.971 252 490.314 252 479 252H372.667C361.353 252 355.696 252 352.181 248.485C348.667 244.971 348.667 239.314 348.667 228Z"/>
</mask>
<path d="M352.181 248.485L350.767 249.899L352.181 248.485ZM499.485 248.485L500.9 249.899L499.485 248.485ZM499.485 207.515L500.9 206.101L499.485 207.515ZM352.181 207.515L350.767 206.101L352.181 207.515ZM372.667 204V206H479V204V202H372.667V204ZM479 252V250H372.667V252V254H479V252ZM372.667 252V250C366.953 250 362.869 249.996 359.766 249.578C356.72 249.169 354.92 248.395 353.596 247.071L352.181 248.485L350.767 249.899C352.958 252.09 355.743 253.074 359.233 253.543C362.665 254.004 367.066 254 372.667 254V252ZM348.667 228H346.667C346.667 233.6 346.663 238.002 347.124 241.434C347.593 244.923 348.576 247.709 350.767 249.899L352.181 248.485L353.596 247.071C352.272 245.747 351.498 243.947 351.088 240.901C350.671 237.797 350.667 233.713 350.667 228H348.667ZM503 228H501C501 233.713 500.996 237.797 500.579 240.901C500.169 243.947 499.395 245.747 498.071 247.071L499.485 248.485L500.9 249.899C503.09 247.709 504.074 244.923 504.543 241.434C505.004 238.002 505 233.6 505 228H503ZM479 252V254C484.6 254 489.002 254.004 492.434 253.543C495.923 253.074 498.709 252.09 500.9 249.899L499.485 248.485L498.071 247.071C496.747 248.395 494.947 249.169 491.901 249.578C488.797 249.996 484.713 250 479 250V252ZM479 204V206C484.714 206 488.797 206.004 491.901 206.422C494.947 206.831 496.747 207.605 498.071 208.929L499.485 207.515L500.9 206.101C498.709 203.91 495.923 202.926 492.434 202.457C489.002 201.996 484.6 202 479 202V204ZM503 228H505C505 222.4 505.004 217.998 504.543 214.566C504.074 211.077 503.09 208.291 500.9 206.101L499.485 207.515L498.071 208.929C499.395 210.253 500.169 212.053 500.579 215.099C500.996 218.203 501 222.287 501 228H503ZM372.667 204V202C367.066 202 362.665 201.996 359.233 202.457C355.743 202.926 352.958 203.91 350.767 206.101L352.181 207.515L353.596 208.929C354.92 207.605 356.72 206.831 359.766 206.422C362.87 206.004 366.953 206 372.667 206V204ZM348.667 228H350.667C350.667 222.287 350.671 218.203 351.088 215.099C351.498 212.053 352.272 210.253 353.596 208.929L352.181 207.515L350.767 206.101C348.576 208.291 347.593 211.077 347.124 214.566C346.663 217.998 346.667 222.4 346.667 228H348.667Z" fill="#4F46E5" mask="url(#path-37-inside-3_4924_34935)"/>
<path d="M389.056 234V232.4H392.272C392.837 232.4 393.274 232.224 393.584 231.872C393.893 231.52 394.048 231.115 394.048 230.656C394.048 230.347 393.978 230.059 393.84 229.792C393.701 229.525 393.498 229.312 393.232 229.152C392.965 228.992 392.645 228.912 392.272 228.912H389.056V227.312H392C392.48 227.312 392.864 227.189 393.152 226.944C393.44 226.699 393.584 226.336 393.584 225.856C393.584 225.376 393.44 225.013 393.152 224.768C392.864 224.523 392.48 224.4 392 224.4H389.056V222.8H392.048C392.805 222.8 393.434 222.939 393.936 223.216C394.437 223.493 394.81 223.851 395.056 224.288C395.301 224.725 395.424 225.195 395.424 225.696C395.424 226.283 395.258 226.8 394.928 227.248C394.608 227.696 394.133 228.059 393.504 228.336L393.648 227.76C394.352 228.048 394.901 228.453 395.296 228.976C395.69 229.499 395.888 230.112 395.888 230.816C395.888 231.392 395.744 231.92 395.456 232.4C395.178 232.88 394.762 233.269 394.208 233.568C393.664 233.856 392.992 234 392.192 234H389.056ZM387.792 234V222.8H389.632V234H387.792ZM400.657 234.16C400.006 234.16 399.425 234.016 398.913 233.728C398.411 233.44 398.017 233.045 397.729 232.544C397.451 232.032 397.313 231.445 397.313 230.784V226.32H399.073V230.704C399.073 231.077 399.131 231.397 399.249 231.664C399.377 231.92 399.558 232.117 399.793 232.256C400.038 232.395 400.326 232.464 400.657 232.464C401.169 232.464 401.558 232.315 401.825 232.016C402.102 231.707 402.241 231.269 402.241 230.704V226.32H404.001V230.784C404.001 231.456 403.857 232.048 403.569 232.56C403.291 233.061 402.902 233.456 402.401 233.744C401.899 234.021 401.318 234.16 400.657 234.16ZM406.938 234V223.12H408.698V234H406.938ZM405.098 227.92V226.32H415.178V227.92H405.098ZM411.578 234V223.12H413.338V234H411.578ZM419.759 234.16C419.012 234.16 418.335 233.984 417.727 233.632C417.119 233.269 416.634 232.784 416.271 232.176C415.919 231.568 415.743 230.891 415.743 230.144C415.743 229.397 415.919 228.725 416.271 228.128C416.634 227.531 417.119 227.056 417.727 226.704C418.335 226.341 419.012 226.16 419.759 226.16C420.516 226.16 421.199 226.336 421.807 226.688C422.415 227.04 422.895 227.52 423.247 228.128C423.61 228.725 423.791 229.397 423.791 230.144C423.791 230.891 423.61 231.568 423.247 232.176C422.895 232.784 422.415 233.269 421.807 233.632C421.199 233.984 420.516 234.16 419.759 234.16ZM419.759 232.464C420.196 232.464 420.58 232.368 420.911 232.176C421.252 231.973 421.514 231.696 421.695 231.344C421.887 230.992 421.983 230.592 421.983 230.144C421.983 229.696 421.887 229.301 421.695 228.96C421.503 228.619 421.242 228.352 420.911 228.16C420.58 227.957 420.196 227.856 419.759 227.856C419.332 227.856 418.948 227.957 418.607 228.16C418.276 228.352 418.015 228.619 417.823 228.96C417.642 229.301 417.551 229.696 417.551 230.144C417.551 230.592 417.642 230.992 417.823 231.344C418.015 231.696 418.276 231.973 418.607 232.176C418.948 232.368 419.332 232.464 419.759 232.464ZM430.519 234V229.568C430.519 229.056 430.353 228.635 430.023 228.304C429.703 227.973 429.287 227.808 428.775 227.808C428.433 227.808 428.129 227.883 427.863 228.032C427.596 228.181 427.388 228.389 427.239 228.656C427.089 228.923 427.015 229.227 427.015 229.568L426.327 229.184C426.327 228.597 426.455 228.08 426.711 227.632C426.967 227.173 427.319 226.816 427.767 226.56C428.225 226.293 428.737 226.16 429.303 226.16C429.879 226.16 430.391 226.309 430.839 226.608C431.287 226.896 431.639 227.275 431.895 227.744C432.151 228.203 432.279 228.683 432.279 229.184V234H430.519ZM425.255 234V226.32H427.015V234H425.255Z" fill="#4F46E5"/>
<path d="M453.333 217.875C451.331 217.875 449.373 218.469 447.708 219.581C446.043 220.694 444.745 222.275 443.979 224.125C443.213 225.975 443.012 228.011 443.403 229.975C443.794 231.939 444.758 233.743 446.174 235.159C447.59 236.575 449.394 237.54 451.358 237.93C453.322 238.321 455.358 238.121 457.208 237.354C459.058 236.588 460.639 235.29 461.752 233.625C462.865 231.96 463.458 230.003 463.458 228C463.455 225.316 462.388 222.742 460.49 220.844C458.591 218.946 456.018 217.878 453.333 217.875ZM453.333 235.875C451.776 235.875 450.253 235.413 448.958 234.548C447.663 233.683 446.654 232.453 446.058 231.014C445.462 229.575 445.306 227.991 445.61 226.464C445.914 224.936 446.664 223.533 447.765 222.432C448.866 221.33 450.269 220.58 451.797 220.276C453.325 219.972 454.908 220.128 456.347 220.724C457.786 221.32 459.016 222.33 459.881 223.625C460.747 224.92 461.208 226.442 461.208 228C461.206 230.088 460.376 232.09 458.899 233.566C457.423 235.042 455.421 235.873 453.333 235.875ZM457.879 227.204C457.984 227.309 458.067 227.433 458.124 227.57C458.181 227.706 458.21 227.853 458.21 228.001C458.21 228.149 458.181 228.296 458.124 228.432C458.067 228.569 457.984 228.693 457.879 228.798L454.879 231.798C454.775 231.902 454.65 231.985 454.514 232.042C454.377 232.099 454.23 232.128 454.082 232.128C453.934 232.128 453.788 232.099 453.651 232.042C453.514 231.985 453.39 231.902 453.286 231.798C453.181 231.693 453.098 231.569 453.041 231.432C452.985 231.295 452.955 231.149 452.955 231.001C452.955 230.853 452.985 230.706 453.041 230.57C453.098 230.433 453.181 230.309 453.286 230.204L454.365 229.125H449.583C449.285 229.125 448.999 229.006 448.788 228.795C448.577 228.585 448.458 228.298 448.458 228C448.458 227.702 448.577 227.415 448.788 227.205C448.999 226.994 449.285 226.875 449.583 226.875H454.365L453.285 225.796C453.18 225.691 453.097 225.567 453.04 225.43C452.984 225.294 452.955 225.147 452.955 224.999C452.955 224.851 452.984 224.705 453.04 224.568C453.097 224.431 453.18 224.307 453.285 224.202C453.389 224.098 453.514 224.015 453.65 223.958C453.787 223.901 453.934 223.872 454.082 223.872C454.229 223.872 454.376 223.901 454.513 223.958C454.649 224.015 454.774 224.098 454.878 224.202L457.879 227.204Z" fill="#4F46E5"/>
<path d="M389.056 302V300.4H392.272C392.837 300.4 393.274 300.224 393.584 299.872C393.893 299.52 394.048 299.115 394.048 298.656C394.048 298.347 393.978 298.059 393.84 297.792C393.701 297.525 393.498 297.312 393.232 297.152C392.965 296.992 392.645 296.912 392.272 296.912H389.056V295.312H392C392.48 295.312 392.864 295.189 393.152 294.944C393.44 294.699 393.584 294.336 393.584 293.856C393.584 293.376 393.44 293.013 393.152 292.768C392.864 292.523 392.48 292.4 392 292.4H389.056V290.8H392.048C392.805 290.8 393.434 290.939 393.936 291.216C394.437 291.493 394.81 291.851 395.056 292.288C395.301 292.725 395.424 293.195 395.424 293.696C395.424 294.283 395.258 294.8 394.928 295.248C394.608 295.696 394.133 296.059 393.504 296.336L393.648 295.76C394.352 296.048 394.901 296.453 395.296 296.976C395.69 297.499 395.888 298.112 395.888 298.816C395.888 299.392 395.744 299.92 395.456 300.4C395.178 300.88 394.762 301.269 394.208 301.568C393.664 301.856 392.992 302 392.192 302H389.056ZM387.792 302V290.8H389.632V302H387.792ZM400.657 302.16C400.006 302.16 399.425 302.016 398.913 301.728C398.411 301.44 398.017 301.045 397.729 300.544C397.451 300.032 397.313 299.445 397.313 298.784V294.32H399.073V298.704C399.073 299.077 399.131 299.397 399.249 299.664C399.377 299.92 399.558 300.117 399.793 300.256C400.038 300.395 400.326 300.464 400.657 300.464C401.169 300.464 401.558 300.315 401.825 300.016C402.102 299.707 402.241 299.269 402.241 298.704V294.32H404.001V298.784C404.001 299.456 403.857 300.048 403.569 300.56C403.291 301.061 402.902 301.456 402.401 301.744C401.899 302.021 401.318 302.16 400.657 302.16ZM406.938 302V291.12H408.698V302H406.938ZM405.098 295.92V294.32H415.178V295.92H405.098ZM411.578 302V291.12H413.338V302H411.578ZM419.759 302.16C419.012 302.16 418.335 301.984 417.727 301.632C417.119 301.269 416.634 300.784 416.271 300.176C415.919 299.568 415.743 298.891 415.743 298.144C415.743 297.397 415.919 296.725 416.271 296.128C416.634 295.531 417.119 295.056 417.727 294.704C418.335 294.341 419.012 294.16 419.759 294.16C420.516 294.16 421.199 294.336 421.807 294.688C422.415 295.04 422.895 295.52 423.247 296.128C423.61 296.725 423.791 297.397 423.791 298.144C423.791 298.891 423.61 299.568 423.247 300.176C422.895 300.784 422.415 301.269 421.807 301.632C421.199 301.984 420.516 302.16 419.759 302.16ZM419.759 300.464C420.196 300.464 420.58 300.368 420.911 300.176C421.252 299.973 421.514 299.696 421.695 299.344C421.887 298.992 421.983 298.592 421.983 298.144C421.983 297.696 421.887 297.301 421.695 296.96C421.503 296.619 421.242 296.352 420.911 296.16C420.58 295.957 420.196 295.856 419.759 295.856C419.332 295.856 418.948 295.957 418.607 296.16C418.276 296.352 418.015 296.619 417.823 296.96C417.642 297.301 417.551 297.696 417.551 298.144C417.551 298.592 417.642 298.992 417.823 299.344C418.015 299.696 418.276 299.973 418.607 300.176C418.948 300.368 419.332 300.464 419.759 300.464ZM430.519 302V297.568C430.519 297.056 430.353 296.635 430.023 296.304C429.703 295.973 429.287 295.808 428.775 295.808C428.433 295.808 428.129 295.883 427.863 296.032C427.596 296.181 427.388 296.389 427.239 296.656C427.089 296.923 427.015 297.227 427.015 297.568L426.327 297.184C426.327 296.597 426.455 296.08 426.711 295.632C426.967 295.173 427.319 294.816 427.767 294.56C428.225 294.293 428.737 294.16 429.303 294.16C429.879 294.16 430.391 294.309 430.839 294.608C431.287 294.896 431.639 295.275 431.895 295.744C432.151 296.203 432.279 296.683 432.279 297.184V302H430.519ZM425.255 302V294.32H427.015V302H425.255Z" fill="#4F46E5"/>
<path d="M453.333 285.875C451.331 285.875 449.373 286.469 447.708 287.581C446.043 288.694 444.745 290.275 443.979 292.125C443.213 293.975 443.012 296.011 443.403 297.975C443.794 299.939 444.758 301.743 446.174 303.159C447.59 304.575 449.394 305.54 451.358 305.93C453.322 306.321 455.358 306.121 457.208 305.354C459.058 304.588 460.639 303.29 461.752 301.625C462.865 299.96 463.458 298.003 463.458 296C463.455 293.316 462.388 290.742 460.49 288.844C458.591 286.946 456.018 285.878 453.333 285.875ZM453.333 303.875C451.776 303.875 450.253 303.413 448.958 302.548C447.663 301.683 446.654 300.453 446.058 299.014C445.462 297.575 445.306 295.991 445.61 294.464C445.914 292.936 446.664 291.533 447.765 290.432C448.866 289.33 450.269 288.58 451.797 288.276C453.325 287.972 454.908 288.128 456.347 288.724C457.786 289.32 459.016 290.33 459.881 291.625C460.747 292.92 461.208 294.442 461.208 296C461.206 298.088 460.376 300.09 458.899 301.566C457.423 303.042 455.421 303.873 453.333 303.875ZM457.879 295.204C457.984 295.309 458.067 295.433 458.124 295.57C458.181 295.706 458.21 295.853 458.21 296.001C458.21 296.149 458.181 296.296 458.124 296.432C458.067 296.569 457.984 296.693 457.879 296.798L454.879 299.798C454.775 299.902 454.65 299.985 454.514 300.042C454.377 300.099 454.23 300.128 454.082 300.128C453.934 300.128 453.788 300.099 453.651 300.042C453.514 299.985 453.39 299.902 453.286 299.798C453.181 299.693 453.098 299.569 453.041 299.432C452.985 299.295 452.955 299.149 452.955 299.001C452.955 298.853 452.985 298.706 453.041 298.57C453.098 298.433 453.181 298.309 453.286 298.204L454.365 297.125H449.583C449.285 297.125 448.999 297.006 448.788 296.795C448.577 296.585 448.458 296.298 448.458 296C448.458 295.702 448.577 295.415 448.788 295.205C448.999 294.994 449.285 294.875 449.583 294.875H454.365L453.285 293.796C453.18 293.691 453.097 293.567 453.04 293.43C452.984 293.294 452.955 293.147 452.955 292.999C452.955 292.851 452.984 292.705 453.04 292.568C453.097 292.431 453.18 292.307 453.285 292.202C453.389 292.098 453.514 292.015 453.65 291.958C453.787 291.901 453.934 291.872 454.082 291.872C454.229 291.872 454.376 291.901 454.513 291.958C454.649 292.015 454.774 292.098 454.878 292.202L457.879 295.204Z" fill="#4F46E5"/>
<path d="M523 24C523 12.6863 523 7.02944 526.515 3.51472C530.029 0 535.686 0 547 0H548C559.314 0 564.971 0 568.485 3.51472C572 7.02944 572 12.6863 572 24C572 35.3137 572 40.9706 568.485 44.4853C564.971 48 559.314 48 548 48H547C535.686 48 530.029 48 526.515 44.4853C523 40.9706 523 35.3137 523 24Z" fill="#4F46E5"/>
<path d="M547.5 13.875C545.497 13.875 543.54 14.4688 541.875 15.5814C540.21 16.6939 538.912 18.2752 538.146 20.1253C537.379 21.9754 537.179 24.0112 537.57 25.9753C537.96 27.9393 538.925 29.7435 540.341 31.1595C541.757 32.5755 543.561 33.5398 545.525 33.9305C547.489 34.3211 549.525 34.1206 551.375 33.3543C553.225 32.5879 554.806 31.2902 555.919 29.6251C557.031 27.9601 557.625 26.0025 557.625 24C557.622 21.3156 556.554 18.742 554.656 16.8438C552.758 14.9457 550.184 13.878 547.5 13.875ZM547.5 31.875C545.942 31.875 544.42 31.4131 543.125 30.5478C541.83 29.6825 540.82 28.4526 540.224 27.0136C539.628 25.5747 539.472 23.9913 539.776 22.4637C540.08 20.9361 540.83 19.5329 541.932 18.4315C543.033 17.3302 544.436 16.5802 545.964 16.2763C547.491 15.9725 549.075 16.1284 550.514 16.7244C551.953 17.3205 553.183 18.3298 554.048 19.6249C554.913 20.9199 555.375 22.4425 555.375 24C555.373 26.0879 554.542 28.0896 553.066 29.566C551.59 31.0424 549.588 31.8728 547.5 31.875ZM552.046 23.2041C552.151 23.3086 552.234 23.4328 552.291 23.5695C552.348 23.7063 552.377 23.8529 552.377 24.0009C552.377 24.149 552.348 24.2956 552.291 24.4324C552.234 24.5691 552.151 24.6933 552.046 24.7978L549.046 27.7978C548.941 27.9025 548.817 27.9855 548.68 28.0421C548.544 28.0987 548.397 28.1279 548.249 28.1279C548.101 28.1279 547.955 28.0987 547.818 28.0421C547.681 27.9855 547.557 27.9025 547.452 27.7978C547.348 27.6932 547.265 27.5689 547.208 27.4322C547.151 27.2955 547.122 27.1489 547.122 27.0009C547.122 26.8529 547.151 26.7064 547.208 26.5697C547.265 26.4329 547.348 26.3087 547.452 26.2041L548.531 25.125H543.75C543.452 25.125 543.165 25.0065 542.955 24.7955C542.744 24.5845 542.625 24.2984 542.625 24C542.625 23.7016 542.744 23.4155 542.955 23.2045C543.165 22.9935 543.452 22.875 543.75 22.875H548.531L547.451 21.7959C547.347 21.6913 547.264 21.5671 547.207 21.4303C547.15 21.2936 547.121 21.1471 547.121 20.9991C547.121 20.8511 547.15 20.7045 547.207 20.5678C547.264 20.4311 547.347 20.3068 547.451 20.2022C547.556 20.0975 547.68 20.0145 547.817 19.9579C547.954 19.9013 548.1 19.8721 548.248 19.8721C548.396 19.8721 548.543 19.9013 548.679 19.9579C548.816 20.0145 548.94 20.0975 549.045 20.2022L552.046 23.2041Z" fill="white"/>
<path d="M523 92C523 80.6863 523 75.0294 526.515 71.5147C530.029 68 535.686 68 547 68H548C559.314 68 564.971 68 568.485 71.5147C572 75.0294 572 80.6863 572 92C572 103.314 572 108.971 568.485 112.485C564.971 116 559.314 116 548 116H547C535.686 116 530.029 116 526.515 112.485C523 108.971 523 103.314 523 92Z" fill="#F1F2F4"/>
<path d="M547.5 81.875C545.497 81.875 543.54 82.4688 541.875 83.5814C540.21 84.6939 538.912 86.2752 538.146 88.1253C537.379 89.9754 537.179 92.0112 537.57 93.9753C537.96 95.9393 538.925 97.7435 540.341 99.1595C541.757 100.575 543.561 101.54 545.525 101.93C547.489 102.321 549.525 102.121 551.375 101.354C553.225 100.588 554.806 99.2902 555.919 97.6251C557.031 95.9601 557.625 94.0025 557.625 92C557.622 89.3156 556.554 86.742 554.656 84.8438C552.758 82.9457 550.184 81.878 547.5 81.875ZM547.5 99.875C545.942 99.875 544.42 99.4131 543.125 98.5478C541.83 97.6825 540.82 96.4526 540.224 95.0136C539.628 93.5747 539.472 91.9913 539.776 90.4637C540.08 88.9361 540.83 87.5329 541.932 86.4315C543.033 85.3302 544.436 84.5802 545.964 84.2763C547.491 83.9725 549.075 84.1284 550.514 84.7244C551.953 85.3205 553.183 86.3298 554.048 87.6249C554.913 88.9199 555.375 90.4425 555.375 92C555.373 94.0879 554.542 96.0896 553.066 97.566C551.59 99.0424 549.588 99.8728 547.5 99.875ZM552.046 91.2041C552.151 91.3086 552.234 91.4328 552.291 91.5695C552.348 91.7063 552.377 91.8529 552.377 92.0009C552.377 92.149 552.348 92.2956 552.291 92.4324C552.234 92.5691 552.151 92.6933 552.046 92.7978L549.046 95.7978C548.941 95.9025 548.817 95.9855 548.68 96.0421C548.544 96.0987 548.397 96.1279 548.249 96.1279C548.101 96.1279 547.955 96.0987 547.818 96.0421C547.681 95.9855 547.557 95.9025 547.452 95.7978C547.348 95.6932 547.265 95.5689 547.208 95.4322C547.151 95.2955 547.122 95.1489 547.122 95.0009C547.122 94.8529 547.151 94.7064 547.208 94.5697C547.265 94.4329 547.348 94.3087 547.452 94.2041L548.531 93.125H543.75C543.452 93.125 543.165 93.0065 542.955 92.7955C542.744 92.5845 542.625 92.2984 542.625 92C542.625 91.7016 542.744 91.4155 542.955 91.2045C543.165 90.9935 543.452 90.875 543.75 90.875H548.531L547.451 89.7959C547.347 89.6913 547.264 89.5671 547.207 89.4303C547.15 89.2936 547.121 89.1471 547.121 88.9991C547.121 88.8511 547.15 88.7045 547.207 88.5678C547.264 88.4311 547.347 88.3068 547.451 88.2022C547.556 88.0975 547.68 88.0145 547.817 87.9579C547.954 87.9013 548.1 87.8721 548.248 87.8721C548.396 87.8721 548.543 87.9013 548.679 87.9579C548.816 88.0145 548.94 88.0975 549.045 88.2022L552.046 91.2041Z" fill="#2A2C35"/>
<path d="M523 160C523 148.686 523 143.029 526.515 139.515C530.029 136 535.686 136 547 136H548C559.314 136 564.971 136 568.485 139.515C572 143.029 572 148.686 572 160C572 171.314 572 176.971 568.485 180.485C564.971 184 559.314 184 548 184H547C535.686 184 530.029 184 526.515 180.485C523 176.971 523 171.314 523 160Z" fill="#E1172F"/>
<path d="M547.5 149.875C545.497 149.875 543.54 150.469 541.875 151.581C540.21 152.694 538.912 154.275 538.146 156.125C537.379 157.975 537.179 160.011 537.57 161.975C537.96 163.939 538.925 165.743 540.341 167.159C541.757 168.575 543.561 169.54 545.525 169.93C547.489 170.321 549.525 170.121 551.375 169.354C553.225 168.588 554.806 167.29 555.919 165.625C557.031 163.96 557.625 162.003 557.625 160C557.622 157.316 556.554 154.742 554.656 152.844C552.758 150.946 550.184 149.878 547.5 149.875ZM547.5 167.875C545.942 167.875 544.42 167.413 543.125 166.548C541.83 165.683 540.82 164.453 540.224 163.014C539.628 161.575 539.472 159.991 539.776 158.464C540.08 156.936 540.83 155.533 541.932 154.432C543.033 153.33 544.436 152.58 545.964 152.276C547.491 151.972 549.075 152.128 550.514 152.724C551.953 153.32 553.183 154.33 554.048 155.625C554.913 156.92 555.375 158.442 555.375 160C555.373 162.088 554.542 164.09 553.066 165.566C551.59 167.042 549.588 167.873 547.5 167.875ZM552.046 159.204C552.151 159.309 552.234 159.433 552.291 159.57C552.348 159.706 552.377 159.853 552.377 160.001C552.377 160.149 552.348 160.296 552.291 160.432C552.234 160.569 552.151 160.693 552.046 160.798L549.046 163.798C548.941 163.902 548.817 163.985 548.68 164.042C548.544 164.099 548.397 164.128 548.249 164.128C548.101 164.128 547.955 164.099 547.818 164.042C547.681 163.985 547.557 163.902 547.452 163.798C547.348 163.693 547.265 163.569 547.208 163.432C547.151 163.295 547.122 163.149 547.122 163.001C547.122 162.853 547.151 162.706 547.208 162.57C547.265 162.433 547.348 162.309 547.452 162.204L548.531 161.125H543.75C543.452 161.125 543.165 161.006 542.955 160.795C542.744 160.585 542.625 160.298 542.625 160C542.625 159.702 542.744 159.415 542.955 159.205C543.165 158.994 543.452 158.875 543.75 158.875H548.531L547.451 157.796C547.347 157.691 547.264 157.567 547.207 157.43C547.15 157.294 547.121 157.147 547.121 156.999C547.121 156.851 547.15 156.705 547.207 156.568C547.264 156.431 547.347 156.307 547.451 156.202C547.556 156.098 547.68 156.015 547.817 155.958C547.954 155.901 548.1 155.872 548.248 155.872C548.396 155.872 548.543 155.901 548.679 155.958C548.816 156.015 548.94 156.098 549.045 156.202L552.046 159.204Z" fill="white"/>
<mask id="path-50-inside-4_4924_34935" fill="white">
<path d="M523.5 228C523.5 216.686 523.5 211.029 527.015 207.515C530.529 204 536.186 204 547.5 204C558.814 204 564.471 204 567.985 207.515C571.5 211.029 571.5 216.686 571.5 228C571.5 239.314 571.5 244.971 567.985 248.485C564.471 252 558.814 252 547.5 252C536.186 252 530.529 252 527.015 248.485C523.5 244.971 523.5 239.314 523.5 228Z"/>
</mask>
<path d="M527.015 248.485L525.601 249.899L527.015 248.485ZM567.985 248.485L566.571 247.071L567.985 248.485ZM567.985 207.515L569.399 206.101L567.985 207.515ZM527.015 207.515L525.601 206.101L527.015 207.515ZM547.5 252V250C541.787 250 537.703 249.996 534.599 249.578C531.553 249.169 529.753 248.395 528.429 247.071L527.015 248.485L525.601 249.899C527.791 252.09 530.577 253.074 534.066 253.543C537.498 254.004 541.9 254 547.5 254V252ZM523.5 228H521.5C521.5 233.6 521.496 238.002 521.957 241.434C522.426 244.923 523.41 247.709 525.601 249.899L527.015 248.485L528.429 247.071C527.105 245.747 526.331 243.947 525.922 240.901C525.504 237.797 525.5 233.713 525.5 228H523.5ZM571.5 228H569.5C569.5 233.713 569.496 237.797 569.078 240.901C568.669 243.947 567.895 245.747 566.571 247.071L567.985 248.485L569.399 249.899C571.59 247.709 572.574 244.923 573.043 241.434C573.504 238.002 573.5 233.6 573.5 228H571.5ZM547.5 252V254C553.1 254 557.502 254.004 560.934 253.543C564.423 253.074 567.209 252.09 569.399 249.899L567.985 248.485L566.571 247.071C565.247 248.395 563.447 249.169 560.401 249.578C557.297 249.996 553.213 250 547.5 250V252ZM547.5 204V206C553.213 206 557.297 206.004 560.401 206.422C563.447 206.831 565.247 207.605 566.571 208.929L567.985 207.515L569.399 206.101C567.209 203.91 564.423 202.926 560.934 202.457C557.502 201.996 553.1 202 547.5 202V204ZM571.5 228H573.5C573.5 222.4 573.504 217.998 573.043 214.566C572.574 211.077 571.59 208.291 569.399 206.101L567.985 207.515L566.571 208.929C567.895 210.253 568.669 212.053 569.078 215.099C569.496 218.203 569.5 222.287 569.5 228H571.5ZM547.5 204V202C541.9 202 537.498 201.996 534.066 202.457C530.577 202.926 527.791 203.91 525.601 206.101L527.015 207.515L528.429 208.929C529.753 207.605 531.553 206.831 534.599 206.422C537.703 206.004 541.787 206 547.5 206V204ZM523.5 228H525.5C525.5 222.287 525.504 218.203 525.922 215.099C526.331 212.053 527.105 210.253 528.429 208.929L527.015 207.515L525.601 206.101C523.41 208.291 522.426 211.077 521.957 214.566C521.496 217.998 521.5 222.4 521.5 228H523.5Z" fill="#4F46E5" mask="url(#path-50-inside-4_4924_34935)"/>
<path d="M547.5 217.875C545.497 217.875 543.54 218.469 541.875 219.581C540.21 220.694 538.912 222.275 538.146 224.125C537.379 225.975 537.179 228.011 537.57 229.975C537.96 231.939 538.925 233.743 540.341 235.159C541.757 236.575 543.561 237.54 545.525 237.93C547.489 238.321 549.525 238.121 551.375 237.354C553.225 236.588 554.806 235.29 555.919 233.625C557.031 231.96 557.625 230.003 557.625 228C557.622 225.316 556.554 222.742 554.656 220.844C552.758 218.946 550.184 217.878 547.5 217.875ZM547.5 235.875C545.942 235.875 544.42 235.413 543.125 234.548C541.83 233.683 540.82 232.453 540.224 231.014C539.628 229.575 539.472 227.991 539.776 226.464C540.08 224.936 540.83 223.533 541.932 222.432C543.033 221.33 544.436 220.58 545.964 220.276C547.491 219.972 549.075 220.128 550.514 220.724C551.953 221.32 553.183 222.33 554.048 223.625C554.913 224.92 555.375 226.442 555.375 228C555.373 230.088 554.542 232.09 553.066 233.566C551.59 235.042 549.588 235.873 547.5 235.875ZM552.046 227.204C552.151 227.309 552.234 227.433 552.291 227.57C552.348 227.706 552.377 227.853 552.377 228.001C552.377 228.149 552.348 228.296 552.291 228.432C552.234 228.569 552.151 228.693 552.046 228.798L549.046 231.798C548.941 231.902 548.817 231.985 548.68 232.042C548.544 232.099 548.397 232.128 548.249 232.128C548.101 232.128 547.955 232.099 547.818 232.042C547.681 231.985 547.557 231.902 547.452 231.798C547.348 231.693 547.265 231.569 547.208 231.432C547.151 231.295 547.122 231.149 547.122 231.001C547.122 230.853 547.151 230.706 547.208 230.57C547.265 230.433 547.348 230.309 547.452 230.204L548.531 229.125H543.75C543.452 229.125 543.165 229.006 542.955 228.795C542.744 228.585 542.625 228.298 542.625 228C542.625 227.702 542.744 227.415 542.955 227.205C543.165 226.994 543.452 226.875 543.75 226.875H548.531L547.451 225.796C547.347 225.691 547.264 225.567 547.207 225.43C547.15 225.294 547.121 225.147 547.121 224.999C547.121 224.851 547.15 224.705 547.207 224.568C547.264 224.431 547.347 224.307 547.451 224.202C547.556 224.098 547.68 224.015 547.817 223.958C547.954 223.901 548.1 223.872 548.248 223.872C548.396 223.872 548.543 223.901 548.679 223.958C548.816 224.015 548.94 224.098 549.045 224.202L552.046 227.204Z" fill="#4F46E5"/>
<path d="M558.281 292.505C558.167 292.156 557.953 291.848 557.665 291.619C557.378 291.391 557.029 291.251 556.663 291.219L551.319 290.757L549.229 285.775C549.085 285.436 548.845 285.147 548.538 284.944C548.231 284.741 547.871 284.633 547.503 284.633C547.135 284.633 546.775 284.741 546.468 284.944C546.161 285.147 545.921 285.436 545.777 285.775L543.683 290.757L538.34 291.219C537.972 291.25 537.621 291.388 537.331 291.617C537.041 291.847 536.826 292.156 536.712 292.507C536.597 292.858 536.589 293.236 536.688 293.591C536.787 293.947 536.989 294.266 537.269 294.507L541.33 298.051L540.112 303.323C540.028 303.682 540.052 304.058 540.181 304.403C540.31 304.749 540.537 305.049 540.836 305.265C541.134 305.482 541.489 305.606 541.858 305.622C542.226 305.637 542.591 305.544 542.906 305.354L547.5 302.564L552.094 305.354C552.409 305.544 552.774 305.637 553.142 305.621C553.51 305.605 553.866 305.481 554.164 305.264C554.462 305.048 554.689 304.748 554.818 304.403C554.947 304.058 554.971 303.682 554.887 303.323L553.669 298.051L557.73 294.507C558.009 294.265 558.21 293.946 558.308 293.59C558.406 293.233 558.397 292.856 558.281 292.505ZM552.023 296.501C551.766 296.725 551.575 297.014 551.47 297.339C551.365 297.663 551.351 298.01 551.428 298.341L552.496 302.965L548.47 300.52C548.178 300.342 547.842 300.248 547.5 300.248C547.158 300.248 546.822 300.342 546.53 300.52L542.504 302.965L543.572 298.341C543.649 298.01 543.635 297.663 543.53 297.339C543.425 297.014 543.234 296.725 542.977 296.501L539.406 293.386L544.106 292.979C544.447 292.95 544.772 292.828 545.048 292.626C545.324 292.425 545.54 292.151 545.671 291.836L547.5 287.478L549.329 291.836C549.46 292.151 549.676 292.425 549.952 292.626C550.227 292.828 550.553 292.95 550.894 292.979L555.594 293.386L552.023 296.501Z" fill="#4F46E5"/>
</svg>
