<svg width="512" height="512" viewBox="0 0 512 512" fill="none" xmlns="http://www.w3.org/2000/svg">
<rect width="512" height="512" rx="96" fill="#4F46E5"/>
<path fill-rule="evenodd" clip-rule="evenodd" d="M158.338 392.322C151.72 387.281 142.077 385.414 135.081 389.895C124.87 396.617 122.034 410.433 131.488 418.275C145.291 430.038 164.01 439 182.351 439C219.6 439 249.097 413.607 258.173 382.427C284.267 399.791 319.436 400.724 347.987 383.36L362.168 398.11C369.353 405.392 380.887 405.392 388.64 398.11C396.203 391.015 396.77 379.066 389.774 371.597L375.593 356.847C394.501 329.027 395.069 293.739 378.997 266.853C410.573 259.944 437.423 231.191 438.936 193.102C441.205 135.035 382.967 99.1862 334.184 128.5L272.165 165.842C270.274 163.228 268.195 160.801 265.926 158.374C249.286 140.823 225.462 133.728 202.772 136.902C202.772 134.661 202.961 132.234 203.339 129.807C204.663 120.471 208.256 111.883 215.252 104.974C223.004 97.6925 223.382 85.9297 216.386 78.4613C209.201 71.1796 197.667 71.1796 189.915 78.4613C174.788 93.0247 168.359 110.762 166.09 126.073C164.767 135.782 164.956 145.117 166.09 152.772C164.01 154.266 161.93 156.133 159.851 158.187C157.771 160.054 155.88 162.108 154.178 164.162C146.615 162.668 137.35 161.921 127.517 162.855C112.202 164.348 94.239 169.763 79.1124 184.326C71.3601 191.608 70.9819 203.371 77.9779 210.839C85.1631 218.121 96.6971 218.121 104.449 210.839C111.635 204.118 120.521 200.944 129.597 200.01C132.055 200.01 134.513 199.637 136.782 200.01C132.245 222.789 138.484 247.061 155.123 264.612C157.014 266.479 158.716 268.16 160.796 269.84L153.233 280.669C150.207 285.15 149.262 290.191 150.207 294.859L152.287 305.315C152.854 308.116 152.098 311.103 150.585 313.344C148.127 317.078 145.858 317.825 142.266 318.571L129.786 321.185C124.114 322.306 119.009 325.853 115.605 331.081C108.609 341.537 111.256 355.354 121.467 361.888C131.677 368.423 145.48 365.249 152.476 354.793C155.88 349.565 157.014 343.591 155.88 337.989L153.422 325.666C152.665 322.119 152.665 319.505 154.934 315.958C156.447 313.53 158.716 311.85 161.552 311.103L171.952 308.676C176.679 307.556 180.839 304.568 183.675 300.087L188.78 292.245L218.655 347.138C231.891 371.784 212.415 402.591 183.297 402.591C174.977 402.591 165.901 398.11 158.338 392.322ZM240.399 284.964L253.446 311.476C269.329 308.302 295.044 295.606 306.956 258.637L282.376 244.821L261.388 264.985L240.589 284.964H240.399ZM337.399 345.084C317.734 363.942 287.859 362.449 271.409 344.151C295.422 335.562 323.217 315.958 338.533 277.682C356.874 295.046 357.63 325.853 337.399 345.084ZM235.862 238.286C251.177 223.536 252.312 199.823 238.131 185.073C224.328 170.323 200.503 170.136 185.188 184.886C169.872 199.637 168.737 223.349 182.919 238.099C196.722 252.849 220.546 253.036 235.862 238.286ZM295.801 193.475L350.445 160.801C375.026 145.864 404.145 163.788 403.01 193.102C401.876 222.415 370.866 240.526 347.609 225.963L295.801 193.475Z" fill="white"/>
</svg>
