<svg width="404" height="242" viewBox="0 0 404 242" fill="none" xmlns="http://www.w3.org/2000/svg">
<g filter="url(#filter0_d_5240_231011)">
<path d="M42 38C42 30.4575 42 26.6863 44.3431 24.3431C46.6863 22 50.4575 22 58 22H346C353.542 22 357.314 22 359.657 24.3431C362 26.6863 362 30.4575 362 38V164C362 171.542 362 175.314 359.657 177.657C357.314 180 353.542 180 346 180H58C50.4575 180 46.6863 180 44.3431 177.657C42 175.314 42 171.542 42 164V38Z" fill="#1C1D23"/>
<path d="M70 39.875C67.9975 39.875 66.0399 40.4688 64.3749 41.5814C62.7098 42.6939 61.4121 44.2752 60.6457 46.1253C59.8794 47.9754 59.6789 50.0112 60.0696 51.9753C60.4602 53.9393 61.4245 55.7435 62.8405 57.1595C64.2566 58.5755 66.0607 59.5398 68.0247 59.9305C69.9888 60.3211 72.0246 60.1206 73.8747 59.3543C75.7248 58.5879 77.3061 57.2902 78.4186 55.6251C79.5312 53.9601 80.125 52.0025 80.125 50C80.122 47.3156 79.0543 44.742 77.1562 42.8438C75.258 40.9457 72.6844 39.878 70 39.875ZM70 57.875C68.4425 57.875 66.9199 57.4131 65.6249 56.5478C64.3299 55.6825 63.3205 54.4526 62.7245 53.0136C62.1284 51.5747 61.9725 49.9913 62.2763 48.4637C62.5802 46.9361 63.3302 45.5329 64.4315 44.4315C65.5329 43.3302 66.9361 42.5802 68.4637 42.2763C69.9913 41.9725 71.5747 42.1284 73.0136 42.7244C74.4526 43.3205 75.6825 44.3298 76.5478 45.6249C77.4131 46.9199 77.875 48.4425 77.875 50C77.8728 52.0879 77.0424 54.0896 75.566 55.566C74.0896 57.0424 72.0879 57.8728 70 57.875ZM68.875 50.375V45.5C68.875 45.2016 68.9935 44.9155 69.2045 44.7045C69.4155 44.4935 69.7016 44.375 70 44.375C70.2984 44.375 70.5845 44.4935 70.7955 44.7045C71.0065 44.9155 71.125 45.2016 71.125 45.5V50.375C71.125 50.6734 71.0065 50.9595 70.7955 51.1705C70.5845 51.3815 70.2984 51.5 70 51.5C69.7016 51.5 69.4155 51.3815 69.2045 51.1705C68.9935 50.9595 68.875 50.6734 68.875 50.375ZM71.5 54.125C71.5 54.4217 71.412 54.7117 71.2472 54.9584C71.0824 55.205 70.8481 55.3973 70.574 55.5108C70.2999 55.6244 69.9983 55.6541 69.7074 55.5962C69.4164 55.5383 69.1491 55.3954 68.9393 55.1857C68.7296 54.9759 68.5867 54.7086 68.5288 54.4176C68.4709 54.1267 68.5007 53.8251 68.6142 53.551C68.7277 53.2769 68.92 53.0426 69.1666 52.8778C69.4133 52.713 69.7033 52.625 70 52.625C70.3978 52.625 70.7794 52.783 71.0607 53.0643C71.342 53.3456 71.5 53.7272 71.5 54.125Z" fill="#D99048"/>
<path d="M99.632 56.176C98.704 56.176 97.8827 55.9787 97.168 55.584C96.464 55.1893 95.9093 54.6453 95.504 53.952C95.1093 53.248 94.912 52.448 94.912 51.552V44.704H97.44V51.696C97.44 52.144 97.536 52.5333 97.728 52.864C97.92 53.1947 98.1813 53.4507 98.512 53.632C98.8533 53.8027 99.2267 53.888 99.632 53.888C100.059 53.888 100.432 53.8027 100.752 53.632C101.072 53.4507 101.323 53.2 101.504 52.88C101.696 52.5493 101.792 52.16 101.792 51.712V44.704H104.32V51.568C104.32 52.464 104.123 53.2587 103.728 53.952C103.333 54.6453 102.784 55.1893 102.08 55.584C101.376 55.9787 100.56 56.176 99.632 56.176ZM110.578 56.16C110.056 56.16 109.576 56.0587 109.138 55.856C108.701 55.6533 108.344 55.376 108.066 55.024C107.789 54.6613 107.629 54.2507 107.586 53.792V50.512C107.629 50.0533 107.789 49.6373 108.066 49.264C108.344 48.8907 108.701 48.5973 109.138 48.384C109.576 48.1707 110.056 48.064 110.578 48.064C111.314 48.064 111.965 48.24 112.53 48.592C113.106 48.944 113.554 49.424 113.874 50.032C114.205 50.64 114.37 51.3333 114.37 52.112C114.37 52.8907 114.205 53.584 113.874 54.192C113.554 54.8 113.106 55.28 112.53 55.632C111.965 55.984 111.314 56.16 110.578 56.16ZM106.098 59.28V48.224H108.546V50.224L108.146 52.112L108.514 54V59.28H106.098ZM110.13 53.952C110.482 53.952 110.786 53.872 111.042 53.712C111.309 53.552 111.517 53.3333 111.666 53.056C111.816 52.7787 111.89 52.464 111.89 52.112C111.89 51.7493 111.816 51.4293 111.666 51.152C111.517 50.8747 111.309 50.6613 111.042 50.512C110.786 50.352 110.488 50.272 110.146 50.272C109.805 50.272 109.501 50.352 109.234 50.512C108.978 50.6613 108.776 50.8747 108.626 51.152C108.477 51.4293 108.402 51.7493 108.402 52.112C108.402 52.464 108.472 52.7787 108.61 53.056C108.76 53.3333 108.968 53.552 109.234 53.712C109.501 53.872 109.8 53.952 110.13 53.952ZM118.926 56.16C118.19 56.16 117.534 55.984 116.958 55.632C116.393 55.28 115.945 54.8 115.614 54.192C115.294 53.584 115.134 52.8907 115.134 52.112C115.134 51.3333 115.294 50.64 115.614 50.032C115.945 49.424 116.393 48.944 116.958 48.592C117.534 48.24 118.19 48.064 118.926 48.064C119.459 48.064 119.939 48.1653 120.366 48.368C120.803 48.5707 121.161 48.8533 121.438 49.216C121.726 49.568 121.886 49.9733 121.918 50.432V53.712C121.886 54.1707 121.731 54.5867 121.454 54.96C121.177 55.3227 120.819 55.616 120.382 55.84C119.945 56.0533 119.459 56.16 118.926 56.16ZM119.358 53.952C119.71 53.952 120.014 53.8773 120.27 53.728C120.526 53.568 120.729 53.3493 120.878 53.072C121.027 52.7947 121.102 52.4747 121.102 52.112C121.102 51.7493 121.027 51.4347 120.878 51.168C120.739 50.8907 120.537 50.672 120.27 50.512C120.014 50.352 119.715 50.272 119.374 50.272C119.033 50.272 118.729 50.352 118.462 50.512C118.206 50.672 117.998 50.8907 117.838 51.168C117.689 51.4453 117.614 51.76 117.614 52.112C117.614 52.464 117.689 52.7787 117.838 53.056C117.987 53.3333 118.195 53.552 118.462 53.712C118.729 53.872 119.027 53.952 119.358 53.952ZM123.406 56H121.006V53.904L121.374 52.016L120.958 50.128V44.384H123.406V56ZM128.378 56.16C127.663 56.16 127.023 55.984 126.458 55.632C125.903 55.28 125.46 54.8 125.13 54.192C124.81 53.584 124.65 52.8907 124.65 52.112C124.65 51.3333 124.81 50.64 125.13 50.032C125.46 49.424 125.903 48.944 126.458 48.592C127.023 48.24 127.663 48.064 128.378 48.064C128.9 48.064 129.37 48.1653 129.786 48.368C130.212 48.5707 130.559 48.8533 130.826 49.216C131.092 49.568 131.242 49.9733 131.274 50.432V53.792C131.242 54.2507 131.092 54.6613 130.826 55.024C130.57 55.376 130.228 55.6533 129.802 55.856C129.375 56.0587 128.9 56.16 128.378 56.16ZM128.874 53.952C129.396 53.952 129.818 53.7813 130.138 53.44C130.458 53.088 130.618 52.6453 130.618 52.112C130.618 51.7493 130.543 51.4293 130.394 51.152C130.255 50.8747 130.052 50.6613 129.786 50.512C129.53 50.352 129.231 50.272 128.89 50.272C128.548 50.272 128.244 50.352 127.978 50.512C127.722 50.6613 127.514 50.8747 127.354 51.152C127.204 51.4293 127.13 51.7493 127.13 52.112C127.13 52.464 127.204 52.7787 127.354 53.056C127.503 53.3333 127.711 53.552 127.978 53.712C128.244 53.872 128.543 53.952 128.874 53.952ZM130.522 56V53.904L130.89 52.016L130.522 50.128V48.224H132.922V56H130.522ZM135.749 56V45.008H138.197V56H135.749ZM133.989 50.304V48.224H139.957V50.304H133.989ZM144.72 56.176C143.877 56.176 143.125 56.0053 142.464 55.664C141.813 55.312 141.301 54.8267 140.928 54.208C140.554 53.5893 140.368 52.8907 140.368 52.112C140.368 51.3333 140.549 50.64 140.912 50.032C141.285 49.4133 141.786 48.928 142.416 48.576C143.045 48.224 143.754 48.048 144.544 48.048C145.312 48.048 145.989 48.2133 146.576 48.544C147.162 48.8747 147.621 49.3333 147.952 49.92C148.293 50.5067 148.464 51.1787 148.464 51.936C148.464 52.0747 148.453 52.224 148.432 52.384C148.421 52.5333 148.394 52.7093 148.352 52.912L141.648 52.928V51.248L147.312 51.232L146.256 51.936C146.245 51.488 146.176 51.12 146.048 50.832C145.92 50.5333 145.728 50.3093 145.472 50.16C145.226 50 144.922 49.92 144.56 49.92C144.176 49.92 143.84 50.0107 143.552 50.192C143.274 50.3627 143.056 50.608 142.896 50.928C142.746 51.248 142.672 51.6373 142.672 52.096C142.672 52.5547 142.752 52.9493 142.912 53.28C143.082 53.6 143.317 53.8507 143.616 54.032C143.925 54.2027 144.288 54.288 144.704 54.288C145.088 54.288 145.434 54.224 145.744 54.096C146.053 53.9573 146.325 53.7547 146.56 53.488L147.904 54.832C147.52 55.28 147.056 55.616 146.512 55.84C145.968 56.064 145.37 56.176 144.72 56.176ZM152.692 56V48.224H155.14V56H152.692ZM155.14 51.728L154.116 50.928C154.319 50.0213 154.66 49.3173 155.14 48.816C155.62 48.3147 156.287 48.064 157.14 48.064C157.513 48.064 157.839 48.1227 158.116 48.24C158.404 48.3467 158.655 48.5173 158.868 48.752L157.412 50.592C157.305 50.4747 157.172 50.384 157.012 50.32C156.852 50.256 156.671 50.224 156.468 50.224C156.063 50.224 155.737 50.352 155.492 50.608C155.257 50.8533 155.14 51.2267 155.14 51.728ZM163.141 56.176C162.299 56.176 161.547 56.0053 160.886 55.664C160.235 55.312 159.723 54.8267 159.35 54.208C158.976 53.5893 158.79 52.8907 158.79 52.112C158.79 51.3333 158.971 50.64 159.334 50.032C159.707 49.4133 160.208 48.928 160.838 48.576C161.467 48.224 162.176 48.048 162.966 48.048C163.734 48.048 164.411 48.2133 164.998 48.544C165.584 48.8747 166.043 49.3333 166.374 49.92C166.715 50.5067 166.885 51.1787 166.885 51.936C166.885 52.0747 166.875 52.224 166.854 52.384C166.843 52.5333 166.816 52.7093 166.774 52.912L160.07 52.928V51.248L165.734 51.232L164.678 51.936C164.667 51.488 164.598 51.12 164.47 50.832C164.342 50.5333 164.15 50.3093 163.894 50.16C163.648 50 163.344 49.92 162.982 49.92C162.598 49.92 162.262 50.0107 161.974 50.192C161.696 50.3627 161.478 50.608 161.318 50.928C161.168 51.248 161.094 51.6373 161.094 52.096C161.094 52.5547 161.174 52.9493 161.334 53.28C161.504 53.6 161.739 53.8507 162.038 54.032C162.347 54.2027 162.71 54.288 163.126 54.288C163.51 54.288 163.856 54.224 164.166 54.096C164.475 53.9573 164.747 53.7547 164.982 53.488L166.326 54.832C165.942 55.28 165.478 55.616 164.934 55.84C164.39 56.064 163.792 56.176 163.141 56.176ZM171.315 56.16C170.6 56.16 169.96 55.984 169.395 55.632C168.84 55.28 168.398 54.8 168.067 54.192C167.747 53.584 167.587 52.8907 167.587 52.112C167.587 51.3333 167.747 50.64 168.067 50.032C168.398 49.424 168.84 48.944 169.395 48.592C169.96 48.24 170.6 48.064 171.315 48.064C171.838 48.064 172.307 48.1653 172.723 48.368C173.15 48.5707 173.496 48.8533 173.763 49.216C174.03 49.568 174.179 49.9733 174.211 50.432V53.792C174.179 54.2507 174.03 54.6613 173.763 55.024C173.507 55.376 173.166 55.6533 172.739 55.856C172.312 56.0587 171.838 56.16 171.315 56.16ZM171.811 53.952C172.334 53.952 172.755 53.7813 173.075 53.44C173.395 53.088 173.555 52.6453 173.555 52.112C173.555 51.7493 173.48 51.4293 173.331 51.152C173.192 50.8747 172.99 50.6613 172.723 50.512C172.467 50.352 172.168 50.272 171.827 50.272C171.486 50.272 171.182 50.352 170.915 50.512C170.659 50.6613 170.451 50.8747 170.291 51.152C170.142 51.4293 170.067 51.7493 170.067 52.112C170.067 52.464 170.142 52.7787 170.291 53.056C170.44 53.3333 170.648 53.552 170.915 53.712C171.182 53.872 171.48 53.952 171.811 53.952ZM173.459 59.28V54L173.827 52.112L173.459 50.224V48.224H175.859V59.28H173.459ZM181.039 56.176C180.324 56.176 179.689 56.032 179.135 55.744C178.591 55.4453 178.164 55.04 177.855 54.528C177.545 54.0053 177.391 53.408 177.391 52.736V48.224H179.839V52.704C179.839 52.9707 179.881 53.2 179.967 53.392C180.063 53.584 180.201 53.7333 180.383 53.84C180.564 53.9467 180.783 54 181.039 54C181.401 54 181.689 53.888 181.903 53.664C182.116 53.4293 182.223 53.1093 182.223 52.704V48.224H184.671V52.72C184.671 53.4027 184.516 54.0053 184.207 54.528C183.897 55.04 183.471 55.4453 182.927 55.744C182.383 56.032 181.753 56.176 181.039 56.176ZM186.208 56V48.224H188.656V56H186.208ZM187.44 47.152C187.056 47.152 186.736 47.024 186.48 46.768C186.234 46.5013 186.112 46.1813 186.112 45.808C186.112 45.424 186.234 45.104 186.48 44.848C186.736 44.592 187.056 44.464 187.44 44.464C187.824 44.464 188.138 44.592 188.384 44.848C188.629 45.104 188.752 45.424 188.752 45.808C188.752 46.1813 188.629 46.5013 188.384 46.768C188.138 47.024 187.824 47.152 187.44 47.152ZM190.38 56V48.224H192.828V56H190.38ZM192.828 51.728L191.804 50.928C192.006 50.0213 192.348 49.3173 192.828 48.816C193.308 48.3147 193.974 48.064 194.828 48.064C195.201 48.064 195.526 48.1227 195.804 48.24C196.092 48.3467 196.342 48.5173 196.556 48.752L195.1 50.592C194.993 50.4747 194.86 50.384 194.7 50.32C194.54 50.256 194.358 50.224 194.156 50.224C193.75 50.224 193.425 50.352 193.18 50.608C192.945 50.8533 192.828 51.2267 192.828 51.728ZM200.829 56.176C199.986 56.176 199.234 56.0053 198.573 55.664C197.922 55.312 197.41 54.8267 197.037 54.208C196.664 53.5893 196.477 52.8907 196.477 52.112C196.477 51.3333 196.658 50.64 197.021 50.032C197.394 49.4133 197.896 48.928 198.525 48.576C199.154 48.224 199.864 48.048 200.653 48.048C201.421 48.048 202.098 48.2133 202.685 48.544C203.272 48.8747 203.73 49.3333 204.061 49.92C204.402 50.5067 204.573 51.1787 204.573 51.936C204.573 52.0747 204.562 52.224 204.541 52.384C204.53 52.5333 204.504 52.7093 204.461 52.912L197.757 52.928V51.248L203.421 51.232L202.365 51.936C202.354 51.488 202.285 51.12 202.157 50.832C202.029 50.5333 201.837 50.3093 201.581 50.16C201.336 50 201.032 49.92 200.669 49.92C200.285 49.92 199.949 50.0107 199.661 50.192C199.384 50.3627 199.165 50.608 199.005 50.928C198.856 51.248 198.781 51.6373 198.781 52.096C198.781 52.5547 198.861 52.9493 199.021 53.28C199.192 53.6 199.426 53.8507 199.725 54.032C200.034 54.2027 200.397 54.288 200.813 54.288C201.197 54.288 201.544 54.224 201.853 54.096C202.162 53.9573 202.434 53.7547 202.669 53.488L204.013 54.832C203.629 55.28 203.165 55.616 202.621 55.84C202.077 56.064 201.48 56.176 200.829 56.176ZM209.067 56.16C208.331 56.16 207.675 55.984 207.099 55.632C206.533 55.28 206.085 54.8 205.755 54.192C205.435 53.584 205.275 52.8907 205.275 52.112C205.275 51.3333 205.435 50.64 205.755 50.032C206.085 49.424 206.533 48.944 207.099 48.592C207.675 48.24 208.331 48.064 209.067 48.064C209.6 48.064 210.08 48.1653 210.507 48.368C210.944 48.5707 211.301 48.8533 211.579 49.216C211.867 49.568 212.027 49.9733 212.059 50.432V53.712C212.027 54.1707 211.872 54.5867 211.595 54.96C211.317 55.3227 210.96 55.616 210.523 55.84C210.085 56.0533 209.6 56.16 209.067 56.16ZM209.499 53.952C209.851 53.952 210.155 53.8773 210.411 53.728C210.667 53.568 210.869 53.3493 211.019 53.072C211.168 52.7947 211.243 52.4747 211.243 52.112C211.243 51.7493 211.168 51.4347 211.019 51.168C210.88 50.8907 210.677 50.672 210.411 50.512C210.155 50.352 209.856 50.272 209.515 50.272C209.173 50.272 208.869 50.352 208.603 50.512C208.347 50.672 208.139 50.8907 207.979 51.168C207.829 51.4453 207.755 51.76 207.755 52.112C207.755 52.464 207.829 52.7787 207.979 53.056C208.128 53.3333 208.336 53.552 208.603 53.712C208.869 53.872 209.168 53.952 209.499 53.952ZM213.547 56H211.147V53.904L211.515 52.016L211.099 50.128V44.384H213.547V56Z" fill="#F1F2F4"/>
<path d="M339.031 53.9695C339.171 54.1104 339.251 54.3015 339.251 54.5007C339.251 54.7 339.171 54.8911 339.031 55.032C338.89 55.1729 338.699 55.252 338.499 55.252C338.3 55.252 338.109 55.1729 337.968 55.032L334 51.0626L330.031 55.0307C329.89 55.1716 329.699 55.2508 329.499 55.2508C329.3 55.2508 329.109 55.1716 328.968 55.0307C328.827 54.8898 328.748 54.6987 328.748 54.4995C328.748 54.3002 328.827 54.1091 328.968 53.9682L332.937 50.0001L328.969 46.0307C328.828 45.8898 328.749 45.6987 328.749 45.4995C328.749 45.3002 328.828 45.1091 328.969 44.9682C329.11 44.8273 329.301 44.7482 329.501 44.7482C329.7 44.7482 329.891 44.8273 330.032 44.9682L334 48.9376L337.969 44.9676C338.11 44.8267 338.301 44.7476 338.501 44.7476C338.7 44.7476 338.891 44.8267 339.032 44.9676C339.173 45.1085 339.252 45.2996 339.252 45.4989C339.252 45.6981 339.173 45.8892 339.032 46.0301L335.062 50.0001L339.031 53.9695Z" fill="#F1F2F4"/>
<path d="M96.03 86.22V85.072H98.676C99.04 85.072 99.362 84.9973 99.642 84.848C99.9313 84.6987 100.155 84.4887 100.314 84.218C100.482 83.9473 100.566 83.6253 100.566 83.252C100.566 82.8787 100.482 82.5567 100.314 82.286C100.155 82.0153 99.9313 81.8053 99.642 81.656C99.362 81.5067 99.04 81.432 98.676 81.432H96.03V80.284H98.76C99.3573 80.284 99.8893 80.4053 100.356 80.648C100.832 80.8907 101.205 81.236 101.476 81.684C101.756 82.1227 101.896 82.6453 101.896 83.252C101.896 83.8493 101.756 84.372 101.476 84.82C101.205 85.2587 100.832 85.604 100.356 85.856C99.8893 86.0987 99.3573 86.22 98.76 86.22H96.03ZM95.148 90V80.284H96.464V90H95.148ZM103.414 90V80.004H104.674V90H103.414ZM109.598 90.14C108.935 90.14 108.338 89.9907 107.806 89.692C107.274 89.384 106.854 88.9687 106.546 88.446C106.238 87.9233 106.084 87.3307 106.084 86.668C106.084 86.0147 106.233 85.4267 106.532 84.904C106.84 84.3813 107.25 83.9707 107.764 83.672C108.286 83.364 108.87 83.21 109.514 83.21C110.13 83.21 110.671 83.35 111.138 83.63C111.614 83.91 111.982 84.2973 112.244 84.792C112.514 85.2867 112.65 85.8467 112.65 86.472C112.65 86.5653 112.645 86.668 112.636 86.78C112.626 86.8827 112.608 87.004 112.58 87.144H106.966V86.094H111.908L111.446 86.5C111.446 86.052 111.366 85.674 111.208 85.366C111.049 85.0487 110.825 84.806 110.536 84.638C110.246 84.4607 109.896 84.372 109.486 84.372C109.056 84.372 108.678 84.4653 108.352 84.652C108.025 84.8387 107.773 85.1 107.596 85.436C107.418 85.772 107.33 86.1687 107.33 86.626C107.33 87.0927 107.423 87.5033 107.61 87.858C107.796 88.2033 108.062 88.474 108.408 88.67C108.753 88.8567 109.15 88.95 109.598 88.95C109.971 88.95 110.312 88.8847 110.62 88.754C110.937 88.6233 111.208 88.4273 111.432 88.166L112.244 88.992C111.926 89.3653 111.534 89.65 111.068 89.846C110.61 90.042 110.12 90.14 109.598 90.14ZM116.852 90.14C116.245 90.14 115.694 89.9907 115.2 89.692C114.705 89.384 114.313 88.9687 114.024 88.446C113.744 87.9233 113.604 87.3353 113.604 86.682C113.604 86.0287 113.744 85.4407 114.024 84.918C114.313 84.3953 114.7 83.98 115.186 83.672C115.68 83.364 116.236 83.21 116.852 83.21C117.356 83.21 117.804 83.3173 118.196 83.532C118.597 83.7373 118.919 84.0267 119.162 84.4C119.404 84.764 119.54 85.1887 119.568 85.674V87.676C119.54 88.152 119.404 88.5767 119.162 88.95C118.928 89.3233 118.611 89.6173 118.21 89.832C117.818 90.0373 117.365 90.14 116.852 90.14ZM117.062 88.95C117.687 88.95 118.191 88.74 118.574 88.32C118.956 87.8907 119.148 87.3447 119.148 86.682C119.148 86.2247 119.059 85.828 118.882 85.492C118.714 85.1467 118.471 84.8807 118.154 84.694C117.836 84.498 117.468 84.4 117.048 84.4C116.628 84.4 116.254 84.498 115.928 84.694C115.61 84.89 115.358 85.1607 115.172 85.506C114.994 85.842 114.906 86.2293 114.906 86.668C114.906 87.116 114.994 87.5127 115.172 87.858C115.358 88.194 115.615 88.46 115.942 88.656C116.268 88.852 116.642 88.95 117.062 88.95ZM119.064 90V88.208L119.302 86.584L119.064 84.974V83.35H120.338V90H119.064ZM124.286 90.14C123.913 90.14 123.558 90.0933 123.222 90C122.895 89.8973 122.592 89.7573 122.312 89.58C122.032 89.3933 121.789 89.174 121.584 88.922L122.396 88.11C122.639 88.4087 122.919 88.6327 123.236 88.782C123.553 88.922 123.908 88.992 124.3 88.992C124.692 88.992 124.995 88.9267 125.21 88.796C125.425 88.656 125.532 88.4647 125.532 88.222C125.532 87.9793 125.443 87.7927 125.266 87.662C125.098 87.522 124.879 87.41 124.608 87.326C124.337 87.2327 124.048 87.144 123.74 87.06C123.441 86.9667 123.157 86.85 122.886 86.71C122.615 86.57 122.391 86.3787 122.214 86.136C122.046 85.8933 121.962 85.5713 121.962 85.17C121.962 84.7687 122.06 84.4233 122.256 84.134C122.452 83.8353 122.723 83.6067 123.068 83.448C123.423 83.2893 123.847 83.21 124.342 83.21C124.865 83.21 125.327 83.3033 125.728 83.49C126.139 83.6673 126.475 83.938 126.736 84.302L125.924 85.114C125.737 84.8713 125.504 84.6847 125.224 84.554C124.953 84.4233 124.645 84.358 124.3 84.358C123.936 84.358 123.656 84.4233 123.46 84.554C123.273 84.6753 123.18 84.848 123.18 85.072C123.18 85.296 123.264 85.4687 123.432 85.59C123.6 85.7113 123.819 85.814 124.09 85.898C124.37 85.982 124.659 86.0707 124.958 86.164C125.257 86.248 125.541 86.3647 125.812 86.514C126.083 86.6633 126.302 86.864 126.47 87.116C126.647 87.368 126.736 87.6993 126.736 88.11C126.736 88.7353 126.512 89.23 126.064 89.594C125.625 89.958 125.033 90.14 124.286 90.14ZM131.227 90.14C130.564 90.14 129.967 89.9907 129.435 89.692C128.903 89.384 128.483 88.9687 128.175 88.446C127.867 87.9233 127.713 87.3307 127.713 86.668C127.713 86.0147 127.862 85.4267 128.161 84.904C128.469 84.3813 128.879 83.9707 129.393 83.672C129.915 83.364 130.499 83.21 131.143 83.21C131.759 83.21 132.3 83.35 132.767 83.63C133.243 83.91 133.611 84.2973 133.873 84.792C134.143 85.2867 134.279 85.8467 134.279 86.472C134.279 86.5653 134.274 86.668 134.265 86.78C134.255 86.8827 134.237 87.004 134.209 87.144H128.595V86.094H133.537L133.075 86.5C133.075 86.052 132.995 85.674 132.837 85.366C132.678 85.0487 132.454 84.806 132.165 84.638C131.875 84.4607 131.525 84.372 131.115 84.372C130.685 84.372 130.307 84.4653 129.981 84.652C129.654 84.8387 129.402 85.1 129.225 85.436C129.047 85.772 128.959 86.1687 128.959 86.626C128.959 87.0927 129.052 87.5033 129.239 87.858C129.425 88.2033 129.691 88.474 130.037 88.67C130.382 88.8567 130.779 88.95 131.227 88.95C131.6 88.95 131.941 88.8847 132.249 88.754C132.566 88.6233 132.837 88.4273 133.061 88.166L133.873 88.992C133.555 89.3653 133.163 89.65 132.697 89.846C132.239 90.042 131.749 90.14 131.227 90.14ZM141.239 90.14C140.697 90.14 140.207 90.0187 139.769 89.776C139.339 89.524 139.003 89.1787 138.761 88.74C138.518 88.3013 138.397 87.7927 138.397 87.214V83.35H139.657V87.158C139.657 87.522 139.717 87.8393 139.839 88.11C139.969 88.3713 140.156 88.572 140.399 88.712C140.641 88.852 140.926 88.922 141.253 88.922C141.747 88.922 142.135 88.768 142.415 88.46C142.695 88.1427 142.835 87.7087 142.835 87.158V83.35H144.095V87.214C144.095 87.7927 143.973 88.3013 143.731 88.74C143.488 89.1787 143.152 89.524 142.723 89.776C142.303 90.0187 141.808 90.14 141.239 90.14ZM149.283 90.14C148.779 90.14 148.322 90.0373 147.911 89.832C147.51 89.6173 147.188 89.3233 146.945 88.95C146.703 88.5767 146.567 88.152 146.539 87.676V85.674C146.567 85.1887 146.703 84.764 146.945 84.4C147.197 84.0267 147.524 83.7373 147.925 83.532C148.336 83.3173 148.789 83.21 149.283 83.21C149.89 83.21 150.436 83.364 150.921 83.672C151.416 83.98 151.803 84.3953 152.083 84.918C152.363 85.4407 152.503 86.0287 152.503 86.682C152.503 87.3353 152.363 87.9233 152.083 88.446C151.803 88.9687 151.416 89.384 150.921 89.692C150.436 89.9907 149.89 90.14 149.283 90.14ZM145.783 92.786V83.35H147.043V85.1L146.805 86.71L147.043 88.334V92.786H145.783ZM149.073 88.95C149.493 88.95 149.862 88.852 150.179 88.656C150.497 88.46 150.749 88.194 150.935 87.858C151.122 87.5127 151.215 87.116 151.215 86.668C151.215 86.2293 151.122 85.8373 150.935 85.492C150.749 85.1467 150.497 84.8807 150.179 84.694C149.862 84.498 149.498 84.4 149.087 84.4C148.667 84.4 148.299 84.498 147.981 84.694C147.664 84.8807 147.417 85.1467 147.239 85.492C147.062 85.8373 146.973 86.234 146.973 86.682C146.973 87.1207 147.057 87.5127 147.225 87.858C147.403 88.194 147.65 88.46 147.967 88.656C148.294 88.852 148.663 88.95 149.073 88.95ZM156.746 90.14C156.13 90.14 155.579 89.9907 155.094 89.692C154.608 89.384 154.221 88.9687 153.932 88.446C153.652 87.9233 153.512 87.3353 153.512 86.682C153.512 86.0287 153.652 85.4407 153.932 84.918C154.221 84.3953 154.608 83.98 155.094 83.672C155.579 83.364 156.13 83.21 156.746 83.21C157.24 83.21 157.688 83.3173 158.09 83.532C158.491 83.7373 158.813 84.0267 159.056 84.4C159.308 84.764 159.448 85.1887 159.476 85.674V87.676C159.448 88.152 159.312 88.5767 159.07 88.95C158.827 89.3233 158.505 89.6173 158.104 89.832C157.702 90.0373 157.25 90.14 156.746 90.14ZM156.956 88.95C157.376 88.95 157.74 88.852 158.048 88.656C158.365 88.46 158.612 88.194 158.79 87.858C158.967 87.5127 159.056 87.1207 159.056 86.682C159.056 86.2247 158.962 85.828 158.776 85.492C158.598 85.156 158.351 84.89 158.034 84.694C157.726 84.498 157.362 84.4 156.942 84.4C156.522 84.4 156.153 84.498 155.836 84.694C155.518 84.89 155.266 85.1607 155.08 85.506C154.902 85.842 154.814 86.2293 154.814 86.668C154.814 87.116 154.902 87.5127 155.08 87.858C155.266 88.194 155.518 88.46 155.836 88.656C156.162 88.852 156.536 88.95 156.956 88.95ZM160.246 90H158.972V88.208L159.21 86.584L158.972 84.974V80.004H160.246V90ZM164.908 90.14C164.302 90.14 163.751 89.9907 163.256 89.692C162.762 89.384 162.37 88.9687 162.08 88.446C161.8 87.9233 161.66 87.3353 161.66 86.682C161.66 86.0287 161.8 85.4407 162.08 84.918C162.37 84.3953 162.757 83.98 163.242 83.672C163.737 83.364 164.292 83.21 164.908 83.21C165.412 83.21 165.86 83.3173 166.252 83.532C166.654 83.7373 166.976 84.0267 167.218 84.4C167.461 84.764 167.596 85.1887 167.624 85.674V87.676C167.596 88.152 167.461 88.5767 167.218 88.95C166.985 89.3233 166.668 89.6173 166.266 89.832C165.874 90.0373 165.422 90.14 164.908 90.14ZM165.118 88.95C165.744 88.95 166.248 88.74 166.63 88.32C167.013 87.8907 167.204 87.3447 167.204 86.682C167.204 86.2247 167.116 85.828 166.938 85.492C166.77 85.1467 166.528 84.8807 166.21 84.694C165.893 84.498 165.524 84.4 165.104 84.4C164.684 84.4 164.311 84.498 163.984 84.694C163.667 84.89 163.415 85.1607 163.228 85.506C163.051 85.842 162.962 86.2293 162.962 86.668C162.962 87.116 163.051 87.5127 163.228 87.858C163.415 88.194 163.672 88.46 163.998 88.656C164.325 88.852 164.698 88.95 165.118 88.95ZM167.12 90V88.208L167.358 86.584L167.12 84.974V83.35H168.394V90H167.12ZM171.223 90V80.564H172.483V90H171.223ZM169.585 84.498V83.35H174.121V84.498H169.585ZM178.231 90.14C177.568 90.14 176.971 89.9907 176.439 89.692C175.907 89.384 175.487 88.9687 175.179 88.446C174.871 87.9233 174.717 87.3307 174.717 86.668C174.717 86.0147 174.866 85.4267 175.165 84.904C175.473 84.3813 175.883 83.9707 176.397 83.672C176.919 83.364 177.503 83.21 178.147 83.21C178.763 83.21 179.304 83.35 179.771 83.63C180.247 83.91 180.615 84.2973 180.877 84.792C181.147 85.2867 181.283 85.8467 181.283 86.472C181.283 86.5653 181.278 86.668 181.269 86.78C181.259 86.8827 181.241 87.004 181.213 87.144H175.599V86.094H180.541L180.079 86.5C180.079 86.052 179.999 85.674 179.841 85.366C179.682 85.0487 179.458 84.806 179.169 84.638C178.879 84.4607 178.529 84.372 178.119 84.372C177.689 84.372 177.311 84.4653 176.985 84.652C176.658 84.8387 176.406 85.1 176.229 85.436C176.051 85.772 175.963 86.1687 175.963 86.626C175.963 87.0927 176.056 87.5033 176.243 87.858C176.429 88.2033 176.695 88.474 177.041 88.67C177.386 88.8567 177.783 88.95 178.231 88.95C178.604 88.95 178.945 88.8847 179.253 88.754C179.57 88.6233 179.841 88.4273 180.065 88.166L180.877 88.992C180.559 89.3653 180.167 89.65 179.701 89.846C179.243 90.042 178.753 90.14 178.231 90.14ZM187.753 90.056L184.869 83.35H186.269L188.411 88.6H187.963L190.217 83.35H191.617L188.509 90.056H187.753ZM185.849 92.786L187.809 88.768L188.509 90.056L187.249 92.786H185.849ZM195.429 90.14C194.775 90.14 194.187 89.986 193.665 89.678C193.142 89.37 192.727 88.9547 192.419 88.432C192.111 87.9 191.957 87.3073 191.957 86.654C191.957 86.01 192.111 85.4313 192.419 84.918C192.727 84.3953 193.142 83.98 193.665 83.672C194.187 83.364 194.775 83.21 195.429 83.21C196.073 83.21 196.656 83.364 197.179 83.672C197.711 83.9707 198.131 84.3813 198.439 84.904C198.747 85.4267 198.901 86.01 198.901 86.654C198.901 87.3073 198.747 87.9 198.439 88.432C198.131 88.9547 197.711 89.37 197.179 89.678C196.656 89.986 196.073 90.14 195.429 90.14ZM195.429 88.922C195.849 88.922 196.222 88.824 196.549 88.628C196.875 88.432 197.132 88.166 197.319 87.83C197.505 87.4847 197.599 87.0927 197.599 86.654C197.599 86.2247 197.501 85.842 197.305 85.506C197.118 85.17 196.861 84.9087 196.535 84.722C196.217 84.526 195.849 84.428 195.429 84.428C195.009 84.428 194.635 84.526 194.309 84.722C193.982 84.9087 193.725 85.17 193.539 85.506C193.352 85.842 193.259 86.2247 193.259 86.654C193.259 87.0927 193.352 87.4847 193.539 87.83C193.725 88.166 193.982 88.432 194.309 88.628C194.635 88.824 195.009 88.922 195.429 88.922ZM202.994 90.14C202.453 90.14 201.963 90.0187 201.524 89.776C201.095 89.524 200.759 89.1787 200.516 88.74C200.274 88.3013 200.152 87.7927 200.152 87.214V83.35H201.412V87.158C201.412 87.522 201.473 87.8393 201.594 88.11C201.725 88.3713 201.912 88.572 202.154 88.712C202.397 88.852 202.682 88.922 203.008 88.922C203.503 88.922 203.89 88.768 204.17 88.46C204.45 88.1427 204.59 87.7087 204.59 87.158V83.35H205.85V87.214C205.85 87.7927 205.729 88.3013 205.486 88.74C205.244 89.1787 204.908 89.524 204.478 89.776C204.058 90.0187 203.564 90.14 202.994 90.14ZM207.539 90V83.35H208.799V90H207.539ZM208.799 86.206L208.323 85.996C208.323 85.1467 208.519 84.47 208.911 83.966C209.303 83.462 209.868 83.21 210.605 83.21C210.941 83.21 211.245 83.2707 211.515 83.392C211.786 83.504 212.038 83.6953 212.271 83.966L211.445 84.82C211.305 84.6707 211.151 84.5633 210.983 84.498C210.815 84.4327 210.619 84.4 210.395 84.4C209.929 84.4 209.546 84.5493 209.247 84.848C208.949 85.1467 208.799 85.5993 208.799 86.206ZM219.817 90.14C219.313 90.14 218.855 90.0373 218.445 89.832C218.043 89.6173 217.721 89.3233 217.479 88.95C217.236 88.5767 217.101 88.152 217.073 87.676V85.674C217.101 85.1887 217.236 84.764 217.479 84.4C217.731 84.0267 218.057 83.7373 218.459 83.532C218.869 83.3173 219.322 83.21 219.817 83.21C220.423 83.21 220.969 83.364 221.455 83.672C221.949 83.98 222.337 84.3953 222.617 84.918C222.897 85.4407 223.037 86.0287 223.037 86.682C223.037 87.3353 222.897 87.9233 222.617 88.446C222.337 88.9687 221.949 89.384 221.455 89.692C220.969 89.9907 220.423 90.14 219.817 90.14ZM216.317 92.786V83.35H217.577V85.1L217.339 86.71L217.577 88.334V92.786H216.317ZM219.607 88.95C220.027 88.95 220.395 88.852 220.713 88.656C221.03 88.46 221.282 88.194 221.469 87.858C221.655 87.5127 221.749 87.116 221.749 86.668C221.749 86.2293 221.655 85.8373 221.469 85.492C221.282 85.1467 221.03 84.8807 220.713 84.694C220.395 84.498 220.031 84.4 219.621 84.4C219.201 84.4 218.832 84.498 218.515 84.694C218.197 84.8807 217.95 85.1467 217.773 85.492C217.595 85.8373 217.507 86.234 217.507 86.682C217.507 87.1207 217.591 87.5127 217.759 87.858C217.936 88.194 218.183 88.46 218.501 88.656C218.827 88.852 219.196 88.95 219.607 88.95ZM227.293 90.14C226.686 90.14 226.136 89.9907 225.641 89.692C225.146 89.384 224.754 88.9687 224.465 88.446C224.185 87.9233 224.045 87.3353 224.045 86.682C224.045 86.0287 224.185 85.4407 224.465 84.918C224.754 84.3953 225.142 83.98 225.627 83.672C226.122 83.364 226.677 83.21 227.293 83.21C227.797 83.21 228.245 83.3173 228.637 83.532C229.038 83.7373 229.36 84.0267 229.603 84.4C229.846 84.764 229.981 85.1887 230.009 85.674V87.676C229.981 88.152 229.846 88.5767 229.603 88.95C229.37 89.3233 229.052 89.6173 228.651 89.832C228.259 90.0373 227.806 90.14 227.293 90.14ZM227.503 88.95C228.128 88.95 228.632 88.74 229.015 88.32C229.398 87.8907 229.589 87.3447 229.589 86.682C229.589 86.2247 229.5 85.828 229.323 85.492C229.155 85.1467 228.912 84.8807 228.595 84.694C228.278 84.498 227.909 84.4 227.489 84.4C227.069 84.4 226.696 84.498 226.369 84.694C226.052 84.89 225.8 85.1607 225.613 85.506C225.436 85.842 225.347 86.2293 225.347 86.668C225.347 87.116 225.436 87.5127 225.613 87.858C225.8 88.194 226.056 88.46 226.383 88.656C226.71 88.852 227.083 88.95 227.503 88.95ZM229.505 90V88.208L229.743 86.584L229.505 84.974V83.35H230.779V90H229.505ZM234.727 90.14C234.354 90.14 233.999 90.0933 233.663 90C233.337 89.8973 233.033 89.7573 232.753 89.58C232.473 89.3933 232.231 89.174 232.025 88.922L232.837 88.11C233.08 88.4087 233.36 88.6327 233.677 88.782C233.995 88.922 234.349 88.992 234.741 88.992C235.133 88.992 235.437 88.9267 235.651 88.796C235.866 88.656 235.973 88.4647 235.973 88.222C235.973 87.9793 235.885 87.7927 235.707 87.662C235.539 87.522 235.32 87.41 235.049 87.326C234.779 87.2327 234.489 87.144 234.181 87.06C233.883 86.9667 233.598 86.85 233.327 86.71C233.057 86.57 232.833 86.3787 232.655 86.136C232.487 85.8933 232.403 85.5713 232.403 85.17C232.403 84.7687 232.501 84.4233 232.697 84.134C232.893 83.8353 233.164 83.6067 233.509 83.448C233.864 83.2893 234.289 83.21 234.783 83.21C235.306 83.21 235.768 83.3033 236.169 83.49C236.58 83.6673 236.916 83.938 237.177 84.302L236.365 85.114C236.179 84.8713 235.945 84.6847 235.665 84.554C235.395 84.4233 235.087 84.358 234.741 84.358C234.377 84.358 234.097 84.4233 233.901 84.554C233.715 84.6753 233.621 84.848 233.621 85.072C233.621 85.296 233.705 85.4687 233.873 85.59C234.041 85.7113 234.261 85.814 234.531 85.898C234.811 85.982 235.101 86.0707 235.399 86.164C235.698 86.248 235.983 86.3647 236.253 86.514C236.524 86.6633 236.743 86.864 236.911 87.116C237.089 87.368 237.177 87.6993 237.177 88.11C237.177 88.7353 236.953 89.23 236.505 89.594C236.067 89.958 235.474 90.14 234.727 90.14ZM240.702 90.14C240.329 90.14 239.974 90.0933 239.638 90C239.311 89.8973 239.008 89.7573 238.728 89.58C238.448 89.3933 238.205 89.174 238 88.922L238.812 88.11C239.055 88.4087 239.335 88.6327 239.652 88.782C239.969 88.922 240.324 88.992 240.716 88.992C241.108 88.992 241.411 88.9267 241.626 88.796C241.841 88.656 241.948 88.4647 241.948 88.222C241.948 87.9793 241.859 87.7927 241.682 87.662C241.514 87.522 241.295 87.41 241.024 87.326C240.753 87.2327 240.464 87.144 240.156 87.06C239.857 86.9667 239.573 86.85 239.302 86.71C239.031 86.57 238.807 86.3787 238.63 86.136C238.462 85.8933 238.378 85.5713 238.378 85.17C238.378 84.7687 238.476 84.4233 238.672 84.134C238.868 83.8353 239.139 83.6067 239.484 83.448C239.839 83.2893 240.263 83.21 240.758 83.21C241.281 83.21 241.743 83.3033 242.144 83.49C242.555 83.6673 242.891 83.938 243.152 84.302L242.34 85.114C242.153 84.8713 241.92 84.6847 241.64 84.554C241.369 84.4233 241.061 84.358 240.716 84.358C240.352 84.358 240.072 84.4233 239.876 84.554C239.689 84.6753 239.596 84.848 239.596 85.072C239.596 85.296 239.68 85.4687 239.848 85.59C240.016 85.7113 240.235 85.814 240.506 85.898C240.786 85.982 241.075 86.0707 241.374 86.164C241.673 86.248 241.957 86.3647 242.228 86.514C242.499 86.6633 242.718 86.864 242.886 87.116C243.063 87.368 243.152 87.6993 243.152 88.11C243.152 88.7353 242.928 89.23 242.48 89.594C242.041 89.958 241.449 90.14 240.702 90.14ZM246.467 90L243.835 83.35H245.151L247.055 88.53H246.635L248.525 83.35H249.253L251.143 88.53H250.723L252.627 83.35H253.943L251.325 90H250.583L248.665 84.974H249.127L247.195 90H246.467ZM257.909 90.14C257.256 90.14 256.668 89.986 256.145 89.678C255.623 89.37 255.207 88.9547 254.899 88.432C254.591 87.9 254.437 87.3073 254.437 86.654C254.437 86.01 254.591 85.4313 254.899 84.918C255.207 84.3953 255.623 83.98 256.145 83.672C256.668 83.364 257.256 83.21 257.909 83.21C258.553 83.21 259.137 83.364 259.659 83.672C260.191 83.9707 260.611 84.3813 260.919 84.904C261.227 85.4267 261.381 86.01 261.381 86.654C261.381 87.3073 261.227 87.9 260.919 88.432C260.611 88.9547 260.191 89.37 259.659 89.678C259.137 89.986 258.553 90.14 257.909 90.14ZM257.909 88.922C258.329 88.922 258.703 88.824 259.029 88.628C259.356 88.432 259.613 88.166 259.799 87.83C259.986 87.4847 260.079 87.0927 260.079 86.654C260.079 86.2247 259.981 85.842 259.785 85.506C259.599 85.17 259.342 84.9087 259.015 84.722C258.698 84.526 258.329 84.428 257.909 84.428C257.489 84.428 257.116 84.526 256.789 84.722C256.463 84.9087 256.206 85.17 256.019 85.506C255.833 85.842 255.739 86.2247 255.739 86.654C255.739 87.0927 255.833 87.4847 256.019 87.83C256.206 88.166 256.463 88.432 256.789 88.628C257.116 88.824 257.489 88.922 257.909 88.922ZM262.801 90V83.35H264.061V90H262.801ZM264.061 86.206L263.585 85.996C263.585 85.1467 263.781 84.47 264.173 83.966C264.565 83.462 265.13 83.21 265.867 83.21C266.203 83.21 266.506 83.2707 266.777 83.392C267.048 83.504 267.3 83.6953 267.533 83.966L266.707 84.82C266.567 84.6707 266.413 84.5633 266.245 84.498C266.077 84.4327 265.881 84.4 265.657 84.4C265.19 84.4 264.808 84.5493 264.509 84.848C264.21 85.1467 264.061 85.5993 264.061 86.206ZM271.015 90.14C270.399 90.14 269.849 89.9907 269.363 89.692C268.878 89.384 268.491 88.9687 268.201 88.446C267.921 87.9233 267.781 87.3353 267.781 86.682C267.781 86.0287 267.921 85.4407 268.201 84.918C268.491 84.3953 268.878 83.98 269.363 83.672C269.849 83.364 270.399 83.21 271.015 83.21C271.51 83.21 271.958 83.3173 272.359 83.532C272.761 83.7373 273.083 84.0267 273.325 84.4C273.577 84.764 273.717 85.1887 273.745 85.674V87.676C273.717 88.152 273.582 88.5767 273.339 88.95C273.097 89.3233 272.775 89.6173 272.373 89.832C271.972 90.0373 271.519 90.14 271.015 90.14ZM271.225 88.95C271.645 88.95 272.009 88.852 272.317 88.656C272.635 88.46 272.882 88.194 273.059 87.858C273.237 87.5127 273.325 87.1207 273.325 86.682C273.325 86.2247 273.232 85.828 273.045 85.492C272.868 85.156 272.621 84.89 272.303 84.694C271.995 84.498 271.631 84.4 271.211 84.4C270.791 84.4 270.423 84.498 270.105 84.694C269.788 84.89 269.536 85.1607 269.349 85.506C269.172 85.842 269.083 86.2293 269.083 86.668C269.083 87.116 269.172 87.5127 269.349 87.858C269.536 88.194 269.788 88.46 270.105 88.656C270.432 88.852 270.805 88.95 271.225 88.95ZM274.515 90H273.241V88.208L273.479 86.584L273.241 84.974V80.004H274.515V90ZM280.284 90V80.564H281.544V90H280.284ZM278.646 84.498V83.35H283.182V84.498H278.646ZM287.249 90.14C286.596 90.14 286.008 89.986 285.485 89.678C284.962 89.37 284.547 88.9547 284.239 88.432C283.931 87.9 283.777 87.3073 283.777 86.654C283.777 86.01 283.931 85.4313 284.239 84.918C284.547 84.3953 284.962 83.98 285.485 83.672C286.008 83.364 286.596 83.21 287.249 83.21C287.893 83.21 288.476 83.364 288.999 83.672C289.531 83.9707 289.951 84.3813 290.259 84.904C290.567 85.4267 290.721 86.01 290.721 86.654C290.721 87.3073 290.567 87.9 290.259 88.432C289.951 88.9547 289.531 89.37 288.999 89.678C288.476 89.986 287.893 90.14 287.249 90.14ZM287.249 88.922C287.669 88.922 288.042 88.824 288.369 88.628C288.696 88.432 288.952 88.166 289.139 87.83C289.326 87.4847 289.419 87.0927 289.419 86.654C289.419 86.2247 289.321 85.842 289.125 85.506C288.938 85.17 288.682 84.9087 288.355 84.722C288.038 84.526 287.669 84.428 287.249 84.428C286.829 84.428 286.456 84.526 286.129 84.722C285.802 84.9087 285.546 85.17 285.359 85.506C285.172 85.842 285.079 86.2247 285.079 86.654C285.079 87.0927 285.172 87.4847 285.359 87.83C285.546 88.166 285.802 88.432 286.129 88.628C286.456 88.824 286.829 88.922 287.249 88.922ZM298.133 90.14C297.47 90.14 296.873 89.9907 296.341 89.692C295.809 89.384 295.389 88.9687 295.081 88.446C294.773 87.9233 294.619 87.3307 294.619 86.668C294.619 86.0147 294.768 85.4267 295.067 84.904C295.375 84.3813 295.786 83.9707 296.299 83.672C296.822 83.364 297.405 83.21 298.049 83.21C298.665 83.21 299.206 83.35 299.673 83.63C300.149 83.91 300.518 84.2973 300.779 84.792C301.05 85.2867 301.185 85.8467 301.185 86.472C301.185 86.5653 301.18 86.668 301.171 86.78C301.162 86.8827 301.143 87.004 301.115 87.144H295.501V86.094H300.443L299.981 86.5C299.981 86.052 299.902 85.674 299.743 85.366C299.584 85.0487 299.36 84.806 299.071 84.638C298.782 84.4607 298.432 84.372 298.021 84.372C297.592 84.372 297.214 84.4653 296.887 84.652C296.56 84.8387 296.308 85.1 296.131 85.436C295.954 85.772 295.865 86.1687 295.865 86.626C295.865 87.0927 295.958 87.5033 296.145 87.858C296.332 88.2033 296.598 88.474 296.943 88.67C297.288 88.8567 297.685 88.95 298.133 88.95C298.506 88.95 298.847 88.8847 299.155 88.754C299.472 88.6233 299.743 88.4273 299.967 88.166L300.779 88.992C300.462 89.3653 300.07 89.65 299.603 89.846C299.146 90.042 298.656 90.14 298.133 90.14ZM307.263 90V86.122C307.263 85.618 307.104 85.2027 306.787 84.876C306.469 84.5493 306.059 84.386 305.555 84.386C305.219 84.386 304.92 84.4607 304.659 84.61C304.397 84.7593 304.192 84.9647 304.043 85.226C303.893 85.4873 303.819 85.786 303.819 86.122L303.301 85.828C303.301 85.324 303.413 84.876 303.637 84.484C303.861 84.092 304.173 83.784 304.575 83.56C304.976 83.3267 305.429 83.21 305.933 83.21C306.437 83.21 306.88 83.336 307.263 83.588C307.655 83.84 307.963 84.1713 308.187 84.582C308.411 84.9833 308.523 85.4127 308.523 85.87V90H307.263ZM302.559 90V83.35H303.819V90H302.559ZM312.343 90.14C311.969 90.14 311.615 90.0933 311.279 90C310.952 89.8973 310.649 89.7573 310.369 89.58C310.089 89.3933 309.846 89.174 309.641 88.922L310.453 88.11C310.695 88.4087 310.975 88.6327 311.293 88.782C311.61 88.922 311.965 88.992 312.357 88.992C312.749 88.992 313.052 88.9267 313.267 88.796C313.481 88.656 313.589 88.4647 313.589 88.222C313.589 87.9793 313.5 87.7927 313.323 87.662C313.155 87.522 312.935 87.41 312.665 87.326C312.394 87.2327 312.105 87.144 311.797 87.06C311.498 86.9667 311.213 86.85 310.943 86.71C310.672 86.57 310.448 86.3787 310.271 86.136C310.103 85.8933 310.019 85.5713 310.019 85.17C310.019 84.7687 310.117 84.4233 310.313 84.134C310.509 83.8353 310.779 83.6067 311.125 83.448C311.479 83.2893 311.904 83.21 312.399 83.21C312.921 83.21 313.383 83.3033 313.785 83.49C314.195 83.6673 314.531 83.938 314.793 84.302L313.981 85.114C313.794 84.8713 313.561 84.6847 313.281 84.554C313.01 84.4233 312.702 84.358 312.357 84.358C311.993 84.358 311.713 84.4233 311.517 84.554C311.33 84.6753 311.237 84.848 311.237 85.072C311.237 85.296 311.321 85.4687 311.489 85.59C311.657 85.7113 311.876 85.814 312.147 85.898C312.427 85.982 312.716 86.0707 313.015 86.164C313.313 86.248 313.598 86.3647 313.869 86.514C314.139 86.6633 314.359 86.864 314.527 87.116C314.704 87.368 314.793 87.6993 314.793 88.11C314.793 88.7353 314.569 89.23 314.121 89.594C313.682 89.958 313.089 90.14 312.343 90.14ZM318.877 90.14C318.336 90.14 317.846 90.0187 317.407 89.776C316.978 89.524 316.642 89.1787 316.399 88.74C316.157 88.3013 316.035 87.7927 316.035 87.214V83.35H317.295V87.158C317.295 87.522 317.356 87.8393 317.477 88.11C317.608 88.3713 317.795 88.572 318.037 88.712C318.28 88.852 318.565 88.922 318.891 88.922C319.386 88.922 319.773 88.768 320.053 88.46C320.333 88.1427 320.473 87.7087 320.473 87.158V83.35H321.733V87.214C321.733 87.7927 321.612 88.3013 321.369 88.74C321.127 89.1787 320.791 89.524 320.361 89.776C319.941 90.0187 319.447 90.14 318.877 90.14ZM323.422 90V83.35H324.682V90H323.422ZM324.682 86.206L324.206 85.996C324.206 85.1467 324.402 84.47 324.794 83.966C325.186 83.462 325.751 83.21 326.488 83.21C326.824 83.21 327.127 83.2707 327.398 83.392C327.669 83.504 327.921 83.6953 328.154 83.966L327.328 84.82C327.188 84.6707 327.034 84.5633 326.866 84.498C326.698 84.4327 326.502 84.4 326.278 84.4C325.811 84.4 325.429 84.5493 325.13 84.848C324.831 85.1467 324.682 85.5993 324.682 86.206ZM331.902 90.14C331.24 90.14 330.642 89.9907 330.11 89.692C329.578 89.384 329.158 88.9687 328.85 88.446C328.542 87.9233 328.388 87.3307 328.388 86.668C328.388 86.0147 328.538 85.4267 328.836 84.904C329.144 84.3813 329.555 83.9707 330.068 83.672C330.591 83.364 331.174 83.21 331.818 83.21C332.434 83.21 332.976 83.35 333.442 83.63C333.918 83.91 334.287 84.2973 334.548 84.792C334.819 85.2867 334.954 85.8467 334.954 86.472C334.954 86.5653 334.95 86.668 334.94 86.78C334.931 86.8827 334.912 87.004 334.884 87.144H329.27V86.094H334.212L333.75 86.5C333.75 86.052 333.671 85.674 333.512 85.366C333.354 85.0487 333.13 84.806 332.84 84.638C332.551 84.4607 332.201 84.372 331.79 84.372C331.361 84.372 330.983 84.4653 330.656 84.652C330.33 84.8387 330.078 85.1 329.9 85.436C329.723 85.772 329.634 86.1687 329.634 86.626C329.634 87.0927 329.728 87.5033 329.914 87.858C330.101 88.2033 330.367 88.474 330.712 88.67C331.058 88.8567 331.454 88.95 331.902 88.95C332.276 88.95 332.616 88.8847 332.924 88.754C333.242 88.6233 333.512 88.4273 333.736 88.166L334.548 88.992C334.231 89.3653 333.839 89.65 333.372 89.846C332.915 90.042 332.425 90.14 331.902 90.14ZM97.108 111.056L94.224 104.35H95.624L97.766 109.6H97.318L99.572 104.35H100.972L97.864 111.056H97.108ZM95.204 113.786L97.164 109.768L97.864 111.056L96.604 113.786H95.204ZM104.784 111.14C104.131 111.14 103.543 110.986 103.02 110.678C102.498 110.37 102.082 109.955 101.774 109.432C101.466 108.9 101.312 108.307 101.312 107.654C101.312 107.01 101.466 106.431 101.774 105.918C102.082 105.395 102.498 104.98 103.02 104.672C103.543 104.364 104.131 104.21 104.784 104.21C105.428 104.21 106.012 104.364 106.534 104.672C107.066 104.971 107.486 105.381 107.794 105.904C108.102 106.427 108.256 107.01 108.256 107.654C108.256 108.307 108.102 108.9 107.794 109.432C107.486 109.955 107.066 110.37 106.534 110.678C106.012 110.986 105.428 111.14 104.784 111.14ZM104.784 109.922C105.204 109.922 105.578 109.824 105.904 109.628C106.231 109.432 106.488 109.166 106.674 108.83C106.861 108.485 106.954 108.093 106.954 107.654C106.954 107.225 106.856 106.842 106.66 106.506C106.474 106.17 106.217 105.909 105.89 105.722C105.573 105.526 105.204 105.428 104.784 105.428C104.364 105.428 103.991 105.526 103.664 105.722C103.338 105.909 103.081 106.17 102.894 106.506C102.708 106.842 102.614 107.225 102.614 107.654C102.614 108.093 102.708 108.485 102.894 108.83C103.081 109.166 103.338 109.432 103.664 109.628C103.991 109.824 104.364 109.922 104.784 109.922ZM112.35 111.14C111.809 111.14 111.319 111.019 110.88 110.776C110.451 110.524 110.115 110.179 109.872 109.74C109.629 109.301 109.508 108.793 109.508 108.214V104.35H110.768V108.158C110.768 108.522 110.829 108.839 110.95 109.11C111.081 109.371 111.267 109.572 111.51 109.712C111.753 109.852 112.037 109.922 112.364 109.922C112.859 109.922 113.246 109.768 113.526 109.46C113.806 109.143 113.946 108.709 113.946 108.158V104.35H115.206V108.214C115.206 108.793 115.085 109.301 114.842 109.74C114.599 110.179 114.263 110.524 113.834 110.776C113.414 111.019 112.919 111.14 112.35 111.14ZM116.895 111V104.35H118.155V111H116.895ZM118.155 107.206L117.679 106.996C117.679 106.147 117.875 105.47 118.267 104.966C118.659 104.462 119.223 104.21 119.961 104.21C120.297 104.21 120.6 104.271 120.871 104.392C121.141 104.504 121.393 104.695 121.627 104.966L120.801 105.82C120.661 105.671 120.507 105.563 120.339 105.498C120.171 105.433 119.975 105.4 119.751 105.4C119.284 105.4 118.901 105.549 118.603 105.848C118.304 106.147 118.155 106.599 118.155 107.206ZM128.5 111.14C127.893 111.14 127.343 110.991 126.848 110.692C126.353 110.384 125.961 109.969 125.672 109.446C125.392 108.923 125.252 108.335 125.252 107.682C125.252 107.029 125.392 106.441 125.672 105.918C125.961 105.395 126.349 104.98 126.834 104.672C127.329 104.364 127.884 104.21 128.5 104.21C129.004 104.21 129.452 104.317 129.844 104.532C130.245 104.737 130.567 105.027 130.81 105.4C131.053 105.764 131.188 106.189 131.216 106.674V108.676C131.188 109.152 131.053 109.577 130.81 109.95C130.577 110.323 130.259 110.617 129.858 110.832C129.466 111.037 129.013 111.14 128.5 111.14ZM128.71 109.95C129.335 109.95 129.839 109.74 130.222 109.32C130.605 108.891 130.796 108.345 130.796 107.682C130.796 107.225 130.707 106.828 130.53 106.492C130.362 106.147 130.119 105.881 129.802 105.694C129.485 105.498 129.116 105.4 128.696 105.4C128.276 105.4 127.903 105.498 127.576 105.694C127.259 105.89 127.007 106.161 126.82 106.506C126.643 106.842 126.554 107.229 126.554 107.668C126.554 108.116 126.643 108.513 126.82 108.858C127.007 109.194 127.263 109.46 127.59 109.656C127.917 109.852 128.29 109.95 128.71 109.95ZM130.712 111V109.208L130.95 107.584L130.712 105.974V104.35H131.986V111H130.712ZM136.858 111.14C136.205 111.14 135.612 110.986 135.08 110.678C134.558 110.37 134.142 109.955 133.834 109.432C133.536 108.9 133.386 108.312 133.386 107.668C133.386 107.015 133.536 106.427 133.834 105.904C134.142 105.381 134.558 104.971 135.08 104.672C135.612 104.364 136.205 104.21 136.858 104.21C137.372 104.21 137.848 104.308 138.286 104.504C138.725 104.691 139.103 104.966 139.42 105.33L138.58 106.17C138.375 105.927 138.123 105.745 137.824 105.624C137.535 105.493 137.213 105.428 136.858 105.428C136.438 105.428 136.065 105.526 135.738 105.722C135.412 105.909 135.155 106.17 134.968 106.506C134.782 106.842 134.688 107.229 134.688 107.668C134.688 108.107 134.782 108.494 134.968 108.83C135.155 109.166 135.412 109.432 135.738 109.628C136.065 109.824 136.438 109.922 136.858 109.922C137.213 109.922 137.535 109.861 137.824 109.74C138.123 109.609 138.38 109.423 138.594 109.18L139.42 110.02C139.112 110.375 138.734 110.65 138.286 110.846C137.848 111.042 137.372 111.14 136.858 111.14ZM143.571 111.14C142.918 111.14 142.325 110.986 141.793 110.678C141.271 110.37 140.855 109.955 140.547 109.432C140.249 108.9 140.099 108.312 140.099 107.668C140.099 107.015 140.249 106.427 140.547 105.904C140.855 105.381 141.271 104.971 141.793 104.672C142.325 104.364 142.918 104.21 143.571 104.21C144.085 104.21 144.561 104.308 144.999 104.504C145.438 104.691 145.816 104.966 146.133 105.33L145.293 106.17C145.088 105.927 144.836 105.745 144.537 105.624C144.248 105.493 143.926 105.428 143.571 105.428C143.151 105.428 142.778 105.526 142.451 105.722C142.125 105.909 141.868 106.17 141.681 106.506C141.495 106.842 141.401 107.229 141.401 107.668C141.401 108.107 141.495 108.494 141.681 108.83C141.868 109.166 142.125 109.432 142.451 109.628C142.778 109.824 143.151 109.922 143.571 109.922C143.926 109.922 144.248 109.861 144.537 109.74C144.836 109.609 145.093 109.423 145.307 109.18L146.133 110.02C145.825 110.375 145.447 110.65 144.999 110.846C144.561 111.042 144.085 111.14 143.571 111.14ZM150.284 111.14C149.631 111.14 149.043 110.986 148.52 110.678C147.998 110.37 147.582 109.955 147.274 109.432C146.966 108.9 146.812 108.307 146.812 107.654C146.812 107.01 146.966 106.431 147.274 105.918C147.582 105.395 147.998 104.98 148.52 104.672C149.043 104.364 149.631 104.21 150.284 104.21C150.928 104.21 151.512 104.364 152.034 104.672C152.566 104.971 152.986 105.381 153.294 105.904C153.602 106.427 153.756 107.01 153.756 107.654C153.756 108.307 153.602 108.9 153.294 109.432C152.986 109.955 152.566 110.37 152.034 110.678C151.512 110.986 150.928 111.14 150.284 111.14ZM150.284 109.922C150.704 109.922 151.078 109.824 151.404 109.628C151.731 109.432 151.988 109.166 152.174 108.83C152.361 108.485 152.454 108.093 152.454 107.654C152.454 107.225 152.356 106.842 152.16 106.506C151.974 106.17 151.717 105.909 151.39 105.722C151.073 105.526 150.704 105.428 150.284 105.428C149.864 105.428 149.491 105.526 149.164 105.722C148.838 105.909 148.581 106.17 148.394 106.506C148.208 106.842 148.114 107.225 148.114 107.654C148.114 108.093 148.208 108.485 148.394 108.83C148.581 109.166 148.838 109.432 149.164 109.628C149.491 109.824 149.864 109.922 150.284 109.922ZM157.85 111.14C157.309 111.14 156.819 111.019 156.38 110.776C155.951 110.524 155.615 110.179 155.372 109.74C155.129 109.301 155.008 108.793 155.008 108.214V104.35H156.268V108.158C156.268 108.522 156.329 108.839 156.45 109.11C156.581 109.371 156.767 109.572 157.01 109.712C157.253 109.852 157.537 109.922 157.864 109.922C158.359 109.922 158.746 109.768 159.026 109.46C159.306 109.143 159.446 108.709 159.446 108.158V104.35H160.706V108.214C160.706 108.793 160.585 109.301 160.342 109.74C160.099 110.179 159.763 110.524 159.334 110.776C158.914 111.019 158.419 111.14 157.85 111.14ZM167.099 111V107.122C167.099 106.618 166.94 106.203 166.623 105.876C166.305 105.549 165.895 105.386 165.391 105.386C165.055 105.386 164.756 105.461 164.495 105.61C164.233 105.759 164.028 105.965 163.879 106.226C163.729 106.487 163.655 106.786 163.655 107.122L163.137 106.828C163.137 106.324 163.249 105.876 163.473 105.484C163.697 105.092 164.009 104.784 164.411 104.56C164.812 104.327 165.265 104.21 165.769 104.21C166.273 104.21 166.716 104.336 167.099 104.588C167.491 104.84 167.799 105.171 168.023 105.582C168.247 105.983 168.359 106.413 168.359 106.87V111H167.099ZM162.395 111V104.35H163.655V111H162.395ZM171.005 111V101.564H172.265V111H171.005ZM169.367 105.498V104.35H173.903V105.498H169.367ZM180.163 111.14C179.79 111.14 179.435 111.093 179.099 111C178.772 110.897 178.469 110.757 178.189 110.58C177.909 110.393 177.666 110.174 177.461 109.922L178.273 109.11C178.516 109.409 178.796 109.633 179.113 109.782C179.43 109.922 179.785 109.992 180.177 109.992C180.569 109.992 180.872 109.927 181.087 109.796C181.302 109.656 181.409 109.465 181.409 109.222C181.409 108.979 181.32 108.793 181.143 108.662C180.975 108.522 180.756 108.41 180.485 108.326C180.214 108.233 179.925 108.144 179.617 108.06C179.318 107.967 179.034 107.85 178.763 107.71C178.492 107.57 178.268 107.379 178.091 107.136C177.923 106.893 177.839 106.571 177.839 106.17C177.839 105.769 177.937 105.423 178.133 105.134C178.329 104.835 178.6 104.607 178.945 104.448C179.3 104.289 179.724 104.21 180.219 104.21C180.742 104.21 181.204 104.303 181.605 104.49C182.016 104.667 182.352 104.938 182.613 105.302L181.801 106.114C181.614 105.871 181.381 105.685 181.101 105.554C180.83 105.423 180.522 105.358 180.177 105.358C179.813 105.358 179.533 105.423 179.337 105.554C179.15 105.675 179.057 105.848 179.057 106.072C179.057 106.296 179.141 106.469 179.309 106.59C179.477 106.711 179.696 106.814 179.967 106.898C180.247 106.982 180.536 107.071 180.835 107.164C181.134 107.248 181.418 107.365 181.689 107.514C181.96 107.663 182.179 107.864 182.347 108.116C182.524 108.368 182.613 108.699 182.613 109.11C182.613 109.735 182.389 110.23 181.941 110.594C181.502 110.958 180.91 111.14 180.163 111.14ZM187.104 111.14C186.441 111.14 185.844 110.991 185.312 110.692C184.78 110.384 184.36 109.969 184.052 109.446C183.744 108.923 183.59 108.331 183.59 107.668C183.59 107.015 183.739 106.427 184.038 105.904C184.346 105.381 184.756 104.971 185.27 104.672C185.792 104.364 186.376 104.21 187.02 104.21C187.636 104.21 188.177 104.35 188.644 104.63C189.12 104.91 189.488 105.297 189.75 105.792C190.02 106.287 190.156 106.847 190.156 107.472C190.156 107.565 190.151 107.668 190.142 107.78C190.132 107.883 190.114 108.004 190.086 108.144H184.472V107.094H189.414L188.952 107.5C188.952 107.052 188.872 106.674 188.714 106.366C188.555 106.049 188.331 105.806 188.042 105.638C187.752 105.461 187.402 105.372 186.992 105.372C186.562 105.372 186.184 105.465 185.858 105.652C185.531 105.839 185.279 106.1 185.102 106.436C184.924 106.772 184.836 107.169 184.836 107.626C184.836 108.093 184.929 108.503 185.116 108.858C185.302 109.203 185.568 109.474 185.914 109.67C186.259 109.857 186.656 109.95 187.104 109.95C187.477 109.95 187.818 109.885 188.126 109.754C188.443 109.623 188.714 109.427 188.938 109.166L189.75 109.992C189.432 110.365 189.04 110.65 188.574 110.846C188.116 111.042 187.626 111.14 187.104 111.14ZM194.567 111.14C193.914 111.14 193.321 110.986 192.789 110.678C192.267 110.37 191.851 109.955 191.543 109.432C191.245 108.9 191.095 108.312 191.095 107.668C191.095 107.015 191.245 106.427 191.543 105.904C191.851 105.381 192.267 104.971 192.789 104.672C193.321 104.364 193.914 104.21 194.567 104.21C195.081 104.21 195.557 104.308 195.995 104.504C196.434 104.691 196.812 104.966 197.129 105.33L196.289 106.17C196.084 105.927 195.832 105.745 195.533 105.624C195.244 105.493 194.922 105.428 194.567 105.428C194.147 105.428 193.774 105.526 193.447 105.722C193.121 105.909 192.864 106.17 192.677 106.506C192.491 106.842 192.397 107.229 192.397 107.668C192.397 108.107 192.491 108.494 192.677 108.83C192.864 109.166 193.121 109.432 193.447 109.628C193.774 109.824 194.147 109.922 194.567 109.922C194.922 109.922 195.244 109.861 195.533 109.74C195.832 109.609 196.089 109.423 196.303 109.18L197.129 110.02C196.821 110.375 196.443 110.65 195.995 110.846C195.557 111.042 195.081 111.14 194.567 111.14ZM201.053 111.14C200.512 111.14 200.022 111.019 199.583 110.776C199.154 110.524 198.818 110.179 198.575 109.74C198.332 109.301 198.211 108.793 198.211 108.214V104.35H199.471V108.158C199.471 108.522 199.532 108.839 199.653 109.11C199.784 109.371 199.97 109.572 200.213 109.712C200.456 109.852 200.74 109.922 201.067 109.922C201.562 109.922 201.949 109.768 202.229 109.46C202.509 109.143 202.649 108.709 202.649 108.158V104.35H203.909V108.214C203.909 108.793 203.788 109.301 203.545 109.74C203.302 110.179 202.966 110.524 202.537 110.776C202.117 111.019 201.622 111.14 201.053 111.14ZM205.598 111V104.35H206.858V111H205.598ZM206.858 107.206L206.382 106.996C206.382 106.147 206.578 105.47 206.97 104.966C207.362 104.462 207.926 104.21 208.664 104.21C209 104.21 209.303 104.271 209.574 104.392C209.844 104.504 210.096 104.695 210.33 104.966L209.504 105.82C209.364 105.671 209.21 105.563 209.042 105.498C208.874 105.433 208.678 105.4 208.454 105.4C207.987 105.4 207.604 105.549 207.306 105.848C207.007 106.147 206.858 106.599 206.858 107.206ZM211.231 111V104.35H212.491V111H211.231ZM211.861 103.02C211.628 103.02 211.436 102.945 211.287 102.796C211.138 102.637 211.063 102.441 211.063 102.208C211.063 101.984 211.138 101.797 211.287 101.648C211.436 101.489 211.628 101.41 211.861 101.41C212.094 101.41 212.286 101.489 212.435 101.648C212.584 101.797 212.659 101.984 212.659 102.208C212.659 102.441 212.584 102.637 212.435 102.796C212.286 102.945 212.094 103.02 211.861 103.02ZM215.37 111V101.564H216.63V111H215.37ZM213.732 105.498V104.35H218.268V105.498H213.732ZM221.686 111.056L218.802 104.35H220.202L222.344 109.6H221.896L224.15 104.35H225.55L222.442 111.056H221.686ZM219.782 113.786L221.742 109.768L222.442 111.056L221.182 113.786H219.782ZM226.843 111.14C226.581 111.14 226.362 111.051 226.185 110.874C226.017 110.687 225.933 110.468 225.933 110.216C225.933 109.955 226.017 109.74 226.185 109.572C226.362 109.395 226.581 109.306 226.843 109.306C227.104 109.306 227.319 109.395 227.487 109.572C227.664 109.74 227.753 109.955 227.753 110.216C227.753 110.468 227.664 110.687 227.487 110.874C227.319 111.051 227.104 111.14 226.843 111.14Z" fill="#F1F2F4"/>
<path d="M94 148C94 144.28 94 142.42 94.4089 140.894C95.5185 136.753 98.7531 133.518 102.894 132.409C104.42 132 106.28 132 110 132H148C151.72 132 153.58 132 155.106 132.409C159.247 133.518 162.482 136.753 163.591 140.894C164 142.42 164 144.28 164 148V148C164 151.72 164 153.58 163.591 155.106C162.482 159.247 159.247 162.482 155.106 163.591C153.58 164 151.72 164 148 164H110C106.28 164 104.42 164 102.894 163.591C98.7531 162.482 95.5185 159.247 94.4089 155.106C94 153.58 94 151.72 94 148V148Z" fill="#6061EE"/>
<path d="M107.903 154.16C107.061 154.16 106.303 153.968 105.631 153.584C104.959 153.2 104.426 152.677 104.031 152.016C103.647 151.344 103.455 150.587 103.455 149.744V142.8H105.295V149.728C105.295 150.272 105.407 150.747 105.631 151.152C105.866 151.547 106.181 151.856 106.575 152.08C106.97 152.293 107.413 152.4 107.903 152.4C108.405 152.4 108.847 152.293 109.231 152.08C109.615 151.856 109.919 151.547 110.143 151.152C110.367 150.747 110.479 150.277 110.479 149.744V142.8H112.319V149.76C112.319 150.603 112.127 151.355 111.743 152.016C111.359 152.677 110.837 153.2 110.175 153.584C109.514 153.968 108.757 154.16 107.903 154.16ZM118.502 154.16C117.915 154.16 117.393 154.037 116.934 153.792C116.475 153.536 116.113 153.189 115.846 152.752C115.59 152.315 115.462 151.819 115.462 151.264V149.056C115.462 148.501 115.595 148.005 115.862 147.568C116.129 147.131 116.491 146.789 116.95 146.544C117.409 146.288 117.926 146.16 118.502 146.16C119.195 146.16 119.819 146.341 120.374 146.704C120.939 147.056 121.382 147.536 121.702 148.144C122.033 148.741 122.198 149.419 122.198 150.176C122.198 150.923 122.033 151.6 121.702 152.208C121.382 152.805 120.939 153.28 120.374 153.632C119.819 153.984 119.195 154.16 118.502 154.16ZM114.39 157.2V146.32H116.15V148.384L115.846 150.256L116.15 152.112V157.2H114.39ZM118.214 152.496C118.641 152.496 119.014 152.4 119.334 152.208C119.665 152.005 119.921 151.728 120.102 151.376C120.294 151.024 120.39 150.619 120.39 150.16C120.39 149.701 120.294 149.296 120.102 148.944C119.921 148.592 119.665 148.32 119.334 148.128C119.014 147.925 118.641 147.824 118.214 147.824C117.787 147.824 117.409 147.925 117.078 148.128C116.747 148.32 116.491 148.592 116.31 148.944C116.129 149.296 116.038 149.701 116.038 150.16C116.038 150.619 116.129 151.024 116.31 151.376C116.491 151.728 116.747 152.005 117.078 152.208C117.409 152.4 117.787 152.496 118.214 152.496ZM126.887 154.16C126.194 154.16 125.565 153.984 124.999 153.632C124.445 153.28 124.002 152.805 123.671 152.208C123.351 151.6 123.191 150.923 123.191 150.176C123.191 149.419 123.351 148.741 123.671 148.144C124.002 147.536 124.445 147.056 124.999 146.704C125.565 146.341 126.194 146.16 126.887 146.16C127.474 146.16 127.991 146.288 128.439 146.544C128.898 146.789 129.261 147.131 129.527 147.568C129.794 148.005 129.927 148.501 129.927 149.056V151.264C129.927 151.819 129.794 152.315 129.527 152.752C129.271 153.189 128.914 153.536 128.455 153.792C127.997 154.037 127.474 154.16 126.887 154.16ZM127.175 152.496C127.613 152.496 127.991 152.4 128.311 152.208C128.642 152.005 128.898 151.728 129.079 151.376C129.261 151.024 129.351 150.619 129.351 150.16C129.351 149.701 129.261 149.296 129.079 148.944C128.898 148.592 128.642 148.32 128.311 148.128C127.991 147.925 127.613 147.824 127.175 147.824C126.749 147.824 126.37 147.925 126.039 148.128C125.719 148.32 125.463 148.592 125.271 148.944C125.09 149.296 124.999 149.701 124.999 150.16C124.999 150.619 125.09 151.024 125.271 151.376C125.463 151.728 125.719 152.005 126.039 152.208C126.37 152.4 126.749 152.496 127.175 152.496ZM130.999 154H129.239V151.936L129.543 150.064L129.239 148.208V142.48H130.999V154ZM136.169 154.16C135.475 154.16 134.846 153.984 134.281 153.632C133.726 153.28 133.283 152.805 132.953 152.208C132.633 151.6 132.473 150.923 132.473 150.176C132.473 149.419 132.633 148.741 132.953 148.144C133.283 147.536 133.726 147.056 134.281 146.704C134.846 146.341 135.475 146.16 136.169 146.16C136.755 146.16 137.273 146.288 137.721 146.544C138.179 146.789 138.542 147.131 138.809 147.568C139.075 148.005 139.209 148.501 139.209 149.056V151.264C139.209 151.819 139.075 152.315 138.809 152.752C138.553 153.189 138.195 153.536 137.737 153.792C137.278 154.037 136.755 154.16 136.169 154.16ZM136.457 152.496C137.107 152.496 137.63 152.277 138.025 151.84C138.43 151.403 138.633 150.843 138.633 150.16C138.633 149.701 138.542 149.296 138.361 148.944C138.179 148.592 137.923 148.32 137.593 148.128C137.273 147.925 136.894 147.824 136.457 147.824C136.03 147.824 135.651 147.925 135.321 148.128C135.001 148.32 134.745 148.592 134.553 148.944C134.371 149.296 134.281 149.701 134.281 150.16C134.281 150.619 134.371 151.024 134.553 151.376C134.745 151.728 135.001 152.005 135.321 152.208C135.651 152.4 136.03 152.496 136.457 152.496ZM138.521 154V151.936L138.825 150.064L138.521 148.208V146.32H140.281V154H138.521ZM143.402 154V143.12H145.162V154H143.402ZM141.562 147.92V146.32H147.002V147.92H141.562ZM151.63 154.16C150.862 154.16 150.169 153.989 149.55 153.648C148.942 153.296 148.457 152.816 148.094 152.208C147.742 151.6 147.566 150.917 147.566 150.16C147.566 149.403 147.742 148.725 148.094 148.128C148.446 147.52 148.921 147.04 149.518 146.688C150.126 146.336 150.798 146.16 151.534 146.16C152.249 146.16 152.878 146.325 153.422 146.656C153.977 146.987 154.409 147.44 154.718 148.016C155.038 148.592 155.198 149.248 155.198 149.984C155.198 150.112 155.187 150.245 155.166 150.384C155.155 150.512 155.134 150.656 155.102 150.816H148.798V149.376H154.19L153.534 149.952C153.513 149.483 153.422 149.088 153.262 148.768C153.102 148.448 152.873 148.203 152.574 148.032C152.286 147.861 151.929 147.776 151.502 147.776C151.054 147.776 150.665 147.872 150.334 148.064C150.003 148.256 149.747 148.528 149.566 148.88C149.385 149.221 149.294 149.632 149.294 150.112C149.294 150.592 149.39 151.013 149.582 151.376C149.774 151.739 150.046 152.021 150.398 152.224C150.75 152.416 151.155 152.512 151.614 152.512C152.009 152.512 152.371 152.443 152.702 152.304C153.043 152.165 153.331 151.963 153.566 151.696L154.686 152.832C154.313 153.269 153.859 153.6 153.326 153.824C152.793 154.048 152.227 154.16 151.63 154.16Z" fill="white"/>
<path d="M186.46 154.16C185.65 154.16 184.898 154.016 184.204 153.728C183.522 153.429 182.924 153.019 182.412 152.496C181.9 151.963 181.506 151.349 181.228 150.656C180.951 149.952 180.812 149.2 180.812 148.4C180.812 147.6 180.951 146.853 181.228 146.16C181.506 145.456 181.9 144.843 182.412 144.32C182.924 143.797 183.522 143.387 184.204 143.088C184.898 142.789 185.65 142.64 186.46 142.64C187.367 142.64 188.151 142.789 188.812 143.088C189.474 143.387 190.06 143.792 190.572 144.304L189.324 145.552C188.994 145.189 188.588 144.907 188.108 144.704C187.639 144.501 187.09 144.4 186.46 144.4C185.906 144.4 185.399 144.496 184.94 144.688C184.482 144.88 184.082 145.157 183.74 145.52C183.41 145.872 183.154 146.293 182.972 146.784C182.791 147.275 182.7 147.813 182.7 148.4C182.7 148.987 182.791 149.525 182.972 150.016C183.154 150.507 183.41 150.933 183.74 151.296C184.082 151.648 184.482 151.92 184.94 152.112C185.399 152.304 185.906 152.4 186.46 152.4C187.143 152.4 187.719 152.299 188.188 152.096C188.668 151.883 189.074 151.595 189.404 151.232L190.652 152.48C190.14 153.003 189.538 153.413 188.844 153.712C188.151 154.011 187.356 154.16 186.46 154.16ZM195.036 154.16C194.342 154.16 193.713 153.984 193.148 153.632C192.593 153.28 192.15 152.805 191.82 152.208C191.5 151.6 191.34 150.923 191.34 150.176C191.34 149.419 191.5 148.741 191.82 148.144C192.15 147.536 192.593 147.056 193.148 146.704C193.713 146.341 194.342 146.16 195.036 146.16C195.622 146.16 196.14 146.288 196.588 146.544C197.046 146.789 197.409 147.131 197.676 147.568C197.942 148.005 198.076 148.501 198.076 149.056V151.264C198.076 151.819 197.942 152.315 197.676 152.752C197.42 153.189 197.062 153.536 196.604 153.792C196.145 154.037 195.622 154.16 195.036 154.16ZM195.324 152.496C195.974 152.496 196.497 152.277 196.892 151.84C197.297 151.403 197.5 150.843 197.5 150.16C197.5 149.701 197.409 149.296 197.228 148.944C197.046 148.592 196.79 148.32 196.46 148.128C196.14 147.925 195.761 147.824 195.324 147.824C194.897 147.824 194.518 147.925 194.188 148.128C193.868 148.32 193.612 148.592 193.42 148.944C193.238 149.296 193.148 149.701 193.148 150.16C193.148 150.619 193.238 151.024 193.42 151.376C193.612 151.728 193.868 152.005 194.188 152.208C194.518 152.4 194.897 152.496 195.324 152.496ZM197.388 154V151.936L197.692 150.064L197.388 148.208V146.32H199.148V154H197.388ZM206.365 154V149.568C206.365 149.056 206.2 148.635 205.869 148.304C205.549 147.973 205.133 147.808 204.621 147.808C204.28 147.808 203.976 147.883 203.709 148.032C203.442 148.181 203.234 148.389 203.085 148.656C202.936 148.923 202.861 149.227 202.861 149.568L202.173 149.184C202.173 148.597 202.301 148.08 202.557 147.632C202.813 147.173 203.165 146.816 203.613 146.56C204.072 146.293 204.584 146.16 205.149 146.16C205.725 146.16 206.237 146.309 206.685 146.608C207.133 146.896 207.485 147.275 207.741 147.744C207.997 148.203 208.125 148.683 208.125 149.184V154H206.365ZM201.101 154V146.32H202.861V154H201.101ZM213.45 154.16C212.692 154.16 212.004 153.984 211.386 153.632C210.778 153.28 210.298 152.8 209.946 152.192C209.594 151.584 209.418 150.907 209.418 150.16C209.418 149.403 209.594 148.725 209.946 148.128C210.298 147.52 210.778 147.04 211.386 146.688C212.004 146.336 212.692 146.16 213.45 146.16C214.047 146.16 214.602 146.277 215.114 146.512C215.636 146.736 216.079 147.061 216.442 147.488L215.29 148.656C215.066 148.389 214.794 148.192 214.474 148.064C214.164 147.925 213.823 147.856 213.45 147.856C213.012 147.856 212.623 147.957 212.282 148.16C211.951 148.352 211.69 148.619 211.498 148.96C211.316 149.301 211.226 149.701 211.226 150.16C211.226 150.608 211.316 151.008 211.498 151.36C211.69 151.701 211.951 151.973 212.282 152.176C212.623 152.368 213.012 152.464 213.45 152.464C213.823 152.464 214.164 152.4 214.474 152.272C214.794 152.133 215.066 151.931 215.29 151.664L216.442 152.832C216.079 153.259 215.636 153.589 215.114 153.824C214.602 154.048 214.047 154.16 213.45 154.16ZM221.122 154.16C220.354 154.16 219.661 153.989 219.042 153.648C218.434 153.296 217.949 152.816 217.586 152.208C217.234 151.6 217.058 150.917 217.058 150.16C217.058 149.403 217.234 148.725 217.586 148.128C217.938 147.52 218.413 147.04 219.01 146.688C219.618 146.336 220.29 146.16 221.026 146.16C221.741 146.16 222.37 146.325 222.914 146.656C223.469 146.987 223.901 147.44 224.21 148.016C224.53 148.592 224.69 149.248 224.69 149.984C224.69 150.112 224.679 150.245 224.658 150.384C224.647 150.512 224.626 150.656 224.594 150.816H218.29V149.376H223.682L223.026 149.952C223.005 149.483 222.914 149.088 222.754 148.768C222.594 148.448 222.365 148.203 222.066 148.032C221.778 147.861 221.421 147.776 220.994 147.776C220.546 147.776 220.157 147.872 219.826 148.064C219.495 148.256 219.239 148.528 219.058 148.88C218.877 149.221 218.786 149.632 218.786 150.112C218.786 150.592 218.882 151.013 219.074 151.376C219.266 151.739 219.538 152.021 219.89 152.224C220.242 152.416 220.647 152.512 221.106 152.512C221.501 152.512 221.863 152.443 222.194 152.304C222.535 152.165 222.823 151.963 223.058 151.696L224.178 152.832C223.805 153.269 223.351 153.6 222.818 153.824C222.285 154.048 221.719 154.16 221.122 154.16ZM226.101 154V142.48H227.861V154H226.101Z" fill="#6061EE"/>
</g>
<defs>
<filter id="filter0_d_5240_231011" x="0" y="0" width="404" height="242" filterUnits="userSpaceOnUse" color-interpolation-filters="sRGB">
<feFlood flood-opacity="0" result="BackgroundImageFix"/>
<feColorMatrix in="SourceAlpha" type="matrix" values="0 0 0 0 0 0 0 0 0 0 0 0 0 0 0 0 0 0 127 0" result="hardAlpha"/>
<feMorphology radius="16" operator="erode" in="SourceAlpha" result="effect1_dropShadow_5240_231011"/>
<feOffset dy="20"/>
<feGaussianBlur stdDeviation="29"/>
<feColorMatrix type="matrix" values="0 0 0 0 0 0 0 0 0 0 0 0 0 0 0 0 0 0 0.16 0"/>
<feBlend mode="normal" in2="BackgroundImageFix" result="effect1_dropShadow_5240_231011"/>
<feBlend mode="normal" in="SourceGraphic" in2="effect1_dropShadow_5240_231011" result="shape"/>
</filter>
</defs>
</svg>
