<svg width="422" height="256" viewBox="0 0 422 256" fill="none" xmlns="http://www.w3.org/2000/svg">
<g filter="url(#filter0_d_14340_18720)">
<path d="M60 48C60 40.4575 60 36.6863 62.3431 34.3431C64.6863 32 68.4575 32 76 32H364C371.542 32 375.314 32 377.657 34.3431C380 36.6863 380 40.4575 380 48V178C380 185.542 380 189.314 377.657 191.657C375.314 194 371.542 194 364 194H76C68.4575 194 64.6863 194 62.3431 191.657C60 189.314 60 185.542 60 178V48Z" fill="#1C1D23"/>
<path d="M86.125 55.875C86.125 55.5783 86.213 55.2883 86.3778 55.0416C86.5426 54.795 86.7769 54.6027 87.051 54.4892C87.3251 54.3756 87.6267 54.3459 87.9176 54.4038C88.2086 54.4617 88.4759 54.6046 88.6857 54.8143C88.8954 55.0241 89.0383 55.2914 89.0962 55.5824C89.1541 55.8733 89.1244 56.1749 89.0108 56.449C88.8973 56.7231 88.705 56.9574 88.4584 57.1222C88.2117 57.287 87.9217 57.375 87.625 57.375C87.2272 57.375 86.8456 57.217 86.5643 56.9357C86.283 56.6544 86.125 56.2728 86.125 55.875ZM98.125 60C98.125 62.0025 97.5312 63.9601 96.4186 65.6251C95.3061 67.2902 93.7248 68.5879 91.8747 69.3543C90.0246 70.1206 87.9888 70.3211 86.0247 69.9305C84.0607 69.5398 82.2566 68.5755 80.8405 67.1595C79.4245 65.7435 78.4602 63.9393 78.0696 61.9753C77.6789 60.0112 77.8794 57.9754 78.6457 56.1253C79.4121 54.2752 80.7098 52.6939 82.3749 51.5814C84.0399 50.4688 85.9975 49.875 88 49.875C90.6844 49.878 93.258 50.9457 95.1562 52.8438C97.0543 54.742 98.122 57.3156 98.125 60ZM95.875 60C95.875 58.4425 95.4131 56.9199 94.5478 55.6249C93.6825 54.3298 92.4526 53.3205 91.0136 52.7244C89.5747 52.1284 87.9913 51.9725 86.4637 52.2763C84.9361 52.5802 83.5329 53.3302 82.4315 54.4315C81.3302 55.5329 80.5802 56.9361 80.2763 58.4637C79.9725 59.9913 80.1284 61.5747 80.7245 63.0136C81.3205 64.4526 82.3299 65.6825 83.6249 66.5478C84.9199 67.4131 86.4425 67.875 88 67.875C90.0879 67.8728 92.0896 67.0424 93.566 65.566C95.0424 64.0896 95.8728 62.0879 95.875 60ZM89.125 63.4387V60.375C89.125 59.8777 88.9275 59.4008 88.5758 59.0492C88.2242 58.6975 87.7473 58.5 87.25 58.5C86.9843 58.4996 86.7271 58.5932 86.5238 58.7643C86.3206 58.9354 86.1844 59.173 86.1395 59.4348C86.0946 59.6967 86.1438 59.966 86.2784 60.195C86.413 60.4241 86.6244 60.5981 86.875 60.6863V63.75C86.875 64.2473 87.0725 64.7242 87.4242 65.0758C87.7758 65.4275 88.2527 65.625 88.75 65.625C89.0157 65.6254 89.2729 65.5318 89.4762 65.3607C89.6794 65.1896 89.8156 64.952 89.8605 64.6902C89.9054 64.4283 89.8562 64.159 89.7216 63.93C89.587 63.7009 89.3756 63.5269 89.125 63.4387Z" fill="#6061EE"/>
<path d="M115.856 66V54.864H118.368V66H115.856ZM112.32 56.896V54.704H121.904V56.896H112.32ZM123.083 66V58.224H125.531V66H123.083ZM124.315 57.152C123.931 57.152 123.611 57.024 123.355 56.768C123.109 56.5013 122.987 56.1813 122.987 55.808C122.987 55.424 123.109 55.104 123.355 54.848C123.611 54.592 123.931 54.464 124.315 54.464C124.699 54.464 125.013 54.592 125.259 54.848C125.504 55.104 125.627 55.424 125.627 55.808C125.627 56.1813 125.504 56.5013 125.259 56.768C125.013 57.024 124.699 57.152 124.315 57.152ZM128.359 66V55.008H130.807V66H128.359ZM126.599 60.304V58.224H132.567V60.304H126.599ZM133.645 66V54.384H136.093V66H133.645ZM141.657 66.176C140.814 66.176 140.062 66.0053 139.401 65.664C138.75 65.312 138.238 64.8267 137.865 64.208C137.492 63.5893 137.305 62.8907 137.305 62.112C137.305 61.3333 137.486 60.64 137.849 60.032C138.222 59.4133 138.724 58.928 139.353 58.576C139.982 58.224 140.692 58.048 141.481 58.048C142.249 58.048 142.926 58.2133 143.513 58.544C144.1 58.8747 144.558 59.3333 144.889 59.92C145.23 60.5067 145.401 61.1787 145.401 61.936C145.401 62.0747 145.39 62.224 145.369 62.384C145.358 62.5333 145.332 62.7093 145.289 62.912L138.585 62.928V61.248L144.249 61.232L143.193 61.936C143.182 61.488 143.113 61.12 142.985 60.832C142.857 60.5333 142.665 60.3093 142.409 60.16C142.164 60 141.86 59.92 141.497 59.92C141.113 59.92 140.777 60.0107 140.489 60.192C140.212 60.3627 139.993 60.608 139.833 60.928C139.684 61.248 139.609 61.6373 139.609 62.096C139.609 62.5547 139.689 62.9493 139.849 63.28C140.02 63.6 140.254 63.8507 140.553 64.032C140.862 64.2027 141.225 64.288 141.641 64.288C142.025 64.288 142.372 64.224 142.681 64.096C142.99 63.9573 143.262 63.7547 143.497 63.488L144.841 64.832C144.457 65.28 143.993 65.616 143.449 65.84C142.905 66.064 142.308 66.176 141.657 66.176Z" fill="#F1F2F4"/>
<path d="M357.031 63.9694C357.171 64.1103 357.251 64.3014 357.251 64.5006C357.251 64.6999 357.171 64.891 357.031 65.0319C356.89 65.1728 356.699 65.2519 356.499 65.2519C356.3 65.2519 356.109 65.1728 355.968 65.0319L352 61.0625L348.031 65.0306C347.89 65.1715 347.699 65.2507 347.499 65.2507C347.3 65.2507 347.109 65.1715 346.968 65.0306C346.827 64.8897 346.748 64.6986 346.748 64.4994C346.748 64.3001 346.827 64.109 346.968 63.9681L350.937 60L346.969 56.0306C346.828 55.8897 346.749 55.6986 346.749 55.4994C346.749 55.3001 346.828 55.109 346.969 54.9681C347.11 54.8272 347.301 54.7481 347.501 54.7481C347.7 54.7481 347.891 54.8272 348.032 54.9681L352 58.9375L355.969 54.9675C356.11 54.8266 356.301 54.7474 356.501 54.7474C356.7 54.7474 356.891 54.8266 357.032 54.9675C357.173 55.1084 357.252 55.2995 357.252 55.4987C357.252 55.698 357.173 55.8891 357.032 56.03L353.062 60L357.031 63.9694Z" fill="#F1F2F4"/>
<path d="M114.016 100V98.796H116.718C117.437 98.796 118.067 98.642 118.608 98.334C119.149 98.0167 119.569 97.5827 119.868 97.032C120.176 96.4813 120.33 95.8467 120.33 95.128C120.33 94.4187 120.176 93.7887 119.868 93.238C119.56 92.6873 119.135 92.258 118.594 91.95C118.053 91.642 117.427 91.488 116.718 91.488H114.03V90.284H116.746C117.455 90.284 118.109 90.4053 118.706 90.648C119.313 90.8907 119.835 91.2313 120.274 91.67C120.722 92.1087 121.067 92.622 121.31 93.21C121.562 93.798 121.688 94.442 121.688 95.142C121.688 95.8327 121.562 96.4767 121.31 97.074C121.067 97.662 120.727 98.1753 120.288 98.614C119.849 99.0527 119.327 99.3933 118.72 99.636C118.123 99.8787 117.474 100 116.774 100H114.016ZM113.148 100V90.284H114.464V100H113.148ZM126.367 100.14C125.705 100.14 125.107 99.9907 124.575 99.692C124.043 99.384 123.623 98.9687 123.315 98.446C123.007 97.9233 122.853 97.3307 122.853 96.668C122.853 96.0147 123.003 95.4267 123.301 94.904C123.609 94.3813 124.02 93.9707 124.533 93.672C125.056 93.364 125.639 93.21 126.283 93.21C126.899 93.21 127.441 93.35 127.907 93.63C128.383 93.91 128.752 94.2973 129.013 94.792C129.284 95.2867 129.419 95.8467 129.419 96.472C129.419 96.5653 129.415 96.668 129.405 96.78C129.396 96.8827 129.377 97.004 129.349 97.144H123.735V96.094H128.677L128.215 96.5C128.215 96.052 128.136 95.674 127.977 95.366C127.819 95.0487 127.595 94.806 127.305 94.638C127.016 94.4607 126.666 94.372 126.255 94.372C125.826 94.372 125.448 94.4653 125.121 94.652C124.795 94.8387 124.543 95.1 124.365 95.436C124.188 95.772 124.099 96.1687 124.099 96.626C124.099 97.0927 124.193 97.5033 124.379 97.858C124.566 98.2033 124.832 98.474 125.177 98.67C125.523 98.8567 125.919 98.95 126.367 98.95C126.741 98.95 127.081 98.8847 127.389 98.754C127.707 98.6233 127.977 98.4273 128.201 98.166L129.013 98.992C128.696 99.3653 128.304 99.65 127.837 99.846C127.38 100.042 126.89 100.14 126.367 100.14ZM132.907 100.14C132.534 100.14 132.179 100.093 131.843 100C131.516 99.8973 131.213 99.7573 130.933 99.58C130.653 99.3933 130.41 99.174 130.205 98.922L131.017 98.11C131.26 98.4087 131.54 98.6327 131.857 98.782C132.174 98.922 132.529 98.992 132.921 98.992C133.313 98.992 133.616 98.9267 133.831 98.796C134.046 98.656 134.153 98.4647 134.153 98.222C134.153 97.9793 134.064 97.7927 133.887 97.662C133.719 97.522 133.5 97.41 133.229 97.326C132.958 97.2327 132.669 97.144 132.361 97.06C132.062 96.9667 131.778 96.85 131.507 96.71C131.236 96.57 131.012 96.3787 130.835 96.136C130.667 95.8933 130.583 95.5713 130.583 95.17C130.583 94.7687 130.681 94.4233 130.877 94.134C131.073 93.8353 131.344 93.6067 131.689 93.448C132.044 93.2893 132.468 93.21 132.963 93.21C133.486 93.21 133.948 93.3033 134.349 93.49C134.76 93.6673 135.096 93.938 135.357 94.302L134.545 95.114C134.358 94.8713 134.125 94.6847 133.845 94.554C133.574 94.4233 133.266 94.358 132.921 94.358C132.557 94.358 132.277 94.4233 132.081 94.554C131.894 94.6753 131.801 94.848 131.801 95.072C131.801 95.296 131.885 95.4687 132.053 95.59C132.221 95.7113 132.44 95.814 132.711 95.898C132.991 95.982 133.28 96.0707 133.579 96.164C133.878 96.248 134.162 96.3647 134.433 96.514C134.704 96.6633 134.923 96.864 135.091 97.116C135.268 97.368 135.357 97.6993 135.357 98.11C135.357 98.7353 135.133 99.23 134.685 99.594C134.246 99.958 133.654 100.14 132.907 100.14ZM139.806 100.14C139.152 100.14 138.56 99.986 138.028 99.678C137.505 99.37 137.09 98.9547 136.782 98.432C136.483 97.9 136.334 97.312 136.334 96.668C136.334 96.0147 136.483 95.4267 136.782 94.904C137.09 94.3813 137.505 93.9707 138.028 93.672C138.56 93.364 139.152 93.21 139.806 93.21C140.319 93.21 140.795 93.308 141.234 93.504C141.672 93.6907 142.05 93.966 142.368 94.33L141.528 95.17C141.322 94.9273 141.07 94.7453 140.772 94.624C140.482 94.4933 140.16 94.428 139.806 94.428C139.386 94.428 139.012 94.526 138.686 94.722C138.359 94.9087 138.102 95.17 137.916 95.506C137.729 95.842 137.636 96.2293 137.636 96.668C137.636 97.1067 137.729 97.494 137.916 97.83C138.102 98.166 138.359 98.432 138.686 98.628C139.012 98.824 139.386 98.922 139.806 98.922C140.16 98.922 140.482 98.8613 140.772 98.74C141.07 98.6093 141.327 98.4227 141.542 98.18L142.368 99.02C142.06 99.3747 141.682 99.65 141.234 99.846C140.795 100.042 140.319 100.14 139.806 100.14ZM143.617 100V93.35H144.877V100H143.617ZM144.877 96.206L144.401 95.996C144.401 95.1467 144.597 94.47 144.989 93.966C145.381 93.462 145.946 93.21 146.683 93.21C147.019 93.21 147.323 93.2707 147.593 93.392C147.864 93.504 148.116 93.6953 148.349 93.966L147.523 94.82C147.383 94.6707 147.229 94.5633 147.061 94.498C146.893 94.4327 146.697 94.4 146.473 94.4C146.007 94.4 145.624 94.5493 145.325 94.848C145.027 95.1467 144.877 95.5993 144.877 96.206ZM149.251 100V93.35H150.511V100H149.251ZM149.881 92.02C149.647 92.02 149.456 91.9453 149.307 91.796C149.157 91.6373 149.083 91.4413 149.083 91.208C149.083 90.984 149.157 90.7973 149.307 90.648C149.456 90.4893 149.647 90.41 149.881 90.41C150.114 90.41 150.305 90.4893 150.455 90.648C150.604 90.7973 150.679 90.984 150.679 91.208C150.679 91.4413 150.604 91.6373 150.455 91.796C150.305 91.9453 150.114 92.02 149.881 92.02ZM155.867 100.14C155.363 100.14 154.906 100.037 154.495 99.832C154.094 99.6173 153.772 99.3233 153.529 98.95C153.287 98.5767 153.151 98.152 153.123 97.676V95.674C153.151 95.1887 153.287 94.764 153.529 94.4C153.781 94.0267 154.108 93.7373 154.509 93.532C154.92 93.3173 155.373 93.21 155.867 93.21C156.474 93.21 157.02 93.364 157.505 93.672C158 93.98 158.387 94.3953 158.667 94.918C158.947 95.4407 159.087 96.0287 159.087 96.682C159.087 97.3353 158.947 97.9233 158.667 98.446C158.387 98.9687 158 99.384 157.505 99.692C157.02 99.9907 156.474 100.14 155.867 100.14ZM152.367 102.786V93.35H153.627V95.1L153.389 96.71L153.627 98.334V102.786H152.367ZM155.657 98.95C156.077 98.95 156.446 98.852 156.763 98.656C157.081 98.46 157.333 98.194 157.519 97.858C157.706 97.5127 157.799 97.116 157.799 96.668C157.799 96.2293 157.706 95.8373 157.519 95.492C157.333 95.1467 157.081 94.8807 156.763 94.694C156.446 94.498 156.082 94.4 155.671 94.4C155.251 94.4 154.883 94.498 154.565 94.694C154.248 94.8807 154.001 95.1467 153.823 95.492C153.646 95.8373 153.557 96.234 153.557 96.682C153.557 97.1207 153.641 97.5127 153.809 97.858C153.987 98.194 154.234 98.46 154.551 98.656C154.878 98.852 155.247 98.95 155.657 98.95ZM161.333 100V90.564H162.593V100H161.333ZM159.695 94.498V93.35H164.231V94.498H159.695ZM165.479 100V93.35H166.739V100H165.479ZM166.109 92.02C165.876 92.02 165.684 91.9453 165.535 91.796C165.386 91.6373 165.311 91.4413 165.311 91.208C165.311 90.984 165.386 90.7973 165.535 90.648C165.684 90.4893 165.876 90.41 166.109 90.41C166.342 90.41 166.534 90.4893 166.683 90.648C166.832 90.7973 166.907 90.984 166.907 91.208C166.907 91.4413 166.832 91.6373 166.683 91.796C166.534 91.9453 166.342 92.02 166.109 92.02ZM171.634 100.14C170.981 100.14 170.393 99.986 169.87 99.678C169.347 99.37 168.932 98.9547 168.624 98.432C168.316 97.9 168.162 97.3073 168.162 96.654C168.162 96.01 168.316 95.4313 168.624 94.918C168.932 94.3953 169.347 93.98 169.87 93.672C170.393 93.364 170.981 93.21 171.634 93.21C172.278 93.21 172.861 93.364 173.384 93.672C173.916 93.9707 174.336 94.3813 174.644 94.904C174.952 95.4267 175.106 96.01 175.106 96.654C175.106 97.3073 174.952 97.9 174.644 98.432C174.336 98.9547 173.916 99.37 173.384 99.678C172.861 99.986 172.278 100.14 171.634 100.14ZM171.634 98.922C172.054 98.922 172.427 98.824 172.754 98.628C173.081 98.432 173.337 98.166 173.524 97.83C173.711 97.4847 173.804 97.0927 173.804 96.654C173.804 96.2247 173.706 95.842 173.51 95.506C173.323 95.17 173.067 94.9087 172.74 94.722C172.423 94.526 172.054 94.428 171.634 94.428C171.214 94.428 170.841 94.526 170.514 94.722C170.187 94.9087 169.931 95.17 169.744 95.506C169.557 95.842 169.464 96.2247 169.464 96.654C169.464 97.0927 169.557 97.4847 169.744 97.83C169.931 98.166 170.187 98.432 170.514 98.628C170.841 98.824 171.214 98.922 171.634 98.922ZM181.23 100V96.122C181.23 95.618 181.071 95.2027 180.754 94.876C180.436 94.5493 180.026 94.386 179.522 94.386C179.186 94.386 178.887 94.4607 178.626 94.61C178.364 94.7593 178.159 94.9647 178.01 95.226C177.86 95.4873 177.786 95.786 177.786 96.122L177.268 95.828C177.268 95.324 177.38 94.876 177.604 94.484C177.828 94.092 178.14 93.784 178.542 93.56C178.943 93.3267 179.396 93.21 179.9 93.21C180.404 93.21 180.847 93.336 181.23 93.588C181.622 93.84 181.93 94.1713 182.154 94.582C182.378 94.9833 182.49 95.4127 182.49 95.87V100H181.23ZM176.526 100V93.35H177.786V100H176.526Z" fill="#F1F2F4"/>
<path d="M113.144 125V115.2H114.754V125H113.144ZM114.25 125V123.53H119.374V125H114.25ZM120.645 125V118.28H122.185V125H120.645ZM121.415 117.048C121.154 117.048 120.935 116.959 120.757 116.782C120.589 116.605 120.505 116.385 120.505 116.124C120.505 115.863 120.589 115.643 120.757 115.466C120.935 115.289 121.154 115.2 121.415 115.2C121.686 115.2 121.905 115.289 122.073 115.466C122.241 115.643 122.325 115.863 122.325 116.124C122.325 116.385 122.241 116.605 122.073 116.782C121.905 116.959 121.686 117.048 121.415 117.048ZM128.519 125V121.122C128.519 120.674 128.374 120.305 128.085 120.016C127.805 119.727 127.441 119.582 126.993 119.582C126.694 119.582 126.428 119.647 126.195 119.778C125.961 119.909 125.779 120.091 125.649 120.324C125.518 120.557 125.453 120.823 125.453 121.122L124.851 120.786C124.851 120.273 124.963 119.82 125.187 119.428C125.411 119.027 125.719 118.714 126.111 118.49C126.512 118.257 126.96 118.14 127.455 118.14C127.959 118.14 128.407 118.271 128.799 118.532C129.191 118.784 129.499 119.115 129.723 119.526C129.947 119.927 130.059 120.347 130.059 120.786V125H128.519ZM123.913 125V118.28H125.453V125H123.913ZM135.894 125L133.052 121.57L135.88 118.28H137.714L134.466 121.976L134.536 121.094L137.854 125H135.894ZM131.624 125V114.92H133.164V125H131.624Z" fill="#6061EE"/>
<path d="M112 162C112 158.28 112 156.42 112.409 154.894C113.518 150.753 116.753 147.518 120.894 146.409C122.42 146 124.28 146 128 146H159C162.72 146 164.58 146 166.106 146.409C170.247 147.518 173.482 150.753 174.591 154.894C175 156.42 175 158.28 175 162C175 165.72 175 167.58 174.591 169.106C173.482 173.247 170.247 176.482 166.106 177.591C164.58 178 162.72 178 159 178H128C124.28 178 122.42 178 120.894 177.591C116.753 176.482 113.518 173.247 112.409 169.106C112 167.58 112 165.72 112 162Z" fill="#6061EE"/>
<path d="M122.722 168V166.4H125.938C126.504 166.4 126.941 166.224 127.25 165.872C127.56 165.52 127.714 165.115 127.714 164.656C127.714 164.347 127.645 164.059 127.506 163.792C127.368 163.525 127.165 163.312 126.898 163.152C126.632 162.992 126.312 162.912 125.938 162.912H122.722V161.312H125.666C126.146 161.312 126.53 161.189 126.818 160.944C127.106 160.699 127.25 160.336 127.25 159.856C127.25 159.376 127.106 159.013 126.818 158.768C126.53 158.523 126.146 158.4 125.666 158.4H122.722V156.8H125.714C126.472 156.8 127.101 156.939 127.602 157.216C128.104 157.493 128.477 157.851 128.722 158.288C128.968 158.725 129.09 159.195 129.09 159.696C129.09 160.283 128.925 160.8 128.594 161.248C128.274 161.696 127.8 162.059 127.17 162.336L127.314 161.76C128.018 162.048 128.568 162.453 128.962 162.976C129.357 163.499 129.554 164.112 129.554 164.816C129.554 165.392 129.41 165.92 129.122 166.4C128.845 166.88 128.429 167.269 127.874 167.568C127.33 167.856 126.658 168 125.858 168H122.722ZM121.458 168V156.8H123.298V168H121.458ZM134.323 168.16C133.673 168.16 133.091 168.016 132.579 167.728C132.078 167.44 131.683 167.045 131.395 166.544C131.118 166.032 130.979 165.445 130.979 164.784V160.32H132.739V164.704C132.739 165.077 132.798 165.397 132.915 165.664C133.043 165.92 133.225 166.117 133.459 166.256C133.705 166.395 133.993 166.464 134.323 166.464C134.835 166.464 135.225 166.315 135.491 166.016C135.769 165.707 135.907 165.269 135.907 164.704V160.32H137.667V164.784C137.667 165.456 137.523 166.048 137.235 166.56C136.958 167.061 136.569 167.456 136.067 167.744C135.566 168.021 134.985 168.16 134.323 168.16ZM140.605 168V157.12H142.365V168H140.605ZM138.765 161.92V160.32H148.845V161.92H138.765ZM145.245 168V157.12H147.005V168H145.245ZM153.426 168.16C152.679 168.16 152.002 167.984 151.394 167.632C150.786 167.269 150.3 166.784 149.938 166.176C149.586 165.568 149.41 164.891 149.41 164.144C149.41 163.397 149.586 162.725 149.938 162.128C150.3 161.531 150.786 161.056 151.394 160.704C152.002 160.341 152.679 160.16 153.426 160.16C154.183 160.16 154.866 160.336 155.474 160.688C156.082 161.04 156.562 161.52 156.914 162.128C157.276 162.725 157.458 163.397 157.458 164.144C157.458 164.891 157.276 165.568 156.914 166.176C156.562 166.784 156.082 167.269 155.474 167.632C154.866 167.984 154.183 168.16 153.426 168.16ZM153.426 166.464C153.863 166.464 154.247 166.368 154.578 166.176C154.919 165.973 155.18 165.696 155.362 165.344C155.554 164.992 155.65 164.592 155.65 164.144C155.65 163.696 155.554 163.301 155.362 162.96C155.17 162.619 154.908 162.352 154.578 162.16C154.247 161.957 153.863 161.856 153.426 161.856C152.999 161.856 152.615 161.957 152.274 162.16C151.943 162.352 151.682 162.619 151.49 162.96C151.308 163.301 151.218 163.696 151.218 164.144C151.218 164.592 151.308 164.992 151.49 165.344C151.682 165.696 151.943 165.973 152.274 166.176C152.615 166.368 152.999 166.464 153.426 166.464ZM164.185 168V163.568C164.185 163.056 164.02 162.635 163.689 162.304C163.369 161.973 162.953 161.808 162.441 161.808C162.1 161.808 161.796 161.883 161.529 162.032C161.263 162.181 161.055 162.389 160.905 162.656C160.756 162.923 160.681 163.227 160.681 163.568L159.993 163.184C159.993 162.597 160.121 162.08 160.377 161.632C160.633 161.173 160.985 160.816 161.433 160.56C161.892 160.293 162.404 160.16 162.969 160.16C163.545 160.16 164.057 160.309 164.505 160.608C164.953 160.896 165.305 161.275 165.561 161.744C165.817 162.203 165.945 162.683 165.945 163.184V168H164.185ZM158.921 168V160.32H160.681V168H158.921Z" fill="white"/>
<path d="M193.722 168V166.4H196.938C197.504 166.4 197.941 166.224 198.25 165.872C198.56 165.52 198.714 165.115 198.714 164.656C198.714 164.347 198.645 164.059 198.506 163.792C198.368 163.525 198.165 163.312 197.898 163.152C197.632 162.992 197.312 162.912 196.938 162.912H193.722V161.312H196.666C197.146 161.312 197.53 161.189 197.818 160.944C198.106 160.699 198.25 160.336 198.25 159.856C198.25 159.376 198.106 159.013 197.818 158.768C197.53 158.523 197.146 158.4 196.666 158.4H193.722V156.8H196.714C197.472 156.8 198.101 156.939 198.602 157.216C199.104 157.493 199.477 157.851 199.722 158.288C199.968 158.725 200.09 159.195 200.09 159.696C200.09 160.283 199.925 160.8 199.594 161.248C199.274 161.696 198.8 162.059 198.17 162.336L198.314 161.76C199.018 162.048 199.568 162.453 199.962 162.976C200.357 163.499 200.554 164.112 200.554 164.816C200.554 165.392 200.41 165.92 200.122 166.4C199.845 166.88 199.429 167.269 198.874 167.568C198.33 167.856 197.658 168 196.858 168H193.722ZM192.458 168V156.8H194.298V168H192.458ZM205.323 168.16C204.673 168.16 204.091 168.016 203.579 167.728C203.078 167.44 202.683 167.045 202.395 166.544C202.118 166.032 201.979 165.445 201.979 164.784V160.32H203.739V164.704C203.739 165.077 203.798 165.397 203.915 165.664C204.043 165.92 204.225 166.117 204.459 166.256C204.705 166.395 204.993 166.464 205.323 166.464C205.835 166.464 206.225 166.315 206.491 166.016C206.769 165.707 206.907 165.269 206.907 164.704V160.32H208.667V164.784C208.667 165.456 208.523 166.048 208.235 166.56C207.958 167.061 207.569 167.456 207.067 167.744C206.566 168.021 205.985 168.16 205.323 168.16ZM211.605 168V157.12H213.365V168H211.605ZM209.765 161.92V160.32H219.845V161.92H209.765ZM216.245 168V157.12H218.005V168H216.245ZM224.426 168.16C223.679 168.16 223.002 167.984 222.394 167.632C221.786 167.269 221.3 166.784 220.938 166.176C220.586 165.568 220.41 164.891 220.41 164.144C220.41 163.397 220.586 162.725 220.938 162.128C221.3 161.531 221.786 161.056 222.394 160.704C223.002 160.341 223.679 160.16 224.426 160.16C225.183 160.16 225.866 160.336 226.474 160.688C227.082 161.04 227.562 161.52 227.914 162.128C228.276 162.725 228.458 163.397 228.458 164.144C228.458 164.891 228.276 165.568 227.914 166.176C227.562 166.784 227.082 167.269 226.474 167.632C225.866 167.984 225.183 168.16 224.426 168.16ZM224.426 166.464C224.863 166.464 225.247 166.368 225.578 166.176C225.919 165.973 226.18 165.696 226.362 165.344C226.554 164.992 226.65 164.592 226.65 164.144C226.65 163.696 226.554 163.301 226.362 162.96C226.17 162.619 225.908 162.352 225.578 162.16C225.247 161.957 224.863 161.856 224.426 161.856C223.999 161.856 223.615 161.957 223.274 162.16C222.943 162.352 222.682 162.619 222.49 162.96C222.308 163.301 222.218 163.696 222.218 164.144C222.218 164.592 222.308 164.992 222.49 165.344C222.682 165.696 222.943 165.973 223.274 166.176C223.615 166.368 223.999 166.464 224.426 166.464ZM235.185 168V163.568C235.185 163.056 235.02 162.635 234.689 162.304C234.369 161.973 233.953 161.808 233.441 161.808C233.1 161.808 232.796 161.883 232.529 162.032C232.263 162.181 232.055 162.389 231.905 162.656C231.756 162.923 231.681 163.227 231.681 163.568L230.993 163.184C230.993 162.597 231.121 162.08 231.377 161.632C231.633 161.173 231.985 160.816 232.433 160.56C232.892 160.293 233.404 160.16 233.969 160.16C234.545 160.16 235.057 160.309 235.505 160.608C235.953 160.896 236.305 161.275 236.561 161.744C236.817 162.203 236.945 162.683 236.945 163.184V168H235.185ZM229.921 168V160.32H231.681V168H229.921Z" fill="#6061EE"/>
</g>
<g clip-path="url(#clip0_14340_18720)">
<g clip-path="url(#clip1_14340_18720)">
<rect x="76" width="24" height="24" rx="12" fill="#E1172F"/>
<path d="M84.4161 17V15.4489L88.0404 12.093C88.3486 11.7947 88.6072 11.5263 88.816 11.2876C89.0281 11.049 89.1888 10.8153 89.2982 10.5866C89.4076 10.3546 89.4623 10.1044 89.4623 9.83594C89.4623 9.53764 89.3943 9.28078 89.2584 9.06534C89.1225 8.84659 88.9369 8.67921 88.7016 8.56321C88.4663 8.44389 88.1995 8.38423 87.9012 8.38423C87.5896 8.38423 87.3179 8.44721 87.0858 8.57315C86.8538 8.6991 86.6749 8.87973 86.5489 9.11506C86.423 9.35038 86.36 9.63044 86.36 9.95526H84.3167C84.3167 9.28906 84.4675 8.7107 84.7691 8.22017C85.0707 7.72964 85.4933 7.35014 86.0368 7.08168C86.5804 6.81321 87.2068 6.67898 87.9161 6.67898C88.6453 6.67898 89.28 6.80824 89.8202 7.06676C90.3638 7.32197 90.7864 7.67661 91.088 8.13068C91.3896 8.58475 91.5404 9.10511 91.5404 9.69176C91.5404 10.0762 91.4642 10.4557 91.3117 10.8303C91.1626 11.2048 90.8957 11.6207 90.5113 12.0781C90.1268 12.5322 89.5849 13.0774 88.8856 13.7138L87.3991 15.1705V15.2401H91.6746V17H84.4161Z" fill="#F1F2F4"/>
</g>
<rect x="87.5" y="24" width="1" height="36" fill="#E1172F"/>
</g>
<g clip-path="url(#clip2_14340_18720)">
<g clip-path="url(#clip3_14340_18720)">
<rect y="60" width="24" height="24" rx="12" fill="#E1172F"/>
<path d="M13.8302 66.8182V77H11.6775V68.8615H11.6178L9.28613 70.3232V68.4141L11.8067 66.8182H13.8302Z" fill="#F1F2F4"/>
</g>
<rect x="24" y="71.5" width="40" height="1" fill="#E1172F"/>
</g>
<g clip-path="url(#clip4_14340_18720)">
<g clip-path="url(#clip5_14340_18720)">
<rect y="95" width="24" height="24" rx="12" fill="#E1172F"/>
<path d="M12.0323 112.139C11.3297 112.139 10.7032 112.01 10.1531 111.751C9.60618 111.493 9.17199 111.137 8.8505 110.683C8.529 110.228 8.36162 109.708 8.34837 109.121H10.4364C10.4596 109.516 10.6254 109.836 10.9336 110.081C11.2418 110.326 11.6081 110.449 12.0323 110.449C12.3704 110.449 12.6687 110.374 12.9272 110.225C13.189 110.073 13.3929 109.862 13.5387 109.594C13.6879 109.322 13.7624 109.01 13.7624 108.659C13.7624 108.301 13.6862 107.986 13.5337 107.714C13.3846 107.443 13.1774 107.231 12.9123 107.078C12.6471 106.926 12.3439 106.848 12.0025 106.844C11.7042 106.844 11.4142 106.906 11.1325 107.028C10.854 107.151 10.637 107.318 10.4812 107.531L8.56712 107.188L9.04936 101.818H15.2738V103.578H10.8242L10.5607 106.129H10.6204C10.7994 105.877 11.0695 105.668 11.4308 105.502C11.792 105.336 12.1964 105.254 12.6438 105.254C13.257 105.254 13.8039 105.398 14.2844 105.686C14.765 105.974 15.1445 106.371 15.4229 106.874C15.7013 107.375 15.8389 107.951 15.8356 108.604C15.8389 109.29 15.6798 109.9 15.3583 110.434C15.0401 110.964 14.5943 111.382 14.021 111.687C13.4509 111.988 12.788 112.139 12.0323 112.139Z" fill="#F1F2F4"/>
</g>
<rect x="24" y="106.5" width="76" height="1" fill="#E1172F"/>
</g>
<g clip-path="url(#clip6_14340_18720)">
<g clip-path="url(#clip7_14340_18720)">
<rect y="137" width="24" height="24" rx="12" fill="#E1172F"/>
<path d="M12.1119 154.139C11.5882 154.136 11.0827 154.048 10.5955 153.876C10.1116 153.703 9.67744 153.423 9.29297 153.036C8.9085 152.648 8.60357 152.134 8.3782 151.494C8.15613 150.855 8.0451 150.069 8.0451 149.138C8.04841 148.283 8.14619 147.519 8.33842 146.846C8.53397 146.17 8.81238 145.596 9.17365 145.126C9.53823 144.655 9.97408 144.297 10.4812 144.052C10.9883 143.803 11.5567 143.679 12.1864 143.679C12.8659 143.679 13.4658 143.812 13.9862 144.077C14.5065 144.339 14.9241 144.695 15.239 145.146C15.5572 145.596 15.7494 146.102 15.8157 146.662H13.6928C13.61 146.307 13.436 146.029 13.1708 145.827C12.9057 145.625 12.5775 145.523 12.1864 145.523C11.5236 145.523 11.0198 145.812 10.6751 146.388C10.3337 146.965 10.1597 147.749 10.1531 148.74H10.2227C10.3751 148.438 10.5806 148.182 10.8391 147.969C11.101 147.754 11.3976 147.59 11.729 147.477C12.0638 147.361 12.4168 147.303 12.788 147.303C13.3912 147.303 13.9281 147.446 14.3988 147.731C14.8694 148.013 15.2406 148.4 15.5124 148.894C15.7842 149.388 15.9201 149.953 15.9201 150.589C15.9201 151.279 15.7594 151.892 15.4379 152.429C15.1197 152.966 14.6739 153.387 14.1005 153.692C13.5304 153.993 12.8675 154.143 12.1119 154.139ZM12.1019 152.449C12.4334 152.449 12.73 152.369 12.9918 152.21C13.2537 152.051 13.4592 151.836 13.6083 151.564C13.7575 151.292 13.832 150.987 13.832 150.649C13.832 150.311 13.7575 150.008 13.6083 149.739C13.4625 149.471 13.2603 149.257 13.0018 149.098C12.7433 148.939 12.4483 148.859 12.1168 148.859C11.8683 148.859 11.6379 148.906 11.4258 148.999C11.217 149.091 11.033 149.221 10.8739 149.386C10.7182 149.552 10.5955 149.744 10.506 149.963C10.4165 150.179 10.3718 150.409 10.3718 150.654C10.3718 150.982 10.4464 151.282 10.5955 151.554C10.748 151.826 10.9535 152.043 11.212 152.205C11.4738 152.368 11.7705 152.449 12.1019 152.449Z" fill="#F1F2F4"/>
</g>
<rect x="24" y="148.5" width="76" height="1" fill="#E1172F"/>
</g>
<g clip-path="url(#clip8_14340_18720)">
<g clip-path="url(#clip9_14340_18720)">
<rect x="116" width="24" height="24" rx="12" fill="#E1172F"/>
<path d="M127.975 17.1392C127.232 17.1392 126.571 17.0116 125.991 16.7564C125.414 16.4979 124.958 16.1432 124.624 15.6925C124.292 15.2384 124.122 14.7147 124.112 14.1214H126.279C126.292 14.37 126.374 14.5888 126.523 14.7777C126.675 14.9633 126.877 15.1075 127.129 15.2102C127.381 15.313 127.665 15.3643 127.979 15.3643C128.308 15.3643 128.598 15.3063 128.85 15.1903C129.101 15.0743 129.299 14.9136 129.441 14.7081C129.584 14.5026 129.655 14.2656 129.655 13.9972C129.655 13.7254 129.579 13.4851 129.426 13.2763C129.277 13.0642 129.062 12.8984 128.78 12.7791C128.502 12.6598 128.17 12.6001 127.786 12.6001H126.836V11.0192H127.786C128.11 11.0192 128.397 10.9628 128.646 10.8501C128.898 10.7375 129.093 10.5817 129.232 10.3828C129.372 10.1806 129.441 9.94531 129.441 9.67685C129.441 9.42164 129.38 9.19792 129.257 9.00568C129.138 8.81013 128.969 8.65767 128.75 8.5483C128.535 8.43892 128.283 8.38423 127.994 8.38423C127.703 8.38423 127.436 8.43726 127.194 8.54332C126.952 8.64607 126.758 8.79356 126.612 8.9858C126.466 9.17803 126.389 9.40341 126.379 9.66193H124.315C124.325 9.07528 124.493 8.55824 124.818 8.1108C125.142 7.66335 125.58 7.31368 126.13 7.06179C126.684 6.80658 127.308 6.67898 128.004 6.67898C128.707 6.67898 129.322 6.80658 129.849 7.06179C130.376 7.317 130.785 7.66169 131.077 8.09588C131.372 8.52675 131.518 9.01065 131.514 9.54758C131.518 10.1177 131.34 10.5933 130.982 10.9744C130.628 11.3556 130.165 11.5975 129.595 11.7003V11.7798C130.344 11.8759 130.914 12.1361 131.305 12.5604C131.7 12.9813 131.895 13.5083 131.892 14.1413C131.895 14.7214 131.728 15.2367 131.39 15.6875C131.055 16.1383 130.593 16.4929 130.003 16.7514C129.413 17.0099 128.737 17.1392 127.975 17.1392Z" fill="#F1F2F4"/>
</g>
<rect x="127.5" y="24" width="1" height="36" fill="#E1172F"/>
</g>
<g clip-path="url(#clip10_14340_18720)">
<g clip-path="url(#clip11_14340_18720)">
<rect x="336" width="24" height="24" rx="12" fill="#E1172F"/>
<path d="M343.927 15.2102V13.5149L348.178 6.81818H349.639V9.16477H348.774L346.095 13.4055V13.4851H352.135V15.2102H343.927ZM348.814 17V14.6932L348.854 13.9425V6.81818H350.872V17H348.814Z" fill="#F1F2F4"/>
</g>
<rect x="347.5" y="24" width="1" height="36" fill="#E1172F"/>
</g>
<defs>
<filter id="filter0_d_14340_18720" x="18" y="10" width="404" height="246" filterUnits="userSpaceOnUse" color-interpolation-filters="sRGB">
<feFlood flood-opacity="0" result="BackgroundImageFix"/>
<feColorMatrix in="SourceAlpha" type="matrix" values="0 0 0 0 0 0 0 0 0 0 0 0 0 0 0 0 0 0 127 0" result="hardAlpha"/>
<feMorphology radius="16" operator="erode" in="SourceAlpha" result="effect1_dropShadow_14340_18720"/>
<feOffset dy="20"/>
<feGaussianBlur stdDeviation="29"/>
<feColorMatrix type="matrix" values="0 0 0 0 0 0 0 0 0 0 0 0 0 0 0 0 0 0 0.16 0"/>
<feBlend mode="normal" in2="BackgroundImageFix" result="effect1_dropShadow_14340_18720"/>
<feBlend mode="normal" in="SourceGraphic" in2="effect1_dropShadow_14340_18720" result="shape"/>
</filter>
<clipPath id="clip0_14340_18720">
<rect width="24" height="60" fill="white" transform="translate(76)"/>
</clipPath>
<clipPath id="clip1_14340_18720">
<rect x="76" width="24" height="24" rx="12" fill="white"/>
</clipPath>
<clipPath id="clip2_14340_18720">
<rect width="64" height="24" fill="white" transform="translate(0 60)"/>
</clipPath>
<clipPath id="clip3_14340_18720">
<rect y="60" width="24" height="24" rx="12" fill="white"/>
</clipPath>
<clipPath id="clip4_14340_18720">
<rect width="100" height="24" fill="white" transform="translate(0 95)"/>
</clipPath>
<clipPath id="clip5_14340_18720">
<rect y="95" width="24" height="24" rx="12" fill="white"/>
</clipPath>
<clipPath id="clip6_14340_18720">
<rect width="100" height="24" fill="white" transform="translate(0 137)"/>
</clipPath>
<clipPath id="clip7_14340_18720">
<rect y="137" width="24" height="24" rx="12" fill="white"/>
</clipPath>
<clipPath id="clip8_14340_18720">
<rect width="24" height="60" fill="white" transform="translate(116)"/>
</clipPath>
<clipPath id="clip9_14340_18720">
<rect x="116" width="24" height="24" rx="12" fill="white"/>
</clipPath>
<clipPath id="clip10_14340_18720">
<rect width="24" height="60" fill="white" transform="translate(336)"/>
</clipPath>
<clipPath id="clip11_14340_18720">
<rect x="336" width="24" height="24" rx="12" fill="white"/>
</clipPath>
</defs>
</svg>
