<svg width="404" height="242" viewBox="0 0 404 242" fill="none" xmlns="http://www.w3.org/2000/svg">
<g filter="url(#filter0_d_5240_231024)">
<path d="M42 38C42 30.4575 42 26.6863 44.3431 24.3431C46.6863 22 50.4575 22 58 22H346C353.542 22 357.314 22 359.657 24.3431C362 26.6863 362 30.4575 362 38V164C362 171.542 362 175.314 359.657 177.657C357.314 180 353.542 180 346 180H58C50.4575 180 46.6863 180 44.3431 177.657C42 175.314 42 171.542 42 164V38Z" fill="white"/>
<path d="M68.125 45.875C68.125 45.5783 68.213 45.2883 68.3778 45.0416C68.5426 44.795 68.7769 44.6027 69.051 44.4892C69.3251 44.3756 69.6267 44.3459 69.9176 44.4038C70.2086 44.4617 70.4759 44.6046 70.6857 44.8143C70.8954 45.0241 71.0383 45.2914 71.0962 45.5824C71.1541 45.8733 71.1244 46.1749 71.0108 46.449C70.8973 46.7231 70.705 46.9574 70.4584 47.1222C70.2117 47.287 69.9217 47.375 69.625 47.375C69.2272 47.375 68.8456 47.217 68.5643 46.9357C68.283 46.6544 68.125 46.2728 68.125 45.875ZM80.125 50C80.125 52.0025 79.5312 53.9601 78.4186 55.6251C77.3061 57.2902 75.7248 58.5879 73.8747 59.3543C72.0246 60.1206 69.9888 60.3211 68.0247 59.9305C66.0607 59.5398 64.2566 58.5755 62.8405 57.1595C61.4245 55.7435 60.4602 53.9393 60.0696 51.9753C59.6789 50.0112 59.8794 47.9754 60.6457 46.1253C61.4121 44.2752 62.7098 42.6939 64.3749 41.5814C66.0399 40.4688 67.9975 39.875 70 39.875C72.6844 39.878 75.258 40.9457 77.1562 42.8438C79.0543 44.742 80.122 47.3156 80.125 50ZM77.875 50C77.875 48.4425 77.4131 46.9199 76.5478 45.6249C75.6825 44.3298 74.4526 43.3205 73.0136 42.7244C71.5747 42.1284 69.9913 41.9725 68.4637 42.2763C66.9361 42.5802 65.5329 43.3302 64.4315 44.4315C63.3302 45.5329 62.5802 46.9361 62.2763 48.4637C61.9725 49.9913 62.1284 51.5747 62.7245 53.0136C63.3205 54.4526 64.3299 55.6825 65.6249 56.5478C66.9199 57.4131 68.4425 57.875 70 57.875C72.0879 57.8728 74.0896 57.0424 75.566 55.566C77.0424 54.0896 77.8728 52.0879 77.875 50ZM71.125 53.4387V50.375C71.125 49.8777 70.9275 49.4008 70.5758 49.0492C70.2242 48.6975 69.7473 48.5 69.25 48.5C68.9843 48.4996 68.7271 48.5932 68.5238 48.7643C68.3206 48.9354 68.1844 49.173 68.1395 49.4348C68.0946 49.6967 68.1438 49.966 68.2784 50.195C68.413 50.4241 68.6244 50.5981 68.875 50.6863V53.75C68.875 54.2473 69.0725 54.7242 69.4242 55.0758C69.7758 55.4275 70.2527 55.625 70.75 55.625C71.0157 55.6254 71.2729 55.5318 71.4762 55.3607C71.6794 55.1896 71.8156 54.952 71.8605 54.6902C71.9054 54.4283 71.8562 54.159 71.7216 53.93C71.587 53.7009 71.3756 53.5269 71.125 53.4387Z" fill="#4F46E5"/>
<path d="M100.48 56.192C99.6267 56.192 98.8373 56.0427 98.112 55.744C97.3973 55.4453 96.768 55.0293 96.224 54.496C95.68 53.9627 95.2587 53.344 94.96 52.64C94.6613 51.9253 94.512 51.1573 94.512 50.336C94.512 49.504 94.6613 48.736 94.96 48.032C95.2587 47.328 95.6747 46.7147 96.208 46.192C96.7413 45.6587 97.3653 45.248 98.08 44.96C98.8053 44.6613 99.5947 44.512 100.448 44.512C101.291 44.512 102.069 44.6613 102.784 44.96C103.509 45.248 104.139 45.6587 104.672 46.192C105.216 46.7147 105.637 47.3333 105.936 48.048C106.235 48.752 106.384 49.52 106.384 50.352C106.384 51.1733 106.235 51.9413 105.936 52.656C105.637 53.36 105.221 53.9787 104.688 54.512C104.155 55.0347 103.525 55.4453 102.8 55.744C102.085 56.0427 101.312 56.192 100.48 56.192ZM100.448 53.904C101.12 53.904 101.707 53.7547 102.208 53.456C102.72 53.1573 103.115 52.7413 103.392 52.208C103.669 51.664 103.808 51.04 103.808 50.336C103.808 49.8027 103.728 49.3227 103.568 48.896C103.408 48.4587 103.179 48.0853 102.88 47.776C102.581 47.456 102.224 47.216 101.808 47.056C101.403 46.8853 100.949 46.8 100.448 46.8C99.776 46.8 99.184 46.9493 98.672 47.248C98.1707 47.536 97.7813 47.9467 97.504 48.48C97.2267 49.0027 97.088 49.6213 97.088 50.336C97.088 50.8693 97.168 51.3547 97.328 51.792C97.488 52.2293 97.712 52.608 98 52.928C98.2987 53.2373 98.656 53.4773 99.072 53.648C99.488 53.8187 99.9467 53.904 100.448 53.904ZM107.755 56V48.224H110.203V56H107.755ZM110.203 51.728L109.179 50.928C109.381 50.0213 109.723 49.3173 110.203 48.816C110.683 48.3147 111.349 48.064 112.203 48.064C112.576 48.064 112.901 48.1227 113.179 48.24C113.467 48.3467 113.717 48.5173 113.931 48.752L112.475 50.592C112.368 50.4747 112.235 50.384 112.075 50.32C111.915 50.256 111.733 50.224 111.531 50.224C111.125 50.224 110.8 50.352 110.555 50.608C110.32 50.8533 110.203 51.2267 110.203 51.728ZM117.676 56.16C116.94 56.16 116.284 55.984 115.708 55.632C115.143 55.28 114.695 54.8 114.364 54.192C114.044 53.584 113.884 52.8907 113.884 52.112C113.884 51.3333 114.044 50.64 114.364 50.032C114.695 49.424 115.143 48.944 115.708 48.592C116.284 48.24 116.94 48.064 117.676 48.064C118.209 48.064 118.689 48.1653 119.116 48.368C119.553 48.5707 119.911 48.8533 120.188 49.216C120.476 49.568 120.636 49.9733 120.668 50.432V53.712C120.636 54.1707 120.481 54.5867 120.204 54.96C119.927 55.3227 119.569 55.616 119.132 55.84C118.695 56.0533 118.209 56.16 117.676 56.16ZM118.108 53.952C118.46 53.952 118.764 53.8773 119.02 53.728C119.276 53.568 119.479 53.3493 119.628 53.072C119.777 52.7947 119.852 52.4747 119.852 52.112C119.852 51.7493 119.777 51.4347 119.628 51.168C119.489 50.8907 119.287 50.672 119.02 50.512C118.764 50.352 118.465 50.272 118.124 50.272C117.783 50.272 117.479 50.352 117.212 50.512C116.956 50.672 116.748 50.8907 116.588 51.168C116.439 51.4453 116.364 51.76 116.364 52.112C116.364 52.464 116.439 52.7787 116.588 53.056C116.737 53.3333 116.945 53.552 117.212 53.712C117.479 53.872 117.777 53.952 118.108 53.952ZM122.156 56H119.756V53.904L120.124 52.016L119.708 50.128V44.384H122.156V56ZM127.72 56.176C126.877 56.176 126.125 56.0053 125.464 55.664C124.813 55.312 124.301 54.8267 123.928 54.208C123.554 53.5893 123.368 52.8907 123.368 52.112C123.368 51.3333 123.549 50.64 123.912 50.032C124.285 49.4133 124.786 48.928 125.416 48.576C126.045 48.224 126.754 48.048 127.544 48.048C128.312 48.048 128.989 48.2133 129.576 48.544C130.162 48.8747 130.621 49.3333 130.952 49.92C131.293 50.5067 131.464 51.1787 131.464 51.936C131.464 52.0747 131.453 52.224 131.432 52.384C131.421 52.5333 131.394 52.7093 131.352 52.912L124.648 52.928V51.248L130.312 51.232L129.256 51.936C129.245 51.488 129.176 51.12 129.048 50.832C128.92 50.5333 128.728 50.3093 128.472 50.16C128.226 50 127.922 49.92 127.56 49.92C127.176 49.92 126.84 50.0107 126.552 50.192C126.274 50.3627 126.056 50.608 125.896 50.928C125.746 51.248 125.672 51.6373 125.672 52.096C125.672 52.5547 125.752 52.9493 125.912 53.28C126.082 53.6 126.317 53.8507 126.616 54.032C126.925 54.2027 127.288 54.288 127.704 54.288C128.088 54.288 128.434 54.224 128.744 54.096C129.053 53.9573 129.325 53.7547 129.56 53.488L130.904 54.832C130.52 55.28 130.056 55.616 129.512 55.84C128.968 56.064 128.37 56.176 127.72 56.176ZM132.645 56V48.224H135.093V56H132.645ZM135.093 51.728L134.069 50.928C134.272 50.0213 134.613 49.3173 135.093 48.816C135.573 48.3147 136.24 48.064 137.093 48.064C137.467 48.064 137.792 48.1227 138.069 48.24C138.357 48.3467 138.608 48.5173 138.821 48.752L137.365 50.592C137.259 50.4747 137.125 50.384 136.965 50.32C136.805 50.256 136.624 50.224 136.421 50.224C136.016 50.224 135.691 50.352 135.445 50.608C135.211 50.8533 135.093 51.2267 135.093 51.728ZM142.802 56V48.224H145.25V56H142.802ZM144.034 47.152C143.65 47.152 143.33 47.024 143.074 46.768C142.828 46.5013 142.706 46.1813 142.706 45.808C142.706 45.424 142.828 45.104 143.074 44.848C143.33 44.592 143.65 44.464 144.034 44.464C144.418 44.464 144.732 44.592 144.978 44.848C145.223 45.104 145.346 45.424 145.346 45.808C145.346 46.1813 145.223 46.5013 144.978 46.768C144.732 47.024 144.418 47.152 144.034 47.152ZM149.805 56.192C149.347 56.192 148.893 56.1333 148.445 56.016C148.008 55.8987 147.597 55.7333 147.213 55.52C146.84 55.296 146.52 55.04 146.253 54.752L147.645 53.344C147.901 53.6213 148.205 53.84 148.557 54C148.909 54.1493 149.293 54.224 149.709 54.224C149.997 54.224 150.216 54.1813 150.365 54.096C150.525 54.0107 150.605 53.8933 150.605 53.744C150.605 53.552 150.509 53.408 150.317 53.312C150.136 53.2053 149.901 53.1147 149.613 53.04C149.325 52.9547 149.021 52.864 148.701 52.768C148.381 52.672 148.077 52.5387 147.789 52.368C147.501 52.1973 147.267 51.9627 147.085 51.664C146.904 51.3547 146.813 50.9653 146.813 50.496C146.813 49.9947 146.941 49.5627 147.197 49.2C147.453 48.8267 147.816 48.5333 148.285 48.32C148.755 48.1067 149.304 48 149.933 48C150.595 48 151.203 48.1173 151.757 48.352C152.323 48.576 152.781 48.912 153.133 49.36L151.741 50.768C151.496 50.48 151.219 50.2773 150.909 50.16C150.611 50.0427 150.317 49.984 150.029 49.984C149.752 49.984 149.544 50.0267 149.405 50.112C149.267 50.1867 149.197 50.2987 149.197 50.448C149.197 50.608 149.288 50.736 149.469 50.832C149.651 50.928 149.885 51.0133 150.173 51.088C150.461 51.1627 150.765 51.2533 151.085 51.36C151.405 51.4667 151.709 51.6107 151.997 51.792C152.285 51.9733 152.52 52.2187 152.701 52.528C152.883 52.8267 152.973 53.2213 152.973 53.712C152.973 54.4693 152.685 55.072 152.109 55.52C151.544 55.968 150.776 56.192 149.805 56.192ZM161.092 56.176C160.292 56.176 159.567 56 158.916 55.648C158.276 55.2853 157.77 54.7947 157.396 54.176C157.023 53.5573 156.836 52.864 156.836 52.096C156.836 51.328 157.023 50.64 157.396 50.032C157.77 49.424 158.276 48.944 158.916 48.592C159.556 48.2293 160.282 48.048 161.092 48.048C161.903 48.048 162.628 48.224 163.268 48.576C163.908 48.928 164.415 49.4133 164.788 50.032C165.162 50.64 165.348 51.328 165.348 52.096C165.348 52.864 165.162 53.5573 164.788 54.176C164.415 54.7947 163.908 55.2853 163.268 55.648C162.628 56 161.903 56.176 161.092 56.176ZM161.092 53.952C161.444 53.952 161.754 53.8773 162.02 53.728C162.287 53.568 162.49 53.3493 162.628 53.072C162.778 52.784 162.852 52.4587 162.852 52.096C162.852 51.7333 162.778 51.4187 162.628 51.152C162.479 50.8747 162.271 50.6613 162.004 50.512C161.748 50.352 161.444 50.272 161.092 50.272C160.751 50.272 160.447 50.352 160.18 50.512C159.914 50.6613 159.706 50.8747 159.556 51.152C159.407 51.4293 159.332 51.7493 159.332 52.112C159.332 52.464 159.407 52.784 159.556 53.072C159.706 53.3493 159.914 53.568 160.18 53.728C160.447 53.8773 160.751 53.952 161.092 53.952ZM171.703 56V51.568C171.703 51.1627 171.575 50.8373 171.319 50.592C171.074 50.336 170.759 50.208 170.375 50.208C170.108 50.208 169.874 50.2667 169.671 50.384C169.468 50.4907 169.308 50.6507 169.191 50.864C169.074 51.0667 169.015 51.3013 169.015 51.568L168.071 51.104C168.071 50.496 168.204 49.9627 168.471 49.504C168.738 49.0453 169.106 48.6933 169.575 48.448C170.055 48.192 170.594 48.064 171.191 48.064C171.767 48.064 172.274 48.2027 172.711 48.48C173.159 48.7467 173.511 49.104 173.767 49.552C174.023 50 174.151 50.4907 174.151 51.024V56H171.703ZM166.567 56V48.224H169.015V56H166.567ZM179.874 56V45.008H182.322V56H179.874ZM178.114 50.304V48.224H184.082V50.304H178.114ZM190.297 56V51.568C190.297 51.1627 190.169 50.8373 189.913 50.592C189.668 50.336 189.353 50.208 188.969 50.208C188.702 50.208 188.468 50.2667 188.265 50.384C188.062 50.4907 187.902 50.6507 187.785 50.864C187.668 51.0667 187.609 51.3013 187.609 51.568L186.665 51.104C186.665 50.496 186.793 49.9627 187.049 49.504C187.305 49.0453 187.662 48.6933 188.121 48.448C188.58 48.192 189.108 48.064 189.705 48.064C190.313 48.064 190.846 48.192 191.305 48.448C191.764 48.6933 192.116 49.04 192.361 49.488C192.617 49.9253 192.745 50.4373 192.745 51.024V56H190.297ZM185.161 56V44.384H187.609V56H185.161ZM198.157 56.176C197.314 56.176 196.562 56.0053 195.901 55.664C195.25 55.312 194.738 54.8267 194.365 54.208C193.992 53.5893 193.805 52.8907 193.805 52.112C193.805 51.3333 193.986 50.64 194.349 50.032C194.722 49.4133 195.224 48.928 195.853 48.576C196.482 48.224 197.192 48.048 197.981 48.048C198.749 48.048 199.426 48.2133 200.013 48.544C200.6 48.8747 201.058 49.3333 201.389 49.92C201.73 50.5067 201.901 51.1787 201.901 51.936C201.901 52.0747 201.89 52.224 201.869 52.384C201.858 52.5333 201.832 52.7093 201.789 52.912L195.085 52.928V51.248L200.749 51.232L199.693 51.936C199.682 51.488 199.613 51.12 199.485 50.832C199.357 50.5333 199.165 50.3093 198.909 50.16C198.664 50 198.36 49.92 197.997 49.92C197.613 49.92 197.277 50.0107 196.989 50.192C196.712 50.3627 196.493 50.608 196.333 50.928C196.184 51.248 196.109 51.6373 196.109 52.096C196.109 52.5547 196.189 52.9493 196.349 53.28C196.52 53.6 196.754 53.8507 197.053 54.032C197.362 54.2027 197.725 54.288 198.141 54.288C198.525 54.288 198.872 54.224 199.181 54.096C199.49 53.9573 199.762 53.7547 199.997 53.488L201.341 54.832C200.957 55.28 200.493 55.616 199.949 55.84C199.405 56.064 198.808 56.176 198.157 56.176ZM208.034 56L205.346 48.224H207.746L209.41 53.872L208.706 53.888L210.546 48.224H212.53L214.386 53.888L213.666 53.872L215.346 48.224H217.746L215.058 56H213.058L211.25 50.624H211.858L210.018 56H208.034ZM221.784 56.16C221.069 56.16 220.429 55.984 219.864 55.632C219.309 55.28 218.867 54.8 218.536 54.192C218.216 53.584 218.056 52.8907 218.056 52.112C218.056 51.3333 218.216 50.64 218.536 50.032C218.867 49.424 219.309 48.944 219.864 48.592C220.429 48.24 221.069 48.064 221.784 48.064C222.307 48.064 222.776 48.1653 223.192 48.368C223.619 48.5707 223.965 48.8533 224.232 49.216C224.499 49.568 224.648 49.9733 224.68 50.432V53.792C224.648 54.2507 224.499 54.6613 224.232 55.024C223.976 55.376 223.635 55.6533 223.208 55.856C222.781 56.0587 222.307 56.16 221.784 56.16ZM222.28 53.952C222.803 53.952 223.224 53.7813 223.544 53.44C223.864 53.088 224.024 52.6453 224.024 52.112C224.024 51.7493 223.949 51.4293 223.8 51.152C223.661 50.8747 223.459 50.6613 223.192 50.512C222.936 50.352 222.637 50.272 222.296 50.272C221.955 50.272 221.651 50.352 221.384 50.512C221.128 50.6613 220.92 50.8747 220.76 51.152C220.611 51.4293 220.536 51.7493 220.536 52.112C220.536 52.464 220.611 52.7787 220.76 53.056C220.909 53.3333 221.117 53.552 221.384 53.712C221.651 53.872 221.949 53.952 222.28 53.952ZM223.928 56V53.904L224.296 52.016L223.928 50.128V48.224H226.328V56H223.928ZM230.452 56.032L227.252 48.224H229.892L231.924 54.416H230.948L233.028 48.224H235.668L232.34 56.032H230.452ZM228.452 59.28L230.788 54.24L232.34 56.032L230.964 59.28H228.452ZM237.078 51.872L236.678 44.384H239.318L238.918 51.872H237.078ZM237.99 56.176C237.574 56.176 237.228 56.032 236.95 55.744C236.673 55.456 236.534 55.1093 236.534 54.704C236.534 54.2773 236.673 53.9253 236.95 53.648C237.228 53.36 237.574 53.216 237.99 53.216C238.417 53.216 238.764 53.36 239.03 53.648C239.308 53.9253 239.446 54.2773 239.446 54.704C239.446 55.1093 239.308 55.456 239.03 55.744C238.764 56.032 238.417 56.176 237.99 56.176Z" fill="#2A2C35"/>
<path d="M339.031 53.9695C339.171 54.1104 339.251 54.3015 339.251 54.5007C339.251 54.7 339.171 54.8911 339.031 55.032C338.89 55.1729 338.699 55.252 338.499 55.252C338.3 55.252 338.109 55.1729 337.968 55.032L334 51.0626L330.031 55.0307C329.89 55.1716 329.699 55.2508 329.499 55.2508C329.3 55.2508 329.109 55.1716 328.968 55.0307C328.827 54.8898 328.748 54.6987 328.748 54.4995C328.748 54.3002 328.827 54.1091 328.968 53.9682L332.937 50.0001L328.969 46.0307C328.828 45.8898 328.749 45.6987 328.749 45.4995C328.749 45.3002 328.828 45.1091 328.969 44.9682C329.11 44.8273 329.301 44.7482 329.501 44.7482C329.7 44.7482 329.891 44.8273 330.032 44.9682L334 48.9376L337.969 44.9676C338.11 44.8267 338.301 44.7476 338.501 44.7476C338.7 44.7476 338.891 44.8267 339.032 44.9676C339.173 45.1085 339.252 45.2996 339.252 45.4989C339.252 45.6981 339.173 45.8892 339.032 46.0301L335.062 50.0001L339.031 53.9695Z" fill="#2A2C35"/>
<path d="M98.228 86.052L94.406 80.284H95.932L99.012 85.002H98.326L101.42 80.284H102.918L99.068 86.052H98.228ZM98.004 90V85.184H99.32V90H98.004ZM105.208 90.14C104.555 90.14 103.967 89.986 103.444 89.678C102.921 89.37 102.506 88.9547 102.198 88.432C101.89 87.9 101.736 87.3073 101.736 86.654C101.736 86.01 101.89 85.4313 102.198 84.918C102.506 84.3953 102.921 83.98 103.444 83.672C103.967 83.364 104.555 83.21 105.208 83.21C105.852 83.21 106.435 83.364 106.958 83.672C107.49 83.9707 107.91 84.3813 108.218 84.904C108.526 85.4267 108.68 86.01 108.68 86.654C108.68 87.3073 108.526 87.9 108.218 88.432C107.91 88.9547 107.49 89.37 106.958 89.678C106.435 89.986 105.852 90.14 105.208 90.14ZM105.208 88.922C105.628 88.922 106.001 88.824 106.328 88.628C106.655 88.432 106.911 88.166 107.098 87.83C107.285 87.4847 107.378 87.0927 107.378 86.654C107.378 86.2247 107.28 85.842 107.084 85.506C106.897 85.17 106.641 84.9087 106.314 84.722C105.997 84.526 105.628 84.428 105.208 84.428C104.788 84.428 104.415 84.526 104.088 84.722C103.761 84.9087 103.505 85.17 103.318 85.506C103.131 85.842 103.038 86.2247 103.038 86.654C103.038 87.0927 103.131 87.4847 103.318 87.83C103.505 88.166 103.761 88.432 104.088 88.628C104.415 88.824 104.788 88.922 105.208 88.922ZM112.774 90.14C112.232 90.14 111.742 90.0187 111.304 89.776C110.874 89.524 110.538 89.1787 110.296 88.74C110.053 88.3013 109.932 87.7927 109.932 87.214V83.35H111.192V87.158C111.192 87.522 111.252 87.8393 111.374 88.11C111.504 88.3713 111.691 88.572 111.934 88.712C112.176 88.852 112.461 88.922 112.788 88.922C113.282 88.922 113.67 88.768 113.95 88.46C114.23 88.1427 114.37 87.7087 114.37 87.158V83.35H115.63V87.214C115.63 87.7927 115.508 88.3013 115.266 88.74C115.023 89.1787 114.687 89.524 114.258 89.776C113.838 90.0187 113.343 90.14 112.774 90.14ZM117.319 90V83.35H118.579V90H117.319ZM118.579 86.206L118.103 85.996C118.103 85.1467 118.299 84.47 118.691 83.966C119.083 83.462 119.647 83.21 120.385 83.21C120.721 83.21 121.024 83.2707 121.295 83.392C121.565 83.504 121.817 83.6953 122.051 83.966L121.225 84.82C121.085 84.6707 120.931 84.5633 120.763 84.498C120.595 84.4327 120.399 84.4 120.175 84.4C119.708 84.4 119.325 84.5493 119.027 84.848C118.728 85.1467 118.579 85.5993 118.579 86.206ZM129.596 90.14C129.092 90.14 128.635 90.0373 128.224 89.832C127.823 89.6173 127.501 89.3233 127.258 88.95C127.015 88.5767 126.88 88.152 126.852 87.676V85.674C126.88 85.1887 127.015 84.764 127.258 84.4C127.51 84.0267 127.837 83.7373 128.238 83.532C128.649 83.3173 129.101 83.21 129.596 83.21C130.203 83.21 130.749 83.364 131.234 83.672C131.729 83.98 132.116 84.3953 132.396 84.918C132.676 85.4407 132.816 86.0287 132.816 86.682C132.816 87.3353 132.676 87.9233 132.396 88.446C132.116 88.9687 131.729 89.384 131.234 89.692C130.749 89.9907 130.203 90.14 129.596 90.14ZM126.096 92.786V83.35H127.356V85.1L127.118 86.71L127.356 88.334V92.786H126.096ZM129.386 88.95C129.806 88.95 130.175 88.852 130.492 88.656C130.809 88.46 131.061 88.194 131.248 87.858C131.435 87.5127 131.528 87.116 131.528 86.668C131.528 86.2293 131.435 85.8373 131.248 85.492C131.061 85.1467 130.809 84.8807 130.492 84.694C130.175 84.498 129.811 84.4 129.4 84.4C128.98 84.4 128.611 84.498 128.294 84.694C127.977 84.8807 127.729 85.1467 127.552 85.492C127.375 85.8373 127.286 86.234 127.286 86.682C127.286 87.1207 127.37 87.5127 127.538 87.858C127.715 88.194 127.963 88.46 128.28 88.656C128.607 88.852 128.975 88.95 129.386 88.95ZM136.918 90.14C136.377 90.14 135.887 90.0187 135.448 89.776C135.019 89.524 134.683 89.1787 134.44 88.74C134.198 88.3013 134.076 87.7927 134.076 87.214V83.35H135.336V87.158C135.336 87.522 135.397 87.8393 135.518 88.11C135.649 88.3713 135.836 88.572 136.078 88.712C136.321 88.852 136.606 88.922 136.932 88.922C137.427 88.922 137.814 88.768 138.094 88.46C138.374 88.1427 138.514 87.7087 138.514 87.158V83.35H139.774V87.214C139.774 87.7927 139.653 88.3013 139.41 88.74C139.168 89.1787 138.832 89.524 138.402 89.776C137.982 90.0187 137.488 90.14 136.918 90.14ZM141.463 90V83.35H142.723V90H141.463ZM142.723 86.206L142.247 85.996C142.247 85.1467 142.443 84.47 142.835 83.966C143.227 83.462 143.792 83.21 144.529 83.21C144.865 83.21 145.168 83.2707 145.439 83.392C145.71 83.504 145.962 83.6953 146.195 83.966L145.369 84.82C145.229 84.6707 145.075 84.5633 144.907 84.498C144.739 84.4327 144.543 84.4 144.319 84.4C143.852 84.4 143.47 84.5493 143.171 84.848C142.872 85.1467 142.723 85.5993 142.723 86.206ZM149.901 90.14C149.248 90.14 148.655 89.986 148.123 89.678C147.601 89.37 147.185 88.9547 146.877 88.432C146.579 87.9 146.429 87.312 146.429 86.668C146.429 86.0147 146.579 85.4267 146.877 84.904C147.185 84.3813 147.601 83.9707 148.123 83.672C148.655 83.364 149.248 83.21 149.901 83.21C150.415 83.21 150.891 83.308 151.329 83.504C151.768 83.6907 152.146 83.966 152.463 84.33L151.623 85.17C151.418 84.9273 151.166 84.7453 150.867 84.624C150.578 84.4933 150.256 84.428 149.901 84.428C149.481 84.428 149.108 84.526 148.781 84.722C148.455 84.9087 148.198 85.17 148.011 85.506C147.825 85.842 147.731 86.2293 147.731 86.668C147.731 87.1067 147.825 87.494 148.011 87.83C148.198 88.166 148.455 88.432 148.781 88.628C149.108 88.824 149.481 88.922 149.901 88.922C150.256 88.922 150.578 88.8613 150.867 88.74C151.166 88.6093 151.423 88.4227 151.637 88.18L152.463 89.02C152.155 89.3747 151.777 89.65 151.329 89.846C150.891 90.042 150.415 90.14 149.901 90.14ZM158.417 90V86.122C158.417 85.618 158.258 85.2027 157.941 84.876C157.624 84.5493 157.213 84.386 156.709 84.386C156.373 84.386 156.074 84.4607 155.813 84.61C155.552 84.7593 155.346 84.9647 155.197 85.226C155.048 85.4873 154.973 85.786 154.973 86.122L154.455 85.828C154.455 85.324 154.567 84.876 154.791 84.484C155.015 84.092 155.328 83.784 155.729 83.56C156.13 83.3267 156.583 83.21 157.087 83.21C157.591 83.21 158.034 83.322 158.417 83.546C158.809 83.77 159.117 84.0827 159.341 84.484C159.565 84.8853 159.677 85.3473 159.677 85.87V90H158.417ZM153.713 90V80.004H154.973V90H153.713ZM164.211 90.14C163.604 90.14 163.054 89.9907 162.559 89.692C162.064 89.384 161.672 88.9687 161.383 88.446C161.103 87.9233 160.963 87.3353 160.963 86.682C160.963 86.0287 161.103 85.4407 161.383 84.918C161.672 84.3953 162.06 83.98 162.545 83.672C163.04 83.364 163.595 83.21 164.211 83.21C164.715 83.21 165.163 83.3173 165.555 83.532C165.956 83.7373 166.278 84.0267 166.521 84.4C166.764 84.764 166.899 85.1887 166.927 85.674V87.676C166.899 88.152 166.764 88.5767 166.521 88.95C166.288 89.3233 165.97 89.6173 165.569 89.832C165.177 90.0373 164.724 90.14 164.211 90.14ZM164.421 88.95C165.046 88.95 165.55 88.74 165.933 88.32C166.316 87.8907 166.507 87.3447 166.507 86.682C166.507 86.2247 166.418 85.828 166.241 85.492C166.073 85.1467 165.83 84.8807 165.513 84.694C165.196 84.498 164.827 84.4 164.407 84.4C163.987 84.4 163.614 84.498 163.287 84.694C162.97 84.89 162.718 85.1607 162.531 85.506C162.354 85.842 162.265 86.2293 162.265 86.668C162.265 87.116 162.354 87.5127 162.531 87.858C162.718 88.194 162.974 88.46 163.301 88.656C163.628 88.852 164.001 88.95 164.421 88.95ZM166.423 90V88.208L166.661 86.584L166.423 84.974V83.35H167.697V90H166.423ZM171.645 90.14C171.272 90.14 170.917 90.0933 170.581 90C170.255 89.8973 169.951 89.7573 169.671 89.58C169.391 89.3933 169.149 89.174 168.943 88.922L169.755 88.11C169.998 88.4087 170.278 88.6327 170.595 88.782C170.913 88.922 171.267 88.992 171.659 88.992C172.051 88.992 172.355 88.9267 172.569 88.796C172.784 88.656 172.891 88.4647 172.891 88.222C172.891 87.9793 172.803 87.7927 172.625 87.662C172.457 87.522 172.238 87.41 171.967 87.326C171.697 87.2327 171.407 87.144 171.099 87.06C170.801 86.9667 170.516 86.85 170.245 86.71C169.975 86.57 169.751 86.3787 169.573 86.136C169.405 85.8933 169.321 85.5713 169.321 85.17C169.321 84.7687 169.419 84.4233 169.615 84.134C169.811 83.8353 170.082 83.6067 170.427 83.448C170.782 83.2893 171.207 83.21 171.701 83.21C172.224 83.21 172.686 83.3033 173.087 83.49C173.498 83.6673 173.834 83.938 174.095 84.302L173.283 85.114C173.097 84.8713 172.863 84.6847 172.583 84.554C172.313 84.4233 172.005 84.358 171.659 84.358C171.295 84.358 171.015 84.4233 170.819 84.554C170.633 84.6753 170.539 84.848 170.539 85.072C170.539 85.296 170.623 85.4687 170.791 85.59C170.959 85.7113 171.179 85.814 171.449 85.898C171.729 85.982 172.019 86.0707 172.317 86.164C172.616 86.248 172.901 86.3647 173.171 86.514C173.442 86.6633 173.661 86.864 173.829 87.116C174.007 87.368 174.095 87.6993 174.095 88.11C174.095 88.7353 173.871 89.23 173.423 89.594C172.985 89.958 172.392 90.14 171.645 90.14ZM178.586 90.14C177.923 90.14 177.326 89.9907 176.794 89.692C176.262 89.384 175.842 88.9687 175.534 88.446C175.226 87.9233 175.072 87.3307 175.072 86.668C175.072 86.0147 175.221 85.4267 175.52 84.904C175.828 84.3813 176.239 83.9707 176.752 83.672C177.275 83.364 177.858 83.21 178.502 83.21C179.118 83.21 179.659 83.35 180.126 83.63C180.602 83.91 180.971 84.2973 181.232 84.792C181.503 85.2867 181.638 85.8467 181.638 86.472C181.638 86.5653 181.633 86.668 181.624 86.78C181.615 86.8827 181.596 87.004 181.568 87.144H175.954V86.094H180.896L180.434 86.5C180.434 86.052 180.355 85.674 180.196 85.366C180.037 85.0487 179.813 84.806 179.524 84.638C179.235 84.4607 178.885 84.372 178.474 84.372C178.045 84.372 177.667 84.4653 177.34 84.652C177.013 84.8387 176.761 85.1 176.584 85.436C176.407 85.772 176.318 86.1687 176.318 86.626C176.318 87.0927 176.411 87.5033 176.598 87.858C176.785 88.2033 177.051 88.474 177.396 88.67C177.741 88.8567 178.138 88.95 178.586 88.95C178.959 88.95 179.3 88.8847 179.608 88.754C179.925 88.6233 180.196 88.4273 180.42 88.166L181.232 88.992C180.915 89.3653 180.523 89.65 180.056 89.846C179.599 90.042 179.109 90.14 178.586 90.14ZM190.628 90V86.122C190.628 85.618 190.469 85.2027 190.152 84.876C189.835 84.5493 189.424 84.386 188.92 84.386C188.584 84.386 188.285 84.4607 188.024 84.61C187.763 84.7593 187.557 84.9647 187.408 85.226C187.259 85.4873 187.184 85.786 187.184 86.122L186.666 85.828C186.666 85.324 186.778 84.876 187.002 84.484C187.226 84.092 187.539 83.784 187.94 83.56C188.341 83.3267 188.794 83.21 189.298 83.21C189.802 83.21 190.245 83.322 190.628 83.546C191.02 83.77 191.328 84.0827 191.552 84.484C191.776 84.8853 191.888 85.3473 191.888 85.87V90H190.628ZM185.924 90V80.004H187.184V90H185.924ZM196.422 90.14C195.815 90.14 195.265 89.9907 194.77 89.692C194.275 89.384 193.883 88.9687 193.594 88.446C193.314 87.9233 193.174 87.3353 193.174 86.682C193.174 86.0287 193.314 85.4407 193.594 84.918C193.883 84.3953 194.271 83.98 194.756 83.672C195.251 83.364 195.806 83.21 196.422 83.21C196.926 83.21 197.374 83.3173 197.766 83.532C198.167 83.7373 198.489 84.0267 198.732 84.4C198.975 84.764 199.11 85.1887 199.138 85.674V87.676C199.11 88.152 198.975 88.5767 198.732 88.95C198.499 89.3233 198.181 89.6173 197.78 89.832C197.388 90.0373 196.935 90.14 196.422 90.14ZM196.632 88.95C197.257 88.95 197.761 88.74 198.144 88.32C198.527 87.8907 198.718 87.3447 198.718 86.682C198.718 86.2247 198.629 85.828 198.452 85.492C198.284 85.1467 198.041 84.8807 197.724 84.694C197.407 84.498 197.038 84.4 196.618 84.4C196.198 84.4 195.825 84.498 195.498 84.694C195.181 84.89 194.929 85.1607 194.742 85.506C194.565 85.842 194.476 86.2293 194.476 86.668C194.476 87.116 194.565 87.5127 194.742 87.858C194.929 88.194 195.185 88.46 195.512 88.656C195.839 88.852 196.212 88.95 196.632 88.95ZM198.634 90V88.208L198.872 86.584L198.634 84.974V83.35H199.908V90H198.634ZM203.856 90.14C203.483 90.14 203.128 90.0933 202.792 90C202.466 89.8973 202.162 89.7573 201.882 89.58C201.602 89.3933 201.36 89.174 201.154 88.922L201.966 88.11C202.209 88.4087 202.489 88.6327 202.806 88.782C203.124 88.922 203.478 88.992 203.87 88.992C204.262 88.992 204.566 88.9267 204.78 88.796C204.995 88.656 205.102 88.4647 205.102 88.222C205.102 87.9793 205.014 87.7927 204.836 87.662C204.668 87.522 204.449 87.41 204.178 87.326C203.908 87.2327 203.618 87.144 203.31 87.06C203.012 86.9667 202.727 86.85 202.456 86.71C202.186 86.57 201.962 86.3787 201.784 86.136C201.616 85.8933 201.532 85.5713 201.532 85.17C201.532 84.7687 201.63 84.4233 201.826 84.134C202.022 83.8353 202.293 83.6067 202.638 83.448C202.993 83.2893 203.418 83.21 203.912 83.21C204.435 83.21 204.897 83.3033 205.298 83.49C205.709 83.6673 206.045 83.938 206.306 84.302L205.494 85.114C205.308 84.8713 205.074 84.6847 204.794 84.554C204.524 84.4233 204.216 84.358 203.87 84.358C203.506 84.358 203.226 84.4233 203.03 84.554C202.844 84.6753 202.75 84.848 202.75 85.072C202.75 85.296 202.834 85.4687 203.002 85.59C203.17 85.7113 203.39 85.814 203.66 85.898C203.94 85.982 204.23 86.0707 204.528 86.164C204.827 86.248 205.112 86.3647 205.382 86.514C205.653 86.6633 205.872 86.864 206.04 87.116C206.218 87.368 206.306 87.6993 206.306 88.11C206.306 88.7353 206.082 89.23 205.634 89.594C205.196 89.958 204.603 90.14 203.856 90.14ZM212.743 90.14C212.37 90.14 212.015 90.0933 211.679 90C211.352 89.8973 211.049 89.7573 210.769 89.58C210.489 89.3933 210.246 89.174 210.041 88.922L210.853 88.11C211.096 88.4087 211.376 88.6327 211.693 88.782C212.01 88.922 212.365 88.992 212.757 88.992C213.149 88.992 213.452 88.9267 213.667 88.796C213.882 88.656 213.989 88.4647 213.989 88.222C213.989 87.9793 213.9 87.7927 213.723 87.662C213.555 87.522 213.336 87.41 213.065 87.326C212.794 87.2327 212.505 87.144 212.197 87.06C211.898 86.9667 211.614 86.85 211.343 86.71C211.072 86.57 210.848 86.3787 210.671 86.136C210.503 85.8933 210.419 85.5713 210.419 85.17C210.419 84.7687 210.517 84.4233 210.713 84.134C210.909 83.8353 211.18 83.6067 211.525 83.448C211.88 83.2893 212.304 83.21 212.799 83.21C213.322 83.21 213.784 83.3033 214.185 83.49C214.596 83.6673 214.932 83.938 215.193 84.302L214.381 85.114C214.194 84.8713 213.961 84.6847 213.681 84.554C213.41 84.4233 213.102 84.358 212.757 84.358C212.393 84.358 212.113 84.4233 211.917 84.554C211.73 84.6753 211.637 84.848 211.637 85.072C211.637 85.296 211.721 85.4687 211.889 85.59C212.057 85.7113 212.276 85.814 212.547 85.898C212.827 85.982 213.116 86.0707 213.415 86.164C213.714 86.248 213.998 86.3647 214.269 86.514C214.54 86.6633 214.759 86.864 214.927 87.116C215.104 87.368 215.193 87.6993 215.193 88.11C215.193 88.7353 214.969 89.23 214.521 89.594C214.082 89.958 213.49 90.14 212.743 90.14ZM221.308 90V86.122C221.308 85.618 221.149 85.2027 220.832 84.876C220.514 84.5493 220.104 84.386 219.6 84.386C219.264 84.386 218.965 84.4607 218.704 84.61C218.442 84.7593 218.237 84.9647 218.088 85.226C217.938 85.4873 217.864 85.786 217.864 86.122L217.346 85.828C217.346 85.324 217.458 84.876 217.682 84.484C217.906 84.092 218.218 83.784 218.62 83.56C219.021 83.3267 219.474 83.21 219.978 83.21C220.482 83.21 220.925 83.322 221.308 83.546C221.7 83.77 222.008 84.0827 222.232 84.484C222.456 84.8853 222.568 85.3473 222.568 85.87V90H221.308ZM216.604 90V80.004H217.864V90H216.604ZM224.288 90V83.35H225.548V90H224.288ZM224.918 82.02C224.684 82.02 224.493 81.9453 224.344 81.796C224.194 81.6373 224.12 81.4413 224.12 81.208C224.12 80.984 224.194 80.7973 224.344 80.648C224.493 80.4893 224.684 80.41 224.918 80.41C225.151 80.41 225.342 80.4893 225.492 80.648C225.641 80.7973 225.716 80.984 225.716 81.208C225.716 81.4413 225.641 81.6373 225.492 81.796C225.342 81.9453 225.151 82.02 224.918 82.02ZM230.904 90.14C230.4 90.14 229.943 90.0373 229.532 89.832C229.131 89.6173 228.809 89.3233 228.566 88.95C228.324 88.5767 228.188 88.152 228.16 87.676V85.674C228.188 85.1887 228.324 84.764 228.566 84.4C228.818 84.0267 229.145 83.7373 229.546 83.532C229.957 83.3173 230.41 83.21 230.904 83.21C231.511 83.21 232.057 83.364 232.542 83.672C233.037 83.98 233.424 84.3953 233.704 84.918C233.984 85.4407 234.124 86.0287 234.124 86.682C234.124 87.3353 233.984 87.9233 233.704 88.446C233.424 88.9687 233.037 89.384 232.542 89.692C232.057 89.9907 231.511 90.14 230.904 90.14ZM227.404 92.786V83.35H228.664V85.1L228.426 86.71L228.664 88.334V92.786H227.404ZM230.694 88.95C231.114 88.95 231.483 88.852 231.8 88.656C232.118 88.46 232.37 88.194 232.556 87.858C232.743 87.5127 232.836 87.116 232.836 86.668C232.836 86.2293 232.743 85.8373 232.556 85.492C232.37 85.1467 232.118 84.8807 231.8 84.694C231.483 84.498 231.119 84.4 230.708 84.4C230.288 84.4 229.92 84.498 229.602 84.694C229.285 84.8807 229.038 85.1467 228.86 85.492C228.683 85.8373 228.594 86.234 228.594 86.682C228.594 87.1207 228.678 87.5127 228.846 87.858C229.024 88.194 229.271 88.46 229.588 88.656C229.915 88.852 230.284 88.95 230.694 88.95ZM239.053 90.14C238.549 90.14 238.092 90.0373 237.681 89.832C237.28 89.6173 236.958 89.3233 236.715 88.95C236.472 88.5767 236.337 88.152 236.309 87.676V85.674C236.337 85.1887 236.472 84.764 236.715 84.4C236.967 84.0267 237.294 83.7373 237.695 83.532C238.106 83.3173 238.558 83.21 239.053 83.21C239.66 83.21 240.206 83.364 240.691 83.672C241.186 83.98 241.573 84.3953 241.853 84.918C242.133 85.4407 242.273 86.0287 242.273 86.682C242.273 87.3353 242.133 87.9233 241.853 88.446C241.573 88.9687 241.186 89.384 240.691 89.692C240.206 89.9907 239.66 90.14 239.053 90.14ZM235.553 92.786V83.35H236.813V85.1L236.575 86.71L236.813 88.334V92.786H235.553ZM238.843 88.95C239.263 88.95 239.632 88.852 239.949 88.656C240.266 88.46 240.518 88.194 240.705 87.858C240.892 87.5127 240.985 87.116 240.985 86.668C240.985 86.2293 240.892 85.8373 240.705 85.492C240.518 85.1467 240.266 84.8807 239.949 84.694C239.632 84.498 239.268 84.4 238.857 84.4C238.437 84.4 238.068 84.498 237.751 84.694C237.434 84.8807 237.186 85.1467 237.009 85.492C236.832 85.8373 236.743 86.234 236.743 86.682C236.743 87.1207 236.827 87.5127 236.995 87.858C237.172 88.194 237.42 88.46 237.737 88.656C238.064 88.852 238.432 88.95 238.843 88.95ZM246.781 90.14C246.119 90.14 245.521 89.9907 244.989 89.692C244.457 89.384 244.037 88.9687 243.729 88.446C243.421 87.9233 243.267 87.3307 243.267 86.668C243.267 86.0147 243.417 85.4267 243.715 84.904C244.023 84.3813 244.434 83.9707 244.947 83.672C245.47 83.364 246.053 83.21 246.697 83.21C247.313 83.21 247.855 83.35 248.321 83.63C248.797 83.91 249.166 84.2973 249.427 84.792C249.698 85.2867 249.833 85.8467 249.833 86.472C249.833 86.5653 249.829 86.668 249.819 86.78C249.81 86.8827 249.791 87.004 249.763 87.144H244.149V86.094H249.091L248.629 86.5C248.629 86.052 248.55 85.674 248.391 85.366C248.233 85.0487 248.009 84.806 247.719 84.638C247.43 84.4607 247.08 84.372 246.669 84.372C246.24 84.372 245.862 84.4653 245.535 84.652C245.209 84.8387 244.957 85.1 244.779 85.436C244.602 85.772 244.513 86.1687 244.513 86.626C244.513 87.0927 244.607 87.5033 244.793 87.858C244.98 88.2033 245.246 88.474 245.591 88.67C245.937 88.8567 246.333 88.95 246.781 88.95C247.155 88.95 247.495 88.8847 247.803 88.754C248.121 88.6233 248.391 88.4273 248.615 88.166L249.427 88.992C249.11 89.3653 248.718 89.65 248.251 89.846C247.794 90.042 247.304 90.14 246.781 90.14ZM254.021 90.14C253.405 90.14 252.855 89.9907 252.369 89.692C251.884 89.384 251.497 88.9687 251.207 88.446C250.927 87.9233 250.787 87.3353 250.787 86.682C250.787 86.0287 250.927 85.4407 251.207 84.918C251.497 84.3953 251.884 83.98 252.369 83.672C252.855 83.364 253.405 83.21 254.021 83.21C254.516 83.21 254.964 83.3173 255.365 83.532C255.767 83.7373 256.089 84.0267 256.331 84.4C256.583 84.764 256.723 85.1887 256.751 85.674V87.676C256.723 88.152 256.588 88.5767 256.345 88.95C256.103 89.3233 255.781 89.6173 255.379 89.832C254.978 90.0373 254.525 90.14 254.021 90.14ZM254.231 88.95C254.651 88.95 255.015 88.852 255.323 88.656C255.641 88.46 255.888 88.194 256.065 87.858C256.243 87.5127 256.331 87.1207 256.331 86.682C256.331 86.2247 256.238 85.828 256.051 85.492C255.874 85.156 255.627 84.89 255.309 84.694C255.001 84.498 254.637 84.4 254.217 84.4C253.797 84.4 253.429 84.498 253.111 84.694C252.794 84.89 252.542 85.1607 252.355 85.506C252.178 85.842 252.089 86.2293 252.089 86.668C252.089 87.116 252.178 87.5127 252.355 87.858C252.542 88.194 252.794 88.46 253.111 88.656C253.438 88.852 253.811 88.95 254.231 88.95ZM257.521 90H256.247V88.208L256.485 86.584L256.247 84.974V80.004H257.521V90ZM259.734 86.92L259.552 80.004H260.896L260.714 86.92H259.734ZM260.21 90.14C259.948 90.14 259.734 90.0513 259.566 89.874C259.398 89.6967 259.314 89.4773 259.314 89.216C259.314 88.9547 259.398 88.74 259.566 88.572C259.734 88.3947 259.948 88.306 260.21 88.306C260.48 88.306 260.7 88.3947 260.868 88.572C261.036 88.74 261.12 88.9547 261.12 89.216C261.12 89.4773 261.036 89.6967 260.868 89.874C260.7 90.0513 260.48 90.14 260.21 90.14ZM266.142 90V80.284H267.458V90H266.142ZM267.038 90V88.796H272.61V90H267.038ZM267.038 85.604V84.456H272.148V85.604H267.038ZM267.038 81.488V80.284H272.54V81.488H267.038ZM276.29 90.14C275.917 90.14 275.562 90.0933 275.226 90C274.899 89.8973 274.596 89.7573 274.316 89.58C274.036 89.3933 273.793 89.174 273.588 88.922L274.4 88.11C274.643 88.4087 274.923 88.6327 275.24 88.782C275.557 88.922 275.912 88.992 276.304 88.992C276.696 88.992 276.999 88.9267 277.214 88.796C277.429 88.656 277.536 88.4647 277.536 88.222C277.536 87.9793 277.447 87.7927 277.27 87.662C277.102 87.522 276.883 87.41 276.612 87.326C276.341 87.2327 276.052 87.144 275.744 87.06C275.445 86.9667 275.161 86.85 274.89 86.71C274.619 86.57 274.395 86.3787 274.218 86.136C274.05 85.8933 273.966 85.5713 273.966 85.17C273.966 84.7687 274.064 84.4233 274.26 84.134C274.456 83.8353 274.727 83.6067 275.072 83.448C275.427 83.2893 275.851 83.21 276.346 83.21C276.869 83.21 277.331 83.3033 277.732 83.49C278.143 83.6673 278.479 83.938 278.74 84.302L277.928 85.114C277.741 84.8713 277.508 84.6847 277.228 84.554C276.957 84.4233 276.649 84.358 276.304 84.358C275.94 84.358 275.66 84.4233 275.464 84.554C275.277 84.6753 275.184 84.848 275.184 85.072C275.184 85.296 275.268 85.4687 275.436 85.59C275.604 85.7113 275.823 85.814 276.094 85.898C276.374 85.982 276.663 86.0707 276.962 86.164C277.261 86.248 277.545 86.3647 277.816 86.514C278.087 86.6633 278.306 86.864 278.474 87.116C278.651 87.368 278.74 87.6993 278.74 88.11C278.74 88.7353 278.516 89.23 278.068 89.594C277.629 89.958 277.037 90.14 276.29 90.14ZM281.173 90V80.564H282.433V90H281.173ZM279.535 84.498V83.35H284.071V84.498H279.535ZM285.319 90V83.35H286.579V90H285.319ZM285.949 82.02C285.716 82.02 285.524 81.9453 285.375 81.796C285.226 81.6373 285.151 81.4413 285.151 81.208C285.151 80.984 285.226 80.7973 285.375 80.648C285.524 80.4893 285.716 80.41 285.949 80.41C286.182 80.41 286.374 80.4893 286.523 80.648C286.672 80.7973 286.747 80.984 286.747 81.208C286.747 81.4413 286.672 81.6373 286.523 81.796C286.374 81.9453 286.182 82.02 285.949 82.02ZM288.436 90V83.35H289.696V90H288.436ZM292.93 90V85.982C292.93 85.4873 292.776 85.1 292.468 84.82C292.169 84.5307 291.791 84.386 291.334 84.386C291.026 84.386 290.75 84.4513 290.508 84.582C290.265 84.7127 290.069 84.8947 289.92 85.128C289.77 85.3613 289.696 85.6413 289.696 85.968L289.178 85.716C289.178 85.212 289.285 84.7733 289.5 84.4C289.724 84.0267 290.027 83.7373 290.41 83.532C290.792 83.3173 291.222 83.21 291.698 83.21C292.164 83.21 292.584 83.3127 292.958 83.518C293.34 83.7233 293.639 84.0127 293.854 84.386C294.078 84.7593 294.19 85.2027 294.19 85.716V90H292.93ZM297.424 90V85.982C297.424 85.4873 297.27 85.1 296.962 84.82C296.663 84.5307 296.29 84.386 295.842 84.386C295.534 84.386 295.254 84.4513 295.002 84.582C294.759 84.7127 294.563 84.8947 294.414 85.128C294.264 85.3613 294.19 85.6413 294.19 85.968L293.476 85.716C293.504 85.2027 293.639 84.764 293.882 84.4C294.134 84.0267 294.456 83.7373 294.848 83.532C295.24 83.3173 295.669 83.21 296.136 83.21C296.621 83.21 297.055 83.3127 297.438 83.518C297.82 83.7233 298.124 84.0127 298.348 84.386C298.581 84.7593 298.698 85.2073 298.698 85.73V90H297.424ZM303.24 90.14C302.634 90.14 302.083 89.9907 301.588 89.692C301.094 89.384 300.702 88.9687 300.412 88.446C300.132 87.9233 299.992 87.3353 299.992 86.682C299.992 86.0287 300.132 85.4407 300.412 84.918C300.702 84.3953 301.089 83.98 301.574 83.672C302.069 83.364 302.624 83.21 303.24 83.21C303.744 83.21 304.192 83.3173 304.584 83.532C304.986 83.7373 305.308 84.0267 305.55 84.4C305.793 84.764 305.928 85.1887 305.956 85.674V87.676C305.928 88.152 305.793 88.5767 305.55 88.95C305.317 89.3233 305 89.6173 304.598 89.832C304.206 90.0373 303.754 90.14 303.24 90.14ZM303.45 88.95C304.076 88.95 304.58 88.74 304.962 88.32C305.345 87.8907 305.536 87.3447 305.536 86.682C305.536 86.2247 305.448 85.828 305.27 85.492C305.102 85.1467 304.86 84.8807 304.542 84.694C304.225 84.498 303.856 84.4 303.436 84.4C303.016 84.4 302.643 84.498 302.316 84.694C301.999 84.89 301.747 85.1607 301.56 85.506C301.383 85.842 301.294 86.2293 301.294 86.668C301.294 87.116 301.383 87.5127 301.56 87.858C301.747 88.194 302.004 88.46 302.33 88.656C302.657 88.852 303.03 88.95 303.45 88.95ZM305.452 90V88.208L305.69 86.584L305.452 84.974V83.35H306.726V90H305.452ZM309.555 90V80.564H310.815V90H309.555ZM307.917 84.498V83.35H312.453V84.498H307.917ZM313.702 90V83.35H314.962V90H313.702ZM314.332 82.02C314.098 82.02 313.907 81.9453 313.758 81.796C313.608 81.6373 313.534 81.4413 313.534 81.208C313.534 80.984 313.608 80.7973 313.758 80.648C313.907 80.4893 314.098 80.41 314.332 80.41C314.565 80.41 314.756 80.4893 314.906 80.648C315.055 80.7973 315.13 80.984 315.13 81.208C315.13 81.4413 315.055 81.6373 314.906 81.796C314.756 81.9453 314.565 82.02 314.332 82.02ZM319.857 90.14C319.203 90.14 318.615 89.986 318.093 89.678C317.57 89.37 317.155 88.9547 316.847 88.432C316.539 87.9 316.385 87.3073 316.385 86.654C316.385 86.01 316.539 85.4313 316.847 84.918C317.155 84.3953 317.57 83.98 318.093 83.672C318.615 83.364 319.203 83.21 319.857 83.21C320.501 83.21 321.084 83.364 321.607 83.672C322.139 83.9707 322.559 84.3813 322.867 84.904C323.175 85.4267 323.329 86.01 323.329 86.654C323.329 87.3073 323.175 87.9 322.867 88.432C322.559 88.9547 322.139 89.37 321.607 89.678C321.084 89.986 320.501 90.14 319.857 90.14ZM319.857 88.922C320.277 88.922 320.65 88.824 320.977 88.628C321.303 88.432 321.56 88.166 321.747 87.83C321.933 87.4847 322.027 87.0927 322.027 86.654C322.027 86.2247 321.929 85.842 321.733 85.506C321.546 85.17 321.289 84.9087 320.963 84.722C320.645 84.526 320.277 84.428 319.857 84.428C319.437 84.428 319.063 84.526 318.737 84.722C318.41 84.9087 318.153 85.17 317.967 85.506C317.78 85.842 317.687 86.2247 317.687 86.654C317.687 87.0927 317.78 87.4847 317.967 87.83C318.153 88.166 318.41 88.432 318.737 88.628C319.063 88.824 319.437 88.922 319.857 88.922ZM329.452 90V86.122C329.452 85.618 329.294 85.2027 328.976 84.876C328.659 84.5493 328.248 84.386 327.744 84.386C327.408 84.386 327.11 84.4607 326.848 84.61C326.587 84.7593 326.382 84.9647 326.232 85.226C326.083 85.4873 326.008 85.786 326.008 86.122L325.49 85.828C325.49 85.324 325.602 84.876 325.826 84.484C326.05 84.092 326.363 83.784 326.764 83.56C327.166 83.3267 327.618 83.21 328.122 83.21C328.626 83.21 329.07 83.336 329.452 83.588C329.844 83.84 330.152 84.1713 330.376 84.582C330.6 84.9833 330.712 85.4127 330.712 85.87V90H329.452ZM324.748 90V83.35H326.008V90H324.748ZM97.738 111.14C97.122 111.14 96.5713 110.991 96.086 110.692C95.6007 110.384 95.2133 109.969 94.924 109.446C94.644 108.923 94.504 108.335 94.504 107.682C94.504 107.029 94.644 106.441 94.924 105.918C95.2133 105.395 95.6007 104.98 96.086 104.672C96.5713 104.364 97.122 104.21 97.738 104.21C98.2327 104.21 98.6807 104.317 99.082 104.532C99.4833 104.737 99.8053 105.027 100.048 105.4C100.3 105.764 100.44 106.189 100.468 106.674V108.676C100.44 109.152 100.305 109.577 100.062 109.95C99.8193 110.323 99.4973 110.617 99.096 110.832C98.6947 111.037 98.242 111.14 97.738 111.14ZM97.948 109.95C98.368 109.95 98.732 109.852 99.04 109.656C99.3573 109.46 99.6047 109.194 99.782 108.858C99.9593 108.513 100.048 108.121 100.048 107.682C100.048 107.225 99.9547 106.828 99.768 106.492C99.5907 106.156 99.3433 105.89 99.026 105.694C98.718 105.498 98.354 105.4 97.934 105.4C97.514 105.4 97.1453 105.498 96.828 105.694C96.5107 105.89 96.2587 106.161 96.072 106.506C95.8947 106.842 95.806 107.229 95.806 107.668C95.806 108.116 95.8947 108.513 96.072 108.858C96.2587 109.194 96.5107 109.46 96.828 109.656C97.1547 109.852 97.528 109.95 97.948 109.95ZM101.238 111H99.964V109.208L100.202 107.584L99.964 105.974V101.004H101.238V111ZM106.152 111.14C105.49 111.14 104.892 110.991 104.36 110.692C103.828 110.384 103.408 109.969 103.1 109.446C102.792 108.923 102.638 108.331 102.638 107.668C102.638 107.015 102.788 106.427 103.086 105.904C103.394 105.381 103.805 104.971 104.318 104.672C104.841 104.364 105.424 104.21 106.068 104.21C106.684 104.21 107.226 104.35 107.692 104.63C108.168 104.91 108.537 105.297 108.798 105.792C109.069 106.287 109.204 106.847 109.204 107.472C109.204 107.565 109.2 107.668 109.19 107.78C109.181 107.883 109.162 108.004 109.134 108.144H103.52V107.094H108.462L108 107.5C108 107.052 107.921 106.674 107.762 106.366C107.604 106.049 107.38 105.806 107.09 105.638C106.801 105.461 106.451 105.372 106.04 105.372C105.611 105.372 105.233 105.465 104.906 105.652C104.58 105.839 104.328 106.1 104.15 106.436C103.973 106.772 103.884 107.169 103.884 107.626C103.884 108.093 103.978 108.503 104.164 108.858C104.351 109.203 104.617 109.474 104.962 109.67C105.308 109.857 105.704 109.95 106.152 109.95C106.526 109.95 106.866 109.885 107.174 109.754C107.492 109.623 107.762 109.427 107.986 109.166L108.798 109.992C108.481 110.365 108.089 110.65 107.622 110.846C107.165 111.042 106.675 111.14 106.152 111.14ZM110.578 111V101.004H111.838V111H110.578ZM113.696 111V104.35H114.956V111H113.696ZM114.326 103.02C114.092 103.02 113.901 102.945 113.752 102.796C113.602 102.637 113.528 102.441 113.528 102.208C113.528 101.984 113.602 101.797 113.752 101.648C113.901 101.489 114.092 101.41 114.326 101.41C114.559 101.41 114.75 101.489 114.9 101.648C115.049 101.797 115.124 101.984 115.124 102.208C115.124 102.441 115.049 102.637 114.9 102.796C114.75 102.945 114.559 103.02 114.326 103.02ZM119.095 111L116.043 104.35H117.443L119.893 109.964H119.081L121.545 104.35H122.889L119.837 111H119.095ZM126.783 111.14C126.121 111.14 125.523 110.991 124.991 110.692C124.459 110.384 124.039 109.969 123.731 109.446C123.423 108.923 123.269 108.331 123.269 107.668C123.269 107.015 123.419 106.427 123.717 105.904C124.025 105.381 124.436 104.971 124.949 104.672C125.472 104.364 126.055 104.21 126.699 104.21C127.315 104.21 127.857 104.35 128.323 104.63C128.799 104.91 129.168 105.297 129.429 105.792C129.7 106.287 129.835 106.847 129.835 107.472C129.835 107.565 129.831 107.668 129.821 107.78C129.812 107.883 129.793 108.004 129.765 108.144H124.151V107.094H129.093L128.631 107.5C128.631 107.052 128.552 106.674 128.393 106.366C128.235 106.049 128.011 105.806 127.721 105.638C127.432 105.461 127.082 105.372 126.671 105.372C126.242 105.372 125.864 105.465 125.537 105.652C125.211 105.839 124.959 106.1 124.781 106.436C124.604 106.772 124.515 107.169 124.515 107.626C124.515 108.093 124.609 108.503 124.795 108.858C124.982 109.203 125.248 109.474 125.593 109.67C125.939 109.857 126.335 109.95 126.783 109.95C127.157 109.95 127.497 109.885 127.805 109.754C128.123 109.623 128.393 109.427 128.617 109.166L129.429 109.992C129.112 110.365 128.72 110.65 128.253 110.846C127.796 111.042 127.306 111.14 126.783 111.14ZM131.209 111V104.35H132.469V111H131.209ZM132.469 107.206L131.993 106.996C131.993 106.147 132.189 105.47 132.581 104.966C132.973 104.462 133.538 104.21 134.275 104.21C134.611 104.21 134.914 104.271 135.185 104.392C135.456 104.504 135.708 104.695 135.941 104.966L135.115 105.82C134.975 105.671 134.821 105.563 134.653 105.498C134.485 105.433 134.289 105.4 134.065 105.4C133.598 105.4 133.216 105.549 132.917 105.848C132.618 106.147 132.469 106.599 132.469 107.206ZM138.889 111.056L136.005 104.35H137.405L139.547 109.6H139.099L141.353 104.35H142.753L139.645 111.056H138.889ZM136.985 113.786L138.945 109.768L139.645 111.056L138.385 113.786H136.985ZM144.671 111.14C144.41 111.14 144.191 111.051 144.013 110.874C143.845 110.687 143.761 110.473 143.761 110.23C143.761 109.959 143.845 109.74 144.013 109.572C144.191 109.395 144.41 109.306 144.671 109.306C144.933 109.306 145.147 109.395 145.315 109.572C145.493 109.74 145.581 109.959 145.581 110.23C145.581 110.473 145.493 110.687 145.315 110.874C145.147 111.051 144.933 111.14 144.671 111.14ZM144.671 106.772C144.41 106.772 144.191 106.683 144.013 106.506C143.845 106.329 143.761 106.114 143.761 105.862C143.761 105.591 143.845 105.372 144.013 105.204C144.191 105.027 144.41 104.938 144.671 104.938C144.933 104.938 145.147 105.027 145.315 105.204C145.493 105.372 145.581 105.591 145.581 105.862C145.581 106.114 145.493 106.329 145.315 106.506C145.147 106.683 144.933 106.772 144.671 106.772ZM153.26 111V101.284H154.548V111H153.26ZM150.628 102.46V101.284H154.352V102.46H150.628ZM150.628 111V109.824H156.76V111H150.628ZM160.188 111L163.968 102.054L165.27 102.096L161.56 111H160.188ZM158.466 102.46V101.284H165.27V102.096L164.696 102.46H158.466ZM170.07 111V101.284H170.994L175.11 108.046H174.48L178.596 101.284H179.52V111H178.204V103.594L178.512 103.678L175.264 109.012H174.34L171.092 103.678L171.386 103.594V111H170.07ZM184.418 111.14C183.811 111.14 183.261 110.991 182.766 110.692C182.271 110.384 181.879 109.969 181.59 109.446C181.31 108.923 181.17 108.335 181.17 107.682C181.17 107.029 181.31 106.441 181.59 105.918C181.879 105.395 182.267 104.98 182.752 104.672C183.247 104.364 183.802 104.21 184.418 104.21C184.922 104.21 185.37 104.317 185.762 104.532C186.163 104.737 186.485 105.027 186.728 105.4C186.971 105.764 187.106 106.189 187.134 106.674V108.676C187.106 109.152 186.971 109.577 186.728 109.95C186.495 110.323 186.177 110.617 185.776 110.832C185.384 111.037 184.931 111.14 184.418 111.14ZM184.628 109.95C185.253 109.95 185.757 109.74 186.14 109.32C186.523 108.891 186.714 108.345 186.714 107.682C186.714 107.225 186.625 106.828 186.448 106.492C186.28 106.147 186.037 105.881 185.72 105.694C185.403 105.498 185.034 105.4 184.614 105.4C184.194 105.4 183.821 105.498 183.494 105.694C183.177 105.89 182.925 106.161 182.738 106.506C182.561 106.842 182.472 107.229 182.472 107.668C182.472 108.116 182.561 108.513 182.738 108.858C182.925 109.194 183.181 109.46 183.508 109.656C183.835 109.852 184.208 109.95 184.628 109.95ZM186.63 111V109.208L186.868 107.584L186.63 105.974V104.35H187.904V111H186.63ZM189.738 111V104.35H190.998V111H189.738ZM190.998 107.206L190.522 106.996C190.522 106.147 190.718 105.47 191.11 104.966C191.502 104.462 192.067 104.21 192.804 104.21C193.14 104.21 193.444 104.271 193.714 104.392C193.985 104.504 194.237 104.695 194.47 104.966L193.644 105.82C193.504 105.671 193.35 105.563 193.182 105.498C193.014 105.433 192.818 105.4 192.594 105.4C192.128 105.4 191.745 105.549 191.446 105.848C191.148 106.147 190.998 106.599 190.998 107.206ZM198.306 110.202L202.016 106.422C202.389 106.049 202.683 105.727 202.898 105.456C203.112 105.176 203.266 104.919 203.36 104.686C203.453 104.453 203.5 104.21 203.5 103.958C203.5 103.463 203.332 103.076 202.996 102.796C202.669 102.516 202.24 102.376 201.708 102.376C201.213 102.376 200.765 102.493 200.364 102.726C199.972 102.95 199.622 103.319 199.314 103.832L198.376 103.062C198.768 102.427 199.244 101.951 199.804 101.634C200.364 101.307 201.012 101.144 201.75 101.144C202.366 101.144 202.898 101.261 203.346 101.494C203.803 101.727 204.158 102.054 204.41 102.474C204.662 102.894 204.788 103.384 204.788 103.944C204.788 104.355 204.736 104.719 204.634 105.036C204.531 105.353 204.354 105.675 204.102 106.002C203.85 106.329 203.495 106.721 203.038 107.178L200.028 110.16L198.306 110.202ZM198.306 111V110.202L199.412 109.824H205.026V111H198.306ZM209.994 111.14C209.294 111.14 208.654 110.935 208.076 110.524C207.506 110.113 207.049 109.53 206.704 108.774C206.358 108.018 206.186 107.136 206.186 106.128C206.186 105.111 206.354 104.229 206.69 103.482C207.035 102.735 207.492 102.161 208.062 101.76C208.64 101.349 209.28 101.144 209.98 101.144C210.68 101.144 211.314 101.349 211.884 101.76C212.462 102.161 212.92 102.735 213.256 103.482C213.601 104.229 213.774 105.115 213.774 106.142C213.774 107.159 213.601 108.046 213.256 108.802C212.92 109.549 212.467 110.127 211.898 110.538C211.328 110.939 210.694 111.14 209.994 111.14ZM209.98 109.894C210.465 109.894 210.89 109.754 211.254 109.474C211.627 109.185 211.916 108.76 212.122 108.2C212.336 107.64 212.444 106.949 212.444 106.128C212.444 105.307 212.336 104.621 212.122 104.07C211.916 103.51 211.627 103.09 211.254 102.81C210.89 102.521 210.465 102.376 209.98 102.376C209.494 102.376 209.065 102.521 208.692 102.81C208.328 103.09 208.038 103.51 207.824 104.07C207.618 104.621 207.516 105.307 207.516 106.128C207.516 106.949 207.618 107.64 207.824 108.2C208.038 108.76 208.332 109.185 208.706 109.474C209.079 109.754 209.504 109.894 209.98 109.894ZM214.821 110.202L218.531 106.422C218.905 106.049 219.199 105.727 219.413 105.456C219.628 105.176 219.782 104.919 219.875 104.686C219.969 104.453 220.015 104.21 220.015 103.958C220.015 103.463 219.847 103.076 219.511 102.796C219.185 102.516 218.755 102.376 218.223 102.376C217.729 102.376 217.281 102.493 216.879 102.726C216.487 102.95 216.137 103.319 215.829 103.832L214.891 103.062C215.283 102.427 215.759 101.951 216.319 101.634C216.879 101.307 217.528 101.144 218.265 101.144C218.881 101.144 219.413 101.261 219.861 101.494C220.319 101.727 220.673 102.054 220.925 102.474C221.177 102.894 221.303 103.384 221.303 103.944C221.303 104.355 221.252 104.719 221.149 105.036C221.047 105.353 220.869 105.675 220.617 106.002C220.365 106.329 220.011 106.721 219.553 107.178L216.543 110.16L214.821 110.202ZM214.821 111V110.202L215.927 109.824H221.541V111H214.821ZM222.799 107.654L226.313 101.284H227.797L224.213 107.654H222.799ZM222.799 108.466V107.654L223.359 107.29H230.205V108.466H222.799ZM227.517 111V104.574H228.805V111H227.517Z" fill="#2A2C35"/>
<path d="M94 148C94 144.28 94 142.42 94.4089 140.894C95.5185 136.753 98.7531 133.518 102.894 132.409C104.42 132 106.28 132 110 132H177C180.72 132 182.58 132 184.106 132.409C188.247 133.518 191.482 136.753 192.591 140.894C193 142.42 193 144.28 193 148C193 151.72 193 153.58 192.591 155.106C191.482 159.247 188.247 162.482 184.106 163.591C182.58 164 180.72 164 177 164H110C106.28 164 104.42 164 102.894 163.591C98.7531 162.482 95.5185 159.247 94.4089 155.106C94 153.58 94 151.72 94 148Z" fill="#4F46E5"/>
<path d="M106.071 154V143.12H107.911V154H106.071ZM102.423 144.48V142.8H111.559V144.48H102.423ZM111.281 154V146.32H113.041V154H111.281ZM113.041 149.728L112.433 149.424C112.433 148.453 112.646 147.669 113.073 147.072C113.51 146.464 114.166 146.16 115.041 146.16C115.425 146.16 115.771 146.229 116.081 146.368C116.39 146.507 116.678 146.731 116.945 147.04L115.793 148.224C115.654 148.075 115.499 147.968 115.329 147.904C115.158 147.84 114.961 147.808 114.737 147.808C114.246 147.808 113.841 147.963 113.521 148.272C113.201 148.581 113.041 149.067 113.041 149.728ZM120.778 154.16C120.085 154.16 119.455 153.984 118.89 153.632C118.335 153.28 117.893 152.805 117.562 152.208C117.242 151.6 117.082 150.923 117.082 150.176C117.082 149.419 117.242 148.741 117.562 148.144C117.893 147.536 118.335 147.056 118.89 146.704C119.455 146.341 120.085 146.16 120.778 146.16C121.365 146.16 121.882 146.288 122.33 146.544C122.789 146.789 123.151 147.131 123.418 147.568C123.685 148.005 123.818 148.501 123.818 149.056V151.264C123.818 151.819 123.685 152.315 123.418 152.752C123.162 153.189 122.805 153.536 122.346 153.792C121.887 154.037 121.365 154.16 120.778 154.16ZM121.066 152.496C121.717 152.496 122.239 152.277 122.634 151.84C123.039 151.403 123.242 150.843 123.242 150.16C123.242 149.701 123.151 149.296 122.97 148.944C122.789 148.592 122.533 148.32 122.202 148.128C121.882 147.925 121.503 147.824 121.066 147.824C120.639 147.824 120.261 147.925 119.93 148.128C119.61 148.32 119.354 148.592 119.162 148.944C118.981 149.296 118.89 149.701 118.89 150.16C118.89 150.619 118.981 151.024 119.162 151.376C119.354 151.728 119.61 152.005 119.93 152.208C120.261 152.4 120.639 152.496 121.066 152.496ZM123.13 154V151.936L123.434 150.064L123.13 148.208V146.32H124.89V154H123.13ZM130.379 154.16C129.622 154.16 128.934 153.984 128.315 153.632C127.707 153.28 127.227 152.8 126.875 152.192C126.523 151.584 126.347 150.907 126.347 150.16C126.347 149.403 126.523 148.725 126.875 148.128C127.227 147.52 127.707 147.04 128.315 146.688C128.934 146.336 129.622 146.16 130.379 146.16C130.977 146.16 131.531 146.277 132.043 146.512C132.566 146.736 133.009 147.061 133.371 147.488L132.219 148.656C131.995 148.389 131.723 148.192 131.403 148.064C131.094 147.925 130.753 147.856 130.379 147.856C129.942 147.856 129.553 147.957 129.211 148.16C128.881 148.352 128.619 148.619 128.427 148.96C128.246 149.301 128.155 149.701 128.155 150.16C128.155 150.608 128.246 151.008 128.427 151.36C128.619 151.701 128.881 151.973 129.211 152.176C129.553 152.368 129.942 152.464 130.379 152.464C130.753 152.464 131.094 152.4 131.403 152.272C131.723 152.133 131.995 151.931 132.219 151.664L133.371 152.832C133.009 153.259 132.566 153.589 132.043 153.824C131.531 154.048 130.977 154.16 130.379 154.16ZM139.52 154L136.272 150.08L139.504 146.32H141.6L137.888 150.544L137.968 149.536L141.76 154H139.52ZM134.64 154V142.48H136.4V154H134.64ZM149.535 154.16C148.788 154.16 148.111 153.984 147.503 153.632C146.895 153.269 146.41 152.784 146.047 152.176C145.695 151.568 145.519 150.891 145.519 150.144C145.519 149.397 145.695 148.725 146.047 148.128C146.41 147.531 146.895 147.056 147.503 146.704C148.111 146.341 148.788 146.16 149.535 146.16C150.292 146.16 150.975 146.336 151.583 146.688C152.191 147.04 152.671 147.52 153.023 148.128C153.386 148.725 153.567 149.397 153.567 150.144C153.567 150.891 153.386 151.568 153.023 152.176C152.671 152.784 152.191 153.269 151.583 153.632C150.975 153.984 150.292 154.16 149.535 154.16ZM149.535 152.464C149.972 152.464 150.356 152.368 150.687 152.176C151.028 151.973 151.29 151.696 151.471 151.344C151.663 150.992 151.759 150.592 151.759 150.144C151.759 149.696 151.663 149.301 151.471 148.96C151.279 148.619 151.018 148.352 150.687 148.16C150.356 147.957 149.972 147.856 149.535 147.856C149.108 147.856 148.724 147.957 148.383 148.16C148.052 148.352 147.791 148.619 147.599 148.96C147.418 149.301 147.327 149.696 147.327 150.144C147.327 150.592 147.418 150.992 147.599 151.344C147.791 151.696 148.052 151.973 148.383 152.176C148.724 152.368 149.108 152.464 149.535 152.464ZM155.031 154V146.32H156.791V154H155.031ZM156.791 149.728L156.183 149.424C156.183 148.453 156.396 147.669 156.823 147.072C157.26 146.464 157.916 146.16 158.791 146.16C159.175 146.16 159.521 146.229 159.831 146.368C160.14 146.507 160.428 146.731 160.695 147.04L159.543 148.224C159.404 148.075 159.249 147.968 159.079 147.904C158.908 147.84 158.711 147.808 158.487 147.808C157.996 147.808 157.591 147.963 157.271 148.272C156.951 148.581 156.791 149.067 156.791 149.728ZM164.528 154.16C163.835 154.16 163.205 153.984 162.64 153.632C162.085 153.28 161.643 152.805 161.312 152.208C160.992 151.6 160.832 150.923 160.832 150.176C160.832 149.419 160.992 148.741 161.312 148.144C161.643 147.536 162.085 147.056 162.64 146.704C163.205 146.341 163.835 146.16 164.528 146.16C165.115 146.16 165.632 146.288 166.08 146.544C166.539 146.789 166.901 147.131 167.168 147.568C167.435 148.005 167.568 148.501 167.568 149.056V151.264C167.568 151.819 167.435 152.315 167.168 152.752C166.912 153.189 166.555 153.536 166.096 153.792C165.637 154.037 165.115 154.16 164.528 154.16ZM164.816 152.496C165.253 152.496 165.632 152.4 165.952 152.208C166.283 152.005 166.539 151.728 166.72 151.376C166.901 151.024 166.992 150.619 166.992 150.16C166.992 149.701 166.901 149.296 166.72 148.944C166.539 148.592 166.283 148.32 165.952 148.128C165.632 147.925 165.253 147.824 164.816 147.824C164.389 147.824 164.011 147.925 163.68 148.128C163.36 148.32 163.104 148.592 162.912 148.944C162.731 149.296 162.64 149.701 162.64 150.16C162.64 150.619 162.731 151.024 162.912 151.376C163.104 151.728 163.36 152.005 163.68 152.208C164.011 152.4 164.389 152.496 164.816 152.496ZM168.64 154H166.88V151.936L167.184 150.064L166.88 148.208V142.48H168.64V154ZM174.161 154.16C173.393 154.16 172.7 153.989 172.081 153.648C171.473 153.296 170.988 152.816 170.625 152.208C170.273 151.6 170.097 150.917 170.097 150.16C170.097 149.403 170.273 148.725 170.625 148.128C170.977 147.52 171.452 147.04 172.049 146.688C172.657 146.336 173.329 146.16 174.065 146.16C174.78 146.16 175.409 146.325 175.953 146.656C176.508 146.987 176.94 147.44 177.249 148.016C177.569 148.592 177.729 149.248 177.729 149.984C177.729 150.112 177.719 150.245 177.697 150.384C177.687 150.512 177.665 150.656 177.633 150.816H171.329V149.376H176.721L176.065 149.952C176.044 149.483 175.953 149.088 175.793 148.768C175.633 148.448 175.404 148.203 175.105 148.032C174.817 147.861 174.46 147.776 174.033 147.776C173.585 147.776 173.196 147.872 172.865 148.064C172.535 148.256 172.279 148.528 172.097 148.88C171.916 149.221 171.825 149.632 171.825 150.112C171.825 150.592 171.921 151.013 172.113 151.376C172.305 151.739 172.577 152.021 172.929 152.224C173.281 152.416 173.687 152.512 174.145 152.512C174.54 152.512 174.903 152.443 175.233 152.304C175.575 152.165 175.863 151.963 176.097 151.696L177.217 152.832C176.844 153.269 176.391 153.6 175.857 153.824C175.324 154.048 174.759 154.16 174.161 154.16ZM179.14 154V146.32H180.9V154H179.14ZM180.9 149.728L180.292 149.424C180.292 148.453 180.505 147.669 180.932 147.072C181.369 146.464 182.025 146.16 182.9 146.16C183.284 146.16 183.631 146.229 183.94 146.368C184.249 146.507 184.537 146.731 184.804 147.04L183.652 148.224C183.513 148.075 183.359 147.968 183.188 147.904C183.017 147.84 182.82 147.808 182.596 147.808C182.105 147.808 181.7 147.963 181.38 148.272C181.06 148.581 180.9 149.067 180.9 149.728Z" fill="white"/>
<path d="M215.46 154.16C214.65 154.16 213.898 154.016 213.204 153.728C212.522 153.429 211.924 153.019 211.412 152.496C210.9 151.963 210.506 151.349 210.228 150.656C209.951 149.952 209.812 149.2 209.812 148.4C209.812 147.6 209.951 146.853 210.228 146.16C210.506 145.456 210.9 144.843 211.412 144.32C211.924 143.797 212.522 143.387 213.204 143.088C213.898 142.789 214.65 142.64 215.46 142.64C216.367 142.64 217.151 142.789 217.812 143.088C218.474 143.387 219.06 143.792 219.572 144.304L218.324 145.552C217.994 145.189 217.588 144.907 217.108 144.704C216.639 144.501 216.09 144.4 215.46 144.4C214.906 144.4 214.399 144.496 213.94 144.688C213.482 144.88 213.082 145.157 212.74 145.52C212.41 145.872 212.154 146.293 211.972 146.784C211.791 147.275 211.7 147.813 211.7 148.4C211.7 148.987 211.791 149.525 211.972 150.016C212.154 150.507 212.41 150.933 212.74 151.296C213.082 151.648 213.482 151.92 213.94 152.112C214.399 152.304 214.906 152.4 215.46 152.4C216.143 152.4 216.719 152.299 217.188 152.096C217.668 151.883 218.074 151.595 218.404 151.232L219.652 152.48C219.14 153.003 218.538 153.413 217.844 153.712C217.151 154.011 216.356 154.16 215.46 154.16ZM224.036 154.16C223.342 154.16 222.713 153.984 222.148 153.632C221.593 153.28 221.15 152.805 220.82 152.208C220.5 151.6 220.34 150.923 220.34 150.176C220.34 149.419 220.5 148.741 220.82 148.144C221.15 147.536 221.593 147.056 222.148 146.704C222.713 146.341 223.342 146.16 224.036 146.16C224.622 146.16 225.14 146.288 225.588 146.544C226.046 146.789 226.409 147.131 226.676 147.568C226.942 148.005 227.076 148.501 227.076 149.056V151.264C227.076 151.819 226.942 152.315 226.676 152.752C226.42 153.189 226.062 153.536 225.604 153.792C225.145 154.037 224.622 154.16 224.036 154.16ZM224.324 152.496C224.974 152.496 225.497 152.277 225.892 151.84C226.297 151.403 226.5 150.843 226.5 150.16C226.5 149.701 226.409 149.296 226.228 148.944C226.046 148.592 225.79 148.32 225.46 148.128C225.14 147.925 224.761 147.824 224.324 147.824C223.897 147.824 223.518 147.925 223.188 148.128C222.868 148.32 222.612 148.592 222.42 148.944C222.238 149.296 222.148 149.701 222.148 150.16C222.148 150.619 222.238 151.024 222.42 151.376C222.612 151.728 222.868 152.005 223.188 152.208C223.518 152.4 223.897 152.496 224.324 152.496ZM226.388 154V151.936L226.692 150.064L226.388 148.208V146.32H228.148V154H226.388ZM235.365 154V149.568C235.365 149.056 235.2 148.635 234.869 148.304C234.549 147.973 234.133 147.808 233.621 147.808C233.28 147.808 232.976 147.883 232.709 148.032C232.442 148.181 232.234 148.389 232.085 148.656C231.936 148.923 231.861 149.227 231.861 149.568L231.173 149.184C231.173 148.597 231.301 148.08 231.557 147.632C231.813 147.173 232.165 146.816 232.613 146.56C233.072 146.293 233.584 146.16 234.149 146.16C234.725 146.16 235.237 146.309 235.685 146.608C236.133 146.896 236.485 147.275 236.741 147.744C236.997 148.203 237.125 148.683 237.125 149.184V154H235.365ZM230.101 154V146.32H231.861V154H230.101ZM242.45 154.16C241.692 154.16 241.004 153.984 240.386 153.632C239.778 153.28 239.298 152.8 238.946 152.192C238.594 151.584 238.418 150.907 238.418 150.16C238.418 149.403 238.594 148.725 238.946 148.128C239.298 147.52 239.778 147.04 240.386 146.688C241.004 146.336 241.692 146.16 242.45 146.16C243.047 146.16 243.602 146.277 244.114 146.512C244.636 146.736 245.079 147.061 245.442 147.488L244.29 148.656C244.066 148.389 243.794 148.192 243.474 148.064C243.164 147.925 242.823 147.856 242.45 147.856C242.012 147.856 241.623 147.957 241.282 148.16C240.951 148.352 240.69 148.619 240.498 148.96C240.316 149.301 240.226 149.701 240.226 150.16C240.226 150.608 240.316 151.008 240.498 151.36C240.69 151.701 240.951 151.973 241.282 152.176C241.623 152.368 242.012 152.464 242.45 152.464C242.823 152.464 243.164 152.4 243.474 152.272C243.794 152.133 244.066 151.931 244.29 151.664L245.442 152.832C245.079 153.259 244.636 153.589 244.114 153.824C243.602 154.048 243.047 154.16 242.45 154.16ZM250.122 154.16C249.354 154.16 248.661 153.989 248.042 153.648C247.434 153.296 246.949 152.816 246.586 152.208C246.234 151.6 246.058 150.917 246.058 150.16C246.058 149.403 246.234 148.725 246.586 148.128C246.938 147.52 247.413 147.04 248.01 146.688C248.618 146.336 249.29 146.16 250.026 146.16C250.741 146.16 251.37 146.325 251.914 146.656C252.469 146.987 252.901 147.44 253.21 148.016C253.53 148.592 253.69 149.248 253.69 149.984C253.69 150.112 253.679 150.245 253.658 150.384C253.647 150.512 253.626 150.656 253.594 150.816H247.29V149.376H252.682L252.026 149.952C252.005 149.483 251.914 149.088 251.754 148.768C251.594 148.448 251.365 148.203 251.066 148.032C250.778 147.861 250.421 147.776 249.994 147.776C249.546 147.776 249.157 147.872 248.826 148.064C248.495 148.256 248.239 148.528 248.058 148.88C247.877 149.221 247.786 149.632 247.786 150.112C247.786 150.592 247.882 151.013 248.074 151.376C248.266 151.739 248.538 152.021 248.89 152.224C249.242 152.416 249.647 152.512 250.106 152.512C250.501 152.512 250.863 152.443 251.194 152.304C251.535 152.165 251.823 151.963 252.058 151.696L253.178 152.832C252.805 153.269 252.351 153.6 251.818 153.824C251.285 154.048 250.719 154.16 250.122 154.16ZM255.101 154V142.48H256.861V154H255.101Z" fill="#4F46E5"/>
</g>
<defs>
<filter id="filter0_d_5240_231024" x="0" y="0" width="404" height="242" filterUnits="userSpaceOnUse" color-interpolation-filters="sRGB">
<feFlood flood-opacity="0" result="BackgroundImageFix"/>
<feColorMatrix in="SourceAlpha" type="matrix" values="0 0 0 0 0 0 0 0 0 0 0 0 0 0 0 0 0 0 127 0" result="hardAlpha"/>
<feMorphology radius="16" operator="erode" in="SourceAlpha" result="effect1_dropShadow_5240_231024"/>
<feOffset dy="20"/>
<feGaussianBlur stdDeviation="29"/>
<feColorMatrix type="matrix" values="0 0 0 0 0 0 0 0 0 0 0 0 0 0 0 0 0 0 0.16 0"/>
<feBlend mode="normal" in2="BackgroundImageFix" result="effect1_dropShadow_5240_231024"/>
<feBlend mode="normal" in="SourceGraphic" in2="effect1_dropShadow_5240_231024" result="shape"/>
</filter>
</defs>
</svg>
