<svg width="450" height="407" viewBox="0 0 450 407" fill="none" xmlns="http://www.w3.org/2000/svg">
<g filter="url(#filter0_d_14340_18719)">
<path d="M48 38C48 30.4575 48 26.6863 50.3431 24.3431C52.6863 22 56.4575 22 64 22H352C359.542 22 363.314 22 365.657 24.3431C368 26.6863 368 30.4575 368 38V95C368 102.542 368 106.314 365.657 108.657C363.314 111 359.542 111 352 111H64C56.4575 111 52.6863 111 50.3431 108.657C48 106.314 48 102.542 48 95V38Z" fill="#1C1D23"/>
<path d="M80.5459 46.9541C80.6508 47.0586 80.734 47.1828 80.7908 47.3195C80.8476 47.4563 80.8768 47.6029 80.8768 47.7509C80.8768 47.899 80.8476 48.0456 80.7908 48.1824C80.734 48.3191 80.6508 48.4433 80.5459 48.5478L75.2959 53.7978C75.1914 53.9027 75.0672 53.9859 74.9305 54.0427C74.7937 54.0995 74.6471 54.1287 74.4991 54.1287C74.351 54.1287 74.2044 54.0995 74.0676 54.0427C73.9309 53.9859 73.8067 53.9027 73.7022 53.7978L71.4522 51.5478C71.3475 51.4432 71.2645 51.3189 71.2079 51.1822C71.1513 51.0455 71.1221 50.8989 71.1221 50.7509C71.1221 50.6029 71.1513 50.4564 71.2079 50.3197C71.2645 50.1829 71.3475 50.0587 71.4522 49.9541C71.5568 49.8494 71.6811 49.7664 71.8178 49.7098C71.9545 49.6531 72.1011 49.624 72.2491 49.624C72.3971 49.624 72.5436 49.6531 72.6803 49.7098C72.8171 49.7664 72.9413 49.8494 73.0459 49.9541L74.5 51.4062L78.9541 46.9513C79.0587 46.8468 79.183 46.7641 79.3196 46.7077C79.4563 46.6513 79.6027 46.6224 79.7506 46.6227C79.8984 46.623 80.0448 46.6524 80.1812 46.7092C80.3177 46.7661 80.4416 46.8493 80.5459 46.9541ZM86.125 50C86.125 52.0025 85.5312 53.9601 84.4186 55.6251C83.3061 57.2902 81.7248 58.5879 79.8747 59.3543C78.0246 60.1206 75.9888 60.3211 74.0247 59.9305C72.0607 59.5398 70.2566 58.5755 68.8405 57.1595C67.4245 55.7435 66.4602 53.9393 66.0696 51.9753C65.6789 50.0112 65.8794 47.9754 66.6457 46.1253C67.4121 44.2752 68.7098 42.6939 70.3749 41.5814C72.0399 40.4688 73.9975 39.875 76 39.875C78.6844 39.878 81.258 40.9457 83.1562 42.8438C85.0543 44.742 86.122 47.3156 86.125 50ZM83.875 50C83.875 48.4425 83.4131 46.9199 82.5478 45.6249C81.6825 44.3298 80.4526 43.3205 79.0136 42.7244C77.5747 42.1284 75.9913 41.9725 74.4637 42.2763C72.9361 42.5802 71.5329 43.3302 70.4315 44.4315C69.3302 45.5329 68.5802 46.9361 68.2763 48.4637C67.9725 49.9913 68.1284 51.5747 68.7245 53.0136C69.3205 54.4526 70.3299 55.6825 71.6249 56.5478C72.9199 57.4131 74.4425 57.875 76 57.875C78.0879 57.8728 80.0896 57.0424 81.566 55.566C83.0424 54.0896 83.8728 52.0879 83.875 50Z" fill="#00B49D"/>
<path d="M103.856 56V44.864H106.368V56H103.856ZM100.32 46.896V44.704H109.904V46.896H100.32ZM111.083 56V48.224H113.531V56H111.083ZM112.315 47.152C111.931 47.152 111.611 47.024 111.355 46.768C111.109 46.5013 110.987 46.1813 110.987 45.808C110.987 45.424 111.109 45.104 111.355 44.848C111.611 44.592 111.931 44.464 112.315 44.464C112.699 44.464 113.013 44.592 113.259 44.848C113.504 45.104 113.627 45.424 113.627 45.808C113.627 46.1813 113.504 46.5013 113.259 46.768C113.013 47.024 112.699 47.152 112.315 47.152ZM116.359 56V45.008H118.807V56H116.359ZM114.599 50.304V48.224H120.567V50.304H114.599ZM121.645 56V44.384H124.093V56H121.645ZM129.657 56.176C128.814 56.176 128.062 56.0053 127.401 55.664C126.75 55.312 126.238 54.8267 125.865 54.208C125.492 53.5893 125.305 52.8907 125.305 52.112C125.305 51.3333 125.486 50.64 125.849 50.032C126.222 49.4133 126.724 48.928 127.353 48.576C127.982 48.224 128.692 48.048 129.481 48.048C130.249 48.048 130.926 48.2133 131.513 48.544C132.1 48.8747 132.558 49.3333 132.889 49.92C133.23 50.5067 133.401 51.1787 133.401 51.936C133.401 52.0747 133.39 52.224 133.369 52.384C133.358 52.5333 133.332 52.7093 133.289 52.912L126.585 52.928V51.248L132.249 51.232L131.193 51.936C131.182 51.488 131.113 51.12 130.985 50.832C130.857 50.5333 130.665 50.3093 130.409 50.16C130.164 50 129.86 49.92 129.497 49.92C129.113 49.92 128.777 50.0107 128.489 50.192C128.212 50.3627 127.993 50.608 127.833 50.928C127.684 51.248 127.609 51.6373 127.609 52.096C127.609 52.5547 127.689 52.9493 127.849 53.28C128.02 53.6 128.254 53.8507 128.553 54.032C128.862 54.2027 129.225 54.288 129.641 54.288C130.025 54.288 130.372 54.224 130.681 54.096C130.99 53.9573 131.262 53.7547 131.497 53.488L132.841 54.832C132.457 55.28 131.993 55.616 131.449 55.84C130.905 56.064 130.308 56.176 129.657 56.176Z" fill="#F1F2F4"/>
<path d="M345.031 53.9694C345.171 54.1103 345.251 54.3014 345.251 54.5006C345.251 54.6999 345.171 54.891 345.031 55.0319C344.89 55.1728 344.699 55.2519 344.499 55.2519C344.3 55.2519 344.109 55.1728 343.968 55.0319L340 51.0625L336.031 55.0306C335.89 55.1715 335.699 55.2507 335.499 55.2507C335.3 55.2507 335.109 55.1715 334.968 55.0306C334.827 54.8897 334.748 54.6986 334.748 54.4994C334.748 54.3001 334.827 54.109 334.968 53.9681L338.937 50L334.969 46.0306C334.828 45.8897 334.749 45.6986 334.749 45.4994C334.749 45.3001 334.828 45.109 334.969 44.9681C335.11 44.8272 335.301 44.7481 335.501 44.7481C335.7 44.7481 335.891 44.8272 336.032 44.9681L340 48.9375L343.969 44.9675C344.11 44.8266 344.301 44.7474 344.501 44.7474C344.7 44.7474 344.891 44.8266 345.032 44.9675C345.173 45.1084 345.252 45.2995 345.252 45.4987C345.252 45.698 345.173 45.8891 345.032 46.03L341.062 50L345.031 53.9694Z" fill="#F1F2F4"/>
<path d="M102.016 90V88.796H104.718C105.437 88.796 106.067 88.642 106.608 88.334C107.149 88.0167 107.569 87.5827 107.868 87.032C108.176 86.4813 108.33 85.8467 108.33 85.128C108.33 84.4187 108.176 83.7887 107.868 83.238C107.56 82.6873 107.135 82.258 106.594 81.95C106.053 81.642 105.427 81.488 104.718 81.488H102.03V80.284H104.746C105.455 80.284 106.109 80.4053 106.706 80.648C107.313 80.8907 107.835 81.2313 108.274 81.67C108.722 82.1087 109.067 82.622 109.31 83.21C109.562 83.798 109.688 84.442 109.688 85.142C109.688 85.8327 109.562 86.4767 109.31 87.074C109.067 87.662 108.727 88.1753 108.288 88.614C107.849 89.0527 107.327 89.3933 106.72 89.636C106.123 89.8787 105.474 90 104.774 90H102.016ZM101.148 90V80.284H102.464V90H101.148ZM114.367 90.14C113.705 90.14 113.107 89.9907 112.575 89.692C112.043 89.384 111.623 88.9687 111.315 88.446C111.007 87.9233 110.853 87.3307 110.853 86.668C110.853 86.0147 111.003 85.4267 111.301 84.904C111.609 84.3813 112.02 83.9707 112.533 83.672C113.056 83.364 113.639 83.21 114.283 83.21C114.899 83.21 115.441 83.35 115.907 83.63C116.383 83.91 116.752 84.2973 117.013 84.792C117.284 85.2867 117.419 85.8467 117.419 86.472C117.419 86.5653 117.415 86.668 117.405 86.78C117.396 86.8827 117.377 87.004 117.349 87.144H111.735V86.094H116.677L116.215 86.5C116.215 86.052 116.136 85.674 115.977 85.366C115.819 85.0487 115.595 84.806 115.305 84.638C115.016 84.4607 114.666 84.372 114.255 84.372C113.826 84.372 113.448 84.4653 113.121 84.652C112.795 84.8387 112.543 85.1 112.365 85.436C112.188 85.772 112.099 86.1687 112.099 86.626C112.099 87.0927 112.193 87.5033 112.379 87.858C112.566 88.2033 112.832 88.474 113.177 88.67C113.523 88.8567 113.919 88.95 114.367 88.95C114.741 88.95 115.081 88.8847 115.389 88.754C115.707 88.6233 115.977 88.4273 116.201 88.166L117.013 88.992C116.696 89.3653 116.304 89.65 115.837 89.846C115.38 90.042 114.89 90.14 114.367 90.14ZM120.907 90.14C120.534 90.14 120.179 90.0933 119.843 90C119.516 89.8973 119.213 89.7573 118.933 89.58C118.653 89.3933 118.41 89.174 118.205 88.922L119.017 88.11C119.26 88.4087 119.54 88.6327 119.857 88.782C120.174 88.922 120.529 88.992 120.921 88.992C121.313 88.992 121.616 88.9267 121.831 88.796C122.046 88.656 122.153 88.4647 122.153 88.222C122.153 87.9793 122.064 87.7927 121.887 87.662C121.719 87.522 121.5 87.41 121.229 87.326C120.958 87.2327 120.669 87.144 120.361 87.06C120.062 86.9667 119.778 86.85 119.507 86.71C119.236 86.57 119.012 86.3787 118.835 86.136C118.667 85.8933 118.583 85.5713 118.583 85.17C118.583 84.7687 118.681 84.4233 118.877 84.134C119.073 83.8353 119.344 83.6067 119.689 83.448C120.044 83.2893 120.468 83.21 120.963 83.21C121.486 83.21 121.948 83.3033 122.349 83.49C122.76 83.6673 123.096 83.938 123.357 84.302L122.545 85.114C122.358 84.8713 122.125 84.6847 121.845 84.554C121.574 84.4233 121.266 84.358 120.921 84.358C120.557 84.358 120.277 84.4233 120.081 84.554C119.894 84.6753 119.801 84.848 119.801 85.072C119.801 85.296 119.885 85.4687 120.053 85.59C120.221 85.7113 120.44 85.814 120.711 85.898C120.991 85.982 121.28 86.0707 121.579 86.164C121.878 86.248 122.162 86.3647 122.433 86.514C122.704 86.6633 122.923 86.864 123.091 87.116C123.268 87.368 123.357 87.6993 123.357 88.11C123.357 88.7353 123.133 89.23 122.685 89.594C122.246 89.958 121.654 90.14 120.907 90.14ZM127.806 90.14C127.152 90.14 126.56 89.986 126.028 89.678C125.505 89.37 125.09 88.9547 124.782 88.432C124.483 87.9 124.334 87.312 124.334 86.668C124.334 86.0147 124.483 85.4267 124.782 84.904C125.09 84.3813 125.505 83.9707 126.028 83.672C126.56 83.364 127.152 83.21 127.806 83.21C128.319 83.21 128.795 83.308 129.234 83.504C129.672 83.6907 130.05 83.966 130.368 84.33L129.528 85.17C129.322 84.9273 129.07 84.7453 128.772 84.624C128.482 84.4933 128.16 84.428 127.806 84.428C127.386 84.428 127.012 84.526 126.686 84.722C126.359 84.9087 126.102 85.17 125.916 85.506C125.729 85.842 125.636 86.2293 125.636 86.668C125.636 87.1067 125.729 87.494 125.916 87.83C126.102 88.166 126.359 88.432 126.686 88.628C127.012 88.824 127.386 88.922 127.806 88.922C128.16 88.922 128.482 88.8613 128.772 88.74C129.07 88.6093 129.327 88.4227 129.542 88.18L130.368 89.02C130.06 89.3747 129.682 89.65 129.234 89.846C128.795 90.042 128.319 90.14 127.806 90.14ZM131.617 90V83.35H132.877V90H131.617ZM132.877 86.206L132.401 85.996C132.401 85.1467 132.597 84.47 132.989 83.966C133.381 83.462 133.946 83.21 134.683 83.21C135.019 83.21 135.323 83.2707 135.593 83.392C135.864 83.504 136.116 83.6953 136.349 83.966L135.523 84.82C135.383 84.6707 135.229 84.5633 135.061 84.498C134.893 84.4327 134.697 84.4 134.473 84.4C134.007 84.4 133.624 84.5493 133.325 84.848C133.027 85.1467 132.877 85.5993 132.877 86.206ZM137.251 90V83.35H138.511V90H137.251ZM137.881 82.02C137.647 82.02 137.456 81.9453 137.307 81.796C137.157 81.6373 137.083 81.4413 137.083 81.208C137.083 80.984 137.157 80.7973 137.307 80.648C137.456 80.4893 137.647 80.41 137.881 80.41C138.114 80.41 138.305 80.4893 138.455 80.648C138.604 80.7973 138.679 80.984 138.679 81.208C138.679 81.4413 138.604 81.6373 138.455 81.796C138.305 81.9453 138.114 82.02 137.881 82.02ZM143.867 90.14C143.363 90.14 142.906 90.0373 142.495 89.832C142.094 89.6173 141.772 89.3233 141.529 88.95C141.287 88.5767 141.151 88.152 141.123 87.676V85.674C141.151 85.1887 141.287 84.764 141.529 84.4C141.781 84.0267 142.108 83.7373 142.509 83.532C142.92 83.3173 143.373 83.21 143.867 83.21C144.474 83.21 145.02 83.364 145.505 83.672C146 83.98 146.387 84.3953 146.667 84.918C146.947 85.4407 147.087 86.0287 147.087 86.682C147.087 87.3353 146.947 87.9233 146.667 88.446C146.387 88.9687 146 89.384 145.505 89.692C145.02 89.9907 144.474 90.14 143.867 90.14ZM140.367 92.786V83.35H141.627V85.1L141.389 86.71L141.627 88.334V92.786H140.367ZM143.657 88.95C144.077 88.95 144.446 88.852 144.763 88.656C145.081 88.46 145.333 88.194 145.519 87.858C145.706 87.5127 145.799 87.116 145.799 86.668C145.799 86.2293 145.706 85.8373 145.519 85.492C145.333 85.1467 145.081 84.8807 144.763 84.694C144.446 84.498 144.082 84.4 143.671 84.4C143.251 84.4 142.883 84.498 142.565 84.694C142.248 84.8807 142.001 85.1467 141.823 85.492C141.646 85.8373 141.557 86.234 141.557 86.682C141.557 87.1207 141.641 87.5127 141.809 87.858C141.987 88.194 142.234 88.46 142.551 88.656C142.878 88.852 143.247 88.95 143.657 88.95ZM149.333 90V80.564H150.593V90H149.333ZM147.695 84.498V83.35H152.231V84.498H147.695ZM153.479 90V83.35H154.739V90H153.479ZM154.109 82.02C153.876 82.02 153.684 81.9453 153.535 81.796C153.386 81.6373 153.311 81.4413 153.311 81.208C153.311 80.984 153.386 80.7973 153.535 80.648C153.684 80.4893 153.876 80.41 154.109 80.41C154.342 80.41 154.534 80.4893 154.683 80.648C154.832 80.7973 154.907 80.984 154.907 81.208C154.907 81.4413 154.832 81.6373 154.683 81.796C154.534 81.9453 154.342 82.02 154.109 82.02ZM159.634 90.14C158.981 90.14 158.393 89.986 157.87 89.678C157.347 89.37 156.932 88.9547 156.624 88.432C156.316 87.9 156.162 87.3073 156.162 86.654C156.162 86.01 156.316 85.4313 156.624 84.918C156.932 84.3953 157.347 83.98 157.87 83.672C158.393 83.364 158.981 83.21 159.634 83.21C160.278 83.21 160.861 83.364 161.384 83.672C161.916 83.9707 162.336 84.3813 162.644 84.904C162.952 85.4267 163.106 86.01 163.106 86.654C163.106 87.3073 162.952 87.9 162.644 88.432C162.336 88.9547 161.916 89.37 161.384 89.678C160.861 89.986 160.278 90.14 159.634 90.14ZM159.634 88.922C160.054 88.922 160.427 88.824 160.754 88.628C161.081 88.432 161.337 88.166 161.524 87.83C161.711 87.4847 161.804 87.0927 161.804 86.654C161.804 86.2247 161.706 85.842 161.51 85.506C161.323 85.17 161.067 84.9087 160.74 84.722C160.423 84.526 160.054 84.428 159.634 84.428C159.214 84.428 158.841 84.526 158.514 84.722C158.187 84.9087 157.931 85.17 157.744 85.506C157.557 85.842 157.464 86.2247 157.464 86.654C157.464 87.0927 157.557 87.4847 157.744 87.83C157.931 88.166 158.187 88.432 158.514 88.628C158.841 88.824 159.214 88.922 159.634 88.922ZM169.23 90V86.122C169.23 85.618 169.071 85.2027 168.754 84.876C168.436 84.5493 168.026 84.386 167.522 84.386C167.186 84.386 166.887 84.4607 166.626 84.61C166.364 84.7593 166.159 84.9647 166.01 85.226C165.86 85.4873 165.786 85.786 165.786 86.122L165.268 85.828C165.268 85.324 165.38 84.876 165.604 84.484C165.828 84.092 166.14 83.784 166.542 83.56C166.943 83.3267 167.396 83.21 167.9 83.21C168.404 83.21 168.847 83.336 169.23 83.588C169.622 83.84 169.93 84.1713 170.154 84.582C170.378 84.9833 170.49 85.4127 170.49 85.87V90H169.23ZM164.526 90V83.35H165.786V90H164.526Z" fill="#F1F2F4"/>
</g>
<g filter="url(#filter1_d_14340_18719)">
<path d="M88 142.5C88 134.958 88 131.186 90.3431 128.843C92.6863 126.5 96.4575 126.5 104 126.5H392C399.542 126.5 403.314 126.5 405.657 128.843C408 131.186 408 134.958 408 142.5V224.5C408 232.042 408 235.814 405.657 238.157C403.314 240.5 399.542 240.5 392 240.5H104C96.4575 240.5 92.6863 240.5 90.3431 238.157C88 235.814 88 232.042 88 224.5V142.5Z" fill="#1C1D23"/>
<path d="M116 144.375C113.997 144.375 112.04 144.969 110.375 146.081C108.71 147.194 107.412 148.775 106.646 150.625C105.879 152.475 105.679 154.511 106.07 156.475C106.46 158.439 107.425 160.243 108.841 161.659C110.257 163.075 112.061 164.04 114.025 164.43C115.989 164.821 118.025 164.621 119.875 163.854C121.725 163.088 123.306 161.79 124.419 160.125C125.531 158.46 126.125 156.503 126.125 154.5C126.122 151.816 125.054 149.242 123.156 147.344C121.258 145.446 118.684 144.378 116 144.375ZM116 162.375C114.442 162.375 112.92 161.913 111.625 161.048C110.33 160.183 109.32 158.953 108.724 157.514C108.128 156.075 107.972 154.491 108.276 152.964C108.58 151.436 109.33 150.033 110.432 148.932C111.533 147.83 112.936 147.08 114.464 146.776C115.991 146.472 117.575 146.628 119.014 147.224C120.453 147.82 121.683 148.83 122.548 150.125C123.413 151.42 123.875 152.942 123.875 154.5C123.873 156.588 123.042 158.59 121.566 160.066C120.09 161.542 118.088 162.373 116 162.375ZM114.875 154.875V150C114.875 149.702 114.994 149.415 115.205 149.205C115.415 148.994 115.702 148.875 116 148.875C116.298 148.875 116.585 148.994 116.795 149.205C117.006 149.415 117.125 149.702 117.125 150V154.875C117.125 155.173 117.006 155.46 116.795 155.67C116.585 155.881 116.298 156 116 156C115.702 156 115.415 155.881 115.205 155.67C114.994 155.46 114.875 155.173 114.875 154.875ZM117.5 158.625C117.5 158.922 117.412 159.212 117.247 159.458C117.082 159.705 116.848 159.897 116.574 160.011C116.3 160.124 115.998 160.154 115.707 160.096C115.416 160.038 115.149 159.895 114.939 159.686C114.73 159.476 114.587 159.209 114.529 158.918C114.471 158.627 114.501 158.325 114.614 158.051C114.728 157.777 114.92 157.543 115.167 157.378C115.413 157.213 115.703 157.125 116 157.125C116.398 157.125 116.779 157.283 117.061 157.564C117.342 157.846 117.5 158.227 117.5 158.625Z" fill="#D99048"/>
<path d="M143.856 160.5V149.364H146.368V160.5H143.856ZM140.32 151.396V149.204H149.904V151.396H140.32ZM151.083 160.5V152.724H153.531V160.5H151.083ZM152.315 151.652C151.931 151.652 151.611 151.524 151.355 151.268C151.109 151.001 150.987 150.681 150.987 150.308C150.987 149.924 151.109 149.604 151.355 149.348C151.611 149.092 151.931 148.964 152.315 148.964C152.699 148.964 153.013 149.092 153.259 149.348C153.504 149.604 153.627 149.924 153.627 150.308C153.627 150.681 153.504 151.001 153.259 151.268C153.013 151.524 152.699 151.652 152.315 151.652ZM156.359 160.5V149.508H158.807V160.5H156.359ZM154.599 154.804V152.724H160.567V154.804H154.599ZM161.645 160.5V148.884H164.093V160.5H161.645ZM169.657 160.676C168.814 160.676 168.062 160.505 167.401 160.164C166.75 159.812 166.238 159.327 165.865 158.708C165.492 158.089 165.305 157.391 165.305 156.612C165.305 155.833 165.486 155.14 165.849 154.532C166.222 153.913 166.724 153.428 167.353 153.076C167.982 152.724 168.692 152.548 169.481 152.548C170.249 152.548 170.926 152.713 171.513 153.044C172.1 153.375 172.558 153.833 172.889 154.42C173.23 155.007 173.401 155.679 173.401 156.436C173.401 156.575 173.39 156.724 173.369 156.884C173.358 157.033 173.332 157.209 173.289 157.412L166.585 157.428V155.748L172.249 155.732L171.193 156.436C171.182 155.988 171.113 155.62 170.985 155.332C170.857 155.033 170.665 154.809 170.409 154.66C170.164 154.5 169.86 154.42 169.497 154.42C169.113 154.42 168.777 154.511 168.489 154.692C168.212 154.863 167.993 155.108 167.833 155.428C167.684 155.748 167.609 156.137 167.609 156.596C167.609 157.055 167.689 157.449 167.849 157.78C168.02 158.1 168.254 158.351 168.553 158.532C168.862 158.703 169.225 158.788 169.641 158.788C170.025 158.788 170.372 158.724 170.681 158.596C170.99 158.457 171.262 158.255 171.497 157.988L172.841 159.332C172.457 159.78 171.993 160.116 171.449 160.34C170.905 160.564 170.308 160.676 169.657 160.676Z" fill="#F1F2F4"/>
<path d="M385.031 158.469C385.171 158.61 385.251 158.801 385.251 159.001C385.251 159.2 385.171 159.391 385.031 159.532C384.89 159.673 384.699 159.752 384.499 159.752C384.3 159.752 384.109 159.673 383.968 159.532L380 155.562L376.031 159.531C375.89 159.672 375.699 159.751 375.499 159.751C375.3 159.751 375.109 159.672 374.968 159.531C374.827 159.39 374.748 159.199 374.748 158.999C374.748 158.8 374.827 158.609 374.968 158.468L378.937 154.5L374.969 150.531C374.828 150.39 374.749 150.199 374.749 149.999C374.749 149.8 374.828 149.609 374.969 149.468C375.11 149.327 375.301 149.248 375.501 149.248C375.7 149.248 375.891 149.327 376.032 149.468L380 153.437L383.969 149.467C384.11 149.327 384.301 149.247 384.501 149.247C384.7 149.247 384.891 149.327 385.032 149.467C385.173 149.608 385.252 149.799 385.252 149.999C385.252 150.198 385.173 150.389 385.032 150.53L381.062 154.5L385.031 158.469Z" fill="#F1F2F4"/>
<path d="M142.016 194.5V193.296H144.718C145.437 193.296 146.067 193.142 146.608 192.834C147.149 192.517 147.569 192.083 147.868 191.532C148.176 190.981 148.33 190.347 148.33 189.628C148.33 188.919 148.176 188.289 147.868 187.738C147.56 187.187 147.135 186.758 146.594 186.45C146.053 186.142 145.427 185.988 144.718 185.988H142.03V184.784H144.746C145.455 184.784 146.109 184.905 146.706 185.148C147.313 185.391 147.835 185.731 148.274 186.17C148.722 186.609 149.067 187.122 149.31 187.71C149.562 188.298 149.688 188.942 149.688 189.642C149.688 190.333 149.562 190.977 149.31 191.574C149.067 192.162 148.727 192.675 148.288 193.114C147.849 193.553 147.327 193.893 146.72 194.136C146.123 194.379 145.474 194.5 144.774 194.5H142.016ZM141.148 194.5V184.784H142.464V194.5H141.148ZM154.367 194.64C153.705 194.64 153.107 194.491 152.575 194.192C152.043 193.884 151.623 193.469 151.315 192.946C151.007 192.423 150.853 191.831 150.853 191.168C150.853 190.515 151.003 189.927 151.301 189.404C151.609 188.881 152.02 188.471 152.533 188.172C153.056 187.864 153.639 187.71 154.283 187.71C154.899 187.71 155.441 187.85 155.907 188.13C156.383 188.41 156.752 188.797 157.013 189.292C157.284 189.787 157.419 190.347 157.419 190.972C157.419 191.065 157.415 191.168 157.405 191.28C157.396 191.383 157.377 191.504 157.349 191.644H151.735V190.594H156.677L156.215 191C156.215 190.552 156.136 190.174 155.977 189.866C155.819 189.549 155.595 189.306 155.305 189.138C155.016 188.961 154.666 188.872 154.255 188.872C153.826 188.872 153.448 188.965 153.121 189.152C152.795 189.339 152.543 189.6 152.365 189.936C152.188 190.272 152.099 190.669 152.099 191.126C152.099 191.593 152.193 192.003 152.379 192.358C152.566 192.703 152.832 192.974 153.177 193.17C153.523 193.357 153.919 193.45 154.367 193.45C154.741 193.45 155.081 193.385 155.389 193.254C155.707 193.123 155.977 192.927 156.201 192.666L157.013 193.492C156.696 193.865 156.304 194.15 155.837 194.346C155.38 194.542 154.89 194.64 154.367 194.64ZM160.907 194.64C160.534 194.64 160.179 194.593 159.843 194.5C159.516 194.397 159.213 194.257 158.933 194.08C158.653 193.893 158.41 193.674 158.205 193.422L159.017 192.61C159.26 192.909 159.54 193.133 159.857 193.282C160.174 193.422 160.529 193.492 160.921 193.492C161.313 193.492 161.616 193.427 161.831 193.296C162.046 193.156 162.153 192.965 162.153 192.722C162.153 192.479 162.064 192.293 161.887 192.162C161.719 192.022 161.5 191.91 161.229 191.826C160.958 191.733 160.669 191.644 160.361 191.56C160.062 191.467 159.778 191.35 159.507 191.21C159.236 191.07 159.012 190.879 158.835 190.636C158.667 190.393 158.583 190.071 158.583 189.67C158.583 189.269 158.681 188.923 158.877 188.634C159.073 188.335 159.344 188.107 159.689 187.948C160.044 187.789 160.468 187.71 160.963 187.71C161.486 187.71 161.948 187.803 162.349 187.99C162.76 188.167 163.096 188.438 163.357 188.802L162.545 189.614C162.358 189.371 162.125 189.185 161.845 189.054C161.574 188.923 161.266 188.858 160.921 188.858C160.557 188.858 160.277 188.923 160.081 189.054C159.894 189.175 159.801 189.348 159.801 189.572C159.801 189.796 159.885 189.969 160.053 190.09C160.221 190.211 160.44 190.314 160.711 190.398C160.991 190.482 161.28 190.571 161.579 190.664C161.878 190.748 162.162 190.865 162.433 191.014C162.704 191.163 162.923 191.364 163.091 191.616C163.268 191.868 163.357 192.199 163.357 192.61C163.357 193.235 163.133 193.73 162.685 194.094C162.246 194.458 161.654 194.64 160.907 194.64ZM167.806 194.64C167.152 194.64 166.56 194.486 166.028 194.178C165.505 193.87 165.09 193.455 164.782 192.932C164.483 192.4 164.334 191.812 164.334 191.168C164.334 190.515 164.483 189.927 164.782 189.404C165.09 188.881 165.505 188.471 166.028 188.172C166.56 187.864 167.152 187.71 167.806 187.71C168.319 187.71 168.795 187.808 169.234 188.004C169.672 188.191 170.05 188.466 170.368 188.83L169.528 189.67C169.322 189.427 169.07 189.245 168.772 189.124C168.482 188.993 168.16 188.928 167.806 188.928C167.386 188.928 167.012 189.026 166.686 189.222C166.359 189.409 166.102 189.67 165.916 190.006C165.729 190.342 165.636 190.729 165.636 191.168C165.636 191.607 165.729 191.994 165.916 192.33C166.102 192.666 166.359 192.932 166.686 193.128C167.012 193.324 167.386 193.422 167.806 193.422C168.16 193.422 168.482 193.361 168.772 193.24C169.07 193.109 169.327 192.923 169.542 192.68L170.368 193.52C170.06 193.875 169.682 194.15 169.234 194.346C168.795 194.542 168.319 194.64 167.806 194.64ZM171.617 194.5V187.85H172.877V194.5H171.617ZM172.877 190.706L172.401 190.496C172.401 189.647 172.597 188.97 172.989 188.466C173.381 187.962 173.946 187.71 174.683 187.71C175.019 187.71 175.323 187.771 175.593 187.892C175.864 188.004 176.116 188.195 176.349 188.466L175.523 189.32C175.383 189.171 175.229 189.063 175.061 188.998C174.893 188.933 174.697 188.9 174.473 188.9C174.007 188.9 173.624 189.049 173.325 189.348C173.027 189.647 172.877 190.099 172.877 190.706ZM177.251 194.5V187.85H178.511V194.5H177.251ZM177.881 186.52C177.647 186.52 177.456 186.445 177.307 186.296C177.157 186.137 177.083 185.941 177.083 185.708C177.083 185.484 177.157 185.297 177.307 185.148C177.456 184.989 177.647 184.91 177.881 184.91C178.114 184.91 178.305 184.989 178.455 185.148C178.604 185.297 178.679 185.484 178.679 185.708C178.679 185.941 178.604 186.137 178.455 186.296C178.305 186.445 178.114 186.52 177.881 186.52ZM183.867 194.64C183.363 194.64 182.906 194.537 182.495 194.332C182.094 194.117 181.772 193.823 181.529 193.45C181.287 193.077 181.151 192.652 181.123 192.176V190.174C181.151 189.689 181.287 189.264 181.529 188.9C181.781 188.527 182.108 188.237 182.509 188.032C182.92 187.817 183.373 187.71 183.867 187.71C184.474 187.71 185.02 187.864 185.505 188.172C186 188.48 186.387 188.895 186.667 189.418C186.947 189.941 187.087 190.529 187.087 191.182C187.087 191.835 186.947 192.423 186.667 192.946C186.387 193.469 186 193.884 185.505 194.192C185.02 194.491 184.474 194.64 183.867 194.64ZM180.367 197.286V187.85H181.627V189.6L181.389 191.21L181.627 192.834V197.286H180.367ZM183.657 193.45C184.077 193.45 184.446 193.352 184.763 193.156C185.081 192.96 185.333 192.694 185.519 192.358C185.706 192.013 185.799 191.616 185.799 191.168C185.799 190.729 185.706 190.337 185.519 189.992C185.333 189.647 185.081 189.381 184.763 189.194C184.446 188.998 184.082 188.9 183.671 188.9C183.251 188.9 182.883 188.998 182.565 189.194C182.248 189.381 182.001 189.647 181.823 189.992C181.646 190.337 181.557 190.734 181.557 191.182C181.557 191.621 181.641 192.013 181.809 192.358C181.987 192.694 182.234 192.96 182.551 193.156C182.878 193.352 183.247 193.45 183.657 193.45ZM189.333 194.5V185.064H190.593V194.5H189.333ZM187.695 188.998V187.85H192.231V188.998H187.695ZM193.479 194.5V187.85H194.739V194.5H193.479ZM194.109 186.52C193.876 186.52 193.684 186.445 193.535 186.296C193.386 186.137 193.311 185.941 193.311 185.708C193.311 185.484 193.386 185.297 193.535 185.148C193.684 184.989 193.876 184.91 194.109 184.91C194.342 184.91 194.534 184.989 194.683 185.148C194.832 185.297 194.907 185.484 194.907 185.708C194.907 185.941 194.832 186.137 194.683 186.296C194.534 186.445 194.342 186.52 194.109 186.52ZM199.634 194.64C198.981 194.64 198.393 194.486 197.87 194.178C197.347 193.87 196.932 193.455 196.624 192.932C196.316 192.4 196.162 191.807 196.162 191.154C196.162 190.51 196.316 189.931 196.624 189.418C196.932 188.895 197.347 188.48 197.87 188.172C198.393 187.864 198.981 187.71 199.634 187.71C200.278 187.71 200.861 187.864 201.384 188.172C201.916 188.471 202.336 188.881 202.644 189.404C202.952 189.927 203.106 190.51 203.106 191.154C203.106 191.807 202.952 192.4 202.644 192.932C202.336 193.455 201.916 193.87 201.384 194.178C200.861 194.486 200.278 194.64 199.634 194.64ZM199.634 193.422C200.054 193.422 200.427 193.324 200.754 193.128C201.081 192.932 201.337 192.666 201.524 192.33C201.711 191.985 201.804 191.593 201.804 191.154C201.804 190.725 201.706 190.342 201.51 190.006C201.323 189.67 201.067 189.409 200.74 189.222C200.423 189.026 200.054 188.928 199.634 188.928C199.214 188.928 198.841 189.026 198.514 189.222C198.187 189.409 197.931 189.67 197.744 190.006C197.557 190.342 197.464 190.725 197.464 191.154C197.464 191.593 197.557 191.985 197.744 192.33C197.931 192.666 198.187 192.932 198.514 193.128C198.841 193.324 199.214 193.422 199.634 193.422ZM209.23 194.5V190.622C209.23 190.118 209.071 189.703 208.754 189.376C208.436 189.049 208.026 188.886 207.522 188.886C207.186 188.886 206.887 188.961 206.626 189.11C206.364 189.259 206.159 189.465 206.01 189.726C205.86 189.987 205.786 190.286 205.786 190.622L205.268 190.328C205.268 189.824 205.38 189.376 205.604 188.984C205.828 188.592 206.14 188.284 206.542 188.06C206.943 187.827 207.396 187.71 207.9 187.71C208.404 187.71 208.847 187.836 209.23 188.088C209.622 188.34 209.93 188.671 210.154 189.082C210.378 189.483 210.49 189.913 210.49 190.37V194.5H209.23ZM204.526 194.5V187.85H205.786V194.5H204.526Z" fill="#F1F2F4"/>
<path d="M141.144 219.5V209.7H142.754V219.5H141.144ZM142.25 219.5V218.03H147.374V219.5H142.25ZM148.645 219.5V212.78H150.185V219.5H148.645ZM149.415 211.548C149.154 211.548 148.935 211.459 148.757 211.282C148.589 211.105 148.505 210.885 148.505 210.624C148.505 210.363 148.589 210.143 148.757 209.966C148.935 209.789 149.154 209.7 149.415 209.7C149.686 209.7 149.905 209.789 150.073 209.966C150.241 210.143 150.325 210.363 150.325 210.624C150.325 210.885 150.241 211.105 150.073 211.282C149.905 211.459 149.686 211.548 149.415 211.548ZM156.519 219.5V215.622C156.519 215.174 156.374 214.805 156.085 214.516C155.805 214.227 155.441 214.082 154.993 214.082C154.694 214.082 154.428 214.147 154.195 214.278C153.961 214.409 153.779 214.591 153.649 214.824C153.518 215.057 153.453 215.323 153.453 215.622L152.851 215.286C152.851 214.773 152.963 214.32 153.187 213.928C153.411 213.527 153.719 213.214 154.111 212.99C154.512 212.757 154.96 212.64 155.455 212.64C155.959 212.64 156.407 212.771 156.799 213.032C157.191 213.284 157.499 213.615 157.723 214.026C157.947 214.427 158.059 214.847 158.059 215.286V219.5H156.519ZM151.913 219.5V212.78H153.453V219.5H151.913ZM163.894 219.5L161.052 216.07L163.88 212.78H165.714L162.466 216.476L162.536 215.594L165.854 219.5H163.894ZM159.624 219.5V209.42H161.164V219.5H159.624Z" fill="#6061EE"/>
</g>
<g filter="url(#filter2_d_14340_18719)">
<path d="M42 272C42 264.458 42 260.686 44.3431 258.343C46.6863 256 50.4575 256 58 256H346C353.542 256 357.314 256 359.657 258.343C362 260.686 362 264.458 362 272V329C362 336.542 362 340.314 359.657 342.657C357.314 345 353.542 345 346 345H58C50.4575 345 46.6863 345 44.3431 342.657C42 340.314 42 336.542 42 329V272Z" fill="#1C1D23"/>
<path d="M61.856 290V278.864H64.368V290H61.856ZM58.32 280.896V278.704H67.904V280.896H58.32ZM69.0828 290V282.224H71.5308V290H69.0828ZM70.3148 281.152C69.9308 281.152 69.6108 281.024 69.3548 280.768C69.1094 280.501 68.9868 280.181 68.9868 279.808C68.9868 279.424 69.1094 279.104 69.3548 278.848C69.6108 278.592 69.9308 278.464 70.3148 278.464C70.6988 278.464 71.0134 278.592 71.2588 278.848C71.5041 279.104 71.6268 279.424 71.6268 279.808C71.6268 280.181 71.5041 280.501 71.2588 280.768C71.0134 281.024 70.6988 281.152 70.3148 281.152ZM74.3586 290V279.008H76.8066V290H74.3586ZM72.5986 284.304V282.224H78.5666V284.304H72.5986ZM79.6453 290V278.384H82.0933V290H79.6453ZM87.6571 290.176C86.8145 290.176 86.0625 290.005 85.4011 289.664C84.7505 289.312 84.2385 288.827 83.8651 288.208C83.4918 287.589 83.3051 286.891 83.3051 286.112C83.3051 285.333 83.4865 284.64 83.8491 284.032C84.2225 283.413 84.7238 282.928 85.3531 282.576C85.9825 282.224 86.6918 282.048 87.4811 282.048C88.2491 282.048 88.9265 282.213 89.5131 282.544C90.0998 282.875 90.5585 283.333 90.8891 283.92C91.2305 284.507 91.4011 285.179 91.4011 285.936C91.4011 286.075 91.3905 286.224 91.3691 286.384C91.3585 286.533 91.3318 286.709 91.2891 286.912L84.5851 286.928V285.248L90.2491 285.232L89.1931 285.936C89.1825 285.488 89.1131 285.12 88.9851 284.832C88.8571 284.533 88.6651 284.309 88.4091 284.16C88.1638 284 87.8598 283.92 87.4971 283.92C87.1131 283.92 86.7771 284.011 86.4891 284.192C86.2118 284.363 85.9931 284.608 85.8331 284.928C85.6838 285.248 85.6091 285.637 85.6091 286.096C85.6091 286.555 85.6891 286.949 85.8491 287.28C86.0198 287.6 86.2545 287.851 86.5531 288.032C86.8625 288.203 87.2251 288.288 87.6411 288.288C88.0251 288.288 88.3718 288.224 88.6811 288.096C88.9905 287.957 89.2625 287.755 89.4971 287.488L90.8411 288.832C90.4571 289.28 89.9931 289.616 89.4491 289.84C88.9051 290.064 88.3078 290.176 87.6571 290.176Z" fill="#F1F2F4"/>
<path d="M339.031 287.969C339.171 288.11 339.251 288.301 339.251 288.501C339.251 288.7 339.171 288.891 339.031 289.032C338.89 289.173 338.699 289.252 338.499 289.252C338.3 289.252 338.109 289.173 337.968 289.032L334 285.062L330.031 289.031C329.89 289.172 329.699 289.251 329.499 289.251C329.3 289.251 329.109 289.172 328.968 289.031C328.827 288.89 328.748 288.699 328.748 288.499C328.748 288.3 328.827 288.109 328.968 287.968L332.937 284L328.969 280.031C328.828 279.89 328.749 279.699 328.749 279.499C328.749 279.3 328.828 279.109 328.969 278.968C329.11 278.827 329.301 278.748 329.501 278.748C329.7 278.748 329.891 278.827 330.032 278.968L334 282.937L337.969 278.967C338.11 278.827 338.301 278.747 338.501 278.747C338.7 278.747 338.891 278.827 339.032 278.967C339.173 279.108 339.252 279.299 339.252 279.499C339.252 279.698 339.173 279.889 339.032 280.03L335.062 284L339.031 287.969Z" fill="#F1F2F4"/>
<path d="M60.016 324V322.796H62.718C63.4367 322.796 64.0667 322.642 64.608 322.334C65.1493 322.017 65.5693 321.583 65.868 321.032C66.176 320.481 66.33 319.847 66.33 319.128C66.33 318.419 66.176 317.789 65.868 317.238C65.56 316.687 65.1353 316.258 64.594 315.95C64.0527 315.642 63.4273 315.488 62.718 315.488H60.03V314.284H62.746C63.4553 314.284 64.1087 314.405 64.706 314.648C65.3127 314.891 65.8353 315.231 66.274 315.67C66.722 316.109 67.0673 316.622 67.31 317.21C67.562 317.798 67.688 318.442 67.688 319.142C67.688 319.833 67.562 320.477 67.31 321.074C67.0673 321.662 66.7267 322.175 66.288 322.614C65.8493 323.053 65.3267 323.393 64.72 323.636C64.1227 323.879 63.474 324 62.774 324H60.016ZM59.148 324V314.284H60.464V324H59.148ZM72.3673 324.14C71.7046 324.14 71.1073 323.991 70.5753 323.692C70.0433 323.384 69.6233 322.969 69.3153 322.446C69.0073 321.923 68.8533 321.331 68.8533 320.668C68.8533 320.015 69.0026 319.427 69.3013 318.904C69.6093 318.381 70.0199 317.971 70.5333 317.672C71.0559 317.364 71.6393 317.21 72.2833 317.21C72.8993 317.21 73.4406 317.35 73.9073 317.63C74.3833 317.91 74.7519 318.297 75.0133 318.792C75.2839 319.287 75.4193 319.847 75.4193 320.472C75.4193 320.565 75.4146 320.668 75.4053 320.78C75.3959 320.883 75.3773 321.004 75.3493 321.144H69.7353V320.094H74.6773L74.2153 320.5C74.2153 320.052 74.1359 319.674 73.9773 319.366C73.8186 319.049 73.5946 318.806 73.3053 318.638C73.0159 318.461 72.6659 318.372 72.2553 318.372C71.8259 318.372 71.4479 318.465 71.1213 318.652C70.7946 318.839 70.5426 319.1 70.3653 319.436C70.1879 319.772 70.0993 320.169 70.0993 320.626C70.0993 321.093 70.1926 321.503 70.3793 321.858C70.5659 322.203 70.8319 322.474 71.1773 322.67C71.5226 322.857 71.9193 322.95 72.3673 322.95C72.7406 322.95 73.0813 322.885 73.3893 322.754C73.7066 322.623 73.9773 322.427 74.2013 322.166L75.0133 322.992C74.6959 323.365 74.3039 323.65 73.8373 323.846C73.3799 324.042 72.8899 324.14 72.3673 324.14ZM78.9071 324.14C78.5338 324.14 78.1791 324.093 77.8431 324C77.5165 323.897 77.2131 323.757 76.9331 323.58C76.6531 323.393 76.4105 323.174 76.2051 322.922L77.0171 322.11C77.2598 322.409 77.5398 322.633 77.8571 322.782C78.1745 322.922 78.5291 322.992 78.9211 322.992C79.3131 322.992 79.6165 322.927 79.8311 322.796C80.0458 322.656 80.1531 322.465 80.1531 322.222C80.1531 321.979 80.0645 321.793 79.8871 321.662C79.7191 321.522 79.4998 321.41 79.2291 321.326C78.9585 321.233 78.6691 321.144 78.3611 321.06C78.0625 320.967 77.7778 320.85 77.5071 320.71C77.2365 320.57 77.0125 320.379 76.8351 320.136C76.6671 319.893 76.5831 319.571 76.5831 319.17C76.5831 318.769 76.6811 318.423 76.8771 318.134C77.0731 317.835 77.3438 317.607 77.6891 317.448C78.0438 317.289 78.4685 317.21 78.9631 317.21C79.4858 317.21 79.9478 317.303 80.3491 317.49C80.7598 317.667 81.0958 317.938 81.3571 318.302L80.5451 319.114C80.3585 318.871 80.1251 318.685 79.8451 318.554C79.5745 318.423 79.2665 318.358 78.9211 318.358C78.5571 318.358 78.2771 318.423 78.0811 318.554C77.8945 318.675 77.8011 318.848 77.8011 319.072C77.8011 319.296 77.8851 319.469 78.0531 319.59C78.2211 319.711 78.4405 319.814 78.7111 319.898C78.9911 319.982 79.2805 320.071 79.5791 320.164C79.8778 320.248 80.1625 320.365 80.4331 320.514C80.7038 320.663 80.9231 320.864 81.0911 321.116C81.2685 321.368 81.3571 321.699 81.3571 322.11C81.3571 322.735 81.1331 323.23 80.6851 323.594C80.2465 323.958 79.6538 324.14 78.9071 324.14ZM85.8058 324.14C85.1524 324.14 84.5598 323.986 84.0278 323.678C83.5051 323.37 83.0898 322.955 82.7818 322.432C82.4831 321.9 82.3338 321.312 82.3338 320.668C82.3338 320.015 82.4831 319.427 82.7818 318.904C83.0898 318.381 83.5051 317.971 84.0278 317.672C84.5598 317.364 85.1524 317.21 85.8058 317.21C86.3191 317.21 86.7951 317.308 87.2338 317.504C87.6724 317.691 88.0504 317.966 88.3678 318.33L87.5278 319.17C87.3224 318.927 87.0704 318.745 86.7718 318.624C86.4824 318.493 86.1604 318.428 85.8058 318.428C85.3858 318.428 85.0124 318.526 84.6858 318.722C84.3591 318.909 84.1024 319.17 83.9158 319.506C83.7291 319.842 83.6358 320.229 83.6358 320.668C83.6358 321.107 83.7291 321.494 83.9158 321.83C84.1024 322.166 84.3591 322.432 84.6858 322.628C85.0124 322.824 85.3858 322.922 85.8058 322.922C86.1604 322.922 86.4824 322.861 86.7718 322.74C87.0704 322.609 87.3271 322.423 87.5418 322.18L88.3678 323.02C88.0598 323.375 87.6818 323.65 87.2338 323.846C86.7951 324.042 86.3191 324.14 85.8058 324.14ZM89.6174 324V317.35H90.8774V324H89.6174ZM90.8774 320.206L90.4014 319.996C90.4014 319.147 90.5974 318.47 90.9894 317.966C91.3814 317.462 91.946 317.21 92.6834 317.21C93.0194 317.21 93.3227 317.271 93.5934 317.392C93.864 317.504 94.116 317.695 94.3494 317.966L93.5234 318.82C93.3834 318.671 93.2294 318.563 93.0614 318.498C92.8934 318.433 92.6974 318.4 92.4734 318.4C92.0067 318.4 91.624 318.549 91.3254 318.848C91.0267 319.147 90.8774 319.599 90.8774 320.206ZM95.2505 324V317.35H96.5105V324H95.2505ZM95.8805 316.02C95.6472 316.02 95.4558 315.945 95.3065 315.796C95.1572 315.637 95.0825 315.441 95.0825 315.208C95.0825 314.984 95.1572 314.797 95.3065 314.648C95.4558 314.489 95.6472 314.41 95.8805 314.41C96.1138 314.41 96.3052 314.489 96.4545 314.648C96.6038 314.797 96.6785 314.984 96.6785 315.208C96.6785 315.441 96.6038 315.637 96.4545 315.796C96.3052 315.945 96.1138 316.02 95.8805 316.02ZM101.867 324.14C101.363 324.14 100.906 324.037 100.495 323.832C100.094 323.617 99.772 323.323 99.5294 322.95C99.2867 322.577 99.1514 322.152 99.1234 321.676V319.674C99.1514 319.189 99.2867 318.764 99.5294 318.4C99.7814 318.027 100.108 317.737 100.509 317.532C100.92 317.317 101.373 317.21 101.867 317.21C102.474 317.21 103.02 317.364 103.505 317.672C104 317.98 104.387 318.395 104.667 318.918C104.947 319.441 105.087 320.029 105.087 320.682C105.087 321.335 104.947 321.923 104.667 322.446C104.387 322.969 104 323.384 103.505 323.692C103.02 323.991 102.474 324.14 101.867 324.14ZM98.3674 326.786V317.35H99.6274V319.1L99.3894 320.71L99.6274 322.334V326.786H98.3674ZM101.657 322.95C102.077 322.95 102.446 322.852 102.763 322.656C103.081 322.46 103.333 322.194 103.519 321.858C103.706 321.513 103.799 321.116 103.799 320.668C103.799 320.229 103.706 319.837 103.519 319.492C103.333 319.147 103.081 318.881 102.763 318.694C102.446 318.498 102.082 318.4 101.671 318.4C101.251 318.4 100.883 318.498 100.565 318.694C100.248 318.881 100.001 319.147 99.8234 319.492C99.646 319.837 99.5574 320.234 99.5574 320.682C99.5574 321.121 99.6414 321.513 99.8094 321.858C99.9867 322.194 100.234 322.46 100.551 322.656C100.878 322.852 101.247 322.95 101.657 322.95ZM107.333 324V314.564H108.593V324H107.333ZM105.695 318.498V317.35H110.231V318.498H105.695ZM111.479 324V317.35H112.739V324H111.479ZM112.109 316.02C111.876 316.02 111.684 315.945 111.535 315.796C111.386 315.637 111.311 315.441 111.311 315.208C111.311 314.984 111.386 314.797 111.535 314.648C111.684 314.489 111.876 314.41 112.109 314.41C112.342 314.41 112.534 314.489 112.683 314.648C112.832 314.797 112.907 314.984 112.907 315.208C112.907 315.441 112.832 315.637 112.683 315.796C112.534 315.945 112.342 316.02 112.109 316.02ZM117.634 324.14C116.981 324.14 116.393 323.986 115.87 323.678C115.347 323.37 114.932 322.955 114.624 322.432C114.316 321.9 114.162 321.307 114.162 320.654C114.162 320.01 114.316 319.431 114.624 318.918C114.932 318.395 115.347 317.98 115.87 317.672C116.393 317.364 116.981 317.21 117.634 317.21C118.278 317.21 118.861 317.364 119.384 317.672C119.916 317.971 120.336 318.381 120.644 318.904C120.952 319.427 121.106 320.01 121.106 320.654C121.106 321.307 120.952 321.9 120.644 322.432C120.336 322.955 119.916 323.37 119.384 323.678C118.861 323.986 118.278 324.14 117.634 324.14ZM117.634 322.922C118.054 322.922 118.427 322.824 118.754 322.628C119.081 322.432 119.337 322.166 119.524 321.83C119.711 321.485 119.804 321.093 119.804 320.654C119.804 320.225 119.706 319.842 119.51 319.506C119.323 319.17 119.067 318.909 118.74 318.722C118.423 318.526 118.054 318.428 117.634 318.428C117.214 318.428 116.841 318.526 116.514 318.722C116.187 318.909 115.931 319.17 115.744 319.506C115.557 319.842 115.464 320.225 115.464 320.654C115.464 321.093 115.557 321.485 115.744 321.83C115.931 322.166 116.187 322.432 116.514 322.628C116.841 322.824 117.214 322.922 117.634 322.922ZM127.23 324V320.122C127.23 319.618 127.071 319.203 126.754 318.876C126.436 318.549 126.026 318.386 125.522 318.386C125.186 318.386 124.887 318.461 124.626 318.61C124.364 318.759 124.159 318.965 124.01 319.226C123.86 319.487 123.786 319.786 123.786 320.122L123.268 319.828C123.268 319.324 123.38 318.876 123.604 318.484C123.828 318.092 124.14 317.784 124.542 317.56C124.943 317.327 125.396 317.21 125.9 317.21C126.404 317.21 126.847 317.336 127.23 317.588C127.622 317.84 127.93 318.171 128.154 318.582C128.378 318.983 128.49 319.413 128.49 319.87V324H127.23ZM122.526 324V317.35H123.786V324H122.526Z" fill="#F1F2F4"/>
</g>
<defs>
<filter id="filter0_d_14340_18719" x="6" y="0" width="404" height="173" filterUnits="userSpaceOnUse" color-interpolation-filters="sRGB">
<feFlood flood-opacity="0" result="BackgroundImageFix"/>
<feColorMatrix in="SourceAlpha" type="matrix" values="0 0 0 0 0 0 0 0 0 0 0 0 0 0 0 0 0 0 127 0" result="hardAlpha"/>
<feMorphology radius="16" operator="erode" in="SourceAlpha" result="effect1_dropShadow_14340_18719"/>
<feOffset dy="20"/>
<feGaussianBlur stdDeviation="29"/>
<feColorMatrix type="matrix" values="0 0 0 0 0 0 0 0 0 0 0 0 0 0 0 0 0 0 0.16 0"/>
<feBlend mode="normal" in2="BackgroundImageFix" result="effect1_dropShadow_14340_18719"/>
<feBlend mode="normal" in="SourceGraphic" in2="effect1_dropShadow_14340_18719" result="shape"/>
</filter>
<filter id="filter1_d_14340_18719" x="46" y="104.5" width="404" height="198" filterUnits="userSpaceOnUse" color-interpolation-filters="sRGB">
<feFlood flood-opacity="0" result="BackgroundImageFix"/>
<feColorMatrix in="SourceAlpha" type="matrix" values="0 0 0 0 0 0 0 0 0 0 0 0 0 0 0 0 0 0 127 0" result="hardAlpha"/>
<feMorphology radius="16" operator="erode" in="SourceAlpha" result="effect1_dropShadow_14340_18719"/>
<feOffset dy="20"/>
<feGaussianBlur stdDeviation="29"/>
<feColorMatrix type="matrix" values="0 0 0 0 0 0 0 0 0 0 0 0 0 0 0 0 0 0 0.16 0"/>
<feBlend mode="normal" in2="BackgroundImageFix" result="effect1_dropShadow_14340_18719"/>
<feBlend mode="normal" in="SourceGraphic" in2="effect1_dropShadow_14340_18719" result="shape"/>
</filter>
<filter id="filter2_d_14340_18719" x="0" y="234" width="404" height="173" filterUnits="userSpaceOnUse" color-interpolation-filters="sRGB">
<feFlood flood-opacity="0" result="BackgroundImageFix"/>
<feColorMatrix in="SourceAlpha" type="matrix" values="0 0 0 0 0 0 0 0 0 0 0 0 0 0 0 0 0 0 127 0" result="hardAlpha"/>
<feMorphology radius="16" operator="erode" in="SourceAlpha" result="effect1_dropShadow_14340_18719"/>
<feOffset dy="20"/>
<feGaussianBlur stdDeviation="29"/>
<feColorMatrix type="matrix" values="0 0 0 0 0 0 0 0 0 0 0 0 0 0 0 0 0 0 0.16 0"/>
<feBlend mode="normal" in2="BackgroundImageFix" result="effect1_dropShadow_14340_18719"/>
<feBlend mode="normal" in="SourceGraphic" in2="effect1_dropShadow_14340_18719" result="shape"/>
</filter>
</defs>
</svg>
