<svg width="250" height="265" viewBox="0 0 250 265" fill="none" xmlns="http://www.w3.org/2000/svg">
<path d="M0 2C0 0.895431 0.895431 0 2 0H248C249.105 0 250 0.895431 250 2C250 3.10457 249.105 4 248 4H2C0.895435 4 0 3.10457 0 2Z" fill="#15161A"/>
<path d="M0 2C0 0.895431 0.89543 0 2 0H108C109.105 0 110 0.895431 110 2C110 3.10457 109.105 4 108 4H2C0.895429 4 0 3.10457 0 2Z" fill="#6061EE"/>
<path d="M0 70.5C0 69.3954 0.895431 68.5 2 68.5H206C207.105 68.5 208 69.3954 208 70.5C208 71.6046 207.105 72.5 206 72.5H2C0.895426 72.5 0 71.6046 0 70.5Z" fill="#15161A"/>
<path d="M0 70.5C0 69.3954 0.89543 68.5 2 68.5H108C109.105 68.5 110 69.3954 110 70.5C110 71.6046 109.105 72.5 108 72.5H2C0.895429 72.5 0 71.6046 0 70.5Z" fill="#6061EE"/>
<path d="M228.036 76.14C227.373 76.14 226.762 76.028 226.202 75.804C225.651 75.5707 225.18 75.216 224.788 74.74L225.88 73.648C226.094 73.9467 226.384 74.1847 226.748 74.362C227.121 74.5393 227.541 74.628 228.008 74.628C228.437 74.628 228.81 74.5533 229.128 74.404C229.454 74.2547 229.711 74.04 229.898 73.76C230.084 73.48 230.178 73.1487 230.178 72.766C230.178 72.3647 230.084 72.0333 229.898 71.772C229.72 71.5013 229.482 71.3007 229.184 71.17C228.885 71.03 228.563 70.96 228.218 70.96C227.835 70.96 227.49 71.002 227.182 71.086C226.874 71.17 226.575 71.3193 226.286 71.534L226.328 70.526C226.486 70.33 226.664 70.1713 226.86 70.05C227.065 69.9193 227.303 69.8213 227.574 69.756C227.854 69.6907 228.171 69.658 228.526 69.658C229.235 69.658 229.832 69.8027 230.318 70.092C230.803 70.3813 231.172 70.7687 231.424 71.254C231.676 71.73 231.802 72.262 231.802 72.85C231.802 73.4847 231.638 74.0493 231.312 74.544C230.994 75.0387 230.551 75.4307 229.982 75.72C229.422 76 228.773 76.14 228.036 76.14ZM226.286 71.534L225.404 70.652L225.852 66.2H227.322L226.804 70.834L226.286 71.534ZM226.146 67.642L225.852 66.2H231.242V67.642H226.146ZM234.795 76L238.519 67.18H240.115L236.475 76H234.795ZM233.171 67.642V66.2H240.115V67.18L239.429 67.642H233.171ZM241.485 76L247.771 66.2H249.297L243.011 76H241.485ZM247.435 76.14C247.071 76.14 246.735 76.0513 246.427 75.874C246.128 75.6967 245.89 75.4587 245.713 75.16C245.536 74.8613 245.447 74.5253 245.447 74.152C245.447 73.7787 245.536 73.4473 245.713 73.158C245.89 72.8593 246.128 72.6213 246.427 72.444C246.726 72.2667 247.062 72.178 247.435 72.178C247.808 72.178 248.144 72.2667 248.443 72.444C248.751 72.6213 248.994 72.8593 249.171 73.158C249.348 73.4473 249.437 73.7787 249.437 74.152C249.437 74.5253 249.348 74.8613 249.171 75.16C248.994 75.4587 248.756 75.6967 248.457 75.874C248.158 76.0513 247.818 76.14 247.435 76.14ZM247.435 74.95C247.668 74.95 247.855 74.8753 247.995 74.726C248.144 74.5767 248.219 74.3853 248.219 74.152C248.219 73.928 248.144 73.7413 247.995 73.592C247.846 73.4427 247.659 73.368 247.435 73.368C247.211 73.368 247.029 73.4427 246.889 73.592C246.749 73.7413 246.679 73.928 246.679 74.152C246.679 74.3853 246.749 74.5767 246.889 74.726C247.029 74.8753 247.211 74.95 247.435 74.95ZM243.333 70.022C242.969 70.022 242.633 69.9333 242.325 69.756C242.026 69.5787 241.788 69.3407 241.611 69.042C241.434 68.7433 241.345 68.4073 241.345 68.034C241.345 67.6607 241.434 67.3293 241.611 67.04C241.788 66.7413 242.026 66.5033 242.325 66.326C242.624 66.1487 242.96 66.06 243.333 66.06C243.706 66.06 244.042 66.1487 244.341 66.326C244.649 66.5033 244.892 66.7413 245.069 67.04C245.246 67.3293 245.335 67.6607 245.335 68.034C245.335 68.4073 245.246 68.7433 245.069 69.042C244.892 69.3407 244.654 69.5787 244.355 69.756C244.056 69.9333 243.716 70.022 243.333 70.022ZM243.333 68.832C243.566 68.832 243.753 68.7573 243.893 68.608C244.033 68.4587 244.103 68.2673 244.103 68.034C244.103 67.8007 244.028 67.614 243.879 67.474C243.739 67.3247 243.557 67.25 243.333 67.25C243.109 67.25 242.927 67.3247 242.787 67.474C242.647 67.614 242.577 67.8007 242.577 68.034C242.577 68.2673 242.647 68.4587 242.787 68.608C242.927 68.7573 243.109 68.832 243.333 68.832Z" fill="#F1F2F4"/>
<path d="M0 139C0 137.895 0.895431 137 2 137H248C249.105 137 250 137.895 250 139C250 140.105 249.105 141 248 141H2C0.895435 141 0 140.105 0 139Z" fill="#15161A"/>
<path d="M0 139C0 137.895 0.89543 137 2 137H108C109.105 137 110 137.895 110 139C110 140.105 109.105 141 108 141H2C0.895429 141 0 140.105 0 139Z" fill="#6061EE"/>
<g filter="url(#filter0_d_14341_19295)">
<path d="M90 114C90 106.458 90 102.686 92.3431 100.343C94.6863 98 98.4575 98 106 98H109C116.542 98 120.314 98 122.657 100.343C125 102.686 125 106.458 125 114C125 121.542 125 125.314 122.657 127.657C120.314 130 116.542 130 109 130H106C98.4575 130 94.6863 130 92.3431 127.657C90 125.314 90 121.542 90 114Z" fill="#F1F2F4"/>
<path d="M102.415 120.16C101.668 120.16 100.985 120.027 100.367 119.76C99.7478 119.493 99.2252 119.093 98.7985 118.56L99.8065 117.536C100.073 117.909 100.425 118.208 100.863 118.432C101.311 118.645 101.817 118.752 102.383 118.752C102.905 118.752 103.364 118.656 103.759 118.464C104.153 118.272 104.463 118.005 104.687 117.664C104.921 117.312 105.039 116.896 105.039 116.416C105.039 115.925 104.927 115.509 104.703 115.168C104.479 114.827 104.18 114.571 103.807 114.4C103.433 114.219 103.023 114.128 102.575 114.128C102.127 114.128 101.716 114.181 101.343 114.288C100.969 114.395 100.617 114.576 100.287 114.832L100.303 113.872C100.495 113.648 100.708 113.467 100.943 113.328C101.188 113.189 101.465 113.083 101.775 113.008C102.095 112.933 102.452 112.896 102.847 112.896C103.636 112.896 104.303 113.056 104.847 113.376C105.401 113.696 105.823 114.128 106.111 114.672C106.409 115.216 106.559 115.824 106.559 116.496C106.559 117.2 106.377 117.829 106.015 118.384C105.663 118.939 105.172 119.376 104.543 119.696C103.924 120.005 103.215 120.16 102.415 120.16ZM100.287 114.832L99.4705 114.016L99.9825 108.896H101.359L100.783 114.16L100.287 114.832ZM100.303 110.24L99.9825 108.896H105.983V110.24H100.303ZM110.284 120L114.604 109.776L116.092 109.824L111.852 120H110.284ZM108.316 110.24V108.896H116.092V109.824L115.436 110.24H108.316Z" fill="#2A2C35"/>
<path d="M112.002 130L109.414 132.588C108.633 133.369 107.367 133.369 106.586 132.588L103.998 130L112.002 130Z" fill="#F1F2F4"/>
</g>
<path d="M0 197H250V205H0V197Z" fill="#15161A"/>
<path d="M0 197H110V205H0V197Z" fill="#6061EE"/>
<path d="M0 263C0 261.895 0.895431 261 2 261H248C249.105 261 250 261.895 250 263C250 264.105 249.105 265 248 265H2C0.895435 265 0 264.105 0 263Z" fill="#15161A"/>
<path d="M85 263C85 261.895 85.8954 261 87 261H164C165.105 261 166 261.895 166 263C166 264.105 165.105 265 164 265H87C85.8954 265 85 264.105 85 263Z" fill="#6061EE"/>
<defs>
<filter id="filter0_d_14341_19295" x="58" y="76" width="99" height="99.1738" filterUnits="userSpaceOnUse" color-interpolation-filters="sRGB">
<feFlood flood-opacity="0" result="BackgroundImageFix"/>
<feColorMatrix in="SourceAlpha" type="matrix" values="0 0 0 0 0 0 0 0 0 0 0 0 0 0 0 0 0 0 127 0" result="hardAlpha"/>
<feMorphology radius="16" operator="erode" in="SourceAlpha" result="effect1_dropShadow_14341_19295"/>
<feOffset dy="10"/>
<feGaussianBlur stdDeviation="24"/>
<feColorMatrix type="matrix" values="0 0 0 0 0 0 0 0 0 0 0 0 0 0 0 0 0 0 0.12 0"/>
<feBlend mode="normal" in2="BackgroundImageFix" result="effect1_dropShadow_14341_19295"/>
<feBlend mode="normal" in="SourceGraphic" in2="effect1_dropShadow_14341_19295" result="shape"/>
</filter>
</defs>
</svg>
