<svg width="322" height="155" viewBox="0 0 322 155" fill="none" xmlns="http://www.w3.org/2000/svg">
<rect x="159" y="154" width="64" height="1" transform="rotate(-90 159 154)" fill="#E1172F"/>
<rect x="147" y="131" width="25" height="24" rx="12" fill="#E1172F"/>
<path d="M155.916 148V146.449L159.54 143.093C159.849 142.795 160.107 142.526 160.316 142.288C160.528 142.049 160.689 141.815 160.798 141.587C160.908 141.355 160.962 141.104 160.962 140.836C160.962 140.538 160.894 140.281 160.758 140.065C160.623 139.847 160.437 139.679 160.202 139.563C159.966 139.444 159.699 139.384 159.401 139.384C159.09 139.384 158.818 139.447 158.586 139.573C158.354 139.699 158.175 139.88 158.049 140.115C157.923 140.35 157.86 140.63 157.86 140.955H155.817C155.817 140.289 155.967 139.711 156.269 139.22C156.571 138.73 156.993 138.35 157.537 138.082C158.08 137.813 158.707 137.679 159.416 137.679C160.145 137.679 160.78 137.808 161.32 138.067C161.864 138.322 162.286 138.677 162.588 139.131C162.89 139.585 163.04 140.105 163.04 140.692C163.04 141.076 162.964 141.456 162.812 141.83C162.663 142.205 162.396 142.621 162.011 143.078C161.627 143.532 161.085 144.077 160.386 144.714L158.899 146.17V146.24H163.175V148H155.916Z" fill="#F1F2F4"/>
<rect x="55" y="64" width="64" height="1" transform="rotate(-90 55 64)" fill="#E1172F"/>
<rect x="43" width="25" height="24" rx="12" fill="#E1172F"/>
<path d="M57.3302 6.81818V17H55.1775V8.86151H55.1178L52.7861 10.3232V8.41406L55.3067 6.81818H57.3302Z" fill="#F1F2F4"/>
<rect x="321.5" y="77.5" width="64" height="1" transform="rotate(180 321.5 77.5)" fill="#E1172F"/>
<rect x="297" y="65" width="25" height="24" rx="12" fill="#E1172F"/>
<path d="M309.475 82.1392C308.732 82.1392 308.071 82.0116 307.491 81.7564C306.914 81.4979 306.458 81.1432 306.124 80.6925C305.792 80.2384 305.622 79.7147 305.612 79.1214H307.779C307.792 79.37 307.874 79.5888 308.023 79.7777C308.175 79.9633 308.377 80.1075 308.629 80.2102C308.881 80.313 309.165 80.3643 309.479 80.3643C309.808 80.3643 310.098 80.3063 310.35 80.1903C310.601 80.0743 310.799 79.9136 310.941 79.7081C311.084 79.5026 311.155 79.2656 311.155 78.9972C311.155 78.7254 311.079 78.4851 310.926 78.2763C310.777 78.0642 310.562 77.8984 310.28 77.7791C310.002 77.6598 309.67 77.6001 309.286 77.6001H308.336V76.0192H309.286C309.61 76.0192 309.897 75.9628 310.146 75.8501C310.398 75.7375 310.593 75.5817 310.732 75.3828C310.872 75.1806 310.941 74.9453 310.941 74.6768C310.941 74.4216 310.88 74.1979 310.757 74.0057C310.638 73.8101 310.469 73.6577 310.25 73.5483C310.035 73.4389 309.783 73.3842 309.494 73.3842C309.203 73.3842 308.936 73.4373 308.694 73.5433C308.452 73.6461 308.258 73.7936 308.112 73.9858C307.966 74.178 307.889 74.4034 307.879 74.6619H305.815C305.825 74.0753 305.993 73.5582 306.318 73.1108C306.642 72.6634 307.08 72.3137 307.63 72.0618C308.184 71.8066 308.808 71.679 309.504 71.679C310.207 71.679 310.822 71.8066 311.349 72.0618C311.876 72.317 312.285 72.6617 312.577 73.0959C312.872 73.5268 313.018 74.0107 313.014 74.5476C313.018 75.1177 312.84 75.5933 312.482 75.9744C312.128 76.3556 311.665 76.5975 311.095 76.7003V76.7798C311.844 76.8759 312.414 77.1361 312.805 77.5604C313.2 77.9813 313.395 78.5083 313.392 79.1413C313.395 79.7214 313.228 80.2367 312.89 80.6875C312.555 81.1383 312.093 81.4929 311.503 81.7514C310.913 82.0099 310.237 82.1392 309.475 82.1392Z" fill="#F1F2F4"/>
<path d="M0 77C0 75.8954 0.895431 75 2 75H206C207.105 75 208 75.8954 208 77C208 78.1046 207.105 79 206 79H2C0.895426 79 0 78.1046 0 77Z" fill="#15161A"/>
<path d="M0 77C0 75.8954 0.89543 75 2 75H108C109.105 75 110 75.8954 110 77C110 78.1046 109.105 79 108 79H2C0.895429 79 0 78.1046 0 77Z" fill="#6061EE"/>
<path d="M228.036 82.64C227.373 82.64 226.762 82.528 226.202 82.304C225.651 82.0707 225.18 81.716 224.788 81.24L225.88 80.148C226.094 80.4467 226.384 80.6847 226.748 80.862C227.121 81.0393 227.541 81.128 228.008 81.128C228.437 81.128 228.81 81.0533 229.128 80.904C229.454 80.7547 229.711 80.54 229.898 80.26C230.084 79.98 230.178 79.6487 230.178 79.266C230.178 78.8647 230.084 78.5333 229.898 78.272C229.72 78.0013 229.482 77.8007 229.184 77.67C228.885 77.53 228.563 77.46 228.218 77.46C227.835 77.46 227.49 77.502 227.182 77.586C226.874 77.67 226.575 77.8193 226.286 78.034L226.328 77.026C226.486 76.83 226.664 76.6713 226.86 76.55C227.065 76.4193 227.303 76.3213 227.574 76.256C227.854 76.1907 228.171 76.158 228.526 76.158C229.235 76.158 229.832 76.3027 230.318 76.592C230.803 76.8813 231.172 77.2687 231.424 77.754C231.676 78.23 231.802 78.762 231.802 79.35C231.802 79.9847 231.638 80.5493 231.312 81.044C230.994 81.5387 230.551 81.9307 229.982 82.22C229.422 82.5 228.773 82.64 228.036 82.64ZM226.286 78.034L225.404 77.152L225.852 72.7H227.322L226.804 77.334L226.286 78.034ZM226.146 74.142L225.852 72.7H231.242V74.142H226.146ZM234.795 82.5L238.519 73.68H240.115L236.475 82.5H234.795ZM233.171 74.142V72.7H240.115V73.68L239.429 74.142H233.171ZM241.485 82.5L247.771 72.7H249.297L243.011 82.5H241.485ZM247.435 82.64C247.071 82.64 246.735 82.5513 246.427 82.374C246.128 82.1967 245.89 81.9587 245.713 81.66C245.536 81.3613 245.447 81.0253 245.447 80.652C245.447 80.2787 245.536 79.9473 245.713 79.658C245.89 79.3593 246.128 79.1213 246.427 78.944C246.726 78.7667 247.062 78.678 247.435 78.678C247.808 78.678 248.144 78.7667 248.443 78.944C248.751 79.1213 248.994 79.3593 249.171 79.658C249.348 79.9473 249.437 80.2787 249.437 80.652C249.437 81.0253 249.348 81.3613 249.171 81.66C248.994 81.9587 248.756 82.1967 248.457 82.374C248.158 82.5513 247.818 82.64 247.435 82.64ZM247.435 81.45C247.668 81.45 247.855 81.3753 247.995 81.226C248.144 81.0767 248.219 80.8853 248.219 80.652C248.219 80.428 248.144 80.2413 247.995 80.092C247.846 79.9427 247.659 79.868 247.435 79.868C247.211 79.868 247.029 79.9427 246.889 80.092C246.749 80.2413 246.679 80.428 246.679 80.652C246.679 80.8853 246.749 81.0767 246.889 81.226C247.029 81.3753 247.211 81.45 247.435 81.45ZM243.333 76.522C242.969 76.522 242.633 76.4333 242.325 76.256C242.026 76.0787 241.788 75.8407 241.611 75.542C241.434 75.2433 241.345 74.9073 241.345 74.534C241.345 74.1607 241.434 73.8293 241.611 73.54C241.788 73.2413 242.026 73.0033 242.325 72.826C242.624 72.6487 242.96 72.56 243.333 72.56C243.706 72.56 244.042 72.6487 244.341 72.826C244.649 73.0033 244.892 73.2413 245.069 73.54C245.246 73.8293 245.335 74.1607 245.335 74.534C245.335 74.9073 245.246 75.2433 245.069 75.542C244.892 75.8407 244.654 76.0787 244.355 76.256C244.056 76.4333 243.716 76.522 243.333 76.522ZM243.333 75.332C243.566 75.332 243.753 75.2573 243.893 75.108C244.033 74.9587 244.103 74.7673 244.103 74.534C244.103 74.3007 244.028 74.114 243.879 73.974C243.739 73.8247 243.557 73.75 243.333 73.75C243.109 73.75 242.927 73.8247 242.787 73.974C242.647 74.114 242.577 74.3007 242.577 74.534C242.577 74.7673 242.647 74.9587 242.787 75.108C242.927 75.2573 243.109 75.332 243.333 75.332Z" fill="#F1F2F4"/>
</svg>
