<svg width="330" height="101" viewBox="0 0 330 101" fill="none" xmlns="http://www.w3.org/2000/svg">
<rect width="330" height="101" fill="#F6F6F8"/>
<path d="M40 50.5C40 49.3954 40.8954 48.5 42 48.5H246C247.105 48.5 248 49.3954 248 50.5C248 51.6046 247.105 52.5 246 52.5H42C40.8954 52.5 40 51.6046 40 50.5Z" fill="#F1F2F4"/>
<path d="M40 50.5C40 49.3954 40.8954 48.5 42 48.5H148C149.105 48.5 150 49.3954 150 50.5C150 51.6046 149.105 52.5 148 52.5H42C40.8954 52.5 40 51.6046 40 50.5Z" fill="#4F46E5"/>
<path d="M268.036 56.14C267.373 56.14 266.762 56.028 266.202 55.804C265.651 55.5707 265.18 55.216 264.788 54.74L265.88 53.648C266.094 53.9467 266.384 54.1847 266.748 54.362C267.121 54.5393 267.541 54.628 268.008 54.628C268.437 54.628 268.81 54.5533 269.128 54.404C269.454 54.2547 269.711 54.04 269.898 53.76C270.084 53.48 270.178 53.1487 270.178 52.766C270.178 52.3647 270.084 52.0333 269.898 51.772C269.72 51.5013 269.482 51.3007 269.184 51.17C268.885 51.03 268.563 50.96 268.218 50.96C267.835 50.96 267.49 51.002 267.182 51.086C266.874 51.17 266.575 51.3193 266.286 51.534L266.328 50.526C266.486 50.33 266.664 50.1713 266.86 50.05C267.065 49.9193 267.303 49.8213 267.574 49.756C267.854 49.6907 268.171 49.658 268.526 49.658C269.235 49.658 269.832 49.8027 270.318 50.092C270.803 50.3813 271.172 50.7687 271.424 51.254C271.676 51.73 271.802 52.262 271.802 52.85C271.802 53.4847 271.638 54.0493 271.312 54.544C270.994 55.0387 270.551 55.4307 269.982 55.72C269.422 56 268.773 56.14 268.036 56.14ZM266.286 51.534L265.404 50.652L265.852 46.2H267.322L266.804 50.834L266.286 51.534ZM266.146 47.642L265.852 46.2H271.242V47.642H266.146ZM274.795 56L278.519 47.18H280.115L276.475 56H274.795ZM273.171 47.642V46.2H280.115V47.18L279.429 47.642H273.171ZM281.485 56L287.771 46.2H289.297L283.011 56H281.485ZM287.435 56.14C287.071 56.14 286.735 56.0513 286.427 55.874C286.128 55.6967 285.89 55.4587 285.713 55.16C285.536 54.8613 285.447 54.5253 285.447 54.152C285.447 53.7787 285.536 53.4473 285.713 53.158C285.89 52.8593 286.128 52.6213 286.427 52.444C286.726 52.2667 287.062 52.178 287.435 52.178C287.808 52.178 288.144 52.2667 288.443 52.444C288.751 52.6213 288.994 52.8593 289.171 53.158C289.348 53.4473 289.437 53.7787 289.437 54.152C289.437 54.5253 289.348 54.8613 289.171 55.16C288.994 55.4587 288.756 55.6967 288.457 55.874C288.158 56.0513 287.818 56.14 287.435 56.14ZM287.435 54.95C287.668 54.95 287.855 54.8753 287.995 54.726C288.144 54.5767 288.219 54.3853 288.219 54.152C288.219 53.928 288.144 53.7413 287.995 53.592C287.846 53.4427 287.659 53.368 287.435 53.368C287.211 53.368 287.029 53.4427 286.889 53.592C286.749 53.7413 286.679 53.928 286.679 54.152C286.679 54.3853 286.749 54.5767 286.889 54.726C287.029 54.8753 287.211 54.95 287.435 54.95ZM283.333 50.022C282.969 50.022 282.633 49.9333 282.325 49.756C282.026 49.5787 281.788 49.3407 281.611 49.042C281.434 48.7433 281.345 48.4073 281.345 48.034C281.345 47.6607 281.434 47.3293 281.611 47.04C281.788 46.7413 282.026 46.5033 282.325 46.326C282.624 46.1487 282.96 46.06 283.333 46.06C283.706 46.06 284.042 46.1487 284.341 46.326C284.649 46.5033 284.892 46.7413 285.069 47.04C285.246 47.3293 285.335 47.6607 285.335 48.034C285.335 48.4073 285.246 48.7433 285.069 49.042C284.892 49.3407 284.654 49.5787 284.355 49.756C284.056 49.9333 283.716 50.022 283.333 50.022ZM283.333 48.832C283.566 48.832 283.753 48.7573 283.893 48.608C284.033 48.4587 284.103 48.2673 284.103 48.034C284.103 47.8007 284.028 47.614 283.879 47.474C283.739 47.3247 283.557 47.25 283.333 47.25C283.109 47.25 282.927 47.3247 282.787 47.474C282.647 47.614 282.577 47.8007 282.577 48.034C282.577 48.2673 282.647 48.4587 282.787 48.608C282.927 48.7573 283.109 48.832 283.333 48.832Z" fill="#2A2C35"/>
</svg>
