<svg xmlns="http://www.w3.org/2000/svg" fill="none" viewBox="0 0 108 40"><path fill="#2b2e33" fill-rule="evenodd" d="M9.327 34.899c-.724-.551-1.778-.755-2.542-.266-1.116.735-1.426 2.245-.393 3.102C7.901 39.02 9.946 40 11.951 40c4.07 0 7.295-2.775 8.287-6.183 2.851 1.898 6.695 2 9.815.102l1.55 1.612c.785.796 2.046.796 2.893 0 .827-.775.889-2.081.124-2.897l-1.55-1.613c2.067-3.04 2.129-6.896.372-9.835 3.451-.755 6.386-3.897 6.551-8.06.248-6.346-6.117-10.264-11.448-7.06l-6.778 4.08a8.425 8.425 0 0 0-.682-.816c-1.819-1.918-4.422-2.693-6.902-2.346 0-.245.02-.51.062-.776.144-1.02.537-1.959 1.302-2.714.847-.795.888-2.08.124-2.897-.786-.796-2.046-.796-2.893 0-1.654 1.591-2.356 3.53-2.604 5.203a10.578 10.578 0 0 0 0 2.918 5.877 5.877 0 0 0-.682.592 6.145 6.145 0 0 0-.62.653 10.253 10.253 0 0 0-2.914-.143c-1.674.163-3.637.755-5.29 2.347-.847.796-.889 2.081-.124 2.897.785.796 2.046.796 2.893 0 .785-.734 1.757-1.081 2.749-1.183.268 0 .537-.04.785 0-.496 2.49.186 5.142 2.004 7.06.207.204.393.388.62.572l-.826 1.183c-.331.49-.434 1.04-.331 1.55l.227 1.144c.062.306-.02.632-.186.877-.268.408-.516.49-.909.571l-1.364.286c-.62.123-1.178.51-1.55 1.082-.764 1.142-.475 2.652.64 3.367 1.117.714 2.625.367 3.39-.776a2.46 2.46 0 0 0 .372-1.836l-.269-1.347c-.082-.388-.082-.674.166-1.061.165-.265.413-.45.723-.53l1.136-.266a2.087 2.087 0 0 0 1.282-.939l.558-.857 3.265 6c1.446 2.693-.682 6.06-3.865 6.06-.909 0-1.9-.49-2.727-1.122Zm8.968-11.734 1.426 2.898c1.736-.347 4.546-1.735 5.848-5.775l-2.686-1.51-2.294 2.204-2.273 2.183h-.021Zm10.601 6.571c-2.15 2.061-5.414 1.898-7.212-.102 2.624-.939 5.662-3.081 7.336-7.264 2.005 1.897 2.087 5.264-.124 7.366ZM17.799 18.064c1.674-1.612 1.798-4.204.248-5.816-1.509-1.612-4.112-1.632-5.786-.02-1.674 1.612-1.798 4.204-.248 5.816 1.508 1.612 4.112 1.632 5.786.02Zm6.55-4.897 5.973-3.571c2.686-1.633 5.869.326 5.745 3.53-.124 3.204-3.513 5.183-6.055 3.591l-5.662-3.55Z" clip-rule="evenodd"/><path fill="#2b2e33" d="M63.87 19.845c.62.76.929 1.66.929 2.645 0 .9-.225 1.687-.675 2.362-.45.675-1.07 1.21-1.913 1.604-.844.393-1.828.59-2.954.59H52v-16.82h6.948c1.153 0 2.138.196 2.954.562.815.365 1.462.872 1.884 1.547.422.647.647 1.406.647 2.25 0 .985-.253 1.8-.787 2.447a4.367 4.367 0 0 1-2.082 1.407c.928.14 1.716.619 2.307 1.406Zm-8.494-2.7h3.094c.816 0 1.434-.169 1.856-.535.422-.365.647-.872.647-1.547 0-.675-.225-1.21-.647-1.575-.422-.366-1.04-.563-1.856-.563h-3.094v4.22Zm5.316 6.582c.45-.394.675-.928.675-1.631 0-.732-.253-1.294-.731-1.688-.479-.422-1.126-.619-1.941-.619h-3.32v4.529h3.404c.816-.028 1.463-.225 1.913-.59ZM70.425 12.925v4.22h5.654v2.672h-5.654v4.473h6.385v2.756h-9.76v-16.85h9.76v2.758h-6.385v-.029ZM82.69 12.925v4.22h5.653v2.672H82.69v4.473h6.386v2.756h-9.761v-16.85h9.76v2.758H82.69v-.029ZM103.73 30l-2.56-3.066a9.303 9.303 0 0 1-2.166.253c-1.575 0-3.01-.366-4.332-1.097a8.173 8.173 0 0 1-3.122-3.066c-.76-1.322-1.153-2.785-1.153-4.445 0-1.631.393-3.122 1.153-4.416.76-1.322 1.828-2.335 3.122-3.066C95.994 10.366 97.43 10 99.004 10c1.604 0 3.038.366 4.36 1.097 1.322.731 2.335 1.772 3.123 3.066.787 1.294 1.153 2.785 1.153 4.416 0 1.491-.309 2.87-.956 4.08-.647 1.237-1.491 2.221-2.588 3.01L107.949 30h-4.219Zm-9.255-8.467c.422.844 1.041 1.519 1.829 1.97.787.45 1.688.674 2.7.674 1.013 0 1.913-.225 2.673-.675.759-.45 1.378-1.125 1.8-1.969.422-.844.647-1.828.647-2.954 0-1.125-.225-2.11-.647-2.953a4.631 4.631 0 0 0-1.8-1.941c-.76-.45-1.66-.675-2.673-.675-1.012 0-1.913.225-2.7.675-.788.45-1.379 1.097-1.829 1.94-.422.845-.647 1.83-.647 2.954 0 1.126.225 2.11.647 2.954Z"/></svg>
