<svg width="420" height="507" viewBox="0 0 420 507" fill="none" xmlns="http://www.w3.org/2000/svg">
<g filter="url(#filter0_d_14334_1303)">
<rect width="320" height="420" transform="translate(41 45)" fill="white"/>
<path fill-rule="evenodd" clip-rule="evenodd" d="M77 67C71.4772 67 67 71.4772 67 77C67 79.5112 67.9256 81.8061 69.4543 83.5624C70.1737 82.5477 71.0932 81.6846 72.1611 81.0291C72.569 80.7788 72.9941 80.5614 73.4323 80.3783C72.2007 79.3541 71.4167 77.8103 71.4167 76.0833C71.4167 72.9997 73.9164 70.5 77 70.5C80.0836 70.5 82.5833 72.9997 82.5833 76.0833C82.5833 77.8103 81.7993 79.3541 80.5677 80.3783C81.0059 80.5614 81.431 80.7788 81.8389 81.0291C82.9068 81.6846 83.8263 82.5477 84.5457 83.5624C86.0744 81.8061 87 79.5112 87 77C87 71.4772 82.5228 67 77 67ZM83.0699 84.9478C82.4855 84.0532 81.7088 83.296 80.7926 82.7336C79.6978 82.0616 78.4449 81.6931 77.1625 81.6643C77.1085 81.6659 77.0543 81.6667 77 81.6667C76.9457 81.6667 76.8915 81.6659 76.8375 81.6643C75.5551 81.6931 74.3022 82.0616 73.2074 82.7336C72.2912 83.296 71.5145 84.0532 70.9301 84.9478C72.6133 86.2352 74.7173 87 77 87C79.2827 87 81.3867 86.2352 83.0699 84.9478ZM77.1472 79.6637C79.058 79.5865 80.5833 78.013 80.5833 76.0833C80.5833 74.1043 78.979 72.5 77 72.5C75.021 72.5 73.4167 74.1043 73.4167 76.0833C73.4167 78.013 74.942 79.5865 76.8528 79.6637C76.9018 79.6629 76.9509 79.6625 77 79.6625C77.0491 79.6625 77.0982 79.6629 77.1472 79.6637ZM65 77C65 70.3726 70.3726 65 77 65C83.6274 65 89 70.3726 89 77C89 83.6274 83.6274 89 77 89C70.3726 89 65 83.6274 65 77Z" fill="#1C1D23"/>
<path d="M101.82 84V70.08H104.96V84H101.82ZM97.4 72.62V69.88H109.38V72.62H97.4ZM110.853 84V74.28H113.913V84H110.853ZM112.393 72.94C111.913 72.94 111.513 72.78 111.193 72.46C110.887 72.1267 110.733 71.7267 110.733 71.26C110.733 70.78 110.887 70.38 111.193 70.06C111.513 69.74 111.913 69.58 112.393 69.58C112.873 69.58 113.267 69.74 113.573 70.06C113.88 70.38 114.033 70.78 114.033 71.26C114.033 71.7267 113.88 72.1267 113.573 72.46C113.267 72.78 112.873 72.94 112.393 72.94ZM117.448 84V70.26H120.508V84H117.448ZM115.248 76.88V74.28H122.708V76.88H115.248ZM124.057 84V69.48H127.117V84H124.057ZM134.071 84.22C133.018 84.22 132.078 84.0067 131.251 83.58C130.438 83.14 129.798 82.5333 129.331 81.76C128.865 80.9867 128.631 80.1133 128.631 79.14C128.631 78.1667 128.858 77.3 129.311 76.54C129.778 75.7667 130.405 75.16 131.191 74.72C131.978 74.28 132.865 74.06 133.851 74.06C134.811 74.06 135.658 74.2667 136.391 74.68C137.125 75.0933 137.698 75.6667 138.111 76.4C138.538 77.1333 138.751 77.9733 138.751 78.92C138.751 79.0933 138.738 79.28 138.711 79.48C138.698 79.6667 138.665 79.8867 138.611 80.14L130.231 80.16V78.06L137.311 78.04L135.991 78.92C135.978 78.36 135.891 77.9 135.731 77.54C135.571 77.1667 135.331 76.8867 135.011 76.7C134.705 76.5 134.325 76.4 133.871 76.4C133.391 76.4 132.971 76.5133 132.611 76.74C132.265 76.9533 131.991 77.26 131.791 77.66C131.605 78.06 131.511 78.5467 131.511 79.12C131.511 79.6933 131.611 80.1867 131.811 80.6C132.025 81 132.318 81.3133 132.691 81.54C133.078 81.7533 133.531 81.86 134.051 81.86C134.531 81.86 134.965 81.78 135.351 81.62C135.738 81.4467 136.078 81.1933 136.371 80.86L138.051 82.54C137.571 83.1 136.991 83.52 136.311 83.8C135.631 84.08 134.885 84.22 134.071 84.22Z" fill="#2A2C35"/>
<path d="M328.546 82.9541C328.757 83.1654 328.876 83.452 328.876 83.7509C328.876 84.0498 328.757 84.3365 328.546 84.5478C328.335 84.7592 328.048 84.8779 327.749 84.8779C327.45 84.8779 327.164 84.7592 326.952 84.5478L321 78.5937L315.046 84.5459C314.835 84.7573 314.548 84.876 314.249 84.876C313.95 84.876 313.664 84.7573 313.452 84.5459C313.241 84.3346 313.122 84.0479 313.122 83.7491C313.122 83.4502 313.241 83.1635 313.452 82.9522L319.406 77L313.454 71.0459C313.243 70.8346 313.124 70.5479 313.124 70.2491C313.124 69.9502 313.243 69.6635 313.454 69.4522C313.665 69.2408 313.952 69.1221 314.251 69.1221C314.55 69.1221 314.836 69.2408 315.048 69.4522L321 75.4062L326.954 69.4512C327.165 69.2399 327.452 69.1212 327.751 69.1212C328.05 69.1212 328.336 69.2399 328.548 69.4512C328.759 69.6626 328.878 69.9492 328.878 70.2481C328.878 70.547 328.759 70.8337 328.548 71.045L322.594 77L328.546 82.9541Z" fill="#2A2C35"/>
<path d="M326.9 117C326.9 117.055 326.945 117.1 327 117.1H329C329.644 117.1 330.233 117.1 330.772 117.105C330.827 117.106 330.871 117.063 330.873 117.009C332.288 117.026 333.359 117.087 334.197 117.3C334.184 117.352 334.216 117.406 334.269 117.421C334.886 117.591 335.364 117.849 335.758 118.242C336.151 118.636 336.409 119.114 336.579 119.731C336.593 119.784 336.647 119.815 336.699 119.802C336.913 120.64 336.973 121.711 336.99 123.126C336.936 123.128 336.894 123.173 336.895 123.228C336.9 123.767 336.9 124.356 336.9 125V127.024C336.9 127.08 336.945 127.125 337 127.125V130.975C336.945 130.975 336.9 131.02 336.9 131.075V135.125C336.9 135.18 336.945 135.225 337 135.225V139.075C336.945 139.075 336.9 139.12 336.9 139.175V143.225C336.9 143.28 336.945 143.325 337 143.325V147.175C336.945 147.175 336.901 147.219 336.9 147.274V151.325C336.901 151.38 336.945 151.425 337 151.425V155.274C336.945 155.274 336.9 155.32 336.9 155.375V159.425C336.9 159.48 336.945 159.524 337 159.524V163.375C336.945 163.375 336.901 163.42 336.9 163.475V167.524C336.9 167.58 336.945 167.625 337 167.625V171.475C336.945 171.475 336.9 171.52 336.9 171.575V175.625C336.9 175.68 336.945 175.725 337 175.725V179.575C336.945 179.575 336.9 179.62 336.9 179.675V183.725C336.9 183.78 336.945 183.825 337 183.825V187.675C336.945 187.675 336.9 187.72 336.9 187.775V191.825C336.901 191.88 336.945 191.925 337 191.925V195.775C336.945 195.775 336.9 195.82 336.9 195.875V199.925C336.9 199.98 336.945 200.025 337 200.025V203.875C336.945 203.875 336.901 203.92 336.9 203.975V208.025C336.901 208.08 336.945 208.125 337 208.125V211.975C336.945 211.975 336.9 212.02 336.9 212.075V216.125C336.9 216.18 336.945 216.225 337 216.225V220.075C336.945 220.075 336.9 220.12 336.9 220.175V224.225C336.9 224.28 336.945 224.325 337 224.325V228.175C336.945 228.175 336.9 228.22 336.9 228.275V232.325C336.901 232.38 336.945 232.425 337 232.425V236.275C336.945 236.275 336.9 236.32 336.9 236.375V240.425C336.9 240.48 336.945 240.525 337 240.525V244.375C336.945 244.375 336.901 244.42 336.9 244.475V248.525C336.901 248.58 336.945 248.625 337 248.625V252.475C336.945 252.475 336.9 252.52 336.9 252.575V256.625C336.9 256.68 336.945 256.725 337 256.725V260.575C336.945 260.575 336.9 260.62 336.9 260.675V264.725C336.9 264.78 336.945 264.825 337 264.825V268.675C336.945 268.675 336.9 268.72 336.9 268.775V272.825C336.901 272.88 336.945 272.925 337 272.925V276.775C336.945 276.775 336.9 276.82 336.9 276.875V280.925C336.9 280.98 336.945 281.025 337 281.025V284.875C336.945 284.875 336.901 284.92 336.9 284.975V289.025C336.901 289.08 336.945 289.125 337 289.125V292.975C336.945 292.975 336.9 293.02 336.9 293.075V297.125C336.9 297.18 336.945 297.225 337 297.225V301.075C336.945 301.075 336.9 301.12 336.9 301.175V305.225C336.9 305.28 336.945 305.325 337 305.325V309.175C336.945 309.175 336.9 309.22 336.9 309.275V313.325C336.9 313.38 336.945 313.425 337 313.425V317.275C336.945 317.275 336.9 317.32 336.9 317.375V321.425C336.9 321.48 336.945 321.525 337 321.525V325.375C336.945 325.375 336.901 325.42 336.9 325.475V329.525C336.901 329.58 336.945 329.625 337 329.625V333.475C336.945 333.475 336.9 333.52 336.9 333.575V337.625C336.9 337.68 336.945 337.725 337 337.725V341.575C336.945 341.575 336.9 341.62 336.9 341.675V345.725C336.9 345.78 336.945 345.825 337 345.825V349.675C336.945 349.675 336.9 349.72 336.9 349.775V353.825C336.9 353.88 336.945 353.925 337 353.925V357.775C336.945 357.775 336.9 357.82 336.9 357.875V361.925C336.9 361.98 336.945 362.025 337 362.025V365.875C336.945 365.875 336.901 365.92 336.9 365.975V368C336.9 368.644 336.9 369.233 336.895 369.772C336.894 369.827 336.936 369.871 336.99 369.873C336.973 371.288 336.912 372.359 336.699 373.197C336.647 373.185 336.593 373.216 336.579 373.269C336.431 373.809 336.215 374.243 335.899 374.606L335.758 374.758C335.364 375.151 334.886 375.409 334.269 375.579C334.216 375.593 334.185 375.647 334.197 375.699C333.359 375.912 332.288 375.973 330.873 375.99C330.871 375.936 330.827 375.894 330.772 375.895C330.233 375.9 329.644 375.9 329 375.9H327C326.945 375.9 326.9 375.945 326.9 376H323.1C323.1 375.945 323.055 375.9 323 375.9H319C318.945 375.9 318.9 375.945 318.9 376H315.1C315.1 375.945 315.055 375.9 315 375.9H311C310.945 375.9 310.9 375.945 310.9 376H307.1C307.1 375.945 307.055 375.9 307 375.9H303C302.945 375.9 302.9 375.945 302.9 376H299.1C299.1 375.945 299.055 375.9 299 375.9H295C294.945 375.9 294.9 375.945 294.9 376H291.1C291.1 375.945 291.055 375.9 291 375.9H287C286.945 375.9 286.9 375.945 286.9 376H283.1C283.1 375.945 283.055 375.9 283 375.9H279C278.945 375.9 278.9 375.945 278.9 376H275.1C275.1 375.945 275.055 375.9 275 375.9H271C270.945 375.9 270.9 375.945 270.9 376H267.1C267.1 375.945 267.055 375.9 267 375.9H263C262.945 375.9 262.9 375.945 262.9 376H259.1C259.1 375.945 259.055 375.9 259 375.9H255C254.945 375.9 254.9 375.945 254.9 376H251.1C251.1 375.945 251.055 375.9 251 375.9H247C246.945 375.9 246.9 375.945 246.9 376H243.1C243.1 375.945 243.055 375.9 243 375.9H239C238.945 375.9 238.9 375.945 238.9 376H235.1C235.1 375.945 235.055 375.9 235 375.9H231C230.945 375.9 230.9 375.945 230.9 376H227.1C227.1 375.945 227.055 375.9 227 375.9H223C222.945 375.9 222.9 375.945 222.9 376H219.1C219.1 375.945 219.055 375.9 219 375.9H215C214.945 375.9 214.9 375.945 214.9 376H211.1C211.1 375.945 211.055 375.9 211 375.9H207C206.945 375.9 206.9 375.945 206.9 376H203.1C203.1 375.945 203.055 375.9 203 375.9H199C198.945 375.9 198.9 375.945 198.9 376H195.1C195.1 375.945 195.055 375.9 195 375.9H191C190.945 375.9 190.9 375.945 190.9 376H187.1C187.1 375.945 187.055 375.9 187 375.9H183C182.945 375.9 182.9 375.945 182.9 376H179.1C179.1 375.945 179.055 375.9 179 375.9H175C174.945 375.9 174.9 375.945 174.9 376H171.1C171.1 375.945 171.055 375.9 171 375.9H167C166.945 375.9 166.9 375.945 166.9 376H163.1C163.1 375.945 163.055 375.9 163 375.9H159C158.945 375.9 158.9 375.945 158.9 376H155.1C155.1 375.945 155.055 375.9 155 375.9H151C150.945 375.9 150.9 375.945 150.9 376H147.1C147.1 375.945 147.055 375.9 147 375.9H143C142.945 375.9 142.9 375.945 142.9 376H139.1C139.1 375.945 139.055 375.9 139 375.9H135C134.945 375.9 134.9 375.945 134.9 376H131.1C131.1 375.945 131.055 375.9 131 375.9H127C126.945 375.9 126.9 375.945 126.9 376H123.1C123.1 375.945 123.055 375.9 123 375.9H119C118.945 375.9 118.9 375.945 118.9 376H115.1C115.1 375.945 115.055 375.9 115 375.9H111C110.945 375.9 110.9 375.945 110.9 376H107.1C107.1 375.945 107.055 375.9 107 375.9H103C102.945 375.9 102.9 375.945 102.9 376H99.0996C99.0996 375.945 99.0552 375.9 99 375.9H95C94.9448 375.9 94.9004 375.945 94.9004 376H91.0996C91.0996 375.945 91.0552 375.9 91 375.9H87C86.9448 375.9 86.9004 375.945 86.9004 376H83.0996C83.0996 375.945 83.0552 375.9 83 375.9H79C78.9448 375.9 78.9004 375.945 78.9004 376H75.0996C75.0996 375.945 75.0552 375.9 75 375.9H73C72.3556 375.9 71.7669 375.9 71.2275 375.895C71.1733 375.894 71.1281 375.936 71.126 375.99C69.7111 375.973 68.6396 375.913 67.8018 375.699C67.8145 375.647 67.7837 375.593 67.7314 375.579L67.5059 375.512C66.9954 375.343 66.5864 375.102 66.2422 374.758L66.1006 374.606C65.7852 374.243 65.5694 373.809 65.4209 373.269L65.4033 373.233C65.3796 373.203 65.3392 373.187 65.2998 373.197C65.0867 372.359 65.0262 371.288 65.0088 369.873C65.0631 369.871 65.1061 369.827 65.1055 369.772C65.0996 369.233 65.0996 368.644 65.0996 368V365.976C65.0996 365.92 65.0552 365.875 65 365.875V362.025C65.0552 362.025 65.0996 361.98 65.0996 361.925V357.875C65.0995 357.82 65.0552 357.775 65 357.775V353.925C65.0413 353.925 65.0765 353.9 65.0918 353.864L65.0996 353.825V349.775C65.0996 349.72 65.0552 349.675 65 349.675V345.825C65.0415 345.825 65.0767 345.8 65.0918 345.764L65.0996 345.726V341.675C65.0994 341.62 65.0551 341.575 65 341.575V337.726C65.0552 337.726 65.0996 337.68 65.0996 337.625V333.575C65.0996 333.52 65.0552 333.476 65 333.476V329.625C65.0412 329.625 65.0765 329.6 65.0918 329.564L65.0996 329.525V325.476C65.0996 325.42 65.0552 325.375 65 325.375V321.525C65.0552 321.525 65.0996 321.48 65.0996 321.425V317.375C65.0996 317.32 65.0552 317.275 65 317.275V313.425C65.0413 313.425 65.0765 313.4 65.0918 313.364L65.0996 313.325V309.275C65.0996 309.22 65.0552 309.175 65 309.175V305.325C65.0552 305.325 65.0996 305.28 65.0996 305.225V301.175C65.0995 301.12 65.0551 301.075 65 301.075V297.225C65.0552 297.225 65.0996 297.18 65.0996 297.125V293.075C65.0996 293.02 65.0552 292.975 65 292.975V289.125C65.0412 289.125 65.0765 289.1 65.0918 289.064L65.0996 289.025V284.975C65.0994 284.92 65.0551 284.875 65 284.875V281.025C65.0552 281.025 65.0996 280.98 65.0996 280.925V276.875C65.0996 276.82 65.0552 276.775 65 276.775V272.925C65.0413 272.925 65.0765 272.9 65.0918 272.864L65.0996 272.825V268.775C65.0996 268.72 65.0552 268.675 65 268.675V264.825C65.0552 264.825 65.0996 264.78 65.0996 264.725V260.675C65.0995 260.62 65.0551 260.575 65 260.575V256.725C65.0552 256.725 65.0996 256.68 65.0996 256.625V252.575C65.0996 252.52 65.0552 252.475 65 252.475V248.625C65.0412 248.625 65.0765 248.6 65.0918 248.564L65.0996 248.525V244.475C65.0994 244.42 65.0551 244.375 65 244.375V240.525C65.0552 240.525 65.0996 240.48 65.0996 240.425V236.375C65.0996 236.32 65.0552 236.275 65 236.275V232.425C65.0413 232.425 65.0765 232.4 65.0918 232.364L65.0996 232.325V228.275C65.0996 228.22 65.0552 228.175 65 228.175V224.325C65.0552 224.325 65.0996 224.28 65.0996 224.225V220.175C65.0995 220.12 65.0552 220.075 65 220.075V216.225C65.0552 216.225 65.0996 216.18 65.0996 216.125V212.075C65.0996 212.02 65.0552 211.975 65 211.975V208.125C65.0415 208.125 65.0767 208.1 65.0918 208.063L65.0996 208.025V203.975C65.0994 203.92 65.0551 203.875 65 203.875V200.025C65.0552 200.025 65.0996 199.98 65.0996 199.925V195.875C65.0996 195.82 65.0552 195.775 65 195.775V191.925C65.0413 191.925 65.0765 191.9 65.0918 191.864L65.0996 191.825V187.775C65.0996 187.72 65.0552 187.675 65 187.675V183.825C65.0552 183.825 65.0996 183.78 65.0996 183.725V179.675C65.0995 179.62 65.0552 179.575 65 179.575V175.725C65.0413 175.725 65.0766 175.7 65.0918 175.664L65.0996 175.625V171.575C65.0996 171.52 65.0552 171.475 65 171.475V167.625C65.0415 167.625 65.0767 167.6 65.0918 167.563L65.0996 167.525V163.475C65.0994 163.42 65.0551 163.375 65 163.375V159.525C65.0552 159.525 65.0996 159.48 65.0996 159.425V155.375C65.0996 155.32 65.0552 155.275 65 155.275V151.425C65.0413 151.425 65.0765 151.4 65.0918 151.364L65.0996 151.325V147.275C65.0996 147.22 65.0552 147.175 65 147.175V143.325C65.0552 143.325 65.0996 143.28 65.0996 143.225V139.175C65.0995 139.12 65.0552 139.075 65 139.075V135.225C65.0413 135.225 65.0766 135.2 65.0918 135.164L65.0996 135.125V131.075C65.0996 131.02 65.0552 130.975 65 130.975V127.125C65.0415 127.125 65.0767 127.1 65.0918 127.063L65.0996 127.025V125L65.1055 123.228C65.1061 123.173 65.0631 123.128 65.0088 123.126C65.0263 121.711 65.0865 120.64 65.2998 119.802C65.3393 119.812 65.3796 119.797 65.4033 119.767L65.4209 119.731C65.5906 119.114 65.8487 118.636 66.2422 118.242C66.5864 117.898 66.9954 117.657 67.5059 117.488L67.7314 117.421C67.784 117.406 67.8151 117.352 67.8018 117.3C68.6396 117.087 69.7113 117.026 71.126 117.009C71.1276 117.063 71.1729 117.106 71.2275 117.105C71.7669 117.1 72.3556 117.1 73 117.1H75C75.0552 117.1 75.0996 117.055 75.0996 117H78.9004C78.9004 117.055 78.9448 117.1 79 117.1H83C83.0552 117.1 83.0996 117.055 83.0996 117H86.9004C86.9004 117.055 86.9448 117.1 87 117.1H91C91.0552 117.1 91.0996 117.055 91.0996 117H94.9004C94.9004 117.055 94.9448 117.1 95 117.1H99C99.0552 117.1 99.0996 117.055 99.0996 117H102.9C102.9 117.055 102.945 117.1 103 117.1H107C107.055 117.1 107.1 117.055 107.1 117H110.9C110.9 117.055 110.945 117.1 111 117.1H115C115.055 117.1 115.1 117.055 115.1 117H118.9C118.9 117.055 118.945 117.1 119 117.1H123C123.055 117.1 123.1 117.055 123.1 117H126.9C126.9 117.055 126.945 117.1 127 117.1H131C131.055 117.1 131.1 117.055 131.1 117H134.9C134.9 117.055 134.945 117.1 135 117.1H139C139.055 117.1 139.1 117.055 139.1 117H142.9C142.9 117.055 142.945 117.1 143 117.1H147C147.055 117.1 147.1 117.055 147.1 117H150.9C150.9 117.055 150.945 117.1 151 117.1H155C155.055 117.1 155.1 117.055 155.1 117H158.9C158.9 117.055 158.945 117.1 159 117.1H163C163.055 117.1 163.1 117.055 163.1 117H166.9C166.9 117.055 166.945 117.1 167 117.1H171C171.055 117.1 171.1 117.055 171.1 117H174.9C174.9 117.055 174.945 117.1 175 117.1H179C179.055 117.1 179.1 117.055 179.1 117H182.9C182.9 117.055 182.945 117.1 183 117.1H187C187.055 117.1 187.1 117.055 187.1 117H190.9C190.9 117.055 190.945 117.1 191 117.1H195C195.055 117.1 195.1 117.055 195.1 117H198.9C198.9 117.055 198.945 117.1 199 117.1H203C203.055 117.1 203.1 117.055 203.1 117H206.9C206.9 117.055 206.945 117.1 207 117.1H211C211.055 117.1 211.1 117.055 211.1 117H214.9C214.9 117.055 214.945 117.1 215 117.1H219C219.055 117.1 219.1 117.055 219.1 117H222.9C222.9 117.055 222.945 117.1 223 117.1H227C227.055 117.1 227.1 117.055 227.1 117H230.9C230.9 117.055 230.945 117.1 231 117.1H235C235.055 117.1 235.1 117.055 235.1 117H238.9C238.9 117.055 238.945 117.1 239 117.1H243C243.055 117.1 243.1 117.055 243.1 117H246.9C246.9 117.055 246.945 117.1 247 117.1H251C251.055 117.1 251.1 117.055 251.1 117H254.9C254.9 117.055 254.945 117.1 255 117.1H259C259.055 117.1 259.1 117.055 259.1 117H262.9C262.9 117.055 262.945 117.1 263 117.1H267C267.055 117.1 267.1 117.055 267.1 117H270.9C270.9 117.055 270.945 117.1 271 117.1H275C275.055 117.1 275.1 117.055 275.1 117H278.9C278.9 117.055 278.945 117.1 279 117.1H283C283.055 117.1 283.1 117.055 283.1 117H286.9C286.9 117.055 286.945 117.1 287 117.1H291C291.055 117.1 291.1 117.055 291.1 117H294.9C294.9 117.055 294.945 117.1 295 117.1H299C299.055 117.1 299.1 117.055 299.1 117H302.9C302.9 117.055 302.945 117.1 303 117.1H307C307.055 117.1 307.1 117.055 307.1 117H310.9C310.9 117.055 310.945 117.1 311 117.1H315C315.055 117.1 315.1 117.055 315.1 117H318.9C318.9 117.055 318.945 117.1 319 117.1H323C323.055 117.1 323.1 117.055 323.1 117H326.9Z" fill="#9747FF" fill-opacity="0.1"/>
<path d="M326.9 117C326.9 117.055 326.945 117.1 327 117.1H329C329.644 117.1 330.233 117.1 330.772 117.105C330.827 117.106 330.871 117.063 330.873 117.009C332.288 117.026 333.359 117.087 334.197 117.3C334.184 117.352 334.216 117.406 334.269 117.421C334.886 117.591 335.364 117.849 335.758 118.242C336.151 118.636 336.409 119.114 336.579 119.731C336.593 119.784 336.647 119.815 336.699 119.802C336.913 120.64 336.973 121.711 336.99 123.126C336.936 123.128 336.894 123.173 336.895 123.228C336.9 123.767 336.9 124.356 336.9 125V127.024C336.9 127.08 336.945 127.125 337 127.125V130.975C336.945 130.975 336.9 131.02 336.9 131.075V135.125C336.9 135.18 336.945 135.225 337 135.225V139.075C336.945 139.075 336.9 139.12 336.9 139.175V143.225C336.9 143.28 336.945 143.325 337 143.325V147.175C336.945 147.175 336.901 147.219 336.9 147.274V151.325C336.901 151.38 336.945 151.425 337 151.425V155.274C336.945 155.274 336.9 155.32 336.9 155.375V159.425C336.9 159.48 336.945 159.524 337 159.524V163.375C336.945 163.375 336.901 163.42 336.9 163.475V167.524C336.9 167.58 336.945 167.625 337 167.625V171.475C336.945 171.475 336.9 171.52 336.9 171.575V175.625C336.9 175.68 336.945 175.725 337 175.725V179.575C336.945 179.575 336.9 179.62 336.9 179.675V183.725C336.9 183.78 336.945 183.825 337 183.825V187.675C336.945 187.675 336.9 187.72 336.9 187.775V191.825C336.901 191.88 336.945 191.925 337 191.925V195.775C336.945 195.775 336.9 195.82 336.9 195.875V199.925C336.9 199.98 336.945 200.025 337 200.025V203.875C336.945 203.875 336.901 203.92 336.9 203.975V208.025C336.901 208.08 336.945 208.125 337 208.125V211.975C336.945 211.975 336.9 212.02 336.9 212.075V216.125C336.9 216.18 336.945 216.225 337 216.225V220.075C336.945 220.075 336.9 220.12 336.9 220.175V224.225C336.9 224.28 336.945 224.325 337 224.325V228.175C336.945 228.175 336.9 228.22 336.9 228.275V232.325C336.901 232.38 336.945 232.425 337 232.425V236.275C336.945 236.275 336.9 236.32 336.9 236.375V240.425C336.9 240.48 336.945 240.525 337 240.525V244.375C336.945 244.375 336.901 244.42 336.9 244.475V248.525C336.901 248.58 336.945 248.625 337 248.625V252.475C336.945 252.475 336.9 252.52 336.9 252.575V256.625C336.9 256.68 336.945 256.725 337 256.725V260.575C336.945 260.575 336.9 260.62 336.9 260.675V264.725C336.9 264.78 336.945 264.825 337 264.825V268.675C336.945 268.675 336.9 268.72 336.9 268.775V272.825C336.901 272.88 336.945 272.925 337 272.925V276.775C336.945 276.775 336.9 276.82 336.9 276.875V280.925C336.9 280.98 336.945 281.025 337 281.025V284.875C336.945 284.875 336.901 284.92 336.9 284.975V289.025C336.901 289.08 336.945 289.125 337 289.125V292.975C336.945 292.975 336.9 293.02 336.9 293.075V297.125C336.9 297.18 336.945 297.225 337 297.225V301.075C336.945 301.075 336.9 301.12 336.9 301.175V305.225C336.9 305.28 336.945 305.325 337 305.325V309.175C336.945 309.175 336.9 309.22 336.9 309.275V313.325C336.9 313.38 336.945 313.425 337 313.425V317.275C336.945 317.275 336.9 317.32 336.9 317.375V321.425C336.9 321.48 336.945 321.525 337 321.525V325.375C336.945 325.375 336.901 325.42 336.9 325.475V329.525C336.901 329.58 336.945 329.625 337 329.625V333.475C336.945 333.475 336.9 333.52 336.9 333.575V337.625C336.9 337.68 336.945 337.725 337 337.725V341.575C336.945 341.575 336.9 341.62 336.9 341.675V345.725C336.9 345.78 336.945 345.825 337 345.825V349.675C336.945 349.675 336.9 349.72 336.9 349.775V353.825C336.9 353.88 336.945 353.925 337 353.925V357.775C336.945 357.775 336.9 357.82 336.9 357.875V361.925C336.9 361.98 336.945 362.025 337 362.025V365.875C336.945 365.875 336.901 365.92 336.9 365.975V368C336.9 368.644 336.9 369.233 336.895 369.772C336.894 369.827 336.936 369.871 336.99 369.873C336.973 371.288 336.912 372.359 336.699 373.197C336.647 373.185 336.593 373.216 336.579 373.269C336.431 373.809 336.215 374.243 335.899 374.606L335.758 374.758C335.364 375.151 334.886 375.409 334.269 375.579C334.216 375.593 334.185 375.647 334.197 375.699C333.359 375.912 332.288 375.973 330.873 375.99C330.871 375.936 330.827 375.894 330.772 375.895C330.233 375.9 329.644 375.9 329 375.9H327C326.945 375.9 326.9 375.945 326.9 376H323.1C323.1 375.945 323.055 375.9 323 375.9H319C318.945 375.9 318.9 375.945 318.9 376H315.1C315.1 375.945 315.055 375.9 315 375.9H311C310.945 375.9 310.9 375.945 310.9 376H307.1C307.1 375.945 307.055 375.9 307 375.9H303C302.945 375.9 302.9 375.945 302.9 376H299.1C299.1 375.945 299.055 375.9 299 375.9H295C294.945 375.9 294.9 375.945 294.9 376H291.1C291.1 375.945 291.055 375.9 291 375.9H287C286.945 375.9 286.9 375.945 286.9 376H283.1C283.1 375.945 283.055 375.9 283 375.9H279C278.945 375.9 278.9 375.945 278.9 376H275.1C275.1 375.945 275.055 375.9 275 375.9H271C270.945 375.9 270.9 375.945 270.9 376H267.1C267.1 375.945 267.055 375.9 267 375.9H263C262.945 375.9 262.9 375.945 262.9 376H259.1C259.1 375.945 259.055 375.9 259 375.9H255C254.945 375.9 254.9 375.945 254.9 376H251.1C251.1 375.945 251.055 375.9 251 375.9H247C246.945 375.9 246.9 375.945 246.9 376H243.1C243.1 375.945 243.055 375.9 243 375.9H239C238.945 375.9 238.9 375.945 238.9 376H235.1C235.1 375.945 235.055 375.9 235 375.9H231C230.945 375.9 230.9 375.945 230.9 376H227.1C227.1 375.945 227.055 375.9 227 375.9H223C222.945 375.9 222.9 375.945 222.9 376H219.1C219.1 375.945 219.055 375.9 219 375.9H215C214.945 375.9 214.9 375.945 214.9 376H211.1C211.1 375.945 211.055 375.9 211 375.9H207C206.945 375.9 206.9 375.945 206.9 376H203.1C203.1 375.945 203.055 375.9 203 375.9H199C198.945 375.9 198.9 375.945 198.9 376H195.1C195.1 375.945 195.055 375.9 195 375.9H191C190.945 375.9 190.9 375.945 190.9 376H187.1C187.1 375.945 187.055 375.9 187 375.9H183C182.945 375.9 182.9 375.945 182.9 376H179.1C179.1 375.945 179.055 375.9 179 375.9H175C174.945 375.9 174.9 375.945 174.9 376H171.1C171.1 375.945 171.055 375.9 171 375.9H167C166.945 375.9 166.9 375.945 166.9 376H163.1C163.1 375.945 163.055 375.9 163 375.9H159C158.945 375.9 158.9 375.945 158.9 376H155.1C155.1 375.945 155.055 375.9 155 375.9H151C150.945 375.9 150.9 375.945 150.9 376H147.1C147.1 375.945 147.055 375.9 147 375.9H143C142.945 375.9 142.9 375.945 142.9 376H139.1C139.1 375.945 139.055 375.9 139 375.9H135C134.945 375.9 134.9 375.945 134.9 376H131.1C131.1 375.945 131.055 375.9 131 375.9H127C126.945 375.9 126.9 375.945 126.9 376H123.1C123.1 375.945 123.055 375.9 123 375.9H119C118.945 375.9 118.9 375.945 118.9 376H115.1C115.1 375.945 115.055 375.9 115 375.9H111C110.945 375.9 110.9 375.945 110.9 376H107.1C107.1 375.945 107.055 375.9 107 375.9H103C102.945 375.9 102.9 375.945 102.9 376H99.0996C99.0996 375.945 99.0552 375.9 99 375.9H95C94.9448 375.9 94.9004 375.945 94.9004 376H91.0996C91.0996 375.945 91.0552 375.9 91 375.9H87C86.9448 375.9 86.9004 375.945 86.9004 376H83.0996C83.0996 375.945 83.0552 375.9 83 375.9H79C78.9448 375.9 78.9004 375.945 78.9004 376H75.0996C75.0996 375.945 75.0552 375.9 75 375.9H73C72.3556 375.9 71.7669 375.9 71.2275 375.895C71.1733 375.894 71.1281 375.936 71.126 375.99C69.7111 375.973 68.6396 375.913 67.8018 375.699C67.8145 375.647 67.7837 375.593 67.7314 375.579L67.5059 375.512C66.9954 375.343 66.5864 375.102 66.2422 374.758L66.1006 374.606C65.7852 374.243 65.5694 373.809 65.4209 373.269L65.4033 373.233C65.3796 373.203 65.3392 373.187 65.2998 373.197C65.0867 372.359 65.0262 371.288 65.0088 369.873C65.0631 369.871 65.1061 369.827 65.1055 369.772C65.0996 369.233 65.0996 368.644 65.0996 368V365.976C65.0996 365.92 65.0552 365.875 65 365.875V362.025C65.0552 362.025 65.0996 361.98 65.0996 361.925V357.875C65.0995 357.82 65.0552 357.775 65 357.775V353.925C65.0413 353.925 65.0765 353.9 65.0918 353.864L65.0996 353.825V349.775C65.0996 349.72 65.0552 349.675 65 349.675V345.825C65.0415 345.825 65.0767 345.8 65.0918 345.764L65.0996 345.726V341.675C65.0994 341.62 65.0551 341.575 65 341.575V337.726C65.0552 337.726 65.0996 337.68 65.0996 337.625V333.575C65.0996 333.52 65.0552 333.476 65 333.476V329.625C65.0412 329.625 65.0765 329.6 65.0918 329.564L65.0996 329.525V325.476C65.0996 325.42 65.0552 325.375 65 325.375V321.525C65.0552 321.525 65.0996 321.48 65.0996 321.425V317.375C65.0996 317.32 65.0552 317.275 65 317.275V313.425C65.0413 313.425 65.0765 313.4 65.0918 313.364L65.0996 313.325V309.275C65.0996 309.22 65.0552 309.175 65 309.175V305.325C65.0552 305.325 65.0996 305.28 65.0996 305.225V301.175C65.0995 301.12 65.0551 301.075 65 301.075V297.225C65.0552 297.225 65.0996 297.18 65.0996 297.125V293.075C65.0996 293.02 65.0552 292.975 65 292.975V289.125C65.0412 289.125 65.0765 289.1 65.0918 289.064L65.0996 289.025V284.975C65.0994 284.92 65.0551 284.875 65 284.875V281.025C65.0552 281.025 65.0996 280.98 65.0996 280.925V276.875C65.0996 276.82 65.0552 276.775 65 276.775V272.925C65.0413 272.925 65.0765 272.9 65.0918 272.864L65.0996 272.825V268.775C65.0996 268.72 65.0552 268.675 65 268.675V264.825C65.0552 264.825 65.0996 264.78 65.0996 264.725V260.675C65.0995 260.62 65.0551 260.575 65 260.575V256.725C65.0552 256.725 65.0996 256.68 65.0996 256.625V252.575C65.0996 252.52 65.0552 252.475 65 252.475V248.625C65.0412 248.625 65.0765 248.6 65.0918 248.564L65.0996 248.525V244.475C65.0994 244.42 65.0551 244.375 65 244.375V240.525C65.0552 240.525 65.0996 240.48 65.0996 240.425V236.375C65.0996 236.32 65.0552 236.275 65 236.275V232.425C65.0413 232.425 65.0765 232.4 65.0918 232.364L65.0996 232.325V228.275C65.0996 228.22 65.0552 228.175 65 228.175V224.325C65.0552 224.325 65.0996 224.28 65.0996 224.225V220.175C65.0995 220.12 65.0552 220.075 65 220.075V216.225C65.0552 216.225 65.0996 216.18 65.0996 216.125V212.075C65.0996 212.02 65.0552 211.975 65 211.975V208.125C65.0415 208.125 65.0767 208.1 65.0918 208.063L65.0996 208.025V203.975C65.0994 203.92 65.0551 203.875 65 203.875V200.025C65.0552 200.025 65.0996 199.98 65.0996 199.925V195.875C65.0996 195.82 65.0552 195.775 65 195.775V191.925C65.0413 191.925 65.0765 191.9 65.0918 191.864L65.0996 191.825V187.775C65.0996 187.72 65.0552 187.675 65 187.675V183.825C65.0552 183.825 65.0996 183.78 65.0996 183.725V179.675C65.0995 179.62 65.0552 179.575 65 179.575V175.725C65.0413 175.725 65.0766 175.7 65.0918 175.664L65.0996 175.625V171.575C65.0996 171.52 65.0552 171.475 65 171.475V167.625C65.0415 167.625 65.0767 167.6 65.0918 167.563L65.0996 167.525V163.475C65.0994 163.42 65.0551 163.375 65 163.375V159.525C65.0552 159.525 65.0996 159.48 65.0996 159.425V155.375C65.0996 155.32 65.0552 155.275 65 155.275V151.425C65.0413 151.425 65.0765 151.4 65.0918 151.364L65.0996 151.325V147.275C65.0996 147.22 65.0552 147.175 65 147.175V143.325C65.0552 143.325 65.0996 143.28 65.0996 143.225V139.175C65.0995 139.12 65.0552 139.075 65 139.075V135.225C65.0413 135.225 65.0766 135.2 65.0918 135.164L65.0996 135.125V131.075C65.0996 131.02 65.0552 130.975 65 130.975V127.125C65.0415 127.125 65.0767 127.1 65.0918 127.063L65.0996 127.025V125L65.1055 123.228C65.1061 123.173 65.0631 123.128 65.0088 123.126C65.0263 121.711 65.0865 120.64 65.2998 119.802C65.3393 119.812 65.3796 119.797 65.4033 119.767L65.4209 119.731C65.5906 119.114 65.8487 118.636 66.2422 118.242C66.5864 117.898 66.9954 117.657 67.5059 117.488L67.7314 117.421C67.784 117.406 67.8151 117.352 67.8018 117.3C68.6396 117.087 69.7113 117.026 71.126 117.009C71.1276 117.063 71.1729 117.106 71.2275 117.105C71.7669 117.1 72.3556 117.1 73 117.1H75C75.0552 117.1 75.0996 117.055 75.0996 117H78.9004C78.9004 117.055 78.9448 117.1 79 117.1H83C83.0552 117.1 83.0996 117.055 83.0996 117H86.9004C86.9004 117.055 86.9448 117.1 87 117.1H91C91.0552 117.1 91.0996 117.055 91.0996 117H94.9004C94.9004 117.055 94.9448 117.1 95 117.1H99C99.0552 117.1 99.0996 117.055 99.0996 117H102.9C102.9 117.055 102.945 117.1 103 117.1H107C107.055 117.1 107.1 117.055 107.1 117H110.9C110.9 117.055 110.945 117.1 111 117.1H115C115.055 117.1 115.1 117.055 115.1 117H118.9C118.9 117.055 118.945 117.1 119 117.1H123C123.055 117.1 123.1 117.055 123.1 117H126.9C126.9 117.055 126.945 117.1 127 117.1H131C131.055 117.1 131.1 117.055 131.1 117H134.9C134.9 117.055 134.945 117.1 135 117.1H139C139.055 117.1 139.1 117.055 139.1 117H142.9C142.9 117.055 142.945 117.1 143 117.1H147C147.055 117.1 147.1 117.055 147.1 117H150.9C150.9 117.055 150.945 117.1 151 117.1H155C155.055 117.1 155.1 117.055 155.1 117H158.9C158.9 117.055 158.945 117.1 159 117.1H163C163.055 117.1 163.1 117.055 163.1 117H166.9C166.9 117.055 166.945 117.1 167 117.1H171C171.055 117.1 171.1 117.055 171.1 117H174.9C174.9 117.055 174.945 117.1 175 117.1H179C179.055 117.1 179.1 117.055 179.1 117H182.9C182.9 117.055 182.945 117.1 183 117.1H187C187.055 117.1 187.1 117.055 187.1 117H190.9C190.9 117.055 190.945 117.1 191 117.1H195C195.055 117.1 195.1 117.055 195.1 117H198.9C198.9 117.055 198.945 117.1 199 117.1H203C203.055 117.1 203.1 117.055 203.1 117H206.9C206.9 117.055 206.945 117.1 207 117.1H211C211.055 117.1 211.1 117.055 211.1 117H214.9C214.9 117.055 214.945 117.1 215 117.1H219C219.055 117.1 219.1 117.055 219.1 117H222.9C222.9 117.055 222.945 117.1 223 117.1H227C227.055 117.1 227.1 117.055 227.1 117H230.9C230.9 117.055 230.945 117.1 231 117.1H235C235.055 117.1 235.1 117.055 235.1 117H238.9C238.9 117.055 238.945 117.1 239 117.1H243C243.055 117.1 243.1 117.055 243.1 117H246.9C246.9 117.055 246.945 117.1 247 117.1H251C251.055 117.1 251.1 117.055 251.1 117H254.9C254.9 117.055 254.945 117.1 255 117.1H259C259.055 117.1 259.1 117.055 259.1 117H262.9C262.9 117.055 262.945 117.1 263 117.1H267C267.055 117.1 267.1 117.055 267.1 117H270.9C270.9 117.055 270.945 117.1 271 117.1H275C275.055 117.1 275.1 117.055 275.1 117H278.9C278.9 117.055 278.945 117.1 279 117.1H283C283.055 117.1 283.1 117.055 283.1 117H286.9C286.9 117.055 286.945 117.1 287 117.1H291C291.055 117.1 291.1 117.055 291.1 117H294.9C294.9 117.055 294.945 117.1 295 117.1H299C299.055 117.1 299.1 117.055 299.1 117H302.9C302.9 117.055 302.945 117.1 303 117.1H307C307.055 117.1 307.1 117.055 307.1 117H310.9C310.9 117.055 310.945 117.1 311 117.1H315C315.055 117.1 315.1 117.055 315.1 117H318.9C318.9 117.055 318.945 117.1 319 117.1H323C323.055 117.1 323.1 117.055 323.1 117H326.9Z" stroke="#4F46E5" stroke-width="0.2" stroke-linecap="round" stroke-linejoin="round" stroke-dasharray="4 4"/>
<path d="M192.294 252.14C191.519 252.14 190.861 252 190.32 251.72C189.779 251.44 189.293 251.029 188.864 250.488L189.956 249.396C190.227 249.788 190.549 250.096 190.922 250.32C191.295 250.535 191.771 250.642 192.35 250.642C192.891 250.642 193.321 250.53 193.638 250.306C193.965 250.082 194.128 249.774 194.128 249.382C194.128 249.055 194.044 248.789 193.876 248.584C193.708 248.379 193.484 248.211 193.204 248.08C192.933 247.94 192.63 247.819 192.294 247.716C191.967 247.604 191.636 247.483 191.3 247.352C190.973 247.212 190.67 247.039 190.39 246.834C190.119 246.629 189.9 246.363 189.732 246.036C189.564 245.709 189.48 245.294 189.48 244.79C189.48 244.211 189.62 243.721 189.9 243.32C190.189 242.909 190.577 242.597 191.062 242.382C191.547 242.167 192.089 242.06 192.686 242.06C193.33 242.06 193.904 242.186 194.408 242.438C194.921 242.69 195.337 243.012 195.654 243.404L194.562 244.496C194.282 244.179 193.988 243.945 193.68 243.796C193.381 243.637 193.036 243.558 192.644 243.558C192.159 243.558 191.776 243.656 191.496 243.852C191.225 244.048 191.09 244.323 191.09 244.678C191.09 244.977 191.174 245.219 191.342 245.406C191.51 245.583 191.729 245.737 192 245.868C192.28 245.989 192.583 246.106 192.91 246.218C193.246 246.33 193.577 246.456 193.904 246.596C194.24 246.736 194.543 246.918 194.814 247.142C195.094 247.357 195.318 247.637 195.486 247.982C195.654 248.327 195.738 248.761 195.738 249.284C195.738 250.161 195.425 250.857 194.8 251.37C194.184 251.883 193.349 252.14 192.294 252.14ZM197.133 252V241.92H198.673V252H197.133ZM203.467 252.14C202.814 252.14 202.221 251.986 201.689 251.678C201.157 251.361 200.733 250.936 200.415 250.404C200.107 249.872 199.953 249.279 199.953 248.626C199.953 247.973 200.107 247.385 200.415 246.862C200.733 246.339 201.157 245.924 201.689 245.616C202.221 245.299 202.814 245.14 203.467 245.14C204.13 245.14 204.727 245.294 205.259 245.602C205.791 245.91 206.211 246.33 206.519 246.862C206.837 247.385 206.995 247.973 206.995 248.626C206.995 249.279 206.837 249.872 206.519 250.404C206.211 250.936 205.791 251.361 205.259 251.678C204.727 251.986 204.13 252.14 203.467 252.14ZM203.467 250.656C203.85 250.656 204.186 250.572 204.475 250.404C204.774 250.227 205.003 249.984 205.161 249.676C205.329 249.368 205.413 249.018 205.413 248.626C205.413 248.234 205.329 247.889 205.161 247.59C204.993 247.291 204.765 247.058 204.475 246.89C204.186 246.713 203.85 246.624 203.467 246.624C203.094 246.624 202.758 246.713 202.459 246.89C202.17 247.058 201.941 247.291 201.773 247.59C201.615 247.889 201.535 248.234 201.535 248.626C201.535 249.018 201.615 249.368 201.773 249.676C201.941 249.984 202.17 250.227 202.459 250.404C202.758 250.572 203.094 250.656 203.467 250.656ZM209.106 252V242.48H210.646V252H209.106ZM207.496 246.68V245.28H212.256V246.68H207.496Z" fill="#2A2C35"/>
<path d="M65 400.5H337" stroke="#F1F2F4" stroke-miterlimit="16" stroke-dasharray="3 2"/>
<path d="M65 433C65 429.28 65 427.42 65.4089 425.894C66.5185 421.753 69.7531 418.518 73.8942 417.409C75.4202 417 77.2801 417 81 417H181C184.72 417 186.58 417 188.106 417.409C192.247 418.518 195.482 421.753 196.591 425.894C197 427.42 197 429.28 197 433C197 436.72 197 438.58 196.591 440.106C195.482 444.247 192.247 447.482 188.106 448.591C186.58 449 184.72 449 181 449H81C77.2801 449 75.4202 449 73.8942 448.591C69.7531 447.482 66.5185 444.247 65.4089 440.106C65 438.58 65 436.72 65 433Z" fill="#4F46E5"/>
<path d="M110.222 439V437.4H113.438C114.004 437.4 114.441 437.224 114.75 436.872C115.06 436.52 115.214 436.115 115.214 435.656C115.214 435.347 115.145 435.059 115.006 434.792C114.868 434.525 114.665 434.312 114.398 434.152C114.132 433.992 113.812 433.912 113.438 433.912H110.222V432.312H113.166C113.646 432.312 114.03 432.189 114.318 431.944C114.606 431.699 114.75 431.336 114.75 430.856C114.75 430.376 114.606 430.013 114.318 429.768C114.03 429.523 113.646 429.4 113.166 429.4H110.222V427.8H113.214C113.972 427.8 114.601 427.939 115.102 428.216C115.604 428.493 115.977 428.851 116.222 429.288C116.468 429.725 116.59 430.195 116.59 430.696C116.59 431.283 116.425 431.8 116.094 432.248C115.774 432.696 115.3 433.059 114.67 433.336L114.814 432.76C115.518 433.048 116.068 433.453 116.462 433.976C116.857 434.499 117.054 435.112 117.054 435.816C117.054 436.392 116.91 436.92 116.622 437.4C116.345 437.88 115.929 438.269 115.374 438.568C114.83 438.856 114.158 439 113.358 439H110.222ZM108.958 439V427.8H110.798V439H108.958ZM121.823 439.16C121.173 439.16 120.591 439.016 120.079 438.728C119.578 438.44 119.183 438.045 118.895 437.544C118.618 437.032 118.479 436.445 118.479 435.784V431.32H120.239V435.704C120.239 436.077 120.298 436.397 120.415 436.664C120.543 436.92 120.725 437.117 120.959 437.256C121.205 437.395 121.493 437.464 121.823 437.464C122.335 437.464 122.725 437.315 122.991 437.016C123.269 436.707 123.407 436.269 123.407 435.704V431.32H125.167V435.784C125.167 436.456 125.023 437.048 124.735 437.56C124.458 438.061 124.069 438.456 123.567 438.744C123.066 439.021 122.485 439.16 121.823 439.16ZM128.105 439V428.12H129.865V439H128.105ZM126.265 432.92V431.32H136.345V432.92H126.265ZM132.745 439V428.12H134.505V439H132.745ZM140.926 439.16C140.179 439.16 139.502 438.984 138.894 438.632C138.286 438.269 137.8 437.784 137.438 437.176C137.086 436.568 136.91 435.891 136.91 435.144C136.91 434.397 137.086 433.725 137.438 433.128C137.8 432.531 138.286 432.056 138.894 431.704C139.502 431.341 140.179 431.16 140.926 431.16C141.683 431.16 142.366 431.336 142.974 431.688C143.582 432.04 144.062 432.52 144.414 433.128C144.776 433.725 144.958 434.397 144.958 435.144C144.958 435.891 144.776 436.568 144.414 437.176C144.062 437.784 143.582 438.269 142.974 438.632C142.366 438.984 141.683 439.16 140.926 439.16ZM140.926 437.464C141.363 437.464 141.747 437.368 142.078 437.176C142.419 436.973 142.68 436.696 142.862 436.344C143.054 435.992 143.15 435.592 143.15 435.144C143.15 434.696 143.054 434.301 142.862 433.96C142.67 433.619 142.408 433.352 142.078 433.16C141.747 432.957 141.363 432.856 140.926 432.856C140.499 432.856 140.115 432.957 139.774 433.16C139.443 433.352 139.182 433.619 138.99 433.96C138.808 434.301 138.718 434.696 138.718 435.144C138.718 435.592 138.808 435.992 138.99 436.344C139.182 436.696 139.443 436.973 139.774 437.176C140.115 437.368 140.499 437.464 140.926 437.464ZM151.685 439V434.568C151.685 434.056 151.52 433.635 151.189 433.304C150.869 432.973 150.453 432.808 149.941 432.808C149.6 432.808 149.296 432.883 149.029 433.032C148.763 433.181 148.555 433.389 148.405 433.656C148.256 433.923 148.181 434.227 148.181 434.568L147.493 434.184C147.493 433.597 147.621 433.08 147.877 432.632C148.133 432.173 148.485 431.816 148.933 431.56C149.392 431.293 149.904 431.16 150.469 431.16C151.045 431.16 151.557 431.309 152.005 431.608C152.453 431.896 152.805 432.275 153.061 432.744C153.317 433.203 153.445 433.683 153.445 434.184V439H151.685ZM146.421 439V431.32H148.181V439H146.421Z" fill="white"/>
<path d="M250.222 439V437.4H253.438C254.004 437.4 254.441 437.224 254.75 436.872C255.06 436.52 255.214 436.115 255.214 435.656C255.214 435.347 255.145 435.059 255.006 434.792C254.868 434.525 254.665 434.312 254.398 434.152C254.132 433.992 253.812 433.912 253.438 433.912H250.222V432.312H253.166C253.646 432.312 254.03 432.189 254.318 431.944C254.606 431.699 254.75 431.336 254.75 430.856C254.75 430.376 254.606 430.013 254.318 429.768C254.03 429.523 253.646 429.4 253.166 429.4H250.222V427.8H253.214C253.972 427.8 254.601 427.939 255.102 428.216C255.604 428.493 255.977 428.851 256.222 429.288C256.468 429.725 256.59 430.195 256.59 430.696C256.59 431.283 256.425 431.8 256.094 432.248C255.774 432.696 255.3 433.059 254.67 433.336L254.814 432.76C255.518 433.048 256.068 433.453 256.462 433.976C256.857 434.499 257.054 435.112 257.054 435.816C257.054 436.392 256.91 436.92 256.622 437.4C256.345 437.88 255.929 438.269 255.374 438.568C254.83 438.856 254.158 439 253.358 439H250.222ZM248.958 439V427.8H250.798V439H248.958ZM261.823 439.16C261.173 439.16 260.591 439.016 260.079 438.728C259.578 438.44 259.183 438.045 258.895 437.544C258.618 437.032 258.479 436.445 258.479 435.784V431.32H260.239V435.704C260.239 436.077 260.298 436.397 260.415 436.664C260.543 436.92 260.725 437.117 260.959 437.256C261.205 437.395 261.493 437.464 261.823 437.464C262.335 437.464 262.725 437.315 262.991 437.016C263.269 436.707 263.407 436.269 263.407 435.704V431.32H265.167V435.784C265.167 436.456 265.023 437.048 264.735 437.56C264.458 438.061 264.069 438.456 263.567 438.744C263.066 439.021 262.485 439.16 261.823 439.16ZM268.105 439V428.12H269.865V439H268.105ZM266.265 432.92V431.32H276.345V432.92H266.265ZM272.745 439V428.12H274.505V439H272.745ZM280.926 439.16C280.179 439.16 279.502 438.984 278.894 438.632C278.286 438.269 277.8 437.784 277.438 437.176C277.086 436.568 276.91 435.891 276.91 435.144C276.91 434.397 277.086 433.725 277.438 433.128C277.8 432.531 278.286 432.056 278.894 431.704C279.502 431.341 280.179 431.16 280.926 431.16C281.683 431.16 282.366 431.336 282.974 431.688C283.582 432.04 284.062 432.52 284.414 433.128C284.776 433.725 284.958 434.397 284.958 435.144C284.958 435.891 284.776 436.568 284.414 437.176C284.062 437.784 283.582 438.269 282.974 438.632C282.366 438.984 281.683 439.16 280.926 439.16ZM280.926 437.464C281.363 437.464 281.747 437.368 282.078 437.176C282.419 436.973 282.68 436.696 282.862 436.344C283.054 435.992 283.15 435.592 283.15 435.144C283.15 434.696 283.054 434.301 282.862 433.96C282.67 433.619 282.408 433.352 282.078 433.16C281.747 432.957 281.363 432.856 280.926 432.856C280.499 432.856 280.115 432.957 279.774 433.16C279.443 433.352 279.182 433.619 278.99 433.96C278.808 434.301 278.718 434.696 278.718 435.144C278.718 435.592 278.808 435.992 278.99 436.344C279.182 436.696 279.443 436.973 279.774 437.176C280.115 437.368 280.499 437.464 280.926 437.464ZM291.685 439V434.568C291.685 434.056 291.52 433.635 291.189 433.304C290.869 432.973 290.453 432.808 289.941 432.808C289.6 432.808 289.296 432.883 289.029 433.032C288.763 433.181 288.555 433.389 288.405 433.656C288.256 433.923 288.181 434.227 288.181 434.568L287.493 434.184C287.493 433.597 287.621 433.08 287.877 432.632C288.133 432.173 288.485 431.816 288.933 431.56C289.392 431.293 289.904 431.16 290.469 431.16C291.045 431.16 291.557 431.309 292.005 431.608C292.453 431.896 292.805 432.275 293.061 432.744C293.317 433.203 293.445 433.683 293.445 434.184V439H291.685ZM286.421 439V431.32H288.181V439H286.421Z" fill="#4F46E5"/>
</g>
<rect x="118" y="64" width="64" height="1" transform="rotate(-90 118 64)" fill="#E1172F"/>
<rect x="106" width="25" height="24" rx="12" fill="#E1172F"/>
<path d="M120.33 6.81818V17H118.177V8.86151H118.118L115.786 10.3232V8.41406L118.307 6.81818H120.33Z" fill="white"/>
<rect x="64" y="77.5" width="64" height="1" transform="rotate(180 64 77.5)" fill="#E1172F"/>
<rect y="65" width="25" height="24" rx="12" fill="#E1172F"/>
<path d="M8.9161 82V80.4489L12.5404 77.093C12.8486 76.7947 13.1072 76.5263 13.316 76.2876C13.5281 76.049 13.6888 75.8153 13.7982 75.5866C13.9076 75.3546 13.9623 75.1044 13.9623 74.8359C13.9623 74.5376 13.8943 74.2808 13.7584 74.0653C13.6225 73.8466 13.4369 73.6792 13.2016 73.5632C12.9663 73.4439 12.6995 73.3842 12.4012 73.3842C12.0896 73.3842 11.8179 73.4472 11.5858 73.5732C11.3538 73.6991 11.1749 73.8797 11.0489 74.1151C10.923 74.3504 10.86 74.6304 10.86 74.9553H8.81667C8.81667 74.2891 8.96748 73.7107 9.26909 73.2202C9.5707 72.7296 9.99328 72.3501 10.5368 72.0817C11.0804 71.8132 11.7068 71.679 12.4161 71.679C13.1453 71.679 13.78 71.8082 14.3202 72.0668C14.8638 72.322 15.2864 72.6766 15.588 73.1307C15.8896 73.5848 16.0404 74.1051 16.0404 74.6918C16.0404 75.0762 15.9642 75.4557 15.8117 75.8303C15.6626 76.2048 15.3957 76.6207 15.0113 77.0781C14.6268 77.5322 14.0849 78.0774 13.3856 78.7138L11.8991 80.1705V80.2401H16.1746V82H8.9161Z" fill="white"/>
<rect x="420" y="401" width="82" height="1.00001" transform="rotate(180 420 401)" fill="#E1172F"/>
<rect x="395" y="388" width="25" height="24" rx="12" fill="#E1172F"/>
<path d="M407.532 405.139C406.83 405.139 406.203 405.01 405.653 404.751C405.106 404.493 404.672 404.137 404.35 403.683C404.029 403.228 403.862 402.708 403.848 402.121H405.936C405.96 402.516 406.125 402.836 406.434 403.081C406.742 403.326 407.108 403.449 407.532 403.449C407.87 403.449 408.169 403.374 408.427 403.225C408.689 403.073 408.893 402.862 409.039 402.594C409.188 402.322 409.262 402.01 409.262 401.659C409.262 401.301 409.186 400.986 409.034 400.714C408.885 400.443 408.677 400.231 408.412 400.078C408.147 399.926 407.844 399.848 407.502 399.844C407.204 399.844 406.914 399.906 406.632 400.028C406.354 400.151 406.137 400.318 405.981 400.531L404.067 400.188L404.549 394.818H410.774V396.578H406.324L406.061 399.129H406.12C406.299 398.877 406.569 398.668 406.931 398.502C407.292 398.336 407.696 398.254 408.144 398.254C408.757 398.254 409.304 398.398 409.784 398.686C410.265 398.974 410.645 399.371 410.923 399.874C411.201 400.375 411.339 400.951 411.336 401.604C411.339 402.29 411.18 402.9 410.858 403.434C410.54 403.964 410.094 404.382 409.521 404.687C408.951 404.988 408.288 405.139 407.532 405.139Z" fill="white"/>
<rect x="420" y="253" width="94" height="1.00001" transform="rotate(180 420 253)" fill="#E1172F"/>
<rect x="395" y="240" width="25" height="24" rx="12" fill="#E1172F"/>
<path d="M403.427 255.21V253.515L407.678 246.818H409.139V249.165H408.274L405.595 253.406V253.485H411.635V255.21H403.427ZM408.314 257V254.693L408.354 253.942V246.818H410.372V257H408.314Z" fill="white"/>
<rect x="420" y="78" width="90" height="1.00001" transform="rotate(180 420 78)" fill="#E1172F"/>
<rect x="395" y="65" width="25" height="24" rx="12" fill="#E1172F"/>
<path d="M407.475 82.1392C406.732 82.1392 406.071 82.0116 405.491 81.7564C404.914 81.4979 404.458 81.1432 404.124 80.6925C403.792 80.2384 403.622 79.7147 403.612 79.1214H405.779C405.792 79.37 405.874 79.5888 406.023 79.7777C406.175 79.9633 406.377 80.1075 406.629 80.2102C406.881 80.313 407.165 80.3643 407.479 80.3643C407.808 80.3643 408.098 80.3063 408.35 80.1903C408.601 80.0743 408.799 79.9136 408.941 79.7081C409.084 79.5026 409.155 79.2656 409.155 78.9972C409.155 78.7254 409.079 78.4851 408.926 78.2763C408.777 78.0642 408.562 77.8984 408.28 77.7791C408.002 77.6598 407.67 77.6001 407.286 77.6001H406.336V76.0192H407.286C407.61 76.0192 407.897 75.9628 408.146 75.8501C408.398 75.7375 408.593 75.5817 408.732 75.3828C408.872 75.1806 408.941 74.9453 408.941 74.6768C408.941 74.4216 408.88 74.1979 408.757 74.0057C408.638 73.8101 408.469 73.6577 408.25 73.5483C408.035 73.4389 407.783 73.3842 407.494 73.3842C407.203 73.3842 406.936 73.4373 406.694 73.5433C406.452 73.6461 406.258 73.7936 406.112 73.9858C405.966 74.178 405.889 74.4034 405.879 74.6619H403.815C403.825 74.0753 403.993 73.5582 404.318 73.1108C404.642 72.6634 405.08 72.3137 405.63 72.0618C406.184 71.8066 406.808 71.679 407.504 71.679C408.207 71.679 408.822 71.8066 409.349 72.0618C409.876 72.317 410.285 72.6617 410.577 73.0959C410.872 73.5268 411.018 74.0107 411.014 74.5476C411.018 75.1177 410.84 75.5933 410.482 75.9744C410.128 76.3556 409.665 76.5975 409.095 76.7003V76.7798C409.844 76.8759 410.414 77.1361 410.805 77.5604C411.2 77.9813 411.395 78.5083 411.392 79.1413C411.395 79.7214 411.228 80.2367 410.89 80.6875C410.555 81.1383 410.093 81.4929 409.503 81.7514C408.913 82.0099 408.237 82.1392 407.475 82.1392Z" fill="white"/>
<rect x="420" y="434" width="123" height="1.00001" transform="rotate(180 420 434)" fill="#E1172F"/>
<rect x="395" y="421" width="25" height="24" rx="12" fill="#E1172F"/>
<path d="M407.612 438.139C407.088 438.136 406.583 438.048 406.096 437.876C405.612 437.703 405.177 437.423 404.793 437.036C404.408 436.648 404.104 436.134 403.878 435.494C403.656 434.855 403.545 434.069 403.545 433.138C403.548 432.283 403.646 431.519 403.838 430.846C404.034 430.17 404.312 429.596 404.674 429.126C405.038 428.655 405.474 428.297 405.981 428.052C406.488 427.803 407.057 427.679 407.686 427.679C408.366 427.679 408.966 427.812 409.486 428.077C410.007 428.339 410.424 428.695 410.739 429.146C411.057 429.596 411.249 430.102 411.316 430.662H409.193C409.11 430.307 408.936 430.029 408.671 429.827C408.406 429.625 408.078 429.523 407.686 429.523C407.024 429.523 406.52 429.812 406.175 430.388C405.834 430.965 405.66 431.749 405.653 432.74H405.723C405.875 432.438 406.081 432.182 406.339 431.969C406.601 431.754 406.898 431.59 407.229 431.477C407.564 431.361 407.917 431.303 408.288 431.303C408.891 431.303 409.428 431.446 409.899 431.731C410.369 432.013 410.741 432.4 411.012 432.894C411.284 433.388 411.42 433.953 411.42 434.589C411.42 435.279 411.259 435.892 410.938 436.429C410.62 436.966 410.174 437.387 409.6 437.692C409.03 437.993 408.368 438.143 407.612 438.139ZM407.602 436.449C407.933 436.449 408.23 436.369 408.492 436.21C408.754 436.051 408.959 435.836 409.108 435.564C409.257 435.292 409.332 434.987 409.332 434.649C409.332 434.311 409.257 434.008 409.108 433.739C408.962 433.471 408.76 433.257 408.502 433.098C408.243 432.939 407.948 432.859 407.617 432.859C407.368 432.859 407.138 432.906 406.926 432.999C406.717 433.091 406.533 433.221 406.374 433.386C406.218 433.552 406.096 433.744 406.006 433.963C405.917 434.179 405.872 434.409 405.872 434.654C405.872 434.982 405.946 435.282 406.096 435.554C406.248 435.826 406.453 436.043 406.712 436.205C406.974 436.368 407.27 436.449 407.602 436.449Z" fill="white"/>
<defs>
<filter id="filter0_d_14334_1303" x="9" y="23" width="384" height="484" filterUnits="userSpaceOnUse" color-interpolation-filters="sRGB">
<feFlood flood-opacity="0" result="BackgroundImageFix"/>
<feColorMatrix in="SourceAlpha" type="matrix" values="0 0 0 0 0 0 0 0 0 0 0 0 0 0 0 0 0 0 127 0" result="hardAlpha"/>
<feMorphology radius="16" operator="erode" in="SourceAlpha" result="effect1_dropShadow_14334_1303"/>
<feOffset dy="10"/>
<feGaussianBlur stdDeviation="24"/>
<feColorMatrix type="matrix" values="0 0 0 0 0 0 0 0 0 0 0 0 0 0 0 0 0 0 0.12 0"/>
<feBlend mode="normal" in2="BackgroundImageFix" result="effect1_dropShadow_14334_1303"/>
<feBlend mode="normal" in="SourceGraphic" in2="effect1_dropShadow_14334_1303" result="shape"/>
</filter>
</defs>
</svg>
