<svg width="384" height="431" viewBox="0 0 384 431" fill="none" xmlns="http://www.w3.org/2000/svg">
<g filter="url(#filter0_d_7472_36742)">
<rect width="320" height="367" transform="translate(32 22)" fill="white"/>
<path fill-rule="evenodd" clip-rule="evenodd" d="M68 44C62.4772 44 58 48.4772 58 54C58 56.5112 58.9256 58.8061 60.4543 60.5624C61.1737 59.5477 62.0932 58.6846 63.1611 58.0291C63.569 57.7788 63.9941 57.5614 64.4323 57.3783C63.2007 56.3541 62.4167 54.8103 62.4167 53.0833C62.4167 49.9997 64.9164 47.5 68 47.5C71.0836 47.5 73.5833 49.9997 73.5833 53.0833C73.5833 54.8103 72.7993 56.3541 71.5677 57.3783C72.0059 57.5614 72.431 57.7788 72.8389 58.0291C73.9068 58.6846 74.8263 59.5477 75.5457 60.5624C77.0744 58.8061 78 56.5112 78 54C78 48.4772 73.5228 44 68 44ZM74.0699 61.9478C73.4855 61.0532 72.7088 60.296 71.7926 59.7336C70.6978 59.0616 69.4449 58.6931 68.1625 58.6643C68.1085 58.6659 68.0543 58.6667 68 58.6667C67.9457 58.6667 67.8915 58.6659 67.8375 58.6643C66.5551 58.6931 65.3022 59.0616 64.2074 59.7336C63.2912 60.296 62.5145 61.0532 61.9301 61.9478C63.6133 63.2352 65.7173 64 68 64C70.2827 64 72.3867 63.2352 74.0699 61.9478ZM68.1472 56.6637C70.058 56.5865 71.5833 55.013 71.5833 53.0833C71.5833 51.1043 69.979 49.5 68 49.5C66.021 49.5 64.4167 51.1043 64.4167 53.0833C64.4167 55.013 65.942 56.5865 67.8528 56.6637C67.9018 56.6629 67.9509 56.6625 68 56.6625C68.0491 56.6625 68.0982 56.6629 68.1472 56.6637ZM56 54C56 47.3726 61.3726 42 68 42C74.6274 42 80 47.3726 80 54C80 60.6274 74.6274 66 68 66C61.3726 66 56 60.6274 56 54Z" fill="#1C1D23"/>
<path d="M92.82 61V47.08H95.96V61H92.82ZM88.4 49.62V46.88H100.38V49.62H88.4ZM101.853 61V51.28H104.913V61H101.853ZM103.393 49.94C102.913 49.94 102.513 49.78 102.193 49.46C101.887 49.1267 101.733 48.7267 101.733 48.26C101.733 47.78 101.887 47.38 102.193 47.06C102.513 46.74 102.913 46.58 103.393 46.58C103.873 46.58 104.267 46.74 104.573 47.06C104.88 47.38 105.033 47.78 105.033 48.26C105.033 48.7267 104.88 49.1267 104.573 49.46C104.267 49.78 103.873 49.94 103.393 49.94ZM108.448 61V47.26H111.508V61H108.448ZM106.248 53.88V51.28H113.708V53.88H106.248ZM115.057 61V46.48H118.117V61H115.057ZM125.071 61.22C124.018 61.22 123.078 61.0067 122.251 60.58C121.438 60.14 120.798 59.5333 120.331 58.76C119.865 57.9867 119.631 57.1133 119.631 56.14C119.631 55.1667 119.858 54.3 120.311 53.54C120.778 52.7667 121.405 52.16 122.191 51.72C122.978 51.28 123.865 51.06 124.851 51.06C125.811 51.06 126.658 51.2667 127.391 51.68C128.125 52.0933 128.698 52.6667 129.111 53.4C129.538 54.1333 129.751 54.9733 129.751 55.92C129.751 56.0933 129.738 56.28 129.711 56.48C129.698 56.6667 129.665 56.8867 129.611 57.14L121.231 57.16V55.06L128.311 55.04L126.991 55.92C126.978 55.36 126.891 54.9 126.731 54.54C126.571 54.1667 126.331 53.8867 126.011 53.7C125.705 53.5 125.325 53.4 124.871 53.4C124.391 53.4 123.971 53.5133 123.611 53.74C123.265 53.9533 122.991 54.26 122.791 54.66C122.605 55.06 122.511 55.5467 122.511 56.12C122.511 56.6933 122.611 57.1867 122.811 57.6C123.025 58 123.318 58.3133 123.691 58.54C124.078 58.7533 124.531 58.86 125.051 58.86C125.531 58.86 125.965 58.78 126.351 58.62C126.738 58.4467 127.078 58.1933 127.371 57.86L129.051 59.54C128.571 60.1 127.991 60.52 127.311 60.8C126.631 61.08 125.885 61.22 125.071 61.22Z" fill="#2A2C35"/>
<path d="M319.546 59.9541C319.757 60.1654 319.876 60.452 319.876 60.7509C319.876 61.0498 319.757 61.3365 319.546 61.5478C319.335 61.7592 319.048 61.8779 318.749 61.8779C318.45 61.8779 318.163 61.7592 317.952 61.5478L312 55.5937L306.046 61.5459C305.835 61.7573 305.548 61.876 305.249 61.876C304.95 61.876 304.663 61.7573 304.452 61.5459C304.241 61.3346 304.122 61.0479 304.122 60.7491C304.122 60.4502 304.241 60.1635 304.452 59.9522L310.406 54L304.454 48.0459C304.243 47.8346 304.124 47.5479 304.124 47.2491C304.124 46.9502 304.243 46.6635 304.454 46.4522C304.665 46.2408 304.952 46.1221 305.251 46.1221C305.55 46.1221 305.836 46.2408 306.048 46.4522L312 52.4062L317.954 46.4512C318.165 46.2399 318.452 46.1212 318.751 46.1212C319.05 46.1212 319.336 46.2399 319.548 46.4512C319.759 46.6626 319.878 46.9492 319.878 47.2481C319.878 47.547 319.759 47.8337 319.548 48.045L313.594 54L319.546 59.9541Z" fill="#2A2C35"/>
<path d="M317.9 94C317.9 94.0552 317.945 94.0996 318 94.0996H320C320.644 94.0996 321.233 94.0996 321.772 94.1055C321.827 94.1061 321.871 94.0631 321.873 94.0088C323.288 94.0262 324.359 94.0867 325.197 94.2998C325.184 94.3524 325.216 94.4065 325.269 94.4209C325.886 94.5906 326.364 94.8487 326.758 95.2422C327.151 95.6356 327.409 96.114 327.579 96.7314C327.593 96.7837 327.647 96.8145 327.699 96.8018C327.913 97.6396 327.973 98.7111 327.99 100.126C327.936 100.128 327.894 100.173 327.895 100.228C327.9 100.767 327.9 101.356 327.9 102V103.979C327.901 104.035 327.945 104.079 328 104.079V107.838C327.945 107.838 327.9 107.882 327.9 107.938V111.896C327.9 111.951 327.945 111.996 328 111.996V115.754C327.945 115.754 327.9 115.799 327.9 115.854V119.812C327.9 119.868 327.945 119.912 328 119.912V123.671C327.945 123.671 327.901 123.715 327.9 123.771V127.729C327.901 127.785 327.945 127.829 328 127.829V131.588C327.945 131.588 327.9 131.632 327.9 131.688V135.646C327.9 135.701 327.945 135.746 328 135.746V139.504C327.945 139.504 327.9 139.549 327.9 139.604V143.562C327.9 143.618 327.945 143.662 328 143.662V147.421C327.945 147.421 327.901 147.465 327.9 147.521V151.479C327.901 151.535 327.945 151.579 328 151.579V155.338C327.945 155.338 327.9 155.382 327.9 155.438V159.396C327.9 159.451 327.945 159.496 328 159.496V163.254C327.945 163.254 327.9 163.299 327.9 163.354V167.312C327.9 167.368 327.945 167.412 328 167.412V171.171C327.945 171.171 327.901 171.215 327.9 171.271V175.229C327.901 175.285 327.945 175.329 328 175.329V179.088C327.945 179.088 327.9 179.132 327.9 179.188V183.146C327.9 183.201 327.945 183.246 328 183.246V187.004C327.945 187.004 327.9 187.049 327.9 187.104V191.062C327.9 191.118 327.945 191.162 328 191.162V194.921C327.945 194.921 327.901 194.965 327.9 195.021V198.979C327.901 199.035 327.945 199.079 328 199.079V202.838C327.945 202.838 327.9 202.882 327.9 202.938V206.896C327.9 206.951 327.945 206.996 328 206.996V210.754C327.945 210.754 327.9 210.799 327.9 210.854V214.812C327.9 214.868 327.945 214.912 328 214.912V218.671C327.945 218.671 327.901 218.715 327.9 218.771V222.729C327.901 222.785 327.945 222.829 328 222.829V226.588C327.945 226.588 327.9 226.632 327.9 226.688V230.646C327.9 230.701 327.945 230.746 328 230.746V234.504C327.945 234.504 327.9 234.549 327.9 234.604V238.562C327.9 238.618 327.945 238.662 328 238.662V242.421C327.945 242.421 327.901 242.465 327.9 242.521V246.479C327.901 246.535 327.945 246.579 328 246.579V250.338C327.945 250.338 327.9 250.382 327.9 250.438V254.396C327.9 254.451 327.945 254.496 328 254.496V258.254C327.945 258.254 327.9 258.299 327.9 258.354V262.312C327.9 262.368 327.945 262.412 328 262.412V266.171C327.945 266.171 327.901 266.215 327.9 266.271V270.229C327.901 270.285 327.945 270.329 328 270.329V274.088C327.945 274.088 327.9 274.132 327.9 274.188V278.146C327.9 278.201 327.945 278.246 328 278.246V282.004C327.945 282.004 327.9 282.049 327.9 282.104V286.062C327.9 286.118 327.945 286.162 328 286.162V289.921C327.945 289.921 327.901 289.965 327.9 290.021V292C327.9 292.644 327.9 293.233 327.895 293.772C327.894 293.827 327.936 293.871 327.99 293.873C327.973 295.288 327.912 296.359 327.699 297.197C327.647 297.185 327.593 297.216 327.579 297.269C327.431 297.809 327.215 298.243 326.899 298.606L326.758 298.758C326.364 299.151 325.886 299.409 325.269 299.579C325.216 299.593 325.185 299.647 325.197 299.699C324.359 299.912 323.288 299.973 321.873 299.99C321.871 299.936 321.827 299.894 321.772 299.895C321.233 299.9 320.644 299.9 320 299.9H318C317.945 299.9 317.9 299.945 317.9 300H314.1C314.1 299.945 314.055 299.9 314 299.9H310C309.945 299.9 309.9 299.945 309.9 300H306.1C306.1 299.945 306.055 299.9 306 299.9H302C301.945 299.9 301.9 299.945 301.9 300H298.1C298.1 299.945 298.055 299.9 298 299.9H294C293.945 299.9 293.9 299.945 293.9 300H290.1C290.1 299.945 290.055 299.9 290 299.9H286C285.945 299.9 285.9 299.945 285.9 300H282.1C282.1 299.945 282.055 299.9 282 299.9H278C277.945 299.9 277.9 299.945 277.9 300H274.1C274.1 299.945 274.055 299.9 274 299.9H270C269.945 299.9 269.9 299.945 269.9 300H266.1C266.1 299.945 266.055 299.9 266 299.9H262C261.945 299.9 261.9 299.945 261.9 300H258.1C258.1 299.945 258.055 299.9 258 299.9H254C253.945 299.9 253.9 299.945 253.9 300H250.1C250.1 299.945 250.055 299.9 250 299.9H246C245.945 299.9 245.9 299.945 245.9 300H242.1C242.1 299.945 242.055 299.9 242 299.9H238C237.945 299.9 237.9 299.945 237.9 300H234.1C234.1 299.945 234.055 299.9 234 299.9H230C229.945 299.9 229.9 299.945 229.9 300H226.1C226.1 299.945 226.055 299.9 226 299.9H222C221.945 299.9 221.9 299.945 221.9 300H218.1C218.1 299.945 218.055 299.9 218 299.9H214C213.945 299.9 213.9 299.945 213.9 300H210.1C210.1 299.945 210.055 299.9 210 299.9H206C205.945 299.9 205.9 299.945 205.9 300H202.1C202.1 299.945 202.055 299.9 202 299.9H198C197.945 299.9 197.9 299.945 197.9 300H194.1C194.1 299.945 194.055 299.9 194 299.9H190C189.945 299.9 189.9 299.945 189.9 300H186.1C186.1 299.945 186.055 299.9 186 299.9H182C181.945 299.9 181.9 299.945 181.9 300H178.1C178.1 299.945 178.055 299.9 178 299.9H174C173.945 299.9 173.9 299.945 173.9 300H170.1C170.1 299.945 170.055 299.9 170 299.9H166C165.945 299.9 165.9 299.945 165.9 300H162.1C162.1 299.945 162.055 299.9 162 299.9H158C157.945 299.9 157.9 299.945 157.9 300H154.1C154.1 299.945 154.055 299.9 154 299.9H150C149.945 299.9 149.9 299.945 149.9 300H146.1C146.1 299.945 146.055 299.9 146 299.9H142C141.945 299.9 141.9 299.945 141.9 300H138.1C138.1 299.945 138.055 299.9 138 299.9H134C133.945 299.9 133.9 299.945 133.9 300H130.1C130.1 299.945 130.055 299.9 130 299.9H126C125.945 299.9 125.9 299.945 125.9 300H122.1C122.1 299.945 122.055 299.9 122 299.9H118C117.945 299.9 117.9 299.945 117.9 300H114.1C114.1 299.945 114.055 299.9 114 299.9H110C109.945 299.9 109.9 299.945 109.9 300H106.1C106.1 299.945 106.055 299.9 106 299.9H102C101.945 299.9 101.9 299.945 101.9 300H98.0996C98.0996 299.945 98.0552 299.9 98 299.9H94C93.9448 299.9 93.9004 299.945 93.9004 300H90.0996C90.0996 299.945 90.0552 299.9 90 299.9H86C85.9448 299.9 85.9004 299.945 85.9004 300H82.0996C82.0996 299.945 82.0552 299.9 82 299.9H78C77.9448 299.9 77.9004 299.945 77.9004 300H74.0996C74.0996 299.945 74.0552 299.9 74 299.9H70C69.9448 299.9 69.9004 299.945 69.9004 300H66.0996C66.0996 299.945 66.0552 299.9 66 299.9H64C63.3556 299.9 62.7669 299.9 62.2275 299.895C62.1733 299.894 62.1281 299.936 62.126 299.99C60.7111 299.973 59.6396 299.913 58.8018 299.699C58.8145 299.647 58.7837 299.593 58.7314 299.579L58.5059 299.512C57.9954 299.343 57.5864 299.102 57.2422 298.758L57.1006 298.606C56.7852 298.243 56.5694 297.809 56.4209 297.269L56.4033 297.233C56.3796 297.203 56.3392 297.187 56.2998 297.197C56.0867 296.359 56.0262 295.288 56.0088 293.873C56.0631 293.871 56.1061 293.827 56.1055 293.772C56.0996 293.233 56.0996 292.644 56.0996 292V290.021C56.0995 289.965 56.0551 289.921 56 289.921V286.162C56.0413 286.162 56.0766 286.137 56.0918 286.102L56.0996 286.062V282.104C56.0996 282.049 56.0552 282.004 56 282.004V278.246C56.0552 278.246 56.0996 278.201 56.0996 278.146V274.188C56.0996 274.132 56.0552 274.088 56 274.088V270.329C56.0415 270.329 56.0767 270.304 56.0918 270.268L56.0996 270.229V266.271C56.0994 266.215 56.0551 266.171 56 266.171V262.412C56.0413 262.412 56.0766 262.387 56.0918 262.352L56.0996 262.312V258.354C56.0996 258.299 56.0552 258.254 56 258.254V254.496C56.0552 254.496 56.0996 254.451 56.0996 254.396V250.438C56.0996 250.382 56.0552 250.338 56 250.338V246.579C56.0412 246.579 56.0765 246.554 56.0918 246.519L56.0996 246.479V242.521C56.0994 242.465 56.0551 242.421 56 242.421V238.662C56.0552 238.662 56.0996 238.618 56.0996 238.562V234.604C56.0996 234.549 56.0552 234.504 56 234.504V230.746C56.0552 230.746 56.0996 230.701 56.0996 230.646V226.688C56.0996 226.632 56.0552 226.588 56 226.588V222.829C56.0412 222.829 56.0765 222.804 56.0918 222.769L56.0996 222.729V218.771C56.0994 218.715 56.0551 218.671 56 218.671V214.912C56.0552 214.912 56.0996 214.868 56.0996 214.812V210.854C56.0996 210.799 56.0552 210.754 56 210.754V206.996C56.0552 206.996 56.0996 206.951 56.0996 206.896V202.938C56.0996 202.882 56.0552 202.838 56 202.838V199.079C56.0412 199.079 56.0765 199.054 56.0918 199.019L56.0996 198.979V195.021C56.0994 194.965 56.0551 194.921 56 194.921V191.162C56.0552 191.162 56.0996 191.118 56.0996 191.062V187.104C56.0996 187.049 56.0552 187.004 56 187.004V183.246C56.0552 183.246 56.0996 183.201 56.0996 183.146V179.188C56.0996 179.132 56.0552 179.088 56 179.088V175.329C56.0412 175.329 56.0765 175.304 56.0918 175.269L56.0996 175.229V171.271C56.0994 171.215 56.0551 171.171 56 171.171V167.412C56.0413 167.412 56.0766 167.387 56.0918 167.352L56.0996 167.312V163.354C56.0996 163.299 56.0552 163.254 56 163.254V159.496C56.0552 159.496 56.0996 159.451 56.0996 159.396V155.438C56.0996 155.382 56.0552 155.338 56 155.338V151.579C56.0412 151.579 56.0765 151.554 56.0918 151.519L56.0996 151.479V147.521C56.0994 147.465 56.0551 147.421 56 147.421V143.662C56.0413 143.662 56.0766 143.637 56.0918 143.602L56.0996 143.562V139.604C56.0996 139.549 56.0552 139.504 56 139.504V135.746C56.0552 135.746 56.0996 135.701 56.0996 135.646V131.688C56.0996 131.632 56.0552 131.588 56 131.588V127.829C56.0412 127.829 56.0765 127.804 56.0918 127.769L56.0996 127.729V123.771C56.0994 123.715 56.0551 123.671 56 123.671V119.912C56.0413 119.912 56.0766 119.887 56.0918 119.852L56.0996 119.812V115.854C56.0996 115.799 56.0552 115.754 56 115.754V111.996C56.0552 111.996 56.0996 111.951 56.0996 111.896V107.938C56.0996 107.882 56.0552 107.838 56 107.838V104.079C56.0412 104.079 56.0765 104.054 56.0918 104.019L56.0996 103.979V102L56.1055 100.228C56.1061 100.173 56.0631 100.128 56.0088 100.126C56.0263 98.7113 56.0865 97.6396 56.2998 96.8018C56.3393 96.8118 56.3796 96.7969 56.4033 96.7666L56.4209 96.7314C56.5906 96.114 56.8487 95.6356 57.2422 95.2422C57.5864 94.898 57.9954 94.6568 58.5059 94.4883L58.7314 94.4209C58.784 94.4064 58.8151 94.3524 58.8018 94.2998C59.6396 94.0865 60.7113 94.0263 62.126 94.0088C62.1276 94.0631 62.1729 94.1061 62.2275 94.1055C62.7669 94.0996 63.3556 94.0996 64 94.0996H66C66.0552 94.0996 66.0996 94.0552 66.0996 94H69.9004C69.9004 94.0552 69.9448 94.0996 70 94.0996H74C74.0552 94.0996 74.0996 94.0552 74.0996 94H77.9004C77.9004 94.0552 77.9448 94.0996 78 94.0996H82C82.0552 94.0996 82.0996 94.0552 82.0996 94H85.9004C85.9004 94.0552 85.9448 94.0996 86 94.0996H90C90.0552 94.0996 90.0996 94.0552 90.0996 94H93.9004C93.9004 94.0552 93.9448 94.0996 94 94.0996H98C98.0552 94.0996 98.0996 94.0552 98.0996 94H101.9C101.9 94.0552 101.945 94.0996 102 94.0996H106C106.055 94.0996 106.1 94.0552 106.1 94H109.9C109.9 94.0552 109.945 94.0996 110 94.0996H114C114.055 94.0996 114.1 94.0552 114.1 94H117.9C117.9 94.0552 117.945 94.0996 118 94.0996H122C122.055 94.0996 122.1 94.0552 122.1 94H125.9C125.9 94.0552 125.945 94.0996 126 94.0996H130C130.055 94.0996 130.1 94.0552 130.1 94H133.9C133.9 94.0552 133.945 94.0996 134 94.0996H138C138.055 94.0996 138.1 94.0552 138.1 94H141.9C141.9 94.0552 141.945 94.0996 142 94.0996H146C146.055 94.0996 146.1 94.0552 146.1 94H149.9C149.9 94.0552 149.945 94.0996 150 94.0996H154C154.055 94.0996 154.1 94.0552 154.1 94H157.9C157.9 94.0552 157.945 94.0996 158 94.0996H162C162.055 94.0996 162.1 94.0552 162.1 94H165.9C165.9 94.0552 165.945 94.0996 166 94.0996H170C170.055 94.0996 170.1 94.0552 170.1 94H173.9C173.9 94.0552 173.945 94.0996 174 94.0996H178C178.055 94.0996 178.1 94.0552 178.1 94H181.9C181.9 94.0552 181.945 94.0996 182 94.0996H186C186.055 94.0996 186.1 94.0552 186.1 94H189.9C189.9 94.0552 189.945 94.0996 190 94.0996H194C194.055 94.0996 194.1 94.0552 194.1 94H197.9C197.9 94.0552 197.945 94.0996 198 94.0996H202C202.055 94.0996 202.1 94.0552 202.1 94H205.9C205.9 94.0552 205.945 94.0996 206 94.0996H210C210.055 94.0996 210.1 94.0552 210.1 94H213.9C213.9 94.0552 213.945 94.0996 214 94.0996H218C218.055 94.0996 218.1 94.0552 218.1 94H221.9C221.9 94.0552 221.945 94.0996 222 94.0996H226C226.055 94.0996 226.1 94.0552 226.1 94H229.9C229.9 94.0552 229.945 94.0996 230 94.0996H234C234.055 94.0996 234.1 94.0552 234.1 94H237.9C237.9 94.0552 237.945 94.0996 238 94.0996H242C242.055 94.0996 242.1 94.0552 242.1 94H245.9C245.9 94.0552 245.945 94.0996 246 94.0996H250C250.055 94.0996 250.1 94.0552 250.1 94H253.9C253.9 94.0552 253.945 94.0996 254 94.0996H258C258.055 94.0996 258.1 94.0552 258.1 94H261.9C261.9 94.0552 261.945 94.0996 262 94.0996H266C266.055 94.0996 266.1 94.0552 266.1 94H269.9C269.9 94.0552 269.945 94.0996 270 94.0996H274C274.055 94.0996 274.1 94.0552 274.1 94H277.9C277.9 94.0552 277.945 94.0996 278 94.0996H282C282.055 94.0996 282.1 94.0552 282.1 94H285.9C285.9 94.0552 285.945 94.0996 286 94.0996H290C290.055 94.0996 290.1 94.0552 290.1 94H293.9C293.9 94.0552 293.945 94.0996 294 94.0996H298C298.055 94.0996 298.1 94.0552 298.1 94H301.9C301.9 94.0552 301.945 94.0996 302 94.0996H306C306.055 94.0996 306.1 94.0552 306.1 94H309.9C309.9 94.0552 309.945 94.0996 310 94.0996H314C314.055 94.0996 314.1 94.0552 314.1 94H317.9Z" fill="#9747FF" fill-opacity="0.1"/>
<path d="M317.9 94C317.9 94.0552 317.945 94.0996 318 94.0996H320C320.644 94.0996 321.233 94.0996 321.772 94.1055C321.827 94.1061 321.871 94.0631 321.873 94.0088C323.288 94.0262 324.359 94.0867 325.197 94.2998C325.184 94.3524 325.216 94.4065 325.269 94.4209C325.886 94.5906 326.364 94.8487 326.758 95.2422C327.151 95.6356 327.409 96.114 327.579 96.7314C327.593 96.7837 327.647 96.8145 327.699 96.8018C327.913 97.6396 327.973 98.7111 327.99 100.126C327.936 100.128 327.894 100.173 327.895 100.228C327.9 100.767 327.9 101.356 327.9 102V103.979C327.901 104.035 327.945 104.079 328 104.079V107.838C327.945 107.838 327.9 107.882 327.9 107.938V111.896C327.9 111.951 327.945 111.996 328 111.996V115.754C327.945 115.754 327.9 115.799 327.9 115.854V119.812C327.9 119.868 327.945 119.912 328 119.912V123.671C327.945 123.671 327.901 123.715 327.9 123.771V127.729C327.901 127.785 327.945 127.829 328 127.829V131.588C327.945 131.588 327.9 131.632 327.9 131.688V135.646C327.9 135.701 327.945 135.746 328 135.746V139.504C327.945 139.504 327.9 139.549 327.9 139.604V143.562C327.9 143.618 327.945 143.662 328 143.662V147.421C327.945 147.421 327.901 147.465 327.9 147.521V151.479C327.901 151.535 327.945 151.579 328 151.579V155.338C327.945 155.338 327.9 155.382 327.9 155.438V159.396C327.9 159.451 327.945 159.496 328 159.496V163.254C327.945 163.254 327.9 163.299 327.9 163.354V167.312C327.9 167.368 327.945 167.412 328 167.412V171.171C327.945 171.171 327.901 171.215 327.9 171.271V175.229C327.901 175.285 327.945 175.329 328 175.329V179.088C327.945 179.088 327.9 179.132 327.9 179.188V183.146C327.9 183.201 327.945 183.246 328 183.246V187.004C327.945 187.004 327.9 187.049 327.9 187.104V191.062C327.9 191.118 327.945 191.162 328 191.162V194.921C327.945 194.921 327.901 194.965 327.9 195.021V198.979C327.901 199.035 327.945 199.079 328 199.079V202.838C327.945 202.838 327.9 202.882 327.9 202.938V206.896C327.9 206.951 327.945 206.996 328 206.996V210.754C327.945 210.754 327.9 210.799 327.9 210.854V214.812C327.9 214.868 327.945 214.912 328 214.912V218.671C327.945 218.671 327.901 218.715 327.9 218.771V222.729C327.901 222.785 327.945 222.829 328 222.829V226.588C327.945 226.588 327.9 226.632 327.9 226.688V230.646C327.9 230.701 327.945 230.746 328 230.746V234.504C327.945 234.504 327.9 234.549 327.9 234.604V238.562C327.9 238.618 327.945 238.662 328 238.662V242.421C327.945 242.421 327.901 242.465 327.9 242.521V246.479C327.901 246.535 327.945 246.579 328 246.579V250.338C327.945 250.338 327.9 250.382 327.9 250.438V254.396C327.9 254.451 327.945 254.496 328 254.496V258.254C327.945 258.254 327.9 258.299 327.9 258.354V262.312C327.9 262.368 327.945 262.412 328 262.412V266.171C327.945 266.171 327.901 266.215 327.9 266.271V270.229C327.901 270.285 327.945 270.329 328 270.329V274.088C327.945 274.088 327.9 274.132 327.9 274.188V278.146C327.9 278.201 327.945 278.246 328 278.246V282.004C327.945 282.004 327.9 282.049 327.9 282.104V286.062C327.9 286.118 327.945 286.162 328 286.162V289.921C327.945 289.921 327.901 289.965 327.9 290.021V292C327.9 292.644 327.9 293.233 327.895 293.772C327.894 293.827 327.936 293.871 327.99 293.873C327.973 295.288 327.912 296.359 327.699 297.197C327.647 297.185 327.593 297.216 327.579 297.269C327.431 297.809 327.215 298.243 326.899 298.606L326.758 298.758C326.364 299.151 325.886 299.409 325.269 299.579C325.216 299.593 325.185 299.647 325.197 299.699C324.359 299.912 323.288 299.973 321.873 299.99C321.871 299.936 321.827 299.894 321.772 299.895C321.233 299.9 320.644 299.9 320 299.9H318C317.945 299.9 317.9 299.945 317.9 300H314.1C314.1 299.945 314.055 299.9 314 299.9H310C309.945 299.9 309.9 299.945 309.9 300H306.1C306.1 299.945 306.055 299.9 306 299.9H302C301.945 299.9 301.9 299.945 301.9 300H298.1C298.1 299.945 298.055 299.9 298 299.9H294C293.945 299.9 293.9 299.945 293.9 300H290.1C290.1 299.945 290.055 299.9 290 299.9H286C285.945 299.9 285.9 299.945 285.9 300H282.1C282.1 299.945 282.055 299.9 282 299.9H278C277.945 299.9 277.9 299.945 277.9 300H274.1C274.1 299.945 274.055 299.9 274 299.9H270C269.945 299.9 269.9 299.945 269.9 300H266.1C266.1 299.945 266.055 299.9 266 299.9H262C261.945 299.9 261.9 299.945 261.9 300H258.1C258.1 299.945 258.055 299.9 258 299.9H254C253.945 299.9 253.9 299.945 253.9 300H250.1C250.1 299.945 250.055 299.9 250 299.9H246C245.945 299.9 245.9 299.945 245.9 300H242.1C242.1 299.945 242.055 299.9 242 299.9H238C237.945 299.9 237.9 299.945 237.9 300H234.1C234.1 299.945 234.055 299.9 234 299.9H230C229.945 299.9 229.9 299.945 229.9 300H226.1C226.1 299.945 226.055 299.9 226 299.9H222C221.945 299.9 221.9 299.945 221.9 300H218.1C218.1 299.945 218.055 299.9 218 299.9H214C213.945 299.9 213.9 299.945 213.9 300H210.1C210.1 299.945 210.055 299.9 210 299.9H206C205.945 299.9 205.9 299.945 205.9 300H202.1C202.1 299.945 202.055 299.9 202 299.9H198C197.945 299.9 197.9 299.945 197.9 300H194.1C194.1 299.945 194.055 299.9 194 299.9H190C189.945 299.9 189.9 299.945 189.9 300H186.1C186.1 299.945 186.055 299.9 186 299.9H182C181.945 299.9 181.9 299.945 181.9 300H178.1C178.1 299.945 178.055 299.9 178 299.9H174C173.945 299.9 173.9 299.945 173.9 300H170.1C170.1 299.945 170.055 299.9 170 299.9H166C165.945 299.9 165.9 299.945 165.9 300H162.1C162.1 299.945 162.055 299.9 162 299.9H158C157.945 299.9 157.9 299.945 157.9 300H154.1C154.1 299.945 154.055 299.9 154 299.9H150C149.945 299.9 149.9 299.945 149.9 300H146.1C146.1 299.945 146.055 299.9 146 299.9H142C141.945 299.9 141.9 299.945 141.9 300H138.1C138.1 299.945 138.055 299.9 138 299.9H134C133.945 299.9 133.9 299.945 133.9 300H130.1C130.1 299.945 130.055 299.9 130 299.9H126C125.945 299.9 125.9 299.945 125.9 300H122.1C122.1 299.945 122.055 299.9 122 299.9H118C117.945 299.9 117.9 299.945 117.9 300H114.1C114.1 299.945 114.055 299.9 114 299.9H110C109.945 299.9 109.9 299.945 109.9 300H106.1C106.1 299.945 106.055 299.9 106 299.9H102C101.945 299.9 101.9 299.945 101.9 300H98.0996C98.0996 299.945 98.0552 299.9 98 299.9H94C93.9448 299.9 93.9004 299.945 93.9004 300H90.0996C90.0996 299.945 90.0552 299.9 90 299.9H86C85.9448 299.9 85.9004 299.945 85.9004 300H82.0996C82.0996 299.945 82.0552 299.9 82 299.9H78C77.9448 299.9 77.9004 299.945 77.9004 300H74.0996C74.0996 299.945 74.0552 299.9 74 299.9H70C69.9448 299.9 69.9004 299.945 69.9004 300H66.0996C66.0996 299.945 66.0552 299.9 66 299.9H64C63.3556 299.9 62.7669 299.9 62.2275 299.895C62.1733 299.894 62.1281 299.936 62.126 299.99C60.7111 299.973 59.6396 299.913 58.8018 299.699C58.8145 299.647 58.7837 299.593 58.7314 299.579L58.5059 299.512C57.9954 299.343 57.5864 299.102 57.2422 298.758L57.1006 298.606C56.7852 298.243 56.5694 297.809 56.4209 297.269L56.4033 297.233C56.3796 297.203 56.3392 297.187 56.2998 297.197C56.0867 296.359 56.0262 295.288 56.0088 293.873C56.0631 293.871 56.1061 293.827 56.1055 293.772C56.0996 293.233 56.0996 292.644 56.0996 292V290.021C56.0995 289.965 56.0551 289.921 56 289.921V286.162C56.0413 286.162 56.0766 286.137 56.0918 286.102L56.0996 286.062V282.104C56.0996 282.049 56.0552 282.004 56 282.004V278.246C56.0552 278.246 56.0996 278.201 56.0996 278.146V274.188C56.0996 274.132 56.0552 274.088 56 274.088V270.329C56.0415 270.329 56.0767 270.304 56.0918 270.268L56.0996 270.229V266.271C56.0994 266.215 56.0551 266.171 56 266.171V262.412C56.0413 262.412 56.0766 262.387 56.0918 262.352L56.0996 262.312V258.354C56.0996 258.299 56.0552 258.254 56 258.254V254.496C56.0552 254.496 56.0996 254.451 56.0996 254.396V250.438C56.0996 250.382 56.0552 250.338 56 250.338V246.579C56.0412 246.579 56.0765 246.554 56.0918 246.519L56.0996 246.479V242.521C56.0994 242.465 56.0551 242.421 56 242.421V238.662C56.0552 238.662 56.0996 238.618 56.0996 238.562V234.604C56.0996 234.549 56.0552 234.504 56 234.504V230.746C56.0552 230.746 56.0996 230.701 56.0996 230.646V226.688C56.0996 226.632 56.0552 226.588 56 226.588V222.829C56.0412 222.829 56.0765 222.804 56.0918 222.769L56.0996 222.729V218.771C56.0994 218.715 56.0551 218.671 56 218.671V214.912C56.0552 214.912 56.0996 214.868 56.0996 214.812V210.854C56.0996 210.799 56.0552 210.754 56 210.754V206.996C56.0552 206.996 56.0996 206.951 56.0996 206.896V202.938C56.0996 202.882 56.0552 202.838 56 202.838V199.079C56.0412 199.079 56.0765 199.054 56.0918 199.019L56.0996 198.979V195.021C56.0994 194.965 56.0551 194.921 56 194.921V191.162C56.0552 191.162 56.0996 191.118 56.0996 191.062V187.104C56.0996 187.049 56.0552 187.004 56 187.004V183.246C56.0552 183.246 56.0996 183.201 56.0996 183.146V179.188C56.0996 179.132 56.0552 179.088 56 179.088V175.329C56.0412 175.329 56.0765 175.304 56.0918 175.269L56.0996 175.229V171.271C56.0994 171.215 56.0551 171.171 56 171.171V167.412C56.0413 167.412 56.0766 167.387 56.0918 167.352L56.0996 167.312V163.354C56.0996 163.299 56.0552 163.254 56 163.254V159.496C56.0552 159.496 56.0996 159.451 56.0996 159.396V155.438C56.0996 155.382 56.0552 155.338 56 155.338V151.579C56.0412 151.579 56.0765 151.554 56.0918 151.519L56.0996 151.479V147.521C56.0994 147.465 56.0551 147.421 56 147.421V143.662C56.0413 143.662 56.0766 143.637 56.0918 143.602L56.0996 143.562V139.604C56.0996 139.549 56.0552 139.504 56 139.504V135.746C56.0552 135.746 56.0996 135.701 56.0996 135.646V131.688C56.0996 131.632 56.0552 131.588 56 131.588V127.829C56.0412 127.829 56.0765 127.804 56.0918 127.769L56.0996 127.729V123.771C56.0994 123.715 56.0551 123.671 56 123.671V119.912C56.0413 119.912 56.0766 119.887 56.0918 119.852L56.0996 119.812V115.854C56.0996 115.799 56.0552 115.754 56 115.754V111.996C56.0552 111.996 56.0996 111.951 56.0996 111.896V107.938C56.0996 107.882 56.0552 107.838 56 107.838V104.079C56.0412 104.079 56.0765 104.054 56.0918 104.019L56.0996 103.979V102L56.1055 100.228C56.1061 100.173 56.0631 100.128 56.0088 100.126C56.0263 98.7113 56.0865 97.6396 56.2998 96.8018C56.3393 96.8118 56.3796 96.7969 56.4033 96.7666L56.4209 96.7314C56.5906 96.114 56.8487 95.6356 57.2422 95.2422C57.5864 94.898 57.9954 94.6568 58.5059 94.4883L58.7314 94.4209C58.784 94.4064 58.8151 94.3524 58.8018 94.2998C59.6396 94.0865 60.7113 94.0263 62.126 94.0088C62.1276 94.0631 62.1729 94.1061 62.2275 94.1055C62.7669 94.0996 63.3556 94.0996 64 94.0996H66C66.0552 94.0996 66.0996 94.0552 66.0996 94H69.9004C69.9004 94.0552 69.9448 94.0996 70 94.0996H74C74.0552 94.0996 74.0996 94.0552 74.0996 94H77.9004C77.9004 94.0552 77.9448 94.0996 78 94.0996H82C82.0552 94.0996 82.0996 94.0552 82.0996 94H85.9004C85.9004 94.0552 85.9448 94.0996 86 94.0996H90C90.0552 94.0996 90.0996 94.0552 90.0996 94H93.9004C93.9004 94.0552 93.9448 94.0996 94 94.0996H98C98.0552 94.0996 98.0996 94.0552 98.0996 94H101.9C101.9 94.0552 101.945 94.0996 102 94.0996H106C106.055 94.0996 106.1 94.0552 106.1 94H109.9C109.9 94.0552 109.945 94.0996 110 94.0996H114C114.055 94.0996 114.1 94.0552 114.1 94H117.9C117.9 94.0552 117.945 94.0996 118 94.0996H122C122.055 94.0996 122.1 94.0552 122.1 94H125.9C125.9 94.0552 125.945 94.0996 126 94.0996H130C130.055 94.0996 130.1 94.0552 130.1 94H133.9C133.9 94.0552 133.945 94.0996 134 94.0996H138C138.055 94.0996 138.1 94.0552 138.1 94H141.9C141.9 94.0552 141.945 94.0996 142 94.0996H146C146.055 94.0996 146.1 94.0552 146.1 94H149.9C149.9 94.0552 149.945 94.0996 150 94.0996H154C154.055 94.0996 154.1 94.0552 154.1 94H157.9C157.9 94.0552 157.945 94.0996 158 94.0996H162C162.055 94.0996 162.1 94.0552 162.1 94H165.9C165.9 94.0552 165.945 94.0996 166 94.0996H170C170.055 94.0996 170.1 94.0552 170.1 94H173.9C173.9 94.0552 173.945 94.0996 174 94.0996H178C178.055 94.0996 178.1 94.0552 178.1 94H181.9C181.9 94.0552 181.945 94.0996 182 94.0996H186C186.055 94.0996 186.1 94.0552 186.1 94H189.9C189.9 94.0552 189.945 94.0996 190 94.0996H194C194.055 94.0996 194.1 94.0552 194.1 94H197.9C197.9 94.0552 197.945 94.0996 198 94.0996H202C202.055 94.0996 202.1 94.0552 202.1 94H205.9C205.9 94.0552 205.945 94.0996 206 94.0996H210C210.055 94.0996 210.1 94.0552 210.1 94H213.9C213.9 94.0552 213.945 94.0996 214 94.0996H218C218.055 94.0996 218.1 94.0552 218.1 94H221.9C221.9 94.0552 221.945 94.0996 222 94.0996H226C226.055 94.0996 226.1 94.0552 226.1 94H229.9C229.9 94.0552 229.945 94.0996 230 94.0996H234C234.055 94.0996 234.1 94.0552 234.1 94H237.9C237.9 94.0552 237.945 94.0996 238 94.0996H242C242.055 94.0996 242.1 94.0552 242.1 94H245.9C245.9 94.0552 245.945 94.0996 246 94.0996H250C250.055 94.0996 250.1 94.0552 250.1 94H253.9C253.9 94.0552 253.945 94.0996 254 94.0996H258C258.055 94.0996 258.1 94.0552 258.1 94H261.9C261.9 94.0552 261.945 94.0996 262 94.0996H266C266.055 94.0996 266.1 94.0552 266.1 94H269.9C269.9 94.0552 269.945 94.0996 270 94.0996H274C274.055 94.0996 274.1 94.0552 274.1 94H277.9C277.9 94.0552 277.945 94.0996 278 94.0996H282C282.055 94.0996 282.1 94.0552 282.1 94H285.9C285.9 94.0552 285.945 94.0996 286 94.0996H290C290.055 94.0996 290.1 94.0552 290.1 94H293.9C293.9 94.0552 293.945 94.0996 294 94.0996H298C298.055 94.0996 298.1 94.0552 298.1 94H301.9C301.9 94.0552 301.945 94.0996 302 94.0996H306C306.055 94.0996 306.1 94.0552 306.1 94H309.9C309.9 94.0552 309.945 94.0996 310 94.0996H314C314.055 94.0996 314.1 94.0552 314.1 94H317.9Z" stroke="#4F46E5" stroke-width="0.2" stroke-linecap="round" stroke-linejoin="round" stroke-dasharray="4 4"/>
<path d="M183.294 202.64C182.519 202.64 181.861 202.5 181.32 202.22C180.779 201.94 180.293 201.529 179.864 200.988L180.956 199.896C181.227 200.288 181.549 200.596 181.922 200.82C182.295 201.035 182.771 201.142 183.35 201.142C183.891 201.142 184.321 201.03 184.638 200.806C184.965 200.582 185.128 200.274 185.128 199.882C185.128 199.555 185.044 199.289 184.876 199.084C184.708 198.879 184.484 198.711 184.204 198.58C183.933 198.44 183.63 198.319 183.294 198.216C182.967 198.104 182.636 197.983 182.3 197.852C181.973 197.712 181.67 197.539 181.39 197.334C181.119 197.129 180.9 196.863 180.732 196.536C180.564 196.209 180.48 195.794 180.48 195.29C180.48 194.711 180.62 194.221 180.9 193.82C181.189 193.409 181.577 193.097 182.062 192.882C182.547 192.667 183.089 192.56 183.686 192.56C184.33 192.56 184.904 192.686 185.408 192.938C185.921 193.19 186.337 193.512 186.654 193.904L185.562 194.996C185.282 194.679 184.988 194.445 184.68 194.296C184.381 194.137 184.036 194.058 183.644 194.058C183.159 194.058 182.776 194.156 182.496 194.352C182.225 194.548 182.09 194.823 182.09 195.178C182.09 195.477 182.174 195.719 182.342 195.906C182.51 196.083 182.729 196.237 183 196.368C183.28 196.489 183.583 196.606 183.91 196.718C184.246 196.83 184.577 196.956 184.904 197.096C185.24 197.236 185.543 197.418 185.814 197.642C186.094 197.857 186.318 198.137 186.486 198.482C186.654 198.827 186.738 199.261 186.738 199.784C186.738 200.661 186.425 201.357 185.8 201.87C185.184 202.383 184.349 202.64 183.294 202.64ZM188.133 202.5V192.42H189.673V202.5H188.133ZM194.467 202.64C193.814 202.64 193.221 202.486 192.689 202.178C192.157 201.861 191.733 201.436 191.415 200.904C191.107 200.372 190.953 199.779 190.953 199.126C190.953 198.473 191.107 197.885 191.415 197.362C191.733 196.839 192.157 196.424 192.689 196.116C193.221 195.799 193.814 195.64 194.467 195.64C195.13 195.64 195.727 195.794 196.259 196.102C196.791 196.41 197.211 196.83 197.519 197.362C197.837 197.885 197.995 198.473 197.995 199.126C197.995 199.779 197.837 200.372 197.519 200.904C197.211 201.436 196.791 201.861 196.259 202.178C195.727 202.486 195.13 202.64 194.467 202.64ZM194.467 201.156C194.85 201.156 195.186 201.072 195.475 200.904C195.774 200.727 196.003 200.484 196.161 200.176C196.329 199.868 196.413 199.518 196.413 199.126C196.413 198.734 196.329 198.389 196.161 198.09C195.993 197.791 195.765 197.558 195.475 197.39C195.186 197.213 194.85 197.124 194.467 197.124C194.094 197.124 193.758 197.213 193.459 197.39C193.17 197.558 192.941 197.791 192.773 198.09C192.615 198.389 192.535 198.734 192.535 199.126C192.535 199.518 192.615 199.868 192.773 200.176C192.941 200.484 193.17 200.727 193.459 200.904C193.758 201.072 194.094 201.156 194.467 201.156ZM200.106 202.5V192.98H201.646V202.5H200.106ZM198.496 197.18V195.78H203.256V197.18H198.496Z" fill="#2A2C35"/>
<path d="M56 324.5H328" stroke="#F1F2F4" stroke-miterlimit="16" stroke-dasharray="3 2"/>
<path d="M56 357C56 353.28 56 351.42 56.4089 349.894C57.5185 345.753 60.7531 342.518 64.8942 341.409C66.4202 341 68.2801 341 72 341H172C175.72 341 177.58 341 179.106 341.409C183.247 342.518 186.482 345.753 187.591 349.894C188 351.42 188 353.28 188 357C188 360.72 188 362.58 187.591 364.106C186.482 368.247 183.247 371.482 179.106 372.591C177.58 373 175.72 373 172 373H72C68.2801 373 66.4202 373 64.8942 372.591C60.7531 371.482 57.5185 368.247 56.4089 364.106C56 362.58 56 360.72 56 357Z" fill="#4F46E5"/>
<path d="M101.222 363V361.4H104.438C105.004 361.4 105.441 361.224 105.75 360.872C106.06 360.52 106.214 360.115 106.214 359.656C106.214 359.347 106.145 359.059 106.006 358.792C105.868 358.525 105.665 358.312 105.398 358.152C105.132 357.992 104.812 357.912 104.438 357.912H101.222V356.312H104.166C104.646 356.312 105.03 356.189 105.318 355.944C105.606 355.699 105.75 355.336 105.75 354.856C105.75 354.376 105.606 354.013 105.318 353.768C105.03 353.523 104.646 353.4 104.166 353.4H101.222V351.8H104.214C104.972 351.8 105.601 351.939 106.102 352.216C106.604 352.493 106.977 352.851 107.222 353.288C107.468 353.725 107.59 354.195 107.59 354.696C107.59 355.283 107.425 355.8 107.094 356.248C106.774 356.696 106.3 357.059 105.67 357.336L105.814 356.76C106.518 357.048 107.068 357.453 107.462 357.976C107.857 358.499 108.054 359.112 108.054 359.816C108.054 360.392 107.91 360.92 107.622 361.4C107.345 361.88 106.929 362.269 106.374 362.568C105.83 362.856 105.158 363 104.358 363H101.222ZM99.9582 363V351.8H101.798V363H99.9582ZM112.823 363.16C112.173 363.16 111.591 363.016 111.079 362.728C110.578 362.44 110.183 362.045 109.895 361.544C109.618 361.032 109.479 360.445 109.479 359.784V355.32H111.239V359.704C111.239 360.077 111.298 360.397 111.415 360.664C111.543 360.92 111.725 361.117 111.959 361.256C112.205 361.395 112.493 361.464 112.823 361.464C113.335 361.464 113.725 361.315 113.991 361.016C114.269 360.707 114.407 360.269 114.407 359.704V355.32H116.167V359.784C116.167 360.456 116.023 361.048 115.735 361.56C115.458 362.061 115.069 362.456 114.567 362.744C114.066 363.021 113.485 363.16 112.823 363.16ZM119.105 363V352.12H120.865V363H119.105ZM117.265 356.92V355.32H127.345V356.92H117.265ZM123.745 363V352.12H125.505V363H123.745ZM131.926 363.16C131.179 363.16 130.502 362.984 129.894 362.632C129.286 362.269 128.8 361.784 128.438 361.176C128.086 360.568 127.91 359.891 127.91 359.144C127.91 358.397 128.086 357.725 128.438 357.128C128.8 356.531 129.286 356.056 129.894 355.704C130.502 355.341 131.179 355.16 131.926 355.16C132.683 355.16 133.366 355.336 133.974 355.688C134.582 356.04 135.062 356.52 135.414 357.128C135.776 357.725 135.958 358.397 135.958 359.144C135.958 359.891 135.776 360.568 135.414 361.176C135.062 361.784 134.582 362.269 133.974 362.632C133.366 362.984 132.683 363.16 131.926 363.16ZM131.926 361.464C132.363 361.464 132.747 361.368 133.078 361.176C133.419 360.973 133.68 360.696 133.862 360.344C134.054 359.992 134.15 359.592 134.15 359.144C134.15 358.696 134.054 358.301 133.862 357.96C133.67 357.619 133.408 357.352 133.078 357.16C132.747 356.957 132.363 356.856 131.926 356.856C131.499 356.856 131.115 356.957 130.774 357.16C130.443 357.352 130.182 357.619 129.99 357.96C129.808 358.301 129.718 358.696 129.718 359.144C129.718 359.592 129.808 359.992 129.99 360.344C130.182 360.696 130.443 360.973 130.774 361.176C131.115 361.368 131.499 361.464 131.926 361.464ZM142.685 363V358.568C142.685 358.056 142.52 357.635 142.189 357.304C141.869 356.973 141.453 356.808 140.941 356.808C140.6 356.808 140.296 356.883 140.029 357.032C139.763 357.181 139.555 357.389 139.405 357.656C139.256 357.923 139.181 358.227 139.181 358.568L138.493 358.184C138.493 357.597 138.621 357.08 138.877 356.632C139.133 356.173 139.485 355.816 139.933 355.56C140.392 355.293 140.904 355.16 141.469 355.16C142.045 355.16 142.557 355.309 143.005 355.608C143.453 355.896 143.805 356.275 144.061 356.744C144.317 357.203 144.445 357.683 144.445 358.184V363H142.685ZM137.421 363V355.32H139.181V363H137.421Z" fill="white"/>
<path d="M241.222 363V361.4H244.438C245.004 361.4 245.441 361.224 245.75 360.872C246.06 360.52 246.214 360.115 246.214 359.656C246.214 359.347 246.145 359.059 246.006 358.792C245.868 358.525 245.665 358.312 245.398 358.152C245.132 357.992 244.812 357.912 244.438 357.912H241.222V356.312H244.166C244.646 356.312 245.03 356.189 245.318 355.944C245.606 355.699 245.75 355.336 245.75 354.856C245.75 354.376 245.606 354.013 245.318 353.768C245.03 353.523 244.646 353.4 244.166 353.4H241.222V351.8H244.214C244.972 351.8 245.601 351.939 246.102 352.216C246.604 352.493 246.977 352.851 247.222 353.288C247.468 353.725 247.59 354.195 247.59 354.696C247.59 355.283 247.425 355.8 247.094 356.248C246.774 356.696 246.3 357.059 245.67 357.336L245.814 356.76C246.518 357.048 247.068 357.453 247.462 357.976C247.857 358.499 248.054 359.112 248.054 359.816C248.054 360.392 247.91 360.92 247.622 361.4C247.345 361.88 246.929 362.269 246.374 362.568C245.83 362.856 245.158 363 244.358 363H241.222ZM239.958 363V351.8H241.798V363H239.958ZM252.823 363.16C252.173 363.16 251.591 363.016 251.079 362.728C250.578 362.44 250.183 362.045 249.895 361.544C249.618 361.032 249.479 360.445 249.479 359.784V355.32H251.239V359.704C251.239 360.077 251.298 360.397 251.415 360.664C251.543 360.92 251.725 361.117 251.959 361.256C252.205 361.395 252.493 361.464 252.823 361.464C253.335 361.464 253.725 361.315 253.991 361.016C254.269 360.707 254.407 360.269 254.407 359.704V355.32H256.167V359.784C256.167 360.456 256.023 361.048 255.735 361.56C255.458 362.061 255.069 362.456 254.567 362.744C254.066 363.021 253.485 363.16 252.823 363.16ZM259.105 363V352.12H260.865V363H259.105ZM257.265 356.92V355.32H267.345V356.92H257.265ZM263.745 363V352.12H265.505V363H263.745ZM271.926 363.16C271.179 363.16 270.502 362.984 269.894 362.632C269.286 362.269 268.8 361.784 268.438 361.176C268.086 360.568 267.91 359.891 267.91 359.144C267.91 358.397 268.086 357.725 268.438 357.128C268.8 356.531 269.286 356.056 269.894 355.704C270.502 355.341 271.179 355.16 271.926 355.16C272.683 355.16 273.366 355.336 273.974 355.688C274.582 356.04 275.062 356.52 275.414 357.128C275.776 357.725 275.958 358.397 275.958 359.144C275.958 359.891 275.776 360.568 275.414 361.176C275.062 361.784 274.582 362.269 273.974 362.632C273.366 362.984 272.683 363.16 271.926 363.16ZM271.926 361.464C272.363 361.464 272.747 361.368 273.078 361.176C273.419 360.973 273.68 360.696 273.862 360.344C274.054 359.992 274.15 359.592 274.15 359.144C274.15 358.696 274.054 358.301 273.862 357.96C273.67 357.619 273.408 357.352 273.078 357.16C272.747 356.957 272.363 356.856 271.926 356.856C271.499 356.856 271.115 356.957 270.774 357.16C270.443 357.352 270.182 357.619 269.99 357.96C269.808 358.301 269.718 358.696 269.718 359.144C269.718 359.592 269.808 359.992 269.99 360.344C270.182 360.696 270.443 360.973 270.774 361.176C271.115 361.368 271.499 361.464 271.926 361.464ZM282.685 363V358.568C282.685 358.056 282.52 357.635 282.189 357.304C281.869 356.973 281.453 356.808 280.941 356.808C280.6 356.808 280.296 356.883 280.029 357.032C279.763 357.181 279.555 357.389 279.405 357.656C279.256 357.923 279.181 358.227 279.181 358.568L278.493 358.184C278.493 357.597 278.621 357.08 278.877 356.632C279.133 356.173 279.485 355.816 279.933 355.56C280.392 355.293 280.904 355.16 281.469 355.16C282.045 355.16 282.557 355.309 283.005 355.608C283.453 355.896 283.805 356.275 284.061 356.744C284.317 357.203 284.445 357.683 284.445 358.184V363H282.685ZM277.421 363V355.32H279.181V363H277.421Z" fill="#4F46E5"/>
</g>
<defs>
<filter id="filter0_d_7472_36742" x="0" y="0" width="384" height="431" filterUnits="userSpaceOnUse" color-interpolation-filters="sRGB">
<feFlood flood-opacity="0" result="BackgroundImageFix"/>
<feColorMatrix in="SourceAlpha" type="matrix" values="0 0 0 0 0 0 0 0 0 0 0 0 0 0 0 0 0 0 127 0" result="hardAlpha"/>
<feMorphology radius="16" operator="erode" in="SourceAlpha" result="effect1_dropShadow_7472_36742"/>
<feOffset dy="10"/>
<feGaussianBlur stdDeviation="24"/>
<feColorMatrix type="matrix" values="0 0 0 0 0 0 0 0 0 0 0 0 0 0 0 0 0 0 0.12 0"/>
<feBlend mode="normal" in2="BackgroundImageFix" result="effect1_dropShadow_7472_36742"/>
<feBlend mode="normal" in="SourceGraphic" in2="effect1_dropShadow_7472_36742" result="shape"/>
</filter>
</defs>
</svg>
