<svg width="217" height="284" viewBox="0 0 217 284" fill="none" xmlns="http://www.w3.org/2000/svg">
<g filter="url(#filter0_d_14098_30383)">
<path d="M24 26C24 22.6863 26.6863 20 30 20V20C33.3137 20 36 22.6863 36 26V26C36 29.3137 33.3137 32 30 32V32C26.6863 32 24 29.3137 24 26V26Z" fill="#00B49D"/>
<path d="M43.794 31.64C43.0193 31.64 42.3613 31.5 41.82 31.22C41.2787 30.94 40.7933 30.5293 40.364 29.988L41.456 28.896C41.7267 29.288 42.0487 29.596 42.422 29.82C42.7953 30.0347 43.2713 30.142 43.85 30.142C44.3913 30.142 44.8207 30.03 45.138 29.806C45.4647 29.582 45.628 29.274 45.628 28.882C45.628 28.5553 45.544 28.2893 45.376 28.084C45.208 27.8787 44.984 27.7107 44.704 27.58C44.4333 27.44 44.13 27.3187 43.794 27.216C43.4673 27.104 43.136 26.9827 42.8 26.852C42.4733 26.712 42.17 26.5393 41.89 26.334C41.6193 26.1287 41.4 25.8627 41.232 25.536C41.064 25.2093 40.98 24.794 40.98 24.29C40.98 23.7113 41.12 23.2213 41.4 22.82C41.6893 22.4093 42.0767 22.0967 42.562 21.882C43.0473 21.6673 43.5887 21.56 44.186 21.56C44.83 21.56 45.404 21.686 45.908 21.938C46.4213 22.19 46.8367 22.512 47.154 22.904L46.062 23.996C45.782 23.6787 45.488 23.4453 45.18 23.296C44.8813 23.1373 44.536 23.058 44.144 23.058C43.6587 23.058 43.276 23.156 42.996 23.352C42.7253 23.548 42.59 23.8233 42.59 24.178C42.59 24.4767 42.674 24.7193 42.842 24.906C43.01 25.0833 43.2293 25.2373 43.5 25.368C43.78 25.4893 44.0833 25.606 44.41 25.718C44.746 25.83 45.0773 25.956 45.404 26.096C45.74 26.236 46.0433 26.418 46.314 26.642C46.594 26.8567 46.818 27.1367 46.986 27.482C47.154 27.8273 47.238 28.2613 47.238 28.784C47.238 29.6613 46.9253 30.3567 46.3 30.87C45.684 31.3833 44.8487 31.64 43.794 31.64ZM49.6553 31.5V21.98H51.1953V31.5H49.6553ZM48.0453 26.18V24.78H52.8053V26.18H48.0453ZM56.5469 31.64C55.9402 31.64 55.3896 31.486 54.8949 31.178C54.4096 30.87 54.0222 30.4547 53.7329 29.932C53.4529 29.4 53.3129 28.8073 53.3129 28.154C53.3129 27.4913 53.4529 26.8987 53.7329 26.376C54.0222 25.844 54.4096 25.424 54.8949 25.116C55.3896 24.7987 55.9402 24.64 56.5469 24.64C57.0602 24.64 57.5129 24.752 57.9049 24.976C58.3062 25.1907 58.6236 25.4893 58.8569 25.872C59.0902 26.2547 59.2069 26.6887 59.2069 27.174V29.106C59.2069 29.5913 59.0902 30.0253 58.8569 30.408C58.6329 30.7907 58.3202 31.094 57.9189 31.318C57.5176 31.5327 57.0602 31.64 56.5469 31.64ZM56.7989 30.184C57.3682 30.184 57.8256 29.9927 58.1709 29.61C58.5256 29.2273 58.7029 28.7373 58.7029 28.14C58.7029 27.7387 58.6236 27.384 58.4649 27.076C58.3062 26.768 58.0822 26.53 57.7929 26.362C57.5129 26.1847 57.1816 26.096 56.7989 26.096C56.4256 26.096 56.0942 26.1847 55.8049 26.362C55.5249 26.53 55.3009 26.768 55.1329 27.076C54.9742 27.384 54.8949 27.7387 54.8949 28.14C54.8949 28.5413 54.9742 28.896 55.1329 29.204C55.3009 29.512 55.5249 29.7547 55.8049 29.932C56.0942 30.1 56.4256 30.184 56.7989 30.184ZM58.6049 31.5V29.694L58.8709 28.056L58.6049 26.432V24.78H60.1449V31.5H58.6049ZM62.876 31.5V21.98H64.416V31.5H62.876ZM61.266 26.18V24.78H66.026V26.18H61.266ZM69.903 31.64C69.3337 31.64 68.825 31.514 68.377 31.262C67.9383 31.01 67.593 30.6647 67.341 30.226C67.0983 29.778 66.977 29.2647 66.977 28.686V24.78H68.517V28.616C68.517 28.9427 68.5683 29.2227 68.671 29.456C68.783 29.68 68.9417 29.8527 69.147 29.974C69.3617 30.0953 69.6137 30.156 69.903 30.156C70.351 30.156 70.6917 30.0253 70.925 29.764C71.1677 29.4933 71.289 29.1107 71.289 28.616V24.78H72.829V28.686C72.829 29.274 72.703 29.792 72.451 30.24C72.2083 30.6787 71.8677 31.024 71.429 31.276C70.9903 31.5187 70.4817 31.64 69.903 31.64ZM76.5754 31.64C76.2021 31.64 75.8428 31.5933 75.4974 31.5C75.1521 31.3973 74.8348 31.2573 74.5454 31.08C74.2561 30.8933 74.0041 30.6693 73.7894 30.408L74.7694 29.428C75.0028 29.6987 75.2688 29.904 75.5674 30.044C75.8754 30.1747 76.2208 30.24 76.6034 30.24C76.9488 30.24 77.2101 30.1887 77.3874 30.086C77.5648 29.9833 77.6534 29.834 77.6534 29.638C77.6534 29.4327 77.5694 29.274 77.4014 29.162C77.2334 29.05 77.0141 28.9567 76.7434 28.882C76.4821 28.798 76.2021 28.714 75.9034 28.63C75.6141 28.546 75.3341 28.434 75.0634 28.294C74.8021 28.1447 74.5874 27.944 74.4194 27.692C74.2514 27.44 74.1674 27.1133 74.1674 26.712C74.1674 26.2827 74.2654 25.914 74.4614 25.606C74.6668 25.298 74.9514 25.06 75.3154 24.892C75.6888 24.724 76.1321 24.64 76.6454 24.64C77.1868 24.64 77.6628 24.738 78.0734 24.934C78.4934 25.1207 78.8434 25.4053 79.1234 25.788L78.1434 26.768C77.9474 26.5253 77.7234 26.3433 77.4714 26.222C77.2194 26.1007 76.9301 26.04 76.6034 26.04C76.2954 26.04 76.0574 26.0867 75.8894 26.18C75.7214 26.2733 75.6374 26.4087 75.6374 26.586C75.6374 26.7727 75.7214 26.9173 75.8894 27.02C76.0574 27.1227 76.2721 27.2113 76.5334 27.286C76.8041 27.3607 77.0841 27.4447 77.3734 27.538C77.6721 27.622 77.9521 27.7433 78.2134 27.902C78.4841 28.0513 78.7034 28.2567 78.8714 28.518C79.0394 28.77 79.1234 29.1013 79.1234 29.512C79.1234 30.1653 78.8948 30.6833 78.4374 31.066C77.9801 31.4487 77.3594 31.64 76.5754 31.64Z" fill="#2A2C35"/>
<path d="M144.031 23.9694C144.101 24.0391 144.156 24.1218 144.194 24.213C144.232 24.3042 144.251 24.4019 144.251 24.5006C144.251 24.5993 144.232 24.6971 144.194 24.7882C144.156 24.8794 144.101 24.9622 144.031 25.0319L140.531 28.5319C140.461 28.6018 140.378 28.6573 140.287 28.6951C140.196 28.733 140.098 28.7525 139.999 28.7525C139.901 28.7525 139.803 28.733 139.712 28.6951C139.621 28.6573 139.538 28.6018 139.468 28.5319L137.968 27.0319C137.898 26.9621 137.843 26.8793 137.805 26.7881C137.768 26.697 137.748 26.5993 137.748 26.5006C137.748 26.402 137.768 26.3043 137.805 26.2131C137.843 26.122 137.898 26.0391 137.968 25.9694C138.038 25.8996 138.121 25.8443 138.212 25.8065C138.303 25.7688 138.401 25.7493 138.499 25.7493C138.598 25.7493 138.696 25.7688 138.787 25.8065C138.878 25.8443 138.961 25.8996 139.031 25.9694L140 26.9375L142.969 23.9675C143.039 23.8979 143.122 23.8427 143.213 23.8051C143.304 23.7676 143.402 23.7483 143.5 23.7485C143.599 23.7486 143.697 23.7682 143.787 23.8061C143.878 23.8441 143.961 23.8995 144.031 23.9694ZM147.75 26C147.75 27.335 147.354 28.6401 146.612 29.7501C145.871 30.8601 144.817 31.7253 143.583 32.2362C142.35 32.7471 140.993 32.8808 139.683 32.6203C138.374 32.3599 137.171 31.717 136.227 30.773C135.283 29.829 134.64 28.6262 134.38 27.3169C134.119 26.0075 134.253 24.6503 134.764 23.4169C135.275 22.1835 136.14 21.1293 137.25 20.3876C138.36 19.6459 139.665 19.25 141 19.25C142.79 19.252 144.505 19.9638 145.771 21.2292C147.036 22.4947 147.748 24.2104 147.75 26ZM146.25 26C146.25 24.9616 145.942 23.9466 145.365 23.0833C144.788 22.2199 143.968 21.547 143.009 21.1496C142.05 20.7523 140.994 20.6483 139.976 20.8509C138.957 21.0534 138.022 21.5535 137.288 22.2877C136.553 23.0219 136.053 23.9574 135.851 24.9758C135.648 25.9942 135.752 27.0498 136.15 28.0091C136.547 28.9684 137.22 29.7883 138.083 30.3652C138.947 30.9421 139.962 31.25 141 31.25C142.392 31.2485 143.726 30.6949 144.711 29.7107C145.695 28.7264 146.249 27.3919 146.25 26Z" fill="#00B49D"/>
<path d="M156.794 31.64C156.019 31.64 155.361 31.5 154.82 31.22C154.279 30.94 153.793 30.5293 153.364 29.988L154.456 28.896C154.727 29.288 155.049 29.596 155.422 29.82C155.795 30.0347 156.271 30.142 156.85 30.142C157.391 30.142 157.821 30.03 158.138 29.806C158.465 29.582 158.628 29.274 158.628 28.882C158.628 28.5553 158.544 28.2893 158.376 28.084C158.208 27.8787 157.984 27.7107 157.704 27.58C157.433 27.44 157.13 27.3187 156.794 27.216C156.467 27.104 156.136 26.9827 155.8 26.852C155.473 26.712 155.17 26.5393 154.89 26.334C154.619 26.1287 154.4 25.8627 154.232 25.536C154.064 25.2093 153.98 24.794 153.98 24.29C153.98 23.7113 154.12 23.2213 154.4 22.82C154.689 22.4093 155.077 22.0967 155.562 21.882C156.047 21.6673 156.589 21.56 157.186 21.56C157.83 21.56 158.404 21.686 158.908 21.938C159.421 22.19 159.837 22.512 160.154 22.904L159.062 23.996C158.782 23.6787 158.488 23.4453 158.18 23.296C157.881 23.1373 157.536 23.058 157.144 23.058C156.659 23.058 156.276 23.156 155.996 23.352C155.725 23.548 155.59 23.8233 155.59 24.178C155.59 24.4767 155.674 24.7193 155.842 24.906C156.01 25.0833 156.229 25.2373 156.5 25.368C156.78 25.4893 157.083 25.606 157.41 25.718C157.746 25.83 158.077 25.956 158.404 26.096C158.74 26.236 159.043 26.418 159.314 26.642C159.594 26.8567 159.818 27.1367 159.986 27.482C160.154 27.8273 160.238 28.2613 160.238 28.784C160.238 29.6613 159.925 30.3567 159.3 30.87C158.684 31.3833 157.849 31.64 156.794 31.64ZM162.655 31.5V21.98H164.195V31.5H162.655ZM161.045 26.18V24.78H165.805V26.18H161.045ZM169.547 31.64C168.94 31.64 168.39 31.486 167.895 31.178C167.41 30.87 167.022 30.4547 166.733 29.932C166.453 29.4 166.313 28.8073 166.313 28.154C166.313 27.4913 166.453 26.8987 166.733 26.376C167.022 25.844 167.41 25.424 167.895 25.116C168.39 24.7987 168.94 24.64 169.547 24.64C170.06 24.64 170.513 24.752 170.905 24.976C171.306 25.1907 171.624 25.4893 171.857 25.872C172.09 26.2547 172.207 26.6887 172.207 27.174V29.106C172.207 29.5913 172.09 30.0253 171.857 30.408C171.633 30.7907 171.32 31.094 170.919 31.318C170.518 31.5327 170.06 31.64 169.547 31.64ZM169.799 30.184C170.368 30.184 170.826 29.9927 171.171 29.61C171.526 29.2273 171.703 28.7373 171.703 28.14C171.703 27.7387 171.624 27.384 171.465 27.076C171.306 26.768 171.082 26.53 170.793 26.362C170.513 26.1847 170.182 26.096 169.799 26.096C169.426 26.096 169.094 26.1847 168.805 26.362C168.525 26.53 168.301 26.768 168.133 27.076C167.974 27.384 167.895 27.7387 167.895 28.14C167.895 28.5413 167.974 28.896 168.133 29.204C168.301 29.512 168.525 29.7547 168.805 29.932C169.094 30.1 169.426 30.184 169.799 30.184ZM171.605 31.5V29.694L171.871 28.056L171.605 26.432V24.78H173.145V31.5H171.605ZM175.876 31.5V21.98H177.416V31.5H175.876ZM174.266 26.18V24.78H179.026V26.18H174.266ZM182.903 31.64C182.334 31.64 181.825 31.514 181.377 31.262C180.938 31.01 180.593 30.6647 180.341 30.226C180.098 29.778 179.977 29.2647 179.977 28.686V24.78H181.517V28.616C181.517 28.9427 181.568 29.2227 181.671 29.456C181.783 29.68 181.942 29.8527 182.147 29.974C182.362 30.0953 182.614 30.156 182.903 30.156C183.351 30.156 183.692 30.0253 183.925 29.764C184.168 29.4933 184.289 29.1107 184.289 28.616V24.78H185.829V28.686C185.829 29.274 185.703 29.792 185.451 30.24C185.208 30.6787 184.868 31.024 184.429 31.276C183.99 31.5187 183.482 31.64 182.903 31.64ZM189.575 31.64C189.202 31.64 188.843 31.5933 188.497 31.5C188.152 31.3973 187.835 31.2573 187.545 31.08C187.256 30.8933 187.004 30.6693 186.789 30.408L187.769 29.428C188.003 29.6987 188.269 29.904 188.567 30.044C188.875 30.1747 189.221 30.24 189.603 30.24C189.949 30.24 190.21 30.1887 190.387 30.086C190.565 29.9833 190.653 29.834 190.653 29.638C190.653 29.4327 190.569 29.274 190.401 29.162C190.233 29.05 190.014 28.9567 189.743 28.882C189.482 28.798 189.202 28.714 188.903 28.63C188.614 28.546 188.334 28.434 188.063 28.294C187.802 28.1447 187.587 27.944 187.419 27.692C187.251 27.44 187.167 27.1133 187.167 26.712C187.167 26.2827 187.265 25.914 187.461 25.606C187.667 25.298 187.951 25.06 188.315 24.892C188.689 24.724 189.132 24.64 189.645 24.64C190.187 24.64 190.663 24.738 191.073 24.934C191.493 25.1207 191.843 25.4053 192.123 25.788L191.143 26.768C190.947 26.5253 190.723 26.3433 190.471 26.222C190.219 26.1007 189.93 26.04 189.603 26.04C189.295 26.04 189.057 26.0867 188.889 26.18C188.721 26.2733 188.637 26.4087 188.637 26.586C188.637 26.7727 188.721 26.9173 188.889 27.02C189.057 27.1227 189.272 27.2113 189.533 27.286C189.804 27.3607 190.084 27.4447 190.373 27.538C190.672 27.622 190.952 27.7433 191.213 27.902C191.484 28.0513 191.703 28.2567 191.871 28.518C192.039 28.77 192.123 29.1013 192.123 29.512C192.123 30.1653 191.895 30.6833 191.437 31.066C190.98 31.4487 190.359 31.64 189.575 31.64Z" fill="#2A2C35"/>
<path d="M24 62C24 58.6863 26.6863 56 30 56V56C33.3137 56 36 58.6863 36 62V62C36 65.3137 33.3137 68 30 68V68C26.6863 68 24 65.3137 24 62V62Z" fill="#E1172F"/>
<path d="M43.794 67.64C43.0193 67.64 42.3613 67.5 41.82 67.22C41.2787 66.94 40.7933 66.5293 40.364 65.988L41.456 64.896C41.7267 65.288 42.0487 65.596 42.422 65.82C42.7953 66.0347 43.2713 66.142 43.85 66.142C44.3913 66.142 44.8207 66.03 45.138 65.806C45.4647 65.582 45.628 65.274 45.628 64.882C45.628 64.5553 45.544 64.2893 45.376 64.084C45.208 63.8787 44.984 63.7107 44.704 63.58C44.4333 63.44 44.13 63.3187 43.794 63.216C43.4673 63.104 43.136 62.9827 42.8 62.852C42.4733 62.712 42.17 62.5393 41.89 62.334C41.6193 62.1287 41.4 61.8627 41.232 61.536C41.064 61.2093 40.98 60.794 40.98 60.29C40.98 59.7113 41.12 59.2213 41.4 58.82C41.6893 58.4093 42.0767 58.0967 42.562 57.882C43.0473 57.6673 43.5887 57.56 44.186 57.56C44.83 57.56 45.404 57.686 45.908 57.938C46.4213 58.19 46.8367 58.512 47.154 58.904L46.062 59.996C45.782 59.6787 45.488 59.4453 45.18 59.296C44.8813 59.1373 44.536 59.058 44.144 59.058C43.6587 59.058 43.276 59.156 42.996 59.352C42.7253 59.548 42.59 59.8233 42.59 60.178C42.59 60.4767 42.674 60.7193 42.842 60.906C43.01 61.0833 43.2293 61.2373 43.5 61.368C43.78 61.4893 44.0833 61.606 44.41 61.718C44.746 61.83 45.0773 61.956 45.404 62.096C45.74 62.236 46.0433 62.418 46.314 62.642C46.594 62.8567 46.818 63.1367 46.986 63.482C47.154 63.8273 47.238 64.2613 47.238 64.784C47.238 65.6613 46.9253 66.3567 46.3 66.87C45.684 67.3833 44.8487 67.64 43.794 67.64ZM49.6553 67.5V57.98H51.1953V67.5H49.6553ZM48.0453 62.18V60.78H52.8053V62.18H48.0453ZM56.5469 67.64C55.9402 67.64 55.3896 67.486 54.8949 67.178C54.4096 66.87 54.0222 66.4547 53.7329 65.932C53.4529 65.4 53.3129 64.8073 53.3129 64.154C53.3129 63.4913 53.4529 62.8987 53.7329 62.376C54.0222 61.844 54.4096 61.424 54.8949 61.116C55.3896 60.7987 55.9402 60.64 56.5469 60.64C57.0602 60.64 57.5129 60.752 57.9049 60.976C58.3062 61.1907 58.6236 61.4893 58.8569 61.872C59.0902 62.2547 59.2069 62.6887 59.2069 63.174V65.106C59.2069 65.5913 59.0902 66.0253 58.8569 66.408C58.6329 66.7907 58.3202 67.094 57.9189 67.318C57.5176 67.5327 57.0602 67.64 56.5469 67.64ZM56.7989 66.184C57.3682 66.184 57.8256 65.9927 58.1709 65.61C58.5256 65.2273 58.7029 64.7373 58.7029 64.14C58.7029 63.7387 58.6236 63.384 58.4649 63.076C58.3062 62.768 58.0822 62.53 57.7929 62.362C57.5129 62.1847 57.1816 62.096 56.7989 62.096C56.4256 62.096 56.0942 62.1847 55.8049 62.362C55.5249 62.53 55.3009 62.768 55.1329 63.076C54.9742 63.384 54.8949 63.7387 54.8949 64.14C54.8949 64.5413 54.9742 64.896 55.1329 65.204C55.3009 65.512 55.5249 65.7547 55.8049 65.932C56.0942 66.1 56.4256 66.184 56.7989 66.184ZM58.6049 67.5V65.694L58.8709 64.056L58.6049 62.432V60.78H60.1449V67.5H58.6049ZM62.876 67.5V57.98H64.416V67.5H62.876ZM61.266 62.18V60.78H66.026V62.18H61.266ZM69.903 67.64C69.3337 67.64 68.825 67.514 68.377 67.262C67.9383 67.01 67.593 66.6647 67.341 66.226C67.0983 65.778 66.977 65.2647 66.977 64.686V60.78H68.517V64.616C68.517 64.9427 68.5683 65.2227 68.671 65.456C68.783 65.68 68.9417 65.8527 69.147 65.974C69.3617 66.0953 69.6137 66.156 69.903 66.156C70.351 66.156 70.6917 66.0253 70.925 65.764C71.1677 65.4933 71.289 65.1107 71.289 64.616V60.78H72.829V64.686C72.829 65.274 72.703 65.792 72.451 66.24C72.2083 66.6787 71.8677 67.024 71.429 67.276C70.9903 67.5187 70.4817 67.64 69.903 67.64ZM76.5754 67.64C76.2021 67.64 75.8428 67.5933 75.4974 67.5C75.1521 67.3973 74.8348 67.2573 74.5454 67.08C74.2561 66.8933 74.0041 66.6693 73.7894 66.408L74.7694 65.428C75.0028 65.6987 75.2688 65.904 75.5674 66.044C75.8754 66.1747 76.2208 66.24 76.6034 66.24C76.9488 66.24 77.2101 66.1887 77.3874 66.086C77.5648 65.9833 77.6534 65.834 77.6534 65.638C77.6534 65.4327 77.5694 65.274 77.4014 65.162C77.2334 65.05 77.0141 64.9567 76.7434 64.882C76.4821 64.798 76.2021 64.714 75.9034 64.63C75.6141 64.546 75.3341 64.434 75.0634 64.294C74.8021 64.1447 74.5874 63.944 74.4194 63.692C74.2514 63.44 74.1674 63.1133 74.1674 62.712C74.1674 62.2827 74.2654 61.914 74.4614 61.606C74.6668 61.298 74.9514 61.06 75.3154 60.892C75.6888 60.724 76.1321 60.64 76.6454 60.64C77.1868 60.64 77.6628 60.738 78.0734 60.934C78.4934 61.1207 78.8434 61.4053 79.1234 61.788L78.1434 62.768C77.9474 62.5253 77.7234 62.3433 77.4714 62.222C77.2194 62.1007 76.9301 62.04 76.6034 62.04C76.2954 62.04 76.0574 62.0867 75.8894 62.18C75.7214 62.2733 75.6374 62.4087 75.6374 62.586C75.6374 62.7727 75.7214 62.9173 75.8894 63.02C76.0574 63.1227 76.2721 63.2113 76.5334 63.286C76.8041 63.3607 77.0841 63.4447 77.3734 63.538C77.6721 63.622 77.9521 63.7433 78.2134 63.902C78.4841 64.0513 78.7034 64.2567 78.8714 64.518C79.0394 64.77 79.1234 65.1013 79.1234 65.512C79.1234 66.1653 78.8948 66.6833 78.4374 67.066C77.9801 67.4487 77.3594 67.64 76.5754 67.64Z" fill="#2A2C35"/>
<path d="M143.531 60.5306L142.063 62L143.533 63.4694C143.673 63.6103 143.753 63.8014 143.753 64.0006C143.753 64.1999 143.673 64.391 143.533 64.5319C143.392 64.6728 143.201 64.7519 143.001 64.7519C142.802 64.7519 142.611 64.6728 142.47 64.5319L141 63.0625L139.531 64.5325C139.39 64.6734 139.199 64.7526 138.999 64.7526C138.8 64.7526 138.609 64.6734 138.468 64.5325C138.327 64.3916 138.248 64.2005 138.248 64.0013C138.248 63.802 138.327 63.6109 138.468 63.47L139.938 62L138.469 60.5306C138.4 60.4609 138.344 60.378 138.307 60.2869C138.269 60.1957 138.249 60.098 138.249 59.9994C138.249 59.8001 138.328 59.609 138.469 59.4681C138.61 59.3272 138.801 59.2481 139.001 59.2481C139.2 59.2481 139.391 59.3272 139.532 59.4681L141 60.9375L142.469 59.4675C142.61 59.3266 142.801 59.2474 143.001 59.2474C143.2 59.2474 143.391 59.3266 143.532 59.4675C143.673 59.6084 143.752 59.7995 143.752 59.9988C143.752 60.198 143.673 60.3891 143.532 60.53L143.531 60.5306ZM147.75 62C147.75 63.335 147.354 64.6401 146.612 65.7501C145.871 66.8601 144.817 67.7253 143.583 68.2362C142.35 68.7471 140.993 68.8808 139.683 68.6203C138.374 68.3599 137.171 67.717 136.227 66.773C135.283 65.829 134.64 64.6262 134.38 63.3169C134.119 62.0075 134.253 60.6503 134.764 59.4169C135.275 58.1835 136.14 57.1293 137.25 56.3876C138.36 55.6459 139.665 55.25 141 55.25C142.79 55.252 144.505 55.9638 145.771 57.2292C147.036 58.4947 147.748 60.2104 147.75 62ZM146.25 62C146.25 60.9616 145.942 59.9466 145.365 59.0833C144.788 58.2199 143.968 57.547 143.009 57.1496C142.05 56.7523 140.994 56.6483 139.976 56.8509C138.957 57.0534 138.022 57.5535 137.288 58.2877C136.553 59.0219 136.053 59.9574 135.851 60.9758C135.648 61.9942 135.752 63.0498 136.15 64.0091C136.547 64.9684 137.22 65.7883 138.083 66.3652C138.947 66.9421 139.962 67.25 141 67.25C142.392 67.2485 143.726 66.6949 144.711 65.7107C145.695 64.7264 146.249 63.3919 146.25 62Z" fill="#E1172F"/>
<path d="M156.794 67.64C156.019 67.64 155.361 67.5 154.82 67.22C154.279 66.94 153.793 66.5293 153.364 65.988L154.456 64.896C154.727 65.288 155.049 65.596 155.422 65.82C155.795 66.0347 156.271 66.142 156.85 66.142C157.391 66.142 157.821 66.03 158.138 65.806C158.465 65.582 158.628 65.274 158.628 64.882C158.628 64.5553 158.544 64.2893 158.376 64.084C158.208 63.8787 157.984 63.7107 157.704 63.58C157.433 63.44 157.13 63.3187 156.794 63.216C156.467 63.104 156.136 62.9827 155.8 62.852C155.473 62.712 155.17 62.5393 154.89 62.334C154.619 62.1287 154.4 61.8627 154.232 61.536C154.064 61.2093 153.98 60.794 153.98 60.29C153.98 59.7113 154.12 59.2213 154.4 58.82C154.689 58.4093 155.077 58.0967 155.562 57.882C156.047 57.6673 156.589 57.56 157.186 57.56C157.83 57.56 158.404 57.686 158.908 57.938C159.421 58.19 159.837 58.512 160.154 58.904L159.062 59.996C158.782 59.6787 158.488 59.4453 158.18 59.296C157.881 59.1373 157.536 59.058 157.144 59.058C156.659 59.058 156.276 59.156 155.996 59.352C155.725 59.548 155.59 59.8233 155.59 60.178C155.59 60.4767 155.674 60.7193 155.842 60.906C156.01 61.0833 156.229 61.2373 156.5 61.368C156.78 61.4893 157.083 61.606 157.41 61.718C157.746 61.83 158.077 61.956 158.404 62.096C158.74 62.236 159.043 62.418 159.314 62.642C159.594 62.8567 159.818 63.1367 159.986 63.482C160.154 63.8273 160.238 64.2613 160.238 64.784C160.238 65.6613 159.925 66.3567 159.3 66.87C158.684 67.3833 157.849 67.64 156.794 67.64ZM162.655 67.5V57.98H164.195V67.5H162.655ZM161.045 62.18V60.78H165.805V62.18H161.045ZM169.547 67.64C168.94 67.64 168.39 67.486 167.895 67.178C167.41 66.87 167.022 66.4547 166.733 65.932C166.453 65.4 166.313 64.8073 166.313 64.154C166.313 63.4913 166.453 62.8987 166.733 62.376C167.022 61.844 167.41 61.424 167.895 61.116C168.39 60.7987 168.94 60.64 169.547 60.64C170.06 60.64 170.513 60.752 170.905 60.976C171.306 61.1907 171.624 61.4893 171.857 61.872C172.09 62.2547 172.207 62.6887 172.207 63.174V65.106C172.207 65.5913 172.09 66.0253 171.857 66.408C171.633 66.7907 171.32 67.094 170.919 67.318C170.518 67.5327 170.06 67.64 169.547 67.64ZM169.799 66.184C170.368 66.184 170.826 65.9927 171.171 65.61C171.526 65.2273 171.703 64.7373 171.703 64.14C171.703 63.7387 171.624 63.384 171.465 63.076C171.306 62.768 171.082 62.53 170.793 62.362C170.513 62.1847 170.182 62.096 169.799 62.096C169.426 62.096 169.094 62.1847 168.805 62.362C168.525 62.53 168.301 62.768 168.133 63.076C167.974 63.384 167.895 63.7387 167.895 64.14C167.895 64.5413 167.974 64.896 168.133 65.204C168.301 65.512 168.525 65.7547 168.805 65.932C169.094 66.1 169.426 66.184 169.799 66.184ZM171.605 67.5V65.694L171.871 64.056L171.605 62.432V60.78H173.145V67.5H171.605ZM175.876 67.5V57.98H177.416V67.5H175.876ZM174.266 62.18V60.78H179.026V62.18H174.266ZM182.903 67.64C182.334 67.64 181.825 67.514 181.377 67.262C180.938 67.01 180.593 66.6647 180.341 66.226C180.098 65.778 179.977 65.2647 179.977 64.686V60.78H181.517V64.616C181.517 64.9427 181.568 65.2227 181.671 65.456C181.783 65.68 181.942 65.8527 182.147 65.974C182.362 66.0953 182.614 66.156 182.903 66.156C183.351 66.156 183.692 66.0253 183.925 65.764C184.168 65.4933 184.289 65.1107 184.289 64.616V60.78H185.829V64.686C185.829 65.274 185.703 65.792 185.451 66.24C185.208 66.6787 184.868 67.024 184.429 67.276C183.99 67.5187 183.482 67.64 182.903 67.64ZM189.575 67.64C189.202 67.64 188.843 67.5933 188.497 67.5C188.152 67.3973 187.835 67.2573 187.545 67.08C187.256 66.8933 187.004 66.6693 186.789 66.408L187.769 65.428C188.003 65.6987 188.269 65.904 188.567 66.044C188.875 66.1747 189.221 66.24 189.603 66.24C189.949 66.24 190.21 66.1887 190.387 66.086C190.565 65.9833 190.653 65.834 190.653 65.638C190.653 65.4327 190.569 65.274 190.401 65.162C190.233 65.05 190.014 64.9567 189.743 64.882C189.482 64.798 189.202 64.714 188.903 64.63C188.614 64.546 188.334 64.434 188.063 64.294C187.802 64.1447 187.587 63.944 187.419 63.692C187.251 63.44 187.167 63.1133 187.167 62.712C187.167 62.2827 187.265 61.914 187.461 61.606C187.667 61.298 187.951 61.06 188.315 60.892C188.689 60.724 189.132 60.64 189.645 60.64C190.187 60.64 190.663 60.738 191.073 60.934C191.493 61.1207 191.843 61.4053 192.123 61.788L191.143 62.768C190.947 62.5253 190.723 62.3433 190.471 62.222C190.219 62.1007 189.93 62.04 189.603 62.04C189.295 62.04 189.057 62.0867 188.889 62.18C188.721 62.2733 188.637 62.4087 188.637 62.586C188.637 62.7727 188.721 62.9173 188.889 63.02C189.057 63.1227 189.272 63.2113 189.533 63.286C189.804 63.3607 190.084 63.4447 190.373 63.538C190.672 63.622 190.952 63.7433 191.213 63.902C191.484 64.0513 191.703 64.2567 191.871 64.518C192.039 64.77 192.123 65.1013 192.123 65.512C192.123 66.1653 191.895 66.6833 191.437 67.066C190.98 67.4487 190.359 67.64 189.575 67.64Z" fill="#2A2C35"/>
<path d="M24 98C24 94.6863 26.6863 92 30 92V92C33.3137 92 36 94.6863 36 98V98C36 101.314 33.3137 104 30 104V104C26.6863 104 24 101.314 24 98V98Z" fill="#646A77"/>
<path d="M43.794 103.64C43.0193 103.64 42.3613 103.5 41.82 103.22C41.2787 102.94 40.7933 102.529 40.364 101.988L41.456 100.896C41.7267 101.288 42.0487 101.596 42.422 101.82C42.7953 102.035 43.2713 102.142 43.85 102.142C44.3913 102.142 44.8207 102.03 45.138 101.806C45.4647 101.582 45.628 101.274 45.628 100.882C45.628 100.555 45.544 100.289 45.376 100.084C45.208 99.8787 44.984 99.7107 44.704 99.58C44.4333 99.44 44.13 99.3187 43.794 99.216C43.4673 99.104 43.136 98.9827 42.8 98.852C42.4733 98.712 42.17 98.5393 41.89 98.334C41.6193 98.1287 41.4 97.8627 41.232 97.536C41.064 97.2093 40.98 96.794 40.98 96.29C40.98 95.7113 41.12 95.2213 41.4 94.82C41.6893 94.4093 42.0767 94.0967 42.562 93.882C43.0473 93.6673 43.5887 93.56 44.186 93.56C44.83 93.56 45.404 93.686 45.908 93.938C46.4213 94.19 46.8367 94.512 47.154 94.904L46.062 95.996C45.782 95.6787 45.488 95.4453 45.18 95.296C44.8813 95.1373 44.536 95.058 44.144 95.058C43.6587 95.058 43.276 95.156 42.996 95.352C42.7253 95.548 42.59 95.8233 42.59 96.178C42.59 96.4767 42.674 96.7193 42.842 96.906C43.01 97.0833 43.2293 97.2373 43.5 97.368C43.78 97.4893 44.0833 97.606 44.41 97.718C44.746 97.83 45.0773 97.956 45.404 98.096C45.74 98.236 46.0433 98.418 46.314 98.642C46.594 98.8567 46.818 99.1367 46.986 99.482C47.154 99.8273 47.238 100.261 47.238 100.784C47.238 101.661 46.9253 102.357 46.3 102.87C45.684 103.383 44.8487 103.64 43.794 103.64ZM49.6553 103.5V93.98H51.1953V103.5H49.6553ZM48.0453 98.18V96.78H52.8053V98.18H48.0453ZM56.5469 103.64C55.9402 103.64 55.3896 103.486 54.8949 103.178C54.4096 102.87 54.0222 102.455 53.7329 101.932C53.4529 101.4 53.3129 100.807 53.3129 100.154C53.3129 99.4913 53.4529 98.8987 53.7329 98.376C54.0222 97.844 54.4096 97.424 54.8949 97.116C55.3896 96.7987 55.9402 96.64 56.5469 96.64C57.0602 96.64 57.5129 96.752 57.9049 96.976C58.3062 97.1907 58.6236 97.4893 58.8569 97.872C59.0902 98.2547 59.2069 98.6887 59.2069 99.174V101.106C59.2069 101.591 59.0902 102.025 58.8569 102.408C58.6329 102.791 58.3202 103.094 57.9189 103.318C57.5176 103.533 57.0602 103.64 56.5469 103.64ZM56.7989 102.184C57.3682 102.184 57.8256 101.993 58.1709 101.61C58.5256 101.227 58.7029 100.737 58.7029 100.14C58.7029 99.7387 58.6236 99.384 58.4649 99.076C58.3062 98.768 58.0822 98.53 57.7929 98.362C57.5129 98.1847 57.1816 98.096 56.7989 98.096C56.4256 98.096 56.0942 98.1847 55.8049 98.362C55.5249 98.53 55.3009 98.768 55.1329 99.076C54.9742 99.384 54.8949 99.7387 54.8949 100.14C54.8949 100.541 54.9742 100.896 55.1329 101.204C55.3009 101.512 55.5249 101.755 55.8049 101.932C56.0942 102.1 56.4256 102.184 56.7989 102.184ZM58.6049 103.5V101.694L58.8709 100.056L58.6049 98.432V96.78H60.1449V103.5H58.6049ZM62.876 103.5V93.98H64.416V103.5H62.876ZM61.266 98.18V96.78H66.026V98.18H61.266ZM69.903 103.64C69.3337 103.64 68.825 103.514 68.377 103.262C67.9383 103.01 67.593 102.665 67.341 102.226C67.0983 101.778 66.977 101.265 66.977 100.686V96.78H68.517V100.616C68.517 100.943 68.5683 101.223 68.671 101.456C68.783 101.68 68.9417 101.853 69.147 101.974C69.3617 102.095 69.6137 102.156 69.903 102.156C70.351 102.156 70.6917 102.025 70.925 101.764C71.1677 101.493 71.289 101.111 71.289 100.616V96.78H72.829V100.686C72.829 101.274 72.703 101.792 72.451 102.24C72.2083 102.679 71.8677 103.024 71.429 103.276C70.9903 103.519 70.4817 103.64 69.903 103.64ZM76.5754 103.64C76.2021 103.64 75.8428 103.593 75.4974 103.5C75.1521 103.397 74.8348 103.257 74.5454 103.08C74.2561 102.893 74.0041 102.669 73.7894 102.408L74.7694 101.428C75.0028 101.699 75.2688 101.904 75.5674 102.044C75.8754 102.175 76.2208 102.24 76.6034 102.24C76.9488 102.24 77.2101 102.189 77.3874 102.086C77.5648 101.983 77.6534 101.834 77.6534 101.638C77.6534 101.433 77.5694 101.274 77.4014 101.162C77.2334 101.05 77.0141 100.957 76.7434 100.882C76.4821 100.798 76.2021 100.714 75.9034 100.63C75.6141 100.546 75.3341 100.434 75.0634 100.294C74.8021 100.145 74.5874 99.944 74.4194 99.692C74.2514 99.44 74.1674 99.1133 74.1674 98.712C74.1674 98.2827 74.2654 97.914 74.4614 97.606C74.6668 97.298 74.9514 97.06 75.3154 96.892C75.6888 96.724 76.1321 96.64 76.6454 96.64C77.1868 96.64 77.6628 96.738 78.0734 96.934C78.4934 97.1207 78.8434 97.4053 79.1234 97.788L78.1434 98.768C77.9474 98.5253 77.7234 98.3433 77.4714 98.222C77.2194 98.1007 76.9301 98.04 76.6034 98.04C76.2954 98.04 76.0574 98.0867 75.8894 98.18C75.7214 98.2733 75.6374 98.4087 75.6374 98.586C75.6374 98.7727 75.7214 98.9173 75.8894 99.02C76.0574 99.1227 76.2721 99.2113 76.5334 99.286C76.8041 99.3607 77.0841 99.4447 77.3734 99.538C77.6721 99.622 77.9521 99.7433 78.2134 99.902C78.4841 100.051 78.7034 100.257 78.8714 100.518C79.0394 100.77 79.1234 101.101 79.1234 101.512C79.1234 102.165 78.8948 102.683 78.4374 103.066C77.9801 103.449 77.3594 103.64 76.5754 103.64Z" fill="#2A2C35"/>
<path d="M136.555 91.9956C136.489 91.9214 136.409 91.8609 136.32 91.8178C136.23 91.7747 136.133 91.7498 136.034 91.7444C135.935 91.7391 135.836 91.7535 135.742 91.7868C135.649 91.8201 135.563 91.8716 135.489 91.9383C135.416 92.0051 135.356 92.0857 135.314 92.1756C135.272 92.2655 135.249 92.3629 135.244 92.462C135.24 92.5612 135.256 92.6602 135.29 92.7533C135.325 92.8464 135.377 92.9317 135.445 93.0044L136.445 94.1075C134.292 95.5413 133.357 97.5988 133.312 97.6956C133.27 97.7916 133.248 97.8954 133.248 98.0003C133.248 98.1052 133.27 98.209 133.312 98.305C133.335 98.3563 133.883 99.5713 135.093 100.781C136.71 102.396 138.75 103.25 141 103.25C142.093 103.256 143.177 103.044 144.187 102.625L145.443 104.006C145.577 104.151 145.763 104.236 145.961 104.245C146.158 104.253 146.35 104.183 146.496 104.05C146.642 103.918 146.73 103.733 146.741 103.536C146.751 103.338 146.684 103.145 146.553 102.998L136.555 91.9956ZM141 101.75C139.15 101.75 137.533 101.079 136.193 99.7575C135.666 99.2356 135.212 98.6443 134.845 98C135.174 97.4181 136.019 96.1313 137.47 95.2319L143.1 101.426C142.421 101.643 141.713 101.752 141 101.75ZM148.687 98.305C148.665 98.3556 148.125 99.555 146.937 100.753C146.869 100.828 146.787 100.889 146.694 100.931C146.602 100.974 146.502 100.997 146.401 101C146.299 101.003 146.198 100.985 146.104 100.948C146.009 100.91 145.923 100.854 145.851 100.782C145.779 100.711 145.722 100.625 145.684 100.531C145.646 100.437 145.628 100.336 145.63 100.234C145.632 100.133 145.655 100.033 145.697 99.9402C145.739 99.8477 145.8 99.7647 145.875 99.6963C146.374 99.1891 146.804 98.6188 147.155 98C146.787 97.3555 146.334 96.7642 145.807 96.2425C144.466 94.9206 142.849 94.25 141 94.25C140.79 94.25 140.581 94.2588 140.375 94.2763C140.275 94.2869 140.175 94.2776 140.079 94.2488C139.983 94.2201 139.894 94.1725 139.817 94.1088C139.74 94.0452 139.677 93.9667 139.63 93.8782C139.584 93.7896 139.556 93.6926 139.547 93.593C139.539 93.4934 139.551 93.3932 139.582 93.2981C139.613 93.2031 139.662 93.1152 139.728 93.0396C139.793 92.964 139.873 92.9023 139.963 92.858C140.052 92.8138 140.15 92.7879 140.25 92.7819C140.495 92.7606 140.75 92.75 141 92.75C143.25 92.75 145.289 93.6044 146.905 95.22C148.115 96.4294 148.662 97.645 148.685 97.6956C148.728 97.7915 148.75 97.8952 148.751 98.0001C148.751 98.105 148.729 98.2089 148.687 98.305Z" fill="#646A77"/>
<path d="M156.794 103.64C156.019 103.64 155.361 103.5 154.82 103.22C154.279 102.94 153.793 102.529 153.364 101.988L154.456 100.896C154.727 101.288 155.049 101.596 155.422 101.82C155.795 102.035 156.271 102.142 156.85 102.142C157.391 102.142 157.821 102.03 158.138 101.806C158.465 101.582 158.628 101.274 158.628 100.882C158.628 100.555 158.544 100.289 158.376 100.084C158.208 99.8787 157.984 99.7107 157.704 99.58C157.433 99.44 157.13 99.3187 156.794 99.216C156.467 99.104 156.136 98.9827 155.8 98.852C155.473 98.712 155.17 98.5393 154.89 98.334C154.619 98.1287 154.4 97.8627 154.232 97.536C154.064 97.2093 153.98 96.794 153.98 96.29C153.98 95.7113 154.12 95.2213 154.4 94.82C154.689 94.4093 155.077 94.0967 155.562 93.882C156.047 93.6673 156.589 93.56 157.186 93.56C157.83 93.56 158.404 93.686 158.908 93.938C159.421 94.19 159.837 94.512 160.154 94.904L159.062 95.996C158.782 95.6787 158.488 95.4453 158.18 95.296C157.881 95.1373 157.536 95.058 157.144 95.058C156.659 95.058 156.276 95.156 155.996 95.352C155.725 95.548 155.59 95.8233 155.59 96.178C155.59 96.4767 155.674 96.7193 155.842 96.906C156.01 97.0833 156.229 97.2373 156.5 97.368C156.78 97.4893 157.083 97.606 157.41 97.718C157.746 97.83 158.077 97.956 158.404 98.096C158.74 98.236 159.043 98.418 159.314 98.642C159.594 98.8567 159.818 99.1367 159.986 99.482C160.154 99.8273 160.238 100.261 160.238 100.784C160.238 101.661 159.925 102.357 159.3 102.87C158.684 103.383 157.849 103.64 156.794 103.64ZM162.655 103.5V93.98H164.195V103.5H162.655ZM161.045 98.18V96.78H165.805V98.18H161.045ZM169.547 103.64C168.94 103.64 168.39 103.486 167.895 103.178C167.41 102.87 167.022 102.455 166.733 101.932C166.453 101.4 166.313 100.807 166.313 100.154C166.313 99.4913 166.453 98.8987 166.733 98.376C167.022 97.844 167.41 97.424 167.895 97.116C168.39 96.7987 168.94 96.64 169.547 96.64C170.06 96.64 170.513 96.752 170.905 96.976C171.306 97.1907 171.624 97.4893 171.857 97.872C172.09 98.2547 172.207 98.6887 172.207 99.174V101.106C172.207 101.591 172.09 102.025 171.857 102.408C171.633 102.791 171.32 103.094 170.919 103.318C170.518 103.533 170.06 103.64 169.547 103.64ZM169.799 102.184C170.368 102.184 170.826 101.993 171.171 101.61C171.526 101.227 171.703 100.737 171.703 100.14C171.703 99.7387 171.624 99.384 171.465 99.076C171.306 98.768 171.082 98.53 170.793 98.362C170.513 98.1847 170.182 98.096 169.799 98.096C169.426 98.096 169.094 98.1847 168.805 98.362C168.525 98.53 168.301 98.768 168.133 99.076C167.974 99.384 167.895 99.7387 167.895 100.14C167.895 100.541 167.974 100.896 168.133 101.204C168.301 101.512 168.525 101.755 168.805 101.932C169.094 102.1 169.426 102.184 169.799 102.184ZM171.605 103.5V101.694L171.871 100.056L171.605 98.432V96.78H173.145V103.5H171.605ZM175.876 103.5V93.98H177.416V103.5H175.876ZM174.266 98.18V96.78H179.026V98.18H174.266ZM182.903 103.64C182.334 103.64 181.825 103.514 181.377 103.262C180.938 103.01 180.593 102.665 180.341 102.226C180.098 101.778 179.977 101.265 179.977 100.686V96.78H181.517V100.616C181.517 100.943 181.568 101.223 181.671 101.456C181.783 101.68 181.942 101.853 182.147 101.974C182.362 102.095 182.614 102.156 182.903 102.156C183.351 102.156 183.692 102.025 183.925 101.764C184.168 101.493 184.289 101.111 184.289 100.616V96.78H185.829V100.686C185.829 101.274 185.703 101.792 185.451 102.24C185.208 102.679 184.868 103.024 184.429 103.276C183.99 103.519 183.482 103.64 182.903 103.64ZM189.575 103.64C189.202 103.64 188.843 103.593 188.497 103.5C188.152 103.397 187.835 103.257 187.545 103.08C187.256 102.893 187.004 102.669 186.789 102.408L187.769 101.428C188.003 101.699 188.269 101.904 188.567 102.044C188.875 102.175 189.221 102.24 189.603 102.24C189.949 102.24 190.21 102.189 190.387 102.086C190.565 101.983 190.653 101.834 190.653 101.638C190.653 101.433 190.569 101.274 190.401 101.162C190.233 101.05 190.014 100.957 189.743 100.882C189.482 100.798 189.202 100.714 188.903 100.63C188.614 100.546 188.334 100.434 188.063 100.294C187.802 100.145 187.587 99.944 187.419 99.692C187.251 99.44 187.167 99.1133 187.167 98.712C187.167 98.2827 187.265 97.914 187.461 97.606C187.667 97.298 187.951 97.06 188.315 96.892C188.689 96.724 189.132 96.64 189.645 96.64C190.187 96.64 190.663 96.738 191.073 96.934C191.493 97.1207 191.843 97.4053 192.123 97.788L191.143 98.768C190.947 98.5253 190.723 98.3433 190.471 98.222C190.219 98.1007 189.93 98.04 189.603 98.04C189.295 98.04 189.057 98.0867 188.889 98.18C188.721 98.2733 188.637 98.4087 188.637 98.586C188.637 98.7727 188.721 98.9173 188.889 99.02C189.057 99.1227 189.272 99.2113 189.533 99.286C189.804 99.3607 190.084 99.4447 190.373 99.538C190.672 99.622 190.952 99.7433 191.213 99.902C191.484 100.051 191.703 100.257 191.871 100.518C192.039 100.77 192.123 101.101 192.123 101.512C192.123 102.165 191.895 102.683 191.437 103.066C190.98 103.449 190.359 103.64 189.575 103.64Z" fill="#2A2C35"/>
<path d="M24 134C24 130.686 26.6863 128 30 128V128C33.3137 128 36 130.686 36 134V134C36 137.314 33.3137 140 30 140V140C26.6863 140 24 137.314 24 134V134Z" fill="#6538BE"/>
<path d="M43.794 139.64C43.0193 139.64 42.3613 139.5 41.82 139.22C41.2787 138.94 40.7933 138.529 40.364 137.988L41.456 136.896C41.7267 137.288 42.0487 137.596 42.422 137.82C42.7953 138.035 43.2713 138.142 43.85 138.142C44.3913 138.142 44.8207 138.03 45.138 137.806C45.4647 137.582 45.628 137.274 45.628 136.882C45.628 136.555 45.544 136.289 45.376 136.084C45.208 135.879 44.984 135.711 44.704 135.58C44.4333 135.44 44.13 135.319 43.794 135.216C43.4673 135.104 43.136 134.983 42.8 134.852C42.4733 134.712 42.17 134.539 41.89 134.334C41.6193 134.129 41.4 133.863 41.232 133.536C41.064 133.209 40.98 132.794 40.98 132.29C40.98 131.711 41.12 131.221 41.4 130.82C41.6893 130.409 42.0767 130.097 42.562 129.882C43.0473 129.667 43.5887 129.56 44.186 129.56C44.83 129.56 45.404 129.686 45.908 129.938C46.4213 130.19 46.8367 130.512 47.154 130.904L46.062 131.996C45.782 131.679 45.488 131.445 45.18 131.296C44.8813 131.137 44.536 131.058 44.144 131.058C43.6587 131.058 43.276 131.156 42.996 131.352C42.7253 131.548 42.59 131.823 42.59 132.178C42.59 132.477 42.674 132.719 42.842 132.906C43.01 133.083 43.2293 133.237 43.5 133.368C43.78 133.489 44.0833 133.606 44.41 133.718C44.746 133.83 45.0773 133.956 45.404 134.096C45.74 134.236 46.0433 134.418 46.314 134.642C46.594 134.857 46.818 135.137 46.986 135.482C47.154 135.827 47.238 136.261 47.238 136.784C47.238 137.661 46.9253 138.357 46.3 138.87C45.684 139.383 44.8487 139.64 43.794 139.64ZM49.6553 139.5V129.98H51.1953V139.5H49.6553ZM48.0453 134.18V132.78H52.8053V134.18H48.0453ZM56.5469 139.64C55.9402 139.64 55.3896 139.486 54.8949 139.178C54.4096 138.87 54.0222 138.455 53.7329 137.932C53.4529 137.4 53.3129 136.807 53.3129 136.154C53.3129 135.491 53.4529 134.899 53.7329 134.376C54.0222 133.844 54.4096 133.424 54.8949 133.116C55.3896 132.799 55.9402 132.64 56.5469 132.64C57.0602 132.64 57.5129 132.752 57.9049 132.976C58.3062 133.191 58.6236 133.489 58.8569 133.872C59.0902 134.255 59.2069 134.689 59.2069 135.174V137.106C59.2069 137.591 59.0902 138.025 58.8569 138.408C58.6329 138.791 58.3202 139.094 57.9189 139.318C57.5176 139.533 57.0602 139.64 56.5469 139.64ZM56.7989 138.184C57.3682 138.184 57.8256 137.993 58.1709 137.61C58.5256 137.227 58.7029 136.737 58.7029 136.14C58.7029 135.739 58.6236 135.384 58.4649 135.076C58.3062 134.768 58.0822 134.53 57.7929 134.362C57.5129 134.185 57.1816 134.096 56.7989 134.096C56.4256 134.096 56.0942 134.185 55.8049 134.362C55.5249 134.53 55.3009 134.768 55.1329 135.076C54.9742 135.384 54.8949 135.739 54.8949 136.14C54.8949 136.541 54.9742 136.896 55.1329 137.204C55.3009 137.512 55.5249 137.755 55.8049 137.932C56.0942 138.1 56.4256 138.184 56.7989 138.184ZM58.6049 139.5V137.694L58.8709 136.056L58.6049 134.432V132.78H60.1449V139.5H58.6049ZM62.876 139.5V129.98H64.416V139.5H62.876ZM61.266 134.18V132.78H66.026V134.18H61.266ZM69.903 139.64C69.3337 139.64 68.825 139.514 68.377 139.262C67.9383 139.01 67.593 138.665 67.341 138.226C67.0983 137.778 66.977 137.265 66.977 136.686V132.78H68.517V136.616C68.517 136.943 68.5683 137.223 68.671 137.456C68.783 137.68 68.9417 137.853 69.147 137.974C69.3617 138.095 69.6137 138.156 69.903 138.156C70.351 138.156 70.6917 138.025 70.925 137.764C71.1677 137.493 71.289 137.111 71.289 136.616V132.78H72.829V136.686C72.829 137.274 72.703 137.792 72.451 138.24C72.2083 138.679 71.8677 139.024 71.429 139.276C70.9903 139.519 70.4817 139.64 69.903 139.64ZM76.5754 139.64C76.2021 139.64 75.8428 139.593 75.4974 139.5C75.1521 139.397 74.8348 139.257 74.5454 139.08C74.2561 138.893 74.0041 138.669 73.7894 138.408L74.7694 137.428C75.0028 137.699 75.2688 137.904 75.5674 138.044C75.8754 138.175 76.2208 138.24 76.6034 138.24C76.9488 138.24 77.2101 138.189 77.3874 138.086C77.5648 137.983 77.6534 137.834 77.6534 137.638C77.6534 137.433 77.5694 137.274 77.4014 137.162C77.2334 137.05 77.0141 136.957 76.7434 136.882C76.4821 136.798 76.2021 136.714 75.9034 136.63C75.6141 136.546 75.3341 136.434 75.0634 136.294C74.8021 136.145 74.5874 135.944 74.4194 135.692C74.2514 135.44 74.1674 135.113 74.1674 134.712C74.1674 134.283 74.2654 133.914 74.4614 133.606C74.6668 133.298 74.9514 133.06 75.3154 132.892C75.6888 132.724 76.1321 132.64 76.6454 132.64C77.1868 132.64 77.6628 132.738 78.0734 132.934C78.4934 133.121 78.8434 133.405 79.1234 133.788L78.1434 134.768C77.9474 134.525 77.7234 134.343 77.4714 134.222C77.2194 134.101 76.9301 134.04 76.6034 134.04C76.2954 134.04 76.0574 134.087 75.8894 134.18C75.7214 134.273 75.6374 134.409 75.6374 134.586C75.6374 134.773 75.7214 134.917 75.8894 135.02C76.0574 135.123 76.2721 135.211 76.5334 135.286C76.8041 135.361 77.0841 135.445 77.3734 135.538C77.6721 135.622 77.9521 135.743 78.2134 135.902C78.4841 136.051 78.7034 136.257 78.8714 136.518C79.0394 136.77 79.1234 137.101 79.1234 137.512C79.1234 138.165 78.8948 138.683 78.4374 139.066C77.9801 139.449 77.3594 139.64 76.5754 139.64Z" fill="#2A2C35"/>
<path d="M141.75 131V133.576L143.886 134.857C143.972 134.907 144.048 134.973 144.108 135.052C144.168 135.131 144.212 135.222 144.238 135.318C144.263 135.415 144.268 135.515 144.254 135.614C144.24 135.712 144.206 135.807 144.155 135.893C144.104 135.978 144.036 136.052 143.956 136.111C143.875 136.17 143.784 136.213 143.687 136.236C143.59 136.259 143.49 136.263 143.391 136.247C143.293 136.231 143.199 136.196 143.114 136.143L140.614 134.643C140.503 134.577 140.411 134.482 140.347 134.37C140.284 134.257 140.25 134.13 140.25 134V131C140.25 130.801 140.329 130.61 140.47 130.47C140.61 130.329 140.801 130.25 141 130.25C141.199 130.25 141.39 130.329 141.53 130.47C141.671 130.61 141.75 130.801 141.75 131ZM141 127.75C140.178 127.748 139.364 127.909 138.605 128.224C137.846 128.538 137.157 129.001 136.578 129.584C136.284 129.88 136.015 130.169 135.75 130.459V130C135.75 129.801 135.671 129.61 135.53 129.47C135.39 129.329 135.199 129.25 135 129.25C134.801 129.25 134.61 129.329 134.47 129.47C134.329 129.61 134.25 129.801 134.25 130V132.5C134.25 132.699 134.329 132.89 134.47 133.03C134.61 133.171 134.801 133.25 135 133.25H137.5C137.699 133.25 137.89 133.171 138.03 133.03C138.171 132.89 138.25 132.699 138.25 132.5C138.25 132.301 138.171 132.11 138.03 131.97C137.89 131.829 137.699 131.75 137.5 131.75H136.611C136.938 131.375 137.273 131.014 137.641 130.641C138.301 129.981 139.141 129.53 140.056 129.344C140.971 129.159 141.921 129.247 142.786 129.598C143.651 129.949 144.394 130.547 144.921 131.318C145.448 132.088 145.736 132.997 145.75 133.931C145.764 134.864 145.502 135.781 144.997 136.567C144.492 137.352 143.768 137.972 142.913 138.348C142.058 138.723 141.112 138.839 140.192 138.68C139.272 138.521 138.419 138.095 137.74 137.454C137.595 137.317 137.402 137.244 137.203 137.249C137.004 137.255 136.816 137.34 136.679 137.484C136.543 137.629 136.469 137.822 136.475 138.021C136.481 138.22 136.565 138.408 136.71 138.545C137.452 139.245 138.354 139.753 139.337 140.025C140.321 140.296 141.356 140.323 142.352 140.102C143.348 139.881 144.275 139.42 145.052 138.759C145.828 138.098 146.432 137.256 146.808 136.308C147.185 135.36 147.324 134.334 147.213 133.32C147.102 132.306 146.745 131.334 146.172 130.49C145.599 129.646 144.828 128.955 143.926 128.477C143.025 128 142.02 127.75 141 127.75Z" fill="#6538BE"/>
<path d="M156.794 139.64C156.019 139.64 155.361 139.5 154.82 139.22C154.279 138.94 153.793 138.529 153.364 137.988L154.456 136.896C154.727 137.288 155.049 137.596 155.422 137.82C155.795 138.035 156.271 138.142 156.85 138.142C157.391 138.142 157.821 138.03 158.138 137.806C158.465 137.582 158.628 137.274 158.628 136.882C158.628 136.555 158.544 136.289 158.376 136.084C158.208 135.879 157.984 135.711 157.704 135.58C157.433 135.44 157.13 135.319 156.794 135.216C156.467 135.104 156.136 134.983 155.8 134.852C155.473 134.712 155.17 134.539 154.89 134.334C154.619 134.129 154.4 133.863 154.232 133.536C154.064 133.209 153.98 132.794 153.98 132.29C153.98 131.711 154.12 131.221 154.4 130.82C154.689 130.409 155.077 130.097 155.562 129.882C156.047 129.667 156.589 129.56 157.186 129.56C157.83 129.56 158.404 129.686 158.908 129.938C159.421 130.19 159.837 130.512 160.154 130.904L159.062 131.996C158.782 131.679 158.488 131.445 158.18 131.296C157.881 131.137 157.536 131.058 157.144 131.058C156.659 131.058 156.276 131.156 155.996 131.352C155.725 131.548 155.59 131.823 155.59 132.178C155.59 132.477 155.674 132.719 155.842 132.906C156.01 133.083 156.229 133.237 156.5 133.368C156.78 133.489 157.083 133.606 157.41 133.718C157.746 133.83 158.077 133.956 158.404 134.096C158.74 134.236 159.043 134.418 159.314 134.642C159.594 134.857 159.818 135.137 159.986 135.482C160.154 135.827 160.238 136.261 160.238 136.784C160.238 137.661 159.925 138.357 159.3 138.87C158.684 139.383 157.849 139.64 156.794 139.64ZM162.655 139.5V129.98H164.195V139.5H162.655ZM161.045 134.18V132.78H165.805V134.18H161.045ZM169.547 139.64C168.94 139.64 168.39 139.486 167.895 139.178C167.41 138.87 167.022 138.455 166.733 137.932C166.453 137.4 166.313 136.807 166.313 136.154C166.313 135.491 166.453 134.899 166.733 134.376C167.022 133.844 167.41 133.424 167.895 133.116C168.39 132.799 168.94 132.64 169.547 132.64C170.06 132.64 170.513 132.752 170.905 132.976C171.306 133.191 171.624 133.489 171.857 133.872C172.09 134.255 172.207 134.689 172.207 135.174V137.106C172.207 137.591 172.09 138.025 171.857 138.408C171.633 138.791 171.32 139.094 170.919 139.318C170.518 139.533 170.06 139.64 169.547 139.64ZM169.799 138.184C170.368 138.184 170.826 137.993 171.171 137.61C171.526 137.227 171.703 136.737 171.703 136.14C171.703 135.739 171.624 135.384 171.465 135.076C171.306 134.768 171.082 134.53 170.793 134.362C170.513 134.185 170.182 134.096 169.799 134.096C169.426 134.096 169.094 134.185 168.805 134.362C168.525 134.53 168.301 134.768 168.133 135.076C167.974 135.384 167.895 135.739 167.895 136.14C167.895 136.541 167.974 136.896 168.133 137.204C168.301 137.512 168.525 137.755 168.805 137.932C169.094 138.1 169.426 138.184 169.799 138.184ZM171.605 139.5V137.694L171.871 136.056L171.605 134.432V132.78H173.145V139.5H171.605ZM175.876 139.5V129.98H177.416V139.5H175.876ZM174.266 134.18V132.78H179.026V134.18H174.266ZM182.903 139.64C182.334 139.64 181.825 139.514 181.377 139.262C180.938 139.01 180.593 138.665 180.341 138.226C180.098 137.778 179.977 137.265 179.977 136.686V132.78H181.517V136.616C181.517 136.943 181.568 137.223 181.671 137.456C181.783 137.68 181.942 137.853 182.147 137.974C182.362 138.095 182.614 138.156 182.903 138.156C183.351 138.156 183.692 138.025 183.925 137.764C184.168 137.493 184.289 137.111 184.289 136.616V132.78H185.829V136.686C185.829 137.274 185.703 137.792 185.451 138.24C185.208 138.679 184.868 139.024 184.429 139.276C183.99 139.519 183.482 139.64 182.903 139.64ZM189.575 139.64C189.202 139.64 188.843 139.593 188.497 139.5C188.152 139.397 187.835 139.257 187.545 139.08C187.256 138.893 187.004 138.669 186.789 138.408L187.769 137.428C188.003 137.699 188.269 137.904 188.567 138.044C188.875 138.175 189.221 138.24 189.603 138.24C189.949 138.24 190.21 138.189 190.387 138.086C190.565 137.983 190.653 137.834 190.653 137.638C190.653 137.433 190.569 137.274 190.401 137.162C190.233 137.05 190.014 136.957 189.743 136.882C189.482 136.798 189.202 136.714 188.903 136.63C188.614 136.546 188.334 136.434 188.063 136.294C187.802 136.145 187.587 135.944 187.419 135.692C187.251 135.44 187.167 135.113 187.167 134.712C187.167 134.283 187.265 133.914 187.461 133.606C187.667 133.298 187.951 133.06 188.315 132.892C188.689 132.724 189.132 132.64 189.645 132.64C190.187 132.64 190.663 132.738 191.073 132.934C191.493 133.121 191.843 133.405 192.123 133.788L191.143 134.768C190.947 134.525 190.723 134.343 190.471 134.222C190.219 134.101 189.93 134.04 189.603 134.04C189.295 134.04 189.057 134.087 188.889 134.18C188.721 134.273 188.637 134.409 188.637 134.586C188.637 134.773 188.721 134.917 188.889 135.02C189.057 135.123 189.272 135.211 189.533 135.286C189.804 135.361 190.084 135.445 190.373 135.538C190.672 135.622 190.952 135.743 191.213 135.902C191.484 136.051 191.703 136.257 191.871 136.518C192.039 136.77 192.123 137.101 192.123 137.512C192.123 138.165 191.895 138.683 191.437 139.066C190.98 139.449 190.359 139.64 189.575 139.64Z" fill="#2A2C35"/>
<path d="M24 170C24 166.686 26.6863 164 30 164V164C33.3137 164 36 166.686 36 170V170C36 173.314 33.3137 176 30 176V176C26.6863 176 24 173.314 24 170V170Z" fill="#156EEB"/>
<path d="M43.794 175.64C43.0193 175.64 42.3613 175.5 41.82 175.22C41.2787 174.94 40.7933 174.529 40.364 173.988L41.456 172.896C41.7267 173.288 42.0487 173.596 42.422 173.82C42.7953 174.035 43.2713 174.142 43.85 174.142C44.3913 174.142 44.8207 174.03 45.138 173.806C45.4647 173.582 45.628 173.274 45.628 172.882C45.628 172.555 45.544 172.289 45.376 172.084C45.208 171.879 44.984 171.711 44.704 171.58C44.4333 171.44 44.13 171.319 43.794 171.216C43.4673 171.104 43.136 170.983 42.8 170.852C42.4733 170.712 42.17 170.539 41.89 170.334C41.6193 170.129 41.4 169.863 41.232 169.536C41.064 169.209 40.98 168.794 40.98 168.29C40.98 167.711 41.12 167.221 41.4 166.82C41.6893 166.409 42.0767 166.097 42.562 165.882C43.0473 165.667 43.5887 165.56 44.186 165.56C44.83 165.56 45.404 165.686 45.908 165.938C46.4213 166.19 46.8367 166.512 47.154 166.904L46.062 167.996C45.782 167.679 45.488 167.445 45.18 167.296C44.8813 167.137 44.536 167.058 44.144 167.058C43.6587 167.058 43.276 167.156 42.996 167.352C42.7253 167.548 42.59 167.823 42.59 168.178C42.59 168.477 42.674 168.719 42.842 168.906C43.01 169.083 43.2293 169.237 43.5 169.368C43.78 169.489 44.0833 169.606 44.41 169.718C44.746 169.83 45.0773 169.956 45.404 170.096C45.74 170.236 46.0433 170.418 46.314 170.642C46.594 170.857 46.818 171.137 46.986 171.482C47.154 171.827 47.238 172.261 47.238 172.784C47.238 173.661 46.9253 174.357 46.3 174.87C45.684 175.383 44.8487 175.64 43.794 175.64ZM49.6553 175.5V165.98H51.1953V175.5H49.6553ZM48.0453 170.18V168.78H52.8053V170.18H48.0453ZM56.5469 175.64C55.9402 175.64 55.3896 175.486 54.8949 175.178C54.4096 174.87 54.0222 174.455 53.7329 173.932C53.4529 173.4 53.3129 172.807 53.3129 172.154C53.3129 171.491 53.4529 170.899 53.7329 170.376C54.0222 169.844 54.4096 169.424 54.8949 169.116C55.3896 168.799 55.9402 168.64 56.5469 168.64C57.0602 168.64 57.5129 168.752 57.9049 168.976C58.3062 169.191 58.6236 169.489 58.8569 169.872C59.0902 170.255 59.2069 170.689 59.2069 171.174V173.106C59.2069 173.591 59.0902 174.025 58.8569 174.408C58.6329 174.791 58.3202 175.094 57.9189 175.318C57.5176 175.533 57.0602 175.64 56.5469 175.64ZM56.7989 174.184C57.3682 174.184 57.8256 173.993 58.1709 173.61C58.5256 173.227 58.7029 172.737 58.7029 172.14C58.7029 171.739 58.6236 171.384 58.4649 171.076C58.3062 170.768 58.0822 170.53 57.7929 170.362C57.5129 170.185 57.1816 170.096 56.7989 170.096C56.4256 170.096 56.0942 170.185 55.8049 170.362C55.5249 170.53 55.3009 170.768 55.1329 171.076C54.9742 171.384 54.8949 171.739 54.8949 172.14C54.8949 172.541 54.9742 172.896 55.1329 173.204C55.3009 173.512 55.5249 173.755 55.8049 173.932C56.0942 174.1 56.4256 174.184 56.7989 174.184ZM58.6049 175.5V173.694L58.8709 172.056L58.6049 170.432V168.78H60.1449V175.5H58.6049ZM62.876 175.5V165.98H64.416V175.5H62.876ZM61.266 170.18V168.78H66.026V170.18H61.266ZM69.903 175.64C69.3337 175.64 68.825 175.514 68.377 175.262C67.9383 175.01 67.593 174.665 67.341 174.226C67.0983 173.778 66.977 173.265 66.977 172.686V168.78H68.517V172.616C68.517 172.943 68.5683 173.223 68.671 173.456C68.783 173.68 68.9417 173.853 69.147 173.974C69.3617 174.095 69.6137 174.156 69.903 174.156C70.351 174.156 70.6917 174.025 70.925 173.764C71.1677 173.493 71.289 173.111 71.289 172.616V168.78H72.829V172.686C72.829 173.274 72.703 173.792 72.451 174.24C72.2083 174.679 71.8677 175.024 71.429 175.276C70.9903 175.519 70.4817 175.64 69.903 175.64ZM76.5754 175.64C76.2021 175.64 75.8428 175.593 75.4974 175.5C75.1521 175.397 74.8348 175.257 74.5454 175.08C74.2561 174.893 74.0041 174.669 73.7894 174.408L74.7694 173.428C75.0028 173.699 75.2688 173.904 75.5674 174.044C75.8754 174.175 76.2208 174.24 76.6034 174.24C76.9488 174.24 77.2101 174.189 77.3874 174.086C77.5648 173.983 77.6534 173.834 77.6534 173.638C77.6534 173.433 77.5694 173.274 77.4014 173.162C77.2334 173.05 77.0141 172.957 76.7434 172.882C76.4821 172.798 76.2021 172.714 75.9034 172.63C75.6141 172.546 75.3341 172.434 75.0634 172.294C74.8021 172.145 74.5874 171.944 74.4194 171.692C74.2514 171.44 74.1674 171.113 74.1674 170.712C74.1674 170.283 74.2654 169.914 74.4614 169.606C74.6668 169.298 74.9514 169.06 75.3154 168.892C75.6888 168.724 76.1321 168.64 76.6454 168.64C77.1868 168.64 77.6628 168.738 78.0734 168.934C78.4934 169.121 78.8434 169.405 79.1234 169.788L78.1434 170.768C77.9474 170.525 77.7234 170.343 77.4714 170.222C77.2194 170.101 76.9301 170.04 76.6034 170.04C76.2954 170.04 76.0574 170.087 75.8894 170.18C75.7214 170.273 75.6374 170.409 75.6374 170.586C75.6374 170.773 75.7214 170.917 75.8894 171.02C76.0574 171.123 76.2721 171.211 76.5334 171.286C76.8041 171.361 77.0841 171.445 77.3734 171.538C77.6721 171.622 77.9521 171.743 78.2134 171.902C78.4841 172.051 78.7034 172.257 78.8714 172.518C79.0394 172.77 79.1234 173.101 79.1234 173.512C79.1234 174.165 78.8948 174.683 78.4374 175.066C77.9801 175.449 77.3594 175.64 76.5754 175.64Z" fill="#2A2C35"/>
<path d="M148.187 168.003C148.111 167.77 147.969 167.565 147.777 167.412C147.585 167.26 147.353 167.167 147.109 167.146L143.546 166.837L142.152 163.516C142.056 163.29 141.896 163.098 141.692 162.962C141.487 162.827 141.247 162.755 141.002 162.755C140.756 162.755 140.516 162.827 140.312 162.962C140.107 163.098 139.947 163.29 139.851 163.516L138.455 166.837L134.893 167.146C134.648 167.166 134.414 167.258 134.221 167.411C134.027 167.564 133.884 167.77 133.808 168.004C133.731 168.238 133.726 168.49 133.792 168.727C133.858 168.964 133.993 169.177 134.179 169.337L136.887 171.7L136.074 175.215C136.018 175.454 136.035 175.705 136.12 175.935C136.206 176.165 136.358 176.365 136.557 176.51C136.756 176.654 136.993 176.737 137.238 176.747C137.484 176.758 137.727 176.696 137.937 176.569L141 174.709L144.062 176.569C144.273 176.695 144.516 176.757 144.761 176.747C145.007 176.736 145.244 176.654 145.442 176.509C145.641 176.365 145.793 176.165 145.878 175.935C145.964 175.705 145.98 175.454 145.925 175.215L145.112 171.7L147.82 169.337C148.006 169.176 148.14 168.963 148.205 168.726C148.27 168.488 148.264 168.237 148.187 168.003ZM144.015 170.667C143.844 170.816 143.717 171.009 143.647 171.225C143.577 171.441 143.567 171.672 143.619 171.894L144.33 174.976L141.647 173.346C141.452 173.228 141.228 173.165 141 173.165C140.772 173.165 140.548 173.228 140.353 173.346L137.669 174.976L138.381 171.894C138.433 171.672 138.423 171.441 138.353 171.225C138.283 171.009 138.156 170.816 137.984 170.667L135.604 168.59L138.737 168.319C138.964 168.299 139.181 168.218 139.365 168.084C139.549 167.949 139.693 167.767 139.78 167.557L141 164.651L142.219 167.557C142.307 167.767 142.45 167.949 142.634 168.084C142.818 168.218 143.035 168.299 143.262 168.319L146.396 168.59L144.015 170.667Z" fill="#156EEB"/>
<path d="M156.794 175.64C156.019 175.64 155.361 175.5 154.82 175.22C154.279 174.94 153.793 174.529 153.364 173.988L154.456 172.896C154.727 173.288 155.049 173.596 155.422 173.82C155.795 174.035 156.271 174.142 156.85 174.142C157.391 174.142 157.821 174.03 158.138 173.806C158.465 173.582 158.628 173.274 158.628 172.882C158.628 172.555 158.544 172.289 158.376 172.084C158.208 171.879 157.984 171.711 157.704 171.58C157.433 171.44 157.13 171.319 156.794 171.216C156.467 171.104 156.136 170.983 155.8 170.852C155.473 170.712 155.17 170.539 154.89 170.334C154.619 170.129 154.4 169.863 154.232 169.536C154.064 169.209 153.98 168.794 153.98 168.29C153.98 167.711 154.12 167.221 154.4 166.82C154.689 166.409 155.077 166.097 155.562 165.882C156.047 165.667 156.589 165.56 157.186 165.56C157.83 165.56 158.404 165.686 158.908 165.938C159.421 166.19 159.837 166.512 160.154 166.904L159.062 167.996C158.782 167.679 158.488 167.445 158.18 167.296C157.881 167.137 157.536 167.058 157.144 167.058C156.659 167.058 156.276 167.156 155.996 167.352C155.725 167.548 155.59 167.823 155.59 168.178C155.59 168.477 155.674 168.719 155.842 168.906C156.01 169.083 156.229 169.237 156.5 169.368C156.78 169.489 157.083 169.606 157.41 169.718C157.746 169.83 158.077 169.956 158.404 170.096C158.74 170.236 159.043 170.418 159.314 170.642C159.594 170.857 159.818 171.137 159.986 171.482C160.154 171.827 160.238 172.261 160.238 172.784C160.238 173.661 159.925 174.357 159.3 174.87C158.684 175.383 157.849 175.64 156.794 175.64ZM162.655 175.5V165.98H164.195V175.5H162.655ZM161.045 170.18V168.78H165.805V170.18H161.045ZM169.547 175.64C168.94 175.64 168.39 175.486 167.895 175.178C167.41 174.87 167.022 174.455 166.733 173.932C166.453 173.4 166.313 172.807 166.313 172.154C166.313 171.491 166.453 170.899 166.733 170.376C167.022 169.844 167.41 169.424 167.895 169.116C168.39 168.799 168.94 168.64 169.547 168.64C170.06 168.64 170.513 168.752 170.905 168.976C171.306 169.191 171.624 169.489 171.857 169.872C172.09 170.255 172.207 170.689 172.207 171.174V173.106C172.207 173.591 172.09 174.025 171.857 174.408C171.633 174.791 171.32 175.094 170.919 175.318C170.518 175.533 170.06 175.64 169.547 175.64ZM169.799 174.184C170.368 174.184 170.826 173.993 171.171 173.61C171.526 173.227 171.703 172.737 171.703 172.14C171.703 171.739 171.624 171.384 171.465 171.076C171.306 170.768 171.082 170.53 170.793 170.362C170.513 170.185 170.182 170.096 169.799 170.096C169.426 170.096 169.094 170.185 168.805 170.362C168.525 170.53 168.301 170.768 168.133 171.076C167.974 171.384 167.895 171.739 167.895 172.14C167.895 172.541 167.974 172.896 168.133 173.204C168.301 173.512 168.525 173.755 168.805 173.932C169.094 174.1 169.426 174.184 169.799 174.184ZM171.605 175.5V173.694L171.871 172.056L171.605 170.432V168.78H173.145V175.5H171.605ZM175.876 175.5V165.98H177.416V175.5H175.876ZM174.266 170.18V168.78H179.026V170.18H174.266ZM182.903 175.64C182.334 175.64 181.825 175.514 181.377 175.262C180.938 175.01 180.593 174.665 180.341 174.226C180.098 173.778 179.977 173.265 179.977 172.686V168.78H181.517V172.616C181.517 172.943 181.568 173.223 181.671 173.456C181.783 173.68 181.942 173.853 182.147 173.974C182.362 174.095 182.614 174.156 182.903 174.156C183.351 174.156 183.692 174.025 183.925 173.764C184.168 173.493 184.289 173.111 184.289 172.616V168.78H185.829V172.686C185.829 173.274 185.703 173.792 185.451 174.24C185.208 174.679 184.868 175.024 184.429 175.276C183.99 175.519 183.482 175.64 182.903 175.64ZM189.575 175.64C189.202 175.64 188.843 175.593 188.497 175.5C188.152 175.397 187.835 175.257 187.545 175.08C187.256 174.893 187.004 174.669 186.789 174.408L187.769 173.428C188.003 173.699 188.269 173.904 188.567 174.044C188.875 174.175 189.221 174.24 189.603 174.24C189.949 174.24 190.21 174.189 190.387 174.086C190.565 173.983 190.653 173.834 190.653 173.638C190.653 173.433 190.569 173.274 190.401 173.162C190.233 173.05 190.014 172.957 189.743 172.882C189.482 172.798 189.202 172.714 188.903 172.63C188.614 172.546 188.334 172.434 188.063 172.294C187.802 172.145 187.587 171.944 187.419 171.692C187.251 171.44 187.167 171.113 187.167 170.712C187.167 170.283 187.265 169.914 187.461 169.606C187.667 169.298 187.951 169.06 188.315 168.892C188.689 168.724 189.132 168.64 189.645 168.64C190.187 168.64 190.663 168.738 191.073 168.934C191.493 169.121 191.843 169.405 192.123 169.788L191.143 170.768C190.947 170.525 190.723 170.343 190.471 170.222C190.219 170.101 189.93 170.04 189.603 170.04C189.295 170.04 189.057 170.087 188.889 170.18C188.721 170.273 188.637 170.409 188.637 170.586C188.637 170.773 188.721 170.917 188.889 171.02C189.057 171.123 189.272 171.211 189.533 171.286C189.804 171.361 190.084 171.445 190.373 171.538C190.672 171.622 190.952 171.743 191.213 171.902C191.484 172.051 191.703 172.257 191.871 172.518C192.039 172.77 192.123 173.101 192.123 173.512C192.123 174.165 191.895 174.683 191.437 175.066C190.98 175.449 190.359 175.64 189.575 175.64Z" fill="#2A2C35"/>
<path d="M24 206C24 202.686 26.6863 200 30 200V200C33.3137 200 36 202.686 36 206V206C36 209.314 33.3137 212 30 212V212C26.6863 212 24 209.314 24 206V206Z" fill="#DC6726"/>
<path d="M43.794 211.64C43.0193 211.64 42.3613 211.5 41.82 211.22C41.2787 210.94 40.7933 210.529 40.364 209.988L41.456 208.896C41.7267 209.288 42.0487 209.596 42.422 209.82C42.7953 210.035 43.2713 210.142 43.85 210.142C44.3913 210.142 44.8207 210.03 45.138 209.806C45.4647 209.582 45.628 209.274 45.628 208.882C45.628 208.555 45.544 208.289 45.376 208.084C45.208 207.879 44.984 207.711 44.704 207.58C44.4333 207.44 44.13 207.319 43.794 207.216C43.4673 207.104 43.136 206.983 42.8 206.852C42.4733 206.712 42.17 206.539 41.89 206.334C41.6193 206.129 41.4 205.863 41.232 205.536C41.064 205.209 40.98 204.794 40.98 204.29C40.98 203.711 41.12 203.221 41.4 202.82C41.6893 202.409 42.0767 202.097 42.562 201.882C43.0473 201.667 43.5887 201.56 44.186 201.56C44.83 201.56 45.404 201.686 45.908 201.938C46.4213 202.19 46.8367 202.512 47.154 202.904L46.062 203.996C45.782 203.679 45.488 203.445 45.18 203.296C44.8813 203.137 44.536 203.058 44.144 203.058C43.6587 203.058 43.276 203.156 42.996 203.352C42.7253 203.548 42.59 203.823 42.59 204.178C42.59 204.477 42.674 204.719 42.842 204.906C43.01 205.083 43.2293 205.237 43.5 205.368C43.78 205.489 44.0833 205.606 44.41 205.718C44.746 205.83 45.0773 205.956 45.404 206.096C45.74 206.236 46.0433 206.418 46.314 206.642C46.594 206.857 46.818 207.137 46.986 207.482C47.154 207.827 47.238 208.261 47.238 208.784C47.238 209.661 46.9253 210.357 46.3 210.87C45.684 211.383 44.8487 211.64 43.794 211.64ZM49.6553 211.5V201.98H51.1953V211.5H49.6553ZM48.0453 206.18V204.78H52.8053V206.18H48.0453ZM56.5469 211.64C55.9402 211.64 55.3896 211.486 54.8949 211.178C54.4096 210.87 54.0222 210.455 53.7329 209.932C53.4529 209.4 53.3129 208.807 53.3129 208.154C53.3129 207.491 53.4529 206.899 53.7329 206.376C54.0222 205.844 54.4096 205.424 54.8949 205.116C55.3896 204.799 55.9402 204.64 56.5469 204.64C57.0602 204.64 57.5129 204.752 57.9049 204.976C58.3062 205.191 58.6236 205.489 58.8569 205.872C59.0902 206.255 59.2069 206.689 59.2069 207.174V209.106C59.2069 209.591 59.0902 210.025 58.8569 210.408C58.6329 210.791 58.3202 211.094 57.9189 211.318C57.5176 211.533 57.0602 211.64 56.5469 211.64ZM56.7989 210.184C57.3682 210.184 57.8256 209.993 58.1709 209.61C58.5256 209.227 58.7029 208.737 58.7029 208.14C58.7029 207.739 58.6236 207.384 58.4649 207.076C58.3062 206.768 58.0822 206.53 57.7929 206.362C57.5129 206.185 57.1816 206.096 56.7989 206.096C56.4256 206.096 56.0942 206.185 55.8049 206.362C55.5249 206.53 55.3009 206.768 55.1329 207.076C54.9742 207.384 54.8949 207.739 54.8949 208.14C54.8949 208.541 54.9742 208.896 55.1329 209.204C55.3009 209.512 55.5249 209.755 55.8049 209.932C56.0942 210.1 56.4256 210.184 56.7989 210.184ZM58.6049 211.5V209.694L58.8709 208.056L58.6049 206.432V204.78H60.1449V211.5H58.6049ZM62.876 211.5V201.98H64.416V211.5H62.876ZM61.266 206.18V204.78H66.026V206.18H61.266ZM69.903 211.64C69.3337 211.64 68.825 211.514 68.377 211.262C67.9383 211.01 67.593 210.665 67.341 210.226C67.0983 209.778 66.977 209.265 66.977 208.686V204.78H68.517V208.616C68.517 208.943 68.5683 209.223 68.671 209.456C68.783 209.68 68.9417 209.853 69.147 209.974C69.3617 210.095 69.6137 210.156 69.903 210.156C70.351 210.156 70.6917 210.025 70.925 209.764C71.1677 209.493 71.289 209.111 71.289 208.616V204.78H72.829V208.686C72.829 209.274 72.703 209.792 72.451 210.24C72.2083 210.679 71.8677 211.024 71.429 211.276C70.9903 211.519 70.4817 211.64 69.903 211.64ZM76.5754 211.64C76.2021 211.64 75.8428 211.593 75.4974 211.5C75.1521 211.397 74.8348 211.257 74.5454 211.08C74.2561 210.893 74.0041 210.669 73.7894 210.408L74.7694 209.428C75.0028 209.699 75.2688 209.904 75.5674 210.044C75.8754 210.175 76.2208 210.24 76.6034 210.24C76.9488 210.24 77.2101 210.189 77.3874 210.086C77.5648 209.983 77.6534 209.834 77.6534 209.638C77.6534 209.433 77.5694 209.274 77.4014 209.162C77.2334 209.05 77.0141 208.957 76.7434 208.882C76.4821 208.798 76.2021 208.714 75.9034 208.63C75.6141 208.546 75.3341 208.434 75.0634 208.294C74.8021 208.145 74.5874 207.944 74.4194 207.692C74.2514 207.44 74.1674 207.113 74.1674 206.712C74.1674 206.283 74.2654 205.914 74.4614 205.606C74.6668 205.298 74.9514 205.06 75.3154 204.892C75.6888 204.724 76.1321 204.64 76.6454 204.64C77.1868 204.64 77.6628 204.738 78.0734 204.934C78.4934 205.121 78.8434 205.405 79.1234 205.788L78.1434 206.768C77.9474 206.525 77.7234 206.343 77.4714 206.222C77.2194 206.101 76.9301 206.04 76.6034 206.04C76.2954 206.04 76.0574 206.087 75.8894 206.18C75.7214 206.273 75.6374 206.409 75.6374 206.586C75.6374 206.773 75.7214 206.917 75.8894 207.02C76.0574 207.123 76.2721 207.211 76.5334 207.286C76.8041 207.361 77.0841 207.445 77.3734 207.538C77.6721 207.622 77.9521 207.743 78.2134 207.902C78.4841 208.051 78.7034 208.257 78.8714 208.518C79.0394 208.77 79.1234 209.101 79.1234 209.512C79.1234 210.165 78.8948 210.683 78.4374 211.066C77.9801 211.449 77.3594 211.64 76.5754 211.64Z" fill="#2A2C35"/>
<path d="M141.75 200V202C141.75 202.199 141.671 202.39 141.53 202.53C141.39 202.671 141.199 202.75 141 202.75C140.801 202.75 140.61 202.671 140.47 202.53C140.329 202.39 140.25 202.199 140.25 202V200C140.25 199.801 140.329 199.61 140.47 199.47C140.61 199.329 140.801 199.25 141 199.25C141.199 199.25 141.39 199.329 141.53 199.47C141.671 199.61 141.75 199.801 141.75 200ZM147 205.25H145C144.801 205.25 144.61 205.329 144.47 205.47C144.329 205.61 144.25 205.801 144.25 206C144.25 206.199 144.329 206.39 144.47 206.53C144.61 206.671 144.801 206.75 145 206.75H147C147.199 206.75 147.39 206.671 147.53 206.53C147.671 206.39 147.75 206.199 147.75 206C147.75 205.801 147.671 205.61 147.53 205.47C147.39 205.329 147.199 205.25 147 205.25ZM144.359 208.298C144.289 208.228 144.206 208.173 144.115 208.135C144.024 208.098 143.926 208.078 143.828 208.078C143.729 208.078 143.631 208.098 143.54 208.135C143.449 208.173 143.366 208.228 143.296 208.298C143.226 208.368 143.171 208.451 143.133 208.542C143.096 208.633 143.076 208.731 143.076 208.829C143.076 208.928 143.096 209.026 143.133 209.117C143.171 209.208 143.226 209.291 143.296 209.361L144.711 210.775C144.852 210.916 145.043 210.995 145.242 210.995C145.441 210.995 145.632 210.916 145.773 210.775C145.914 210.634 145.993 210.443 145.993 210.244C145.993 210.044 145.914 209.853 145.773 209.712L144.359 208.298ZM141 209.25C140.801 209.25 140.61 209.329 140.47 209.47C140.329 209.61 140.25 209.801 140.25 210V212C140.25 212.199 140.329 212.39 140.47 212.53C140.61 212.671 140.801 212.75 141 212.75C141.199 212.75 141.39 212.671 141.53 212.53C141.671 212.39 141.75 212.199 141.75 212V210C141.75 209.801 141.671 209.61 141.53 209.47C141.39 209.329 141.199 209.25 141 209.25ZM137.641 208.298L136.227 209.712C136.086 209.853 136.007 210.044 136.007 210.244C136.007 210.443 136.086 210.634 136.227 210.775C136.368 210.916 136.559 210.995 136.758 210.995C136.957 210.995 137.148 210.916 137.289 210.775L138.704 209.361C138.845 209.22 138.924 209.029 138.924 208.829C138.924 208.63 138.845 208.439 138.704 208.298C138.563 208.157 138.372 208.078 138.173 208.078C137.973 208.078 137.782 208.157 137.641 208.298ZM137.75 206C137.75 205.801 137.671 205.61 137.53 205.47C137.39 205.329 137.199 205.25 137 205.25H135C134.801 205.25 134.61 205.329 134.47 205.47C134.329 205.61 134.25 205.801 134.25 206C134.25 206.199 134.329 206.39 134.47 206.53C134.61 206.671 134.801 206.75 135 206.75H137C137.199 206.75 137.39 206.671 137.53 206.53C137.671 206.39 137.75 206.199 137.75 206ZM137.287 201.227C137.147 201.086 136.956 201.007 136.756 201.007C136.557 201.007 136.366 201.086 136.225 201.227C136.084 201.368 136.005 201.559 136.005 201.758C136.005 201.957 136.084 202.148 136.225 202.289L137.641 203.702C137.782 203.843 137.973 203.922 138.173 203.922C138.372 203.922 138.563 203.843 138.704 203.702C138.845 203.561 138.924 203.37 138.924 203.171C138.924 202.971 138.845 202.78 138.704 202.639L137.287 201.227Z" fill="#DC6726"/>
<path d="M156.794 211.64C156.019 211.64 155.361 211.5 154.82 211.22C154.279 210.94 153.793 210.529 153.364 209.988L154.456 208.896C154.727 209.288 155.049 209.596 155.422 209.82C155.795 210.035 156.271 210.142 156.85 210.142C157.391 210.142 157.821 210.03 158.138 209.806C158.465 209.582 158.628 209.274 158.628 208.882C158.628 208.555 158.544 208.289 158.376 208.084C158.208 207.879 157.984 207.711 157.704 207.58C157.433 207.44 157.13 207.319 156.794 207.216C156.467 207.104 156.136 206.983 155.8 206.852C155.473 206.712 155.17 206.539 154.89 206.334C154.619 206.129 154.4 205.863 154.232 205.536C154.064 205.209 153.98 204.794 153.98 204.29C153.98 203.711 154.12 203.221 154.4 202.82C154.689 202.409 155.077 202.097 155.562 201.882C156.047 201.667 156.589 201.56 157.186 201.56C157.83 201.56 158.404 201.686 158.908 201.938C159.421 202.19 159.837 202.512 160.154 202.904L159.062 203.996C158.782 203.679 158.488 203.445 158.18 203.296C157.881 203.137 157.536 203.058 157.144 203.058C156.659 203.058 156.276 203.156 155.996 203.352C155.725 203.548 155.59 203.823 155.59 204.178C155.59 204.477 155.674 204.719 155.842 204.906C156.01 205.083 156.229 205.237 156.5 205.368C156.78 205.489 157.083 205.606 157.41 205.718C157.746 205.83 158.077 205.956 158.404 206.096C158.74 206.236 159.043 206.418 159.314 206.642C159.594 206.857 159.818 207.137 159.986 207.482C160.154 207.827 160.238 208.261 160.238 208.784C160.238 209.661 159.925 210.357 159.3 210.87C158.684 211.383 157.849 211.64 156.794 211.64ZM162.655 211.5V201.98H164.195V211.5H162.655ZM161.045 206.18V204.78H165.805V206.18H161.045ZM169.547 211.64C168.94 211.64 168.39 211.486 167.895 211.178C167.41 210.87 167.022 210.455 166.733 209.932C166.453 209.4 166.313 208.807 166.313 208.154C166.313 207.491 166.453 206.899 166.733 206.376C167.022 205.844 167.41 205.424 167.895 205.116C168.39 204.799 168.94 204.64 169.547 204.64C170.06 204.64 170.513 204.752 170.905 204.976C171.306 205.191 171.624 205.489 171.857 205.872C172.09 206.255 172.207 206.689 172.207 207.174V209.106C172.207 209.591 172.09 210.025 171.857 210.408C171.633 210.791 171.32 211.094 170.919 211.318C170.518 211.533 170.06 211.64 169.547 211.64ZM169.799 210.184C170.368 210.184 170.826 209.993 171.171 209.61C171.526 209.227 171.703 208.737 171.703 208.14C171.703 207.739 171.624 207.384 171.465 207.076C171.306 206.768 171.082 206.53 170.793 206.362C170.513 206.185 170.182 206.096 169.799 206.096C169.426 206.096 169.094 206.185 168.805 206.362C168.525 206.53 168.301 206.768 168.133 207.076C167.974 207.384 167.895 207.739 167.895 208.14C167.895 208.541 167.974 208.896 168.133 209.204C168.301 209.512 168.525 209.755 168.805 209.932C169.094 210.1 169.426 210.184 169.799 210.184ZM171.605 211.5V209.694L171.871 208.056L171.605 206.432V204.78H173.145V211.5H171.605ZM175.876 211.5V201.98H177.416V211.5H175.876ZM174.266 206.18V204.78H179.026V206.18H174.266ZM182.903 211.64C182.334 211.64 181.825 211.514 181.377 211.262C180.938 211.01 180.593 210.665 180.341 210.226C180.098 209.778 179.977 209.265 179.977 208.686V204.78H181.517V208.616C181.517 208.943 181.568 209.223 181.671 209.456C181.783 209.68 181.942 209.853 182.147 209.974C182.362 210.095 182.614 210.156 182.903 210.156C183.351 210.156 183.692 210.025 183.925 209.764C184.168 209.493 184.289 209.111 184.289 208.616V204.78H185.829V208.686C185.829 209.274 185.703 209.792 185.451 210.24C185.208 210.679 184.868 211.024 184.429 211.276C183.99 211.519 183.482 211.64 182.903 211.64ZM189.575 211.64C189.202 211.64 188.843 211.593 188.497 211.5C188.152 211.397 187.835 211.257 187.545 211.08C187.256 210.893 187.004 210.669 186.789 210.408L187.769 209.428C188.003 209.699 188.269 209.904 188.567 210.044C188.875 210.175 189.221 210.24 189.603 210.24C189.949 210.24 190.21 210.189 190.387 210.086C190.565 209.983 190.653 209.834 190.653 209.638C190.653 209.433 190.569 209.274 190.401 209.162C190.233 209.05 190.014 208.957 189.743 208.882C189.482 208.798 189.202 208.714 188.903 208.63C188.614 208.546 188.334 208.434 188.063 208.294C187.802 208.145 187.587 207.944 187.419 207.692C187.251 207.44 187.167 207.113 187.167 206.712C187.167 206.283 187.265 205.914 187.461 205.606C187.667 205.298 187.951 205.06 188.315 204.892C188.689 204.724 189.132 204.64 189.645 204.64C190.187 204.64 190.663 204.738 191.073 204.934C191.493 205.121 191.843 205.405 192.123 205.788L191.143 206.768C190.947 206.525 190.723 206.343 190.471 206.222C190.219 206.101 189.93 206.04 189.603 206.04C189.295 206.04 189.057 206.087 188.889 206.18C188.721 206.273 188.637 206.409 188.637 206.586C188.637 206.773 188.721 206.917 188.889 207.02C189.057 207.123 189.272 207.211 189.533 207.286C189.804 207.361 190.084 207.445 190.373 207.538C190.672 207.622 190.952 207.743 191.213 207.902C191.484 208.051 191.703 208.257 191.871 208.518C192.039 208.77 192.123 209.101 192.123 209.512C192.123 210.165 191.895 210.683 191.437 211.066C190.98 211.449 190.359 211.64 189.575 211.64Z" fill="#2A2C35"/>
<path d="M24 242C24 238.686 26.6863 236 30 236V236C33.3137 236 36 238.686 36 242V242C36 245.314 33.3137 248 30 248V248C26.6863 248 24 245.314 24 242V242Z" fill="#DE1395"/>
<path d="M43.794 247.64C43.0193 247.64 42.3613 247.5 41.82 247.22C41.2787 246.94 40.7933 246.529 40.364 245.988L41.456 244.896C41.7267 245.288 42.0487 245.596 42.422 245.82C42.7953 246.035 43.2713 246.142 43.85 246.142C44.3913 246.142 44.8207 246.03 45.138 245.806C45.4647 245.582 45.628 245.274 45.628 244.882C45.628 244.555 45.544 244.289 45.376 244.084C45.208 243.879 44.984 243.711 44.704 243.58C44.4333 243.44 44.13 243.319 43.794 243.216C43.4673 243.104 43.136 242.983 42.8 242.852C42.4733 242.712 42.17 242.539 41.89 242.334C41.6193 242.129 41.4 241.863 41.232 241.536C41.064 241.209 40.98 240.794 40.98 240.29C40.98 239.711 41.12 239.221 41.4 238.82C41.6893 238.409 42.0767 238.097 42.562 237.882C43.0473 237.667 43.5887 237.56 44.186 237.56C44.83 237.56 45.404 237.686 45.908 237.938C46.4213 238.19 46.8367 238.512 47.154 238.904L46.062 239.996C45.782 239.679 45.488 239.445 45.18 239.296C44.8813 239.137 44.536 239.058 44.144 239.058C43.6587 239.058 43.276 239.156 42.996 239.352C42.7253 239.548 42.59 239.823 42.59 240.178C42.59 240.477 42.674 240.719 42.842 240.906C43.01 241.083 43.2293 241.237 43.5 241.368C43.78 241.489 44.0833 241.606 44.41 241.718C44.746 241.83 45.0773 241.956 45.404 242.096C45.74 242.236 46.0433 242.418 46.314 242.642C46.594 242.857 46.818 243.137 46.986 243.482C47.154 243.827 47.238 244.261 47.238 244.784C47.238 245.661 46.9253 246.357 46.3 246.87C45.684 247.383 44.8487 247.64 43.794 247.64ZM49.6553 247.5V237.98H51.1953V247.5H49.6553ZM48.0453 242.18V240.78H52.8053V242.18H48.0453ZM56.5469 247.64C55.9402 247.64 55.3896 247.486 54.8949 247.178C54.4096 246.87 54.0222 246.455 53.7329 245.932C53.4529 245.4 53.3129 244.807 53.3129 244.154C53.3129 243.491 53.4529 242.899 53.7329 242.376C54.0222 241.844 54.4096 241.424 54.8949 241.116C55.3896 240.799 55.9402 240.64 56.5469 240.64C57.0602 240.64 57.5129 240.752 57.9049 240.976C58.3062 241.191 58.6236 241.489 58.8569 241.872C59.0902 242.255 59.2069 242.689 59.2069 243.174V245.106C59.2069 245.591 59.0902 246.025 58.8569 246.408C58.6329 246.791 58.3202 247.094 57.9189 247.318C57.5176 247.533 57.0602 247.64 56.5469 247.64ZM56.7989 246.184C57.3682 246.184 57.8256 245.993 58.1709 245.61C58.5256 245.227 58.7029 244.737 58.7029 244.14C58.7029 243.739 58.6236 243.384 58.4649 243.076C58.3062 242.768 58.0822 242.53 57.7929 242.362C57.5129 242.185 57.1816 242.096 56.7989 242.096C56.4256 242.096 56.0942 242.185 55.8049 242.362C55.5249 242.53 55.3009 242.768 55.1329 243.076C54.9742 243.384 54.8949 243.739 54.8949 244.14C54.8949 244.541 54.9742 244.896 55.1329 245.204C55.3009 245.512 55.5249 245.755 55.8049 245.932C56.0942 246.1 56.4256 246.184 56.7989 246.184ZM58.6049 247.5V245.694L58.8709 244.056L58.6049 242.432V240.78H60.1449V247.5H58.6049ZM62.876 247.5V237.98H64.416V247.5H62.876ZM61.266 242.18V240.78H66.026V242.18H61.266ZM69.903 247.64C69.3337 247.64 68.825 247.514 68.377 247.262C67.9383 247.01 67.593 246.665 67.341 246.226C67.0983 245.778 66.977 245.265 66.977 244.686V240.78H68.517V244.616C68.517 244.943 68.5683 245.223 68.671 245.456C68.783 245.68 68.9417 245.853 69.147 245.974C69.3617 246.095 69.6137 246.156 69.903 246.156C70.351 246.156 70.6917 246.025 70.925 245.764C71.1677 245.493 71.289 245.111 71.289 244.616V240.78H72.829V244.686C72.829 245.274 72.703 245.792 72.451 246.24C72.2083 246.679 71.8677 247.024 71.429 247.276C70.9903 247.519 70.4817 247.64 69.903 247.64ZM76.5754 247.64C76.2021 247.64 75.8428 247.593 75.4974 247.5C75.1521 247.397 74.8348 247.257 74.5454 247.08C74.2561 246.893 74.0041 246.669 73.7894 246.408L74.7694 245.428C75.0028 245.699 75.2688 245.904 75.5674 246.044C75.8754 246.175 76.2208 246.24 76.6034 246.24C76.9488 246.24 77.2101 246.189 77.3874 246.086C77.5648 245.983 77.6534 245.834 77.6534 245.638C77.6534 245.433 77.5694 245.274 77.4014 245.162C77.2334 245.05 77.0141 244.957 76.7434 244.882C76.4821 244.798 76.2021 244.714 75.9034 244.63C75.6141 244.546 75.3341 244.434 75.0634 244.294C74.8021 244.145 74.5874 243.944 74.4194 243.692C74.2514 243.44 74.1674 243.113 74.1674 242.712C74.1674 242.283 74.2654 241.914 74.4614 241.606C74.6668 241.298 74.9514 241.06 75.3154 240.892C75.6888 240.724 76.1321 240.64 76.6454 240.64C77.1868 240.64 77.6628 240.738 78.0734 240.934C78.4934 241.121 78.8434 241.405 79.1234 241.788L78.1434 242.768C77.9474 242.525 77.7234 242.343 77.4714 242.222C77.2194 242.101 76.9301 242.04 76.6034 242.04C76.2954 242.04 76.0574 242.087 75.8894 242.18C75.7214 242.273 75.6374 242.409 75.6374 242.586C75.6374 242.773 75.7214 242.917 75.8894 243.02C76.0574 243.123 76.2721 243.211 76.5334 243.286C76.8041 243.361 77.0841 243.445 77.3734 243.538C77.6721 243.622 77.9521 243.743 78.2134 243.902C78.4841 244.051 78.7034 244.257 78.8714 244.518C79.0394 244.77 79.1234 245.101 79.1234 245.512C79.1234 246.165 78.8948 246.683 78.4374 247.066C77.9801 247.449 77.3594 247.64 76.5754 247.64Z" fill="#2A2C35"/>
<path d="M147.115 237.383C146.389 236.659 145.407 236.252 144.382 236.251C143.357 236.249 142.373 236.654 141.645 237.375L141 237.974L140.355 237.375C139.627 236.649 138.641 236.242 137.613 236.243C136.585 236.245 135.6 236.654 134.874 237.382C134.148 238.11 133.741 239.096 133.743 240.124C133.744 241.151 134.154 242.137 134.881 242.862L140.466 248.528C140.535 248.599 140.619 248.655 140.71 248.694C140.802 248.732 140.9 248.752 141 248.752C141.099 248.752 141.198 248.732 141.29 248.694C141.381 248.655 141.465 248.599 141.534 248.528L147.115 242.866C147.475 242.506 147.761 242.079 147.955 241.609C148.15 241.139 148.25 240.635 148.25 240.126C148.25 239.617 148.15 239.113 147.955 238.642C147.761 238.172 147.475 237.745 147.115 237.385V237.383ZM146.052 241.807L141 246.931L135.946 241.803C135.502 241.357 135.253 240.754 135.253 240.125C135.254 239.496 135.504 238.893 135.949 238.448C136.394 238.003 136.997 237.753 137.626 237.752C138.255 237.752 138.859 238 139.304 238.444C139.311 238.451 139.317 238.457 139.324 238.462L140.489 239.547C140.628 239.677 140.81 239.749 141 239.749C141.19 239.749 141.372 239.677 141.511 239.547L142.676 238.462C142.683 238.457 142.689 238.451 142.696 238.444C142.916 238.224 143.178 238.049 143.467 237.93C143.755 237.811 144.064 237.75 144.376 237.751C144.688 237.751 144.997 237.813 145.285 237.933C145.573 238.052 145.834 238.228 146.055 238.448C146.275 238.669 146.45 238.931 146.569 239.22C146.688 239.508 146.749 239.817 146.748 240.129C146.748 240.441 146.686 240.75 146.566 241.038C146.447 241.326 146.271 241.587 146.051 241.807H146.052Z" fill="#DE1395"/>
<path d="M156.794 247.64C156.019 247.64 155.361 247.5 154.82 247.22C154.279 246.94 153.793 246.529 153.364 245.988L154.456 244.896C154.727 245.288 155.049 245.596 155.422 245.82C155.795 246.035 156.271 246.142 156.85 246.142C157.391 246.142 157.821 246.03 158.138 245.806C158.465 245.582 158.628 245.274 158.628 244.882C158.628 244.555 158.544 244.289 158.376 244.084C158.208 243.879 157.984 243.711 157.704 243.58C157.433 243.44 157.13 243.319 156.794 243.216C156.467 243.104 156.136 242.983 155.8 242.852C155.473 242.712 155.17 242.539 154.89 242.334C154.619 242.129 154.4 241.863 154.232 241.536C154.064 241.209 153.98 240.794 153.98 240.29C153.98 239.711 154.12 239.221 154.4 238.82C154.689 238.409 155.077 238.097 155.562 237.882C156.047 237.667 156.589 237.56 157.186 237.56C157.83 237.56 158.404 237.686 158.908 237.938C159.421 238.19 159.837 238.512 160.154 238.904L159.062 239.996C158.782 239.679 158.488 239.445 158.18 239.296C157.881 239.137 157.536 239.058 157.144 239.058C156.659 239.058 156.276 239.156 155.996 239.352C155.725 239.548 155.59 239.823 155.59 240.178C155.59 240.477 155.674 240.719 155.842 240.906C156.01 241.083 156.229 241.237 156.5 241.368C156.78 241.489 157.083 241.606 157.41 241.718C157.746 241.83 158.077 241.956 158.404 242.096C158.74 242.236 159.043 242.418 159.314 242.642C159.594 242.857 159.818 243.137 159.986 243.482C160.154 243.827 160.238 244.261 160.238 244.784C160.238 245.661 159.925 246.357 159.3 246.87C158.684 247.383 157.849 247.64 156.794 247.64ZM162.655 247.5V237.98H164.195V247.5H162.655ZM161.045 242.18V240.78H165.805V242.18H161.045ZM169.547 247.64C168.94 247.64 168.39 247.486 167.895 247.178C167.41 246.87 167.022 246.455 166.733 245.932C166.453 245.4 166.313 244.807 166.313 244.154C166.313 243.491 166.453 242.899 166.733 242.376C167.022 241.844 167.41 241.424 167.895 241.116C168.39 240.799 168.94 240.64 169.547 240.64C170.06 240.64 170.513 240.752 170.905 240.976C171.306 241.191 171.624 241.489 171.857 241.872C172.09 242.255 172.207 242.689 172.207 243.174V245.106C172.207 245.591 172.09 246.025 171.857 246.408C171.633 246.791 171.32 247.094 170.919 247.318C170.518 247.533 170.06 247.64 169.547 247.64ZM169.799 246.184C170.368 246.184 170.826 245.993 171.171 245.61C171.526 245.227 171.703 244.737 171.703 244.14C171.703 243.739 171.624 243.384 171.465 243.076C171.306 242.768 171.082 242.53 170.793 242.362C170.513 242.185 170.182 242.096 169.799 242.096C169.426 242.096 169.094 242.185 168.805 242.362C168.525 242.53 168.301 242.768 168.133 243.076C167.974 243.384 167.895 243.739 167.895 244.14C167.895 244.541 167.974 244.896 168.133 245.204C168.301 245.512 168.525 245.755 168.805 245.932C169.094 246.1 169.426 246.184 169.799 246.184ZM171.605 247.5V245.694L171.871 244.056L171.605 242.432V240.78H173.145V247.5H171.605ZM175.876 247.5V237.98H177.416V247.5H175.876ZM174.266 242.18V240.78H179.026V242.18H174.266ZM182.903 247.64C182.334 247.64 181.825 247.514 181.377 247.262C180.938 247.01 180.593 246.665 180.341 246.226C180.098 245.778 179.977 245.265 179.977 244.686V240.78H181.517V244.616C181.517 244.943 181.568 245.223 181.671 245.456C181.783 245.68 181.942 245.853 182.147 245.974C182.362 246.095 182.614 246.156 182.903 246.156C183.351 246.156 183.692 246.025 183.925 245.764C184.168 245.493 184.289 245.111 184.289 244.616V240.78H185.829V244.686C185.829 245.274 185.703 245.792 185.451 246.24C185.208 246.679 184.868 247.024 184.429 247.276C183.99 247.519 183.482 247.64 182.903 247.64ZM189.575 247.64C189.202 247.64 188.843 247.593 188.497 247.5C188.152 247.397 187.835 247.257 187.545 247.08C187.256 246.893 187.004 246.669 186.789 246.408L187.769 245.428C188.003 245.699 188.269 245.904 188.567 246.044C188.875 246.175 189.221 246.24 189.603 246.24C189.949 246.24 190.21 246.189 190.387 246.086C190.565 245.983 190.653 245.834 190.653 245.638C190.653 245.433 190.569 245.274 190.401 245.162C190.233 245.05 190.014 244.957 189.743 244.882C189.482 244.798 189.202 244.714 188.903 244.63C188.614 244.546 188.334 244.434 188.063 244.294C187.802 244.145 187.587 243.944 187.419 243.692C187.251 243.44 187.167 243.113 187.167 242.712C187.167 242.283 187.265 241.914 187.461 241.606C187.667 241.298 187.951 241.06 188.315 240.892C188.689 240.724 189.132 240.64 189.645 240.64C190.187 240.64 190.663 240.738 191.073 240.934C191.493 241.121 191.843 241.405 192.123 241.788L191.143 242.768C190.947 242.525 190.723 242.343 190.471 242.222C190.219 242.101 189.93 242.04 189.603 242.04C189.295 242.04 189.057 242.087 188.889 242.18C188.721 242.273 188.637 242.409 188.637 242.586C188.637 242.773 188.721 242.917 188.889 243.02C189.057 243.123 189.272 243.211 189.533 243.286C189.804 243.361 190.084 243.445 190.373 243.538C190.672 243.622 190.952 243.743 191.213 243.902C191.484 244.051 191.703 244.257 191.871 244.518C192.039 244.77 192.123 245.101 192.123 245.512C192.123 246.165 191.895 246.683 191.437 247.066C190.98 247.449 190.359 247.64 189.575 247.64Z" fill="#2A2C35"/>
</g>
<defs>
<filter id="filter0_d_14098_30383" x="-16" y="-16" width="249" height="316" filterUnits="userSpaceOnUse" color-interpolation-filters="sRGB">
<feFlood flood-opacity="0" result="BackgroundImageFix"/>
<feColorMatrix in="SourceAlpha" type="matrix" values="0 0 0 0 0 0 0 0 0 0 0 0 0 0 0 0 0 0 127 0" result="hardAlpha"/>
<feOffset dy="8"/>
<feGaussianBlur stdDeviation="12"/>
<feColorMatrix type="matrix" values="0 0 0 0 0 0 0 0 0 0 0 0 0 0 0 0 0 0 0.04 0"/>
<feBlend mode="normal" in2="BackgroundImageFix" result="effect1_dropShadow_14098_30383"/>
<feBlend mode="normal" in="SourceGraphic" in2="effect1_dropShadow_14098_30383" result="shape"/>
</filter>
</defs>
</svg>
