<svg width="720" height="180" viewBox="0 0 720 180" fill="none" xmlns="http://www.w3.org/2000/svg">
<path d="M373.031 116.969C373.101 117.039 373.156 117.122 373.194 117.213C373.232 117.304 373.251 117.402 373.251 117.501C373.251 117.599 373.232 117.697 373.194 117.788C373.156 117.879 373.101 117.962 373.031 118.032L369.531 121.532C369.461 121.602 369.378 121.657 369.287 121.695C369.196 121.733 369.098 121.752 368.999 121.752C368.901 121.752 368.803 121.733 368.712 121.695C368.621 121.657 368.538 121.602 368.468 121.532L366.968 120.032C366.898 119.962 366.843 119.879 366.805 119.788C366.768 119.697 366.748 119.599 366.748 119.501C366.748 119.402 366.768 119.304 366.805 119.213C366.843 119.122 366.898 119.039 366.968 118.969C367.038 118.9 367.121 118.844 367.212 118.807C367.303 118.769 367.401 118.749 367.499 118.749C367.598 118.749 367.696 118.769 367.787 118.807C367.878 118.844 367.961 118.9 368.031 118.969L369 119.938L371.969 116.968C372.039 116.898 372.122 116.843 372.213 116.805C372.304 116.768 372.402 116.748 372.5 116.748C372.599 116.749 372.697 116.768 372.787 116.806C372.878 116.844 372.961 116.9 373.031 116.969ZM376.75 119C376.75 120.335 376.354 121.64 375.612 122.75C374.871 123.86 373.817 124.725 372.583 125.236C371.35 125.747 369.993 125.881 368.683 125.62C367.374 125.36 366.171 124.717 365.227 123.773C364.283 122.829 363.64 121.626 363.38 120.317C363.119 119.007 363.253 117.65 363.764 116.417C364.275 115.183 365.14 114.129 366.25 113.388C367.36 112.646 368.665 112.25 370 112.25C371.79 112.252 373.505 112.964 374.771 114.229C376.036 115.495 376.748 117.21 376.75 119ZM375.25 119C375.25 117.962 374.942 116.947 374.365 116.083C373.788 115.22 372.968 114.547 372.009 114.15C371.05 113.752 369.994 113.648 368.976 113.851C367.957 114.053 367.022 114.553 366.288 115.288C365.553 116.022 365.053 116.957 364.851 117.976C364.648 118.994 364.752 120.05 365.15 121.009C365.547 121.968 366.22 122.788 367.083 123.365C367.947 123.942 368.962 124.25 370 124.25C371.392 124.249 372.726 123.695 373.711 122.711C374.695 121.726 375.249 120.392 375.25 119Z" fill="#00B49D"/>
<path d="M382.336 124.5L386.368 114.7H387.488L391.492 124.5H389.756L386.62 116.562H387.208L384.044 124.5H382.336ZM384.324 122.61V121.21H389.518V122.61H384.324ZM395.382 124.64C394.719 124.64 394.117 124.486 393.576 124.178C393.044 123.87 392.624 123.45 392.316 122.918C392.008 122.386 391.854 121.793 391.854 121.14C391.854 120.477 392.008 119.885 392.316 119.362C392.624 118.83 393.044 118.41 393.576 118.102C394.117 117.794 394.719 117.64 395.382 117.64C395.904 117.64 396.39 117.743 396.838 117.948C397.295 118.144 397.682 118.429 398 118.802L396.992 119.824C396.796 119.591 396.558 119.418 396.278 119.306C396.007 119.185 395.708 119.124 395.382 119.124C394.999 119.124 394.658 119.213 394.36 119.39C394.07 119.558 393.842 119.791 393.674 120.09C393.515 120.389 393.436 120.739 393.436 121.14C393.436 121.532 393.515 121.882 393.674 122.19C393.842 122.489 394.07 122.727 394.36 122.904C394.658 123.072 394.999 123.156 395.382 123.156C395.708 123.156 396.007 123.1 396.278 122.988C396.558 122.867 396.796 122.689 396.992 122.456L398 123.478C397.682 123.851 397.295 124.141 396.838 124.346C396.39 124.542 395.904 124.64 395.382 124.64ZM400.022 124.5V114.98H401.562V124.5H400.022ZM398.412 119.18V117.78H403.172V119.18H398.412ZM404.306 124.5V117.78H405.846V124.5H404.306ZM405.076 116.548C404.814 116.548 404.595 116.459 404.418 116.282C404.25 116.105 404.166 115.885 404.166 115.624C404.166 115.363 404.25 115.143 404.418 114.966C404.595 114.789 404.814 114.7 405.076 114.7C405.346 114.7 405.566 114.789 405.734 114.966C405.902 115.143 405.986 115.363 405.986 115.624C405.986 115.885 405.902 116.105 405.734 116.282C405.566 116.459 405.346 116.548 405.076 116.548ZM409.841 124.5L406.775 117.78H408.483L410.821 123.254H409.813L412.165 117.78H413.803L410.737 124.5H409.841ZM417.599 124.64C416.927 124.64 416.32 124.491 415.779 124.192C415.247 123.884 414.822 123.464 414.505 122.932C414.197 122.4 414.043 121.803 414.043 121.14C414.043 120.477 414.197 119.885 414.505 119.362C414.813 118.83 415.228 118.41 415.751 118.102C416.283 117.794 416.871 117.64 417.515 117.64C418.14 117.64 418.691 117.785 419.167 118.074C419.652 118.363 420.03 118.76 420.301 119.264C420.581 119.768 420.721 120.342 420.721 120.986C420.721 121.098 420.712 121.215 420.693 121.336C420.684 121.448 420.665 121.574 420.637 121.714H415.121V120.454H419.839L419.265 120.958C419.246 120.547 419.167 120.202 419.027 119.922C418.887 119.642 418.686 119.427 418.425 119.278C418.173 119.129 417.86 119.054 417.487 119.054C417.095 119.054 416.754 119.138 416.465 119.306C416.176 119.474 415.952 119.712 415.793 120.02C415.634 120.319 415.555 120.678 415.555 121.098C415.555 121.518 415.639 121.887 415.807 122.204C415.975 122.521 416.213 122.769 416.521 122.946C416.829 123.114 417.184 123.198 417.585 123.198C417.93 123.198 418.248 123.137 418.537 123.016C418.836 122.895 419.088 122.717 419.293 122.484L420.273 123.478C419.946 123.861 419.55 124.15 419.083 124.346C418.616 124.542 418.122 124.64 417.599 124.64Z" fill="#2A2C35"/>
<rect x="298.5" y="119" width="64" height="1" fill="#E1172F"/>
<g clip-path="url(#clip0_14098_30435)">
<rect x="298.5" y="108" width="24" height="24" rx="12" fill="#E1172F"/>
<path d="M312.33 114.818V125H310.177V116.862H310.118L307.786 118.323V116.414L310.307 114.818H312.33Z" fill="white"/>
</g>
<rect x="398" y="50" width="1" height="60" fill="#E1172F"/>
<g clip-path="url(#clip1_14098_30435)">
<rect x="387" y="50" width="24" height="24" rx="12" fill="#E1172F"/>
<path d="M395.416 67V65.4489L399.04 62.093C399.349 61.7947 399.607 61.5263 399.816 61.2876C400.028 61.049 400.189 60.8153 400.298 60.5866C400.408 60.3546 400.462 60.1044 400.462 59.8359C400.462 59.5376 400.394 59.2808 400.258 59.0653C400.123 58.8466 399.937 58.6792 399.702 58.5632C399.466 58.4439 399.199 58.3842 398.901 58.3842C398.59 58.3842 398.318 58.4472 398.086 58.5732C397.854 58.6991 397.675 58.8797 397.549 59.1151C397.423 59.3504 397.36 59.6304 397.36 59.9553H395.317C395.317 59.2891 395.467 58.7107 395.769 58.2202C396.071 57.7296 396.493 57.3501 397.037 57.0817C397.58 56.8132 398.207 56.679 398.916 56.679C399.645 56.679 400.28 56.8082 400.82 57.0668C401.364 57.322 401.786 57.6766 402.088 58.1307C402.39 58.5848 402.54 59.1051 402.54 59.6918C402.54 60.0762 402.464 60.4557 402.312 60.8303C402.163 61.2048 401.896 61.6207 401.511 62.0781C401.127 62.5322 400.585 63.0774 399.886 63.7138L398.399 65.1705V65.2401H402.675V67H395.416Z" fill="white"/>
</g>
<defs>
<clipPath id="clip0_14098_30435">
<rect x="298.5" y="108" width="24" height="24" rx="12" fill="white"/>
</clipPath>
<clipPath id="clip1_14098_30435">
<rect x="387" y="50" width="24" height="24" rx="12" fill="white"/>
</clipPath>
</defs>
</svg>
