<svg width="683" height="420" viewBox="0 0 683 420" fill="none" xmlns="http://www.w3.org/2000/svg">
<rect width="683" height="420" fill="#2A2C35"/>
<g filter="url(#filter0_d_14364_13208)">
<g clip-path="url(#clip0_14364_13208)">
<path d="M207.5 102.5C207.5 95.8726 212.873 90.5 219.5 90.5H463.5C470.127 90.5 475.5 95.8726 475.5 102.5V317.5C475.5 324.127 470.127 329.5 463.5 329.5H219.5C212.873 329.5 207.5 324.127 207.5 317.5V102.5Z" fill="#1C1D23"/>
<path d="M207 102C207 95.3726 212.373 90 219 90H467C473.627 90 479 95.3726 479 102V231H207V102Z" fill="#15161A"/>
<path d="M317.5 126.5C317.5 119.873 322.873 114.5 329.5 114.5H353.5C360.127 114.5 365.5 119.873 365.5 126.5V150.5C365.5 157.127 360.127 162.5 353.5 162.5H329.5C322.873 162.5 317.5 157.127 317.5 150.5V126.5Z" fill="#1C1D23"/>
<path fill-rule="evenodd" clip-rule="evenodd" d="M335.096 147.439C334.662 147.109 334.03 146.986 333.571 147.28C332.901 147.721 332.715 148.627 333.335 149.141C334.24 149.912 335.468 150.5 336.671 150.5C339.113 150.5 341.047 148.835 341.643 146.79C343.354 147.929 345.66 147.99 347.532 146.851L348.462 147.819C348.933 148.296 349.689 148.296 350.198 147.819C350.694 147.353 350.731 146.57 350.272 146.08L349.342 145.113C350.582 143.289 350.619 140.975 349.565 139.212C351.636 138.759 353.397 136.873 353.496 134.376C353.645 130.568 349.826 128.217 346.627 130.139L342.56 132.588C342.436 132.417 342.3 132.257 342.151 132.098C341.06 130.947 339.498 130.482 338.01 130.69C338.01 130.543 338.022 130.384 338.047 130.225C338.134 129.613 338.369 129.05 338.828 128.597C339.336 128.119 339.361 127.348 338.902 126.858C338.431 126.381 337.675 126.381 337.167 126.858C336.175 127.813 335.753 128.976 335.604 129.98C335.517 130.617 335.53 131.229 335.604 131.731C335.468 131.829 335.332 131.951 335.195 132.086C335.059 132.208 334.935 132.343 334.823 132.478C334.327 132.38 333.72 132.331 333.075 132.392C332.071 132.49 330.893 132.845 329.901 133.8C329.392 134.278 329.368 135.049 329.826 135.539C330.298 136.016 331.054 136.016 331.562 135.539C332.033 135.098 332.616 134.89 333.211 134.829C333.372 134.829 333.534 134.804 333.682 134.829C333.385 136.322 333.794 137.914 334.885 139.065C335.009 139.187 335.121 139.297 335.257 139.408L334.761 140.118C334.563 140.411 334.501 140.742 334.563 141.048L334.699 141.734C334.736 141.917 334.687 142.113 334.588 142.26C334.426 142.505 334.278 142.554 334.042 142.603L333.224 142.774C332.852 142.848 332.517 143.081 332.294 143.423C331.835 144.109 332.009 145.015 332.678 145.444C333.348 145.872 334.253 145.664 334.712 144.978C334.935 144.635 335.009 144.244 334.935 143.876L334.774 143.068C334.724 142.836 334.724 142.664 334.873 142.432C334.972 142.272 335.121 142.162 335.307 142.113L335.989 141.954C336.299 141.881 336.571 141.685 336.757 141.391L337.092 140.877L339.051 144.476C339.919 146.092 338.642 148.113 336.733 148.113C336.187 148.113 335.592 147.819 335.096 147.439ZM340.477 140.399L341.333 142.138C342.374 141.93 344.06 141.097 344.841 138.673L343.23 137.767L341.853 139.089L340.489 140.399H340.477ZM346.838 144.342C345.548 145.578 343.589 145.48 342.51 144.28C344.085 143.717 345.908 142.432 346.912 139.922C348.115 141.06 348.164 143.081 346.838 144.342ZM340.179 137.338C341.184 136.371 341.258 134.816 340.328 133.849C339.423 132.882 337.861 132.87 336.857 133.837C335.852 134.804 335.778 136.359 336.708 137.326C337.613 138.293 339.175 138.306 340.179 137.338ZM344.11 134.4L347.693 132.257C349.305 131.278 351.214 132.453 351.14 134.376C351.066 136.298 349.032 137.485 347.507 136.53L344.11 134.4Z" fill="#6061EE"/>
<path d="M322.98 188.5V186.9H326.196C326.761 186.9 327.199 186.724 327.508 186.372C327.817 186.02 327.972 185.615 327.972 185.156C327.972 184.847 327.903 184.559 327.764 184.292C327.625 184.025 327.423 183.812 327.156 183.652C326.889 183.492 326.569 183.412 326.196 183.412H322.98V181.812H325.924C326.404 181.812 326.788 181.689 327.076 181.444C327.364 181.199 327.508 180.836 327.508 180.356C327.508 179.876 327.364 179.513 327.076 179.268C326.788 179.023 326.404 178.9 325.924 178.9H322.98V177.3H325.972C326.729 177.3 327.359 177.439 327.86 177.716C328.361 177.993 328.735 178.351 328.98 178.788C329.225 179.225 329.348 179.695 329.348 180.196C329.348 180.783 329.183 181.3 328.852 181.748C328.532 182.196 328.057 182.559 327.428 182.836L327.572 182.26C328.276 182.548 328.825 182.953 329.22 183.476C329.615 183.999 329.812 184.612 329.812 185.316C329.812 185.892 329.668 186.42 329.38 186.9C329.103 187.38 328.687 187.769 328.132 188.068C327.588 188.356 326.916 188.5 326.116 188.5H322.98ZM321.716 188.5V177.3H323.556V188.5H321.716ZM331.669 188.5V177.3H333.509V188.5H331.669ZM332.933 188.5V186.82H339.205V188.5H332.933ZM332.933 183.588V181.972H338.661V183.588H332.933ZM332.933 178.98V177.3H339.125V178.98H332.933ZM341.107 188.5V177.3H342.947V188.5H341.107ZM342.371 188.5V186.82H348.643V188.5H342.371ZM342.371 183.588V181.972H348.099V183.588H342.371ZM342.371 178.98V177.3H348.563V178.98H342.371ZM355.493 188.66C354.693 188.66 353.947 188.511 353.253 188.212C352.56 187.913 351.952 187.503 351.429 186.98C350.907 186.447 350.496 185.833 350.197 185.14C349.909 184.436 349.765 183.684 349.765 182.884C349.765 182.084 349.909 181.337 350.197 180.644C350.496 179.951 350.901 179.343 351.413 178.82C351.936 178.287 352.539 177.876 353.221 177.588C353.915 177.289 354.661 177.14 355.461 177.14C356.261 177.14 357.003 177.289 357.685 177.588C358.379 177.876 358.987 178.287 359.509 178.82C360.032 179.343 360.437 179.956 360.725 180.66C361.024 181.353 361.173 182.1 361.173 182.9C361.173 183.7 361.024 184.452 360.725 185.156C360.437 185.849 360.032 186.457 359.509 186.98C358.997 187.503 358.395 187.913 357.701 188.212C357.019 188.511 356.283 188.66 355.493 188.66ZM360.613 189.268L355.573 184.228L356.757 183.044L361.797 188.084L360.613 189.268ZM355.461 186.9C356.219 186.9 356.88 186.729 357.445 186.388C358.021 186.047 358.469 185.577 358.789 184.98C359.12 184.372 359.285 183.673 359.285 182.884C359.285 182.297 359.189 181.764 358.997 181.284C358.816 180.793 358.555 180.372 358.213 180.02C357.872 179.657 357.467 179.38 356.997 179.188C356.539 178.996 356.027 178.9 355.461 178.9C354.715 178.9 354.053 179.071 353.477 179.412C352.912 179.743 352.464 180.207 352.133 180.804C351.813 181.401 351.653 182.095 351.653 182.884C351.653 183.471 351.744 184.015 351.925 184.516C352.117 185.007 352.379 185.428 352.709 185.78C353.051 186.132 353.456 186.409 353.925 186.612C354.395 186.804 354.907 186.9 355.461 186.9Z" fill="#F1F2F4"/>
<path d="M327.724 212.5V203.064H329.04V212.5H327.724ZM324.42 203.988V202.784H332.33V203.988H324.42ZM334.908 212.64C334.246 212.64 333.648 212.491 333.116 212.192C332.584 211.884 332.164 211.469 331.856 210.946C331.548 210.423 331.394 209.831 331.394 209.168C331.394 208.515 331.544 207.927 331.842 207.404C332.15 206.881 332.561 206.471 333.074 206.172C333.597 205.864 334.18 205.71 334.824 205.71C335.44 205.71 335.982 205.85 336.448 206.13C336.924 206.41 337.293 206.797 337.554 207.292C337.825 207.787 337.96 208.347 337.96 208.972C337.96 209.065 337.956 209.168 337.946 209.28C337.937 209.383 337.918 209.504 337.89 209.644H332.276V208.594H337.218L336.756 209C336.756 208.552 336.677 208.174 336.518 207.866C336.36 207.549 336.136 207.306 335.846 207.138C335.557 206.961 335.207 206.872 334.796 206.872C334.367 206.872 333.989 206.965 333.662 207.152C333.336 207.339 333.084 207.6 332.906 207.936C332.729 208.272 332.64 208.669 332.64 209.126C332.64 209.593 332.734 210.003 332.92 210.358C333.107 210.703 333.373 210.974 333.718 211.17C334.064 211.357 334.46 211.45 334.908 211.45C335.282 211.45 335.622 211.385 335.93 211.254C336.248 211.123 336.518 210.927 336.742 210.666L337.554 211.492C337.237 211.865 336.845 212.15 336.378 212.346C335.921 212.542 335.431 212.64 334.908 212.64ZM342.162 212.64C341.555 212.64 341.005 212.491 340.51 212.192C340.015 211.884 339.623 211.469 339.334 210.946C339.054 210.423 338.914 209.835 338.914 209.182C338.914 208.529 339.054 207.941 339.334 207.418C339.623 206.895 340.011 206.48 340.496 206.172C340.991 205.864 341.546 205.71 342.162 205.71C342.666 205.71 343.114 205.817 343.506 206.032C343.907 206.237 344.229 206.527 344.472 206.9C344.715 207.264 344.85 207.689 344.878 208.174V210.176C344.85 210.652 344.715 211.077 344.472 211.45C344.239 211.823 343.921 212.117 343.52 212.332C343.128 212.537 342.675 212.64 342.162 212.64ZM342.372 211.45C342.997 211.45 343.501 211.24 343.884 210.82C344.267 210.391 344.458 209.845 344.458 209.182C344.458 208.725 344.369 208.328 344.192 207.992C344.024 207.647 343.781 207.381 343.464 207.194C343.147 206.998 342.778 206.9 342.358 206.9C341.938 206.9 341.565 206.998 341.238 207.194C340.921 207.39 340.669 207.661 340.482 208.006C340.305 208.342 340.216 208.729 340.216 209.168C340.216 209.616 340.305 210.013 340.482 210.358C340.669 210.694 340.925 210.96 341.252 211.156C341.579 211.352 341.952 211.45 342.372 211.45ZM344.374 212.5V210.708L344.612 209.084L344.374 207.474V205.85H345.648V212.5H344.374ZM347.483 212.5V205.85H348.743V212.5H347.483ZM351.977 212.5V208.482C351.977 207.987 351.823 207.6 351.515 207.32C351.216 207.031 350.838 206.886 350.381 206.886C350.073 206.886 349.797 206.951 349.555 207.082C349.312 207.213 349.116 207.395 348.967 207.628C348.817 207.861 348.743 208.141 348.743 208.468L348.225 208.216C348.225 207.712 348.332 207.273 348.547 206.9C348.771 206.527 349.074 206.237 349.457 206.032C349.839 205.817 350.269 205.71 350.745 205.71C351.211 205.71 351.631 205.813 352.005 206.018C352.387 206.223 352.686 206.513 352.901 206.886C353.125 207.259 353.237 207.703 353.237 208.216V212.5H351.977ZM356.471 212.5V208.482C356.471 207.987 356.317 207.6 356.009 207.32C355.71 207.031 355.337 206.886 354.889 206.886C354.581 206.886 354.301 206.951 354.049 207.082C353.806 207.213 353.61 207.395 353.461 207.628C353.311 207.861 353.237 208.141 353.237 208.468L352.523 208.216C352.551 207.703 352.686 207.264 352.929 206.9C353.181 206.527 353.503 206.237 353.895 206.032C354.287 205.817 354.716 205.71 355.183 205.71C355.668 205.71 356.102 205.813 356.485 206.018C356.867 206.223 357.171 206.513 357.395 206.886C357.628 207.259 357.745 207.707 357.745 208.23V212.5H356.471Z" fill="#A6AAB3"/>
<path d="M232.484 262.5V254.172H233.612V262.5H232.484ZM233.252 262.5V261.468H237.716V262.5H233.252ZM241.271 262.62C240.711 262.62 240.207 262.488 239.759 262.224C239.311 261.96 238.955 261.604 238.691 261.156C238.427 260.7 238.295 260.192 238.295 259.632C238.295 259.08 238.427 258.584 238.691 258.144C238.955 257.696 239.311 257.34 239.759 257.076C240.207 256.812 240.711 256.68 241.271 256.68C241.823 256.68 242.323 256.812 242.771 257.076C243.227 257.332 243.587 257.684 243.851 258.132C244.115 258.58 244.247 259.08 244.247 259.632C244.247 260.192 244.115 260.7 243.851 261.156C243.587 261.604 243.227 261.96 242.771 262.224C242.323 262.488 241.823 262.62 241.271 262.62ZM241.271 261.576C241.631 261.576 241.951 261.492 242.231 261.324C242.511 261.156 242.731 260.928 242.891 260.64C243.051 260.344 243.131 260.008 243.131 259.632C243.131 259.264 243.047 258.936 242.879 258.648C242.719 258.36 242.499 258.136 242.219 257.976C241.947 257.808 241.631 257.724 241.271 257.724C240.911 257.724 240.591 257.808 240.311 257.976C240.031 258.136 239.811 258.36 239.651 258.648C239.491 258.936 239.411 259.264 239.411 259.632C239.411 260.008 239.491 260.344 239.651 260.64C239.811 260.928 240.031 261.156 240.311 261.324C240.591 261.492 240.911 261.576 241.271 261.576ZM248.068 262.62C247.508 262.62 247 262.488 246.544 262.224C246.096 261.96 245.74 261.604 245.476 261.156C245.22 260.7 245.092 260.196 245.092 259.644C245.092 259.084 245.22 258.58 245.476 258.132C245.74 257.684 246.096 257.332 246.544 257.076C247 256.812 247.508 256.68 248.068 256.68C248.508 256.68 248.916 256.764 249.292 256.932C249.668 257.092 249.992 257.328 250.264 257.64L249.544 258.36C249.368 258.152 249.152 257.996 248.896 257.892C248.648 257.78 248.372 257.724 248.068 257.724C247.708 257.724 247.388 257.808 247.108 257.976C246.828 258.136 246.608 258.36 246.448 258.648C246.288 258.936 246.208 259.268 246.208 259.644C246.208 260.02 246.288 260.352 246.448 260.64C246.608 260.928 246.828 261.156 247.108 261.324C247.388 261.492 247.708 261.576 248.068 261.576C248.372 261.576 248.648 261.524 248.896 261.42C249.152 261.308 249.372 261.148 249.556 260.94L250.264 261.66C250 261.964 249.676 262.2 249.292 262.368C248.916 262.536 248.508 262.62 248.068 262.62ZM253.642 262.62C253.122 262.62 252.65 262.492 252.226 262.236C251.802 261.972 251.466 261.616 251.218 261.168C250.978 260.72 250.858 260.216 250.858 259.656C250.858 259.096 250.978 258.592 251.218 258.144C251.466 257.696 251.798 257.34 252.214 257.076C252.638 256.812 253.114 256.68 253.642 256.68C254.074 256.68 254.458 256.772 254.794 256.956C255.138 257.132 255.414 257.38 255.622 257.7C255.83 258.012 255.946 258.376 255.97 258.792V260.508C255.946 260.916 255.83 261.28 255.622 261.6C255.422 261.92 255.15 262.172 254.806 262.356C254.47 262.532 254.082 262.62 253.642 262.62ZM253.822 261.6C254.358 261.6 254.79 261.42 255.118 261.06C255.446 260.692 255.61 260.224 255.61 259.656C255.61 259.264 255.534 258.924 255.382 258.636C255.238 258.34 255.03 258.112 254.758 257.952C254.486 257.784 254.17 257.7 253.81 257.7C253.45 257.7 253.13 257.784 252.85 257.952C252.578 258.12 252.362 258.352 252.202 258.648C252.05 258.936 251.974 259.268 251.974 259.644C251.974 260.028 252.05 260.368 252.202 260.664C252.362 260.952 252.582 261.18 252.862 261.348C253.142 261.516 253.462 261.6 253.822 261.6ZM255.538 262.5V260.964L255.742 259.572L255.538 258.192V256.8H256.63V262.5H255.538ZM259.055 262.5V254.412H260.135V262.5H259.055ZM257.651 257.784V256.8H261.539V257.784H257.651ZM262.609 262.5V256.8H263.689V262.5H262.609ZM263.149 255.66C262.949 255.66 262.785 255.596 262.657 255.468C262.529 255.332 262.465 255.164 262.465 254.964C262.465 254.772 262.529 254.612 262.657 254.484C262.785 254.348 262.949 254.28 263.149 254.28C263.349 254.28 263.513 254.348 263.641 254.484C263.769 254.612 263.833 254.772 263.833 254.964C263.833 255.164 263.769 255.332 263.641 255.468C263.513 255.596 263.349 255.66 263.149 255.66ZM267.884 262.62C267.324 262.62 266.82 262.488 266.372 262.224C265.924 261.96 265.568 261.604 265.304 261.156C265.04 260.7 264.908 260.192 264.908 259.632C264.908 259.08 265.04 258.584 265.304 258.144C265.568 257.696 265.924 257.34 266.372 257.076C266.82 256.812 267.324 256.68 267.884 256.68C268.436 256.68 268.936 256.812 269.384 257.076C269.84 257.332 270.2 257.684 270.464 258.132C270.728 258.58 270.86 259.08 270.86 259.632C270.86 260.192 270.728 260.7 270.464 261.156C270.2 261.604 269.84 261.96 269.384 262.224C268.936 262.488 268.436 262.62 267.884 262.62ZM267.884 261.576C268.244 261.576 268.564 261.492 268.844 261.324C269.124 261.156 269.344 260.928 269.504 260.64C269.664 260.344 269.744 260.008 269.744 259.632C269.744 259.264 269.66 258.936 269.492 258.648C269.332 258.36 269.112 258.136 268.832 257.976C268.56 257.808 268.244 257.724 267.884 257.724C267.524 257.724 267.204 257.808 266.924 257.976C266.644 258.136 266.424 258.36 266.264 258.648C266.104 258.936 266.024 259.264 266.024 259.632C266.024 260.008 266.104 260.344 266.264 260.64C266.424 260.928 266.644 261.156 266.924 261.324C267.204 261.492 267.524 261.576 267.884 261.576ZM276.109 262.5V259.176C276.109 258.744 275.973 258.388 275.701 258.108C275.429 257.828 275.077 257.688 274.645 257.688C274.357 257.688 274.101 257.752 273.877 257.88C273.653 258.008 273.477 258.184 273.349 258.408C273.221 258.632 273.157 258.888 273.157 259.176L272.713 258.924C272.713 258.492 272.809 258.108 273.001 257.772C273.193 257.436 273.461 257.172 273.805 256.98C274.149 256.78 274.537 256.68 274.969 256.68C275.401 256.68 275.781 256.788 276.109 257.004C276.445 257.22 276.709 257.504 276.901 257.856C277.093 258.2 277.189 258.568 277.189 258.96V262.5H276.109ZM272.077 262.5V256.8H273.157V262.5H272.077Z" fill="#A6AAB3"/>
<path d="M235.652 282.62C235.02 282.62 234.452 282.476 233.948 282.188C233.444 281.9 233.044 281.508 232.748 281.012C232.46 280.508 232.316 279.94 232.316 279.308V274.1H233.696V279.296C233.696 279.704 233.78 280.06 233.948 280.364C234.124 280.66 234.36 280.892 234.656 281.06C234.952 281.22 235.284 281.3 235.652 281.3C236.028 281.3 236.36 281.22 236.648 281.06C236.936 280.892 237.164 280.66 237.332 280.364C237.5 280.06 237.584 279.708 237.584 279.308V274.1H238.964V279.32C238.964 279.952 238.82 280.516 238.532 281.012C238.244 281.508 237.852 281.9 237.356 282.188C236.86 282.476 236.292 282.62 235.652 282.62ZM245.773 282.5L241.885 278.12L245.689 274.1H247.453L243.253 278.468V277.712L247.573 282.5H245.773ZM240.697 282.5V274.1H242.077V282.5H240.697ZM248.58 283.904L249.396 282.38L249.84 282.26C249.792 282.356 249.736 282.436 249.672 282.5C249.608 282.564 249.532 282.596 249.444 282.596C249.26 282.596 249.088 282.52 248.928 282.368C248.776 282.208 248.7 282.008 248.7 281.768C248.7 281.512 248.784 281.296 248.952 281.12C249.128 280.936 249.344 280.844 249.6 280.844C249.84 280.844 250.048 280.936 250.224 281.12C250.408 281.296 250.5 281.512 250.5 281.768C250.5 281.872 250.476 281.996 250.428 282.14C250.388 282.276 250.312 282.452 250.2 282.668L249.312 284.3L248.58 283.904ZM252.076 282.5V274.1H253.456V282.5H252.076ZM253.024 282.5V281.24H257.416V282.5H253.024ZM260.935 282.62C260.375 282.62 259.867 282.488 259.411 282.224C258.955 281.952 258.591 281.588 258.319 281.132C258.055 280.676 257.923 280.168 257.923 279.608C257.923 279.048 258.055 278.544 258.319 278.096C258.591 277.648 258.955 277.292 259.411 277.028C259.867 276.756 260.375 276.62 260.935 276.62C261.503 276.62 262.015 276.752 262.471 277.016C262.927 277.28 263.287 277.64 263.551 278.096C263.823 278.544 263.959 279.048 263.959 279.608C263.959 280.168 263.823 280.676 263.551 281.132C263.287 281.588 262.927 281.952 262.471 282.224C262.015 282.488 261.503 282.62 260.935 282.62ZM260.935 281.348C261.263 281.348 261.551 281.276 261.799 281.132C262.055 280.98 262.251 280.772 262.387 280.508C262.531 280.244 262.603 279.944 262.603 279.608C262.603 279.272 262.531 278.976 262.387 278.72C262.243 278.464 262.047 278.264 261.799 278.12C261.551 277.968 261.263 277.892 260.935 277.892C260.615 277.892 260.327 277.968 260.071 278.12C259.823 278.264 259.627 278.464 259.483 278.72C259.347 278.976 259.279 279.272 259.279 279.608C259.279 279.944 259.347 280.244 259.483 280.508C259.627 280.772 259.823 280.98 260.071 281.132C260.327 281.276 260.615 281.348 260.935 281.348ZM269.004 282.5V279.176C269.004 278.792 268.88 278.476 268.632 278.228C268.392 277.98 268.08 277.856 267.696 277.856C267.44 277.856 267.212 277.912 267.012 278.024C266.812 278.136 266.656 278.292 266.544 278.492C266.432 278.692 266.376 278.92 266.376 279.176L265.86 278.888C265.86 278.448 265.956 278.06 266.148 277.724C266.34 277.38 266.604 277.112 266.94 276.92C267.284 276.72 267.668 276.62 268.092 276.62C268.524 276.62 268.908 276.732 269.244 276.956C269.58 277.172 269.844 277.456 270.036 277.808C270.228 278.152 270.324 278.512 270.324 278.888V282.5H269.004ZM265.056 282.5V276.74H266.376V282.5H265.056ZM274.078 282.62C273.558 282.62 273.086 282.488 272.662 282.224C272.246 281.96 271.914 281.604 271.666 281.156C271.426 280.7 271.306 280.192 271.306 279.632C271.306 279.064 271.426 278.556 271.666 278.108C271.914 277.652 272.246 277.292 272.662 277.028C273.086 276.756 273.558 276.62 274.078 276.62C274.518 276.62 274.906 276.716 275.242 276.908C275.586 277.092 275.858 277.348 276.058 277.676C276.258 278.004 276.358 278.376 276.358 278.792V280.448C276.358 280.864 276.258 281.236 276.058 281.564C275.866 281.892 275.598 282.152 275.254 282.344C274.91 282.528 274.518 282.62 274.078 282.62ZM274.294 281.372C274.622 281.372 274.906 281.3 275.146 281.156C275.394 281.004 275.586 280.796 275.722 280.532C275.858 280.268 275.926 279.964 275.926 279.62C275.926 279.276 275.858 278.972 275.722 278.708C275.586 278.444 275.394 278.24 275.146 278.096C274.906 277.944 274.622 277.868 274.294 277.868C273.974 277.868 273.69 277.944 273.442 278.096C273.202 278.24 273.01 278.444 272.866 278.708C272.73 278.972 272.662 279.276 272.662 279.62C272.662 279.964 272.73 280.268 272.866 280.532C273.01 280.796 273.202 281.004 273.442 281.156C273.69 281.3 273.974 281.372 274.294 281.372ZM277.162 282.5H275.842V280.952L276.07 279.548L275.842 278.156V273.86H277.162V282.5ZM281.267 282.62C280.707 282.62 280.199 282.488 279.743 282.224C279.287 281.952 278.923 281.588 278.651 281.132C278.387 280.676 278.255 280.168 278.255 279.608C278.255 279.048 278.387 278.544 278.651 278.096C278.923 277.648 279.287 277.292 279.743 277.028C280.199 276.756 280.707 276.62 281.267 276.62C281.835 276.62 282.347 276.752 282.803 277.016C283.259 277.28 283.619 277.64 283.883 278.096C284.155 278.544 284.291 279.048 284.291 279.608C284.291 280.168 284.155 280.676 283.883 281.132C283.619 281.588 283.259 281.952 282.803 282.224C282.347 282.488 281.835 282.62 281.267 282.62ZM281.267 281.348C281.595 281.348 281.883 281.276 282.131 281.132C282.387 280.98 282.583 280.772 282.719 280.508C282.863 280.244 282.935 279.944 282.935 279.608C282.935 279.272 282.863 278.976 282.719 278.72C282.575 278.464 282.379 278.264 282.131 278.12C281.883 277.968 281.595 277.892 281.267 277.892C280.947 277.892 280.659 277.968 280.403 278.12C280.155 278.264 279.959 278.464 279.815 278.72C279.679 278.976 279.611 279.272 279.611 279.608C279.611 279.944 279.679 280.244 279.815 280.508C279.959 280.772 280.155 280.98 280.403 281.132C280.659 281.276 280.947 281.348 281.267 281.348ZM289.336 282.5V279.176C289.336 278.792 289.212 278.476 288.964 278.228C288.724 277.98 288.412 277.856 288.028 277.856C287.772 277.856 287.544 277.912 287.344 278.024C287.144 278.136 286.988 278.292 286.876 278.492C286.764 278.692 286.708 278.92 286.708 279.176L286.192 278.888C286.192 278.448 286.288 278.06 286.48 277.724C286.672 277.38 286.936 277.112 287.272 276.92C287.616 276.72 288 276.62 288.424 276.62C288.856 276.62 289.24 276.732 289.576 276.956C289.912 277.172 290.176 277.456 290.368 277.808C290.56 278.152 290.656 278.512 290.656 278.888V282.5H289.336ZM285.388 282.5V276.74H286.708V282.5H285.388Z" fill="#F1F2F4"/>
<path d="M321.228 262.5V261.468H323.544C324.16 261.468 324.7 261.336 325.164 261.072C325.628 260.8 325.988 260.428 326.244 259.956C326.508 259.484 326.64 258.94 326.64 258.324C326.64 257.716 326.508 257.176 326.244 256.704C325.98 256.232 325.616 255.864 325.152 255.6C324.688 255.336 324.152 255.204 323.544 255.204H321.24V254.172H323.568C324.176 254.172 324.736 254.276 325.248 254.484C325.768 254.692 326.216 254.984 326.592 255.36C326.976 255.736 327.272 256.176 327.48 256.68C327.696 257.184 327.804 257.736 327.804 258.336C327.804 258.928 327.696 259.48 327.48 259.992C327.272 260.496 326.98 260.936 326.604 261.312C326.228 261.688 325.78 261.98 325.26 262.188C324.748 262.396 324.192 262.5 323.592 262.5H321.228ZM320.484 262.5V254.172H321.612V262.5H320.484ZM331.815 262.62C331.247 262.62 330.735 262.492 330.279 262.236C329.823 261.972 329.463 261.616 329.199 261.168C328.935 260.72 328.803 260.212 328.803 259.644C328.803 259.084 328.931 258.58 329.187 258.132C329.451 257.684 329.803 257.332 330.243 257.076C330.691 256.812 331.191 256.68 331.743 256.68C332.271 256.68 332.735 256.8 333.135 257.04C333.543 257.28 333.859 257.612 334.083 258.036C334.315 258.46 334.431 258.94 334.431 259.476C334.431 259.556 334.427 259.644 334.419 259.74C334.411 259.828 334.395 259.932 334.371 260.052H329.559V259.152H333.795L333.399 259.5C333.399 259.116 333.331 258.792 333.195 258.528C333.059 258.256 332.867 258.048 332.619 257.904C332.371 257.752 332.071 257.676 331.719 257.676C331.351 257.676 331.027 257.756 330.747 257.916C330.467 258.076 330.251 258.3 330.099 258.588C329.947 258.876 329.871 259.216 329.871 259.608C329.871 260.008 329.951 260.36 330.111 260.664C330.271 260.96 330.499 261.192 330.795 261.36C331.091 261.52 331.431 261.6 331.815 261.6C332.135 261.6 332.427 261.544 332.691 261.432C332.963 261.32 333.195 261.152 333.387 260.928L334.083 261.636C333.811 261.956 333.475 262.2 333.075 262.368C332.683 262.536 332.263 262.62 331.815 262.62ZM338.608 262.62C338.176 262.62 337.784 262.532 337.432 262.356C337.088 262.172 336.812 261.92 336.604 261.6C336.396 261.28 336.28 260.916 336.256 260.508V258.792C336.28 258.376 336.396 258.012 336.604 257.7C336.82 257.38 337.1 257.132 337.444 256.956C337.796 256.772 338.184 256.68 338.608 256.68C339.128 256.68 339.596 256.812 340.012 257.076C340.436 257.34 340.768 257.696 341.008 258.144C341.248 258.592 341.368 259.096 341.368 259.656C341.368 260.216 341.248 260.72 341.008 261.168C340.768 261.616 340.436 261.972 340.012 262.236C339.596 262.492 339.128 262.62 338.608 262.62ZM335.608 264.888V256.8H336.688V258.3L336.484 259.68L336.688 261.072V264.888H335.608ZM338.428 261.6C338.788 261.6 339.104 261.516 339.376 261.348C339.648 261.18 339.864 260.952 340.024 260.664C340.184 260.368 340.264 260.028 340.264 259.644C340.264 259.268 340.184 258.932 340.024 258.636C339.864 258.34 339.648 258.112 339.376 257.952C339.104 257.784 338.792 257.7 338.44 257.7C338.08 257.7 337.764 257.784 337.492 257.952C337.22 258.112 337.008 258.34 336.856 258.636C336.704 258.932 336.628 259.272 336.628 259.656C336.628 260.032 336.7 260.368 336.844 260.664C336.996 260.952 337.208 261.18 337.48 261.348C337.76 261.516 338.076 261.6 338.428 261.6ZM345.017 262.62C344.497 262.62 344.025 262.492 343.601 262.236C343.177 261.972 342.841 261.616 342.593 261.168C342.353 260.72 342.233 260.216 342.233 259.656C342.233 259.096 342.353 258.592 342.593 258.144C342.841 257.696 343.173 257.34 343.589 257.076C344.013 256.812 344.489 256.68 345.017 256.68C345.449 256.68 345.833 256.772 346.169 256.956C346.513 257.132 346.789 257.38 346.997 257.7C347.205 258.012 347.321 258.376 347.345 258.792V260.508C347.321 260.916 347.205 261.28 346.997 261.6C346.797 261.92 346.525 262.172 346.181 262.356C345.845 262.532 345.457 262.62 345.017 262.62ZM345.197 261.6C345.733 261.6 346.165 261.42 346.493 261.06C346.821 260.692 346.985 260.224 346.985 259.656C346.985 259.264 346.909 258.924 346.757 258.636C346.613 258.34 346.405 258.112 346.133 257.952C345.861 257.784 345.545 257.7 345.185 257.7C344.825 257.7 344.505 257.784 344.225 257.952C343.953 258.12 343.737 258.352 343.577 258.648C343.425 258.936 343.349 259.268 343.349 259.644C343.349 260.028 343.425 260.368 343.577 260.664C343.737 260.952 343.957 261.18 344.237 261.348C344.517 261.516 344.837 261.6 345.197 261.6ZM346.913 262.5V260.964L347.117 259.572L346.913 258.192V256.8H348.005V262.5H346.913ZM349.577 262.5V256.8H350.657V262.5H349.577ZM350.657 259.248L350.249 259.068C350.249 258.34 350.417 257.76 350.753 257.328C351.089 256.896 351.573 256.68 352.205 256.68C352.493 256.68 352.753 256.732 352.985 256.836C353.217 256.932 353.433 257.096 353.633 257.328L352.925 258.06C352.805 257.932 352.673 257.84 352.529 257.784C352.385 257.728 352.217 257.7 352.025 257.7C351.625 257.7 351.297 257.828 351.041 258.084C350.785 258.34 350.657 258.728 350.657 259.248ZM355.246 262.5V254.412H356.326V262.5H355.246ZM353.842 257.784V256.8H357.73V257.784H353.842ZM358.788 262.5V256.8H359.868V262.5H358.788ZM362.64 262.5V259.056C362.64 258.632 362.508 258.3 362.244 258.06C361.988 257.812 361.664 257.688 361.272 257.688C361.008 257.688 360.772 257.744 360.564 257.856C360.356 257.968 360.188 258.124 360.06 258.324C359.932 258.524 359.868 258.764 359.868 259.044L359.424 258.828C359.424 258.396 359.516 258.02 359.7 257.7C359.892 257.38 360.152 257.132 360.48 256.956C360.808 256.772 361.176 256.68 361.584 256.68C361.984 256.68 362.344 256.768 362.664 256.944C362.992 257.12 363.248 257.368 363.432 257.688C363.624 258.008 363.72 258.388 363.72 258.828V262.5H362.64ZM366.492 262.5V259.056C366.492 258.632 366.36 258.3 366.096 258.06C365.84 257.812 365.52 257.688 365.136 257.688C364.872 257.688 364.632 257.744 364.416 257.856C364.208 257.968 364.04 258.124 363.912 258.324C363.784 258.524 363.72 258.764 363.72 259.044L363.108 258.828C363.132 258.388 363.248 258.012 363.456 257.7C363.672 257.38 363.948 257.132 364.284 256.956C364.62 256.772 364.988 256.68 365.388 256.68C365.804 256.68 366.176 256.768 366.504 256.944C366.832 257.12 367.092 257.368 367.284 257.688C367.484 258.008 367.584 258.392 367.584 258.84V262.5H366.492ZM371.694 262.62C371.126 262.62 370.614 262.492 370.158 262.236C369.702 261.972 369.342 261.616 369.078 261.168C368.814 260.72 368.682 260.212 368.682 259.644C368.682 259.084 368.81 258.58 369.066 258.132C369.33 257.684 369.682 257.332 370.122 257.076C370.57 256.812 371.07 256.68 371.622 256.68C372.15 256.68 372.614 256.8 373.014 257.04C373.422 257.28 373.738 257.612 373.962 258.036C374.194 258.46 374.31 258.94 374.31 259.476C374.31 259.556 374.306 259.644 374.298 259.74C374.29 259.828 374.274 259.932 374.25 260.052H369.438V259.152H373.674L373.278 259.5C373.278 259.116 373.21 258.792 373.074 258.528C372.938 258.256 372.746 258.048 372.498 257.904C372.25 257.752 371.95 257.676 371.598 257.676C371.23 257.676 370.906 257.756 370.626 257.916C370.346 258.076 370.13 258.3 369.978 258.588C369.826 258.876 369.75 259.216 369.75 259.608C369.75 260.008 369.83 260.36 369.99 260.664C370.15 260.96 370.378 261.192 370.674 261.36C370.97 261.52 371.31 261.6 371.694 261.6C372.014 261.6 372.306 261.544 372.57 261.432C372.842 261.32 373.074 261.152 373.266 260.928L373.962 261.636C373.69 261.956 373.354 262.2 372.954 262.368C372.562 262.536 372.142 262.62 371.694 262.62ZM379.519 262.5V259.176C379.519 258.744 379.383 258.388 379.111 258.108C378.839 257.828 378.487 257.688 378.055 257.688C377.767 257.688 377.511 257.752 377.287 257.88C377.063 258.008 376.887 258.184 376.759 258.408C376.631 258.632 376.567 258.888 376.567 259.176L376.123 258.924C376.123 258.492 376.219 258.108 376.411 257.772C376.603 257.436 376.871 257.172 377.215 256.98C377.559 256.78 377.947 256.68 378.379 256.68C378.811 256.68 379.191 256.788 379.519 257.004C379.855 257.22 380.119 257.504 380.311 257.856C380.503 258.2 380.599 258.568 380.599 258.96V262.5H379.519ZM375.487 262.5V256.8H376.567V262.5H375.487ZM382.867 262.5V254.412H383.947V262.5H382.867ZM381.463 257.784V256.8H385.351V257.784H381.463Z" fill="#A6AAB3"/>
<path d="M321.36 282.5V281.24H323.568C324.144 281.24 324.648 281.116 325.08 280.868C325.52 280.62 325.86 280.276 326.1 279.836C326.348 279.388 326.472 278.872 326.472 278.288C326.472 277.712 326.348 277.204 326.1 276.764C325.852 276.324 325.508 275.98 325.068 275.732C324.636 275.484 324.136 275.36 323.568 275.36H321.36V274.1H323.604C324.212 274.1 324.776 274.208 325.296 274.424C325.816 274.632 326.268 274.928 326.652 275.312C327.044 275.688 327.348 276.132 327.564 276.644C327.78 277.148 327.888 277.7 327.888 278.3C327.888 278.892 327.78 279.444 327.564 279.956C327.348 280.468 327.048 280.916 326.664 281.3C326.28 281.676 325.828 281.972 325.308 282.188C324.788 282.396 324.228 282.5 323.628 282.5H321.36ZM320.412 282.5V274.1H321.792V282.5H320.412ZM331.791 282.62C331.215 282.62 330.695 282.492 330.231 282.236C329.775 281.972 329.411 281.612 329.139 281.156C328.875 280.7 328.743 280.188 328.743 279.62C328.743 279.052 328.875 278.544 329.139 278.096C329.403 277.64 329.759 277.28 330.207 277.016C330.663 276.752 331.167 276.62 331.719 276.62C332.255 276.62 332.727 276.744 333.135 276.992C333.551 277.24 333.875 277.58 334.107 278.012C334.347 278.444 334.467 278.936 334.467 279.488C334.467 279.584 334.459 279.684 334.443 279.788C334.435 279.884 334.419 279.992 334.395 280.112H329.667V279.032H333.711L333.219 279.464C333.203 279.112 333.135 278.816 333.015 278.576C332.895 278.336 332.723 278.152 332.499 278.024C332.283 277.896 332.015 277.832 331.695 277.832C331.359 277.832 331.067 277.904 330.819 278.048C330.571 278.192 330.379 278.396 330.243 278.66C330.107 278.916 330.039 279.224 330.039 279.584C330.039 279.944 330.111 280.26 330.255 280.532C330.399 280.804 330.603 281.016 330.867 281.168C331.131 281.312 331.435 281.384 331.779 281.384C332.075 281.384 332.347 281.332 332.595 281.228C332.851 281.124 333.067 280.972 333.243 280.772L334.083 281.624C333.803 281.952 333.463 282.2 333.063 282.368C332.663 282.536 332.239 282.62 331.791 282.62ZM337.409 282.62C337.089 282.62 336.781 282.58 336.485 282.5C336.189 282.412 335.917 282.292 335.669 282.14C335.421 281.98 335.205 281.788 335.021 281.564L335.861 280.724C336.061 280.956 336.289 281.132 336.545 281.252C336.809 281.364 337.105 281.42 337.433 281.42C337.729 281.42 337.953 281.376 338.105 281.288C338.257 281.2 338.333 281.072 338.333 280.904C338.333 280.728 338.261 280.592 338.117 280.496C337.973 280.4 337.785 280.32 337.553 280.256C337.329 280.184 337.089 280.112 336.833 280.04C336.585 279.968 336.345 279.872 336.113 279.752C335.889 279.624 335.705 279.452 335.561 279.236C335.417 279.02 335.345 278.74 335.345 278.396C335.345 278.028 335.429 277.712 335.597 277.448C335.773 277.184 336.017 276.98 336.329 276.836C336.649 276.692 337.029 276.62 337.469 276.62C337.933 276.62 338.341 276.704 338.693 276.872C339.053 277.032 339.353 277.276 339.593 277.604L338.753 278.444C338.585 278.236 338.393 278.08 338.177 277.976C337.961 277.872 337.713 277.82 337.433 277.82C337.169 277.82 336.965 277.86 336.821 277.94C336.677 278.02 336.605 278.136 336.605 278.288C336.605 278.448 336.677 278.572 336.821 278.66C336.965 278.748 337.149 278.824 337.373 278.888C337.605 278.952 337.845 279.024 338.093 279.104C338.349 279.176 338.589 279.28 338.813 279.416C339.045 279.544 339.233 279.72 339.377 279.944C339.521 280.16 339.593 280.444 339.593 280.796C339.593 281.356 339.397 281.8 339.005 282.128C338.613 282.456 338.081 282.62 337.409 282.62ZM340.693 282.5V276.74H342.013V282.5H340.693ZM341.353 275.684C341.129 275.684 340.941 275.608 340.789 275.456C340.645 275.304 340.573 275.116 340.573 274.892C340.573 274.668 340.645 274.48 340.789 274.328C340.941 274.176 341.129 274.1 341.353 274.1C341.585 274.1 341.773 274.176 341.917 274.328C342.061 274.48 342.133 274.668 342.133 274.892C342.133 275.116 342.061 275.304 341.917 275.456C341.773 275.608 341.585 275.684 341.353 275.684ZM345.894 285.02C345.286 285.02 344.754 284.908 344.298 284.684C343.842 284.468 343.474 284.16 343.194 283.76L344.058 282.896C344.29 283.184 344.554 283.4 344.85 283.544C345.146 283.688 345.502 283.76 345.918 283.76C346.438 283.76 346.85 283.624 347.154 283.352C347.458 283.088 347.61 282.724 347.61 282.26V280.844L347.838 279.572L347.61 278.288V276.74H348.93V282.26C348.93 282.812 348.802 283.292 348.546 283.7C348.29 284.116 347.934 284.44 347.478 284.672C347.022 284.904 346.494 285.02 345.894 285.02ZM345.834 282.38C345.322 282.38 344.858 282.256 344.442 282.008C344.034 281.752 343.71 281.404 343.47 280.964C343.238 280.524 343.122 280.032 343.122 279.488C343.122 278.944 343.238 278.456 343.47 278.024C343.71 277.592 344.034 277.252 344.442 277.004C344.858 276.748 345.322 276.62 345.834 276.62C346.29 276.62 346.69 276.712 347.034 276.896C347.378 277.08 347.646 277.336 347.838 277.664C348.03 277.984 348.126 278.36 348.126 278.792V280.208C348.126 280.632 348.026 281.008 347.826 281.336C347.634 281.664 347.366 281.92 347.022 282.104C346.678 282.288 346.282 282.38 345.834 282.38ZM346.098 281.132C346.418 281.132 346.698 281.064 346.938 280.928C347.178 280.792 347.362 280.604 347.49 280.364C347.626 280.116 347.694 279.828 347.694 279.5C347.694 279.172 347.626 278.888 347.49 278.648C347.362 278.4 347.178 278.208 346.938 278.072C346.698 277.936 346.418 277.868 346.098 277.868C345.778 277.868 345.494 277.936 345.246 278.072C345.006 278.208 344.818 278.4 344.682 278.648C344.546 278.888 344.478 279.172 344.478 279.5C344.478 279.82 344.546 280.104 344.682 280.352C344.818 280.6 345.006 280.792 345.246 280.928C345.494 281.064 345.778 281.132 346.098 281.132ZM354.344 282.5V279.176C354.344 278.792 354.22 278.476 353.972 278.228C353.732 277.98 353.42 277.856 353.036 277.856C352.78 277.856 352.552 277.912 352.352 278.024C352.152 278.136 351.996 278.292 351.884 278.492C351.772 278.692 351.716 278.92 351.716 279.176L351.2 278.888C351.2 278.448 351.296 278.06 351.488 277.724C351.68 277.38 351.944 277.112 352.28 276.92C352.624 276.72 353.008 276.62 353.432 276.62C353.864 276.62 354.248 276.732 354.584 276.956C354.92 277.172 355.184 277.456 355.376 277.808C355.568 278.152 355.664 278.512 355.664 278.888V282.5H354.344ZM350.396 282.5V276.74H351.716V282.5H350.396ZM365 282.5L361.016 278.144C360.72 277.816 360.496 277.504 360.344 277.208C360.2 276.912 360.128 276.584 360.128 276.224C360.128 275.8 360.232 275.42 360.44 275.084C360.648 274.74 360.932 274.468 361.292 274.268C361.652 274.068 362.064 273.968 362.528 273.968C362.88 273.968 363.2 274.028 363.488 274.148C363.776 274.26 364.028 274.412 364.244 274.604C364.468 274.788 364.652 274.992 364.796 275.216L363.848 276.056C363.672 275.816 363.48 275.62 363.272 275.468C363.072 275.316 362.824 275.24 362.528 275.24C362.224 275.24 361.968 275.332 361.76 275.516C361.552 275.692 361.448 275.916 361.448 276.188C361.448 276.46 361.504 276.684 361.616 276.86C361.728 277.036 361.884 277.24 362.084 277.472L366.584 282.5H365ZM362.132 282.62C361.556 282.62 361.052 282.512 360.62 282.296C360.196 282.072 359.864 281.768 359.624 281.384C359.392 280.992 359.276 280.548 359.276 280.052C359.276 279.548 359.412 279.096 359.684 278.696C359.964 278.296 360.372 277.972 360.908 277.724L361.52 278.528C361.224 278.688 360.996 278.888 360.836 279.128C360.676 279.36 360.596 279.656 360.596 280.016C360.596 280.304 360.66 280.548 360.788 280.748C360.924 280.948 361.112 281.104 361.352 281.216C361.592 281.32 361.868 281.372 362.18 281.372C362.588 281.372 362.924 281.288 363.188 281.12C363.46 280.952 363.664 280.752 363.8 280.52L364.664 281.528C364.496 281.736 364.28 281.924 364.016 282.092C363.752 282.252 363.46 282.38 363.14 282.476C362.82 282.572 362.484 282.62 362.132 282.62ZM321.36 300.5V299.24H323.568C324.144 299.24 324.648 299.116 325.08 298.868C325.52 298.62 325.86 298.276 326.1 297.836C326.348 297.388 326.472 296.872 326.472 296.288C326.472 295.712 326.348 295.204 326.1 294.764C325.852 294.324 325.508 293.98 325.068 293.732C324.636 293.484 324.136 293.36 323.568 293.36H321.36V292.1H323.604C324.212 292.1 324.776 292.208 325.296 292.424C325.816 292.632 326.268 292.928 326.652 293.312C327.044 293.688 327.348 294.132 327.564 294.644C327.78 295.148 327.888 295.7 327.888 296.3C327.888 296.892 327.78 297.444 327.564 297.956C327.348 298.468 327.048 298.916 326.664 299.3C326.28 299.676 325.828 299.972 325.308 300.188C324.788 300.396 324.228 300.5 323.628 300.5H321.36ZM320.412 300.5V292.1H321.792V300.5H320.412ZM331.791 300.62C331.215 300.62 330.695 300.492 330.231 300.236C329.775 299.972 329.411 299.612 329.139 299.156C328.875 298.7 328.743 298.188 328.743 297.62C328.743 297.052 328.875 296.544 329.139 296.096C329.403 295.64 329.759 295.28 330.207 295.016C330.663 294.752 331.167 294.62 331.719 294.62C332.255 294.62 332.727 294.744 333.135 294.992C333.551 295.24 333.875 295.58 334.107 296.012C334.347 296.444 334.467 296.936 334.467 297.488C334.467 297.584 334.459 297.684 334.443 297.788C334.435 297.884 334.419 297.992 334.395 298.112H329.667V297.032H333.711L333.219 297.464C333.203 297.112 333.135 296.816 333.015 296.576C332.895 296.336 332.723 296.152 332.499 296.024C332.283 295.896 332.015 295.832 331.695 295.832C331.359 295.832 331.067 295.904 330.819 296.048C330.571 296.192 330.379 296.396 330.243 296.66C330.107 296.916 330.039 297.224 330.039 297.584C330.039 297.944 330.111 298.26 330.255 298.532C330.399 298.804 330.603 299.016 330.867 299.168C331.131 299.312 331.435 299.384 331.779 299.384C332.075 299.384 332.347 299.332 332.595 299.228C332.851 299.124 333.067 298.972 333.243 298.772L334.083 299.624C333.803 299.952 333.463 300.2 333.063 300.368C332.663 300.536 332.239 300.62 331.791 300.62ZM337.375 300.5L334.747 294.74H336.211L338.215 299.432H337.351L339.367 294.74H340.771L338.143 300.5H337.375ZM344.025 300.62C343.449 300.62 342.929 300.492 342.465 300.236C342.009 299.972 341.645 299.612 341.373 299.156C341.109 298.7 340.977 298.188 340.977 297.62C340.977 297.052 341.109 296.544 341.373 296.096C341.637 295.64 341.993 295.28 342.441 295.016C342.897 294.752 343.401 294.62 343.953 294.62C344.489 294.62 344.961 294.744 345.369 294.992C345.785 295.24 346.109 295.58 346.341 296.012C346.581 296.444 346.701 296.936 346.701 297.488C346.701 297.584 346.693 297.684 346.677 297.788C346.669 297.884 346.653 297.992 346.629 298.112H341.901V297.032H345.945L345.453 297.464C345.437 297.112 345.369 296.816 345.249 296.576C345.129 296.336 344.957 296.152 344.733 296.024C344.517 295.896 344.249 295.832 343.929 295.832C343.593 295.832 343.301 295.904 343.053 296.048C342.805 296.192 342.613 296.396 342.477 296.66C342.341 296.916 342.273 297.224 342.273 297.584C342.273 297.944 342.345 298.26 342.489 298.532C342.633 298.804 342.837 299.016 343.101 299.168C343.365 299.312 343.669 299.384 344.013 299.384C344.309 299.384 344.581 299.332 344.829 299.228C345.085 299.124 345.301 298.972 345.477 298.772L346.317 299.624C346.037 299.952 345.697 300.2 345.297 300.368C344.897 300.536 344.473 300.62 344.025 300.62ZM347.759 300.5V291.86H349.079V300.5H347.759ZM353.188 300.62C352.628 300.62 352.12 300.488 351.664 300.224C351.208 299.952 350.844 299.588 350.572 299.132C350.308 298.676 350.176 298.168 350.176 297.608C350.176 297.048 350.308 296.544 350.572 296.096C350.844 295.648 351.208 295.292 351.664 295.028C352.12 294.756 352.628 294.62 353.188 294.62C353.756 294.62 354.268 294.752 354.724 295.016C355.18 295.28 355.54 295.64 355.804 296.096C356.076 296.544 356.212 297.048 356.212 297.608C356.212 298.168 356.076 298.676 355.804 299.132C355.54 299.588 355.18 299.952 354.724 300.224C354.268 300.488 353.756 300.62 353.188 300.62ZM353.188 299.348C353.516 299.348 353.804 299.276 354.052 299.132C354.308 298.98 354.504 298.772 354.64 298.508C354.784 298.244 354.856 297.944 354.856 297.608C354.856 297.272 354.784 296.976 354.64 296.72C354.496 296.464 354.3 296.264 354.052 296.12C353.804 295.968 353.516 295.892 353.188 295.892C352.868 295.892 352.58 295.968 352.324 296.12C352.076 296.264 351.88 296.464 351.736 296.72C351.6 296.976 351.532 297.272 351.532 297.608C351.532 297.944 351.6 298.244 351.736 298.508C351.88 298.772 352.076 298.98 352.324 299.132C352.58 299.276 352.868 299.348 353.188 299.348ZM360.394 300.62C359.954 300.62 359.562 300.528 359.218 300.344C358.874 300.152 358.602 299.892 358.402 299.564C358.21 299.236 358.114 298.864 358.114 298.448V296.792C358.114 296.376 358.214 296.004 358.414 295.676C358.614 295.348 358.886 295.092 359.23 294.908C359.574 294.716 359.962 294.62 360.394 294.62C360.914 294.62 361.382 294.756 361.798 295.028C362.222 295.292 362.554 295.652 362.794 296.108C363.042 296.556 363.166 297.064 363.166 297.632C363.166 298.192 363.042 298.7 362.794 299.156C362.554 299.604 362.222 299.96 361.798 300.224C361.382 300.488 360.914 300.62 360.394 300.62ZM357.31 302.9V294.74H358.63V296.288L358.402 297.692L358.63 299.084V302.9H357.31ZM360.178 299.372C360.498 299.372 360.778 299.3 361.018 299.156C361.266 299.004 361.458 298.796 361.594 298.532C361.738 298.268 361.81 297.964 361.81 297.62C361.81 297.276 361.738 296.972 361.594 296.708C361.458 296.444 361.266 296.24 361.018 296.096C360.778 295.944 360.498 295.868 360.178 295.868C359.858 295.868 359.574 295.944 359.326 296.096C359.078 296.24 358.886 296.444 358.75 296.708C358.614 296.972 358.546 297.276 358.546 297.62C358.546 297.964 358.614 298.268 358.75 298.532C358.886 298.796 359.078 299.004 359.326 299.156C359.574 299.3 359.858 299.372 360.178 299.372ZM364.271 300.5V294.74H365.591V300.5H364.271ZM368.099 300.5V297.068C368.099 296.684 367.979 296.388 367.739 296.18C367.499 295.964 367.203 295.856 366.851 295.856C366.611 295.856 366.395 295.904 366.203 296C366.019 296.096 365.871 296.236 365.759 296.42C365.647 296.596 365.591 296.812 365.591 297.068L365.075 296.78C365.075 296.34 365.171 295.96 365.363 295.64C365.555 295.32 365.815 295.072 366.143 294.896C366.471 294.712 366.839 294.62 367.247 294.62C367.655 294.62 368.023 294.708 368.351 294.884C368.679 295.06 368.939 295.308 369.131 295.628C369.323 295.948 369.419 296.332 369.419 296.78V300.5H368.099ZM371.927 300.5V297.068C371.927 296.684 371.807 296.388 371.567 296.18C371.327 295.964 371.031 295.856 370.679 295.856C370.447 295.856 370.235 295.904 370.043 296C369.851 296.096 369.699 296.236 369.587 296.42C369.475 296.596 369.419 296.812 369.419 297.068L368.675 296.78C368.715 296.34 368.843 295.96 369.059 295.64C369.275 295.32 369.551 295.072 369.887 294.896C370.231 294.712 370.607 294.62 371.015 294.62C371.431 294.62 371.807 294.708 372.143 294.884C372.479 295.06 372.747 295.308 372.947 295.628C373.147 295.948 373.247 296.332 373.247 296.78V300.5H371.927ZM377.283 300.62C376.707 300.62 376.187 300.492 375.723 300.236C375.267 299.972 374.903 299.612 374.631 299.156C374.367 298.7 374.235 298.188 374.235 297.62C374.235 297.052 374.367 296.544 374.631 296.096C374.895 295.64 375.251 295.28 375.699 295.016C376.155 294.752 376.659 294.62 377.211 294.62C377.747 294.62 378.219 294.744 378.627 294.992C379.043 295.24 379.367 295.58 379.599 296.012C379.839 296.444 379.959 296.936 379.959 297.488C379.959 297.584 379.951 297.684 379.935 297.788C379.927 297.884 379.911 297.992 379.887 298.112H375.159V297.032H379.203L378.711 297.464C378.695 297.112 378.627 296.816 378.507 296.576C378.387 296.336 378.215 296.152 377.991 296.024C377.775 295.896 377.507 295.832 377.187 295.832C376.851 295.832 376.559 295.904 376.311 296.048C376.063 296.192 375.871 296.396 375.735 296.66C375.599 296.916 375.531 297.224 375.531 297.584C375.531 297.944 375.603 298.26 375.747 298.532C375.891 298.804 376.095 299.016 376.359 299.168C376.623 299.312 376.927 299.384 377.271 299.384C377.567 299.384 377.839 299.332 378.087 299.228C378.343 299.124 378.559 298.972 378.735 298.772L379.575 299.624C379.295 299.952 378.955 300.2 378.555 300.368C378.155 300.536 377.731 300.62 377.283 300.62ZM384.965 300.5V297.176C384.965 296.792 384.841 296.476 384.593 296.228C384.353 295.98 384.041 295.856 383.657 295.856C383.401 295.856 383.173 295.912 382.973 296.024C382.773 296.136 382.617 296.292 382.505 296.492C382.393 296.692 382.337 296.92 382.337 297.176L381.821 296.888C381.821 296.448 381.917 296.06 382.109 295.724C382.301 295.38 382.565 295.112 382.901 294.92C383.245 294.72 383.629 294.62 384.053 294.62C384.485 294.62 384.869 294.732 385.205 294.956C385.541 295.172 385.805 295.456 385.997 295.808C386.189 296.152 386.285 296.512 386.285 296.888V300.5H384.965ZM381.017 300.5V294.74H382.337V300.5H381.017ZM388.432 300.5V292.34H389.752V300.5H388.432ZM387.052 295.94V294.74H391.132V295.94H387.052Z" fill="#F1F2F4"/>
<path d="M419.968 261.72L424.672 254.94H425.992L421.288 261.72H419.968ZM419.968 262.5V261.72L420.928 261.468H425.908V262.5H419.968ZM420.22 255.204V254.172H425.992V254.94L425.02 255.204H420.22ZM429.529 262.62C428.969 262.62 428.465 262.488 428.017 262.224C427.569 261.96 427.213 261.604 426.949 261.156C426.685 260.7 426.553 260.192 426.553 259.632C426.553 259.08 426.685 258.584 426.949 258.144C427.213 257.696 427.569 257.34 428.017 257.076C428.465 256.812 428.969 256.68 429.529 256.68C430.081 256.68 430.581 256.812 431.029 257.076C431.485 257.332 431.845 257.684 432.109 258.132C432.373 258.58 432.505 259.08 432.505 259.632C432.505 260.192 432.373 260.7 432.109 261.156C431.845 261.604 431.485 261.96 431.029 262.224C430.581 262.488 430.081 262.62 429.529 262.62ZM429.529 261.576C429.889 261.576 430.209 261.492 430.489 261.324C430.769 261.156 430.989 260.928 431.149 260.64C431.309 260.344 431.389 260.008 431.389 259.632C431.389 259.264 431.305 258.936 431.137 258.648C430.977 258.36 430.757 258.136 430.477 257.976C430.205 257.808 429.889 257.724 429.529 257.724C429.169 257.724 428.849 257.808 428.569 257.976C428.289 258.136 428.069 258.36 427.909 258.648C427.749 258.936 427.669 259.264 427.669 259.632C427.669 260.008 427.749 260.344 427.909 260.64C428.069 260.928 428.289 261.156 428.569 261.324C428.849 261.492 429.169 261.576 429.529 261.576ZM437.754 262.5V259.176C437.754 258.744 437.618 258.388 437.346 258.108C437.074 257.828 436.722 257.688 436.29 257.688C436.002 257.688 435.746 257.752 435.522 257.88C435.298 258.008 435.122 258.184 434.994 258.408C434.866 258.632 434.802 258.888 434.802 259.176L434.358 258.924C434.358 258.492 434.454 258.108 434.646 257.772C434.838 257.436 435.106 257.172 435.45 256.98C435.794 256.78 436.182 256.68 436.614 256.68C437.046 256.68 437.426 256.788 437.754 257.004C438.09 257.22 438.354 257.504 438.546 257.856C438.738 258.2 438.834 258.568 438.834 258.96V262.5H437.754ZM433.722 262.5V256.8H434.802V262.5H433.722ZM442.936 262.62C442.368 262.62 441.856 262.492 441.4 262.236C440.944 261.972 440.584 261.616 440.32 261.168C440.056 260.72 439.924 260.212 439.924 259.644C439.924 259.084 440.052 258.58 440.308 258.132C440.572 257.684 440.924 257.332 441.364 257.076C441.812 256.812 442.312 256.68 442.864 256.68C443.392 256.68 443.856 256.8 444.256 257.04C444.664 257.28 444.98 257.612 445.204 258.036C445.436 258.46 445.552 258.94 445.552 259.476C445.552 259.556 445.548 259.644 445.54 259.74C445.532 259.828 445.516 259.932 445.492 260.052H440.68V259.152H444.916L444.52 259.5C444.52 259.116 444.452 258.792 444.316 258.528C444.18 258.256 443.988 258.048 443.74 257.904C443.492 257.752 443.192 257.676 442.84 257.676C442.472 257.676 442.148 257.756 441.868 257.916C441.588 258.076 441.372 258.3 441.22 258.588C441.068 258.876 440.992 259.216 440.992 259.608C440.992 260.008 441.072 260.36 441.232 260.664C441.392 260.96 441.62 261.192 441.916 261.36C442.212 261.52 442.552 261.6 442.936 261.6C443.256 261.6 443.548 261.544 443.812 261.432C444.084 261.32 444.316 261.152 444.508 260.928L445.204 261.636C444.932 261.956 444.596 262.2 444.196 262.368C443.804 262.536 443.384 262.62 442.936 262.62Z" fill="#A6AAB3"/>
<path d="M421.36 282.5V281.3H423.772C424.196 281.3 424.524 281.168 424.756 280.904C424.988 280.64 425.104 280.336 425.104 279.992C425.104 279.76 425.052 279.544 424.948 279.344C424.844 279.144 424.692 278.984 424.492 278.864C424.292 278.744 424.052 278.684 423.772 278.684H421.36V277.484H423.568C423.928 277.484 424.216 277.392 424.432 277.208C424.648 277.024 424.756 276.752 424.756 276.392C424.756 276.032 424.648 275.76 424.432 275.576C424.216 275.392 423.928 275.3 423.568 275.3H421.36V274.1H423.604C424.172 274.1 424.644 274.204 425.02 274.412C425.396 274.62 425.676 274.888 425.86 275.216C426.044 275.544 426.136 275.896 426.136 276.272C426.136 276.712 426.012 277.1 425.764 277.436C425.524 277.772 425.168 278.044 424.696 278.252L424.804 277.82C425.332 278.036 425.744 278.34 426.04 278.732C426.336 279.124 426.484 279.584 426.484 280.112C426.484 280.544 426.376 280.94 426.16 281.3C425.952 281.66 425.64 281.952 425.224 282.176C424.816 282.392 424.312 282.5 423.712 282.5H421.36ZM420.412 282.5V274.1H421.792V282.5H420.412ZM427.877 282.5V274.1H429.257V282.5H427.877ZM428.825 282.5V281.24H433.529V282.5H428.825ZM428.825 278.816V277.604H433.121V278.816H428.825ZM428.825 275.36V274.1H433.469V275.36H428.825ZM434.955 282.5V274.1H436.335V282.5H434.955ZM435.903 282.5V281.24H440.607V282.5H435.903ZM435.903 278.816V277.604H440.199V278.816H435.903ZM435.903 275.36V274.1H440.547V275.36H435.903ZM445.745 282.62C445.145 282.62 444.585 282.508 444.065 282.284C443.545 282.06 443.089 281.752 442.697 281.36C442.305 280.96 441.997 280.5 441.773 279.98C441.557 279.452 441.449 278.888 441.449 278.288C441.449 277.688 441.557 277.128 441.773 276.608C441.997 276.088 442.301 275.632 442.685 275.24C443.077 274.84 443.529 274.532 444.041 274.316C444.561 274.092 445.121 273.98 445.721 273.98C446.321 273.98 446.877 274.092 447.389 274.316C447.909 274.532 448.365 274.84 448.757 275.24C449.149 275.632 449.453 276.092 449.669 276.62C449.893 277.14 450.005 277.7 450.005 278.3C450.005 278.9 449.893 279.464 449.669 279.992C449.453 280.512 449.149 280.968 448.757 281.36C448.373 281.752 447.921 282.06 447.401 282.284C446.889 282.508 446.337 282.62 445.745 282.62ZM449.585 283.076L445.805 279.296L446.693 278.408L450.473 282.188L449.585 283.076ZM445.721 281.3C446.289 281.3 446.785 281.172 447.209 280.916C447.641 280.66 447.977 280.308 448.217 279.86C448.465 279.404 448.589 278.88 448.589 278.288C448.589 277.848 448.517 277.448 448.373 277.088C448.237 276.72 448.041 276.404 447.785 276.14C447.529 275.868 447.225 275.66 446.873 275.516C446.529 275.372 446.145 275.3 445.721 275.3C445.161 275.3 444.665 275.428 444.233 275.684C443.809 275.932 443.473 276.28 443.225 276.728C442.985 277.176 442.865 277.696 442.865 278.288C442.865 278.728 442.933 279.136 443.069 279.512C443.213 279.88 443.409 280.196 443.657 280.46C443.913 280.724 444.217 280.932 444.569 281.084C444.921 281.228 445.305 281.3 445.721 281.3Z" fill="#F1F2F4"/>
</g>
</g>
<defs>
<filter id="filter0_d_14364_13208" x="183.5" y="74.5" width="316" height="287" filterUnits="userSpaceOnUse" color-interpolation-filters="sRGB">
<feFlood flood-opacity="0" result="BackgroundImageFix"/>
<feColorMatrix in="SourceAlpha" type="matrix" values="0 0 0 0 0 0 0 0 0 0 0 0 0 0 0 0 0 0 127 0" result="hardAlpha"/>
<feOffset dy="8"/>
<feGaussianBlur stdDeviation="12"/>
<feColorMatrix type="matrix" values="0 0 0 0 0 0 0 0 0 0 0 0 0 0 0 0 0 0 0.04 0"/>
<feBlend mode="normal" in2="BackgroundImageFix" result="effect1_dropShadow_14364_13208"/>
<feBlend mode="normal" in="SourceGraphic" in2="effect1_dropShadow_14364_13208" result="shape"/>
</filter>
<clipPath id="clip0_14364_13208">
<path d="M207.5 102.5C207.5 95.8726 212.873 90.5 219.5 90.5H463.5C470.127 90.5 475.5 95.8726 475.5 102.5V317.5C475.5 324.127 470.127 329.5 463.5 329.5H219.5C212.873 329.5 207.5 324.127 207.5 317.5V102.5Z" fill="white"/>
</clipPath>
</defs>
</svg>
