<svg width="408" height="302" viewBox="0 0 408 302" fill="none" xmlns="http://www.w3.org/2000/svg">
<mask id="path-1-inside-1_4924_34069" fill="white">
<path d="M0 151C0 144.373 5.37258 139 12 139C18.6274 139 24 144.373 24 151C24 157.627 18.6274 163 12 163C5.37258 163 0 157.627 0 151Z"/>
</mask>
<path d="M0 151C0 144.373 5.37258 139 12 139C18.6274 139 24 144.373 24 151C24 157.627 18.6274 163 12 163C5.37258 163 0 157.627 0 151Z" fill="#1C1D23"/>
<path d="M12 161C6.47715 161 2 156.523 2 151H-2C-2 158.732 4.26801 165 12 165V161ZM22 151C22 156.523 17.5228 161 12 161V165C19.732 165 26 158.732 26 151H22ZM12 141C17.5228 141 22 145.477 22 151H26C26 143.268 19.732 137 12 137V141ZM12 137C4.26801 137 -2 143.268 -2 151H2C2 145.477 6.47715 141 12 141V137Z" fill="#A6AAB3" mask="url(#path-1-inside-1_4924_34069)"/>
<path d="M11.08 155.132C10.544 155.132 10.076 155.036 9.676 154.844C9.284 154.644 8.948 154.368 8.668 154.016L9.928 152.804C10.072 153.004 10.24 153.156 10.432 153.26C10.632 153.364 10.856 153.416 11.104 153.416C11.344 153.416 11.552 153.368 11.728 153.272C11.904 153.168 12.044 153.024 12.148 152.84C12.252 152.648 12.304 152.412 12.304 152.132V146.528H14.2V152.024C14.2 152.656 14.072 153.204 13.816 153.668C13.56 154.132 13.2 154.492 12.736 154.748C12.272 155.004 11.72 155.132 11.08 155.132Z" fill="#F1F2F4"/>
<path d="M16 143C16 140.791 17.7909 139 20 139C22.2091 139 24 140.791 24 143C24 145.209 22.2091 147 20 147C17.7909 147 16 145.209 16 143Z" fill="#E1172F"/>
<mask id="path-5-inside-2_4924_34069" fill="white">
<path d="M104 151C104 142.163 111.163 135 120 135C128.837 135 136 142.163 136 151C136 159.837 128.837 167 120 167C111.163 167 104 159.837 104 151Z"/>
</mask>
<path d="M104 151C104 142.163 111.163 135 120 135C128.837 135 136 142.163 136 151C136 159.837 128.837 167 120 167C111.163 167 104 159.837 104 151Z" fill="#1C1D23"/>
<path d="M120 165C112.268 165 106 158.732 106 151H102C102 160.941 110.059 169 120 169V165ZM134 151C134 158.732 127.732 165 120 165V169C129.941 169 138 160.941 138 151H134ZM120 137C127.732 137 134 143.268 134 151H138C138 141.059 129.941 133 120 133V137ZM120 133C110.059 133 102 141.059 102 151H106C106 143.268 112.268 137 120 137V133Z" fill="#A6AAB3" mask="url(#path-5-inside-2_4924_34069)"/>
<path d="M115.58 155.132C115.044 155.132 114.576 155.036 114.176 154.844C113.784 154.644 113.448 154.368 113.168 154.016L114.428 152.804C114.572 153.004 114.74 153.156 114.932 153.26C115.132 153.364 115.356 153.416 115.604 153.416C115.844 153.416 116.052 153.368 116.228 153.272C116.404 153.168 116.544 153.024 116.648 152.84C116.752 152.648 116.804 152.412 116.804 152.132V146.528H118.7V152.024C118.7 152.656 118.572 153.204 118.316 153.668C118.06 154.132 117.7 154.492 117.236 154.748C116.772 155.004 116.22 155.132 115.58 155.132ZM122.653 155.132C121.957 155.132 121.357 155.02 120.853 154.796C120.357 154.564 119.901 154.216 119.485 153.752L120.709 152.54C120.981 152.852 121.281 153.096 121.609 153.272C121.945 153.44 122.333 153.524 122.773 153.524C123.173 153.524 123.481 153.452 123.697 153.308C123.921 153.164 124.033 152.964 124.033 152.708C124.033 152.476 123.961 152.288 123.817 152.144C123.673 152 123.481 151.876 123.241 151.772C123.009 151.668 122.749 151.568 122.461 151.472C122.181 151.376 121.901 151.268 121.621 151.148C121.341 151.02 121.081 150.864 120.841 150.68C120.609 150.488 120.421 150.252 120.277 149.972C120.133 149.684 120.061 149.324 120.061 148.892C120.061 148.372 120.185 147.924 120.433 147.548C120.689 147.172 121.041 146.888 121.489 146.696C121.937 146.496 122.453 146.396 123.037 146.396C123.629 146.396 124.169 146.5 124.657 146.708C125.153 146.916 125.561 147.2 125.881 147.56L124.657 148.772C124.401 148.508 124.141 148.312 123.877 148.184C123.621 148.056 123.329 147.992 123.001 147.992C122.673 147.992 122.413 148.056 122.221 148.184C122.029 148.304 121.933 148.48 121.933 148.712C121.933 148.928 122.005 149.104 122.149 149.24C122.293 149.368 122.481 149.48 122.713 149.576C122.953 149.672 123.213 149.768 123.493 149.864C123.781 149.96 124.065 150.072 124.345 150.2C124.625 150.328 124.881 150.492 125.113 150.692C125.353 150.884 125.545 151.132 125.689 151.436C125.833 151.732 125.905 152.1 125.905 152.54C125.905 153.348 125.617 153.984 125.041 154.448C124.465 154.904 123.669 155.132 122.653 155.132Z" fill="#F1F2F4"/>
<path d="M128 139C128 136.791 129.791 135 132 135C134.209 135 136 136.791 136 139C136 141.209 134.209 143 132 143C129.791 143 128 141.209 128 139Z" fill="#E1172F"/>
<mask id="path-9-inside-3_4924_34069" fill="white">
<path d="M216 151C216 137.745 226.745 127 240 127C253.255 127 264 137.745 264 151C264 164.255 253.255 175 240 175C226.745 175 216 164.255 216 151Z"/>
</mask>
<path d="M216 151C216 137.745 226.745 127 240 127C253.255 127 264 137.745 264 151C264 164.255 253.255 175 240 175C226.745 175 216 164.255 216 151Z" fill="#1C1D23"/>
<path d="M240 173C227.85 173 218 163.15 218 151H214C214 165.359 225.641 177 240 177V173ZM262 151C262 163.15 252.15 173 240 173V177C254.359 177 266 165.359 266 151H262ZM240 129C252.15 129 262 138.85 262 151H266C266 136.641 254.359 125 240 125V129ZM240 125C225.641 125 214 136.641 214 151H218C218 138.85 227.85 129 240 129V125Z" fill="#A6AAB3" mask="url(#path-9-inside-3_4924_34069)"/>
<path d="M234.44 157.176C233.725 157.176 233.101 157.048 232.568 156.792C232.045 156.525 231.597 156.157 231.224 155.688L232.904 154.072C233.096 154.339 233.32 154.541 233.576 154.68C233.843 154.819 234.141 154.888 234.472 154.888C234.792 154.888 235.069 154.824 235.304 154.696C235.539 154.557 235.725 154.365 235.864 154.12C236.003 153.864 236.072 153.549 236.072 153.176V145.704H238.6V153.032C238.6 153.875 238.429 154.605 238.088 155.224C237.747 155.843 237.267 156.323 236.648 156.664C236.029 157.005 235.293 157.176 234.44 157.176ZM243.871 157.176C242.943 157.176 242.143 157.027 241.471 156.728C240.809 156.419 240.201 155.955 239.647 155.336L241.279 153.72C241.641 154.136 242.041 154.461 242.479 154.696C242.927 154.92 243.444 155.032 244.031 155.032C244.564 155.032 244.975 154.936 245.263 154.744C245.561 154.552 245.711 154.285 245.711 153.944C245.711 153.635 245.615 153.384 245.423 153.192C245.231 153 244.975 152.835 244.655 152.696C244.345 152.557 243.999 152.424 243.615 152.296C243.241 152.168 242.868 152.024 242.495 151.864C242.121 151.693 241.775 151.485 241.455 151.24C241.145 150.984 240.895 150.669 240.703 150.296C240.511 149.912 240.415 149.432 240.415 148.856C240.415 148.163 240.58 147.565 240.911 147.064C241.252 146.563 241.721 146.184 242.319 145.928C242.916 145.661 243.604 145.528 244.383 145.528C245.172 145.528 245.892 145.667 246.543 145.944C247.204 146.221 247.748 146.6 248.175 147.08L246.543 148.696C246.201 148.344 245.855 148.083 245.503 147.912C245.161 147.741 244.772 147.656 244.335 147.656C243.897 147.656 243.551 147.741 243.295 147.912C243.039 148.072 242.911 148.307 242.911 148.616C242.911 148.904 243.007 149.139 243.199 149.32C243.391 149.491 243.641 149.64 243.951 149.768C244.271 149.896 244.617 150.024 244.991 150.152C245.375 150.28 245.753 150.429 246.127 150.6C246.5 150.771 246.841 150.989 247.151 151.256C247.471 151.512 247.727 151.843 247.919 152.248C248.111 152.643 248.207 153.133 248.207 153.72C248.207 154.797 247.823 155.645 247.055 156.264C246.287 156.872 245.225 157.176 243.871 157.176Z" fill="#F1F2F4"/>
<path d="M252 133C252 129.686 254.686 127 258 127C261.314 127 264 129.686 264 133C264 136.314 261.314 139 258 139C254.686 139 252 136.314 252 133Z" fill="#E1172F"/>
<mask id="path-13-inside-4_4924_34069" fill="white">
<path d="M344 151C344 133.327 358.327 119 376 119C393.673 119 408 133.327 408 151C408 168.673 393.673 183 376 183C358.327 183 344 168.673 344 151Z"/>
</mask>
<path d="M344 151C344 133.327 358.327 119 376 119C393.673 119 408 133.327 408 151C408 168.673 393.673 183 376 183C358.327 183 344 168.673 344 151Z" fill="#1C1D23"/>
<path d="M376 181C359.431 181 346 167.569 346 151H342C342 169.778 357.222 185 376 185V181ZM406 151C406 167.569 392.569 181 376 181V185C394.778 185 410 169.778 410 151H406ZM376 121C392.569 121 406 134.431 406 151H410C410 132.222 394.778 117 376 117V121ZM376 117C357.222 117 342 132.222 342 151H346C346 134.431 359.431 121 376 121V117Z" fill="#A6AAB3" mask="url(#path-13-inside-4_4924_34069)"/>
<path d="M370.44 157.176C369.725 157.176 369.101 157.048 368.568 156.792C368.045 156.525 367.597 156.157 367.224 155.688L368.904 154.072C369.096 154.339 369.32 154.541 369.576 154.68C369.843 154.819 370.141 154.888 370.472 154.888C370.792 154.888 371.069 154.824 371.304 154.696C371.539 154.557 371.725 154.365 371.864 154.12C372.003 153.864 372.072 153.549 372.072 153.176V145.704H374.6V153.032C374.6 153.875 374.429 154.605 374.088 155.224C373.747 155.843 373.267 156.323 372.648 156.664C372.029 157.005 371.293 157.176 370.44 157.176ZM379.871 157.176C378.943 157.176 378.143 157.027 377.471 156.728C376.809 156.419 376.201 155.955 375.647 155.336L377.279 153.72C377.641 154.136 378.041 154.461 378.479 154.696C378.927 154.92 379.444 155.032 380.031 155.032C380.564 155.032 380.975 154.936 381.263 154.744C381.561 154.552 381.711 154.285 381.711 153.944C381.711 153.635 381.615 153.384 381.423 153.192C381.231 153 380.975 152.835 380.655 152.696C380.345 152.557 379.999 152.424 379.615 152.296C379.241 152.168 378.868 152.024 378.495 151.864C378.121 151.693 377.775 151.485 377.455 151.24C377.145 150.984 376.895 150.669 376.703 150.296C376.511 149.912 376.415 149.432 376.415 148.856C376.415 148.163 376.58 147.565 376.911 147.064C377.252 146.563 377.721 146.184 378.319 145.928C378.916 145.661 379.604 145.528 380.383 145.528C381.172 145.528 381.892 145.667 382.543 145.944C383.204 146.221 383.748 146.6 384.175 147.08L382.543 148.696C382.201 148.344 381.855 148.083 381.503 147.912C381.161 147.741 380.772 147.656 380.335 147.656C379.897 147.656 379.551 147.741 379.295 147.912C379.039 148.072 378.911 148.307 378.911 148.616C378.911 148.904 379.007 149.139 379.199 149.32C379.391 149.491 379.641 149.64 379.951 149.768C380.271 149.896 380.617 150.024 380.991 150.152C381.375 150.28 381.753 150.429 382.127 150.6C382.5 150.771 382.841 150.989 383.151 151.256C383.471 151.512 383.727 151.843 383.919 152.248C384.111 152.643 384.207 153.133 384.207 153.72C384.207 154.797 383.823 155.645 383.055 156.264C382.287 156.872 381.225 157.176 379.871 157.176Z" fill="#F1F2F4"/>
<path d="M392 127C392 122.582 395.582 119 400 119C404.418 119 408 122.582 408 127C408 131.418 404.418 135 400 135C395.582 135 392 131.418 392 127Z" fill="#E1172F"/>
<mask id="path-17-inside-5_4924_34069" fill="white">
<path d="M0 32C0 25.3726 5.37258 20 12 20C18.6274 20 24 25.3726 24 32C24 38.6274 18.6274 44 12 44C5.37258 44 0 38.6274 0 32Z"/>
</mask>
<path d="M0 32C0 25.3726 5.37258 20 12 20C18.6274 20 24 25.3726 24 32C24 38.6274 18.6274 44 12 44C5.37258 44 0 38.6274 0 32Z" fill="#1C1D23"/>
<path d="M12 42C6.47715 42 2 37.5228 2 32H-2C-2 39.732 4.26801 46 12 46V42ZM22 32C22 37.5228 17.5228 42 12 42V46C19.732 46 26 39.732 26 32H22ZM12 22C17.5228 22 22 26.4772 22 32H26C26 24.268 19.732 18 12 18V22ZM12 18C4.26801 18 -2 24.268 -2 32H2C2 26.4772 6.47715 22 12 22V18Z" fill="#A6AAB3" mask="url(#path-17-inside-5_4924_34069)"/>
<path d="M11.08 36.132C10.544 36.132 10.076 36.036 9.676 35.844C9.284 35.644 8.948 35.368 8.668 35.016L9.928 33.804C10.072 34.004 10.24 34.156 10.432 34.26C10.632 34.364 10.856 34.416 11.104 34.416C11.344 34.416 11.552 34.368 11.728 34.272C11.904 34.168 12.044 34.024 12.148 33.84C12.252 33.648 12.304 33.412 12.304 33.132V27.528H14.2V33.024C14.2 33.656 14.072 34.204 13.816 34.668C13.56 35.132 13.2 35.492 12.736 35.748C12.272 36.004 11.72 36.132 11.08 36.132Z" fill="#F1F2F4"/>
<mask id="path-20-inside-6_4924_34069" fill="white">
<path d="M104 32C104 23.1634 111.163 16 120 16C128.837 16 136 23.1634 136 32C136 40.8366 128.837 48 120 48C111.163 48 104 40.8366 104 32Z"/>
</mask>
<path d="M104 32C104 23.1634 111.163 16 120 16C128.837 16 136 23.1634 136 32C136 40.8366 128.837 48 120 48C111.163 48 104 40.8366 104 32Z" fill="#1C1D23"/>
<path d="M120 46C112.268 46 106 39.732 106 32H102C102 41.9411 110.059 50 120 50V46ZM134 32C134 39.732 127.732 46 120 46V50C129.941 50 138 41.9411 138 32H134ZM120 18C127.732 18 134 24.268 134 32H138C138 22.0589 129.941 14 120 14V18ZM120 14C110.059 14 102 22.0589 102 32H106C106 24.268 112.268 18 120 18V14Z" fill="#A6AAB3" mask="url(#path-20-inside-6_4924_34069)"/>
<path d="M115.58 36.132C115.044 36.132 114.576 36.036 114.176 35.844C113.784 35.644 113.448 35.368 113.168 35.016L114.428 33.804C114.572 34.004 114.74 34.156 114.932 34.26C115.132 34.364 115.356 34.416 115.604 34.416C115.844 34.416 116.052 34.368 116.228 34.272C116.404 34.168 116.544 34.024 116.648 33.84C116.752 33.648 116.804 33.412 116.804 33.132V27.528H118.7V33.024C118.7 33.656 118.572 34.204 118.316 34.668C118.06 35.132 117.7 35.492 117.236 35.748C116.772 36.004 116.22 36.132 115.58 36.132ZM122.653 36.132C121.957 36.132 121.357 36.02 120.853 35.796C120.357 35.564 119.901 35.216 119.485 34.752L120.709 33.54C120.981 33.852 121.281 34.096 121.609 34.272C121.945 34.44 122.333 34.524 122.773 34.524C123.173 34.524 123.481 34.452 123.697 34.308C123.921 34.164 124.033 33.964 124.033 33.708C124.033 33.476 123.961 33.288 123.817 33.144C123.673 33 123.481 32.876 123.241 32.772C123.009 32.668 122.749 32.568 122.461 32.472C122.181 32.376 121.901 32.268 121.621 32.148C121.341 32.02 121.081 31.864 120.841 31.68C120.609 31.488 120.421 31.252 120.277 30.972C120.133 30.684 120.061 30.324 120.061 29.892C120.061 29.372 120.185 28.924 120.433 28.548C120.689 28.172 121.041 27.888 121.489 27.696C121.937 27.496 122.453 27.396 123.037 27.396C123.629 27.396 124.169 27.5 124.657 27.708C125.153 27.916 125.561 28.2 125.881 28.56L124.657 29.772C124.401 29.508 124.141 29.312 123.877 29.184C123.621 29.056 123.329 28.992 123.001 28.992C122.673 28.992 122.413 29.056 122.221 29.184C122.029 29.304 121.933 29.48 121.933 29.712C121.933 29.928 122.005 30.104 122.149 30.24C122.293 30.368 122.481 30.48 122.713 30.576C122.953 30.672 123.213 30.768 123.493 30.864C123.781 30.96 124.065 31.072 124.345 31.2C124.625 31.328 124.881 31.492 125.113 31.692C125.353 31.884 125.545 32.132 125.689 32.436C125.833 32.732 125.905 33.1 125.905 33.54C125.905 34.348 125.617 34.984 125.041 35.448C124.465 35.904 123.669 36.132 122.653 36.132Z" fill="#F1F2F4"/>
<mask id="path-23-inside-7_4924_34069" fill="white">
<path d="M216 32C216 18.7452 226.745 8 240 8C253.255 8 264 18.7452 264 32C264 45.2548 253.255 56 240 56C226.745 56 216 45.2548 216 32Z"/>
</mask>
<path d="M216 32C216 18.7452 226.745 8 240 8C253.255 8 264 18.7452 264 32C264 45.2548 253.255 56 240 56C226.745 56 216 45.2548 216 32Z" fill="#1C1D23"/>
<path d="M240 54C227.85 54 218 44.1503 218 32H214C214 46.3594 225.641 58 240 58V54ZM262 32C262 44.1503 252.15 54 240 54V58C254.359 58 266 46.3594 266 32H262ZM240 10C252.15 10 262 19.8497 262 32H266C266 17.6406 254.359 6 240 6V10ZM240 6C225.641 6 214 17.6406 214 32H218C218 19.8497 227.85 10 240 10V6Z" fill="#A6AAB3" mask="url(#path-23-inside-7_4924_34069)"/>
<path d="M234.44 38.176C233.725 38.176 233.101 38.048 232.568 37.792C232.045 37.5253 231.597 37.1573 231.224 36.688L232.904 35.072C233.096 35.3387 233.32 35.5413 233.576 35.68C233.843 35.8187 234.141 35.888 234.472 35.888C234.792 35.888 235.069 35.824 235.304 35.696C235.539 35.5573 235.725 35.3653 235.864 35.12C236.003 34.864 236.072 34.5493 236.072 34.176V26.704H238.6V34.032C238.6 34.8747 238.429 35.6053 238.088 36.224C237.747 36.8427 237.267 37.3227 236.648 37.664C236.029 38.0053 235.293 38.176 234.44 38.176ZM243.871 38.176C242.943 38.176 242.143 38.0267 241.471 37.728C240.809 37.4187 240.201 36.9547 239.647 36.336L241.279 34.72C241.641 35.136 242.041 35.4613 242.479 35.696C242.927 35.92 243.444 36.032 244.031 36.032C244.564 36.032 244.975 35.936 245.263 35.744C245.561 35.552 245.711 35.2853 245.711 34.944C245.711 34.6347 245.615 34.384 245.423 34.192C245.231 34 244.975 33.8347 244.655 33.696C244.345 33.5573 243.999 33.424 243.615 33.296C243.241 33.168 242.868 33.024 242.495 32.864C242.121 32.6933 241.775 32.4853 241.455 32.24C241.145 31.984 240.895 31.6693 240.703 31.296C240.511 30.912 240.415 30.432 240.415 29.856C240.415 29.1627 240.58 28.5653 240.911 28.064C241.252 27.5627 241.721 27.184 242.319 26.928C242.916 26.6613 243.604 26.528 244.383 26.528C245.172 26.528 245.892 26.6667 246.543 26.944C247.204 27.2213 247.748 27.6 248.175 28.08L246.543 29.696C246.201 29.344 245.855 29.0827 245.503 28.912C245.161 28.7413 244.772 28.656 244.335 28.656C243.897 28.656 243.551 28.7413 243.295 28.912C243.039 29.072 242.911 29.3067 242.911 29.616C242.911 29.904 243.007 30.1387 243.199 30.32C243.391 30.4907 243.641 30.64 243.951 30.768C244.271 30.896 244.617 31.024 244.991 31.152C245.375 31.28 245.753 31.4293 246.127 31.6C246.5 31.7707 246.841 31.9893 247.151 32.256C247.471 32.512 247.727 32.8427 247.919 33.248C248.111 33.6427 248.207 34.1333 248.207 34.72C248.207 35.7973 247.823 36.6453 247.055 37.264C246.287 37.872 245.225 38.176 243.871 38.176Z" fill="#F1F2F4"/>
<mask id="path-26-inside-8_4924_34069" fill="white">
<path d="M344 32C344 14.3269 358.327 0 376 0C393.673 0 408 14.3269 408 32C408 49.6731 393.673 64 376 64C358.327 64 344 49.6731 344 32Z"/>
</mask>
<path d="M344 32C344 14.3269 358.327 0 376 0C393.673 0 408 14.3269 408 32C408 49.6731 393.673 64 376 64C358.327 64 344 49.6731 344 32Z" fill="#1C1D23"/>
<path d="M376 62C359.431 62 346 48.5685 346 32H342C342 50.7777 357.222 66 376 66V62ZM406 32C406 48.5685 392.569 62 376 62V66C394.778 66 410 50.7777 410 32H406ZM376 2C392.569 2 406 15.4315 406 32H410C410 13.2223 394.778 -2 376 -2V2ZM376 -2C357.222 -2 342 13.2223 342 32H346C346 15.4315 359.431 2 376 2V-2Z" fill="#A6AAB3" mask="url(#path-26-inside-8_4924_34069)"/>
<path d="M370.44 38.176C369.725 38.176 369.101 38.048 368.568 37.792C368.045 37.5253 367.597 37.1573 367.224 36.688L368.904 35.072C369.096 35.3387 369.32 35.5413 369.576 35.68C369.843 35.8187 370.141 35.888 370.472 35.888C370.792 35.888 371.069 35.824 371.304 35.696C371.539 35.5573 371.725 35.3653 371.864 35.12C372.003 34.864 372.072 34.5493 372.072 34.176V26.704H374.6V34.032C374.6 34.8747 374.429 35.6053 374.088 36.224C373.747 36.8427 373.267 37.3227 372.648 37.664C372.029 38.0053 371.293 38.176 370.44 38.176ZM379.871 38.176C378.943 38.176 378.143 38.0267 377.471 37.728C376.809 37.4187 376.201 36.9547 375.647 36.336L377.279 34.72C377.641 35.136 378.041 35.4613 378.479 35.696C378.927 35.92 379.444 36.032 380.031 36.032C380.564 36.032 380.975 35.936 381.263 35.744C381.561 35.552 381.711 35.2853 381.711 34.944C381.711 34.6347 381.615 34.384 381.423 34.192C381.231 34 380.975 33.8347 380.655 33.696C380.345 33.5573 379.999 33.424 379.615 33.296C379.241 33.168 378.868 33.024 378.495 32.864C378.121 32.6933 377.775 32.4853 377.455 32.24C377.145 31.984 376.895 31.6693 376.703 31.296C376.511 30.912 376.415 30.432 376.415 29.856C376.415 29.1627 376.58 28.5653 376.911 28.064C377.252 27.5627 377.721 27.184 378.319 26.928C378.916 26.6613 379.604 26.528 380.383 26.528C381.172 26.528 381.892 26.6667 382.543 26.944C383.204 27.2213 383.748 27.6 384.175 28.08L382.543 29.696C382.201 29.344 381.855 29.0827 381.503 28.912C381.161 28.7413 380.772 28.656 380.335 28.656C379.897 28.656 379.551 28.7413 379.295 28.912C379.039 29.072 378.911 29.3067 378.911 29.616C378.911 29.904 379.007 30.1387 379.199 30.32C379.391 30.4907 379.641 30.64 379.951 30.768C380.271 30.896 380.617 31.024 380.991 31.152C381.375 31.28 381.753 31.4293 382.127 31.6C382.5 31.7707 382.841 31.9893 383.151 32.256C383.471 32.512 383.727 32.8427 383.919 33.248C384.111 33.6427 384.207 34.1333 384.207 34.72C384.207 35.7973 383.823 36.6453 383.055 37.264C382.287 37.872 381.225 38.176 379.871 38.176Z" fill="#F1F2F4"/>
<mask id="path-29-inside-9_4924_34069" fill="white">
<path d="M0 270C0 263.373 5.37258 258 12 258C18.6274 258 24 263.373 24 270C24 276.627 18.6274 282 12 282C5.37258 282 0 276.627 0 270Z"/>
</mask>
<path d="M0 270C0 263.373 5.37258 258 12 258C18.6274 258 24 263.373 24 270C24 276.627 18.6274 282 12 282C5.37258 282 0 276.627 0 270Z" fill="#1C1D23"/>
<path d="M12 280C6.47715 280 2 275.523 2 270H-2C-2 277.732 4.26801 284 12 284V280ZM22 270C22 275.523 17.5228 280 12 280V284C19.732 284 26 277.732 26 270H22ZM12 260C17.5228 260 22 264.477 22 270H26C26 262.268 19.732 256 12 256V260ZM12 256C4.26801 256 -2 262.268 -2 270H2C2 264.477 6.47715 260 12 260V256Z" fill="#A6AAB3" mask="url(#path-29-inside-9_4924_34069)"/>
<path d="M11.08 274.132C10.544 274.132 10.076 274.036 9.676 273.844C9.284 273.644 8.948 273.368 8.668 273.016L9.928 271.804C10.072 272.004 10.24 272.156 10.432 272.26C10.632 272.364 10.856 272.416 11.104 272.416C11.344 272.416 11.552 272.368 11.728 272.272C11.904 272.168 12.044 272.024 12.148 271.84C12.252 271.648 12.304 271.412 12.304 271.132V265.528H14.2V271.024C14.2 271.656 14.072 272.204 13.816 272.668C13.56 273.132 13.2 273.492 12.736 273.748C12.272 274.004 11.72 274.132 11.08 274.132Z" fill="#F1F2F4"/>
<g clip-path="url(#clip0_4924_34069)">
<path d="M15 259C15 254.582 18.5817 251 23 251C27.4183 251 31 254.582 31 259C31 263.418 27.4183 267 23 267C18.5817 267 15 263.418 15 259Z" fill="#E1172F"/>
<path d="M20.8649 263L23.5529 259.292L24.2489 259.244C24.1369 259.428 24.0169 259.592 23.8889 259.736C23.7689 259.88 23.6129 259.988 23.4209 260.06C23.2289 260.132 22.9809 260.168 22.6769 260.168C22.1569 260.168 21.6809 260.048 21.2489 259.808C20.8169 259.56 20.4729 259.228 20.2169 258.812C19.9609 258.388 19.8329 257.908 19.8329 257.372C19.8329 256.812 19.9729 256.308 20.2529 255.86C20.5329 255.412 20.9129 255.056 21.3929 254.792C21.8729 254.528 22.4089 254.396 23.0009 254.396C23.6009 254.396 24.1409 254.528 24.6209 254.792C25.1009 255.048 25.4769 255.4 25.7489 255.848C26.0289 256.288 26.1689 256.788 26.1689 257.348C26.1689 258.068 25.9169 258.792 25.4129 259.52L22.9889 263H20.8649ZM23.0009 258.764C23.2569 258.764 23.4849 258.704 23.6849 258.584C23.8929 258.464 24.0529 258.304 24.1649 258.104C24.2849 257.896 24.3449 257.664 24.3449 257.408C24.3449 257.144 24.2849 256.908 24.1649 256.7C24.0529 256.492 23.8929 256.332 23.6849 256.22C23.4849 256.1 23.2569 256.04 23.0009 256.04C22.7449 256.04 22.5169 256.1 22.3169 256.22C22.1169 256.332 21.9569 256.492 21.8369 256.7C21.7169 256.908 21.6569 257.144 21.6569 257.408C21.6569 257.664 21.7169 257.896 21.8369 258.104C21.9569 258.304 22.1169 258.464 22.3169 258.584C22.5249 258.704 22.7529 258.764 23.0009 258.764Z" fill="white"/>
</g>
<mask id="path-34-inside-10_4924_34069" fill="white">
<path d="M104 270C104 261.163 111.163 254 120 254C128.837 254 136 261.163 136 270C136 278.837 128.837 286 120 286C111.163 286 104 278.837 104 270Z"/>
</mask>
<path d="M104 270C104 261.163 111.163 254 120 254C128.837 254 136 261.163 136 270C136 278.837 128.837 286 120 286C111.163 286 104 278.837 104 270Z" fill="#1C1D23"/>
<path d="M120 284C112.268 284 106 277.732 106 270H102C102 279.941 110.059 288 120 288V284ZM134 270C134 277.732 127.732 284 120 284V288C129.941 288 138 279.941 138 270H134ZM120 256C127.732 256 134 262.268 134 270H138C138 260.059 129.941 252 120 252V256ZM120 252C110.059 252 102 260.059 102 270H106C106 262.268 112.268 256 120 256V252Z" fill="#A6AAB3" mask="url(#path-34-inside-10_4924_34069)"/>
<path d="M115.58 274.132C115.044 274.132 114.576 274.036 114.176 273.844C113.784 273.644 113.448 273.368 113.168 273.016L114.428 271.804C114.572 272.004 114.74 272.156 114.932 272.26C115.132 272.364 115.356 272.416 115.604 272.416C115.844 272.416 116.052 272.368 116.228 272.272C116.404 272.168 116.544 272.024 116.648 271.84C116.752 271.648 116.804 271.412 116.804 271.132V265.528H118.7V271.024C118.7 271.656 118.572 272.204 118.316 272.668C118.06 273.132 117.7 273.492 117.236 273.748C116.772 274.004 116.22 274.132 115.58 274.132ZM122.653 274.132C121.957 274.132 121.357 274.02 120.853 273.796C120.357 273.564 119.901 273.216 119.485 272.752L120.709 271.54C120.981 271.852 121.281 272.096 121.609 272.272C121.945 272.44 122.333 272.524 122.773 272.524C123.173 272.524 123.481 272.452 123.697 272.308C123.921 272.164 124.033 271.964 124.033 271.708C124.033 271.476 123.961 271.288 123.817 271.144C123.673 271 123.481 270.876 123.241 270.772C123.009 270.668 122.749 270.568 122.461 270.472C122.181 270.376 121.901 270.268 121.621 270.148C121.341 270.02 121.081 269.864 120.841 269.68C120.609 269.488 120.421 269.252 120.277 268.972C120.133 268.684 120.061 268.324 120.061 267.892C120.061 267.372 120.185 266.924 120.433 266.548C120.689 266.172 121.041 265.888 121.489 265.696C121.937 265.496 122.453 265.396 123.037 265.396C123.629 265.396 124.169 265.5 124.657 265.708C125.153 265.916 125.561 266.2 125.881 266.56L124.657 267.772C124.401 267.508 124.141 267.312 123.877 267.184C123.621 267.056 123.329 266.992 123.001 266.992C122.673 266.992 122.413 267.056 122.221 267.184C122.029 267.304 121.933 267.48 121.933 267.712C121.933 267.928 122.005 268.104 122.149 268.24C122.293 268.368 122.481 268.48 122.713 268.576C122.953 268.672 123.213 268.768 123.493 268.864C123.781 268.96 124.065 269.072 124.345 269.2C124.625 269.328 124.881 269.492 125.113 269.692C125.353 269.884 125.545 270.132 125.689 270.436C125.833 270.732 125.905 271.1 125.905 271.54C125.905 272.348 125.617 272.984 125.041 273.448C124.465 273.904 123.669 274.132 122.653 274.132Z" fill="#F1F2F4"/>
<g clip-path="url(#clip1_4924_34069)">
<path d="M126 257C126 252.582 129.582 249 134 249C138.418 249 142 252.582 142 257C142 261.418 138.418 265 134 265C129.582 265 126 261.418 126 257Z" fill="#E1172F"/>
<path d="M131.865 261L134.553 257.292L135.249 257.244C135.137 257.428 135.017 257.592 134.889 257.736C134.769 257.88 134.613 257.988 134.421 258.06C134.229 258.132 133.981 258.168 133.677 258.168C133.157 258.168 132.681 258.048 132.249 257.808C131.817 257.56 131.473 257.228 131.217 256.812C130.961 256.388 130.833 255.908 130.833 255.372C130.833 254.812 130.973 254.308 131.253 253.86C131.533 253.412 131.913 253.056 132.393 252.792C132.873 252.528 133.409 252.396 134.001 252.396C134.601 252.396 135.141 252.528 135.621 252.792C136.101 253.048 136.477 253.4 136.749 253.848C137.029 254.288 137.169 254.788 137.169 255.348C137.169 256.068 136.917 256.792 136.413 257.52L133.989 261H131.865ZM134.001 256.764C134.257 256.764 134.485 256.704 134.685 256.584C134.893 256.464 135.053 256.304 135.165 256.104C135.285 255.896 135.345 255.664 135.345 255.408C135.345 255.144 135.285 254.908 135.165 254.7C135.053 254.492 134.893 254.332 134.685 254.22C134.485 254.1 134.257 254.04 134.001 254.04C133.745 254.04 133.517 254.1 133.317 254.22C133.117 254.332 132.957 254.492 132.837 254.7C132.717 254.908 132.657 255.144 132.657 255.408C132.657 255.664 132.717 255.896 132.837 256.104C132.957 256.304 133.117 256.464 133.317 256.584C133.525 256.704 133.753 256.764 134.001 256.764Z" fill="white"/>
</g>
<mask id="path-39-inside-11_4924_34069" fill="white">
<path d="M216 270C216 256.745 226.745 246 240 246C253.255 246 264 256.745 264 270C264 283.255 253.255 294 240 294C226.745 294 216 283.255 216 270Z"/>
</mask>
<path d="M216 270C216 256.745 226.745 246 240 246C253.255 246 264 256.745 264 270C264 283.255 253.255 294 240 294C226.745 294 216 283.255 216 270Z" fill="#1C1D23"/>
<path d="M240 292C227.85 292 218 282.15 218 270H214C214 284.359 225.641 296 240 296V292ZM262 270C262 282.15 252.15 292 240 292V296C254.359 296 266 284.359 266 270H262ZM240 248C252.15 248 262 257.85 262 270H266C266 255.641 254.359 244 240 244V248ZM240 244C225.641 244 214 255.641 214 270H218C218 257.85 227.85 248 240 248V244Z" fill="#A6AAB3" mask="url(#path-39-inside-11_4924_34069)"/>
<path d="M234.44 276.176C233.725 276.176 233.101 276.048 232.568 275.792C232.045 275.525 231.597 275.157 231.224 274.688L232.904 273.072C233.096 273.339 233.32 273.541 233.576 273.68C233.843 273.819 234.141 273.888 234.472 273.888C234.792 273.888 235.069 273.824 235.304 273.696C235.539 273.557 235.725 273.365 235.864 273.12C236.003 272.864 236.072 272.549 236.072 272.176V264.704H238.6V272.032C238.6 272.875 238.429 273.605 238.088 274.224C237.747 274.843 237.267 275.323 236.648 275.664C236.029 276.005 235.293 276.176 234.44 276.176ZM243.871 276.176C242.943 276.176 242.143 276.027 241.471 275.728C240.809 275.419 240.201 274.955 239.647 274.336L241.279 272.72C241.641 273.136 242.041 273.461 242.479 273.696C242.927 273.92 243.444 274.032 244.031 274.032C244.564 274.032 244.975 273.936 245.263 273.744C245.561 273.552 245.711 273.285 245.711 272.944C245.711 272.635 245.615 272.384 245.423 272.192C245.231 272 244.975 271.835 244.655 271.696C244.345 271.557 243.999 271.424 243.615 271.296C243.241 271.168 242.868 271.024 242.495 270.864C242.121 270.693 241.775 270.485 241.455 270.24C241.145 269.984 240.895 269.669 240.703 269.296C240.511 268.912 240.415 268.432 240.415 267.856C240.415 267.163 240.58 266.565 240.911 266.064C241.252 265.563 241.721 265.184 242.319 264.928C242.916 264.661 243.604 264.528 244.383 264.528C245.172 264.528 245.892 264.667 246.543 264.944C247.204 265.221 247.748 265.6 248.175 266.08L246.543 267.696C246.201 267.344 245.855 267.083 245.503 266.912C245.161 266.741 244.772 266.656 244.335 266.656C243.897 266.656 243.551 266.741 243.295 266.912C243.039 267.072 242.911 267.307 242.911 267.616C242.911 267.904 243.007 268.139 243.199 268.32C243.391 268.491 243.641 268.64 243.951 268.768C244.271 268.896 244.617 269.024 244.991 269.152C245.375 269.28 245.753 269.429 246.127 269.6C246.5 269.771 246.841 269.989 247.151 270.256C247.471 270.512 247.727 270.843 247.919 271.248C248.111 271.643 248.207 272.133 248.207 272.72C248.207 273.797 247.823 274.645 247.055 275.264C246.287 275.872 245.225 276.176 243.871 276.176Z" fill="#F1F2F4"/>
<g clip-path="url(#clip2_4924_34069)">
<path d="M248 254C248 249.582 251.582 246 256 246C260.418 246 264 249.582 264 254C264 258.418 260.418 262 256 262C251.582 262 248 258.418 248 254Z" fill="#E1172F"/>
<path d="M253.865 258L256.553 254.292L257.249 254.244C257.137 254.428 257.017 254.592 256.889 254.736C256.769 254.88 256.613 254.988 256.421 255.06C256.229 255.132 255.981 255.168 255.677 255.168C255.157 255.168 254.681 255.048 254.249 254.808C253.817 254.56 253.473 254.228 253.217 253.812C252.961 253.388 252.833 252.908 252.833 252.372C252.833 251.812 252.973 251.308 253.253 250.86C253.533 250.412 253.913 250.056 254.393 249.792C254.873 249.528 255.409 249.396 256.001 249.396C256.601 249.396 257.141 249.528 257.621 249.792C258.101 250.048 258.477 250.4 258.749 250.848C259.029 251.288 259.169 251.788 259.169 252.348C259.169 253.068 258.917 253.792 258.413 254.52L255.989 258H253.865ZM256.001 253.764C256.257 253.764 256.485 253.704 256.685 253.584C256.893 253.464 257.053 253.304 257.165 253.104C257.285 252.896 257.345 252.664 257.345 252.408C257.345 252.144 257.285 251.908 257.165 251.7C257.053 251.492 256.893 251.332 256.685 251.22C256.485 251.1 256.257 251.04 256.001 251.04C255.745 251.04 255.517 251.1 255.317 251.22C255.117 251.332 254.957 251.492 254.837 251.7C254.717 251.908 254.657 252.144 254.657 252.408C254.657 252.664 254.717 252.896 254.837 253.104C254.957 253.304 255.117 253.464 255.317 253.584C255.525 253.704 255.753 253.764 256.001 253.764Z" fill="white"/>
</g>
<mask id="path-44-inside-12_4924_34069" fill="white">
<path d="M344 270C344 252.327 358.327 238 376 238C393.673 238 408 252.327 408 270C408 287.673 393.673 302 376 302C358.327 302 344 287.673 344 270Z"/>
</mask>
<path d="M344 270C344 252.327 358.327 238 376 238C393.673 238 408 252.327 408 270C408 287.673 393.673 302 376 302C358.327 302 344 287.673 344 270Z" fill="#1C1D23"/>
<path d="M376 300C359.431 300 346 286.569 346 270H342C342 288.778 357.222 304 376 304V300ZM406 270C406 286.569 392.569 300 376 300V304C394.778 304 410 288.778 410 270H406ZM376 240C392.569 240 406 253.431 406 270H410C410 251.222 394.778 236 376 236V240ZM376 236C357.222 236 342 251.222 342 270H346C346 253.431 359.431 240 376 240V236Z" fill="#A6AAB3" mask="url(#path-44-inside-12_4924_34069)"/>
<path d="M370.44 276.176C369.725 276.176 369.101 276.048 368.568 275.792C368.045 275.525 367.597 275.157 367.224 274.688L368.904 273.072C369.096 273.339 369.32 273.541 369.576 273.68C369.843 273.819 370.141 273.888 370.472 273.888C370.792 273.888 371.069 273.824 371.304 273.696C371.539 273.557 371.725 273.365 371.864 273.12C372.003 272.864 372.072 272.549 372.072 272.176V264.704H374.6V272.032C374.6 272.875 374.429 273.605 374.088 274.224C373.747 274.843 373.267 275.323 372.648 275.664C372.029 276.005 371.293 276.176 370.44 276.176ZM379.871 276.176C378.943 276.176 378.143 276.027 377.471 275.728C376.809 275.419 376.201 274.955 375.647 274.336L377.279 272.72C377.641 273.136 378.041 273.461 378.479 273.696C378.927 273.92 379.444 274.032 380.031 274.032C380.564 274.032 380.975 273.936 381.263 273.744C381.561 273.552 381.711 273.285 381.711 272.944C381.711 272.635 381.615 272.384 381.423 272.192C381.231 272 380.975 271.835 380.655 271.696C380.345 271.557 379.999 271.424 379.615 271.296C379.241 271.168 378.868 271.024 378.495 270.864C378.121 270.693 377.775 270.485 377.455 270.24C377.145 269.984 376.895 269.669 376.703 269.296C376.511 268.912 376.415 268.432 376.415 267.856C376.415 267.163 376.58 266.565 376.911 266.064C377.252 265.563 377.721 265.184 378.319 264.928C378.916 264.661 379.604 264.528 380.383 264.528C381.172 264.528 381.892 264.667 382.543 264.944C383.204 265.221 383.748 265.6 384.175 266.08L382.543 267.696C382.201 267.344 381.855 267.083 381.503 266.912C381.161 266.741 380.772 266.656 380.335 266.656C379.897 266.656 379.551 266.741 379.295 266.912C379.039 267.072 378.911 267.307 378.911 267.616C378.911 267.904 379.007 268.139 379.199 268.32C379.391 268.491 379.641 268.64 379.951 268.768C380.271 268.896 380.617 269.024 380.991 269.152C381.375 269.28 381.753 269.429 382.127 269.6C382.5 269.771 382.841 269.989 383.151 270.256C383.471 270.512 383.727 270.843 383.919 271.248C384.111 271.643 384.207 272.133 384.207 272.72C384.207 273.797 383.823 274.645 383.055 275.264C382.287 275.872 381.225 276.176 379.871 276.176Z" fill="#F1F2F4"/>
<g clip-path="url(#clip3_4924_34069)">
<path d="M392 246C392 241.582 395.582 238 400 238C404.418 238 408 241.582 408 246C408 250.418 404.418 254 400 254C395.582 254 392 250.418 392 246Z" fill="#E1172F"/>
<path d="M397.865 250L400.553 246.292L401.249 246.244C401.137 246.428 401.017 246.592 400.889 246.736C400.769 246.88 400.613 246.988 400.421 247.06C400.229 247.132 399.981 247.168 399.677 247.168C399.157 247.168 398.681 247.048 398.249 246.808C397.817 246.56 397.473 246.228 397.217 245.812C396.961 245.388 396.833 244.908 396.833 244.372C396.833 243.812 396.973 243.308 397.253 242.86C397.533 242.412 397.913 242.056 398.393 241.792C398.873 241.528 399.409 241.396 400.001 241.396C400.601 241.396 401.141 241.528 401.621 241.792C402.101 242.048 402.477 242.4 402.749 242.848C403.029 243.288 403.169 243.788 403.169 244.348C403.169 245.068 402.917 245.792 402.413 246.52L399.989 250H397.865ZM400.001 245.764C400.257 245.764 400.485 245.704 400.685 245.584C400.893 245.464 401.053 245.304 401.165 245.104C401.285 244.896 401.345 244.664 401.345 244.408C401.345 244.144 401.285 243.908 401.165 243.7C401.053 243.492 400.893 243.332 400.685 243.22C400.485 243.1 400.257 243.04 400.001 243.04C399.745 243.04 399.517 243.1 399.317 243.22C399.117 243.332 398.957 243.492 398.837 243.7C398.717 243.908 398.657 244.144 398.657 244.408C398.657 244.664 398.717 244.896 398.837 245.104C398.957 245.304 399.117 245.464 399.317 245.584C399.525 245.704 399.753 245.764 400.001 245.764Z" fill="white"/>
</g>
<defs>
<clipPath id="clip0_4924_34069">
<path d="M15 259C15 254.582 18.5817 251 23 251C27.4183 251 31 254.582 31 259C31 263.418 27.4183 267 23 267C18.5817 267 15 263.418 15 259Z" fill="white"/>
</clipPath>
<clipPath id="clip1_4924_34069">
<path d="M126 257C126 252.582 129.582 249 134 249C138.418 249 142 252.582 142 257C142 261.418 138.418 265 134 265C129.582 265 126 261.418 126 257Z" fill="white"/>
</clipPath>
<clipPath id="clip2_4924_34069">
<path d="M248 254C248 249.582 251.582 246 256 246C260.418 246 264 249.582 264 254C264 258.418 260.418 262 256 262C251.582 262 248 258.418 248 254Z" fill="white"/>
</clipPath>
<clipPath id="clip3_4924_34069">
<path d="M392 246C392 241.582 395.582 238 400 238C404.418 238 408 241.582 408 246C408 250.418 404.418 254 400 254C395.582 254 392 250.418 392 246Z" fill="white"/>
</clipPath>
</defs>
</svg>
